M48
; DRILL file {KiCad 9.0.5} date 2026-01-09T15:49:17-0800
; FORMAT={-:-/ absolute / metric / decimal}
; #@! TF.CreationDate,2026-01-09T15:49:17-08:00
; #@! TF.GenerationSoftware,Kicad,Pcbnew,9.0.5
; #@! TF.FileFunction,Plated,1,2,PTH
FMAT,2
METRIC
; #@! TA.AperFunction,Plated,PTH,ViaDrill
T1C0.300
; #@! TA.AperFunction,Plated,PTH,ComponentDrill
T2C1.260
; #@! TA.AperFunction,Plated,PTH,ComponentDrill
T3C2.410
; #@! TA.AperFunction,Plated,PTH,ComponentDrill
T4C3.000
%
G90
G05
T1
X135.5Y-74.5
X136.0Y-122.0
X137.676Y-74.5
X138.176Y-122.0
X139.853Y-74.5
X140.353Y-122.0
X142.029Y-74.5
X142.529Y-122.0
X144.206Y-74.5
X144.706Y-122.0
X146.382Y-74.5
X146.5Y-103.5
X146.5Y-105.5
X146.5Y-107.5
X148.559Y-74.5
X150.735Y-74.5
X152.912Y-74.5
X155.088Y-74.5
X155.588Y-122.0
X157.265Y-74.5
X157.765Y-122.0
X159.441Y-74.5
X159.941Y-122.0
X161.618Y-74.5
X162.118Y-122.0
X163.794Y-74.5
X164.294Y-122.0
X165.971Y-74.5
X166.471Y-122.0
X168.147Y-74.5
X168.647Y-122.0
X170.324Y-74.5
X170.824Y-122.0
X172.5Y-74.5
X173.0Y-122.0
X177.0Y-80.0
X177.0Y-82.176
X177.0Y-84.353
X177.0Y-86.529
X177.0Y-88.706
X177.0Y-90.882
X177.0Y-93.059
X177.0Y-95.235
X177.0Y-97.412
X177.0Y-99.588
X177.0Y-101.765
X177.0Y-103.941
X177.0Y-106.118
X177.0Y-108.294
X177.0Y-110.471
X177.0Y-112.647
X177.0Y-114.824
X177.0Y-117.0
T2
X162.45Y-95.76
X162.45Y-98.3
X162.45Y-100.84
T3
X135.03Y-81.5
X135.03Y-88.8
X135.03Y-94.575
X135.03Y-101.875
X135.03Y-107.65
X135.03Y-114.95
T4
X164.259Y-88.821
X164.259Y-107.821
M30
