%TF.GenerationSoftware,KiCad,Pcbnew,9.0.5*%
%TF.CreationDate,2026-01-09T15:49:09-08:00*%
%TF.ProjectId,Linear_Voltage_Regulator,4c696e65-6172-45f5-966f-6c746167655f,rev?*%
%TF.SameCoordinates,Original*%
%TF.FileFunction,Copper,L1,Top*%
%TF.FilePolarity,Positive*%
%FSLAX46Y46*%
G04 Gerber Fmt 4.6, Leading zero omitted, Abs format (unit mm)*
G04 Created by KiCad (PCBNEW 9.0.5) date 2026-01-09 15:49:09*
%MOMM*%
%LPD*%
G01*
G04 APERTURE LIST*
G04 Aperture macros list*
%AMRoundRect*
0 Rectangle with rounded corners*
0 $1 Rounding radius*
0 $2 $3 $4 $5 $6 $7 $8 $9 X,Y pos of 4 corners*
0 Add a 4 corners polygon primitive as box body*
4,1,4,$2,$3,$4,$5,$6,$7,$8,$9,$2,$3,0*
0 Add four circle primitives for the rounded corners*
1,1,$1+$1,$2,$3*
1,1,$1+$1,$4,$5*
1,1,$1+$1,$6,$7*
1,1,$1+$1,$8,$9*
0 Add four rect primitives between the rounded corners*
20,1,$1+$1,$2,$3,$4,$5,0*
20,1,$1+$1,$4,$5,$6,$7,0*
20,1,$1+$1,$6,$7,$8,$9,0*
20,1,$1+$1,$8,$9,$2,$3,0*%
G04 Aperture macros list end*
%TA.AperFunction,ComponentPad*%
%ADD10C,2.910000*%
%TD*%
%TA.AperFunction,SMDPad,CuDef*%
%ADD11R,2.920000X1.270000*%
%TD*%
%TA.AperFunction,SMDPad,CuDef*%
%ADD12R,2.350000X1.550000*%
%TD*%
%TA.AperFunction,SMDPad,CuDef*%
%ADD13R,1.390000X0.910000*%
%TD*%
%TA.AperFunction,ComponentPad*%
%ADD14R,1.890000X1.890000*%
%TD*%
%TA.AperFunction,ComponentPad*%
%ADD15C,1.890000*%
%TD*%
%TA.AperFunction,SMDPad,CuDef*%
%ADD16R,2.370000X2.430000*%
%TD*%
%TA.AperFunction,SMDPad,CuDef*%
%ADD17R,4.241800X3.810000*%
%TD*%
%TA.AperFunction,SMDPad,CuDef*%
%ADD18RoundRect,0.250000X-0.450000X0.350000X-0.450000X-0.350000X0.450000X-0.350000X0.450000X0.350000X0*%
%TD*%
%TA.AperFunction,SMDPad,CuDef*%
%ADD19R,1.430000X0.940000*%
%TD*%
%TA.AperFunction,ComponentPad*%
%ADD20C,4.500000*%
%TD*%
%TA.AperFunction,ViaPad*%
%ADD21C,0.600000*%
%TD*%
%TA.AperFunction,Conductor*%
%ADD22C,0.800000*%
%TD*%
%TA.AperFunction,Conductor*%
%ADD23C,0.200000*%
%TD*%
G04 APERTURE END LIST*
D10*
%TO.P,J3,4,4*%
%TO.N,GND*%
X135030000Y-107650000D03*
%TO.P,J3,3,3*%
X135030000Y-114950000D03*
D11*
%TO.P,J3,2,2*%
%TO.N,Net-(J3-Pad1)*%
X140500000Y-109800000D03*
%TO.P,J3,1,1*%
%TO.N,GND*%
X140500000Y-112800000D03*
%TD*%
D12*
%TO.P,D1,1*%
%TO.N,Net-(IC1-INPUT)*%
X150150000Y-93975000D03*
%TO.P,D1,2*%
%TO.N,Net-(D1-Pad2)*%
X145850000Y-93975000D03*
%TD*%
D13*
%TO.P,C2,1*%
%TO.N,Net-(IC1-INPUT)*%
X156500000Y-95820000D03*
%TO.P,C2,2*%
%TO.N,GND*%
X156500000Y-94180000D03*
%TD*%
D11*
%TO.P,J1,1,1*%
%TO.N,GND*%
X140500000Y-86650000D03*
%TO.P,J1,2,2*%
%TO.N,Net-(C1-Pad1)*%
X140500000Y-83650000D03*
D10*
%TO.P,J1,3,3*%
%TO.N,GND*%
X135030000Y-88800000D03*
%TO.P,J1,4,4*%
X135030000Y-81500000D03*
%TD*%
D14*
%TO.P,IC1,1,INPUT*%
%TO.N,Net-(IC1-INPUT)*%
X162450000Y-95760000D03*
D15*
%TO.P,IC1,2,COMMON*%
%TO.N,GND*%
X162450000Y-98300000D03*
%TO.P,IC1,3,OUTPUT*%
%TO.N,Net-(IC1-OUTPUT)*%
X162450000Y-100840000D03*
%TD*%
D16*
%TO.P,C1,1*%
%TO.N,Net-(C1-Pad1)*%
X146380000Y-82300000D03*
%TO.P,C1,2*%
%TO.N,GND*%
X152620000Y-82300000D03*
%TD*%
D17*
%TO.P,F1,1*%
%TO.N,Net-(C1-Pad1)*%
X146312300Y-88800000D03*
%TO.P,F1,2*%
%TO.N,Net-(D1-Pad2)*%
X152687700Y-88800000D03*
%TD*%
D18*
%TO.P,R2,1*%
%TO.N,Net-(IC1-OUTPUT)*%
X151500000Y-105000000D03*
%TO.P,R2,2*%
%TO.N,Net-(J3-Pad1)*%
X151500000Y-107000000D03*
%TD*%
D11*
%TO.P,J2,1,1*%
%TO.N,GND*%
X140500000Y-99725000D03*
%TO.P,J2,2,2*%
%TO.N,Net-(IC1-OUTPUT)*%
X140500000Y-96725000D03*
D10*
%TO.P,J2,3,3*%
%TO.N,GND*%
X135030000Y-101875000D03*
%TO.P,J2,4,4*%
X135030000Y-94575000D03*
%TD*%
D18*
%TO.P,R1,1*%
%TO.N,Net-(IC1-OUTPUT)*%
X145500000Y-98300000D03*
%TO.P,R1,2*%
%TO.N,GND*%
X145500000Y-100300000D03*
%TD*%
D19*
%TO.P,C3,1,1*%
%TO.N,Net-(IC1-OUTPUT)*%
X156500000Y-100835000D03*
%TO.P,C3,2,2*%
%TO.N,GND*%
X156500000Y-102475000D03*
%TD*%
D20*
%TO.P,U1,1,1*%
%TO.N,GND*%
X164259234Y-88821475D03*
%TO.P,U1,2,2*%
X164259234Y-107821475D03*
%TD*%
D21*
%TO.N,GND*%
X177000000Y-99588240D03*
X165970580Y-74500000D03*
X144205880Y-74500000D03*
X150735290Y-74500000D03*
X152911760Y-74500000D03*
X157764700Y-122000000D03*
X168647050Y-122000000D03*
X173000000Y-122000000D03*
X177000000Y-101764710D03*
X177000000Y-97411770D03*
X163794110Y-74500000D03*
X166470580Y-122000000D03*
X137676470Y-74500000D03*
X159941170Y-122000000D03*
X170823520Y-122000000D03*
X177000000Y-114823530D03*
X177000000Y-108294120D03*
X177000000Y-110470590D03*
X146500000Y-105500000D03*
X177000000Y-86529420D03*
X177000000Y-80000000D03*
X168147050Y-74500000D03*
X139852940Y-74500000D03*
X177000000Y-82176480D03*
X157264700Y-74500000D03*
X177000000Y-112647060D03*
X148558820Y-74500000D03*
X177000000Y-90882360D03*
X142029410Y-74500000D03*
X146500000Y-107500000D03*
X155088230Y-74500000D03*
X177000000Y-103941180D03*
X177000000Y-117000000D03*
X136000000Y-122000000D03*
X135500000Y-74500000D03*
X170323520Y-74500000D03*
X164294110Y-122000000D03*
X140352940Y-122000000D03*
X177000000Y-95235300D03*
X161617640Y-74500000D03*
X144705880Y-122000000D03*
X138176470Y-122000000D03*
X146500000Y-103500000D03*
X177000000Y-106117650D03*
X159441170Y-74500000D03*
X177000000Y-88705890D03*
X177000000Y-93058830D03*
X177000000Y-84352950D03*
X162117640Y-122000000D03*
X172500000Y-74500000D03*
X146382350Y-74500000D03*
X155588230Y-122000000D03*
X142529410Y-122000000D03*
%TD*%
D22*
%TO.N,Net-(J3-Pad1)*%
X148700000Y-109800000D02*
X151500000Y-107000000D01*
X140500000Y-109800000D02*
X148700000Y-109800000D01*
%TO.N,GND*%
X140524000Y-112776000D02*
X140500000Y-112800000D01*
%TO.N,Net-(J3-Pad1)*%
X140500000Y-109800000D02*
X140524000Y-109824000D01*
%TO.N,Net-(C1-Pad1)*%
X142675000Y-83650000D02*
X146312300Y-87287300D01*
X140500000Y-82975000D02*
X141175000Y-82300000D01*
X140500000Y-83650000D02*
X142675000Y-83650000D01*
X146312300Y-87287300D02*
X146312300Y-88800000D01*
D23*
X146312300Y-88287300D02*
X146312300Y-88800000D01*
D22*
X141175000Y-82300000D02*
X146380000Y-82300000D01*
X140500000Y-83650000D02*
X140500000Y-82975000D01*
D23*
%TO.N,Net-(IC1-INPUT)*%
X158440000Y-95820000D02*
X158500000Y-95760000D01*
D22*
X162450000Y-95760000D02*
X162415000Y-95795000D01*
X151825000Y-93800000D02*
X150150000Y-93800000D01*
X153820000Y-95795000D02*
X151825000Y-93800000D01*
X162415000Y-95795000D02*
X153820000Y-95795000D01*
%TO.N,Net-(D1-Pad2)*%
X152687700Y-88800000D02*
X152687700Y-91287300D01*
X152000000Y-91975000D02*
X146500000Y-91975000D01*
X146500000Y-91975000D02*
X145850000Y-92625000D01*
X152687700Y-91287300D02*
X152000000Y-91975000D01*
X145850000Y-92625000D02*
X145850000Y-93800000D01*
%TO.N,Net-(IC1-OUTPUT)*%
X151500000Y-105000000D02*
X151500000Y-102500000D01*
X142750000Y-96725000D02*
X140500000Y-96725000D01*
X145500000Y-98125000D02*
X144150000Y-98125000D01*
X154505000Y-100840000D02*
X154500000Y-100835000D01*
X153085000Y-100835000D02*
X150375000Y-98125000D01*
X162450000Y-100840000D02*
X154505000Y-100840000D01*
X153335000Y-100835000D02*
X153085000Y-100835000D01*
X144150000Y-98125000D02*
X142750000Y-96725000D01*
X162445000Y-100835000D02*
X162450000Y-100840000D01*
X154500000Y-100835000D02*
X153165000Y-100835000D01*
X153165000Y-100835000D02*
X151500000Y-102500000D01*
X158000000Y-100835000D02*
X162445000Y-100835000D01*
X150375000Y-98125000D02*
X145500000Y-98125000D01*
%TD*%
%TA.AperFunction,Conductor*%
%TO.N,GND*%
G36*
X181942539Y-70020185D02*
G01*
X181988294Y-70072989D01*
X181999500Y-70124500D01*
X181999500Y-126875500D01*
X181979815Y-126942539D01*
X181927011Y-126988294D01*
X181875500Y-126999500D01*
X128124500Y-126999500D01*
X128057461Y-126979815D01*
X128011706Y-126927011D01*
X128000500Y-126875500D01*
X128000500Y-121872149D01*
X130549500Y-121872149D01*
X130549500Y-122127850D01*
X130562665Y-122227843D01*
X130582874Y-122381340D01*
X130609669Y-122481340D01*
X130649050Y-122628312D01*
X130649053Y-122628322D01*
X130746894Y-122864531D01*
X130746899Y-122864542D01*
X130874734Y-123085957D01*
X130874745Y-123085973D01*
X131030388Y-123288811D01*
X131030394Y-123288818D01*
X131211181Y-123469605D01*
X131211187Y-123469610D01*
X131414035Y-123625261D01*
X131414042Y-123625265D01*
X131635457Y-123753100D01*
X131635462Y-123753102D01*
X131635465Y-123753104D01*
X131871687Y-123850950D01*
X132118660Y-123917126D01*
X132372157Y-123950500D01*
X132372164Y-123950500D01*
X132627836Y-123950500D01*
X132627843Y-123950500D01*
X132881340Y-123917126D01*
X133128313Y-123850950D01*
X133364535Y-123753104D01*
X133585965Y-123625261D01*
X133788813Y-123469610D01*
X133969610Y-123288813D01*
X134125261Y-123085965D01*
X134253104Y-122864535D01*
X134350950Y-122628313D01*
X134417126Y-122381340D01*
X134450500Y-122127843D01*
X134450500Y-121972149D01*
X175049500Y-121972149D01*
X175049500Y-122227850D01*
X175075457Y-122425007D01*
X175082874Y-122481340D01*
X175122258Y-122628322D01*
X175149050Y-122728312D01*
X175149053Y-122728322D01*
X175246894Y-122964531D01*
X175246899Y-122964542D01*
X175374734Y-123185957D01*
X175374745Y-123185973D01*
X175530388Y-123388811D01*
X175530394Y-123388818D01*
X175711181Y-123569605D01*
X175711188Y-123569611D01*
X175783713Y-123625261D01*
X175914035Y-123725261D01*
X175914042Y-123725265D01*
X176135457Y-123853100D01*
X176135462Y-123853102D01*
X176135465Y-123853104D01*
X176284426Y-123914805D01*
X176370600Y-123950500D01*
X176371687Y-123950950D01*
X176618660Y-124017126D01*
X176872157Y-124050500D01*
X176872164Y-124050500D01*
X177127836Y-124050500D01*
X177127843Y-124050500D01*
X177381340Y-124017126D01*
X177628313Y-123950950D01*
X177864535Y-123853104D01*
X178085965Y-123725261D01*
X178288813Y-123569610D01*
X178469610Y-123388813D01*
X178625261Y-123185965D01*
X178753104Y-122964535D01*
X178850950Y-122728313D01*
X178917126Y-122481340D01*
X178950500Y-122227843D01*
X178950500Y-121972157D01*
X178917126Y-121718660D01*
X178850950Y-121471687D01*
X178820280Y-121397644D01*
X178753105Y-121235468D01*
X178753100Y-121235457D01*
X178625265Y-121014042D01*
X178625261Y-121014035D01*
X178469610Y-120811187D01*
X178469605Y-120811181D01*
X178288818Y-120630394D01*
X178288811Y-120630388D01*
X178085973Y-120474745D01*
X178085971Y-120474743D01*
X178085965Y-120474739D01*
X178085960Y-120474736D01*
X178085957Y-120474734D01*
X177864542Y-120346899D01*
X177864531Y-120346894D01*
X177628322Y-120249053D01*
X177628315Y-120249051D01*
X177628313Y-120249050D01*
X177381340Y-120182874D01*
X177325007Y-120175457D01*
X177127850Y-120149500D01*
X177127843Y-120149500D01*
X176872157Y-120149500D01*
X176872149Y-120149500D01*
X176646826Y-120179165D01*
X176618660Y-120182874D01*
X176379733Y-120246894D01*
X176371687Y-120249050D01*
X176371677Y-120249053D01*
X176135468Y-120346894D01*
X176135457Y-120346899D01*
X175914042Y-120474734D01*
X175914026Y-120474745D01*
X175711188Y-120630388D01*
X175711181Y-120630394D01*
X175530394Y-120811181D01*
X175530388Y-120811188D01*
X175374745Y-121014026D01*
X175374734Y-121014042D01*
X175246899Y-121235457D01*
X175246894Y-121235468D01*
X175149053Y-121471677D01*
X175149050Y-121471687D01*
X175082874Y-121718661D01*
X175049500Y-121972149D01*
X134450500Y-121972149D01*
X134450500Y-121872157D01*
X134417126Y-121618660D01*
X134350950Y-121371687D01*
X134253104Y-121135465D01*
X134253102Y-121135462D01*
X134253100Y-121135457D01*
X134125265Y-120914042D01*
X134125261Y-120914035D01*
X133969610Y-120711187D01*
X133969605Y-120711181D01*
X133788818Y-120530394D01*
X133788811Y-120530388D01*
X133585973Y-120374745D01*
X133585971Y-120374743D01*
X133585965Y-120374739D01*
X133585960Y-120374736D01*
X133585957Y-120374734D01*
X133364542Y-120246899D01*
X133364531Y-120246894D01*
X133128322Y-120149053D01*
X133128315Y-120149051D01*
X133128313Y-120149050D01*
X132881340Y-120082874D01*
X132825007Y-120075457D01*
X132627850Y-120049500D01*
X132627843Y-120049500D01*
X132372157Y-120049500D01*
X132372149Y-120049500D01*
X132146826Y-120079165D01*
X132118660Y-120082874D01*
X131871687Y-120149050D01*
X131871677Y-120149053D01*
X131635468Y-120246894D01*
X131635457Y-120246899D01*
X131414042Y-120374734D01*
X131414026Y-120374745D01*
X131211188Y-120530388D01*
X131211181Y-120530394D01*
X131030394Y-120711181D01*
X131030388Y-120711188D01*
X130874745Y-120914026D01*
X130874734Y-120914042D01*
X130746899Y-121135457D01*
X130746894Y-121135468D01*
X130649053Y-121371677D01*
X130649050Y-121371687D01*
X130582874Y-121618661D01*
X130549500Y-121872149D01*
X128000500Y-121872149D01*
X128000500Y-114821862D01*
X133075000Y-114821862D01*
X133075000Y-115078137D01*
X133108448Y-115332209D01*
X133108451Y-115332222D01*
X133174779Y-115579765D01*
X133272849Y-115816526D01*
X133272851Y-115816530D01*
X133400989Y-116038469D01*
X133400990Y-116038470D01*
X133482174Y-116144271D01*
X134018536Y-115607908D01*
X134110878Y-115735005D01*
X134244995Y-115869122D01*
X134372089Y-115961461D01*
X133835727Y-116497823D01*
X133835727Y-116497824D01*
X133941529Y-116579009D01*
X133941530Y-116579010D01*
X134163469Y-116707148D01*
X134163473Y-116707150D01*
X134400234Y-116805220D01*
X134647777Y-116871548D01*
X134647790Y-116871551D01*
X134901862Y-116905000D01*
X135158138Y-116905000D01*
X135412209Y-116871551D01*
X135412222Y-116871548D01*
X135659765Y-116805220D01*
X135896526Y-116707150D01*
X135896530Y-116707148D01*
X136118479Y-116579005D01*
X136224271Y-116497826D01*
X136224271Y-116497823D01*
X135687909Y-115961462D01*
X135815005Y-115869122D01*
X135949122Y-115735005D01*
X136041462Y-115607910D01*
X136577823Y-116144271D01*
X136577826Y-116144271D01*
X136659005Y-116038479D01*
X136787148Y-115816530D01*
X136787150Y-115816526D01*
X136885220Y-115579765D01*
X136951548Y-115332222D01*
X136951551Y-115332209D01*
X136985000Y-115078137D01*
X136985000Y-114821862D01*
X136951551Y-114567790D01*
X136951548Y-114567777D01*
X136885220Y-114320234D01*
X136787150Y-114083473D01*
X136787148Y-114083469D01*
X136659010Y-113861530D01*
X136659009Y-113861529D01*
X136577824Y-113755727D01*
X136577823Y-113755727D01*
X136041461Y-114292089D01*
X135949122Y-114164995D01*
X135815005Y-114030878D01*
X135687908Y-113938536D01*
X136143601Y-113482844D01*
X138540000Y-113482844D01*
X138546401Y-113542372D01*
X138546403Y-113542379D01*
X138596645Y-113677086D01*
X138596649Y-113677093D01*
X138682809Y-113792187D01*
X138682812Y-113792190D01*
X138797906Y-113878350D01*
X138797913Y-113878354D01*
X138932620Y-113928596D01*
X138932627Y-113928598D01*
X138992155Y-113934999D01*
X138992172Y-113935000D01*
X140250000Y-113935000D01*
X140750000Y-113935000D01*
X142007828Y-113935000D01*
X142007844Y-113934999D01*
X142067372Y-113928598D01*
X142067379Y-113928596D01*
X142202086Y-113878354D01*
X142202093Y-113878350D01*
X142317187Y-113792190D01*
X142317190Y-113792187D01*
X142403350Y-113677093D01*
X142403354Y-113677086D01*
X142453596Y-113542379D01*
X142453598Y-113542372D01*
X142459999Y-113482844D01*
X142460000Y-113482827D01*
X142460000Y-113050000D01*
X140750000Y-113050000D01*
X140750000Y-113935000D01*
X140250000Y-113935000D01*
X140250000Y-113050000D01*
X138540000Y-113050000D01*
X138540000Y-113482844D01*
X136143601Y-113482844D01*
X136224271Y-113402174D01*
X136118470Y-113320990D01*
X136118469Y-113320989D01*
X135896530Y-113192851D01*
X135896526Y-113192849D01*
X135704234Y-113113199D01*
X135704232Y-113113198D01*
X135659767Y-113094780D01*
X135659769Y-113094780D01*
X135412222Y-113028451D01*
X135412209Y-113028448D01*
X135158138Y-112995000D01*
X134901862Y-112995000D01*
X134647790Y-113028448D01*
X134647777Y-113028451D01*
X134400234Y-113094779D01*
X134163473Y-113192849D01*
X134163469Y-113192851D01*
X133941530Y-113320989D01*
X133941520Y-113320995D01*
X133835727Y-113402173D01*
X133835727Y-113402174D01*
X134372090Y-113938537D01*
X134244995Y-114030878D01*
X134110878Y-114164995D01*
X134018537Y-114292090D01*
X133482174Y-113755727D01*
X133482173Y-113755727D01*
X133400995Y-113861520D01*
X133400989Y-113861530D01*
X133272851Y-114083469D01*
X133272849Y-114083473D01*
X133174779Y-114320234D01*
X133108451Y-114567777D01*
X133108448Y-114567790D01*
X133075000Y-114821862D01*
X128000500Y-114821862D01*
X128000500Y-112117155D01*
X138540000Y-112117155D01*
X138540000Y-112550000D01*
X140250000Y-112550000D01*
X140750000Y-112550000D01*
X142460000Y-112550000D01*
X142460000Y-112117172D01*
X142459999Y-112117155D01*
X142453598Y-112057627D01*
X142453596Y-112057620D01*
X142403354Y-111922913D01*
X142403350Y-111922906D01*
X142317190Y-111807812D01*
X142317187Y-111807809D01*
X142202093Y-111721649D01*
X142202086Y-111721645D01*
X142067379Y-111671403D01*
X142067372Y-111671401D01*
X142007844Y-111665000D01*
X140750000Y-111665000D01*
X140750000Y-112550000D01*
X140250000Y-112550000D01*
X140250000Y-111665000D01*
X138992155Y-111665000D01*
X138932627Y-111671401D01*
X138932620Y-111671403D01*
X138797913Y-111721645D01*
X138797906Y-111721649D01*
X138682812Y-111807809D01*
X138682809Y-111807812D01*
X138596649Y-111922906D01*
X138596645Y-111922913D01*
X138546403Y-112057620D01*
X138546401Y-112057627D01*
X138540000Y-112117155D01*
X128000500Y-112117155D01*
X128000500Y-107521862D01*
X133075000Y-107521862D01*
X133075000Y-107778137D01*
X133108448Y-108032209D01*
X133108451Y-108032222D01*
X133174779Y-108279765D01*
X133272849Y-108516526D01*
X133272851Y-108516530D01*
X133400989Y-108738469D01*
X133400990Y-108738470D01*
X133482174Y-108844271D01*
X134018536Y-108307908D01*
X134110878Y-108435005D01*
X134244995Y-108569122D01*
X134372089Y-108661461D01*
X133835727Y-109197823D01*
X133835727Y-109197824D01*
X133941529Y-109279009D01*
X133941530Y-109279010D01*
X134163469Y-109407148D01*
X134163473Y-109407150D01*
X134400234Y-109505220D01*
X134647777Y-109571548D01*
X134647790Y-109571551D01*
X134901862Y-109605000D01*
X135158138Y-109605000D01*
X135412209Y-109571551D01*
X135412222Y-109571548D01*
X135659765Y-109505220D01*
X135896526Y-109407150D01*
X135896530Y-109407148D01*
X136118479Y-109279005D01*
X136224271Y-109197826D01*
X136224271Y-109197823D01*
X135687909Y-108661462D01*
X135815005Y-108569122D01*
X135949122Y-108435005D01*
X136041462Y-108307910D01*
X136577823Y-108844271D01*
X136577826Y-108844271D01*
X136659005Y-108738479D01*
X136787148Y-108516530D01*
X136787150Y-108516526D01*
X136885220Y-108279765D01*
X136951548Y-108032222D01*
X136951551Y-108032209D01*
X136985000Y-107778137D01*
X136985000Y-107521862D01*
X136951551Y-107267790D01*
X136951548Y-107267777D01*
X136885220Y-107020234D01*
X136787150Y-106783473D01*
X136787148Y-106783469D01*
X136659010Y-106561530D01*
X136659009Y-106561529D01*
X136577824Y-106455727D01*
X136577823Y-106455727D01*
X136041461Y-106992089D01*
X135949122Y-106864995D01*
X135815005Y-106730878D01*
X135687908Y-106638536D01*
X136224271Y-106102174D01*
X136118470Y-106020990D01*
X136118469Y-106020989D01*
X135896530Y-105892851D01*
X135896526Y-105892849D01*
X135659765Y-105794779D01*
X135412222Y-105728451D01*
X135412209Y-105728448D01*
X135158138Y-105695000D01*
X134901862Y-105695000D01*
X134647790Y-105728448D01*
X134647777Y-105728451D01*
X134400234Y-105794779D01*
X134163473Y-105892849D01*
X134163469Y-105892851D01*
X133941530Y-106020989D01*
X133941520Y-106020995D01*
X133835727Y-106102173D01*
X133835727Y-106102174D01*
X134372090Y-106638537D01*
X134244995Y-106730878D01*
X134110878Y-106864995D01*
X134018537Y-106992090D01*
X133482174Y-106455727D01*
X133482173Y-106455727D01*
X133400995Y-106561520D01*
X133400989Y-106561530D01*
X133272851Y-106783469D01*
X133272849Y-106783473D01*
X133174779Y-107020234D01*
X133108451Y-107267777D01*
X133108448Y-107267790D01*
X133075000Y-107521862D01*
X128000500Y-107521862D01*
X128000500Y-101746862D01*
X133075000Y-101746862D01*
X133075000Y-102003137D01*
X133108448Y-102257209D01*
X133108451Y-102257222D01*
X133174779Y-102504765D01*
X133272849Y-102741526D01*
X133272851Y-102741530D01*
X133400989Y-102963469D01*
X133400990Y-102963470D01*
X133482174Y-103069271D01*
X134018536Y-102532908D01*
X134110878Y-102660005D01*
X134244995Y-102794122D01*
X134372089Y-102886461D01*
X133835727Y-103422823D01*
X133835727Y-103422824D01*
X133941529Y-103504009D01*
X133941530Y-103504010D01*
X134163469Y-103632148D01*
X134163473Y-103632150D01*
X134400234Y-103730220D01*
X134647777Y-103796548D01*
X134647790Y-103796551D01*
X134901862Y-103830000D01*
X135158138Y-103830000D01*
X135412209Y-103796551D01*
X135412222Y-103796548D01*
X135659765Y-103730220D01*
X135896526Y-103632150D01*
X135896530Y-103632148D01*
X136118479Y-103504005D01*
X136224271Y-103422826D01*
X136224271Y-103422823D01*
X135687909Y-102886462D01*
X135815005Y-102794122D01*
X135949122Y-102660005D01*
X136041462Y-102532910D01*
X136577823Y-103069271D01*
X136577826Y-103069271D01*
X136659005Y-102963479D01*
X136787148Y-102741530D01*
X136787150Y-102741526D01*
X136885220Y-102504765D01*
X136951548Y-102257222D01*
X136951551Y-102257209D01*
X136985000Y-102003137D01*
X136985000Y-101746862D01*
X136951551Y-101492790D01*
X136951548Y-101492777D01*
X136885220Y-101245234D01*
X136787150Y-101008473D01*
X136787148Y-101008469D01*
X136659010Y-100786530D01*
X136659009Y-100786529D01*
X136577824Y-100680727D01*
X136577823Y-100680727D01*
X136041461Y-101217089D01*
X135949122Y-101089995D01*
X135815005Y-100955878D01*
X135687908Y-100863536D01*
X136143601Y-100407844D01*
X138540000Y-100407844D01*
X138546401Y-100467372D01*
X138546403Y-100467379D01*
X138596645Y-100602086D01*
X138596649Y-100602093D01*
X138682809Y-100717187D01*
X138682812Y-100717190D01*
X138797906Y-100803350D01*
X138797913Y-100803354D01*
X138932620Y-100853596D01*
X138932627Y-100853598D01*
X138992155Y-100859999D01*
X138992172Y-100860000D01*
X140250000Y-100860000D01*
X140750000Y-100860000D01*
X142007828Y-100860000D01*
X142007844Y-100859999D01*
X142067372Y-100853598D01*
X142067379Y-100853596D01*
X142202086Y-100803354D01*
X142202093Y-100803350D01*
X142317187Y-100717190D01*
X142317190Y-100717187D01*
X142330067Y-100699986D01*
X144300001Y-100699986D01*
X144310494Y-100802697D01*
X144365641Y-100969119D01*
X144365643Y-100969124D01*
X144457684Y-101118345D01*
X144581654Y-101242315D01*
X144730875Y-101334356D01*
X144730880Y-101334358D01*
X144897302Y-101389505D01*
X144897309Y-101389506D01*
X145000019Y-101399999D01*
X145249999Y-101399999D01*
X145750000Y-101399999D01*
X145999972Y-101399999D01*
X145999986Y-101399998D01*
X146102697Y-101389505D01*
X146269119Y-101334358D01*
X146269124Y-101334356D01*
X146418345Y-101242315D01*
X146542315Y-101118345D01*
X146634356Y-100969124D01*
X146634358Y-100969119D01*
X146689505Y-100802697D01*
X146689506Y-100802690D01*
X146699999Y-100699986D01*
X146700000Y-100699973D01*
X146700000Y-100550000D01*
X145750000Y-100550000D01*
X145750000Y-101399999D01*
X145249999Y-101399999D01*
X145250000Y-101399998D01*
X145250000Y-100550000D01*
X144300001Y-100550000D01*
X144300001Y-100699986D01*
X142330067Y-100699986D01*
X142403350Y-100602093D01*
X142403354Y-100602086D01*
X142453598Y-100467376D01*
X142459999Y-100407844D01*
X142460000Y-100407827D01*
X142460000Y-99975000D01*
X140750000Y-99975000D01*
X140750000Y-100860000D01*
X140250000Y-100860000D01*
X140250000Y-99975000D01*
X138540000Y-99975000D01*
X138540000Y-100407844D01*
X136143601Y-100407844D01*
X136224271Y-100327174D01*
X136118470Y-100245990D01*
X136118469Y-100245989D01*
X135896530Y-100117851D01*
X135896526Y-100117849D01*
X135704234Y-100038199D01*
X135704232Y-100038198D01*
X135659767Y-100019780D01*
X135659769Y-100019780D01*
X135412222Y-99953451D01*
X135412209Y-99953448D01*
X135158138Y-99920000D01*
X134901862Y-99920000D01*
X134647790Y-99953448D01*
X134647777Y-99953451D01*
X134400234Y-100019779D01*
X134163473Y-100117849D01*
X134163469Y-100117851D01*
X133941530Y-100245989D01*
X133941520Y-100245995D01*
X133835727Y-100327173D01*
X133835727Y-100327174D01*
X134372090Y-100863537D01*
X134244995Y-100955878D01*
X134110878Y-101089995D01*
X134018537Y-101217090D01*
X133482174Y-100680727D01*
X133482173Y-100680727D01*
X133400995Y-100786520D01*
X133400989Y-100786530D01*
X133272851Y-101008469D01*
X133272849Y-101008473D01*
X133174779Y-101245234D01*
X133108451Y-101492777D01*
X133108448Y-101492790D01*
X133075000Y-101746862D01*
X128000500Y-101746862D01*
X128000500Y-99042155D01*
X138540000Y-99042155D01*
X138540000Y-99475000D01*
X140250000Y-99475000D01*
X140750000Y-99475000D01*
X142460000Y-99475000D01*
X142460000Y-99042172D01*
X142459999Y-99042155D01*
X142453598Y-98982627D01*
X142453596Y-98982620D01*
X142403354Y-98847913D01*
X142403350Y-98847906D01*
X142317190Y-98732812D01*
X142317187Y-98732809D01*
X142202093Y-98646649D01*
X142202086Y-98646645D01*
X142067379Y-98596403D01*
X142067372Y-98596401D01*
X142007844Y-98590000D01*
X140750000Y-98590000D01*
X140750000Y-99475000D01*
X140250000Y-99475000D01*
X140250000Y-98590000D01*
X138992155Y-98590000D01*
X138932627Y-98596401D01*
X138932620Y-98596403D01*
X138797913Y-98646645D01*
X138797906Y-98646649D01*
X138682812Y-98732809D01*
X138682809Y-98732812D01*
X138596649Y-98847906D01*
X138596645Y-98847913D01*
X138546403Y-98982620D01*
X138546401Y-98982627D01*
X138540000Y-99042155D01*
X128000500Y-99042155D01*
X128000500Y-94446862D01*
X133075000Y-94446862D01*
X133075000Y-94703137D01*
X133108448Y-94957209D01*
X133108451Y-94957222D01*
X133174779Y-95204765D01*
X133272849Y-95441526D01*
X133272851Y-95441530D01*
X133400989Y-95663469D01*
X133400990Y-95663470D01*
X133482174Y-95769271D01*
X134018536Y-95232908D01*
X134110878Y-95360005D01*
X134244995Y-95494122D01*
X134372089Y-95586461D01*
X133835727Y-96122823D01*
X133835727Y-96122824D01*
X133941529Y-96204009D01*
X133941530Y-96204010D01*
X134163469Y-96332148D01*
X134163473Y-96332150D01*
X134400234Y-96430220D01*
X134647777Y-96496548D01*
X134647790Y-96496551D01*
X134901862Y-96530000D01*
X135158138Y-96530000D01*
X135412209Y-96496551D01*
X135412222Y-96496548D01*
X135659765Y-96430220D01*
X135896526Y-96332150D01*
X135896530Y-96332148D01*
X136118479Y-96204005D01*
X136224271Y-96122826D01*
X136224271Y-96122823D01*
X135687909Y-95586462D01*
X135815005Y-95494122D01*
X135949122Y-95360005D01*
X136041462Y-95232910D01*
X136577823Y-95769271D01*
X136577826Y-95769271D01*
X136659005Y-95663479D01*
X136787148Y-95441530D01*
X136787150Y-95441526D01*
X136885220Y-95204765D01*
X136951548Y-94957222D01*
X136951551Y-94957209D01*
X136985000Y-94703137D01*
X136985000Y-94446862D01*
X136951551Y-94192790D01*
X136951548Y-94192777D01*
X136885220Y-93945234D01*
X136787150Y-93708473D01*
X136787148Y-93708469D01*
X136659010Y-93486530D01*
X136659009Y-93486529D01*
X136577824Y-93380727D01*
X136577823Y-93380727D01*
X136041461Y-93917089D01*
X135949122Y-93789995D01*
X135815005Y-93655878D01*
X135687908Y-93563536D01*
X136224271Y-93027174D01*
X136118470Y-92945990D01*
X136118469Y-92945989D01*
X135896530Y-92817851D01*
X135896526Y-92817849D01*
X135659765Y-92719779D01*
X135412222Y-92653451D01*
X135412209Y-92653448D01*
X135158138Y-92620000D01*
X134901862Y-92620000D01*
X134647790Y-92653448D01*
X134647777Y-92653451D01*
X134400234Y-92719779D01*
X134163473Y-92817849D01*
X134163469Y-92817851D01*
X133941530Y-92945989D01*
X133941520Y-92945995D01*
X133835727Y-93027173D01*
X133835727Y-93027174D01*
X134372090Y-93563537D01*
X134244995Y-93655878D01*
X134110878Y-93789995D01*
X134018537Y-93917090D01*
X133482174Y-93380727D01*
X133482173Y-93380727D01*
X133400995Y-93486520D01*
X133400989Y-93486530D01*
X133272851Y-93708469D01*
X133272849Y-93708473D01*
X133174779Y-93945234D01*
X133108451Y-94192777D01*
X133108448Y-94192790D01*
X133075000Y-94446862D01*
X128000500Y-94446862D01*
X128000500Y-88671862D01*
X133075000Y-88671862D01*
X133075000Y-88928137D01*
X133108448Y-89182209D01*
X133108451Y-89182222D01*
X133174779Y-89429765D01*
X133272849Y-89666526D01*
X133272851Y-89666530D01*
X133400989Y-89888469D01*
X133400990Y-89888470D01*
X133482174Y-89994271D01*
X134018536Y-89457908D01*
X134110878Y-89585005D01*
X134244995Y-89719122D01*
X134372089Y-89811461D01*
X133835727Y-90347823D01*
X133835727Y-90347824D01*
X133941529Y-90429009D01*
X133941530Y-90429010D01*
X134163469Y-90557148D01*
X134163473Y-90557150D01*
X134400234Y-90655220D01*
X134647777Y-90721548D01*
X134647790Y-90721551D01*
X134901862Y-90755000D01*
X135158138Y-90755000D01*
X135412209Y-90721551D01*
X135412222Y-90721548D01*
X135659765Y-90655220D01*
X135896526Y-90557150D01*
X135896530Y-90557148D01*
X136118479Y-90429005D01*
X136224271Y-90347826D01*
X136224271Y-90347823D01*
X135687909Y-89811462D01*
X135815005Y-89719122D01*
X135949122Y-89585005D01*
X136041462Y-89457910D01*
X136577823Y-89994271D01*
X136577826Y-89994271D01*
X136659005Y-89888479D01*
X136787148Y-89666530D01*
X136787150Y-89666526D01*
X136885220Y-89429765D01*
X136951548Y-89182222D01*
X136951551Y-89182209D01*
X136985000Y-88928137D01*
X136985000Y-88671862D01*
X136951551Y-88417790D01*
X136951548Y-88417777D01*
X136885220Y-88170234D01*
X136787150Y-87933473D01*
X136787148Y-87933469D01*
X136659010Y-87711530D01*
X136659009Y-87711529D01*
X136577824Y-87605727D01*
X136577823Y-87605727D01*
X136041461Y-88142089D01*
X135949122Y-88014995D01*
X135815005Y-87880878D01*
X135687908Y-87788536D01*
X136143601Y-87332844D01*
X138540000Y-87332844D01*
X138546401Y-87392372D01*
X138546403Y-87392379D01*
X138596645Y-87527086D01*
X138596649Y-87527093D01*
X138682809Y-87642187D01*
X138682812Y-87642190D01*
X138797906Y-87728350D01*
X138797913Y-87728354D01*
X138932620Y-87778596D01*
X138932627Y-87778598D01*
X138992155Y-87784999D01*
X138992172Y-87785000D01*
X140250000Y-87785000D01*
X140750000Y-87785000D01*
X142007828Y-87785000D01*
X142007844Y-87784999D01*
X142067372Y-87778598D01*
X142067379Y-87778596D01*
X142202086Y-87728354D01*
X142202093Y-87728350D01*
X142317187Y-87642190D01*
X142317190Y-87642187D01*
X142403350Y-87527093D01*
X142403354Y-87527086D01*
X142453596Y-87392379D01*
X142453598Y-87392372D01*
X142459999Y-87332844D01*
X142460000Y-87332827D01*
X142460000Y-86900000D01*
X140750000Y-86900000D01*
X140750000Y-87785000D01*
X140250000Y-87785000D01*
X140250000Y-86900000D01*
X138540000Y-86900000D01*
X138540000Y-87332844D01*
X136143601Y-87332844D01*
X136224271Y-87252174D01*
X136118470Y-87170990D01*
X136118469Y-87170989D01*
X135896530Y-87042851D01*
X135896526Y-87042849D01*
X135704234Y-86963199D01*
X135704232Y-86963198D01*
X135659767Y-86944780D01*
X135659769Y-86944780D01*
X135412222Y-86878451D01*
X135412209Y-86878448D01*
X135158138Y-86845000D01*
X134901862Y-86845000D01*
X134647790Y-86878448D01*
X134647777Y-86878451D01*
X134400234Y-86944779D01*
X134163473Y-87042849D01*
X134163469Y-87042851D01*
X133941530Y-87170989D01*
X133941520Y-87170995D01*
X133835727Y-87252173D01*
X133835727Y-87252174D01*
X134372090Y-87788537D01*
X134244995Y-87880878D01*
X134110878Y-88014995D01*
X134018537Y-88142090D01*
X133482174Y-87605727D01*
X133482173Y-87605727D01*
X133400995Y-87711520D01*
X133400989Y-87711530D01*
X133272851Y-87933469D01*
X133272849Y-87933473D01*
X133174779Y-88170234D01*
X133108451Y-88417777D01*
X133108448Y-88417790D01*
X133075000Y-88671862D01*
X128000500Y-88671862D01*
X128000500Y-85967155D01*
X138540000Y-85967155D01*
X138540000Y-86400000D01*
X140250000Y-86400000D01*
X140750000Y-86400000D01*
X142460000Y-86400000D01*
X142460000Y-85967172D01*
X142459999Y-85967155D01*
X142453598Y-85907627D01*
X142453596Y-85907620D01*
X142403354Y-85772913D01*
X142403350Y-85772906D01*
X142317190Y-85657812D01*
X142317187Y-85657809D01*
X142202093Y-85571649D01*
X142202086Y-85571645D01*
X142067379Y-85521403D01*
X142067372Y-85521401D01*
X142007844Y-85515000D01*
X140750000Y-85515000D01*
X140750000Y-86400000D01*
X140250000Y-86400000D01*
X140250000Y-85515000D01*
X138992155Y-85515000D01*
X138932627Y-85521401D01*
X138932620Y-85521403D01*
X138797913Y-85571645D01*
X138797906Y-85571649D01*
X138682812Y-85657809D01*
X138682809Y-85657812D01*
X138596649Y-85772906D01*
X138596645Y-85772913D01*
X138546403Y-85907620D01*
X138546401Y-85907627D01*
X138540000Y-85967155D01*
X128000500Y-85967155D01*
X128000500Y-81371862D01*
X133075000Y-81371862D01*
X133075000Y-81628137D01*
X133108448Y-81882209D01*
X133108451Y-81882222D01*
X133174779Y-82129765D01*
X133272849Y-82366526D01*
X133272851Y-82366530D01*
X133400989Y-82588469D01*
X133400990Y-82588470D01*
X133482174Y-82694271D01*
X134018536Y-82157908D01*
X134110878Y-82285005D01*
X134244995Y-82419122D01*
X134372089Y-82511461D01*
X133835727Y-83047823D01*
X133835727Y-83047824D01*
X133941529Y-83129009D01*
X133941530Y-83129010D01*
X134163469Y-83257148D01*
X134163473Y-83257150D01*
X134400234Y-83355220D01*
X134647777Y-83421548D01*
X134647790Y-83421551D01*
X134901862Y-83455000D01*
X135158138Y-83455000D01*
X135412209Y-83421551D01*
X135412222Y-83421548D01*
X135659765Y-83355220D01*
X135896526Y-83257150D01*
X135896530Y-83257148D01*
X136118479Y-83129005D01*
X136224271Y-83047826D01*
X136224271Y-83047823D01*
X136143583Y-82967135D01*
X138539500Y-82967135D01*
X138539500Y-84332870D01*
X138539501Y-84332876D01*
X138545908Y-84392483D01*
X138596202Y-84527328D01*
X138596206Y-84527335D01*
X138682452Y-84642544D01*
X138682455Y-84642547D01*
X138797664Y-84728793D01*
X138797671Y-84728797D01*
X138932517Y-84779091D01*
X138932516Y-84779091D01*
X138939444Y-84779835D01*
X138992127Y-84785500D01*
X142007872Y-84785499D01*
X142067483Y-84779091D01*
X142202331Y-84728796D01*
X142259804Y-84685772D01*
X142275280Y-84674187D01*
X142340744Y-84649769D01*
X142409017Y-84664620D01*
X142437272Y-84685772D01*
X143997367Y-86245867D01*
X144030852Y-86307190D01*
X144025868Y-86376882D01*
X143983996Y-86432815D01*
X143953022Y-86449729D01*
X143949072Y-86451202D01*
X143949064Y-86451206D01*
X143833855Y-86537452D01*
X143833852Y-86537455D01*
X143747606Y-86652664D01*
X143747602Y-86652671D01*
X143697308Y-86787517D01*
X143690901Y-86847116D01*
X143690901Y-86847123D01*
X143690900Y-86847135D01*
X143690900Y-90752870D01*
X143690901Y-90752876D01*
X143697308Y-90812483D01*
X143747602Y-90947328D01*
X143747606Y-90947335D01*
X143833852Y-91062544D01*
X143833855Y-91062547D01*
X143949064Y-91148793D01*
X143949071Y-91148797D01*
X144083917Y-91199091D01*
X144083916Y-91199091D01*
X144090844Y-91199835D01*
X144143527Y-91205500D01*
X145696638Y-91205499D01*
X145763677Y-91225184D01*
X145809432Y-91277987D01*
X145819376Y-91347146D01*
X145790351Y-91410702D01*
X145784319Y-91417180D01*
X145150536Y-92050963D01*
X145143639Y-92061285D01*
X145143628Y-92061303D01*
X145142032Y-92063692D01*
X145051987Y-92198453D01*
X145035745Y-92237666D01*
X145032191Y-92246245D01*
X145032189Y-92246249D01*
X144984105Y-92362333D01*
X144984103Y-92362341D01*
X144949500Y-92536303D01*
X144949500Y-92575500D01*
X144929815Y-92642539D01*
X144877011Y-92688294D01*
X144825501Y-92699500D01*
X144627130Y-92699500D01*
X144627123Y-92699501D01*
X144567516Y-92705908D01*
X144432671Y-92756202D01*
X144432664Y-92756206D01*
X144317455Y-92842452D01*
X144317452Y-92842455D01*
X144231206Y-92957664D01*
X144231202Y-92957671D01*
X144180908Y-93092517D01*
X144174501Y-93152116D01*
X144174501Y-93152123D01*
X144174500Y-93152135D01*
X144174500Y-94797870D01*
X144174501Y-94797876D01*
X144180908Y-94857483D01*
X144231202Y-94992328D01*
X144231206Y-94992335D01*
X144317452Y-95107544D01*
X144317455Y-95107547D01*
X144432664Y-95193793D01*
X144432671Y-95193797D01*
X144567517Y-95244091D01*
X144567516Y-95244091D01*
X144574444Y-95244835D01*
X144627127Y-95250500D01*
X147072872Y-95250499D01*
X147132483Y-95244091D01*
X147267331Y-95193796D01*
X147382546Y-95107546D01*
X147468796Y-94992331D01*
X147519091Y-94857483D01*
X147525500Y-94797873D01*
X147525499Y-93152128D01*
X147519091Y-93092517D01*
X147500559Y-93042832D01*
X147495576Y-92973142D01*
X147529061Y-92911819D01*
X147590384Y-92878334D01*
X147616742Y-92875500D01*
X148383258Y-92875500D01*
X148450297Y-92895185D01*
X148496052Y-92947989D01*
X148505996Y-93017147D01*
X148499440Y-93042834D01*
X148480908Y-93092518D01*
X148474501Y-93152116D01*
X148474501Y-93152123D01*
X148474500Y-93152135D01*
X148474500Y-94797870D01*
X148474501Y-94797876D01*
X148480908Y-94857483D01*
X148531202Y-94992328D01*
X148531206Y-94992335D01*
X148617452Y-95107544D01*
X148617455Y-95107547D01*
X148732664Y-95193793D01*
X148732671Y-95193797D01*
X148867517Y-95244091D01*
X148867516Y-95244091D01*
X148874444Y-95244835D01*
X148927127Y-95250500D01*
X151372872Y-95250499D01*
X151432483Y-95244091D01*
X151567331Y-95193796D01*
X151682546Y-95107546D01*
X151682548Y-95107542D01*
X151683115Y-95106977D01*
X151683822Y-95106590D01*
X151689645Y-95102232D01*
X151690271Y-95103069D01*
X151744438Y-95073492D01*
X151814130Y-95078476D01*
X151858477Y-95106977D01*
X153245966Y-96494466D01*
X153287725Y-96522367D01*
X153305040Y-96533936D01*
X153393453Y-96593013D01*
X153464152Y-96622297D01*
X153470595Y-96624965D01*
X153470599Y-96624968D01*
X153511099Y-96641743D01*
X153557334Y-96660895D01*
X153731303Y-96695499D01*
X153731307Y-96695500D01*
X153731308Y-96695500D01*
X153731309Y-96695500D01*
X155490278Y-96695500D01*
X155557317Y-96715185D01*
X155561965Y-96718412D01*
X155562670Y-96718797D01*
X155697517Y-96769091D01*
X155697516Y-96769091D01*
X155704444Y-96769835D01*
X155757127Y-96775500D01*
X157242872Y-96775499D01*
X157302483Y-96769091D01*
X157345966Y-96752873D01*
X157437329Y-96718797D01*
X157445112Y-96714547D01*
X157446050Y-96716264D01*
X157500875Y-96695816D01*
X157509722Y-96695500D01*
X160886949Y-96695500D01*
X160953988Y-96715185D01*
X160999743Y-96767989D01*
X161010239Y-96806251D01*
X161010908Y-96812482D01*
X161061202Y-96947328D01*
X161061206Y-96947335D01*
X161147452Y-97062544D01*
X161147455Y-97062547D01*
X161262664Y-97148793D01*
X161262671Y-97148797D01*
X161307618Y-97165561D01*
X161397517Y-97199091D01*
X161457127Y-97205500D01*
X161657693Y-97205499D01*
X161724730Y-97225183D01*
X161745372Y-97241818D01*
X162217819Y-97714265D01*
X162151583Y-97741702D01*
X162048399Y-97810647D01*
X161960647Y-97898399D01*
X161891702Y-98001583D01*
X161864266Y-98067819D01*
X161266716Y-97470269D01*
X161266716Y-97470270D01*
X161214125Y-97542654D01*
X161110864Y-97745315D01*
X161040581Y-97961623D01*
X161040581Y-97961626D01*
X161005000Y-98186276D01*
X161005000Y-98413723D01*
X161040581Y-98638373D01*
X161040581Y-98638376D01*
X161110864Y-98854684D01*
X161214121Y-99057337D01*
X161214125Y-99057343D01*
X161266716Y-99129728D01*
X161266717Y-99129729D01*
X161864265Y-98532180D01*
X161891702Y-98598417D01*
X161960647Y-98701601D01*
X162048399Y-98789353D01*
X162151583Y-98858298D01*
X162217819Y-98885734D01*
X161620270Y-99483282D01*
X161621227Y-99495442D01*
X161643789Y-99524701D01*
X161649768Y-99594314D01*
X161617162Y-99656109D01*
X161601124Y-99670006D01*
X161508326Y-99737429D01*
X161508317Y-99737436D01*
X161347573Y-99898181D01*
X161286250Y-99931666D01*
X161259892Y-99934500D01*
X157911308Y-99934500D01*
X157898152Y-99937117D01*
X157873960Y-99939500D01*
X157522487Y-99939500D01*
X157463058Y-99924331D01*
X157457330Y-99921203D01*
X157322482Y-99870908D01*
X157322483Y-99870908D01*
X157262883Y-99864501D01*
X157262881Y-99864500D01*
X157262873Y-99864500D01*
X157262864Y-99864500D01*
X155737129Y-99864500D01*
X155737123Y-99864501D01*
X155677516Y-99870908D01*
X155542669Y-99921203D01*
X155536942Y-99924331D01*
X155477513Y-99939500D01*
X154626041Y-99939500D01*
X154601849Y-99937117D01*
X154588693Y-99934500D01*
X154588692Y-99934500D01*
X154588691Y-99934500D01*
X153509361Y-99934500D01*
X153442322Y-99914815D01*
X153421680Y-99898181D01*
X151792585Y-98269085D01*
X150949039Y-97425538D01*
X150949038Y-97425537D01*
X150922597Y-97407870D01*
X150846895Y-97357288D01*
X150801547Y-97326987D01*
X150719606Y-97293046D01*
X150715140Y-97291196D01*
X150715136Y-97291194D01*
X150637666Y-97259105D01*
X150637658Y-97259103D01*
X150463696Y-97224500D01*
X150463692Y-97224500D01*
X150463691Y-97224500D01*
X146166562Y-97224500D01*
X146127559Y-97218206D01*
X146102799Y-97210001D01*
X146102795Y-97210000D01*
X146000010Y-97199500D01*
X144999998Y-97199500D01*
X144999980Y-97199501D01*
X144897203Y-97210000D01*
X144878617Y-97216159D01*
X144872441Y-97218206D01*
X144833438Y-97224500D01*
X144574362Y-97224500D01*
X144507323Y-97204815D01*
X144486681Y-97188181D01*
X143324039Y-96025538D01*
X143324034Y-96025534D01*
X143288235Y-96001615D01*
X143259653Y-95982517D01*
X143176547Y-95926987D01*
X143094606Y-95893046D01*
X143012666Y-95859105D01*
X143012658Y-95859103D01*
X142838696Y-95824500D01*
X142838692Y-95824500D01*
X142838691Y-95824500D01*
X142448521Y-95824500D01*
X142381482Y-95804815D01*
X142349254Y-95774810D01*
X142317550Y-95732458D01*
X142317547Y-95732455D01*
X142317546Y-95732454D01*
X142317542Y-95732451D01*
X142202335Y-95646206D01*
X142202328Y-95646202D01*
X142067482Y-95595908D01*
X142067483Y-95595908D01*
X142007883Y-95589501D01*
X142007881Y-95589500D01*
X142007873Y-95589500D01*
X142007864Y-95589500D01*
X138992129Y-95589500D01*
X138992123Y-95589501D01*
X138932516Y-95595908D01*
X138797671Y-95646202D01*
X138797664Y-95646206D01*
X138682455Y-95732452D01*
X138682452Y-95732455D01*
X138596206Y-95847664D01*
X138596202Y-95847671D01*
X138545908Y-95982517D01*
X138539501Y-96042116D01*
X138539500Y-96042135D01*
X138539500Y-97407870D01*
X138539501Y-97407876D01*
X138545908Y-97467483D01*
X138596202Y-97602328D01*
X138596206Y-97602335D01*
X138682452Y-97717544D01*
X138682455Y-97717547D01*
X138797664Y-97803793D01*
X138797671Y-97803797D01*
X138932517Y-97854091D01*
X138932516Y-97854091D01*
X138939444Y-97854835D01*
X138992127Y-97860500D01*
X142007872Y-97860499D01*
X142067483Y-97854091D01*
X142202331Y-97803796D01*
X142317546Y-97717546D01*
X142317547Y-97717544D01*
X142318170Y-97717078D01*
X142383634Y-97692660D01*
X142451908Y-97707511D01*
X142480163Y-97728663D01*
X143575966Y-98824466D01*
X143610326Y-98847423D01*
X143635040Y-98863936D01*
X143723453Y-98923013D01*
X143805393Y-98956953D01*
X143811480Y-98959474D01*
X143811485Y-98959477D01*
X143847940Y-98974577D01*
X143887334Y-98990895D01*
X144061303Y-99025499D01*
X144061307Y-99025500D01*
X144061308Y-99025500D01*
X144061309Y-99025500D01*
X144330622Y-99025500D01*
X144397661Y-99045185D01*
X144423634Y-99067495D01*
X144430616Y-99075415D01*
X144457288Y-99118656D01*
X144554064Y-99215432D01*
X144556635Y-99218348D01*
X144569841Y-99246621D01*
X144584789Y-99273995D01*
X144584502Y-99278006D01*
X144586205Y-99281652D01*
X144582030Y-99312572D01*
X144579805Y-99343687D01*
X144577303Y-99347579D01*
X144576856Y-99350894D01*
X144569997Y-99358947D01*
X144551305Y-99388034D01*
X144457682Y-99481657D01*
X144365643Y-99630875D01*
X144365641Y-99630880D01*
X144310494Y-99797302D01*
X144310493Y-99797309D01*
X144300000Y-99900013D01*
X144300000Y-100050000D01*
X146699999Y-100050000D01*
X146699999Y-99900028D01*
X146699998Y-99900013D01*
X146689505Y-99797302D01*
X146634358Y-99630880D01*
X146634356Y-99630875D01*
X146542315Y-99481654D01*
X146448695Y-99388034D01*
X146446245Y-99383547D01*
X146441969Y-99380747D01*
X146429671Y-99353194D01*
X146415210Y-99326711D01*
X146415574Y-99321612D01*
X146413491Y-99316944D01*
X146418041Y-99287118D01*
X146420194Y-99257019D01*
X146423467Y-99251555D01*
X146424029Y-99247874D01*
X146435377Y-99231677D01*
X146443364Y-99218348D01*
X146445927Y-99215440D01*
X146542712Y-99118656D01*
X146569383Y-99075414D01*
X146576366Y-99067495D01*
X146597346Y-99054265D01*
X146615787Y-99037679D01*
X146628079Y-99034885D01*
X146635467Y-99030227D01*
X146648099Y-99030335D01*
X146669378Y-99025500D01*
X149950638Y-99025500D01*
X150017677Y-99045185D01*
X150038319Y-99061819D01*
X151763818Y-100787318D01*
X151797303Y-100848641D01*
X151792319Y-100918333D01*
X151763818Y-100962680D01*
X150800540Y-101925958D01*
X150800536Y-101925964D01*
X150789443Y-101942566D01*
X150789442Y-101942566D01*
X150701986Y-102073453D01*
X150700813Y-102076288D01*
X150700807Y-102076303D01*
X150634105Y-102237333D01*
X150634103Y-102237341D01*
X150599500Y-102411303D01*
X150599500Y-103987769D01*
X150579815Y-104054808D01*
X150563182Y-104075450D01*
X150457287Y-104181345D01*
X150365187Y-104330663D01*
X150365186Y-104330666D01*
X150310001Y-104497203D01*
X150310001Y-104497204D01*
X150310000Y-104497204D01*
X150299500Y-104599983D01*
X150299500Y-105400001D01*
X150299501Y-105400019D01*
X150310000Y-105502796D01*
X150310001Y-105502799D01*
X150365185Y-105669331D01*
X150365187Y-105669336D01*
X150457289Y-105818657D01*
X150550951Y-105912319D01*
X150584436Y-105973642D01*
X150579452Y-106043334D01*
X150550951Y-106087681D01*
X150457289Y-106181342D01*
X150365187Y-106330663D01*
X150365185Y-106330668D01*
X150337349Y-106414670D01*
X150310001Y-106497203D01*
X150310001Y-106497204D01*
X150310000Y-106497204D01*
X150299500Y-106599983D01*
X150299500Y-106875637D01*
X150279815Y-106942676D01*
X150263181Y-106963318D01*
X148363319Y-108863181D01*
X148301996Y-108896666D01*
X148275638Y-108899500D01*
X142448521Y-108899500D01*
X142381482Y-108879815D01*
X142349254Y-108849810D01*
X142317550Y-108807458D01*
X142317547Y-108807455D01*
X142317546Y-108807454D01*
X142317542Y-108807451D01*
X142202335Y-108721206D01*
X142202328Y-108721202D01*
X142067482Y-108670908D01*
X142067483Y-108670908D01*
X142007883Y-108664501D01*
X142007881Y-108664500D01*
X142007873Y-108664500D01*
X142007864Y-108664500D01*
X138992129Y-108664500D01*
X138992123Y-108664501D01*
X138932516Y-108670908D01*
X138797671Y-108721202D01*
X138797664Y-108721206D01*
X138682455Y-108807452D01*
X138682452Y-108807455D01*
X138596206Y-108922664D01*
X138596202Y-108922671D01*
X138545908Y-109057517D01*
X138539501Y-109117116D01*
X138539500Y-109117135D01*
X138539500Y-110482870D01*
X138539501Y-110482876D01*
X138545908Y-110542483D01*
X138596202Y-110677328D01*
X138596206Y-110677335D01*
X138682452Y-110792544D01*
X138682455Y-110792547D01*
X138797664Y-110878793D01*
X138797671Y-110878797D01*
X138932517Y-110929091D01*
X138932516Y-110929091D01*
X138939444Y-110929835D01*
X138992127Y-110935500D01*
X142007872Y-110935499D01*
X142067483Y-110929091D01*
X142202331Y-110878796D01*
X142317546Y-110792546D01*
X142349254Y-110750190D01*
X142405187Y-110708318D01*
X142448521Y-110700500D01*
X148788693Y-110700500D01*
X148788694Y-110700499D01*
X148962666Y-110665895D01*
X149044606Y-110631953D01*
X149126547Y-110598013D01*
X149238117Y-110523464D01*
X149274036Y-110499464D01*
X150488960Y-109284540D01*
X151636681Y-108136818D01*
X151698004Y-108103333D01*
X151724362Y-108100499D01*
X152000002Y-108100499D01*
X152000008Y-108100499D01*
X152102797Y-108089999D01*
X152269334Y-108034814D01*
X152418656Y-107942712D01*
X152542712Y-107818656D01*
X152634814Y-107669334D01*
X152635576Y-107667033D01*
X161509234Y-107667033D01*
X161509234Y-107975916D01*
X161543815Y-108282830D01*
X161543817Y-108282842D01*
X161612548Y-108583974D01*
X161714562Y-108875514D01*
X161848575Y-109153795D01*
X162012903Y-109415320D01*
X162145527Y-109581627D01*
X163036574Y-108690580D01*
X163115098Y-108798659D01*
X163282050Y-108965611D01*
X163390127Y-109044133D01*
X162499079Y-109935181D01*
X162665376Y-110067798D01*
X162665378Y-110067799D01*
X162926913Y-110232133D01*
X163205194Y-110366146D01*
X163496735Y-110468160D01*
X163496733Y-110468160D01*
X163797866Y-110536891D01*
X163797878Y-110536893D01*
X164104792Y-110571474D01*
X164104794Y-110571475D01*
X164413674Y-110571475D01*
X164413675Y-110571474D01*
X164720589Y-110536893D01*
X164720601Y-110536891D01*
X165021733Y-110468160D01*
X165313273Y-110366146D01*
X165591554Y-110232133D01*
X165853085Y-110067801D01*
X166019387Y-109935181D01*
X165128340Y-109044134D01*
X165236418Y-108965611D01*
X165403370Y-108798659D01*
X165481893Y-108690581D01*
X166372940Y-109581628D01*
X166505560Y-109415326D01*
X166669892Y-109153795D01*
X166803905Y-108875514D01*
X166905919Y-108583974D01*
X166974650Y-108282842D01*
X166974652Y-108282830D01*
X167009233Y-107975916D01*
X167009234Y-107975914D01*
X167009234Y-107667035D01*
X167009233Y-107667033D01*
X166974652Y-107360119D01*
X166974650Y-107360107D01*
X166905919Y-107058975D01*
X166803905Y-106767435D01*
X166669892Y-106489154D01*
X166505558Y-106227619D01*
X166505557Y-106227617D01*
X166372940Y-106061320D01*
X165481892Y-106952368D01*
X165403370Y-106844291D01*
X165236418Y-106677339D01*
X165128338Y-106598815D01*
X166019386Y-105707768D01*
X165853079Y-105575144D01*
X165591554Y-105410816D01*
X165313273Y-105276803D01*
X165021732Y-105174789D01*
X165021734Y-105174789D01*
X164720601Y-105106058D01*
X164720589Y-105106056D01*
X164413675Y-105071475D01*
X164104792Y-105071475D01*
X163797878Y-105106056D01*
X163797866Y-105106058D01*
X163496734Y-105174789D01*
X163205194Y-105276803D01*
X162926913Y-105410816D01*
X162665378Y-105575150D01*
X162665374Y-105575153D01*
X162499079Y-105707767D01*
X163390127Y-106598815D01*
X163282050Y-106677339D01*
X163115098Y-106844291D01*
X163036574Y-106952368D01*
X162145526Y-106061320D01*
X162012912Y-106227615D01*
X162012909Y-106227619D01*
X161848575Y-106489154D01*
X161714562Y-106767435D01*
X161612548Y-107058975D01*
X161543817Y-107360107D01*
X161543815Y-107360119D01*
X161509234Y-107667033D01*
X152635576Y-107667033D01*
X152689999Y-107502797D01*
X152700500Y-107400009D01*
X152700499Y-106599992D01*
X152689999Y-106497203D01*
X152634814Y-106330666D01*
X152542712Y-106181344D01*
X152449049Y-106087681D01*
X152415564Y-106026358D01*
X152420548Y-105956666D01*
X152449049Y-105912319D01*
X152468519Y-105892849D01*
X152542712Y-105818656D01*
X152634814Y-105669334D01*
X152689999Y-105502797D01*
X152700500Y-105400009D01*
X152700499Y-104599992D01*
X152689999Y-104497203D01*
X152634814Y-104330666D01*
X152542712Y-104181344D01*
X152436818Y-104075450D01*
X152403334Y-104014127D01*
X152400500Y-103987769D01*
X152400500Y-102992844D01*
X155285000Y-102992844D01*
X155291401Y-103052372D01*
X155291403Y-103052379D01*
X155341645Y-103187086D01*
X155341649Y-103187093D01*
X155427809Y-103302187D01*
X155427812Y-103302190D01*
X155542906Y-103388350D01*
X155542913Y-103388354D01*
X155677620Y-103438596D01*
X155677627Y-103438598D01*
X155737155Y-103444999D01*
X155737172Y-103445000D01*
X156250000Y-103445000D01*
X156750000Y-103445000D01*
X157262828Y-103445000D01*
X157262844Y-103444999D01*
X157322372Y-103438598D01*
X157322379Y-103438596D01*
X157457086Y-103388354D01*
X157457093Y-103388350D01*
X157572187Y-103302190D01*
X157572190Y-103302187D01*
X157658350Y-103187093D01*
X157658354Y-103187086D01*
X157708596Y-103052379D01*
X157708598Y-103052372D01*
X157714999Y-102992844D01*
X157715000Y-102992827D01*
X157715000Y-102725000D01*
X156750000Y-102725000D01*
X156750000Y-103445000D01*
X156250000Y-103445000D01*
X156250000Y-102725000D01*
X155285000Y-102725000D01*
X155285000Y-102992844D01*
X152400500Y-102992844D01*
X152400500Y-102924361D01*
X152420185Y-102857322D01*
X152436819Y-102836680D01*
X153501680Y-101771819D01*
X153563003Y-101738334D01*
X153589361Y-101735500D01*
X154378959Y-101735500D01*
X154403151Y-101737883D01*
X154416306Y-101740499D01*
X154416307Y-101740500D01*
X154416308Y-101740500D01*
X154416309Y-101740500D01*
X155171814Y-101740500D01*
X155238853Y-101760185D01*
X155284608Y-101812989D01*
X155294552Y-101882147D01*
X155292492Y-101893009D01*
X155291402Y-101897622D01*
X155285000Y-101957155D01*
X155285000Y-102225000D01*
X157715000Y-102225000D01*
X157715000Y-101957172D01*
X157714999Y-101957155D01*
X157708597Y-101897622D01*
X157707508Y-101893009D01*
X157711252Y-101823240D01*
X157752121Y-101766570D01*
X157817141Y-101740993D01*
X157828186Y-101740500D01*
X161255099Y-101740500D01*
X161322138Y-101760185D01*
X161343442Y-101778781D01*
X161343989Y-101778235D01*
X161347434Y-101781680D01*
X161508320Y-101942566D01*
X161692393Y-102076303D01*
X161791825Y-102126966D01*
X161895120Y-102179598D01*
X161895123Y-102179599D01*
X162003316Y-102214752D01*
X162111511Y-102249907D01*
X162215591Y-102266391D01*
X162336232Y-102285500D01*
X162336237Y-102285500D01*
X162563768Y-102285500D01*
X162672710Y-102268244D01*
X162788489Y-102249907D01*
X163004879Y-102179598D01*
X163207607Y-102076303D01*
X163391680Y-101942566D01*
X163552566Y-101781680D01*
X163686303Y-101597607D01*
X163789598Y-101394879D01*
X163859907Y-101178489D01*
X163886835Y-101008473D01*
X163895500Y-100953768D01*
X163895500Y-100726231D01*
X163867587Y-100550000D01*
X163859907Y-100501511D01*
X163803262Y-100327174D01*
X163789599Y-100285123D01*
X163789598Y-100285120D01*
X163736966Y-100181825D01*
X163686303Y-100082393D01*
X163552566Y-99898320D01*
X163391680Y-99737434D01*
X163298875Y-99670007D01*
X163256210Y-99614676D01*
X163250231Y-99545063D01*
X163279185Y-99490189D01*
X163279728Y-99483282D01*
X162682180Y-98885734D01*
X162748417Y-98858298D01*
X162851601Y-98789353D01*
X162939353Y-98701601D01*
X163008298Y-98598417D01*
X163035734Y-98532180D01*
X163633282Y-99129728D01*
X163633283Y-99129728D01*
X163685874Y-99057345D01*
X163789135Y-98854684D01*
X163859418Y-98638376D01*
X163859418Y-98638373D01*
X163895000Y-98413723D01*
X163895000Y-98186276D01*
X163859418Y-97961626D01*
X163859418Y-97961623D01*
X163789135Y-97745315D01*
X163685874Y-97542654D01*
X163633282Y-97470270D01*
X163035733Y-98067818D01*
X163008298Y-98001583D01*
X162939353Y-97898399D01*
X162851601Y-97810647D01*
X162748417Y-97741702D01*
X162682180Y-97714265D01*
X163154627Y-97241818D01*
X163215950Y-97208333D01*
X163242307Y-97205499D01*
X163442872Y-97205499D01*
X163502483Y-97199091D01*
X163637331Y-97148796D01*
X163752546Y-97062546D01*
X163838796Y-96947331D01*
X163889091Y-96812483D01*
X163895500Y-96752873D01*
X163895499Y-94767128D01*
X163889091Y-94707517D01*
X163887457Y-94703137D01*
X163838797Y-94572671D01*
X163838793Y-94572664D01*
X163752547Y-94457455D01*
X163752544Y-94457452D01*
X163637335Y-94371206D01*
X163637328Y-94371202D01*
X163502482Y-94320908D01*
X163502483Y-94320908D01*
X163442883Y-94314501D01*
X163442881Y-94314500D01*
X163442873Y-94314500D01*
X163442864Y-94314500D01*
X161457129Y-94314500D01*
X161457123Y-94314501D01*
X161397516Y-94320908D01*
X161262671Y-94371202D01*
X161262664Y-94371206D01*
X161147455Y-94457452D01*
X161147452Y-94457455D01*
X161061206Y-94572664D01*
X161061202Y-94572671D01*
X161010908Y-94707517D01*
X161004501Y-94767116D01*
X161004501Y-94767123D01*
X161004500Y-94767135D01*
X161004500Y-94770500D01*
X160984815Y-94837539D01*
X160932011Y-94883294D01*
X160880500Y-94894500D01*
X157809367Y-94894500D01*
X157742328Y-94874815D01*
X157696573Y-94822011D01*
X157686629Y-94752853D01*
X157688574Y-94742596D01*
X157694999Y-94682844D01*
X157695000Y-94682827D01*
X157695000Y-94430000D01*
X155305000Y-94430000D01*
X155305000Y-94682844D01*
X155312231Y-94750087D01*
X155310867Y-94750233D01*
X155307568Y-94811757D01*
X155266700Y-94868427D01*
X155201681Y-94894007D01*
X155190633Y-94894500D01*
X154244362Y-94894500D01*
X154177323Y-94874815D01*
X154156681Y-94858181D01*
X153060033Y-93761532D01*
X152975656Y-93677155D01*
X155305000Y-93677155D01*
X155305000Y-93930000D01*
X156250000Y-93930000D01*
X156750000Y-93930000D01*
X157695000Y-93930000D01*
X157695000Y-93677172D01*
X157694999Y-93677155D01*
X157688598Y-93617627D01*
X157688596Y-93617620D01*
X157638354Y-93482913D01*
X157638350Y-93482906D01*
X157552190Y-93367812D01*
X157552187Y-93367809D01*
X157437093Y-93281649D01*
X157437086Y-93281645D01*
X157302379Y-93231403D01*
X157302372Y-93231401D01*
X157242844Y-93225000D01*
X156750000Y-93225000D01*
X156750000Y-93930000D01*
X156250000Y-93930000D01*
X156250000Y-93225000D01*
X155757155Y-93225000D01*
X155697627Y-93231401D01*
X155697620Y-93231403D01*
X155562913Y-93281645D01*
X155562906Y-93281649D01*
X155447812Y-93367809D01*
X155447809Y-93367812D01*
X155361649Y-93482906D01*
X155361645Y-93482913D01*
X155311403Y-93617620D01*
X155311401Y-93617627D01*
X155305000Y-93677155D01*
X152975656Y-93677155D01*
X152399038Y-93100537D01*
X152325717Y-93051546D01*
X152325716Y-93051545D01*
X152299860Y-93034268D01*
X152255055Y-92980655D01*
X152246349Y-92911330D01*
X152276505Y-92848303D01*
X152321294Y-92816609D01*
X152344606Y-92806953D01*
X152426547Y-92773013D01*
X152526975Y-92705909D01*
X152536564Y-92699502D01*
X152553338Y-92688294D01*
X152574036Y-92674464D01*
X153387164Y-91861335D01*
X153410115Y-91826987D01*
X153485713Y-91713847D01*
X153505595Y-91665847D01*
X153553595Y-91549966D01*
X153588200Y-91375991D01*
X153588200Y-91329499D01*
X153607885Y-91262460D01*
X153660689Y-91216705D01*
X153712200Y-91205499D01*
X154856471Y-91205499D01*
X154856472Y-91205499D01*
X154916083Y-91199091D01*
X155050931Y-91148796D01*
X155166146Y-91062546D01*
X155252396Y-90947331D01*
X155302691Y-90812483D01*
X155309100Y-90752873D01*
X155309099Y-88667033D01*
X161509234Y-88667033D01*
X161509234Y-88975916D01*
X161543815Y-89282830D01*
X161543817Y-89282842D01*
X161612548Y-89583974D01*
X161714562Y-89875514D01*
X161848575Y-90153795D01*
X162012903Y-90415320D01*
X162145527Y-90581627D01*
X163036574Y-89690580D01*
X163115098Y-89798659D01*
X163282050Y-89965611D01*
X163390127Y-90044133D01*
X162499079Y-90935181D01*
X162665376Y-91067798D01*
X162665378Y-91067799D01*
X162926913Y-91232133D01*
X163205194Y-91366146D01*
X163496735Y-91468160D01*
X163496733Y-91468160D01*
X163797866Y-91536891D01*
X163797878Y-91536893D01*
X164104792Y-91571474D01*
X164104794Y-91571475D01*
X164413674Y-91571475D01*
X164413675Y-91571474D01*
X164720589Y-91536893D01*
X164720601Y-91536891D01*
X165021733Y-91468160D01*
X165313273Y-91366146D01*
X165591554Y-91232133D01*
X165853085Y-91067801D01*
X166019387Y-90935181D01*
X165128340Y-90044134D01*
X165236418Y-89965611D01*
X165403370Y-89798659D01*
X165481893Y-89690581D01*
X166372940Y-90581628D01*
X166505560Y-90415326D01*
X166669892Y-90153795D01*
X166803905Y-89875514D01*
X166905919Y-89583974D01*
X166974650Y-89282842D01*
X166974652Y-89282830D01*
X167009233Y-88975916D01*
X167009234Y-88975914D01*
X167009234Y-88667035D01*
X167009233Y-88667033D01*
X166974652Y-88360119D01*
X166974650Y-88360107D01*
X166905919Y-88058975D01*
X166803905Y-87767435D01*
X166669892Y-87489154D01*
X166505558Y-87227619D01*
X166505557Y-87227617D01*
X166372940Y-87061320D01*
X165481892Y-87952368D01*
X165403370Y-87844291D01*
X165236418Y-87677339D01*
X165128338Y-87598815D01*
X166019386Y-86707768D01*
X165853079Y-86575144D01*
X165591554Y-86410816D01*
X165313273Y-86276803D01*
X165021732Y-86174789D01*
X165021734Y-86174789D01*
X164720601Y-86106058D01*
X164720589Y-86106056D01*
X164413675Y-86071475D01*
X164104792Y-86071475D01*
X163797878Y-86106056D01*
X163797866Y-86106058D01*
X163496734Y-86174789D01*
X163205194Y-86276803D01*
X162926913Y-86410816D01*
X162665378Y-86575150D01*
X162665374Y-86575153D01*
X162499079Y-86707767D01*
X163390127Y-87598815D01*
X163282050Y-87677339D01*
X163115098Y-87844291D01*
X163036574Y-87952368D01*
X162145526Y-87061320D01*
X162012912Y-87227615D01*
X162012909Y-87227619D01*
X161848575Y-87489154D01*
X161714562Y-87767435D01*
X161612548Y-88058975D01*
X161543817Y-88360107D01*
X161543815Y-88360119D01*
X161509234Y-88667033D01*
X155309099Y-88667033D01*
X155309099Y-86847128D01*
X155302691Y-86787517D01*
X155252396Y-86652669D01*
X155252395Y-86652668D01*
X155252393Y-86652664D01*
X155166147Y-86537455D01*
X155166144Y-86537452D01*
X155050935Y-86451206D01*
X155050928Y-86451202D01*
X154916082Y-86400908D01*
X154916083Y-86400908D01*
X154856483Y-86394501D01*
X154856481Y-86394500D01*
X154856473Y-86394500D01*
X154856464Y-86394500D01*
X150518929Y-86394500D01*
X150518923Y-86394501D01*
X150459316Y-86400908D01*
X150324471Y-86451202D01*
X150324464Y-86451206D01*
X150209255Y-86537452D01*
X150209252Y-86537455D01*
X150123006Y-86652664D01*
X150123002Y-86652671D01*
X150072708Y-86787517D01*
X150066301Y-86847116D01*
X150066301Y-86847123D01*
X150066300Y-86847135D01*
X150066300Y-90752870D01*
X150066301Y-90752876D01*
X150072709Y-90812484D01*
X150108023Y-90907168D01*
X150113007Y-90976859D01*
X150079521Y-91038182D01*
X150018198Y-91071666D01*
X149991841Y-91074500D01*
X149008159Y-91074500D01*
X148941120Y-91054815D01*
X148895365Y-91002011D01*
X148885421Y-90932853D01*
X148891977Y-90907168D01*
X148927290Y-90812485D01*
X148927291Y-90812484D01*
X148927291Y-90812483D01*
X148933700Y-90752873D01*
X148933699Y-86847128D01*
X148927291Y-86787517D01*
X148897546Y-86707767D01*
X148876997Y-86652671D01*
X148876993Y-86652664D01*
X148790747Y-86537455D01*
X148790744Y-86537452D01*
X148675535Y-86451206D01*
X148675528Y-86451202D01*
X148540682Y-86400908D01*
X148540683Y-86400908D01*
X148481083Y-86394501D01*
X148481081Y-86394500D01*
X148481073Y-86394500D01*
X148481065Y-86394500D01*
X146744362Y-86394500D01*
X146677323Y-86374815D01*
X146656681Y-86358181D01*
X143710681Y-83412181D01*
X143677196Y-83350858D01*
X143682180Y-83281166D01*
X143724052Y-83225233D01*
X143789516Y-83200816D01*
X143798362Y-83200500D01*
X144570501Y-83200500D01*
X144637540Y-83220185D01*
X144683295Y-83272989D01*
X144694501Y-83324500D01*
X144694501Y-83562876D01*
X144700908Y-83622483D01*
X144751202Y-83757328D01*
X144751206Y-83757335D01*
X144837452Y-83872544D01*
X144837455Y-83872547D01*
X144952664Y-83958793D01*
X144952671Y-83958797D01*
X145087517Y-84009091D01*
X145087516Y-84009091D01*
X145094444Y-84009835D01*
X145147127Y-84015500D01*
X147612872Y-84015499D01*
X147672483Y-84009091D01*
X147807331Y-83958796D01*
X147922546Y-83872546D01*
X148008796Y-83757331D01*
X148059091Y-83622483D01*
X148065500Y-83562873D01*
X148065500Y-83562844D01*
X150935000Y-83562844D01*
X150941401Y-83622372D01*
X150941403Y-83622379D01*
X150991645Y-83757086D01*
X150991649Y-83757093D01*
X151077809Y-83872187D01*
X151077812Y-83872190D01*
X151192906Y-83958350D01*
X151192913Y-83958354D01*
X151327620Y-84008596D01*
X151327627Y-84008598D01*
X151387155Y-84014999D01*
X151387172Y-84015000D01*
X152370000Y-84015000D01*
X152870000Y-84015000D01*
X153852828Y-84015000D01*
X153852844Y-84014999D01*
X153912372Y-84008598D01*
X153912379Y-84008596D01*
X154047086Y-83958354D01*
X154047093Y-83958350D01*
X154162187Y-83872190D01*
X154162190Y-83872187D01*
X154248350Y-83757093D01*
X154248354Y-83757086D01*
X154298596Y-83622379D01*
X154298598Y-83622372D01*
X154304999Y-83562844D01*
X154305000Y-83562827D01*
X154305000Y-82550000D01*
X152870000Y-82550000D01*
X152870000Y-84015000D01*
X152370000Y-84015000D01*
X152370000Y-82550000D01*
X150935000Y-82550000D01*
X150935000Y-83562844D01*
X148065500Y-83562844D01*
X148065499Y-82285005D01*
X148065499Y-81037155D01*
X150935000Y-81037155D01*
X150935000Y-82050000D01*
X152370000Y-82050000D01*
X152870000Y-82050000D01*
X154305000Y-82050000D01*
X154305000Y-81037172D01*
X154304999Y-81037155D01*
X154298598Y-80977627D01*
X154298596Y-80977620D01*
X154248354Y-80842913D01*
X154248350Y-80842906D01*
X154162190Y-80727812D01*
X154162187Y-80727809D01*
X154047093Y-80641649D01*
X154047086Y-80641645D01*
X153912379Y-80591403D01*
X153912372Y-80591401D01*
X153852844Y-80585000D01*
X152870000Y-80585000D01*
X152870000Y-82050000D01*
X152370000Y-82050000D01*
X152370000Y-80585000D01*
X151387155Y-80585000D01*
X151327627Y-80591401D01*
X151327620Y-80591403D01*
X151192913Y-80641645D01*
X151192906Y-80641649D01*
X151077812Y-80727809D01*
X151077809Y-80727812D01*
X150991649Y-80842906D01*
X150991645Y-80842913D01*
X150941403Y-80977620D01*
X150941401Y-80977627D01*
X150935000Y-81037155D01*
X148065499Y-81037155D01*
X148065499Y-81037129D01*
X148065498Y-81037123D01*
X148065497Y-81037116D01*
X148059091Y-80977517D01*
X148008884Y-80842906D01*
X148008797Y-80842671D01*
X148008793Y-80842664D01*
X147922547Y-80727455D01*
X147922544Y-80727452D01*
X147807335Y-80641206D01*
X147807328Y-80641202D01*
X147672482Y-80590908D01*
X147672483Y-80590908D01*
X147612883Y-80584501D01*
X147612881Y-80584500D01*
X147612873Y-80584500D01*
X147612864Y-80584500D01*
X145147129Y-80584500D01*
X145147123Y-80584501D01*
X145087516Y-80590908D01*
X144952671Y-80641202D01*
X144952664Y-80641206D01*
X144837455Y-80727452D01*
X144837452Y-80727455D01*
X144751206Y-80842664D01*
X144751202Y-80842671D01*
X144700908Y-80977517D01*
X144694501Y-81037116D01*
X144694501Y-81037123D01*
X144694500Y-81037135D01*
X144694500Y-81275500D01*
X144674815Y-81342539D01*
X144622011Y-81388294D01*
X144570500Y-81399500D01*
X141086303Y-81399500D01*
X140912341Y-81434103D01*
X140912329Y-81434106D01*
X140830392Y-81468045D01*
X140830393Y-81468046D01*
X140748455Y-81501985D01*
X140660040Y-81561063D01*
X140660039Y-81561064D01*
X140600961Y-81600537D01*
X139800537Y-82400961D01*
X139788403Y-82419122D01*
X139761496Y-82459391D01*
X139707886Y-82504195D01*
X139658395Y-82514500D01*
X138992129Y-82514500D01*
X138992123Y-82514501D01*
X138932516Y-82520908D01*
X138797671Y-82571202D01*
X138797664Y-82571206D01*
X138682455Y-82657452D01*
X138682452Y-82657455D01*
X138596206Y-82772664D01*
X138596202Y-82772671D01*
X138545908Y-82907517D01*
X138539501Y-82967116D01*
X138539500Y-82967135D01*
X136143583Y-82967135D01*
X135687909Y-82511462D01*
X135815005Y-82419122D01*
X135949122Y-82285005D01*
X136041462Y-82157910D01*
X136577823Y-82694271D01*
X136577826Y-82694271D01*
X136659005Y-82588479D01*
X136787148Y-82366530D01*
X136787150Y-82366526D01*
X136885220Y-82129765D01*
X136951548Y-81882222D01*
X136951551Y-81882209D01*
X136985000Y-81628137D01*
X136985000Y-81371862D01*
X136951551Y-81117790D01*
X136951548Y-81117777D01*
X136885220Y-80870234D01*
X136787150Y-80633473D01*
X136787148Y-80633469D01*
X136659010Y-80411530D01*
X136659009Y-80411529D01*
X136577824Y-80305727D01*
X136577823Y-80305727D01*
X136041461Y-80842089D01*
X135949122Y-80714995D01*
X135815005Y-80580878D01*
X135687908Y-80488536D01*
X136224271Y-79952174D01*
X136118470Y-79870990D01*
X136118469Y-79870989D01*
X135896530Y-79742851D01*
X135896526Y-79742849D01*
X135659765Y-79644779D01*
X135412222Y-79578451D01*
X135412209Y-79578448D01*
X135158138Y-79545000D01*
X134901862Y-79545000D01*
X134647790Y-79578448D01*
X134647777Y-79578451D01*
X134400234Y-79644779D01*
X134163473Y-79742849D01*
X134163469Y-79742851D01*
X133941530Y-79870989D01*
X133941520Y-79870995D01*
X133835727Y-79952173D01*
X133835727Y-79952174D01*
X134372090Y-80488537D01*
X134244995Y-80580878D01*
X134110878Y-80714995D01*
X134018537Y-80842090D01*
X133482174Y-80305727D01*
X133482173Y-80305727D01*
X133400995Y-80411520D01*
X133400989Y-80411530D01*
X133272851Y-80633469D01*
X133272849Y-80633473D01*
X133174779Y-80870234D01*
X133108451Y-81117777D01*
X133108448Y-81117790D01*
X133075000Y-81371862D01*
X128000500Y-81371862D01*
X128000500Y-74372149D01*
X130549500Y-74372149D01*
X130549500Y-74627850D01*
X130568956Y-74775625D01*
X130582874Y-74881340D01*
X130600626Y-74947591D01*
X130649050Y-75128312D01*
X130649053Y-75128322D01*
X130746894Y-75364531D01*
X130746899Y-75364542D01*
X130874734Y-75585957D01*
X130874745Y-75585973D01*
X131030388Y-75788811D01*
X131030394Y-75788818D01*
X131211181Y-75969605D01*
X131211187Y-75969610D01*
X131414035Y-76125261D01*
X131414042Y-76125265D01*
X131635457Y-76253100D01*
X131635462Y-76253102D01*
X131635465Y-76253104D01*
X131871687Y-76350950D01*
X132118660Y-76417126D01*
X132372157Y-76450500D01*
X132372164Y-76450500D01*
X132627836Y-76450500D01*
X132627843Y-76450500D01*
X132881340Y-76417126D01*
X133128313Y-76350950D01*
X133364535Y-76253104D01*
X133585965Y-76125261D01*
X133788813Y-75969610D01*
X133969610Y-75788813D01*
X134125261Y-75585965D01*
X134253104Y-75364535D01*
X134350950Y-75128313D01*
X134417126Y-74881340D01*
X134450500Y-74627843D01*
X134450500Y-74372157D01*
X134450499Y-74372149D01*
X175049500Y-74372149D01*
X175049500Y-74627850D01*
X175068956Y-74775625D01*
X175082874Y-74881340D01*
X175100626Y-74947591D01*
X175149050Y-75128312D01*
X175149053Y-75128322D01*
X175246894Y-75364531D01*
X175246899Y-75364542D01*
X175374734Y-75585957D01*
X175374745Y-75585973D01*
X175530388Y-75788811D01*
X175530394Y-75788818D01*
X175711181Y-75969605D01*
X175711187Y-75969610D01*
X175914035Y-76125261D01*
X175914042Y-76125265D01*
X176135457Y-76253100D01*
X176135462Y-76253102D01*
X176135465Y-76253104D01*
X176371687Y-76350950D01*
X176618660Y-76417126D01*
X176872157Y-76450500D01*
X176872164Y-76450500D01*
X177127836Y-76450500D01*
X177127843Y-76450500D01*
X177381340Y-76417126D01*
X177628313Y-76350950D01*
X177864535Y-76253104D01*
X178085965Y-76125261D01*
X178288813Y-75969610D01*
X178469610Y-75788813D01*
X178625261Y-75585965D01*
X178753104Y-75364535D01*
X178850950Y-75128313D01*
X178917126Y-74881340D01*
X178950500Y-74627843D01*
X178950500Y-74372157D01*
X178917126Y-74118660D01*
X178850950Y-73871687D01*
X178753104Y-73635465D01*
X178753102Y-73635462D01*
X178753100Y-73635457D01*
X178625265Y-73414042D01*
X178625261Y-73414035D01*
X178469610Y-73211187D01*
X178469605Y-73211181D01*
X178288818Y-73030394D01*
X178288811Y-73030388D01*
X178085973Y-72874745D01*
X178085971Y-72874743D01*
X178085965Y-72874739D01*
X178085960Y-72874736D01*
X178085957Y-72874734D01*
X177864542Y-72746899D01*
X177864531Y-72746894D01*
X177628322Y-72649053D01*
X177628315Y-72649051D01*
X177628313Y-72649050D01*
X177381340Y-72582874D01*
X177325007Y-72575457D01*
X177127850Y-72549500D01*
X177127843Y-72549500D01*
X176872157Y-72549500D01*
X176872149Y-72549500D01*
X176646826Y-72579165D01*
X176618660Y-72582874D01*
X176371687Y-72649050D01*
X176371677Y-72649053D01*
X176135468Y-72746894D01*
X176135457Y-72746899D01*
X175914042Y-72874734D01*
X175914026Y-72874745D01*
X175711188Y-73030388D01*
X175711181Y-73030394D01*
X175530394Y-73211181D01*
X175530388Y-73211188D01*
X175374745Y-73414026D01*
X175374734Y-73414042D01*
X175246899Y-73635457D01*
X175246894Y-73635468D01*
X175149053Y-73871677D01*
X175149050Y-73871687D01*
X175082874Y-74118661D01*
X175049500Y-74372149D01*
X134450499Y-74372149D01*
X134417126Y-74118660D01*
X134350950Y-73871687D01*
X134253104Y-73635465D01*
X134253102Y-73635462D01*
X134253100Y-73635457D01*
X134125265Y-73414042D01*
X134125261Y-73414035D01*
X133969610Y-73211187D01*
X133969605Y-73211181D01*
X133788818Y-73030394D01*
X133788811Y-73030388D01*
X133585973Y-72874745D01*
X133585971Y-72874743D01*
X133585965Y-72874739D01*
X133585960Y-72874736D01*
X133585957Y-72874734D01*
X133364542Y-72746899D01*
X133364531Y-72746894D01*
X133128322Y-72649053D01*
X133128315Y-72649051D01*
X133128313Y-72649050D01*
X132881340Y-72582874D01*
X132825007Y-72575457D01*
X132627850Y-72549500D01*
X132627843Y-72549500D01*
X132372157Y-72549500D01*
X132372149Y-72549500D01*
X132146826Y-72579165D01*
X132118660Y-72582874D01*
X131871687Y-72649050D01*
X131871677Y-72649053D01*
X131635468Y-72746894D01*
X131635457Y-72746899D01*
X131414042Y-72874734D01*
X131414026Y-72874745D01*
X131211188Y-73030388D01*
X131211181Y-73030394D01*
X131030394Y-73211181D01*
X131030388Y-73211188D01*
X130874745Y-73414026D01*
X130874734Y-73414042D01*
X130746899Y-73635457D01*
X130746894Y-73635468D01*
X130649053Y-73871677D01*
X130649050Y-73871687D01*
X130582874Y-74118661D01*
X130549500Y-74372149D01*
X128000500Y-74372149D01*
X128000500Y-70124500D01*
X128020185Y-70057461D01*
X128072989Y-70011706D01*
X128124500Y-70000500D01*
X181875500Y-70000500D01*
X181942539Y-70020185D01*
G37*
%TD.AperFunction*%
%TD*%
M02*
