M48
;Layer_Color=9474304
;FILE_FORMAT=4:4
METRIC,LZ
;TYPE=PLATED
T01F00S00C0.3000
T02F00S00C0.7112
T03F00S00C0.7620
T04F00S00C0.9000
T05F00S00C0.9700
T06F00S00C2.9000
%
T01
X0042291Y0005588
X0045498Y00076251
X0046736Y0003348
X0051943Y0003175
Y0007493
Y0013589
X0052212Y0016637
X0051054Y002159
X0048133Y0022606
X00442538Y00176123
X0045498Y0013589
X0042672Y00127
X0037338Y0012827
X0036576Y0016256
X0033147Y0012573
X0026289
X0020447Y0016256
X0026035Y0002921
X0038354Y0007366
T02
X0058801Y0001361
Y0004421
Y0007481
Y0010541
Y0013601
Y0016716
Y0019721
Y0022781
T03
X004753Y0006065
X004953
Y0008065
Y0010065
Y0012065
Y0014065
Y0016065
X004753
Y0014065
Y0012065
Y0010065
Y0008065
Y0018065
X004953
X0041243Y0020018
Y0022018
X0039243
Y0020018
X0033807Y0020087
Y0022087
X0031807
Y0020087
X0026107
X0024107
Y0022087
X0026107
X0018407
X0016407
Y0020087
X0018407
X0010707
Y0022087
X0008707
Y0020087
X0004826Y0013208
Y0011208
X0002826
Y0013208
T04
X0008557Y0002302
X0010557
Y0004302
X0008557
X0012557
X0014557
Y0002302
X0012557
X0011827Y0010319
Y0012319
Y0014319
X0013827
Y0012319
Y0010319
T05
X002032Y0001905
X002286
X0029083
X0031623
Y0009525
X0029083
X002286
X002032
T06
X00625Y00025
Y00225
X00025
Y00025
M30
