G04*
G04 #@! TF.GenerationSoftware,Altium Limited,Altium Designer,26.4.1 (12)*
G04*
G04 Layer_Physical_Order=1*
G04 Layer_Color=255*
%FSLAX44Y44*%
%MOMM*%
G71*
G04*
G04 #@! TF.SameCoordinates,A675BE8E-4158-487C-9D7D-9433AE83E70E*
G04*
G04*
G04 #@! TF.FilePolarity,Positive*
G04*
G01*
G75*
%ADD16R,1.1000X1.7500*%
%ADD17R,1.1500X1.1500*%
%ADD27C,0.2540*%
%ADD28C,1.2700*%
%ADD29C,1.4080*%
%ADD30C,1.5090*%
%ADD31R,1.4080X1.4080*%
%ADD32R,1.4080X1.4080*%
%ADD33C,0.6000*%
%ADD34C,3.9000*%
G36*
X650240Y0D02*
X575081D01*
X574550Y2320D01*
X574550Y2540D01*
Y9725D01*
X579987D01*
X580896Y8151D01*
X582551Y6496D01*
X584579Y5326D01*
X586840Y4720D01*
X589180D01*
X591441Y5326D01*
X593469Y6496D01*
X595124Y8151D01*
X596294Y10179D01*
X596900Y12440D01*
Y14780D01*
X596294Y17041D01*
X595124Y19069D01*
X593469Y20724D01*
X591441Y21894D01*
X589180Y22500D01*
X586840D01*
X584579Y21894D01*
X582551Y20724D01*
X580896Y19069D01*
X579987Y17495D01*
X574550D01*
Y24900D01*
X558470D01*
Y2540D01*
X558470Y2320D01*
X557939Y0D01*
X545081D01*
X544550Y2320D01*
X544550Y2540D01*
Y12340D01*
X536510D01*
X528470D01*
Y2540D01*
X528470Y2320D01*
X527939Y0D01*
X0D01*
Y250190D01*
X650240D01*
Y0D01*
D02*
G37*
%LPC*%
G36*
X544550Y239100D02*
X537780D01*
Y229080D01*
X544550D01*
Y239100D01*
D02*
G37*
G36*
X535240D02*
X528470D01*
Y229080D01*
X535240D01*
Y239100D01*
D02*
G37*
G36*
X627171Y247040D02*
X626270D01*
Y226270D01*
X647040D01*
Y227171D01*
X646193Y231429D01*
X644532Y235440D01*
X642120Y239050D01*
X639050Y242120D01*
X635440Y244532D01*
X631429Y246193D01*
X627171Y247040D01*
D02*
G37*
G36*
X623730D02*
X622829D01*
X618571Y246193D01*
X614560Y244532D01*
X610950Y242120D01*
X607880Y239050D01*
X605468Y235440D01*
X603807Y231429D01*
X602960Y227171D01*
Y226270D01*
X623730D01*
Y247040D01*
D02*
G37*
G36*
X27171D02*
X26270D01*
Y226270D01*
X47040D01*
Y227171D01*
X46193Y231429D01*
X44532Y235440D01*
X42120Y239050D01*
X39050Y242120D01*
X35440Y244532D01*
X31429Y246193D01*
X27171Y247040D01*
D02*
G37*
G36*
X23730D02*
X22829D01*
X18571Y246193D01*
X14560Y244532D01*
X10950Y242120D01*
X7880Y239050D01*
X5468Y235440D01*
X3807Y231429D01*
X2960Y227171D01*
Y226270D01*
X23730D01*
Y247040D01*
D02*
G37*
G36*
X339340Y229733D02*
Y222140D01*
X346933D01*
X346354Y224301D01*
X345184Y226329D01*
X343529Y227984D01*
X341501Y229154D01*
X339340Y229733D01*
D02*
G37*
G36*
X262340D02*
Y222140D01*
X269933D01*
X269354Y224301D01*
X268184Y226329D01*
X266528Y227984D01*
X264501Y229154D01*
X262340Y229733D01*
D02*
G37*
G36*
X185340D02*
Y222140D01*
X192933D01*
X192354Y224301D01*
X191184Y226329D01*
X189529Y227984D01*
X187501Y229154D01*
X185340Y229733D01*
D02*
G37*
G36*
X108340D02*
Y222140D01*
X115933D01*
X115354Y224301D01*
X114184Y226329D01*
X112529Y227984D01*
X110501Y229154D01*
X108340Y229733D01*
D02*
G37*
G36*
X413700Y229043D02*
Y221450D01*
X421293D01*
X420714Y223611D01*
X419544Y225639D01*
X417889Y227294D01*
X415861Y228464D01*
X413700Y229043D01*
D02*
G37*
G36*
X574550Y239100D02*
X558470D01*
Y216520D01*
X574550D01*
Y223925D01*
X579987D01*
X580896Y222351D01*
X582551Y220696D01*
X584579Y219526D01*
X586840Y218920D01*
X589180D01*
X591441Y219526D01*
X593469Y220696D01*
X595124Y222351D01*
X596294Y224379D01*
X596900Y226640D01*
Y228980D01*
X596294Y231241D01*
X595124Y233269D01*
X593469Y234924D01*
X591441Y236094D01*
X589180Y236700D01*
X586840D01*
X584579Y236094D01*
X582551Y234924D01*
X580896Y233269D01*
X579987Y231695D01*
X574550D01*
Y239100D01*
D02*
G37*
G36*
X544550Y226540D02*
X537780D01*
Y216520D01*
X544550D01*
Y226540D01*
D02*
G37*
G36*
X535240D02*
X528470D01*
Y216520D01*
X535240D01*
Y226540D01*
D02*
G37*
G36*
X647040Y223730D02*
X626270D01*
Y202960D01*
X627171D01*
X631429Y203807D01*
X635440Y205468D01*
X639050Y207880D01*
X642120Y210950D01*
X644532Y214560D01*
X646193Y218571D01*
X647040Y222829D01*
Y223730D01*
D02*
G37*
G36*
X623730D02*
X602960D01*
Y222829D01*
X603807Y218571D01*
X605468Y214560D01*
X607880Y210950D01*
X610950Y207880D01*
X614560Y205468D01*
X618571Y203807D01*
X622829Y202960D01*
X623730D01*
Y223730D01*
D02*
G37*
G36*
X47040D02*
X26270D01*
Y202960D01*
X27171D01*
X31429Y203807D01*
X35440Y205468D01*
X39050Y207880D01*
X42120Y210950D01*
X44532Y214560D01*
X46193Y218571D01*
X47040Y222829D01*
Y223730D01*
D02*
G37*
G36*
X23730D02*
X2960D01*
Y222829D01*
X3807Y218571D01*
X5468Y214560D01*
X7880Y210950D01*
X10950Y207880D01*
X14560Y205468D01*
X18571Y203807D01*
X22829Y202960D01*
X23730D01*
Y223730D01*
D02*
G37*
G36*
X544550Y208500D02*
X537780D01*
Y198480D01*
X544550D01*
Y208500D01*
D02*
G37*
G36*
X535240D02*
X528470D01*
Y198480D01*
X535240D01*
Y208500D01*
D02*
G37*
G36*
X319240Y229760D02*
X316900D01*
X314639Y229154D01*
X312611Y227984D01*
X310956Y226329D01*
X309786Y224301D01*
X309180Y222040D01*
Y219700D01*
X309786Y217439D01*
X310956Y215411D01*
X312611Y213756D01*
X314639Y212586D01*
X316135Y212185D01*
Y209555D01*
X314639Y209154D01*
X312611Y207984D01*
X310956Y206329D01*
X309786Y204301D01*
X309180Y202040D01*
Y199700D01*
X309786Y197439D01*
X310956Y195411D01*
X312611Y193756D01*
X314639Y192586D01*
X316900Y191980D01*
X319240D01*
X321501Y192586D01*
X323529Y193756D01*
X325184Y195411D01*
X326354Y197439D01*
X326755Y198935D01*
X329385D01*
X329786Y197439D01*
X330956Y195411D01*
X332611Y193756D01*
X334638Y192586D01*
X336900Y191980D01*
X339240D01*
X341501Y192586D01*
X343529Y193756D01*
X345184Y195411D01*
X346354Y197439D01*
X346960Y199700D01*
Y202040D01*
X346354Y204301D01*
X345184Y206329D01*
X343529Y207984D01*
X341501Y209154D01*
X340005Y209555D01*
Y212185D01*
X341501Y212586D01*
X343529Y213756D01*
X345184Y215411D01*
X346354Y217439D01*
X346933Y219600D01*
X338070D01*
Y220870D01*
X336800D01*
Y229733D01*
X334638Y229154D01*
X332611Y227984D01*
X330956Y226329D01*
X329786Y224301D01*
X329385Y222805D01*
X326755D01*
X326354Y224301D01*
X325184Y226329D01*
X323529Y227984D01*
X321501Y229154D01*
X319240Y229760D01*
D02*
G37*
G36*
X242240D02*
X239900D01*
X237638Y229154D01*
X235611Y227984D01*
X233956Y226329D01*
X232786Y224301D01*
X232180Y222040D01*
Y219700D01*
X232786Y217439D01*
X233956Y215411D01*
X235611Y213756D01*
X237638Y212586D01*
X239135Y212185D01*
Y209555D01*
X237638Y209154D01*
X235611Y207984D01*
X233956Y206329D01*
X232786Y204301D01*
X232180Y202040D01*
Y199700D01*
X232786Y197439D01*
X233956Y195411D01*
X235611Y193756D01*
X237638Y192586D01*
X239900Y191980D01*
X242240D01*
X244501Y192586D01*
X246528Y193756D01*
X248184Y195411D01*
X249354Y197439D01*
X249755Y198935D01*
X252385D01*
X252786Y197439D01*
X253956Y195411D01*
X255611Y193756D01*
X257638Y192586D01*
X259900Y191980D01*
X262240D01*
X264501Y192586D01*
X266528Y193756D01*
X268184Y195411D01*
X269354Y197439D01*
X269960Y199700D01*
Y202040D01*
X269354Y204301D01*
X268184Y206329D01*
X266528Y207984D01*
X264501Y209154D01*
X263005Y209555D01*
Y212185D01*
X264501Y212586D01*
X266528Y213756D01*
X268184Y215411D01*
X269354Y217439D01*
X269933Y219600D01*
X261070D01*
Y220870D01*
X259800D01*
Y229733D01*
X257638Y229154D01*
X255611Y227984D01*
X253956Y226329D01*
X252786Y224301D01*
X252385Y222805D01*
X249755D01*
X249354Y224301D01*
X248184Y226329D01*
X246528Y227984D01*
X244501Y229154D01*
X242240Y229760D01*
D02*
G37*
G36*
X165240D02*
X162900D01*
X160639Y229154D01*
X158611Y227984D01*
X156956Y226329D01*
X155786Y224301D01*
X155180Y222040D01*
Y219700D01*
X155786Y217439D01*
X156956Y215411D01*
X158611Y213756D01*
X160639Y212586D01*
X162135Y212185D01*
Y209555D01*
X160639Y209154D01*
X158611Y207984D01*
X156956Y206329D01*
X155786Y204301D01*
X155180Y202040D01*
Y199700D01*
X155786Y197439D01*
X156956Y195411D01*
X158611Y193756D01*
X160639Y192586D01*
X162900Y191980D01*
X165240D01*
X167501Y192586D01*
X169529Y193756D01*
X171184Y195411D01*
X172354Y197439D01*
X172755Y198935D01*
X175385D01*
X175786Y197439D01*
X176956Y195411D01*
X178611Y193756D01*
X180639Y192586D01*
X182900Y191980D01*
X185240D01*
X187501Y192586D01*
X189529Y193756D01*
X191184Y195411D01*
X192354Y197439D01*
X192960Y199700D01*
Y202040D01*
X192354Y204301D01*
X191184Y206329D01*
X189529Y207984D01*
X187501Y209154D01*
X186005Y209555D01*
Y212185D01*
X187501Y212586D01*
X189529Y213756D01*
X191184Y215411D01*
X192354Y217439D01*
X192933Y219600D01*
X184070D01*
Y220870D01*
X182800D01*
Y229733D01*
X180639Y229154D01*
X178611Y227984D01*
X176956Y226329D01*
X175786Y224301D01*
X175385Y222805D01*
X172755D01*
X172354Y224301D01*
X171184Y226329D01*
X169529Y227984D01*
X167501Y229154D01*
X165240Y229760D01*
D02*
G37*
G36*
X485538Y240105D02*
X477122D01*
X475635Y239809D01*
X474375Y238967D01*
X468423Y233015D01*
X467581Y231755D01*
X467285Y230268D01*
Y192498D01*
X462393Y187605D01*
X461551Y186345D01*
X461255Y184858D01*
Y150810D01*
X461551Y149323D01*
X462393Y148063D01*
X466880Y143576D01*
X466410Y141820D01*
Y139480D01*
X466880Y137724D01*
X462792Y133636D01*
X460975Y134557D01*
X460904Y134620D01*
X454980D01*
Y135890D01*
X453710D01*
Y141360D01*
X451842Y140587D01*
X451245Y139989D01*
X448705Y141041D01*
Y173670D01*
X448409Y175156D01*
X448078Y175652D01*
Y177225D01*
X447234Y179261D01*
X445676Y180820D01*
X443640Y181663D01*
X441436D01*
X441229Y181577D01*
X440690Y181685D01*
X439203Y181389D01*
X437943Y180547D01*
X437101Y179287D01*
X436805Y177800D01*
X436998Y176833D01*
Y175021D01*
X437841Y172985D01*
X439400Y171427D01*
X440935Y170791D01*
Y72043D01*
X441231Y70556D01*
X442073Y69296D01*
X448025Y63344D01*
X449285Y62502D01*
X450772Y62206D01*
X459188D01*
X460675Y62502D01*
X461935Y63344D01*
X466139Y67548D01*
X466315Y67724D01*
X466321Y67719D01*
X466321Y67719D01*
X468186Y66109D01*
X468022Y65823D01*
X467016Y64081D01*
X466410Y61820D01*
Y59480D01*
X467016Y57219D01*
X468186Y55191D01*
X469841Y53536D01*
X471415Y52628D01*
Y42569D01*
X467866Y39020D01*
X466258D01*
X464222Y38177D01*
X462950Y36905D01*
X372449D01*
X363494Y45860D01*
Y154800D01*
X365714Y157020D01*
X366862D01*
X368898Y157863D01*
X370457Y159422D01*
X371300Y161458D01*
Y163662D01*
X370457Y165698D01*
X368898Y167257D01*
X366862Y168100D01*
X364658D01*
X362622Y167257D01*
X361063Y165698D01*
X360220Y163662D01*
Y162514D01*
X356862Y159156D01*
X356020Y157896D01*
X355724Y156409D01*
Y44251D01*
X356020Y42764D01*
X356862Y41504D01*
X365465Y32901D01*
X364493Y30555D01*
X349589D01*
X299162Y80982D01*
X297902Y81824D01*
X296415Y82120D01*
X206705D01*
X206114Y82483D01*
X205882Y82898D01*
X207093Y85852D01*
X209392Y87180D01*
X211270Y89058D01*
X212598Y91357D01*
X213285Y93922D01*
Y96578D01*
X212598Y99143D01*
X211270Y101442D01*
X209392Y103320D01*
X207093Y104648D01*
X207085Y104650D01*
Y127600D01*
X211810D01*
Y144180D01*
X195230D01*
Y127600D01*
X199315D01*
Y104650D01*
X199307Y104648D01*
X197008Y103320D01*
X195130Y101442D01*
X193802Y99143D01*
X193295Y97251D01*
X191485Y96450D01*
X190575Y96379D01*
X147850Y139104D01*
Y152770D01*
X128690D01*
Y149382D01*
X126150Y148701D01*
X125936Y149072D01*
X124152Y150856D01*
X121968Y152117D01*
X119531Y152770D01*
X117009D01*
X114572Y152117D01*
X112388Y150856D01*
X110604Y149072D01*
X109700Y147507D01*
X107114Y147300D01*
X97865Y156549D01*
Y186171D01*
X104144Y192450D01*
X105900Y191980D01*
X108240D01*
X110501Y192586D01*
X112529Y193756D01*
X114184Y195411D01*
X115354Y197439D01*
X115960Y199700D01*
Y202040D01*
X115354Y204301D01*
X114184Y206329D01*
X112529Y207984D01*
X110501Y209154D01*
X109005Y209555D01*
Y212185D01*
X110501Y212586D01*
X112529Y213756D01*
X114184Y215411D01*
X115354Y217439D01*
X115933Y219600D01*
X107070D01*
Y220870D01*
X105800D01*
Y229733D01*
X103639Y229154D01*
X101611Y227984D01*
X99956Y226329D01*
X98786Y224301D01*
X98385Y222805D01*
X95755D01*
X95354Y224301D01*
X94184Y226329D01*
X92528Y227984D01*
X90501Y229154D01*
X88240Y229760D01*
X85900D01*
X83638Y229154D01*
X81611Y227984D01*
X79956Y226329D01*
X78786Y224301D01*
X78180Y222040D01*
Y219700D01*
X78786Y217439D01*
X79956Y215411D01*
X81611Y213756D01*
X83638Y212586D01*
X85135Y212185D01*
Y209555D01*
X83638Y209154D01*
X81611Y207984D01*
X79956Y206329D01*
X78786Y204301D01*
X78180Y202040D01*
Y199700D01*
X78786Y197439D01*
X79956Y195411D01*
X81611Y193756D01*
X83638Y192586D01*
X85900Y191980D01*
X88240D01*
X89427Y192298D01*
X90251Y191490D01*
X90928Y190071D01*
X90391Y189267D01*
X90095Y187780D01*
Y154940D01*
Y92710D01*
X90391Y91223D01*
X91233Y89963D01*
X125153Y56044D01*
X126413Y55202D01*
X126449Y55140D01*
X125621Y52600D01*
X124309Y52600D01*
X121872Y51947D01*
X119688Y50686D01*
X117904Y48902D01*
X116973Y47290D01*
X115847Y47030D01*
X115294D01*
X114167Y47290D01*
X113236Y48902D01*
X111452Y50686D01*
X109268Y51947D01*
X106840Y52598D01*
Y43020D01*
X104300D01*
Y52598D01*
X101872Y51947D01*
X99688Y50686D01*
X97904Y48902D01*
X97690Y48531D01*
X95150Y49212D01*
Y52600D01*
X89455D01*
Y54770D01*
X89159Y56257D01*
X88317Y57517D01*
X44608Y101225D01*
X45923Y103503D01*
X46990Y103217D01*
Y112080D01*
X48260D01*
Y113350D01*
X57123D01*
X56544Y115511D01*
X55374Y117539D01*
X53719Y119194D01*
X51691Y120364D01*
X50195Y120765D01*
Y123395D01*
X51691Y123796D01*
X53719Y124966D01*
X55374Y126621D01*
X56544Y128649D01*
X57150Y130910D01*
Y133250D01*
X56544Y135511D01*
X55374Y137539D01*
X53719Y139194D01*
X51691Y140364D01*
X49430Y140970D01*
X47090D01*
X44829Y140364D01*
X42801Y139194D01*
X41146Y137539D01*
X39976Y135511D01*
X39575Y134015D01*
X36945D01*
X36544Y135511D01*
X35374Y137539D01*
X33719Y139194D01*
X31691Y140364D01*
X29430Y140970D01*
X27090D01*
X24829Y140364D01*
X22801Y139194D01*
X21146Y137539D01*
X19976Y135511D01*
X19370Y133250D01*
Y130910D01*
X19976Y128649D01*
X21146Y126621D01*
X22801Y124966D01*
X24829Y123796D01*
X26325Y123395D01*
Y120765D01*
X24829Y120364D01*
X22801Y119194D01*
X21146Y117539D01*
X19976Y115511D01*
X19370Y113250D01*
Y110910D01*
X19976Y108649D01*
X21146Y106621D01*
X22801Y104966D01*
X24829Y103796D01*
X27090Y103190D01*
X29430D01*
X31186Y103660D01*
X79706Y55140D01*
X78654Y52600D01*
X75990D01*
Y33440D01*
X79378D01*
X80059Y30900D01*
X79688Y30686D01*
X77904Y28902D01*
X76643Y26718D01*
X75990Y24281D01*
Y21759D01*
X76643Y19322D01*
X77904Y17138D01*
X79688Y15354D01*
X81872Y14093D01*
X84309Y13440D01*
X86831D01*
X89268Y14093D01*
X91452Y15354D01*
X93236Y17138D01*
X94167Y18750D01*
X95293Y19010D01*
X95847D01*
X96973Y18750D01*
X97904Y17138D01*
X99688Y15354D01*
X101872Y14093D01*
X104309Y13440D01*
X106831D01*
X109059Y14037D01*
X118148Y4948D01*
X119408Y4106D01*
X120895Y3810D01*
X495375D01*
X496862Y4106D01*
X498122Y4948D01*
X519384Y26210D01*
X520532D01*
X522568Y27053D01*
X524127Y28612D01*
X524970Y30648D01*
Y32852D01*
X524127Y34888D01*
X523315Y35700D01*
Y70980D01*
X524127Y71792D01*
X524970Y73828D01*
Y76032D01*
X524127Y78068D01*
X522568Y79627D01*
X520532Y80470D01*
X518328D01*
X516292Y79627D01*
X514733Y78068D01*
X513890Y76032D01*
Y73828D01*
X514733Y71792D01*
X515545Y70980D01*
Y35700D01*
X514733Y34888D01*
X513890Y32852D01*
Y31704D01*
X493766Y11580D01*
X326489D01*
X325029Y14120D01*
X325628Y15157D01*
X326315Y17722D01*
Y20378D01*
X325628Y22943D01*
X324300Y25242D01*
X322422Y27120D01*
X320123Y28448D01*
X317558Y29135D01*
X314902D01*
X312337Y28448D01*
X310038Y27120D01*
X308160Y25242D01*
X306832Y22943D01*
X306145Y20378D01*
Y17722D01*
X306832Y15157D01*
X307431Y14120D01*
X305971Y11580D01*
X301089D01*
X299629Y14120D01*
X300228Y15157D01*
X300915Y17722D01*
Y20378D01*
X300228Y22943D01*
X298900Y25242D01*
X297022Y27120D01*
X294723Y28448D01*
X292158Y29135D01*
X289502D01*
X286937Y28448D01*
X284638Y27120D01*
X282760Y25242D01*
X281432Y22943D01*
X280745Y20378D01*
Y17722D01*
X281432Y15157D01*
X282031Y14120D01*
X280571Y11580D01*
X238859D01*
X237399Y14120D01*
X237998Y15157D01*
X238685Y17722D01*
Y20378D01*
X237998Y22943D01*
X236670Y25242D01*
X234792Y27120D01*
X232493Y28448D01*
X229928Y29135D01*
X227272D01*
X224707Y28448D01*
X222408Y27120D01*
X220530Y25242D01*
X219202Y22943D01*
X218515Y20378D01*
Y17722D01*
X219202Y15157D01*
X219801Y14120D01*
X218341Y11580D01*
X213459D01*
X211999Y14120D01*
X212598Y15157D01*
X213285Y17722D01*
Y20378D01*
X212598Y22943D01*
X211270Y25242D01*
X209392Y27120D01*
X207093Y28448D01*
X204528Y29135D01*
X201872D01*
X199307Y28448D01*
X199300Y28444D01*
X166206Y61537D01*
X164946Y62380D01*
X163459Y62675D01*
X129508D01*
X97865Y94319D01*
Y142243D01*
X100211Y143215D01*
X102983Y140443D01*
X104243Y139601D01*
X105730Y139305D01*
X109451D01*
X110604Y137308D01*
X112388Y135524D01*
X114000Y134593D01*
X114260Y133467D01*
Y132914D01*
X114000Y131787D01*
X112388Y130856D01*
X110604Y129072D01*
X109343Y126888D01*
X108692Y124460D01*
X118270D01*
Y121920D01*
X108692D01*
X109343Y119492D01*
X110604Y117308D01*
X112388Y115524D01*
X114000Y114593D01*
X114260Y113467D01*
Y112914D01*
X114000Y111787D01*
X112388Y110856D01*
X110604Y109072D01*
X109343Y106888D01*
X108690Y104451D01*
Y101929D01*
X109343Y99492D01*
X110604Y97308D01*
X112388Y95524D01*
X114572Y94263D01*
X117009Y93610D01*
X119531D01*
X121968Y94263D01*
X124152Y95524D01*
X125936Y97308D01*
X126867Y98920D01*
X127993Y99180D01*
X128546D01*
X129673Y98920D01*
X130604Y97308D01*
X132388Y95524D01*
X134572Y94263D01*
X137009Y93610D01*
X139531D01*
X141968Y94263D01*
X144152Y95524D01*
X145936Y97308D01*
X147197Y99492D01*
X147850Y101929D01*
Y104451D01*
X147197Y106888D01*
X145936Y109072D01*
X144152Y110856D01*
X142540Y111787D01*
X142280Y112914D01*
Y113467D01*
X142540Y114593D01*
X144152Y115524D01*
X145936Y117308D01*
X147197Y119492D01*
X147850Y121929D01*
Y124451D01*
X147823Y124551D01*
X150101Y125866D01*
X200478Y75488D01*
X201738Y74646D01*
X203225Y74350D01*
X294806D01*
X345233Y23923D01*
X346493Y23081D01*
X347980Y22785D01*
X475688D01*
X477175Y23081D01*
X478435Y23923D01*
X508207Y53695D01*
X509049Y54955D01*
X509344Y56442D01*
Y110490D01*
X509049Y111977D01*
X508207Y113237D01*
X503720Y117724D01*
X504190Y119480D01*
Y121820D01*
X503584Y124081D01*
X502414Y126109D01*
X500759Y127764D01*
X498731Y128934D01*
X497235Y129335D01*
Y131965D01*
X498731Y132366D01*
X500759Y133536D01*
X502414Y135191D01*
X503584Y137219D01*
X504190Y139480D01*
Y141820D01*
X504108Y142126D01*
X506385Y143441D01*
X513890Y135936D01*
Y134788D01*
X514733Y132752D01*
X516292Y131193D01*
X518328Y130350D01*
X520532D01*
X522568Y131193D01*
X524127Y132752D01*
X524970Y134788D01*
Y136992D01*
X524127Y139028D01*
X522568Y140587D01*
X520532Y141430D01*
X519384D01*
X512382Y148432D01*
Y165054D01*
X513287Y165959D01*
X514129Y167219D01*
X516580Y166664D01*
X516580Y165268D01*
X517423Y163232D01*
X518982Y161673D01*
X521018Y160830D01*
X523222D01*
X525258Y161673D01*
X525930Y162345D01*
X528470Y161293D01*
Y155320D01*
X535240D01*
Y166610D01*
Y177900D01*
X528545D01*
X528470Y177900D01*
X526005Y178080D01*
Y185345D01*
X525709Y186832D01*
X524867Y188092D01*
X514425Y198534D01*
Y211950D01*
X515237Y212762D01*
X516080Y214798D01*
Y217002D01*
X515237Y219038D01*
X513678Y220597D01*
X511642Y221440D01*
X509438D01*
X507402Y220597D01*
X506805Y219999D01*
X504265Y221052D01*
Y221378D01*
X503969Y222865D01*
X503127Y224125D01*
X488285Y238967D01*
X487025Y239809D01*
X485538Y240105D01*
D02*
G37*
G36*
X574550Y208500D02*
X558470D01*
Y185920D01*
X574550D01*
Y193325D01*
X579987D01*
X580896Y191751D01*
X582551Y190096D01*
X584579Y188926D01*
X586840Y188320D01*
X589180D01*
X591441Y188926D01*
X593469Y190096D01*
X595124Y191751D01*
X596294Y193779D01*
X596900Y196040D01*
Y198380D01*
X596294Y200641D01*
X595124Y202669D01*
X593469Y204324D01*
X591441Y205494D01*
X589180Y206100D01*
X586840D01*
X584579Y205494D01*
X582551Y204324D01*
X580896Y202669D01*
X579987Y201095D01*
X574550D01*
Y208500D01*
D02*
G37*
G36*
X544550Y195940D02*
X537780D01*
Y185920D01*
X544550D01*
Y195940D01*
D02*
G37*
G36*
X535240D02*
X528470D01*
Y185920D01*
X535240D01*
Y195940D01*
D02*
G37*
G36*
X537780Y177900D02*
Y167880D01*
X544550D01*
Y177900D01*
X537780D01*
D02*
G37*
G36*
X574550D02*
X558470D01*
Y155320D01*
X574550D01*
Y162725D01*
X580305D01*
X580896Y161701D01*
X582551Y160046D01*
X584579Y158876D01*
X586840Y158270D01*
X589180D01*
X591441Y158876D01*
X593469Y160046D01*
X595124Y161701D01*
X596294Y163729D01*
X596900Y165990D01*
Y168330D01*
X596294Y170591D01*
X595124Y172619D01*
X593469Y174274D01*
X591441Y175444D01*
X589180Y176050D01*
X586840D01*
X584579Y175444D01*
X582551Y174274D01*
X580896Y172619D01*
X579726Y170591D01*
X579700Y170495D01*
X574550D01*
Y177900D01*
D02*
G37*
G36*
X260070Y163230D02*
X253050D01*
Y156210D01*
X260070D01*
Y163230D01*
D02*
G37*
G36*
X250510D02*
X243490D01*
Y156210D01*
X250510D01*
Y163230D01*
D02*
G37*
G36*
X544550Y165340D02*
X537780D01*
Y155320D01*
X544550D01*
Y165340D01*
D02*
G37*
G36*
X260070Y153670D02*
X253050D01*
Y146650D01*
X260070D01*
Y153670D01*
D02*
G37*
G36*
X250510D02*
X243490D01*
Y146650D01*
X250510D01*
Y153670D01*
D02*
G37*
G36*
X544550Y147300D02*
X537780D01*
Y137280D01*
X544550D01*
Y147300D01*
D02*
G37*
G36*
X535240D02*
X528470D01*
Y137280D01*
X535240D01*
Y147300D01*
D02*
G37*
G36*
X188310Y144180D02*
X181290D01*
Y137160D01*
X188310D01*
Y144180D01*
D02*
G37*
G36*
X456250Y141360D02*
Y137160D01*
X460451D01*
X459677Y139028D01*
X458118Y140587D01*
X456250Y141360D01*
D02*
G37*
G36*
X178750Y144180D02*
X171730D01*
Y137160D01*
X178750D01*
Y144180D01*
D02*
G37*
G36*
X188310Y134620D02*
X181290D01*
Y127600D01*
X188310D01*
Y134620D01*
D02*
G37*
G36*
X178750D02*
X171730D01*
Y127600D01*
X178750D01*
Y134620D01*
D02*
G37*
G36*
X574550Y147300D02*
X558470D01*
Y124720D01*
X574550D01*
Y132125D01*
X579987D01*
X580896Y130551D01*
X582551Y128896D01*
X584579Y127726D01*
X586840Y127120D01*
X589180D01*
X591441Y127726D01*
X593469Y128896D01*
X595124Y130551D01*
X596294Y132579D01*
X596900Y134840D01*
Y137180D01*
X596294Y139441D01*
X595124Y141469D01*
X593469Y143124D01*
X591441Y144294D01*
X589180Y144900D01*
X586840D01*
X584579Y144294D01*
X582551Y143124D01*
X580896Y141469D01*
X579987Y139895D01*
X574550D01*
Y147300D01*
D02*
G37*
G36*
X544550Y134740D02*
X537780D01*
Y124720D01*
X544550D01*
Y134740D01*
D02*
G37*
G36*
X535240D02*
X528470D01*
Y124720D01*
X535240D01*
Y134740D01*
D02*
G37*
G36*
X393600Y229070D02*
X391260D01*
X388999Y228464D01*
X386971Y227294D01*
X385316Y225639D01*
X384146Y223611D01*
X383540Y221350D01*
Y219010D01*
X384146Y216749D01*
X385316Y214721D01*
X386971Y213066D01*
X388999Y211896D01*
X390495Y211495D01*
Y208865D01*
X388999Y208464D01*
X386971Y207294D01*
X385316Y205639D01*
X384146Y203611D01*
X383540Y201350D01*
Y199010D01*
X384146Y196749D01*
X385316Y194721D01*
X386971Y193066D01*
X388999Y191896D01*
X391260Y191290D01*
X393600D01*
X395861Y191896D01*
X397889Y193066D01*
X399544Y194721D01*
X400714Y196749D01*
X401115Y198245D01*
X403745D01*
X404146Y196749D01*
X405316Y194721D01*
X406971Y193066D01*
X408545Y192157D01*
Y163849D01*
X394167Y149471D01*
X390696D01*
X389209Y149175D01*
X387949Y148333D01*
X373426Y133810D01*
X372278D01*
X370242Y132967D01*
X368683Y131408D01*
X367840Y129372D01*
Y127168D01*
X368683Y125132D01*
X370242Y123573D01*
X372278Y122730D01*
X374482D01*
X376518Y123573D01*
X378077Y125132D01*
X378920Y127168D01*
Y128316D01*
X392305Y141701D01*
X395776D01*
X397263Y141997D01*
X398523Y142839D01*
X412430Y156746D01*
X422835Y146341D01*
Y130950D01*
X422023Y130138D01*
X421180Y128102D01*
Y125898D01*
X422023Y123862D01*
X423582Y122303D01*
X425618Y121460D01*
X427822D01*
X429858Y122303D01*
X431417Y123862D01*
X432260Y125898D01*
Y128102D01*
X431417Y130138D01*
X430605Y130950D01*
Y147950D01*
X430309Y149437D01*
X429467Y150697D01*
X416315Y163849D01*
Y192157D01*
X417889Y193066D01*
X419544Y194721D01*
X420714Y196749D01*
X421320Y199010D01*
Y201350D01*
X420714Y203611D01*
X419544Y205639D01*
X417889Y207294D01*
X415861Y208464D01*
X414365Y208865D01*
Y211495D01*
X415861Y211896D01*
X417889Y213066D01*
X419544Y214721D01*
X420714Y216749D01*
X421293Y218910D01*
X412430D01*
Y220180D01*
X411160D01*
Y229043D01*
X408999Y228464D01*
X406971Y227294D01*
X405316Y225639D01*
X404146Y223611D01*
X403745Y222115D01*
X401115D01*
X400714Y223611D01*
X399544Y225639D01*
X397889Y227294D01*
X395861Y228464D01*
X393600Y229070D01*
D02*
G37*
G36*
X544550Y116700D02*
X537780D01*
Y106680D01*
X544550D01*
Y116700D01*
D02*
G37*
G36*
X535240D02*
X528470D01*
Y106680D01*
X535240D01*
Y116700D01*
D02*
G37*
G36*
X57123Y110810D02*
X49530D01*
Y103217D01*
X51691Y103796D01*
X53719Y104966D01*
X55374Y106621D01*
X56544Y108649D01*
X57123Y110810D01*
D02*
G37*
G36*
X574550Y116700D02*
X558470D01*
Y94120D01*
X574550D01*
Y101525D01*
X579987D01*
X580896Y99951D01*
X582551Y98296D01*
X584579Y97126D01*
X586840Y96520D01*
X589180D01*
X591441Y97126D01*
X593469Y98296D01*
X595124Y99951D01*
X596294Y101979D01*
X596900Y104240D01*
Y106580D01*
X596294Y108841D01*
X595124Y110869D01*
X593469Y112524D01*
X591441Y113694D01*
X589180Y114300D01*
X586840D01*
X584579Y113694D01*
X582551Y112524D01*
X580896Y110869D01*
X579987Y109295D01*
X574550D01*
Y116700D01*
D02*
G37*
G36*
X544550Y104140D02*
X537780D01*
Y94120D01*
X544550D01*
Y104140D01*
D02*
G37*
G36*
X535240D02*
X528470D01*
Y94120D01*
X535240D01*
Y104140D01*
D02*
G37*
G36*
X317558Y105335D02*
X314902D01*
X312337Y104648D01*
X310038Y103320D01*
X308160Y101442D01*
X306832Y99143D01*
X306145Y96578D01*
Y93922D01*
X306832Y91357D01*
X308160Y89058D01*
X310038Y87180D01*
X312337Y85852D01*
X314902Y85165D01*
X317558D01*
X320123Y85852D01*
X322422Y87180D01*
X324300Y89058D01*
X325628Y91357D01*
X326315Y93922D01*
Y96578D01*
X325628Y99143D01*
X324300Y101442D01*
X322422Y103320D01*
X320123Y104648D01*
X317558Y105335D01*
D02*
G37*
G36*
X292158D02*
X289502D01*
X286937Y104648D01*
X284638Y103320D01*
X282760Y101442D01*
X281432Y99143D01*
X280745Y96578D01*
Y93922D01*
X281432Y91357D01*
X282760Y89058D01*
X284638Y87180D01*
X286937Y85852D01*
X289502Y85165D01*
X292158D01*
X294723Y85852D01*
X297022Y87180D01*
X298900Y89058D01*
X300228Y91357D01*
X300915Y93922D01*
Y96578D01*
X300228Y99143D01*
X298900Y101442D01*
X297022Y103320D01*
X294723Y104648D01*
X292158Y105335D01*
D02*
G37*
G36*
X236570Y163230D02*
X219990D01*
Y146650D01*
X224715D01*
Y104650D01*
X224707Y104648D01*
X222408Y103320D01*
X220530Y101442D01*
X219202Y99143D01*
X218515Y96578D01*
Y93922D01*
X219202Y91357D01*
X220530Y89058D01*
X222408Y87180D01*
X224707Y85852D01*
X227272Y85165D01*
X229928D01*
X232493Y85852D01*
X234792Y87180D01*
X236670Y89058D01*
X237998Y91357D01*
X238685Y93922D01*
Y96578D01*
X237998Y99143D01*
X236670Y101442D01*
X234792Y103320D01*
X232493Y104648D01*
X232485Y104650D01*
Y146650D01*
X236570D01*
Y163230D01*
D02*
G37*
G36*
X544550Y86100D02*
X537780D01*
Y76080D01*
X544550D01*
Y86100D01*
D02*
G37*
G36*
X535240D02*
X528470D01*
Y76080D01*
X535240D01*
Y86100D01*
D02*
G37*
G36*
X574550D02*
X558470D01*
Y63520D01*
X574550D01*
Y70925D01*
X579987D01*
X580896Y69351D01*
X582551Y67696D01*
X584579Y66526D01*
X586840Y65920D01*
X589180D01*
X591441Y66526D01*
X593469Y67696D01*
X595124Y69351D01*
X596294Y71379D01*
X596900Y73640D01*
Y75980D01*
X596294Y78241D01*
X595124Y80269D01*
X593469Y81924D01*
X591441Y83094D01*
X589180Y83700D01*
X586840D01*
X584579Y83094D01*
X582551Y81924D01*
X580896Y80269D01*
X579987Y78695D01*
X574550D01*
Y86100D01*
D02*
G37*
G36*
X544550Y73540D02*
X537780D01*
Y63520D01*
X544550D01*
Y73540D01*
D02*
G37*
G36*
X535240D02*
X528470D01*
Y63520D01*
X535240D01*
Y73540D01*
D02*
G37*
G36*
X384642Y79200D02*
X382438D01*
X380402Y78357D01*
X378843Y76798D01*
X378000Y74762D01*
Y72558D01*
X378843Y70522D01*
X380402Y68963D01*
X382438Y68120D01*
X384642D01*
X386678Y68963D01*
X387490Y69775D01*
X403521D01*
X417370Y55926D01*
Y54778D01*
X418213Y52742D01*
X419772Y51183D01*
X421808Y50340D01*
X424012D01*
X426048Y51183D01*
X427607Y52742D01*
X428450Y54778D01*
Y56982D01*
X427607Y59018D01*
X426048Y60577D01*
X424012Y61420D01*
X422864D01*
X407877Y76407D01*
X406617Y77249D01*
X405130Y77545D01*
X387490D01*
X386678Y78357D01*
X384642Y79200D01*
D02*
G37*
G36*
X544550Y55500D02*
X537780D01*
Y45480D01*
X544550D01*
Y55500D01*
D02*
G37*
G36*
X535240D02*
X528470D01*
Y45480D01*
X535240D01*
Y55500D01*
D02*
G37*
G36*
X574550D02*
X558470D01*
Y32920D01*
X574550D01*
Y40325D01*
X579987D01*
X580896Y38751D01*
X582551Y37096D01*
X584579Y35926D01*
X586840Y35320D01*
X589180D01*
X591441Y35926D01*
X593469Y37096D01*
X595124Y38751D01*
X596294Y40779D01*
X596900Y43040D01*
Y45380D01*
X596294Y47641D01*
X595124Y49669D01*
X593469Y51324D01*
X591441Y52494D01*
X589180Y53100D01*
X586840D01*
X584579Y52494D01*
X582551Y51324D01*
X580896Y49669D01*
X579987Y48095D01*
X574550D01*
Y55500D01*
D02*
G37*
G36*
X544550Y42940D02*
X537780D01*
Y32920D01*
X544550D01*
Y42940D01*
D02*
G37*
G36*
X535240D02*
X528470D01*
Y32920D01*
X535240D01*
Y42940D01*
D02*
G37*
G36*
X627171Y47040D02*
X626270D01*
Y26270D01*
X647040D01*
Y27171D01*
X646193Y31429D01*
X644532Y35440D01*
X642120Y39050D01*
X639050Y42120D01*
X635440Y44532D01*
X631429Y46193D01*
X627171Y47040D01*
D02*
G37*
G36*
X623730D02*
X622829D01*
X618571Y46193D01*
X614560Y44532D01*
X610950Y42120D01*
X607880Y39050D01*
X605468Y35440D01*
X603807Y31429D01*
X602960Y27171D01*
Y26270D01*
X623730D01*
Y47040D01*
D02*
G37*
G36*
X27171D02*
X26270D01*
Y26270D01*
X47040D01*
Y27171D01*
X46193Y31429D01*
X44532Y35440D01*
X42120Y39050D01*
X39050Y42120D01*
X35440Y44532D01*
X31429Y46193D01*
X27171Y47040D01*
D02*
G37*
G36*
X23730D02*
X22829D01*
X18571Y46193D01*
X14560Y44532D01*
X10950Y42120D01*
X7880Y39050D01*
X5468Y35440D01*
X3807Y31429D01*
X2960Y27171D01*
Y26270D01*
X23730D01*
Y47040D01*
D02*
G37*
G36*
X544550Y24900D02*
X537780D01*
Y14880D01*
X544550D01*
Y24900D01*
D02*
G37*
G36*
X535240D02*
X528470D01*
Y14880D01*
X535240D01*
Y24900D01*
D02*
G37*
G36*
X647040Y23730D02*
X626270D01*
Y2960D01*
X627171D01*
X631429Y3807D01*
X635440Y5468D01*
X639050Y7880D01*
X642120Y10950D01*
X644532Y14560D01*
X646193Y18571D01*
X647040Y22829D01*
Y23730D01*
D02*
G37*
G36*
X623730D02*
X602960D01*
Y22829D01*
X603807Y18571D01*
X605468Y14560D01*
X607880Y10950D01*
X610950Y7880D01*
X614560Y5468D01*
X618571Y3807D01*
X622829Y2960D01*
X623730D01*
Y23730D01*
D02*
G37*
G36*
X47040D02*
X26270D01*
Y2960D01*
X27171D01*
X31429Y3807D01*
X35440Y5468D01*
X39050Y7880D01*
X42120Y10950D01*
X44532Y14560D01*
X46193Y18571D01*
X47040Y22829D01*
Y23730D01*
D02*
G37*
G36*
X23730D02*
X2960D01*
Y22829D01*
X3807Y18571D01*
X5468Y14560D01*
X7880Y10950D01*
X10950Y7880D01*
X14560Y5468D01*
X18571Y3807D01*
X22829Y2960D01*
X23730D01*
Y23730D01*
D02*
G37*
%LPD*%
G36*
X496495Y219769D02*
Y204147D01*
X494149Y203175D01*
X485215Y212109D01*
Y222110D01*
X486027Y222922D01*
X486870Y224958D01*
Y225803D01*
X489410Y226855D01*
X496495Y219769D01*
D02*
G37*
G36*
X477741Y209013D02*
X478583Y207753D01*
X494256Y192080D01*
X494215Y191253D01*
X493400Y189344D01*
X491869Y188934D01*
X489841Y187764D01*
X488186Y186109D01*
X487016Y184081D01*
X486615Y182585D01*
X483985D01*
X483584Y184081D01*
X482414Y186109D01*
X480759Y187764D01*
X478731Y188934D01*
X476470Y189540D01*
X476161D01*
X475055Y190888D01*
Y209499D01*
X477595Y209749D01*
X477741Y209013D01*
D02*
G37*
G36*
X466722Y122987D02*
X466410Y121820D01*
Y119480D01*
X467016Y117219D01*
X468186Y115191D01*
X469841Y113536D01*
X471869Y112366D01*
X473365Y111965D01*
Y109335D01*
X471869Y108934D01*
X469841Y107764D01*
X468186Y106109D01*
X467016Y104081D01*
X466410Y101820D01*
Y99480D01*
X467016Y97219D01*
X468186Y95191D01*
X469841Y93536D01*
X471869Y92366D01*
X473365Y91965D01*
Y89335D01*
X471869Y88934D01*
X469841Y87764D01*
X468186Y86109D01*
X467016Y84081D01*
X466972Y83918D01*
X466628D01*
X465141Y83623D01*
X463881Y82781D01*
X462393Y81293D01*
X459690Y81573D01*
X458865Y82170D01*
Y118721D01*
X464445Y124302D01*
X466722Y122987D01*
D02*
G37*
G36*
X487016Y57219D02*
X488186Y55191D01*
X489841Y53536D01*
X491869Y52366D01*
X492207Y52275D01*
X492967Y49442D01*
X477197Y33672D01*
X474681Y34748D01*
X474683Y34849D01*
X478047Y38213D01*
X478889Y39473D01*
X479185Y40960D01*
Y52628D01*
X480759Y53536D01*
X482414Y55191D01*
X483584Y57219D01*
X483985Y58715D01*
X486615D01*
X487016Y57219D01*
D02*
G37*
G36*
X193806Y22950D02*
X193802Y22943D01*
X193115Y20378D01*
Y17722D01*
X193802Y15157D01*
X194401Y14120D01*
X192941Y11580D01*
X149702D01*
X149268Y14093D01*
X151452Y15354D01*
X153236Y17138D01*
X154497Y19322D01*
X155148Y21750D01*
X145570D01*
Y24290D01*
X155148D01*
X154497Y26718D01*
X153236Y28902D01*
X151452Y30686D01*
X149840Y31617D01*
X149580Y32743D01*
Y33296D01*
X149840Y34423D01*
X151452Y35354D01*
X153236Y37138D01*
X154497Y39322D01*
X155150Y41759D01*
Y44281D01*
X154497Y46718D01*
X153236Y48902D01*
X151452Y50686D01*
X149268Y51947D01*
X147704Y52366D01*
X148039Y54906D01*
X161850D01*
X193806Y22950D01*
D02*
G37*
D16*
X536510Y197210D02*
D03*
Y227810D02*
D03*
Y166610D02*
D03*
Y136010D02*
D03*
Y105410D02*
D03*
Y74810D02*
D03*
Y13610D02*
D03*
Y44210D02*
D03*
X566510Y13610D02*
D03*
Y44210D02*
D03*
Y74810D02*
D03*
Y136010D02*
D03*
Y105410D02*
D03*
Y227810D02*
D03*
Y166610D02*
D03*
Y197210D02*
D03*
D17*
X251780Y154940D02*
D03*
X180020Y135890D02*
D03*
X228280Y154940D02*
D03*
X203520Y135890D02*
D03*
D27*
X466628Y80034D02*
X474684D01*
X465140Y78546D02*
X466628Y80034D01*
X474684D02*
X475300Y80650D01*
X440690Y177800D02*
X444820Y173670D01*
X510540Y168706D02*
Y189741D01*
X505460Y170810D02*
Y186370D01*
X481330Y210500D02*
X505460Y186370D01*
X495300Y160650D02*
X505460Y170810D01*
X508497Y166663D02*
X510540Y168706D01*
X500380Y199901D02*
X510540Y189741D01*
X467590Y33250D02*
X475300Y40960D01*
X395776Y145586D02*
X412430Y162240D01*
X373380Y128270D02*
X390696Y145586D01*
X395776D01*
X412430Y162240D02*
Y200180D01*
Y162240D02*
X426720Y147950D01*
Y127000D02*
Y147950D01*
X93980Y187780D02*
X107070Y200870D01*
X163459Y58791D02*
X203200Y19050D01*
X93980Y154940D02*
X105730Y143190D01*
X93980Y154940D02*
Y187780D01*
Y92710D02*
Y154940D01*
X105730Y143190D02*
X118270D01*
X127899Y58791D02*
X163459D01*
X93980Y92710D02*
X127899Y58791D01*
X370840Y33020D02*
X466900D01*
X467360Y33480D01*
X475688Y26670D02*
X505460Y56442D01*
X347980Y26670D02*
X475688D01*
X296415Y78235D02*
X347980Y26670D01*
X359609Y44251D02*
X370840Y33020D01*
X383540Y73660D02*
X405130D01*
X422910Y55880D01*
X359609Y156409D02*
X365760Y162560D01*
X359609Y44251D02*
Y156409D01*
X85570Y43020D02*
Y54770D01*
X28260Y112080D02*
X85570Y54770D01*
X228280Y152400D02*
X228600Y152080D01*
Y95250D02*
Y152080D01*
X203200Y135570D02*
X203520Y135890D01*
X203200Y95250D02*
Y135570D01*
X444820Y72043D02*
Y173670D01*
Y72043D02*
X450772Y66091D01*
X459188D01*
X454980Y76251D02*
Y120330D01*
X465140Y72043D02*
Y78546D01*
X459188Y66091D02*
X465140Y72043D01*
X203225Y78235D02*
X296415D01*
X142080Y139380D02*
X203225Y78235D01*
X481330Y210500D02*
Y226060D01*
X485538Y236220D02*
X500380Y221378D01*
Y199901D02*
Y221378D01*
X508497Y146823D02*
Y166663D01*
X471170Y230268D02*
X477122Y236220D01*
X471170Y190888D02*
Y230268D01*
X477122Y236220D02*
X485538D01*
X465140Y184858D02*
X471170Y190888D01*
X510540Y196925D02*
X522120Y185345D01*
X510540Y196925D02*
Y215900D01*
X522120Y166370D02*
Y185345D01*
X508497Y146823D02*
X519430Y135890D01*
X105570Y23020D02*
X120895Y7695D01*
X495375D01*
X519430Y31750D01*
X475300Y40960D02*
Y60650D01*
X454980Y120330D02*
X475300Y140650D01*
X505460Y56442D02*
Y110490D01*
X495300Y120650D02*
X505460Y110490D01*
X465140Y150810D02*
Y184858D01*
Y150810D02*
X475300Y140650D01*
X519430Y31750D02*
Y74930D01*
X566510Y227810D02*
X588010D01*
X566510Y13610D02*
X588010D01*
X566510Y44210D02*
X588010D01*
X566510Y74810D02*
X588010D01*
X566510Y105410D02*
X588010D01*
X566510Y136010D02*
X588010D01*
X566510Y166610D02*
X587460D01*
X566510Y197210D02*
X588010D01*
D28*
X241070Y200870D02*
D03*
Y220870D02*
D03*
X261070Y200870D02*
D03*
Y220870D02*
D03*
X475300Y160650D02*
D03*
Y180650D02*
D03*
X412430Y220180D02*
D03*
X495300Y60650D02*
D03*
Y100650D02*
D03*
Y80650D02*
D03*
X338070Y220870D02*
D03*
X184070D02*
D03*
X107070D02*
D03*
X48260Y112080D02*
D03*
X164070Y200870D02*
D03*
Y220870D02*
D03*
X184070Y200870D02*
D03*
X495300Y180650D02*
D03*
X412430Y200180D02*
D03*
X338070Y200870D02*
D03*
X107070D02*
D03*
X87070D02*
D03*
Y220870D02*
D03*
X318070Y200870D02*
D03*
Y220870D02*
D03*
X392430Y220180D02*
D03*
Y200180D02*
D03*
X48260Y132080D02*
D03*
X28260D02*
D03*
Y112080D02*
D03*
X475300Y60650D02*
D03*
X495300Y160650D02*
D03*
Y140650D02*
D03*
X475300D02*
D03*
X495300Y120650D02*
D03*
X475300D02*
D03*
Y100650D02*
D03*
Y80650D02*
D03*
X588010Y227810D02*
D03*
Y13610D02*
D03*
Y44210D02*
D03*
Y74810D02*
D03*
Y105410D02*
D03*
Y136010D02*
D03*
Y167160D02*
D03*
Y197210D02*
D03*
D29*
X118270Y123190D02*
D03*
X105570Y43020D02*
D03*
X145570Y23020D02*
D03*
X125570D02*
D03*
X118270Y143190D02*
D03*
X145570Y43020D02*
D03*
X105570Y23020D02*
D03*
X85570D02*
D03*
X125570Y43020D02*
D03*
X138270Y123190D02*
D03*
Y103190D02*
D03*
X118270D02*
D03*
D30*
X228600Y19050D02*
D03*
X203200D02*
D03*
X290830Y95250D02*
D03*
X316230D02*
D03*
Y19050D02*
D03*
X290830D02*
D03*
X203200Y95250D02*
D03*
X228600D02*
D03*
D31*
X85570Y43020D02*
D03*
D32*
X138270Y143190D02*
D03*
D33*
X331470Y125730D02*
D03*
X204470Y162560D02*
D03*
X260350Y29210D02*
D03*
X454980Y135890D02*
D03*
X262890Y125730D02*
D03*
X373380Y128270D02*
D03*
X426720Y127000D02*
D03*
X467360Y33480D02*
D03*
X383540Y73660D02*
D03*
X422910Y55880D02*
D03*
X510540Y215900D02*
D03*
X442538Y176123D02*
D03*
X365760Y162560D02*
D03*
X454980Y76251D02*
D03*
X481330Y226060D02*
D03*
X522120Y166370D02*
D03*
X519430Y135890D02*
D03*
Y74930D02*
D03*
Y31750D02*
D03*
D34*
X625000Y225000D02*
D03*
Y25000D02*
D03*
X25000Y225000D02*
D03*
Y25000D02*
D03*
M02*
