G04*
G04 #@! TF.GenerationSoftware,Altium Limited,Altium Designer,26.4.1 (12)*
G04*
G04 Layer_Color=16711935*
%FSLAX44Y44*%
%MOMM*%
G71*
G04*
G04 #@! TF.SameCoordinates,A675BE8E-4158-487C-9D7D-9433AE83E70E*
G04*
G04*
G04 #@! TF.FilePolarity,Negative*
G04*
G01*
G75*
%ADD20C,1.6112*%
%ADD21C,1.7122*%
%ADD22R,1.6112X1.6112*%
%ADD23R,1.6112X1.6112*%
%ADD24C,0.8032*%
%ADD25C,4.1032*%
%ADD26C,1.4732*%
%ADD35R,0.5080X0.9723*%
G04:AMPARAMS|DCode=39|XSize=1.374mm|YSize=1.674mm|CornerRadius=0.2483mm|HoleSize=0mm|Usage=FLASHONLY|Rotation=0.000|XOffset=0mm|YOffset=0mm|HoleType=Round|Shape=RoundedRectangle|*
%AMROUNDEDRECTD39*
21,1,1.3740,1.1775,0,0,0.0*
21,1,0.8775,1.6740,0,0,0.0*
1,1,0.4965,0.4387,-0.5888*
1,1,0.4965,-0.4387,-0.5888*
1,1,0.4965,-0.4387,0.5888*
1,1,0.4965,0.4387,0.5888*
%
%ADD39ROUNDEDRECTD39*%
%ADD40R,1.3532X1.3532*%
D20*
X118270Y123190D02*
D03*
X105570Y43020D02*
D03*
X145570Y23020D02*
D03*
X125570D02*
D03*
X118270Y143190D02*
D03*
X145570Y43020D02*
D03*
X105570Y23020D02*
D03*
X85570D02*
D03*
X125570Y43020D02*
D03*
X138270Y123190D02*
D03*
Y103190D02*
D03*
X118270D02*
D03*
D21*
X228600Y19050D02*
D03*
X203200D02*
D03*
X290830Y95250D02*
D03*
X316230D02*
D03*
Y19050D02*
D03*
X290830D02*
D03*
X203200Y95250D02*
D03*
X228600D02*
D03*
D22*
X85570Y43020D02*
D03*
D23*
X138270Y143190D02*
D03*
D24*
X331470Y125730D02*
D03*
X204470Y162560D02*
D03*
X260350Y29210D02*
D03*
X454980Y135890D02*
D03*
X262890Y125730D02*
D03*
X373380Y128270D02*
D03*
X426720Y127000D02*
D03*
X467360Y33480D02*
D03*
X383540Y73660D02*
D03*
X422910Y55880D02*
D03*
X510540Y215900D02*
D03*
X442538Y176123D02*
D03*
X365760Y162560D02*
D03*
X454980Y76251D02*
D03*
X481330Y226060D02*
D03*
X522120Y166370D02*
D03*
X519430Y135890D02*
D03*
Y74930D02*
D03*
Y31750D02*
D03*
D25*
X625000Y225000D02*
D03*
Y25000D02*
D03*
X25000Y225000D02*
D03*
Y25000D02*
D03*
D26*
X588010Y227810D02*
D03*
Y13610D02*
D03*
Y44210D02*
D03*
Y74810D02*
D03*
Y105410D02*
D03*
Y136010D02*
D03*
Y167160D02*
D03*
Y197210D02*
D03*
D35*
X409550Y162215D02*
D03*
X390550Y134965D02*
D03*
X400050Y162215D02*
D03*
X409550Y134965D02*
D03*
X390550Y162215D02*
D03*
D39*
X444310Y109220D02*
D03*
X353250Y134620D02*
D03*
X426910Y109220D02*
D03*
X370650Y134620D02*
D03*
D40*
X539430Y228120D02*
D03*
X539760Y13610D02*
D03*
Y44210D02*
D03*
Y166610D02*
D03*
Y105410D02*
D03*
Y136010D02*
D03*
Y74810D02*
D03*
Y197640D02*
D03*
X563260Y74810D02*
D03*
Y166610D02*
D03*
Y105410D02*
D03*
X562930Y228120D02*
D03*
X563260Y197640D02*
D03*
Y136010D02*
D03*
Y44210D02*
D03*
Y13610D02*
D03*
M02*
