M48
;Layer_Color=9474304
;FILE_FORMAT=2:3
INCH,LZ
;TYPE=PLATED
T1F00S00C0.010
T2F00S00C0.025
T3F00S00C0.040
T4F00S00C0.090
%
T01
X00225Y-00643
X00266
X00312
X00609Y-00617
X0061Y-00671
X00519Y-00803
X00469Y-00893
X00604
X00735Y-00894
X00746Y-00486
X00963Y-00551
X01003
X0104Y-0055
X01117Y-0054
X01225Y-00585
X01249Y-00608
X01285Y-00607
Y-00647
X01249
X01326
X01364
Y-00605
X01327Y-00607
X01341Y-00575
X01325Y-00772
Y-00805
X01288Y-00806
Y-00772
X01248Y-00771
Y-00802
X01366Y-00805
Y-00772
X01327Y-00896
X01452Y-00895
X01091Y-009
X01074Y-0086
X01034Y-00859
X01Y-00858
X00962Y-0086
X00931Y-00859
X00897Y-00862
X00854Y-00895
X00822Y-00804
X00937Y-00696
X0096Y-00698
X00991
X00992Y-00665
Y-00634
X00961
Y-00665
X01026Y-00664
Y-00634
Y-00699
X01047Y-00696
X01509Y-00483
X0151Y-00443
X01497Y-00381
X01277Y-00363
X01239
X01206Y-00248
X01183Y-00245
X01149Y-00244
X0109Y-00415
X01Y-00367
X0093Y-00379
X00777Y-00386
X00701Y-00278
X00639Y-00314
T02
X00603Y-0073
T03
X00422Y-00804
X0064
T04
X00259Y-00567
X00258Y-00845
X01558
X01559Y-00565
Y-00287
X00258Y-00286
M30
