M48
;Layer_Color=9474304
;FILE_FORMAT=4:4
METRIC,LZ
;TYPE=PLATED
T01F00S00C0.2000
T02F00S00C2.0500
%
T01
X000055Y00053
X000127Y0005317
Y0006317
X000055Y00063
X00005Y00081
X000127Y0008083
Y0009083
X00005Y000905
X0004825Y0005463
X0006Y000545
X000715Y000495
X000765
X0009864Y0005152
X0010352Y0005151
X0008347Y0008498
X0008318Y0010088
X000835Y00115
X0013594Y0011337
X001465Y001135
X00144Y00096
X0013572Y0009597
X00149Y00037
Y00032
X00168Y00028
X00172
X002325Y000705
Y00077
T02
X00034Y00034
Y00112
X00216
Y00034
M30
