G75*
G70*
%OFA0B0*%
%FSLAX24Y24*%
%IPPOS*%
%LPD*%
%AMOC8*
5,1,8,0,0,1.08239X$1,22.5*
%
%ADD10R,0.1400X0.1200*%
%ADD11R,0.4900X0.5600*%
%ADD12R,0.6700X0.4900*%
%ADD13R,0.0600X0.0600*%
%ADD14R,0.6000X0.1500*%
%ADD15R,0.5000X0.2000*%
%ADD16R,0.0800X0.0600*%
%ADD17R,0.1200X0.1600*%
%ADD18R,0.0400X0.0400*%
%ADD19C,0.0945*%
%ADD20R,0.0350X0.0900*%
%ADD21R,0.1000X0.0800*%
%ADD22R,0.0800X0.0900*%
%ADD23R,0.2000X0.2000*%
%ADD24R,0.0800X0.1000*%
%ADD25C,0.0827*%
%ADD26O,0.1890X0.0945*%
%ADD27C,0.0650*%
%ADD28R,0.2500X0.2000*%
%ADD29R,0.1000X0.0700*%
%ADD30R,0.2000X0.2500*%
%ADD31R,0.0700X0.1000*%
%ADD32R,0.1000X0.1000*%
%ADD33O,0.1040X0.0520*%
%ADD34R,0.1600X0.1200*%
%ADD35C,0.0515*%
%ADD36R,0.0260X0.0800*%
%ADD37R,0.0600X0.0800*%
%ADD38OC8,0.0600*%
%ADD39C,0.2000*%
%ADD40R,0.0900X0.0800*%
%ADD41R,0.0900X0.0350*%
%ADD42C,0.0594*%
%ADD43C,0.1502*%
%ADD44C,0.0320*%
%ADD45C,0.0120*%
%ADD46C,0.0475*%
%ADD47C,0.0531*%
%ADD48C,0.0860*%
%ADD49C,0.0660*%
%ADD50C,0.0400*%
%ADD51C,0.0240*%
%ADD52C,0.0160*%
%ADD53C,0.0560*%
%ADD54C,0.0500*%
%ADD55C,0.0591*%
%ADD56C,0.1500*%
%ADD57C,0.1000*%
D10*
X049681Y024363D03*
X057681Y024363D03*
D11*
X051431Y038563D03*
D12*
X052431Y030613D03*
D13*
X058281Y012363D03*
D14*
X051681Y012313D03*
X051681Y014613D03*
D15*
X051681Y015363D03*
D16*
X047181Y015863D03*
X047181Y016863D03*
X041181Y026863D03*
X041181Y027863D03*
X041181Y034363D03*
X041181Y035363D03*
X043181Y037863D03*
X043181Y038863D03*
X045681Y039363D03*
X045681Y040363D03*
X038681Y041363D03*
X038681Y042363D03*
X025081Y043963D03*
D17*
X017081Y041863D03*
D18*
X043181Y040363D03*
D19*
X013981Y040363D03*
X012381Y040363D03*
X007981Y040363D03*
X006381Y040363D03*
D20*
X032181Y011863D03*
X032681Y011863D03*
X033181Y011863D03*
X033681Y011863D03*
X034181Y011863D03*
X034681Y011863D03*
X035181Y011863D03*
X011681Y010863D03*
X011181Y010863D03*
X010681Y010863D03*
X010181Y010863D03*
X009681Y010863D03*
X009181Y010863D03*
X008681Y010863D03*
D21*
X013056Y011438D03*
X013056Y010038D03*
X012681Y023263D03*
X012681Y024663D03*
X036581Y012463D03*
X036581Y011063D03*
X057181Y032963D03*
X057181Y034363D03*
X057181Y036363D03*
X057181Y037763D03*
D22*
X022081Y018963D03*
X020281Y018963D03*
X016581Y008838D03*
X014781Y008838D03*
X038381Y009763D03*
X040181Y009763D03*
D23*
X040681Y005063D03*
X043681Y005063D03*
X043681Y002563D03*
X040681Y002563D03*
X030281Y012863D03*
X027781Y012863D03*
X027781Y015863D03*
X030281Y015863D03*
X024181Y011113D03*
X021681Y011113D03*
X019181Y011113D03*
X019181Y008113D03*
X021681Y008113D03*
X024181Y008113D03*
X008056Y012863D03*
X005556Y012863D03*
X003056Y012863D03*
X003056Y015863D03*
X005556Y015863D03*
X008056Y015863D03*
X014981Y021063D03*
X017481Y021063D03*
X017481Y024063D03*
X014981Y024063D03*
D24*
X011381Y012363D03*
X009981Y012363D03*
X033481Y013363D03*
X034881Y013363D03*
D25*
X036981Y016463D03*
X038981Y016463D03*
X024381Y015263D03*
X021681Y016563D03*
X017981Y018663D03*
X021681Y013163D03*
X017181Y026363D03*
X017181Y028363D03*
X012381Y031663D03*
X012381Y035063D03*
X017081Y041863D03*
X050681Y006063D03*
X050681Y002663D03*
X045681Y003813D03*
D26*
X061181Y020363D03*
X061181Y022363D03*
X061181Y024363D03*
X061181Y030363D03*
X061181Y032363D03*
X061181Y034363D03*
X061181Y036363D03*
D27*
X061681Y013563D03*
X061681Y012363D03*
X061681Y011163D03*
D28*
X052381Y037363D03*
D29*
X055181Y038363D03*
X055181Y036363D03*
D30*
X054181Y031563D03*
D31*
X053181Y034363D03*
X055181Y034363D03*
D32*
X049681Y034363D03*
X047681Y034363D03*
X047681Y026863D03*
X049681Y026863D03*
D33*
X045681Y026863D03*
X045681Y025863D03*
X045681Y024863D03*
X042681Y024863D03*
X042681Y025863D03*
X042681Y026863D03*
X042681Y032363D03*
X042681Y033363D03*
X042681Y034363D03*
X045681Y034363D03*
X045681Y033363D03*
X045681Y032363D03*
D34*
X049681Y020363D03*
X049681Y018163D03*
X053681Y018163D03*
X053681Y020363D03*
X057781Y018163D03*
X057781Y015963D03*
X053681Y014563D03*
X053681Y012363D03*
X049681Y012363D03*
X049681Y014563D03*
D35*
X045681Y018863D03*
X045681Y019863D03*
X042681Y019863D03*
X042681Y018863D03*
D36*
X041681Y036653D03*
X041181Y036653D03*
X040681Y036653D03*
X040181Y036653D03*
X039681Y036653D03*
X039181Y036653D03*
X038681Y036653D03*
X038681Y039073D03*
X039181Y039073D03*
X039681Y039073D03*
X040181Y039073D03*
X040681Y039073D03*
X041181Y039073D03*
X041681Y039073D03*
D37*
X038681Y035263D03*
X037681Y035263D03*
D38*
X029961Y041363D03*
X028881Y041363D03*
X027801Y041363D03*
X026721Y041363D03*
X025641Y041363D03*
X024561Y041363D03*
X023481Y041363D03*
X022401Y041363D03*
X022941Y042363D03*
X024021Y042363D03*
X025101Y042363D03*
X026181Y042363D03*
X027261Y042363D03*
X028341Y042363D03*
X029421Y042363D03*
D39*
X032741Y041863D03*
X019621Y041863D03*
X019681Y031863D03*
D40*
X014681Y028263D03*
X014681Y026463D03*
D41*
X012681Y026863D03*
X012681Y027363D03*
X012681Y027863D03*
X012681Y028363D03*
X012681Y028863D03*
X012681Y029363D03*
X012681Y029863D03*
D42*
X018281Y037863D03*
X018981Y038863D03*
X019681Y037863D03*
X020381Y038863D03*
X021081Y037863D03*
X030181Y029763D03*
X030181Y028363D03*
X030181Y026963D03*
X028681Y027663D03*
X028681Y029063D03*
X035681Y029063D03*
X037181Y029763D03*
X037181Y028363D03*
X035681Y027663D03*
X037181Y026963D03*
D43*
X033681Y023363D03*
X026681Y023363D03*
X026681Y033363D03*
X033681Y033363D03*
D44*
X017181Y027363D02*
X013181Y027363D01*
X012681Y027363D01*
X013181Y027363D02*
X014081Y027263D01*
X016181Y027263D01*
X016181Y027463D02*
X014081Y027463D01*
X013181Y027363D01*
X012881Y026863D02*
X012881Y024663D01*
X012681Y024663D02*
X012681Y026863D01*
X012481Y026863D02*
X012481Y024663D01*
X010681Y027863D02*
X010758Y027918D01*
X010837Y027971D01*
X010917Y028020D01*
X011000Y028066D01*
X011084Y028109D01*
X011170Y028149D01*
X011257Y028186D01*
X011346Y028219D01*
X011435Y028249D01*
X011526Y028276D01*
X011618Y028299D01*
X011711Y028318D01*
X011804Y028334D01*
X011898Y028347D01*
X011992Y028356D01*
X012086Y028361D01*
X012181Y028363D01*
X012681Y028363D01*
X013181Y028363D01*
X014681Y028363D01*
X012181Y028363D02*
X010181Y028363D01*
X010681Y028762D02*
X010772Y028712D01*
X010866Y028664D01*
X010961Y028620D01*
X011057Y028579D01*
X011155Y028542D01*
X011254Y028508D01*
X011354Y028478D01*
X011455Y028451D01*
X011557Y028427D01*
X011660Y028407D01*
X011764Y028391D01*
X011867Y028378D01*
X011972Y028369D01*
X012076Y028364D01*
X012181Y028362D01*
X013181Y028363D02*
X013277Y028361D01*
X013373Y028356D01*
X013469Y028347D01*
X013564Y028334D01*
X013659Y028318D01*
X013753Y028298D01*
X013846Y028275D01*
X013938Y028248D01*
X014029Y028218D01*
X014119Y028184D01*
X014208Y028147D01*
X014295Y028107D01*
X014381Y028063D01*
X012881Y023363D02*
X012881Y021363D01*
X012681Y021363D02*
X012681Y023263D01*
X012481Y023263D02*
X012481Y021363D01*
X011181Y012238D02*
X011181Y011213D01*
X011181Y010863D01*
X010681Y010863D02*
X010681Y010238D01*
X010683Y010201D01*
X010688Y010165D01*
X010697Y010129D01*
X010710Y010094D01*
X010725Y010061D01*
X010744Y010030D01*
X010766Y010000D01*
X010791Y009973D01*
X010818Y009948D01*
X010848Y009926D01*
X010879Y009907D01*
X010912Y009892D01*
X010947Y009879D01*
X010983Y009870D01*
X011019Y009865D01*
X011056Y009863D01*
X013056Y009863D01*
X013081Y011263D02*
X011681Y010863D01*
X011681Y011163D02*
X013081Y011563D01*
X011632Y011913D02*
X011582Y011883D01*
X011535Y011850D01*
X011490Y011814D01*
X011447Y011775D01*
X011407Y011734D01*
X011370Y011689D01*
X011335Y011643D01*
X011304Y011595D01*
X011276Y011544D01*
X011252Y011492D01*
X011230Y011438D01*
X011213Y011383D01*
X011199Y011327D01*
X011189Y011270D01*
X011182Y011213D01*
X010181Y010863D02*
X010181Y012238D01*
X009181Y010863D02*
X009181Y009988D01*
X010181Y010363D02*
X010181Y008363D01*
X032681Y011013D02*
X032681Y011863D01*
X034181Y011863D02*
X034181Y011257D01*
X034183Y011218D01*
X034189Y011180D01*
X034198Y011143D01*
X034211Y011106D01*
X034228Y011071D01*
X034247Y011038D01*
X034270Y011007D01*
X034296Y010978D01*
X034325Y010952D01*
X034356Y010929D01*
X034389Y010910D01*
X034424Y010893D01*
X034461Y010880D01*
X034498Y010871D01*
X034536Y010865D01*
X034575Y010863D01*
X036581Y010863D01*
X036381Y012213D02*
X035181Y011863D01*
X035181Y012113D02*
X036331Y012463D01*
X035081Y012863D02*
X035034Y012833D01*
X034989Y012800D01*
X034946Y012763D01*
X034906Y012724D01*
X034868Y012682D01*
X034834Y012637D01*
X034803Y012591D01*
X034775Y012542D01*
X034750Y012491D01*
X034729Y012439D01*
X034712Y012385D01*
X034698Y012331D01*
X034689Y012275D01*
X034683Y012219D01*
X034681Y012163D01*
X034681Y011863D01*
X034681Y012163D02*
X034681Y013363D01*
X033681Y013363D02*
X033681Y009363D01*
X014381Y028463D02*
X014232Y028440D01*
X014083Y028419D01*
X013933Y028402D01*
X013783Y028388D01*
X013633Y028377D01*
X013482Y028369D01*
X013332Y028365D01*
X013181Y028363D01*
D45*
X005181Y003363D02*
X005181Y001363D01*
X025681Y001363D01*
X025681Y009363D01*
X008056Y009363D01*
X008056Y011738D01*
X010431Y011738D01*
X010431Y013363D01*
X009681Y014113D01*
X001181Y014113D01*
X001181Y005363D01*
X003181Y005363D01*
X005181Y003363D01*
X005181Y003326D02*
X025681Y003326D01*
X025681Y003208D02*
X005181Y003208D01*
X005181Y003089D02*
X025681Y003089D01*
X025681Y002971D02*
X005181Y002971D01*
X005181Y002852D02*
X025681Y002852D01*
X025681Y002734D02*
X005181Y002734D01*
X005181Y002615D02*
X025681Y002615D01*
X025681Y002497D02*
X005181Y002497D01*
X005181Y002378D02*
X025681Y002378D01*
X025681Y002260D02*
X005181Y002260D01*
X005181Y002141D02*
X025681Y002141D01*
X025681Y002022D02*
X005181Y002022D01*
X005181Y001904D02*
X025681Y001904D01*
X025681Y001785D02*
X005181Y001785D01*
X005181Y001667D02*
X025681Y001667D01*
X025681Y001548D02*
X005181Y001548D01*
X005181Y001430D02*
X025681Y001430D01*
X026181Y001430D02*
X041881Y001430D01*
X041881Y001363D02*
X026181Y001363D01*
X026181Y014063D01*
X033881Y014063D01*
X033881Y012763D01*
X031581Y012763D01*
X031581Y010263D01*
X040981Y010263D01*
X041881Y009363D01*
X041881Y001363D01*
X041881Y001548D02*
X026181Y001548D01*
X026181Y001667D02*
X041881Y001667D01*
X041881Y001785D02*
X026181Y001785D01*
X026181Y001904D02*
X041881Y001904D01*
X041881Y002022D02*
X026181Y002022D01*
X026181Y002141D02*
X041881Y002141D01*
X041881Y002260D02*
X026181Y002260D01*
X026181Y002378D02*
X041881Y002378D01*
X041881Y002497D02*
X026181Y002497D01*
X026181Y002615D02*
X041881Y002615D01*
X041881Y002734D02*
X026181Y002734D01*
X026181Y002852D02*
X041881Y002852D01*
X041881Y002971D02*
X026181Y002971D01*
X026181Y003089D02*
X041881Y003089D01*
X041881Y003208D02*
X026181Y003208D01*
X026181Y003326D02*
X041881Y003326D01*
X041881Y003445D02*
X026181Y003445D01*
X026181Y003564D02*
X041881Y003564D01*
X041881Y003682D02*
X026181Y003682D01*
X026181Y003801D02*
X041881Y003801D01*
X041881Y003919D02*
X026181Y003919D01*
X026181Y004038D02*
X041881Y004038D01*
X041881Y004156D02*
X026181Y004156D01*
X026181Y004275D02*
X041881Y004275D01*
X041881Y004393D02*
X026181Y004393D01*
X026181Y004512D02*
X041881Y004512D01*
X041881Y004630D02*
X026181Y004630D01*
X026181Y004749D02*
X041881Y004749D01*
X041881Y004867D02*
X026181Y004867D01*
X026181Y004986D02*
X041881Y004986D01*
X041881Y005105D02*
X026181Y005105D01*
X026181Y005223D02*
X041881Y005223D01*
X041881Y005342D02*
X026181Y005342D01*
X026181Y005460D02*
X041881Y005460D01*
X041881Y005579D02*
X026181Y005579D01*
X026181Y005697D02*
X041881Y005697D01*
X041881Y005816D02*
X026181Y005816D01*
X026181Y005934D02*
X041881Y005934D01*
X041881Y006053D02*
X026181Y006053D01*
X026181Y006171D02*
X041881Y006171D01*
X041881Y006290D02*
X026181Y006290D01*
X026181Y006409D02*
X041881Y006409D01*
X041881Y006527D02*
X026181Y006527D01*
X026181Y006646D02*
X041881Y006646D01*
X041881Y006764D02*
X026181Y006764D01*
X026181Y006883D02*
X041881Y006883D01*
X041881Y007001D02*
X026181Y007001D01*
X026181Y007120D02*
X041881Y007120D01*
X041881Y007238D02*
X026181Y007238D01*
X026181Y007357D02*
X041881Y007357D01*
X041881Y007475D02*
X026181Y007475D01*
X026181Y007594D02*
X041881Y007594D01*
X041881Y007713D02*
X026181Y007713D01*
X026181Y007831D02*
X041881Y007831D01*
X041881Y007950D02*
X026181Y007950D01*
X026181Y008068D02*
X041881Y008068D01*
X041881Y008187D02*
X026181Y008187D01*
X026181Y008305D02*
X041881Y008305D01*
X041881Y008424D02*
X026181Y008424D01*
X026181Y008542D02*
X041881Y008542D01*
X041881Y008661D02*
X026181Y008661D01*
X026181Y008779D02*
X041881Y008779D01*
X041881Y008898D02*
X026181Y008898D01*
X026181Y009016D02*
X041881Y009016D01*
X041881Y009135D02*
X026181Y009135D01*
X026181Y009254D02*
X041881Y009254D01*
X041872Y009372D02*
X026181Y009372D01*
X026181Y009491D02*
X041754Y009491D01*
X041635Y009609D02*
X026181Y009609D01*
X026181Y009728D02*
X041516Y009728D01*
X041398Y009846D02*
X026181Y009846D01*
X026181Y009965D02*
X041279Y009965D01*
X041161Y010083D02*
X026181Y010083D01*
X026181Y010202D02*
X041042Y010202D01*
X041387Y010558D02*
X044087Y010558D01*
X043968Y010676D02*
X041268Y010676D01*
X041181Y010763D02*
X037681Y010763D01*
X037681Y011963D01*
X036081Y011963D01*
X036081Y015113D01*
X041681Y015113D01*
X041681Y012963D01*
X047581Y007063D01*
X053681Y007063D01*
X053681Y004863D01*
X047081Y004863D01*
X041181Y010763D01*
X041505Y010439D02*
X044205Y010439D01*
X044324Y010320D02*
X041624Y010320D01*
X041742Y010202D02*
X044442Y010202D01*
X044561Y010083D02*
X041861Y010083D01*
X041979Y009965D02*
X044679Y009965D01*
X044798Y009846D02*
X042098Y009846D01*
X042216Y009728D02*
X044916Y009728D01*
X045035Y009609D02*
X042335Y009609D01*
X042454Y009491D02*
X045154Y009491D01*
X045272Y009372D02*
X042572Y009372D01*
X042691Y009254D02*
X045391Y009254D01*
X045509Y009135D02*
X042809Y009135D01*
X042928Y009016D02*
X045628Y009016D01*
X045746Y008898D02*
X043046Y008898D01*
X043165Y008779D02*
X045865Y008779D01*
X045983Y008661D02*
X043283Y008661D01*
X043402Y008542D02*
X046102Y008542D01*
X046220Y008424D02*
X043520Y008424D01*
X043639Y008305D02*
X046339Y008305D01*
X046458Y008187D02*
X043758Y008187D01*
X043876Y008068D02*
X046576Y008068D01*
X046695Y007950D02*
X043995Y007950D01*
X044113Y007831D02*
X046813Y007831D01*
X046932Y007713D02*
X044232Y007713D01*
X044350Y007594D02*
X047050Y007594D01*
X047169Y007475D02*
X044469Y007475D01*
X044587Y007357D02*
X047287Y007357D01*
X047406Y007238D02*
X044706Y007238D01*
X044824Y007120D02*
X047524Y007120D01*
X047781Y007563D02*
X042181Y013163D01*
X042181Y015663D01*
X036081Y015663D01*
X036081Y017363D01*
X043781Y017363D01*
X043781Y013563D01*
X048381Y008963D01*
X057181Y008963D01*
X057181Y001363D01*
X042481Y001363D01*
X042481Y008763D01*
X046881Y004363D01*
X054181Y004363D01*
X054181Y007563D01*
X047781Y007563D01*
X047750Y007594D02*
X057181Y007594D01*
X057181Y007713D02*
X047632Y007713D01*
X047513Y007831D02*
X057181Y007831D01*
X057181Y007950D02*
X047395Y007950D01*
X047276Y008068D02*
X057181Y008068D01*
X057181Y008187D02*
X047158Y008187D01*
X047039Y008305D02*
X057181Y008305D01*
X057181Y008424D02*
X046920Y008424D01*
X046802Y008542D02*
X057181Y008542D01*
X057181Y008661D02*
X046683Y008661D01*
X046565Y008779D02*
X057181Y008779D01*
X057181Y008898D02*
X046446Y008898D01*
X046328Y009016D02*
X048328Y009016D01*
X048209Y009135D02*
X046209Y009135D01*
X046091Y009254D02*
X048091Y009254D01*
X047972Y009372D02*
X045972Y009372D01*
X045854Y009491D02*
X047854Y009491D01*
X047735Y009609D02*
X045735Y009609D01*
X045616Y009728D02*
X047616Y009728D01*
X047498Y009846D02*
X045498Y009846D01*
X045379Y009965D02*
X047379Y009965D01*
X047261Y010083D02*
X045261Y010083D01*
X045142Y010202D02*
X047142Y010202D01*
X047024Y010320D02*
X045024Y010320D01*
X044905Y010439D02*
X046905Y010439D01*
X046787Y010558D02*
X044787Y010558D01*
X044668Y010676D02*
X046668Y010676D01*
X046550Y010795D02*
X044550Y010795D01*
X044431Y010913D02*
X046431Y010913D01*
X046313Y011032D02*
X044313Y011032D01*
X044194Y011150D02*
X046194Y011150D01*
X046075Y011269D02*
X044075Y011269D01*
X043957Y011387D02*
X045957Y011387D01*
X045838Y011506D02*
X043838Y011506D01*
X043720Y011624D02*
X045720Y011624D01*
X045601Y011743D02*
X043601Y011743D01*
X043483Y011862D02*
X045483Y011862D01*
X045364Y011980D02*
X043364Y011980D01*
X043246Y012099D02*
X045246Y012099D01*
X045127Y012217D02*
X043127Y012217D01*
X043009Y012336D02*
X045009Y012336D01*
X044890Y012454D02*
X042890Y012454D01*
X042771Y012573D02*
X044771Y012573D01*
X044653Y012691D02*
X042653Y012691D01*
X042534Y012810D02*
X044534Y012810D01*
X044416Y012928D02*
X042416Y012928D01*
X042297Y013047D02*
X044297Y013047D01*
X044179Y013166D02*
X042181Y013166D01*
X042181Y013284D02*
X044060Y013284D01*
X043942Y013403D02*
X042181Y013403D01*
X042181Y013521D02*
X043823Y013521D01*
X043781Y013640D02*
X042181Y013640D01*
X042181Y013758D02*
X043781Y013758D01*
X043781Y013877D02*
X042181Y013877D01*
X042181Y013995D02*
X043781Y013995D01*
X043781Y014114D02*
X042181Y014114D01*
X042181Y014232D02*
X043781Y014232D01*
X043781Y014351D02*
X042181Y014351D01*
X042181Y014469D02*
X043781Y014469D01*
X043781Y014588D02*
X042181Y014588D01*
X042181Y014707D02*
X043781Y014707D01*
X043781Y014825D02*
X042181Y014825D01*
X042181Y014944D02*
X043781Y014944D01*
X043781Y015062D02*
X042181Y015062D01*
X042181Y015181D02*
X043781Y015181D01*
X043781Y015299D02*
X042181Y015299D01*
X042181Y015418D02*
X043781Y015418D01*
X043781Y015536D02*
X042181Y015536D01*
X042181Y015655D02*
X043781Y015655D01*
X043781Y015773D02*
X036081Y015773D01*
X036081Y015892D02*
X043781Y015892D01*
X043781Y016011D02*
X036081Y016011D01*
X036081Y016129D02*
X043781Y016129D01*
X043781Y016248D02*
X036081Y016248D01*
X036081Y016366D02*
X043781Y016366D01*
X043781Y016485D02*
X036081Y016485D01*
X036081Y016603D02*
X043781Y016603D01*
X043781Y016722D02*
X036081Y016722D01*
X036081Y016840D02*
X043781Y016840D01*
X043781Y016959D02*
X036081Y016959D01*
X036081Y017077D02*
X043781Y017077D01*
X043781Y017196D02*
X036081Y017196D01*
X036081Y017315D02*
X043781Y017315D01*
X041681Y015062D02*
X036081Y015062D01*
X036081Y014944D02*
X041681Y014944D01*
X041681Y014825D02*
X036081Y014825D01*
X036081Y014707D02*
X041681Y014707D01*
X041681Y014588D02*
X036081Y014588D01*
X036081Y014469D02*
X041681Y014469D01*
X041681Y014351D02*
X036081Y014351D01*
X036081Y014232D02*
X041681Y014232D01*
X041681Y014114D02*
X036081Y014114D01*
X036081Y013995D02*
X041681Y013995D01*
X041681Y013877D02*
X036081Y013877D01*
X036081Y013758D02*
X041681Y013758D01*
X041681Y013640D02*
X036081Y013640D01*
X036081Y013521D02*
X041681Y013521D01*
X041681Y013403D02*
X036081Y013403D01*
X036081Y013284D02*
X041681Y013284D01*
X041681Y013166D02*
X036081Y013166D01*
X036081Y013047D02*
X041681Y013047D01*
X041716Y012928D02*
X036081Y012928D01*
X036081Y012810D02*
X041834Y012810D01*
X041953Y012691D02*
X036081Y012691D01*
X036081Y012573D02*
X042071Y012573D01*
X042190Y012454D02*
X036081Y012454D01*
X036081Y012336D02*
X042309Y012336D01*
X042427Y012217D02*
X036081Y012217D01*
X036081Y012099D02*
X042546Y012099D01*
X042664Y011980D02*
X036081Y011980D01*
X035481Y012763D02*
X034481Y012763D01*
X034481Y014663D01*
X026181Y014663D01*
X026181Y017363D01*
X035481Y017363D01*
X035481Y012763D01*
X035481Y012810D02*
X034481Y012810D01*
X034481Y012928D02*
X035481Y012928D01*
X035481Y013047D02*
X034481Y013047D01*
X034481Y013166D02*
X035481Y013166D01*
X035481Y013284D02*
X034481Y013284D01*
X034481Y013403D02*
X035481Y013403D01*
X035481Y013521D02*
X034481Y013521D01*
X034481Y013640D02*
X035481Y013640D01*
X035481Y013758D02*
X034481Y013758D01*
X034481Y013877D02*
X035481Y013877D01*
X035481Y013995D02*
X034481Y013995D01*
X034481Y014114D02*
X035481Y014114D01*
X035481Y014232D02*
X034481Y014232D01*
X034481Y014351D02*
X035481Y014351D01*
X035481Y014469D02*
X034481Y014469D01*
X034481Y014588D02*
X035481Y014588D01*
X035481Y014707D02*
X026181Y014707D01*
X026181Y014825D02*
X035481Y014825D01*
X035481Y014944D02*
X026181Y014944D01*
X026181Y015062D02*
X035481Y015062D01*
X035481Y015181D02*
X026181Y015181D01*
X026181Y015299D02*
X035481Y015299D01*
X035481Y015418D02*
X026181Y015418D01*
X026181Y015536D02*
X035481Y015536D01*
X035481Y015655D02*
X026181Y015655D01*
X026181Y015773D02*
X035481Y015773D01*
X035481Y015892D02*
X026181Y015892D01*
X026181Y016011D02*
X035481Y016011D01*
X035481Y016129D02*
X026181Y016129D01*
X026181Y016248D02*
X035481Y016248D01*
X035481Y016366D02*
X026181Y016366D01*
X026181Y016485D02*
X035481Y016485D01*
X035481Y016603D02*
X026181Y016603D01*
X026181Y016722D02*
X035481Y016722D01*
X035481Y016840D02*
X026181Y016840D01*
X026181Y016959D02*
X035481Y016959D01*
X035481Y017077D02*
X026181Y017077D01*
X026181Y017196D02*
X035481Y017196D01*
X035481Y017315D02*
X026181Y017315D01*
X025681Y017315D02*
X023181Y017315D01*
X023181Y017363D02*
X025681Y017363D01*
X025681Y009863D01*
X017931Y009863D01*
X017931Y013988D01*
X018556Y014613D01*
X023181Y014613D01*
X023181Y017363D01*
X023181Y017196D02*
X025681Y017196D01*
X025681Y017077D02*
X023181Y017077D01*
X023181Y016959D02*
X025681Y016959D01*
X025681Y016840D02*
X023181Y016840D01*
X023181Y016722D02*
X025681Y016722D01*
X025681Y016603D02*
X023181Y016603D01*
X023181Y016485D02*
X025681Y016485D01*
X025681Y016366D02*
X023181Y016366D01*
X023181Y016248D02*
X025681Y016248D01*
X025681Y016129D02*
X023181Y016129D01*
X023181Y016011D02*
X025681Y016011D01*
X025681Y015892D02*
X023181Y015892D01*
X023181Y015773D02*
X025681Y015773D01*
X025681Y015655D02*
X023181Y015655D01*
X023181Y015536D02*
X025681Y015536D01*
X025681Y015418D02*
X023181Y015418D01*
X023181Y015299D02*
X025681Y015299D01*
X025681Y015181D02*
X023181Y015181D01*
X023181Y015062D02*
X025681Y015062D01*
X025681Y014944D02*
X023181Y014944D01*
X023181Y014825D02*
X025681Y014825D01*
X025681Y014707D02*
X023181Y014707D01*
X022681Y015113D02*
X018431Y015113D01*
X017431Y014113D01*
X017431Y009863D01*
X014056Y009863D01*
X014056Y010863D01*
X012431Y010863D01*
X012431Y017363D01*
X022681Y017363D01*
X022681Y015113D01*
X022681Y015181D02*
X012431Y015181D01*
X012431Y015299D02*
X022681Y015299D01*
X022681Y015418D02*
X012431Y015418D01*
X012431Y015536D02*
X022681Y015536D01*
X022681Y015655D02*
X012431Y015655D01*
X012431Y015773D02*
X022681Y015773D01*
X022681Y015892D02*
X012431Y015892D01*
X012431Y016011D02*
X022681Y016011D01*
X022681Y016129D02*
X012431Y016129D01*
X012431Y016248D02*
X022681Y016248D01*
X022681Y016366D02*
X012431Y016366D01*
X012431Y016485D02*
X022681Y016485D01*
X022681Y016603D02*
X012431Y016603D01*
X012431Y016722D02*
X022681Y016722D01*
X022681Y016840D02*
X012431Y016840D01*
X012431Y016959D02*
X022681Y016959D01*
X022681Y017077D02*
X012431Y017077D01*
X012431Y017196D02*
X022681Y017196D01*
X022681Y017315D02*
X012431Y017315D01*
X011931Y017315D02*
X001181Y017315D01*
X001181Y017433D02*
X005111Y017433D01*
X005181Y017363D02*
X011931Y017363D01*
X011931Y011738D01*
X010931Y011738D01*
X010931Y013488D01*
X009806Y014613D01*
X001181Y014613D01*
X001181Y040363D01*
X003181Y040363D01*
X005181Y042363D01*
X005181Y044363D01*
X009881Y044363D01*
X009881Y038363D01*
X005181Y038363D01*
X003181Y036363D01*
X003181Y019363D01*
X005181Y017363D01*
X004993Y017552D02*
X001181Y017552D01*
X001181Y017670D02*
X004874Y017670D01*
X004756Y017789D02*
X001181Y017789D01*
X001181Y017907D02*
X004637Y017907D01*
X004518Y018026D02*
X001181Y018026D01*
X001181Y018144D02*
X004400Y018144D01*
X004281Y018263D02*
X001181Y018263D01*
X001181Y018381D02*
X004163Y018381D01*
X004044Y018500D02*
X001181Y018500D01*
X001181Y018619D02*
X003926Y018619D01*
X003807Y018737D02*
X001181Y018737D01*
X001181Y018856D02*
X003689Y018856D01*
X003570Y018974D02*
X001181Y018974D01*
X001181Y019093D02*
X003452Y019093D01*
X003333Y019211D02*
X001181Y019211D01*
X001181Y019330D02*
X003214Y019330D01*
X003181Y019448D02*
X001181Y019448D01*
X001181Y019567D02*
X003181Y019567D01*
X003181Y019685D02*
X001181Y019685D01*
X001181Y019804D02*
X003181Y019804D01*
X003181Y019922D02*
X001181Y019922D01*
X001181Y020041D02*
X003181Y020041D01*
X003181Y020160D02*
X001181Y020160D01*
X001181Y020278D02*
X003181Y020278D01*
X003181Y020397D02*
X001181Y020397D01*
X001181Y020515D02*
X003181Y020515D01*
X003181Y020634D02*
X001181Y020634D01*
X001181Y020752D02*
X003181Y020752D01*
X003181Y020871D02*
X001181Y020871D01*
X001181Y020989D02*
X003181Y020989D01*
X003181Y021108D02*
X001181Y021108D01*
X001181Y021226D02*
X003181Y021226D01*
X003181Y021345D02*
X001181Y021345D01*
X001181Y021464D02*
X003181Y021464D01*
X003181Y021582D02*
X001181Y021582D01*
X001181Y021701D02*
X003181Y021701D01*
X003181Y021819D02*
X001181Y021819D01*
X001181Y021938D02*
X003181Y021938D01*
X003181Y022056D02*
X001181Y022056D01*
X001181Y022175D02*
X003181Y022175D01*
X003181Y022293D02*
X001181Y022293D01*
X001181Y022412D02*
X003181Y022412D01*
X003181Y022530D02*
X001181Y022530D01*
X001181Y022649D02*
X003181Y022649D01*
X003181Y022768D02*
X001181Y022768D01*
X001181Y022886D02*
X003181Y022886D01*
X003181Y023005D02*
X001181Y023005D01*
X001181Y023123D02*
X003181Y023123D01*
X003181Y023242D02*
X001181Y023242D01*
X001181Y023360D02*
X003181Y023360D01*
X003181Y023479D02*
X001181Y023479D01*
X001181Y023597D02*
X003181Y023597D01*
X003181Y023716D02*
X001181Y023716D01*
X001181Y023834D02*
X003181Y023834D01*
X003181Y023953D02*
X001181Y023953D01*
X001181Y024071D02*
X003181Y024071D01*
X003181Y024190D02*
X001181Y024190D01*
X001181Y024309D02*
X003181Y024309D01*
X003181Y024427D02*
X001181Y024427D01*
X001181Y024546D02*
X003181Y024546D01*
X003181Y024664D02*
X001181Y024664D01*
X001181Y024783D02*
X003181Y024783D01*
X003181Y024901D02*
X001181Y024901D01*
X001181Y025020D02*
X003181Y025020D01*
X003181Y025138D02*
X001181Y025138D01*
X001181Y025257D02*
X003181Y025257D01*
X003181Y025375D02*
X001181Y025375D01*
X001181Y025494D02*
X003181Y025494D01*
X003181Y025613D02*
X001181Y025613D01*
X001181Y025731D02*
X003181Y025731D01*
X003181Y025850D02*
X001181Y025850D01*
X001181Y025968D02*
X003181Y025968D01*
X003181Y026087D02*
X001181Y026087D01*
X001181Y026205D02*
X003181Y026205D01*
X003181Y026324D02*
X001181Y026324D01*
X001181Y026442D02*
X003181Y026442D01*
X003181Y026561D02*
X001181Y026561D01*
X001181Y026679D02*
X003181Y026679D01*
X003181Y026798D02*
X001181Y026798D01*
X001181Y026917D02*
X003181Y026917D01*
X003181Y027035D02*
X001181Y027035D01*
X001181Y027154D02*
X003181Y027154D01*
X003181Y027272D02*
X001181Y027272D01*
X001181Y027391D02*
X003181Y027391D01*
X003181Y027509D02*
X001181Y027509D01*
X001181Y027628D02*
X003181Y027628D01*
X003181Y027746D02*
X001181Y027746D01*
X001181Y027865D02*
X003181Y027865D01*
X003181Y027983D02*
X001181Y027983D01*
X001181Y028102D02*
X003181Y028102D01*
X003181Y028221D02*
X001181Y028221D01*
X001181Y028339D02*
X003181Y028339D01*
X003181Y028458D02*
X001181Y028458D01*
X001181Y028576D02*
X003181Y028576D01*
X003181Y028695D02*
X001181Y028695D01*
X001181Y028813D02*
X003181Y028813D01*
X003181Y028932D02*
X001181Y028932D01*
X001181Y029050D02*
X003181Y029050D01*
X003181Y029169D02*
X001181Y029169D01*
X001181Y029287D02*
X003181Y029287D01*
X003181Y029406D02*
X001181Y029406D01*
X001181Y029524D02*
X003181Y029524D01*
X003181Y029643D02*
X001181Y029643D01*
X001181Y029762D02*
X003181Y029762D01*
X003181Y029880D02*
X001181Y029880D01*
X001181Y029999D02*
X003181Y029999D01*
X003181Y030117D02*
X001181Y030117D01*
X001181Y030236D02*
X003181Y030236D01*
X003181Y030354D02*
X001181Y030354D01*
X001181Y030473D02*
X003181Y030473D01*
X003181Y030591D02*
X001181Y030591D01*
X001181Y030710D02*
X003181Y030710D01*
X003181Y030828D02*
X001181Y030828D01*
X001181Y030947D02*
X003181Y030947D01*
X003181Y031066D02*
X001181Y031066D01*
X001181Y031184D02*
X003181Y031184D01*
X003181Y031303D02*
X001181Y031303D01*
X001181Y031421D02*
X003181Y031421D01*
X003181Y031540D02*
X001181Y031540D01*
X001181Y031658D02*
X003181Y031658D01*
X003181Y031777D02*
X001181Y031777D01*
X001181Y031895D02*
X003181Y031895D01*
X003181Y032014D02*
X001181Y032014D01*
X001181Y032132D02*
X003181Y032132D01*
X003181Y032251D02*
X001181Y032251D01*
X001181Y032370D02*
X003181Y032370D01*
X003181Y032488D02*
X001181Y032488D01*
X001181Y032607D02*
X003181Y032607D01*
X003181Y032725D02*
X001181Y032725D01*
X001181Y032844D02*
X003181Y032844D01*
X003181Y032962D02*
X001181Y032962D01*
X001181Y033081D02*
X003181Y033081D01*
X003181Y033199D02*
X001181Y033199D01*
X001181Y033318D02*
X003181Y033318D01*
X003181Y033436D02*
X001181Y033436D01*
X001181Y033555D02*
X003181Y033555D01*
X003181Y033674D02*
X001181Y033674D01*
X001181Y033792D02*
X003181Y033792D01*
X003181Y033911D02*
X001181Y033911D01*
X001181Y034029D02*
X003181Y034029D01*
X003181Y034148D02*
X001181Y034148D01*
X001181Y034266D02*
X003181Y034266D01*
X003181Y034385D02*
X001181Y034385D01*
X001181Y034503D02*
X003181Y034503D01*
X003181Y034622D02*
X001181Y034622D01*
X001181Y034740D02*
X003181Y034740D01*
X003181Y034859D02*
X001181Y034859D01*
X001181Y034977D02*
X003181Y034977D01*
X003181Y035096D02*
X001181Y035096D01*
X001181Y035215D02*
X003181Y035215D01*
X003181Y035333D02*
X001181Y035333D01*
X001181Y035452D02*
X003181Y035452D01*
X003181Y035570D02*
X001181Y035570D01*
X001181Y035689D02*
X003181Y035689D01*
X003181Y035807D02*
X001181Y035807D01*
X001181Y035926D02*
X003181Y035926D01*
X003181Y036044D02*
X001181Y036044D01*
X001181Y036163D02*
X003181Y036163D01*
X003181Y036281D02*
X001181Y036281D01*
X001181Y036400D02*
X003219Y036400D01*
X003337Y036519D02*
X001181Y036519D01*
X001181Y036637D02*
X003456Y036637D01*
X003574Y036756D02*
X001181Y036756D01*
X001181Y036874D02*
X003693Y036874D01*
X003811Y036993D02*
X001181Y036993D01*
X001181Y037111D02*
X003930Y037111D01*
X004048Y037230D02*
X001181Y037230D01*
X001181Y037348D02*
X004167Y037348D01*
X004285Y037467D02*
X001181Y037467D01*
X001181Y037585D02*
X004404Y037585D01*
X004523Y037704D02*
X001181Y037704D01*
X001181Y037823D02*
X004641Y037823D01*
X004760Y037941D02*
X001181Y037941D01*
X001181Y038060D02*
X004878Y038060D01*
X004997Y038178D02*
X001181Y038178D01*
X001181Y038297D02*
X005115Y038297D01*
X005481Y037863D02*
X010481Y037863D01*
X010481Y044363D01*
X015881Y044363D01*
X015881Y038463D01*
X013681Y036263D01*
X006281Y036263D01*
X005281Y035263D01*
X005281Y020463D01*
X006281Y019463D01*
X018881Y019463D01*
X018881Y017863D01*
X005581Y017863D01*
X003681Y019763D01*
X003681Y036063D01*
X005481Y037863D01*
X005441Y037823D02*
X015241Y037823D01*
X015360Y037941D02*
X010481Y037941D01*
X010481Y038060D02*
X015478Y038060D01*
X015597Y038178D02*
X010481Y038178D01*
X010481Y038297D02*
X015715Y038297D01*
X015834Y038415D02*
X010481Y038415D01*
X010481Y038534D02*
X015881Y038534D01*
X015881Y038652D02*
X010481Y038652D01*
X010481Y038771D02*
X015881Y038771D01*
X015881Y038889D02*
X010481Y038889D01*
X010481Y039008D02*
X015881Y039008D01*
X015881Y039126D02*
X010481Y039126D01*
X010481Y039245D02*
X015881Y039245D01*
X015881Y039364D02*
X010481Y039364D01*
X010481Y039482D02*
X015881Y039482D01*
X015881Y039601D02*
X010481Y039601D01*
X010481Y039719D02*
X013726Y039719D01*
X013844Y039670D02*
X013589Y039776D01*
X013394Y039971D01*
X013289Y040225D01*
X013289Y040501D01*
X013394Y040755D01*
X013589Y040950D01*
X013844Y041055D01*
X014119Y041055D01*
X014374Y040950D01*
X014568Y040755D01*
X014674Y040501D01*
X014674Y040225D01*
X014568Y039971D01*
X014374Y039776D01*
X014119Y039670D01*
X013844Y039670D01*
X013527Y039838D02*
X010481Y039838D01*
X010481Y039956D02*
X013409Y039956D01*
X013351Y040075D02*
X010481Y040075D01*
X010481Y040193D02*
X013302Y040193D01*
X013289Y040312D02*
X010481Y040312D01*
X010481Y040430D02*
X013289Y040430D01*
X013309Y040549D02*
X010481Y040549D01*
X010481Y040668D02*
X013358Y040668D01*
X013425Y040786D02*
X010481Y040786D01*
X010481Y040905D02*
X013544Y040905D01*
X013766Y041023D02*
X010481Y041023D01*
X010481Y041142D02*
X015881Y041142D01*
X015881Y041260D02*
X010481Y041260D01*
X010481Y041379D02*
X015881Y041379D01*
X015881Y041497D02*
X010481Y041497D01*
X010481Y041616D02*
X015881Y041616D01*
X015881Y041734D02*
X010481Y041734D01*
X010481Y041853D02*
X015881Y041853D01*
X015881Y041972D02*
X010481Y041972D01*
X010481Y042090D02*
X015881Y042090D01*
X015881Y042209D02*
X010481Y042209D01*
X010481Y042327D02*
X015881Y042327D01*
X015881Y042446D02*
X010481Y042446D01*
X010481Y042564D02*
X015881Y042564D01*
X015881Y042683D02*
X010481Y042683D01*
X010481Y042801D02*
X015881Y042801D01*
X015881Y042920D02*
X010481Y042920D01*
X010481Y043038D02*
X015881Y043038D01*
X015881Y043157D02*
X010481Y043157D01*
X010481Y043276D02*
X015881Y043276D01*
X015881Y043394D02*
X010481Y043394D01*
X010481Y043513D02*
X015881Y043513D01*
X015881Y043631D02*
X010481Y043631D01*
X010481Y043750D02*
X015881Y043750D01*
X015881Y043868D02*
X010481Y043868D01*
X010481Y043987D02*
X015881Y043987D01*
X015881Y044105D02*
X010481Y044105D01*
X010481Y044224D02*
X015881Y044224D01*
X015881Y044342D02*
X010481Y044342D01*
X009881Y044342D02*
X005181Y044342D01*
X005181Y044224D02*
X009881Y044224D01*
X009881Y044105D02*
X005181Y044105D01*
X005181Y043987D02*
X009881Y043987D01*
X009881Y043868D02*
X005181Y043868D01*
X005181Y043750D02*
X009881Y043750D01*
X009881Y043631D02*
X005181Y043631D01*
X005181Y043513D02*
X009881Y043513D01*
X009881Y043394D02*
X005181Y043394D01*
X005181Y043276D02*
X009881Y043276D01*
X009881Y043157D02*
X005181Y043157D01*
X005181Y043038D02*
X009881Y043038D01*
X009881Y042920D02*
X005181Y042920D01*
X005181Y042801D02*
X009881Y042801D01*
X009881Y042683D02*
X005181Y042683D01*
X005181Y042564D02*
X009881Y042564D01*
X009881Y042446D02*
X005181Y042446D01*
X005146Y042327D02*
X009881Y042327D01*
X009881Y042209D02*
X005027Y042209D01*
X004909Y042090D02*
X009881Y042090D01*
X009881Y041972D02*
X004790Y041972D01*
X004672Y041853D02*
X009881Y041853D01*
X009881Y041734D02*
X004553Y041734D01*
X004434Y041616D02*
X009881Y041616D01*
X009881Y041497D02*
X004316Y041497D01*
X004197Y041379D02*
X009881Y041379D01*
X009881Y041260D02*
X004079Y041260D01*
X003960Y041142D02*
X009881Y041142D01*
X009881Y041023D02*
X008197Y041023D01*
X008119Y041055D02*
X007844Y041055D01*
X007589Y040950D01*
X007394Y040755D01*
X007289Y040501D01*
X007289Y040225D01*
X007394Y039971D01*
X007589Y039776D01*
X007844Y039670D01*
X008119Y039670D01*
X008374Y039776D01*
X008568Y039971D01*
X008674Y040225D01*
X008674Y040501D01*
X008568Y040755D01*
X008374Y040950D01*
X008119Y041055D01*
X008419Y040905D02*
X009881Y040905D01*
X009881Y040786D02*
X008537Y040786D01*
X008605Y040668D02*
X009881Y040668D01*
X009881Y040549D02*
X008654Y040549D01*
X008674Y040430D02*
X009881Y040430D01*
X009881Y040312D02*
X008674Y040312D01*
X008661Y040193D02*
X009881Y040193D01*
X009881Y040075D02*
X008612Y040075D01*
X008554Y039956D02*
X009881Y039956D01*
X009881Y039838D02*
X008436Y039838D01*
X008237Y039719D02*
X009881Y039719D01*
X009881Y039601D02*
X001181Y039601D01*
X001181Y039719D02*
X007726Y039719D01*
X007527Y039838D02*
X001181Y039838D01*
X001181Y039956D02*
X007409Y039956D01*
X007351Y040075D02*
X001181Y040075D01*
X001181Y040193D02*
X007302Y040193D01*
X007289Y040312D02*
X001181Y040312D01*
X001181Y039482D02*
X009881Y039482D01*
X009881Y039364D02*
X001181Y039364D01*
X001181Y039245D02*
X009881Y039245D01*
X009881Y039126D02*
X001181Y039126D01*
X001181Y039008D02*
X009881Y039008D01*
X009881Y038889D02*
X001181Y038889D01*
X001181Y038771D02*
X009881Y038771D01*
X009881Y038652D02*
X001181Y038652D01*
X001181Y038534D02*
X009881Y038534D01*
X009881Y038415D02*
X001181Y038415D01*
X003249Y040430D02*
X007289Y040430D01*
X007309Y040549D02*
X003368Y040549D01*
X003486Y040668D02*
X007358Y040668D01*
X007425Y040786D02*
X003605Y040786D01*
X003723Y040905D02*
X007544Y040905D01*
X007766Y041023D02*
X003842Y041023D01*
X005323Y037704D02*
X015123Y037704D01*
X015004Y037585D02*
X005204Y037585D01*
X005085Y037467D02*
X014885Y037467D01*
X014767Y037348D02*
X004967Y037348D01*
X004848Y037230D02*
X014648Y037230D01*
X014530Y037111D02*
X004730Y037111D01*
X004611Y036993D02*
X014411Y036993D01*
X014293Y036874D02*
X004493Y036874D01*
X004374Y036756D02*
X014174Y036756D01*
X014056Y036637D02*
X004256Y036637D01*
X004137Y036519D02*
X013937Y036519D01*
X013819Y036400D02*
X004019Y036400D01*
X003900Y036281D02*
X013700Y036281D01*
X014144Y035926D02*
X022881Y035926D01*
X022881Y036044D02*
X014263Y036044D01*
X014381Y036163D02*
X022881Y036163D01*
X022881Y036281D02*
X014500Y036281D01*
X014619Y036400D02*
X022881Y036400D01*
X022881Y036519D02*
X014737Y036519D01*
X014856Y036637D02*
X022881Y036637D01*
X022881Y036756D02*
X014974Y036756D01*
X014981Y036763D02*
X022881Y036763D01*
X022881Y029763D01*
X015681Y029763D01*
X015681Y030863D01*
X013781Y030863D01*
X013781Y035563D01*
X014981Y036763D01*
X014026Y035807D02*
X022881Y035807D01*
X022881Y035689D02*
X013907Y035689D01*
X013789Y035570D02*
X022881Y035570D01*
X022881Y035452D02*
X013781Y035452D01*
X013781Y035333D02*
X022881Y035333D01*
X022881Y035215D02*
X013781Y035215D01*
X013781Y035096D02*
X022881Y035096D01*
X022881Y034977D02*
X013781Y034977D01*
X013781Y034859D02*
X022881Y034859D01*
X022881Y034740D02*
X013781Y034740D01*
X013781Y034622D02*
X022881Y034622D01*
X022881Y034503D02*
X013781Y034503D01*
X013781Y034385D02*
X022881Y034385D01*
X022881Y034266D02*
X013781Y034266D01*
X013781Y034148D02*
X022881Y034148D01*
X022881Y034029D02*
X013781Y034029D01*
X013781Y033911D02*
X022881Y033911D01*
X022881Y033792D02*
X013781Y033792D01*
X013781Y033674D02*
X022881Y033674D01*
X022881Y033555D02*
X013781Y033555D01*
X013781Y033436D02*
X022881Y033436D01*
X022881Y033318D02*
X013781Y033318D01*
X013781Y033199D02*
X022881Y033199D01*
X022881Y033081D02*
X013781Y033081D01*
X013781Y032962D02*
X022881Y032962D01*
X022881Y032844D02*
X013781Y032844D01*
X013781Y032725D02*
X022881Y032725D01*
X022881Y032607D02*
X013781Y032607D01*
X013781Y032488D02*
X022881Y032488D01*
X022881Y032370D02*
X013781Y032370D01*
X013781Y032251D02*
X022881Y032251D01*
X022881Y032132D02*
X013781Y032132D01*
X013781Y032014D02*
X022881Y032014D01*
X022881Y031895D02*
X013781Y031895D01*
X013781Y031777D02*
X022881Y031777D01*
X022881Y031658D02*
X013781Y031658D01*
X013781Y031540D02*
X022881Y031540D01*
X022881Y031421D02*
X013781Y031421D01*
X013781Y031303D02*
X022881Y031303D01*
X022881Y031184D02*
X013781Y031184D01*
X013781Y031066D02*
X022881Y031066D01*
X022881Y030947D02*
X013781Y030947D01*
X015681Y030828D02*
X022881Y030828D01*
X022881Y030710D02*
X015681Y030710D01*
X015681Y030591D02*
X022881Y030591D01*
X022881Y030473D02*
X015681Y030473D01*
X015681Y030354D02*
X022881Y030354D01*
X022881Y030236D02*
X015681Y030236D01*
X015681Y030117D02*
X022881Y030117D01*
X022881Y029999D02*
X015681Y029999D01*
X015681Y029880D02*
X022881Y029880D01*
X022881Y029263D02*
X022881Y025663D01*
X015681Y025663D01*
X015681Y029263D01*
X022881Y029263D01*
X022881Y029169D02*
X015681Y029169D01*
X015681Y029050D02*
X022881Y029050D01*
X022881Y028932D02*
X015681Y028932D01*
X015681Y028813D02*
X022881Y028813D01*
X022881Y028695D02*
X015681Y028695D01*
X015681Y028576D02*
X022881Y028576D01*
X022881Y028458D02*
X015681Y028458D01*
X015681Y028339D02*
X022881Y028339D01*
X022881Y028221D02*
X015681Y028221D01*
X015681Y028102D02*
X022881Y028102D01*
X022881Y027983D02*
X015681Y027983D01*
X015681Y027865D02*
X022881Y027865D01*
X022881Y027746D02*
X015681Y027746D01*
X015681Y027628D02*
X022881Y027628D01*
X022881Y027509D02*
X015681Y027509D01*
X015681Y027391D02*
X022881Y027391D01*
X022881Y027272D02*
X015681Y027272D01*
X015681Y027154D02*
X022881Y027154D01*
X022881Y027035D02*
X015681Y027035D01*
X015681Y026917D02*
X022881Y026917D01*
X022881Y026798D02*
X015681Y026798D01*
X015681Y026679D02*
X022881Y026679D01*
X022881Y026561D02*
X015681Y026561D01*
X015681Y026442D02*
X022881Y026442D01*
X022881Y026324D02*
X015681Y026324D01*
X015681Y026205D02*
X022881Y026205D01*
X022881Y026087D02*
X015681Y026087D01*
X015681Y025968D02*
X022881Y025968D01*
X022881Y025850D02*
X015681Y025850D01*
X015681Y025731D02*
X022881Y025731D01*
X022881Y025163D02*
X012081Y025163D01*
X012081Y024263D01*
X013781Y024263D01*
X013781Y022863D01*
X019481Y022863D01*
X019481Y019963D01*
X022881Y019963D01*
X022881Y025163D01*
X022881Y025138D02*
X012081Y025138D01*
X012081Y025020D02*
X014315Y025020D01*
X014385Y025049D02*
X014206Y024975D01*
X014070Y024838D01*
X013996Y024659D01*
X013996Y024466D01*
X014070Y024288D01*
X014206Y024151D01*
X014385Y024077D01*
X014578Y024077D01*
X014757Y024151D01*
X014893Y024288D01*
X014967Y024466D01*
X014967Y024659D01*
X014893Y024838D01*
X014757Y024975D01*
X014578Y025049D01*
X014385Y025049D01*
X014647Y025020D02*
X015315Y025020D01*
X015385Y025049D02*
X015206Y024975D01*
X015070Y024838D01*
X014996Y024659D01*
X014996Y024466D01*
X015070Y024288D01*
X015206Y024151D01*
X015385Y024077D01*
X015578Y024077D01*
X015757Y024151D01*
X015893Y024288D01*
X015967Y024466D01*
X015967Y024659D01*
X015893Y024838D01*
X015757Y024975D01*
X015578Y025049D01*
X015385Y025049D01*
X015647Y025020D02*
X016815Y025020D01*
X016885Y025049D02*
X016706Y024975D01*
X016570Y024838D01*
X016496Y024659D01*
X016496Y024466D01*
X016570Y024288D01*
X016706Y024151D01*
X016885Y024077D01*
X017078Y024077D01*
X017257Y024151D01*
X017393Y024288D01*
X017467Y024466D01*
X017467Y024659D01*
X017393Y024838D01*
X017257Y024975D01*
X017078Y025049D01*
X016885Y025049D01*
X017147Y025020D02*
X017815Y025020D01*
X017885Y025049D02*
X017706Y024975D01*
X017570Y024838D01*
X017496Y024659D01*
X017496Y024466D01*
X017570Y024288D01*
X017706Y024151D01*
X017885Y024077D01*
X018078Y024077D01*
X018257Y024151D01*
X018393Y024288D01*
X018467Y024466D01*
X018467Y024659D01*
X018393Y024838D01*
X018257Y024975D01*
X018078Y025049D01*
X017885Y025049D01*
X018147Y025020D02*
X022881Y025020D01*
X022881Y024901D02*
X018330Y024901D01*
X018416Y024783D02*
X022881Y024783D01*
X022881Y024664D02*
X018465Y024664D01*
X018467Y024546D02*
X022881Y024546D01*
X022881Y024427D02*
X018451Y024427D01*
X018402Y024309D02*
X022881Y024309D01*
X022881Y024190D02*
X018296Y024190D01*
X017667Y024190D02*
X017296Y024190D01*
X017402Y024309D02*
X017561Y024309D01*
X017512Y024427D02*
X017451Y024427D01*
X017467Y024546D02*
X017496Y024546D01*
X017498Y024664D02*
X017465Y024664D01*
X017416Y024783D02*
X017547Y024783D01*
X017633Y024901D02*
X017330Y024901D01*
X016633Y024901D02*
X015830Y024901D01*
X015916Y024783D02*
X016547Y024783D01*
X016498Y024664D02*
X015965Y024664D01*
X015967Y024546D02*
X016496Y024546D01*
X016512Y024427D02*
X015951Y024427D01*
X015902Y024309D02*
X016561Y024309D01*
X016667Y024190D02*
X015796Y024190D01*
X015167Y024190D02*
X014796Y024190D01*
X014902Y024309D02*
X015061Y024309D01*
X015012Y024427D02*
X014951Y024427D01*
X014967Y024546D02*
X014996Y024546D01*
X014998Y024664D02*
X014965Y024664D01*
X014916Y024783D02*
X015047Y024783D01*
X015133Y024901D02*
X014830Y024901D01*
X014133Y024901D02*
X012081Y024901D01*
X012081Y024783D02*
X014047Y024783D01*
X013998Y024664D02*
X012081Y024664D01*
X012081Y024546D02*
X013996Y024546D01*
X014012Y024427D02*
X012081Y024427D01*
X012081Y024309D02*
X014061Y024309D01*
X014167Y024190D02*
X013781Y024190D01*
X013781Y024071D02*
X022881Y024071D01*
X022881Y023953D02*
X013781Y023953D01*
X013781Y023834D02*
X022881Y023834D01*
X022881Y023716D02*
X013781Y023716D01*
X013781Y023597D02*
X022881Y023597D01*
X022881Y023479D02*
X013781Y023479D01*
X013781Y023360D02*
X022881Y023360D01*
X022881Y023242D02*
X013781Y023242D01*
X013781Y023123D02*
X022881Y023123D01*
X022881Y023005D02*
X013781Y023005D01*
X013781Y022886D02*
X022881Y022886D01*
X022881Y022768D02*
X019481Y022768D01*
X019481Y022649D02*
X022881Y022649D01*
X022881Y022530D02*
X019481Y022530D01*
X019481Y022412D02*
X022881Y022412D01*
X022881Y022293D02*
X019481Y022293D01*
X019481Y022175D02*
X022881Y022175D01*
X022881Y022056D02*
X019481Y022056D01*
X019481Y021938D02*
X022881Y021938D01*
X022881Y021819D02*
X019481Y021819D01*
X019481Y021701D02*
X022881Y021701D01*
X022881Y021582D02*
X019481Y021582D01*
X019481Y021464D02*
X022881Y021464D01*
X022881Y021345D02*
X019481Y021345D01*
X019481Y021226D02*
X022881Y021226D01*
X022881Y021108D02*
X019481Y021108D01*
X019481Y020989D02*
X022881Y020989D01*
X022881Y020871D02*
X019481Y020871D01*
X019481Y020752D02*
X022881Y020752D01*
X022881Y020634D02*
X019481Y020634D01*
X019481Y020515D02*
X022881Y020515D01*
X022881Y020397D02*
X019481Y020397D01*
X019481Y020278D02*
X022881Y020278D01*
X022881Y020160D02*
X019481Y020160D01*
X019481Y020041D02*
X022881Y020041D01*
X019481Y019463D02*
X019481Y017863D01*
X028281Y017863D01*
X028281Y019463D01*
X019481Y019463D01*
X019481Y019448D02*
X028281Y019448D01*
X028281Y019330D02*
X019481Y019330D01*
X019481Y019211D02*
X028281Y019211D01*
X028281Y019093D02*
X019481Y019093D01*
X019481Y018974D02*
X028281Y018974D01*
X028281Y018856D02*
X019481Y018856D01*
X019481Y018737D02*
X028281Y018737D01*
X028281Y018619D02*
X019481Y018619D01*
X019481Y018500D02*
X028281Y018500D01*
X028281Y018381D02*
X019481Y018381D01*
X019481Y018263D02*
X028281Y018263D01*
X028281Y018144D02*
X019481Y018144D01*
X019481Y018026D02*
X028281Y018026D01*
X028281Y017907D02*
X019481Y017907D01*
X018881Y017907D02*
X005537Y017907D01*
X005418Y018026D02*
X018881Y018026D01*
X018881Y018144D02*
X005300Y018144D01*
X005181Y018263D02*
X018881Y018263D01*
X018881Y018381D02*
X005063Y018381D01*
X004944Y018500D02*
X018881Y018500D01*
X018881Y018619D02*
X004826Y018619D01*
X004707Y018737D02*
X018881Y018737D01*
X018881Y018856D02*
X004589Y018856D01*
X004470Y018974D02*
X018881Y018974D01*
X018881Y019093D02*
X004352Y019093D01*
X004233Y019211D02*
X018881Y019211D01*
X018881Y019330D02*
X004114Y019330D01*
X003996Y019448D02*
X018881Y019448D01*
X018881Y019963D02*
X006481Y019963D01*
X005781Y020663D01*
X005781Y035063D01*
X006381Y035663D01*
X011181Y035663D01*
X011181Y022263D01*
X018881Y022263D01*
X018881Y019963D01*
X018881Y020041D02*
X006403Y020041D01*
X006285Y020160D02*
X014198Y020160D01*
X014206Y020151D02*
X014385Y020077D01*
X014578Y020077D01*
X014757Y020151D01*
X014893Y020288D01*
X014967Y020466D01*
X014967Y020659D01*
X014893Y020838D01*
X014757Y020975D01*
X014578Y021049D01*
X014385Y021049D01*
X014206Y020975D01*
X014070Y020838D01*
X013996Y020659D01*
X013996Y020466D01*
X014070Y020288D01*
X014206Y020151D01*
X014079Y020278D02*
X006166Y020278D01*
X006048Y020397D02*
X014024Y020397D01*
X013996Y020515D02*
X005929Y020515D01*
X005811Y020634D02*
X013996Y020634D01*
X014034Y020752D02*
X005781Y020752D01*
X005781Y020871D02*
X014102Y020871D01*
X014242Y020989D02*
X005781Y020989D01*
X005781Y021108D02*
X018881Y021108D01*
X018881Y021226D02*
X005781Y021226D01*
X005781Y021345D02*
X018881Y021345D01*
X018881Y021464D02*
X005781Y021464D01*
X005781Y021582D02*
X018881Y021582D01*
X018881Y021701D02*
X005781Y021701D01*
X005781Y021819D02*
X018881Y021819D01*
X018881Y021938D02*
X005781Y021938D01*
X005781Y022056D02*
X018881Y022056D01*
X018881Y022175D02*
X005781Y022175D01*
X005781Y022293D02*
X011181Y022293D01*
X011181Y022412D02*
X005781Y022412D01*
X005781Y022530D02*
X011181Y022530D01*
X011181Y022649D02*
X005781Y022649D01*
X005781Y022768D02*
X011181Y022768D01*
X011181Y022886D02*
X005781Y022886D01*
X005781Y023005D02*
X011181Y023005D01*
X011181Y023123D02*
X005781Y023123D01*
X005781Y023242D02*
X011181Y023242D01*
X011181Y023360D02*
X005781Y023360D01*
X005781Y023479D02*
X011181Y023479D01*
X011181Y023597D02*
X005781Y023597D01*
X005781Y023716D02*
X011181Y023716D01*
X011181Y023834D02*
X005781Y023834D01*
X005781Y023953D02*
X011181Y023953D01*
X011181Y024071D02*
X005781Y024071D01*
X005781Y024190D02*
X011181Y024190D01*
X011181Y024309D02*
X005781Y024309D01*
X005781Y024427D02*
X011181Y024427D01*
X011181Y024546D02*
X005781Y024546D01*
X005781Y024664D02*
X011181Y024664D01*
X011181Y024783D02*
X005781Y024783D01*
X005781Y024901D02*
X011181Y024901D01*
X011181Y025020D02*
X005781Y025020D01*
X005781Y025138D02*
X011181Y025138D01*
X011181Y025257D02*
X005781Y025257D01*
X005781Y025375D02*
X011181Y025375D01*
X011181Y025494D02*
X005781Y025494D01*
X005781Y025613D02*
X011181Y025613D01*
X011181Y025731D02*
X005781Y025731D01*
X005781Y025850D02*
X011181Y025850D01*
X011181Y025968D02*
X005781Y025968D01*
X005781Y026087D02*
X011181Y026087D01*
X011181Y026205D02*
X005781Y026205D01*
X005781Y026324D02*
X011181Y026324D01*
X011181Y026442D02*
X005781Y026442D01*
X005781Y026561D02*
X011181Y026561D01*
X011181Y026679D02*
X005781Y026679D01*
X005781Y026798D02*
X011181Y026798D01*
X011181Y026917D02*
X005781Y026917D01*
X005781Y027035D02*
X011181Y027035D01*
X011181Y027154D02*
X005781Y027154D01*
X005781Y027272D02*
X011181Y027272D01*
X011181Y027391D02*
X005781Y027391D01*
X005781Y027509D02*
X011181Y027509D01*
X011181Y027628D02*
X005781Y027628D01*
X005781Y027746D02*
X011181Y027746D01*
X011181Y027865D02*
X005781Y027865D01*
X005781Y027983D02*
X011181Y027983D01*
X011181Y028102D02*
X005781Y028102D01*
X005781Y028221D02*
X011181Y028221D01*
X011181Y028339D02*
X005781Y028339D01*
X005781Y028458D02*
X011181Y028458D01*
X011181Y028576D02*
X005781Y028576D01*
X005781Y028695D02*
X011181Y028695D01*
X011181Y028813D02*
X005781Y028813D01*
X005781Y028932D02*
X011181Y028932D01*
X011181Y029050D02*
X005781Y029050D01*
X005781Y029169D02*
X011181Y029169D01*
X011181Y029287D02*
X005781Y029287D01*
X005781Y029406D02*
X011181Y029406D01*
X011181Y029524D02*
X005781Y029524D01*
X005781Y029643D02*
X011181Y029643D01*
X011181Y029762D02*
X005781Y029762D01*
X005781Y029880D02*
X011181Y029880D01*
X011181Y029999D02*
X005781Y029999D01*
X005781Y030117D02*
X011181Y030117D01*
X011181Y030236D02*
X005781Y030236D01*
X005781Y030354D02*
X011181Y030354D01*
X011181Y030473D02*
X005781Y030473D01*
X005781Y030591D02*
X011181Y030591D01*
X011181Y030710D02*
X005781Y030710D01*
X005781Y030828D02*
X011181Y030828D01*
X011181Y030947D02*
X005781Y030947D01*
X005781Y031066D02*
X011181Y031066D01*
X011181Y031184D02*
X005781Y031184D01*
X005781Y031303D02*
X011181Y031303D01*
X011181Y031421D02*
X005781Y031421D01*
X005781Y031540D02*
X011181Y031540D01*
X011181Y031658D02*
X005781Y031658D01*
X005781Y031777D02*
X011181Y031777D01*
X011181Y031895D02*
X005781Y031895D01*
X005781Y032014D02*
X011181Y032014D01*
X011181Y032132D02*
X005781Y032132D01*
X005781Y032251D02*
X011181Y032251D01*
X011181Y032370D02*
X005781Y032370D01*
X005781Y032488D02*
X011181Y032488D01*
X011181Y032607D02*
X005781Y032607D01*
X005781Y032725D02*
X011181Y032725D01*
X011181Y032844D02*
X005781Y032844D01*
X005781Y032962D02*
X011181Y032962D01*
X011181Y033081D02*
X005781Y033081D01*
X005781Y033199D02*
X011181Y033199D01*
X011181Y033318D02*
X005781Y033318D01*
X005781Y033436D02*
X011181Y033436D01*
X011181Y033555D02*
X005781Y033555D01*
X005781Y033674D02*
X011181Y033674D01*
X011181Y033792D02*
X005781Y033792D01*
X005781Y033911D02*
X011181Y033911D01*
X011181Y034029D02*
X005781Y034029D01*
X005781Y034148D02*
X011181Y034148D01*
X011181Y034266D02*
X005781Y034266D01*
X005781Y034385D02*
X011181Y034385D01*
X011181Y034503D02*
X005781Y034503D01*
X005781Y034622D02*
X011181Y034622D01*
X011181Y034740D02*
X005781Y034740D01*
X005781Y034859D02*
X011181Y034859D01*
X011181Y034977D02*
X005781Y034977D01*
X005815Y035096D02*
X011181Y035096D01*
X011181Y035215D02*
X005933Y035215D01*
X006052Y035333D02*
X011181Y035333D01*
X011181Y035452D02*
X006170Y035452D01*
X006289Y035570D02*
X011181Y035570D01*
X006181Y036163D02*
X003781Y036163D01*
X003681Y036044D02*
X006063Y036044D01*
X005944Y035926D02*
X003681Y035926D01*
X003681Y035807D02*
X005826Y035807D01*
X005707Y035689D02*
X003681Y035689D01*
X003681Y035570D02*
X005589Y035570D01*
X005470Y035452D02*
X003681Y035452D01*
X003681Y035333D02*
X005352Y035333D01*
X005281Y035215D02*
X003681Y035215D01*
X003681Y035096D02*
X005281Y035096D01*
X005281Y034977D02*
X003681Y034977D01*
X003681Y034859D02*
X005281Y034859D01*
X005281Y034740D02*
X003681Y034740D01*
X003681Y034622D02*
X005281Y034622D01*
X005281Y034503D02*
X003681Y034503D01*
X003681Y034385D02*
X005281Y034385D01*
X005281Y034266D02*
X003681Y034266D01*
X003681Y034148D02*
X005281Y034148D01*
X005281Y034029D02*
X003681Y034029D01*
X003681Y033911D02*
X005281Y033911D01*
X005281Y033792D02*
X003681Y033792D01*
X003681Y033674D02*
X005281Y033674D01*
X005281Y033555D02*
X003681Y033555D01*
X003681Y033436D02*
X005281Y033436D01*
X005281Y033318D02*
X003681Y033318D01*
X003681Y033199D02*
X005281Y033199D01*
X005281Y033081D02*
X003681Y033081D01*
X003681Y032962D02*
X005281Y032962D01*
X005281Y032844D02*
X003681Y032844D01*
X003681Y032725D02*
X005281Y032725D01*
X005281Y032607D02*
X003681Y032607D01*
X003681Y032488D02*
X005281Y032488D01*
X005281Y032370D02*
X003681Y032370D01*
X003681Y032251D02*
X005281Y032251D01*
X005281Y032132D02*
X003681Y032132D01*
X003681Y032014D02*
X005281Y032014D01*
X005281Y031895D02*
X003681Y031895D01*
X003681Y031777D02*
X005281Y031777D01*
X005281Y031658D02*
X003681Y031658D01*
X003681Y031540D02*
X005281Y031540D01*
X005281Y031421D02*
X003681Y031421D01*
X003681Y031303D02*
X005281Y031303D01*
X005281Y031184D02*
X003681Y031184D01*
X003681Y031066D02*
X005281Y031066D01*
X005281Y030947D02*
X003681Y030947D01*
X003681Y030828D02*
X005281Y030828D01*
X005281Y030710D02*
X003681Y030710D01*
X003681Y030591D02*
X005281Y030591D01*
X005281Y030473D02*
X003681Y030473D01*
X003681Y030354D02*
X005281Y030354D01*
X005281Y030236D02*
X003681Y030236D01*
X003681Y030117D02*
X005281Y030117D01*
X005281Y029999D02*
X003681Y029999D01*
X003681Y029880D02*
X005281Y029880D01*
X005281Y029762D02*
X003681Y029762D01*
X003681Y029643D02*
X005281Y029643D01*
X005281Y029524D02*
X003681Y029524D01*
X003681Y029406D02*
X005281Y029406D01*
X005281Y029287D02*
X003681Y029287D01*
X003681Y029169D02*
X005281Y029169D01*
X005281Y029050D02*
X003681Y029050D01*
X003681Y028932D02*
X005281Y028932D01*
X005281Y028813D02*
X003681Y028813D01*
X003681Y028695D02*
X005281Y028695D01*
X005281Y028576D02*
X003681Y028576D01*
X003681Y028458D02*
X005281Y028458D01*
X005281Y028339D02*
X003681Y028339D01*
X003681Y028221D02*
X005281Y028221D01*
X005281Y028102D02*
X003681Y028102D01*
X003681Y027983D02*
X005281Y027983D01*
X005281Y027865D02*
X003681Y027865D01*
X003681Y027746D02*
X005281Y027746D01*
X005281Y027628D02*
X003681Y027628D01*
X003681Y027509D02*
X005281Y027509D01*
X005281Y027391D02*
X003681Y027391D01*
X003681Y027272D02*
X005281Y027272D01*
X005281Y027154D02*
X003681Y027154D01*
X003681Y027035D02*
X005281Y027035D01*
X005281Y026917D02*
X003681Y026917D01*
X003681Y026798D02*
X005281Y026798D01*
X005281Y026679D02*
X003681Y026679D01*
X003681Y026561D02*
X005281Y026561D01*
X005281Y026442D02*
X003681Y026442D01*
X003681Y026324D02*
X005281Y026324D01*
X005281Y026205D02*
X003681Y026205D01*
X003681Y026087D02*
X005281Y026087D01*
X005281Y025968D02*
X003681Y025968D01*
X003681Y025850D02*
X005281Y025850D01*
X005281Y025731D02*
X003681Y025731D01*
X003681Y025613D02*
X005281Y025613D01*
X005281Y025494D02*
X003681Y025494D01*
X003681Y025375D02*
X005281Y025375D01*
X005281Y025257D02*
X003681Y025257D01*
X003681Y025138D02*
X005281Y025138D01*
X005281Y025020D02*
X003681Y025020D01*
X003681Y024901D02*
X005281Y024901D01*
X005281Y024783D02*
X003681Y024783D01*
X003681Y024664D02*
X005281Y024664D01*
X005281Y024546D02*
X003681Y024546D01*
X003681Y024427D02*
X005281Y024427D01*
X005281Y024309D02*
X003681Y024309D01*
X003681Y024190D02*
X005281Y024190D01*
X005281Y024071D02*
X003681Y024071D01*
X003681Y023953D02*
X005281Y023953D01*
X005281Y023834D02*
X003681Y023834D01*
X003681Y023716D02*
X005281Y023716D01*
X005281Y023597D02*
X003681Y023597D01*
X003681Y023479D02*
X005281Y023479D01*
X005281Y023360D02*
X003681Y023360D01*
X003681Y023242D02*
X005281Y023242D01*
X005281Y023123D02*
X003681Y023123D01*
X003681Y023005D02*
X005281Y023005D01*
X005281Y022886D02*
X003681Y022886D01*
X003681Y022768D02*
X005281Y022768D01*
X005281Y022649D02*
X003681Y022649D01*
X003681Y022530D02*
X005281Y022530D01*
X005281Y022412D02*
X003681Y022412D01*
X003681Y022293D02*
X005281Y022293D01*
X005281Y022175D02*
X003681Y022175D01*
X003681Y022056D02*
X005281Y022056D01*
X005281Y021938D02*
X003681Y021938D01*
X003681Y021819D02*
X005281Y021819D01*
X005281Y021701D02*
X003681Y021701D01*
X003681Y021582D02*
X005281Y021582D01*
X005281Y021464D02*
X003681Y021464D01*
X003681Y021345D02*
X005281Y021345D01*
X005281Y021226D02*
X003681Y021226D01*
X003681Y021108D02*
X005281Y021108D01*
X005281Y020989D02*
X003681Y020989D01*
X003681Y020871D02*
X005281Y020871D01*
X005281Y020752D02*
X003681Y020752D01*
X003681Y020634D02*
X005281Y020634D01*
X005281Y020515D02*
X003681Y020515D01*
X003681Y020397D02*
X005348Y020397D01*
X005466Y020278D02*
X003681Y020278D01*
X003681Y020160D02*
X005585Y020160D01*
X005703Y020041D02*
X003681Y020041D01*
X003681Y019922D02*
X005822Y019922D01*
X005940Y019804D02*
X003681Y019804D01*
X003759Y019685D02*
X006059Y019685D01*
X006177Y019567D02*
X003877Y019567D01*
X001181Y017196D02*
X011931Y017196D01*
X011931Y017077D02*
X001181Y017077D01*
X001181Y016959D02*
X011931Y016959D01*
X011931Y016840D02*
X001181Y016840D01*
X001181Y016722D02*
X011931Y016722D01*
X011931Y016603D02*
X001181Y016603D01*
X001181Y016485D02*
X011931Y016485D01*
X011931Y016366D02*
X001181Y016366D01*
X001181Y016248D02*
X011931Y016248D01*
X011931Y016129D02*
X001181Y016129D01*
X001181Y016011D02*
X011931Y016011D01*
X011931Y015892D02*
X001181Y015892D01*
X001181Y015773D02*
X011931Y015773D01*
X011931Y015655D02*
X001181Y015655D01*
X001181Y015536D02*
X011931Y015536D01*
X011931Y015418D02*
X001181Y015418D01*
X001181Y015299D02*
X011931Y015299D01*
X011931Y015181D02*
X001181Y015181D01*
X001181Y015062D02*
X011931Y015062D01*
X011931Y014944D02*
X001181Y014944D01*
X001181Y014825D02*
X011931Y014825D01*
X011931Y014707D02*
X001181Y014707D01*
X001181Y013995D02*
X009799Y013995D01*
X009917Y013877D02*
X001181Y013877D01*
X001181Y013758D02*
X010036Y013758D01*
X010155Y013640D02*
X001181Y013640D01*
X001181Y013521D02*
X010273Y013521D01*
X010392Y013403D02*
X001181Y013403D01*
X001181Y013284D02*
X010431Y013284D01*
X010431Y013166D02*
X001181Y013166D01*
X001181Y013047D02*
X010431Y013047D01*
X010431Y012928D02*
X001181Y012928D01*
X001181Y012810D02*
X010431Y012810D01*
X010431Y012691D02*
X001181Y012691D01*
X001181Y012573D02*
X010431Y012573D01*
X010431Y012454D02*
X001181Y012454D01*
X001181Y012336D02*
X010431Y012336D01*
X010431Y012217D02*
X001181Y012217D01*
X001181Y012099D02*
X010431Y012099D01*
X010431Y011980D02*
X001181Y011980D01*
X001181Y011862D02*
X010431Y011862D01*
X010431Y011743D02*
X001181Y011743D01*
X001181Y011624D02*
X008056Y011624D01*
X008056Y011506D02*
X001181Y011506D01*
X001181Y011387D02*
X008056Y011387D01*
X008056Y011269D02*
X001181Y011269D01*
X001181Y011150D02*
X008056Y011150D01*
X008056Y011032D02*
X001181Y011032D01*
X001181Y010913D02*
X008056Y010913D01*
X008056Y010795D02*
X001181Y010795D01*
X001181Y010676D02*
X008056Y010676D01*
X008056Y010558D02*
X001181Y010558D01*
X001181Y010439D02*
X008056Y010439D01*
X008056Y010320D02*
X001181Y010320D01*
X001181Y010202D02*
X008056Y010202D01*
X008056Y010083D02*
X001181Y010083D01*
X001181Y009965D02*
X008056Y009965D01*
X008056Y009846D02*
X001181Y009846D01*
X001181Y009728D02*
X008056Y009728D01*
X008056Y009609D02*
X001181Y009609D01*
X001181Y009491D02*
X008056Y009491D01*
X008056Y009372D02*
X001181Y009372D01*
X001181Y009254D02*
X025681Y009254D01*
X025681Y009135D02*
X001181Y009135D01*
X001181Y009016D02*
X025681Y009016D01*
X025681Y008898D02*
X001181Y008898D01*
X001181Y008779D02*
X025681Y008779D01*
X025681Y008661D02*
X001181Y008661D01*
X001181Y008542D02*
X025681Y008542D01*
X025681Y008424D02*
X001181Y008424D01*
X001181Y008305D02*
X025681Y008305D01*
X025681Y008187D02*
X001181Y008187D01*
X001181Y008068D02*
X025681Y008068D01*
X025681Y007950D02*
X001181Y007950D01*
X001181Y007831D02*
X025681Y007831D01*
X025681Y007713D02*
X001181Y007713D01*
X001181Y007594D02*
X025681Y007594D01*
X025681Y007475D02*
X001181Y007475D01*
X001181Y007357D02*
X025681Y007357D01*
X025681Y007238D02*
X001181Y007238D01*
X001181Y007120D02*
X025681Y007120D01*
X025681Y007001D02*
X001181Y007001D01*
X001181Y006883D02*
X025681Y006883D01*
X025681Y006764D02*
X001181Y006764D01*
X001181Y006646D02*
X025681Y006646D01*
X025681Y006527D02*
X001181Y006527D01*
X001181Y006409D02*
X025681Y006409D01*
X025681Y006290D02*
X001181Y006290D01*
X001181Y006171D02*
X025681Y006171D01*
X025681Y006053D02*
X001181Y006053D01*
X001181Y005934D02*
X025681Y005934D01*
X025681Y005816D02*
X001181Y005816D01*
X001181Y005697D02*
X025681Y005697D01*
X025681Y005579D02*
X001181Y005579D01*
X001181Y005460D02*
X025681Y005460D01*
X025681Y005342D02*
X003203Y005342D01*
X003321Y005223D02*
X025681Y005223D01*
X025681Y005105D02*
X003440Y005105D01*
X003558Y004986D02*
X025681Y004986D01*
X025681Y004867D02*
X003677Y004867D01*
X003795Y004749D02*
X025681Y004749D01*
X025681Y004630D02*
X003914Y004630D01*
X004032Y004512D02*
X025681Y004512D01*
X025681Y004393D02*
X004151Y004393D01*
X004269Y004275D02*
X025681Y004275D01*
X025681Y004156D02*
X004388Y004156D01*
X004507Y004038D02*
X025681Y004038D01*
X025681Y003919D02*
X004625Y003919D01*
X004744Y003801D02*
X025681Y003801D01*
X025681Y003682D02*
X004862Y003682D01*
X004981Y003564D02*
X025681Y003564D01*
X025681Y003445D02*
X005099Y003445D01*
X014056Y009965D02*
X017431Y009965D01*
X017431Y010083D02*
X014056Y010083D01*
X014056Y010202D02*
X017431Y010202D01*
X017431Y010320D02*
X014056Y010320D01*
X014056Y010439D02*
X017431Y010439D01*
X017431Y010558D02*
X014056Y010558D01*
X014056Y010676D02*
X017431Y010676D01*
X017431Y010795D02*
X014056Y010795D01*
X012431Y010913D02*
X017431Y010913D01*
X017431Y011032D02*
X012431Y011032D01*
X012431Y011150D02*
X017431Y011150D01*
X017431Y011269D02*
X012431Y011269D01*
X012431Y011387D02*
X017431Y011387D01*
X017431Y011506D02*
X012431Y011506D01*
X012431Y011624D02*
X017431Y011624D01*
X017431Y011743D02*
X012431Y011743D01*
X012431Y011862D02*
X017431Y011862D01*
X017431Y011980D02*
X012431Y011980D01*
X012431Y012099D02*
X017431Y012099D01*
X017431Y012217D02*
X012431Y012217D01*
X012431Y012336D02*
X017431Y012336D01*
X017431Y012454D02*
X012431Y012454D01*
X012431Y012573D02*
X017431Y012573D01*
X017431Y012691D02*
X012431Y012691D01*
X012431Y012810D02*
X017431Y012810D01*
X017431Y012928D02*
X012431Y012928D01*
X012431Y013047D02*
X017431Y013047D01*
X017431Y013166D02*
X012431Y013166D01*
X012431Y013284D02*
X017431Y013284D01*
X017431Y013403D02*
X012431Y013403D01*
X012431Y013521D02*
X017431Y013521D01*
X017431Y013640D02*
X012431Y013640D01*
X012431Y013758D02*
X017431Y013758D01*
X017431Y013877D02*
X012431Y013877D01*
X012431Y013995D02*
X017431Y013995D01*
X017432Y014114D02*
X012431Y014114D01*
X012431Y014232D02*
X017551Y014232D01*
X017670Y014351D02*
X012431Y014351D01*
X012431Y014469D02*
X017788Y014469D01*
X017907Y014588D02*
X012431Y014588D01*
X012431Y014707D02*
X018025Y014707D01*
X018144Y014825D02*
X012431Y014825D01*
X012431Y014944D02*
X018262Y014944D01*
X018381Y015062D02*
X012431Y015062D01*
X011931Y014588D02*
X009831Y014588D01*
X009950Y014469D02*
X011931Y014469D01*
X011931Y014351D02*
X010068Y014351D01*
X010187Y014232D02*
X011931Y014232D01*
X011931Y014114D02*
X010305Y014114D01*
X010424Y013995D02*
X011931Y013995D01*
X011931Y013877D02*
X010542Y013877D01*
X010661Y013758D02*
X011931Y013758D01*
X011931Y013640D02*
X010780Y013640D01*
X010898Y013521D02*
X011931Y013521D01*
X011931Y013403D02*
X010931Y013403D01*
X010931Y013284D02*
X011931Y013284D01*
X011931Y013166D02*
X010931Y013166D01*
X010931Y013047D02*
X011931Y013047D01*
X011931Y012928D02*
X010931Y012928D01*
X010931Y012810D02*
X011931Y012810D01*
X011931Y012691D02*
X010931Y012691D01*
X010931Y012573D02*
X011931Y012573D01*
X011931Y012454D02*
X010931Y012454D01*
X010931Y012336D02*
X011931Y012336D01*
X011931Y012217D02*
X010931Y012217D01*
X010931Y012099D02*
X011931Y012099D01*
X011931Y011980D02*
X010931Y011980D01*
X010931Y011862D02*
X011931Y011862D01*
X011931Y011743D02*
X010931Y011743D01*
X017931Y011743D02*
X025681Y011743D01*
X025681Y011624D02*
X017931Y011624D01*
X017931Y011506D02*
X025681Y011506D01*
X025681Y011387D02*
X017931Y011387D01*
X017931Y011269D02*
X025681Y011269D01*
X025681Y011150D02*
X017931Y011150D01*
X017931Y011032D02*
X025681Y011032D01*
X025681Y010913D02*
X017931Y010913D01*
X017931Y010795D02*
X025681Y010795D01*
X025681Y010676D02*
X017931Y010676D01*
X017931Y010558D02*
X025681Y010558D01*
X025681Y010439D02*
X017931Y010439D01*
X017931Y010320D02*
X025681Y010320D01*
X025681Y010202D02*
X017931Y010202D01*
X017931Y010083D02*
X025681Y010083D01*
X025681Y009965D02*
X017931Y009965D01*
X017931Y011862D02*
X025681Y011862D01*
X025681Y011980D02*
X017931Y011980D01*
X017931Y012099D02*
X025681Y012099D01*
X025681Y012217D02*
X017931Y012217D01*
X017931Y012336D02*
X025681Y012336D01*
X025681Y012454D02*
X017931Y012454D01*
X017931Y012573D02*
X025681Y012573D01*
X025681Y012691D02*
X017931Y012691D01*
X017931Y012810D02*
X025681Y012810D01*
X025681Y012928D02*
X017931Y012928D01*
X017931Y013047D02*
X025681Y013047D01*
X025681Y013166D02*
X017931Y013166D01*
X017931Y013284D02*
X025681Y013284D01*
X025681Y013403D02*
X017931Y013403D01*
X017931Y013521D02*
X025681Y013521D01*
X025681Y013640D02*
X017931Y013640D01*
X017931Y013758D02*
X025681Y013758D01*
X025681Y013877D02*
X017931Y013877D01*
X017939Y013995D02*
X025681Y013995D01*
X025681Y014114D02*
X018057Y014114D01*
X018176Y014232D02*
X025681Y014232D01*
X025681Y014351D02*
X018295Y014351D01*
X018413Y014469D02*
X025681Y014469D01*
X025681Y014588D02*
X018532Y014588D01*
X018078Y020077D02*
X018257Y020151D01*
X018393Y020288D01*
X018467Y020466D01*
X018467Y020659D01*
X018393Y020838D01*
X018257Y020975D01*
X018078Y021049D01*
X017885Y021049D01*
X017706Y020975D01*
X017570Y020838D01*
X017496Y020659D01*
X017496Y020466D01*
X017570Y020288D01*
X017706Y020151D01*
X017885Y020077D01*
X018078Y020077D01*
X018265Y020160D02*
X018881Y020160D01*
X018881Y020278D02*
X018384Y020278D01*
X018438Y020397D02*
X018881Y020397D01*
X018881Y020515D02*
X018467Y020515D01*
X018467Y020634D02*
X018881Y020634D01*
X018881Y020752D02*
X018429Y020752D01*
X018360Y020871D02*
X018881Y020871D01*
X018881Y020989D02*
X018221Y020989D01*
X017742Y020989D02*
X017221Y020989D01*
X017257Y020975D02*
X017078Y021049D01*
X016885Y021049D01*
X016706Y020975D01*
X016570Y020838D01*
X016496Y020659D01*
X016496Y020466D01*
X016570Y020288D01*
X016706Y020151D01*
X016885Y020077D01*
X017078Y020077D01*
X017257Y020151D01*
X017393Y020288D01*
X017467Y020466D01*
X017467Y020659D01*
X017393Y020838D01*
X017257Y020975D01*
X017360Y020871D02*
X017602Y020871D01*
X017534Y020752D02*
X017429Y020752D01*
X017467Y020634D02*
X017496Y020634D01*
X017496Y020515D02*
X017467Y020515D01*
X017438Y020397D02*
X017524Y020397D01*
X017579Y020278D02*
X017384Y020278D01*
X017265Y020160D02*
X017698Y020160D01*
X016698Y020160D02*
X015765Y020160D01*
X015757Y020151D02*
X015893Y020288D01*
X015967Y020466D01*
X015967Y020659D01*
X015893Y020838D01*
X015757Y020975D01*
X015578Y021049D01*
X015385Y021049D01*
X015206Y020975D01*
X015070Y020838D01*
X014996Y020659D01*
X014996Y020466D01*
X015070Y020288D01*
X015206Y020151D01*
X015385Y020077D01*
X015578Y020077D01*
X015757Y020151D01*
X015884Y020278D02*
X016579Y020278D01*
X016524Y020397D02*
X015938Y020397D01*
X015967Y020515D02*
X016496Y020515D01*
X016496Y020634D02*
X015967Y020634D01*
X015929Y020752D02*
X016534Y020752D01*
X016602Y020871D02*
X015860Y020871D01*
X015721Y020989D02*
X016742Y020989D01*
X015242Y020989D02*
X014721Y020989D01*
X014860Y020871D02*
X015102Y020871D01*
X015034Y020752D02*
X014929Y020752D01*
X014967Y020634D02*
X014996Y020634D01*
X014996Y020515D02*
X014967Y020515D01*
X014938Y020397D02*
X015024Y020397D01*
X015079Y020278D02*
X014884Y020278D01*
X014765Y020160D02*
X015198Y020160D01*
X026181Y013995D02*
X033881Y013995D01*
X033881Y013877D02*
X026181Y013877D01*
X026181Y013758D02*
X033881Y013758D01*
X033881Y013640D02*
X026181Y013640D01*
X026181Y013521D02*
X033881Y013521D01*
X033881Y013403D02*
X026181Y013403D01*
X026181Y013284D02*
X033881Y013284D01*
X033881Y013166D02*
X026181Y013166D01*
X026181Y013047D02*
X033881Y013047D01*
X033881Y012928D02*
X026181Y012928D01*
X026181Y012810D02*
X033881Y012810D01*
X031581Y012691D02*
X026181Y012691D01*
X026181Y012573D02*
X031581Y012573D01*
X031581Y012454D02*
X026181Y012454D01*
X026181Y012336D02*
X031581Y012336D01*
X031581Y012217D02*
X026181Y012217D01*
X026181Y012099D02*
X031581Y012099D01*
X031581Y011980D02*
X026181Y011980D01*
X026181Y011862D02*
X031581Y011862D01*
X031581Y011743D02*
X026181Y011743D01*
X026181Y011624D02*
X031581Y011624D01*
X031581Y011506D02*
X026181Y011506D01*
X026181Y011387D02*
X031581Y011387D01*
X031581Y011269D02*
X026181Y011269D01*
X026181Y011150D02*
X031581Y011150D01*
X031581Y011032D02*
X026181Y011032D01*
X026181Y010913D02*
X031581Y010913D01*
X031581Y010795D02*
X026181Y010795D01*
X026181Y010676D02*
X031581Y010676D01*
X031581Y010558D02*
X026181Y010558D01*
X026181Y010439D02*
X031581Y010439D01*
X031581Y010320D02*
X026181Y010320D01*
X037681Y010795D02*
X043850Y010795D01*
X043731Y010913D02*
X037681Y010913D01*
X037681Y011032D02*
X043613Y011032D01*
X043494Y011150D02*
X037681Y011150D01*
X037681Y011269D02*
X043375Y011269D01*
X043257Y011387D02*
X037681Y011387D01*
X037681Y011506D02*
X043138Y011506D01*
X043020Y011624D02*
X037681Y011624D01*
X037681Y011743D02*
X042901Y011743D01*
X042783Y011862D02*
X037681Y011862D01*
X042481Y008661D02*
X042583Y008661D01*
X042481Y008542D02*
X042702Y008542D01*
X042820Y008424D02*
X042481Y008424D01*
X042481Y008305D02*
X042939Y008305D01*
X043058Y008187D02*
X042481Y008187D01*
X042481Y008068D02*
X043176Y008068D01*
X043295Y007950D02*
X042481Y007950D01*
X042481Y007831D02*
X043413Y007831D01*
X043532Y007713D02*
X042481Y007713D01*
X042481Y007594D02*
X043650Y007594D01*
X043769Y007475D02*
X042481Y007475D01*
X042481Y007357D02*
X043887Y007357D01*
X044006Y007238D02*
X042481Y007238D01*
X042481Y007120D02*
X044124Y007120D01*
X044243Y007001D02*
X042481Y007001D01*
X042481Y006883D02*
X044362Y006883D01*
X044480Y006764D02*
X042481Y006764D01*
X042481Y006646D02*
X044599Y006646D01*
X044717Y006527D02*
X042481Y006527D01*
X042481Y006409D02*
X044836Y006409D01*
X044954Y006290D02*
X042481Y006290D01*
X042481Y006171D02*
X045073Y006171D01*
X045191Y006053D02*
X042481Y006053D01*
X042481Y005934D02*
X045310Y005934D01*
X045428Y005816D02*
X042481Y005816D01*
X042481Y005697D02*
X045547Y005697D01*
X045666Y005579D02*
X042481Y005579D01*
X042481Y005460D02*
X045784Y005460D01*
X045903Y005342D02*
X042481Y005342D01*
X042481Y005223D02*
X046021Y005223D01*
X046140Y005105D02*
X042481Y005105D01*
X042481Y004986D02*
X046258Y004986D01*
X046377Y004867D02*
X042481Y004867D01*
X042481Y004749D02*
X046495Y004749D01*
X046614Y004630D02*
X042481Y004630D01*
X042481Y004512D02*
X046732Y004512D01*
X046851Y004393D02*
X042481Y004393D01*
X042481Y004275D02*
X057181Y004275D01*
X057181Y004393D02*
X054181Y004393D01*
X054181Y004512D02*
X057181Y004512D01*
X057181Y004630D02*
X054181Y004630D01*
X054181Y004749D02*
X057181Y004749D01*
X057181Y004867D02*
X054181Y004867D01*
X054181Y004986D02*
X057181Y004986D01*
X057181Y005105D02*
X054181Y005105D01*
X054181Y005223D02*
X057181Y005223D01*
X057181Y005342D02*
X054181Y005342D01*
X054181Y005460D02*
X057181Y005460D01*
X057181Y005579D02*
X054181Y005579D01*
X054181Y005697D02*
X057181Y005697D01*
X057181Y005816D02*
X054181Y005816D01*
X054181Y005934D02*
X057181Y005934D01*
X057181Y006053D02*
X054181Y006053D01*
X054181Y006171D02*
X057181Y006171D01*
X057181Y006290D02*
X054181Y006290D01*
X054181Y006409D02*
X057181Y006409D01*
X057181Y006527D02*
X054181Y006527D01*
X054181Y006646D02*
X057181Y006646D01*
X057181Y006764D02*
X054181Y006764D01*
X054181Y006883D02*
X057181Y006883D01*
X057181Y007001D02*
X054181Y007001D01*
X054181Y007120D02*
X057181Y007120D01*
X057181Y007238D02*
X054181Y007238D01*
X054181Y007357D02*
X057181Y007357D01*
X057181Y007475D02*
X054181Y007475D01*
X053681Y007001D02*
X044943Y007001D01*
X045062Y006883D02*
X053681Y006883D01*
X053681Y006764D02*
X045180Y006764D01*
X045299Y006646D02*
X053681Y006646D01*
X053681Y006527D02*
X045417Y006527D01*
X045536Y006409D02*
X053681Y006409D01*
X053681Y006290D02*
X045654Y006290D01*
X045773Y006171D02*
X053681Y006171D01*
X053681Y006053D02*
X045891Y006053D01*
X046010Y005934D02*
X053681Y005934D01*
X053681Y005816D02*
X046128Y005816D01*
X046247Y005697D02*
X053681Y005697D01*
X053681Y005579D02*
X046366Y005579D01*
X046484Y005460D02*
X053681Y005460D01*
X053681Y005342D02*
X046603Y005342D01*
X046721Y005223D02*
X053681Y005223D01*
X053681Y005105D02*
X046840Y005105D01*
X046958Y004986D02*
X053681Y004986D01*
X053681Y004867D02*
X047077Y004867D01*
X042481Y004156D02*
X057181Y004156D01*
X057181Y004038D02*
X042481Y004038D01*
X042481Y003919D02*
X057181Y003919D01*
X057181Y003801D02*
X042481Y003801D01*
X042481Y003682D02*
X057181Y003682D01*
X057181Y003564D02*
X042481Y003564D01*
X042481Y003445D02*
X057181Y003445D01*
X057181Y003326D02*
X042481Y003326D01*
X042481Y003208D02*
X057181Y003208D01*
X057181Y003089D02*
X042481Y003089D01*
X042481Y002971D02*
X057181Y002971D01*
X057181Y002852D02*
X042481Y002852D01*
X042481Y002734D02*
X057181Y002734D01*
X057181Y002615D02*
X042481Y002615D01*
X042481Y002497D02*
X057181Y002497D01*
X057181Y002378D02*
X042481Y002378D01*
X042481Y002260D02*
X057181Y002260D01*
X057181Y002141D02*
X042481Y002141D01*
X042481Y002022D02*
X057181Y002022D01*
X057181Y001904D02*
X042481Y001904D01*
X042481Y001785D02*
X057181Y001785D01*
X057181Y001667D02*
X042481Y001667D01*
X042481Y001548D02*
X057181Y001548D01*
X057181Y001430D02*
X042481Y001430D01*
X040681Y038466D02*
X040681Y039063D01*
X015881Y039719D02*
X014237Y039719D01*
X014436Y039838D02*
X015881Y039838D01*
X015881Y039956D02*
X014554Y039956D01*
X014612Y040075D02*
X015881Y040075D01*
X015881Y040193D02*
X014661Y040193D01*
X014674Y040312D02*
X015881Y040312D01*
X015881Y040430D02*
X014674Y040430D01*
X014654Y040549D02*
X015881Y040549D01*
X015881Y040668D02*
X014605Y040668D01*
X014537Y040786D02*
X015881Y040786D01*
X015881Y040905D02*
X014419Y040905D01*
X014197Y041023D02*
X015881Y041023D01*
D46*
X010481Y033663D03*
X009181Y033663D03*
X011681Y030063D03*
X011681Y029063D03*
X013681Y029163D03*
X007481Y023963D03*
X009181Y009988D03*
X032681Y011013D03*
X057181Y032963D03*
X053181Y034363D03*
X055181Y038363D03*
X045681Y039363D03*
X043181Y037863D03*
X039681Y040363D03*
X038681Y041363D03*
X038681Y042363D03*
D47*
X040181Y041363D03*
X041181Y041363D03*
X042181Y041363D03*
X043181Y041363D03*
X044181Y041363D03*
X042481Y036663D03*
X049681Y024363D03*
X057681Y024363D03*
X036181Y009363D03*
X033681Y009363D03*
X031181Y009363D03*
X028681Y009363D03*
X028681Y006363D03*
X028681Y004463D03*
X028681Y002463D03*
X031181Y002463D03*
X031181Y004463D03*
X031181Y006363D03*
X033681Y006363D03*
X033681Y004463D03*
X033681Y002463D03*
X036181Y002463D03*
X036181Y004463D03*
X036181Y006363D03*
X039281Y008863D03*
X040881Y005063D03*
X040881Y002563D03*
X030281Y013063D03*
X027781Y013063D03*
X024181Y008363D03*
X021681Y008363D03*
X019181Y008363D03*
X015681Y007863D03*
X013181Y008363D03*
X010181Y008363D03*
X007181Y008363D03*
X004681Y009863D03*
X002181Y010363D03*
X002181Y008363D03*
X002181Y006363D03*
X004681Y006363D03*
X007181Y005363D03*
X007181Y003863D03*
X007181Y002363D03*
X010181Y002363D03*
X010181Y003863D03*
X010181Y005363D03*
X013181Y005363D03*
X013181Y003863D03*
X013181Y002363D03*
X016181Y002363D03*
X019181Y002363D03*
X021681Y002363D03*
X024181Y002363D03*
X024181Y005363D03*
X021681Y005363D03*
X019181Y005363D03*
X016181Y005363D03*
X008056Y013113D03*
X005556Y013113D03*
X003056Y013113D03*
X014481Y020563D03*
X015481Y020563D03*
X016981Y020563D03*
X017981Y020563D03*
X017981Y024563D03*
X016981Y024563D03*
X015481Y024563D03*
X014481Y024563D03*
X014681Y026463D03*
X014681Y028263D03*
X010181Y026463D03*
D48*
X049681Y024363D02*
X049681Y020463D01*
X049681Y020363D02*
X053681Y020363D01*
X053681Y018163D02*
X057781Y018163D01*
X057781Y018263D02*
X057781Y021575D01*
X057782Y021575D02*
X057784Y021629D01*
X057789Y021682D01*
X057798Y021735D01*
X057811Y021787D01*
X057827Y021839D01*
X057847Y021889D01*
X057870Y021937D01*
X057897Y021984D01*
X057926Y022029D01*
X057959Y022072D01*
X057994Y022112D01*
X058032Y022150D01*
X058072Y022185D01*
X058115Y022218D01*
X058160Y022247D01*
X058207Y022274D01*
X058255Y022297D01*
X058305Y022317D01*
X058357Y022333D01*
X058409Y022346D01*
X058462Y022355D01*
X058515Y022360D01*
X058569Y022362D01*
X058569Y022363D02*
X061181Y022363D01*
X062881Y022363D01*
X062944Y022365D01*
X063006Y022371D01*
X063068Y022381D01*
X063130Y022394D01*
X063190Y022412D01*
X063249Y022433D01*
X063307Y022458D01*
X063363Y022487D01*
X063417Y022519D01*
X063469Y022554D01*
X063518Y022592D01*
X063566Y022634D01*
X063610Y022678D01*
X063652Y022726D01*
X063690Y022775D01*
X063725Y022827D01*
X063757Y022881D01*
X063786Y022937D01*
X063811Y022995D01*
X063832Y023054D01*
X063850Y023114D01*
X063863Y023176D01*
X063873Y023238D01*
X063879Y023300D01*
X063881Y023363D01*
X063881Y031363D01*
X063879Y031426D01*
X063873Y031488D01*
X063863Y031550D01*
X063850Y031612D01*
X063832Y031672D01*
X063811Y031731D01*
X063786Y031789D01*
X063757Y031845D01*
X063725Y031899D01*
X063690Y031951D01*
X063652Y032000D01*
X063610Y032048D01*
X063566Y032092D01*
X063518Y032134D01*
X063469Y032172D01*
X063417Y032207D01*
X063363Y032239D01*
X063307Y032268D01*
X063249Y032293D01*
X063190Y032314D01*
X063130Y032332D01*
X063068Y032345D01*
X063006Y032355D01*
X062944Y032361D01*
X062881Y032363D01*
X061181Y032363D01*
X061181Y024363D02*
X057681Y024363D01*
D49*
X049681Y024363D02*
X049681Y026863D01*
X049681Y034363D01*
X049681Y038663D01*
X055181Y036363D02*
X057181Y036363D01*
X061181Y036363D01*
X061181Y034363D02*
X057181Y034363D01*
X055181Y034363D01*
D50*
X057181Y037763D02*
X055181Y038363D01*
X047681Y034363D02*
X045681Y034363D01*
X045681Y026863D02*
X047581Y026863D01*
X046681Y019863D02*
X045681Y019863D01*
X046681Y019863D02*
X046725Y019861D01*
X046768Y019855D01*
X046810Y019846D01*
X046852Y019833D01*
X046892Y019816D01*
X046931Y019796D01*
X046968Y019773D01*
X047002Y019746D01*
X047035Y019717D01*
X047064Y019684D01*
X047091Y019650D01*
X047114Y019613D01*
X047134Y019574D01*
X047151Y019534D01*
X047164Y019492D01*
X047173Y019450D01*
X047179Y019407D01*
X047181Y019363D01*
X047181Y016863D01*
X047181Y015863D02*
X047181Y013770D01*
X047328Y013416D02*
X048235Y012509D01*
X048589Y012363D02*
X049681Y012363D01*
X048589Y012363D02*
X048545Y012365D01*
X048502Y012371D01*
X048460Y012380D01*
X048418Y012393D01*
X048378Y012410D01*
X048339Y012430D01*
X048302Y012453D01*
X048268Y012480D01*
X048235Y012509D01*
X047327Y013416D02*
X047298Y013449D01*
X047271Y013483D01*
X047248Y013520D01*
X047228Y013559D01*
X047211Y013599D01*
X047198Y013641D01*
X047189Y013683D01*
X047183Y013726D01*
X047181Y013770D01*
X049681Y014563D02*
X049681Y018163D01*
X053681Y012363D02*
X058281Y012363D01*
X058281Y011663D01*
X058283Y011619D01*
X058289Y011576D01*
X058298Y011534D01*
X058311Y011492D01*
X058328Y011452D01*
X058348Y011413D01*
X058371Y011376D01*
X058398Y011342D01*
X058427Y011309D01*
X058460Y011280D01*
X058494Y011253D01*
X058531Y011230D01*
X058570Y011210D01*
X058610Y011193D01*
X058652Y011180D01*
X058694Y011171D01*
X058737Y011165D01*
X058781Y011163D01*
X061681Y011163D01*
X061681Y012363D02*
X058281Y012363D01*
X058569Y013563D02*
X061681Y013563D01*
X058569Y013563D02*
X058515Y013565D01*
X058462Y013570D01*
X058409Y013579D01*
X058357Y013592D01*
X058305Y013608D01*
X058255Y013628D01*
X058207Y013651D01*
X058160Y013678D01*
X058115Y013707D01*
X058072Y013740D01*
X058032Y013775D01*
X057994Y013813D01*
X057959Y013853D01*
X057926Y013896D01*
X057897Y013941D01*
X057870Y013988D01*
X057847Y014036D01*
X057827Y014086D01*
X057811Y014138D01*
X057798Y014190D01*
X057789Y014243D01*
X057784Y014296D01*
X057782Y014350D01*
X057781Y014350D02*
X057781Y015963D01*
D51*
X037681Y035263D02*
X037681Y041113D01*
X037683Y041143D01*
X037688Y041173D01*
X037697Y041202D01*
X037710Y041229D01*
X037725Y041255D01*
X037744Y041279D01*
X037765Y041300D01*
X037789Y041319D01*
X037815Y041334D01*
X037842Y041347D01*
X037871Y041356D01*
X037901Y041361D01*
X037931Y041363D01*
X038681Y041363D01*
X038681Y041463D01*
X038681Y041363D02*
X038681Y039063D01*
X038681Y041363D02*
X040181Y041363D01*
X041681Y036663D02*
X042481Y036663D01*
X012981Y029363D02*
X012681Y029363D01*
X012681Y029863D02*
X012381Y029863D01*
X012381Y028863D02*
X012314Y028865D01*
X012247Y028870D01*
X012181Y028878D01*
X012115Y028890D01*
X012049Y028905D01*
X011985Y028924D01*
X011921Y028945D01*
X011859Y028970D01*
X011798Y028998D01*
X011739Y029029D01*
X011681Y029063D01*
X012381Y028863D02*
X012681Y028863D01*
X012981Y029363D02*
X013048Y029364D01*
X013116Y029361D01*
X013183Y029354D01*
X013249Y029343D01*
X013315Y029328D01*
X013379Y029310D01*
X013443Y029288D01*
X013505Y029262D01*
X013566Y029232D01*
X013624Y029199D01*
X013681Y029163D01*
X012681Y027863D02*
X012381Y027863D01*
X012381Y029863D02*
X012314Y029865D01*
X012247Y029870D01*
X012181Y029878D01*
X012115Y029890D01*
X012049Y029905D01*
X011985Y029924D01*
X011921Y029945D01*
X011859Y029970D01*
X011798Y029998D01*
X011739Y030029D01*
X011681Y030063D01*
D52*
X038681Y035263D02*
X039431Y035263D01*
X039461Y035261D01*
X039491Y035256D01*
X039520Y035247D01*
X039547Y035234D01*
X039573Y035219D01*
X039597Y035200D01*
X039618Y035179D01*
X039637Y035155D01*
X039652Y035129D01*
X039665Y035102D01*
X039674Y035073D01*
X039679Y035043D01*
X039681Y035013D01*
X039681Y024113D01*
X039683Y024083D01*
X039688Y024053D01*
X039697Y024024D01*
X039710Y023997D01*
X039725Y023971D01*
X039744Y023947D01*
X039765Y023926D01*
X039789Y023907D01*
X039815Y023892D01*
X039842Y023879D01*
X039871Y023870D01*
X039901Y023865D01*
X039931Y023863D01*
X040931Y023863D01*
X040961Y023861D01*
X040991Y023856D01*
X041020Y023847D01*
X041047Y023834D01*
X041073Y023819D01*
X041097Y023800D01*
X041118Y023779D01*
X041137Y023755D01*
X041152Y023729D01*
X041165Y023702D01*
X041174Y023673D01*
X041179Y023643D01*
X041181Y023613D01*
X041181Y019113D01*
X041183Y019083D01*
X041188Y019053D01*
X041197Y019024D01*
X041210Y018997D01*
X041225Y018971D01*
X041244Y018947D01*
X041265Y018926D01*
X041289Y018907D01*
X041315Y018892D01*
X041342Y018879D01*
X041371Y018870D01*
X041401Y018865D01*
X041431Y018863D01*
X042681Y018863D01*
X042681Y026863D02*
X041181Y026863D01*
X041181Y027863D02*
X041181Y030759D01*
X041108Y030936D02*
X040255Y031790D01*
X040181Y031966D02*
X040181Y036563D01*
X039681Y036663D02*
X039681Y037259D01*
X039755Y037436D02*
X040608Y038290D01*
X040608Y038289D02*
X040626Y038310D01*
X040643Y038333D01*
X040656Y038358D01*
X040667Y038383D01*
X040675Y038410D01*
X040679Y038438D01*
X040681Y038466D01*
X041181Y038166D02*
X041179Y038138D01*
X041175Y038110D01*
X041167Y038083D01*
X041156Y038058D01*
X041143Y038033D01*
X041126Y038010D01*
X041108Y037989D01*
X041108Y037990D02*
X040755Y037636D01*
X040681Y037459D02*
X040681Y036663D01*
X041181Y036663D02*
X041181Y035363D01*
X041181Y034363D02*
X042681Y034363D01*
X040181Y031966D02*
X040183Y031938D01*
X040187Y031910D01*
X040195Y031883D01*
X040206Y031858D01*
X040219Y031833D01*
X040236Y031810D01*
X040254Y031789D01*
X041108Y030936D02*
X041126Y030915D01*
X041143Y030892D01*
X041156Y030868D01*
X041167Y030842D01*
X041175Y030815D01*
X041179Y030787D01*
X041181Y030759D01*
X038681Y035263D02*
X038681Y036663D01*
X039181Y036663D02*
X039181Y039063D01*
X039681Y039063D02*
X039681Y040363D01*
X040255Y039836D02*
X041108Y040690D01*
X041181Y040866D02*
X041181Y041363D01*
X041181Y041863D01*
X041183Y041907D01*
X041189Y041950D01*
X041198Y041992D01*
X041211Y042034D01*
X041228Y042074D01*
X041248Y042113D01*
X041271Y042150D01*
X041298Y042184D01*
X041327Y042217D01*
X041360Y042246D01*
X041394Y042273D01*
X041431Y042296D01*
X041470Y042316D01*
X041510Y042333D01*
X041552Y042346D01*
X041594Y042355D01*
X041637Y042361D01*
X041681Y042363D01*
X045181Y042363D01*
X045225Y042361D01*
X045268Y042355D01*
X045310Y042346D01*
X045352Y042333D01*
X045392Y042316D01*
X045431Y042296D01*
X045468Y042273D01*
X045502Y042246D01*
X045535Y042217D01*
X045564Y042184D01*
X045591Y042150D01*
X045614Y042113D01*
X045634Y042074D01*
X045651Y042034D01*
X045664Y041992D01*
X045673Y041950D01*
X045679Y041907D01*
X045681Y041863D01*
X045681Y040363D01*
X043181Y040613D02*
X043181Y041363D01*
X043181Y038863D01*
X042931Y040363D02*
X041885Y040363D01*
X041708Y040290D02*
X041255Y039836D01*
X041181Y039659D02*
X041181Y038166D01*
X040754Y037636D02*
X040736Y037615D01*
X040719Y037592D01*
X040706Y037568D01*
X040695Y037542D01*
X040687Y037515D01*
X040683Y037487D01*
X040681Y037459D01*
X039754Y037436D02*
X039736Y037415D01*
X039719Y037392D01*
X039706Y037368D01*
X039695Y037342D01*
X039687Y037315D01*
X039683Y037287D01*
X039681Y037259D01*
X040181Y039063D02*
X040181Y039659D01*
X040183Y039687D01*
X040187Y039715D01*
X040195Y039742D01*
X040206Y039768D01*
X040219Y039792D01*
X040236Y039815D01*
X040254Y039836D01*
X041181Y039659D02*
X041183Y039687D01*
X041187Y039715D01*
X041195Y039742D01*
X041206Y039768D01*
X041219Y039792D01*
X041236Y039815D01*
X041254Y039836D01*
X041708Y040290D02*
X041729Y040308D01*
X041752Y040325D01*
X041777Y040338D01*
X041802Y040349D01*
X041829Y040357D01*
X041857Y040361D01*
X041885Y040363D01*
X042931Y040363D02*
X042961Y040365D01*
X042991Y040370D01*
X043020Y040379D01*
X043047Y040392D01*
X043073Y040407D01*
X043097Y040426D01*
X043118Y040447D01*
X043137Y040471D01*
X043152Y040497D01*
X043165Y040524D01*
X043174Y040553D01*
X043179Y040583D01*
X043181Y040613D01*
X041181Y040866D02*
X041179Y040838D01*
X041175Y040810D01*
X041167Y040783D01*
X041156Y040758D01*
X041143Y040733D01*
X041126Y040710D01*
X041108Y040689D01*
D53*
X030681Y042477D02*
X030681Y043063D01*
X030679Y043126D01*
X030673Y043188D01*
X030663Y043250D01*
X030650Y043312D01*
X030632Y043372D01*
X030611Y043431D01*
X030586Y043489D01*
X030557Y043545D01*
X030525Y043599D01*
X030490Y043651D01*
X030452Y043700D01*
X030410Y043748D01*
X030366Y043792D01*
X030318Y043834D01*
X030269Y043872D01*
X030217Y043907D01*
X030163Y043939D01*
X030107Y043968D01*
X030049Y043993D01*
X029990Y044014D01*
X029930Y044032D01*
X029868Y044045D01*
X029806Y044055D01*
X029744Y044061D01*
X029681Y044063D01*
X025081Y044063D01*
X025081Y042363D01*
X025681Y041363D02*
X025681Y038863D01*
X025683Y038819D01*
X025689Y038776D01*
X025698Y038734D01*
X025711Y038692D01*
X025728Y038652D01*
X025748Y038613D01*
X025771Y038576D01*
X025798Y038542D01*
X025827Y038509D01*
X025860Y038480D01*
X025894Y038453D01*
X025931Y038430D01*
X025970Y038410D01*
X026010Y038393D01*
X026052Y038380D01*
X026094Y038371D01*
X026137Y038365D01*
X026181Y038363D01*
X026681Y038363D01*
X027281Y038363D01*
X027325Y038365D01*
X027368Y038371D01*
X027410Y038380D01*
X027452Y038393D01*
X027492Y038410D01*
X027531Y038430D01*
X027568Y038453D01*
X027602Y038480D01*
X027635Y038509D01*
X027664Y038542D01*
X027691Y038576D01*
X027714Y038613D01*
X027734Y038652D01*
X027751Y038692D01*
X027764Y038734D01*
X027773Y038776D01*
X027779Y038819D01*
X027781Y038863D01*
X027781Y041363D01*
X028881Y041363D02*
X028881Y037363D01*
X028879Y037319D01*
X028873Y037276D01*
X028864Y037234D01*
X028851Y037192D01*
X028834Y037152D01*
X028814Y037113D01*
X028791Y037076D01*
X028764Y037042D01*
X028735Y037009D01*
X028702Y036980D01*
X028668Y036953D01*
X028631Y036930D01*
X028592Y036910D01*
X028552Y036893D01*
X028510Y036880D01*
X028468Y036871D01*
X028425Y036865D01*
X028381Y036863D01*
X027081Y036863D01*
X025289Y036863D01*
X024935Y037009D02*
X023628Y038316D01*
X023481Y038670D02*
X023481Y041363D01*
X022981Y042363D01*
X025081Y044063D02*
X018081Y044063D01*
X018018Y044061D01*
X017956Y044055D01*
X017894Y044045D01*
X017832Y044032D01*
X017772Y044014D01*
X017713Y043993D01*
X017655Y043968D01*
X017599Y043939D01*
X017545Y043907D01*
X017493Y043872D01*
X017444Y043834D01*
X017396Y043792D01*
X017352Y043748D01*
X017310Y043700D01*
X017272Y043651D01*
X017237Y043599D01*
X017205Y043545D01*
X017176Y043489D01*
X017151Y043431D01*
X017130Y043372D01*
X017112Y043312D01*
X017099Y043250D01*
X017089Y043188D01*
X017083Y043126D01*
X017081Y043063D01*
X017081Y041863D01*
X017081Y039863D01*
X017083Y039800D01*
X017089Y039738D01*
X017099Y039676D01*
X017112Y039614D01*
X017130Y039554D01*
X017151Y039495D01*
X017176Y039437D01*
X017205Y039381D01*
X017237Y039327D01*
X017272Y039275D01*
X017310Y039226D01*
X017352Y039178D01*
X017396Y039134D01*
X017444Y039092D01*
X017493Y039054D01*
X017545Y039019D01*
X017599Y038987D01*
X017655Y038958D01*
X017713Y038933D01*
X017772Y038912D01*
X017832Y038894D01*
X017894Y038881D01*
X017956Y038871D01*
X018018Y038865D01*
X018081Y038863D01*
X018981Y038863D01*
X019681Y037863D02*
X019681Y035363D01*
X023627Y038316D02*
X023598Y038349D01*
X023571Y038383D01*
X023548Y038420D01*
X023528Y038459D01*
X023511Y038499D01*
X023498Y038541D01*
X023489Y038583D01*
X023483Y038626D01*
X023481Y038670D01*
X030388Y041770D02*
X030430Y041814D01*
X030468Y041860D01*
X030504Y041909D01*
X030537Y041960D01*
X030566Y042012D01*
X030593Y042067D01*
X030616Y042122D01*
X030636Y042180D01*
X030652Y042238D01*
X030665Y042297D01*
X030674Y042357D01*
X030679Y042417D01*
X030681Y042477D01*
D54*
X030389Y041770D02*
X029981Y041363D01*
X025289Y036863D02*
X025245Y036865D01*
X025202Y036871D01*
X025160Y036880D01*
X025118Y036893D01*
X025078Y036910D01*
X025039Y036930D01*
X025002Y036953D01*
X024968Y036980D01*
X024935Y037009D01*
D55*
X027081Y036863D03*
X026681Y038363D03*
D56*
X027781Y015813D02*
X024381Y015263D01*
D57*
X027181Y018663D02*
X035981Y018663D01*
X036044Y018661D01*
X036106Y018655D01*
X036168Y018645D01*
X036230Y018632D01*
X036290Y018614D01*
X036349Y018593D01*
X036407Y018568D01*
X036463Y018539D01*
X036517Y018507D01*
X036569Y018472D01*
X036618Y018434D01*
X036666Y018392D01*
X036710Y018348D01*
X036752Y018300D01*
X036790Y018251D01*
X036825Y018199D01*
X036857Y018145D01*
X036886Y018089D01*
X036911Y018031D01*
X036932Y017972D01*
X036950Y017912D01*
X036963Y017850D01*
X036973Y017788D01*
X036979Y017726D01*
X036981Y017663D01*
X036981Y016463D01*
X015181Y033163D02*
X009181Y033163D01*
X009581Y033563D02*
X015081Y033563D01*
M02*
