G75*
G70*
%OFA0B0*%
%FSLAX24Y24*%
%IPPOS*%
%LPD*%
%AMOC8*
5,1,8,0,0,1.08239X$1,22.5*
%
%ADD10C,0.1580*%
%ADD11R,0.6600X0.6000*%
%ADD12R,0.5500X0.3400*%
%ADD13C,0.1025*%
%ADD14C,0.0907*%
%ADD15R,0.0880X0.0680*%
%ADD16R,0.0680X0.0880*%
%ADD17O,0.1970X0.1025*%
%ADD18C,0.1380*%
%ADD19C,0.0730*%
%ADD20O,0.1120X0.0600*%
%ADD21C,0.0595*%
%ADD22R,0.1080X0.1480*%
%ADD23OC8,0.0680*%
%ADD24C,0.2080*%
%ADD25R,0.2080X0.2080*%
%ADD26C,0.0674*%
%ADD27R,0.1280X0.1280*%
%ADD28C,0.1582*%
%ADD29C,0.0555*%
%ADD30C,0.0611*%
%ADD31C,0.0671*%
D10*
X002181Y002363D03*
X002181Y043363D03*
X063181Y043363D03*
X063181Y002363D03*
D11*
X019481Y033663D03*
D12*
X020031Y031463D03*
D13*
X013981Y040363D03*
X012381Y040363D03*
X007981Y040363D03*
X006381Y040363D03*
D14*
X012381Y035063D03*
X012381Y031663D03*
X017181Y028363D03*
X017181Y026363D03*
X017981Y018663D03*
X021681Y016563D03*
X024381Y015263D03*
X021681Y013163D03*
X036981Y016463D03*
X038981Y016463D03*
X050681Y006063D03*
X050681Y002663D03*
X045681Y003813D03*
X017081Y041863D03*
D15*
X021881Y040063D03*
X021881Y039063D03*
X030081Y035563D03*
X030081Y034563D03*
X030081Y033363D03*
X030081Y032363D03*
X035681Y033363D03*
X035681Y034363D03*
X037681Y032563D03*
X037681Y031563D03*
X010481Y032663D03*
X010481Y033663D03*
X009181Y033663D03*
X009181Y032663D03*
X007781Y032363D03*
X006481Y032363D03*
X006481Y031363D03*
X007781Y031363D03*
X007781Y034063D03*
X007781Y035063D03*
X006481Y035063D03*
X006481Y034063D03*
X024381Y011863D03*
X024381Y010863D03*
X019181Y010863D03*
X019181Y009863D03*
X038181Y007563D03*
X038181Y006563D03*
X038181Y004813D03*
X038181Y003813D03*
D16*
X039931Y007563D03*
X040931Y007563D03*
X022181Y010863D03*
X021181Y010863D03*
X007481Y023963D03*
X006481Y023963D03*
X015281Y037863D03*
X016281Y037863D03*
X017081Y040063D03*
X018081Y040063D03*
X019381Y040063D03*
X020381Y040063D03*
X033281Y036863D03*
X034281Y036863D03*
X033081Y026363D03*
X032081Y026363D03*
D17*
X061181Y024363D03*
X061181Y022363D03*
X061181Y020363D03*
X061181Y030363D03*
X061181Y032363D03*
X061181Y034363D03*
X061181Y036363D03*
D18*
X063481Y012363D03*
D19*
X061681Y012363D03*
X061681Y013563D03*
X061681Y011163D03*
D20*
X045681Y024863D03*
X045681Y025863D03*
X045681Y026863D03*
X042681Y026863D03*
X042681Y025863D03*
X042681Y024863D03*
X042681Y032363D03*
X042681Y033363D03*
X042681Y034363D03*
X045681Y034363D03*
X045681Y033363D03*
X045681Y032363D03*
D21*
X045681Y019863D03*
X045681Y018863D03*
X042681Y018863D03*
X042681Y019863D03*
D22*
X037481Y025163D03*
X035681Y025163D03*
X030481Y025163D03*
X028681Y025163D03*
X017081Y041863D03*
X015281Y041863D03*
X041281Y043063D03*
X043081Y043063D03*
D23*
X029961Y041363D03*
X028881Y041363D03*
X027801Y041363D03*
X026721Y041363D03*
X025641Y041363D03*
X024561Y041363D03*
X023481Y041363D03*
X022401Y041363D03*
X022941Y042363D03*
X024021Y042363D03*
X025101Y042363D03*
X026181Y042363D03*
X027261Y042363D03*
X028341Y042363D03*
X029421Y042363D03*
D24*
X032741Y041863D03*
X019621Y041863D03*
X019681Y031863D03*
D25*
X021581Y035063D03*
X024581Y035063D03*
X017381Y035063D03*
X014381Y035063D03*
X014981Y024063D03*
X017481Y024063D03*
X017481Y021063D03*
X014981Y021063D03*
D26*
X028681Y027663D03*
X028681Y029063D03*
X030181Y029763D03*
X030181Y028363D03*
X030181Y026963D03*
X035681Y027663D03*
X037181Y028363D03*
X035681Y029063D03*
X037181Y029763D03*
X037181Y026963D03*
X021081Y037863D03*
X020381Y038863D03*
X019681Y037863D03*
X018981Y038863D03*
X018281Y037863D03*
D27*
X026281Y030863D03*
X028681Y030863D03*
X033781Y030863D03*
X033781Y028463D03*
D28*
X033681Y033363D03*
X026681Y033363D03*
X026681Y023363D03*
X033681Y023363D03*
D29*
X032681Y011013D03*
X009181Y009988D03*
X007481Y023963D03*
X011681Y029063D03*
X011681Y030063D03*
X013681Y029163D03*
X010481Y033663D03*
X009181Y033663D03*
X038681Y041363D03*
X039681Y040363D03*
X038681Y042363D03*
X043181Y037863D03*
X045681Y039363D03*
X053181Y034363D03*
X057181Y032963D03*
X055181Y038363D03*
D30*
X044181Y041363D03*
X043181Y041363D03*
X042181Y041363D03*
X041181Y041363D03*
X040181Y041363D03*
X042481Y036663D03*
X049681Y024363D03*
X057681Y024363D03*
X036181Y009363D03*
X033681Y009363D03*
X031181Y009363D03*
X028681Y009363D03*
X028681Y006363D03*
X028681Y004463D03*
X028681Y002463D03*
X031181Y002463D03*
X031181Y004463D03*
X031181Y006363D03*
X033681Y006363D03*
X033681Y004463D03*
X033681Y002463D03*
X036181Y002463D03*
X036181Y004463D03*
X036181Y006363D03*
X039281Y008863D03*
X040881Y005063D03*
X040881Y002563D03*
X030281Y013063D03*
X027781Y013063D03*
X024181Y008363D03*
X021681Y008363D03*
X019181Y008363D03*
X015681Y007863D03*
X013181Y008363D03*
X010181Y008363D03*
X007181Y008363D03*
X004681Y009863D03*
X002181Y010363D03*
X002181Y008363D03*
X002181Y006363D03*
X004681Y006363D03*
X007181Y005363D03*
X007181Y003863D03*
X007181Y002363D03*
X010181Y002363D03*
X010181Y003863D03*
X010181Y005363D03*
X013181Y005363D03*
X013181Y003863D03*
X013181Y002363D03*
X016181Y002363D03*
X019181Y002363D03*
X021681Y002363D03*
X024181Y002363D03*
X024181Y005363D03*
X021681Y005363D03*
X019181Y005363D03*
X016181Y005363D03*
X008056Y013113D03*
X005556Y013113D03*
X003056Y013113D03*
X014481Y020563D03*
X015481Y020563D03*
X016981Y020563D03*
X017981Y020563D03*
X017981Y024563D03*
X016981Y024563D03*
X015481Y024563D03*
X014481Y024563D03*
X014681Y026463D03*
X014681Y028263D03*
X010181Y026463D03*
D31*
X027081Y036863D03*
X026681Y038363D03*
M02*
