G75*
G70*
%OFA0B0*%
%FSLAX24Y24*%
%IPPOS*%
%LPD*%
%AMOC8*
5,1,8,0,0,1.08239X$1,22.5*
%
%ADD10R,0.3250X0.3750*%
%ADD11R,0.7500X0.7625*%
%ADD12R,0.8000X0.4875*%
%ADD13C,0.1580*%
%ADD14R,0.4500X0.5200*%
%ADD15R,0.6300X0.4400*%
%ADD16R,0.7000X0.8700*%
%ADD17R,0.5400X0.4900*%
%ADD18R,0.3200X0.3650*%
%ADD19R,0.3400X0.4100*%
%ADD20R,0.5600X0.3500*%
%ADD21R,0.5200X0.9700*%
%ADD22R,0.3100X0.5000*%
%ADD23R,0.7200X0.7000*%
%ADD24R,0.0800X0.0800*%
%ADD25C,0.1025*%
%ADD26R,0.0430X0.0980*%
%ADD27R,0.1080X0.0880*%
%ADD28R,0.0880X0.0980*%
%ADD29R,0.2080X0.2080*%
%ADD30R,0.0880X0.1080*%
%ADD31C,0.0907*%
%ADD32O,0.1970X0.1025*%
%ADD33C,0.1380*%
%ADD34C,0.0730*%
%ADD35R,0.2580X0.2080*%
%ADD36R,0.1080X0.0780*%
%ADD37R,0.2080X0.2580*%
%ADD38R,0.0780X0.1080*%
%ADD39R,0.1080X0.1080*%
%ADD40O,0.1120X0.0600*%
%ADD41R,0.1680X0.1280*%
%ADD42C,0.0595*%
%ADD43R,0.0880X0.0680*%
%ADD44R,0.0340X0.0880*%
%ADD45R,0.0680X0.0880*%
%ADD46OC8,0.0680*%
%ADD47C,0.2080*%
%ADD48R,0.0980X0.0880*%
%ADD49R,0.0980X0.0430*%
%ADD50C,0.0674*%
%ADD51C,0.1582*%
%ADD52C,0.0555*%
%ADD53C,0.0611*%
%ADD54C,0.0671*%
D10*
X015681Y011838D03*
D11*
X010181Y005300D03*
D12*
X016181Y003925D03*
D13*
X002181Y002363D03*
X002181Y043363D03*
X063181Y043363D03*
X063181Y002363D03*
D14*
X051431Y038563D03*
D15*
X052431Y030663D03*
D16*
X033881Y005813D03*
D17*
X029481Y003913D03*
D18*
X039281Y012588D03*
D19*
X021181Y022013D03*
D20*
X018581Y027413D03*
D21*
X008481Y026313D03*
D22*
X007431Y031863D03*
D23*
X019281Y033263D03*
D24*
X049681Y024363D03*
X057681Y024363D03*
D25*
X013981Y040363D03*
X012381Y040363D03*
X007981Y040363D03*
X006381Y040363D03*
D26*
X032181Y011863D03*
X032681Y011863D03*
X033181Y011863D03*
X033681Y011863D03*
X034181Y011863D03*
X034681Y011863D03*
X035181Y011863D03*
X011681Y010863D03*
X011181Y010863D03*
X010681Y010863D03*
X010181Y010863D03*
X009681Y010863D03*
X009181Y010863D03*
X008681Y010863D03*
D27*
X013056Y011438D03*
X013056Y010038D03*
X012681Y023263D03*
X012681Y024663D03*
X036581Y012463D03*
X036581Y011063D03*
X057181Y032963D03*
X057181Y034363D03*
X057181Y036363D03*
X057181Y037763D03*
D28*
X022081Y018963D03*
X020281Y018963D03*
X016581Y008838D03*
X014781Y008838D03*
X038381Y009763D03*
X040181Y009763D03*
D29*
X040681Y005063D03*
X043681Y005063D03*
X043681Y002563D03*
X040681Y002563D03*
X030281Y012863D03*
X027781Y012863D03*
X027781Y015863D03*
X030281Y015863D03*
X024181Y011113D03*
X021681Y011113D03*
X019181Y011113D03*
X019181Y008113D03*
X021681Y008113D03*
X024181Y008113D03*
X008056Y012863D03*
X005556Y012863D03*
X003056Y012863D03*
X003056Y015863D03*
X005556Y015863D03*
X008056Y015863D03*
X014981Y021063D03*
X017481Y021063D03*
X017481Y024063D03*
X014981Y024063D03*
D30*
X011381Y012363D03*
X009981Y012363D03*
X033481Y013363D03*
X034881Y013363D03*
D31*
X036981Y016463D03*
X038981Y016463D03*
X024381Y015263D03*
X021681Y016563D03*
X017981Y018663D03*
X021681Y013163D03*
X017181Y026363D03*
X017181Y028363D03*
X012381Y031663D03*
X012381Y035063D03*
X017081Y041863D03*
X050681Y006063D03*
X050681Y002663D03*
X045681Y003813D03*
D32*
X061181Y020363D03*
X061181Y022363D03*
X061181Y024363D03*
X061181Y030363D03*
X061181Y032363D03*
X061181Y034363D03*
X061181Y036363D03*
D33*
X063481Y012363D03*
D34*
X061681Y012363D03*
X061681Y013563D03*
X061681Y011163D03*
D35*
X052381Y037363D03*
D36*
X055181Y038363D03*
X055181Y036363D03*
D37*
X054181Y031563D03*
D38*
X053181Y034363D03*
X055181Y034363D03*
D39*
X049681Y034363D03*
X047681Y034363D03*
X047681Y026863D03*
X049681Y026863D03*
D40*
X045681Y026863D03*
X045681Y025863D03*
X045681Y024863D03*
X042681Y024863D03*
X042681Y025863D03*
X042681Y026863D03*
X042681Y032363D03*
X042681Y033363D03*
X042681Y034363D03*
X045681Y034363D03*
X045681Y033363D03*
X045681Y032363D03*
D41*
X049681Y020363D03*
X049681Y018163D03*
X053681Y018163D03*
X053681Y020363D03*
X057781Y018163D03*
X057781Y015963D03*
X053681Y014563D03*
X053681Y012363D03*
X049681Y012363D03*
X049681Y014563D03*
D42*
X045681Y018863D03*
X045681Y019863D03*
X042681Y019863D03*
X042681Y018863D03*
D43*
X047181Y016863D03*
X047181Y015863D03*
X041181Y026863D03*
X041181Y027863D03*
X041181Y034363D03*
X041181Y035363D03*
X043181Y037863D03*
X043181Y038863D03*
X045681Y039363D03*
X045681Y040363D03*
X038681Y041363D03*
X038681Y042363D03*
D44*
X038681Y039073D03*
X039181Y039073D03*
X039681Y039073D03*
X040181Y039073D03*
X040681Y039073D03*
X041181Y039073D03*
X041681Y039073D03*
X041681Y036653D03*
X041181Y036653D03*
X040681Y036653D03*
X040181Y036653D03*
X039681Y036653D03*
X039181Y036653D03*
X038681Y036653D03*
D45*
X038681Y035263D03*
X037681Y035263D03*
D46*
X029961Y041363D03*
X028881Y041363D03*
X027801Y041363D03*
X026721Y041363D03*
X025641Y041363D03*
X024561Y041363D03*
X023481Y041363D03*
X022401Y041363D03*
X022941Y042363D03*
X024021Y042363D03*
X025101Y042363D03*
X026181Y042363D03*
X027261Y042363D03*
X028341Y042363D03*
X029421Y042363D03*
D47*
X032741Y041863D03*
X019621Y041863D03*
X019681Y031863D03*
D48*
X014681Y028263D03*
X014681Y026463D03*
D49*
X012681Y026863D03*
X012681Y027363D03*
X012681Y027863D03*
X012681Y028363D03*
X012681Y028863D03*
X012681Y029363D03*
X012681Y029863D03*
D50*
X018281Y037863D03*
X018981Y038863D03*
X019681Y037863D03*
X020381Y038863D03*
X021081Y037863D03*
X030181Y029763D03*
X030181Y028363D03*
X030181Y026963D03*
X028681Y027663D03*
X028681Y029063D03*
X035681Y029063D03*
X037181Y029763D03*
X037181Y028363D03*
X035681Y027663D03*
X037181Y026963D03*
D51*
X033681Y023363D03*
X026681Y023363D03*
X026681Y033363D03*
X033681Y033363D03*
D52*
X039681Y040363D03*
X038681Y041363D03*
X038681Y042363D03*
X043181Y037863D03*
X045681Y039363D03*
X053181Y034363D03*
X057181Y032963D03*
X055181Y038363D03*
X032681Y011013D03*
X009181Y009988D03*
X007481Y023963D03*
X011681Y029063D03*
X011681Y030063D03*
X013681Y029163D03*
X010481Y033663D03*
X009181Y033663D03*
D53*
X014681Y028263D03*
X014681Y026463D03*
X014481Y024563D03*
X015481Y024563D03*
X016981Y024563D03*
X017981Y024563D03*
X017981Y020563D03*
X016981Y020563D03*
X015481Y020563D03*
X014481Y020563D03*
X010181Y026463D03*
X008056Y013113D03*
X005556Y013113D03*
X003056Y013113D03*
X002181Y010363D03*
X002181Y008363D03*
X004681Y009863D03*
X007181Y008363D03*
X010181Y008363D03*
X013181Y008363D03*
X015681Y007863D03*
X016181Y005363D03*
X013181Y005363D03*
X013181Y003863D03*
X013181Y002363D03*
X016181Y002363D03*
X019181Y002363D03*
X021681Y002363D03*
X024181Y002363D03*
X024181Y005363D03*
X021681Y005363D03*
X019181Y005363D03*
X019181Y008363D03*
X021681Y008363D03*
X024181Y008363D03*
X028681Y009363D03*
X031181Y009363D03*
X033681Y009363D03*
X036181Y009363D03*
X039281Y008863D03*
X036181Y006363D03*
X036181Y004463D03*
X036181Y002463D03*
X033681Y002463D03*
X033681Y004463D03*
X033681Y006363D03*
X031181Y006363D03*
X031181Y004463D03*
X031181Y002463D03*
X028681Y002463D03*
X028681Y004463D03*
X028681Y006363D03*
X027781Y013063D03*
X030281Y013063D03*
X040881Y005063D03*
X040881Y002563D03*
X010181Y002363D03*
X010181Y003863D03*
X010181Y005363D03*
X007181Y005363D03*
X007181Y003863D03*
X007181Y002363D03*
X004681Y006363D03*
X002181Y006363D03*
X042481Y036663D03*
X042181Y041363D03*
X041181Y041363D03*
X040181Y041363D03*
X043181Y041363D03*
X044181Y041363D03*
X049681Y024363D03*
X057681Y024363D03*
D54*
X027081Y036863D03*
X026681Y038363D03*
M02*
