%
M48
M72
T01C0.1500
T02C0.0630
T03C0.0551
T04C0.1300
T05C0.0433
T06C0.0320
T07C0.0315
T08C0.0400
T09C0.1600
T10C0.0394
T11C0.1102
T12C0.0354
%
T01
X218Y236
X218Y4336
X6318Y4336
X6318Y236
T02
X6118Y2036
X6118Y2236
X6118Y2436
X6118Y3036
X6118Y3236
X6118Y3436
X6118Y3636
X1398Y4036
X1238Y4036
X798Y4036
X638Y4036
T03
X1238Y3506
X1238Y3166
X1718Y2836
X1718Y2636
X1798Y1866
X2168Y1656
X2438Y1526
X2168Y1316
X3698Y1646
X3898Y1646
X5068Y606
X5068Y266
X4568Y381
X1708Y4186
T04
X1962Y4186
X3274Y4186
X6348Y1236
T05
X6168Y1236
X6168Y1356
X6168Y1116
T06
X4568Y2486
X4568Y2586
X4568Y2686
X4268Y2686
X4268Y2586
X4268Y2486
X4268Y3236
X4268Y3336
X4268Y3436
X4568Y3436
X4568Y3336
X4568Y3236
T07
X4318Y3786
X4568Y3936
X3968Y4036
X3868Y4136
X3868Y4236
X5318Y3436
X5718Y3296
X5518Y3836
X4568Y1986
X4568Y1886
X4268Y1886
X4268Y1986
X3268Y1101
X918Y999
X748Y2396
X1168Y2906
X1168Y3006
X1368Y2916
X1048Y3366
X918Y3366
T08
X2240Y4136
X2348Y4136
X2456Y4136
X2564Y4136
X2672Y4136
X2780Y4136
X2888Y4136
X2996Y4136
X2942Y4236
X2834Y4236
X2726Y4236
X2618Y4236
X2510Y4236
X2402Y4236
X2294Y4236
T09
X1968Y3186
T10
X2708Y3686
X2668Y3836
X2108Y3786
X2038Y3886
X1968Y3786
X1898Y3886
X1828Y3786
X3018Y2976
X3018Y2836
X3018Y2696
X2868Y2766
X2868Y2906
X3568Y2906
X3718Y2836
X3568Y2766
X3718Y2696
X3718Y2976
T11
X3368Y3336
X2668Y3336
X2668Y2336
X3368Y2336
T12
X3028Y1306
X2778Y1306
X2868Y936
X3118Y936
X3368Y936
X3618Y936
X3928Y886
X3618Y636
X3618Y446
X3618Y246
X3368Y246
X3368Y446
X3368Y636
X3118Y636
X3118Y446
X3118Y246
X2868Y246
X2868Y446
X2868Y636
X2418Y536
X2168Y536
X1918Y536
X1618Y536
X1318Y536
X1318Y386
X1318Y236
X1618Y236
X1918Y236
X2168Y236
X2418Y236
X2418Y836
X2168Y836
X1918Y836
X1568Y786
X1318Y836
X1018Y836
X718Y836
X468Y986
X218Y1036
X218Y836
X218Y636
X468Y636
X718Y536
X718Y386
X718Y236
X1018Y236
X1018Y386
X1018Y536
X806Y1311
X556Y1311
X306Y1311
X1448Y2056
X1548Y2056
X1698Y2056
X1798Y2056
X1798Y2456
X1698Y2456
X1548Y2456
X1448Y2456
X1468Y2646
X1468Y2826
X1018Y2646
X4018Y4136
X4118Y4136
X4218Y4136
X4318Y4136
X4418Y4136
X4248Y3666
X4968Y2436
X5768Y2436
X4088Y506
X4088Y256
M30
