ISO-10303-21;
HEADER;
FILE_DESCRIPTION (( 'STEP AP203' ),
    '1' );
FILE_NAME ('92141A008_18-8 Stainless Steel Washer.STEP',
    '2026-03-26T17:25:16',
    ( 'McMaster Carr Supply' ),
    ( 'McMaster Carr Supply' ),
    'SwSTEP 2.0',
    'SolidWorks 2024',
    '' );
FILE_SCHEMA (( 'CONFIG_CONTROL_DESIGN' ));
ENDSEC;

DATA;
#1 = AXIS2_PLACEMENT_3D ( 'NONE', #164, #319, #317 ) ;
#2 = LENGTH_MEASURE_WITH_UNIT ( LENGTH_MEASURE( 0.02539999999999999897 ), #330 );
#3 = DIRECTION ( 'NONE',  ( 0.000000000000000000, 0.000000000000000000, 1.000000000000000000 ) ) ;
#4 = EDGE_CURVE ( 'NONE', #7, #243, #87, .T. ) ;
#5 = ORIENTED_EDGE ( 'NONE', *, *, #353, .T. ) ;
#6 = AXIS2_PLACEMENT_3D ( 'NONE', #25, #98, #21 ) ;
#7 = VERTEX_POINT ( 'NONE', #297 ) ;
#8 = CALENDAR_DATE ( 2026, 26, 3 ) ;
#9 = ORIENTED_EDGE ( 'NONE', *, *, #97, .F. ) ;
#10 = AXIS2_PLACEMENT_3D ( 'NONE', #347, #323, #270 ) ;
#11 = APPROVAL_PERSON_ORGANIZATION ( #222, #169, #234 ) ;
#12 = APPROVAL_ROLE ( '' ) ;
#13 = VERTEX_POINT ( 'NONE', #135 ) ;
#14 = CARTESIAN_POINT ( 'NONE',  ( 0.000000000000000000, 0.000000000000000000, -0.01600000000000013217 ) ) ;
#15 = COORDINATED_UNIVERSAL_TIME_OFFSET ( 6, 0, .BEHIND. ) ;
#16 = FACE_OUTER_BOUND ( 'NONE', #92, .T. ) ;
#17 = DIRECTION ( 'NONE',  ( -0.000000000000000000, -0.000000000000000000, -1.000000000000000000 ) ) ;
#18 = EDGE_LOOP ( 'NONE', ( #211, #337, #227, #339 ) ) ;
#19 = AXIS2_PLACEMENT_3D ( 'NONE', #14, #157, #285 ) ;
#20 = VECTOR ( 'NONE', #138, 39.37007874015748143 ) ;
#21 = DIRECTION ( 'NONE',  ( 1.000000000000000000, 0.000000000000000000, 0.000000000000000000 ) ) ;
#22 = FACE_OUTER_BOUND ( 'NONE', #18, .T. ) ;
#23 = EDGE_CURVE ( 'NONE', #277, #7, #241, .T. ) ;
#24 = CARTESIAN_POINT ( 'NONE',  ( 0.07800000000000002764, 9.552245033349358517E-18, 0.01599999999999986849 ) ) ;
#25 = CARTESIAN_POINT ( 'NONE',  ( 0.000000000000000000, 0.000000000000000000, -0.01600000000000013217 ) ) ;
#26 = APPLICATION_PROTOCOL_DEFINITION ( 'international standard', 'config_control_design', 1994, #301 ) ;
#27 = FACE_OUTER_BOUND ( 'NONE', #163, .T. ) ;
#28 = AXIS2_PLACEMENT_3D ( 'NONE', #129, #341, #193 ) ;
#29 = AXIS2_PLACEMENT_3D ( 'NONE', #124, #54, #274 ) ;
#30 = EDGE_LOOP ( 'NONE', ( #9, #181, #152, #308 ) ) ;
#31 = CC_DESIGN_DATE_AND_TIME_ASSIGNMENT ( #151, #101, ( #59 ) ) ;
#32 = ORIENTED_EDGE ( 'NONE', *, *, #353, .F. ) ;
#33 = TOROIDAL_SURFACE ( 'NONE', #264, 0.08600000000000003475, 0.008000000000000000167 ) ;
#34 = CIRCLE ( 'NONE', #224, 0.1480000000000000482 ) ;
#35 = ORIENTED_EDGE ( 'NONE', *, *, #23, .F. ) ;
#36 = APPROVAL_DATE_TIME ( #122, #169 ) ;
#37 = EDGE_LOOP ( 'NONE', ( #150, #278, #67, #284 ) ) ;
#38 = LOCAL_TIME ( 12, 25, 16.00000000000000000, #343 ) ;
#39 = FACE_OUTER_BOUND ( 'NONE', #288, .T. ) ;
#40 = DATE_AND_TIME ( #316, #155 ) ;
#41 = CARTESIAN_POINT ( 'NONE',  ( 0.000000000000000000, 0.000000000000000000, 0.01599999999999986849 ) ) ;
#42 = APPROVAL_ROLE ( '' ) ;
#43 = DIRECTION ( 'NONE',  ( 1.000000000000000000, 0.000000000000000000, 0.000000000000000000 ) ) ;
#44 = ORIENTED_EDGE ( 'NONE', *, *, #203, .T. ) ;
#45 = VECTOR ( 'NONE', #267, 39.37007874015748143 ) ;
#46 = DIRECTION ( 'NONE',  ( 0.000000000000000000, 0.000000000000000000, 1.000000000000000000 ) ) ;
#47 = FACE_OUTER_BOUND ( 'NONE', #118, .T. ) ;
#48 = APPROVAL ( #207, 'UNSPECIFIED' ) ;
#49 = LINE ( 'NONE', #166, #20 ) ;
#50 = DIRECTION ( 'NONE',  ( 1.000000000000000000, 0.000000000000000000, 0.000000000000000000 ) ) ;
#51 = CC_DESIGN_APPROVAL ( #169, ( #59 ) ) ;
#52 = PERSON_AND_ORGANIZATION_ROLE ( 'design_owner' ) ;
#53 = DESIGN_CONTEXT ( 'detailed design', #301, 'design' ) ;
#54 = DIRECTION ( 'NONE',  ( 0.000000000000000000, 0.000000000000000000, 1.000000000000000000 ) ) ;
#55 = CC_DESIGN_PERSON_AND_ORGANIZATION_ASSIGNMENT ( #210, #213, ( #276 ) ) ;
#56 = CARTESIAN_POINT ( 'NONE',  ( 0.000000000000000000, 0.000000000000000000, 0.01599999999999986849 ) ) ;
#57 = CYLINDRICAL_SURFACE ( 'NONE', #229, 0.07800000000000002764 ) ;
#58 = ORIENTED_EDGE ( 'NONE', *, *, #310, .T. ) ;
#59 = PRODUCT_DEFINITION ( 'UNKNOWN', '', #276, #53 ) ;
#60 = VERTEX_POINT ( 'NONE', #103 ) ;
#61 = PERSON ( 'UNSPECIFIED', 'UNSPECIFIED', 'UNSPECIFIED', ('UNSPECIFIED'), ('UNSPECIFIED'), ('UNSPECIFIED') ) ;
#62 = AXIS2_PLACEMENT_3D ( 'NONE', #290, #179, #128 ) ;
#63 = SHAPE_DEFINITION_REPRESENTATION ( #280, #198 ) ;
#64 = ORIENTED_EDGE ( 'NONE', *, *, #84, .T. ) ;
#65 = CARTESIAN_POINT ( 'NONE',  ( 0.000000000000000000, 0.000000000000000000, 0.007999999999999868328 ) ) ;
#66 = CALENDAR_DATE ( 2026, 26, 3 ) ;
#67 = ORIENTED_EDGE ( 'NONE', *, *, #188, .F. ) ;
#68 = ADVANCED_FACE ( 'NONE', ( #22 ), #217, .F. ) ;
#69 = CARTESIAN_POINT ( 'NONE',  ( -0.08600000000000003475, 1.053196247266724199E-17, 0.007999999999999868328 ) ) ;
#70 = SECURITY_CLASSIFICATION_LEVEL ( 'unclassified' ) ;
#71 = ADVANCED_FACE ( 'NONE', ( #47 ), #295, .T. ) ;
#72 = DIRECTION ( 'NONE',  ( 1.000000000000000000, 0.000000000000000000, 0.000000000000000000 ) ) ;
#73 = DIRECTION ( 'NONE',  ( 1.000000000000000000, 0.000000000000000000, 0.000000000000000000 ) ) ;
#74 = CARTESIAN_POINT ( 'NONE',  ( 0.000000000000000000, 0.000000000000000000, 0.01599999999999986849 ) ) ;
#75 = CARTESIAN_POINT ( 'NONE',  ( 0.000000000000000000, 0.000000000000000000, 0.007999999999999868328 ) ) ;
#76 = ORIENTED_EDGE ( 'NONE', *, *, #294, .T. ) ;
#77 = CIRCLE ( 'NONE', #256, 0.1480000000000000482 ) ;
#78 = DIRECTION ( 'NONE',  ( 1.000000000000000000, 0.000000000000000000, 0.000000000000000000 ) ) ;
#79 =( NAMED_UNIT ( * ) PLANE_ANGLE_UNIT ( ) SI_UNIT ( $, .RADIAN. ) );
#80 = ADVANCED_FACE ( 'NONE', ( #16, #212 ), #209, .T. ) ;
#81 = MECHANICAL_CONTEXT ( 'NONE', #116, 'mechanical' ) ;
#82 = FACE_OUTER_BOUND ( 'NONE', #113, .T. ) ;
#83 = DIRECTION ( 'NONE',  ( 0.000000000000000000, 0.000000000000000000, 1.000000000000000000 ) ) ;
#84 = EDGE_CURVE ( 'NONE', #205, #115, #114, .T. ) ;
#85 = DIRECTION ( 'NONE',  ( 1.000000000000000000, 0.000000000000000000, 0.000000000000000000 ) ) ;
#86 = ORIENTED_EDGE ( 'NONE', *, *, #252, .T. ) ;
#87 = CIRCLE ( 'NONE', #271, 0.1560000000000000553 ) ;
#88 = VERTEX_POINT ( 'NONE', #154 ) ;
#89 = PRODUCT ( '92141A008_18-8 Stainless Steel Washer', '92141A008_18-8 Stainless Steel Washer', '', ( #81 ) ) ;
#90 = CIRCLE ( 'NONE', #250, 0.008000000000000007105 ) ;
#91 = DATE_TIME_ROLE ( 'classification_date' ) ;
#92 = EDGE_LOOP ( 'NONE', ( #86, #5 ) ) ;
#93 = CARTESIAN_POINT ( 'NONE',  ( -0.08600000000000003475, 1.053196247266724199E-17, 0.01599999999999986849 ) ) ;
#94 = VERTEX_POINT ( 'NONE', #93 ) ;
#95 = DIRECTION ( 'NONE',  ( 1.000000000000000000, 0.000000000000000000, 0.000000000000000000 ) ) ;
#96 = UNCERTAINTY_MEASURE_WITH_UNIT (LENGTH_MEASURE( 1.000000000000000082E-05 ), #355, 'distance_accuracy_value', 'NONE');
#97 = EDGE_CURVE ( 'NONE', #94, #60, #90, .T. ) ;
#98 = DIRECTION ( 'NONE',  ( 0.000000000000000000, 0.000000000000000000, 1.000000000000000000 ) ) ;
#99 = AXIS2_PLACEMENT_3D ( 'NONE', #340, #309, #312 ) ;
#100 = AXIS2_PLACEMENT_3D ( 'NONE', #56, #200, #110 ) ;
#101 = DATE_TIME_ROLE ( 'creation_date' ) ;
#102 = DIRECTION ( 'NONE',  ( 1.000000000000000000, 0.000000000000000000, 0.000000000000000000 ) ) ;
#103 = CARTESIAN_POINT ( 'NONE',  ( -0.07800000000000002764, 0.000000000000000000, 0.007999999999999868328 ) ) ;
#104 = DIRECTION ( 'NONE',  ( 1.000000000000000000, 0.000000000000000000, 0.000000000000000000 ) ) ;
#105 = ORIENTED_EDGE ( 'NONE', *, *, #136, .F. ) ;
#106 = DIRECTION ( 'NONE',  ( 0.000000000000000000, 0.000000000000000000, 1.000000000000000000 ) ) ;
#107 = CYLINDRICAL_SURFACE ( 'NONE', #121, 0.1560000000000000553 ) ;
#108 =( NAMED_UNIT ( * ) SI_UNIT ( $, .STERADIAN. ) SOLID_ANGLE_UNIT ( ) );
#109 = DIRECTION ( 'NONE',  ( -0.000000000000000000, -0.000000000000000000, -1.000000000000000000 ) ) ;
#110 = DIRECTION ( 'NONE',  ( -1.000000000000000000, 0.000000000000000000, 0.000000000000000000 ) ) ;
#111 = ADVANCED_FACE ( 'NONE', ( #338, #39 ), #260, .F. ) ;
#112 = ORIENTED_EDGE ( 'NONE', *, *, #139, .T. ) ;
#113 = EDGE_LOOP ( 'NONE', ( #269, #76, #208, #35 ) ) ;
#114 = CIRCLE ( 'NONE', #99, 0.008000000000000000167 ) ;
#115 = VERTEX_POINT ( 'NONE', #262 ) ;
#116 = APPLICATION_CONTEXT ( 'configuration controlled 3d designs of mechanical parts and assemblies' ) ;
#117 = PRODUCT_RELATED_PRODUCT_CATEGORY ( 'detail', '', ( #89 ) ) ;
#118 = EDGE_LOOP ( 'NONE', ( #105, #253, #64, #32 ) ) ;
#119 = AXIS2_PLACEMENT_3D ( 'NONE', #242, #292, #43 ) ;
#120 = ADVANCED_FACE ( 'NONE', ( #342 ), #33, .T. ) ;
#121 = AXIS2_PLACEMENT_3D ( 'NONE', #142, #273, #251 ) ;
#122 = DATE_AND_TIME ( #336, #38 ) ;
#123 = ORIENTED_EDGE ( 'NONE', *, *, #294, .F. ) ;
#124 = CARTESIAN_POINT ( 'NONE',  ( 0.000000000000000000, 0.000000000000000000, 0.007999999999999868328 ) ) ;
#125 = CC_DESIGN_PERSON_AND_ORGANIZATION_ASSIGNMENT ( #328, #52, ( #89 ) ) ;
#126 = PERSON_AND_ORGANIZATION ( #61, #314 ) ;
#127 = MANIFOLD_SOLID_BREP ( 'Imported1', #286 ) ;
#128 = DIRECTION ( 'NONE',  ( 1.000000000000000000, 0.000000000000000000, -0.000000000000000000 ) ) ;
#129 = CARTESIAN_POINT ( 'NONE',  ( 0.000000000000000000, 0.000000000000000000, 0.007999999999999868328 ) ) ;
#130 = AXIS2_PLACEMENT_3D ( 'NONE', #65, #182, #95 ) ;
#131 = ORIENTED_EDGE ( 'NONE', *, *, #4, .T. ) ;
#132 = COORDINATED_UNIVERSAL_TIME_OFFSET ( 6, 0, .BEHIND. ) ;
#133 = EDGE_CURVE ( 'NONE', #94, #13, #228, .T. ) ;
#134 = FACE_OUTER_BOUND ( 'NONE', #30, .T. ) ;
#135 = CARTESIAN_POINT ( 'NONE',  ( 0.08600000000000003475, 0.000000000000000000, 0.01599999999999986849 ) ) ;
#136 = EDGE_CURVE ( 'NONE', #277, #232, #223, .T. ) ;
#137 = DIRECTION ( 'NONE',  ( -0.000000000000000000, -0.000000000000000000, -1.000000000000000000 ) ) ;
#138 = DIRECTION ( 'NONE',  ( -0.000000000000000000, -0.000000000000000000, -1.000000000000000000 ) ) ;
#139 = EDGE_CURVE ( 'NONE', #13, #94, #325, .T. ) ;
#140 = APPLICATION_PROTOCOL_DEFINITION ( 'international standard', 'config_control_design', 1994, #116 ) ;
#141 = DIRECTION ( 'NONE',  ( -0.000000000000000000, -0.000000000000000000, -1.000000000000000000 ) ) ;
#142 = CARTESIAN_POINT ( 'NONE',  ( 0.000000000000000000, 0.000000000000000000, 0.01599999999999986849 ) ) ;
#143 = AXIS2_PLACEMENT_3D ( 'NONE', #238, #106, #268 ) ;
#144 = AXIS2_PLACEMENT_3D ( 'NONE', #196, #3, #170 ) ;
#145 = CC_DESIGN_PERSON_AND_ORGANIZATION_ASSIGNMENT ( #231, #177, ( #59 ) ) ;
#146 = CARTESIAN_POINT ( 'NONE',  ( -0.07800000000000002764, 0.000000000000000000, 0.01599999999999986849 ) ) ;
#147 = VERTEX_POINT ( 'NONE', #187 ) ;
#148 = ORIENTED_EDGE ( 'NONE', *, *, #167, .F. ) ;
#149 = VECTOR ( 'NONE', #109, 39.37007874015748143 ) ;
#150 = ORIENTED_EDGE ( 'NONE', *, *, #133, .F. ) ;
#151 = DATE_AND_TIME ( #156, #265 ) ;
#152 = ORIENTED_EDGE ( 'NONE', *, *, #160, .T. ) ;
#153 = EDGE_CURVE ( 'NONE', #205, #277, #305, .T. ) ;
#154 = CARTESIAN_POINT ( 'NONE',  ( 0.07800000000000002764, 9.552245033349358517E-18, 0.007999999999999868328 ) ) ;
#155 = LOCAL_TIME ( 12, 25, 16.00000000000000000, #216 ) ;
#156 = CALENDAR_DATE ( 2026, 26, 3 ) ;
#157 = DIRECTION ( 'NONE',  ( 0.000000000000000000, 0.000000000000000000, 1.000000000000000000 ) ) ;
#158 = APPROVAL_DATE_TIME ( #161, #324 ) ;
#159 = CARTESIAN_POINT ( 'NONE',  ( -0.1560000000000000553, 0.000000000000000000, 0.007999999999999868328 ) ) ;
#160 = EDGE_CURVE ( 'NONE', #13, #88, #255, .T. ) ;
#161 = DATE_AND_TIME ( #8, #300 ) ;
#162 = CARTESIAN_POINT ( 'NONE',  ( 0.1560000000000000553, 1.910449006669871703E-17, 0.007999999999999868328 ) ) ;
#163 = EDGE_LOOP ( 'NONE', ( #123, #189, #311, #131 ) ) ;
#164 = CARTESIAN_POINT ( 'NONE',  ( 0.08600000000000003475, 0.000000000000000000, 0.007999999999999868328 ) ) ;
#165 = DIRECTION ( 'NONE',  ( -0.000000000000000000, -0.000000000000000000, -1.000000000000000000 ) ) ;
#166 = CARTESIAN_POINT ( 'NONE',  ( 0.1560000000000000553, 1.910449006669871703E-17, 0.01599999999999986849 ) ) ;
#167 = EDGE_CURVE ( 'NONE', #243, #7, #206, .T. ) ;
#168 = FACE_OUTER_BOUND ( 'NONE', #303, .T. ) ;
#169 = APPROVAL ( #219, 'UNSPECIFIED' ) ;
#170 = DIRECTION ( 'NONE',  ( 1.000000000000000000, 0.000000000000000000, 0.000000000000000000 ) ) ;
#171 = AXIS2_PLACEMENT_3D ( 'NONE', #75, #185, #102 ) ;
#172 = APPROVAL_PERSON_ORGANIZATION ( #258, #48, #12 ) ;
#173 = ORIENTED_EDGE ( 'NONE', *, *, #188, .T. ) ;
#174 = EDGE_CURVE ( 'NONE', #282, #147, #335, .T. ) ;
#175 = ORIENTED_EDGE ( 'NONE', *, *, #237, .F. ) ;
#176 = DIMENSIONAL_EXPONENTS ( 1.000000000000000000, 0.000000000000000000, 0.000000000000000000, 0.000000000000000000, 0.000000000000000000, 0.000000000000000000, 0.000000000000000000 ) ;
#177 = PERSON_AND_ORGANIZATION_ROLE ( 'creator' ) ;
#178 = ORIENTED_EDGE ( 'NONE', *, *, #4, .F. ) ;
#179 = DIRECTION ( 'NONE',  ( 0.000000000000000000, 0.000000000000000000, 1.000000000000000000 ) ) ;
#180 = PERSON_AND_ORGANIZATION ( #61, #314 ) ;
#181 = ORIENTED_EDGE ( 'NONE', *, *, #139, .F. ) ;
#182 = DIRECTION ( 'NONE',  ( 0.000000000000000000, 0.000000000000000000, 1.000000000000000000 ) ) ;
#183 = CC_DESIGN_APPROVAL ( #48, ( #351 ) ) ;
#184 = APPROVAL_STATUS ( 'not_yet_approved' ) ;
#185 = DIRECTION ( 'NONE',  ( 0.000000000000000000, 0.000000000000000000, 1.000000000000000000 ) ) ;
#186 = DATE_AND_TIME ( #66, #306 ) ;
#187 = CARTESIAN_POINT ( 'NONE',  ( 0.07800000000000002764, 9.552245033349358517E-18, -0.01600000000000013217 ) ) ;
#188 = EDGE_CURVE ( 'NONE', #88, #60, #191, .T. ) ;
#189 = ORIENTED_EDGE ( 'NONE', *, *, #153, .T. ) ;
#190 = CARTESIAN_POINT ( 'NONE',  ( 0.000000000000000000, 0.000000000000000000, -0.01600000000000013217 ) ) ;
#191 = CIRCLE ( 'NONE', #171, 0.07800000000000002764 ) ;
#192 = DIRECTION ( 'NONE',  ( 1.000000000000000000, 0.000000000000000000, 0.000000000000000000 ) ) ;
#193 = DIRECTION ( 'NONE',  ( 1.000000000000000000, 0.000000000000000000, 0.000000000000000000 ) ) ;
#194 = CARTESIAN_POINT ( 'NONE',  ( 0.000000000000000000, 0.000000000000000000, 0.01599999999999986849 ) ) ;
#195 = AXIS2_PLACEMENT_3D ( 'NONE', #74, #165, #321 ) ;
#196 = CARTESIAN_POINT ( 'NONE',  ( 0.000000000000000000, 0.000000000000000000, 0.007999999999999868328 ) ) ;
#197 = EDGE_CURVE ( 'NONE', #277, #205, #275, .T. ) ;
#198 = ADVANCED_BREP_SHAPE_REPRESENTATION ( '92141A008_18-8 Stainless Steel Washer', ( #127, #233 ), #215 ) ;
#199 = ADVANCED_FACE ( 'NONE', ( #134 ), #230, .T. ) ;
#200 = DIRECTION ( 'NONE',  ( -0.000000000000000000, -0.000000000000000000, -1.000000000000000000 ) ) ;
#201 = ORIENTED_EDGE ( 'NONE', *, *, #252, .F. ) ;
#202 = AXIS2_PLACEMENT_3D ( 'NONE', #263, #296, #73 ) ;
#203 = EDGE_CURVE ( 'NONE', #147, #282, #322, .T. ) ;
#204 = CC_DESIGN_SECURITY_CLASSIFICATION ( #351, ( #276 ) ) ;
#205 = VERTEX_POINT ( 'NONE', #162 ) ;
#206 = CIRCLE ( 'NONE', #143, 0.1560000000000000553 ) ;
#207 = APPROVAL_STATUS ( 'not_yet_approved' ) ;
#208 = ORIENTED_EDGE ( 'NONE', *, *, #167, .T. ) ;
#209 = PLANE ( 'NONE',  #62 ) ;
#210 = PERSON_AND_ORGANIZATION ( #61, #314 ) ;
#211 = ORIENTED_EDGE ( 'NONE', *, *, #356, .T. ) ;
#212 = FACE_BOUND ( 'NONE', #226, .T. ) ;
#213 = PERSON_AND_ORGANIZATION_ROLE ( 'design_supplier' ) ;
#214 = DIRECTION ( 'NONE',  ( 1.224646799147353207E-16, 1.000000000000000000, -0.000000000000000000 ) ) ;
#215 =( GEOMETRIC_REPRESENTATION_CONTEXT ( 3 ) GLOBAL_UNCERTAINTY_ASSIGNED_CONTEXT ( ( #96 ) ) GLOBAL_UNIT_ASSIGNED_CONTEXT ( ( #355, #79, #108 ) ) REPRESENTATION_CONTEXT ( 'NONE', 'WORKASPACE' ) );
#216 = COORDINATED_UNIVERSAL_TIME_OFFSET ( 6, 0, .BEHIND. ) ;
#217 = CYLINDRICAL_SURFACE ( 'NONE', #195, 0.07800000000000002764 ) ;
#218 = DIRECTION ( 'NONE',  ( 0.000000000000000000, 0.000000000000000000, 1.000000000000000000 ) ) ;
#219 = APPROVAL_STATUS ( 'not_yet_approved' ) ;
#220 = CARTESIAN_POINT ( 'NONE',  ( -0.07800000000000002764, 0.000000000000000000, -0.01600000000000013217 ) ) ;
#221 = AXIS2_PLACEMENT_3D ( 'NONE', #190, #218, #72 ) ;
#222 = PERSON_AND_ORGANIZATION ( #61, #314 ) ;
#223 = CIRCLE ( 'NONE', #279, 0.008000000000000007105 ) ;
#224 = AXIS2_PLACEMENT_3D ( 'NONE', #41, #349, #78 ) ;
#225 = DIRECTION ( 'NONE',  ( 0.000000000000000000, 0.000000000000000000, 1.000000000000000000 ) ) ;
#226 = EDGE_LOOP ( 'NONE', ( #112, #235 ) ) ;
#227 = ORIENTED_EDGE ( 'NONE', *, *, #174, .F. ) ;
#228 = CIRCLE ( 'NONE', #10, 0.08600000000000003475 ) ;
#229 = AXIS2_PLACEMENT_3D ( 'NONE', #326, #141, #302 ) ;
#230 = TOROIDAL_SURFACE ( 'NONE', #119, 0.08600000000000003475, 0.008000000000000000167 ) ;
#231 = PERSON_AND_ORGANIZATION ( #61, #314 ) ;
#232 = VERTEX_POINT ( 'NONE', #291 ) ;
#233 = AXIS2_PLACEMENT_3D ( 'NONE', #249, #83, #85 ) ;
#234 = APPROVAL_ROLE ( '' ) ;
#235 = ORIENTED_EDGE ( 'NONE', *, *, #133, .T. ) ;
#236 = DIRECTION ( 'NONE',  ( 1.224646799147353207E-16, 1.000000000000000000, -0.000000000000000000 ) ) ;
#237 = EDGE_CURVE ( 'NONE', #88, #147, #352, .T. ) ;
#238 = CARTESIAN_POINT ( 'NONE',  ( 0.000000000000000000, 0.000000000000000000, -0.01600000000000013217 ) ) ;
#239 = DIRECTION ( 'NONE',  ( -1.000000000000000000, 1.224646799147352221E-16, 0.000000000000000000 ) ) ;
#240 = CARTESIAN_POINT ( 'NONE',  ( -0.1480000000000000482, 1.812477262738083356E-17, 0.007999999999999868328 ) ) ;
#241 = LINE ( 'NONE', #318, #45 ) ;
#242 = CARTESIAN_POINT ( 'NONE',  ( 0.000000000000000000, 0.000000000000000000, 0.007999999999999868328 ) ) ;
#243 = VERTEX_POINT ( 'NONE', #244 ) ;
#244 = CARTESIAN_POINT ( 'NONE',  ( 0.1560000000000000553, 1.910449006669871703E-17, -0.01600000000000013217 ) ) ;
#245 = FACE_OUTER_BOUND ( 'NONE', #334, .T. ) ;
#246 = AXIS2_PLACEMENT_3D ( 'NONE', #315, #17, #266 ) ;
#247 = CC_DESIGN_APPROVAL ( #324, ( #276 ) ) ;
#248 = LINE ( 'NONE', #146, #149 ) ;
#249 = CARTESIAN_POINT ( 'NONE',  ( 0.000000000000000000, 0.000000000000000000, 0.000000000000000000 ) ) ;
#250 = AXIS2_PLACEMENT_3D ( 'NONE', #69, #236, #239 ) ;
#251 = DIRECTION ( 'NONE',  ( -1.000000000000000000, 0.000000000000000000, 0.000000000000000000 ) ) ;
#252 = EDGE_CURVE ( 'NONE', #115, #232, #34, .T. ) ;
#253 = ORIENTED_EDGE ( 'NONE', *, *, #153, .F. ) ;
#254 = ORIENTED_EDGE ( 'NONE', *, *, #84, .F. ) ;
#255 = CIRCLE ( 'NONE', #1, 0.008000000000000000167 ) ;
#256 = AXIS2_PLACEMENT_3D ( 'NONE', #194, #225, #50 ) ;
#257 = EDGE_LOOP ( 'NONE', ( #293, #44 ) ) ;
#258 = PERSON_AND_ORGANIZATION ( #61, #314 ) ;
#259 = ORIENTED_EDGE ( 'NONE', *, *, #197, .F. ) ;
#260 = PLANE ( 'NONE',  #19 ) ;
#261 = PERSON_AND_ORGANIZATION ( #61, #314 ) ;
#262 = CARTESIAN_POINT ( 'NONE',  ( 0.1480000000000000482, 0.000000000000000000, 0.01599999999999986849 ) ) ;
#263 = CARTESIAN_POINT ( 'NONE',  ( 0.000000000000000000, 0.000000000000000000, 0.01599999999999986849 ) ) ;
#264 = AXIS2_PLACEMENT_3D ( 'NONE', #298, #46, #104 ) ;
#265 = LOCAL_TIME ( 12, 25, 16.00000000000000000, #15 ) ;
#266 = DIRECTION ( 'NONE',  ( 1.000000000000000000, 0.000000000000000000, 0.000000000000000000 ) ) ;
#267 = DIRECTION ( 'NONE',  ( -0.000000000000000000, -0.000000000000000000, -1.000000000000000000 ) ) ;
#268 = DIRECTION ( 'NONE',  ( 1.000000000000000000, 0.000000000000000000, 0.000000000000000000 ) ) ;
#269 = ORIENTED_EDGE ( 'NONE', *, *, #197, .T. ) ;
#270 = DIRECTION ( 'NONE',  ( 1.000000000000000000, 0.000000000000000000, 0.000000000000000000 ) ) ;
#271 = AXIS2_PLACEMENT_3D ( 'NONE', #345, #348, #192 ) ;
#272 = APPROVAL_PERSON_ORGANIZATION ( #180, #324, #42 ) ;
#273 = DIRECTION ( 'NONE',  ( -0.000000000000000000, -0.000000000000000000, -1.000000000000000000 ) ) ;
#274 = DIRECTION ( 'NONE',  ( 1.000000000000000000, 0.000000000000000000, 0.000000000000000000 ) ) ;
#275 = CIRCLE ( 'NONE', #28, 0.1560000000000000553 ) ;
#276 = PRODUCT_DEFINITION_FORMATION_WITH_SPECIFIED_SOURCE ( 'ANY', '', #89, .NOT_KNOWN. ) ;
#277 = VERTEX_POINT ( 'NONE', #159 ) ;
#278 = ORIENTED_EDGE ( 'NONE', *, *, #97, .T. ) ;
#279 = AXIS2_PLACEMENT_3D ( 'NONE', #240, #214, #344 ) ;
#280 = PRODUCT_DEFINITION_SHAPE ( 'NONE', 'NONE',  #59 ) ;
#281 = CC_DESIGN_PERSON_AND_ORGANIZATION_ASSIGNMENT ( #126, #283, ( #351 ) ) ;
#282 = VERTEX_POINT ( 'NONE', #220 ) ;
#283 = PERSON_AND_ORGANIZATION_ROLE ( 'classification_officer' ) ;
#284 = ORIENTED_EDGE ( 'NONE', *, *, #160, .F. ) ;
#285 = DIRECTION ( 'NONE',  ( 1.000000000000000000, 0.000000000000000000, -0.000000000000000000 ) ) ;
#286 = CLOSED_SHELL ( 'NONE', ( #120, #299, #68, #350, #80, #327, #346, #111, #71, #199 ) ) ;
#287 = COORDINATED_UNIVERSAL_TIME_OFFSET ( 6, 0, .BEHIND. ) ;
#288 = EDGE_LOOP ( 'NONE', ( #178, #148 ) ) ;
#289 = TOROIDAL_SURFACE ( 'NONE', #29, 0.1480000000000000482, 0.008000000000000000167 ) ;
#290 = CARTESIAN_POINT ( 'NONE',  ( 0.000000000000000000, 0.000000000000000000, 0.01599999999999986849 ) ) ;
#291 = CARTESIAN_POINT ( 'NONE',  ( -0.1480000000000000482, 1.861463134703977375E-17, 0.01599999999999986849 ) ) ;
#292 = DIRECTION ( 'NONE',  ( 0.000000000000000000, 0.000000000000000000, 1.000000000000000000 ) ) ;
#293 = ORIENTED_EDGE ( 'NONE', *, *, #174, .T. ) ;
#294 = EDGE_CURVE ( 'NONE', #205, #243, #49, .T. ) ;
#295 = TOROIDAL_SURFACE ( 'NONE', #130, 0.1480000000000000482, 0.008000000000000000167 ) ;
#296 = DIRECTION ( 'NONE',  ( -0.000000000000000000, -0.000000000000000000, -1.000000000000000000 ) ) ;
#297 = CARTESIAN_POINT ( 'NONE',  ( -0.1560000000000000553, 0.000000000000000000, -0.01600000000000013217 ) ) ;
#298 = CARTESIAN_POINT ( 'NONE',  ( 0.000000000000000000, 0.000000000000000000, 0.007999999999999868328 ) ) ;
#299 = ADVANCED_FACE ( 'NONE', ( #245 ), #289, .T. ) ;
#300 = LOCAL_TIME ( 12, 25, 16.00000000000000000, #287 ) ;
#301 = APPLICATION_CONTEXT ( 'configuration controlled 3d designs of mechanical parts and assemblies' ) ;
#302 = DIRECTION ( 'NONE',  ( -1.000000000000000000, 0.000000000000000000, 0.000000000000000000 ) ) ;
#303 = EDGE_LOOP ( 'NONE', ( #175, #173, #58, #331 ) ) ;
#304 = ORIENTED_EDGE ( 'NONE', *, *, #136, .T. ) ;
#305 = CIRCLE ( 'NONE', #246, 0.1560000000000000553 ) ;
#306 = LOCAL_TIME ( 12, 25, 16.00000000000000000, #132 ) ;
#307 = APPROVAL_DATE_TIME ( #186, #48 ) ;
#308 = ORIENTED_EDGE ( 'NONE', *, *, #356, .F. ) ;
#309 = DIRECTION ( 'NONE',  ( 0.000000000000000000, -1.000000000000000000, 0.000000000000000000 ) ) ;
#310 = EDGE_CURVE ( 'NONE', #60, #282, #248, .T. ) ;
#311 = ORIENTED_EDGE ( 'NONE', *, *, #23, .T. ) ;
#312 = DIRECTION ( 'NONE',  ( 0.000000000000000000, 0.000000000000000000, -1.000000000000000000 ) ) ;
#313 = PERSON_AND_ORGANIZATION_ROLE ( 'creator' ) ;
#314 = ORGANIZATION ( 'UNSPECIFIED', 'UNSPECIFIED', '' ) ;
#315 = CARTESIAN_POINT ( 'NONE',  ( 0.000000000000000000, 0.000000000000000000, 0.007999999999999868328 ) ) ;
#316 = CALENDAR_DATE ( 2026, 26, 3 ) ;
#317 = DIRECTION ( 'NONE',  ( 0.000000000000000000, 0.000000000000000000, -1.000000000000000000 ) ) ;
#318 = CARTESIAN_POINT ( 'NONE',  ( -0.1560000000000000553, 0.000000000000000000, 0.01599999999999986849 ) ) ;
#319 = DIRECTION ( 'NONE',  ( 0.000000000000000000, -1.000000000000000000, 0.000000000000000000 ) ) ;
#320 = CC_DESIGN_PERSON_AND_ORGANIZATION_ASSIGNMENT ( #261, #313, ( #276 ) ) ;
#321 = DIRECTION ( 'NONE',  ( -1.000000000000000000, 0.000000000000000000, 0.000000000000000000 ) ) ;
#322 = CIRCLE ( 'NONE', #221, 0.07800000000000002764 ) ;
#323 = DIRECTION ( 'NONE',  ( -0.000000000000000000, -0.000000000000000000, -1.000000000000000000 ) ) ;
#324 = APPROVAL ( #184, 'UNSPECIFIED' ) ;
#325 = CIRCLE ( 'NONE', #202, 0.08600000000000003475 ) ;
#326 = CARTESIAN_POINT ( 'NONE',  ( 0.000000000000000000, 0.000000000000000000, 0.01599999999999986849 ) ) ;
#327 = ADVANCED_FACE ( 'NONE', ( #27 ), #354, .T. ) ;
#328 = PERSON_AND_ORGANIZATION ( #61, #314 ) ;
#329 = CC_DESIGN_DATE_AND_TIME_ASSIGNMENT ( #40, #91, ( #351 ) ) ;
#330 =( LENGTH_UNIT ( ) NAMED_UNIT ( * ) SI_UNIT ( $, .METRE. ) );
#331 = ORIENTED_EDGE ( 'NONE', *, *, #203, .F. ) ;
#332 = VECTOR ( 'NONE', #137, 39.37007874015748143 ) ;
#333 = CIRCLE ( 'NONE', #144, 0.07800000000000002764 ) ;
#334 = EDGE_LOOP ( 'NONE', ( #259, #304, #201, #254 ) ) ;
#335 = CIRCLE ( 'NONE', #6, 0.07800000000000002764 ) ;
#336 = CALENDAR_DATE ( 2026, 26, 3 ) ;
#337 = ORIENTED_EDGE ( 'NONE', *, *, #237, .T. ) ;
#338 = FACE_BOUND ( 'NONE', #257, .T. ) ;
#339 = ORIENTED_EDGE ( 'NONE', *, *, #310, .F. ) ;
#340 = CARTESIAN_POINT ( 'NONE',  ( 0.1480000000000000482, 0.000000000000000000, 0.007999999999999868328 ) ) ;
#341 = DIRECTION ( 'NONE',  ( -0.000000000000000000, -0.000000000000000000, -1.000000000000000000 ) ) ;
#342 = FACE_OUTER_BOUND ( 'NONE', #37, .T. ) ;
#343 = COORDINATED_UNIVERSAL_TIME_OFFSET ( 6, 0, .BEHIND. ) ;
#344 = DIRECTION ( 'NONE',  ( -1.000000000000000000, 1.224646799147352221E-16, 0.000000000000000000 ) ) ;
#345 = CARTESIAN_POINT ( 'NONE',  ( 0.000000000000000000, 0.000000000000000000, -0.01600000000000013217 ) ) ;
#346 = ADVANCED_FACE ( 'NONE', ( #168 ), #57, .F. ) ;
#347 = CARTESIAN_POINT ( 'NONE',  ( 0.000000000000000000, 0.000000000000000000, 0.01599999999999986849 ) ) ;
#348 = DIRECTION ( 'NONE',  ( 0.000000000000000000, 0.000000000000000000, 1.000000000000000000 ) ) ;
#349 = DIRECTION ( 'NONE',  ( 0.000000000000000000, 0.000000000000000000, 1.000000000000000000 ) ) ;
#350 = ADVANCED_FACE ( 'NONE', ( #82 ), #107, .T. ) ;
#351 = SECURITY_CLASSIFICATION ( '', '', #70 ) ;
#352 = LINE ( 'NONE', #24, #332 ) ;
#353 = EDGE_CURVE ( 'NONE', #232, #115, #77, .T. ) ;
#354 = CYLINDRICAL_SURFACE ( 'NONE', #100, 0.1560000000000000553 ) ;
#355 =( CONVERSION_BASED_UNIT ( 'INCH', #2 ) LENGTH_UNIT ( ) NAMED_UNIT ( #176 ) );
#356 = EDGE_CURVE ( 'NONE', #60, #88, #333, .T. ) ;
ENDSEC;
END-ISO-10303-21;
