ISO-10303-21;
HEADER;
FILE_DESCRIPTION (( 'STEP AP203' ),
    '1' );
FILE_NAME ('91116A120_18-8 Stainless Steel Oversized Washer.STEP',
    '2026-06-08T12:43:34',
    ( 'McMaster Carr Supply' ),
    ( 'McMaster Carr Supply' ),
    'SwSTEP 2.0',
    'SolidWorks 2024',
    '' );
FILE_SCHEMA (( 'CONFIG_CONTROL_DESIGN' ));
ENDSEC;

DATA;
#1 = DIRECTION ( 'NONE',  ( -0.000000000000000000, -0.000000000000000000, -1.000000000000000000 ) ) ;
#2 = ORIENTED_EDGE ( 'NONE', *, *, #166, .T. ) ;
#3 = APPLICATION_CONTEXT ( 'configuration controlled 3d designs of mechanical parts and assemblies' ) ;
#4 = CARTESIAN_POINT ( 'NONE',  ( -1.600000000000000089, 1.959434878635765230E-16, 0.3499999999999994782 ) ) ;
#5 = AXIS2_PLACEMENT_3D ( 'NONE', #373, #337, #388 ) ;
#6 = ORIENTED_EDGE ( 'NONE', *, *, #421, .T. ) ;
#7 = CARTESIAN_POINT ( 'NONE',  ( 0.000000000000000000, 0.000000000000000000, -0.4000000000000005773 ) ) ;
#8 = DIRECTION ( 'NONE',  ( 1.000000000000000000, 0.000000000000000000, 0.000000000000000000 ) ) ;
#9 = DIRECTION ( 'NONE',  ( 1.000000000000000000, 0.000000000000000000, 0.000000000000000000 ) ) ;
#10 = AXIS2_PLACEMENT_3D ( 'NONE', #346, #305, #444 ) ;
#11 = DIRECTION ( 'NONE',  ( -0.000000000000000000, -0.000000000000000000, -1.000000000000000000 ) ) ;
#12 = CARTESIAN_POINT ( 'NONE',  ( 0.000000000000000000, 0.000000000000000000, 0.3999999999999994671 ) ) ;
#13 = APPROVAL_ROLE ( '' ) ;
#14 = CC_DESIGN_PERSON_AND_ORGANIZATION_ASSIGNMENT ( #285, #105, ( #423 ) ) ;
#15 = AXIS2_PLACEMENT_3D ( 'NONE', #420, #183, #78 ) ;
#16 = CIRCLE ( 'NONE', #336, 0.05000000000000002359 ) ;
#17 = CARTESIAN_POINT ( 'NONE',  ( 0.000000000000000000, 0.000000000000000000, -0.4000000000000005773 ) ) ;
#18 = APPROVAL_DATE_TIME ( #329, #204 ) ;
#19 = DIRECTION ( 'NONE',  ( 0.000000000000000000, 0.000000000000000000, 1.000000000000000000 ) ) ;
#20 = DIRECTION ( 'NONE',  ( 0.000000000000000000, -1.000000000000000000, 0.000000000000000000 ) ) ;
#21 = EDGE_CURVE ( 'NONE', #139, #377, #184, .T. ) ;
#22 = AXIS2_PLACEMENT_3D ( 'NONE', #362, #112, #197 ) ;
#23 = ADVANCED_FACE ( 'NONE', ( #185 ), #182, .T. ) ;
#24 = CARTESIAN_POINT ( 'NONE',  ( 0.000000000000000000, 0.000000000000000000, -0.4000000000000005773 ) ) ;
#25 = ADVANCED_FACE ( 'NONE', ( #45 ), #273, .T. ) ;
#26 = ORIENTED_EDGE ( 'NONE', *, *, #308, .F. ) ;
#27 = CARTESIAN_POINT ( 'NONE',  ( 0.000000000000000000, 0.000000000000000000, 0.3999999999999994671 ) ) ;
#28 = DIRECTION ( 'NONE',  ( 1.000000000000000000, 0.000000000000000000, 0.000000000000000000 ) ) ;
#29 = EDGE_LOOP ( 'NONE', ( #243, #211 ) ) ;
#30 = LINE ( 'NONE', #63, #160 ) ;
#31 = ORIENTED_EDGE ( 'NONE', *, *, #399, .T. ) ;
#32 = APPLICATION_PROTOCOL_DEFINITION ( 'international standard', 'config_control_design', 1994, #57 ) ;
#33 = AXIS2_PLACEMENT_3D ( 'NONE', #27, #60, #446 ) ;
#34 = VERTEX_POINT ( 'NONE', #291 ) ;
#35 = DIRECTION ( 'NONE',  ( 0.000000000000000000, 0.000000000000000000, 1.000000000000000000 ) ) ;
#36 = ORIENTED_EDGE ( 'NONE', *, *, #212, .F. ) ;
#37 = APPROVAL_ROLE ( '' ) ;
#38 = EDGE_CURVE ( 'NONE', #221, #455, #96, .T. ) ;
#39 = ADVANCED_FACE ( 'NONE', ( #397 ), #297, .F. ) ;
#40 = ORIENTED_EDGE ( 'NONE', *, *, #308, .T. ) ;
#41 = CARTESIAN_POINT ( 'NONE',  ( 0.000000000000000000, 0.000000000000000000, -0.3500000000000005329 ) ) ;
#42 = AXIS2_PLACEMENT_3D ( 'NONE', #366, #404, #294 ) ;
#43 = CARTESIAN_POINT ( 'NONE',  ( -1.649999999999999911, 2.020667218593132755E-16, 0.3499999999999994782 ) ) ;
#44 = DIRECTION ( 'NONE',  ( 1.000000000000000000, 0.000000000000000000, 0.000000000000000000 ) ) ;
#45 = FACE_OUTER_BOUND ( 'NONE', #81, .T. ) ;
#46 = DIRECTION ( 'NONE',  ( 1.000000000000000000, 0.000000000000000000, 0.000000000000000000 ) ) ;
#47 = PERSON_AND_ORGANIZATION ( #228, #69 ) ;
#48 = CARTESIAN_POINT ( 'NONE',  ( -4.500000000000000000, 5.510910596163088569E-16, -0.3500000000000005329 ) ) ;
#49 = APPROVAL_STATUS ( 'not_yet_approved' ) ;
#50 = ADVANCED_FACE ( 'NONE', ( #331 ), #201, .T. ) ;
#51 = LOCAL_TIME ( 7, 43, 34.00000000000000000, #299 ) ;
#52 = DIRECTION ( 'NONE',  ( 0.000000000000000000, 0.000000000000000000, -1.000000000000000000 ) ) ;
#53 = DATE_TIME_ROLE ( 'classification_date' ) ;
#54 = CARTESIAN_POINT ( 'NONE',  ( 1.649999999999999911, 0.000000000000000000, -0.3500000000000005329 ) ) ;
#55 = AXIS2_PLACEMENT_3D ( 'NONE', #136, #355, #223 ) ;
#56 = TOROIDAL_SURFACE ( 'NONE', #42, 1.649999999999999911, 0.05000000000000000278 ) ;
#57 = APPLICATION_CONTEXT ( 'configuration controlled 3d designs of mechanical parts and assemblies' ) ;
#58 = EDGE_CURVE ( 'NONE', #132, #455, #296, .T. ) ;
#59 = CYLINDRICAL_SURFACE ( 'NONE', #339, 1.600000000000000089 ) ;
#60 = DIRECTION ( 'NONE',  ( 0.000000000000000000, 0.000000000000000000, 1.000000000000000000 ) ) ;
#61 = CIRCLE ( 'NONE', #406, 4.450000000000000178 ) ;
#62 = CIRCLE ( 'NONE', #391, 0.04999999999999969746 ) ;
#63 = CARTESIAN_POINT ( 'NONE',  ( -4.500000000000000000, 5.510910596163088569E-16, -0.4000000000000005773 ) ) ;
#64 = EDGE_LOOP ( 'NONE', ( #307, #313, #217, #68 ) ) ;
#65 = FACE_OUTER_BOUND ( 'NONE', #425, .T. ) ;
#66 = ORIENTED_EDGE ( 'NONE', *, *, #166, .F. ) ;
#67 = DIRECTION ( 'NONE',  ( 0.000000000000000000, 0.000000000000000000, 1.000000000000000000 ) ) ;
#68 = ORIENTED_EDGE ( 'NONE', *, *, #361, .T. ) ;
#69 = ORGANIZATION ( 'UNSPECIFIED', 'UNSPECIFIED', '' ) ;
#70 = AXIS2_PLACEMENT_3D ( 'NONE', #358, #263, #117 ) ;
#71 = EDGE_LOOP ( 'NONE', ( #250, #179 ) ) ;
#72 = APPROVAL_DATE_TIME ( #251, #333 ) ;
#73 = ADVANCED_FACE ( 'NONE', ( #260, #119 ), #155, .F. ) ;
#74 = EDGE_LOOP ( 'NONE', ( #247, #6, #180, #208 ) ) ;
#75 = DIRECTION ( 'NONE',  ( 1.000000000000000000, 0.000000000000000000, 0.000000000000000000 ) ) ;
#76 = CARTESIAN_POINT ( 'NONE',  ( 0.000000000000000000, 0.000000000000000000, 0.3499999999999994782 ) ) ;
#77 = CARTESIAN_POINT ( 'NONE',  ( 4.500000000000000000, 0.000000000000000000, -0.4000000000000005773 ) ) ;
#78 = DIRECTION ( 'NONE',  ( -1.000000000000000000, 1.224646799147353454E-16, 0.000000000000000000 ) ) ;
#79 = AXIS2_PLACEMENT_3D ( 'NONE', #24, #244, #378 ) ;
#80 = CIRCLE ( 'NONE', #115, 1.600000000000000089 ) ;
#81 = EDGE_LOOP ( 'NONE', ( #451, #379, #214, #26 ) ) ;
#82 = CARTESIAN_POINT ( 'NONE',  ( 0.000000000000000000, 0.000000000000000000, 0.3499999999999994782 ) ) ;
#83 = EDGE_LOOP ( 'NONE', ( #338, #433, #170, #422 ) ) ;
#84 = DIRECTION ( 'NONE',  ( 1.000000000000000000, 0.000000000000000000, 0.000000000000000000 ) ) ;
#85 = PERSON_AND_ORGANIZATION ( #228, #69 ) ;
#86 = DATE_AND_TIME ( #118, #424 ) ;
#87 = CC_DESIGN_SECURITY_CLASSIFICATION ( #318, ( #131 ) ) ;
#88 = EDGE_CURVE ( 'NONE', #254, #293, #220, .T. ) ;
#89 = EDGE_CURVE ( 'NONE', #34, #135, #151, .T. ) ;
#90 = AXIS2_PLACEMENT_3D ( 'NONE', #259, #108, #389 ) ;
#91 = CARTESIAN_POINT ( 'NONE',  ( -4.450000000000000178, 5.480294426184404191E-16, -0.4000000000000005773 ) ) ;
#92 = EDGE_CURVE ( 'NONE', #111, #202, #242, .T. ) ;
#93 = CARTESIAN_POINT ( 'NONE',  ( 0.000000000000000000, 0.000000000000000000, 0.3499999999999994782 ) ) ;
#94 = FACE_OUTER_BOUND ( 'NONE', #387, .T. ) ;
#95 = ORIENTED_EDGE ( 'NONE', *, *, #153, .T. ) ;
#96 = CIRCLE ( 'NONE', #393, 0.05000000000000002359 ) ;
#97 = DIRECTION ( 'NONE',  ( 0.000000000000000000, 0.000000000000000000, -1.000000000000000000 ) ) ;
#98 = ORIENTED_EDGE ( 'NONE', *, *, #89, .T. ) ;
#99 = DIRECTION ( 'NONE',  ( 0.000000000000000000, 0.000000000000000000, 1.000000000000000000 ) ) ;
#100 = EDGE_LOOP ( 'NONE', ( #173, #252, #66, #457 ) ) ;
#101 = DIRECTION ( 'NONE',  ( 1.000000000000000000, 0.000000000000000000, 0.000000000000000000 ) ) ;
#102 = ORIENTED_EDGE ( 'NONE', *, *, #38, .T. ) ;
#103 = EDGE_CURVE ( 'NONE', #111, #34, #454, .T. ) ;
#104 = CC_DESIGN_APPROVAL ( #204, ( #318 ) ) ;
#105 = PERSON_AND_ORGANIZATION_ROLE ( 'design_owner' ) ;
#106 = ORIENTED_EDGE ( 'NONE', *, *, #304, .T. ) ;
#107 = MANIFOLD_SOLID_BREP ( 'Fillet1', #124 ) ;
#108 = DIRECTION ( 'NONE',  ( 0.000000000000000000, 0.000000000000000000, 1.000000000000000000 ) ) ;
#109 = AXIS2_PLACEMENT_3D ( 'NONE', #134, #410, #302 ) ;
#110 = DIRECTION ( 'NONE',  ( 1.224646799147353207E-16, 1.000000000000000000, -0.000000000000000000 ) ) ;
#111 = VERTEX_POINT ( 'NONE', #122 ) ;
#112 = DIRECTION ( 'NONE',  ( 0.000000000000000000, 0.000000000000000000, 1.000000000000000000 ) ) ;
#113 = APPLICATION_PROTOCOL_DEFINITION ( 'international standard', 'config_control_design', 1994, #3 ) ;
#114 = APPROVAL_PERSON_ORGANIZATION ( #175, #333, #37 ) ;
#115 = AXIS2_PLACEMENT_3D ( 'NONE', #157, #442, #325 ) ;
#116 = ORIENTED_EDGE ( 'NONE', *, *, #392, .F. ) ;
#117 = DIRECTION ( 'NONE',  ( 1.000000000000000000, 0.000000000000000000, 0.000000000000000000 ) ) ;
#118 = CALENDAR_DATE ( 2026, 8, 6 ) ;
#119 = FACE_BOUND ( 'NONE', #206, .T. ) ;
#120 = PERSON_AND_ORGANIZATION ( #228, #69 ) ;
#121 = EDGE_CURVE ( 'NONE', #455, #381, #292, .T. ) ;
#122 = CARTESIAN_POINT ( 'NONE',  ( 1.600000000000000089, 0.000000000000000000, -0.3500000000000005329 ) ) ;
#123 = PRODUCT_RELATED_PRODUCT_CATEGORY ( 'detail', '', ( #423 ) ) ;
#124 = CLOSED_SHELL ( 'NONE', ( #237, #146, #315, #23, #39, #238, #314, #73, #196, #352, #50, #137, #25, #401 ) ) ;
#125 = DIRECTION ( 'NONE',  ( 0.000000000000000000, 0.000000000000000000, 1.000000000000000000 ) ) ;
#126 = DIRECTION ( 'NONE',  ( 1.000000000000000000, 0.000000000000000000, 0.000000000000000000 ) ) ;
#127 = AXIS2_PLACEMENT_3D ( 'NONE', #17, #199, #44 ) ;
#128 = DIRECTION ( 'NONE',  ( 0.000000000000000000, 0.000000000000000000, 1.000000000000000000 ) ) ;
#129 = DIRECTION ( 'NONE',  ( 0.000000000000000000, 0.000000000000000000, 1.000000000000000000 ) ) ;
#130 = CARTESIAN_POINT ( 'NONE',  ( -1.600000000000000089, 1.959434878635765230E-16, -0.4000000000000005773 ) ) ;
#131 = PRODUCT_DEFINITION_FORMATION_WITH_SPECIFIED_SOURCE ( 'ANY', '', #423, .NOT_KNOWN. ) ;
#132 = VERTEX_POINT ( 'NONE', #48 ) ;
#133 = AXIS2_PLACEMENT_3D ( 'NONE', #12, #431, #84 ) ;
#134 = CARTESIAN_POINT ( 'NONE',  ( 0.000000000000000000, 0.000000000000000000, 0.3499999999999994782 ) ) ;
#135 = VERTEX_POINT ( 'NONE', #265 ) ;
#136 = CARTESIAN_POINT ( 'NONE',  ( 0.000000000000000000, 0.000000000000000000, 0.3499999999999994782 ) ) ;
#137 = ADVANCED_FACE ( 'NONE', ( #400 ), #56, .T. ) ;
#138 = ADVANCED_BREP_SHAPE_REPRESENTATION ( '91116A120_18-8 Stainless Steel Oversized Washer', ( #107, #441 ), #194 ) ;
#139 = VERTEX_POINT ( 'NONE', #300 ) ;
#140 = CARTESIAN_POINT ( 'NONE',  ( 4.500000000000000000, 0.000000000000000000, -0.3500000000000005329 ) ) ;
#141 = ORIENTED_EDGE ( 'NONE', *, *, #58, .F. ) ;
#142 = DIRECTION ( 'NONE',  ( -1.000000000000000000, 1.224646799147353947E-16, 0.000000000000000000 ) ) ;
#143 = ORIENTED_EDGE ( 'NONE', *, *, #262, .T. ) ;
#144 = DIRECTION ( 'NONE',  ( 0.000000000000000000, -1.000000000000000000, 0.000000000000000000 ) ) ;
#145 = MECHANICAL_CONTEXT ( 'NONE', #3, 'mechanical' ) ;
#146 = ADVANCED_FACE ( 'NONE', ( #394 ), #409, .T. ) ;
#147 = ORIENTED_EDGE ( 'NONE', *, *, #411, .F. ) ;
#148 = DIRECTION ( 'NONE',  ( 1.000000000000000000, 0.000000000000000000, 0.000000000000000000 ) ) ;
#149 = CALENDAR_DATE ( 2026, 8, 6 ) ;
#150 = LOCAL_TIME ( 7, 43, 34.00000000000000000, #440 ) ;
#151 = CIRCLE ( 'NONE', #301, 1.649999999999999911 ) ;
#152 = DIRECTION ( 'NONE',  ( 0.000000000000000000, 0.000000000000000000, 1.000000000000000000 ) ) ;
#153 = EDGE_CURVE ( 'NONE', #135, #34, #434, .T. ) ;
#154 = EDGE_CURVE ( 'NONE', #284, #139, #279, .T. ) ;
#155 = PLANE ( 'NONE',  #174 ) ;
#156 = APPROVAL_STATUS ( 'not_yet_approved' ) ;
#157 = CARTESIAN_POINT ( 'NONE',  ( 0.000000000000000000, 0.000000000000000000, 0.3499999999999994782 ) ) ;
#158 = CIRCLE ( 'NONE', #210, 4.500000000000000000 ) ;
#159 = AXIS2_PLACEMENT_3D ( 'NONE', #76, #321, #8 ) ;
#160 = VECTOR ( 'NONE', #67, 1000.000000000000000 ) ;
#161 = DIRECTION ( 'NONE',  ( 0.000000000000000000, 0.000000000000000000, 1.000000000000000000 ) ) ;
#162 = CARTESIAN_POINT ( 'NONE',  ( 0.000000000000000000, 0.000000000000000000, -0.3500000000000005329 ) ) ;
#163 = CIRCLE ( 'NONE', #218, 4.450000000000000178 ) ;
#164 = VERTEX_POINT ( 'NONE', #369 ) ;
#165 = FACE_BOUND ( 'NONE', #29, .T. ) ;
#166 = EDGE_CURVE ( 'NONE', #280, #377, #80, .T. ) ;
#167 = EDGE_CURVE ( 'NONE', #381, #254, #16, .T. ) ;
#168 = CARTESIAN_POINT ( 'NONE',  ( 1.649999999999999911, 0.000000000000000000, 0.3499999999999994782 ) ) ;
#169 = CIRCLE ( 'NONE', #233, 1.600000000000000089 ) ;
#170 = ORIENTED_EDGE ( 'NONE', *, *, #412, .F. ) ;
#171 = DIRECTION ( 'NONE',  ( 1.000000000000000000, 0.000000000000000000, 0.000000000000000000 ) ) ;
#172 = CC_DESIGN_APPROVAL ( #447, ( #131 ) ) ;
#173 = ORIENTED_EDGE ( 'NONE', *, *, #269, .F. ) ;
#174 = AXIS2_PLACEMENT_3D ( 'NONE', #225, #298, #222 ) ;
#175 = PERSON_AND_ORGANIZATION ( #228, #69 ) ;
#176 = EDGE_LOOP ( 'NONE', ( #396, #40 ) ) ;
#177 = CALENDAR_DATE ( 2026, 8, 6 ) ;
#178 = EDGE_CURVE ( 'NONE', #202, #377, #418, .T. ) ;
#179 = ORIENTED_EDGE ( 'NONE', *, *, #448, .T. ) ;
#180 = ORIENTED_EDGE ( 'NONE', *, *, #89, .F. ) ;
#181 = CIRCLE ( 'NONE', #5, 4.500000000000000000 ) ;
#182 = TOROIDAL_SURFACE ( 'NONE', #90, 4.450000000000000178, 0.05000000000000000278 ) ;
#183 = DIRECTION ( 'NONE',  ( 1.224646799147353207E-16, 1.000000000000000000, -0.000000000000000000 ) ) ;
#184 = CIRCLE ( 'NONE', #443, 0.04999999999999991257 ) ;
#185 = FACE_OUTER_BOUND ( 'NONE', #83, .T. ) ;
#186 = CC_DESIGN_PERSON_AND_ORGANIZATION_ASSIGNMENT ( #85, #191, ( #131 ) ) ;
#187 = DIRECTION ( 'NONE',  ( 1.000000000000000000, 0.000000000000000000, 0.000000000000000000 ) ) ;
#188 = DIRECTION ( 'NONE',  ( 0.000000000000000000, 0.000000000000000000, 1.000000000000000000 ) ) ;
#189 = EDGE_LOOP ( 'NONE', ( #245, #417, #286, #353 ) ) ;
#190 = DIRECTION ( 'NONE',  ( 0.000000000000000000, -1.000000000000000000, 0.000000000000000000 ) ) ;
#191 = PERSON_AND_ORGANIZATION_ROLE ( 'design_supplier' ) ;
#192 = DIRECTION ( 'NONE',  ( 0.000000000000000000, 0.000000000000000000, 1.000000000000000000 ) ) ;
#193 = PERSON_AND_ORGANIZATION_ROLE ( 'creator' ) ;
#194 =( GEOMETRIC_REPRESENTATION_CONTEXT ( 3 ) GLOBAL_UNCERTAINTY_ASSIGNED_CONTEXT ( ( #403 ) ) GLOBAL_UNIT_ASSIGNED_CONTEXT ( ( #290, #390, #426 ) ) REPRESENTATION_CONTEXT ( 'NONE', 'WORKASPACE' ) );
#195 = CC_DESIGN_PERSON_AND_ORGANIZATION_ASSIGNMENT ( #317, #193, ( #382 ) ) ;
#196 = ADVANCED_FACE ( 'NONE', ( #277, #165 ), #303, .T. ) ;
#197 = DIRECTION ( 'NONE',  ( 1.000000000000000000, 0.000000000000000000, 0.000000000000000000 ) ) ;
#198 = CALENDAR_DATE ( 2026, 8, 6 ) ;
#199 = DIRECTION ( 'NONE',  ( 0.000000000000000000, 0.000000000000000000, 1.000000000000000000 ) ) ;
#200 = CC_DESIGN_APPROVAL ( #333, ( #382 ) ) ;
#201 = TOROIDAL_SURFACE ( 'NONE', #70, 4.450000000000000178, 0.05000000000000000278 ) ;
#202 = VERTEX_POINT ( 'NONE', #246 ) ;
#203 = DIRECTION ( 'NONE',  ( 0.000000000000000000, 0.000000000000000000, 1.000000000000000000 ) ) ;
#204 = APPROVAL ( #49, 'UNSPECIFIED' ) ;
#205 = CARTESIAN_POINT ( 'NONE',  ( -4.450000000000000178, 5.449678256205721784E-16, 0.3499999999999994782 ) ) ;
#206 = EDGE_LOOP ( 'NONE', ( #98, #95 ) ) ;
#207 = DIRECTION ( 'NONE',  ( 1.224646799147353207E-16, 1.000000000000000000, -0.000000000000000000 ) ) ;
#208 = ORIENTED_EDGE ( 'NONE', *, *, #103, .F. ) ;
#209 = DIRECTION ( 'NONE',  ( 1.000000000000000000, 0.000000000000000000, 0.000000000000000000 ) ) ;
#210 = AXIS2_PLACEMENT_3D ( 'NONE', #283, #216, #75 ) ;
#211 = ORIENTED_EDGE ( 'NONE', *, *, #269, .T. ) ;
#212 = EDGE_CURVE ( 'NONE', #377, #280, #349, .T. ) ;
#213 = VECTOR ( 'NONE', #152, 1000.000000000000000 ) ;
#214 = ORIENTED_EDGE ( 'NONE', *, *, #167, .T. ) ;
#215 = ORIENTED_EDGE ( 'NONE', *, *, #103, .T. ) ;
#216 = DIRECTION ( 'NONE',  ( -0.000000000000000000, -0.000000000000000000, -1.000000000000000000 ) ) ;
#217 = ORIENTED_EDGE ( 'NONE', *, *, #121, .T. ) ;
#218 = AXIS2_PLACEMENT_3D ( 'NONE', #7, #11, #101 ) ;
#219 = DIRECTION ( 'NONE',  ( 0.000000000000000000, 0.000000000000000000, -1.000000000000000000 ) ) ;
#220 = CIRCLE ( 'NONE', #133, 4.450000000000000178 ) ;
#221 = VERTEX_POINT ( 'NONE', #380 ) ;
#222 = DIRECTION ( 'NONE',  ( 1.000000000000000000, 0.000000000000000000, -0.000000000000000000 ) ) ;
#223 = DIRECTION ( 'NONE',  ( 1.000000000000000000, 0.000000000000000000, 0.000000000000000000 ) ) ;
#224 = ORIENTED_EDGE ( 'NONE', *, *, #178, .T. ) ;
#225 = CARTESIAN_POINT ( 'NONE',  ( 0.000000000000000000, 0.000000000000000000, -0.4000000000000005773 ) ) ;
#226 = EDGE_CURVE ( 'NONE', #132, #164, #30, .T. ) ;
#227 = COORDINATED_UNIVERSAL_TIME_OFFSET ( 6, 0, .BEHIND. ) ;
#228 = PERSON ( 'UNSPECIFIED', 'UNSPECIFIED', 'UNSPECIFIED', ('UNSPECIFIED'), ('UNSPECIFIED'), ('UNSPECIFIED') ) ;
#229 = CARTESIAN_POINT ( 'NONE',  ( 0.000000000000000000, 0.000000000000000000, -0.3500000000000005329 ) ) ;
#230 = DATE_TIME_ROLE ( 'creation_date' ) ;
#231 = DESIGN_CONTEXT ( 'detailed design', #57, 'design' ) ;
#232 = DIRECTION ( 'NONE',  ( -0.000000000000000000, -0.000000000000000000, -1.000000000000000000 ) ) ;
#233 = AXIS2_PLACEMENT_3D ( 'NONE', #340, #376, #28 ) ;
#234 = CC_DESIGN_DATE_AND_TIME_ASSIGNMENT ( #365, #53, ( #318 ) ) ;
#235 = AXIS2_PLACEMENT_3D ( 'NONE', #82, #192, #148 ) ;
#236 = DIRECTION ( 'NONE',  ( 1.000000000000000000, 0.000000000000000000, 0.000000000000000000 ) ) ;
#237 = ADVANCED_FACE ( 'NONE', ( #239 ), #270, .T. ) ;
#238 = ADVANCED_FACE ( 'NONE', ( #94 ), #375, .T. ) ;
#239 = FACE_OUTER_BOUND ( 'NONE', #100, .T. ) ;
#240 = CARTESIAN_POINT ( 'NONE',  ( 1.649999999999999911, 0.000000000000000000, 0.3999999999999994671 ) ) ;
#241 = LOCAL_TIME ( 7, 43, 34.00000000000000000, #227 ) ;
#242 = CIRCLE ( 'NONE', #384, 1.600000000000000089 ) ;
#243 = ORIENTED_EDGE ( 'NONE', *, *, #154, .T. ) ;
#244 = DIRECTION ( 'NONE',  ( 0.000000000000000000, 0.000000000000000000, 1.000000000000000000 ) ) ;
#245 = ORIENTED_EDGE ( 'NONE', *, *, #399, .F. ) ;
#246 = CARTESIAN_POINT ( 'NONE',  ( -1.600000000000000089, 1.959434878635765230E-16, -0.3500000000000005329 ) ) ;
#247 = ORIENTED_EDGE ( 'NONE', *, *, #262, .F. ) ;
#248 = CARTESIAN_POINT ( 'NONE',  ( 0.000000000000000000, 0.000000000000000000, -0.4000000000000005773 ) ) ;
#249 = APPROVAL_PERSON_ORGANIZATION ( #47, #447, #13 ) ;
#250 = ORIENTED_EDGE ( 'NONE', *, *, #436, .T. ) ;
#251 = DATE_AND_TIME ( #177, #347 ) ;
#252 = ORIENTED_EDGE ( 'NONE', *, *, #21, .T. ) ;
#253 = LINE ( 'NONE', #456, #383 ) ;
#254 = VERTEX_POINT ( 'NONE', #344 ) ;
#255 = EDGE_LOOP ( 'NONE', ( #147, #350, #102, #141 ) ) ;
#256 = DIRECTION ( 'NONE',  ( 0.000000000000000000, 0.000000000000000000, -1.000000000000000000 ) ) ;
#257 = DIRECTION ( 'NONE',  ( 0.000000000000000000, 0.000000000000000000, 1.000000000000000000 ) ) ;
#258 = AXIS2_PLACEMENT_3D ( 'NONE', #54, #190, #219 ) ;
#259 = CARTESIAN_POINT ( 'NONE',  ( 0.000000000000000000, 0.000000000000000000, -0.3500000000000005329 ) ) ;
#260 = FACE_OUTER_BOUND ( 'NONE', #71, .T. ) ;
#261 = APPROVAL_ROLE ( '' ) ;
#262 = EDGE_CURVE ( 'NONE', #202, #111, #169, .T. ) ;
#263 = DIRECTION ( 'NONE',  ( 0.000000000000000000, 0.000000000000000000, 1.000000000000000000 ) ) ;
#264 = SECURITY_CLASSIFICATION_LEVEL ( 'unclassified' ) ;
#265 = CARTESIAN_POINT ( 'NONE',  ( -1.649999999999999911, 2.020667218593132755E-16, -0.4000000000000005773 ) ) ;
#266 = CIRCLE ( 'NONE', #415, 4.450000000000000178 ) ;
#267 = TOROIDAL_SURFACE ( 'NONE', #55, 1.649999999999999911, 0.05000000000000000278 ) ;
#268 = CARTESIAN_POINT ( 'NONE',  ( 4.450000000000000178, 0.000000000000000000, 0.3499999999999994782 ) ) ;
#269 = EDGE_CURVE ( 'NONE', #139, #284, #405, .T. ) ;
#270 = TOROIDAL_SURFACE ( 'NONE', #109, 1.649999999999999911, 0.05000000000000000278 ) ;
#271 = CIRCLE ( 'NONE', #15, 0.04999999999999991257 ) ;
#272 = CARTESIAN_POINT ( 'NONE',  ( 0.000000000000000000, 0.000000000000000000, -0.4000000000000005773 ) ) ;
#273 = TOROIDAL_SURFACE ( 'NONE', #159, 4.450000000000000178, 0.05000000000000000278 ) ;
#274 = EDGE_CURVE ( 'NONE', #164, #293, #452, .T. ) ;
#275 = DIRECTION ( 'NONE',  ( 1.000000000000000000, 0.000000000000000000, 0.000000000000000000 ) ) ;
#276 = VERTEX_POINT ( 'NONE', #91 ) ;
#277 = FACE_OUTER_BOUND ( 'NONE', #176, .T. ) ;
#278 = CIRCLE ( 'NONE', #445, 4.500000000000000000 ) ;
#279 = CIRCLE ( 'NONE', #310, 1.649999999999999911 ) ;
#280 = VERTEX_POINT ( 'NONE', #449 ) ;
#281 = CARTESIAN_POINT ( 'NONE',  ( 0.000000000000000000, 0.000000000000000000, -0.4000000000000005773 ) ) ;
#282 = EDGE_LOOP ( 'NONE', ( #374, #430, #215, #345 ) ) ;
#283 = CARTESIAN_POINT ( 'NONE',  ( 0.000000000000000000, 0.000000000000000000, 0.3499999999999994782 ) ) ;
#284 = VERTEX_POINT ( 'NONE', #240 ) ;
#285 = PERSON_AND_ORGANIZATION ( #228, #69 ) ;
#286 = ORIENTED_EDGE ( 'NONE', *, *, #88, .F. ) ;
#287 = CC_DESIGN_PERSON_AND_ORGANIZATION_ASSIGNMENT ( #120, #295, ( #131 ) ) ;
#288 = DIRECTION ( 'NONE',  ( 1.000000000000000000, 0.000000000000000000, 0.000000000000000000 ) ) ;
#289 = ORIENTED_EDGE ( 'NONE', *, *, #212, .T. ) ;
#290 =( LENGTH_UNIT ( ) NAMED_UNIT ( * ) SI_UNIT ( .MILLI., .METRE. ) );
#291 = CARTESIAN_POINT ( 'NONE',  ( 1.649999999999999911, 0.000000000000000000, -0.4000000000000005773 ) ) ;
#292 = LINE ( 'NONE', #77, #213 ) ;
#293 = VERTEX_POINT ( 'NONE', #341 ) ;
#294 = DIRECTION ( 'NONE',  ( 1.000000000000000000, 0.000000000000000000, 0.000000000000000000 ) ) ;
#295 = PERSON_AND_ORGANIZATION_ROLE ( 'creator' ) ;
#296 = CIRCLE ( 'NONE', #357, 4.500000000000000000 ) ;
#297 = CYLINDRICAL_SURFACE ( 'NONE', #127, 1.600000000000000089 ) ;
#298 = DIRECTION ( 'NONE',  ( 0.000000000000000000, 0.000000000000000000, 1.000000000000000000 ) ) ;
#299 = COORDINATED_UNIVERSAL_TIME_OFFSET ( 6, 0, .BEHIND. ) ;
#300 = CARTESIAN_POINT ( 'NONE',  ( -1.649999999999999911, 2.020667218593132755E-16, 0.3999999999999994671 ) ) ;
#301 = AXIS2_PLACEMENT_3D ( 'NONE', #322, #125, #187 ) ;
#302 = DIRECTION ( 'NONE',  ( 1.000000000000000000, 0.000000000000000000, 0.000000000000000000 ) ) ;
#303 = PLANE ( 'NONE',  #33 ) ;
#304 = EDGE_CURVE ( 'NONE', #284, #280, #348, .T. ) ;
#305 = DIRECTION ( 'NONE',  ( -0.000000000000000000, -0.000000000000000000, -1.000000000000000000 ) ) ;
#306 = CARTESIAN_POINT ( 'NONE',  ( 0.000000000000000000, 0.000000000000000000, 0.3999999999999994671 ) ) ;
#307 = ORIENTED_EDGE ( 'NONE', *, *, #226, .F. ) ;
#308 = EDGE_CURVE ( 'NONE', #293, #254, #266, .T. ) ;
#309 = DIRECTION ( 'NONE',  ( 0.000000000000000000, -1.000000000000000000, 0.000000000000000000 ) ) ;
#310 = AXIS2_PLACEMENT_3D ( 'NONE', #334, #232, #9 ) ;
#311 = ORIENTED_EDGE ( 'NONE', *, *, #92, .T. ) ;
#312 = APPROVAL_STATUS ( 'not_yet_approved' ) ;
#313 = ORIENTED_EDGE ( 'NONE', *, *, #58, .T. ) ;
#314 = ADVANCED_FACE ( 'NONE', ( #450 ), #413, .T. ) ;
#315 = ADVANCED_FACE ( 'NONE', ( #453 ), #370, .T. ) ;
#316 = ORIENTED_EDGE ( 'NONE', *, *, #226, .T. ) ;
#317 = PERSON_AND_ORGANIZATION ( #228, #69 ) ;
#318 = SECURITY_CLASSIFICATION ( '', '', #264 ) ;
#319 = ORIENTED_EDGE ( 'NONE', *, *, #154, .F. ) ;
#320 = DIRECTION ( 'NONE',  ( 1.000000000000000000, 0.000000000000000000, 0.000000000000000000 ) ) ;
#321 = DIRECTION ( 'NONE',  ( 0.000000000000000000, 0.000000000000000000, 1.000000000000000000 ) ) ;
#322 = CARTESIAN_POINT ( 'NONE',  ( 0.000000000000000000, 0.000000000000000000, -0.4000000000000005773 ) ) ;
#323 = DIRECTION ( 'NONE',  ( 1.000000000000000000, 0.000000000000000000, 0.000000000000000000 ) ) ;
#324 = DIRECTION ( 'NONE',  ( -1.000000000000000000, 1.224646799147353454E-16, 0.000000000000000000 ) ) ;
#325 = DIRECTION ( 'NONE',  ( 1.000000000000000000, 0.000000000000000000, 0.000000000000000000 ) ) ;
#326 = CALENDAR_DATE ( 2026, 8, 6 ) ;
#327 = APPROVAL_PERSON_ORGANIZATION ( #435, #204, #261 ) ;
#328 = CARTESIAN_POINT ( 'NONE',  ( 4.450000000000000178, 0.000000000000000000, -0.3500000000000005329 ) ) ;
#329 = DATE_AND_TIME ( #326, #241 ) ;
#330 = AXIS2_PLACEMENT_3D ( 'NONE', #93, #203, #209 ) ;
#331 = FACE_OUTER_BOUND ( 'NONE', #255, .T. ) ;
#332 = SHAPE_DEFINITION_REPRESENTATION ( #432, #138 ) ;
#333 = APPROVAL ( #312, 'UNSPECIFIED' ) ;
#334 = CARTESIAN_POINT ( 'NONE',  ( 0.000000000000000000, 0.000000000000000000, 0.3999999999999994671 ) ) ;
#335 = AXIS2_PLACEMENT_3D ( 'NONE', #162, #161, #126 ) ;
#336 = AXIS2_PLACEMENT_3D ( 'NONE', #268, #144, #256 ) ;
#337 = DIRECTION ( 'NONE',  ( -0.000000000000000000, -0.000000000000000000, -1.000000000000000000 ) ) ;
#338 = ORIENTED_EDGE ( 'NONE', *, *, #448, .F. ) ;
#339 = AXIS2_PLACEMENT_3D ( 'NONE', #272, #408, #236 ) ;
#340 = CARTESIAN_POINT ( 'NONE',  ( 0.000000000000000000, 0.000000000000000000, -0.3500000000000005329 ) ) ;
#341 = CARTESIAN_POINT ( 'NONE',  ( -4.450000000000000178, 5.480294426184404191E-16, 0.3999999999999994671 ) ) ;
#342 = CC_DESIGN_PERSON_AND_ORGANIZATION_ASSIGNMENT ( #438, #367, ( #318 ) ) ;
#343 = EDGE_LOOP ( 'NONE', ( #311, #224, #289, #116 ) ) ;
#344 = CARTESIAN_POINT ( 'NONE',  ( 4.450000000000000178, 0.000000000000000000, 0.3999999999999994671 ) ) ;
#345 = ORIENTED_EDGE ( 'NONE', *, *, #153, .F. ) ;
#346 = CARTESIAN_POINT ( 'NONE',  ( 0.000000000000000000, 0.000000000000000000, 0.3999999999999994671 ) ) ;
#347 = LOCAL_TIME ( 7, 43, 34.00000000000000000, #351 ) ;
#348 = CIRCLE ( 'NONE', #407, 0.05000000000000002359 ) ;
#349 = CIRCLE ( 'NONE', #330, 1.600000000000000089 ) ;
#350 = ORIENTED_EDGE ( 'NONE', *, *, #436, .F. ) ;
#351 = COORDINATED_UNIVERSAL_TIME_OFFSET ( 6, 0, .BEHIND. ) ;
#352 = ADVANCED_FACE ( 'NONE', ( #65 ), #59, .F. ) ;
#353 = ORIENTED_EDGE ( 'NONE', *, *, #167, .F. ) ;
#354 = ORIENTED_EDGE ( 'NONE', *, *, #121, .F. ) ;
#355 = DIRECTION ( 'NONE',  ( 0.000000000000000000, 0.000000000000000000, 1.000000000000000000 ) ) ;
#356 = ORIENTED_EDGE ( 'NONE', *, *, #392, .T. ) ;
#357 = AXIS2_PLACEMENT_3D ( 'NONE', #229, #19, #46 ) ;
#358 = CARTESIAN_POINT ( 'NONE',  ( 0.000000000000000000, 0.000000000000000000, -0.3500000000000005329 ) ) ;
#359 = CARTESIAN_POINT ( 'NONE',  ( -4.450000000000000178, 5.449678256205721784E-16, -0.3500000000000005329 ) ) ;
#360 = DIRECTION ( 'NONE',  ( 1.224646799147353207E-16, 1.000000000000000000, -0.000000000000000000 ) ) ;
#361 = EDGE_CURVE ( 'NONE', #381, #164, #181, .T. ) ;
#362 = CARTESIAN_POINT ( 'NONE',  ( 0.000000000000000000, 0.000000000000000000, -0.4000000000000005773 ) ) ;
#363 = DATE_AND_TIME ( #198, #51 ) ;
#364 = CARTESIAN_POINT ( 'NONE',  ( 0.000000000000000000, 0.000000000000000000, -0.3500000000000005329 ) ) ;
#365 = DATE_AND_TIME ( #149, #150 ) ;
#366 = CARTESIAN_POINT ( 'NONE',  ( 0.000000000000000000, 0.000000000000000000, -0.3500000000000005329 ) ) ;
#367 = PERSON_AND_ORGANIZATION_ROLE ( 'classification_officer' ) ;
#368 = CC_DESIGN_DATE_AND_TIME_ASSIGNMENT ( #86, #230, ( #382 ) ) ;
#369 = CARTESIAN_POINT ( 'NONE',  ( -4.500000000000000000, 5.510910596163088569E-16, 0.3499999999999994782 ) ) ;
#370 = TOROIDAL_SURFACE ( 'NONE', #335, 1.649999999999999911, 0.05000000000000000278 ) ;
#371 = AXIS2_PLACEMENT_3D ( 'NONE', #205, #207, #416 ) ;
#372 = VECTOR ( 'NONE', #99, 1000.000000000000000 ) ;
#373 = CARTESIAN_POINT ( 'NONE',  ( 0.000000000000000000, 0.000000000000000000, 0.3499999999999994782 ) ) ;
#374 = ORIENTED_EDGE ( 'NONE', *, *, #421, .F. ) ;
#375 = CYLINDRICAL_SURFACE ( 'NONE', #428, 4.500000000000000000 ) ;
#376 = DIRECTION ( 'NONE',  ( -0.000000000000000000, -0.000000000000000000, -1.000000000000000000 ) ) ;
#377 = VERTEX_POINT ( 'NONE', #4 ) ;
#378 = DIRECTION ( 'NONE',  ( 1.000000000000000000, 0.000000000000000000, 0.000000000000000000 ) ) ;
#379 = ORIENTED_EDGE ( 'NONE', *, *, #361, .F. ) ;
#380 = CARTESIAN_POINT ( 'NONE',  ( 4.450000000000000178, 0.000000000000000000, -0.4000000000000005773 ) ) ;
#381 = VERTEX_POINT ( 'NONE', #395 ) ;
#382 = PRODUCT_DEFINITION ( 'UNKNOWN', '', #131, #231 ) ;
#383 = VECTOR ( 'NONE', #257, 1000.000000000000000 ) ;
#384 = AXIS2_PLACEMENT_3D ( 'NONE', #364, #437, #439 ) ;
#385 = ORIENTED_EDGE ( 'NONE', *, *, #21, .F. ) ;
#386 = CARTESIAN_POINT ( 'NONE',  ( 0.000000000000000000, 0.000000000000000000, 0.000000000000000000 ) ) ;
#387 = EDGE_LOOP ( 'NONE', ( #414, #316, #31, #354 ) ) ;
#388 = DIRECTION ( 'NONE',  ( 1.000000000000000000, 0.000000000000000000, 0.000000000000000000 ) ) ;
#389 = DIRECTION ( 'NONE',  ( 1.000000000000000000, 0.000000000000000000, 0.000000000000000000 ) ) ;
#390 =( NAMED_UNIT ( * ) PLANE_ANGLE_UNIT ( ) SI_UNIT ( $, .RADIAN. ) );
#391 = AXIS2_PLACEMENT_3D ( 'NONE', #359, #110, #142 ) ;
#392 = EDGE_CURVE ( 'NONE', #111, #280, #253, .T. ) ;
#393 = AXIS2_PLACEMENT_3D ( 'NONE', #328, #20, #52 ) ;
#394 = FACE_OUTER_BOUND ( 'NONE', #189, .T. ) ;
#395 = CARTESIAN_POINT ( 'NONE',  ( 4.500000000000000000, 0.000000000000000000, 0.3499999999999994782 ) ) ;
#396 = ORIENTED_EDGE ( 'NONE', *, *, #88, .T. ) ;
#397 = FACE_OUTER_BOUND ( 'NONE', #343, .T. ) ;
#398 = COORDINATED_UNIVERSAL_TIME_OFFSET ( 6, 0, .BEHIND. ) ;
#399 = EDGE_CURVE ( 'NONE', #164, #381, #158, .T. ) ;
#400 = FACE_OUTER_BOUND ( 'NONE', #282, .T. ) ;
#401 = ADVANCED_FACE ( 'NONE', ( #429 ), #267, .T. ) ;
#402 = APPROVAL_DATE_TIME ( #363, #447 ) ;
#403 = UNCERTAINTY_MEASURE_WITH_UNIT (LENGTH_MEASURE( 1.000000000000000082E-05 ), #290, 'distance_accuracy_value', 'NONE');
#404 = DIRECTION ( 'NONE',  ( 0.000000000000000000, 0.000000000000000000, 1.000000000000000000 ) ) ;
#405 = CIRCLE ( 'NONE', #10, 1.649999999999999911 ) ;
#406 = AXIS2_PLACEMENT_3D ( 'NONE', #248, #1, #320 ) ;
#407 = AXIS2_PLACEMENT_3D ( 'NONE', #168, #309, #97 ) ;
#408 = DIRECTION ( 'NONE',  ( 0.000000000000000000, 0.000000000000000000, 1.000000000000000000 ) ) ;
#409 = TOROIDAL_SURFACE ( 'NONE', #235, 4.450000000000000178, 0.05000000000000000278 ) ;
#410 = DIRECTION ( 'NONE',  ( 0.000000000000000000, 0.000000000000000000, 1.000000000000000000 ) ) ;
#411 = EDGE_CURVE ( 'NONE', #276, #132, #62, .T. ) ;
#412 = EDGE_CURVE ( 'NONE', #455, #132, #278, .T. ) ;
#413 = CYLINDRICAL_SURFACE ( 'NONE', #79, 4.500000000000000000 ) ;
#414 = ORIENTED_EDGE ( 'NONE', *, *, #412, .T. ) ;
#415 = AXIS2_PLACEMENT_3D ( 'NONE', #306, #129, #275 ) ;
#416 = DIRECTION ( 'NONE',  ( -1.000000000000000000, 1.224646799147353947E-16, 0.000000000000000000 ) ) ;
#417 = ORIENTED_EDGE ( 'NONE', *, *, #274, .T. ) ;
#418 = LINE ( 'NONE', #130, #372 ) ;
#419 = ORIENTED_EDGE ( 'NONE', *, *, #178, .F. ) ;
#420 = CARTESIAN_POINT ( 'NONE',  ( -1.649999999999999911, 2.020667218593132755E-16, -0.3500000000000005329 ) ) ;
#421 = EDGE_CURVE ( 'NONE', #202, #135, #271, .T. ) ;
#422 = ORIENTED_EDGE ( 'NONE', *, *, #38, .F. ) ;
#423 = PRODUCT ( '91116A120_18-8 Stainless Steel Oversized Washer', '91116A120_18-8 Stainless Steel Oversized Washer', '', ( #145 ) ) ;
#424 = LOCAL_TIME ( 7, 43, 34.00000000000000000, #398 ) ;
#425 = EDGE_LOOP ( 'NONE', ( #419, #143, #356, #2 ) ) ;
#426 =( NAMED_UNIT ( * ) SI_UNIT ( $, .STERADIAN. ) SOLID_ANGLE_UNIT ( ) );
#427 = EDGE_LOOP ( 'NONE', ( #385, #319, #106, #36 ) ) ;
#428 = AXIS2_PLACEMENT_3D ( 'NONE', #281, #128, #171 ) ;
#429 = FACE_OUTER_BOUND ( 'NONE', #427, .T. ) ;
#430 = ORIENTED_EDGE ( 'NONE', *, *, #92, .F. ) ;
#431 = DIRECTION ( 'NONE',  ( 0.000000000000000000, 0.000000000000000000, 1.000000000000000000 ) ) ;
#432 = PRODUCT_DEFINITION_SHAPE ( 'NONE', 'NONE',  #382 ) ;
#433 = ORIENTED_EDGE ( 'NONE', *, *, #411, .T. ) ;
#434 = CIRCLE ( 'NONE', #22, 1.649999999999999911 ) ;
#435 = PERSON_AND_ORGANIZATION ( #228, #69 ) ;
#436 = EDGE_CURVE ( 'NONE', #221, #276, #61, .T. ) ;
#437 = DIRECTION ( 'NONE',  ( -0.000000000000000000, -0.000000000000000000, -1.000000000000000000 ) ) ;
#438 = PERSON_AND_ORGANIZATION ( #228, #69 ) ;
#439 = DIRECTION ( 'NONE',  ( 1.000000000000000000, 0.000000000000000000, 0.000000000000000000 ) ) ;
#440 = COORDINATED_UNIVERSAL_TIME_OFFSET ( 6, 0, .BEHIND. ) ;
#441 = AXIS2_PLACEMENT_3D ( 'NONE', #386, #188, #323 ) ;
#442 = DIRECTION ( 'NONE',  ( 0.000000000000000000, 0.000000000000000000, 1.000000000000000000 ) ) ;
#443 = AXIS2_PLACEMENT_3D ( 'NONE', #43, #360, #324 ) ;
#444 = DIRECTION ( 'NONE',  ( 1.000000000000000000, 0.000000000000000000, 0.000000000000000000 ) ) ;
#445 = AXIS2_PLACEMENT_3D ( 'NONE', #41, #35, #288 ) ;
#446 = DIRECTION ( 'NONE',  ( 1.000000000000000000, 0.000000000000000000, -0.000000000000000000 ) ) ;
#447 = APPROVAL ( #156, 'UNSPECIFIED' ) ;
#448 = EDGE_CURVE ( 'NONE', #276, #221, #163, .T. ) ;
#449 = CARTESIAN_POINT ( 'NONE',  ( 1.600000000000000089, 0.000000000000000000, 0.3499999999999994782 ) ) ;
#450 = FACE_OUTER_BOUND ( 'NONE', #64, .T. ) ;
#451 = ORIENTED_EDGE ( 'NONE', *, *, #274, .F. ) ;
#452 = CIRCLE ( 'NONE', #371, 0.04999999999999969746 ) ;
#453 = FACE_OUTER_BOUND ( 'NONE', #74, .T. ) ;
#454 = CIRCLE ( 'NONE', #258, 0.05000000000000002359 ) ;
#455 = VERTEX_POINT ( 'NONE', #140 ) ;
#456 = CARTESIAN_POINT ( 'NONE',  ( 1.600000000000000089, 0.000000000000000000, -0.4000000000000005773 ) ) ;
#457 = ORIENTED_EDGE ( 'NONE', *, *, #304, .F. ) ;
ENDSEC;
END-ISO-10303-21;
