%FSLAX23Y23*%
%MOIN*%
G70*
G01*
G75*
G04 Layer_Color=65535*
%ADD10R,0.020X0.030*%
%ADD11R,0.030X0.030*%
%ADD12R,0.030X0.030*%
%ADD13R,0.050X0.060*%
%ADD14R,0.045X0.045*%
%ADD15R,0.060X0.050*%
%ADD16R,0.045X0.014*%
%ADD17R,0.016X0.033*%
%ADD18R,0.030X0.020*%
%ADD19R,0.040X0.040*%
%ADD20R,0.031X0.028*%
%ADD21R,0.040X0.014*%
%ADD22R,0.016X0.033*%
%ADD23R,0.031X0.028*%
%ADD24R,0.028X0.012*%
%ADD25R,0.012X0.028*%
%ADD26R,0.035X0.020*%
%ADD27R,0.091X0.028*%
%ADD28O,0.018X0.067*%
%ADD29R,0.091X0.091*%
%ADD30R,0.118X0.053*%
%ADD31R,0.053X0.030*%
%ADD32R,0.025X0.020*%
%ADD33C,0.045*%
%ADD34C,0.012*%
%ADD35C,0.030*%
%ADD36C,0.025*%
%ADD37C,0.050*%
%ADD38C,0.010*%
%ADD39C,0.020*%
%ADD40C,0.007*%
%ADD41C,0.035*%
%ADD42C,0.015*%
%ADD43C,0.040*%
%ADD44C,0.008*%
%ADD45R,0.074X0.050*%
%ADD46R,0.147X0.435*%
%ADD47R,0.149X0.141*%
%ADD48R,0.032X0.057*%
%ADD49R,0.024X0.051*%
%ADD50R,0.095X0.041*%
%ADD51R,1.204X0.056*%
%ADD52R,0.062X0.030*%
%ADD53R,0.059X0.042*%
%ADD54R,0.071X0.041*%
%ADD55R,0.035X0.045*%
%ADD56R,0.034X0.045*%
%ADD57R,0.164X0.141*%
%ADD58R,0.063X0.044*%
%ADD59R,0.054X0.028*%
%ADD60R,0.556X0.105*%
%ADD61R,0.349X0.072*%
%ADD62R,0.050X0.041*%
%ADD63C,0.002*%
%ADD64C,0.142*%
%ADD65C,0.045*%
%ADD66O,0.070X0.090*%
%ADD67C,0.025*%
%ADD68C,0.020*%
%ADD69C,0.026*%
%ADD70R,0.180X0.170*%
%ADD71R,0.341X0.153*%
%ADD72R,0.118X0.063*%
%ADD73R,0.086X0.096*%
%ADD74R,0.173X0.225*%
%ADD75R,0.182X0.170*%
%ADD76R,0.073X0.081*%
%ADD77R,0.073X0.086*%
%ADD78R,0.079X0.072*%
%ADD79R,0.146X0.087*%
%ADD80R,0.073X0.070*%
%ADD81R,0.236X0.089*%
%ADD82R,0.137X0.186*%
%ADD83R,0.213X0.084*%
%ADD84R,0.209X0.141*%
%ADD85R,0.202X0.151*%
%ADD86R,0.180X0.107*%
%ADD87R,0.071X0.057*%
%ADD88R,0.442X0.095*%
%ADD89R,0.080X0.071*%
%ADD90R,0.217X0.172*%
%ADD91R,0.173X0.195*%
%ADD92R,0.175X0.176*%
%ADD93R,0.057X0.074*%
%ADD94C,0.004*%
%ADD95C,0.010*%
%ADD96C,0.005*%
%ADD97C,0.008*%
%ADD98C,0.004*%
D38*
X422Y-694D02*
X640D01*
Y-912D02*
Y-694D01*
X422Y-912D02*
X640D01*
X422D02*
Y-694D01*
D40*
X1441Y-360D02*
X1456D01*
Y-400D02*
Y-360D01*
X1441Y-400D02*
X1456D01*
X1441D02*
Y-360D01*
X1348Y-555D02*
Y-540D01*
X1308Y-555D02*
X1348D01*
X1308D02*
Y-540D01*
X1348D01*
X1151Y-291D02*
Y-280D01*
X1175D01*
Y-291D02*
Y-280D01*
X1151Y-291D02*
X1175D01*
X1201Y-893D02*
X1218D01*
X1209D01*
Y-843D01*
X1201Y-851D01*
X1243D02*
X1251Y-843D01*
X1268D01*
X1276Y-851D01*
Y-885D01*
X1268Y-893D01*
X1251D01*
X1243Y-885D01*
Y-851D01*
X1326Y-843D02*
X1293D01*
Y-868D01*
X1309Y-860D01*
X1318D01*
X1326Y-868D01*
Y-885D01*
X1318Y-893D01*
X1301D01*
X1293Y-885D01*
X1343Y-851D02*
X1351Y-843D01*
X1368D01*
X1376Y-851D01*
Y-885D01*
X1368Y-893D01*
X1351D01*
X1343Y-885D01*
Y-851D01*
X1393Y-868D02*
X1426D01*
X1443Y-893D02*
Y-860D01*
X1459Y-843D01*
X1476Y-860D01*
Y-893D01*
Y-868D01*
X1443D01*
D63*
X183Y-922D02*
X1633D01*
X183D02*
Y-208D01*
X1633Y-922D02*
Y-208D01*
X183D02*
X1633D01*
D94*
X763Y-415D02*
G03*
X763Y-415I-2J0D01*
G01*
X1353Y-714D02*
G03*
X1353Y-714I-45J0D01*
G01*
X1283D02*
G03*
X1283Y-714I-5J0D01*
G01*
D95*
X977Y-372D02*
G03*
X977Y-372I-5J0D01*
G01*
X886Y-617D02*
G03*
X886Y-617I-5J0D01*
G01*
X699Y-298D02*
G03*
X699Y-298I-5J0D01*
G01*
X683Y-481D02*
G03*
X683Y-481I-5J0D01*
G01*
D96*
X709Y-325D02*
Y-315D01*
X689D02*
X709D01*
X689Y-325D02*
Y-315D01*
Y-325D02*
X709D01*
X1350Y-420D02*
X1400D01*
Y-406D01*
X1350D02*
X1400D01*
X1350Y-420D02*
Y-406D01*
X1328Y-440D02*
X1331D01*
Y-487D02*
Y-440D01*
X1315Y-487D02*
X1331D01*
X1315D02*
Y-440D01*
X1328D01*
X1285Y-420D02*
X1304D01*
X1225Y-336D02*
X1229D01*
Y-391D02*
Y-336D01*
X1213Y-391D02*
X1229D01*
X1213D02*
Y-336D01*
X1225D01*
X1129Y-432D02*
Y-404D01*
X1141D01*
Y-432D02*
Y-404D01*
X1130Y-432D02*
X1141D01*
X1405Y-636D02*
X1455D01*
Y-622D01*
X1405D02*
X1455D01*
X1405Y-636D02*
Y-622D01*
X1395Y-540D02*
Y-502D01*
X1408D01*
Y-540D02*
Y-502D01*
X1396Y-540D02*
X1408D01*
X1489Y-722D02*
Y-705D01*
Y-722D02*
X1494D01*
Y-705D01*
X1489D02*
X1494D01*
X1157Y-727D02*
Y-703D01*
X1164D01*
Y-727D02*
Y-703D01*
X1157Y-727D02*
X1164D01*
X1151Y-573D02*
X1200D01*
Y-554D01*
X1151D02*
X1200D01*
X1151Y-572D02*
Y-554D01*
X1111Y-584D02*
X1129D01*
Y-574D01*
X1111D02*
X1129D01*
X1111Y-584D02*
Y-574D01*
X1213Y-549D02*
X1236D01*
Y-538D01*
X1213D02*
X1236D01*
X1213Y-549D02*
Y-538D01*
X1470Y-468D02*
Y-448D01*
X1478D01*
Y-468D02*
Y-448D01*
X1470Y-468D02*
X1478D01*
X608Y-348D02*
X669D01*
Y-322D01*
X608D02*
X669D01*
X608Y-348D02*
Y-322D01*
X241Y-688D02*
Y-678D01*
Y-688D02*
X266D01*
Y-731D02*
Y-688D01*
Y-731D02*
X284D01*
Y-687D01*
X308D01*
Y-678D01*
X241D02*
X308D01*
X365Y-694D02*
X367D01*
X365Y-730D02*
Y-694D01*
Y-730D02*
X370D01*
Y-694D01*
X367D02*
X370D01*
X810Y-733D02*
Y-697D01*
X816D01*
Y-733D02*
Y-697D01*
X810Y-733D02*
X816D01*
X897Y-452D02*
X959D01*
Y-427D01*
X897D02*
X959D01*
X897Y-452D02*
Y-427D01*
X1050Y-515D02*
Y-472D01*
Y-515D02*
X1069D01*
Y-472D01*
X1050D02*
X1069D01*
X991Y-413D02*
X1009D01*
Y-405D01*
X991D02*
X1009D01*
X991Y-413D02*
Y-405D01*
X1188Y-289D02*
X1207D01*
Y-281D01*
X1188D02*
X1207D01*
X1188Y-289D02*
Y-281D01*
X887Y-828D02*
X906D01*
Y-818D01*
X888D02*
X906D01*
X888Y-828D02*
Y-818D01*
X921Y-827D02*
X938D01*
Y-819D01*
X921D02*
X938D01*
X921Y-827D02*
Y-819D01*
X954Y-826D02*
X971D01*
Y-821D01*
Y-818D01*
X954D02*
X971D01*
X954Y-826D02*
Y-818D01*
X989Y-825D02*
X1007D01*
Y-815D01*
X989D02*
X1007D01*
X989Y-825D02*
Y-815D01*
X1025Y-824D02*
X1043D01*
Y-815D01*
X1025D02*
X1043D01*
X1025Y-824D02*
Y-815D01*
X1063Y-826D02*
X1083D01*
Y-816D01*
X1063D02*
X1083D01*
X1063Y-826D02*
Y-816D01*
X1465Y-495D02*
Y-475D01*
X1475D01*
Y-495D02*
Y-475D01*
X1465Y-495D02*
X1475D01*
D97*
X776Y-504D02*
Y-502D01*
X832Y-504D02*
Y-502D01*
X776Y-416D02*
Y-414D01*
X832Y-416D02*
Y-414D01*
X776Y-504D02*
X832D01*
X776Y-414D02*
X832D01*
X1064Y-583D02*
X1076D01*
Y-595D02*
Y-583D01*
X1064Y-749D02*
X1076D01*
Y-737D01*
X910Y-749D02*
X922D01*
X910D02*
Y-737D01*
Y-583D02*
X922D01*
X910Y-595D02*
Y-583D01*
X548Y-597D02*
Y-531D01*
X670Y-597D02*
Y-531D01*
X548Y-597D02*
X670D01*
X548Y-531D02*
X670D01*
D98*
X1439Y-320D02*
X1434Y-315D01*
X1424D01*
X1419Y-320D01*
Y-340D01*
X1424Y-345D01*
X1434D01*
X1439Y-340D01*
X1469Y-345D02*
X1449D01*
X1469Y-325D01*
Y-320D01*
X1464Y-315D01*
X1454D01*
X1449Y-320D01*
X1479Y-345D02*
X1489D01*
X1484D01*
Y-315D01*
X1479Y-320D01*
X1371Y-562D02*
X1366Y-557D01*
X1356D01*
X1351Y-562D01*
Y-582D01*
X1356Y-587D01*
X1366D01*
X1371Y-582D01*
X1396Y-587D02*
Y-557D01*
X1381Y-572D01*
X1401D01*
X1545Y-469D02*
X1540Y-464D01*
X1530D01*
X1525Y-469D01*
Y-489D01*
X1530Y-494D01*
X1540D01*
X1545Y-489D01*
X1575Y-494D02*
X1555D01*
X1575Y-474D01*
Y-469D01*
X1570Y-464D01*
X1560D01*
X1555Y-469D01*
X1605Y-494D02*
X1585D01*
X1605Y-474D01*
Y-469D01*
X1600Y-464D01*
X1590D01*
X1585Y-469D01*
X1413Y-404D02*
Y-434D01*
X1433D01*
X1463Y-404D02*
X1443D01*
Y-419D01*
X1453Y-414D01*
X1458D01*
X1463Y-419D01*
Y-429D01*
X1458Y-434D01*
X1448D01*
X1443Y-429D01*
X1342Y-382D02*
X1312D01*
Y-402D01*
X1342Y-412D02*
Y-432D01*
X1337D01*
X1317Y-412D01*
X1312D01*
X740Y-539D02*
Y-564D01*
X745Y-569D01*
X755D01*
X760Y-564D01*
Y-539D01*
X770D02*
X790D01*
Y-544D01*
X770Y-564D01*
Y-569D01*
X706Y-727D02*
X686D01*
Y-742D01*
X696D01*
X686D01*
Y-757D01*
X716D02*
X726D01*
X721D01*
Y-727D01*
X716Y-732D01*
X1037Y-374D02*
X1032Y-369D01*
X1022D01*
X1017Y-374D01*
Y-394D01*
X1022Y-399D01*
X1032D01*
X1037Y-394D01*
X1047Y-399D02*
X1057D01*
X1052D01*
Y-369D01*
X1047Y-374D01*
X1072D02*
X1077Y-369D01*
X1087D01*
X1092Y-374D01*
Y-379D01*
X1087Y-384D01*
X1092Y-389D01*
Y-394D01*
X1087Y-399D01*
X1077D01*
X1072Y-394D01*
Y-389D01*
X1077Y-384D01*
X1072Y-379D01*
Y-374D01*
X1077Y-384D02*
X1087D01*
X1549Y-431D02*
X1544Y-426D01*
X1534D01*
X1529Y-431D01*
Y-451D01*
X1534Y-456D01*
X1544D01*
X1549Y-451D01*
X1579Y-426D02*
X1569Y-431D01*
X1559Y-441D01*
Y-451D01*
X1564Y-456D01*
X1574D01*
X1579Y-451D01*
Y-446D01*
X1574Y-441D01*
X1559D01*
X1467Y-534D02*
Y-504D01*
X1482D01*
X1487Y-509D01*
Y-519D01*
X1482Y-524D01*
X1467D01*
X1477D02*
X1487Y-534D01*
X1497D02*
X1507D01*
X1502D01*
Y-504D01*
X1497Y-509D01*
X1119Y-281D02*
X1114Y-276D01*
X1104D01*
X1099Y-281D01*
Y-301D01*
X1104Y-306D01*
X1114D01*
X1119Y-301D01*
X1129Y-306D02*
X1139D01*
X1134D01*
Y-276D01*
X1129Y-281D01*
X1471Y-623D02*
Y-653D01*
X1491D01*
X1521D02*
X1501D01*
X1521Y-633D01*
Y-628D01*
X1516Y-623D01*
X1506D01*
X1501Y-628D01*
X1161Y-647D02*
Y-677D01*
X1181D01*
X1191D02*
X1201D01*
X1196D01*
Y-647D01*
X1191Y-652D01*
X530Y-310D02*
Y-335D01*
X535Y-340D01*
X545D01*
X550Y-335D01*
Y-310D01*
X575Y-340D02*
Y-310D01*
X560Y-325D01*
X580D01*
X914Y-318D02*
Y-343D01*
X919Y-348D01*
X929D01*
X934Y-343D01*
Y-318D01*
X944Y-323D02*
X949Y-318D01*
X959D01*
X964Y-323D01*
Y-328D01*
X959Y-333D01*
X954D01*
X959D01*
X964Y-338D01*
Y-343D01*
X959Y-348D01*
X949D01*
X944Y-343D01*
X794Y-747D02*
X789Y-742D01*
X779D01*
X774Y-747D01*
Y-767D01*
X779Y-772D01*
X789D01*
X794Y-767D01*
X804Y-772D02*
X814D01*
X809D01*
Y-742D01*
X804Y-747D01*
X829D02*
X834Y-742D01*
X844D01*
X849Y-747D01*
Y-767D01*
X844Y-772D01*
X834D01*
X829Y-767D01*
Y-747D01*
X238Y-774D02*
Y-754D01*
X248Y-744D01*
X258Y-754D01*
Y-774D01*
Y-759D01*
X238D01*
X268Y-774D02*
Y-744D01*
X283D01*
X288Y-749D01*
Y-759D01*
X283Y-764D01*
X268D01*
X278D02*
X288Y-774D01*
X298D02*
X308D01*
X303D01*
Y-744D01*
X298Y-749D01*
X790Y-349D02*
X785Y-344D01*
X775D01*
X770Y-349D01*
Y-369D01*
X775Y-374D01*
X785D01*
X790Y-369D01*
X800Y-374D02*
X810D01*
X805D01*
Y-344D01*
X800Y-349D01*
X825Y-344D02*
X845D01*
Y-349D01*
X825Y-369D01*
Y-374D01*
X1266Y-506D02*
X1260Y-500D01*
X1249D01*
X1243Y-506D01*
Y-529D01*
X1249Y-535D01*
X1260D01*
X1266Y-529D01*
X1278Y-506D02*
X1284Y-500D01*
X1295D01*
X1301Y-506D01*
Y-512D01*
X1295Y-518D01*
X1290D01*
X1295D01*
X1301Y-523D01*
Y-529D01*
X1295Y-535D01*
X1284D01*
X1278Y-529D01*
X1113Y-633D02*
X1108Y-628D01*
X1098D01*
X1093Y-633D01*
Y-653D01*
X1098Y-658D01*
X1108D01*
X1113Y-653D01*
X1143Y-628D02*
X1123D01*
Y-643D01*
X1133Y-638D01*
X1138D01*
X1143Y-643D01*
Y-653D01*
X1138Y-658D01*
X1128D01*
X1123Y-653D01*
X766Y-871D02*
X760Y-865D01*
X749D01*
X743Y-871D01*
Y-894D01*
X749Y-900D01*
X760D01*
X766Y-894D01*
X778Y-900D02*
X790D01*
X784D01*
Y-865D01*
X778Y-871D01*
X830Y-900D02*
X807D01*
X830Y-877D01*
Y-871D01*
X825Y-865D01*
X813D01*
X807Y-871D01*
X1134Y-811D02*
X1128Y-805D01*
X1117D01*
X1111Y-811D01*
Y-834D01*
X1117Y-840D01*
X1128D01*
X1134Y-834D01*
X1146Y-840D02*
X1158D01*
X1152D01*
Y-805D01*
X1146Y-811D01*
X1198Y-805D02*
X1187Y-811D01*
X1175Y-823D01*
Y-834D01*
X1181Y-840D01*
X1193D01*
X1198Y-834D01*
Y-828D01*
X1193Y-823D01*
X1175D01*
X1122Y-860D02*
X1116Y-854D01*
X1105D01*
X1099Y-860D01*
Y-883D01*
X1105Y-889D01*
X1116D01*
X1122Y-883D01*
X1134Y-889D02*
X1146D01*
X1140D01*
Y-854D01*
X1134Y-860D01*
X1186Y-854D02*
X1163D01*
Y-872D01*
X1175Y-866D01*
X1181D01*
X1186Y-872D01*
Y-883D01*
X1181Y-889D01*
X1169D01*
X1163Y-883D01*
X1015Y-879D02*
X1009Y-873D01*
X998D01*
X992Y-879D01*
Y-902D01*
X998Y-908D01*
X1009D01*
X1015Y-902D01*
X1027Y-908D02*
X1039D01*
X1033D01*
Y-873D01*
X1027Y-879D01*
X1074Y-908D02*
Y-873D01*
X1056Y-891D01*
X1079D01*
X1154Y-750D02*
X1148Y-744D01*
X1137D01*
X1131Y-750D01*
Y-773D01*
X1137Y-779D01*
X1148D01*
X1154Y-773D01*
X1166Y-744D02*
X1189D01*
Y-750D01*
X1166Y-773D01*
Y-779D01*
X361Y-653D02*
X356Y-648D01*
X346D01*
X341Y-653D01*
Y-673D01*
X346Y-678D01*
X356D01*
X361Y-673D01*
X371D02*
X376Y-678D01*
X386D01*
X391Y-673D01*
Y-653D01*
X386Y-648D01*
X376D01*
X371Y-653D01*
Y-658D01*
X376Y-663D01*
X391D01*
X1130Y-364D02*
X1125Y-359D01*
X1115D01*
X1110Y-364D01*
Y-384D01*
X1115Y-389D01*
X1125D01*
X1130Y-384D01*
X1160Y-389D02*
X1140D01*
X1160Y-369D01*
Y-364D01*
X1155Y-359D01*
X1145D01*
X1140Y-364D01*
X789Y-820D02*
X784Y-815D01*
X774D01*
X769Y-820D01*
Y-840D01*
X774Y-845D01*
X784D01*
X789Y-840D01*
X799Y-845D02*
X809D01*
X804D01*
Y-815D01*
X799Y-820D01*
X824Y-845D02*
X834D01*
X829D01*
Y-815D01*
X824Y-820D01*
X1291Y-332D02*
Y-357D01*
X1296Y-362D01*
X1306D01*
X1311Y-357D01*
Y-332D01*
X1341Y-362D02*
X1321D01*
X1341Y-342D01*
Y-337D01*
X1336Y-332D01*
X1326D01*
X1321Y-337D01*
X876Y-526D02*
Y-555D01*
X882Y-561D01*
X893D01*
X899Y-555D01*
Y-526D01*
X911Y-561D02*
X923D01*
X917D01*
Y-526D01*
X911Y-532D01*
X899Y-882D02*
X894Y-877D01*
X884D01*
X879Y-882D01*
Y-902D01*
X884Y-907D01*
X894D01*
X899Y-902D01*
X909Y-907D02*
X919D01*
X914D01*
Y-877D01*
X909Y-882D01*
X934D02*
X939Y-877D01*
X949D01*
X954Y-882D01*
Y-887D01*
X949Y-892D01*
X944D01*
X949D01*
X954Y-897D01*
Y-902D01*
X949Y-907D01*
X939D01*
X934Y-902D01*
X1383Y-784D02*
Y-809D01*
X1388Y-814D01*
X1398D01*
X1403Y-809D01*
Y-784D01*
X1433D02*
X1423Y-789D01*
X1413Y-799D01*
Y-809D01*
X1418Y-814D01*
X1428D01*
X1433Y-809D01*
Y-804D01*
X1428Y-799D01*
X1413D01*
X1481Y-756D02*
X1476Y-751D01*
X1466D01*
X1461Y-756D01*
Y-776D01*
X1466Y-781D01*
X1476D01*
X1481Y-776D01*
X1491Y-756D02*
X1496Y-751D01*
X1506D01*
X1511Y-756D01*
Y-761D01*
X1506Y-766D01*
X1511Y-771D01*
Y-776D01*
X1506Y-781D01*
X1496D01*
X1491Y-776D01*
Y-771D01*
X1496Y-766D01*
X1491Y-761D01*
Y-756D01*
X1496Y-766D02*
X1506D01*
X451Y-487D02*
Y-512D01*
X456Y-517D01*
X466D01*
X471Y-512D01*
Y-487D01*
X501D02*
X481D01*
Y-502D01*
X491Y-497D01*
X496D01*
X501Y-502D01*
Y-512D01*
X496Y-517D01*
X486D01*
X481Y-512D01*
X686Y-235D02*
X681Y-230D01*
X671D01*
X666Y-235D01*
Y-255D01*
X671Y-260D01*
X681D01*
X686Y-255D01*
X696Y-260D02*
X706D01*
X701D01*
Y-230D01*
X696Y-235D01*
X721Y-255D02*
X726Y-260D01*
X736D01*
X741Y-255D01*
Y-235D01*
X736Y-230D01*
X726D01*
X721Y-235D01*
Y-240D01*
X726Y-245D01*
X741D01*
X505Y-418D02*
Y-388D01*
X520D01*
X525Y-393D01*
Y-403D01*
X520Y-408D01*
X505D01*
X515D02*
X525Y-418D01*
X555D02*
X535D01*
X555Y-398D01*
Y-393D01*
X550Y-388D01*
X540D01*
X535Y-393D01*
X1036Y-434D02*
Y-464D01*
X1056D01*
X1066Y-439D02*
X1071Y-434D01*
X1081D01*
X1086Y-439D01*
Y-444D01*
X1081Y-449D01*
X1076D01*
X1081D01*
X1086Y-454D01*
Y-459D01*
X1081Y-464D01*
X1071D01*
X1066Y-459D01*
X1236Y-280D02*
X1231Y-275D01*
X1221D01*
X1216Y-280D01*
Y-300D01*
X1221Y-305D01*
X1231D01*
X1236Y-300D01*
X1266Y-305D02*
X1246D01*
X1266Y-285D01*
Y-280D01*
X1261Y-275D01*
X1251D01*
X1246Y-280D01*
X1276D02*
X1281Y-275D01*
X1291D01*
X1296Y-280D01*
Y-300D01*
X1291Y-305D01*
X1281D01*
X1276Y-300D01*
Y-280D01*
X1227Y-441D02*
Y-411D01*
X1242D01*
X1247Y-416D01*
Y-426D01*
X1242Y-431D01*
X1227D01*
X1237D02*
X1247Y-441D01*
X1272D02*
Y-411D01*
X1257Y-426D01*
X1277D01*
X1253Y-239D02*
X1273D01*
X1263Y-229D02*
Y-249D01*
X1283Y-224D02*
Y-244D01*
X1293Y-254D01*
X1303Y-244D01*
Y-224D01*
X1313Y-254D02*
X1323D01*
X1318D01*
Y-234D01*
X1313D01*
X1338Y-254D02*
Y-234D01*
X1353D01*
X1358Y-239D01*
Y-254D01*
X797Y-239D02*
X792Y-234D01*
X782D01*
X777Y-239D01*
Y-244D01*
X782Y-249D01*
X792D01*
X797Y-254D01*
Y-259D01*
X792Y-264D01*
X782D01*
X777Y-259D01*
X827Y-234D02*
X807D01*
Y-264D01*
X827D01*
X807Y-249D02*
X817D01*
X837Y-264D02*
Y-234D01*
X852D01*
X857Y-239D01*
Y-249D01*
X852Y-254D01*
X837D01*
X847D02*
X857Y-264D01*
X467Y-245D02*
Y-275D01*
X487D01*
X517Y-245D02*
X497D01*
Y-275D01*
X517D01*
X497Y-260D02*
X507D01*
X949Y-239D02*
X944Y-234D01*
X934D01*
X929Y-239D01*
Y-259D01*
X934Y-264D01*
X944D01*
X949Y-259D01*
X959Y-234D02*
Y-264D01*
X979D01*
X989Y-234D02*
Y-264D01*
Y-254D01*
X1009Y-234D01*
X994Y-249D01*
X1009Y-264D01*
M02*
