%FSLAX23Y23*%
%MOIN*%
G70*
G01*
G75*
G04 Layer_Color=8421504*
%ADD10R,0.020X0.030*%
%ADD11R,0.030X0.030*%
%ADD12R,0.030X0.030*%
%ADD13R,0.050X0.060*%
%ADD14R,0.045X0.045*%
%ADD15R,0.060X0.050*%
%ADD16R,0.045X0.014*%
%ADD17R,0.016X0.033*%
%ADD18R,0.030X0.020*%
%ADD19R,0.040X0.040*%
%ADD20R,0.031X0.028*%
%ADD21R,0.040X0.014*%
%ADD22R,0.016X0.033*%
%ADD23R,0.031X0.028*%
%ADD24R,0.028X0.012*%
%ADD25R,0.012X0.028*%
%ADD26R,0.035X0.020*%
%ADD27R,0.091X0.028*%
%ADD28O,0.018X0.067*%
%ADD29R,0.091X0.091*%
%ADD30R,0.118X0.053*%
%ADD31R,0.053X0.030*%
%ADD32R,0.025X0.020*%
%ADD33C,0.045*%
%ADD34C,0.012*%
%ADD35C,0.030*%
%ADD36C,0.025*%
%ADD37C,0.050*%
%ADD38C,0.010*%
%ADD39C,0.020*%
%ADD40C,0.007*%
%ADD41C,0.035*%
%ADD42C,0.015*%
%ADD43C,0.040*%
%ADD44C,0.008*%
%ADD45R,0.074X0.050*%
%ADD46R,0.147X0.435*%
%ADD47R,0.149X0.141*%
%ADD48R,0.032X0.057*%
%ADD49R,0.024X0.051*%
%ADD50R,0.095X0.041*%
%ADD51R,1.204X0.056*%
%ADD52R,0.062X0.030*%
%ADD53R,0.059X0.042*%
%ADD54R,0.071X0.041*%
%ADD55R,0.035X0.045*%
%ADD56R,0.034X0.045*%
%ADD57R,0.164X0.141*%
%ADD58R,0.063X0.044*%
%ADD59R,0.054X0.028*%
%ADD60R,0.556X0.105*%
%ADD61R,0.349X0.072*%
%ADD62R,0.050X0.041*%
%ADD63C,0.002*%
%ADD64C,0.142*%
%ADD65C,0.045*%
%ADD66O,0.070X0.090*%
%ADD67C,0.025*%
%ADD68C,0.020*%
%ADD69C,0.026*%
%ADD70R,0.180X0.170*%
%ADD71R,0.341X0.153*%
%ADD72R,0.118X0.063*%
%ADD73R,0.086X0.096*%
%ADD74R,0.173X0.225*%
%ADD75R,0.182X0.170*%
%ADD76R,0.073X0.081*%
%ADD77R,0.073X0.086*%
%ADD78R,0.079X0.072*%
%ADD79R,0.146X0.087*%
%ADD80R,0.073X0.070*%
%ADD81R,0.236X0.089*%
%ADD82R,0.137X0.186*%
%ADD83R,0.213X0.084*%
%ADD84R,0.209X0.141*%
%ADD85R,0.202X0.151*%
%ADD86R,0.180X0.107*%
%ADD87R,0.071X0.057*%
%ADD88R,0.442X0.095*%
%ADD89R,0.080X0.071*%
%ADD90R,0.217X0.172*%
%ADD91R,0.173X0.195*%
%ADD92R,0.175X0.176*%
%ADD93R,0.057X0.074*%
%ADD94C,0.004*%
%ADD95C,0.010*%
%ADD96C,0.005*%
%ADD97C,0.008*%
%ADD98C,0.004*%
D10*
X699Y-345D02*
D03*
Y-295D02*
D03*
X1225Y-568D02*
D03*
Y-518D02*
D03*
X1295Y-398D02*
D03*
Y-448D02*
D03*
X1197Y-309D02*
D03*
X1121Y-603D02*
D03*
Y-553D02*
D03*
X931Y-800D02*
D03*
Y-850D02*
D03*
X1074Y-794D02*
D03*
Y-844D02*
D03*
X1035Y-794D02*
D03*
Y-844D02*
D03*
X1000Y-794D02*
D03*
Y-844D02*
D03*
X897Y-847D02*
D03*
Y-797D02*
D03*
X964Y-849D02*
D03*
Y-799D02*
D03*
X1000Y-434D02*
D03*
Y-384D02*
D03*
X1197Y-259D02*
D03*
D11*
X1476Y-380D02*
D03*
X1421D02*
D03*
X1164Y-417D02*
D03*
X1109D02*
D03*
D12*
X1328Y-575D02*
D03*
Y-520D02*
D03*
X1164Y-259D02*
D03*
Y-314D02*
D03*
D13*
X1375Y-369D02*
D03*
Y-459D02*
D03*
X1430Y-586D02*
D03*
Y-676D02*
D03*
X1177Y-517D02*
D03*
Y-607D02*
D03*
D14*
X1368Y-519D02*
D03*
X1435D02*
D03*
D15*
X1367Y-465D02*
D03*
X1277D02*
D03*
X1015Y-493D02*
D03*
X1105D02*
D03*
D16*
X770Y-485D02*
D03*
X838Y-433D02*
D03*
X770Y-459D02*
D03*
Y-433D02*
D03*
X838Y-485D02*
D03*
D17*
X639Y-372D02*
D03*
Y-298D02*
D03*
X928Y-475D02*
D03*
Y-401D02*
D03*
D18*
X836Y-714D02*
D03*
X1449Y-457D02*
D03*
X1499Y-456D02*
D03*
X1184Y-715D02*
D03*
X1134Y-715D02*
D03*
X343Y-715D02*
D03*
X393D02*
D03*
X792Y-395D02*
D03*
X842D02*
D03*
X582Y-407D02*
D03*
X632D02*
D03*
D19*
X786Y-714D02*
D03*
D20*
X305Y-707D02*
D03*
D21*
X1257Y-363D02*
D03*
X1189Y-337D02*
D03*
X1257D02*
D03*
Y-389D02*
D03*
X1189D02*
D03*
D22*
X902Y-475D02*
D03*
X954D02*
D03*
Y-401D02*
D03*
X902D02*
D03*
X665Y-298D02*
D03*
Y-372D02*
D03*
X613Y-298D02*
D03*
Y-372D02*
D03*
D23*
X246Y-707D02*
D03*
D24*
X916Y-636D02*
D03*
Y-656D02*
D03*
Y-676D02*
D03*
Y-696D02*
D03*
Y-715D02*
D03*
X1070D02*
D03*
Y-696D02*
D03*
Y-676D02*
D03*
Y-656D02*
D03*
Y-636D02*
D03*
Y-617D02*
D03*
X916Y-617D02*
D03*
D25*
X944Y-743D02*
D03*
X963D02*
D03*
X983D02*
D03*
X1003D02*
D03*
X1023D02*
D03*
X1042D02*
D03*
Y-589D02*
D03*
X1023D02*
D03*
X1003D02*
D03*
X983D02*
D03*
X963D02*
D03*
X944D02*
D03*
D26*
X1517Y-714D02*
D03*
X1467D02*
D03*
D27*
X276Y-660D02*
D03*
D28*
X571Y-647D02*
D03*
X596D02*
D03*
X622D02*
D03*
X647D02*
D03*
X571Y-481D02*
D03*
X647D02*
D03*
X622D02*
D03*
X596D02*
D03*
D29*
X993Y-666D02*
D03*
D30*
X1308Y-629D02*
D03*
Y-799D02*
D03*
D31*
X1388Y-714D02*
D03*
X1228D02*
D03*
D32*
X1495Y-485D02*
D03*
X1445D02*
D03*
D63*
X183Y-922D02*
X1633D01*
X183D02*
Y-208D01*
X1633Y-922D02*
Y-208D01*
X183D02*
X1633D01*
M02*
