; Excellon Drill file
; Produced from Eagleware's LAYOUT program
; Format: 2.3.  Units: inches.  No zeros have been omitted.
M48
T01C.015; 13 holes this size
T02C.008; 44 holes this size
T03C.020; 51 holes this size
T04C.090; 28 holes this size
T05C.025; 10 holes this size
T06C.010; 7 holes this size
T07C.030; 1 hole this size
; TOTAL HOLES = 154
%
T1
X01447Y01010
X01409Y00971
X01446Y00971
X01150Y00380
X01408Y01010
X04793Y01009
X04832Y00971
X04793Y00970
X04894Y01138
X04915Y00356
X05215Y00354
X04831Y01060
X04831Y01010
T2
X01358Y01025
X01495Y01025
X01494Y00980
X01357Y00977
X02839Y01039
X02761Y01039
X02761Y00961
X02800Y01000
X02800Y00961
X02839Y00961
X06059Y01039
X05981Y01039
X05981Y00961
X06020Y01000
X06020Y00961
X06059Y00961
X00359Y01040
X00281Y01040
X00281Y00961
X00320Y01001
X00320Y00961
X00359Y00961
X04745Y01025
X04745Y00979
X01818Y01039
X01739Y01039
X01739Y00961
X01779Y01000
X01779Y00961
X01818Y00961
X03709Y01039
X03631Y01039
X03631Y00961
X03670Y01000
X03670Y00961
X03709Y00961
X04882Y01025
X04881Y00979
X05209Y01039
X05131Y01039
X05131Y00961
X05170Y01000
X05170Y00961
X05209Y00961
T3
X01470Y00320
X03290Y00125
X03308Y00532
X05297Y01863
X01800Y00125
X02906Y00568
X04662Y00346
X01040Y00695
X02415Y00060
X02585Y00060
X04585Y00050
X04415Y00050
X04575Y01940
X04415Y01940
X02575Y01940
X02415Y01940
X03380Y00750
X03000Y00750
X03780Y00750
X04080Y00750
X05785Y00536
X01140Y01130
X01050Y00870
X01230Y00870
X06506Y00502
X07040Y01330
X01312Y01180
X00872Y00320
X02280Y00242
X03950Y01318
X04220Y01661
X00806Y01324
X00600Y01674
X02048Y01318
X01890Y01778
X03080Y01672
X03016Y01384
X03078Y01318
X05584Y01566
X06326Y01674
X05651Y01325
X06526Y01322
X05686Y00528
X05468Y00628
X05414Y00282
X00915Y00536
X03718Y00094
X04026Y00676
X03784Y00498
X03415Y01464
X01522Y00292
T4
X00100Y01150
X00100Y00850
X00100Y00100
X01100Y00100
X04500Y01250
X04500Y00750
X00100Y01530
X00100Y00470
X03900Y00100
X04900Y00100
X07400Y00100
X07400Y00470
X07400Y00850
X07400Y01150
X07400Y01530
X07400Y01900
X06200Y01900
X06200Y00100
X02500Y00750
X01100Y01900
X04900Y01900
X00100Y01900
X02100Y00100
X03100Y00100
X02100Y01900
X02500Y01250
X03900Y01900
X03100Y01900
T5
X06860Y00240
X07060Y00385
X01016Y01592
X01680Y01180
X03574Y01160
X00210Y01210
X02702Y01170
X06568Y01590
X05916Y01208
X05062Y01168
T6
X01446Y01064
X06786Y01054
X06798Y00942
X06862Y00942
X06824Y01058
X06862Y01054
X06830Y00942
T7
X06900Y01320
T00
M30
