%TF.GenerationSoftware,KiCad,Pcbnew,9.0.5*%
%TF.CreationDate,2026-01-09T15:49:09-08:00*%
%TF.ProjectId,Linear_Voltage_Regulator,4c696e65-6172-45f5-966f-6c746167655f,rev?*%
%TF.SameCoordinates,Original*%
%TF.FileFunction,Copper,L2,Bot*%
%TF.FilePolarity,Positive*%
%FSLAX46Y46*%
G04 Gerber Fmt 4.6, Leading zero omitted, Abs format (unit mm)*
G04 Created by KiCad (PCBNEW 9.0.5) date 2026-01-09 15:49:09*
%MOMM*%
%LPD*%
G01*
G04 APERTURE LIST*
%TA.AperFunction,ComponentPad*%
%ADD10C,2.910000*%
%TD*%
%TA.AperFunction,ComponentPad*%
%ADD11R,1.890000X1.890000*%
%TD*%
%TA.AperFunction,ComponentPad*%
%ADD12C,1.890000*%
%TD*%
%TA.AperFunction,ComponentPad*%
%ADD13C,4.500000*%
%TD*%
%TA.AperFunction,ViaPad*%
%ADD14C,0.600000*%
%TD*%
G04 APERTURE END LIST*
D10*
%TO.P,J3,4,4*%
%TO.N,GND*%
X135030000Y-107650000D03*
%TO.P,J3,3,3*%
X135030000Y-114950000D03*
%TD*%
%TO.P,J1,3,3*%
%TO.N,GND*%
X135030000Y-88800000D03*
%TO.P,J1,4,4*%
X135030000Y-81500000D03*
%TD*%
D11*
%TO.P,IC1,1,INPUT*%
%TO.N,Net-(IC1-INPUT)*%
X162450000Y-95760000D03*
D12*
%TO.P,IC1,2,COMMON*%
%TO.N,GND*%
X162450000Y-98300000D03*
%TO.P,IC1,3,OUTPUT*%
%TO.N,Net-(IC1-OUTPUT)*%
X162450000Y-100840000D03*
%TD*%
D10*
%TO.P,J2,3,3*%
%TO.N,GND*%
X135030000Y-101875000D03*
%TO.P,J2,4,4*%
X135030000Y-94575000D03*
%TD*%
D13*
%TO.P,U1,1,1*%
%TO.N,GND*%
X164259234Y-88821475D03*
%TO.P,U1,2,2*%
X164259234Y-107821475D03*
%TD*%
D14*
%TO.N,GND*%
X177000000Y-99588240D03*
X165970580Y-74500000D03*
X144205880Y-74500000D03*
X150735290Y-74500000D03*
X152911760Y-74500000D03*
X157764700Y-122000000D03*
X168647050Y-122000000D03*
X173000000Y-122000000D03*
X177000000Y-101764710D03*
X177000000Y-97411770D03*
X163794110Y-74500000D03*
X166470580Y-122000000D03*
X137676470Y-74500000D03*
X159941170Y-122000000D03*
X170823520Y-122000000D03*
X177000000Y-114823530D03*
X177000000Y-108294120D03*
X177000000Y-110470590D03*
X146500000Y-105500000D03*
X177000000Y-86529420D03*
X177000000Y-80000000D03*
X168147050Y-74500000D03*
X139852940Y-74500000D03*
X177000000Y-82176480D03*
X157264700Y-74500000D03*
X177000000Y-112647060D03*
X148558820Y-74500000D03*
X177000000Y-90882360D03*
X142029410Y-74500000D03*
X146500000Y-107500000D03*
X155088230Y-74500000D03*
X177000000Y-103941180D03*
X177000000Y-117000000D03*
X136000000Y-122000000D03*
X135500000Y-74500000D03*
X170323520Y-74500000D03*
X164294110Y-122000000D03*
X140352940Y-122000000D03*
X177000000Y-95235300D03*
X161617640Y-74500000D03*
X144705880Y-122000000D03*
X138176470Y-122000000D03*
X146500000Y-103500000D03*
X177000000Y-106117650D03*
X159441170Y-74500000D03*
X177000000Y-88705890D03*
X177000000Y-93058830D03*
X177000000Y-84352950D03*
X162117640Y-122000000D03*
X172500000Y-74500000D03*
X146382350Y-74500000D03*
X155588230Y-122000000D03*
X142529410Y-122000000D03*
%TD*%
%TA.AperFunction,Conductor*%
%TO.N,GND*%
G36*
X181942539Y-70020185D02*
G01*
X181988294Y-70072989D01*
X181999500Y-70124500D01*
X181999500Y-126875500D01*
X181979815Y-126942539D01*
X181927011Y-126988294D01*
X181875500Y-126999500D01*
X128124500Y-126999500D01*
X128057461Y-126979815D01*
X128011706Y-126927011D01*
X128000500Y-126875500D01*
X128000500Y-121872149D01*
X130549500Y-121872149D01*
X130549500Y-122127850D01*
X130562665Y-122227843D01*
X130582874Y-122381340D01*
X130609669Y-122481340D01*
X130649050Y-122628312D01*
X130649053Y-122628322D01*
X130746894Y-122864531D01*
X130746899Y-122864542D01*
X130874734Y-123085957D01*
X130874745Y-123085973D01*
X131030388Y-123288811D01*
X131030394Y-123288818D01*
X131211181Y-123469605D01*
X131211187Y-123469610D01*
X131414035Y-123625261D01*
X131414042Y-123625265D01*
X131635457Y-123753100D01*
X131635462Y-123753102D01*
X131635465Y-123753104D01*
X131871687Y-123850950D01*
X132118660Y-123917126D01*
X132372157Y-123950500D01*
X132372164Y-123950500D01*
X132627836Y-123950500D01*
X132627843Y-123950500D01*
X132881340Y-123917126D01*
X133128313Y-123850950D01*
X133364535Y-123753104D01*
X133585965Y-123625261D01*
X133788813Y-123469610D01*
X133969610Y-123288813D01*
X134125261Y-123085965D01*
X134253104Y-122864535D01*
X134350950Y-122628313D01*
X134417126Y-122381340D01*
X134450500Y-122127843D01*
X134450500Y-121972149D01*
X175049500Y-121972149D01*
X175049500Y-122227850D01*
X175075457Y-122425007D01*
X175082874Y-122481340D01*
X175122258Y-122628322D01*
X175149050Y-122728312D01*
X175149053Y-122728322D01*
X175246894Y-122964531D01*
X175246899Y-122964542D01*
X175374734Y-123185957D01*
X175374745Y-123185973D01*
X175530388Y-123388811D01*
X175530394Y-123388818D01*
X175711181Y-123569605D01*
X175711188Y-123569611D01*
X175783713Y-123625261D01*
X175914035Y-123725261D01*
X175914042Y-123725265D01*
X176135457Y-123853100D01*
X176135462Y-123853102D01*
X176135465Y-123853104D01*
X176284426Y-123914805D01*
X176370600Y-123950500D01*
X176371687Y-123950950D01*
X176618660Y-124017126D01*
X176872157Y-124050500D01*
X176872164Y-124050500D01*
X177127836Y-124050500D01*
X177127843Y-124050500D01*
X177381340Y-124017126D01*
X177628313Y-123950950D01*
X177864535Y-123853104D01*
X178085965Y-123725261D01*
X178288813Y-123569610D01*
X178469610Y-123388813D01*
X178625261Y-123185965D01*
X178753104Y-122964535D01*
X178850950Y-122728313D01*
X178917126Y-122481340D01*
X178950500Y-122227843D01*
X178950500Y-121972157D01*
X178917126Y-121718660D01*
X178850950Y-121471687D01*
X178820280Y-121397644D01*
X178753105Y-121235468D01*
X178753100Y-121235457D01*
X178625265Y-121014042D01*
X178625261Y-121014035D01*
X178469610Y-120811187D01*
X178469605Y-120811181D01*
X178288818Y-120630394D01*
X178288811Y-120630388D01*
X178085973Y-120474745D01*
X178085971Y-120474743D01*
X178085965Y-120474739D01*
X178085960Y-120474736D01*
X178085957Y-120474734D01*
X177864542Y-120346899D01*
X177864531Y-120346894D01*
X177628322Y-120249053D01*
X177628315Y-120249051D01*
X177628313Y-120249050D01*
X177381340Y-120182874D01*
X177325007Y-120175457D01*
X177127850Y-120149500D01*
X177127843Y-120149500D01*
X176872157Y-120149500D01*
X176872149Y-120149500D01*
X176646826Y-120179165D01*
X176618660Y-120182874D01*
X176379733Y-120246894D01*
X176371687Y-120249050D01*
X176371677Y-120249053D01*
X176135468Y-120346894D01*
X176135457Y-120346899D01*
X175914042Y-120474734D01*
X175914026Y-120474745D01*
X175711188Y-120630388D01*
X175711181Y-120630394D01*
X175530394Y-120811181D01*
X175530388Y-120811188D01*
X175374745Y-121014026D01*
X175374734Y-121014042D01*
X175246899Y-121235457D01*
X175246894Y-121235468D01*
X175149053Y-121471677D01*
X175149050Y-121471687D01*
X175082874Y-121718661D01*
X175049500Y-121972149D01*
X134450500Y-121972149D01*
X134450500Y-121872157D01*
X134417126Y-121618660D01*
X134350950Y-121371687D01*
X134253104Y-121135465D01*
X134253102Y-121135462D01*
X134253100Y-121135457D01*
X134125265Y-120914042D01*
X134125261Y-120914035D01*
X133969610Y-120711187D01*
X133969605Y-120711181D01*
X133788818Y-120530394D01*
X133788811Y-120530388D01*
X133585973Y-120374745D01*
X133585971Y-120374743D01*
X133585965Y-120374739D01*
X133585960Y-120374736D01*
X133585957Y-120374734D01*
X133364542Y-120246899D01*
X133364531Y-120246894D01*
X133128322Y-120149053D01*
X133128315Y-120149051D01*
X133128313Y-120149050D01*
X132881340Y-120082874D01*
X132825007Y-120075457D01*
X132627850Y-120049500D01*
X132627843Y-120049500D01*
X132372157Y-120049500D01*
X132372149Y-120049500D01*
X132146826Y-120079165D01*
X132118660Y-120082874D01*
X131871687Y-120149050D01*
X131871677Y-120149053D01*
X131635468Y-120246894D01*
X131635457Y-120246899D01*
X131414042Y-120374734D01*
X131414026Y-120374745D01*
X131211188Y-120530388D01*
X131211181Y-120530394D01*
X131030394Y-120711181D01*
X131030388Y-120711188D01*
X130874745Y-120914026D01*
X130874734Y-120914042D01*
X130746899Y-121135457D01*
X130746894Y-121135468D01*
X130649053Y-121371677D01*
X130649050Y-121371687D01*
X130582874Y-121618661D01*
X130549500Y-121872149D01*
X128000500Y-121872149D01*
X128000500Y-114821862D01*
X133075000Y-114821862D01*
X133075000Y-115078137D01*
X133108448Y-115332209D01*
X133108451Y-115332222D01*
X133174779Y-115579765D01*
X133272849Y-115816526D01*
X133272851Y-115816530D01*
X133400989Y-116038469D01*
X133400990Y-116038470D01*
X133482174Y-116144271D01*
X134018536Y-115607908D01*
X134110878Y-115735005D01*
X134244995Y-115869122D01*
X134372089Y-115961461D01*
X133835727Y-116497823D01*
X133835727Y-116497824D01*
X133941529Y-116579009D01*
X133941530Y-116579010D01*
X134163469Y-116707148D01*
X134163473Y-116707150D01*
X134400234Y-116805220D01*
X134647777Y-116871548D01*
X134647790Y-116871551D01*
X134901862Y-116905000D01*
X135158138Y-116905000D01*
X135412209Y-116871551D01*
X135412222Y-116871548D01*
X135659765Y-116805220D01*
X135896526Y-116707150D01*
X135896530Y-116707148D01*
X136118479Y-116579005D01*
X136224271Y-116497826D01*
X136224271Y-116497823D01*
X135687909Y-115961462D01*
X135815005Y-115869122D01*
X135949122Y-115735005D01*
X136041462Y-115607910D01*
X136577823Y-116144271D01*
X136577826Y-116144271D01*
X136659005Y-116038479D01*
X136787148Y-115816530D01*
X136787150Y-115816526D01*
X136885220Y-115579765D01*
X136951548Y-115332222D01*
X136951551Y-115332209D01*
X136985000Y-115078137D01*
X136985000Y-114821862D01*
X136951551Y-114567790D01*
X136951548Y-114567777D01*
X136885220Y-114320234D01*
X136787150Y-114083473D01*
X136787148Y-114083469D01*
X136659010Y-113861530D01*
X136659009Y-113861529D01*
X136577824Y-113755727D01*
X136577823Y-113755727D01*
X136041461Y-114292089D01*
X135949122Y-114164995D01*
X135815005Y-114030878D01*
X135687908Y-113938536D01*
X136224271Y-113402174D01*
X136118470Y-113320990D01*
X136118469Y-113320989D01*
X135896530Y-113192851D01*
X135896526Y-113192849D01*
X135659765Y-113094779D01*
X135412222Y-113028451D01*
X135412209Y-113028448D01*
X135158138Y-112995000D01*
X134901862Y-112995000D01*
X134647790Y-113028448D01*
X134647777Y-113028451D01*
X134400234Y-113094779D01*
X134163473Y-113192849D01*
X134163469Y-113192851D01*
X133941530Y-113320989D01*
X133941520Y-113320995D01*
X133835727Y-113402173D01*
X133835727Y-113402174D01*
X134372090Y-113938537D01*
X134244995Y-114030878D01*
X134110878Y-114164995D01*
X134018537Y-114292090D01*
X133482174Y-113755727D01*
X133482173Y-113755727D01*
X133400995Y-113861520D01*
X133400989Y-113861530D01*
X133272851Y-114083469D01*
X133272849Y-114083473D01*
X133174779Y-114320234D01*
X133108451Y-114567777D01*
X133108448Y-114567790D01*
X133075000Y-114821862D01*
X128000500Y-114821862D01*
X128000500Y-107521862D01*
X133075000Y-107521862D01*
X133075000Y-107778137D01*
X133108448Y-108032209D01*
X133108451Y-108032222D01*
X133174779Y-108279765D01*
X133272849Y-108516526D01*
X133272851Y-108516530D01*
X133400989Y-108738469D01*
X133400990Y-108738470D01*
X133482174Y-108844271D01*
X134018536Y-108307908D01*
X134110878Y-108435005D01*
X134244995Y-108569122D01*
X134372089Y-108661461D01*
X133835727Y-109197823D01*
X133835727Y-109197824D01*
X133941529Y-109279009D01*
X133941530Y-109279010D01*
X134163469Y-109407148D01*
X134163473Y-109407150D01*
X134400234Y-109505220D01*
X134647777Y-109571548D01*
X134647790Y-109571551D01*
X134901862Y-109605000D01*
X135158138Y-109605000D01*
X135412209Y-109571551D01*
X135412222Y-109571548D01*
X135659765Y-109505220D01*
X135896526Y-109407150D01*
X135896530Y-109407148D01*
X136118479Y-109279005D01*
X136224271Y-109197826D01*
X136224271Y-109197823D01*
X135687909Y-108661462D01*
X135815005Y-108569122D01*
X135949122Y-108435005D01*
X136041462Y-108307910D01*
X136577823Y-108844271D01*
X136577826Y-108844271D01*
X136659005Y-108738479D01*
X136787148Y-108516530D01*
X136787150Y-108516526D01*
X136885220Y-108279765D01*
X136951548Y-108032222D01*
X136951551Y-108032209D01*
X136985000Y-107778137D01*
X136985000Y-107667033D01*
X161509234Y-107667033D01*
X161509234Y-107975916D01*
X161543815Y-108282830D01*
X161543817Y-108282842D01*
X161612548Y-108583974D01*
X161714562Y-108875514D01*
X161848575Y-109153795D01*
X162012903Y-109415320D01*
X162145527Y-109581627D01*
X163036574Y-108690580D01*
X163115098Y-108798659D01*
X163282050Y-108965611D01*
X163390127Y-109044133D01*
X162499079Y-109935181D01*
X162665376Y-110067798D01*
X162665378Y-110067799D01*
X162926913Y-110232133D01*
X163205194Y-110366146D01*
X163496735Y-110468160D01*
X163496733Y-110468160D01*
X163797866Y-110536891D01*
X163797878Y-110536893D01*
X164104792Y-110571474D01*
X164104794Y-110571475D01*
X164413674Y-110571475D01*
X164413675Y-110571474D01*
X164720589Y-110536893D01*
X164720601Y-110536891D01*
X165021733Y-110468160D01*
X165313273Y-110366146D01*
X165591554Y-110232133D01*
X165853085Y-110067801D01*
X166019387Y-109935181D01*
X165128340Y-109044134D01*
X165236418Y-108965611D01*
X165403370Y-108798659D01*
X165481893Y-108690581D01*
X166372940Y-109581628D01*
X166505560Y-109415326D01*
X166669892Y-109153795D01*
X166803905Y-108875514D01*
X166905919Y-108583974D01*
X166974650Y-108282842D01*
X166974652Y-108282830D01*
X167009233Y-107975916D01*
X167009234Y-107975914D01*
X167009234Y-107667035D01*
X167009233Y-107667033D01*
X166974652Y-107360119D01*
X166974650Y-107360107D01*
X166905919Y-107058975D01*
X166803905Y-106767435D01*
X166669892Y-106489154D01*
X166505558Y-106227619D01*
X166505557Y-106227617D01*
X166372940Y-106061320D01*
X165481892Y-106952368D01*
X165403370Y-106844291D01*
X165236418Y-106677339D01*
X165128338Y-106598815D01*
X166019386Y-105707768D01*
X165853079Y-105575144D01*
X165591554Y-105410816D01*
X165313273Y-105276803D01*
X165021732Y-105174789D01*
X165021734Y-105174789D01*
X164720601Y-105106058D01*
X164720589Y-105106056D01*
X164413675Y-105071475D01*
X164104792Y-105071475D01*
X163797878Y-105106056D01*
X163797866Y-105106058D01*
X163496734Y-105174789D01*
X163205194Y-105276803D01*
X162926913Y-105410816D01*
X162665378Y-105575150D01*
X162665374Y-105575153D01*
X162499079Y-105707767D01*
X163390127Y-106598815D01*
X163282050Y-106677339D01*
X163115098Y-106844291D01*
X163036574Y-106952368D01*
X162145526Y-106061320D01*
X162012912Y-106227615D01*
X162012909Y-106227619D01*
X161848575Y-106489154D01*
X161714562Y-106767435D01*
X161612548Y-107058975D01*
X161543817Y-107360107D01*
X161543815Y-107360119D01*
X161509234Y-107667033D01*
X136985000Y-107667033D01*
X136985000Y-107521862D01*
X136951551Y-107267790D01*
X136951548Y-107267777D01*
X136885220Y-107020234D01*
X136787150Y-106783473D01*
X136787148Y-106783469D01*
X136659010Y-106561530D01*
X136659009Y-106561529D01*
X136577824Y-106455727D01*
X136577823Y-106455727D01*
X136041461Y-106992089D01*
X135949122Y-106864995D01*
X135815005Y-106730878D01*
X135687908Y-106638536D01*
X136224271Y-106102174D01*
X136118470Y-106020990D01*
X136118469Y-106020989D01*
X135896530Y-105892851D01*
X135896521Y-105892846D01*
X135843235Y-105870775D01*
X135843234Y-105870775D01*
X135659765Y-105794779D01*
X135412222Y-105728451D01*
X135412209Y-105728448D01*
X135158138Y-105695000D01*
X134901862Y-105695000D01*
X134647790Y-105728448D01*
X134647777Y-105728451D01*
X134400234Y-105794779D01*
X134163473Y-105892849D01*
X134163469Y-105892851D01*
X133941530Y-106020989D01*
X133941520Y-106020995D01*
X133835727Y-106102173D01*
X133835727Y-106102174D01*
X134372090Y-106638537D01*
X134244995Y-106730878D01*
X134110878Y-106864995D01*
X134018537Y-106992090D01*
X133482174Y-106455727D01*
X133482173Y-106455727D01*
X133400995Y-106561520D01*
X133400989Y-106561530D01*
X133272851Y-106783469D01*
X133272849Y-106783473D01*
X133174779Y-107020234D01*
X133108451Y-107267777D01*
X133108448Y-107267790D01*
X133075000Y-107521862D01*
X128000500Y-107521862D01*
X128000500Y-101746862D01*
X133075000Y-101746862D01*
X133075000Y-102003137D01*
X133108448Y-102257209D01*
X133108451Y-102257222D01*
X133174779Y-102504765D01*
X133272849Y-102741526D01*
X133272851Y-102741530D01*
X133400989Y-102963469D01*
X133400990Y-102963470D01*
X133482174Y-103069271D01*
X134018536Y-102532908D01*
X134110878Y-102660005D01*
X134244995Y-102794122D01*
X134372089Y-102886461D01*
X133835727Y-103422823D01*
X133835727Y-103422824D01*
X133941529Y-103504009D01*
X133941530Y-103504010D01*
X134163469Y-103632148D01*
X134163473Y-103632150D01*
X134400234Y-103730220D01*
X134647777Y-103796548D01*
X134647790Y-103796551D01*
X134901862Y-103830000D01*
X135158138Y-103830000D01*
X135412209Y-103796551D01*
X135412222Y-103796548D01*
X135659765Y-103730220D01*
X135896526Y-103632150D01*
X135896530Y-103632148D01*
X136118479Y-103504005D01*
X136224271Y-103422826D01*
X136224271Y-103422823D01*
X135687909Y-102886462D01*
X135815005Y-102794122D01*
X135949122Y-102660005D01*
X136041462Y-102532910D01*
X136577823Y-103069271D01*
X136577826Y-103069271D01*
X136659005Y-102963479D01*
X136787148Y-102741530D01*
X136787150Y-102741526D01*
X136885220Y-102504765D01*
X136951548Y-102257222D01*
X136951551Y-102257209D01*
X136985000Y-102003137D01*
X136985000Y-101746862D01*
X136951551Y-101492790D01*
X136951548Y-101492777D01*
X136885220Y-101245234D01*
X136787150Y-101008473D01*
X136787145Y-101008462D01*
X136659017Y-100786540D01*
X136659009Y-100786529D01*
X136577824Y-100680727D01*
X136577823Y-100680727D01*
X136041461Y-101217089D01*
X135949122Y-101089995D01*
X135815005Y-100955878D01*
X135687908Y-100863536D01*
X136224271Y-100327174D01*
X136118470Y-100245990D01*
X136118469Y-100245989D01*
X135896530Y-100117851D01*
X135896526Y-100117849D01*
X135659765Y-100019779D01*
X135412222Y-99953451D01*
X135412209Y-99953448D01*
X135158138Y-99920000D01*
X134901862Y-99920000D01*
X134647790Y-99953448D01*
X134647777Y-99953451D01*
X134400234Y-100019779D01*
X134163473Y-100117849D01*
X134163469Y-100117851D01*
X133941530Y-100245989D01*
X133941520Y-100245995D01*
X133835727Y-100327173D01*
X133835727Y-100327174D01*
X134372090Y-100863537D01*
X134244995Y-100955878D01*
X134110878Y-101089995D01*
X134018537Y-101217090D01*
X133482174Y-100680727D01*
X133482173Y-100680727D01*
X133400995Y-100786520D01*
X133400989Y-100786530D01*
X133272851Y-101008469D01*
X133272849Y-101008473D01*
X133174779Y-101245234D01*
X133108451Y-101492777D01*
X133108448Y-101492790D01*
X133075000Y-101746862D01*
X128000500Y-101746862D01*
X128000500Y-94446862D01*
X133075000Y-94446862D01*
X133075000Y-94703137D01*
X133108448Y-94957209D01*
X133108451Y-94957222D01*
X133174779Y-95204765D01*
X133272849Y-95441526D01*
X133272851Y-95441530D01*
X133400989Y-95663469D01*
X133400990Y-95663470D01*
X133482174Y-95769271D01*
X134018536Y-95232908D01*
X134110878Y-95360005D01*
X134244995Y-95494122D01*
X134372089Y-95586461D01*
X133835727Y-96122823D01*
X133835727Y-96122824D01*
X133941529Y-96204009D01*
X133941530Y-96204010D01*
X134163469Y-96332148D01*
X134163473Y-96332150D01*
X134400234Y-96430220D01*
X134647777Y-96496548D01*
X134647790Y-96496551D01*
X134901862Y-96530000D01*
X135158138Y-96530000D01*
X135412209Y-96496551D01*
X135412222Y-96496548D01*
X135659765Y-96430220D01*
X135896526Y-96332150D01*
X135896530Y-96332148D01*
X136118479Y-96204005D01*
X136224271Y-96122826D01*
X136224271Y-96122823D01*
X135687909Y-95586462D01*
X135815005Y-95494122D01*
X135949122Y-95360005D01*
X136041462Y-95232910D01*
X136577823Y-95769271D01*
X136577826Y-95769271D01*
X136659005Y-95663479D01*
X136787148Y-95441530D01*
X136787150Y-95441526D01*
X136885220Y-95204765D01*
X136951548Y-94957222D01*
X136951551Y-94957209D01*
X136976575Y-94767135D01*
X161004500Y-94767135D01*
X161004500Y-96752870D01*
X161004501Y-96752876D01*
X161010908Y-96812483D01*
X161061202Y-96947328D01*
X161061206Y-96947335D01*
X161147452Y-97062544D01*
X161147455Y-97062547D01*
X161262664Y-97148793D01*
X161262671Y-97148797D01*
X161307618Y-97165561D01*
X161397517Y-97199091D01*
X161457127Y-97205500D01*
X161657693Y-97205499D01*
X161724730Y-97225183D01*
X161745372Y-97241818D01*
X162217819Y-97714265D01*
X162151583Y-97741702D01*
X162048399Y-97810647D01*
X161960647Y-97898399D01*
X161891702Y-98001583D01*
X161864266Y-98067819D01*
X161266716Y-97470269D01*
X161266716Y-97470270D01*
X161214125Y-97542654D01*
X161110864Y-97745315D01*
X161040581Y-97961623D01*
X161040581Y-97961626D01*
X161005000Y-98186276D01*
X161005000Y-98413723D01*
X161040581Y-98638373D01*
X161040581Y-98638376D01*
X161110864Y-98854684D01*
X161214121Y-99057337D01*
X161214125Y-99057343D01*
X161266716Y-99129728D01*
X161266717Y-99129729D01*
X161864265Y-98532180D01*
X161891702Y-98598417D01*
X161960647Y-98701601D01*
X162048399Y-98789353D01*
X162151583Y-98858298D01*
X162217819Y-98885734D01*
X161620270Y-99483282D01*
X161621227Y-99495442D01*
X161643789Y-99524701D01*
X161649768Y-99594314D01*
X161617162Y-99656109D01*
X161601124Y-99670006D01*
X161508326Y-99737429D01*
X161508317Y-99737436D01*
X161347436Y-99898317D01*
X161347436Y-99898318D01*
X161347434Y-99898320D01*
X161331683Y-99920000D01*
X161213697Y-100082392D01*
X161110401Y-100285120D01*
X161110400Y-100285123D01*
X161040093Y-100501509D01*
X161004500Y-100726231D01*
X161004500Y-100953768D01*
X161040093Y-101178490D01*
X161110400Y-101394876D01*
X161110401Y-101394879D01*
X161160283Y-101492777D01*
X161213697Y-101597607D01*
X161347434Y-101781680D01*
X161508320Y-101942566D01*
X161692393Y-102076303D01*
X161791825Y-102126966D01*
X161895120Y-102179598D01*
X161895123Y-102179599D01*
X162003316Y-102214752D01*
X162111511Y-102249907D01*
X162215591Y-102266391D01*
X162336232Y-102285500D01*
X162336237Y-102285500D01*
X162563768Y-102285500D01*
X162672710Y-102268244D01*
X162788489Y-102249907D01*
X163004879Y-102179598D01*
X163207607Y-102076303D01*
X163391680Y-101942566D01*
X163552566Y-101781680D01*
X163686303Y-101597607D01*
X163789598Y-101394879D01*
X163859907Y-101178489D01*
X163886835Y-101008473D01*
X163895500Y-100953768D01*
X163895500Y-100726231D01*
X163874793Y-100595499D01*
X163859907Y-100501511D01*
X163803262Y-100327174D01*
X163789599Y-100285123D01*
X163789598Y-100285120D01*
X163736966Y-100181825D01*
X163686303Y-100082393D01*
X163552566Y-99898320D01*
X163391680Y-99737434D01*
X163298875Y-99670007D01*
X163256210Y-99614676D01*
X163250231Y-99545063D01*
X163279185Y-99490189D01*
X163279728Y-99483282D01*
X162682180Y-98885734D01*
X162748417Y-98858298D01*
X162851601Y-98789353D01*
X162939353Y-98701601D01*
X163008298Y-98598417D01*
X163035734Y-98532180D01*
X163633282Y-99129728D01*
X163633283Y-99129728D01*
X163685874Y-99057345D01*
X163789135Y-98854684D01*
X163859418Y-98638376D01*
X163859418Y-98638373D01*
X163895000Y-98413723D01*
X163895000Y-98186276D01*
X163859418Y-97961626D01*
X163859418Y-97961623D01*
X163789135Y-97745315D01*
X163685874Y-97542654D01*
X163633282Y-97470270D01*
X163035733Y-98067818D01*
X163008298Y-98001583D01*
X162939353Y-97898399D01*
X162851601Y-97810647D01*
X162748417Y-97741702D01*
X162682180Y-97714265D01*
X163154627Y-97241818D01*
X163215950Y-97208333D01*
X163242307Y-97205499D01*
X163442872Y-97205499D01*
X163502483Y-97199091D01*
X163637331Y-97148796D01*
X163752546Y-97062546D01*
X163838796Y-96947331D01*
X163889091Y-96812483D01*
X163895500Y-96752873D01*
X163895499Y-94767128D01*
X163889091Y-94707517D01*
X163887457Y-94703137D01*
X163838797Y-94572671D01*
X163838793Y-94572664D01*
X163752547Y-94457455D01*
X163752544Y-94457452D01*
X163637335Y-94371206D01*
X163637328Y-94371202D01*
X163502482Y-94320908D01*
X163502483Y-94320908D01*
X163442883Y-94314501D01*
X163442881Y-94314500D01*
X163442873Y-94314500D01*
X163442864Y-94314500D01*
X161457129Y-94314500D01*
X161457123Y-94314501D01*
X161397516Y-94320908D01*
X161262671Y-94371202D01*
X161262664Y-94371206D01*
X161147455Y-94457452D01*
X161147452Y-94457455D01*
X161061206Y-94572664D01*
X161061202Y-94572671D01*
X161010908Y-94707517D01*
X161006597Y-94747620D01*
X161004501Y-94767123D01*
X161004500Y-94767135D01*
X136976575Y-94767135D01*
X136979144Y-94747621D01*
X136979144Y-94747620D01*
X136985000Y-94703138D01*
X136985000Y-94446862D01*
X136951551Y-94192790D01*
X136951548Y-94192777D01*
X136885220Y-93945234D01*
X136787150Y-93708473D01*
X136787148Y-93708469D01*
X136659010Y-93486530D01*
X136659009Y-93486529D01*
X136577824Y-93380727D01*
X136577823Y-93380727D01*
X136041461Y-93917089D01*
X135949122Y-93789995D01*
X135815005Y-93655878D01*
X135687908Y-93563536D01*
X136224271Y-93027174D01*
X136118470Y-92945990D01*
X136118469Y-92945989D01*
X135896530Y-92817851D01*
X135896526Y-92817849D01*
X135659765Y-92719779D01*
X135412222Y-92653451D01*
X135412209Y-92653448D01*
X135158138Y-92620000D01*
X134901862Y-92620000D01*
X134647790Y-92653448D01*
X134647777Y-92653451D01*
X134400234Y-92719779D01*
X134163473Y-92817849D01*
X134163469Y-92817851D01*
X133941530Y-92945989D01*
X133941520Y-92945995D01*
X133835727Y-93027173D01*
X133835727Y-93027174D01*
X134372090Y-93563537D01*
X134244995Y-93655878D01*
X134110878Y-93789995D01*
X134018537Y-93917090D01*
X133482174Y-93380727D01*
X133482173Y-93380727D01*
X133400995Y-93486520D01*
X133400989Y-93486530D01*
X133272851Y-93708469D01*
X133272849Y-93708473D01*
X133174779Y-93945234D01*
X133108451Y-94192777D01*
X133108448Y-94192790D01*
X133075000Y-94446862D01*
X128000500Y-94446862D01*
X128000500Y-88671862D01*
X133075000Y-88671862D01*
X133075000Y-88928137D01*
X133108448Y-89182209D01*
X133108451Y-89182222D01*
X133174779Y-89429765D01*
X133272849Y-89666526D01*
X133272851Y-89666530D01*
X133400989Y-89888469D01*
X133400990Y-89888470D01*
X133482174Y-89994271D01*
X134018536Y-89457908D01*
X134110878Y-89585005D01*
X134244995Y-89719122D01*
X134372089Y-89811461D01*
X133835727Y-90347823D01*
X133835727Y-90347824D01*
X133941529Y-90429009D01*
X133941530Y-90429010D01*
X134163469Y-90557148D01*
X134163473Y-90557150D01*
X134400234Y-90655220D01*
X134647777Y-90721548D01*
X134647790Y-90721551D01*
X134901862Y-90755000D01*
X135158138Y-90755000D01*
X135412209Y-90721551D01*
X135412222Y-90721548D01*
X135659765Y-90655220D01*
X135896526Y-90557150D01*
X135896530Y-90557148D01*
X136118479Y-90429005D01*
X136224271Y-90347826D01*
X136224271Y-90347823D01*
X135687909Y-89811462D01*
X135815005Y-89719122D01*
X135949122Y-89585005D01*
X136041462Y-89457910D01*
X136577823Y-89994271D01*
X136577826Y-89994271D01*
X136659005Y-89888479D01*
X136787148Y-89666530D01*
X136787150Y-89666526D01*
X136885220Y-89429765D01*
X136951548Y-89182222D01*
X136951551Y-89182209D01*
X136985000Y-88928137D01*
X136985000Y-88671862D01*
X136984364Y-88667033D01*
X161509234Y-88667033D01*
X161509234Y-88975916D01*
X161543815Y-89282830D01*
X161543817Y-89282842D01*
X161612548Y-89583974D01*
X161714562Y-89875514D01*
X161848575Y-90153795D01*
X162012903Y-90415320D01*
X162145527Y-90581627D01*
X163036574Y-89690580D01*
X163115098Y-89798659D01*
X163282050Y-89965611D01*
X163390127Y-90044133D01*
X162499079Y-90935181D01*
X162665376Y-91067798D01*
X162665378Y-91067799D01*
X162926913Y-91232133D01*
X163205194Y-91366146D01*
X163496735Y-91468160D01*
X163496733Y-91468160D01*
X163797866Y-91536891D01*
X163797878Y-91536893D01*
X164104792Y-91571474D01*
X164104794Y-91571475D01*
X164413674Y-91571475D01*
X164413675Y-91571474D01*
X164720589Y-91536893D01*
X164720601Y-91536891D01*
X165021733Y-91468160D01*
X165313273Y-91366146D01*
X165591554Y-91232133D01*
X165853085Y-91067801D01*
X166019387Y-90935181D01*
X165128340Y-90044134D01*
X165236418Y-89965611D01*
X165403370Y-89798659D01*
X165481893Y-89690581D01*
X166372940Y-90581628D01*
X166505560Y-90415326D01*
X166669892Y-90153795D01*
X166803905Y-89875514D01*
X166905919Y-89583974D01*
X166974650Y-89282842D01*
X166974652Y-89282830D01*
X167009233Y-88975916D01*
X167009234Y-88975914D01*
X167009234Y-88667035D01*
X167009233Y-88667033D01*
X166974652Y-88360119D01*
X166974650Y-88360107D01*
X166905919Y-88058975D01*
X166803905Y-87767435D01*
X166669892Y-87489154D01*
X166505558Y-87227619D01*
X166505557Y-87227617D01*
X166372940Y-87061320D01*
X165481892Y-87952368D01*
X165403370Y-87844291D01*
X165236418Y-87677339D01*
X165128338Y-87598815D01*
X166019386Y-86707768D01*
X165853079Y-86575144D01*
X165591554Y-86410816D01*
X165313273Y-86276803D01*
X165021732Y-86174789D01*
X165021734Y-86174789D01*
X164720601Y-86106058D01*
X164720589Y-86106056D01*
X164413675Y-86071475D01*
X164104792Y-86071475D01*
X163797878Y-86106056D01*
X163797866Y-86106058D01*
X163496734Y-86174789D01*
X163205194Y-86276803D01*
X162926913Y-86410816D01*
X162665378Y-86575150D01*
X162665374Y-86575153D01*
X162499079Y-86707767D01*
X163390127Y-87598815D01*
X163282050Y-87677339D01*
X163115098Y-87844291D01*
X163036574Y-87952368D01*
X162145526Y-87061320D01*
X162012912Y-87227615D01*
X162012909Y-87227619D01*
X161848575Y-87489154D01*
X161714562Y-87767435D01*
X161612548Y-88058975D01*
X161543817Y-88360107D01*
X161543815Y-88360119D01*
X161509234Y-88667033D01*
X136984364Y-88667033D01*
X136951551Y-88417790D01*
X136951548Y-88417777D01*
X136885220Y-88170234D01*
X136787150Y-87933473D01*
X136787148Y-87933469D01*
X136659010Y-87711530D01*
X136659009Y-87711529D01*
X136577824Y-87605727D01*
X136577823Y-87605727D01*
X136041461Y-88142089D01*
X135949122Y-88014995D01*
X135815005Y-87880878D01*
X135687908Y-87788536D01*
X136224271Y-87252174D01*
X136118470Y-87170990D01*
X136118469Y-87170989D01*
X135896530Y-87042851D01*
X135896526Y-87042849D01*
X135659765Y-86944779D01*
X135412216Y-86878449D01*
X135158138Y-86845000D01*
X134901862Y-86845000D01*
X134647790Y-86878448D01*
X134647777Y-86878451D01*
X134400234Y-86944779D01*
X134163473Y-87042849D01*
X134163469Y-87042851D01*
X133941530Y-87170989D01*
X133941520Y-87170995D01*
X133835727Y-87252173D01*
X133835727Y-87252174D01*
X134372090Y-87788537D01*
X134244995Y-87880878D01*
X134110878Y-88014995D01*
X134018537Y-88142090D01*
X133482174Y-87605727D01*
X133482173Y-87605727D01*
X133400995Y-87711520D01*
X133400989Y-87711530D01*
X133272851Y-87933469D01*
X133272849Y-87933473D01*
X133174779Y-88170234D01*
X133108451Y-88417777D01*
X133108448Y-88417790D01*
X133075000Y-88671862D01*
X128000500Y-88671862D01*
X128000500Y-81371862D01*
X133075000Y-81371862D01*
X133075000Y-81628137D01*
X133108448Y-81882209D01*
X133108451Y-81882222D01*
X133174779Y-82129765D01*
X133272849Y-82366526D01*
X133272851Y-82366530D01*
X133400989Y-82588469D01*
X133400990Y-82588470D01*
X133482174Y-82694271D01*
X134018536Y-82157908D01*
X134110878Y-82285005D01*
X134244995Y-82419122D01*
X134372089Y-82511461D01*
X133835727Y-83047823D01*
X133835727Y-83047824D01*
X133941529Y-83129009D01*
X133941530Y-83129010D01*
X134163469Y-83257148D01*
X134163473Y-83257150D01*
X134400234Y-83355220D01*
X134647777Y-83421548D01*
X134647790Y-83421551D01*
X134901862Y-83455000D01*
X135158138Y-83455000D01*
X135412209Y-83421551D01*
X135412222Y-83421548D01*
X135659765Y-83355220D01*
X135896526Y-83257150D01*
X135896530Y-83257148D01*
X136118479Y-83129005D01*
X136224271Y-83047826D01*
X136224271Y-83047823D01*
X135687909Y-82511462D01*
X135815005Y-82419122D01*
X135949122Y-82285005D01*
X136041462Y-82157910D01*
X136577823Y-82694271D01*
X136577826Y-82694271D01*
X136659005Y-82588479D01*
X136787148Y-82366530D01*
X136787150Y-82366526D01*
X136885220Y-82129765D01*
X136951548Y-81882222D01*
X136951551Y-81882209D01*
X136985000Y-81628137D01*
X136985000Y-81371862D01*
X136951551Y-81117790D01*
X136951548Y-81117777D01*
X136885220Y-80870234D01*
X136787150Y-80633473D01*
X136787148Y-80633469D01*
X136659010Y-80411530D01*
X136659009Y-80411529D01*
X136577824Y-80305727D01*
X136577823Y-80305727D01*
X136041461Y-80842089D01*
X135949122Y-80714995D01*
X135815005Y-80580878D01*
X135687908Y-80488536D01*
X136224271Y-79952174D01*
X136118470Y-79870990D01*
X136118469Y-79870989D01*
X135896530Y-79742851D01*
X135896526Y-79742849D01*
X135659765Y-79644779D01*
X135412222Y-79578451D01*
X135412209Y-79578448D01*
X135158138Y-79545000D01*
X134901862Y-79545000D01*
X134647790Y-79578448D01*
X134647777Y-79578451D01*
X134400234Y-79644779D01*
X134163473Y-79742849D01*
X134163469Y-79742851D01*
X133941530Y-79870989D01*
X133941520Y-79870995D01*
X133835727Y-79952173D01*
X133835727Y-79952174D01*
X134372090Y-80488537D01*
X134244995Y-80580878D01*
X134110878Y-80714995D01*
X134018537Y-80842090D01*
X133482174Y-80305727D01*
X133482173Y-80305727D01*
X133400995Y-80411520D01*
X133400989Y-80411530D01*
X133272851Y-80633469D01*
X133272849Y-80633473D01*
X133174779Y-80870234D01*
X133108451Y-81117777D01*
X133108448Y-81117790D01*
X133075000Y-81371862D01*
X128000500Y-81371862D01*
X128000500Y-74372149D01*
X130549500Y-74372149D01*
X130549500Y-74627850D01*
X130568956Y-74775625D01*
X130582874Y-74881340D01*
X130600626Y-74947591D01*
X130649050Y-75128312D01*
X130649053Y-75128322D01*
X130746894Y-75364531D01*
X130746899Y-75364542D01*
X130874734Y-75585957D01*
X130874745Y-75585973D01*
X131030388Y-75788811D01*
X131030394Y-75788818D01*
X131211181Y-75969605D01*
X131211187Y-75969610D01*
X131414035Y-76125261D01*
X131414042Y-76125265D01*
X131635457Y-76253100D01*
X131635462Y-76253102D01*
X131635465Y-76253104D01*
X131871687Y-76350950D01*
X132118660Y-76417126D01*
X132372157Y-76450500D01*
X132372164Y-76450500D01*
X132627836Y-76450500D01*
X132627843Y-76450500D01*
X132881340Y-76417126D01*
X133128313Y-76350950D01*
X133364535Y-76253104D01*
X133585965Y-76125261D01*
X133788813Y-75969610D01*
X133969610Y-75788813D01*
X134125261Y-75585965D01*
X134253104Y-75364535D01*
X134350950Y-75128313D01*
X134417126Y-74881340D01*
X134450500Y-74627843D01*
X134450500Y-74372157D01*
X134450499Y-74372149D01*
X175049500Y-74372149D01*
X175049500Y-74627850D01*
X175068956Y-74775625D01*
X175082874Y-74881340D01*
X175100626Y-74947591D01*
X175149050Y-75128312D01*
X175149053Y-75128322D01*
X175246894Y-75364531D01*
X175246899Y-75364542D01*
X175374734Y-75585957D01*
X175374745Y-75585973D01*
X175530388Y-75788811D01*
X175530394Y-75788818D01*
X175711181Y-75969605D01*
X175711187Y-75969610D01*
X175914035Y-76125261D01*
X175914042Y-76125265D01*
X176135457Y-76253100D01*
X176135462Y-76253102D01*
X176135465Y-76253104D01*
X176371687Y-76350950D01*
X176618660Y-76417126D01*
X176872157Y-76450500D01*
X176872164Y-76450500D01*
X177127836Y-76450500D01*
X177127843Y-76450500D01*
X177381340Y-76417126D01*
X177628313Y-76350950D01*
X177864535Y-76253104D01*
X178085965Y-76125261D01*
X178288813Y-75969610D01*
X178469610Y-75788813D01*
X178625261Y-75585965D01*
X178753104Y-75364535D01*
X178850950Y-75128313D01*
X178917126Y-74881340D01*
X178950500Y-74627843D01*
X178950500Y-74372157D01*
X178917126Y-74118660D01*
X178850950Y-73871687D01*
X178753104Y-73635465D01*
X178753102Y-73635462D01*
X178753100Y-73635457D01*
X178625265Y-73414042D01*
X178625261Y-73414035D01*
X178469610Y-73211187D01*
X178469605Y-73211181D01*
X178288818Y-73030394D01*
X178288811Y-73030388D01*
X178085973Y-72874745D01*
X178085971Y-72874743D01*
X178085965Y-72874739D01*
X178085960Y-72874736D01*
X178085957Y-72874734D01*
X177864542Y-72746899D01*
X177864531Y-72746894D01*
X177628322Y-72649053D01*
X177628315Y-72649051D01*
X177628313Y-72649050D01*
X177381340Y-72582874D01*
X177325007Y-72575457D01*
X177127850Y-72549500D01*
X177127843Y-72549500D01*
X176872157Y-72549500D01*
X176872149Y-72549500D01*
X176646826Y-72579165D01*
X176618660Y-72582874D01*
X176371687Y-72649050D01*
X176371677Y-72649053D01*
X176135468Y-72746894D01*
X176135457Y-72746899D01*
X175914042Y-72874734D01*
X175914026Y-72874745D01*
X175711188Y-73030388D01*
X175711181Y-73030394D01*
X175530394Y-73211181D01*
X175530388Y-73211188D01*
X175374745Y-73414026D01*
X175374734Y-73414042D01*
X175246899Y-73635457D01*
X175246894Y-73635468D01*
X175149053Y-73871677D01*
X175149050Y-73871687D01*
X175082874Y-74118661D01*
X175049500Y-74372149D01*
X134450499Y-74372149D01*
X134417126Y-74118660D01*
X134350950Y-73871687D01*
X134253104Y-73635465D01*
X134253102Y-73635462D01*
X134253100Y-73635457D01*
X134125265Y-73414042D01*
X134125261Y-73414035D01*
X133969610Y-73211187D01*
X133969605Y-73211181D01*
X133788818Y-73030394D01*
X133788811Y-73030388D01*
X133585973Y-72874745D01*
X133585971Y-72874743D01*
X133585965Y-72874739D01*
X133585960Y-72874736D01*
X133585957Y-72874734D01*
X133364542Y-72746899D01*
X133364531Y-72746894D01*
X133128322Y-72649053D01*
X133128315Y-72649051D01*
X133128313Y-72649050D01*
X132881340Y-72582874D01*
X132825007Y-72575457D01*
X132627850Y-72549500D01*
X132627843Y-72549500D01*
X132372157Y-72549500D01*
X132372149Y-72549500D01*
X132146826Y-72579165D01*
X132118660Y-72582874D01*
X131871687Y-72649050D01*
X131871677Y-72649053D01*
X131635468Y-72746894D01*
X131635457Y-72746899D01*
X131414042Y-72874734D01*
X131414026Y-72874745D01*
X131211188Y-73030388D01*
X131211181Y-73030394D01*
X131030394Y-73211181D01*
X131030388Y-73211188D01*
X130874745Y-73414026D01*
X130874734Y-73414042D01*
X130746899Y-73635457D01*
X130746894Y-73635468D01*
X130649053Y-73871677D01*
X130649050Y-73871687D01*
X130582874Y-74118661D01*
X130549500Y-74372149D01*
X128000500Y-74372149D01*
X128000500Y-70124500D01*
X128020185Y-70057461D01*
X128072989Y-70011706D01*
X128124500Y-70000500D01*
X181875500Y-70000500D01*
X181942539Y-70020185D01*
G37*
%TD.AperFunction*%
%TD*%
M02*
