G04*
G04 #@! TF.GenerationSoftware,Altium Limited,Altium Designer,24.9.1 (31)*
G04*
G04 Layer_Physical_Order=2*
G04 Layer_Color=16711680*
%FSLAX44Y44*%
%MOMM*%
G71*
G04*
G04 #@! TF.SameCoordinates,6B1F32A5-85AB-4F9E-8824-BBACF1C5094E*
G04*
G04*
G04 #@! TF.FilePolarity,Positive*
G04*
G01*
G75*
%ADD41C,3.0000*%
%ADD42C,0.3500*%
G36*
X250000D02*
X0D01*
Y210000D01*
X250000D01*
Y0D01*
D02*
G37*
D41*
X34000Y34000D02*
D03*
Y112000D02*
D03*
X216000Y34000D02*
D03*
Y112000D02*
D03*
D42*
X5000Y90500D02*
D03*
X5500Y63000D02*
D03*
Y53000D02*
D03*
X5000Y81000D02*
D03*
X60000Y54500D02*
D03*
X149000Y37000D02*
D03*
Y32000D02*
D03*
X144000Y96000D02*
D03*
X146500Y113500D02*
D03*
X172000Y28000D02*
D03*
X168000D02*
D03*
X232500Y77000D02*
D03*
Y70500D02*
D03*
X83500Y115000D02*
D03*
X76500Y49500D02*
D03*
X71500D02*
D03*
X103520Y51510D02*
D03*
X98640Y51520D02*
D03*
X83180Y100880D02*
D03*
X135940Y113370D02*
D03*
X135720Y95970D02*
D03*
X48250Y54630D02*
D03*
X83470Y84980D02*
D03*
X12700Y53170D02*
D03*
Y63170D02*
D03*
Y80830D02*
D03*
Y90830D02*
D03*
M02*
