G04*
G04 #@! TF.GenerationSoftware,Altium Limited,Altium Designer,24.9.1 (31)*
G04*
G04 Layer_Color=8388736*
%FSLAX44Y44*%
%MOMM*%
G71*
G04*
G04 #@! TF.SameCoordinates,6B1F32A5-85AB-4F9E-8824-BBACF1C5094E*
G04*
G04*
G04 #@! TF.FilePolarity,Negative*
G04*
G01*
G75*
%ADD19R,0.7300X0.3500*%
%ADD20R,1.1000X1.7000*%
%ADD22R,0.2980X0.3500*%
%ADD23R,0.2910X0.3500*%
%ADD24C,1.5000*%
%ADD25R,1.0032X1.2032*%
%ADD26R,1.1432X0.9532*%
%ADD27R,2.0032X1.4532*%
%ADD28R,0.8032X1.3032*%
%ADD29R,1.4032X3.7032*%
%ADD30R,1.2032X1.0032*%
%ADD31R,0.9532X1.1432*%
%ADD32R,0.4032X0.3032*%
%ADD33R,0.4032X1.7032*%
%ADD34R,0.8032X0.8232*%
%ADD35C,0.5532*%
G36*
D02*
X250000D01*
Y210000D01*
X0D01*
Y0D01*
D02*
G37*
D19*
X25650Y72000D02*
D03*
Y78750D02*
D03*
Y65250D02*
D03*
X47950Y78750D02*
D03*
Y72000D02*
D03*
Y65250D02*
D03*
D20*
X36800Y72000D02*
D03*
D22*
X30150Y65250D02*
D03*
D23*
X30325Y78750D02*
D03*
D24*
X41500Y34000D02*
G03*
X41500Y34000I-7500J0D01*
G01*
Y112000D02*
G03*
X41500Y112000I-7500J0D01*
G01*
X223500Y34000D02*
G03*
X223500Y34000I-7500J0D01*
G01*
Y112000D02*
G03*
X223500Y112000I-7500J0D01*
G01*
D25*
X175770Y59940D02*
D03*
X159770D02*
D03*
X145237Y34592D02*
D03*
X129237D02*
D03*
X163910Y96150D02*
D03*
X147910D02*
D03*
D26*
X169890Y45500D02*
D03*
Y31500D02*
D03*
X101080Y55380D02*
D03*
Y69380D02*
D03*
D27*
X223970Y73650D02*
D03*
X197970D02*
D03*
D28*
X145310Y52230D02*
D03*
X126310D02*
D03*
Y76230D02*
D03*
X135810D02*
D03*
X145310D02*
D03*
D29*
X185000Y177500D02*
D03*
X145000D02*
D03*
D30*
X166700Y150680D02*
D03*
Y134680D02*
D03*
X74160Y69250D02*
D03*
Y53250D02*
D03*
D31*
X148970Y116670D02*
D03*
X162970D02*
D03*
X83220Y110450D02*
D03*
X69220D02*
D03*
D32*
X2500Y72000D02*
D03*
D33*
Y58000D02*
D03*
Y86000D02*
D03*
D34*
X66210Y85100D02*
D03*
X75410D02*
D03*
D35*
X5000Y90500D02*
D03*
X5500Y63000D02*
D03*
Y53000D02*
D03*
X5000Y81000D02*
D03*
X60000Y54500D02*
D03*
X149000Y37000D02*
D03*
Y32000D02*
D03*
X144000Y96000D02*
D03*
X146500Y113500D02*
D03*
X172000Y28000D02*
D03*
X168000D02*
D03*
X232500Y77000D02*
D03*
Y70500D02*
D03*
X83500Y115000D02*
D03*
X76500Y49500D02*
D03*
X71500D02*
D03*
X103520Y51510D02*
D03*
X98640Y51520D02*
D03*
X83180Y100880D02*
D03*
X135940Y113370D02*
D03*
X135720Y95970D02*
D03*
X48250Y54630D02*
D03*
X83470Y84980D02*
D03*
X12700Y53170D02*
D03*
Y63170D02*
D03*
Y80830D02*
D03*
Y90830D02*
D03*
M02*
