G04*
G04 #@! TF.GenerationSoftware,Altium Limited,Altium Designer,24.9.1 (31)*
G04*
G04 Layer_Physical_Order=2*
G04 Layer_Color=16711680*
%FSLAX44Y44*%
%MOMM*%
G71*
G04*
G04 #@! TF.SameCoordinates,74FA2723-76CF-4406-9281-C9FC91C6961B*
G04*
G04*
G04 #@! TF.FilePolarity,Positive*
G04*
G01*
G75*
%ADD49C,3.0000*%
%ADD50C,0.3500*%
G36*
X250000Y0D02*
X0D01*
Y210000D01*
X250000D01*
Y0D01*
D02*
G37*
D49*
X34000Y112000D02*
D03*
X216000Y34000D02*
D03*
Y112000D02*
D03*
X34000Y34000D02*
D03*
D50*
Y147000D02*
D03*
Y141000D02*
D03*
X128000D02*
D03*
Y147000D02*
D03*
X183000Y123000D02*
D03*
Y111000D02*
D03*
Y97000D02*
D03*
X238000Y105000D02*
D03*
X201000D02*
D03*
Y93000D02*
D03*
X214000D02*
D03*
X226000D02*
D03*
X238000D02*
D03*
Y81000D02*
D03*
X226000D02*
D03*
X214000D02*
D03*
X202000D02*
D03*
X193000Y40000D02*
D03*
X202000D02*
D03*
X238000Y39000D02*
D03*
Y51000D02*
D03*
X226000D02*
D03*
X214000D02*
D03*
X202000D02*
D03*
Y63000D02*
D03*
X214000D02*
D03*
X226000D02*
D03*
X238000D02*
D03*
X183000Y40000D02*
D03*
X171000D02*
D03*
X159000D02*
D03*
X147000D02*
D03*
X111000Y51000D02*
D03*
X123000D02*
D03*
X135000D02*
D03*
Y63000D02*
D03*
X123000D02*
D03*
X111000D02*
D03*
X90000Y98000D02*
D03*
Y112000D02*
D03*
Y122000D02*
D03*
X162000Y114000D02*
D03*
X161000Y97000D02*
D03*
X99000Y105000D02*
D03*
X147000D02*
D03*
X135000Y93000D02*
D03*
X111000D02*
D03*
X123000D02*
D03*
X135000Y81000D02*
D03*
X111000D02*
D03*
X123000D02*
D03*
X69000Y96000D02*
D03*
Y113000D02*
D03*
X60000Y105000D02*
D03*
X96000Y40000D02*
D03*
X84000D02*
D03*
X72000D02*
D03*
X60000D02*
D03*
X12000D02*
D03*
X48000D02*
D03*
X12000Y51000D02*
D03*
X24000D02*
D03*
X36000D02*
D03*
X48000D02*
D03*
Y63000D02*
D03*
X36000D02*
D03*
X24000D02*
D03*
X12000D02*
D03*
Y105000D02*
D03*
X48000D02*
D03*
Y93000D02*
D03*
X36000D02*
D03*
X24000D02*
D03*
X12000D02*
D03*
X48000Y81000D02*
D03*
X36000D02*
D03*
X24000D02*
D03*
X12000D02*
D03*
M02*
