G04*
G04 #@! TF.GenerationSoftware,Altium Limited,Altium Designer,24.9.1 (31)*
G04*
G04 Layer_Physical_Order=1*
G04 Layer_Color=255*
%FSLAX44Y44*%
%MOMM*%
G71*
G04*
G04 #@! TF.SameCoordinates,74FA2723-76CF-4406-9281-C9FC91C6961B*
G04*
G04*
G04 #@! TF.FilePolarity,Positive*
G04*
G01*
G75*
%ADD14R,0.3500X0.7000*%
%ADD15R,0.7000X0.3500*%
%ADD16R,0.4000X0.5379*%
%ADD17R,1.2850X1.4700*%
%ADD18R,2.5500X2.5500*%
%ADD19R,0.7500X0.9400*%
%ADD20R,0.6000X0.6200*%
%ADD21R,1.8000X1.2500*%
%ADD33R,0.7410X0.5379*%
%ADD34R,1.0810X0.5379*%
%ADD35R,1.0410X0.5379*%
%ADD36R,0.8421X0.5379*%
%ADD37R,0.9410X0.5379*%
%ADD38R,1.4410X0.5379*%
%ADD39R,0.2000X0.1000*%
%ADD40R,0.2000X1.5000*%
%ADD41R,1.2000X3.5000*%
%ADD42C,0.2540*%
%ADD43R,0.4517X0.3499*%
%ADD44R,0.3500X0.4741*%
%ADD45R,0.3500X0.5740*%
%ADD46R,0.5000X0.3500*%
%ADD47R,1.9761X0.5379*%
%ADD48R,1.2998X0.5379*%
%ADD49C,3.0000*%
%ADD50C,0.3500*%
G36*
X58742Y117063D02*
X72282D01*
Y117198D01*
X76207D01*
Y108263D01*
X73130D01*
Y108264D01*
X64341D01*
Y100064D01*
X72512D01*
Y100063D01*
X76207D01*
Y93001D01*
X75737D01*
Y91960D01*
X53464D01*
X53513Y75835D01*
X53487D01*
Y75252D01*
X52364Y75835D01*
X10040D01*
Y75833D01*
X5040Y75608D01*
X40D01*
Y75835D01*
X0D01*
Y110832D01*
X53406D01*
Y127590D01*
X58742D01*
Y117063D01*
D02*
G37*
G36*
X191593Y110826D02*
X250000D01*
Y75833D01*
Y75608D01*
X245000D01*
X240001Y75833D01*
X192616D01*
X191499Y75253D01*
Y75833D01*
X191465D01*
Y91953D01*
X174250D01*
Y93001D01*
X173815D01*
Y127583D01*
X191593D01*
Y110826D01*
D02*
G37*
G36*
X98569Y110823D02*
X116397Y95833D01*
X128579D01*
X146430Y110816D01*
Y127583D01*
X152230D01*
Y117000D01*
X165770D01*
Y117198D01*
X169186D01*
Y110299D01*
X165074D01*
Y110233D01*
X157008D01*
Y102034D01*
X165798D01*
Y102099D01*
X169186D01*
Y93001D01*
X168750D01*
Y91953D01*
X146595D01*
Y75833D01*
X146501D01*
Y75254D01*
X145386Y75833D01*
X99599D01*
X98481Y75252D01*
Y75833D01*
X98444D01*
Y91960D01*
X81237D01*
Y93001D01*
X80836D01*
Y104163D01*
Y127590D01*
X98569D01*
Y110823D01*
D02*
G37*
G36*
X146503Y73753D02*
Y70253D01*
X145395Y69314D01*
X145396Y74693D01*
X146503Y73753D01*
D02*
G37*
G36*
X53494Y73752D02*
Y70252D01*
X52387Y69313D01*
X52387Y74692D01*
X53494Y73752D01*
D02*
G37*
G36*
X99592Y69313D02*
X98485Y70252D01*
Y73752D01*
X99592Y74692D01*
X99592Y69313D01*
D02*
G37*
G36*
X192603Y69311D02*
X191495Y70251D01*
Y73751D01*
X192603Y74690D01*
X192603Y69311D01*
D02*
G37*
G36*
X245000Y73500D02*
X250000D01*
Y70500D01*
X245000D01*
X240000Y69311D01*
Y74689D01*
X245000Y73500D01*
D02*
G37*
G36*
X10040Y69311D02*
X5040Y70500D01*
X40D01*
Y73500D01*
X5040D01*
X10040Y74689D01*
Y69311D01*
D02*
G37*
G36*
X192625Y68167D02*
X240000D01*
Y68167D01*
X245000Y68392D01*
X250000D01*
Y48167D01*
Y32008D01*
X191483D01*
Y32012D01*
X191478Y32007D01*
X146322D01*
X127063Y48167D01*
X117706D01*
X98487Y32019D01*
X53331D01*
X53331Y32020D01*
X0D01*
Y68167D01*
X40D01*
Y68392D01*
X5040D01*
X10040Y68167D01*
Y68167D01*
X52364D01*
X53488Y68751D01*
Y68167D01*
X53515D01*
Y47019D01*
X98487D01*
Y48181D01*
X98487D01*
Y68137D01*
X98486D01*
Y68750D01*
X99610Y68167D01*
X145376D01*
X146501Y68751D01*
Y68138D01*
X146501D01*
Y48167D01*
X146498D01*
Y47007D01*
X191478D01*
Y48169D01*
X191483D01*
Y68167D01*
X191498D01*
Y68752D01*
X192625Y68167D01*
D02*
G37*
D14*
X63487Y88501D02*
D03*
X68487D02*
D03*
X73487D02*
D03*
X78487D02*
D03*
X83487D02*
D03*
X88487Y50501D02*
D03*
X83487D02*
D03*
X78487D02*
D03*
X73487D02*
D03*
X68487D02*
D03*
X63487D02*
D03*
X88487Y88501D02*
D03*
X156500Y88501D02*
D03*
X161500D02*
D03*
X166500D02*
D03*
X171500D02*
D03*
X176500D02*
D03*
X181500Y50501D02*
D03*
X176500D02*
D03*
X171500D02*
D03*
X166500D02*
D03*
X161500D02*
D03*
X156500D02*
D03*
X181500Y88501D02*
D03*
D15*
X94987Y82001D02*
D03*
Y57001D02*
D03*
Y77001D02*
D03*
Y72001D02*
D03*
Y67001D02*
D03*
X56987Y57001D02*
D03*
Y62001D02*
D03*
Y67001D02*
D03*
Y72001D02*
D03*
Y77001D02*
D03*
Y82001D02*
D03*
X94987Y62001D02*
D03*
X188000Y82001D02*
D03*
Y57001D02*
D03*
Y77001D02*
D03*
Y72001D02*
D03*
Y67001D02*
D03*
X150000Y57001D02*
D03*
Y62001D02*
D03*
Y67001D02*
D03*
Y72001D02*
D03*
Y77001D02*
D03*
Y82001D02*
D03*
X188000Y62001D02*
D03*
D16*
X133000Y72000D02*
D03*
X127000D02*
D03*
X224000D02*
D03*
X230000D02*
D03*
X212250D02*
D03*
X205750D02*
D03*
X114250D02*
D03*
X107750D02*
D03*
X30630D02*
D03*
X24130D02*
D03*
D17*
X97270Y161000D02*
D03*
X116730D02*
D03*
D18*
X75987Y69501D02*
D03*
X169000Y69501D02*
D03*
D19*
X154870Y122898D02*
D03*
X168870D02*
D03*
X61344D02*
D03*
X75344D02*
D03*
D20*
X169074Y106199D02*
D03*
X159874D02*
D03*
X76512Y104163D02*
D03*
X67312D02*
D03*
D21*
X163195Y144000D02*
D03*
X137195D02*
D03*
X69477D02*
D03*
X43477D02*
D03*
D33*
X103295Y72000D02*
D03*
D34*
X139995D02*
D03*
D35*
X120795D02*
D03*
D36*
X235800D02*
D03*
D37*
X218295D02*
D03*
D38*
X199795D02*
D03*
D39*
X247500D02*
D03*
X2540D02*
D03*
D40*
X247500Y86000D02*
D03*
Y58000D02*
D03*
X2540D02*
D03*
Y86000D02*
D03*
D41*
X145000Y177500D02*
D03*
D42*
X36000Y141253D02*
Y144000D01*
X34000Y141000D02*
X35747D01*
X36000Y141253D01*
X128000Y141000D02*
X134195D01*
X137195Y144000D01*
X80010Y161000D02*
X93270D01*
X78522Y159512D02*
X80010Y161000D01*
X78522Y104163D02*
Y159512D01*
X145000Y161213D02*
X170012D01*
X171500Y144000D02*
Y159725D01*
X113517Y161213D02*
X145000D01*
X171500Y88501D02*
Y144000D01*
X78522Y88537D02*
Y104163D01*
X145000Y161213D02*
Y163000D01*
X170012Y161213D02*
X171500Y159725D01*
X112730Y162000D02*
X113517Y161213D01*
X171500Y88474D02*
Y88501D01*
D43*
X182742Y82002D02*
D03*
Y62002D02*
D03*
Y57002D02*
D03*
X154742D02*
D03*
Y62002D02*
D03*
Y82002D02*
D03*
X89742D02*
D03*
Y62002D02*
D03*
Y57002D02*
D03*
X61742D02*
D03*
Y62002D02*
D03*
X62742Y82002D02*
D03*
D44*
X181500Y83370D02*
D03*
X176500D02*
D03*
X166500D02*
D03*
X161500D02*
D03*
X156500D02*
D03*
X181500Y55370D02*
D03*
X176500D02*
D03*
X171500D02*
D03*
X166500D02*
D03*
X88487Y55636D02*
D03*
X83487D02*
D03*
X78487D02*
D03*
X73487D02*
D03*
X68487D02*
D03*
X63487D02*
D03*
X88487Y82636D02*
D03*
X83487D02*
D03*
X73487D02*
D03*
X68487D02*
D03*
X63487D02*
D03*
D45*
X161500Y55870D02*
D03*
X156500D02*
D03*
D46*
X61987Y77001D02*
D03*
Y67001D02*
D03*
X89987Y77001D02*
D03*
Y67001D02*
D03*
X155000Y77001D02*
D03*
Y67001D02*
D03*
X183000Y77001D02*
D03*
Y67001D02*
D03*
D47*
X42506Y72000D02*
D03*
D48*
X16501Y72011D02*
D03*
D49*
X34000Y112000D02*
D03*
X216000Y34000D02*
D03*
Y112000D02*
D03*
X34000Y34000D02*
D03*
D50*
Y147000D02*
D03*
Y141000D02*
D03*
X128000D02*
D03*
Y147000D02*
D03*
X183000Y123000D02*
D03*
Y111000D02*
D03*
Y97000D02*
D03*
X238000Y105000D02*
D03*
X201000D02*
D03*
Y93000D02*
D03*
X214000D02*
D03*
X226000D02*
D03*
X238000D02*
D03*
Y81000D02*
D03*
X226000D02*
D03*
X214000D02*
D03*
X202000D02*
D03*
X193000Y40000D02*
D03*
X202000D02*
D03*
X238000Y39000D02*
D03*
Y51000D02*
D03*
X226000D02*
D03*
X214000D02*
D03*
X202000D02*
D03*
Y63000D02*
D03*
X214000D02*
D03*
X226000D02*
D03*
X238000D02*
D03*
X183000Y40000D02*
D03*
X171000D02*
D03*
X159000D02*
D03*
X147000D02*
D03*
X111000Y51000D02*
D03*
X123000D02*
D03*
X135000D02*
D03*
Y63000D02*
D03*
X123000D02*
D03*
X111000D02*
D03*
X90000Y98000D02*
D03*
Y112000D02*
D03*
Y122000D02*
D03*
X162000Y114000D02*
D03*
X161000Y97000D02*
D03*
X99000Y105000D02*
D03*
X147000D02*
D03*
X135000Y93000D02*
D03*
X111000D02*
D03*
X123000D02*
D03*
X135000Y81000D02*
D03*
X111000D02*
D03*
X123000D02*
D03*
X69000Y96000D02*
D03*
Y113000D02*
D03*
X60000Y105000D02*
D03*
X96000Y40000D02*
D03*
X84000D02*
D03*
X72000D02*
D03*
X60000D02*
D03*
X12000D02*
D03*
X48000D02*
D03*
X12000Y51000D02*
D03*
X24000D02*
D03*
X36000D02*
D03*
X48000D02*
D03*
Y63000D02*
D03*
X36000D02*
D03*
X24000D02*
D03*
X12000D02*
D03*
Y105000D02*
D03*
X48000D02*
D03*
Y93000D02*
D03*
X36000D02*
D03*
X24000D02*
D03*
X12000D02*
D03*
X48000Y81000D02*
D03*
X36000D02*
D03*
X24000D02*
D03*
X12000D02*
D03*
M02*
