M48
;Layer_Color=9474304
;FILE_FORMAT=4:4
METRIC,LZ
;TYPE=PLATED
T01F00S00C0.2000
T02F00S00C2.0500
%
T01
X00012Y0004
Y00051
X00024
X00036
X00048
Y0004
X0006
X00072
X00084
X00096
X00111Y00051
X00123
X00135
Y00063
X00123
X00111
Y00081
Y00093
X00123
X00135
Y00081
X00123
X00099Y00105
X0009Y00098
Y00112
Y00122
X00069Y00113
Y00096
X0006Y00105
X00048
Y00093
X00036
X00024
X00012
Y00105
Y00081
X00024
X00036
X00048
Y00063
X00036
X00024
X00012
X00034Y00141
X00128
X00147Y00105
X00161Y00097
X00162Y00114
X00183Y00111
Y00123
Y00097
X00201Y00093
Y00105
X00214Y00093
X00226
X00238
Y00105
Y00081
X00226
X00214
X00202
Y00063
Y00051
Y0004
X00193
X00183
X00171
X00159
X00147
X00214Y00051
X00226
X00238
Y00039
Y00063
X00226
X00214
X00128Y00147
X00034
T02
X00034Y00034
Y00112
X00216
Y00034
M30
