G04*
G04 #@! TF.GenerationSoftware,Altium Limited,Altium Designer,24.9.1 (31)*
G04*
G04 Layer_Color=8388736*
%FSLAX44Y44*%
%MOMM*%
G71*
G04*
G04 #@! TF.SameCoordinates,74FA2723-76CF-4406-9281-C9FC91C6961B*
G04*
G04*
G04 #@! TF.FilePolarity,Negative*
G04*
G01*
G75*
%ADD22R,0.6032X0.7411*%
%ADD23R,1.4882X1.6732*%
%ADD24R,0.9032X0.5532*%
%ADD25R,2.7532X2.7532*%
%ADD26R,0.5532X0.9032*%
%ADD27R,0.9532X1.1432*%
%ADD28R,0.8032X0.8232*%
%ADD29R,0.4032X0.3032*%
%ADD30R,0.4032X1.7032*%
%ADD31R,2.0032X1.4532*%
%ADD32R,1.4032X3.7032*%
%ADD33R,0.7410X0.5379*%
%ADD34R,1.0810X0.5379*%
%ADD35R,1.0410X0.5379*%
%ADD36R,0.8421X0.5379*%
%ADD37R,0.9410X0.5379*%
%ADD38R,1.4410X0.5379*%
G36*
X250000Y0D02*
X0D01*
Y210000D01*
X250000D01*
Y0D01*
D02*
G37*
D22*
X133000Y72000D02*
D03*
X127000D02*
D03*
X224000D02*
D03*
X230000D02*
D03*
X212250D02*
D03*
X205750D02*
D03*
X114250D02*
D03*
X107750D02*
D03*
X30630D02*
D03*
X24130D02*
D03*
D23*
X97270Y161000D02*
D03*
X116730D02*
D03*
D24*
X94987Y82001D02*
D03*
Y57001D02*
D03*
Y77001D02*
D03*
Y72001D02*
D03*
Y67001D02*
D03*
X56987Y57001D02*
D03*
Y62001D02*
D03*
Y67001D02*
D03*
Y72001D02*
D03*
Y77001D02*
D03*
Y82001D02*
D03*
X94987Y62001D02*
D03*
X188000Y82001D02*
D03*
Y57001D02*
D03*
Y77001D02*
D03*
Y72001D02*
D03*
Y67001D02*
D03*
X150000Y57001D02*
D03*
Y62001D02*
D03*
Y67001D02*
D03*
Y72001D02*
D03*
Y77001D02*
D03*
Y82001D02*
D03*
X188000Y62001D02*
D03*
D25*
X75987Y69501D02*
D03*
X169000Y69501D02*
D03*
D26*
X63487Y88501D02*
D03*
X68487D02*
D03*
X73487D02*
D03*
X78487D02*
D03*
X83487D02*
D03*
X88487Y50501D02*
D03*
X83487D02*
D03*
X78487D02*
D03*
X73487D02*
D03*
X68487D02*
D03*
X63487D02*
D03*
X88487Y88501D02*
D03*
X156500Y88501D02*
D03*
X161500D02*
D03*
X166500D02*
D03*
X171500D02*
D03*
X176500D02*
D03*
X181500Y50501D02*
D03*
X176500D02*
D03*
X171500D02*
D03*
X166500D02*
D03*
X161500D02*
D03*
X156500D02*
D03*
X181500Y88501D02*
D03*
D27*
X154870Y122898D02*
D03*
X168870D02*
D03*
X61344D02*
D03*
X75344D02*
D03*
D28*
X169074Y106199D02*
D03*
X159874D02*
D03*
X76512Y104163D02*
D03*
X67312D02*
D03*
D29*
X247500Y72000D02*
D03*
X2540D02*
D03*
D30*
X247500Y86000D02*
D03*
Y58000D02*
D03*
X2540D02*
D03*
Y86000D02*
D03*
D31*
X163195Y144000D02*
D03*
X137195D02*
D03*
X69477D02*
D03*
X43477D02*
D03*
D32*
X145000Y177500D02*
D03*
D33*
X103295Y72000D02*
D03*
D34*
X139995D02*
D03*
D35*
X120795D02*
D03*
D36*
X235800D02*
D03*
D37*
X218295D02*
D03*
D38*
X199795D02*
D03*
M02*
