%FSLAX23Y23*%
%MOIN*%
G70*
G01*
G75*
G04 Layer_Physical_Order=1*
G04 Layer_Color=255*
%ADD10R,0.020X0.025*%
%ADD11R,0.025X0.020*%
%ADD12R,0.060X0.050*%
%ADD13R,0.010X0.026*%
%ADD14R,0.026X0.010*%
%ADD15R,0.063X0.079*%
%ADD16R,0.079X0.079*%
%ADD17R,0.024X0.048*%
%ADD18R,0.030X0.030*%
%ADD19R,0.050X0.060*%
%ADD20R,0.030X0.030*%
%ADD21C,0.010*%
%ADD22C,0.008*%
%ADD23C,0.020*%
%ADD24C,0.015*%
%ADD25C,0.025*%
%ADD26C,0.040*%
%ADD27C,0.030*%
%ADD28C,0.012*%
%ADD29R,0.040X0.038*%
%ADD30R,0.036X0.084*%
%ADD31R,0.045X0.086*%
%ADD32R,0.038X0.035*%
%ADD33R,0.050X0.073*%
%ADD34R,0.046X0.056*%
%ADD35R,0.047X0.058*%
%ADD36R,0.059X0.041*%
%ADD37R,0.050X0.064*%
%ADD38R,0.058X0.074*%
%ADD39R,0.050X0.081*%
%ADD40R,0.048X0.083*%
%ADD41R,0.050X0.082*%
%ADD42R,0.050X0.078*%
%ADD43R,0.076X0.079*%
%ADD44R,0.042X0.082*%
%ADD45R,0.048X0.081*%
%ADD46R,0.080X0.079*%
%ADD47R,0.050X0.047*%
%ADD48R,0.049X0.053*%
%ADD49R,0.062X0.048*%
%ADD50R,0.080X0.082*%
%ADD51R,0.092X0.119*%
%ADD52R,0.097X0.115*%
%ADD53R,0.165X0.164*%
%ADD54R,0.165X0.179*%
%ADD55R,0.164X0.172*%
%ADD56R,0.168X0.178*%
%ADD57R,0.163X0.174*%
%ADD58R,0.167X0.180*%
%ADD59R,0.164X0.175*%
%ADD60R,0.165X0.162*%
%ADD61R,0.042X0.094*%
%ADD62R,0.020X0.020*%
%ADD63R,0.046X0.020*%
%ADD64R,0.024X0.025*%
%ADD65R,0.024X0.022*%
%ADD66R,0.024X0.029*%
%ADD67R,0.024X0.027*%
%ADD68R,0.024X0.023*%
%ADD69R,0.024X0.017*%
%ADD70R,0.146X0.145*%
%ADD71R,0.070X0.070*%
%ADD72R,0.298X0.039*%
%ADD73R,0.031X0.064*%
%ADD74R,0.038X0.045*%
%ADD75R,0.074X0.095*%
%ADD76R,0.027X0.019*%
%ADD77C,0.002*%
%ADD78C,0.142*%
%ADD79C,0.010*%
%ADD80C,0.025*%
G36*
X1648Y-223D02*
X1641Y-205D01*
X1628Y-188D01*
X1611Y-175D01*
X1591Y-167D01*
X1575Y-165D01*
Y-246D01*
Y-327D01*
X1591Y-325D01*
X1611Y-317D01*
X1628Y-304D01*
X1641Y-287D01*
X1648Y-269D01*
Y-366D01*
X1646Y-365D01*
X1602D01*
X1601Y-366D01*
X1502D01*
X1500Y-366D01*
X1465D01*
Y-406D01*
X1500D01*
X1502Y-406D01*
X1601D01*
X1602Y-407D01*
X1646D01*
X1648Y-406D01*
Y-503D01*
X1641Y-485D01*
X1628Y-468D01*
X1611Y-455D01*
X1591Y-447D01*
X1575Y-445D01*
Y-526D01*
Y-607D01*
X1591Y-605D01*
X1611Y-597D01*
X1628Y-584D01*
X1641Y-567D01*
X1648Y-549D01*
Y-866D01*
X1641Y-848D01*
X1628Y-831D01*
X1611Y-818D01*
X1591Y-810D01*
X1575Y-808D01*
Y-889D01*
Y-970D01*
X1591Y-968D01*
X1611Y-960D01*
X1628Y-947D01*
X1641Y-930D01*
X1648Y-912D01*
Y-1136D01*
X1641Y-1118D01*
X1628Y-1101D01*
X1611Y-1088D01*
X1591Y-1080D01*
X1575Y-1078D01*
Y-1159D01*
X1570D01*
Y-1164D01*
X1489D01*
X1491Y-1180D01*
X1499Y-1200D01*
X1512Y-1217D01*
X1529Y-1230D01*
X1547Y-1237D01*
X1026D01*
X1027Y-1235D01*
Y-1197D01*
X1027Y-1196D01*
Y-1109D01*
X1033D01*
Y-1029D01*
X963D01*
Y-1068D01*
X916D01*
Y-1064D01*
X836D01*
Y-1134D01*
X916D01*
Y-1130D01*
X965D01*
Y-1196D01*
X965Y-1197D01*
Y-1235D01*
X966Y-1237D01*
X300D01*
X308Y-1234D01*
X325Y-1221D01*
X338Y-1204D01*
X346Y-1184D01*
X348Y-1168D01*
X267D01*
Y-1163D01*
X262D01*
Y-1082D01*
X246Y-1084D01*
X226Y-1092D01*
X209Y-1105D01*
X196Y-1122D01*
X190Y-1137D01*
Y-911D01*
X196Y-926D01*
X209Y-943D01*
X226Y-956D01*
X246Y-964D01*
X262Y-966D01*
Y-885D01*
Y-804D01*
X246Y-806D01*
X226Y-814D01*
X209Y-827D01*
X196Y-844D01*
X190Y-859D01*
Y-633D01*
X196Y-648D01*
X209Y-665D01*
X226Y-678D01*
X246Y-686D01*
X262Y-688D01*
Y-607D01*
Y-526D01*
X246Y-528D01*
X226Y-536D01*
X209Y-549D01*
X196Y-566D01*
X190Y-581D01*
Y-487D01*
X191Y-488D01*
X208D01*
X209Y-487D01*
X320D01*
X322Y-487D01*
X352D01*
Y-447D01*
X322D01*
X320Y-447D01*
X209D01*
X208Y-446D01*
X191D01*
X190Y-447D01*
Y-353D01*
X196Y-368D01*
X209Y-385D01*
X226Y-398D01*
X246Y-406D01*
X262Y-408D01*
Y-327D01*
Y-246D01*
X246Y-248D01*
X226Y-256D01*
X209Y-269D01*
X196Y-286D01*
X190Y-301D01*
Y-73D01*
X1648D01*
Y-223D01*
D02*
G37*
%LPC*%
G36*
X875Y-819D02*
X855D01*
Y-839D01*
X875D01*
Y-819D01*
D02*
G37*
G36*
X905Y-849D02*
X885D01*
Y-869D01*
X905D01*
Y-849D01*
D02*
G37*
G36*
X1083Y-651D02*
X1041D01*
X1033Y-654D01*
X1030Y-662D01*
Y-715D01*
X770D01*
X762Y-718D01*
X759Y-726D01*
Y-765D01*
X762Y-773D01*
X770Y-776D01*
X1025D01*
Y-816D01*
X1095D01*
Y-736D01*
X1094D01*
Y-662D01*
X1091Y-654D01*
X1083Y-651D01*
D02*
G37*
G36*
X905Y-819D02*
X885D01*
Y-839D01*
X905D01*
Y-819D01*
D02*
G37*
G36*
X401Y-854D02*
X381D01*
Y-874D01*
X401D01*
Y-854D01*
D02*
G37*
G36*
X1197Y-855D02*
X1177D01*
Y-875D01*
X1197D01*
Y-855D01*
D02*
G37*
G36*
X875Y-849D02*
X855D01*
Y-869D01*
X875D01*
Y-849D01*
D02*
G37*
G36*
X431Y-854D02*
X411D01*
Y-874D01*
X431D01*
Y-854D01*
D02*
G37*
G36*
X1368Y-744D02*
X1350D01*
Y-759D01*
X1368D01*
Y-744D01*
D02*
G37*
G36*
X633Y-746D02*
X616D01*
Y-761D01*
X633D01*
Y-746D01*
D02*
G37*
G36*
X423Y-712D02*
X406D01*
Y-741D01*
X423D01*
Y-712D01*
D02*
G37*
G36*
X1395Y-744D02*
X1378D01*
Y-759D01*
X1395D01*
Y-744D01*
D02*
G37*
G36*
X606Y-771D02*
X589D01*
Y-786D01*
X606D01*
Y-771D01*
D02*
G37*
G36*
X1565Y-445D02*
X1549Y-447D01*
X1529Y-455D01*
X1512Y-468D01*
X1499Y-485D01*
X1491Y-505D01*
X1489Y-521D01*
X1565D01*
Y-445D01*
D02*
G37*
G36*
X606Y-746D02*
X589D01*
Y-761D01*
X606D01*
Y-746D01*
D02*
G37*
G36*
X633Y-771D02*
X616D01*
Y-786D01*
X633D01*
Y-771D01*
D02*
G37*
G36*
X1167Y-855D02*
X1147D01*
Y-875D01*
X1167D01*
Y-855D01*
D02*
G37*
G36*
X1565Y-894D02*
X1489D01*
X1491Y-910D01*
X1499Y-930D01*
X1512Y-947D01*
X1529Y-960D01*
X1549Y-968D01*
X1565Y-970D01*
Y-894D01*
D02*
G37*
G36*
X419Y-1072D02*
X399D01*
Y-1092D01*
X419D01*
Y-1072D01*
D02*
G37*
G36*
X1095Y-826D02*
X1025D01*
Y-906D01*
X1039D01*
Y-954D01*
X1033D01*
Y-939D01*
X963D01*
Y-954D01*
X911D01*
Y-935D01*
X898D01*
Y-924D01*
X905D01*
Y-874D01*
X855D01*
Y-924D01*
X862D01*
Y-935D01*
X831D01*
Y-1005D01*
X911D01*
Y-1000D01*
X963D01*
Y-1019D01*
X1033D01*
Y-1000D01*
X1053D01*
X1053Y-1000D01*
X1062Y-1002D01*
X1071Y-1000D01*
X1071Y-1000D01*
X1084D01*
Y-1012D01*
X1101D01*
Y-1030D01*
X1095D01*
Y-1080D01*
X1145D01*
Y-1030D01*
X1137D01*
Y-1012D01*
X1164D01*
Y-942D01*
X1085D01*
Y-906D01*
X1095D01*
Y-826D01*
D02*
G37*
G36*
X348Y-890D02*
X272D01*
Y-966D01*
X288Y-964D01*
X308Y-956D01*
X325Y-943D01*
X338Y-926D01*
X346Y-906D01*
X348Y-890D01*
D02*
G37*
G36*
X781Y-1064D02*
X746D01*
Y-1094D01*
X781D01*
Y-1064D01*
D02*
G37*
G36*
X1145Y-1085D02*
X1125D01*
Y-1105D01*
X1145D01*
Y-1085D01*
D02*
G37*
G36*
X389Y-1072D02*
X369D01*
Y-1092D01*
X389D01*
Y-1072D01*
D02*
G37*
G36*
X826Y-1064D02*
X791D01*
Y-1094D01*
X826D01*
Y-1064D01*
D02*
G37*
G36*
X431Y-884D02*
X411D01*
Y-904D01*
X431D01*
Y-884D01*
D02*
G37*
G36*
X401D02*
X381D01*
Y-904D01*
X401D01*
Y-884D01*
D02*
G37*
G36*
X272Y-804D02*
Y-880D01*
X348D01*
X346Y-864D01*
X338Y-844D01*
X325Y-827D01*
X308Y-814D01*
X288Y-806D01*
X272Y-804D01*
D02*
G37*
G36*
X1565Y-808D02*
X1549Y-810D01*
X1529Y-818D01*
X1512Y-831D01*
X1499Y-848D01*
X1491Y-868D01*
X1489Y-884D01*
X1565D01*
Y-808D01*
D02*
G37*
G36*
X1395Y-769D02*
X1350D01*
Y-784D01*
X1352D01*
Y-824D01*
X1354D01*
Y-833D01*
X1338D01*
Y-932D01*
X1437D01*
Y-833D01*
X1394D01*
Y-824D01*
X1396D01*
Y-784D01*
X1395D01*
Y-769D01*
D02*
G37*
G36*
X609Y-791D02*
X607Y-791D01*
X586D01*
Y-831D01*
X589D01*
Y-838D01*
X586Y-840D01*
X526D01*
Y-939D01*
X625D01*
Y-858D01*
X628Y-854D01*
X629Y-846D01*
Y-831D01*
X631D01*
Y-791D01*
X611D01*
X609Y-791D01*
D02*
G37*
G36*
X1197Y-885D02*
X1177D01*
Y-905D01*
X1197D01*
Y-885D01*
D02*
G37*
G36*
X1167D02*
X1147D01*
Y-905D01*
X1167D01*
Y-885D01*
D02*
G37*
G36*
X502Y-653D02*
X484D01*
Y-668D01*
X502D01*
Y-653D01*
D02*
G37*
G36*
X530D02*
X512D01*
Y-668D01*
X530D01*
Y-653D01*
D02*
G37*
G36*
X880Y-600D02*
X763D01*
Y-621D01*
X763Y-623D01*
Y-668D01*
X764Y-676D01*
X769Y-682D01*
X775Y-687D01*
X783Y-688D01*
X791Y-687D01*
X797Y-682D01*
X802Y-676D01*
X802Y-675D01*
X802Y-677D01*
X807Y-683D01*
X813Y-688D01*
X821Y-689D01*
X829Y-688D01*
X835Y-683D01*
X840Y-677D01*
X840Y-673D01*
X841Y-677D01*
X846Y-683D01*
X852Y-688D01*
X860Y-689D01*
X868Y-688D01*
X874Y-683D01*
X879Y-677D01*
X879Y-675D01*
X879Y-676D01*
X884Y-682D01*
X890Y-687D01*
X898Y-688D01*
X906Y-687D01*
X912Y-682D01*
X917Y-676D01*
X918Y-670D01*
X919Y-676D01*
X924Y-682D01*
X930Y-687D01*
X938Y-688D01*
X946Y-687D01*
X952Y-682D01*
X957Y-676D01*
X958Y-669D01*
X959Y-674D01*
X964Y-680D01*
X970Y-685D01*
X978Y-686D01*
X986Y-685D01*
X992Y-680D01*
X997Y-674D01*
X998Y-666D01*
Y-624D01*
X998Y-622D01*
Y-601D01*
X880D01*
Y-600D01*
D02*
G37*
G36*
X1284Y-124D02*
X1204D01*
Y-140D01*
X1125D01*
Y-210D01*
X1170D01*
Y-214D01*
X1163D01*
Y-231D01*
X1163Y-232D01*
Y-261D01*
X1163Y-262D01*
Y-288D01*
X1177D01*
Y-315D01*
X1178Y-321D01*
X1178Y-321D01*
Y-331D01*
X1144D01*
Y-361D01*
Y-381D01*
Y-401D01*
Y-406D01*
X1069D01*
X1067Y-406D01*
X1044D01*
Y-446D01*
X1062D01*
X1066Y-447D01*
X1069Y-446D01*
X1069Y-446D01*
X1144D01*
Y-461D01*
Y-481D01*
Y-501D01*
X1178D01*
Y-535D01*
X1258D01*
Y-550D01*
X1256Y-551D01*
X1237D01*
Y-591D01*
Y-627D01*
X1283D01*
Y-591D01*
Y-568D01*
X1284Y-567D01*
X1287Y-562D01*
X1288Y-556D01*
Y-535D01*
X1298D01*
Y-563D01*
X1299Y-569D01*
X1299Y-570D01*
Y-590D01*
Y-627D01*
X1311D01*
Y-637D01*
X1306D01*
Y-683D01*
X1346D01*
Y-637D01*
X1341D01*
Y-627D01*
X1344D01*
Y-590D01*
Y-550D01*
X1328D01*
Y-535D01*
X1348D01*
Y-515D01*
X1348Y-514D01*
Y-501D01*
X1359D01*
X1360Y-501D01*
X1382D01*
Y-481D01*
Y-461D01*
Y-441D01*
Y-421D01*
Y-406D01*
X1427D01*
X1429Y-406D01*
X1461D01*
Y-366D01*
X1429D01*
X1427Y-366D01*
X1382D01*
Y-361D01*
Y-331D01*
X1348D01*
Y-298D01*
X1248D01*
Y-290D01*
X1258D01*
Y-262D01*
X1259Y-261D01*
Y-238D01*
X1258Y-237D01*
Y-213D01*
X1214D01*
Y-237D01*
X1213Y-238D01*
Y-261D01*
X1214Y-262D01*
Y-290D01*
X1218D01*
Y-298D01*
X1207D01*
Y-288D01*
X1209D01*
Y-262D01*
X1209Y-261D01*
Y-232D01*
X1209Y-231D01*
Y-214D01*
X1202D01*
Y-210D01*
X1205D01*
Y-194D01*
X1284D01*
Y-124D01*
D02*
G37*
G36*
X530Y-617D02*
X484D01*
Y-632D01*
Y-643D01*
X530D01*
Y-632D01*
Y-617D01*
D02*
G37*
G36*
X692Y-616D02*
X646D01*
Y-631D01*
Y-643D01*
X692D01*
Y-631D01*
Y-616D01*
D02*
G37*
G36*
X664Y-653D02*
X646D01*
Y-668D01*
X664D01*
Y-653D01*
D02*
G37*
G36*
X692D02*
X674D01*
Y-668D01*
X692D01*
Y-653D01*
D02*
G37*
G36*
X1292Y-660D02*
X1248D01*
Y-728D01*
X1217D01*
Y-699D01*
X1200D01*
Y-728D01*
X1194D01*
X1192Y-728D01*
X1192D01*
X1188Y-729D01*
X1183Y-732D01*
X1180Y-737D01*
X1179Y-743D01*
Y-763D01*
X1172D01*
Y-831D01*
X1209D01*
Y-855D01*
X1202D01*
Y-905D01*
X1209D01*
Y-911D01*
Y-923D01*
Y-942D01*
X1174D01*
Y-1012D01*
X1209D01*
Y-1055D01*
X1206D01*
Y-1105D01*
X1256D01*
Y-1102D01*
X1291D01*
X1299Y-1110D01*
Y-1168D01*
X1382D01*
Y-1070D01*
X1324D01*
X1317Y-1063D01*
X1309Y-1058D01*
X1301Y-1056D01*
X1256D01*
Y-1055D01*
X1255D01*
Y-911D01*
Y-831D01*
X1292D01*
Y-824D01*
X1324D01*
X1326Y-824D01*
X1347D01*
Y-784D01*
X1345D01*
Y-744D01*
X1325D01*
X1323Y-744D01*
X1321Y-744D01*
X1301D01*
Y-784D01*
X1292D01*
Y-763D01*
X1210D01*
Y-763D01*
X1209D01*
Y-758D01*
X1271D01*
X1277Y-757D01*
X1282Y-754D01*
X1285Y-749D01*
X1286Y-743D01*
Y-728D01*
X1292D01*
Y-725D01*
X1306D01*
Y-733D01*
X1346D01*
Y-688D01*
X1306D01*
Y-695D01*
X1292D01*
Y-660D01*
D02*
G37*
G36*
X423Y-673D02*
X406D01*
Y-702D01*
X423D01*
Y-673D01*
D02*
G37*
G36*
X525D02*
X481D01*
Y-741D01*
X450D01*
Y-712D01*
X433D01*
Y-741D01*
X427D01*
X425Y-741D01*
X425D01*
X421Y-742D01*
X416Y-745D01*
X413Y-750D01*
X412Y-756D01*
Y-776D01*
X405D01*
Y-844D01*
X444D01*
Y-854D01*
X436D01*
Y-904D01*
X440D01*
Y-970D01*
Y-977D01*
Y-1072D01*
X424D01*
Y-1122D01*
X440D01*
X442Y-1129D01*
X447Y-1136D01*
X454Y-1141D01*
X461Y-1142D01*
X461Y-1143D01*
X469Y-1144D01*
X487D01*
Y-1175D01*
X570D01*
Y-1077D01*
X487D01*
Y-1104D01*
X486D01*
Y-993D01*
X741D01*
Y-1005D01*
X821D01*
Y-935D01*
X741D01*
Y-947D01*
X486D01*
Y-904D01*
X486D01*
Y-854D01*
X484D01*
Y-844D01*
X525D01*
Y-831D01*
X535D01*
Y-831D01*
X581D01*
Y-791D01*
X579D01*
Y-786D01*
X584D01*
Y-746D01*
X539D01*
Y-771D01*
X538Y-772D01*
Y-790D01*
X525D01*
Y-776D01*
X487D01*
Y-776D01*
X443D01*
Y-776D01*
X442D01*
Y-771D01*
X504D01*
X510Y-770D01*
X515Y-767D01*
X518Y-762D01*
X519Y-756D01*
Y-741D01*
X525D01*
Y-714D01*
X544D01*
Y-719D01*
X589D01*
Y-679D01*
X544D01*
Y-684D01*
X525D01*
Y-673D01*
D02*
G37*
G36*
X1190Y-699D02*
X1173D01*
Y-728D01*
X1190D01*
Y-699D01*
D02*
G37*
G36*
X1217Y-660D02*
X1200D01*
Y-689D01*
X1217D01*
Y-660D01*
D02*
G37*
G36*
X348Y-612D02*
X272D01*
Y-688D01*
X288Y-686D01*
X308Y-678D01*
X325Y-665D01*
X338Y-648D01*
X346Y-628D01*
X348Y-612D01*
D02*
G37*
G36*
X450Y-673D02*
X433D01*
Y-702D01*
X450D01*
Y-673D01*
D02*
G37*
G36*
X1190Y-660D02*
X1173D01*
Y-689D01*
X1190D01*
Y-660D01*
D02*
G37*
G36*
X1205Y-612D02*
X1188D01*
Y-627D01*
X1205D01*
Y-612D01*
D02*
G37*
G36*
X1395Y-575D02*
X1349D01*
Y-590D01*
Y-602D01*
X1395D01*
Y-590D01*
Y-575D01*
D02*
G37*
G36*
X933Y-237D02*
X853D01*
Y-307D01*
X856D01*
Y-311D01*
X851D01*
Y-351D01*
X860D01*
Y-357D01*
X840D01*
Y-391D01*
X829D01*
X828Y-391D01*
X806D01*
Y-407D01*
X774D01*
X772Y-407D01*
X752D01*
Y-447D01*
X772D01*
X774Y-447D01*
X806D01*
Y-461D01*
Y-461D01*
X772Y-495D01*
X769Y-500D01*
X768Y-506D01*
Y-550D01*
X763D01*
Y-595D01*
X878D01*
Y-596D01*
X998D01*
Y-552D01*
X993D01*
Y-503D01*
X992Y-497D01*
X989Y-492D01*
X964Y-467D01*
Y-461D01*
Y-446D01*
X1016D01*
X1018Y-446D01*
X1039D01*
Y-406D01*
X1018D01*
X1016Y-406D01*
X964D01*
Y-391D01*
X930D01*
Y-357D01*
X890D01*
Y-352D01*
X904D01*
X906Y-351D01*
X936D01*
Y-311D01*
X906D01*
X904Y-310D01*
X892D01*
Y-307D01*
X933D01*
Y-237D01*
D02*
G37*
G36*
X272Y-526D02*
Y-602D01*
X348D01*
X346Y-586D01*
X338Y-566D01*
X325Y-549D01*
X308Y-536D01*
X288Y-528D01*
X272Y-526D01*
D02*
G37*
G36*
X1232Y-576D02*
X1188D01*
Y-591D01*
Y-602D01*
X1232D01*
Y-591D01*
Y-576D01*
D02*
G37*
G36*
X1367Y-550D02*
X1349D01*
Y-565D01*
X1367D01*
Y-550D01*
D02*
G37*
G36*
X1395D02*
X1377D01*
Y-565D01*
X1395D01*
Y-550D01*
D02*
G37*
G36*
X1205Y-551D02*
X1188D01*
Y-566D01*
X1205D01*
Y-551D01*
D02*
G37*
G36*
X1232D02*
X1215D01*
Y-566D01*
X1232D01*
Y-551D01*
D02*
G37*
G36*
X1395Y-612D02*
X1377D01*
Y-627D01*
X1395D01*
Y-612D01*
D02*
G37*
G36*
X1565Y-531D02*
X1489D01*
X1491Y-547D01*
X1499Y-567D01*
X1512Y-584D01*
X1529Y-597D01*
X1549Y-605D01*
X1565Y-607D01*
Y-531D01*
D02*
G37*
G36*
X1232Y-612D02*
X1215D01*
Y-627D01*
X1232D01*
Y-612D01*
D02*
G37*
G36*
X1367D02*
X1349D01*
Y-627D01*
X1367D01*
Y-612D01*
D02*
G37*
G36*
X664Y-591D02*
X646D01*
Y-606D01*
X664D01*
Y-591D01*
D02*
G37*
G36*
X692D02*
X674D01*
Y-606D01*
X692D01*
Y-591D01*
D02*
G37*
G36*
X502Y-592D02*
X484D01*
Y-607D01*
X502D01*
Y-592D01*
D02*
G37*
G36*
X530D02*
X512D01*
Y-607D01*
X530D01*
Y-592D01*
D02*
G37*
G36*
X1309Y-275D02*
X1291D01*
Y-290D01*
X1309D01*
Y-275D01*
D02*
G37*
G36*
X1131Y-273D02*
X1113D01*
Y-288D01*
X1131D01*
Y-273D01*
D02*
G37*
G36*
X1125Y-291D02*
X1108D01*
Y-306D01*
X1125D01*
Y-291D01*
D02*
G37*
G36*
X1281Y-275D02*
X1263D01*
Y-290D01*
X1281D01*
Y-275D01*
D02*
G37*
G36*
X576Y-257D02*
X558D01*
Y-272D01*
X576D01*
Y-257D01*
D02*
G37*
G36*
X604D02*
X586D01*
Y-272D01*
X604D01*
Y-257D01*
D02*
G37*
G36*
X1158Y-273D02*
X1141D01*
Y-288D01*
X1158D01*
Y-273D01*
D02*
G37*
G36*
X456Y-263D02*
X438D01*
Y-275D01*
X428D01*
Y-263D01*
X410D01*
Y-278D01*
X414D01*
X413Y-278D01*
X410Y-285D01*
Y-285D01*
X410Y-286D01*
Y-313D01*
X410Y-314D01*
Y-314D01*
X413Y-319D01*
X410D01*
Y-334D01*
X428D01*
Y-324D01*
X438D01*
Y-334D01*
X456D01*
Y-319D01*
X453D01*
X456Y-314D01*
Y-314D01*
X456Y-313D01*
Y-286D01*
X456Y-285D01*
Y-285D01*
X453Y-278D01*
X452Y-278D01*
X456D01*
Y-263D01*
D02*
G37*
G36*
X958Y-311D02*
X941D01*
Y-326D01*
X958D01*
Y-311D01*
D02*
G37*
G36*
X985D02*
X968D01*
Y-326D01*
X985D01*
Y-311D01*
D02*
G37*
G36*
X819D02*
X802D01*
Y-326D01*
X819D01*
Y-311D01*
D02*
G37*
G36*
X846D02*
X829D01*
Y-326D01*
X846D01*
Y-311D01*
D02*
G37*
G36*
X801Y-279D02*
X771D01*
Y-314D01*
X801D01*
Y-279D01*
D02*
G37*
G36*
X1098Y-291D02*
X1081D01*
Y-306D01*
X1098D01*
Y-291D01*
D02*
G37*
G36*
X272Y-246D02*
Y-322D01*
X348D01*
X346Y-306D01*
X338Y-286D01*
X325Y-269D01*
X308Y-256D01*
X288Y-248D01*
X272Y-246D01*
D02*
G37*
G36*
X761Y-279D02*
X731D01*
Y-314D01*
X761D01*
Y-279D01*
D02*
G37*
G36*
Y-234D02*
X731D01*
Y-269D01*
X761D01*
Y-234D01*
D02*
G37*
G36*
X439Y-160D02*
X404D01*
Y-190D01*
X439D01*
Y-160D01*
D02*
G37*
G36*
X1333D02*
X1298D01*
Y-190D01*
X1333D01*
Y-160D01*
D02*
G37*
G36*
X716Y-139D02*
X636D01*
Y-209D01*
X716D01*
Y-206D01*
X731D01*
Y-224D01*
X801D01*
Y-206D01*
X1035D01*
Y-210D01*
X1115D01*
Y-140D01*
X1035D01*
Y-144D01*
X801D01*
Y-144D01*
X731D01*
Y-144D01*
X716D01*
Y-139D01*
D02*
G37*
G36*
X394Y-160D02*
X359D01*
Y-190D01*
X394D01*
Y-160D01*
D02*
G37*
G36*
X1333Y-120D02*
X1298D01*
Y-150D01*
X1333D01*
Y-120D01*
D02*
G37*
G36*
X1378D02*
X1343D01*
Y-150D01*
X1378D01*
Y-120D01*
D02*
G37*
G36*
Y-160D02*
X1343D01*
Y-190D01*
X1378D01*
Y-160D01*
D02*
G37*
G36*
X626Y-139D02*
X546D01*
Y-161D01*
X529D01*
Y-160D01*
X449D01*
Y-230D01*
X461D01*
Y-263D01*
X461D01*
Y-282D01*
X460Y-283D01*
Y-285D01*
X459Y-291D01*
X460Y-297D01*
Y-312D01*
X461Y-313D01*
Y-334D01*
X475D01*
Y-362D01*
X475Y-363D01*
Y-372D01*
X441D01*
Y-402D01*
Y-422D01*
Y-442D01*
Y-447D01*
X395D01*
X393Y-447D01*
X357D01*
Y-487D01*
X393D01*
X395Y-487D01*
X441D01*
Y-502D01*
Y-522D01*
Y-542D01*
X475D01*
Y-576D01*
X555D01*
Y-591D01*
X553Y-592D01*
X535D01*
Y-632D01*
Y-668D01*
X580D01*
Y-632D01*
Y-609D01*
X581Y-608D01*
X584Y-603D01*
X585Y-597D01*
Y-576D01*
X595D01*
Y-604D01*
X596Y-610D01*
X596Y-611D01*
Y-631D01*
Y-668D01*
X602D01*
Y-679D01*
X594D01*
Y-719D01*
X638D01*
Y-679D01*
X632D01*
Y-668D01*
X641D01*
Y-631D01*
Y-591D01*
X625D01*
Y-567D01*
X625Y-566D01*
Y-541D01*
X633D01*
Y-542D01*
X679D01*
Y-522D01*
Y-502D01*
Y-482D01*
Y-462D01*
Y-445D01*
X701D01*
Y-447D01*
X747D01*
Y-407D01*
X701D01*
Y-409D01*
X679D01*
Y-402D01*
Y-372D01*
X645D01*
Y-339D01*
X545D01*
Y-334D01*
X553D01*
Y-312D01*
X554Y-311D01*
Y-287D01*
X553Y-286D01*
Y-257D01*
X508D01*
Y-269D01*
X508Y-273D01*
X508Y-277D01*
Y-286D01*
X508Y-287D01*
Y-311D01*
X508Y-312D01*
Y-334D01*
X515D01*
Y-339D01*
X505D01*
Y-334D01*
X506D01*
Y-313D01*
X506Y-312D01*
Y-300D01*
X507Y-294D01*
Y-230D01*
X529D01*
Y-207D01*
X546D01*
Y-209D01*
X626D01*
Y-139D01*
D02*
G37*
G36*
X1565Y-165D02*
X1549Y-167D01*
X1529Y-175D01*
X1512Y-188D01*
X1499Y-205D01*
X1491Y-225D01*
X1489Y-241D01*
X1565D01*
Y-165D01*
D02*
G37*
G36*
X394Y-200D02*
X359D01*
Y-230D01*
X394D01*
Y-200D01*
D02*
G37*
G36*
X801Y-234D02*
X771D01*
Y-269D01*
X801D01*
Y-234D01*
D02*
G37*
G36*
X1148Y-229D02*
X1124D01*
X1116Y-232D01*
X1114Y-239D01*
X1113D01*
Y-239D01*
X1113Y-240D01*
Y-257D01*
X1113Y-258D01*
Y-263D01*
X1116D01*
X1116Y-265D01*
X1124Y-268D01*
X1148D01*
X1156Y-265D01*
X1156Y-263D01*
X1158D01*
Y-258D01*
X1159Y-257D01*
Y-240D01*
X1158Y-239D01*
Y-239D01*
X1158D01*
X1156Y-232D01*
X1148Y-229D01*
D02*
G37*
G36*
X1158Y-214D02*
X1141D01*
Y-229D01*
X1158D01*
Y-214D01*
D02*
G37*
G36*
X1309Y-213D02*
X1291D01*
Y-226D01*
X1281D01*
Y-213D01*
X1263D01*
Y-228D01*
X1270D01*
X1266Y-229D01*
X1263Y-236D01*
Y-236D01*
X1263Y-237D01*
Y-259D01*
X1263Y-260D01*
Y-265D01*
X1266D01*
X1266Y-267D01*
X1274Y-270D01*
X1298D01*
X1306Y-267D01*
X1306Y-265D01*
X1309D01*
Y-260D01*
X1309Y-259D01*
Y-237D01*
X1309Y-236D01*
Y-236D01*
X1306Y-229D01*
X1302Y-228D01*
X1309D01*
Y-213D01*
D02*
G37*
G36*
X439Y-200D02*
X404D01*
Y-230D01*
X439D01*
Y-200D01*
D02*
G37*
G36*
X1131Y-214D02*
X1113D01*
Y-229D01*
X1131D01*
Y-214D01*
D02*
G37*
G36*
X1565Y-251D02*
X1489D01*
X1491Y-267D01*
X1499Y-287D01*
X1512Y-304D01*
X1529Y-317D01*
X1549Y-325D01*
X1565Y-327D01*
Y-251D01*
D02*
G37*
G36*
X348Y-332D02*
X272D01*
Y-408D01*
X288Y-406D01*
X308Y-398D01*
X325Y-385D01*
X338Y-368D01*
X346Y-348D01*
X348Y-332D01*
D02*
G37*
G36*
X826Y-1104D02*
X791D01*
Y-1134D01*
X826D01*
Y-1104D01*
D02*
G37*
G36*
X1226Y-1110D02*
X1206D01*
Y-1130D01*
X1226D01*
Y-1110D01*
D02*
G37*
G36*
X781Y-1104D02*
X746D01*
Y-1134D01*
X781D01*
Y-1104D01*
D02*
G37*
G36*
X1565Y-1078D02*
X1549Y-1080D01*
X1529Y-1088D01*
X1512Y-1101D01*
X1499Y-1118D01*
X1491Y-1138D01*
X1489Y-1154D01*
X1565D01*
Y-1078D01*
D02*
G37*
G36*
X1115Y-1115D02*
X1095D01*
Y-1135D01*
X1115D01*
Y-1115D01*
D02*
G37*
G36*
X1145D02*
X1125D01*
Y-1135D01*
X1145D01*
Y-1115D01*
D02*
G37*
G36*
X1256Y-1110D02*
X1236D01*
Y-1130D01*
X1256D01*
Y-1110D01*
D02*
G37*
G36*
X1430Y-1070D02*
X1394D01*
Y-1114D01*
X1430D01*
Y-1070D01*
D02*
G37*
G36*
X1476D02*
X1440D01*
Y-1114D01*
X1476D01*
Y-1070D01*
D02*
G37*
G36*
X1115Y-1085D02*
X1095D01*
Y-1105D01*
X1115D01*
Y-1085D01*
D02*
G37*
G36*
X664Y-1077D02*
X628D01*
Y-1121D01*
X664D01*
Y-1077D01*
D02*
G37*
G36*
X389Y-1102D02*
X369D01*
Y-1122D01*
X389D01*
Y-1102D01*
D02*
G37*
G36*
X419D02*
X399D01*
Y-1122D01*
X419D01*
Y-1102D01*
D02*
G37*
G36*
X618Y-1077D02*
X582D01*
Y-1121D01*
X618D01*
Y-1077D01*
D02*
G37*
G36*
X272Y-1082D02*
Y-1158D01*
X348D01*
X346Y-1142D01*
X338Y-1122D01*
X325Y-1105D01*
X308Y-1092D01*
X288Y-1084D01*
X272Y-1082D01*
D02*
G37*
G36*
X958Y-336D02*
X941D01*
Y-351D01*
X958D01*
Y-336D01*
D02*
G37*
G36*
X985D02*
X968D01*
Y-351D01*
X985D01*
Y-336D01*
D02*
G37*
G36*
X819D02*
X802D01*
Y-351D01*
X819D01*
Y-336D01*
D02*
G37*
G36*
X846D02*
X829D01*
Y-351D01*
X846D01*
Y-336D01*
D02*
G37*
G36*
X1098Y-316D02*
X1081D01*
Y-331D01*
X1098D01*
Y-316D01*
D02*
G37*
G36*
X1125D02*
X1108D01*
Y-331D01*
X1125D01*
Y-316D01*
D02*
G37*
G36*
X1023Y-237D02*
X943D01*
Y-307D01*
X1001D01*
Y-325D01*
X1004Y-333D01*
X1012Y-336D01*
X1043D01*
X1051Y-333D01*
X1051Y-331D01*
X1076D01*
Y-291D01*
X1054D01*
Y-261D01*
X1051Y-253D01*
X1043Y-250D01*
X1023D01*
Y-237D01*
D02*
G37*
G36*
X593Y-276D02*
X569D01*
X561Y-279D01*
X560Y-282D01*
X558D01*
Y-286D01*
X558Y-287D01*
Y-312D01*
X558Y-313D01*
Y-313D01*
X561Y-319D01*
X558D01*
Y-334D01*
X576D01*
Y-323D01*
X586D01*
Y-334D01*
X604D01*
Y-319D01*
X601D01*
X604Y-313D01*
Y-313D01*
X604Y-312D01*
Y-287D01*
X604Y-286D01*
Y-282D01*
X602D01*
X601Y-279D01*
X593Y-276D01*
D02*
G37*
G36*
X1226Y-1140D02*
X1206D01*
Y-1160D01*
X1226D01*
Y-1140D01*
D02*
G37*
G36*
X1476Y-1124D02*
X1440D01*
Y-1168D01*
X1476D01*
Y-1124D01*
D02*
G37*
G36*
X1430D02*
X1394D01*
Y-1168D01*
X1430D01*
Y-1124D01*
D02*
G37*
G36*
X618Y-1131D02*
X582D01*
Y-1175D01*
X618D01*
Y-1131D01*
D02*
G37*
G36*
X1256Y-1140D02*
X1236D01*
Y-1160D01*
X1256D01*
Y-1140D01*
D02*
G37*
G36*
X664Y-1131D02*
X628D01*
Y-1175D01*
X664D01*
Y-1131D01*
D02*
G37*
%LPD*%
G36*
X1336Y-351D02*
X1329D01*
X1328Y-350D01*
X1322Y-349D01*
X1316Y-350D01*
X1315Y-351D01*
X1315Y-351D01*
X1311Y-353D01*
X1309Y-356D01*
Y-352D01*
X1308Y-352D01*
X1303Y-355D01*
X1300Y-360D01*
X1300Y-361D01*
X1307D01*
X1307Y-364D01*
Y-366D01*
X1308Y-371D01*
X1300D01*
X1300Y-372D01*
X1303Y-377D01*
X1308Y-380D01*
X1309Y-380D01*
Y-374D01*
X1311Y-377D01*
X1316Y-380D01*
X1318Y-380D01*
X1318Y-380D01*
X1322Y-381D01*
X1336D01*
Y-391D01*
X1328D01*
X1325Y-390D01*
X1325Y-389D01*
X1320Y-386D01*
X1319Y-386D01*
Y-391D01*
X1317Y-391D01*
X1312Y-394D01*
X1312Y-395D01*
X1309Y-399D01*
X1308Y-405D01*
X1300D01*
X1300Y-406D01*
X1303Y-411D01*
X1308Y-414D01*
X1309Y-414D01*
Y-412D01*
X1311Y-415D01*
X1311Y-415D01*
X1312Y-417D01*
X1315Y-419D01*
X1315Y-419D01*
X1317Y-420D01*
X1317Y-420D01*
X1319Y-421D01*
Y-429D01*
X1328D01*
X1328Y-428D01*
X1325Y-423D01*
X1322Y-421D01*
X1323Y-421D01*
X1336D01*
Y-441D01*
Y-461D01*
Y-470D01*
X1333Y-470D01*
X1329Y-471D01*
X1329Y-471D01*
X1327Y-471D01*
X1324Y-473D01*
X1319D01*
Y-479D01*
X1319Y-479D01*
X1318Y-482D01*
X1318Y-482D01*
X1318Y-485D01*
Y-486D01*
Y-489D01*
X1190D01*
Y-481D01*
Y-461D01*
Y-441D01*
Y-421D01*
X1195D01*
X1201Y-420D01*
X1206Y-417D01*
X1207Y-414D01*
X1207Y-414D01*
X1209Y-412D01*
X1210Y-406D01*
X1209Y-400D01*
X1209Y-400D01*
X1207Y-397D01*
Y-386D01*
X1206Y-386D01*
X1201Y-389D01*
X1200Y-392D01*
X1195Y-391D01*
X1190D01*
Y-381D01*
Y-361D01*
Y-344D01*
X1198D01*
Y-360D01*
X1198Y-360D01*
X1198Y-361D01*
X1198D01*
X1199Y-366D01*
X1202Y-371D01*
X1202Y-371D01*
X1198D01*
X1198Y-372D01*
X1201Y-377D01*
X1206Y-380D01*
X1207Y-380D01*
Y-374D01*
X1207Y-374D01*
X1213Y-375D01*
X1217Y-375D01*
Y-380D01*
X1218Y-380D01*
X1223Y-377D01*
X1226Y-372D01*
X1226Y-371D01*
X1224D01*
X1224Y-371D01*
X1227Y-366D01*
X1227Y-366D01*
X1227Y-366D01*
X1228Y-360D01*
Y-344D01*
X1238D01*
Y-354D01*
X1235Y-355D01*
X1232Y-360D01*
X1232Y-361D01*
X1240D01*
X1242Y-365D01*
X1244Y-366D01*
X1246Y-367D01*
X1247Y-368D01*
X1253Y-369D01*
X1259Y-368D01*
X1261Y-367D01*
X1261Y-367D01*
X1264Y-365D01*
X1265Y-362D01*
X1265Y-362D01*
X1266Y-361D01*
X1275D01*
Y-352D01*
X1274Y-352D01*
X1269Y-355D01*
X1268Y-358D01*
X1268Y-354D01*
Y-344D01*
X1336D01*
Y-351D01*
D02*
G37*
G36*
X854Y-425D02*
X856Y-429D01*
X858Y-430D01*
X855Y-431D01*
X852D01*
Y-424D01*
X854Y-425D01*
D02*
G37*
G36*
X918Y-417D02*
X918Y-417D01*
Y-419D01*
X918Y-419D01*
Y-421D01*
Y-431D01*
X913D01*
X910Y-431D01*
X914Y-429D01*
X917Y-424D01*
X917Y-423D01*
X908D01*
Y-432D01*
X907Y-432D01*
X906Y-433D01*
X906Y-433D01*
X902Y-435D01*
X900Y-439D01*
X900Y-439D01*
X899Y-440D01*
X899Y-441D01*
X890D01*
Y-449D01*
X898D01*
X899Y-452D01*
X900Y-454D01*
X902Y-457D01*
X907Y-460D01*
X908Y-460D01*
Y-468D01*
X909Y-468D01*
X914Y-465D01*
X916Y-461D01*
X918D01*
Y-469D01*
X904D01*
X904Y-469D01*
X902D01*
X902Y-469D01*
X868D01*
X868Y-469D01*
X866D01*
X866Y-469D01*
X852D01*
Y-461D01*
X854D01*
X856Y-465D01*
X861Y-468D01*
X862Y-468D01*
Y-461D01*
X865Y-460D01*
X870Y-457D01*
X871Y-456D01*
X872Y-454D01*
X874Y-451D01*
X874Y-449D01*
X880D01*
Y-441D01*
X874D01*
X874Y-439D01*
X871Y-434D01*
X870Y-434D01*
X870Y-434D01*
X869Y-433D01*
X869Y-433D01*
X866Y-431D01*
X862Y-430D01*
Y-424D01*
X867Y-421D01*
X869Y-418D01*
X870Y-416D01*
X871Y-410D01*
X870Y-404D01*
X870Y-403D01*
X869Y-403D01*
X869Y-403D01*
X902D01*
X902Y-403D01*
X904D01*
X904Y-403D01*
X918D01*
Y-417D01*
D02*
G37*
%LPC*%
G36*
X1260Y-405D02*
X1251D01*
Y-414D01*
X1252Y-414D01*
X1257Y-411D01*
X1260Y-406D01*
X1260Y-405D01*
D02*
G37*
G36*
X1241D02*
X1232D01*
X1232Y-406D01*
X1235Y-411D01*
X1240Y-414D01*
X1241Y-414D01*
Y-405D01*
D02*
G37*
G36*
X1226D02*
X1217D01*
Y-414D01*
X1218Y-414D01*
X1223Y-411D01*
X1226Y-406D01*
X1226Y-405D01*
D02*
G37*
G36*
X872Y-404D02*
Y-413D01*
X881D01*
X881Y-412D01*
X878Y-407D01*
X873Y-404D01*
X872Y-404D01*
D02*
G37*
G36*
X1294Y-405D02*
X1285D01*
Y-414D01*
X1286Y-414D01*
X1291Y-411D01*
X1294Y-406D01*
X1294Y-405D01*
D02*
G37*
G36*
X1275D02*
X1266D01*
X1266Y-406D01*
X1269Y-411D01*
X1274Y-414D01*
X1275Y-414D01*
Y-405D01*
D02*
G37*
G36*
X1309Y-420D02*
X1308Y-420D01*
X1303Y-423D01*
X1300Y-428D01*
X1300Y-429D01*
X1309D01*
Y-420D01*
D02*
G37*
G36*
X1241D02*
X1240Y-420D01*
X1235Y-423D01*
X1232Y-428D01*
X1232Y-429D01*
X1241D01*
Y-420D01*
D02*
G37*
G36*
X1217D02*
Y-429D01*
X1226D01*
X1226Y-428D01*
X1223Y-423D01*
X1218Y-420D01*
X1217Y-420D01*
D02*
G37*
G36*
X1207D02*
X1206Y-420D01*
X1201Y-423D01*
X1198Y-428D01*
X1198Y-429D01*
X1207D01*
Y-420D01*
D02*
G37*
G36*
X1285D02*
Y-429D01*
X1294D01*
X1294Y-428D01*
X1291Y-423D01*
X1286Y-420D01*
X1285Y-420D01*
D02*
G37*
G36*
X1275D02*
X1274Y-420D01*
X1269Y-423D01*
X1266Y-428D01*
X1266Y-429D01*
X1275D01*
Y-420D01*
D02*
G37*
G36*
X1251D02*
Y-429D01*
X1260D01*
X1260Y-428D01*
X1257Y-423D01*
X1252Y-420D01*
X1251Y-420D01*
D02*
G37*
G36*
X1260Y-371D02*
X1251D01*
Y-380D01*
X1252Y-380D01*
X1257Y-377D01*
X1260Y-372D01*
X1260Y-371D01*
D02*
G37*
G36*
X1241D02*
X1232D01*
X1232Y-372D01*
X1235Y-377D01*
X1240Y-380D01*
X1241Y-380D01*
Y-371D01*
D02*
G37*
G36*
X1309Y-386D02*
X1308Y-386D01*
X1303Y-389D01*
X1300Y-394D01*
X1300Y-395D01*
X1309D01*
Y-386D01*
D02*
G37*
G36*
X1285Y-352D02*
Y-361D01*
X1294D01*
X1294Y-360D01*
X1291Y-355D01*
X1286Y-352D01*
X1285Y-352D01*
D02*
G37*
G36*
X1294Y-371D02*
X1285D01*
Y-380D01*
X1286Y-380D01*
X1291Y-377D01*
X1294Y-372D01*
X1294Y-371D01*
D02*
G37*
G36*
X1275D02*
X1266D01*
X1266Y-372D01*
X1269Y-377D01*
X1274Y-380D01*
X1275Y-380D01*
Y-371D01*
D02*
G37*
G36*
X1285Y-386D02*
Y-395D01*
X1294D01*
X1294Y-394D01*
X1291Y-389D01*
X1286Y-386D01*
X1285Y-386D01*
D02*
G37*
G36*
X1217D02*
Y-395D01*
X1226D01*
X1226Y-394D01*
X1223Y-389D01*
X1218Y-386D01*
X1217Y-386D01*
D02*
G37*
G36*
X908Y-404D02*
Y-413D01*
X917D01*
X917Y-412D01*
X914Y-407D01*
X909Y-404D01*
X908Y-404D01*
D02*
G37*
G36*
X898D02*
X897Y-404D01*
X892Y-407D01*
X889Y-412D01*
X889Y-413D01*
X898D01*
Y-404D01*
D02*
G37*
G36*
X1275Y-386D02*
X1274Y-386D01*
X1269Y-389D01*
X1266Y-394D01*
X1266Y-395D01*
X1275D01*
Y-386D01*
D02*
G37*
G36*
X1251D02*
Y-395D01*
X1260D01*
X1260Y-394D01*
X1257Y-389D01*
X1252Y-386D01*
X1251Y-386D01*
D02*
G37*
G36*
X1241D02*
X1240Y-386D01*
X1235Y-389D01*
X1232Y-394D01*
X1232Y-395D01*
X1241D01*
Y-386D01*
D02*
G37*
G36*
X898Y-423D02*
X890D01*
Y-431D01*
X898D01*
Y-423D01*
D02*
G37*
G36*
X1207Y-454D02*
X1206Y-454D01*
X1201Y-457D01*
X1198Y-462D01*
X1198Y-463D01*
X1207D01*
Y-454D01*
D02*
G37*
G36*
X898Y-459D02*
X889D01*
X889Y-460D01*
X892Y-465D01*
X897Y-468D01*
X898Y-468D01*
Y-459D01*
D02*
G37*
G36*
X881D02*
X872D01*
Y-468D01*
X873Y-468D01*
X878Y-465D01*
X881Y-460D01*
X881Y-459D01*
D02*
G37*
G36*
X1251Y-454D02*
Y-463D01*
X1260D01*
X1260Y-462D01*
X1257Y-457D01*
X1252Y-454D01*
X1251Y-454D01*
D02*
G37*
G36*
X1241D02*
X1240Y-454D01*
X1235Y-457D01*
X1232Y-462D01*
X1232Y-463D01*
X1241D01*
Y-454D01*
D02*
G37*
G36*
X1217D02*
Y-463D01*
X1226D01*
X1226Y-462D01*
X1223Y-457D01*
X1218Y-454D01*
X1217Y-454D01*
D02*
G37*
G36*
X1309Y-473D02*
X1300D01*
X1300Y-474D01*
X1303Y-479D01*
X1308Y-482D01*
X1309Y-482D01*
Y-473D01*
D02*
G37*
G36*
X1241D02*
X1232D01*
X1232Y-474D01*
X1235Y-479D01*
X1240Y-482D01*
X1241Y-482D01*
Y-473D01*
D02*
G37*
G36*
X1226D02*
X1217D01*
Y-482D01*
X1218Y-482D01*
X1223Y-479D01*
X1226Y-474D01*
X1226Y-473D01*
D02*
G37*
G36*
X1207D02*
X1198D01*
X1198Y-474D01*
X1201Y-479D01*
X1206Y-482D01*
X1207Y-482D01*
Y-473D01*
D02*
G37*
G36*
X1294D02*
X1285D01*
Y-482D01*
X1286Y-482D01*
X1291Y-479D01*
X1294Y-474D01*
X1294Y-473D01*
D02*
G37*
G36*
X1275D02*
X1266D01*
X1266Y-474D01*
X1269Y-479D01*
X1274Y-482D01*
X1275Y-482D01*
Y-473D01*
D02*
G37*
G36*
X1260D02*
X1251D01*
Y-482D01*
X1252Y-482D01*
X1257Y-479D01*
X1260Y-474D01*
X1260Y-473D01*
D02*
G37*
G36*
X1294Y-439D02*
X1285D01*
Y-448D01*
X1286Y-448D01*
X1291Y-445D01*
X1294Y-440D01*
X1294Y-439D01*
D02*
G37*
G36*
X1275D02*
X1266D01*
X1266Y-440D01*
X1269Y-445D01*
X1274Y-448D01*
X1275Y-448D01*
Y-439D01*
D02*
G37*
G36*
X1260D02*
X1251D01*
Y-448D01*
X1252Y-448D01*
X1257Y-445D01*
X1260Y-440D01*
X1260Y-439D01*
D02*
G37*
G36*
X880Y-423D02*
X872D01*
Y-431D01*
X880D01*
Y-423D01*
D02*
G37*
G36*
X1328Y-439D02*
X1319D01*
Y-448D01*
X1320Y-448D01*
X1325Y-445D01*
X1328Y-440D01*
X1328Y-439D01*
D02*
G37*
G36*
X1309D02*
X1300D01*
X1300Y-440D01*
X1303Y-445D01*
X1308Y-448D01*
X1309Y-448D01*
Y-439D01*
D02*
G37*
G36*
X1241D02*
X1232D01*
X1232Y-440D01*
X1235Y-445D01*
X1240Y-448D01*
X1241Y-448D01*
Y-439D01*
D02*
G37*
G36*
X1309Y-454D02*
X1308Y-454D01*
X1303Y-457D01*
X1300Y-462D01*
X1300Y-463D01*
X1309D01*
Y-454D01*
D02*
G37*
G36*
X1285D02*
Y-463D01*
X1294D01*
X1294Y-462D01*
X1291Y-457D01*
X1286Y-454D01*
X1285Y-454D01*
D02*
G37*
G36*
X1275D02*
X1274Y-454D01*
X1269Y-457D01*
X1266Y-462D01*
X1266Y-463D01*
X1275D01*
Y-454D01*
D02*
G37*
G36*
X1226Y-439D02*
X1217D01*
Y-448D01*
X1218Y-448D01*
X1223Y-445D01*
X1226Y-440D01*
X1226Y-439D01*
D02*
G37*
G36*
X1207D02*
X1198D01*
X1198Y-440D01*
X1201Y-445D01*
X1206Y-448D01*
X1207Y-448D01*
Y-439D01*
D02*
G37*
G36*
X1319Y-454D02*
Y-463D01*
X1328D01*
X1328Y-462D01*
X1325Y-457D01*
X1320Y-454D01*
X1319Y-454D01*
D02*
G37*
%LPD*%
D10*
X783Y-623D02*
D03*
Y-573D02*
D03*
X821D02*
D03*
Y-623D02*
D03*
X978Y-574D02*
D03*
Y-624D02*
D03*
X938Y-574D02*
D03*
Y-624D02*
D03*
X898Y-574D02*
D03*
Y-624D02*
D03*
X860Y-573D02*
D03*
Y-623D02*
D03*
X1326Y-710D02*
D03*
X1326Y-660D02*
D03*
D11*
X1322Y-570D02*
D03*
X1372D02*
D03*
X874Y-331D02*
D03*
X824D02*
D03*
X1438Y-386D02*
D03*
X1488D02*
D03*
X1017Y-426D02*
D03*
X1067D02*
D03*
X774Y-427D02*
D03*
X724D02*
D03*
X1210Y-607D02*
D03*
X1260D02*
D03*
X1136Y-268D02*
D03*
X1186D02*
D03*
X433Y-314D02*
D03*
X483D02*
D03*
X433Y-283D02*
D03*
X483D02*
D03*
X581Y-277D02*
D03*
X531D02*
D03*
X581Y-314D02*
D03*
X531D02*
D03*
X1136Y-234D02*
D03*
X1186Y-234D02*
D03*
X1286Y-270D02*
D03*
X1236D02*
D03*
Y-233D02*
D03*
X1286D02*
D03*
X330Y-467D02*
D03*
X380D02*
D03*
X1372Y-607D02*
D03*
X1322D02*
D03*
X1210Y-571D02*
D03*
X1260D02*
D03*
X507Y-612D02*
D03*
X557D02*
D03*
X669Y-648D02*
D03*
X619D02*
D03*
X557D02*
D03*
X507D02*
D03*
X669Y-611D02*
D03*
X619D02*
D03*
X566Y-699D02*
D03*
X616D02*
D03*
X608Y-811D02*
D03*
X558D02*
D03*
X611Y-766D02*
D03*
X561D02*
D03*
X1324Y-804D02*
D03*
X1374Y-804D02*
D03*
X1373Y-764D02*
D03*
X1323D02*
D03*
X1053Y-311D02*
D03*
X1103D02*
D03*
X963Y-331D02*
D03*
X913D02*
D03*
X891D02*
D03*
X959Y-396D02*
D03*
D12*
X586Y-174D02*
D03*
X1075Y-175D02*
D03*
X1165D02*
D03*
X676Y-174D02*
D03*
X399Y-195D02*
D03*
X489D02*
D03*
X786Y-1099D02*
D03*
X876D02*
D03*
X1214Y-977D02*
D03*
X1124D02*
D03*
X781Y-970D02*
D03*
X871D02*
D03*
X893Y-272D02*
D03*
X983D02*
D03*
X1338Y-155D02*
D03*
X1244Y-159D02*
D03*
D13*
X490Y-362D02*
D03*
X630D02*
D03*
X610D02*
D03*
X590D02*
D03*
X570D02*
D03*
X550D02*
D03*
X530D02*
D03*
X510D02*
D03*
Y-553D02*
D03*
X530D02*
D03*
X550D02*
D03*
X570D02*
D03*
X590D02*
D03*
X610D02*
D03*
X490D02*
D03*
X1193Y-321D02*
D03*
X1333D02*
D03*
X1313D02*
D03*
X1293D02*
D03*
X1273D02*
D03*
X1253D02*
D03*
X1233D02*
D03*
X1213D02*
D03*
Y-512D02*
D03*
X1233D02*
D03*
X1253D02*
D03*
X1273D02*
D03*
X1293D02*
D03*
X1313D02*
D03*
X1333D02*
D03*
X1193D02*
D03*
X855Y-492D02*
D03*
X915D02*
D03*
X895D02*
D03*
X875D02*
D03*
Y-380D02*
D03*
X895D02*
D03*
X915D02*
D03*
X855D02*
D03*
D14*
X464Y-527D02*
D03*
Y-507D02*
D03*
Y-487D02*
D03*
Y-467D02*
D03*
Y-447D02*
D03*
Y-427D02*
D03*
Y-407D02*
D03*
Y-387D02*
D03*
X656Y-527D02*
D03*
Y-507D02*
D03*
Y-487D02*
D03*
Y-467D02*
D03*
Y-447D02*
D03*
Y-427D02*
D03*
Y-387D02*
D03*
Y-407D02*
D03*
X1167Y-486D02*
D03*
Y-466D02*
D03*
Y-446D02*
D03*
Y-426D02*
D03*
Y-406D02*
D03*
Y-386D02*
D03*
Y-366D02*
D03*
Y-346D02*
D03*
X1359Y-486D02*
D03*
Y-466D02*
D03*
Y-446D02*
D03*
Y-426D02*
D03*
Y-406D02*
D03*
Y-386D02*
D03*
Y-346D02*
D03*
Y-366D02*
D03*
X941Y-426D02*
D03*
Y-406D02*
D03*
Y-446D02*
D03*
Y-466D02*
D03*
X829Y-406D02*
D03*
Y-426D02*
D03*
Y-446D02*
D03*
Y-466D02*
D03*
D15*
X529Y-1126D02*
D03*
X623D02*
D03*
X1341Y-1119D02*
D03*
X1435Y-1119D02*
D03*
D16*
X576Y-890D02*
D03*
X1388Y-883D02*
D03*
D17*
X428Y-707D02*
D03*
X503D02*
D03*
X502Y-810D02*
D03*
X465Y-810D02*
D03*
X428Y-810D02*
D03*
X1195Y-694D02*
D03*
X1270Y-694D02*
D03*
X1269Y-797D02*
D03*
X1232D02*
D03*
X1195Y-797D02*
D03*
D18*
X461Y-879D02*
D03*
X406D02*
D03*
X449Y-1097D02*
D03*
X394D02*
D03*
X1227Y-880D02*
D03*
X1172D02*
D03*
D19*
X998Y-979D02*
D03*
Y-1069D02*
D03*
X1060Y-776D02*
D03*
Y-866D02*
D03*
X766Y-184D02*
D03*
Y-274D02*
D03*
D20*
X1231Y-1080D02*
D03*
Y-1135D02*
D03*
X880Y-899D02*
D03*
Y-844D02*
D03*
X1120Y-1055D02*
D03*
Y-1110D02*
D03*
D21*
X1253Y-321D02*
Y-296D01*
X1137Y-386D02*
X1167D01*
X1135Y-366D02*
X1167D01*
X1132Y-346D02*
X1167D01*
X1359D02*
X1388D01*
X1333Y-321D02*
Y-294D01*
X1313Y-321D02*
Y-295D01*
X1293Y-321D02*
Y-296D01*
X1273Y-321D02*
Y-295D01*
X1135Y-466D02*
X1167D01*
X1140Y-486D02*
X1167D01*
X1193Y-540D02*
Y-512D01*
X1213Y-543D02*
Y-512D01*
X1233Y-541D02*
Y-512D01*
X1253Y-540D02*
Y-512D01*
X1293Y-543D02*
Y-512D01*
X1333Y-542D02*
Y-512D01*
X1359Y-486D02*
X1386D01*
X1359Y-466D02*
X1391D01*
X1359Y-426D02*
X1388D01*
X1359Y-446D02*
X1389D01*
X855Y-380D02*
Y-356D01*
X895Y-404D02*
Y-357D01*
X915Y-405D02*
Y-356D01*
X570Y-362D02*
Y-339D01*
X590Y-362D02*
Y-339D01*
X610Y-362D02*
Y-337D01*
X630Y-362D02*
Y-337D01*
X656Y-387D02*
X685D01*
X666Y-404D02*
X689D01*
X663Y-407D02*
X666Y-404D01*
X656Y-467D02*
X687D01*
X656Y-487D02*
X684D01*
X656Y-507D02*
X688D01*
X656Y-527D02*
X690D01*
X436Y-507D02*
X464D01*
X434Y-527D02*
X464D01*
X490Y-580D02*
Y-553D01*
X530Y-582D02*
Y-554D01*
X510Y-579D02*
Y-553D01*
X437Y-407D02*
X463D01*
X436Y-427D02*
X464D01*
X434Y-387D02*
X464D01*
X1233Y-308D02*
Y-273D01*
X1193Y-315D02*
Y-272D01*
X1313Y-563D02*
Y-526D01*
X510Y-362D02*
Y-358D01*
X903Y-406D02*
X940D01*
X852D02*
X856Y-410D01*
X829Y-406D02*
X852D01*
X859Y-446D02*
X860Y-445D01*
X829Y-446D02*
X859D01*
X875Y-383D02*
Y-339D01*
X866Y-570D02*
X867Y-571D01*
X915Y-502D02*
Y-492D01*
X940Y-467D02*
X941Y-466D01*
X464Y-447D02*
X492D01*
X619Y-407D02*
Y-405D01*
X620Y-447D02*
X656D01*
X620D02*
Y-446D01*
X510Y-401D02*
Y-362D01*
X1253Y-354D02*
Y-321D01*
X1213Y-360D02*
Y-321D01*
X1323Y-406D02*
Y-405D01*
Y-406D02*
X1359D01*
X1322Y-366D02*
Y-364D01*
Y-366D02*
X1359D01*
X1167Y-406D02*
X1195D01*
X1167Y-446D02*
X1199D01*
X1273Y-556D02*
Y-512D01*
X1259Y-570D02*
X1273Y-556D01*
X1259Y-605D02*
Y-570D01*
X556Y-646D02*
Y-611D01*
X570Y-597D01*
Y-553D01*
X610Y-604D02*
Y-567D01*
X427Y-803D02*
Y-756D01*
X504D01*
Y-706D01*
X506D01*
X500Y-699D02*
X557D01*
X502Y-723D02*
Y-708D01*
X620Y-694D02*
Y-694D01*
X1327Y-661D02*
Y-661D01*
X1269Y-695D02*
X1269Y-710D01*
X1326D01*
X1271Y-693D02*
X1273Y-693D01*
X1271Y-743D02*
Y-693D01*
X1194Y-743D02*
X1271D01*
X1194Y-790D02*
Y-743D01*
X617Y-699D02*
Y-614D01*
X783Y-573D02*
Y-506D01*
X823Y-466D01*
X829D01*
X855Y-503D02*
Y-492D01*
X821Y-537D02*
X855Y-503D01*
X821Y-575D02*
Y-537D01*
X875Y-521D02*
Y-492D01*
X861Y-535D02*
X875Y-521D01*
X861Y-574D02*
Y-535D01*
X895Y-574D02*
Y-492D01*
X915Y-506D02*
Y-492D01*
Y-506D02*
X938Y-529D01*
Y-574D02*
Y-529D01*
X941Y-466D02*
X978Y-503D01*
Y-574D02*
Y-503D01*
X1326Y-660D02*
Y-572D01*
X490Y-362D02*
Y-315D01*
X530Y-362D02*
Y-323D01*
X523Y-273D02*
X533Y-283D01*
X941Y-426D02*
X966D01*
X955Y-446D02*
X971Y-454D01*
X971Y-455D01*
X590Y-587D02*
Y-521D01*
X550Y-395D02*
Y-339D01*
X619Y-407D02*
X663D01*
X913Y-446D02*
X955D01*
X855Y-407D02*
Y-391D01*
X193Y-694D02*
X194D01*
X193Y-1230D02*
Y-694D01*
X789Y-454D02*
X805D01*
X812Y-447D01*
X819D01*
X464Y-427D02*
X491D01*
X664Y-447D02*
X674D01*
X687Y-460D01*
D22*
X550Y-583D02*
Y-527D01*
X426Y-492D02*
X452D01*
X457Y-487D01*
X464D01*
X530Y-553D02*
Y-524D01*
X1293Y-512D02*
Y-482D01*
D23*
X1069Y-426D02*
X1152D01*
X205Y-467D02*
X320D01*
X395D02*
X444D01*
X774Y-427D02*
X809D01*
X966Y-426D02*
X1016D01*
X1502Y-386D02*
X1631D01*
X1380D02*
X1427D01*
X464Y-866D02*
Y-809D01*
X860Y-658D02*
Y-623D01*
X898Y-658D02*
Y-624D01*
X938Y-658D02*
Y-624D01*
X978Y-658D02*
Y-624D01*
X821Y-658D02*
Y-623D01*
X783Y-658D02*
Y-623D01*
X502Y-810D02*
X559D01*
X609Y-846D02*
Y-811D01*
X588Y-867D02*
X609Y-846D01*
X559Y-810D02*
Y-772D01*
X1270Y-804D02*
X1324D01*
X1374Y-865D02*
Y-804D01*
X1323Y-803D02*
Y-764D01*
X469Y-1124D02*
X528D01*
D24*
X673Y-427D02*
X719D01*
X482Y-283D02*
X484Y-281D01*
X531Y-314D02*
Y-283D01*
X482Y-314D02*
Y-283D01*
X874Y-327D02*
Y-296D01*
X983Y-277D02*
X1034D01*
X880Y-966D02*
Y-899D01*
X1119Y-1053D02*
Y-980D01*
X443Y-1098D02*
X469Y-1124D01*
D25*
X482Y-291D02*
X483Y-292D01*
X484Y-214D02*
X514Y-184D01*
X484Y-294D02*
Y-214D01*
X515Y-184D02*
X554D01*
X463Y-977D02*
Y-879D01*
X1232Y-923D02*
Y-797D01*
X1301Y-1079D02*
X1341Y-1119D01*
X1230Y-1079D02*
X1301D01*
X1230D02*
X1232Y-1077D01*
Y-911D01*
X872Y-977D02*
X1124D01*
X876Y-1099D02*
X971D01*
X995Y-1075D01*
X463Y-970D02*
X781D01*
X1062Y-979D02*
Y-871D01*
X1059Y-772D02*
Y-701D01*
X463Y-1120D02*
Y-970D01*
D26*
X876Y-1099D02*
X991D01*
X996Y-1198D02*
Y-1099D01*
X681Y-175D02*
X1076D01*
D27*
X1165Y-167D02*
X1242D01*
D28*
X1186Y-234D02*
Y-188D01*
D29*
X1380Y-754D02*
D03*
X996Y-1216D02*
D03*
D30*
X675Y-627D02*
D03*
D31*
X496Y-628D02*
D03*
D32*
X617Y-758D02*
D03*
D33*
X427Y-705D02*
D03*
D34*
X398Y-879D02*
D03*
D35*
X386Y-1098D02*
D03*
D36*
X878Y-837D02*
D03*
D37*
X1162Y-878D02*
D03*
D38*
X1190Y-692D02*
D03*
D39*
X1209Y-590D02*
D03*
D40*
X1372Y-589D02*
D03*
D41*
X1286Y-252D02*
D03*
D42*
X1135Y-250D02*
D03*
D43*
X391Y-194D02*
D03*
D44*
X424Y-299D02*
D03*
D45*
X581Y-294D02*
D03*
D46*
X763Y-283D02*
D03*
D47*
X824Y-331D02*
D03*
D48*
X965Y-336D02*
D03*
D49*
X1118Y-1118D02*
D03*
D50*
X775Y-1095D02*
D03*
D51*
X623Y-1132D02*
D03*
D52*
X1438Y-1118D02*
D03*
D53*
X1566Y-1155D02*
D03*
D54*
Y-893D02*
D03*
D55*
X1566Y-527D02*
D03*
D56*
X1564Y-244D02*
D03*
D57*
X271Y-328D02*
D03*
D58*
Y-608D02*
D03*
D59*
X272Y-886D02*
D03*
D60*
X271Y-1155D02*
D03*
D61*
X1062Y-709D02*
D03*
D62*
X198Y-467D02*
D03*
D63*
X1625Y-386D02*
D03*
D64*
X581Y-296D02*
D03*
D65*
X531Y-295D02*
D03*
X1286Y-248D02*
D03*
D66*
X483Y-298D02*
D03*
X1186Y-247D02*
D03*
D67*
X433Y-299D02*
D03*
D68*
X1236Y-250D02*
D03*
D69*
X1136Y-249D02*
D03*
D70*
X560Y-458D02*
D03*
X1263Y-417D02*
D03*
D71*
X885Y-436D02*
D03*
D72*
X919Y-746D02*
D03*
D73*
X1028Y-293D02*
D03*
D74*
X1109Y-312D02*
D03*
D75*
X1345Y-159D02*
D03*
D76*
X812Y-398D02*
D03*
D77*
X1649Y-1237D02*
Y-73D01*
X187Y-1237D02*
Y-117D01*
Y-1237D02*
X1649D01*
X187Y-73D02*
X1649D01*
X187Y-117D02*
Y-73D01*
D78*
X1570Y-528D02*
D03*
Y-244D02*
D03*
X267Y-328D02*
D03*
Y-608D02*
D03*
Y-1158D02*
D03*
Y-883D02*
D03*
X1570Y-848D02*
D03*
Y-1158D02*
D03*
D79*
X611Y-509D02*
D03*
Y-475D02*
D03*
Y-441D02*
D03*
Y-407D02*
D03*
X577D02*
D03*
X543D02*
D03*
X509D02*
D03*
Y-441D02*
D03*
Y-476D02*
D03*
Y-509D02*
D03*
X543D02*
D03*
X577D02*
D03*
Y-475D02*
D03*
X543D02*
D03*
Y-441D02*
D03*
X577D02*
D03*
X1314Y-468D02*
D03*
Y-434D02*
D03*
Y-400D02*
D03*
Y-366D02*
D03*
X1280D02*
D03*
X1246D02*
D03*
X1212D02*
D03*
Y-400D02*
D03*
Y-434D02*
D03*
Y-468D02*
D03*
X1246D02*
D03*
X1280D02*
D03*
Y-434D02*
D03*
X1246D02*
D03*
Y-400D02*
D03*
X1280D02*
D03*
X903Y-418D02*
D03*
Y-454D02*
D03*
X867D02*
D03*
Y-418D02*
D03*
X885Y-436D02*
D03*
D80*
X1148Y-932D02*
D03*
X1157Y-1025D02*
D03*
X1160Y-1091D02*
D03*
X1081Y-1078D02*
D03*
X890Y-132D02*
D03*
X1023Y-130D02*
D03*
X1119Y-127D02*
D03*
X1290Y-110D02*
D03*
X1186Y-124D02*
D03*
X427Y-964D02*
D03*
X583Y-1170D02*
D03*
Y-1095D02*
D03*
X502Y-1063D02*
D03*
X429Y-1135D02*
D03*
X427Y-1058D02*
D03*
X474Y-1157D02*
D03*
X952Y-1223D02*
D03*
X1042Y-1221D02*
D03*
X1041Y-1123D02*
D03*
X1270Y-207D02*
D03*
X567Y-275D02*
D03*
X432Y-299D02*
D03*
X447Y-244D02*
D03*
X417Y-170D02*
D03*
X499Y-147D02*
D03*
X560Y-125D02*
D03*
X630Y-126D02*
D03*
X694Y-125D02*
D03*
X766Y-130D02*
D03*
Y-253D02*
D03*
X840Y-263D02*
D03*
X816Y-220D02*
D03*
X717Y-223D02*
D03*
X660Y-222D02*
D03*
X591Y-223D02*
D03*
X521Y-243D02*
D03*
X1158Y-788D02*
D03*
X1170Y-726D02*
D03*
X1071Y-638D02*
D03*
X1107Y-677D02*
D03*
X1110Y-745D02*
D03*
X1108Y-865D02*
D03*
X1107Y-819D02*
D03*
X1175Y-880D02*
D03*
X1194Y-928D02*
D03*
X1099Y-927D02*
D03*
X1050Y-1019D02*
D03*
X881Y-1147D02*
D03*
X951Y-1142D02*
D03*
X816Y-1098D02*
D03*
X846Y-1052D02*
D03*
X927Y-1056D02*
D03*
X951Y-1025D02*
D03*
X904Y-1018D02*
D03*
X826Y-1017D02*
D03*
X779Y-922D02*
D03*
X727Y-933D02*
D03*
X841Y-921D02*
D03*
X879Y-859D02*
D03*
X923Y-940D02*
D03*
X976Y-925D02*
D03*
X1026Y-921D02*
D03*
X1132Y-346D02*
D03*
Y-386D02*
D03*
X1089Y-393D02*
D03*
X1130Y-460D02*
D03*
X1131Y-499D02*
D03*
X1192Y-547D02*
D03*
X1225Y-548D02*
D03*
X1165Y-521D02*
D03*
X1040Y-393D02*
D03*
X1090Y-459D02*
D03*
X1035Y-460D02*
D03*
X1273Y-286D02*
D03*
X1313D02*
D03*
X1361Y-318D02*
D03*
X1395Y-353D02*
D03*
X1394Y-426D02*
D03*
Y-466D02*
D03*
X1362Y-515D02*
D03*
X1439Y-419D02*
D03*
X1491Y-420D02*
D03*
X1540D02*
D03*
X1633D02*
D03*
X1590D02*
D03*
X1633Y-352D02*
D03*
X1577D02*
D03*
X1519D02*
D03*
X1459D02*
D03*
X1359Y-220D02*
D03*
X1360Y-110D02*
D03*
X1146Y-229D02*
D03*
X1162Y-315D02*
D03*
X1146Y-269D02*
D03*
X943Y-361D02*
D03*
X960Y-393D02*
D03*
X978Y-460D02*
D03*
X692Y-396D02*
D03*
X659Y-358D02*
D03*
X630Y-327D02*
D03*
X590D02*
D03*
X462Y-358D02*
D03*
X429Y-387D02*
D03*
Y-427D02*
D03*
X428Y-500D02*
D03*
Y-538D02*
D03*
X462Y-556D02*
D03*
X490Y-588D02*
D03*
X530Y-587D02*
D03*
X839Y-344D02*
D03*
X810Y-394D02*
D03*
X794Y-458D02*
D03*
X373Y-433D02*
D03*
X313D02*
D03*
X257Y-434D02*
D03*
X203Y-433D02*
D03*
Y-501D02*
D03*
X257D02*
D03*
X313Y-502D02*
D03*
X373Y-501D02*
D03*
X1358Y-576D02*
D03*
X1291Y-588D02*
D03*
X1224Y-599D02*
D03*
X1260Y-641D02*
D03*
X1357Y-630D02*
D03*
X1360Y-685D02*
D03*
X1234Y-711D02*
D03*
X692Y-458D02*
D03*
X691Y-507D02*
D03*
X638Y-555D02*
D03*
X587Y-630D02*
D03*
X654Y-598D02*
D03*
X656Y-661D02*
D03*
X520Y-659D02*
D03*
X538Y-731D02*
D03*
X591Y-732D02*
D03*
X652Y-712D02*
D03*
X625Y-778D02*
D03*
X757Y-494D02*
D03*
X756Y-539D02*
D03*
X751Y-601D02*
D03*
Y-674D02*
D03*
X801Y-697D02*
D03*
X879D02*
D03*
X960Y-694D02*
D03*
X1015Y-657D02*
D03*
X1011Y-599D02*
D03*
X1004Y-541D02*
D03*
X467Y-727D02*
D03*
X400Y-766D02*
D03*
X424Y-864D02*
D03*
X639Y-933D02*
D03*
X638Y-867D02*
D03*
X745Y-737D02*
D03*
X799Y-789D02*
D03*
X876Y-790D02*
D03*
X948Y-788D02*
D03*
X1012Y-791D02*
D03*
Y-854D02*
D03*
X749Y-395D02*
D03*
X739Y-460D02*
D03*
X988Y-319D02*
D03*
X937Y-224D02*
D03*
X1036Y-237D02*
D03*
X1067Y-278D02*
D03*
X507Y-859D02*
D03*
X505Y-932D02*
D03*
X502Y-1007D02*
D03*
X577D02*
D03*
X727D02*
D03*
X661D02*
D03*
X1359Y-730D02*
D03*
X1410Y-819D02*
D03*
X1451Y-926D02*
D03*
X1386Y-946D02*
D03*
X1329Y-941D02*
D03*
X1323Y-839D02*
D03*
X1268Y-847D02*
D03*
Y-905D02*
D03*
Y-968D02*
D03*
X1270Y-1040D02*
D03*
X1328Y-1055D02*
D03*
X1395Y-1078D02*
D03*
Y-1163D02*
D03*
X1309Y-1182D02*
D03*
X1285Y-1116D02*
D03*
X1230Y-1172D02*
D03*
X1194Y-1135D02*
D03*
X1196Y-1026D02*
D03*
X1193Y-1076D02*
D03*
M02*
