%FSLAX23Y23*%
%MOIN*%
G70*
G01*
G75*
G04 Layer_Physical_Order=1*
G04 Layer_Color=255*
%ADD10R,0.060X0.050*%
%ADD11R,0.050X0.060*%
%ADD12R,0.030X0.030*%
%ADD13R,0.030X0.030*%
%ADD14R,0.025X0.020*%
%ADD15R,0.020X0.025*%
%ADD16R,0.079X0.079*%
%ADD17R,0.063X0.079*%
%ADD18R,0.024X0.048*%
%ADD19R,0.010X0.026*%
%ADD20R,0.026X0.010*%
%ADD21C,0.010*%
%ADD22C,0.012*%
%ADD23C,0.030*%
%ADD24C,0.025*%
%ADD25C,0.015*%
%ADD26C,0.020*%
%ADD27C,0.040*%
%ADD28C,0.008*%
%ADD29R,0.027X0.019*%
%ADD30R,0.074X0.095*%
%ADD31R,0.038X0.045*%
%ADD32R,0.146X0.145*%
%ADD33R,0.024X0.017*%
%ADD34R,0.024X0.022*%
%ADD35R,0.024X0.023*%
%ADD36R,0.024X0.029*%
%ADD37R,0.024X0.027*%
%ADD38R,0.024X0.025*%
%ADD39R,0.046X0.020*%
%ADD40R,0.020X0.020*%
%ADD41R,0.040X0.038*%
%ADD42R,0.165X0.162*%
%ADD43R,0.164X0.175*%
%ADD44R,0.167X0.180*%
%ADD45R,0.163X0.174*%
%ADD46R,0.168X0.178*%
%ADD47R,0.164X0.172*%
%ADD48R,0.165X0.179*%
%ADD49R,0.165X0.164*%
%ADD50R,0.097X0.115*%
%ADD51R,0.092X0.119*%
%ADD52R,0.080X0.082*%
%ADD53R,0.062X0.048*%
%ADD54R,0.049X0.053*%
%ADD55R,0.050X0.047*%
%ADD56R,0.080X0.079*%
%ADD57R,0.048X0.081*%
%ADD58R,0.042X0.082*%
%ADD59R,0.076X0.079*%
%ADD60R,0.050X0.078*%
%ADD61R,0.050X0.082*%
%ADD62R,0.048X0.083*%
%ADD63R,0.050X0.081*%
%ADD64R,0.058X0.074*%
%ADD65R,0.050X0.064*%
%ADD66R,0.059X0.041*%
%ADD67R,0.047X0.058*%
%ADD68R,0.046X0.056*%
%ADD69R,0.050X0.073*%
%ADD70R,0.038X0.035*%
%ADD71R,0.045X0.086*%
%ADD72R,0.036X0.084*%
%ADD73R,0.154X0.057*%
%ADD74R,0.304X0.253*%
%ADD75R,0.097X0.281*%
%ADD76R,0.277X0.129*%
%ADD77R,0.279X0.133*%
%ADD78C,0.002*%
%ADD79C,0.142*%
%ADD80C,0.010*%
%ADD81C,0.025*%
G36*
X1648Y-222D02*
X1641Y-204D01*
X1628Y-187D01*
X1611Y-174D01*
X1591Y-166D01*
X1575Y-164D01*
Y-245D01*
Y-326D01*
X1591Y-324D01*
X1611Y-316D01*
X1628Y-303D01*
X1641Y-286D01*
X1648Y-268D01*
Y-365D01*
X1646Y-364D01*
X1602D01*
X1601Y-365D01*
X1502D01*
X1500Y-365D01*
X1465D01*
Y-405D01*
X1500D01*
X1502Y-405D01*
X1601D01*
X1602Y-406D01*
X1646D01*
X1648Y-405D01*
Y-502D01*
X1641Y-484D01*
X1628Y-467D01*
X1611Y-454D01*
X1591Y-446D01*
X1575Y-444D01*
Y-525D01*
Y-606D01*
X1591Y-604D01*
X1611Y-596D01*
X1628Y-583D01*
X1641Y-566D01*
X1648Y-548D01*
Y-865D01*
X1641Y-847D01*
X1628Y-830D01*
X1611Y-817D01*
X1591Y-809D01*
X1575Y-807D01*
Y-888D01*
Y-969D01*
X1591Y-967D01*
X1611Y-959D01*
X1628Y-946D01*
X1641Y-929D01*
X1648Y-911D01*
Y-1135D01*
X1641Y-1117D01*
X1628Y-1100D01*
X1611Y-1087D01*
X1591Y-1079D01*
X1575Y-1077D01*
Y-1158D01*
X1570D01*
Y-1163D01*
X1489D01*
X1491Y-1179D01*
X1499Y-1199D01*
X1512Y-1216D01*
X1529Y-1229D01*
X1547Y-1236D01*
X1026D01*
X1027Y-1234D01*
Y-1196D01*
X1027Y-1195D01*
Y-1108D01*
X1033D01*
Y-1028D01*
X963D01*
Y-1067D01*
X916D01*
Y-1063D01*
X836D01*
Y-1133D01*
X916D01*
Y-1129D01*
X965D01*
Y-1195D01*
X965Y-1196D01*
Y-1234D01*
X966Y-1236D01*
X300D01*
X308Y-1233D01*
X325Y-1220D01*
X338Y-1203D01*
X346Y-1183D01*
X348Y-1167D01*
X267D01*
Y-1162D01*
X262D01*
Y-1081D01*
X246Y-1083D01*
X226Y-1091D01*
X209Y-1104D01*
X196Y-1121D01*
X190Y-1136D01*
Y-910D01*
X196Y-925D01*
X209Y-942D01*
X226Y-955D01*
X246Y-963D01*
X262Y-965D01*
Y-884D01*
Y-803D01*
X246Y-805D01*
X226Y-813D01*
X209Y-826D01*
X196Y-843D01*
X190Y-858D01*
Y-632D01*
X196Y-647D01*
X209Y-664D01*
X226Y-677D01*
X246Y-685D01*
X262Y-687D01*
Y-606D01*
Y-525D01*
X246Y-527D01*
X226Y-535D01*
X209Y-548D01*
X196Y-565D01*
X190Y-580D01*
Y-486D01*
X191Y-487D01*
X208D01*
X209Y-486D01*
X320D01*
X322Y-486D01*
X352D01*
Y-446D01*
X322D01*
X320Y-446D01*
X209D01*
X208Y-445D01*
X191D01*
X190Y-446D01*
Y-352D01*
X196Y-367D01*
X209Y-384D01*
X226Y-397D01*
X246Y-405D01*
X262Y-407D01*
Y-326D01*
Y-245D01*
X246Y-247D01*
X226Y-255D01*
X209Y-268D01*
X196Y-285D01*
X190Y-300D01*
Y-72D01*
X1648D01*
Y-222D01*
D02*
G37*
%LPC*%
G36*
X875Y-818D02*
X855D01*
Y-838D01*
X875D01*
Y-818D01*
D02*
G37*
G36*
X905Y-848D02*
X885D01*
Y-868D01*
X905D01*
Y-848D01*
D02*
G37*
G36*
X1083Y-650D02*
X1041D01*
X1033Y-653D01*
X1030Y-661D01*
Y-714D01*
X770D01*
X762Y-717D01*
X759Y-725D01*
Y-764D01*
X762Y-772D01*
X770Y-775D01*
X1025D01*
Y-815D01*
X1095D01*
Y-735D01*
X1094D01*
Y-661D01*
X1091Y-653D01*
X1083Y-650D01*
D02*
G37*
G36*
X905Y-818D02*
X885D01*
Y-838D01*
X905D01*
Y-818D01*
D02*
G37*
G36*
X401Y-853D02*
X381D01*
Y-873D01*
X401D01*
Y-853D01*
D02*
G37*
G36*
X1197Y-854D02*
X1177D01*
Y-874D01*
X1197D01*
Y-854D01*
D02*
G37*
G36*
X875Y-848D02*
X855D01*
Y-868D01*
X875D01*
Y-848D01*
D02*
G37*
G36*
X431Y-853D02*
X411D01*
Y-873D01*
X431D01*
Y-853D01*
D02*
G37*
G36*
X1205Y-550D02*
X1188D01*
Y-565D01*
X1205D01*
Y-550D01*
D02*
G37*
G36*
X1232D02*
X1215D01*
Y-565D01*
X1232D01*
Y-550D01*
D02*
G37*
G36*
X1395Y-574D02*
X1349D01*
Y-589D01*
Y-601D01*
X1395D01*
Y-589D01*
Y-574D01*
D02*
G37*
G36*
X933Y-236D02*
X853D01*
Y-306D01*
X856D01*
Y-310D01*
X851D01*
Y-350D01*
X860D01*
Y-356D01*
X840D01*
Y-390D01*
X829D01*
X828Y-390D01*
X806D01*
Y-406D01*
X774D01*
X772Y-406D01*
X752D01*
Y-446D01*
X772D01*
X774Y-446D01*
X806D01*
Y-460D01*
Y-460D01*
X772Y-494D01*
X769Y-499D01*
X768Y-505D01*
Y-549D01*
X763D01*
Y-595D01*
X878D01*
Y-595D01*
X998D01*
Y-550D01*
X993D01*
Y-502D01*
X992Y-496D01*
X989Y-491D01*
X964Y-466D01*
Y-460D01*
Y-445D01*
X1016D01*
X1018Y-445D01*
X1039D01*
Y-405D01*
X1018D01*
X1016Y-405D01*
X964D01*
Y-390D01*
X930D01*
Y-356D01*
X890D01*
Y-351D01*
X904D01*
X906Y-350D01*
X936D01*
Y-310D01*
X906D01*
X904Y-309D01*
X892D01*
Y-306D01*
X933D01*
Y-236D01*
D02*
G37*
G36*
X1565Y-444D02*
X1549Y-446D01*
X1529Y-454D01*
X1512Y-467D01*
X1499Y-484D01*
X1491Y-504D01*
X1489Y-520D01*
X1565D01*
Y-444D01*
D02*
G37*
G36*
X1232Y-575D02*
X1188D01*
Y-590D01*
Y-601D01*
X1232D01*
Y-590D01*
Y-575D01*
D02*
G37*
G36*
X1367Y-549D02*
X1349D01*
Y-564D01*
X1367D01*
Y-549D01*
D02*
G37*
G36*
X1395D02*
X1377D01*
Y-564D01*
X1395D01*
Y-549D01*
D02*
G37*
G36*
X348Y-889D02*
X272D01*
Y-965D01*
X288Y-963D01*
X308Y-955D01*
X325Y-942D01*
X338Y-925D01*
X346Y-905D01*
X348Y-889D01*
D02*
G37*
G36*
X1565Y-893D02*
X1489D01*
X1491Y-909D01*
X1499Y-929D01*
X1512Y-946D01*
X1529Y-959D01*
X1549Y-967D01*
X1565Y-969D01*
Y-893D01*
D02*
G37*
G36*
X609Y-790D02*
X607Y-790D01*
X586D01*
Y-830D01*
X589D01*
Y-837D01*
X586Y-839D01*
X526D01*
Y-938D01*
X625D01*
Y-857D01*
X628Y-853D01*
X629Y-845D01*
Y-830D01*
X631D01*
Y-790D01*
X611D01*
X609Y-790D01*
D02*
G37*
G36*
X1095Y-825D02*
X1025D01*
Y-905D01*
X1039D01*
Y-953D01*
X1033D01*
Y-938D01*
X963D01*
Y-953D01*
X911D01*
Y-934D01*
X898D01*
Y-923D01*
X905D01*
Y-873D01*
X855D01*
Y-923D01*
X862D01*
Y-934D01*
X831D01*
Y-1004D01*
X911D01*
Y-999D01*
X963D01*
Y-1018D01*
X1033D01*
Y-999D01*
X1053D01*
X1053Y-999D01*
X1062Y-1001D01*
X1071Y-999D01*
X1071Y-999D01*
X1084D01*
Y-1011D01*
X1101D01*
Y-1029D01*
X1095D01*
Y-1079D01*
X1145D01*
Y-1029D01*
X1137D01*
Y-1011D01*
X1164D01*
Y-941D01*
X1085D01*
Y-905D01*
X1095D01*
Y-825D01*
D02*
G37*
G36*
X826Y-1063D02*
X791D01*
Y-1093D01*
X826D01*
Y-1063D01*
D02*
G37*
G36*
X781D02*
X746D01*
Y-1093D01*
X781D01*
Y-1063D01*
D02*
G37*
G36*
X419Y-1071D02*
X399D01*
Y-1091D01*
X419D01*
Y-1071D01*
D02*
G37*
G36*
X389D02*
X369D01*
Y-1091D01*
X389D01*
Y-1071D01*
D02*
G37*
G36*
X1565Y-807D02*
X1549Y-809D01*
X1529Y-817D01*
X1512Y-830D01*
X1499Y-847D01*
X1491Y-867D01*
X1489Y-883D01*
X1565D01*
Y-807D01*
D02*
G37*
G36*
X431Y-883D02*
X411D01*
Y-903D01*
X431D01*
Y-883D01*
D02*
G37*
G36*
X1167Y-854D02*
X1147D01*
Y-874D01*
X1167D01*
Y-854D01*
D02*
G37*
G36*
X272Y-803D02*
Y-879D01*
X348D01*
X346Y-863D01*
X338Y-843D01*
X325Y-826D01*
X308Y-813D01*
X288Y-805D01*
X272Y-803D01*
D02*
G37*
G36*
X1167Y-884D02*
X1147D01*
Y-904D01*
X1167D01*
Y-884D01*
D02*
G37*
G36*
X1395Y-768D02*
X1350D01*
Y-783D01*
X1352D01*
Y-823D01*
X1354D01*
Y-832D01*
X1338D01*
Y-931D01*
X1437D01*
Y-832D01*
X1394D01*
Y-823D01*
X1396D01*
Y-783D01*
X1395D01*
Y-768D01*
D02*
G37*
G36*
X401Y-883D02*
X381D01*
Y-903D01*
X401D01*
Y-883D01*
D02*
G37*
G36*
X1197Y-884D02*
X1177D01*
Y-904D01*
X1197D01*
Y-884D01*
D02*
G37*
G36*
X272Y-525D02*
Y-601D01*
X348D01*
X346Y-585D01*
X338Y-565D01*
X325Y-548D01*
X308Y-535D01*
X288Y-527D01*
X272Y-525D01*
D02*
G37*
G36*
X423Y-672D02*
X406D01*
Y-701D01*
X423D01*
Y-672D01*
D02*
G37*
G36*
X450D02*
X433D01*
Y-701D01*
X450D01*
Y-672D01*
D02*
G37*
G36*
X1190Y-698D02*
X1173D01*
Y-727D01*
X1190D01*
Y-698D01*
D02*
G37*
G36*
X1292Y-659D02*
X1248D01*
Y-727D01*
X1217D01*
Y-698D01*
X1200D01*
Y-727D01*
X1194D01*
X1192Y-727D01*
X1192D01*
X1188Y-728D01*
X1183Y-731D01*
X1180Y-736D01*
X1179Y-742D01*
Y-762D01*
X1172D01*
Y-830D01*
X1209D01*
Y-854D01*
X1202D01*
Y-904D01*
X1209D01*
Y-910D01*
Y-922D01*
Y-941D01*
X1174D01*
Y-1011D01*
X1209D01*
Y-1054D01*
X1206D01*
Y-1104D01*
X1256D01*
Y-1101D01*
X1291D01*
X1299Y-1109D01*
Y-1167D01*
X1382D01*
Y-1069D01*
X1324D01*
X1317Y-1062D01*
X1309Y-1057D01*
X1301Y-1055D01*
X1256D01*
Y-1054D01*
X1255D01*
Y-910D01*
Y-830D01*
X1292D01*
Y-823D01*
X1324D01*
X1326Y-823D01*
X1347D01*
Y-783D01*
X1345D01*
Y-743D01*
X1325D01*
X1323Y-743D01*
X1321Y-743D01*
X1301D01*
Y-783D01*
X1292D01*
Y-762D01*
X1210D01*
Y-762D01*
X1209D01*
Y-757D01*
X1271D01*
X1277Y-756D01*
X1282Y-753D01*
X1285Y-748D01*
X1286Y-742D01*
Y-727D01*
X1292D01*
Y-724D01*
X1306D01*
Y-732D01*
X1346D01*
Y-687D01*
X1306D01*
Y-694D01*
X1292D01*
Y-659D01*
D02*
G37*
G36*
X348Y-611D02*
X272D01*
Y-687D01*
X288Y-685D01*
X308Y-677D01*
X325Y-664D01*
X338Y-647D01*
X346Y-627D01*
X348Y-611D01*
D02*
G37*
G36*
X880Y-600D02*
X763D01*
Y-620D01*
X763Y-622D01*
Y-667D01*
X764Y-675D01*
X769Y-681D01*
X775Y-686D01*
X783Y-687D01*
X791Y-686D01*
X797Y-681D01*
X802Y-675D01*
X802Y-674D01*
X802Y-676D01*
X807Y-682D01*
X813Y-687D01*
X821Y-688D01*
X829Y-687D01*
X835Y-682D01*
X840Y-676D01*
X840Y-672D01*
X841Y-676D01*
X846Y-682D01*
X852Y-687D01*
X860Y-688D01*
X868Y-687D01*
X874Y-682D01*
X879Y-676D01*
X879Y-674D01*
X879Y-675D01*
X884Y-681D01*
X890Y-686D01*
X898Y-687D01*
X906Y-686D01*
X912Y-681D01*
X917Y-675D01*
X918Y-669D01*
X919Y-675D01*
X924Y-681D01*
X930Y-686D01*
X938Y-687D01*
X946Y-686D01*
X952Y-681D01*
X957Y-675D01*
X958Y-668D01*
X959Y-673D01*
X964Y-679D01*
X970Y-684D01*
X978Y-685D01*
X986Y-684D01*
X992Y-679D01*
X997Y-673D01*
X998Y-665D01*
Y-623D01*
X998Y-621D01*
Y-600D01*
X880D01*
Y-600D01*
D02*
G37*
G36*
X1190Y-659D02*
X1173D01*
Y-688D01*
X1190D01*
Y-659D01*
D02*
G37*
G36*
X1217D02*
X1200D01*
Y-688D01*
X1217D01*
Y-659D01*
D02*
G37*
G36*
X606Y-745D02*
X589D01*
Y-760D01*
X606D01*
Y-745D01*
D02*
G37*
G36*
X633D02*
X616D01*
Y-760D01*
X633D01*
Y-745D01*
D02*
G37*
G36*
X606Y-770D02*
X589D01*
Y-785D01*
X606D01*
Y-770D01*
D02*
G37*
G36*
X633D02*
X616D01*
Y-785D01*
X633D01*
Y-770D01*
D02*
G37*
G36*
X423Y-711D02*
X406D01*
Y-740D01*
X423D01*
Y-711D01*
D02*
G37*
G36*
X525Y-672D02*
X481D01*
Y-740D01*
X450D01*
Y-711D01*
X433D01*
Y-740D01*
X427D01*
X425Y-740D01*
X425D01*
X421Y-741D01*
X416Y-744D01*
X413Y-749D01*
X412Y-755D01*
Y-775D01*
X405D01*
Y-843D01*
X444D01*
Y-853D01*
X436D01*
Y-903D01*
X440D01*
Y-969D01*
Y-976D01*
Y-1071D01*
X424D01*
Y-1121D01*
X440D01*
X442Y-1128D01*
X447Y-1135D01*
X454Y-1140D01*
X461Y-1141D01*
X461Y-1142D01*
X469Y-1143D01*
X487D01*
Y-1174D01*
X570D01*
Y-1076D01*
X487D01*
Y-1103D01*
X486D01*
Y-992D01*
X741D01*
Y-1004D01*
X821D01*
Y-934D01*
X741D01*
Y-946D01*
X486D01*
Y-903D01*
X486D01*
Y-853D01*
X484D01*
Y-843D01*
X525D01*
Y-830D01*
X535D01*
Y-830D01*
X581D01*
Y-790D01*
X579D01*
Y-785D01*
X584D01*
Y-745D01*
X539D01*
Y-770D01*
X538Y-771D01*
Y-789D01*
X525D01*
Y-775D01*
X487D01*
Y-775D01*
X443D01*
Y-775D01*
X442D01*
Y-770D01*
X504D01*
X510Y-769D01*
X515Y-766D01*
X518Y-761D01*
X519Y-755D01*
Y-740D01*
X525D01*
Y-713D01*
X544D01*
Y-718D01*
X589D01*
Y-678D01*
X544D01*
Y-683D01*
X525D01*
Y-672D01*
D02*
G37*
G36*
X1368Y-743D02*
X1350D01*
Y-758D01*
X1368D01*
Y-743D01*
D02*
G37*
G36*
X1395D02*
X1378D01*
Y-758D01*
X1395D01*
Y-743D01*
D02*
G37*
G36*
X1395Y-611D02*
X1377D01*
Y-626D01*
X1395D01*
Y-611D01*
D02*
G37*
G36*
X1565Y-530D02*
X1489D01*
X1491Y-546D01*
X1499Y-566D01*
X1512Y-583D01*
X1529Y-596D01*
X1549Y-604D01*
X1565Y-606D01*
Y-530D01*
D02*
G37*
G36*
X1232Y-611D02*
X1215D01*
Y-626D01*
X1232D01*
Y-611D01*
D02*
G37*
G36*
X1367D02*
X1349D01*
Y-626D01*
X1367D01*
Y-611D01*
D02*
G37*
G36*
X664Y-590D02*
X646D01*
Y-605D01*
X664D01*
Y-590D01*
D02*
G37*
G36*
X692D02*
X674D01*
Y-605D01*
X692D01*
Y-590D01*
D02*
G37*
G36*
X502Y-591D02*
X484D01*
Y-606D01*
X502D01*
Y-591D01*
D02*
G37*
G36*
X530D02*
X512D01*
Y-606D01*
X530D01*
Y-591D01*
D02*
G37*
G36*
Y-652D02*
X512D01*
Y-667D01*
X530D01*
Y-652D01*
D02*
G37*
G36*
X664D02*
X646D01*
Y-667D01*
X664D01*
Y-652D01*
D02*
G37*
G36*
X1284Y-123D02*
X1204D01*
Y-139D01*
X1125D01*
Y-209D01*
X1170D01*
Y-213D01*
X1163D01*
Y-230D01*
X1163Y-231D01*
Y-260D01*
X1163Y-261D01*
Y-287D01*
X1177D01*
Y-314D01*
X1178Y-320D01*
X1178Y-320D01*
Y-330D01*
X1144D01*
Y-360D01*
Y-380D01*
Y-400D01*
Y-405D01*
X1069D01*
X1067Y-405D01*
X1044D01*
Y-445D01*
X1062D01*
X1066Y-446D01*
X1069Y-445D01*
X1069Y-445D01*
X1144D01*
Y-460D01*
Y-480D01*
Y-500D01*
X1178D01*
Y-534D01*
X1258D01*
Y-549D01*
X1256Y-550D01*
X1237D01*
Y-590D01*
Y-626D01*
X1283D01*
Y-590D01*
Y-567D01*
X1284Y-566D01*
X1287Y-561D01*
X1288Y-555D01*
Y-534D01*
X1298D01*
Y-562D01*
X1299Y-568D01*
X1299Y-569D01*
Y-589D01*
Y-626D01*
X1311D01*
Y-637D01*
X1306D01*
Y-682D01*
X1346D01*
Y-637D01*
X1341D01*
Y-626D01*
X1344D01*
Y-589D01*
Y-549D01*
X1328D01*
Y-534D01*
X1348D01*
Y-514D01*
X1348Y-513D01*
Y-500D01*
X1359D01*
X1360Y-500D01*
X1382D01*
Y-480D01*
Y-460D01*
Y-440D01*
Y-420D01*
Y-405D01*
X1427D01*
X1429Y-405D01*
X1461D01*
Y-365D01*
X1429D01*
X1427Y-365D01*
X1382D01*
Y-360D01*
Y-330D01*
X1348D01*
Y-297D01*
X1248D01*
Y-289D01*
X1258D01*
Y-261D01*
X1259Y-260D01*
Y-237D01*
X1258Y-236D01*
Y-212D01*
X1214D01*
Y-236D01*
X1213Y-237D01*
Y-260D01*
X1214Y-261D01*
Y-289D01*
X1218D01*
Y-297D01*
X1207D01*
Y-287D01*
X1209D01*
Y-261D01*
X1209Y-260D01*
Y-231D01*
X1209Y-230D01*
Y-213D01*
X1202D01*
Y-209D01*
X1205D01*
Y-193D01*
X1284D01*
Y-123D01*
D02*
G37*
G36*
X502Y-652D02*
X484D01*
Y-667D01*
X502D01*
Y-652D01*
D02*
G37*
G36*
X692Y-615D02*
X646D01*
Y-630D01*
Y-642D01*
X692D01*
Y-630D01*
Y-615D01*
D02*
G37*
G36*
X1205Y-611D02*
X1188D01*
Y-626D01*
X1205D01*
Y-611D01*
D02*
G37*
G36*
X692Y-652D02*
X674D01*
Y-667D01*
X692D01*
Y-652D01*
D02*
G37*
G36*
X530Y-616D02*
X484D01*
Y-631D01*
Y-642D01*
X530D01*
Y-631D01*
Y-616D01*
D02*
G37*
G36*
X1145Y-1084D02*
X1125D01*
Y-1104D01*
X1145D01*
Y-1084D01*
D02*
G37*
G36*
X1131Y-272D02*
X1113D01*
Y-287D01*
X1131D01*
Y-272D01*
D02*
G37*
G36*
X1158D02*
X1141D01*
Y-287D01*
X1158D01*
Y-272D01*
D02*
G37*
G36*
X1281Y-274D02*
X1263D01*
Y-289D01*
X1281D01*
Y-274D01*
D02*
G37*
G36*
X1309D02*
X1291D01*
Y-289D01*
X1309D01*
Y-274D01*
D02*
G37*
G36*
X604Y-256D02*
X586D01*
Y-271D01*
X604D01*
Y-256D01*
D02*
G37*
G36*
X761Y-233D02*
X731D01*
Y-268D01*
X761D01*
Y-233D01*
D02*
G37*
G36*
X456Y-262D02*
X438D01*
Y-274D01*
X428D01*
Y-262D01*
X410D01*
Y-277D01*
X414D01*
X413Y-277D01*
X410Y-284D01*
Y-284D01*
X410Y-285D01*
Y-312D01*
X410Y-313D01*
Y-313D01*
X413Y-318D01*
X410D01*
Y-333D01*
X428D01*
Y-323D01*
X438D01*
Y-333D01*
X456D01*
Y-318D01*
X453D01*
X456Y-313D01*
Y-313D01*
X456Y-312D01*
Y-285D01*
X456Y-284D01*
Y-284D01*
X453Y-277D01*
X452Y-277D01*
X456D01*
Y-262D01*
D02*
G37*
G36*
X576Y-256D02*
X558D01*
Y-271D01*
X576D01*
Y-256D01*
D02*
G37*
G36*
X985Y-310D02*
X968D01*
Y-325D01*
X985D01*
Y-310D01*
D02*
G37*
G36*
X272Y-245D02*
Y-321D01*
X348D01*
X346Y-305D01*
X338Y-285D01*
X325Y-268D01*
X308Y-255D01*
X288Y-247D01*
X272Y-245D01*
D02*
G37*
G36*
X846Y-310D02*
X829D01*
Y-325D01*
X846D01*
Y-310D01*
D02*
G37*
G36*
X958D02*
X941D01*
Y-325D01*
X958D01*
Y-310D01*
D02*
G37*
G36*
X1098Y-290D02*
X1081D01*
Y-305D01*
X1098D01*
Y-290D01*
D02*
G37*
G36*
X1125D02*
X1108D01*
Y-305D01*
X1125D01*
Y-290D01*
D02*
G37*
G36*
X761Y-278D02*
X731D01*
Y-313D01*
X761D01*
Y-278D01*
D02*
G37*
G36*
X801D02*
X771D01*
Y-313D01*
X801D01*
Y-278D01*
D02*
G37*
G36*
X439Y-159D02*
X404D01*
Y-189D01*
X439D01*
Y-159D01*
D02*
G37*
G36*
X1333D02*
X1298D01*
Y-189D01*
X1333D01*
Y-159D01*
D02*
G37*
G36*
X716Y-138D02*
X636D01*
Y-208D01*
X716D01*
Y-205D01*
X731D01*
Y-223D01*
X801D01*
Y-205D01*
X1035D01*
Y-209D01*
X1115D01*
Y-139D01*
X1035D01*
Y-143D01*
X801D01*
Y-143D01*
X731D01*
Y-143D01*
X716D01*
Y-138D01*
D02*
G37*
G36*
X394Y-159D02*
X359D01*
Y-189D01*
X394D01*
Y-159D01*
D02*
G37*
G36*
X1333Y-119D02*
X1298D01*
Y-149D01*
X1333D01*
Y-119D01*
D02*
G37*
G36*
X1378D02*
X1343D01*
Y-149D01*
X1378D01*
Y-119D01*
D02*
G37*
G36*
Y-159D02*
X1343D01*
Y-189D01*
X1378D01*
Y-159D01*
D02*
G37*
G36*
X626Y-138D02*
X546D01*
Y-160D01*
X529D01*
Y-159D01*
X449D01*
Y-229D01*
X461D01*
Y-262D01*
X461D01*
Y-281D01*
X460Y-282D01*
Y-284D01*
X459Y-290D01*
X460Y-296D01*
Y-311D01*
X461Y-312D01*
Y-333D01*
X475D01*
Y-361D01*
X475Y-362D01*
Y-371D01*
X441D01*
Y-401D01*
Y-421D01*
Y-441D01*
Y-446D01*
X395D01*
X393Y-446D01*
X357D01*
Y-486D01*
X393D01*
X395Y-486D01*
X441D01*
Y-501D01*
Y-521D01*
Y-541D01*
X475D01*
Y-575D01*
X555D01*
Y-590D01*
X553Y-591D01*
X535D01*
Y-631D01*
Y-667D01*
X580D01*
Y-631D01*
Y-608D01*
X581Y-607D01*
X584Y-602D01*
X585Y-596D01*
Y-575D01*
X595D01*
Y-603D01*
X596Y-609D01*
X596Y-610D01*
Y-630D01*
Y-667D01*
X602D01*
Y-678D01*
X594D01*
Y-718D01*
X638D01*
Y-678D01*
X632D01*
Y-667D01*
X641D01*
Y-630D01*
Y-590D01*
X625D01*
Y-566D01*
X625Y-565D01*
Y-540D01*
X633D01*
Y-541D01*
X679D01*
Y-521D01*
Y-501D01*
Y-481D01*
Y-461D01*
Y-444D01*
X701D01*
Y-446D01*
X747D01*
Y-406D01*
X701D01*
Y-408D01*
X679D01*
Y-401D01*
Y-371D01*
X645D01*
Y-338D01*
X545D01*
Y-333D01*
X553D01*
Y-311D01*
X554Y-310D01*
Y-286D01*
X553Y-285D01*
Y-256D01*
X508D01*
Y-268D01*
X508Y-272D01*
X508Y-276D01*
Y-285D01*
X508Y-286D01*
Y-310D01*
X508Y-311D01*
Y-333D01*
X515D01*
Y-338D01*
X505D01*
Y-333D01*
X506D01*
Y-312D01*
X506Y-311D01*
Y-299D01*
X507Y-293D01*
Y-229D01*
X529D01*
Y-206D01*
X546D01*
Y-208D01*
X626D01*
Y-138D01*
D02*
G37*
G36*
X1565Y-164D02*
X1549Y-166D01*
X1529Y-174D01*
X1512Y-187D01*
X1499Y-204D01*
X1491Y-224D01*
X1489Y-240D01*
X1565D01*
Y-164D01*
D02*
G37*
G36*
X394Y-199D02*
X359D01*
Y-229D01*
X394D01*
Y-199D01*
D02*
G37*
G36*
X801Y-233D02*
X771D01*
Y-268D01*
X801D01*
Y-233D01*
D02*
G37*
G36*
X1148Y-228D02*
X1124D01*
X1116Y-231D01*
X1114Y-238D01*
X1113D01*
Y-238D01*
X1113Y-239D01*
Y-256D01*
X1113Y-257D01*
Y-262D01*
X1116D01*
X1116Y-264D01*
X1124Y-267D01*
X1148D01*
X1156Y-264D01*
X1156Y-262D01*
X1158D01*
Y-257D01*
X1159Y-256D01*
Y-239D01*
X1158Y-238D01*
Y-238D01*
X1158D01*
X1156Y-231D01*
X1148Y-228D01*
D02*
G37*
G36*
X1158Y-213D02*
X1141D01*
Y-228D01*
X1158D01*
Y-213D01*
D02*
G37*
G36*
X1309Y-212D02*
X1291D01*
Y-225D01*
X1281D01*
Y-212D01*
X1263D01*
Y-227D01*
X1270D01*
X1266Y-228D01*
X1263Y-235D01*
Y-235D01*
X1263Y-236D01*
Y-258D01*
X1263Y-259D01*
Y-264D01*
X1266D01*
X1266Y-266D01*
X1274Y-269D01*
X1298D01*
X1306Y-266D01*
X1306Y-264D01*
X1309D01*
Y-259D01*
X1309Y-258D01*
Y-236D01*
X1309Y-235D01*
Y-235D01*
X1306Y-228D01*
X1302Y-227D01*
X1309D01*
Y-212D01*
D02*
G37*
G36*
X439Y-199D02*
X404D01*
Y-229D01*
X439D01*
Y-199D01*
D02*
G37*
G36*
X1131Y-213D02*
X1113D01*
Y-228D01*
X1131D01*
Y-213D01*
D02*
G37*
G36*
X819Y-310D02*
X802D01*
Y-325D01*
X819D01*
Y-310D01*
D02*
G37*
G36*
X348Y-331D02*
X272D01*
Y-407D01*
X288Y-405D01*
X308Y-397D01*
X325Y-384D01*
X338Y-367D01*
X346Y-347D01*
X348Y-331D01*
D02*
G37*
G36*
X781Y-1103D02*
X746D01*
Y-1133D01*
X781D01*
Y-1103D01*
D02*
G37*
G36*
X1226Y-1109D02*
X1206D01*
Y-1129D01*
X1226D01*
Y-1109D01*
D02*
G37*
G36*
X826Y-1103D02*
X791D01*
Y-1133D01*
X826D01*
Y-1103D01*
D02*
G37*
G36*
X1565Y-1077D02*
X1549Y-1079D01*
X1529Y-1087D01*
X1512Y-1100D01*
X1499Y-1117D01*
X1491Y-1137D01*
X1489Y-1153D01*
X1565D01*
Y-1077D01*
D02*
G37*
G36*
X272Y-1081D02*
Y-1157D01*
X348D01*
X346Y-1141D01*
X338Y-1121D01*
X325Y-1104D01*
X308Y-1091D01*
X288Y-1083D01*
X272Y-1081D01*
D02*
G37*
G36*
X1145Y-1114D02*
X1125D01*
Y-1134D01*
X1145D01*
Y-1114D01*
D02*
G37*
G36*
X1115D02*
X1095D01*
Y-1134D01*
X1115D01*
Y-1114D01*
D02*
G37*
G36*
X1430Y-1069D02*
X1394D01*
Y-1113D01*
X1430D01*
Y-1069D01*
D02*
G37*
G36*
X664Y-1076D02*
X628D01*
Y-1120D01*
X664D01*
Y-1076D01*
D02*
G37*
G36*
X1115Y-1084D02*
X1095D01*
Y-1104D01*
X1115D01*
Y-1084D01*
D02*
G37*
G36*
X1476Y-1069D02*
X1440D01*
Y-1113D01*
X1476D01*
Y-1069D01*
D02*
G37*
G36*
X389Y-1101D02*
X369D01*
Y-1121D01*
X389D01*
Y-1101D01*
D02*
G37*
G36*
X1256Y-1109D02*
X1236D01*
Y-1129D01*
X1256D01*
Y-1109D01*
D02*
G37*
G36*
X618Y-1076D02*
X582D01*
Y-1120D01*
X618D01*
Y-1076D01*
D02*
G37*
G36*
X419Y-1101D02*
X399D01*
Y-1121D01*
X419D01*
Y-1101D01*
D02*
G37*
G36*
X985Y-335D02*
X968D01*
Y-350D01*
X985D01*
Y-335D01*
D02*
G37*
G36*
X1023Y-236D02*
X943D01*
Y-306D01*
X1001D01*
Y-324D01*
X1004Y-332D01*
X1012Y-335D01*
X1043D01*
X1051Y-332D01*
X1051Y-330D01*
X1076D01*
Y-290D01*
X1054D01*
Y-260D01*
X1051Y-252D01*
X1043Y-249D01*
X1023D01*
Y-236D01*
D02*
G37*
G36*
X846Y-335D02*
X829D01*
Y-350D01*
X846D01*
Y-335D01*
D02*
G37*
G36*
X958D02*
X941D01*
Y-350D01*
X958D01*
Y-335D01*
D02*
G37*
G36*
X1125Y-315D02*
X1108D01*
Y-330D01*
X1125D01*
Y-315D01*
D02*
G37*
G36*
X1565Y-250D02*
X1489D01*
X1491Y-266D01*
X1499Y-286D01*
X1512Y-303D01*
X1529Y-316D01*
X1549Y-324D01*
X1565Y-326D01*
Y-250D01*
D02*
G37*
G36*
X593Y-275D02*
X569D01*
X561Y-278D01*
X560Y-281D01*
X558D01*
Y-285D01*
X558Y-286D01*
Y-311D01*
X558Y-312D01*
Y-312D01*
X561Y-318D01*
X558D01*
Y-333D01*
X576D01*
Y-322D01*
X586D01*
Y-333D01*
X604D01*
Y-318D01*
X601D01*
X604Y-312D01*
Y-312D01*
X604Y-311D01*
Y-286D01*
X604Y-285D01*
Y-281D01*
X602D01*
X601Y-278D01*
X593Y-275D01*
D02*
G37*
G36*
X1098Y-315D02*
X1081D01*
Y-330D01*
X1098D01*
Y-315D01*
D02*
G37*
G36*
X1476Y-1123D02*
X1440D01*
Y-1167D01*
X1476D01*
Y-1123D01*
D02*
G37*
G36*
X1430D02*
X1394D01*
Y-1167D01*
X1430D01*
Y-1123D01*
D02*
G37*
G36*
X1256Y-1139D02*
X1236D01*
Y-1159D01*
X1256D01*
Y-1139D01*
D02*
G37*
G36*
X1226D02*
X1206D01*
Y-1159D01*
X1226D01*
Y-1139D01*
D02*
G37*
G36*
X618Y-1130D02*
X582D01*
Y-1174D01*
X618D01*
Y-1130D01*
D02*
G37*
G36*
X819Y-335D02*
X802D01*
Y-350D01*
X819D01*
Y-335D01*
D02*
G37*
G36*
X664Y-1130D02*
X628D01*
Y-1174D01*
X664D01*
Y-1130D01*
D02*
G37*
%LPD*%
G36*
X1336Y-350D02*
X1329D01*
X1328Y-349D01*
X1322Y-348D01*
X1316Y-349D01*
X1315Y-350D01*
X1315Y-350D01*
X1311Y-352D01*
X1309Y-355D01*
Y-351D01*
X1308Y-351D01*
X1303Y-354D01*
X1300Y-359D01*
X1300Y-360D01*
X1307D01*
X1307Y-363D01*
Y-365D01*
X1308Y-370D01*
X1300D01*
X1300Y-371D01*
X1303Y-376D01*
X1308Y-379D01*
X1309Y-379D01*
Y-373D01*
X1311Y-376D01*
X1316Y-379D01*
X1318Y-379D01*
X1318Y-379D01*
X1322Y-380D01*
X1336D01*
Y-390D01*
X1328D01*
X1325Y-389D01*
X1325Y-388D01*
X1320Y-385D01*
X1319Y-385D01*
Y-389D01*
X1317Y-390D01*
X1312Y-393D01*
X1312Y-394D01*
X1309Y-398D01*
X1308Y-404D01*
X1300D01*
X1300Y-405D01*
X1303Y-410D01*
X1308Y-413D01*
X1309Y-413D01*
Y-411D01*
X1311Y-414D01*
X1311Y-414D01*
X1312Y-416D01*
X1315Y-418D01*
X1315Y-418D01*
X1317Y-419D01*
X1317Y-419D01*
X1319Y-419D01*
Y-428D01*
X1328D01*
X1328Y-427D01*
X1325Y-422D01*
X1322Y-420D01*
X1323Y-420D01*
X1336D01*
Y-440D01*
Y-460D01*
Y-469D01*
X1333Y-469D01*
X1329Y-470D01*
X1329Y-470D01*
X1327Y-470D01*
X1324Y-472D01*
X1319D01*
Y-478D01*
X1319Y-478D01*
X1318Y-481D01*
X1318Y-481D01*
X1318Y-484D01*
Y-485D01*
Y-488D01*
X1190D01*
Y-480D01*
Y-460D01*
Y-440D01*
Y-420D01*
X1195D01*
X1201Y-419D01*
X1206Y-416D01*
X1207Y-413D01*
X1207Y-413D01*
X1209Y-411D01*
X1210Y-405D01*
X1209Y-399D01*
X1209Y-399D01*
X1207Y-396D01*
Y-385D01*
X1206Y-385D01*
X1201Y-388D01*
X1200Y-391D01*
X1195Y-390D01*
X1190D01*
Y-380D01*
Y-360D01*
Y-343D01*
X1198D01*
Y-359D01*
X1198Y-359D01*
X1198Y-360D01*
X1198D01*
X1199Y-365D01*
X1202Y-370D01*
X1202Y-370D01*
X1198D01*
X1198Y-371D01*
X1201Y-376D01*
X1206Y-379D01*
X1207Y-379D01*
Y-373D01*
X1207Y-373D01*
X1213Y-374D01*
X1217Y-373D01*
Y-379D01*
X1218Y-379D01*
X1223Y-376D01*
X1226Y-371D01*
X1226Y-370D01*
X1224D01*
X1224Y-370D01*
X1227Y-365D01*
X1227Y-365D01*
X1227Y-365D01*
X1228Y-359D01*
Y-343D01*
X1238D01*
Y-353D01*
X1235Y-354D01*
X1232Y-359D01*
X1232Y-360D01*
X1240D01*
X1242Y-364D01*
X1244Y-365D01*
X1246Y-366D01*
X1247Y-367D01*
X1253Y-368D01*
X1259Y-367D01*
X1261Y-366D01*
X1261Y-366D01*
X1264Y-364D01*
X1265Y-361D01*
X1265Y-361D01*
X1266Y-360D01*
X1275D01*
Y-351D01*
X1274Y-351D01*
X1269Y-354D01*
X1268Y-357D01*
X1268Y-353D01*
Y-343D01*
X1336D01*
Y-350D01*
D02*
G37*
%LPC*%
G36*
X1226Y-404D02*
X1217D01*
Y-413D01*
X1218Y-413D01*
X1223Y-410D01*
X1226Y-405D01*
X1226Y-404D01*
D02*
G37*
G36*
X1309Y-419D02*
X1308Y-419D01*
X1303Y-422D01*
X1300Y-427D01*
X1300Y-428D01*
X1309D01*
Y-419D01*
D02*
G37*
G36*
X1241Y-404D02*
X1232D01*
X1232Y-405D01*
X1235Y-410D01*
X1240Y-413D01*
X1241Y-413D01*
Y-404D01*
D02*
G37*
G36*
X1275D02*
X1266D01*
X1266Y-405D01*
X1269Y-410D01*
X1274Y-413D01*
X1275Y-413D01*
Y-404D01*
D02*
G37*
G36*
X1260D02*
X1251D01*
Y-413D01*
X1252Y-413D01*
X1257Y-410D01*
X1260Y-405D01*
X1260Y-404D01*
D02*
G37*
G36*
X1285Y-419D02*
Y-428D01*
X1294D01*
X1294Y-427D01*
X1291Y-422D01*
X1286Y-419D01*
X1285Y-419D01*
D02*
G37*
G36*
X1217D02*
Y-428D01*
X1226D01*
X1226Y-427D01*
X1223Y-422D01*
X1218Y-419D01*
X1217Y-419D01*
D02*
G37*
G36*
X1207D02*
X1206Y-419D01*
X1201Y-422D01*
X1198Y-427D01*
X1198Y-428D01*
X1207D01*
Y-419D01*
D02*
G37*
G36*
X1241D02*
X1240Y-419D01*
X1235Y-422D01*
X1232Y-427D01*
X1232Y-428D01*
X1241D01*
Y-419D01*
D02*
G37*
G36*
X1275D02*
X1274Y-419D01*
X1269Y-422D01*
X1266Y-427D01*
X1266Y-428D01*
X1275D01*
Y-419D01*
D02*
G37*
G36*
X1251D02*
Y-428D01*
X1260D01*
X1260Y-427D01*
X1257Y-422D01*
X1252Y-419D01*
X1251Y-419D01*
D02*
G37*
G36*
X1294Y-404D02*
X1285D01*
Y-413D01*
X1286Y-413D01*
X1291Y-410D01*
X1294Y-405D01*
X1294Y-404D01*
D02*
G37*
G36*
X1260Y-370D02*
X1251D01*
Y-379D01*
X1252Y-379D01*
X1257Y-376D01*
X1260Y-371D01*
X1260Y-370D01*
D02*
G37*
G36*
X1241D02*
X1232D01*
X1232Y-371D01*
X1235Y-376D01*
X1240Y-379D01*
X1241Y-379D01*
Y-370D01*
D02*
G37*
G36*
X1275D02*
X1266D01*
X1266Y-371D01*
X1269Y-376D01*
X1274Y-379D01*
X1275Y-379D01*
Y-370D01*
D02*
G37*
G36*
X1285Y-351D02*
Y-360D01*
X1294D01*
X1294Y-359D01*
X1291Y-354D01*
X1286Y-351D01*
X1285Y-351D01*
D02*
G37*
G36*
X1294Y-370D02*
X1285D01*
Y-379D01*
X1286Y-379D01*
X1291Y-376D01*
X1294Y-371D01*
X1294Y-370D01*
D02*
G37*
G36*
X1309Y-385D02*
X1308Y-385D01*
X1303Y-388D01*
X1300Y-393D01*
X1300Y-394D01*
X1309D01*
Y-385D01*
D02*
G37*
G36*
X1241D02*
X1240Y-385D01*
X1235Y-388D01*
X1232Y-393D01*
X1232Y-394D01*
X1241D01*
Y-385D01*
D02*
G37*
G36*
X1217D02*
Y-394D01*
X1226D01*
X1226Y-393D01*
X1223Y-388D01*
X1218Y-385D01*
X1217Y-385D01*
D02*
G37*
G36*
X1251D02*
Y-394D01*
X1260D01*
X1260Y-393D01*
X1257Y-388D01*
X1252Y-385D01*
X1251Y-385D01*
D02*
G37*
G36*
X1285D02*
Y-394D01*
X1294D01*
X1294Y-393D01*
X1291Y-388D01*
X1286Y-385D01*
X1285Y-385D01*
D02*
G37*
G36*
X1275D02*
X1274Y-385D01*
X1269Y-388D01*
X1266Y-393D01*
X1266Y-394D01*
X1275D01*
Y-385D01*
D02*
G37*
G36*
X1207Y-453D02*
X1206Y-453D01*
X1201Y-456D01*
X1198Y-461D01*
X1198Y-462D01*
X1207D01*
Y-453D01*
D02*
G37*
G36*
X1309Y-472D02*
X1300D01*
X1300Y-473D01*
X1303Y-478D01*
X1308Y-481D01*
X1309Y-481D01*
Y-472D01*
D02*
G37*
G36*
X1217Y-453D02*
Y-462D01*
X1226D01*
X1226Y-461D01*
X1223Y-456D01*
X1218Y-453D01*
X1217Y-453D01*
D02*
G37*
G36*
X1251D02*
Y-462D01*
X1260D01*
X1260Y-461D01*
X1257Y-456D01*
X1252Y-453D01*
X1251Y-453D01*
D02*
G37*
G36*
X1241D02*
X1240Y-453D01*
X1235Y-456D01*
X1232Y-461D01*
X1232Y-462D01*
X1241D01*
Y-453D01*
D02*
G37*
G36*
X1294Y-472D02*
X1285D01*
Y-481D01*
X1286Y-481D01*
X1291Y-478D01*
X1294Y-473D01*
X1294Y-472D01*
D02*
G37*
G36*
X1226D02*
X1217D01*
Y-481D01*
X1218Y-481D01*
X1223Y-478D01*
X1226Y-473D01*
X1226Y-472D01*
D02*
G37*
G36*
X1207D02*
X1198D01*
X1198Y-473D01*
X1201Y-478D01*
X1206Y-481D01*
X1207Y-481D01*
Y-472D01*
D02*
G37*
G36*
X1241D02*
X1232D01*
X1232Y-473D01*
X1235Y-478D01*
X1240Y-481D01*
X1241Y-481D01*
Y-472D01*
D02*
G37*
G36*
X1275D02*
X1266D01*
X1266Y-473D01*
X1269Y-478D01*
X1274Y-481D01*
X1275Y-481D01*
Y-472D01*
D02*
G37*
G36*
X1260D02*
X1251D01*
Y-481D01*
X1252Y-481D01*
X1257Y-478D01*
X1260Y-473D01*
X1260Y-472D01*
D02*
G37*
G36*
X1275Y-453D02*
X1274Y-453D01*
X1269Y-456D01*
X1266Y-461D01*
X1266Y-462D01*
X1275D01*
Y-453D01*
D02*
G37*
G36*
Y-438D02*
X1266D01*
X1266Y-439D01*
X1269Y-444D01*
X1274Y-447D01*
X1275Y-447D01*
Y-438D01*
D02*
G37*
G36*
X1260D02*
X1251D01*
Y-447D01*
X1252Y-447D01*
X1257Y-444D01*
X1260Y-439D01*
X1260Y-438D01*
D02*
G37*
G36*
X1294D02*
X1285D01*
Y-447D01*
X1286Y-447D01*
X1291Y-444D01*
X1294Y-439D01*
X1294Y-438D01*
D02*
G37*
G36*
X1328D02*
X1319D01*
Y-447D01*
X1320Y-447D01*
X1325Y-444D01*
X1328Y-439D01*
X1328Y-438D01*
D02*
G37*
G36*
X1309D02*
X1300D01*
X1300Y-439D01*
X1303Y-444D01*
X1308Y-447D01*
X1309Y-447D01*
Y-438D01*
D02*
G37*
G36*
X1241D02*
X1232D01*
X1232Y-439D01*
X1235Y-444D01*
X1240Y-447D01*
X1241Y-447D01*
Y-438D01*
D02*
G37*
G36*
X1309Y-453D02*
X1308Y-453D01*
X1303Y-456D01*
X1300Y-461D01*
X1300Y-462D01*
X1309D01*
Y-453D01*
D02*
G37*
G36*
X1285D02*
Y-462D01*
X1294D01*
X1294Y-461D01*
X1291Y-456D01*
X1286Y-453D01*
X1285Y-453D01*
D02*
G37*
G36*
X1319D02*
Y-462D01*
X1328D01*
X1328Y-461D01*
X1325Y-456D01*
X1320Y-453D01*
X1319Y-453D01*
D02*
G37*
G36*
X1226Y-438D02*
X1217D01*
Y-447D01*
X1218Y-447D01*
X1223Y-444D01*
X1226Y-439D01*
X1226Y-438D01*
D02*
G37*
G36*
X1207D02*
X1198D01*
X1198Y-439D01*
X1201Y-444D01*
X1206Y-447D01*
X1207Y-447D01*
Y-438D01*
D02*
G37*
%LPD*%
D10*
X1244Y-159D02*
D03*
X1338Y-155D02*
D03*
X871Y-970D02*
D03*
X781D02*
D03*
X1124Y-977D02*
D03*
X1214D02*
D03*
X876Y-1099D02*
D03*
X786D02*
D03*
X489Y-195D02*
D03*
X399D02*
D03*
X676Y-174D02*
D03*
X1165Y-175D02*
D03*
X1075D02*
D03*
X586Y-174D02*
D03*
D11*
X766Y-274D02*
D03*
Y-184D02*
D03*
X998Y-1069D02*
D03*
Y-979D02*
D03*
D12*
X1120Y-1110D02*
D03*
Y-1055D02*
D03*
X880Y-844D02*
D03*
Y-899D02*
D03*
X1231Y-1135D02*
D03*
Y-1080D02*
D03*
D13*
X1172Y-880D02*
D03*
X1227D02*
D03*
X394Y-1097D02*
D03*
X449D02*
D03*
X406Y-879D02*
D03*
X461D02*
D03*
D14*
X1323Y-764D02*
D03*
X1373D02*
D03*
X1374Y-804D02*
D03*
X1324Y-804D02*
D03*
X561Y-766D02*
D03*
X611D02*
D03*
X558Y-811D02*
D03*
X608D02*
D03*
X616Y-699D02*
D03*
X566D02*
D03*
X619Y-611D02*
D03*
X669D02*
D03*
X507Y-648D02*
D03*
X557D02*
D03*
X619D02*
D03*
X669D02*
D03*
X557Y-612D02*
D03*
X507D02*
D03*
X1260Y-571D02*
D03*
X1210D02*
D03*
X1322Y-607D02*
D03*
X1372D02*
D03*
X380Y-467D02*
D03*
X330D02*
D03*
X1286Y-233D02*
D03*
X1236D02*
D03*
Y-270D02*
D03*
X1286D02*
D03*
X1186Y-234D02*
D03*
X1136Y-234D02*
D03*
X531Y-314D02*
D03*
X581D02*
D03*
X531Y-277D02*
D03*
X581D02*
D03*
X483Y-283D02*
D03*
X433D02*
D03*
X483Y-314D02*
D03*
X433D02*
D03*
X1186Y-268D02*
D03*
X1136D02*
D03*
X1260Y-607D02*
D03*
X1210D02*
D03*
X724Y-426D02*
D03*
X774D02*
D03*
X1067D02*
D03*
X1017D02*
D03*
X1488Y-386D02*
D03*
X1438D02*
D03*
X1372Y-570D02*
D03*
X1322D02*
D03*
X959Y-396D02*
D03*
D15*
X1326Y-660D02*
D03*
X1326Y-710D02*
D03*
D16*
X1388Y-883D02*
D03*
X576Y-890D02*
D03*
D17*
X1435Y-1119D02*
D03*
X1341Y-1119D02*
D03*
X623Y-1126D02*
D03*
X529D02*
D03*
D18*
X1195Y-797D02*
D03*
X1232Y-797D02*
D03*
X1269D02*
D03*
X1270Y-694D02*
D03*
X1195Y-694D02*
D03*
X428Y-810D02*
D03*
X465Y-810D02*
D03*
X502Y-810D02*
D03*
X503Y-707D02*
D03*
X428D02*
D03*
D19*
X1193Y-512D02*
D03*
X1333D02*
D03*
X1313D02*
D03*
X1293D02*
D03*
X1273D02*
D03*
X1253D02*
D03*
X1233D02*
D03*
X1213D02*
D03*
Y-321D02*
D03*
X1233D02*
D03*
X1253D02*
D03*
X1273D02*
D03*
X1293D02*
D03*
X1313D02*
D03*
X1333D02*
D03*
X1193D02*
D03*
X490Y-553D02*
D03*
X610D02*
D03*
X590D02*
D03*
X570D02*
D03*
X550D02*
D03*
X530D02*
D03*
X510D02*
D03*
Y-362D02*
D03*
X530D02*
D03*
X550D02*
D03*
X570D02*
D03*
X590D02*
D03*
X610D02*
D03*
X630D02*
D03*
X490D02*
D03*
D20*
X1359Y-366D02*
D03*
Y-346D02*
D03*
Y-386D02*
D03*
Y-406D02*
D03*
Y-426D02*
D03*
Y-446D02*
D03*
Y-466D02*
D03*
Y-486D02*
D03*
X1167Y-346D02*
D03*
Y-366D02*
D03*
Y-386D02*
D03*
Y-406D02*
D03*
Y-426D02*
D03*
Y-446D02*
D03*
Y-466D02*
D03*
Y-486D02*
D03*
X656Y-407D02*
D03*
Y-387D02*
D03*
Y-427D02*
D03*
Y-447D02*
D03*
Y-467D02*
D03*
Y-487D02*
D03*
Y-507D02*
D03*
Y-527D02*
D03*
X464Y-387D02*
D03*
Y-407D02*
D03*
Y-427D02*
D03*
Y-447D02*
D03*
Y-467D02*
D03*
Y-487D02*
D03*
Y-507D02*
D03*
Y-527D02*
D03*
D21*
X674Y-447D02*
X687Y-460D01*
X664Y-447D02*
X674D01*
X464Y-427D02*
X491D01*
X789Y-454D02*
X805D01*
X193Y-1230D02*
Y-694D01*
X194D01*
X619Y-407D02*
X663D01*
X550Y-395D02*
Y-339D01*
X590Y-587D02*
Y-521D01*
X971Y-454D02*
X971Y-455D01*
X523Y-273D02*
X533Y-283D01*
X530Y-362D02*
Y-323D01*
X490Y-362D02*
Y-315D01*
X1326Y-660D02*
Y-572D01*
X617Y-699D02*
Y-614D01*
X1194Y-790D02*
Y-743D01*
X1271D01*
Y-693D01*
X1273Y-693D01*
X1269Y-710D02*
X1326D01*
X1269Y-695D02*
X1269Y-710D01*
X1327Y-661D02*
Y-661D01*
X620Y-694D02*
Y-694D01*
X502Y-723D02*
Y-708D01*
X500Y-699D02*
X557D01*
X504Y-706D02*
X506D01*
X504Y-756D02*
Y-706D01*
X427Y-756D02*
X504D01*
X427Y-803D02*
Y-756D01*
X610Y-604D02*
Y-567D01*
X570Y-597D02*
Y-553D01*
X556Y-611D02*
X570Y-597D01*
X556Y-646D02*
Y-611D01*
X1259Y-605D02*
Y-570D01*
X1273Y-556D01*
Y-512D01*
X1167Y-446D02*
X1199D01*
X1167Y-406D02*
X1195D01*
X1322Y-366D02*
X1359D01*
X1322D02*
Y-364D01*
X1323Y-406D02*
X1359D01*
X1323D02*
Y-405D01*
X1213Y-360D02*
Y-321D01*
X1253Y-354D02*
Y-321D01*
X510Y-401D02*
Y-362D01*
X620Y-447D02*
Y-446D01*
Y-447D02*
X656D01*
X619Y-407D02*
Y-405D01*
X464Y-447D02*
X492D01*
X510Y-362D02*
Y-358D01*
X1313Y-563D02*
Y-526D01*
X1193Y-315D02*
Y-272D01*
X1233Y-308D02*
Y-273D01*
X434Y-387D02*
X464D01*
X436Y-427D02*
X464D01*
X437Y-407D02*
X463D01*
X510Y-579D02*
Y-553D01*
X530Y-582D02*
Y-554D01*
X490Y-580D02*
Y-553D01*
X434Y-527D02*
X464D01*
X436Y-507D02*
X464D01*
X656Y-527D02*
X690D01*
X656Y-507D02*
X688D01*
X656Y-487D02*
X684D01*
X656Y-467D02*
X687D01*
X663Y-407D02*
X666Y-404D01*
X689D01*
X656Y-387D02*
X685D01*
X630Y-362D02*
Y-337D01*
X610Y-362D02*
Y-337D01*
X590Y-362D02*
Y-339D01*
X570Y-362D02*
Y-339D01*
X1359Y-446D02*
X1389D01*
X1359Y-426D02*
X1388D01*
X1359Y-466D02*
X1391D01*
X1359Y-486D02*
X1386D01*
X1333Y-542D02*
Y-512D01*
X1293Y-543D02*
Y-512D01*
X1253Y-540D02*
Y-512D01*
X1233Y-541D02*
Y-512D01*
X1213Y-543D02*
Y-512D01*
X1193Y-540D02*
Y-512D01*
X1140Y-486D02*
X1167D01*
X1135Y-466D02*
X1167D01*
X1273Y-321D02*
Y-295D01*
X1293Y-321D02*
Y-296D01*
X1313Y-321D02*
Y-295D01*
X1333Y-321D02*
Y-294D01*
X1359Y-346D02*
X1388D01*
X1132D02*
X1167D01*
X1135Y-366D02*
X1167D01*
X1137Y-386D02*
X1167D01*
X1253Y-321D02*
Y-296D01*
D22*
X1186Y-234D02*
Y-188D01*
D23*
X1165Y-167D02*
X1242D01*
D24*
X463Y-1120D02*
Y-970D01*
X781D01*
X971Y-1099D02*
X995Y-1075D01*
X876Y-1099D02*
X971D01*
X872Y-977D02*
X1124D01*
X1232Y-1077D02*
Y-911D01*
X1230Y-1079D02*
X1232Y-1077D01*
X1230Y-1079D02*
X1301D01*
X1341Y-1119D01*
X1232Y-923D02*
Y-797D01*
X463Y-977D02*
Y-879D01*
X515Y-184D02*
X554D01*
X484Y-294D02*
Y-214D01*
X514Y-184D01*
X482Y-291D02*
X483Y-292D01*
D25*
X443Y-1098D02*
X469Y-1124D01*
X1119Y-1053D02*
Y-980D01*
X880Y-966D02*
Y-899D01*
X482Y-314D02*
Y-283D01*
X531Y-314D02*
Y-283D01*
X482D02*
X484Y-281D01*
X673Y-427D02*
X719D01*
D26*
X469Y-1124D02*
X528D01*
X1323Y-803D02*
Y-764D01*
X1374Y-865D02*
Y-804D01*
X1270Y-804D02*
X1324D01*
X559Y-810D02*
Y-772D01*
X588Y-867D02*
X609Y-846D01*
Y-811D01*
X502Y-810D02*
X559D01*
X464Y-866D02*
Y-809D01*
X1380Y-386D02*
X1427D01*
X1502D02*
X1631D01*
X395Y-467D02*
X444D01*
X205D02*
X320D01*
X1069Y-426D02*
X1152D01*
X778D02*
X1017D01*
D27*
X681Y-175D02*
X1076D01*
X996Y-1198D02*
Y-1099D01*
X876D02*
X991D01*
D28*
X1293Y-512D02*
Y-482D01*
X530Y-553D02*
Y-524D01*
X457Y-487D02*
X464D01*
X452Y-492D02*
X457Y-487D01*
X426Y-492D02*
X452D01*
X550Y-583D02*
Y-527D01*
D29*
X812Y-398D02*
D03*
D30*
X1345Y-159D02*
D03*
D31*
X1109Y-312D02*
D03*
D32*
X1263Y-417D02*
D03*
X560Y-458D02*
D03*
D33*
X1136Y-249D02*
D03*
D34*
X1286Y-248D02*
D03*
X531Y-295D02*
D03*
D35*
X1236Y-250D02*
D03*
D36*
X1186Y-247D02*
D03*
X483Y-298D02*
D03*
D37*
X433Y-299D02*
D03*
D38*
X581Y-296D02*
D03*
D39*
X1625Y-386D02*
D03*
D40*
X198Y-467D02*
D03*
D41*
X996Y-1216D02*
D03*
X1380Y-754D02*
D03*
D42*
X271Y-1155D02*
D03*
D43*
X272Y-886D02*
D03*
D44*
X271Y-608D02*
D03*
D45*
Y-328D02*
D03*
D46*
X1564Y-244D02*
D03*
D47*
X1566Y-527D02*
D03*
D48*
X1566Y-893D02*
D03*
D49*
Y-1155D02*
D03*
D50*
X1438Y-1118D02*
D03*
D51*
X623Y-1132D02*
D03*
D52*
X775Y-1095D02*
D03*
D53*
X1118Y-1118D02*
D03*
D54*
X965Y-336D02*
D03*
D55*
X824Y-331D02*
D03*
D56*
X763Y-283D02*
D03*
D57*
X581Y-294D02*
D03*
D58*
X424Y-299D02*
D03*
D59*
X391Y-194D02*
D03*
D60*
X1135Y-250D02*
D03*
D61*
X1286Y-252D02*
D03*
D62*
X1372Y-589D02*
D03*
D63*
X1209Y-590D02*
D03*
D64*
X1190Y-692D02*
D03*
D65*
X1162Y-878D02*
D03*
D66*
X878Y-837D02*
D03*
D67*
X386Y-1098D02*
D03*
D68*
X398Y-879D02*
D03*
D69*
X427Y-705D02*
D03*
D70*
X617Y-758D02*
D03*
D71*
X496Y-628D02*
D03*
D72*
X675Y-627D02*
D03*
D73*
X895Y-377D02*
D03*
D74*
X889Y-573D02*
D03*
D75*
X1058Y-775D02*
D03*
D76*
X882Y-749D02*
D03*
D77*
X956Y-290D02*
D03*
D78*
X187Y-117D02*
Y-73D01*
X1649D01*
X187Y-1237D02*
X1649D01*
X187D02*
Y-117D01*
X1649Y-1237D02*
Y-73D01*
D79*
X1570Y-1158D02*
D03*
Y-848D02*
D03*
X267Y-883D02*
D03*
Y-1158D02*
D03*
Y-608D02*
D03*
Y-328D02*
D03*
X1570Y-244D02*
D03*
Y-528D02*
D03*
D80*
X1280Y-400D02*
D03*
X1246D02*
D03*
Y-434D02*
D03*
X1280D02*
D03*
Y-468D02*
D03*
X1246D02*
D03*
X1212D02*
D03*
Y-434D02*
D03*
Y-400D02*
D03*
Y-366D02*
D03*
X1246D02*
D03*
X1280D02*
D03*
X1314D02*
D03*
Y-400D02*
D03*
Y-434D02*
D03*
Y-468D02*
D03*
X577Y-441D02*
D03*
X543D02*
D03*
Y-475D02*
D03*
X577D02*
D03*
Y-509D02*
D03*
X543D02*
D03*
X509D02*
D03*
Y-476D02*
D03*
Y-441D02*
D03*
Y-407D02*
D03*
X543D02*
D03*
X577D02*
D03*
X611D02*
D03*
Y-441D02*
D03*
Y-475D02*
D03*
Y-509D02*
D03*
D81*
X1193Y-1076D02*
D03*
X1196Y-1026D02*
D03*
X1194Y-1135D02*
D03*
X1230Y-1172D02*
D03*
X1285Y-1116D02*
D03*
X1309Y-1182D02*
D03*
X1395Y-1163D02*
D03*
Y-1078D02*
D03*
X1328Y-1055D02*
D03*
X1270Y-1040D02*
D03*
X1268Y-968D02*
D03*
Y-905D02*
D03*
Y-847D02*
D03*
X1323Y-839D02*
D03*
X1329Y-941D02*
D03*
X1386Y-946D02*
D03*
X1451Y-926D02*
D03*
X1410Y-819D02*
D03*
X1359Y-730D02*
D03*
X661Y-1007D02*
D03*
X727D02*
D03*
X577D02*
D03*
X502D02*
D03*
X505Y-932D02*
D03*
X507Y-859D02*
D03*
X885Y-223D02*
D03*
X1073Y-226D02*
D03*
X990Y-223D02*
D03*
X895Y-460D02*
D03*
X750D02*
D03*
X749Y-395D02*
D03*
X638Y-867D02*
D03*
X639Y-933D02*
D03*
X424Y-864D02*
D03*
X400Y-766D02*
D03*
X467Y-727D02*
D03*
X625Y-778D02*
D03*
X652Y-712D02*
D03*
X591Y-732D02*
D03*
X538Y-731D02*
D03*
X520Y-659D02*
D03*
X656Y-661D02*
D03*
X654Y-598D02*
D03*
X587Y-630D02*
D03*
X638Y-555D02*
D03*
X691Y-507D02*
D03*
X692Y-458D02*
D03*
X1234Y-711D02*
D03*
X1360Y-685D02*
D03*
X1357Y-630D02*
D03*
X1260Y-641D02*
D03*
X1224Y-599D02*
D03*
X1291Y-588D02*
D03*
X1358Y-576D02*
D03*
X373Y-501D02*
D03*
X313Y-502D02*
D03*
X257Y-501D02*
D03*
X203D02*
D03*
Y-433D02*
D03*
X257Y-434D02*
D03*
X313Y-433D02*
D03*
X373D02*
D03*
X823Y-461D02*
D03*
X820Y-395D02*
D03*
X530Y-587D02*
D03*
X490Y-588D02*
D03*
X462Y-556D02*
D03*
X428Y-538D02*
D03*
Y-500D02*
D03*
X429Y-427D02*
D03*
Y-387D02*
D03*
X462Y-358D02*
D03*
X590Y-327D02*
D03*
X630D02*
D03*
X659Y-358D02*
D03*
X692Y-396D02*
D03*
X964Y-460D02*
D03*
X960Y-393D02*
D03*
X892Y-392D02*
D03*
X1146Y-269D02*
D03*
X1162Y-315D02*
D03*
X1146Y-229D02*
D03*
X1360Y-110D02*
D03*
X1359Y-220D02*
D03*
X1459Y-352D02*
D03*
X1519D02*
D03*
X1577D02*
D03*
X1633D02*
D03*
X1590Y-420D02*
D03*
X1633D02*
D03*
X1540D02*
D03*
X1491D02*
D03*
X1439Y-419D02*
D03*
X1362Y-515D02*
D03*
X1394Y-466D02*
D03*
Y-426D02*
D03*
X1395Y-353D02*
D03*
X1361Y-318D02*
D03*
X1313Y-286D02*
D03*
X1273D02*
D03*
X1035Y-460D02*
D03*
X1090Y-459D02*
D03*
X1040Y-393D02*
D03*
X1165Y-521D02*
D03*
X1225Y-548D02*
D03*
X1192Y-547D02*
D03*
X1131Y-499D02*
D03*
X1130Y-460D02*
D03*
X1089Y-393D02*
D03*
X1132Y-386D02*
D03*
Y-346D02*
D03*
X1026Y-921D02*
D03*
X976Y-925D02*
D03*
X923Y-940D02*
D03*
X879Y-859D02*
D03*
X841Y-921D02*
D03*
X727Y-933D02*
D03*
X779Y-922D02*
D03*
X826Y-1017D02*
D03*
X904Y-1018D02*
D03*
X951Y-1025D02*
D03*
X927Y-1056D02*
D03*
X846Y-1052D02*
D03*
X816Y-1098D02*
D03*
X951Y-1142D02*
D03*
X881Y-1147D02*
D03*
X1050Y-1019D02*
D03*
X1099Y-927D02*
D03*
X1194Y-928D02*
D03*
X1175Y-880D02*
D03*
X1170Y-726D02*
D03*
X1158Y-788D02*
D03*
X521Y-243D02*
D03*
X591Y-223D02*
D03*
X660Y-222D02*
D03*
X717Y-223D02*
D03*
X816Y-220D02*
D03*
X766Y-253D02*
D03*
Y-130D02*
D03*
X694Y-125D02*
D03*
X630Y-126D02*
D03*
X560Y-125D02*
D03*
X499Y-147D02*
D03*
X417Y-170D02*
D03*
X447Y-244D02*
D03*
X432Y-299D02*
D03*
X567Y-275D02*
D03*
X1270Y-207D02*
D03*
X1041Y-1123D02*
D03*
X1042Y-1221D02*
D03*
X952Y-1223D02*
D03*
X474Y-1157D02*
D03*
X427Y-1058D02*
D03*
X429Y-1135D02*
D03*
X502Y-1063D02*
D03*
X583Y-1095D02*
D03*
Y-1170D02*
D03*
X427Y-964D02*
D03*
X1186Y-124D02*
D03*
X1290Y-110D02*
D03*
X1119Y-127D02*
D03*
X1023Y-130D02*
D03*
X890Y-132D02*
D03*
X1081Y-1078D02*
D03*
X1160Y-1091D02*
D03*
X1157Y-1025D02*
D03*
X1148Y-932D02*
D03*
M02*
