M48
;Layer_Color=9474304
;FILE_FORMAT=2:3
INCH,LZ
;TYPE=PLATED
T1F00S00C0.010
T2F00S00C0.090
;TYPE=NON_PLATED
T3F00S00C0.090
%
T01
X01459Y-00352
X01519
X01577
X01633
Y-0042
X0159
X0154
X01491
X01451Y-00926
X01386Y-00946
X01329Y-00941
X01268Y-00968
Y-00905
Y-00847
X01323Y-00839
X0141Y-00819
X01359Y-0073
X0136Y-00685
X01357Y-0063
X01358Y-00576
X01362Y-00515
X01394Y-00466
Y-00426
X01439Y-00419
X01395Y-00353
X01361Y-00318
X01313Y-00286
X01273
X0127Y-00207
X01359Y-0022
X0136Y-0011
X0129
X01186Y-00124
X01119Y-00127
X01023Y-0013
X0099Y-00223
X01073Y-00226
X01146Y-00229
Y-00269
X01162Y-00315
X01132Y-00346
Y-00386
X01089Y-00393
X0104
X01035Y-0046
X0109Y-00459
X0113Y-0046
X01131Y-00499
X01165Y-00521
X01192Y-00547
X01225Y-00548
X01224Y-00599
X0126Y-00641
X01291Y-00588
X0128Y-00468
Y-00434
Y-004
X01246
Y-00434
Y-00468
X01212
Y-00434
Y-004
Y-00366
X01246
X0128
X01314
Y-004
Y-00434
Y-00468
X01234Y-00711
X0117Y-00726
X01158Y-00788
X01175Y-0088
X01194Y-00928
X01148Y-00932
X01099Y-00927
X01026Y-00921
X00976Y-00925
X00923Y-0094
X00904Y-01018
X00951Y-01025
X00927Y-01056
X00846Y-01052
X00826Y-01017
X00816Y-01098
X00881Y-01147
X00951Y-01142
X00952Y-01223
X01042Y-01221
X01041Y-01123
X01081Y-01078
X0105Y-01019
X01157Y-01025
X01196Y-01026
X01193Y-01076
X0116Y-01091
X01194Y-01135
X0123Y-01172
X01309Y-01182
X01285Y-01116
X0127Y-0104
X01328Y-01055
X01395Y-01078
Y-01163
X00841Y-00921
X00779Y-00922
X00727Y-00933
Y-01007
X00661
X00577
X00502
Y-01063
X00427Y-01058
X00429Y-01135
X00474Y-01157
X00583Y-0117
Y-01095
X00639Y-00933
X00638Y-00867
X00625Y-00778
X00591Y-00732
X00538Y-00731
X00467Y-00727
X004Y-00766
X00424Y-00864
X00507Y-00859
X00505Y-00932
X00427Y-00964
X0052Y-00659
X0053Y-00587
X0049Y-00588
X00462Y-00556
X00428Y-00538
Y-005
X00373Y-00501
X00313Y-00502
X00257Y-00501
X00203
Y-00433
X00257Y-00434
X00313Y-00433
X00373
X00429Y-00427
Y-00387
X00462Y-00358
X00432Y-00299
X00447Y-00244
X00521Y-00243
X00567Y-00275
X0059Y-00327
X0063
X00659Y-00358
X00692Y-00396
X00749Y-00395
X0075Y-0046
X00692Y-00458
X00691Y-00507
X00611Y-00509
X00577
Y-00475
Y-00441
X00543
Y-00475
Y-00509
X00509
Y-00476
Y-00441
Y-00407
X00543
X00577
X00611
Y-00441
Y-00475
X00638Y-00555
X00654Y-00598
X00656Y-00661
X00652Y-00712
X00587Y-0063
X00823Y-00461
X0082Y-00395
X00892Y-00392
X0096Y-00393
X00964Y-0046
X00895
X00885Y-00223
X00816Y-0022
X00766Y-00253
X00717Y-00223
X0066Y-00222
X00591Y-00223
X0056Y-00125
X0063Y-00126
X00694Y-00125
X00766Y-0013
X0089Y-00132
X00499Y-00147
X00417Y-0017
X00879Y-00859
T02
X0157Y-00244
Y-00528
Y-00848
X00267Y-00608
Y-00328
T03
X0157Y-01158
X00267
Y-00883
M30
