  0
SECTION
  2
HEADER
  9
$ACADVER
  1
AC1009
  9
$EXTMIN
 10
-6800.00000
 20
-794.78039
 30
0
  9
$EXTMAX
 10
3939.91409
 20
794.78039
 30
0
  9
$DIMSCALE
 40
1.0
  9
$LUNITS
 70
2
  9
$LUPREC
 70
9
  0
ENDSEC
  0
SECTION
  2
TABLES
  0
TABLE
  2
LAYER
 70
2
  0
LAYER
  2
L001
 70
64
 62
1
  6
CONTINUOUS
  0
LAYER
  2
L002
 70
64
 62
2
  6
CONTINUOUS
  0
ENDTAB
  0
ENDSEC
  0
SECTION
  2
BLOCKS
  0
ENDSEC
  0
SECTION
  2
ENTITIES
  0
POLYLINE
  8
L001
 10
0.0
 20
0.0
 66
1
 70
1
  0
VERTEX
  8
L001
 10
3920.00000
 20
-15.99839
  0
VERTEX
  8
L001
 10
3920.00000
 20
-794.78039
  0
VERTEX
  8
L001
 10
3840.00000
 20
-793.65177
  0
VERTEX
  8
L001
 10
3760.00000
 20
-792.27776
  0
VERTEX
  8
L001
 10
3680.00000
 20
-790.60626
  0
VERTEX
  8
L001
 10
3600.00000
 20
-788.57465
  0
VERTEX
  8
L001
 10
3520.00000
 20
-786.10795
  0
VERTEX
  8
L001
 10
3440.00000
 20
-783.11685
  0
VERTEX
  8
L001
 10
3360.00000
 20
-779.49555
  0
VERTEX
  8
L001
 10
3280.00000
 20
-775.11953
  0
VERTEX
  8
L001
 10
3200.00000
 20
-769.84370
  0
VERTEX
  8
L001
 10
3120.00000
 20
-763.50055
  0
VERTEX
  8
L001
 10
3040.00000
 20
-755.89941
  0
VERTEX
  8
L001
 10
2960.00000
 20
-746.82697
  0
VERTEX
  8
L001
 10
2880.00000
 20
-736.04972
  0
VERTEX
  8
L001
 10
2800.00000
 20
-723.31925
  0
VERTEX
  8
L001
 10
2720.00000
 20
-708.38130
  0
VERTEX
  8
L001
 10
2640.00000
 20
-690.98925
  0
VERTEX
  8
L001
 10
2560.00000
 20
-670.92299
  0
VERTEX
  8
L001
 10
2480.00000
 20
-648.01240
  0
VERTEX
  8
L001
 10
2400.00000
 20
-622.16480
  0
VERTEX
  8
L001
 10
2320.00000
 20
-593.39362
  0
VERTEX
  8
L001
 10
2240.00000
 20
-561.84417
  0
VERTEX
  8
L001
 10
2160.00000
 20
-527.81122
  0
VERTEX
  8
L001
 10
2080.00000
 20
-491.74291
  0
VERTEX
  8
L001
 10
2000.00000
 20
-454.22705
  0
VERTEX
  8
L001
 10
1920.00000
 20
-415.95839
  0
VERTEX
  8
L001
 10
1840.00000
 20
-377.68969
  0
VERTEX
  8
L001
 10
1760.00000
 20
-340.17382
  0
VERTEX
  8
L001
 10
1680.00000
 20
-304.10551
  0
VERTEX
  8
L001
 10
1600.00000
 20
-270.07256
  0
VERTEX
  8
L001
 10
1520.00000
 20
-238.52315
  0
VERTEX
  8
L001
 10
1440.00000
 20
-209.75197
  0
VERTEX
  8
L001
 10
1360.00000
 20
-183.90437
  0
VERTEX
  8
L001
 10
1280.00000
 20
-160.99374
  0
VERTEX
  8
L001
 10
1200.00000
 20
-140.92752
  0
VERTEX
  8
L001
 10
1120.00000
 20
-123.53547
  0
VERTEX
  8
L001
 10
1040.00000
 20
-108.59748
  0
VERTEX
  8
L001
 10
960.00000
 20
-95.86701
  0
VERTEX
  8
L001
 10
880.00000
 20
-85.08976
  0
VERTEX
  8
L001
 10
800.00000
 20
-76.01736
  0
VERTEX
  8
L001
 10
720.00000
 20
-68.41622
  0
VERTEX
  8
L001
 10
640.00000
 20
-62.07303
  0
VERTEX
  8
L001
 10
560.00000
 20
-56.79720
  0
VERTEX
  8
L001
 10
480.00000
 20
-52.42122
  0
VERTEX
  8
L001
 10
400.00000
 20
-48.79992
  0
VERTEX
  8
L001
 10
320.00000
 20
-45.80882
  0
VERTEX
  8
L001
 10
240.00000
 20
-43.34209
  0
VERTEX
  8
L001
 10
0.00000
 20
-32.00000
  0
VERTEX
  8
L001
 10
0.00000
 20
29.95839
  0
VERTEX
  8
L001
 10
240.00000
 20
43.34209
  0
VERTEX
  8
L001
 10
320.00000
 20
45.80882
  0
VERTEX
  8
L001
 10
400.00000
 20
48.79992
  0
VERTEX
  8
L001
 10
480.00000
 20
52.42122
  0
VERTEX
  8
L001
 10
560.00000
 20
56.79720
  0
VERTEX
  8
L001
 10
640.00000
 20
62.07303
  0
VERTEX
  8
L001
 10
720.00000
 20
68.41622
  0
VERTEX
  8
L001
 10
800.00000
 20
76.01736
  0
VERTEX
  8
L001
 10
880.00000
 20
85.08976
  0
VERTEX
  8
L001
 10
960.00000
 20
95.86701
  0
VERTEX
  8
L001
 10
1040.00000
 20
108.59748
  0
VERTEX
  8
L001
 10
1120.00000
 20
123.53547
  0
VERTEX
  8
L001
 10
1200.00000
 20
140.92752
  0
VERTEX
  8
L001
 10
1280.00000
 20
160.99374
  0
VERTEX
  8
L001
 10
1360.00000
 20
183.90437
  0
VERTEX
  8
L001
 10
1440.00000
 20
209.75197
  0
VERTEX
  8
L001
 10
1520.00000
 20
238.52315
  0
VERTEX
  8
L001
 10
1600.00000
 20
270.07256
  0
VERTEX
  8
L001
 10
1680.00000
 20
304.10551
  0
VERTEX
  8
L001
 10
1760.00000
 20
340.17382
  0
VERTEX
  8
L001
 10
1840.00000
 20
377.68969
  0
VERTEX
  8
L001
 10
1920.00000
 20
415.95839
  0
VERTEX
  8
L001
 10
2000.00000
 20
454.22705
  0
VERTEX
  8
L001
 10
2080.00000
 20
491.74291
  0
VERTEX
  8
L001
 10
2160.00000
 20
527.81122
  0
VERTEX
  8
L001
 10
2240.00000
 20
561.84417
  0
VERTEX
  8
L001
 10
2320.00000
 20
593.39362
  0
VERTEX
  8
L001
 10
2400.00000
 20
622.16480
  0
VERTEX
  8
L001
 10
2480.00000
 20
648.01240
  0
VERTEX
  8
L001
 10
2560.00000
 20
670.92299
  0
VERTEX
  8
L001
 10
2640.00000
 20
690.98925
  0
VERTEX
  8
L001
 10
2720.00000
 20
708.38130
  0
VERTEX
  8
L001
 10
2800.00000
 20
723.31925
  0
VERTEX
  8
L001
 10
2880.00000
 20
736.04972
  0
VERTEX
  8
L001
 10
2960.00000
 20
746.82697
  0
VERTEX
  8
L001
 10
3040.00000
 20
755.89941
  0
VERTEX
  8
L001
 10
3120.00000
 20
763.50055
  0
VERTEX
  8
L001
 10
3200.00000
 20
769.84370
  0
VERTEX
  8
L001
 10
3280.00000
 20
775.11953
  0
VERTEX
  8
L001
 10
3360.00000
 20
779.49555
  0
VERTEX
  8
L001
 10
3440.00000
 20
783.11685
  0
VERTEX
  8
L001
 10
3520.00000
 20
786.10795
  0
VERTEX
  8
L001
 10
3600.00000
 20
788.57465
  0
VERTEX
  8
L001
 10
3680.00000
 20
790.60626
  0
VERTEX
  8
L001
 10
3760.00000
 20
792.27776
  0
VERTEX
  8
L001
 10
3840.00000
 20
793.65177
  0
VERTEX
  8
L001
 10
3920.00000
 20
794.78039
  0
VERTEX
  8
L001
 10
3920.00000
 20
15.99839
  0
SEQEND
  0
POLYLINE
  8
L001
 10
0.0
 20
0.0
 66
1
 70
1
  0
VERTEX
  8
L001
 10
0.00000
 20
-32.00000
  0
VERTEX
  8
L001
 10
0.00000
 20
29.95839
  0
VERTEX
  8
L001
 10
-400.00000
 20
29.95839
  0
VERTEX
  8
L001
 10
-400.00000
 20
26.69437
  0
VERTEX
  8
L001
 10
-800.00000
 20
26.69437
  0
VERTEX
  8
L001
 10
-800.00000
 20
24.81280
  0
VERTEX
  8
L001
 10
-1200.00000
 20
24.81280
  0
VERTEX
  8
L001
 10
-1200.00000
 20
22.47039
  0
VERTEX
  8
L001
 10
-1600.00000
 20
22.47039
  0
VERTEX
  8
L001
 10
-1600.00000
 20
19.66717
  0
VERTEX
  8
L001
 10
-2000.00000
 20
19.66717
  0
VERTEX
  8
L001
 10
-2000.00000
 20
16.32638
  0
VERTEX
  8
L001
 10
-2400.00000
 20
16.32638
  0
VERTEX
  8
L001
 10
-2400.00000
 20
12.64000
  0
VERTEX
  8
L001
 10
-2800.00000
 20
12.64000
  0
VERTEX
  8
L001
 10
-2800.00000
 20
8.60799
  0
VERTEX
  8
L001
 10
-3200.00000
 20
8.60799
  0
VERTEX
  8
L001
 10
-3200.00000
 20
4.48000
  0
VERTEX
  8
L001
 10
-3600.00000
 20
4.48000
  0
VERTEX
  8
L001
 10
-3600.00000
 20
0.58236
  0
VERTEX
  8
L001
 10
-4000.00000
 20
0.58236
  0
VERTEX
  8
L001
 10
-4000.00000
 20
-3.27677
  0
VERTEX
  8
L001
 10
-4400.00000
 20
-3.27677
  0
VERTEX
  8
L001
 10
-4400.00000
 20
-6.54079
  0
VERTEX
  8
L001
 10
-4800.00000
 20
-6.54079
  0
VERTEX
  8
L001
 10
-4800.00000
 20
-9.20957
  0
VERTEX
  8
L001
 10
-5200.00000
 20
-9.20957
  0
VERTEX
  8
L001
 10
-5200.00000
 20
-11.36000
  0
VERTEX
  8
L001
 10
-5600.00000
 20
-11.36000
  0
VERTEX
  8
L001
 10
-5600.00000
 20
-12.99197
  0
VERTEX
  8
L001
 10
-6000.00000
 20
-12.99197
  0
VERTEX
  8
L001
 10
-6000.00000
 20
-14.16319
  0
VERTEX
  8
L001
 10
-6400.00000
 20
-14.16319
  0
VERTEX
  8
L001
 10
-6400.00000
 20
-14.91197
  0
VERTEX
  8
L001
 10
-6800.00000
 20
-14.91197
  0
VERTEX
  8
L001
 10
-6800.00000
 20
-32.00000
  0
SEQEND
  0
POLYLINE
  8
L002
 10
0.0
 20
0.0
 66
1
 70
1
  0
VERTEX
  8
L002
 10
0.00000
 20
-32.00000
  0
VERTEX
  8
L002
 10
3939.91409
 20
-32.00000
  0
VERTEX
  8
L002
 10
3939.91409
 20
32.00000
  0
VERTEX
  8
L002
 10
0.00000
 20
32.00000
  0
SEQEND
  0
POLYLINE
  8
L002
 10
0.0
 20
0.0
 66
1
 70
1
  0
VERTEX
  8
L002
 10
-6800.00000
 20
32.00000
  0
VERTEX
  8
L002
 10
-6800.00000
 20
14.91197
  0
VERTEX
  8
L002
 10
-6400.00000
 20
14.91197
  0
VERTEX
  8
L002
 10
-6400.00000
 20
14.16319
  0
VERTEX
  8
L002
 10
-6000.00000
 20
14.16319
  0
VERTEX
  8
L002
 10
-6000.00000
 20
12.99197
  0
VERTEX
  8
L002
 10
-5600.00000
 20
12.99197
  0
VERTEX
  8
L002
 10
-5600.00000
 20
11.36000
  0
VERTEX
  8
L002
 10
-5200.00000
 20
11.36000
  0
VERTEX
  8
L002
 10
-5200.00000
 20
9.20957
  0
VERTEX
  8
L002
 10
-4800.00000
 20
9.20957
  0
VERTEX
  8
L002
 10
-4800.00000
 20
6.54079
  0
VERTEX
  8
L002
 10
-4400.00000
 20
6.54079
  0
VERTEX
  8
L002
 10
-4400.00000
 20
3.27677
  0
VERTEX
  8
L002
 10
-4000.00000
 20
3.27677
  0
VERTEX
  8
L002
 10
-4000.00000
 20
-0.58236
  0
VERTEX
  8
L002
 10
-3600.00000
 20
-0.58236
  0
VERTEX
  8
L002
 10
-3600.00000
 20
-4.48000
  0
VERTEX
  8
L002
 10
-3200.00000
 20
-4.48000
  0
VERTEX
  8
L002
 10
-3200.00000
 20
-8.60799
  0
VERTEX
  8
L002
 10
-2800.00000
 20
-8.60799
  0
VERTEX
  8
L002
 10
-2800.00000
 20
-12.64000
  0
VERTEX
  8
L002
 10
-2400.00000
 20
-12.64000
  0
VERTEX
  8
L002
 10
-2400.00000
 20
-16.32638
  0
VERTEX
  8
L002
 10
-2000.00000
 20
-16.32638
  0
VERTEX
  8
L002
 10
-2000.00000
 20
-19.66717
  0
VERTEX
  8
L002
 10
-1600.00000
 20
-19.66717
  0
VERTEX
  8
L002
 10
-1600.00000
 20
-22.47039
  0
VERTEX
  8
L002
 10
-1200.00000
 20
-22.47039
  0
VERTEX
  8
L002
 10
-1200.00000
 20
-24.81280
  0
VERTEX
  8
L002
 10
-800.00000
 20
-24.81280
  0
VERTEX
  8
L002
 10
-800.00000
 20
-26.69437
  0
VERTEX
  8
L002
 10
-400.00000
 20
-26.69437
  0
VERTEX
  8
L002
 10
-400.00000
 20
-29.95839
  0
VERTEX
  8
L002
 10
0.00000
 20
-32.00000
  0
VERTEX
  8
L002
 10
0.00000
 20
32.00000
  0
SEQEND
  0
ENDSEC
  0
EOF
