G04 EAGLE Gerber RS-274X export*
G75*
%MOMM*%
%FSLAX34Y34*%
%LPD*%
%INTop Copper*%
%IPPOS*%
%AMOC8*
5,1,8,0,0,1.08239X$1,22.5*%
G01*
%ADD10R,0.635000X0.635000*%
%ADD11C,1.650000*%
%ADD12R,0.600000X2.200000*%
%ADD13R,1.524000X2.032000*%
%ADD14R,2.032000X1.524000*%
%ADD15C,0.304800*%
%ADD16C,1.500000*%
%ADD17C,1.206400*%
%ADD18C,0.406400*%


D10*
X222250Y174625D03*
X158750Y63500D03*
X222250Y415925D03*
X158750Y304800D03*
X222250Y657225D03*
X158750Y546100D03*
X641350Y657225D03*
X577850Y546100D03*
X641350Y415925D03*
X577850Y304800D03*
X641350Y174625D03*
X577850Y63500D03*
X1060450Y657225D03*
X996950Y546100D03*
X1060450Y415925D03*
X996950Y304800D03*
X1060450Y174625D03*
X996950Y63500D03*
D11*
X83820Y114300D03*
X83820Y144780D03*
X83820Y83820D03*
D12*
X222250Y140300D03*
X196850Y88300D03*
X234950Y140300D03*
X209550Y140300D03*
X196850Y140300D03*
X209550Y88300D03*
X184150Y88300D03*
X171450Y88300D03*
X171450Y140300D03*
X146050Y88300D03*
X184150Y140300D03*
X158750Y140300D03*
X158750Y88300D03*
X146050Y140300D03*
X222250Y88300D03*
X234950Y88300D03*
D13*
X82550Y193675D03*
X57150Y193675D03*
X82550Y34925D03*
X57150Y34925D03*
X171450Y193675D03*
X196850Y193675D03*
X120650Y193675D03*
X146050Y193675D03*
X222250Y34925D03*
X247650Y34925D03*
X158750Y34925D03*
X184150Y34925D03*
D14*
X285750Y114300D03*
X285750Y88900D03*
D11*
X83820Y355600D03*
X83820Y386080D03*
X83820Y325120D03*
D12*
X222250Y381600D03*
X196850Y329600D03*
X234950Y381600D03*
X209550Y381600D03*
X196850Y381600D03*
X209550Y329600D03*
X184150Y329600D03*
X171450Y329600D03*
X171450Y381600D03*
X146050Y329600D03*
X184150Y381600D03*
X158750Y381600D03*
X158750Y329600D03*
X146050Y381600D03*
X222250Y329600D03*
X234950Y329600D03*
D13*
X82550Y434975D03*
X57150Y434975D03*
X82550Y276225D03*
X57150Y276225D03*
X171450Y434975D03*
X196850Y434975D03*
X120650Y434975D03*
X146050Y434975D03*
X222250Y276225D03*
X247650Y276225D03*
X158750Y276225D03*
X184150Y276225D03*
D14*
X285750Y355600D03*
X285750Y330200D03*
D11*
X83820Y596900D03*
X83820Y627380D03*
X83820Y566420D03*
D12*
X222250Y622900D03*
X196850Y570900D03*
X234950Y622900D03*
X209550Y622900D03*
X196850Y622900D03*
X209550Y570900D03*
X184150Y570900D03*
X171450Y570900D03*
X171450Y622900D03*
X146050Y570900D03*
X184150Y622900D03*
X158750Y622900D03*
X158750Y570900D03*
X146050Y622900D03*
X222250Y570900D03*
X234950Y570900D03*
D13*
X82550Y676275D03*
X57150Y676275D03*
X82550Y517525D03*
X57150Y517525D03*
X171450Y676275D03*
X196850Y676275D03*
X120650Y676275D03*
X146050Y676275D03*
X222250Y517525D03*
X247650Y517525D03*
X158750Y517525D03*
X184150Y517525D03*
D14*
X285750Y596900D03*
X285750Y571500D03*
D11*
X502920Y596900D03*
X502920Y627380D03*
X502920Y566420D03*
D12*
X641350Y622900D03*
X615950Y570900D03*
X654050Y622900D03*
X628650Y622900D03*
X615950Y622900D03*
X628650Y570900D03*
X603250Y570900D03*
X590550Y570900D03*
X590550Y622900D03*
X565150Y570900D03*
X603250Y622900D03*
X577850Y622900D03*
X577850Y570900D03*
X565150Y622900D03*
X641350Y570900D03*
X654050Y570900D03*
D13*
X501650Y676275D03*
X476250Y676275D03*
X501650Y517525D03*
X476250Y517525D03*
X590550Y676275D03*
X615950Y676275D03*
X539750Y676275D03*
X565150Y676275D03*
X641350Y517525D03*
X666750Y517525D03*
X577850Y517525D03*
X603250Y517525D03*
D14*
X704850Y596900D03*
X704850Y571500D03*
D11*
X502920Y355600D03*
X502920Y386080D03*
X502920Y325120D03*
D12*
X641350Y381600D03*
X615950Y329600D03*
X654050Y381600D03*
X628650Y381600D03*
X615950Y381600D03*
X628650Y329600D03*
X603250Y329600D03*
X590550Y329600D03*
X590550Y381600D03*
X565150Y329600D03*
X603250Y381600D03*
X577850Y381600D03*
X577850Y329600D03*
X565150Y381600D03*
X641350Y329600D03*
X654050Y329600D03*
D13*
X501650Y434975D03*
X476250Y434975D03*
X501650Y276225D03*
X476250Y276225D03*
X590550Y434975D03*
X615950Y434975D03*
X539750Y434975D03*
X565150Y434975D03*
X641350Y276225D03*
X666750Y276225D03*
X577850Y276225D03*
X603250Y276225D03*
D14*
X704850Y355600D03*
X704850Y330200D03*
D11*
X502920Y114300D03*
X502920Y144780D03*
X502920Y83820D03*
D12*
X641350Y140300D03*
X615950Y88300D03*
X654050Y140300D03*
X628650Y140300D03*
X615950Y140300D03*
X628650Y88300D03*
X603250Y88300D03*
X590550Y88300D03*
X590550Y140300D03*
X565150Y88300D03*
X603250Y140300D03*
X577850Y140300D03*
X577850Y88300D03*
X565150Y140300D03*
X641350Y88300D03*
X654050Y88300D03*
D13*
X501650Y193675D03*
X476250Y193675D03*
X501650Y34925D03*
X476250Y34925D03*
X590550Y193675D03*
X615950Y193675D03*
X539750Y193675D03*
X565150Y193675D03*
X641350Y34925D03*
X666750Y34925D03*
X577850Y34925D03*
X603250Y34925D03*
D14*
X704850Y114300D03*
X704850Y88900D03*
D11*
X922020Y596900D03*
X922020Y627380D03*
X922020Y566420D03*
D12*
X1060450Y622900D03*
X1035050Y570900D03*
X1073150Y622900D03*
X1047750Y622900D03*
X1035050Y622900D03*
X1047750Y570900D03*
X1022350Y570900D03*
X1009650Y570900D03*
X1009650Y622900D03*
X984250Y570900D03*
X1022350Y622900D03*
X996950Y622900D03*
X996950Y570900D03*
X984250Y622900D03*
X1060450Y570900D03*
X1073150Y570900D03*
D13*
X920750Y676275D03*
X895350Y676275D03*
X920750Y517525D03*
X895350Y517525D03*
X1009650Y676275D03*
X1035050Y676275D03*
X958850Y676275D03*
X984250Y676275D03*
X1060450Y517525D03*
X1085850Y517525D03*
X996950Y517525D03*
X1022350Y517525D03*
D14*
X1123950Y596900D03*
X1123950Y571500D03*
D11*
X922020Y355600D03*
X922020Y386080D03*
X922020Y325120D03*
D12*
X1060450Y381600D03*
X1035050Y329600D03*
X1073150Y381600D03*
X1047750Y381600D03*
X1035050Y381600D03*
X1047750Y329600D03*
X1022350Y329600D03*
X1009650Y329600D03*
X1009650Y381600D03*
X984250Y329600D03*
X1022350Y381600D03*
X996950Y381600D03*
X996950Y329600D03*
X984250Y381600D03*
X1060450Y329600D03*
X1073150Y329600D03*
D13*
X920750Y434975D03*
X895350Y434975D03*
X920750Y276225D03*
X895350Y276225D03*
X1009650Y434975D03*
X1035050Y434975D03*
X958850Y434975D03*
X984250Y434975D03*
X1060450Y276225D03*
X1085850Y276225D03*
X996950Y276225D03*
X1022350Y276225D03*
D14*
X1123950Y355600D03*
X1123950Y330200D03*
D11*
X922020Y114300D03*
X922020Y144780D03*
X922020Y83820D03*
D12*
X1060450Y140300D03*
X1035050Y88300D03*
X1073150Y140300D03*
X1047750Y140300D03*
X1035050Y140300D03*
X1047750Y88300D03*
X1022350Y88300D03*
X1009650Y88300D03*
X1009650Y140300D03*
X984250Y88300D03*
X1022350Y140300D03*
X996950Y140300D03*
X996950Y88300D03*
X984250Y140300D03*
X1060450Y88300D03*
X1073150Y88300D03*
D13*
X920750Y193675D03*
X895350Y193675D03*
X920750Y34925D03*
X895350Y34925D03*
X1009650Y193675D03*
X1035050Y193675D03*
X958850Y193675D03*
X984250Y193675D03*
X1060450Y34925D03*
X1085850Y34925D03*
X996950Y34925D03*
X1022350Y34925D03*
D14*
X1123950Y114300D03*
X1123950Y88900D03*
D15*
X377825Y114300D02*
X285750Y114300D01*
X241300Y114300D02*
X241142Y114298D01*
X240983Y114292D01*
X240825Y114282D01*
X240668Y114268D01*
X240510Y114251D01*
X240354Y114229D01*
X240197Y114204D01*
X240042Y114174D01*
X239887Y114141D01*
X239733Y114104D01*
X239580Y114063D01*
X239428Y114018D01*
X239278Y113969D01*
X239128Y113917D01*
X238980Y113861D01*
X238833Y113801D01*
X238688Y113738D01*
X238545Y113671D01*
X238403Y113601D01*
X238263Y113527D01*
X238125Y113449D01*
X237989Y113368D01*
X237855Y113284D01*
X237723Y113197D01*
X237593Y113106D01*
X237466Y113012D01*
X237341Y112915D01*
X237218Y112814D01*
X237098Y112711D01*
X236981Y112605D01*
X236866Y112496D01*
X236754Y112384D01*
X236645Y112269D01*
X236539Y112152D01*
X236436Y112032D01*
X236335Y111909D01*
X236238Y111784D01*
X236144Y111657D01*
X236053Y111527D01*
X235966Y111395D01*
X235882Y111261D01*
X235801Y111125D01*
X235723Y110987D01*
X235649Y110847D01*
X235579Y110705D01*
X235512Y110562D01*
X235449Y110417D01*
X235389Y110270D01*
X235333Y110122D01*
X235281Y109972D01*
X235232Y109822D01*
X235187Y109670D01*
X235146Y109517D01*
X235109Y109363D01*
X235076Y109208D01*
X235046Y109053D01*
X235021Y108896D01*
X234999Y108740D01*
X234982Y108582D01*
X234968Y108425D01*
X234958Y108267D01*
X234952Y108108D01*
X234950Y107950D01*
X241300Y114300D02*
X285750Y114300D01*
X234950Y107950D02*
X234950Y72480D01*
X234952Y72324D01*
X234958Y72168D01*
X234967Y72013D01*
X234981Y71857D01*
X234998Y71702D01*
X235019Y71548D01*
X235044Y71394D01*
X235072Y71241D01*
X235104Y71088D01*
X235140Y70937D01*
X235180Y70786D01*
X235223Y70636D01*
X235271Y70488D01*
X235321Y70341D01*
X235376Y70194D01*
X235433Y70050D01*
X235495Y69907D01*
X235560Y69765D01*
X235628Y69625D01*
X235700Y69486D01*
X235775Y69350D01*
X235854Y69215D01*
X235935Y69083D01*
X236020Y68952D01*
X236108Y68823D01*
X236200Y68697D01*
X236294Y68573D01*
X236392Y68451D01*
X236492Y68332D01*
X236595Y68215D01*
X236701Y68101D01*
X236810Y67990D01*
X245790Y59010D01*
X245899Y58899D01*
X246005Y58785D01*
X246108Y58668D01*
X246208Y58549D01*
X246306Y58427D01*
X246400Y58303D01*
X246492Y58177D01*
X246580Y58048D01*
X246665Y57917D01*
X246746Y57785D01*
X246825Y57650D01*
X246900Y57514D01*
X246972Y57375D01*
X247040Y57235D01*
X247105Y57093D01*
X247167Y56950D01*
X247224Y56806D01*
X247279Y56659D01*
X247329Y56512D01*
X247377Y56364D01*
X247420Y56214D01*
X247460Y56063D01*
X247496Y55912D01*
X247528Y55759D01*
X247556Y55606D01*
X247581Y55452D01*
X247602Y55298D01*
X247619Y55143D01*
X247633Y54987D01*
X247642Y54832D01*
X247648Y54676D01*
X247650Y54520D01*
X247650Y34925D01*
D16*
X377825Y114300D03*
X377825Y152400D03*
D15*
X222250Y88900D02*
X222250Y34925D01*
X184150Y34925D01*
X203200Y114300D02*
X82550Y114300D01*
X203200Y114300D02*
X203358Y114298D01*
X203517Y114292D01*
X203675Y114282D01*
X203832Y114268D01*
X203990Y114251D01*
X204146Y114229D01*
X204303Y114204D01*
X204458Y114174D01*
X204613Y114141D01*
X204767Y114104D01*
X204920Y114063D01*
X205072Y114018D01*
X205222Y113969D01*
X205372Y113917D01*
X205520Y113861D01*
X205667Y113801D01*
X205812Y113738D01*
X205955Y113671D01*
X206097Y113601D01*
X206237Y113527D01*
X206375Y113449D01*
X206511Y113368D01*
X206645Y113284D01*
X206777Y113197D01*
X206907Y113106D01*
X207034Y113012D01*
X207159Y112915D01*
X207282Y112814D01*
X207402Y112711D01*
X207519Y112605D01*
X207634Y112496D01*
X207746Y112384D01*
X207855Y112269D01*
X207961Y112152D01*
X208064Y112032D01*
X208165Y111909D01*
X208262Y111784D01*
X208356Y111657D01*
X208447Y111527D01*
X208534Y111395D01*
X208618Y111261D01*
X208699Y111125D01*
X208777Y110987D01*
X208851Y110847D01*
X208921Y110705D01*
X208988Y110562D01*
X209051Y110417D01*
X209111Y110270D01*
X209167Y110122D01*
X209219Y109972D01*
X209268Y109822D01*
X209313Y109670D01*
X209354Y109517D01*
X209391Y109363D01*
X209424Y109208D01*
X209454Y109053D01*
X209479Y108896D01*
X209501Y108740D01*
X209518Y108582D01*
X209532Y108425D01*
X209542Y108267D01*
X209548Y108108D01*
X209550Y107950D01*
X209550Y88900D01*
X82550Y82550D02*
X82550Y34925D01*
X209550Y123825D02*
X209550Y139700D01*
X209550Y123825D02*
X209548Y123714D01*
X209542Y123604D01*
X209533Y123493D01*
X209519Y123383D01*
X209502Y123274D01*
X209481Y123165D01*
X209456Y123057D01*
X209427Y122950D01*
X209395Y122844D01*
X209359Y122739D01*
X209319Y122635D01*
X209276Y122533D01*
X209229Y122433D01*
X209179Y122334D01*
X209125Y122237D01*
X209068Y122142D01*
X209008Y122049D01*
X208944Y121959D01*
X208877Y121870D01*
X208807Y121784D01*
X208735Y121700D01*
X208659Y121619D01*
X208581Y121541D01*
X208500Y121465D01*
X208416Y121393D01*
X208330Y121323D01*
X208241Y121256D01*
X208151Y121192D01*
X208058Y121132D01*
X207963Y121075D01*
X207866Y121021D01*
X207767Y120971D01*
X207667Y120924D01*
X207565Y120881D01*
X207461Y120841D01*
X207356Y120805D01*
X207250Y120773D01*
X207143Y120744D01*
X207035Y120719D01*
X206926Y120698D01*
X206817Y120681D01*
X206707Y120667D01*
X206596Y120658D01*
X206486Y120652D01*
X206375Y120650D01*
X114300Y120650D01*
X113639Y120658D01*
X112978Y120682D01*
X112319Y120723D01*
X111660Y120779D01*
X111003Y120852D01*
X110348Y120941D01*
X109695Y121046D01*
X109045Y121167D01*
X108398Y121303D01*
X107755Y121456D01*
X107115Y121624D01*
X106480Y121808D01*
X105850Y122007D01*
X105225Y122222D01*
X104605Y122452D01*
X103991Y122697D01*
X103383Y122957D01*
X102782Y123232D01*
X102187Y123521D01*
X101600Y123825D01*
X101050Y124285D01*
X100489Y124731D01*
X99917Y125164D01*
X99334Y125582D01*
X98742Y125986D01*
X98140Y126375D01*
X97528Y126750D01*
X96907Y127109D01*
X96278Y127453D01*
X95641Y127782D01*
X94996Y128094D01*
X94343Y128391D01*
X93683Y128672D01*
X93017Y128937D01*
X92344Y129185D01*
X91665Y129417D01*
X90981Y129632D01*
X90292Y129830D01*
X89598Y130011D01*
X88900Y130175D01*
X76200Y130175D01*
X75966Y130172D01*
X75733Y130163D01*
X75499Y130149D01*
X75266Y130129D01*
X75034Y130103D01*
X74802Y130072D01*
X74572Y130034D01*
X74342Y129992D01*
X74113Y129943D01*
X73886Y129889D01*
X73660Y129830D01*
X73435Y129764D01*
X73212Y129694D01*
X72991Y129618D01*
X72772Y129536D01*
X72555Y129449D01*
X72340Y129357D01*
X72128Y129260D01*
X71918Y129157D01*
X71710Y129050D01*
X71506Y128937D01*
X71304Y128819D01*
X71105Y128697D01*
X70909Y128569D01*
X70716Y128437D01*
X70526Y128300D01*
X70340Y128158D01*
X70158Y128012D01*
X69979Y127862D01*
X69804Y127707D01*
X69633Y127548D01*
X69465Y127385D01*
X69302Y127217D01*
X69143Y127046D01*
X68988Y126871D01*
X68838Y126692D01*
X68692Y126510D01*
X68550Y126324D01*
X68413Y126134D01*
X68281Y125941D01*
X68153Y125745D01*
X68031Y125546D01*
X67913Y125344D01*
X67800Y125140D01*
X67693Y124932D01*
X67590Y124722D01*
X67493Y124510D01*
X67401Y124295D01*
X67314Y124078D01*
X67232Y123859D01*
X67156Y123638D01*
X67086Y123415D01*
X67020Y123190D01*
X66961Y122964D01*
X66907Y122737D01*
X66858Y122508D01*
X66816Y122278D01*
X66778Y122048D01*
X66747Y121816D01*
X66721Y121584D01*
X66701Y121351D01*
X66687Y121117D01*
X66678Y120884D01*
X66675Y120650D01*
X66675Y107950D01*
X66678Y107716D01*
X66687Y107483D01*
X66701Y107249D01*
X66721Y107016D01*
X66747Y106784D01*
X66778Y106552D01*
X66815Y106322D01*
X66858Y106092D01*
X66907Y105863D01*
X66961Y105636D01*
X67020Y105410D01*
X67085Y105185D01*
X67156Y104962D01*
X67232Y104741D01*
X67314Y104522D01*
X67400Y104305D01*
X67492Y104090D01*
X67590Y103878D01*
X67692Y103668D01*
X67800Y103460D01*
X67913Y103255D01*
X68030Y103053D01*
X68153Y102854D01*
X68281Y102658D01*
X68413Y102466D01*
X68550Y102276D01*
X68691Y102090D01*
X68837Y101908D01*
X68988Y101729D01*
X69143Y101554D01*
X69302Y101382D01*
X69465Y101215D01*
X69632Y101052D01*
X69804Y100893D01*
X69979Y100738D01*
X70158Y100587D01*
X70340Y100441D01*
X70526Y100300D01*
X70716Y100163D01*
X70908Y100031D01*
X71104Y99903D01*
X71303Y99780D01*
X71505Y99663D01*
X71710Y99550D01*
X71918Y99442D01*
X72128Y99340D01*
X72340Y99242D01*
X72555Y99150D01*
X72772Y99064D01*
X72991Y98982D01*
X73212Y98906D01*
X73435Y98835D01*
X73660Y98770D01*
X73886Y98711D01*
X74113Y98657D01*
X74342Y98608D01*
X74572Y98565D01*
X74802Y98528D01*
X75034Y98497D01*
X75266Y98471D01*
X75499Y98451D01*
X75733Y98437D01*
X75966Y98428D01*
X76200Y98425D01*
X88900Y98425D01*
X89598Y98589D01*
X90292Y98770D01*
X90981Y98968D01*
X91665Y99183D01*
X92344Y99415D01*
X93017Y99663D01*
X93683Y99928D01*
X94343Y100209D01*
X94996Y100506D01*
X95641Y100818D01*
X96278Y101147D01*
X96907Y101491D01*
X97528Y101850D01*
X98140Y102225D01*
X98742Y102614D01*
X99334Y103018D01*
X99917Y103436D01*
X100489Y103869D01*
X101050Y104315D01*
X101600Y104775D01*
X102187Y105079D01*
X102781Y105368D01*
X103383Y105643D01*
X103990Y105903D01*
X104605Y106148D01*
X105224Y106378D01*
X105850Y106593D01*
X106480Y106792D01*
X107115Y106976D01*
X107754Y107144D01*
X108398Y107297D01*
X109045Y107433D01*
X109695Y107554D01*
X110347Y107659D01*
X111002Y107748D01*
X111660Y107821D01*
X112318Y107877D01*
X112978Y107918D01*
X113639Y107942D01*
X114300Y107950D01*
X180975Y107950D01*
X181086Y107948D01*
X181196Y107942D01*
X181307Y107933D01*
X181417Y107919D01*
X181526Y107902D01*
X181635Y107881D01*
X181743Y107856D01*
X181850Y107827D01*
X181956Y107795D01*
X182061Y107759D01*
X182164Y107719D01*
X182266Y107676D01*
X182367Y107629D01*
X182466Y107578D01*
X182563Y107525D01*
X182657Y107468D01*
X182750Y107407D01*
X182841Y107344D01*
X182930Y107277D01*
X183016Y107207D01*
X183099Y107134D01*
X183181Y107059D01*
X183259Y106981D01*
X183334Y106899D01*
X183407Y106816D01*
X183477Y106730D01*
X183544Y106641D01*
X183607Y106550D01*
X183668Y106457D01*
X183725Y106363D01*
X183778Y106266D01*
X183829Y106167D01*
X183876Y106066D01*
X183919Y105964D01*
X183959Y105861D01*
X183995Y105756D01*
X184027Y105650D01*
X184056Y105543D01*
X184081Y105435D01*
X184102Y105326D01*
X184119Y105217D01*
X184133Y105107D01*
X184142Y104996D01*
X184148Y104886D01*
X184150Y104775D01*
X190500Y57150D02*
X209550Y57150D01*
X190500Y57150D02*
X190342Y57152D01*
X190183Y57158D01*
X190025Y57168D01*
X189868Y57182D01*
X189710Y57199D01*
X189554Y57221D01*
X189397Y57246D01*
X189242Y57276D01*
X189087Y57309D01*
X188933Y57346D01*
X188780Y57387D01*
X188628Y57432D01*
X188478Y57481D01*
X188328Y57533D01*
X188180Y57589D01*
X188033Y57649D01*
X187888Y57712D01*
X187745Y57779D01*
X187603Y57849D01*
X187463Y57923D01*
X187325Y58001D01*
X187189Y58082D01*
X187055Y58166D01*
X186923Y58253D01*
X186793Y58344D01*
X186666Y58438D01*
X186541Y58535D01*
X186418Y58636D01*
X186298Y58739D01*
X186181Y58845D01*
X186066Y58954D01*
X185954Y59066D01*
X185845Y59181D01*
X185739Y59298D01*
X185636Y59418D01*
X185535Y59541D01*
X185438Y59666D01*
X185344Y59793D01*
X185253Y59923D01*
X185166Y60055D01*
X185082Y60189D01*
X185001Y60325D01*
X184923Y60463D01*
X184849Y60603D01*
X184779Y60745D01*
X184712Y60888D01*
X184649Y61033D01*
X184589Y61180D01*
X184533Y61328D01*
X184481Y61478D01*
X184432Y61628D01*
X184387Y61780D01*
X184346Y61933D01*
X184309Y62087D01*
X184276Y62242D01*
X184246Y62397D01*
X184221Y62554D01*
X184199Y62710D01*
X184182Y62868D01*
X184168Y63025D01*
X184158Y63183D01*
X184152Y63342D01*
X184150Y63500D01*
X184150Y104775D01*
D17*
X209550Y57150D03*
D15*
X158750Y63500D02*
X158750Y88900D01*
X158750Y63500D02*
X158750Y34925D01*
X171450Y69850D02*
X171450Y88900D01*
X171450Y69850D02*
X171448Y69692D01*
X171442Y69533D01*
X171432Y69375D01*
X171418Y69218D01*
X171401Y69060D01*
X171379Y68904D01*
X171354Y68747D01*
X171324Y68592D01*
X171291Y68437D01*
X171254Y68283D01*
X171213Y68130D01*
X171168Y67978D01*
X171119Y67828D01*
X171067Y67678D01*
X171011Y67530D01*
X170951Y67383D01*
X170888Y67238D01*
X170821Y67095D01*
X170751Y66953D01*
X170677Y66813D01*
X170599Y66675D01*
X170518Y66539D01*
X170434Y66405D01*
X170347Y66273D01*
X170256Y66143D01*
X170162Y66016D01*
X170065Y65891D01*
X169964Y65768D01*
X169861Y65648D01*
X169755Y65531D01*
X169646Y65416D01*
X169534Y65304D01*
X169419Y65195D01*
X169302Y65089D01*
X169182Y64986D01*
X169059Y64885D01*
X168934Y64788D01*
X168807Y64694D01*
X168677Y64603D01*
X168545Y64516D01*
X168411Y64432D01*
X168275Y64351D01*
X168137Y64273D01*
X167997Y64199D01*
X167855Y64129D01*
X167712Y64062D01*
X167567Y63999D01*
X167420Y63939D01*
X167272Y63883D01*
X167122Y63831D01*
X166972Y63782D01*
X166820Y63737D01*
X166667Y63696D01*
X166513Y63659D01*
X166358Y63626D01*
X166203Y63596D01*
X166046Y63571D01*
X165890Y63549D01*
X165732Y63532D01*
X165575Y63518D01*
X165417Y63508D01*
X165258Y63502D01*
X165100Y63500D01*
X158750Y63500D01*
X171450Y139700D02*
X171450Y193675D01*
X146050Y193675D01*
X158750Y158750D02*
X158750Y139700D01*
X158750Y158750D02*
X158748Y158908D01*
X158742Y159067D01*
X158732Y159225D01*
X158718Y159382D01*
X158701Y159540D01*
X158679Y159696D01*
X158654Y159853D01*
X158624Y160008D01*
X158591Y160163D01*
X158554Y160317D01*
X158513Y160470D01*
X158468Y160622D01*
X158419Y160772D01*
X158367Y160922D01*
X158311Y161070D01*
X158251Y161217D01*
X158188Y161362D01*
X158121Y161505D01*
X158051Y161647D01*
X157977Y161787D01*
X157899Y161925D01*
X157818Y162061D01*
X157734Y162195D01*
X157647Y162327D01*
X157556Y162457D01*
X157462Y162584D01*
X157365Y162709D01*
X157264Y162832D01*
X157161Y162952D01*
X157055Y163069D01*
X156946Y163184D01*
X156834Y163296D01*
X156719Y163405D01*
X156602Y163511D01*
X156482Y163614D01*
X156359Y163715D01*
X156234Y163812D01*
X156107Y163906D01*
X155977Y163997D01*
X155845Y164084D01*
X155711Y164168D01*
X155575Y164249D01*
X155437Y164327D01*
X155297Y164401D01*
X155155Y164471D01*
X155012Y164538D01*
X154867Y164601D01*
X154720Y164661D01*
X154572Y164717D01*
X154422Y164769D01*
X154272Y164818D01*
X154120Y164863D01*
X153967Y164904D01*
X153813Y164941D01*
X153658Y164974D01*
X153503Y165004D01*
X153346Y165029D01*
X153190Y165051D01*
X153032Y165068D01*
X152875Y165082D01*
X152717Y165092D01*
X152558Y165098D01*
X152400Y165100D01*
X82550Y146050D02*
X82550Y193675D01*
X120650Y193675D01*
X127000Y165100D02*
X152400Y165100D01*
X127000Y165100D02*
X126842Y165102D01*
X126683Y165108D01*
X126525Y165118D01*
X126368Y165132D01*
X126210Y165149D01*
X126054Y165171D01*
X125897Y165196D01*
X125742Y165226D01*
X125587Y165259D01*
X125433Y165296D01*
X125280Y165337D01*
X125128Y165382D01*
X124978Y165431D01*
X124828Y165483D01*
X124680Y165539D01*
X124533Y165599D01*
X124388Y165662D01*
X124245Y165729D01*
X124103Y165799D01*
X123963Y165873D01*
X123825Y165951D01*
X123689Y166032D01*
X123555Y166116D01*
X123423Y166203D01*
X123293Y166294D01*
X123166Y166388D01*
X123041Y166485D01*
X122918Y166586D01*
X122798Y166689D01*
X122681Y166795D01*
X122566Y166904D01*
X122454Y167016D01*
X122345Y167131D01*
X122239Y167248D01*
X122136Y167368D01*
X122035Y167491D01*
X121938Y167616D01*
X121844Y167743D01*
X121753Y167873D01*
X121666Y168005D01*
X121582Y168139D01*
X121501Y168275D01*
X121423Y168413D01*
X121349Y168553D01*
X121279Y168695D01*
X121212Y168838D01*
X121149Y168983D01*
X121089Y169130D01*
X121033Y169278D01*
X120981Y169428D01*
X120932Y169578D01*
X120887Y169730D01*
X120846Y169883D01*
X120809Y170037D01*
X120776Y170192D01*
X120746Y170347D01*
X120721Y170504D01*
X120699Y170660D01*
X120682Y170818D01*
X120668Y170975D01*
X120658Y171133D01*
X120652Y171292D01*
X120650Y171450D01*
X120650Y193675D01*
D18*
X196850Y161925D02*
X196850Y139700D01*
D17*
X196850Y161925D03*
D15*
X184150Y168275D02*
X184150Y139700D01*
X184150Y168275D02*
X184152Y168433D01*
X184158Y168592D01*
X184168Y168750D01*
X184182Y168907D01*
X184199Y169065D01*
X184221Y169221D01*
X184246Y169378D01*
X184276Y169533D01*
X184309Y169688D01*
X184346Y169842D01*
X184387Y169995D01*
X184432Y170147D01*
X184481Y170297D01*
X184533Y170447D01*
X184589Y170595D01*
X184649Y170742D01*
X184712Y170887D01*
X184779Y171030D01*
X184849Y171172D01*
X184923Y171312D01*
X185001Y171450D01*
X185082Y171586D01*
X185166Y171720D01*
X185253Y171852D01*
X185344Y171982D01*
X185438Y172109D01*
X185535Y172234D01*
X185636Y172357D01*
X185739Y172477D01*
X185845Y172594D01*
X185954Y172709D01*
X186066Y172821D01*
X186181Y172930D01*
X186298Y173036D01*
X186418Y173139D01*
X186541Y173240D01*
X186666Y173337D01*
X186793Y173431D01*
X186923Y173522D01*
X187055Y173609D01*
X187189Y173693D01*
X187325Y173774D01*
X187463Y173852D01*
X187603Y173926D01*
X187745Y173996D01*
X187888Y174063D01*
X188033Y174126D01*
X188180Y174186D01*
X188328Y174242D01*
X188478Y174294D01*
X188628Y174343D01*
X188780Y174388D01*
X188933Y174429D01*
X189087Y174466D01*
X189242Y174499D01*
X189397Y174529D01*
X189554Y174554D01*
X189710Y174576D01*
X189868Y174593D01*
X190025Y174607D01*
X190183Y174617D01*
X190342Y174623D01*
X190500Y174625D01*
X222250Y174625D01*
X228600Y174625D01*
X228758Y174623D01*
X228917Y174617D01*
X229075Y174607D01*
X229232Y174593D01*
X229390Y174576D01*
X229546Y174554D01*
X229703Y174529D01*
X229858Y174499D01*
X230013Y174466D01*
X230167Y174429D01*
X230320Y174388D01*
X230472Y174343D01*
X230622Y174294D01*
X230772Y174242D01*
X230920Y174186D01*
X231067Y174126D01*
X231212Y174063D01*
X231355Y173996D01*
X231497Y173926D01*
X231637Y173852D01*
X231775Y173774D01*
X231911Y173693D01*
X232045Y173609D01*
X232177Y173522D01*
X232307Y173431D01*
X232434Y173337D01*
X232559Y173240D01*
X232682Y173139D01*
X232802Y173036D01*
X232919Y172930D01*
X233034Y172821D01*
X233146Y172709D01*
X233255Y172594D01*
X233361Y172477D01*
X233464Y172357D01*
X233565Y172234D01*
X233662Y172109D01*
X233756Y171982D01*
X233847Y171852D01*
X233934Y171720D01*
X234018Y171586D01*
X234099Y171450D01*
X234177Y171312D01*
X234251Y171172D01*
X234321Y171030D01*
X234388Y170887D01*
X234451Y170742D01*
X234511Y170595D01*
X234567Y170447D01*
X234619Y170297D01*
X234668Y170147D01*
X234713Y169995D01*
X234754Y169842D01*
X234791Y169688D01*
X234824Y169533D01*
X234854Y169378D01*
X234879Y169221D01*
X234901Y169065D01*
X234918Y168907D01*
X234932Y168750D01*
X234942Y168592D01*
X234948Y168433D01*
X234950Y168275D01*
X234950Y139700D01*
X222250Y139700D02*
X222250Y174625D01*
D18*
X196850Y88900D02*
X196850Y69850D01*
D15*
X285750Y69850D02*
X285750Y88900D01*
X57150Y193675D02*
X38100Y193675D01*
X38100Y34925D02*
X57150Y34925D01*
X196850Y193675D02*
X260350Y193675D01*
X260508Y193673D01*
X260667Y193667D01*
X260825Y193657D01*
X260982Y193643D01*
X261140Y193626D01*
X261296Y193604D01*
X261453Y193579D01*
X261608Y193549D01*
X261763Y193516D01*
X261917Y193479D01*
X262070Y193438D01*
X262222Y193393D01*
X262372Y193344D01*
X262522Y193292D01*
X262670Y193236D01*
X262817Y193176D01*
X262962Y193113D01*
X263105Y193046D01*
X263247Y192976D01*
X263387Y192902D01*
X263525Y192824D01*
X263661Y192743D01*
X263795Y192659D01*
X263927Y192572D01*
X264057Y192481D01*
X264184Y192387D01*
X264309Y192290D01*
X264432Y192189D01*
X264552Y192086D01*
X264669Y191980D01*
X264784Y191871D01*
X264896Y191759D01*
X265005Y191644D01*
X265111Y191527D01*
X265214Y191407D01*
X265315Y191284D01*
X265412Y191159D01*
X265506Y191032D01*
X265597Y190902D01*
X265684Y190770D01*
X265768Y190636D01*
X265849Y190500D01*
X265927Y190362D01*
X266001Y190222D01*
X266071Y190080D01*
X266138Y189937D01*
X266201Y189792D01*
X266261Y189645D01*
X266317Y189497D01*
X266369Y189347D01*
X266418Y189197D01*
X266463Y189045D01*
X266504Y188892D01*
X266541Y188738D01*
X266574Y188583D01*
X266604Y188428D01*
X266629Y188271D01*
X266651Y188115D01*
X266668Y187957D01*
X266682Y187800D01*
X266692Y187642D01*
X266698Y187483D01*
X266700Y187325D01*
X266700Y149225D01*
D16*
X377825Y76200D03*
D17*
X196850Y69850D03*
X285750Y69850D03*
X38100Y193675D03*
X38100Y34925D03*
X266700Y149225D03*
D15*
X285750Y355600D02*
X377825Y355600D01*
X241300Y355600D02*
X241142Y355598D01*
X240983Y355592D01*
X240825Y355582D01*
X240668Y355568D01*
X240510Y355551D01*
X240354Y355529D01*
X240197Y355504D01*
X240042Y355474D01*
X239887Y355441D01*
X239733Y355404D01*
X239580Y355363D01*
X239428Y355318D01*
X239278Y355269D01*
X239128Y355217D01*
X238980Y355161D01*
X238833Y355101D01*
X238688Y355038D01*
X238545Y354971D01*
X238403Y354901D01*
X238263Y354827D01*
X238125Y354749D01*
X237989Y354668D01*
X237855Y354584D01*
X237723Y354497D01*
X237593Y354406D01*
X237466Y354312D01*
X237341Y354215D01*
X237218Y354114D01*
X237098Y354011D01*
X236981Y353905D01*
X236866Y353796D01*
X236754Y353684D01*
X236645Y353569D01*
X236539Y353452D01*
X236436Y353332D01*
X236335Y353209D01*
X236238Y353084D01*
X236144Y352957D01*
X236053Y352827D01*
X235966Y352695D01*
X235882Y352561D01*
X235801Y352425D01*
X235723Y352287D01*
X235649Y352147D01*
X235579Y352005D01*
X235512Y351862D01*
X235449Y351717D01*
X235389Y351570D01*
X235333Y351422D01*
X235281Y351272D01*
X235232Y351122D01*
X235187Y350970D01*
X235146Y350817D01*
X235109Y350663D01*
X235076Y350508D01*
X235046Y350353D01*
X235021Y350196D01*
X234999Y350040D01*
X234982Y349882D01*
X234968Y349725D01*
X234958Y349567D01*
X234952Y349408D01*
X234950Y349250D01*
X241300Y355600D02*
X285750Y355600D01*
X234950Y349250D02*
X234950Y313780D01*
X234952Y313624D01*
X234958Y313468D01*
X234967Y313313D01*
X234981Y313157D01*
X234998Y313002D01*
X235019Y312848D01*
X235044Y312694D01*
X235072Y312541D01*
X235104Y312388D01*
X235140Y312237D01*
X235180Y312086D01*
X235223Y311936D01*
X235271Y311788D01*
X235321Y311641D01*
X235376Y311494D01*
X235433Y311350D01*
X235495Y311207D01*
X235560Y311065D01*
X235628Y310925D01*
X235700Y310786D01*
X235775Y310650D01*
X235854Y310515D01*
X235935Y310383D01*
X236020Y310252D01*
X236108Y310123D01*
X236200Y309997D01*
X236294Y309873D01*
X236392Y309751D01*
X236492Y309632D01*
X236595Y309515D01*
X236701Y309401D01*
X236810Y309290D01*
X245790Y300310D01*
X245899Y300199D01*
X246005Y300085D01*
X246108Y299968D01*
X246208Y299849D01*
X246306Y299727D01*
X246400Y299603D01*
X246492Y299477D01*
X246580Y299348D01*
X246665Y299217D01*
X246746Y299085D01*
X246825Y298950D01*
X246900Y298814D01*
X246972Y298675D01*
X247040Y298535D01*
X247105Y298393D01*
X247167Y298250D01*
X247224Y298106D01*
X247279Y297959D01*
X247329Y297812D01*
X247377Y297664D01*
X247420Y297514D01*
X247460Y297363D01*
X247496Y297212D01*
X247528Y297059D01*
X247556Y296906D01*
X247581Y296752D01*
X247602Y296598D01*
X247619Y296443D01*
X247633Y296287D01*
X247642Y296132D01*
X247648Y295976D01*
X247650Y295820D01*
X247650Y276225D01*
D16*
X377825Y355600D03*
X377825Y393700D03*
D15*
X222250Y330200D02*
X222250Y276225D01*
X184150Y276225D01*
X203200Y355600D02*
X82550Y355600D01*
X203200Y355600D02*
X203358Y355598D01*
X203517Y355592D01*
X203675Y355582D01*
X203832Y355568D01*
X203990Y355551D01*
X204146Y355529D01*
X204303Y355504D01*
X204458Y355474D01*
X204613Y355441D01*
X204767Y355404D01*
X204920Y355363D01*
X205072Y355318D01*
X205222Y355269D01*
X205372Y355217D01*
X205520Y355161D01*
X205667Y355101D01*
X205812Y355038D01*
X205955Y354971D01*
X206097Y354901D01*
X206237Y354827D01*
X206375Y354749D01*
X206511Y354668D01*
X206645Y354584D01*
X206777Y354497D01*
X206907Y354406D01*
X207034Y354312D01*
X207159Y354215D01*
X207282Y354114D01*
X207402Y354011D01*
X207519Y353905D01*
X207634Y353796D01*
X207746Y353684D01*
X207855Y353569D01*
X207961Y353452D01*
X208064Y353332D01*
X208165Y353209D01*
X208262Y353084D01*
X208356Y352957D01*
X208447Y352827D01*
X208534Y352695D01*
X208618Y352561D01*
X208699Y352425D01*
X208777Y352287D01*
X208851Y352147D01*
X208921Y352005D01*
X208988Y351862D01*
X209051Y351717D01*
X209111Y351570D01*
X209167Y351422D01*
X209219Y351272D01*
X209268Y351122D01*
X209313Y350970D01*
X209354Y350817D01*
X209391Y350663D01*
X209424Y350508D01*
X209454Y350353D01*
X209479Y350196D01*
X209501Y350040D01*
X209518Y349882D01*
X209532Y349725D01*
X209542Y349567D01*
X209548Y349408D01*
X209550Y349250D01*
X209550Y330200D01*
X82550Y323850D02*
X82550Y276225D01*
X209550Y365125D02*
X209550Y381000D01*
X209550Y365125D02*
X209548Y365014D01*
X209542Y364904D01*
X209533Y364793D01*
X209519Y364683D01*
X209502Y364574D01*
X209481Y364465D01*
X209456Y364357D01*
X209427Y364250D01*
X209395Y364144D01*
X209359Y364039D01*
X209319Y363935D01*
X209276Y363833D01*
X209229Y363733D01*
X209179Y363634D01*
X209125Y363537D01*
X209068Y363442D01*
X209008Y363349D01*
X208944Y363259D01*
X208877Y363170D01*
X208807Y363084D01*
X208735Y363000D01*
X208659Y362919D01*
X208581Y362841D01*
X208500Y362765D01*
X208416Y362693D01*
X208330Y362623D01*
X208241Y362556D01*
X208151Y362492D01*
X208058Y362432D01*
X207963Y362375D01*
X207866Y362321D01*
X207767Y362271D01*
X207667Y362224D01*
X207565Y362181D01*
X207461Y362141D01*
X207356Y362105D01*
X207250Y362073D01*
X207143Y362044D01*
X207035Y362019D01*
X206926Y361998D01*
X206817Y361981D01*
X206707Y361967D01*
X206596Y361958D01*
X206486Y361952D01*
X206375Y361950D01*
X114300Y361950D01*
X113639Y361958D01*
X112978Y361982D01*
X112319Y362023D01*
X111660Y362079D01*
X111003Y362152D01*
X110348Y362241D01*
X109695Y362346D01*
X109045Y362467D01*
X108398Y362603D01*
X107755Y362756D01*
X107115Y362924D01*
X106480Y363108D01*
X105850Y363307D01*
X105225Y363522D01*
X104605Y363752D01*
X103991Y363997D01*
X103383Y364257D01*
X102782Y364532D01*
X102187Y364821D01*
X101600Y365125D01*
X101050Y365585D01*
X100489Y366031D01*
X99917Y366464D01*
X99334Y366882D01*
X98742Y367286D01*
X98140Y367675D01*
X97528Y368050D01*
X96907Y368409D01*
X96278Y368753D01*
X95641Y369082D01*
X94996Y369394D01*
X94343Y369691D01*
X93683Y369972D01*
X93017Y370237D01*
X92344Y370485D01*
X91665Y370717D01*
X90981Y370932D01*
X90292Y371130D01*
X89598Y371311D01*
X88900Y371475D01*
X76200Y371475D01*
X75966Y371472D01*
X75733Y371463D01*
X75499Y371449D01*
X75266Y371429D01*
X75034Y371403D01*
X74802Y371372D01*
X74572Y371334D01*
X74342Y371292D01*
X74113Y371243D01*
X73886Y371189D01*
X73660Y371130D01*
X73435Y371064D01*
X73212Y370994D01*
X72991Y370918D01*
X72772Y370836D01*
X72555Y370749D01*
X72340Y370657D01*
X72128Y370560D01*
X71918Y370457D01*
X71710Y370350D01*
X71506Y370237D01*
X71304Y370119D01*
X71105Y369997D01*
X70909Y369869D01*
X70716Y369737D01*
X70526Y369600D01*
X70340Y369458D01*
X70158Y369312D01*
X69979Y369162D01*
X69804Y369007D01*
X69633Y368848D01*
X69465Y368685D01*
X69302Y368517D01*
X69143Y368346D01*
X68988Y368171D01*
X68838Y367992D01*
X68692Y367810D01*
X68550Y367624D01*
X68413Y367434D01*
X68281Y367241D01*
X68153Y367045D01*
X68031Y366846D01*
X67913Y366644D01*
X67800Y366440D01*
X67693Y366232D01*
X67590Y366022D01*
X67493Y365810D01*
X67401Y365595D01*
X67314Y365378D01*
X67232Y365159D01*
X67156Y364938D01*
X67086Y364715D01*
X67020Y364490D01*
X66961Y364264D01*
X66907Y364037D01*
X66858Y363808D01*
X66816Y363578D01*
X66778Y363348D01*
X66747Y363116D01*
X66721Y362884D01*
X66701Y362651D01*
X66687Y362417D01*
X66678Y362184D01*
X66675Y361950D01*
X66675Y349250D01*
X66678Y349016D01*
X66687Y348783D01*
X66701Y348549D01*
X66721Y348316D01*
X66747Y348084D01*
X66778Y347852D01*
X66815Y347622D01*
X66858Y347392D01*
X66907Y347163D01*
X66961Y346936D01*
X67020Y346710D01*
X67085Y346485D01*
X67156Y346262D01*
X67232Y346041D01*
X67314Y345822D01*
X67400Y345605D01*
X67492Y345390D01*
X67590Y345178D01*
X67692Y344968D01*
X67800Y344760D01*
X67913Y344555D01*
X68030Y344353D01*
X68153Y344154D01*
X68281Y343958D01*
X68413Y343766D01*
X68550Y343576D01*
X68691Y343390D01*
X68837Y343208D01*
X68988Y343029D01*
X69143Y342854D01*
X69302Y342682D01*
X69465Y342515D01*
X69632Y342352D01*
X69804Y342193D01*
X69979Y342038D01*
X70158Y341887D01*
X70340Y341741D01*
X70526Y341600D01*
X70716Y341463D01*
X70908Y341331D01*
X71104Y341203D01*
X71303Y341080D01*
X71505Y340963D01*
X71710Y340850D01*
X71918Y340742D01*
X72128Y340640D01*
X72340Y340542D01*
X72555Y340450D01*
X72772Y340364D01*
X72991Y340282D01*
X73212Y340206D01*
X73435Y340135D01*
X73660Y340070D01*
X73886Y340011D01*
X74113Y339957D01*
X74342Y339908D01*
X74572Y339865D01*
X74802Y339828D01*
X75034Y339797D01*
X75266Y339771D01*
X75499Y339751D01*
X75733Y339737D01*
X75966Y339728D01*
X76200Y339725D01*
X88900Y339725D01*
X89598Y339889D01*
X90292Y340070D01*
X90981Y340268D01*
X91665Y340483D01*
X92344Y340715D01*
X93017Y340963D01*
X93683Y341228D01*
X94343Y341509D01*
X94996Y341806D01*
X95641Y342118D01*
X96278Y342447D01*
X96907Y342791D01*
X97528Y343150D01*
X98140Y343525D01*
X98742Y343914D01*
X99334Y344318D01*
X99917Y344736D01*
X100489Y345169D01*
X101050Y345615D01*
X101600Y346075D01*
X102187Y346379D01*
X102781Y346668D01*
X103383Y346943D01*
X103990Y347203D01*
X104605Y347448D01*
X105224Y347678D01*
X105850Y347893D01*
X106480Y348092D01*
X107115Y348276D01*
X107754Y348444D01*
X108398Y348597D01*
X109045Y348733D01*
X109695Y348854D01*
X110347Y348959D01*
X111002Y349048D01*
X111660Y349121D01*
X112318Y349177D01*
X112978Y349218D01*
X113639Y349242D01*
X114300Y349250D01*
X180975Y349250D01*
X181086Y349248D01*
X181196Y349242D01*
X181307Y349233D01*
X181417Y349219D01*
X181526Y349202D01*
X181635Y349181D01*
X181743Y349156D01*
X181850Y349127D01*
X181956Y349095D01*
X182061Y349059D01*
X182164Y349019D01*
X182266Y348976D01*
X182367Y348929D01*
X182466Y348878D01*
X182563Y348825D01*
X182657Y348768D01*
X182750Y348707D01*
X182841Y348644D01*
X182930Y348577D01*
X183016Y348507D01*
X183099Y348434D01*
X183181Y348359D01*
X183259Y348281D01*
X183334Y348199D01*
X183407Y348116D01*
X183477Y348030D01*
X183544Y347941D01*
X183607Y347850D01*
X183668Y347757D01*
X183725Y347663D01*
X183778Y347566D01*
X183829Y347467D01*
X183876Y347366D01*
X183919Y347264D01*
X183959Y347161D01*
X183995Y347056D01*
X184027Y346950D01*
X184056Y346843D01*
X184081Y346735D01*
X184102Y346626D01*
X184119Y346517D01*
X184133Y346407D01*
X184142Y346296D01*
X184148Y346186D01*
X184150Y346075D01*
X190500Y298450D02*
X209550Y298450D01*
X190500Y298450D02*
X190342Y298452D01*
X190183Y298458D01*
X190025Y298468D01*
X189868Y298482D01*
X189710Y298499D01*
X189554Y298521D01*
X189397Y298546D01*
X189242Y298576D01*
X189087Y298609D01*
X188933Y298646D01*
X188780Y298687D01*
X188628Y298732D01*
X188478Y298781D01*
X188328Y298833D01*
X188180Y298889D01*
X188033Y298949D01*
X187888Y299012D01*
X187745Y299079D01*
X187603Y299149D01*
X187463Y299223D01*
X187325Y299301D01*
X187189Y299382D01*
X187055Y299466D01*
X186923Y299553D01*
X186793Y299644D01*
X186666Y299738D01*
X186541Y299835D01*
X186418Y299936D01*
X186298Y300039D01*
X186181Y300145D01*
X186066Y300254D01*
X185954Y300366D01*
X185845Y300481D01*
X185739Y300598D01*
X185636Y300718D01*
X185535Y300841D01*
X185438Y300966D01*
X185344Y301093D01*
X185253Y301223D01*
X185166Y301355D01*
X185082Y301489D01*
X185001Y301625D01*
X184923Y301763D01*
X184849Y301903D01*
X184779Y302045D01*
X184712Y302188D01*
X184649Y302333D01*
X184589Y302480D01*
X184533Y302628D01*
X184481Y302778D01*
X184432Y302928D01*
X184387Y303080D01*
X184346Y303233D01*
X184309Y303387D01*
X184276Y303542D01*
X184246Y303697D01*
X184221Y303854D01*
X184199Y304010D01*
X184182Y304168D01*
X184168Y304325D01*
X184158Y304483D01*
X184152Y304642D01*
X184150Y304800D01*
X184150Y346075D01*
D17*
X209550Y298450D03*
D15*
X158750Y304800D02*
X158750Y330200D01*
X158750Y304800D02*
X158750Y276225D01*
X171450Y311150D02*
X171450Y330200D01*
X171450Y311150D02*
X171448Y310992D01*
X171442Y310833D01*
X171432Y310675D01*
X171418Y310518D01*
X171401Y310360D01*
X171379Y310204D01*
X171354Y310047D01*
X171324Y309892D01*
X171291Y309737D01*
X171254Y309583D01*
X171213Y309430D01*
X171168Y309278D01*
X171119Y309128D01*
X171067Y308978D01*
X171011Y308830D01*
X170951Y308683D01*
X170888Y308538D01*
X170821Y308395D01*
X170751Y308253D01*
X170677Y308113D01*
X170599Y307975D01*
X170518Y307839D01*
X170434Y307705D01*
X170347Y307573D01*
X170256Y307443D01*
X170162Y307316D01*
X170065Y307191D01*
X169964Y307068D01*
X169861Y306948D01*
X169755Y306831D01*
X169646Y306716D01*
X169534Y306604D01*
X169419Y306495D01*
X169302Y306389D01*
X169182Y306286D01*
X169059Y306185D01*
X168934Y306088D01*
X168807Y305994D01*
X168677Y305903D01*
X168545Y305816D01*
X168411Y305732D01*
X168275Y305651D01*
X168137Y305573D01*
X167997Y305499D01*
X167855Y305429D01*
X167712Y305362D01*
X167567Y305299D01*
X167420Y305239D01*
X167272Y305183D01*
X167122Y305131D01*
X166972Y305082D01*
X166820Y305037D01*
X166667Y304996D01*
X166513Y304959D01*
X166358Y304926D01*
X166203Y304896D01*
X166046Y304871D01*
X165890Y304849D01*
X165732Y304832D01*
X165575Y304818D01*
X165417Y304808D01*
X165258Y304802D01*
X165100Y304800D01*
X158750Y304800D01*
X171450Y381000D02*
X171450Y434975D01*
X146050Y434975D01*
X158750Y400050D02*
X158750Y381000D01*
X158750Y400050D02*
X158748Y400208D01*
X158742Y400367D01*
X158732Y400525D01*
X158718Y400682D01*
X158701Y400840D01*
X158679Y400996D01*
X158654Y401153D01*
X158624Y401308D01*
X158591Y401463D01*
X158554Y401617D01*
X158513Y401770D01*
X158468Y401922D01*
X158419Y402072D01*
X158367Y402222D01*
X158311Y402370D01*
X158251Y402517D01*
X158188Y402662D01*
X158121Y402805D01*
X158051Y402947D01*
X157977Y403087D01*
X157899Y403225D01*
X157818Y403361D01*
X157734Y403495D01*
X157647Y403627D01*
X157556Y403757D01*
X157462Y403884D01*
X157365Y404009D01*
X157264Y404132D01*
X157161Y404252D01*
X157055Y404369D01*
X156946Y404484D01*
X156834Y404596D01*
X156719Y404705D01*
X156602Y404811D01*
X156482Y404914D01*
X156359Y405015D01*
X156234Y405112D01*
X156107Y405206D01*
X155977Y405297D01*
X155845Y405384D01*
X155711Y405468D01*
X155575Y405549D01*
X155437Y405627D01*
X155297Y405701D01*
X155155Y405771D01*
X155012Y405838D01*
X154867Y405901D01*
X154720Y405961D01*
X154572Y406017D01*
X154422Y406069D01*
X154272Y406118D01*
X154120Y406163D01*
X153967Y406204D01*
X153813Y406241D01*
X153658Y406274D01*
X153503Y406304D01*
X153346Y406329D01*
X153190Y406351D01*
X153032Y406368D01*
X152875Y406382D01*
X152717Y406392D01*
X152558Y406398D01*
X152400Y406400D01*
X82550Y387350D02*
X82550Y434975D01*
X120650Y434975D01*
X127000Y406400D02*
X152400Y406400D01*
X127000Y406400D02*
X126842Y406402D01*
X126683Y406408D01*
X126525Y406418D01*
X126368Y406432D01*
X126210Y406449D01*
X126054Y406471D01*
X125897Y406496D01*
X125742Y406526D01*
X125587Y406559D01*
X125433Y406596D01*
X125280Y406637D01*
X125128Y406682D01*
X124978Y406731D01*
X124828Y406783D01*
X124680Y406839D01*
X124533Y406899D01*
X124388Y406962D01*
X124245Y407029D01*
X124103Y407099D01*
X123963Y407173D01*
X123825Y407251D01*
X123689Y407332D01*
X123555Y407416D01*
X123423Y407503D01*
X123293Y407594D01*
X123166Y407688D01*
X123041Y407785D01*
X122918Y407886D01*
X122798Y407989D01*
X122681Y408095D01*
X122566Y408204D01*
X122454Y408316D01*
X122345Y408431D01*
X122239Y408548D01*
X122136Y408668D01*
X122035Y408791D01*
X121938Y408916D01*
X121844Y409043D01*
X121753Y409173D01*
X121666Y409305D01*
X121582Y409439D01*
X121501Y409575D01*
X121423Y409713D01*
X121349Y409853D01*
X121279Y409995D01*
X121212Y410138D01*
X121149Y410283D01*
X121089Y410430D01*
X121033Y410578D01*
X120981Y410728D01*
X120932Y410878D01*
X120887Y411030D01*
X120846Y411183D01*
X120809Y411337D01*
X120776Y411492D01*
X120746Y411647D01*
X120721Y411804D01*
X120699Y411960D01*
X120682Y412118D01*
X120668Y412275D01*
X120658Y412433D01*
X120652Y412592D01*
X120650Y412750D01*
X120650Y434975D01*
D18*
X196850Y403225D02*
X196850Y381000D01*
D17*
X196850Y403225D03*
D15*
X184150Y409575D02*
X184150Y381000D01*
X184150Y409575D02*
X184152Y409733D01*
X184158Y409892D01*
X184168Y410050D01*
X184182Y410207D01*
X184199Y410365D01*
X184221Y410521D01*
X184246Y410678D01*
X184276Y410833D01*
X184309Y410988D01*
X184346Y411142D01*
X184387Y411295D01*
X184432Y411447D01*
X184481Y411597D01*
X184533Y411747D01*
X184589Y411895D01*
X184649Y412042D01*
X184712Y412187D01*
X184779Y412330D01*
X184849Y412472D01*
X184923Y412612D01*
X185001Y412750D01*
X185082Y412886D01*
X185166Y413020D01*
X185253Y413152D01*
X185344Y413282D01*
X185438Y413409D01*
X185535Y413534D01*
X185636Y413657D01*
X185739Y413777D01*
X185845Y413894D01*
X185954Y414009D01*
X186066Y414121D01*
X186181Y414230D01*
X186298Y414336D01*
X186418Y414439D01*
X186541Y414540D01*
X186666Y414637D01*
X186793Y414731D01*
X186923Y414822D01*
X187055Y414909D01*
X187189Y414993D01*
X187325Y415074D01*
X187463Y415152D01*
X187603Y415226D01*
X187745Y415296D01*
X187888Y415363D01*
X188033Y415426D01*
X188180Y415486D01*
X188328Y415542D01*
X188478Y415594D01*
X188628Y415643D01*
X188780Y415688D01*
X188933Y415729D01*
X189087Y415766D01*
X189242Y415799D01*
X189397Y415829D01*
X189554Y415854D01*
X189710Y415876D01*
X189868Y415893D01*
X190025Y415907D01*
X190183Y415917D01*
X190342Y415923D01*
X190500Y415925D01*
X222250Y415925D01*
X228600Y415925D01*
X228758Y415923D01*
X228917Y415917D01*
X229075Y415907D01*
X229232Y415893D01*
X229390Y415876D01*
X229546Y415854D01*
X229703Y415829D01*
X229858Y415799D01*
X230013Y415766D01*
X230167Y415729D01*
X230320Y415688D01*
X230472Y415643D01*
X230622Y415594D01*
X230772Y415542D01*
X230920Y415486D01*
X231067Y415426D01*
X231212Y415363D01*
X231355Y415296D01*
X231497Y415226D01*
X231637Y415152D01*
X231775Y415074D01*
X231911Y414993D01*
X232045Y414909D01*
X232177Y414822D01*
X232307Y414731D01*
X232434Y414637D01*
X232559Y414540D01*
X232682Y414439D01*
X232802Y414336D01*
X232919Y414230D01*
X233034Y414121D01*
X233146Y414009D01*
X233255Y413894D01*
X233361Y413777D01*
X233464Y413657D01*
X233565Y413534D01*
X233662Y413409D01*
X233756Y413282D01*
X233847Y413152D01*
X233934Y413020D01*
X234018Y412886D01*
X234099Y412750D01*
X234177Y412612D01*
X234251Y412472D01*
X234321Y412330D01*
X234388Y412187D01*
X234451Y412042D01*
X234511Y411895D01*
X234567Y411747D01*
X234619Y411597D01*
X234668Y411447D01*
X234713Y411295D01*
X234754Y411142D01*
X234791Y410988D01*
X234824Y410833D01*
X234854Y410678D01*
X234879Y410521D01*
X234901Y410365D01*
X234918Y410207D01*
X234932Y410050D01*
X234942Y409892D01*
X234948Y409733D01*
X234950Y409575D01*
X234950Y381000D01*
X222250Y381000D02*
X222250Y415925D01*
D18*
X196850Y330200D02*
X196850Y311150D01*
D15*
X285750Y311150D02*
X285750Y330200D01*
X57150Y434975D02*
X38100Y434975D01*
X38100Y276225D02*
X57150Y276225D01*
X196850Y434975D02*
X260350Y434975D01*
X260508Y434973D01*
X260667Y434967D01*
X260825Y434957D01*
X260982Y434943D01*
X261140Y434926D01*
X261296Y434904D01*
X261453Y434879D01*
X261608Y434849D01*
X261763Y434816D01*
X261917Y434779D01*
X262070Y434738D01*
X262222Y434693D01*
X262372Y434644D01*
X262522Y434592D01*
X262670Y434536D01*
X262817Y434476D01*
X262962Y434413D01*
X263105Y434346D01*
X263247Y434276D01*
X263387Y434202D01*
X263525Y434124D01*
X263661Y434043D01*
X263795Y433959D01*
X263927Y433872D01*
X264057Y433781D01*
X264184Y433687D01*
X264309Y433590D01*
X264432Y433489D01*
X264552Y433386D01*
X264669Y433280D01*
X264784Y433171D01*
X264896Y433059D01*
X265005Y432944D01*
X265111Y432827D01*
X265214Y432707D01*
X265315Y432584D01*
X265412Y432459D01*
X265506Y432332D01*
X265597Y432202D01*
X265684Y432070D01*
X265768Y431936D01*
X265849Y431800D01*
X265927Y431662D01*
X266001Y431522D01*
X266071Y431380D01*
X266138Y431237D01*
X266201Y431092D01*
X266261Y430945D01*
X266317Y430797D01*
X266369Y430647D01*
X266418Y430497D01*
X266463Y430345D01*
X266504Y430192D01*
X266541Y430038D01*
X266574Y429883D01*
X266604Y429728D01*
X266629Y429571D01*
X266651Y429415D01*
X266668Y429257D01*
X266682Y429100D01*
X266692Y428942D01*
X266698Y428783D01*
X266700Y428625D01*
X266700Y390525D01*
D16*
X377825Y317500D03*
D17*
X196850Y311150D03*
X285750Y311150D03*
X38100Y434975D03*
X38100Y276225D03*
X266700Y390525D03*
D15*
X285750Y596900D02*
X377825Y596900D01*
X241300Y596900D02*
X241142Y596898D01*
X240983Y596892D01*
X240825Y596882D01*
X240668Y596868D01*
X240510Y596851D01*
X240354Y596829D01*
X240197Y596804D01*
X240042Y596774D01*
X239887Y596741D01*
X239733Y596704D01*
X239580Y596663D01*
X239428Y596618D01*
X239278Y596569D01*
X239128Y596517D01*
X238980Y596461D01*
X238833Y596401D01*
X238688Y596338D01*
X238545Y596271D01*
X238403Y596201D01*
X238263Y596127D01*
X238125Y596049D01*
X237989Y595968D01*
X237855Y595884D01*
X237723Y595797D01*
X237593Y595706D01*
X237466Y595612D01*
X237341Y595515D01*
X237218Y595414D01*
X237098Y595311D01*
X236981Y595205D01*
X236866Y595096D01*
X236754Y594984D01*
X236645Y594869D01*
X236539Y594752D01*
X236436Y594632D01*
X236335Y594509D01*
X236238Y594384D01*
X236144Y594257D01*
X236053Y594127D01*
X235966Y593995D01*
X235882Y593861D01*
X235801Y593725D01*
X235723Y593587D01*
X235649Y593447D01*
X235579Y593305D01*
X235512Y593162D01*
X235449Y593017D01*
X235389Y592870D01*
X235333Y592722D01*
X235281Y592572D01*
X235232Y592422D01*
X235187Y592270D01*
X235146Y592117D01*
X235109Y591963D01*
X235076Y591808D01*
X235046Y591653D01*
X235021Y591496D01*
X234999Y591340D01*
X234982Y591182D01*
X234968Y591025D01*
X234958Y590867D01*
X234952Y590708D01*
X234950Y590550D01*
X241300Y596900D02*
X285750Y596900D01*
X234950Y590550D02*
X234950Y555080D01*
X234952Y554924D01*
X234958Y554768D01*
X234967Y554613D01*
X234981Y554457D01*
X234998Y554302D01*
X235019Y554148D01*
X235044Y553994D01*
X235072Y553841D01*
X235104Y553688D01*
X235140Y553537D01*
X235180Y553386D01*
X235223Y553236D01*
X235271Y553088D01*
X235321Y552941D01*
X235376Y552794D01*
X235433Y552650D01*
X235495Y552507D01*
X235560Y552365D01*
X235628Y552225D01*
X235700Y552086D01*
X235775Y551950D01*
X235854Y551815D01*
X235935Y551683D01*
X236020Y551552D01*
X236108Y551423D01*
X236200Y551297D01*
X236294Y551173D01*
X236392Y551051D01*
X236492Y550932D01*
X236595Y550815D01*
X236701Y550701D01*
X236810Y550590D01*
X245790Y541610D01*
X245899Y541499D01*
X246005Y541385D01*
X246108Y541268D01*
X246208Y541149D01*
X246306Y541027D01*
X246400Y540903D01*
X246492Y540777D01*
X246580Y540648D01*
X246665Y540517D01*
X246746Y540385D01*
X246825Y540250D01*
X246900Y540114D01*
X246972Y539975D01*
X247040Y539835D01*
X247105Y539693D01*
X247167Y539550D01*
X247224Y539406D01*
X247279Y539259D01*
X247329Y539112D01*
X247377Y538964D01*
X247420Y538814D01*
X247460Y538663D01*
X247496Y538512D01*
X247528Y538359D01*
X247556Y538206D01*
X247581Y538052D01*
X247602Y537898D01*
X247619Y537743D01*
X247633Y537587D01*
X247642Y537432D01*
X247648Y537276D01*
X247650Y537120D01*
X247650Y517525D01*
D16*
X377825Y596900D03*
X377825Y635000D03*
D15*
X222250Y571500D02*
X222250Y517525D01*
X184150Y517525D01*
X203200Y596900D02*
X82550Y596900D01*
X203200Y596900D02*
X203358Y596898D01*
X203517Y596892D01*
X203675Y596882D01*
X203832Y596868D01*
X203990Y596851D01*
X204146Y596829D01*
X204303Y596804D01*
X204458Y596774D01*
X204613Y596741D01*
X204767Y596704D01*
X204920Y596663D01*
X205072Y596618D01*
X205222Y596569D01*
X205372Y596517D01*
X205520Y596461D01*
X205667Y596401D01*
X205812Y596338D01*
X205955Y596271D01*
X206097Y596201D01*
X206237Y596127D01*
X206375Y596049D01*
X206511Y595968D01*
X206645Y595884D01*
X206777Y595797D01*
X206907Y595706D01*
X207034Y595612D01*
X207159Y595515D01*
X207282Y595414D01*
X207402Y595311D01*
X207519Y595205D01*
X207634Y595096D01*
X207746Y594984D01*
X207855Y594869D01*
X207961Y594752D01*
X208064Y594632D01*
X208165Y594509D01*
X208262Y594384D01*
X208356Y594257D01*
X208447Y594127D01*
X208534Y593995D01*
X208618Y593861D01*
X208699Y593725D01*
X208777Y593587D01*
X208851Y593447D01*
X208921Y593305D01*
X208988Y593162D01*
X209051Y593017D01*
X209111Y592870D01*
X209167Y592722D01*
X209219Y592572D01*
X209268Y592422D01*
X209313Y592270D01*
X209354Y592117D01*
X209391Y591963D01*
X209424Y591808D01*
X209454Y591653D01*
X209479Y591496D01*
X209501Y591340D01*
X209518Y591182D01*
X209532Y591025D01*
X209542Y590867D01*
X209548Y590708D01*
X209550Y590550D01*
X209550Y571500D01*
X82550Y565150D02*
X82550Y517525D01*
X209550Y606425D02*
X209550Y622300D01*
X209550Y606425D02*
X209548Y606314D01*
X209542Y606204D01*
X209533Y606093D01*
X209519Y605983D01*
X209502Y605874D01*
X209481Y605765D01*
X209456Y605657D01*
X209427Y605550D01*
X209395Y605444D01*
X209359Y605339D01*
X209319Y605235D01*
X209276Y605133D01*
X209229Y605033D01*
X209179Y604934D01*
X209125Y604837D01*
X209068Y604742D01*
X209008Y604649D01*
X208944Y604559D01*
X208877Y604470D01*
X208807Y604384D01*
X208735Y604300D01*
X208659Y604219D01*
X208581Y604141D01*
X208500Y604065D01*
X208416Y603993D01*
X208330Y603923D01*
X208241Y603856D01*
X208151Y603792D01*
X208058Y603732D01*
X207963Y603675D01*
X207866Y603621D01*
X207767Y603571D01*
X207667Y603524D01*
X207565Y603481D01*
X207461Y603441D01*
X207356Y603405D01*
X207250Y603373D01*
X207143Y603344D01*
X207035Y603319D01*
X206926Y603298D01*
X206817Y603281D01*
X206707Y603267D01*
X206596Y603258D01*
X206486Y603252D01*
X206375Y603250D01*
X114300Y603250D01*
X113639Y603258D01*
X112978Y603282D01*
X112319Y603323D01*
X111660Y603379D01*
X111003Y603452D01*
X110348Y603541D01*
X109695Y603646D01*
X109045Y603767D01*
X108398Y603903D01*
X107755Y604056D01*
X107115Y604224D01*
X106480Y604408D01*
X105850Y604607D01*
X105225Y604822D01*
X104605Y605052D01*
X103991Y605297D01*
X103383Y605557D01*
X102782Y605832D01*
X102187Y606121D01*
X101600Y606425D01*
X101050Y606885D01*
X100489Y607331D01*
X99917Y607764D01*
X99334Y608182D01*
X98742Y608586D01*
X98140Y608975D01*
X97528Y609350D01*
X96907Y609709D01*
X96278Y610053D01*
X95641Y610382D01*
X94996Y610694D01*
X94343Y610991D01*
X93683Y611272D01*
X93017Y611537D01*
X92344Y611785D01*
X91665Y612017D01*
X90981Y612232D01*
X90292Y612430D01*
X89598Y612611D01*
X88900Y612775D01*
X76200Y612775D01*
X75966Y612772D01*
X75733Y612763D01*
X75499Y612749D01*
X75266Y612729D01*
X75034Y612703D01*
X74802Y612672D01*
X74572Y612634D01*
X74342Y612592D01*
X74113Y612543D01*
X73886Y612489D01*
X73660Y612430D01*
X73435Y612364D01*
X73212Y612294D01*
X72991Y612218D01*
X72772Y612136D01*
X72555Y612049D01*
X72340Y611957D01*
X72128Y611860D01*
X71918Y611757D01*
X71710Y611650D01*
X71506Y611537D01*
X71304Y611419D01*
X71105Y611297D01*
X70909Y611169D01*
X70716Y611037D01*
X70526Y610900D01*
X70340Y610758D01*
X70158Y610612D01*
X69979Y610462D01*
X69804Y610307D01*
X69633Y610148D01*
X69465Y609985D01*
X69302Y609817D01*
X69143Y609646D01*
X68988Y609471D01*
X68838Y609292D01*
X68692Y609110D01*
X68550Y608924D01*
X68413Y608734D01*
X68281Y608541D01*
X68153Y608345D01*
X68031Y608146D01*
X67913Y607944D01*
X67800Y607740D01*
X67693Y607532D01*
X67590Y607322D01*
X67493Y607110D01*
X67401Y606895D01*
X67314Y606678D01*
X67232Y606459D01*
X67156Y606238D01*
X67086Y606015D01*
X67020Y605790D01*
X66961Y605564D01*
X66907Y605337D01*
X66858Y605108D01*
X66816Y604878D01*
X66778Y604648D01*
X66747Y604416D01*
X66721Y604184D01*
X66701Y603951D01*
X66687Y603717D01*
X66678Y603484D01*
X66675Y603250D01*
X66675Y590550D01*
X66678Y590316D01*
X66687Y590083D01*
X66701Y589849D01*
X66721Y589616D01*
X66747Y589384D01*
X66778Y589152D01*
X66815Y588922D01*
X66858Y588692D01*
X66907Y588463D01*
X66961Y588236D01*
X67020Y588010D01*
X67085Y587785D01*
X67156Y587562D01*
X67232Y587341D01*
X67314Y587122D01*
X67400Y586905D01*
X67492Y586690D01*
X67590Y586478D01*
X67692Y586268D01*
X67800Y586060D01*
X67913Y585855D01*
X68030Y585653D01*
X68153Y585454D01*
X68281Y585258D01*
X68413Y585066D01*
X68550Y584876D01*
X68691Y584690D01*
X68837Y584508D01*
X68988Y584329D01*
X69143Y584154D01*
X69302Y583982D01*
X69465Y583815D01*
X69632Y583652D01*
X69804Y583493D01*
X69979Y583338D01*
X70158Y583187D01*
X70340Y583041D01*
X70526Y582900D01*
X70716Y582763D01*
X70908Y582631D01*
X71104Y582503D01*
X71303Y582380D01*
X71505Y582263D01*
X71710Y582150D01*
X71918Y582042D01*
X72128Y581940D01*
X72340Y581842D01*
X72555Y581750D01*
X72772Y581664D01*
X72991Y581582D01*
X73212Y581506D01*
X73435Y581435D01*
X73660Y581370D01*
X73886Y581311D01*
X74113Y581257D01*
X74342Y581208D01*
X74572Y581165D01*
X74802Y581128D01*
X75034Y581097D01*
X75266Y581071D01*
X75499Y581051D01*
X75733Y581037D01*
X75966Y581028D01*
X76200Y581025D01*
X88900Y581025D01*
X89598Y581189D01*
X90292Y581370D01*
X90981Y581568D01*
X91665Y581783D01*
X92344Y582015D01*
X93017Y582263D01*
X93683Y582528D01*
X94343Y582809D01*
X94996Y583106D01*
X95641Y583418D01*
X96278Y583747D01*
X96907Y584091D01*
X97528Y584450D01*
X98140Y584825D01*
X98742Y585214D01*
X99334Y585618D01*
X99917Y586036D01*
X100489Y586469D01*
X101050Y586915D01*
X101600Y587375D01*
X102187Y587679D01*
X102781Y587968D01*
X103383Y588243D01*
X103990Y588503D01*
X104605Y588748D01*
X105224Y588978D01*
X105850Y589193D01*
X106480Y589392D01*
X107115Y589576D01*
X107754Y589744D01*
X108398Y589897D01*
X109045Y590033D01*
X109695Y590154D01*
X110347Y590259D01*
X111002Y590348D01*
X111660Y590421D01*
X112318Y590477D01*
X112978Y590518D01*
X113639Y590542D01*
X114300Y590550D01*
X180975Y590550D01*
X181086Y590548D01*
X181196Y590542D01*
X181307Y590533D01*
X181417Y590519D01*
X181526Y590502D01*
X181635Y590481D01*
X181743Y590456D01*
X181850Y590427D01*
X181956Y590395D01*
X182061Y590359D01*
X182164Y590319D01*
X182266Y590276D01*
X182367Y590229D01*
X182466Y590178D01*
X182563Y590125D01*
X182657Y590068D01*
X182750Y590007D01*
X182841Y589944D01*
X182930Y589877D01*
X183016Y589807D01*
X183099Y589734D01*
X183181Y589659D01*
X183259Y589581D01*
X183334Y589499D01*
X183407Y589416D01*
X183477Y589330D01*
X183544Y589241D01*
X183607Y589150D01*
X183668Y589057D01*
X183725Y588963D01*
X183778Y588866D01*
X183829Y588767D01*
X183876Y588666D01*
X183919Y588564D01*
X183959Y588461D01*
X183995Y588356D01*
X184027Y588250D01*
X184056Y588143D01*
X184081Y588035D01*
X184102Y587926D01*
X184119Y587817D01*
X184133Y587707D01*
X184142Y587596D01*
X184148Y587486D01*
X184150Y587375D01*
X190500Y539750D02*
X209550Y539750D01*
X190500Y539750D02*
X190342Y539752D01*
X190183Y539758D01*
X190025Y539768D01*
X189868Y539782D01*
X189710Y539799D01*
X189554Y539821D01*
X189397Y539846D01*
X189242Y539876D01*
X189087Y539909D01*
X188933Y539946D01*
X188780Y539987D01*
X188628Y540032D01*
X188478Y540081D01*
X188328Y540133D01*
X188180Y540189D01*
X188033Y540249D01*
X187888Y540312D01*
X187745Y540379D01*
X187603Y540449D01*
X187463Y540523D01*
X187325Y540601D01*
X187189Y540682D01*
X187055Y540766D01*
X186923Y540853D01*
X186793Y540944D01*
X186666Y541038D01*
X186541Y541135D01*
X186418Y541236D01*
X186298Y541339D01*
X186181Y541445D01*
X186066Y541554D01*
X185954Y541666D01*
X185845Y541781D01*
X185739Y541898D01*
X185636Y542018D01*
X185535Y542141D01*
X185438Y542266D01*
X185344Y542393D01*
X185253Y542523D01*
X185166Y542655D01*
X185082Y542789D01*
X185001Y542925D01*
X184923Y543063D01*
X184849Y543203D01*
X184779Y543345D01*
X184712Y543488D01*
X184649Y543633D01*
X184589Y543780D01*
X184533Y543928D01*
X184481Y544078D01*
X184432Y544228D01*
X184387Y544380D01*
X184346Y544533D01*
X184309Y544687D01*
X184276Y544842D01*
X184246Y544997D01*
X184221Y545154D01*
X184199Y545310D01*
X184182Y545468D01*
X184168Y545625D01*
X184158Y545783D01*
X184152Y545942D01*
X184150Y546100D01*
X184150Y587375D01*
D17*
X209550Y539750D03*
D15*
X158750Y546100D02*
X158750Y571500D01*
X158750Y546100D02*
X158750Y517525D01*
X171450Y552450D02*
X171450Y571500D01*
X171450Y552450D02*
X171448Y552292D01*
X171442Y552133D01*
X171432Y551975D01*
X171418Y551818D01*
X171401Y551660D01*
X171379Y551504D01*
X171354Y551347D01*
X171324Y551192D01*
X171291Y551037D01*
X171254Y550883D01*
X171213Y550730D01*
X171168Y550578D01*
X171119Y550428D01*
X171067Y550278D01*
X171011Y550130D01*
X170951Y549983D01*
X170888Y549838D01*
X170821Y549695D01*
X170751Y549553D01*
X170677Y549413D01*
X170599Y549275D01*
X170518Y549139D01*
X170434Y549005D01*
X170347Y548873D01*
X170256Y548743D01*
X170162Y548616D01*
X170065Y548491D01*
X169964Y548368D01*
X169861Y548248D01*
X169755Y548131D01*
X169646Y548016D01*
X169534Y547904D01*
X169419Y547795D01*
X169302Y547689D01*
X169182Y547586D01*
X169059Y547485D01*
X168934Y547388D01*
X168807Y547294D01*
X168677Y547203D01*
X168545Y547116D01*
X168411Y547032D01*
X168275Y546951D01*
X168137Y546873D01*
X167997Y546799D01*
X167855Y546729D01*
X167712Y546662D01*
X167567Y546599D01*
X167420Y546539D01*
X167272Y546483D01*
X167122Y546431D01*
X166972Y546382D01*
X166820Y546337D01*
X166667Y546296D01*
X166513Y546259D01*
X166358Y546226D01*
X166203Y546196D01*
X166046Y546171D01*
X165890Y546149D01*
X165732Y546132D01*
X165575Y546118D01*
X165417Y546108D01*
X165258Y546102D01*
X165100Y546100D01*
X158750Y546100D01*
X171450Y622300D02*
X171450Y676275D01*
X146050Y676275D01*
X158750Y641350D02*
X158750Y622300D01*
X158750Y641350D02*
X158748Y641508D01*
X158742Y641667D01*
X158732Y641825D01*
X158718Y641982D01*
X158701Y642140D01*
X158679Y642296D01*
X158654Y642453D01*
X158624Y642608D01*
X158591Y642763D01*
X158554Y642917D01*
X158513Y643070D01*
X158468Y643222D01*
X158419Y643372D01*
X158367Y643522D01*
X158311Y643670D01*
X158251Y643817D01*
X158188Y643962D01*
X158121Y644105D01*
X158051Y644247D01*
X157977Y644387D01*
X157899Y644525D01*
X157818Y644661D01*
X157734Y644795D01*
X157647Y644927D01*
X157556Y645057D01*
X157462Y645184D01*
X157365Y645309D01*
X157264Y645432D01*
X157161Y645552D01*
X157055Y645669D01*
X156946Y645784D01*
X156834Y645896D01*
X156719Y646005D01*
X156602Y646111D01*
X156482Y646214D01*
X156359Y646315D01*
X156234Y646412D01*
X156107Y646506D01*
X155977Y646597D01*
X155845Y646684D01*
X155711Y646768D01*
X155575Y646849D01*
X155437Y646927D01*
X155297Y647001D01*
X155155Y647071D01*
X155012Y647138D01*
X154867Y647201D01*
X154720Y647261D01*
X154572Y647317D01*
X154422Y647369D01*
X154272Y647418D01*
X154120Y647463D01*
X153967Y647504D01*
X153813Y647541D01*
X153658Y647574D01*
X153503Y647604D01*
X153346Y647629D01*
X153190Y647651D01*
X153032Y647668D01*
X152875Y647682D01*
X152717Y647692D01*
X152558Y647698D01*
X152400Y647700D01*
X82550Y628650D02*
X82550Y676275D01*
X120650Y676275D01*
X127000Y647700D02*
X152400Y647700D01*
X127000Y647700D02*
X126842Y647702D01*
X126683Y647708D01*
X126525Y647718D01*
X126368Y647732D01*
X126210Y647749D01*
X126054Y647771D01*
X125897Y647796D01*
X125742Y647826D01*
X125587Y647859D01*
X125433Y647896D01*
X125280Y647937D01*
X125128Y647982D01*
X124978Y648031D01*
X124828Y648083D01*
X124680Y648139D01*
X124533Y648199D01*
X124388Y648262D01*
X124245Y648329D01*
X124103Y648399D01*
X123963Y648473D01*
X123825Y648551D01*
X123689Y648632D01*
X123555Y648716D01*
X123423Y648803D01*
X123293Y648894D01*
X123166Y648988D01*
X123041Y649085D01*
X122918Y649186D01*
X122798Y649289D01*
X122681Y649395D01*
X122566Y649504D01*
X122454Y649616D01*
X122345Y649731D01*
X122239Y649848D01*
X122136Y649968D01*
X122035Y650091D01*
X121938Y650216D01*
X121844Y650343D01*
X121753Y650473D01*
X121666Y650605D01*
X121582Y650739D01*
X121501Y650875D01*
X121423Y651013D01*
X121349Y651153D01*
X121279Y651295D01*
X121212Y651438D01*
X121149Y651583D01*
X121089Y651730D01*
X121033Y651878D01*
X120981Y652028D01*
X120932Y652178D01*
X120887Y652330D01*
X120846Y652483D01*
X120809Y652637D01*
X120776Y652792D01*
X120746Y652947D01*
X120721Y653104D01*
X120699Y653260D01*
X120682Y653418D01*
X120668Y653575D01*
X120658Y653733D01*
X120652Y653892D01*
X120650Y654050D01*
X120650Y676275D01*
D18*
X196850Y644525D02*
X196850Y622300D01*
D17*
X196850Y644525D03*
D15*
X184150Y650875D02*
X184150Y622300D01*
X184150Y650875D02*
X184152Y651033D01*
X184158Y651192D01*
X184168Y651350D01*
X184182Y651507D01*
X184199Y651665D01*
X184221Y651821D01*
X184246Y651978D01*
X184276Y652133D01*
X184309Y652288D01*
X184346Y652442D01*
X184387Y652595D01*
X184432Y652747D01*
X184481Y652897D01*
X184533Y653047D01*
X184589Y653195D01*
X184649Y653342D01*
X184712Y653487D01*
X184779Y653630D01*
X184849Y653772D01*
X184923Y653912D01*
X185001Y654050D01*
X185082Y654186D01*
X185166Y654320D01*
X185253Y654452D01*
X185344Y654582D01*
X185438Y654709D01*
X185535Y654834D01*
X185636Y654957D01*
X185739Y655077D01*
X185845Y655194D01*
X185954Y655309D01*
X186066Y655421D01*
X186181Y655530D01*
X186298Y655636D01*
X186418Y655739D01*
X186541Y655840D01*
X186666Y655937D01*
X186793Y656031D01*
X186923Y656122D01*
X187055Y656209D01*
X187189Y656293D01*
X187325Y656374D01*
X187463Y656452D01*
X187603Y656526D01*
X187745Y656596D01*
X187888Y656663D01*
X188033Y656726D01*
X188180Y656786D01*
X188328Y656842D01*
X188478Y656894D01*
X188628Y656943D01*
X188780Y656988D01*
X188933Y657029D01*
X189087Y657066D01*
X189242Y657099D01*
X189397Y657129D01*
X189554Y657154D01*
X189710Y657176D01*
X189868Y657193D01*
X190025Y657207D01*
X190183Y657217D01*
X190342Y657223D01*
X190500Y657225D01*
X222250Y657225D01*
X228600Y657225D01*
X228758Y657223D01*
X228917Y657217D01*
X229075Y657207D01*
X229232Y657193D01*
X229390Y657176D01*
X229546Y657154D01*
X229703Y657129D01*
X229858Y657099D01*
X230013Y657066D01*
X230167Y657029D01*
X230320Y656988D01*
X230472Y656943D01*
X230622Y656894D01*
X230772Y656842D01*
X230920Y656786D01*
X231067Y656726D01*
X231212Y656663D01*
X231355Y656596D01*
X231497Y656526D01*
X231637Y656452D01*
X231775Y656374D01*
X231911Y656293D01*
X232045Y656209D01*
X232177Y656122D01*
X232307Y656031D01*
X232434Y655937D01*
X232559Y655840D01*
X232682Y655739D01*
X232802Y655636D01*
X232919Y655530D01*
X233034Y655421D01*
X233146Y655309D01*
X233255Y655194D01*
X233361Y655077D01*
X233464Y654957D01*
X233565Y654834D01*
X233662Y654709D01*
X233756Y654582D01*
X233847Y654452D01*
X233934Y654320D01*
X234018Y654186D01*
X234099Y654050D01*
X234177Y653912D01*
X234251Y653772D01*
X234321Y653630D01*
X234388Y653487D01*
X234451Y653342D01*
X234511Y653195D01*
X234567Y653047D01*
X234619Y652897D01*
X234668Y652747D01*
X234713Y652595D01*
X234754Y652442D01*
X234791Y652288D01*
X234824Y652133D01*
X234854Y651978D01*
X234879Y651821D01*
X234901Y651665D01*
X234918Y651507D01*
X234932Y651350D01*
X234942Y651192D01*
X234948Y651033D01*
X234950Y650875D01*
X234950Y622300D01*
X222250Y622300D02*
X222250Y657225D01*
D18*
X196850Y571500D02*
X196850Y552450D01*
D15*
X285750Y552450D02*
X285750Y571500D01*
X57150Y676275D02*
X38100Y676275D01*
X38100Y517525D02*
X57150Y517525D01*
X196850Y676275D02*
X260350Y676275D01*
X260508Y676273D01*
X260667Y676267D01*
X260825Y676257D01*
X260982Y676243D01*
X261140Y676226D01*
X261296Y676204D01*
X261453Y676179D01*
X261608Y676149D01*
X261763Y676116D01*
X261917Y676079D01*
X262070Y676038D01*
X262222Y675993D01*
X262372Y675944D01*
X262522Y675892D01*
X262670Y675836D01*
X262817Y675776D01*
X262962Y675713D01*
X263105Y675646D01*
X263247Y675576D01*
X263387Y675502D01*
X263525Y675424D01*
X263661Y675343D01*
X263795Y675259D01*
X263927Y675172D01*
X264057Y675081D01*
X264184Y674987D01*
X264309Y674890D01*
X264432Y674789D01*
X264552Y674686D01*
X264669Y674580D01*
X264784Y674471D01*
X264896Y674359D01*
X265005Y674244D01*
X265111Y674127D01*
X265214Y674007D01*
X265315Y673884D01*
X265412Y673759D01*
X265506Y673632D01*
X265597Y673502D01*
X265684Y673370D01*
X265768Y673236D01*
X265849Y673100D01*
X265927Y672962D01*
X266001Y672822D01*
X266071Y672680D01*
X266138Y672537D01*
X266201Y672392D01*
X266261Y672245D01*
X266317Y672097D01*
X266369Y671947D01*
X266418Y671797D01*
X266463Y671645D01*
X266504Y671492D01*
X266541Y671338D01*
X266574Y671183D01*
X266604Y671028D01*
X266629Y670871D01*
X266651Y670715D01*
X266668Y670557D01*
X266682Y670400D01*
X266692Y670242D01*
X266698Y670083D01*
X266700Y669925D01*
X266700Y631825D01*
D16*
X377825Y558800D03*
D17*
X196850Y552450D03*
X285750Y552450D03*
X38100Y676275D03*
X38100Y517525D03*
X266700Y631825D03*
D15*
X704850Y596900D02*
X796925Y596900D01*
X660400Y596900D02*
X660242Y596898D01*
X660083Y596892D01*
X659925Y596882D01*
X659768Y596868D01*
X659610Y596851D01*
X659454Y596829D01*
X659297Y596804D01*
X659142Y596774D01*
X658987Y596741D01*
X658833Y596704D01*
X658680Y596663D01*
X658528Y596618D01*
X658378Y596569D01*
X658228Y596517D01*
X658080Y596461D01*
X657933Y596401D01*
X657788Y596338D01*
X657645Y596271D01*
X657503Y596201D01*
X657363Y596127D01*
X657225Y596049D01*
X657089Y595968D01*
X656955Y595884D01*
X656823Y595797D01*
X656693Y595706D01*
X656566Y595612D01*
X656441Y595515D01*
X656318Y595414D01*
X656198Y595311D01*
X656081Y595205D01*
X655966Y595096D01*
X655854Y594984D01*
X655745Y594869D01*
X655639Y594752D01*
X655536Y594632D01*
X655435Y594509D01*
X655338Y594384D01*
X655244Y594257D01*
X655153Y594127D01*
X655066Y593995D01*
X654982Y593861D01*
X654901Y593725D01*
X654823Y593587D01*
X654749Y593447D01*
X654679Y593305D01*
X654612Y593162D01*
X654549Y593017D01*
X654489Y592870D01*
X654433Y592722D01*
X654381Y592572D01*
X654332Y592422D01*
X654287Y592270D01*
X654246Y592117D01*
X654209Y591963D01*
X654176Y591808D01*
X654146Y591653D01*
X654121Y591496D01*
X654099Y591340D01*
X654082Y591182D01*
X654068Y591025D01*
X654058Y590867D01*
X654052Y590708D01*
X654050Y590550D01*
X660400Y596900D02*
X704850Y596900D01*
X654050Y590550D02*
X654050Y555080D01*
X654052Y554924D01*
X654058Y554768D01*
X654067Y554613D01*
X654081Y554457D01*
X654098Y554302D01*
X654119Y554148D01*
X654144Y553994D01*
X654172Y553841D01*
X654204Y553688D01*
X654240Y553537D01*
X654280Y553386D01*
X654323Y553236D01*
X654371Y553088D01*
X654421Y552941D01*
X654476Y552794D01*
X654533Y552650D01*
X654595Y552507D01*
X654660Y552365D01*
X654728Y552225D01*
X654800Y552086D01*
X654875Y551950D01*
X654954Y551815D01*
X655035Y551683D01*
X655120Y551552D01*
X655208Y551423D01*
X655300Y551297D01*
X655394Y551173D01*
X655492Y551051D01*
X655592Y550932D01*
X655695Y550815D01*
X655801Y550701D01*
X655910Y550590D01*
X664890Y541610D01*
X664999Y541499D01*
X665105Y541385D01*
X665208Y541268D01*
X665308Y541149D01*
X665406Y541027D01*
X665500Y540903D01*
X665592Y540777D01*
X665680Y540648D01*
X665765Y540517D01*
X665846Y540385D01*
X665925Y540250D01*
X666000Y540114D01*
X666072Y539975D01*
X666140Y539835D01*
X666205Y539693D01*
X666267Y539550D01*
X666324Y539406D01*
X666379Y539259D01*
X666429Y539112D01*
X666477Y538964D01*
X666520Y538814D01*
X666560Y538663D01*
X666596Y538512D01*
X666628Y538359D01*
X666656Y538206D01*
X666681Y538052D01*
X666702Y537898D01*
X666719Y537743D01*
X666733Y537587D01*
X666742Y537432D01*
X666748Y537276D01*
X666750Y537120D01*
X666750Y517525D01*
D16*
X796925Y596900D03*
X796925Y635000D03*
D15*
X641350Y571500D02*
X641350Y517525D01*
X603250Y517525D01*
X622300Y596900D02*
X501650Y596900D01*
X622300Y596900D02*
X622458Y596898D01*
X622617Y596892D01*
X622775Y596882D01*
X622932Y596868D01*
X623090Y596851D01*
X623246Y596829D01*
X623403Y596804D01*
X623558Y596774D01*
X623713Y596741D01*
X623867Y596704D01*
X624020Y596663D01*
X624172Y596618D01*
X624322Y596569D01*
X624472Y596517D01*
X624620Y596461D01*
X624767Y596401D01*
X624912Y596338D01*
X625055Y596271D01*
X625197Y596201D01*
X625337Y596127D01*
X625475Y596049D01*
X625611Y595968D01*
X625745Y595884D01*
X625877Y595797D01*
X626007Y595706D01*
X626134Y595612D01*
X626259Y595515D01*
X626382Y595414D01*
X626502Y595311D01*
X626619Y595205D01*
X626734Y595096D01*
X626846Y594984D01*
X626955Y594869D01*
X627061Y594752D01*
X627164Y594632D01*
X627265Y594509D01*
X627362Y594384D01*
X627456Y594257D01*
X627547Y594127D01*
X627634Y593995D01*
X627718Y593861D01*
X627799Y593725D01*
X627877Y593587D01*
X627951Y593447D01*
X628021Y593305D01*
X628088Y593162D01*
X628151Y593017D01*
X628211Y592870D01*
X628267Y592722D01*
X628319Y592572D01*
X628368Y592422D01*
X628413Y592270D01*
X628454Y592117D01*
X628491Y591963D01*
X628524Y591808D01*
X628554Y591653D01*
X628579Y591496D01*
X628601Y591340D01*
X628618Y591182D01*
X628632Y591025D01*
X628642Y590867D01*
X628648Y590708D01*
X628650Y590550D01*
X628650Y571500D01*
X501650Y565150D02*
X501650Y517525D01*
X628650Y606425D02*
X628650Y622300D01*
X628650Y606425D02*
X628648Y606314D01*
X628642Y606204D01*
X628633Y606093D01*
X628619Y605983D01*
X628602Y605874D01*
X628581Y605765D01*
X628556Y605657D01*
X628527Y605550D01*
X628495Y605444D01*
X628459Y605339D01*
X628419Y605235D01*
X628376Y605133D01*
X628329Y605033D01*
X628279Y604934D01*
X628225Y604837D01*
X628168Y604742D01*
X628108Y604649D01*
X628044Y604559D01*
X627977Y604470D01*
X627907Y604384D01*
X627835Y604300D01*
X627759Y604219D01*
X627681Y604141D01*
X627600Y604065D01*
X627516Y603993D01*
X627430Y603923D01*
X627341Y603856D01*
X627251Y603792D01*
X627158Y603732D01*
X627063Y603675D01*
X626966Y603621D01*
X626867Y603571D01*
X626767Y603524D01*
X626665Y603481D01*
X626561Y603441D01*
X626456Y603405D01*
X626350Y603373D01*
X626243Y603344D01*
X626135Y603319D01*
X626026Y603298D01*
X625917Y603281D01*
X625807Y603267D01*
X625696Y603258D01*
X625586Y603252D01*
X625475Y603250D01*
X533400Y603250D01*
X532739Y603258D01*
X532078Y603282D01*
X531419Y603323D01*
X530760Y603379D01*
X530103Y603452D01*
X529448Y603541D01*
X528795Y603646D01*
X528145Y603767D01*
X527498Y603903D01*
X526855Y604056D01*
X526215Y604224D01*
X525580Y604408D01*
X524950Y604607D01*
X524325Y604822D01*
X523705Y605052D01*
X523091Y605297D01*
X522483Y605557D01*
X521882Y605832D01*
X521287Y606121D01*
X520700Y606425D01*
X520150Y606885D01*
X519589Y607331D01*
X519017Y607764D01*
X518434Y608182D01*
X517842Y608586D01*
X517240Y608975D01*
X516628Y609350D01*
X516007Y609709D01*
X515378Y610053D01*
X514741Y610382D01*
X514096Y610694D01*
X513443Y610991D01*
X512783Y611272D01*
X512117Y611537D01*
X511444Y611785D01*
X510765Y612017D01*
X510081Y612232D01*
X509392Y612430D01*
X508698Y612611D01*
X508000Y612775D01*
X495300Y612775D01*
X495066Y612772D01*
X494833Y612763D01*
X494599Y612749D01*
X494366Y612729D01*
X494134Y612703D01*
X493902Y612672D01*
X493672Y612634D01*
X493442Y612592D01*
X493213Y612543D01*
X492986Y612489D01*
X492760Y612430D01*
X492535Y612364D01*
X492312Y612294D01*
X492091Y612218D01*
X491872Y612136D01*
X491655Y612049D01*
X491440Y611957D01*
X491228Y611860D01*
X491018Y611757D01*
X490810Y611650D01*
X490606Y611537D01*
X490404Y611419D01*
X490205Y611297D01*
X490009Y611169D01*
X489816Y611037D01*
X489626Y610900D01*
X489440Y610758D01*
X489258Y610612D01*
X489079Y610462D01*
X488904Y610307D01*
X488733Y610148D01*
X488565Y609985D01*
X488402Y609817D01*
X488243Y609646D01*
X488088Y609471D01*
X487938Y609292D01*
X487792Y609110D01*
X487650Y608924D01*
X487513Y608734D01*
X487381Y608541D01*
X487253Y608345D01*
X487131Y608146D01*
X487013Y607944D01*
X486900Y607740D01*
X486793Y607532D01*
X486690Y607322D01*
X486593Y607110D01*
X486501Y606895D01*
X486414Y606678D01*
X486332Y606459D01*
X486256Y606238D01*
X486186Y606015D01*
X486120Y605790D01*
X486061Y605564D01*
X486007Y605337D01*
X485958Y605108D01*
X485916Y604878D01*
X485878Y604648D01*
X485847Y604416D01*
X485821Y604184D01*
X485801Y603951D01*
X485787Y603717D01*
X485778Y603484D01*
X485775Y603250D01*
X485775Y590550D01*
X485778Y590316D01*
X485787Y590083D01*
X485801Y589849D01*
X485821Y589616D01*
X485847Y589384D01*
X485878Y589152D01*
X485915Y588922D01*
X485958Y588692D01*
X486007Y588463D01*
X486061Y588236D01*
X486120Y588010D01*
X486185Y587785D01*
X486256Y587562D01*
X486332Y587341D01*
X486414Y587122D01*
X486500Y586905D01*
X486592Y586690D01*
X486690Y586478D01*
X486792Y586268D01*
X486900Y586060D01*
X487013Y585855D01*
X487130Y585653D01*
X487253Y585454D01*
X487381Y585258D01*
X487513Y585066D01*
X487650Y584876D01*
X487791Y584690D01*
X487937Y584508D01*
X488088Y584329D01*
X488243Y584154D01*
X488402Y583982D01*
X488565Y583815D01*
X488732Y583652D01*
X488904Y583493D01*
X489079Y583338D01*
X489258Y583187D01*
X489440Y583041D01*
X489626Y582900D01*
X489816Y582763D01*
X490008Y582631D01*
X490204Y582503D01*
X490403Y582380D01*
X490605Y582263D01*
X490810Y582150D01*
X491018Y582042D01*
X491228Y581940D01*
X491440Y581842D01*
X491655Y581750D01*
X491872Y581664D01*
X492091Y581582D01*
X492312Y581506D01*
X492535Y581435D01*
X492760Y581370D01*
X492986Y581311D01*
X493213Y581257D01*
X493442Y581208D01*
X493672Y581165D01*
X493902Y581128D01*
X494134Y581097D01*
X494366Y581071D01*
X494599Y581051D01*
X494833Y581037D01*
X495066Y581028D01*
X495300Y581025D01*
X508000Y581025D01*
X508698Y581189D01*
X509392Y581370D01*
X510081Y581568D01*
X510765Y581783D01*
X511444Y582015D01*
X512117Y582263D01*
X512783Y582528D01*
X513443Y582809D01*
X514096Y583106D01*
X514741Y583418D01*
X515378Y583747D01*
X516007Y584091D01*
X516628Y584450D01*
X517240Y584825D01*
X517842Y585214D01*
X518434Y585618D01*
X519017Y586036D01*
X519589Y586469D01*
X520150Y586915D01*
X520700Y587375D01*
X521287Y587679D01*
X521881Y587968D01*
X522483Y588243D01*
X523090Y588503D01*
X523705Y588748D01*
X524324Y588978D01*
X524950Y589193D01*
X525580Y589392D01*
X526215Y589576D01*
X526854Y589744D01*
X527498Y589897D01*
X528145Y590033D01*
X528795Y590154D01*
X529447Y590259D01*
X530102Y590348D01*
X530760Y590421D01*
X531418Y590477D01*
X532078Y590518D01*
X532739Y590542D01*
X533400Y590550D01*
X600075Y590550D01*
X600186Y590548D01*
X600296Y590542D01*
X600407Y590533D01*
X600517Y590519D01*
X600626Y590502D01*
X600735Y590481D01*
X600843Y590456D01*
X600950Y590427D01*
X601056Y590395D01*
X601161Y590359D01*
X601264Y590319D01*
X601366Y590276D01*
X601467Y590229D01*
X601566Y590178D01*
X601663Y590125D01*
X601757Y590068D01*
X601850Y590007D01*
X601941Y589944D01*
X602030Y589877D01*
X602116Y589807D01*
X602199Y589734D01*
X602281Y589659D01*
X602359Y589581D01*
X602434Y589499D01*
X602507Y589416D01*
X602577Y589330D01*
X602644Y589241D01*
X602707Y589150D01*
X602768Y589057D01*
X602825Y588963D01*
X602878Y588866D01*
X602929Y588767D01*
X602976Y588666D01*
X603019Y588564D01*
X603059Y588461D01*
X603095Y588356D01*
X603127Y588250D01*
X603156Y588143D01*
X603181Y588035D01*
X603202Y587926D01*
X603219Y587817D01*
X603233Y587707D01*
X603242Y587596D01*
X603248Y587486D01*
X603250Y587375D01*
X609600Y539750D02*
X628650Y539750D01*
X609600Y539750D02*
X609442Y539752D01*
X609283Y539758D01*
X609125Y539768D01*
X608968Y539782D01*
X608810Y539799D01*
X608654Y539821D01*
X608497Y539846D01*
X608342Y539876D01*
X608187Y539909D01*
X608033Y539946D01*
X607880Y539987D01*
X607728Y540032D01*
X607578Y540081D01*
X607428Y540133D01*
X607280Y540189D01*
X607133Y540249D01*
X606988Y540312D01*
X606845Y540379D01*
X606703Y540449D01*
X606563Y540523D01*
X606425Y540601D01*
X606289Y540682D01*
X606155Y540766D01*
X606023Y540853D01*
X605893Y540944D01*
X605766Y541038D01*
X605641Y541135D01*
X605518Y541236D01*
X605398Y541339D01*
X605281Y541445D01*
X605166Y541554D01*
X605054Y541666D01*
X604945Y541781D01*
X604839Y541898D01*
X604736Y542018D01*
X604635Y542141D01*
X604538Y542266D01*
X604444Y542393D01*
X604353Y542523D01*
X604266Y542655D01*
X604182Y542789D01*
X604101Y542925D01*
X604023Y543063D01*
X603949Y543203D01*
X603879Y543345D01*
X603812Y543488D01*
X603749Y543633D01*
X603689Y543780D01*
X603633Y543928D01*
X603581Y544078D01*
X603532Y544228D01*
X603487Y544380D01*
X603446Y544533D01*
X603409Y544687D01*
X603376Y544842D01*
X603346Y544997D01*
X603321Y545154D01*
X603299Y545310D01*
X603282Y545468D01*
X603268Y545625D01*
X603258Y545783D01*
X603252Y545942D01*
X603250Y546100D01*
X603250Y587375D01*
D17*
X628650Y539750D03*
D15*
X577850Y546100D02*
X577850Y571500D01*
X577850Y546100D02*
X577850Y517525D01*
X590550Y552450D02*
X590550Y571500D01*
X590550Y552450D02*
X590548Y552292D01*
X590542Y552133D01*
X590532Y551975D01*
X590518Y551818D01*
X590501Y551660D01*
X590479Y551504D01*
X590454Y551347D01*
X590424Y551192D01*
X590391Y551037D01*
X590354Y550883D01*
X590313Y550730D01*
X590268Y550578D01*
X590219Y550428D01*
X590167Y550278D01*
X590111Y550130D01*
X590051Y549983D01*
X589988Y549838D01*
X589921Y549695D01*
X589851Y549553D01*
X589777Y549413D01*
X589699Y549275D01*
X589618Y549139D01*
X589534Y549005D01*
X589447Y548873D01*
X589356Y548743D01*
X589262Y548616D01*
X589165Y548491D01*
X589064Y548368D01*
X588961Y548248D01*
X588855Y548131D01*
X588746Y548016D01*
X588634Y547904D01*
X588519Y547795D01*
X588402Y547689D01*
X588282Y547586D01*
X588159Y547485D01*
X588034Y547388D01*
X587907Y547294D01*
X587777Y547203D01*
X587645Y547116D01*
X587511Y547032D01*
X587375Y546951D01*
X587237Y546873D01*
X587097Y546799D01*
X586955Y546729D01*
X586812Y546662D01*
X586667Y546599D01*
X586520Y546539D01*
X586372Y546483D01*
X586222Y546431D01*
X586072Y546382D01*
X585920Y546337D01*
X585767Y546296D01*
X585613Y546259D01*
X585458Y546226D01*
X585303Y546196D01*
X585146Y546171D01*
X584990Y546149D01*
X584832Y546132D01*
X584675Y546118D01*
X584517Y546108D01*
X584358Y546102D01*
X584200Y546100D01*
X577850Y546100D01*
X590550Y622300D02*
X590550Y676275D01*
X565150Y676275D01*
X577850Y641350D02*
X577850Y622300D01*
X577850Y641350D02*
X577848Y641508D01*
X577842Y641667D01*
X577832Y641825D01*
X577818Y641982D01*
X577801Y642140D01*
X577779Y642296D01*
X577754Y642453D01*
X577724Y642608D01*
X577691Y642763D01*
X577654Y642917D01*
X577613Y643070D01*
X577568Y643222D01*
X577519Y643372D01*
X577467Y643522D01*
X577411Y643670D01*
X577351Y643817D01*
X577288Y643962D01*
X577221Y644105D01*
X577151Y644247D01*
X577077Y644387D01*
X576999Y644525D01*
X576918Y644661D01*
X576834Y644795D01*
X576747Y644927D01*
X576656Y645057D01*
X576562Y645184D01*
X576465Y645309D01*
X576364Y645432D01*
X576261Y645552D01*
X576155Y645669D01*
X576046Y645784D01*
X575934Y645896D01*
X575819Y646005D01*
X575702Y646111D01*
X575582Y646214D01*
X575459Y646315D01*
X575334Y646412D01*
X575207Y646506D01*
X575077Y646597D01*
X574945Y646684D01*
X574811Y646768D01*
X574675Y646849D01*
X574537Y646927D01*
X574397Y647001D01*
X574255Y647071D01*
X574112Y647138D01*
X573967Y647201D01*
X573820Y647261D01*
X573672Y647317D01*
X573522Y647369D01*
X573372Y647418D01*
X573220Y647463D01*
X573067Y647504D01*
X572913Y647541D01*
X572758Y647574D01*
X572603Y647604D01*
X572446Y647629D01*
X572290Y647651D01*
X572132Y647668D01*
X571975Y647682D01*
X571817Y647692D01*
X571658Y647698D01*
X571500Y647700D01*
X501650Y628650D02*
X501650Y676275D01*
X539750Y676275D01*
X546100Y647700D02*
X571500Y647700D01*
X546100Y647700D02*
X545942Y647702D01*
X545783Y647708D01*
X545625Y647718D01*
X545468Y647732D01*
X545310Y647749D01*
X545154Y647771D01*
X544997Y647796D01*
X544842Y647826D01*
X544687Y647859D01*
X544533Y647896D01*
X544380Y647937D01*
X544228Y647982D01*
X544078Y648031D01*
X543928Y648083D01*
X543780Y648139D01*
X543633Y648199D01*
X543488Y648262D01*
X543345Y648329D01*
X543203Y648399D01*
X543063Y648473D01*
X542925Y648551D01*
X542789Y648632D01*
X542655Y648716D01*
X542523Y648803D01*
X542393Y648894D01*
X542266Y648988D01*
X542141Y649085D01*
X542018Y649186D01*
X541898Y649289D01*
X541781Y649395D01*
X541666Y649504D01*
X541554Y649616D01*
X541445Y649731D01*
X541339Y649848D01*
X541236Y649968D01*
X541135Y650091D01*
X541038Y650216D01*
X540944Y650343D01*
X540853Y650473D01*
X540766Y650605D01*
X540682Y650739D01*
X540601Y650875D01*
X540523Y651013D01*
X540449Y651153D01*
X540379Y651295D01*
X540312Y651438D01*
X540249Y651583D01*
X540189Y651730D01*
X540133Y651878D01*
X540081Y652028D01*
X540032Y652178D01*
X539987Y652330D01*
X539946Y652483D01*
X539909Y652637D01*
X539876Y652792D01*
X539846Y652947D01*
X539821Y653104D01*
X539799Y653260D01*
X539782Y653418D01*
X539768Y653575D01*
X539758Y653733D01*
X539752Y653892D01*
X539750Y654050D01*
X539750Y676275D01*
D18*
X615950Y644525D02*
X615950Y622300D01*
D17*
X615950Y644525D03*
D15*
X603250Y650875D02*
X603250Y622300D01*
X603250Y650875D02*
X603252Y651033D01*
X603258Y651192D01*
X603268Y651350D01*
X603282Y651507D01*
X603299Y651665D01*
X603321Y651821D01*
X603346Y651978D01*
X603376Y652133D01*
X603409Y652288D01*
X603446Y652442D01*
X603487Y652595D01*
X603532Y652747D01*
X603581Y652897D01*
X603633Y653047D01*
X603689Y653195D01*
X603749Y653342D01*
X603812Y653487D01*
X603879Y653630D01*
X603949Y653772D01*
X604023Y653912D01*
X604101Y654050D01*
X604182Y654186D01*
X604266Y654320D01*
X604353Y654452D01*
X604444Y654582D01*
X604538Y654709D01*
X604635Y654834D01*
X604736Y654957D01*
X604839Y655077D01*
X604945Y655194D01*
X605054Y655309D01*
X605166Y655421D01*
X605281Y655530D01*
X605398Y655636D01*
X605518Y655739D01*
X605641Y655840D01*
X605766Y655937D01*
X605893Y656031D01*
X606023Y656122D01*
X606155Y656209D01*
X606289Y656293D01*
X606425Y656374D01*
X606563Y656452D01*
X606703Y656526D01*
X606845Y656596D01*
X606988Y656663D01*
X607133Y656726D01*
X607280Y656786D01*
X607428Y656842D01*
X607578Y656894D01*
X607728Y656943D01*
X607880Y656988D01*
X608033Y657029D01*
X608187Y657066D01*
X608342Y657099D01*
X608497Y657129D01*
X608654Y657154D01*
X608810Y657176D01*
X608968Y657193D01*
X609125Y657207D01*
X609283Y657217D01*
X609442Y657223D01*
X609600Y657225D01*
X641350Y657225D01*
X647700Y657225D01*
X647858Y657223D01*
X648017Y657217D01*
X648175Y657207D01*
X648332Y657193D01*
X648490Y657176D01*
X648646Y657154D01*
X648803Y657129D01*
X648958Y657099D01*
X649113Y657066D01*
X649267Y657029D01*
X649420Y656988D01*
X649572Y656943D01*
X649722Y656894D01*
X649872Y656842D01*
X650020Y656786D01*
X650167Y656726D01*
X650312Y656663D01*
X650455Y656596D01*
X650597Y656526D01*
X650737Y656452D01*
X650875Y656374D01*
X651011Y656293D01*
X651145Y656209D01*
X651277Y656122D01*
X651407Y656031D01*
X651534Y655937D01*
X651659Y655840D01*
X651782Y655739D01*
X651902Y655636D01*
X652019Y655530D01*
X652134Y655421D01*
X652246Y655309D01*
X652355Y655194D01*
X652461Y655077D01*
X652564Y654957D01*
X652665Y654834D01*
X652762Y654709D01*
X652856Y654582D01*
X652947Y654452D01*
X653034Y654320D01*
X653118Y654186D01*
X653199Y654050D01*
X653277Y653912D01*
X653351Y653772D01*
X653421Y653630D01*
X653488Y653487D01*
X653551Y653342D01*
X653611Y653195D01*
X653667Y653047D01*
X653719Y652897D01*
X653768Y652747D01*
X653813Y652595D01*
X653854Y652442D01*
X653891Y652288D01*
X653924Y652133D01*
X653954Y651978D01*
X653979Y651821D01*
X654001Y651665D01*
X654018Y651507D01*
X654032Y651350D01*
X654042Y651192D01*
X654048Y651033D01*
X654050Y650875D01*
X654050Y622300D01*
X641350Y622300D02*
X641350Y657225D01*
D18*
X615950Y571500D02*
X615950Y552450D01*
D15*
X704850Y552450D02*
X704850Y571500D01*
X476250Y676275D02*
X457200Y676275D01*
X457200Y517525D02*
X476250Y517525D01*
X615950Y676275D02*
X679450Y676275D01*
X679608Y676273D01*
X679767Y676267D01*
X679925Y676257D01*
X680082Y676243D01*
X680240Y676226D01*
X680396Y676204D01*
X680553Y676179D01*
X680708Y676149D01*
X680863Y676116D01*
X681017Y676079D01*
X681170Y676038D01*
X681322Y675993D01*
X681472Y675944D01*
X681622Y675892D01*
X681770Y675836D01*
X681917Y675776D01*
X682062Y675713D01*
X682205Y675646D01*
X682347Y675576D01*
X682487Y675502D01*
X682625Y675424D01*
X682761Y675343D01*
X682895Y675259D01*
X683027Y675172D01*
X683157Y675081D01*
X683284Y674987D01*
X683409Y674890D01*
X683532Y674789D01*
X683652Y674686D01*
X683769Y674580D01*
X683884Y674471D01*
X683996Y674359D01*
X684105Y674244D01*
X684211Y674127D01*
X684314Y674007D01*
X684415Y673884D01*
X684512Y673759D01*
X684606Y673632D01*
X684697Y673502D01*
X684784Y673370D01*
X684868Y673236D01*
X684949Y673100D01*
X685027Y672962D01*
X685101Y672822D01*
X685171Y672680D01*
X685238Y672537D01*
X685301Y672392D01*
X685361Y672245D01*
X685417Y672097D01*
X685469Y671947D01*
X685518Y671797D01*
X685563Y671645D01*
X685604Y671492D01*
X685641Y671338D01*
X685674Y671183D01*
X685704Y671028D01*
X685729Y670871D01*
X685751Y670715D01*
X685768Y670557D01*
X685782Y670400D01*
X685792Y670242D01*
X685798Y670083D01*
X685800Y669925D01*
X685800Y631825D01*
D16*
X796925Y558800D03*
D17*
X615950Y552450D03*
X704850Y552450D03*
X457200Y676275D03*
X457200Y517525D03*
X685800Y631825D03*
D15*
X704850Y355600D02*
X796925Y355600D01*
X660400Y355600D02*
X660242Y355598D01*
X660083Y355592D01*
X659925Y355582D01*
X659768Y355568D01*
X659610Y355551D01*
X659454Y355529D01*
X659297Y355504D01*
X659142Y355474D01*
X658987Y355441D01*
X658833Y355404D01*
X658680Y355363D01*
X658528Y355318D01*
X658378Y355269D01*
X658228Y355217D01*
X658080Y355161D01*
X657933Y355101D01*
X657788Y355038D01*
X657645Y354971D01*
X657503Y354901D01*
X657363Y354827D01*
X657225Y354749D01*
X657089Y354668D01*
X656955Y354584D01*
X656823Y354497D01*
X656693Y354406D01*
X656566Y354312D01*
X656441Y354215D01*
X656318Y354114D01*
X656198Y354011D01*
X656081Y353905D01*
X655966Y353796D01*
X655854Y353684D01*
X655745Y353569D01*
X655639Y353452D01*
X655536Y353332D01*
X655435Y353209D01*
X655338Y353084D01*
X655244Y352957D01*
X655153Y352827D01*
X655066Y352695D01*
X654982Y352561D01*
X654901Y352425D01*
X654823Y352287D01*
X654749Y352147D01*
X654679Y352005D01*
X654612Y351862D01*
X654549Y351717D01*
X654489Y351570D01*
X654433Y351422D01*
X654381Y351272D01*
X654332Y351122D01*
X654287Y350970D01*
X654246Y350817D01*
X654209Y350663D01*
X654176Y350508D01*
X654146Y350353D01*
X654121Y350196D01*
X654099Y350040D01*
X654082Y349882D01*
X654068Y349725D01*
X654058Y349567D01*
X654052Y349408D01*
X654050Y349250D01*
X660400Y355600D02*
X704850Y355600D01*
X654050Y349250D02*
X654050Y313780D01*
X654052Y313624D01*
X654058Y313468D01*
X654067Y313313D01*
X654081Y313157D01*
X654098Y313002D01*
X654119Y312848D01*
X654144Y312694D01*
X654172Y312541D01*
X654204Y312388D01*
X654240Y312237D01*
X654280Y312086D01*
X654323Y311936D01*
X654371Y311788D01*
X654421Y311641D01*
X654476Y311494D01*
X654533Y311350D01*
X654595Y311207D01*
X654660Y311065D01*
X654728Y310925D01*
X654800Y310786D01*
X654875Y310650D01*
X654954Y310515D01*
X655035Y310383D01*
X655120Y310252D01*
X655208Y310123D01*
X655300Y309997D01*
X655394Y309873D01*
X655492Y309751D01*
X655592Y309632D01*
X655695Y309515D01*
X655801Y309401D01*
X655910Y309290D01*
X664890Y300310D01*
X664999Y300199D01*
X665105Y300085D01*
X665208Y299968D01*
X665308Y299849D01*
X665406Y299727D01*
X665500Y299603D01*
X665592Y299477D01*
X665680Y299348D01*
X665765Y299217D01*
X665846Y299085D01*
X665925Y298950D01*
X666000Y298814D01*
X666072Y298675D01*
X666140Y298535D01*
X666205Y298393D01*
X666267Y298250D01*
X666324Y298106D01*
X666379Y297959D01*
X666429Y297812D01*
X666477Y297664D01*
X666520Y297514D01*
X666560Y297363D01*
X666596Y297212D01*
X666628Y297059D01*
X666656Y296906D01*
X666681Y296752D01*
X666702Y296598D01*
X666719Y296443D01*
X666733Y296287D01*
X666742Y296132D01*
X666748Y295976D01*
X666750Y295820D01*
X666750Y276225D01*
D16*
X796925Y355600D03*
X796925Y393700D03*
D15*
X641350Y330200D02*
X641350Y276225D01*
X603250Y276225D01*
X622300Y355600D02*
X501650Y355600D01*
X622300Y355600D02*
X622458Y355598D01*
X622617Y355592D01*
X622775Y355582D01*
X622932Y355568D01*
X623090Y355551D01*
X623246Y355529D01*
X623403Y355504D01*
X623558Y355474D01*
X623713Y355441D01*
X623867Y355404D01*
X624020Y355363D01*
X624172Y355318D01*
X624322Y355269D01*
X624472Y355217D01*
X624620Y355161D01*
X624767Y355101D01*
X624912Y355038D01*
X625055Y354971D01*
X625197Y354901D01*
X625337Y354827D01*
X625475Y354749D01*
X625611Y354668D01*
X625745Y354584D01*
X625877Y354497D01*
X626007Y354406D01*
X626134Y354312D01*
X626259Y354215D01*
X626382Y354114D01*
X626502Y354011D01*
X626619Y353905D01*
X626734Y353796D01*
X626846Y353684D01*
X626955Y353569D01*
X627061Y353452D01*
X627164Y353332D01*
X627265Y353209D01*
X627362Y353084D01*
X627456Y352957D01*
X627547Y352827D01*
X627634Y352695D01*
X627718Y352561D01*
X627799Y352425D01*
X627877Y352287D01*
X627951Y352147D01*
X628021Y352005D01*
X628088Y351862D01*
X628151Y351717D01*
X628211Y351570D01*
X628267Y351422D01*
X628319Y351272D01*
X628368Y351122D01*
X628413Y350970D01*
X628454Y350817D01*
X628491Y350663D01*
X628524Y350508D01*
X628554Y350353D01*
X628579Y350196D01*
X628601Y350040D01*
X628618Y349882D01*
X628632Y349725D01*
X628642Y349567D01*
X628648Y349408D01*
X628650Y349250D01*
X628650Y330200D01*
X501650Y323850D02*
X501650Y276225D01*
X628650Y365125D02*
X628650Y381000D01*
X628650Y365125D02*
X628648Y365014D01*
X628642Y364904D01*
X628633Y364793D01*
X628619Y364683D01*
X628602Y364574D01*
X628581Y364465D01*
X628556Y364357D01*
X628527Y364250D01*
X628495Y364144D01*
X628459Y364039D01*
X628419Y363935D01*
X628376Y363833D01*
X628329Y363733D01*
X628279Y363634D01*
X628225Y363537D01*
X628168Y363442D01*
X628108Y363349D01*
X628044Y363259D01*
X627977Y363170D01*
X627907Y363084D01*
X627835Y363000D01*
X627759Y362919D01*
X627681Y362841D01*
X627600Y362765D01*
X627516Y362693D01*
X627430Y362623D01*
X627341Y362556D01*
X627251Y362492D01*
X627158Y362432D01*
X627063Y362375D01*
X626966Y362321D01*
X626867Y362271D01*
X626767Y362224D01*
X626665Y362181D01*
X626561Y362141D01*
X626456Y362105D01*
X626350Y362073D01*
X626243Y362044D01*
X626135Y362019D01*
X626026Y361998D01*
X625917Y361981D01*
X625807Y361967D01*
X625696Y361958D01*
X625586Y361952D01*
X625475Y361950D01*
X533400Y361950D01*
X532739Y361958D01*
X532078Y361982D01*
X531419Y362023D01*
X530760Y362079D01*
X530103Y362152D01*
X529448Y362241D01*
X528795Y362346D01*
X528145Y362467D01*
X527498Y362603D01*
X526855Y362756D01*
X526215Y362924D01*
X525580Y363108D01*
X524950Y363307D01*
X524325Y363522D01*
X523705Y363752D01*
X523091Y363997D01*
X522483Y364257D01*
X521882Y364532D01*
X521287Y364821D01*
X520700Y365125D01*
X520150Y365585D01*
X519589Y366031D01*
X519017Y366464D01*
X518434Y366882D01*
X517842Y367286D01*
X517240Y367675D01*
X516628Y368050D01*
X516007Y368409D01*
X515378Y368753D01*
X514741Y369082D01*
X514096Y369394D01*
X513443Y369691D01*
X512783Y369972D01*
X512117Y370237D01*
X511444Y370485D01*
X510765Y370717D01*
X510081Y370932D01*
X509392Y371130D01*
X508698Y371311D01*
X508000Y371475D01*
X495300Y371475D01*
X495066Y371472D01*
X494833Y371463D01*
X494599Y371449D01*
X494366Y371429D01*
X494134Y371403D01*
X493902Y371372D01*
X493672Y371334D01*
X493442Y371292D01*
X493213Y371243D01*
X492986Y371189D01*
X492760Y371130D01*
X492535Y371064D01*
X492312Y370994D01*
X492091Y370918D01*
X491872Y370836D01*
X491655Y370749D01*
X491440Y370657D01*
X491228Y370560D01*
X491018Y370457D01*
X490810Y370350D01*
X490606Y370237D01*
X490404Y370119D01*
X490205Y369997D01*
X490009Y369869D01*
X489816Y369737D01*
X489626Y369600D01*
X489440Y369458D01*
X489258Y369312D01*
X489079Y369162D01*
X488904Y369007D01*
X488733Y368848D01*
X488565Y368685D01*
X488402Y368517D01*
X488243Y368346D01*
X488088Y368171D01*
X487938Y367992D01*
X487792Y367810D01*
X487650Y367624D01*
X487513Y367434D01*
X487381Y367241D01*
X487253Y367045D01*
X487131Y366846D01*
X487013Y366644D01*
X486900Y366440D01*
X486793Y366232D01*
X486690Y366022D01*
X486593Y365810D01*
X486501Y365595D01*
X486414Y365378D01*
X486332Y365159D01*
X486256Y364938D01*
X486186Y364715D01*
X486120Y364490D01*
X486061Y364264D01*
X486007Y364037D01*
X485958Y363808D01*
X485916Y363578D01*
X485878Y363348D01*
X485847Y363116D01*
X485821Y362884D01*
X485801Y362651D01*
X485787Y362417D01*
X485778Y362184D01*
X485775Y361950D01*
X485775Y349250D01*
X485778Y349016D01*
X485787Y348783D01*
X485801Y348549D01*
X485821Y348316D01*
X485847Y348084D01*
X485878Y347852D01*
X485915Y347622D01*
X485958Y347392D01*
X486007Y347163D01*
X486061Y346936D01*
X486120Y346710D01*
X486185Y346485D01*
X486256Y346262D01*
X486332Y346041D01*
X486414Y345822D01*
X486500Y345605D01*
X486592Y345390D01*
X486690Y345178D01*
X486792Y344968D01*
X486900Y344760D01*
X487013Y344555D01*
X487130Y344353D01*
X487253Y344154D01*
X487381Y343958D01*
X487513Y343766D01*
X487650Y343576D01*
X487791Y343390D01*
X487937Y343208D01*
X488088Y343029D01*
X488243Y342854D01*
X488402Y342682D01*
X488565Y342515D01*
X488732Y342352D01*
X488904Y342193D01*
X489079Y342038D01*
X489258Y341887D01*
X489440Y341741D01*
X489626Y341600D01*
X489816Y341463D01*
X490008Y341331D01*
X490204Y341203D01*
X490403Y341080D01*
X490605Y340963D01*
X490810Y340850D01*
X491018Y340742D01*
X491228Y340640D01*
X491440Y340542D01*
X491655Y340450D01*
X491872Y340364D01*
X492091Y340282D01*
X492312Y340206D01*
X492535Y340135D01*
X492760Y340070D01*
X492986Y340011D01*
X493213Y339957D01*
X493442Y339908D01*
X493672Y339865D01*
X493902Y339828D01*
X494134Y339797D01*
X494366Y339771D01*
X494599Y339751D01*
X494833Y339737D01*
X495066Y339728D01*
X495300Y339725D01*
X508000Y339725D01*
X508698Y339889D01*
X509392Y340070D01*
X510081Y340268D01*
X510765Y340483D01*
X511444Y340715D01*
X512117Y340963D01*
X512783Y341228D01*
X513443Y341509D01*
X514096Y341806D01*
X514741Y342118D01*
X515378Y342447D01*
X516007Y342791D01*
X516628Y343150D01*
X517240Y343525D01*
X517842Y343914D01*
X518434Y344318D01*
X519017Y344736D01*
X519589Y345169D01*
X520150Y345615D01*
X520700Y346075D01*
X521287Y346379D01*
X521881Y346668D01*
X522483Y346943D01*
X523090Y347203D01*
X523705Y347448D01*
X524324Y347678D01*
X524950Y347893D01*
X525580Y348092D01*
X526215Y348276D01*
X526854Y348444D01*
X527498Y348597D01*
X528145Y348733D01*
X528795Y348854D01*
X529447Y348959D01*
X530102Y349048D01*
X530760Y349121D01*
X531418Y349177D01*
X532078Y349218D01*
X532739Y349242D01*
X533400Y349250D01*
X600075Y349250D01*
X600186Y349248D01*
X600296Y349242D01*
X600407Y349233D01*
X600517Y349219D01*
X600626Y349202D01*
X600735Y349181D01*
X600843Y349156D01*
X600950Y349127D01*
X601056Y349095D01*
X601161Y349059D01*
X601264Y349019D01*
X601366Y348976D01*
X601467Y348929D01*
X601566Y348878D01*
X601663Y348825D01*
X601757Y348768D01*
X601850Y348707D01*
X601941Y348644D01*
X602030Y348577D01*
X602116Y348507D01*
X602199Y348434D01*
X602281Y348359D01*
X602359Y348281D01*
X602434Y348199D01*
X602507Y348116D01*
X602577Y348030D01*
X602644Y347941D01*
X602707Y347850D01*
X602768Y347757D01*
X602825Y347663D01*
X602878Y347566D01*
X602929Y347467D01*
X602976Y347366D01*
X603019Y347264D01*
X603059Y347161D01*
X603095Y347056D01*
X603127Y346950D01*
X603156Y346843D01*
X603181Y346735D01*
X603202Y346626D01*
X603219Y346517D01*
X603233Y346407D01*
X603242Y346296D01*
X603248Y346186D01*
X603250Y346075D01*
X609600Y298450D02*
X628650Y298450D01*
X609600Y298450D02*
X609442Y298452D01*
X609283Y298458D01*
X609125Y298468D01*
X608968Y298482D01*
X608810Y298499D01*
X608654Y298521D01*
X608497Y298546D01*
X608342Y298576D01*
X608187Y298609D01*
X608033Y298646D01*
X607880Y298687D01*
X607728Y298732D01*
X607578Y298781D01*
X607428Y298833D01*
X607280Y298889D01*
X607133Y298949D01*
X606988Y299012D01*
X606845Y299079D01*
X606703Y299149D01*
X606563Y299223D01*
X606425Y299301D01*
X606289Y299382D01*
X606155Y299466D01*
X606023Y299553D01*
X605893Y299644D01*
X605766Y299738D01*
X605641Y299835D01*
X605518Y299936D01*
X605398Y300039D01*
X605281Y300145D01*
X605166Y300254D01*
X605054Y300366D01*
X604945Y300481D01*
X604839Y300598D01*
X604736Y300718D01*
X604635Y300841D01*
X604538Y300966D01*
X604444Y301093D01*
X604353Y301223D01*
X604266Y301355D01*
X604182Y301489D01*
X604101Y301625D01*
X604023Y301763D01*
X603949Y301903D01*
X603879Y302045D01*
X603812Y302188D01*
X603749Y302333D01*
X603689Y302480D01*
X603633Y302628D01*
X603581Y302778D01*
X603532Y302928D01*
X603487Y303080D01*
X603446Y303233D01*
X603409Y303387D01*
X603376Y303542D01*
X603346Y303697D01*
X603321Y303854D01*
X603299Y304010D01*
X603282Y304168D01*
X603268Y304325D01*
X603258Y304483D01*
X603252Y304642D01*
X603250Y304800D01*
X603250Y346075D01*
D17*
X628650Y298450D03*
D15*
X577850Y304800D02*
X577850Y330200D01*
X577850Y304800D02*
X577850Y276225D01*
X590550Y311150D02*
X590550Y330200D01*
X590550Y311150D02*
X590548Y310992D01*
X590542Y310833D01*
X590532Y310675D01*
X590518Y310518D01*
X590501Y310360D01*
X590479Y310204D01*
X590454Y310047D01*
X590424Y309892D01*
X590391Y309737D01*
X590354Y309583D01*
X590313Y309430D01*
X590268Y309278D01*
X590219Y309128D01*
X590167Y308978D01*
X590111Y308830D01*
X590051Y308683D01*
X589988Y308538D01*
X589921Y308395D01*
X589851Y308253D01*
X589777Y308113D01*
X589699Y307975D01*
X589618Y307839D01*
X589534Y307705D01*
X589447Y307573D01*
X589356Y307443D01*
X589262Y307316D01*
X589165Y307191D01*
X589064Y307068D01*
X588961Y306948D01*
X588855Y306831D01*
X588746Y306716D01*
X588634Y306604D01*
X588519Y306495D01*
X588402Y306389D01*
X588282Y306286D01*
X588159Y306185D01*
X588034Y306088D01*
X587907Y305994D01*
X587777Y305903D01*
X587645Y305816D01*
X587511Y305732D01*
X587375Y305651D01*
X587237Y305573D01*
X587097Y305499D01*
X586955Y305429D01*
X586812Y305362D01*
X586667Y305299D01*
X586520Y305239D01*
X586372Y305183D01*
X586222Y305131D01*
X586072Y305082D01*
X585920Y305037D01*
X585767Y304996D01*
X585613Y304959D01*
X585458Y304926D01*
X585303Y304896D01*
X585146Y304871D01*
X584990Y304849D01*
X584832Y304832D01*
X584675Y304818D01*
X584517Y304808D01*
X584358Y304802D01*
X584200Y304800D01*
X577850Y304800D01*
X590550Y381000D02*
X590550Y434975D01*
X565150Y434975D01*
X577850Y400050D02*
X577850Y381000D01*
X577850Y400050D02*
X577848Y400208D01*
X577842Y400367D01*
X577832Y400525D01*
X577818Y400682D01*
X577801Y400840D01*
X577779Y400996D01*
X577754Y401153D01*
X577724Y401308D01*
X577691Y401463D01*
X577654Y401617D01*
X577613Y401770D01*
X577568Y401922D01*
X577519Y402072D01*
X577467Y402222D01*
X577411Y402370D01*
X577351Y402517D01*
X577288Y402662D01*
X577221Y402805D01*
X577151Y402947D01*
X577077Y403087D01*
X576999Y403225D01*
X576918Y403361D01*
X576834Y403495D01*
X576747Y403627D01*
X576656Y403757D01*
X576562Y403884D01*
X576465Y404009D01*
X576364Y404132D01*
X576261Y404252D01*
X576155Y404369D01*
X576046Y404484D01*
X575934Y404596D01*
X575819Y404705D01*
X575702Y404811D01*
X575582Y404914D01*
X575459Y405015D01*
X575334Y405112D01*
X575207Y405206D01*
X575077Y405297D01*
X574945Y405384D01*
X574811Y405468D01*
X574675Y405549D01*
X574537Y405627D01*
X574397Y405701D01*
X574255Y405771D01*
X574112Y405838D01*
X573967Y405901D01*
X573820Y405961D01*
X573672Y406017D01*
X573522Y406069D01*
X573372Y406118D01*
X573220Y406163D01*
X573067Y406204D01*
X572913Y406241D01*
X572758Y406274D01*
X572603Y406304D01*
X572446Y406329D01*
X572290Y406351D01*
X572132Y406368D01*
X571975Y406382D01*
X571817Y406392D01*
X571658Y406398D01*
X571500Y406400D01*
X501650Y387350D02*
X501650Y434975D01*
X539750Y434975D01*
X546100Y406400D02*
X571500Y406400D01*
X546100Y406400D02*
X545942Y406402D01*
X545783Y406408D01*
X545625Y406418D01*
X545468Y406432D01*
X545310Y406449D01*
X545154Y406471D01*
X544997Y406496D01*
X544842Y406526D01*
X544687Y406559D01*
X544533Y406596D01*
X544380Y406637D01*
X544228Y406682D01*
X544078Y406731D01*
X543928Y406783D01*
X543780Y406839D01*
X543633Y406899D01*
X543488Y406962D01*
X543345Y407029D01*
X543203Y407099D01*
X543063Y407173D01*
X542925Y407251D01*
X542789Y407332D01*
X542655Y407416D01*
X542523Y407503D01*
X542393Y407594D01*
X542266Y407688D01*
X542141Y407785D01*
X542018Y407886D01*
X541898Y407989D01*
X541781Y408095D01*
X541666Y408204D01*
X541554Y408316D01*
X541445Y408431D01*
X541339Y408548D01*
X541236Y408668D01*
X541135Y408791D01*
X541038Y408916D01*
X540944Y409043D01*
X540853Y409173D01*
X540766Y409305D01*
X540682Y409439D01*
X540601Y409575D01*
X540523Y409713D01*
X540449Y409853D01*
X540379Y409995D01*
X540312Y410138D01*
X540249Y410283D01*
X540189Y410430D01*
X540133Y410578D01*
X540081Y410728D01*
X540032Y410878D01*
X539987Y411030D01*
X539946Y411183D01*
X539909Y411337D01*
X539876Y411492D01*
X539846Y411647D01*
X539821Y411804D01*
X539799Y411960D01*
X539782Y412118D01*
X539768Y412275D01*
X539758Y412433D01*
X539752Y412592D01*
X539750Y412750D01*
X539750Y434975D01*
D18*
X615950Y403225D02*
X615950Y381000D01*
D17*
X615950Y403225D03*
D15*
X603250Y409575D02*
X603250Y381000D01*
X603250Y409575D02*
X603252Y409733D01*
X603258Y409892D01*
X603268Y410050D01*
X603282Y410207D01*
X603299Y410365D01*
X603321Y410521D01*
X603346Y410678D01*
X603376Y410833D01*
X603409Y410988D01*
X603446Y411142D01*
X603487Y411295D01*
X603532Y411447D01*
X603581Y411597D01*
X603633Y411747D01*
X603689Y411895D01*
X603749Y412042D01*
X603812Y412187D01*
X603879Y412330D01*
X603949Y412472D01*
X604023Y412612D01*
X604101Y412750D01*
X604182Y412886D01*
X604266Y413020D01*
X604353Y413152D01*
X604444Y413282D01*
X604538Y413409D01*
X604635Y413534D01*
X604736Y413657D01*
X604839Y413777D01*
X604945Y413894D01*
X605054Y414009D01*
X605166Y414121D01*
X605281Y414230D01*
X605398Y414336D01*
X605518Y414439D01*
X605641Y414540D01*
X605766Y414637D01*
X605893Y414731D01*
X606023Y414822D01*
X606155Y414909D01*
X606289Y414993D01*
X606425Y415074D01*
X606563Y415152D01*
X606703Y415226D01*
X606845Y415296D01*
X606988Y415363D01*
X607133Y415426D01*
X607280Y415486D01*
X607428Y415542D01*
X607578Y415594D01*
X607728Y415643D01*
X607880Y415688D01*
X608033Y415729D01*
X608187Y415766D01*
X608342Y415799D01*
X608497Y415829D01*
X608654Y415854D01*
X608810Y415876D01*
X608968Y415893D01*
X609125Y415907D01*
X609283Y415917D01*
X609442Y415923D01*
X609600Y415925D01*
X641350Y415925D01*
X647700Y415925D01*
X647858Y415923D01*
X648017Y415917D01*
X648175Y415907D01*
X648332Y415893D01*
X648490Y415876D01*
X648646Y415854D01*
X648803Y415829D01*
X648958Y415799D01*
X649113Y415766D01*
X649267Y415729D01*
X649420Y415688D01*
X649572Y415643D01*
X649722Y415594D01*
X649872Y415542D01*
X650020Y415486D01*
X650167Y415426D01*
X650312Y415363D01*
X650455Y415296D01*
X650597Y415226D01*
X650737Y415152D01*
X650875Y415074D01*
X651011Y414993D01*
X651145Y414909D01*
X651277Y414822D01*
X651407Y414731D01*
X651534Y414637D01*
X651659Y414540D01*
X651782Y414439D01*
X651902Y414336D01*
X652019Y414230D01*
X652134Y414121D01*
X652246Y414009D01*
X652355Y413894D01*
X652461Y413777D01*
X652564Y413657D01*
X652665Y413534D01*
X652762Y413409D01*
X652856Y413282D01*
X652947Y413152D01*
X653034Y413020D01*
X653118Y412886D01*
X653199Y412750D01*
X653277Y412612D01*
X653351Y412472D01*
X653421Y412330D01*
X653488Y412187D01*
X653551Y412042D01*
X653611Y411895D01*
X653667Y411747D01*
X653719Y411597D01*
X653768Y411447D01*
X653813Y411295D01*
X653854Y411142D01*
X653891Y410988D01*
X653924Y410833D01*
X653954Y410678D01*
X653979Y410521D01*
X654001Y410365D01*
X654018Y410207D01*
X654032Y410050D01*
X654042Y409892D01*
X654048Y409733D01*
X654050Y409575D01*
X654050Y381000D01*
X641350Y381000D02*
X641350Y415925D01*
D18*
X615950Y330200D02*
X615950Y311150D01*
D15*
X704850Y311150D02*
X704850Y330200D01*
X476250Y434975D02*
X457200Y434975D01*
X457200Y276225D02*
X476250Y276225D01*
X615950Y434975D02*
X679450Y434975D01*
X679608Y434973D01*
X679767Y434967D01*
X679925Y434957D01*
X680082Y434943D01*
X680240Y434926D01*
X680396Y434904D01*
X680553Y434879D01*
X680708Y434849D01*
X680863Y434816D01*
X681017Y434779D01*
X681170Y434738D01*
X681322Y434693D01*
X681472Y434644D01*
X681622Y434592D01*
X681770Y434536D01*
X681917Y434476D01*
X682062Y434413D01*
X682205Y434346D01*
X682347Y434276D01*
X682487Y434202D01*
X682625Y434124D01*
X682761Y434043D01*
X682895Y433959D01*
X683027Y433872D01*
X683157Y433781D01*
X683284Y433687D01*
X683409Y433590D01*
X683532Y433489D01*
X683652Y433386D01*
X683769Y433280D01*
X683884Y433171D01*
X683996Y433059D01*
X684105Y432944D01*
X684211Y432827D01*
X684314Y432707D01*
X684415Y432584D01*
X684512Y432459D01*
X684606Y432332D01*
X684697Y432202D01*
X684784Y432070D01*
X684868Y431936D01*
X684949Y431800D01*
X685027Y431662D01*
X685101Y431522D01*
X685171Y431380D01*
X685238Y431237D01*
X685301Y431092D01*
X685361Y430945D01*
X685417Y430797D01*
X685469Y430647D01*
X685518Y430497D01*
X685563Y430345D01*
X685604Y430192D01*
X685641Y430038D01*
X685674Y429883D01*
X685704Y429728D01*
X685729Y429571D01*
X685751Y429415D01*
X685768Y429257D01*
X685782Y429100D01*
X685792Y428942D01*
X685798Y428783D01*
X685800Y428625D01*
X685800Y390525D01*
D16*
X796925Y317500D03*
D17*
X615950Y311150D03*
X704850Y311150D03*
X457200Y434975D03*
X457200Y276225D03*
X685800Y390525D03*
D15*
X704850Y114300D02*
X796925Y114300D01*
X660400Y114300D02*
X660242Y114298D01*
X660083Y114292D01*
X659925Y114282D01*
X659768Y114268D01*
X659610Y114251D01*
X659454Y114229D01*
X659297Y114204D01*
X659142Y114174D01*
X658987Y114141D01*
X658833Y114104D01*
X658680Y114063D01*
X658528Y114018D01*
X658378Y113969D01*
X658228Y113917D01*
X658080Y113861D01*
X657933Y113801D01*
X657788Y113738D01*
X657645Y113671D01*
X657503Y113601D01*
X657363Y113527D01*
X657225Y113449D01*
X657089Y113368D01*
X656955Y113284D01*
X656823Y113197D01*
X656693Y113106D01*
X656566Y113012D01*
X656441Y112915D01*
X656318Y112814D01*
X656198Y112711D01*
X656081Y112605D01*
X655966Y112496D01*
X655854Y112384D01*
X655745Y112269D01*
X655639Y112152D01*
X655536Y112032D01*
X655435Y111909D01*
X655338Y111784D01*
X655244Y111657D01*
X655153Y111527D01*
X655066Y111395D01*
X654982Y111261D01*
X654901Y111125D01*
X654823Y110987D01*
X654749Y110847D01*
X654679Y110705D01*
X654612Y110562D01*
X654549Y110417D01*
X654489Y110270D01*
X654433Y110122D01*
X654381Y109972D01*
X654332Y109822D01*
X654287Y109670D01*
X654246Y109517D01*
X654209Y109363D01*
X654176Y109208D01*
X654146Y109053D01*
X654121Y108896D01*
X654099Y108740D01*
X654082Y108582D01*
X654068Y108425D01*
X654058Y108267D01*
X654052Y108108D01*
X654050Y107950D01*
X660400Y114300D02*
X704850Y114300D01*
X654050Y107950D02*
X654050Y72480D01*
X654052Y72324D01*
X654058Y72168D01*
X654067Y72013D01*
X654081Y71857D01*
X654098Y71702D01*
X654119Y71548D01*
X654144Y71394D01*
X654172Y71241D01*
X654204Y71088D01*
X654240Y70937D01*
X654280Y70786D01*
X654323Y70636D01*
X654371Y70488D01*
X654421Y70341D01*
X654476Y70194D01*
X654533Y70050D01*
X654595Y69907D01*
X654660Y69765D01*
X654728Y69625D01*
X654800Y69486D01*
X654875Y69350D01*
X654954Y69215D01*
X655035Y69083D01*
X655120Y68952D01*
X655208Y68823D01*
X655300Y68697D01*
X655394Y68573D01*
X655492Y68451D01*
X655592Y68332D01*
X655695Y68215D01*
X655801Y68101D01*
X655910Y67990D01*
X664890Y59010D01*
X664999Y58899D01*
X665105Y58785D01*
X665208Y58668D01*
X665308Y58549D01*
X665406Y58427D01*
X665500Y58303D01*
X665592Y58177D01*
X665680Y58048D01*
X665765Y57917D01*
X665846Y57785D01*
X665925Y57650D01*
X666000Y57514D01*
X666072Y57375D01*
X666140Y57235D01*
X666205Y57093D01*
X666267Y56950D01*
X666324Y56806D01*
X666379Y56659D01*
X666429Y56512D01*
X666477Y56364D01*
X666520Y56214D01*
X666560Y56063D01*
X666596Y55912D01*
X666628Y55759D01*
X666656Y55606D01*
X666681Y55452D01*
X666702Y55298D01*
X666719Y55143D01*
X666733Y54987D01*
X666742Y54832D01*
X666748Y54676D01*
X666750Y54520D01*
X666750Y34925D01*
D16*
X796925Y114300D03*
X796925Y152400D03*
D15*
X641350Y88900D02*
X641350Y34925D01*
X603250Y34925D01*
X622300Y114300D02*
X501650Y114300D01*
X622300Y114300D02*
X622458Y114298D01*
X622617Y114292D01*
X622775Y114282D01*
X622932Y114268D01*
X623090Y114251D01*
X623246Y114229D01*
X623403Y114204D01*
X623558Y114174D01*
X623713Y114141D01*
X623867Y114104D01*
X624020Y114063D01*
X624172Y114018D01*
X624322Y113969D01*
X624472Y113917D01*
X624620Y113861D01*
X624767Y113801D01*
X624912Y113738D01*
X625055Y113671D01*
X625197Y113601D01*
X625337Y113527D01*
X625475Y113449D01*
X625611Y113368D01*
X625745Y113284D01*
X625877Y113197D01*
X626007Y113106D01*
X626134Y113012D01*
X626259Y112915D01*
X626382Y112814D01*
X626502Y112711D01*
X626619Y112605D01*
X626734Y112496D01*
X626846Y112384D01*
X626955Y112269D01*
X627061Y112152D01*
X627164Y112032D01*
X627265Y111909D01*
X627362Y111784D01*
X627456Y111657D01*
X627547Y111527D01*
X627634Y111395D01*
X627718Y111261D01*
X627799Y111125D01*
X627877Y110987D01*
X627951Y110847D01*
X628021Y110705D01*
X628088Y110562D01*
X628151Y110417D01*
X628211Y110270D01*
X628267Y110122D01*
X628319Y109972D01*
X628368Y109822D01*
X628413Y109670D01*
X628454Y109517D01*
X628491Y109363D01*
X628524Y109208D01*
X628554Y109053D01*
X628579Y108896D01*
X628601Y108740D01*
X628618Y108582D01*
X628632Y108425D01*
X628642Y108267D01*
X628648Y108108D01*
X628650Y107950D01*
X628650Y88900D01*
X501650Y82550D02*
X501650Y34925D01*
X628650Y123825D02*
X628650Y139700D01*
X628650Y123825D02*
X628648Y123714D01*
X628642Y123604D01*
X628633Y123493D01*
X628619Y123383D01*
X628602Y123274D01*
X628581Y123165D01*
X628556Y123057D01*
X628527Y122950D01*
X628495Y122844D01*
X628459Y122739D01*
X628419Y122635D01*
X628376Y122533D01*
X628329Y122433D01*
X628279Y122334D01*
X628225Y122237D01*
X628168Y122142D01*
X628108Y122049D01*
X628044Y121959D01*
X627977Y121870D01*
X627907Y121784D01*
X627835Y121700D01*
X627759Y121619D01*
X627681Y121541D01*
X627600Y121465D01*
X627516Y121393D01*
X627430Y121323D01*
X627341Y121256D01*
X627251Y121192D01*
X627158Y121132D01*
X627063Y121075D01*
X626966Y121021D01*
X626867Y120971D01*
X626767Y120924D01*
X626665Y120881D01*
X626561Y120841D01*
X626456Y120805D01*
X626350Y120773D01*
X626243Y120744D01*
X626135Y120719D01*
X626026Y120698D01*
X625917Y120681D01*
X625807Y120667D01*
X625696Y120658D01*
X625586Y120652D01*
X625475Y120650D01*
X533400Y120650D01*
X532739Y120658D01*
X532078Y120682D01*
X531419Y120723D01*
X530760Y120779D01*
X530103Y120852D01*
X529448Y120941D01*
X528795Y121046D01*
X528145Y121167D01*
X527498Y121303D01*
X526855Y121456D01*
X526215Y121624D01*
X525580Y121808D01*
X524950Y122007D01*
X524325Y122222D01*
X523705Y122452D01*
X523091Y122697D01*
X522483Y122957D01*
X521882Y123232D01*
X521287Y123521D01*
X520700Y123825D01*
X520150Y124285D01*
X519589Y124731D01*
X519017Y125164D01*
X518434Y125582D01*
X517842Y125986D01*
X517240Y126375D01*
X516628Y126750D01*
X516007Y127109D01*
X515378Y127453D01*
X514741Y127782D01*
X514096Y128094D01*
X513443Y128391D01*
X512783Y128672D01*
X512117Y128937D01*
X511444Y129185D01*
X510765Y129417D01*
X510081Y129632D01*
X509392Y129830D01*
X508698Y130011D01*
X508000Y130175D01*
X495300Y130175D01*
X495066Y130172D01*
X494833Y130163D01*
X494599Y130149D01*
X494366Y130129D01*
X494134Y130103D01*
X493902Y130072D01*
X493672Y130034D01*
X493442Y129992D01*
X493213Y129943D01*
X492986Y129889D01*
X492760Y129830D01*
X492535Y129764D01*
X492312Y129694D01*
X492091Y129618D01*
X491872Y129536D01*
X491655Y129449D01*
X491440Y129357D01*
X491228Y129260D01*
X491018Y129157D01*
X490810Y129050D01*
X490606Y128937D01*
X490404Y128819D01*
X490205Y128697D01*
X490009Y128569D01*
X489816Y128437D01*
X489626Y128300D01*
X489440Y128158D01*
X489258Y128012D01*
X489079Y127862D01*
X488904Y127707D01*
X488733Y127548D01*
X488565Y127385D01*
X488402Y127217D01*
X488243Y127046D01*
X488088Y126871D01*
X487938Y126692D01*
X487792Y126510D01*
X487650Y126324D01*
X487513Y126134D01*
X487381Y125941D01*
X487253Y125745D01*
X487131Y125546D01*
X487013Y125344D01*
X486900Y125140D01*
X486793Y124932D01*
X486690Y124722D01*
X486593Y124510D01*
X486501Y124295D01*
X486414Y124078D01*
X486332Y123859D01*
X486256Y123638D01*
X486186Y123415D01*
X486120Y123190D01*
X486061Y122964D01*
X486007Y122737D01*
X485958Y122508D01*
X485916Y122278D01*
X485878Y122048D01*
X485847Y121816D01*
X485821Y121584D01*
X485801Y121351D01*
X485787Y121117D01*
X485778Y120884D01*
X485775Y120650D01*
X485775Y107950D01*
X485778Y107716D01*
X485787Y107483D01*
X485801Y107249D01*
X485821Y107016D01*
X485847Y106784D01*
X485878Y106552D01*
X485915Y106322D01*
X485958Y106092D01*
X486007Y105863D01*
X486061Y105636D01*
X486120Y105410D01*
X486185Y105185D01*
X486256Y104962D01*
X486332Y104741D01*
X486414Y104522D01*
X486500Y104305D01*
X486592Y104090D01*
X486690Y103878D01*
X486792Y103668D01*
X486900Y103460D01*
X487013Y103255D01*
X487130Y103053D01*
X487253Y102854D01*
X487381Y102658D01*
X487513Y102466D01*
X487650Y102276D01*
X487791Y102090D01*
X487937Y101908D01*
X488088Y101729D01*
X488243Y101554D01*
X488402Y101382D01*
X488565Y101215D01*
X488732Y101052D01*
X488904Y100893D01*
X489079Y100738D01*
X489258Y100587D01*
X489440Y100441D01*
X489626Y100300D01*
X489816Y100163D01*
X490008Y100031D01*
X490204Y99903D01*
X490403Y99780D01*
X490605Y99663D01*
X490810Y99550D01*
X491018Y99442D01*
X491228Y99340D01*
X491440Y99242D01*
X491655Y99150D01*
X491872Y99064D01*
X492091Y98982D01*
X492312Y98906D01*
X492535Y98835D01*
X492760Y98770D01*
X492986Y98711D01*
X493213Y98657D01*
X493442Y98608D01*
X493672Y98565D01*
X493902Y98528D01*
X494134Y98497D01*
X494366Y98471D01*
X494599Y98451D01*
X494833Y98437D01*
X495066Y98428D01*
X495300Y98425D01*
X508000Y98425D01*
X508698Y98589D01*
X509392Y98770D01*
X510081Y98968D01*
X510765Y99183D01*
X511444Y99415D01*
X512117Y99663D01*
X512783Y99928D01*
X513443Y100209D01*
X514096Y100506D01*
X514741Y100818D01*
X515378Y101147D01*
X516007Y101491D01*
X516628Y101850D01*
X517240Y102225D01*
X517842Y102614D01*
X518434Y103018D01*
X519017Y103436D01*
X519589Y103869D01*
X520150Y104315D01*
X520700Y104775D01*
X521287Y105079D01*
X521881Y105368D01*
X522483Y105643D01*
X523090Y105903D01*
X523705Y106148D01*
X524324Y106378D01*
X524950Y106593D01*
X525580Y106792D01*
X526215Y106976D01*
X526854Y107144D01*
X527498Y107297D01*
X528145Y107433D01*
X528795Y107554D01*
X529447Y107659D01*
X530102Y107748D01*
X530760Y107821D01*
X531418Y107877D01*
X532078Y107918D01*
X532739Y107942D01*
X533400Y107950D01*
X600075Y107950D01*
X600186Y107948D01*
X600296Y107942D01*
X600407Y107933D01*
X600517Y107919D01*
X600626Y107902D01*
X600735Y107881D01*
X600843Y107856D01*
X600950Y107827D01*
X601056Y107795D01*
X601161Y107759D01*
X601264Y107719D01*
X601366Y107676D01*
X601467Y107629D01*
X601566Y107578D01*
X601663Y107525D01*
X601757Y107468D01*
X601850Y107407D01*
X601941Y107344D01*
X602030Y107277D01*
X602116Y107207D01*
X602199Y107134D01*
X602281Y107059D01*
X602359Y106981D01*
X602434Y106899D01*
X602507Y106816D01*
X602577Y106730D01*
X602644Y106641D01*
X602707Y106550D01*
X602768Y106457D01*
X602825Y106363D01*
X602878Y106266D01*
X602929Y106167D01*
X602976Y106066D01*
X603019Y105964D01*
X603059Y105861D01*
X603095Y105756D01*
X603127Y105650D01*
X603156Y105543D01*
X603181Y105435D01*
X603202Y105326D01*
X603219Y105217D01*
X603233Y105107D01*
X603242Y104996D01*
X603248Y104886D01*
X603250Y104775D01*
X609600Y57150D02*
X628650Y57150D01*
X609600Y57150D02*
X609442Y57152D01*
X609283Y57158D01*
X609125Y57168D01*
X608968Y57182D01*
X608810Y57199D01*
X608654Y57221D01*
X608497Y57246D01*
X608342Y57276D01*
X608187Y57309D01*
X608033Y57346D01*
X607880Y57387D01*
X607728Y57432D01*
X607578Y57481D01*
X607428Y57533D01*
X607280Y57589D01*
X607133Y57649D01*
X606988Y57712D01*
X606845Y57779D01*
X606703Y57849D01*
X606563Y57923D01*
X606425Y58001D01*
X606289Y58082D01*
X606155Y58166D01*
X606023Y58253D01*
X605893Y58344D01*
X605766Y58438D01*
X605641Y58535D01*
X605518Y58636D01*
X605398Y58739D01*
X605281Y58845D01*
X605166Y58954D01*
X605054Y59066D01*
X604945Y59181D01*
X604839Y59298D01*
X604736Y59418D01*
X604635Y59541D01*
X604538Y59666D01*
X604444Y59793D01*
X604353Y59923D01*
X604266Y60055D01*
X604182Y60189D01*
X604101Y60325D01*
X604023Y60463D01*
X603949Y60603D01*
X603879Y60745D01*
X603812Y60888D01*
X603749Y61033D01*
X603689Y61180D01*
X603633Y61328D01*
X603581Y61478D01*
X603532Y61628D01*
X603487Y61780D01*
X603446Y61933D01*
X603409Y62087D01*
X603376Y62242D01*
X603346Y62397D01*
X603321Y62554D01*
X603299Y62710D01*
X603282Y62868D01*
X603268Y63025D01*
X603258Y63183D01*
X603252Y63342D01*
X603250Y63500D01*
X603250Y104775D01*
D17*
X628650Y57150D03*
D15*
X577850Y63500D02*
X577850Y88900D01*
X577850Y63500D02*
X577850Y34925D01*
X590550Y69850D02*
X590550Y88900D01*
X590550Y69850D02*
X590548Y69692D01*
X590542Y69533D01*
X590532Y69375D01*
X590518Y69218D01*
X590501Y69060D01*
X590479Y68904D01*
X590454Y68747D01*
X590424Y68592D01*
X590391Y68437D01*
X590354Y68283D01*
X590313Y68130D01*
X590268Y67978D01*
X590219Y67828D01*
X590167Y67678D01*
X590111Y67530D01*
X590051Y67383D01*
X589988Y67238D01*
X589921Y67095D01*
X589851Y66953D01*
X589777Y66813D01*
X589699Y66675D01*
X589618Y66539D01*
X589534Y66405D01*
X589447Y66273D01*
X589356Y66143D01*
X589262Y66016D01*
X589165Y65891D01*
X589064Y65768D01*
X588961Y65648D01*
X588855Y65531D01*
X588746Y65416D01*
X588634Y65304D01*
X588519Y65195D01*
X588402Y65089D01*
X588282Y64986D01*
X588159Y64885D01*
X588034Y64788D01*
X587907Y64694D01*
X587777Y64603D01*
X587645Y64516D01*
X587511Y64432D01*
X587375Y64351D01*
X587237Y64273D01*
X587097Y64199D01*
X586955Y64129D01*
X586812Y64062D01*
X586667Y63999D01*
X586520Y63939D01*
X586372Y63883D01*
X586222Y63831D01*
X586072Y63782D01*
X585920Y63737D01*
X585767Y63696D01*
X585613Y63659D01*
X585458Y63626D01*
X585303Y63596D01*
X585146Y63571D01*
X584990Y63549D01*
X584832Y63532D01*
X584675Y63518D01*
X584517Y63508D01*
X584358Y63502D01*
X584200Y63500D01*
X577850Y63500D01*
X590550Y139700D02*
X590550Y193675D01*
X565150Y193675D01*
X577850Y158750D02*
X577850Y139700D01*
X577850Y158750D02*
X577848Y158908D01*
X577842Y159067D01*
X577832Y159225D01*
X577818Y159382D01*
X577801Y159540D01*
X577779Y159696D01*
X577754Y159853D01*
X577724Y160008D01*
X577691Y160163D01*
X577654Y160317D01*
X577613Y160470D01*
X577568Y160622D01*
X577519Y160772D01*
X577467Y160922D01*
X577411Y161070D01*
X577351Y161217D01*
X577288Y161362D01*
X577221Y161505D01*
X577151Y161647D01*
X577077Y161787D01*
X576999Y161925D01*
X576918Y162061D01*
X576834Y162195D01*
X576747Y162327D01*
X576656Y162457D01*
X576562Y162584D01*
X576465Y162709D01*
X576364Y162832D01*
X576261Y162952D01*
X576155Y163069D01*
X576046Y163184D01*
X575934Y163296D01*
X575819Y163405D01*
X575702Y163511D01*
X575582Y163614D01*
X575459Y163715D01*
X575334Y163812D01*
X575207Y163906D01*
X575077Y163997D01*
X574945Y164084D01*
X574811Y164168D01*
X574675Y164249D01*
X574537Y164327D01*
X574397Y164401D01*
X574255Y164471D01*
X574112Y164538D01*
X573967Y164601D01*
X573820Y164661D01*
X573672Y164717D01*
X573522Y164769D01*
X573372Y164818D01*
X573220Y164863D01*
X573067Y164904D01*
X572913Y164941D01*
X572758Y164974D01*
X572603Y165004D01*
X572446Y165029D01*
X572290Y165051D01*
X572132Y165068D01*
X571975Y165082D01*
X571817Y165092D01*
X571658Y165098D01*
X571500Y165100D01*
X501650Y146050D02*
X501650Y193675D01*
X539750Y193675D01*
X546100Y165100D02*
X571500Y165100D01*
X546100Y165100D02*
X545942Y165102D01*
X545783Y165108D01*
X545625Y165118D01*
X545468Y165132D01*
X545310Y165149D01*
X545154Y165171D01*
X544997Y165196D01*
X544842Y165226D01*
X544687Y165259D01*
X544533Y165296D01*
X544380Y165337D01*
X544228Y165382D01*
X544078Y165431D01*
X543928Y165483D01*
X543780Y165539D01*
X543633Y165599D01*
X543488Y165662D01*
X543345Y165729D01*
X543203Y165799D01*
X543063Y165873D01*
X542925Y165951D01*
X542789Y166032D01*
X542655Y166116D01*
X542523Y166203D01*
X542393Y166294D01*
X542266Y166388D01*
X542141Y166485D01*
X542018Y166586D01*
X541898Y166689D01*
X541781Y166795D01*
X541666Y166904D01*
X541554Y167016D01*
X541445Y167131D01*
X541339Y167248D01*
X541236Y167368D01*
X541135Y167491D01*
X541038Y167616D01*
X540944Y167743D01*
X540853Y167873D01*
X540766Y168005D01*
X540682Y168139D01*
X540601Y168275D01*
X540523Y168413D01*
X540449Y168553D01*
X540379Y168695D01*
X540312Y168838D01*
X540249Y168983D01*
X540189Y169130D01*
X540133Y169278D01*
X540081Y169428D01*
X540032Y169578D01*
X539987Y169730D01*
X539946Y169883D01*
X539909Y170037D01*
X539876Y170192D01*
X539846Y170347D01*
X539821Y170504D01*
X539799Y170660D01*
X539782Y170818D01*
X539768Y170975D01*
X539758Y171133D01*
X539752Y171292D01*
X539750Y171450D01*
X539750Y193675D01*
D18*
X615950Y161925D02*
X615950Y139700D01*
D17*
X615950Y161925D03*
D15*
X603250Y168275D02*
X603250Y139700D01*
X603250Y168275D02*
X603252Y168433D01*
X603258Y168592D01*
X603268Y168750D01*
X603282Y168907D01*
X603299Y169065D01*
X603321Y169221D01*
X603346Y169378D01*
X603376Y169533D01*
X603409Y169688D01*
X603446Y169842D01*
X603487Y169995D01*
X603532Y170147D01*
X603581Y170297D01*
X603633Y170447D01*
X603689Y170595D01*
X603749Y170742D01*
X603812Y170887D01*
X603879Y171030D01*
X603949Y171172D01*
X604023Y171312D01*
X604101Y171450D01*
X604182Y171586D01*
X604266Y171720D01*
X604353Y171852D01*
X604444Y171982D01*
X604538Y172109D01*
X604635Y172234D01*
X604736Y172357D01*
X604839Y172477D01*
X604945Y172594D01*
X605054Y172709D01*
X605166Y172821D01*
X605281Y172930D01*
X605398Y173036D01*
X605518Y173139D01*
X605641Y173240D01*
X605766Y173337D01*
X605893Y173431D01*
X606023Y173522D01*
X606155Y173609D01*
X606289Y173693D01*
X606425Y173774D01*
X606563Y173852D01*
X606703Y173926D01*
X606845Y173996D01*
X606988Y174063D01*
X607133Y174126D01*
X607280Y174186D01*
X607428Y174242D01*
X607578Y174294D01*
X607728Y174343D01*
X607880Y174388D01*
X608033Y174429D01*
X608187Y174466D01*
X608342Y174499D01*
X608497Y174529D01*
X608654Y174554D01*
X608810Y174576D01*
X608968Y174593D01*
X609125Y174607D01*
X609283Y174617D01*
X609442Y174623D01*
X609600Y174625D01*
X641350Y174625D01*
X647700Y174625D01*
X647858Y174623D01*
X648017Y174617D01*
X648175Y174607D01*
X648332Y174593D01*
X648490Y174576D01*
X648646Y174554D01*
X648803Y174529D01*
X648958Y174499D01*
X649113Y174466D01*
X649267Y174429D01*
X649420Y174388D01*
X649572Y174343D01*
X649722Y174294D01*
X649872Y174242D01*
X650020Y174186D01*
X650167Y174126D01*
X650312Y174063D01*
X650455Y173996D01*
X650597Y173926D01*
X650737Y173852D01*
X650875Y173774D01*
X651011Y173693D01*
X651145Y173609D01*
X651277Y173522D01*
X651407Y173431D01*
X651534Y173337D01*
X651659Y173240D01*
X651782Y173139D01*
X651902Y173036D01*
X652019Y172930D01*
X652134Y172821D01*
X652246Y172709D01*
X652355Y172594D01*
X652461Y172477D01*
X652564Y172357D01*
X652665Y172234D01*
X652762Y172109D01*
X652856Y171982D01*
X652947Y171852D01*
X653034Y171720D01*
X653118Y171586D01*
X653199Y171450D01*
X653277Y171312D01*
X653351Y171172D01*
X653421Y171030D01*
X653488Y170887D01*
X653551Y170742D01*
X653611Y170595D01*
X653667Y170447D01*
X653719Y170297D01*
X653768Y170147D01*
X653813Y169995D01*
X653854Y169842D01*
X653891Y169688D01*
X653924Y169533D01*
X653954Y169378D01*
X653979Y169221D01*
X654001Y169065D01*
X654018Y168907D01*
X654032Y168750D01*
X654042Y168592D01*
X654048Y168433D01*
X654050Y168275D01*
X654050Y139700D01*
X641350Y139700D02*
X641350Y174625D01*
D18*
X615950Y88900D02*
X615950Y69850D01*
D15*
X704850Y69850D02*
X704850Y88900D01*
X476250Y193675D02*
X457200Y193675D01*
X457200Y34925D02*
X476250Y34925D01*
X615950Y193675D02*
X679450Y193675D01*
X679608Y193673D01*
X679767Y193667D01*
X679925Y193657D01*
X680082Y193643D01*
X680240Y193626D01*
X680396Y193604D01*
X680553Y193579D01*
X680708Y193549D01*
X680863Y193516D01*
X681017Y193479D01*
X681170Y193438D01*
X681322Y193393D01*
X681472Y193344D01*
X681622Y193292D01*
X681770Y193236D01*
X681917Y193176D01*
X682062Y193113D01*
X682205Y193046D01*
X682347Y192976D01*
X682487Y192902D01*
X682625Y192824D01*
X682761Y192743D01*
X682895Y192659D01*
X683027Y192572D01*
X683157Y192481D01*
X683284Y192387D01*
X683409Y192290D01*
X683532Y192189D01*
X683652Y192086D01*
X683769Y191980D01*
X683884Y191871D01*
X683996Y191759D01*
X684105Y191644D01*
X684211Y191527D01*
X684314Y191407D01*
X684415Y191284D01*
X684512Y191159D01*
X684606Y191032D01*
X684697Y190902D01*
X684784Y190770D01*
X684868Y190636D01*
X684949Y190500D01*
X685027Y190362D01*
X685101Y190222D01*
X685171Y190080D01*
X685238Y189937D01*
X685301Y189792D01*
X685361Y189645D01*
X685417Y189497D01*
X685469Y189347D01*
X685518Y189197D01*
X685563Y189045D01*
X685604Y188892D01*
X685641Y188738D01*
X685674Y188583D01*
X685704Y188428D01*
X685729Y188271D01*
X685751Y188115D01*
X685768Y187957D01*
X685782Y187800D01*
X685792Y187642D01*
X685798Y187483D01*
X685800Y187325D01*
X685800Y149225D01*
D16*
X796925Y76200D03*
D17*
X615950Y69850D03*
X704850Y69850D03*
X457200Y193675D03*
X457200Y34925D03*
X685800Y149225D03*
D15*
X1123950Y596900D02*
X1216025Y596900D01*
X1079500Y596900D02*
X1079342Y596898D01*
X1079183Y596892D01*
X1079025Y596882D01*
X1078868Y596868D01*
X1078710Y596851D01*
X1078554Y596829D01*
X1078397Y596804D01*
X1078242Y596774D01*
X1078087Y596741D01*
X1077933Y596704D01*
X1077780Y596663D01*
X1077628Y596618D01*
X1077478Y596569D01*
X1077328Y596517D01*
X1077180Y596461D01*
X1077033Y596401D01*
X1076888Y596338D01*
X1076745Y596271D01*
X1076603Y596201D01*
X1076463Y596127D01*
X1076325Y596049D01*
X1076189Y595968D01*
X1076055Y595884D01*
X1075923Y595797D01*
X1075793Y595706D01*
X1075666Y595612D01*
X1075541Y595515D01*
X1075418Y595414D01*
X1075298Y595311D01*
X1075181Y595205D01*
X1075066Y595096D01*
X1074954Y594984D01*
X1074845Y594869D01*
X1074739Y594752D01*
X1074636Y594632D01*
X1074535Y594509D01*
X1074438Y594384D01*
X1074344Y594257D01*
X1074253Y594127D01*
X1074166Y593995D01*
X1074082Y593861D01*
X1074001Y593725D01*
X1073923Y593587D01*
X1073849Y593447D01*
X1073779Y593305D01*
X1073712Y593162D01*
X1073649Y593017D01*
X1073589Y592870D01*
X1073533Y592722D01*
X1073481Y592572D01*
X1073432Y592422D01*
X1073387Y592270D01*
X1073346Y592117D01*
X1073309Y591963D01*
X1073276Y591808D01*
X1073246Y591653D01*
X1073221Y591496D01*
X1073199Y591340D01*
X1073182Y591182D01*
X1073168Y591025D01*
X1073158Y590867D01*
X1073152Y590708D01*
X1073150Y590550D01*
X1079500Y596900D02*
X1123950Y596900D01*
X1073150Y590550D02*
X1073150Y555080D01*
X1073152Y554924D01*
X1073158Y554768D01*
X1073167Y554613D01*
X1073181Y554457D01*
X1073198Y554302D01*
X1073219Y554148D01*
X1073244Y553994D01*
X1073272Y553841D01*
X1073304Y553688D01*
X1073340Y553537D01*
X1073380Y553386D01*
X1073423Y553236D01*
X1073471Y553088D01*
X1073521Y552941D01*
X1073576Y552794D01*
X1073633Y552650D01*
X1073695Y552507D01*
X1073760Y552365D01*
X1073828Y552225D01*
X1073900Y552086D01*
X1073975Y551950D01*
X1074054Y551815D01*
X1074135Y551683D01*
X1074220Y551552D01*
X1074308Y551423D01*
X1074400Y551297D01*
X1074494Y551173D01*
X1074592Y551051D01*
X1074692Y550932D01*
X1074795Y550815D01*
X1074901Y550701D01*
X1075010Y550590D01*
X1083990Y541610D01*
X1084099Y541499D01*
X1084205Y541385D01*
X1084308Y541268D01*
X1084408Y541149D01*
X1084506Y541027D01*
X1084600Y540903D01*
X1084692Y540777D01*
X1084780Y540648D01*
X1084865Y540517D01*
X1084946Y540385D01*
X1085025Y540250D01*
X1085100Y540114D01*
X1085172Y539975D01*
X1085240Y539835D01*
X1085305Y539693D01*
X1085367Y539550D01*
X1085424Y539406D01*
X1085479Y539259D01*
X1085529Y539112D01*
X1085577Y538964D01*
X1085620Y538814D01*
X1085660Y538663D01*
X1085696Y538512D01*
X1085728Y538359D01*
X1085756Y538206D01*
X1085781Y538052D01*
X1085802Y537898D01*
X1085819Y537743D01*
X1085833Y537587D01*
X1085842Y537432D01*
X1085848Y537276D01*
X1085850Y537120D01*
X1085850Y517525D01*
D16*
X1216025Y596900D03*
X1216025Y635000D03*
D15*
X1060450Y571500D02*
X1060450Y517525D01*
X1022350Y517525D01*
X1041400Y596900D02*
X920750Y596900D01*
X1041400Y596900D02*
X1041558Y596898D01*
X1041717Y596892D01*
X1041875Y596882D01*
X1042032Y596868D01*
X1042190Y596851D01*
X1042346Y596829D01*
X1042503Y596804D01*
X1042658Y596774D01*
X1042813Y596741D01*
X1042967Y596704D01*
X1043120Y596663D01*
X1043272Y596618D01*
X1043422Y596569D01*
X1043572Y596517D01*
X1043720Y596461D01*
X1043867Y596401D01*
X1044012Y596338D01*
X1044155Y596271D01*
X1044297Y596201D01*
X1044437Y596127D01*
X1044575Y596049D01*
X1044711Y595968D01*
X1044845Y595884D01*
X1044977Y595797D01*
X1045107Y595706D01*
X1045234Y595612D01*
X1045359Y595515D01*
X1045482Y595414D01*
X1045602Y595311D01*
X1045719Y595205D01*
X1045834Y595096D01*
X1045946Y594984D01*
X1046055Y594869D01*
X1046161Y594752D01*
X1046264Y594632D01*
X1046365Y594509D01*
X1046462Y594384D01*
X1046556Y594257D01*
X1046647Y594127D01*
X1046734Y593995D01*
X1046818Y593861D01*
X1046899Y593725D01*
X1046977Y593587D01*
X1047051Y593447D01*
X1047121Y593305D01*
X1047188Y593162D01*
X1047251Y593017D01*
X1047311Y592870D01*
X1047367Y592722D01*
X1047419Y592572D01*
X1047468Y592422D01*
X1047513Y592270D01*
X1047554Y592117D01*
X1047591Y591963D01*
X1047624Y591808D01*
X1047654Y591653D01*
X1047679Y591496D01*
X1047701Y591340D01*
X1047718Y591182D01*
X1047732Y591025D01*
X1047742Y590867D01*
X1047748Y590708D01*
X1047750Y590550D01*
X1047750Y571500D01*
X920750Y565150D02*
X920750Y517525D01*
X1047750Y606425D02*
X1047750Y622300D01*
X1047750Y606425D02*
X1047748Y606314D01*
X1047742Y606204D01*
X1047733Y606093D01*
X1047719Y605983D01*
X1047702Y605874D01*
X1047681Y605765D01*
X1047656Y605657D01*
X1047627Y605550D01*
X1047595Y605444D01*
X1047559Y605339D01*
X1047519Y605235D01*
X1047476Y605133D01*
X1047429Y605033D01*
X1047379Y604934D01*
X1047325Y604837D01*
X1047268Y604742D01*
X1047208Y604649D01*
X1047144Y604559D01*
X1047077Y604470D01*
X1047007Y604384D01*
X1046935Y604300D01*
X1046859Y604219D01*
X1046781Y604141D01*
X1046700Y604065D01*
X1046616Y603993D01*
X1046530Y603923D01*
X1046441Y603856D01*
X1046351Y603792D01*
X1046258Y603732D01*
X1046163Y603675D01*
X1046066Y603621D01*
X1045967Y603571D01*
X1045867Y603524D01*
X1045765Y603481D01*
X1045661Y603441D01*
X1045556Y603405D01*
X1045450Y603373D01*
X1045343Y603344D01*
X1045235Y603319D01*
X1045126Y603298D01*
X1045017Y603281D01*
X1044907Y603267D01*
X1044796Y603258D01*
X1044686Y603252D01*
X1044575Y603250D01*
X952500Y603250D01*
X951839Y603258D01*
X951178Y603282D01*
X950519Y603323D01*
X949860Y603379D01*
X949203Y603452D01*
X948548Y603541D01*
X947895Y603646D01*
X947245Y603767D01*
X946598Y603903D01*
X945955Y604056D01*
X945315Y604224D01*
X944680Y604408D01*
X944050Y604607D01*
X943425Y604822D01*
X942805Y605052D01*
X942191Y605297D01*
X941583Y605557D01*
X940982Y605832D01*
X940387Y606121D01*
X939800Y606425D01*
X939250Y606885D01*
X938689Y607331D01*
X938117Y607764D01*
X937534Y608182D01*
X936942Y608586D01*
X936340Y608975D01*
X935728Y609350D01*
X935107Y609709D01*
X934478Y610053D01*
X933841Y610382D01*
X933196Y610694D01*
X932543Y610991D01*
X931883Y611272D01*
X931217Y611537D01*
X930544Y611785D01*
X929865Y612017D01*
X929181Y612232D01*
X928492Y612430D01*
X927798Y612611D01*
X927100Y612775D01*
X914400Y612775D01*
X914166Y612772D01*
X913933Y612763D01*
X913699Y612749D01*
X913466Y612729D01*
X913234Y612703D01*
X913002Y612672D01*
X912772Y612634D01*
X912542Y612592D01*
X912313Y612543D01*
X912086Y612489D01*
X911860Y612430D01*
X911635Y612364D01*
X911412Y612294D01*
X911191Y612218D01*
X910972Y612136D01*
X910755Y612049D01*
X910540Y611957D01*
X910328Y611860D01*
X910118Y611757D01*
X909910Y611650D01*
X909706Y611537D01*
X909504Y611419D01*
X909305Y611297D01*
X909109Y611169D01*
X908916Y611037D01*
X908726Y610900D01*
X908540Y610758D01*
X908358Y610612D01*
X908179Y610462D01*
X908004Y610307D01*
X907833Y610148D01*
X907665Y609985D01*
X907502Y609817D01*
X907343Y609646D01*
X907188Y609471D01*
X907038Y609292D01*
X906892Y609110D01*
X906750Y608924D01*
X906613Y608734D01*
X906481Y608541D01*
X906353Y608345D01*
X906231Y608146D01*
X906113Y607944D01*
X906000Y607740D01*
X905893Y607532D01*
X905790Y607322D01*
X905693Y607110D01*
X905601Y606895D01*
X905514Y606678D01*
X905432Y606459D01*
X905356Y606238D01*
X905286Y606015D01*
X905220Y605790D01*
X905161Y605564D01*
X905107Y605337D01*
X905058Y605108D01*
X905016Y604878D01*
X904978Y604648D01*
X904947Y604416D01*
X904921Y604184D01*
X904901Y603951D01*
X904887Y603717D01*
X904878Y603484D01*
X904875Y603250D01*
X904875Y590550D01*
X904878Y590316D01*
X904887Y590083D01*
X904901Y589849D01*
X904921Y589616D01*
X904947Y589384D01*
X904978Y589152D01*
X905015Y588922D01*
X905058Y588692D01*
X905107Y588463D01*
X905161Y588236D01*
X905220Y588010D01*
X905285Y587785D01*
X905356Y587562D01*
X905432Y587341D01*
X905514Y587122D01*
X905600Y586905D01*
X905692Y586690D01*
X905790Y586478D01*
X905892Y586268D01*
X906000Y586060D01*
X906113Y585855D01*
X906230Y585653D01*
X906353Y585454D01*
X906481Y585258D01*
X906613Y585066D01*
X906750Y584876D01*
X906891Y584690D01*
X907037Y584508D01*
X907188Y584329D01*
X907343Y584154D01*
X907502Y583982D01*
X907665Y583815D01*
X907832Y583652D01*
X908004Y583493D01*
X908179Y583338D01*
X908358Y583187D01*
X908540Y583041D01*
X908726Y582900D01*
X908916Y582763D01*
X909108Y582631D01*
X909304Y582503D01*
X909503Y582380D01*
X909705Y582263D01*
X909910Y582150D01*
X910118Y582042D01*
X910328Y581940D01*
X910540Y581842D01*
X910755Y581750D01*
X910972Y581664D01*
X911191Y581582D01*
X911412Y581506D01*
X911635Y581435D01*
X911860Y581370D01*
X912086Y581311D01*
X912313Y581257D01*
X912542Y581208D01*
X912772Y581165D01*
X913002Y581128D01*
X913234Y581097D01*
X913466Y581071D01*
X913699Y581051D01*
X913933Y581037D01*
X914166Y581028D01*
X914400Y581025D01*
X927100Y581025D01*
X927798Y581189D01*
X928492Y581370D01*
X929181Y581568D01*
X929865Y581783D01*
X930544Y582015D01*
X931217Y582263D01*
X931883Y582528D01*
X932543Y582809D01*
X933196Y583106D01*
X933841Y583418D01*
X934478Y583747D01*
X935107Y584091D01*
X935728Y584450D01*
X936340Y584825D01*
X936942Y585214D01*
X937534Y585618D01*
X938117Y586036D01*
X938689Y586469D01*
X939250Y586915D01*
X939800Y587375D01*
X940387Y587679D01*
X940981Y587968D01*
X941583Y588243D01*
X942190Y588503D01*
X942805Y588748D01*
X943424Y588978D01*
X944050Y589193D01*
X944680Y589392D01*
X945315Y589576D01*
X945954Y589744D01*
X946598Y589897D01*
X947245Y590033D01*
X947895Y590154D01*
X948547Y590259D01*
X949202Y590348D01*
X949860Y590421D01*
X950518Y590477D01*
X951178Y590518D01*
X951839Y590542D01*
X952500Y590550D01*
X1019175Y590550D01*
X1019286Y590548D01*
X1019396Y590542D01*
X1019507Y590533D01*
X1019617Y590519D01*
X1019726Y590502D01*
X1019835Y590481D01*
X1019943Y590456D01*
X1020050Y590427D01*
X1020156Y590395D01*
X1020261Y590359D01*
X1020364Y590319D01*
X1020466Y590276D01*
X1020567Y590229D01*
X1020666Y590178D01*
X1020763Y590125D01*
X1020857Y590068D01*
X1020950Y590007D01*
X1021041Y589944D01*
X1021130Y589877D01*
X1021216Y589807D01*
X1021299Y589734D01*
X1021381Y589659D01*
X1021459Y589581D01*
X1021534Y589499D01*
X1021607Y589416D01*
X1021677Y589330D01*
X1021744Y589241D01*
X1021807Y589150D01*
X1021868Y589057D01*
X1021925Y588963D01*
X1021978Y588866D01*
X1022029Y588767D01*
X1022076Y588666D01*
X1022119Y588564D01*
X1022159Y588461D01*
X1022195Y588356D01*
X1022227Y588250D01*
X1022256Y588143D01*
X1022281Y588035D01*
X1022302Y587926D01*
X1022319Y587817D01*
X1022333Y587707D01*
X1022342Y587596D01*
X1022348Y587486D01*
X1022350Y587375D01*
X1028700Y539750D02*
X1047750Y539750D01*
X1028700Y539750D02*
X1028542Y539752D01*
X1028383Y539758D01*
X1028225Y539768D01*
X1028068Y539782D01*
X1027910Y539799D01*
X1027754Y539821D01*
X1027597Y539846D01*
X1027442Y539876D01*
X1027287Y539909D01*
X1027133Y539946D01*
X1026980Y539987D01*
X1026828Y540032D01*
X1026678Y540081D01*
X1026528Y540133D01*
X1026380Y540189D01*
X1026233Y540249D01*
X1026088Y540312D01*
X1025945Y540379D01*
X1025803Y540449D01*
X1025663Y540523D01*
X1025525Y540601D01*
X1025389Y540682D01*
X1025255Y540766D01*
X1025123Y540853D01*
X1024993Y540944D01*
X1024866Y541038D01*
X1024741Y541135D01*
X1024618Y541236D01*
X1024498Y541339D01*
X1024381Y541445D01*
X1024266Y541554D01*
X1024154Y541666D01*
X1024045Y541781D01*
X1023939Y541898D01*
X1023836Y542018D01*
X1023735Y542141D01*
X1023638Y542266D01*
X1023544Y542393D01*
X1023453Y542523D01*
X1023366Y542655D01*
X1023282Y542789D01*
X1023201Y542925D01*
X1023123Y543063D01*
X1023049Y543203D01*
X1022979Y543345D01*
X1022912Y543488D01*
X1022849Y543633D01*
X1022789Y543780D01*
X1022733Y543928D01*
X1022681Y544078D01*
X1022632Y544228D01*
X1022587Y544380D01*
X1022546Y544533D01*
X1022509Y544687D01*
X1022476Y544842D01*
X1022446Y544997D01*
X1022421Y545154D01*
X1022399Y545310D01*
X1022382Y545468D01*
X1022368Y545625D01*
X1022358Y545783D01*
X1022352Y545942D01*
X1022350Y546100D01*
X1022350Y587375D01*
D17*
X1047750Y539750D03*
D15*
X996950Y546100D02*
X996950Y571500D01*
X996950Y546100D02*
X996950Y517525D01*
X1009650Y552450D02*
X1009650Y571500D01*
X1009650Y552450D02*
X1009648Y552292D01*
X1009642Y552133D01*
X1009632Y551975D01*
X1009618Y551818D01*
X1009601Y551660D01*
X1009579Y551504D01*
X1009554Y551347D01*
X1009524Y551192D01*
X1009491Y551037D01*
X1009454Y550883D01*
X1009413Y550730D01*
X1009368Y550578D01*
X1009319Y550428D01*
X1009267Y550278D01*
X1009211Y550130D01*
X1009151Y549983D01*
X1009088Y549838D01*
X1009021Y549695D01*
X1008951Y549553D01*
X1008877Y549413D01*
X1008799Y549275D01*
X1008718Y549139D01*
X1008634Y549005D01*
X1008547Y548873D01*
X1008456Y548743D01*
X1008362Y548616D01*
X1008265Y548491D01*
X1008164Y548368D01*
X1008061Y548248D01*
X1007955Y548131D01*
X1007846Y548016D01*
X1007734Y547904D01*
X1007619Y547795D01*
X1007502Y547689D01*
X1007382Y547586D01*
X1007259Y547485D01*
X1007134Y547388D01*
X1007007Y547294D01*
X1006877Y547203D01*
X1006745Y547116D01*
X1006611Y547032D01*
X1006475Y546951D01*
X1006337Y546873D01*
X1006197Y546799D01*
X1006055Y546729D01*
X1005912Y546662D01*
X1005767Y546599D01*
X1005620Y546539D01*
X1005472Y546483D01*
X1005322Y546431D01*
X1005172Y546382D01*
X1005020Y546337D01*
X1004867Y546296D01*
X1004713Y546259D01*
X1004558Y546226D01*
X1004403Y546196D01*
X1004246Y546171D01*
X1004090Y546149D01*
X1003932Y546132D01*
X1003775Y546118D01*
X1003617Y546108D01*
X1003458Y546102D01*
X1003300Y546100D01*
X996950Y546100D01*
X1009650Y622300D02*
X1009650Y676275D01*
X984250Y676275D01*
X996950Y641350D02*
X996950Y622300D01*
X996950Y641350D02*
X996948Y641508D01*
X996942Y641667D01*
X996932Y641825D01*
X996918Y641982D01*
X996901Y642140D01*
X996879Y642296D01*
X996854Y642453D01*
X996824Y642608D01*
X996791Y642763D01*
X996754Y642917D01*
X996713Y643070D01*
X996668Y643222D01*
X996619Y643372D01*
X996567Y643522D01*
X996511Y643670D01*
X996451Y643817D01*
X996388Y643962D01*
X996321Y644105D01*
X996251Y644247D01*
X996177Y644387D01*
X996099Y644525D01*
X996018Y644661D01*
X995934Y644795D01*
X995847Y644927D01*
X995756Y645057D01*
X995662Y645184D01*
X995565Y645309D01*
X995464Y645432D01*
X995361Y645552D01*
X995255Y645669D01*
X995146Y645784D01*
X995034Y645896D01*
X994919Y646005D01*
X994802Y646111D01*
X994682Y646214D01*
X994559Y646315D01*
X994434Y646412D01*
X994307Y646506D01*
X994177Y646597D01*
X994045Y646684D01*
X993911Y646768D01*
X993775Y646849D01*
X993637Y646927D01*
X993497Y647001D01*
X993355Y647071D01*
X993212Y647138D01*
X993067Y647201D01*
X992920Y647261D01*
X992772Y647317D01*
X992622Y647369D01*
X992472Y647418D01*
X992320Y647463D01*
X992167Y647504D01*
X992013Y647541D01*
X991858Y647574D01*
X991703Y647604D01*
X991546Y647629D01*
X991390Y647651D01*
X991232Y647668D01*
X991075Y647682D01*
X990917Y647692D01*
X990758Y647698D01*
X990600Y647700D01*
X920750Y628650D02*
X920750Y676275D01*
X958850Y676275D01*
X965200Y647700D02*
X990600Y647700D01*
X965200Y647700D02*
X965042Y647702D01*
X964883Y647708D01*
X964725Y647718D01*
X964568Y647732D01*
X964410Y647749D01*
X964254Y647771D01*
X964097Y647796D01*
X963942Y647826D01*
X963787Y647859D01*
X963633Y647896D01*
X963480Y647937D01*
X963328Y647982D01*
X963178Y648031D01*
X963028Y648083D01*
X962880Y648139D01*
X962733Y648199D01*
X962588Y648262D01*
X962445Y648329D01*
X962303Y648399D01*
X962163Y648473D01*
X962025Y648551D01*
X961889Y648632D01*
X961755Y648716D01*
X961623Y648803D01*
X961493Y648894D01*
X961366Y648988D01*
X961241Y649085D01*
X961118Y649186D01*
X960998Y649289D01*
X960881Y649395D01*
X960766Y649504D01*
X960654Y649616D01*
X960545Y649731D01*
X960439Y649848D01*
X960336Y649968D01*
X960235Y650091D01*
X960138Y650216D01*
X960044Y650343D01*
X959953Y650473D01*
X959866Y650605D01*
X959782Y650739D01*
X959701Y650875D01*
X959623Y651013D01*
X959549Y651153D01*
X959479Y651295D01*
X959412Y651438D01*
X959349Y651583D01*
X959289Y651730D01*
X959233Y651878D01*
X959181Y652028D01*
X959132Y652178D01*
X959087Y652330D01*
X959046Y652483D01*
X959009Y652637D01*
X958976Y652792D01*
X958946Y652947D01*
X958921Y653104D01*
X958899Y653260D01*
X958882Y653418D01*
X958868Y653575D01*
X958858Y653733D01*
X958852Y653892D01*
X958850Y654050D01*
X958850Y676275D01*
D18*
X1035050Y644525D02*
X1035050Y622300D01*
D17*
X1035050Y644525D03*
D15*
X1022350Y650875D02*
X1022350Y622300D01*
X1022350Y650875D02*
X1022352Y651033D01*
X1022358Y651192D01*
X1022368Y651350D01*
X1022382Y651507D01*
X1022399Y651665D01*
X1022421Y651821D01*
X1022446Y651978D01*
X1022476Y652133D01*
X1022509Y652288D01*
X1022546Y652442D01*
X1022587Y652595D01*
X1022632Y652747D01*
X1022681Y652897D01*
X1022733Y653047D01*
X1022789Y653195D01*
X1022849Y653342D01*
X1022912Y653487D01*
X1022979Y653630D01*
X1023049Y653772D01*
X1023123Y653912D01*
X1023201Y654050D01*
X1023282Y654186D01*
X1023366Y654320D01*
X1023453Y654452D01*
X1023544Y654582D01*
X1023638Y654709D01*
X1023735Y654834D01*
X1023836Y654957D01*
X1023939Y655077D01*
X1024045Y655194D01*
X1024154Y655309D01*
X1024266Y655421D01*
X1024381Y655530D01*
X1024498Y655636D01*
X1024618Y655739D01*
X1024741Y655840D01*
X1024866Y655937D01*
X1024993Y656031D01*
X1025123Y656122D01*
X1025255Y656209D01*
X1025389Y656293D01*
X1025525Y656374D01*
X1025663Y656452D01*
X1025803Y656526D01*
X1025945Y656596D01*
X1026088Y656663D01*
X1026233Y656726D01*
X1026380Y656786D01*
X1026528Y656842D01*
X1026678Y656894D01*
X1026828Y656943D01*
X1026980Y656988D01*
X1027133Y657029D01*
X1027287Y657066D01*
X1027442Y657099D01*
X1027597Y657129D01*
X1027754Y657154D01*
X1027910Y657176D01*
X1028068Y657193D01*
X1028225Y657207D01*
X1028383Y657217D01*
X1028542Y657223D01*
X1028700Y657225D01*
X1060450Y657225D01*
X1066800Y657225D01*
X1066958Y657223D01*
X1067117Y657217D01*
X1067275Y657207D01*
X1067432Y657193D01*
X1067590Y657176D01*
X1067746Y657154D01*
X1067903Y657129D01*
X1068058Y657099D01*
X1068213Y657066D01*
X1068367Y657029D01*
X1068520Y656988D01*
X1068672Y656943D01*
X1068822Y656894D01*
X1068972Y656842D01*
X1069120Y656786D01*
X1069267Y656726D01*
X1069412Y656663D01*
X1069555Y656596D01*
X1069697Y656526D01*
X1069837Y656452D01*
X1069975Y656374D01*
X1070111Y656293D01*
X1070245Y656209D01*
X1070377Y656122D01*
X1070507Y656031D01*
X1070634Y655937D01*
X1070759Y655840D01*
X1070882Y655739D01*
X1071002Y655636D01*
X1071119Y655530D01*
X1071234Y655421D01*
X1071346Y655309D01*
X1071455Y655194D01*
X1071561Y655077D01*
X1071664Y654957D01*
X1071765Y654834D01*
X1071862Y654709D01*
X1071956Y654582D01*
X1072047Y654452D01*
X1072134Y654320D01*
X1072218Y654186D01*
X1072299Y654050D01*
X1072377Y653912D01*
X1072451Y653772D01*
X1072521Y653630D01*
X1072588Y653487D01*
X1072651Y653342D01*
X1072711Y653195D01*
X1072767Y653047D01*
X1072819Y652897D01*
X1072868Y652747D01*
X1072913Y652595D01*
X1072954Y652442D01*
X1072991Y652288D01*
X1073024Y652133D01*
X1073054Y651978D01*
X1073079Y651821D01*
X1073101Y651665D01*
X1073118Y651507D01*
X1073132Y651350D01*
X1073142Y651192D01*
X1073148Y651033D01*
X1073150Y650875D01*
X1073150Y622300D01*
X1060450Y622300D02*
X1060450Y657225D01*
D18*
X1035050Y571500D02*
X1035050Y552450D01*
D15*
X1123950Y552450D02*
X1123950Y571500D01*
X895350Y676275D02*
X876300Y676275D01*
X876300Y517525D02*
X895350Y517525D01*
X1035050Y676275D02*
X1098550Y676275D01*
X1098708Y676273D01*
X1098867Y676267D01*
X1099025Y676257D01*
X1099182Y676243D01*
X1099340Y676226D01*
X1099496Y676204D01*
X1099653Y676179D01*
X1099808Y676149D01*
X1099963Y676116D01*
X1100117Y676079D01*
X1100270Y676038D01*
X1100422Y675993D01*
X1100572Y675944D01*
X1100722Y675892D01*
X1100870Y675836D01*
X1101017Y675776D01*
X1101162Y675713D01*
X1101305Y675646D01*
X1101447Y675576D01*
X1101587Y675502D01*
X1101725Y675424D01*
X1101861Y675343D01*
X1101995Y675259D01*
X1102127Y675172D01*
X1102257Y675081D01*
X1102384Y674987D01*
X1102509Y674890D01*
X1102632Y674789D01*
X1102752Y674686D01*
X1102869Y674580D01*
X1102984Y674471D01*
X1103096Y674359D01*
X1103205Y674244D01*
X1103311Y674127D01*
X1103414Y674007D01*
X1103515Y673884D01*
X1103612Y673759D01*
X1103706Y673632D01*
X1103797Y673502D01*
X1103884Y673370D01*
X1103968Y673236D01*
X1104049Y673100D01*
X1104127Y672962D01*
X1104201Y672822D01*
X1104271Y672680D01*
X1104338Y672537D01*
X1104401Y672392D01*
X1104461Y672245D01*
X1104517Y672097D01*
X1104569Y671947D01*
X1104618Y671797D01*
X1104663Y671645D01*
X1104704Y671492D01*
X1104741Y671338D01*
X1104774Y671183D01*
X1104804Y671028D01*
X1104829Y670871D01*
X1104851Y670715D01*
X1104868Y670557D01*
X1104882Y670400D01*
X1104892Y670242D01*
X1104898Y670083D01*
X1104900Y669925D01*
X1104900Y631825D01*
D16*
X1216025Y558800D03*
D17*
X1035050Y552450D03*
X1123950Y552450D03*
X876300Y676275D03*
X876300Y517525D03*
X1104900Y631825D03*
D15*
X1123950Y355600D02*
X1216025Y355600D01*
X1079500Y355600D02*
X1079342Y355598D01*
X1079183Y355592D01*
X1079025Y355582D01*
X1078868Y355568D01*
X1078710Y355551D01*
X1078554Y355529D01*
X1078397Y355504D01*
X1078242Y355474D01*
X1078087Y355441D01*
X1077933Y355404D01*
X1077780Y355363D01*
X1077628Y355318D01*
X1077478Y355269D01*
X1077328Y355217D01*
X1077180Y355161D01*
X1077033Y355101D01*
X1076888Y355038D01*
X1076745Y354971D01*
X1076603Y354901D01*
X1076463Y354827D01*
X1076325Y354749D01*
X1076189Y354668D01*
X1076055Y354584D01*
X1075923Y354497D01*
X1075793Y354406D01*
X1075666Y354312D01*
X1075541Y354215D01*
X1075418Y354114D01*
X1075298Y354011D01*
X1075181Y353905D01*
X1075066Y353796D01*
X1074954Y353684D01*
X1074845Y353569D01*
X1074739Y353452D01*
X1074636Y353332D01*
X1074535Y353209D01*
X1074438Y353084D01*
X1074344Y352957D01*
X1074253Y352827D01*
X1074166Y352695D01*
X1074082Y352561D01*
X1074001Y352425D01*
X1073923Y352287D01*
X1073849Y352147D01*
X1073779Y352005D01*
X1073712Y351862D01*
X1073649Y351717D01*
X1073589Y351570D01*
X1073533Y351422D01*
X1073481Y351272D01*
X1073432Y351122D01*
X1073387Y350970D01*
X1073346Y350817D01*
X1073309Y350663D01*
X1073276Y350508D01*
X1073246Y350353D01*
X1073221Y350196D01*
X1073199Y350040D01*
X1073182Y349882D01*
X1073168Y349725D01*
X1073158Y349567D01*
X1073152Y349408D01*
X1073150Y349250D01*
X1079500Y355600D02*
X1123950Y355600D01*
X1073150Y349250D02*
X1073150Y313780D01*
X1073152Y313624D01*
X1073158Y313468D01*
X1073167Y313313D01*
X1073181Y313157D01*
X1073198Y313002D01*
X1073219Y312848D01*
X1073244Y312694D01*
X1073272Y312541D01*
X1073304Y312388D01*
X1073340Y312237D01*
X1073380Y312086D01*
X1073423Y311936D01*
X1073471Y311788D01*
X1073521Y311641D01*
X1073576Y311494D01*
X1073633Y311350D01*
X1073695Y311207D01*
X1073760Y311065D01*
X1073828Y310925D01*
X1073900Y310786D01*
X1073975Y310650D01*
X1074054Y310515D01*
X1074135Y310383D01*
X1074220Y310252D01*
X1074308Y310123D01*
X1074400Y309997D01*
X1074494Y309873D01*
X1074592Y309751D01*
X1074692Y309632D01*
X1074795Y309515D01*
X1074901Y309401D01*
X1075010Y309290D01*
X1083990Y300310D01*
X1084099Y300199D01*
X1084205Y300085D01*
X1084308Y299968D01*
X1084408Y299849D01*
X1084506Y299727D01*
X1084600Y299603D01*
X1084692Y299477D01*
X1084780Y299348D01*
X1084865Y299217D01*
X1084946Y299085D01*
X1085025Y298950D01*
X1085100Y298814D01*
X1085172Y298675D01*
X1085240Y298535D01*
X1085305Y298393D01*
X1085367Y298250D01*
X1085424Y298106D01*
X1085479Y297959D01*
X1085529Y297812D01*
X1085577Y297664D01*
X1085620Y297514D01*
X1085660Y297363D01*
X1085696Y297212D01*
X1085728Y297059D01*
X1085756Y296906D01*
X1085781Y296752D01*
X1085802Y296598D01*
X1085819Y296443D01*
X1085833Y296287D01*
X1085842Y296132D01*
X1085848Y295976D01*
X1085850Y295820D01*
X1085850Y276225D01*
D16*
X1216025Y355600D03*
X1216025Y393700D03*
D15*
X1060450Y330200D02*
X1060450Y276225D01*
X1022350Y276225D01*
X1041400Y355600D02*
X920750Y355600D01*
X1041400Y355600D02*
X1041558Y355598D01*
X1041717Y355592D01*
X1041875Y355582D01*
X1042032Y355568D01*
X1042190Y355551D01*
X1042346Y355529D01*
X1042503Y355504D01*
X1042658Y355474D01*
X1042813Y355441D01*
X1042967Y355404D01*
X1043120Y355363D01*
X1043272Y355318D01*
X1043422Y355269D01*
X1043572Y355217D01*
X1043720Y355161D01*
X1043867Y355101D01*
X1044012Y355038D01*
X1044155Y354971D01*
X1044297Y354901D01*
X1044437Y354827D01*
X1044575Y354749D01*
X1044711Y354668D01*
X1044845Y354584D01*
X1044977Y354497D01*
X1045107Y354406D01*
X1045234Y354312D01*
X1045359Y354215D01*
X1045482Y354114D01*
X1045602Y354011D01*
X1045719Y353905D01*
X1045834Y353796D01*
X1045946Y353684D01*
X1046055Y353569D01*
X1046161Y353452D01*
X1046264Y353332D01*
X1046365Y353209D01*
X1046462Y353084D01*
X1046556Y352957D01*
X1046647Y352827D01*
X1046734Y352695D01*
X1046818Y352561D01*
X1046899Y352425D01*
X1046977Y352287D01*
X1047051Y352147D01*
X1047121Y352005D01*
X1047188Y351862D01*
X1047251Y351717D01*
X1047311Y351570D01*
X1047367Y351422D01*
X1047419Y351272D01*
X1047468Y351122D01*
X1047513Y350970D01*
X1047554Y350817D01*
X1047591Y350663D01*
X1047624Y350508D01*
X1047654Y350353D01*
X1047679Y350196D01*
X1047701Y350040D01*
X1047718Y349882D01*
X1047732Y349725D01*
X1047742Y349567D01*
X1047748Y349408D01*
X1047750Y349250D01*
X1047750Y330200D01*
X920750Y323850D02*
X920750Y276225D01*
X1047750Y365125D02*
X1047750Y381000D01*
X1047750Y365125D02*
X1047748Y365014D01*
X1047742Y364904D01*
X1047733Y364793D01*
X1047719Y364683D01*
X1047702Y364574D01*
X1047681Y364465D01*
X1047656Y364357D01*
X1047627Y364250D01*
X1047595Y364144D01*
X1047559Y364039D01*
X1047519Y363935D01*
X1047476Y363833D01*
X1047429Y363733D01*
X1047379Y363634D01*
X1047325Y363537D01*
X1047268Y363442D01*
X1047208Y363349D01*
X1047144Y363259D01*
X1047077Y363170D01*
X1047007Y363084D01*
X1046935Y363000D01*
X1046859Y362919D01*
X1046781Y362841D01*
X1046700Y362765D01*
X1046616Y362693D01*
X1046530Y362623D01*
X1046441Y362556D01*
X1046351Y362492D01*
X1046258Y362432D01*
X1046163Y362375D01*
X1046066Y362321D01*
X1045967Y362271D01*
X1045867Y362224D01*
X1045765Y362181D01*
X1045661Y362141D01*
X1045556Y362105D01*
X1045450Y362073D01*
X1045343Y362044D01*
X1045235Y362019D01*
X1045126Y361998D01*
X1045017Y361981D01*
X1044907Y361967D01*
X1044796Y361958D01*
X1044686Y361952D01*
X1044575Y361950D01*
X952500Y361950D01*
X951839Y361958D01*
X951178Y361982D01*
X950519Y362023D01*
X949860Y362079D01*
X949203Y362152D01*
X948548Y362241D01*
X947895Y362346D01*
X947245Y362467D01*
X946598Y362603D01*
X945955Y362756D01*
X945315Y362924D01*
X944680Y363108D01*
X944050Y363307D01*
X943425Y363522D01*
X942805Y363752D01*
X942191Y363997D01*
X941583Y364257D01*
X940982Y364532D01*
X940387Y364821D01*
X939800Y365125D01*
X939250Y365585D01*
X938689Y366031D01*
X938117Y366464D01*
X937534Y366882D01*
X936942Y367286D01*
X936340Y367675D01*
X935728Y368050D01*
X935107Y368409D01*
X934478Y368753D01*
X933841Y369082D01*
X933196Y369394D01*
X932543Y369691D01*
X931883Y369972D01*
X931217Y370237D01*
X930544Y370485D01*
X929865Y370717D01*
X929181Y370932D01*
X928492Y371130D01*
X927798Y371311D01*
X927100Y371475D01*
X914400Y371475D01*
X914166Y371472D01*
X913933Y371463D01*
X913699Y371449D01*
X913466Y371429D01*
X913234Y371403D01*
X913002Y371372D01*
X912772Y371334D01*
X912542Y371292D01*
X912313Y371243D01*
X912086Y371189D01*
X911860Y371130D01*
X911635Y371064D01*
X911412Y370994D01*
X911191Y370918D01*
X910972Y370836D01*
X910755Y370749D01*
X910540Y370657D01*
X910328Y370560D01*
X910118Y370457D01*
X909910Y370350D01*
X909706Y370237D01*
X909504Y370119D01*
X909305Y369997D01*
X909109Y369869D01*
X908916Y369737D01*
X908726Y369600D01*
X908540Y369458D01*
X908358Y369312D01*
X908179Y369162D01*
X908004Y369007D01*
X907833Y368848D01*
X907665Y368685D01*
X907502Y368517D01*
X907343Y368346D01*
X907188Y368171D01*
X907038Y367992D01*
X906892Y367810D01*
X906750Y367624D01*
X906613Y367434D01*
X906481Y367241D01*
X906353Y367045D01*
X906231Y366846D01*
X906113Y366644D01*
X906000Y366440D01*
X905893Y366232D01*
X905790Y366022D01*
X905693Y365810D01*
X905601Y365595D01*
X905514Y365378D01*
X905432Y365159D01*
X905356Y364938D01*
X905286Y364715D01*
X905220Y364490D01*
X905161Y364264D01*
X905107Y364037D01*
X905058Y363808D01*
X905016Y363578D01*
X904978Y363348D01*
X904947Y363116D01*
X904921Y362884D01*
X904901Y362651D01*
X904887Y362417D01*
X904878Y362184D01*
X904875Y361950D01*
X904875Y349250D01*
X904878Y349016D01*
X904887Y348783D01*
X904901Y348549D01*
X904921Y348316D01*
X904947Y348084D01*
X904978Y347852D01*
X905015Y347622D01*
X905058Y347392D01*
X905107Y347163D01*
X905161Y346936D01*
X905220Y346710D01*
X905285Y346485D01*
X905356Y346262D01*
X905432Y346041D01*
X905514Y345822D01*
X905600Y345605D01*
X905692Y345390D01*
X905790Y345178D01*
X905892Y344968D01*
X906000Y344760D01*
X906113Y344555D01*
X906230Y344353D01*
X906353Y344154D01*
X906481Y343958D01*
X906613Y343766D01*
X906750Y343576D01*
X906891Y343390D01*
X907037Y343208D01*
X907188Y343029D01*
X907343Y342854D01*
X907502Y342682D01*
X907665Y342515D01*
X907832Y342352D01*
X908004Y342193D01*
X908179Y342038D01*
X908358Y341887D01*
X908540Y341741D01*
X908726Y341600D01*
X908916Y341463D01*
X909108Y341331D01*
X909304Y341203D01*
X909503Y341080D01*
X909705Y340963D01*
X909910Y340850D01*
X910118Y340742D01*
X910328Y340640D01*
X910540Y340542D01*
X910755Y340450D01*
X910972Y340364D01*
X911191Y340282D01*
X911412Y340206D01*
X911635Y340135D01*
X911860Y340070D01*
X912086Y340011D01*
X912313Y339957D01*
X912542Y339908D01*
X912772Y339865D01*
X913002Y339828D01*
X913234Y339797D01*
X913466Y339771D01*
X913699Y339751D01*
X913933Y339737D01*
X914166Y339728D01*
X914400Y339725D01*
X927100Y339725D01*
X927798Y339889D01*
X928492Y340070D01*
X929181Y340268D01*
X929865Y340483D01*
X930544Y340715D01*
X931217Y340963D01*
X931883Y341228D01*
X932543Y341509D01*
X933196Y341806D01*
X933841Y342118D01*
X934478Y342447D01*
X935107Y342791D01*
X935728Y343150D01*
X936340Y343525D01*
X936942Y343914D01*
X937534Y344318D01*
X938117Y344736D01*
X938689Y345169D01*
X939250Y345615D01*
X939800Y346075D01*
X940387Y346379D01*
X940981Y346668D01*
X941583Y346943D01*
X942190Y347203D01*
X942805Y347448D01*
X943424Y347678D01*
X944050Y347893D01*
X944680Y348092D01*
X945315Y348276D01*
X945954Y348444D01*
X946598Y348597D01*
X947245Y348733D01*
X947895Y348854D01*
X948547Y348959D01*
X949202Y349048D01*
X949860Y349121D01*
X950518Y349177D01*
X951178Y349218D01*
X951839Y349242D01*
X952500Y349250D01*
X1019175Y349250D01*
X1019286Y349248D01*
X1019396Y349242D01*
X1019507Y349233D01*
X1019617Y349219D01*
X1019726Y349202D01*
X1019835Y349181D01*
X1019943Y349156D01*
X1020050Y349127D01*
X1020156Y349095D01*
X1020261Y349059D01*
X1020364Y349019D01*
X1020466Y348976D01*
X1020567Y348929D01*
X1020666Y348878D01*
X1020763Y348825D01*
X1020857Y348768D01*
X1020950Y348707D01*
X1021041Y348644D01*
X1021130Y348577D01*
X1021216Y348507D01*
X1021299Y348434D01*
X1021381Y348359D01*
X1021459Y348281D01*
X1021534Y348199D01*
X1021607Y348116D01*
X1021677Y348030D01*
X1021744Y347941D01*
X1021807Y347850D01*
X1021868Y347757D01*
X1021925Y347663D01*
X1021978Y347566D01*
X1022029Y347467D01*
X1022076Y347366D01*
X1022119Y347264D01*
X1022159Y347161D01*
X1022195Y347056D01*
X1022227Y346950D01*
X1022256Y346843D01*
X1022281Y346735D01*
X1022302Y346626D01*
X1022319Y346517D01*
X1022333Y346407D01*
X1022342Y346296D01*
X1022348Y346186D01*
X1022350Y346075D01*
X1028700Y298450D02*
X1047750Y298450D01*
X1028700Y298450D02*
X1028542Y298452D01*
X1028383Y298458D01*
X1028225Y298468D01*
X1028068Y298482D01*
X1027910Y298499D01*
X1027754Y298521D01*
X1027597Y298546D01*
X1027442Y298576D01*
X1027287Y298609D01*
X1027133Y298646D01*
X1026980Y298687D01*
X1026828Y298732D01*
X1026678Y298781D01*
X1026528Y298833D01*
X1026380Y298889D01*
X1026233Y298949D01*
X1026088Y299012D01*
X1025945Y299079D01*
X1025803Y299149D01*
X1025663Y299223D01*
X1025525Y299301D01*
X1025389Y299382D01*
X1025255Y299466D01*
X1025123Y299553D01*
X1024993Y299644D01*
X1024866Y299738D01*
X1024741Y299835D01*
X1024618Y299936D01*
X1024498Y300039D01*
X1024381Y300145D01*
X1024266Y300254D01*
X1024154Y300366D01*
X1024045Y300481D01*
X1023939Y300598D01*
X1023836Y300718D01*
X1023735Y300841D01*
X1023638Y300966D01*
X1023544Y301093D01*
X1023453Y301223D01*
X1023366Y301355D01*
X1023282Y301489D01*
X1023201Y301625D01*
X1023123Y301763D01*
X1023049Y301903D01*
X1022979Y302045D01*
X1022912Y302188D01*
X1022849Y302333D01*
X1022789Y302480D01*
X1022733Y302628D01*
X1022681Y302778D01*
X1022632Y302928D01*
X1022587Y303080D01*
X1022546Y303233D01*
X1022509Y303387D01*
X1022476Y303542D01*
X1022446Y303697D01*
X1022421Y303854D01*
X1022399Y304010D01*
X1022382Y304168D01*
X1022368Y304325D01*
X1022358Y304483D01*
X1022352Y304642D01*
X1022350Y304800D01*
X1022350Y346075D01*
D17*
X1047750Y298450D03*
D15*
X996950Y304800D02*
X996950Y330200D01*
X996950Y304800D02*
X996950Y276225D01*
X1009650Y311150D02*
X1009650Y330200D01*
X1009650Y311150D02*
X1009648Y310992D01*
X1009642Y310833D01*
X1009632Y310675D01*
X1009618Y310518D01*
X1009601Y310360D01*
X1009579Y310204D01*
X1009554Y310047D01*
X1009524Y309892D01*
X1009491Y309737D01*
X1009454Y309583D01*
X1009413Y309430D01*
X1009368Y309278D01*
X1009319Y309128D01*
X1009267Y308978D01*
X1009211Y308830D01*
X1009151Y308683D01*
X1009088Y308538D01*
X1009021Y308395D01*
X1008951Y308253D01*
X1008877Y308113D01*
X1008799Y307975D01*
X1008718Y307839D01*
X1008634Y307705D01*
X1008547Y307573D01*
X1008456Y307443D01*
X1008362Y307316D01*
X1008265Y307191D01*
X1008164Y307068D01*
X1008061Y306948D01*
X1007955Y306831D01*
X1007846Y306716D01*
X1007734Y306604D01*
X1007619Y306495D01*
X1007502Y306389D01*
X1007382Y306286D01*
X1007259Y306185D01*
X1007134Y306088D01*
X1007007Y305994D01*
X1006877Y305903D01*
X1006745Y305816D01*
X1006611Y305732D01*
X1006475Y305651D01*
X1006337Y305573D01*
X1006197Y305499D01*
X1006055Y305429D01*
X1005912Y305362D01*
X1005767Y305299D01*
X1005620Y305239D01*
X1005472Y305183D01*
X1005322Y305131D01*
X1005172Y305082D01*
X1005020Y305037D01*
X1004867Y304996D01*
X1004713Y304959D01*
X1004558Y304926D01*
X1004403Y304896D01*
X1004246Y304871D01*
X1004090Y304849D01*
X1003932Y304832D01*
X1003775Y304818D01*
X1003617Y304808D01*
X1003458Y304802D01*
X1003300Y304800D01*
X996950Y304800D01*
X1009650Y381000D02*
X1009650Y434975D01*
X984250Y434975D01*
X996950Y400050D02*
X996950Y381000D01*
X996950Y400050D02*
X996948Y400208D01*
X996942Y400367D01*
X996932Y400525D01*
X996918Y400682D01*
X996901Y400840D01*
X996879Y400996D01*
X996854Y401153D01*
X996824Y401308D01*
X996791Y401463D01*
X996754Y401617D01*
X996713Y401770D01*
X996668Y401922D01*
X996619Y402072D01*
X996567Y402222D01*
X996511Y402370D01*
X996451Y402517D01*
X996388Y402662D01*
X996321Y402805D01*
X996251Y402947D01*
X996177Y403087D01*
X996099Y403225D01*
X996018Y403361D01*
X995934Y403495D01*
X995847Y403627D01*
X995756Y403757D01*
X995662Y403884D01*
X995565Y404009D01*
X995464Y404132D01*
X995361Y404252D01*
X995255Y404369D01*
X995146Y404484D01*
X995034Y404596D01*
X994919Y404705D01*
X994802Y404811D01*
X994682Y404914D01*
X994559Y405015D01*
X994434Y405112D01*
X994307Y405206D01*
X994177Y405297D01*
X994045Y405384D01*
X993911Y405468D01*
X993775Y405549D01*
X993637Y405627D01*
X993497Y405701D01*
X993355Y405771D01*
X993212Y405838D01*
X993067Y405901D01*
X992920Y405961D01*
X992772Y406017D01*
X992622Y406069D01*
X992472Y406118D01*
X992320Y406163D01*
X992167Y406204D01*
X992013Y406241D01*
X991858Y406274D01*
X991703Y406304D01*
X991546Y406329D01*
X991390Y406351D01*
X991232Y406368D01*
X991075Y406382D01*
X990917Y406392D01*
X990758Y406398D01*
X990600Y406400D01*
X920750Y387350D02*
X920750Y434975D01*
X958850Y434975D01*
X965200Y406400D02*
X990600Y406400D01*
X965200Y406400D02*
X965042Y406402D01*
X964883Y406408D01*
X964725Y406418D01*
X964568Y406432D01*
X964410Y406449D01*
X964254Y406471D01*
X964097Y406496D01*
X963942Y406526D01*
X963787Y406559D01*
X963633Y406596D01*
X963480Y406637D01*
X963328Y406682D01*
X963178Y406731D01*
X963028Y406783D01*
X962880Y406839D01*
X962733Y406899D01*
X962588Y406962D01*
X962445Y407029D01*
X962303Y407099D01*
X962163Y407173D01*
X962025Y407251D01*
X961889Y407332D01*
X961755Y407416D01*
X961623Y407503D01*
X961493Y407594D01*
X961366Y407688D01*
X961241Y407785D01*
X961118Y407886D01*
X960998Y407989D01*
X960881Y408095D01*
X960766Y408204D01*
X960654Y408316D01*
X960545Y408431D01*
X960439Y408548D01*
X960336Y408668D01*
X960235Y408791D01*
X960138Y408916D01*
X960044Y409043D01*
X959953Y409173D01*
X959866Y409305D01*
X959782Y409439D01*
X959701Y409575D01*
X959623Y409713D01*
X959549Y409853D01*
X959479Y409995D01*
X959412Y410138D01*
X959349Y410283D01*
X959289Y410430D01*
X959233Y410578D01*
X959181Y410728D01*
X959132Y410878D01*
X959087Y411030D01*
X959046Y411183D01*
X959009Y411337D01*
X958976Y411492D01*
X958946Y411647D01*
X958921Y411804D01*
X958899Y411960D01*
X958882Y412118D01*
X958868Y412275D01*
X958858Y412433D01*
X958852Y412592D01*
X958850Y412750D01*
X958850Y434975D01*
D18*
X1035050Y403225D02*
X1035050Y381000D01*
D17*
X1035050Y403225D03*
D15*
X1022350Y409575D02*
X1022350Y381000D01*
X1022350Y409575D02*
X1022352Y409733D01*
X1022358Y409892D01*
X1022368Y410050D01*
X1022382Y410207D01*
X1022399Y410365D01*
X1022421Y410521D01*
X1022446Y410678D01*
X1022476Y410833D01*
X1022509Y410988D01*
X1022546Y411142D01*
X1022587Y411295D01*
X1022632Y411447D01*
X1022681Y411597D01*
X1022733Y411747D01*
X1022789Y411895D01*
X1022849Y412042D01*
X1022912Y412187D01*
X1022979Y412330D01*
X1023049Y412472D01*
X1023123Y412612D01*
X1023201Y412750D01*
X1023282Y412886D01*
X1023366Y413020D01*
X1023453Y413152D01*
X1023544Y413282D01*
X1023638Y413409D01*
X1023735Y413534D01*
X1023836Y413657D01*
X1023939Y413777D01*
X1024045Y413894D01*
X1024154Y414009D01*
X1024266Y414121D01*
X1024381Y414230D01*
X1024498Y414336D01*
X1024618Y414439D01*
X1024741Y414540D01*
X1024866Y414637D01*
X1024993Y414731D01*
X1025123Y414822D01*
X1025255Y414909D01*
X1025389Y414993D01*
X1025525Y415074D01*
X1025663Y415152D01*
X1025803Y415226D01*
X1025945Y415296D01*
X1026088Y415363D01*
X1026233Y415426D01*
X1026380Y415486D01*
X1026528Y415542D01*
X1026678Y415594D01*
X1026828Y415643D01*
X1026980Y415688D01*
X1027133Y415729D01*
X1027287Y415766D01*
X1027442Y415799D01*
X1027597Y415829D01*
X1027754Y415854D01*
X1027910Y415876D01*
X1028068Y415893D01*
X1028225Y415907D01*
X1028383Y415917D01*
X1028542Y415923D01*
X1028700Y415925D01*
X1060450Y415925D01*
X1066800Y415925D01*
X1066958Y415923D01*
X1067117Y415917D01*
X1067275Y415907D01*
X1067432Y415893D01*
X1067590Y415876D01*
X1067746Y415854D01*
X1067903Y415829D01*
X1068058Y415799D01*
X1068213Y415766D01*
X1068367Y415729D01*
X1068520Y415688D01*
X1068672Y415643D01*
X1068822Y415594D01*
X1068972Y415542D01*
X1069120Y415486D01*
X1069267Y415426D01*
X1069412Y415363D01*
X1069555Y415296D01*
X1069697Y415226D01*
X1069837Y415152D01*
X1069975Y415074D01*
X1070111Y414993D01*
X1070245Y414909D01*
X1070377Y414822D01*
X1070507Y414731D01*
X1070634Y414637D01*
X1070759Y414540D01*
X1070882Y414439D01*
X1071002Y414336D01*
X1071119Y414230D01*
X1071234Y414121D01*
X1071346Y414009D01*
X1071455Y413894D01*
X1071561Y413777D01*
X1071664Y413657D01*
X1071765Y413534D01*
X1071862Y413409D01*
X1071956Y413282D01*
X1072047Y413152D01*
X1072134Y413020D01*
X1072218Y412886D01*
X1072299Y412750D01*
X1072377Y412612D01*
X1072451Y412472D01*
X1072521Y412330D01*
X1072588Y412187D01*
X1072651Y412042D01*
X1072711Y411895D01*
X1072767Y411747D01*
X1072819Y411597D01*
X1072868Y411447D01*
X1072913Y411295D01*
X1072954Y411142D01*
X1072991Y410988D01*
X1073024Y410833D01*
X1073054Y410678D01*
X1073079Y410521D01*
X1073101Y410365D01*
X1073118Y410207D01*
X1073132Y410050D01*
X1073142Y409892D01*
X1073148Y409733D01*
X1073150Y409575D01*
X1073150Y381000D01*
X1060450Y381000D02*
X1060450Y415925D01*
D18*
X1035050Y330200D02*
X1035050Y311150D01*
D15*
X1123950Y311150D02*
X1123950Y330200D01*
X895350Y434975D02*
X876300Y434975D01*
X876300Y276225D02*
X895350Y276225D01*
X1035050Y434975D02*
X1098550Y434975D01*
X1098708Y434973D01*
X1098867Y434967D01*
X1099025Y434957D01*
X1099182Y434943D01*
X1099340Y434926D01*
X1099496Y434904D01*
X1099653Y434879D01*
X1099808Y434849D01*
X1099963Y434816D01*
X1100117Y434779D01*
X1100270Y434738D01*
X1100422Y434693D01*
X1100572Y434644D01*
X1100722Y434592D01*
X1100870Y434536D01*
X1101017Y434476D01*
X1101162Y434413D01*
X1101305Y434346D01*
X1101447Y434276D01*
X1101587Y434202D01*
X1101725Y434124D01*
X1101861Y434043D01*
X1101995Y433959D01*
X1102127Y433872D01*
X1102257Y433781D01*
X1102384Y433687D01*
X1102509Y433590D01*
X1102632Y433489D01*
X1102752Y433386D01*
X1102869Y433280D01*
X1102984Y433171D01*
X1103096Y433059D01*
X1103205Y432944D01*
X1103311Y432827D01*
X1103414Y432707D01*
X1103515Y432584D01*
X1103612Y432459D01*
X1103706Y432332D01*
X1103797Y432202D01*
X1103884Y432070D01*
X1103968Y431936D01*
X1104049Y431800D01*
X1104127Y431662D01*
X1104201Y431522D01*
X1104271Y431380D01*
X1104338Y431237D01*
X1104401Y431092D01*
X1104461Y430945D01*
X1104517Y430797D01*
X1104569Y430647D01*
X1104618Y430497D01*
X1104663Y430345D01*
X1104704Y430192D01*
X1104741Y430038D01*
X1104774Y429883D01*
X1104804Y429728D01*
X1104829Y429571D01*
X1104851Y429415D01*
X1104868Y429257D01*
X1104882Y429100D01*
X1104892Y428942D01*
X1104898Y428783D01*
X1104900Y428625D01*
X1104900Y390525D01*
D16*
X1216025Y317500D03*
D17*
X1035050Y311150D03*
X1123950Y311150D03*
X876300Y434975D03*
X876300Y276225D03*
X1104900Y390525D03*
D15*
X1123950Y114300D02*
X1216025Y114300D01*
X1079500Y114300D02*
X1079342Y114298D01*
X1079183Y114292D01*
X1079025Y114282D01*
X1078868Y114268D01*
X1078710Y114251D01*
X1078554Y114229D01*
X1078397Y114204D01*
X1078242Y114174D01*
X1078087Y114141D01*
X1077933Y114104D01*
X1077780Y114063D01*
X1077628Y114018D01*
X1077478Y113969D01*
X1077328Y113917D01*
X1077180Y113861D01*
X1077033Y113801D01*
X1076888Y113738D01*
X1076745Y113671D01*
X1076603Y113601D01*
X1076463Y113527D01*
X1076325Y113449D01*
X1076189Y113368D01*
X1076055Y113284D01*
X1075923Y113197D01*
X1075793Y113106D01*
X1075666Y113012D01*
X1075541Y112915D01*
X1075418Y112814D01*
X1075298Y112711D01*
X1075181Y112605D01*
X1075066Y112496D01*
X1074954Y112384D01*
X1074845Y112269D01*
X1074739Y112152D01*
X1074636Y112032D01*
X1074535Y111909D01*
X1074438Y111784D01*
X1074344Y111657D01*
X1074253Y111527D01*
X1074166Y111395D01*
X1074082Y111261D01*
X1074001Y111125D01*
X1073923Y110987D01*
X1073849Y110847D01*
X1073779Y110705D01*
X1073712Y110562D01*
X1073649Y110417D01*
X1073589Y110270D01*
X1073533Y110122D01*
X1073481Y109972D01*
X1073432Y109822D01*
X1073387Y109670D01*
X1073346Y109517D01*
X1073309Y109363D01*
X1073276Y109208D01*
X1073246Y109053D01*
X1073221Y108896D01*
X1073199Y108740D01*
X1073182Y108582D01*
X1073168Y108425D01*
X1073158Y108267D01*
X1073152Y108108D01*
X1073150Y107950D01*
X1079500Y114300D02*
X1123950Y114300D01*
X1073150Y107950D02*
X1073150Y72480D01*
X1073152Y72324D01*
X1073158Y72168D01*
X1073167Y72013D01*
X1073181Y71857D01*
X1073198Y71702D01*
X1073219Y71548D01*
X1073244Y71394D01*
X1073272Y71241D01*
X1073304Y71088D01*
X1073340Y70937D01*
X1073380Y70786D01*
X1073423Y70636D01*
X1073471Y70488D01*
X1073521Y70341D01*
X1073576Y70194D01*
X1073633Y70050D01*
X1073695Y69907D01*
X1073760Y69765D01*
X1073828Y69625D01*
X1073900Y69486D01*
X1073975Y69350D01*
X1074054Y69215D01*
X1074135Y69083D01*
X1074220Y68952D01*
X1074308Y68823D01*
X1074400Y68697D01*
X1074494Y68573D01*
X1074592Y68451D01*
X1074692Y68332D01*
X1074795Y68215D01*
X1074901Y68101D01*
X1075010Y67990D01*
X1083990Y59010D01*
X1084099Y58899D01*
X1084205Y58785D01*
X1084308Y58668D01*
X1084408Y58549D01*
X1084506Y58427D01*
X1084600Y58303D01*
X1084692Y58177D01*
X1084780Y58048D01*
X1084865Y57917D01*
X1084946Y57785D01*
X1085025Y57650D01*
X1085100Y57514D01*
X1085172Y57375D01*
X1085240Y57235D01*
X1085305Y57093D01*
X1085367Y56950D01*
X1085424Y56806D01*
X1085479Y56659D01*
X1085529Y56512D01*
X1085577Y56364D01*
X1085620Y56214D01*
X1085660Y56063D01*
X1085696Y55912D01*
X1085728Y55759D01*
X1085756Y55606D01*
X1085781Y55452D01*
X1085802Y55298D01*
X1085819Y55143D01*
X1085833Y54987D01*
X1085842Y54832D01*
X1085848Y54676D01*
X1085850Y54520D01*
X1085850Y34925D01*
D16*
X1216025Y114300D03*
X1216025Y152400D03*
D15*
X1060450Y88900D02*
X1060450Y34925D01*
X1022350Y34925D01*
X1041400Y114300D02*
X920750Y114300D01*
X1041400Y114300D02*
X1041558Y114298D01*
X1041717Y114292D01*
X1041875Y114282D01*
X1042032Y114268D01*
X1042190Y114251D01*
X1042346Y114229D01*
X1042503Y114204D01*
X1042658Y114174D01*
X1042813Y114141D01*
X1042967Y114104D01*
X1043120Y114063D01*
X1043272Y114018D01*
X1043422Y113969D01*
X1043572Y113917D01*
X1043720Y113861D01*
X1043867Y113801D01*
X1044012Y113738D01*
X1044155Y113671D01*
X1044297Y113601D01*
X1044437Y113527D01*
X1044575Y113449D01*
X1044711Y113368D01*
X1044845Y113284D01*
X1044977Y113197D01*
X1045107Y113106D01*
X1045234Y113012D01*
X1045359Y112915D01*
X1045482Y112814D01*
X1045602Y112711D01*
X1045719Y112605D01*
X1045834Y112496D01*
X1045946Y112384D01*
X1046055Y112269D01*
X1046161Y112152D01*
X1046264Y112032D01*
X1046365Y111909D01*
X1046462Y111784D01*
X1046556Y111657D01*
X1046647Y111527D01*
X1046734Y111395D01*
X1046818Y111261D01*
X1046899Y111125D01*
X1046977Y110987D01*
X1047051Y110847D01*
X1047121Y110705D01*
X1047188Y110562D01*
X1047251Y110417D01*
X1047311Y110270D01*
X1047367Y110122D01*
X1047419Y109972D01*
X1047468Y109822D01*
X1047513Y109670D01*
X1047554Y109517D01*
X1047591Y109363D01*
X1047624Y109208D01*
X1047654Y109053D01*
X1047679Y108896D01*
X1047701Y108740D01*
X1047718Y108582D01*
X1047732Y108425D01*
X1047742Y108267D01*
X1047748Y108108D01*
X1047750Y107950D01*
X1047750Y88900D01*
X920750Y82550D02*
X920750Y34925D01*
X1047750Y123825D02*
X1047750Y139700D01*
X1047750Y123825D02*
X1047748Y123714D01*
X1047742Y123604D01*
X1047733Y123493D01*
X1047719Y123383D01*
X1047702Y123274D01*
X1047681Y123165D01*
X1047656Y123057D01*
X1047627Y122950D01*
X1047595Y122844D01*
X1047559Y122739D01*
X1047519Y122635D01*
X1047476Y122533D01*
X1047429Y122433D01*
X1047379Y122334D01*
X1047325Y122237D01*
X1047268Y122142D01*
X1047208Y122049D01*
X1047144Y121959D01*
X1047077Y121870D01*
X1047007Y121784D01*
X1046935Y121700D01*
X1046859Y121619D01*
X1046781Y121541D01*
X1046700Y121465D01*
X1046616Y121393D01*
X1046530Y121323D01*
X1046441Y121256D01*
X1046351Y121192D01*
X1046258Y121132D01*
X1046163Y121075D01*
X1046066Y121021D01*
X1045967Y120971D01*
X1045867Y120924D01*
X1045765Y120881D01*
X1045661Y120841D01*
X1045556Y120805D01*
X1045450Y120773D01*
X1045343Y120744D01*
X1045235Y120719D01*
X1045126Y120698D01*
X1045017Y120681D01*
X1044907Y120667D01*
X1044796Y120658D01*
X1044686Y120652D01*
X1044575Y120650D01*
X952500Y120650D01*
X951839Y120658D01*
X951178Y120682D01*
X950519Y120723D01*
X949860Y120779D01*
X949203Y120852D01*
X948548Y120941D01*
X947895Y121046D01*
X947245Y121167D01*
X946598Y121303D01*
X945955Y121456D01*
X945315Y121624D01*
X944680Y121808D01*
X944050Y122007D01*
X943425Y122222D01*
X942805Y122452D01*
X942191Y122697D01*
X941583Y122957D01*
X940982Y123232D01*
X940387Y123521D01*
X939800Y123825D01*
X939250Y124285D01*
X938689Y124731D01*
X938117Y125164D01*
X937534Y125582D01*
X936942Y125986D01*
X936340Y126375D01*
X935728Y126750D01*
X935107Y127109D01*
X934478Y127453D01*
X933841Y127782D01*
X933196Y128094D01*
X932543Y128391D01*
X931883Y128672D01*
X931217Y128937D01*
X930544Y129185D01*
X929865Y129417D01*
X929181Y129632D01*
X928492Y129830D01*
X927798Y130011D01*
X927100Y130175D01*
X914400Y130175D01*
X914166Y130172D01*
X913933Y130163D01*
X913699Y130149D01*
X913466Y130129D01*
X913234Y130103D01*
X913002Y130072D01*
X912772Y130034D01*
X912542Y129992D01*
X912313Y129943D01*
X912086Y129889D01*
X911860Y129830D01*
X911635Y129764D01*
X911412Y129694D01*
X911191Y129618D01*
X910972Y129536D01*
X910755Y129449D01*
X910540Y129357D01*
X910328Y129260D01*
X910118Y129157D01*
X909910Y129050D01*
X909706Y128937D01*
X909504Y128819D01*
X909305Y128697D01*
X909109Y128569D01*
X908916Y128437D01*
X908726Y128300D01*
X908540Y128158D01*
X908358Y128012D01*
X908179Y127862D01*
X908004Y127707D01*
X907833Y127548D01*
X907665Y127385D01*
X907502Y127217D01*
X907343Y127046D01*
X907188Y126871D01*
X907038Y126692D01*
X906892Y126510D01*
X906750Y126324D01*
X906613Y126134D01*
X906481Y125941D01*
X906353Y125745D01*
X906231Y125546D01*
X906113Y125344D01*
X906000Y125140D01*
X905893Y124932D01*
X905790Y124722D01*
X905693Y124510D01*
X905601Y124295D01*
X905514Y124078D01*
X905432Y123859D01*
X905356Y123638D01*
X905286Y123415D01*
X905220Y123190D01*
X905161Y122964D01*
X905107Y122737D01*
X905058Y122508D01*
X905016Y122278D01*
X904978Y122048D01*
X904947Y121816D01*
X904921Y121584D01*
X904901Y121351D01*
X904887Y121117D01*
X904878Y120884D01*
X904875Y120650D01*
X904875Y107950D01*
X904878Y107716D01*
X904887Y107483D01*
X904901Y107249D01*
X904921Y107016D01*
X904947Y106784D01*
X904978Y106552D01*
X905015Y106322D01*
X905058Y106092D01*
X905107Y105863D01*
X905161Y105636D01*
X905220Y105410D01*
X905285Y105185D01*
X905356Y104962D01*
X905432Y104741D01*
X905514Y104522D01*
X905600Y104305D01*
X905692Y104090D01*
X905790Y103878D01*
X905892Y103668D01*
X906000Y103460D01*
X906113Y103255D01*
X906230Y103053D01*
X906353Y102854D01*
X906481Y102658D01*
X906613Y102466D01*
X906750Y102276D01*
X906891Y102090D01*
X907037Y101908D01*
X907188Y101729D01*
X907343Y101554D01*
X907502Y101382D01*
X907665Y101215D01*
X907832Y101052D01*
X908004Y100893D01*
X908179Y100738D01*
X908358Y100587D01*
X908540Y100441D01*
X908726Y100300D01*
X908916Y100163D01*
X909108Y100031D01*
X909304Y99903D01*
X909503Y99780D01*
X909705Y99663D01*
X909910Y99550D01*
X910118Y99442D01*
X910328Y99340D01*
X910540Y99242D01*
X910755Y99150D01*
X910972Y99064D01*
X911191Y98982D01*
X911412Y98906D01*
X911635Y98835D01*
X911860Y98770D01*
X912086Y98711D01*
X912313Y98657D01*
X912542Y98608D01*
X912772Y98565D01*
X913002Y98528D01*
X913234Y98497D01*
X913466Y98471D01*
X913699Y98451D01*
X913933Y98437D01*
X914166Y98428D01*
X914400Y98425D01*
X927100Y98425D01*
X927798Y98589D01*
X928492Y98770D01*
X929181Y98968D01*
X929865Y99183D01*
X930544Y99415D01*
X931217Y99663D01*
X931883Y99928D01*
X932543Y100209D01*
X933196Y100506D01*
X933841Y100818D01*
X934478Y101147D01*
X935107Y101491D01*
X935728Y101850D01*
X936340Y102225D01*
X936942Y102614D01*
X937534Y103018D01*
X938117Y103436D01*
X938689Y103869D01*
X939250Y104315D01*
X939800Y104775D01*
X940387Y105079D01*
X940981Y105368D01*
X941583Y105643D01*
X942190Y105903D01*
X942805Y106148D01*
X943424Y106378D01*
X944050Y106593D01*
X944680Y106792D01*
X945315Y106976D01*
X945954Y107144D01*
X946598Y107297D01*
X947245Y107433D01*
X947895Y107554D01*
X948547Y107659D01*
X949202Y107748D01*
X949860Y107821D01*
X950518Y107877D01*
X951178Y107918D01*
X951839Y107942D01*
X952500Y107950D01*
X1019175Y107950D01*
X1019286Y107948D01*
X1019396Y107942D01*
X1019507Y107933D01*
X1019617Y107919D01*
X1019726Y107902D01*
X1019835Y107881D01*
X1019943Y107856D01*
X1020050Y107827D01*
X1020156Y107795D01*
X1020261Y107759D01*
X1020364Y107719D01*
X1020466Y107676D01*
X1020567Y107629D01*
X1020666Y107578D01*
X1020763Y107525D01*
X1020857Y107468D01*
X1020950Y107407D01*
X1021041Y107344D01*
X1021130Y107277D01*
X1021216Y107207D01*
X1021299Y107134D01*
X1021381Y107059D01*
X1021459Y106981D01*
X1021534Y106899D01*
X1021607Y106816D01*
X1021677Y106730D01*
X1021744Y106641D01*
X1021807Y106550D01*
X1021868Y106457D01*
X1021925Y106363D01*
X1021978Y106266D01*
X1022029Y106167D01*
X1022076Y106066D01*
X1022119Y105964D01*
X1022159Y105861D01*
X1022195Y105756D01*
X1022227Y105650D01*
X1022256Y105543D01*
X1022281Y105435D01*
X1022302Y105326D01*
X1022319Y105217D01*
X1022333Y105107D01*
X1022342Y104996D01*
X1022348Y104886D01*
X1022350Y104775D01*
X1028700Y57150D02*
X1047750Y57150D01*
X1028700Y57150D02*
X1028542Y57152D01*
X1028383Y57158D01*
X1028225Y57168D01*
X1028068Y57182D01*
X1027910Y57199D01*
X1027754Y57221D01*
X1027597Y57246D01*
X1027442Y57276D01*
X1027287Y57309D01*
X1027133Y57346D01*
X1026980Y57387D01*
X1026828Y57432D01*
X1026678Y57481D01*
X1026528Y57533D01*
X1026380Y57589D01*
X1026233Y57649D01*
X1026088Y57712D01*
X1025945Y57779D01*
X1025803Y57849D01*
X1025663Y57923D01*
X1025525Y58001D01*
X1025389Y58082D01*
X1025255Y58166D01*
X1025123Y58253D01*
X1024993Y58344D01*
X1024866Y58438D01*
X1024741Y58535D01*
X1024618Y58636D01*
X1024498Y58739D01*
X1024381Y58845D01*
X1024266Y58954D01*
X1024154Y59066D01*
X1024045Y59181D01*
X1023939Y59298D01*
X1023836Y59418D01*
X1023735Y59541D01*
X1023638Y59666D01*
X1023544Y59793D01*
X1023453Y59923D01*
X1023366Y60055D01*
X1023282Y60189D01*
X1023201Y60325D01*
X1023123Y60463D01*
X1023049Y60603D01*
X1022979Y60745D01*
X1022912Y60888D01*
X1022849Y61033D01*
X1022789Y61180D01*
X1022733Y61328D01*
X1022681Y61478D01*
X1022632Y61628D01*
X1022587Y61780D01*
X1022546Y61933D01*
X1022509Y62087D01*
X1022476Y62242D01*
X1022446Y62397D01*
X1022421Y62554D01*
X1022399Y62710D01*
X1022382Y62868D01*
X1022368Y63025D01*
X1022358Y63183D01*
X1022352Y63342D01*
X1022350Y63500D01*
X1022350Y104775D01*
D17*
X1047750Y57150D03*
D15*
X996950Y63500D02*
X996950Y88900D01*
X996950Y63500D02*
X996950Y34925D01*
X1009650Y69850D02*
X1009650Y88900D01*
X1009650Y69850D02*
X1009648Y69692D01*
X1009642Y69533D01*
X1009632Y69375D01*
X1009618Y69218D01*
X1009601Y69060D01*
X1009579Y68904D01*
X1009554Y68747D01*
X1009524Y68592D01*
X1009491Y68437D01*
X1009454Y68283D01*
X1009413Y68130D01*
X1009368Y67978D01*
X1009319Y67828D01*
X1009267Y67678D01*
X1009211Y67530D01*
X1009151Y67383D01*
X1009088Y67238D01*
X1009021Y67095D01*
X1008951Y66953D01*
X1008877Y66813D01*
X1008799Y66675D01*
X1008718Y66539D01*
X1008634Y66405D01*
X1008547Y66273D01*
X1008456Y66143D01*
X1008362Y66016D01*
X1008265Y65891D01*
X1008164Y65768D01*
X1008061Y65648D01*
X1007955Y65531D01*
X1007846Y65416D01*
X1007734Y65304D01*
X1007619Y65195D01*
X1007502Y65089D01*
X1007382Y64986D01*
X1007259Y64885D01*
X1007134Y64788D01*
X1007007Y64694D01*
X1006877Y64603D01*
X1006745Y64516D01*
X1006611Y64432D01*
X1006475Y64351D01*
X1006337Y64273D01*
X1006197Y64199D01*
X1006055Y64129D01*
X1005912Y64062D01*
X1005767Y63999D01*
X1005620Y63939D01*
X1005472Y63883D01*
X1005322Y63831D01*
X1005172Y63782D01*
X1005020Y63737D01*
X1004867Y63696D01*
X1004713Y63659D01*
X1004558Y63626D01*
X1004403Y63596D01*
X1004246Y63571D01*
X1004090Y63549D01*
X1003932Y63532D01*
X1003775Y63518D01*
X1003617Y63508D01*
X1003458Y63502D01*
X1003300Y63500D01*
X996950Y63500D01*
X1009650Y139700D02*
X1009650Y193675D01*
X984250Y193675D01*
X996950Y158750D02*
X996950Y139700D01*
X996950Y158750D02*
X996948Y158908D01*
X996942Y159067D01*
X996932Y159225D01*
X996918Y159382D01*
X996901Y159540D01*
X996879Y159696D01*
X996854Y159853D01*
X996824Y160008D01*
X996791Y160163D01*
X996754Y160317D01*
X996713Y160470D01*
X996668Y160622D01*
X996619Y160772D01*
X996567Y160922D01*
X996511Y161070D01*
X996451Y161217D01*
X996388Y161362D01*
X996321Y161505D01*
X996251Y161647D01*
X996177Y161787D01*
X996099Y161925D01*
X996018Y162061D01*
X995934Y162195D01*
X995847Y162327D01*
X995756Y162457D01*
X995662Y162584D01*
X995565Y162709D01*
X995464Y162832D01*
X995361Y162952D01*
X995255Y163069D01*
X995146Y163184D01*
X995034Y163296D01*
X994919Y163405D01*
X994802Y163511D01*
X994682Y163614D01*
X994559Y163715D01*
X994434Y163812D01*
X994307Y163906D01*
X994177Y163997D01*
X994045Y164084D01*
X993911Y164168D01*
X993775Y164249D01*
X993637Y164327D01*
X993497Y164401D01*
X993355Y164471D01*
X993212Y164538D01*
X993067Y164601D01*
X992920Y164661D01*
X992772Y164717D01*
X992622Y164769D01*
X992472Y164818D01*
X992320Y164863D01*
X992167Y164904D01*
X992013Y164941D01*
X991858Y164974D01*
X991703Y165004D01*
X991546Y165029D01*
X991390Y165051D01*
X991232Y165068D01*
X991075Y165082D01*
X990917Y165092D01*
X990758Y165098D01*
X990600Y165100D01*
X920750Y146050D02*
X920750Y193675D01*
X958850Y193675D01*
X965200Y165100D02*
X990600Y165100D01*
X965200Y165100D02*
X965042Y165102D01*
X964883Y165108D01*
X964725Y165118D01*
X964568Y165132D01*
X964410Y165149D01*
X964254Y165171D01*
X964097Y165196D01*
X963942Y165226D01*
X963787Y165259D01*
X963633Y165296D01*
X963480Y165337D01*
X963328Y165382D01*
X963178Y165431D01*
X963028Y165483D01*
X962880Y165539D01*
X962733Y165599D01*
X962588Y165662D01*
X962445Y165729D01*
X962303Y165799D01*
X962163Y165873D01*
X962025Y165951D01*
X961889Y166032D01*
X961755Y166116D01*
X961623Y166203D01*
X961493Y166294D01*
X961366Y166388D01*
X961241Y166485D01*
X961118Y166586D01*
X960998Y166689D01*
X960881Y166795D01*
X960766Y166904D01*
X960654Y167016D01*
X960545Y167131D01*
X960439Y167248D01*
X960336Y167368D01*
X960235Y167491D01*
X960138Y167616D01*
X960044Y167743D01*
X959953Y167873D01*
X959866Y168005D01*
X959782Y168139D01*
X959701Y168275D01*
X959623Y168413D01*
X959549Y168553D01*
X959479Y168695D01*
X959412Y168838D01*
X959349Y168983D01*
X959289Y169130D01*
X959233Y169278D01*
X959181Y169428D01*
X959132Y169578D01*
X959087Y169730D01*
X959046Y169883D01*
X959009Y170037D01*
X958976Y170192D01*
X958946Y170347D01*
X958921Y170504D01*
X958899Y170660D01*
X958882Y170818D01*
X958868Y170975D01*
X958858Y171133D01*
X958852Y171292D01*
X958850Y171450D01*
X958850Y193675D01*
D18*
X1035050Y161925D02*
X1035050Y139700D01*
D17*
X1035050Y161925D03*
D15*
X1022350Y168275D02*
X1022350Y139700D01*
X1022350Y168275D02*
X1022352Y168433D01*
X1022358Y168592D01*
X1022368Y168750D01*
X1022382Y168907D01*
X1022399Y169065D01*
X1022421Y169221D01*
X1022446Y169378D01*
X1022476Y169533D01*
X1022509Y169688D01*
X1022546Y169842D01*
X1022587Y169995D01*
X1022632Y170147D01*
X1022681Y170297D01*
X1022733Y170447D01*
X1022789Y170595D01*
X1022849Y170742D01*
X1022912Y170887D01*
X1022979Y171030D01*
X1023049Y171172D01*
X1023123Y171312D01*
X1023201Y171450D01*
X1023282Y171586D01*
X1023366Y171720D01*
X1023453Y171852D01*
X1023544Y171982D01*
X1023638Y172109D01*
X1023735Y172234D01*
X1023836Y172357D01*
X1023939Y172477D01*
X1024045Y172594D01*
X1024154Y172709D01*
X1024266Y172821D01*
X1024381Y172930D01*
X1024498Y173036D01*
X1024618Y173139D01*
X1024741Y173240D01*
X1024866Y173337D01*
X1024993Y173431D01*
X1025123Y173522D01*
X1025255Y173609D01*
X1025389Y173693D01*
X1025525Y173774D01*
X1025663Y173852D01*
X1025803Y173926D01*
X1025945Y173996D01*
X1026088Y174063D01*
X1026233Y174126D01*
X1026380Y174186D01*
X1026528Y174242D01*
X1026678Y174294D01*
X1026828Y174343D01*
X1026980Y174388D01*
X1027133Y174429D01*
X1027287Y174466D01*
X1027442Y174499D01*
X1027597Y174529D01*
X1027754Y174554D01*
X1027910Y174576D01*
X1028068Y174593D01*
X1028225Y174607D01*
X1028383Y174617D01*
X1028542Y174623D01*
X1028700Y174625D01*
X1060450Y174625D01*
X1066800Y174625D01*
X1066958Y174623D01*
X1067117Y174617D01*
X1067275Y174607D01*
X1067432Y174593D01*
X1067590Y174576D01*
X1067746Y174554D01*
X1067903Y174529D01*
X1068058Y174499D01*
X1068213Y174466D01*
X1068367Y174429D01*
X1068520Y174388D01*
X1068672Y174343D01*
X1068822Y174294D01*
X1068972Y174242D01*
X1069120Y174186D01*
X1069267Y174126D01*
X1069412Y174063D01*
X1069555Y173996D01*
X1069697Y173926D01*
X1069837Y173852D01*
X1069975Y173774D01*
X1070111Y173693D01*
X1070245Y173609D01*
X1070377Y173522D01*
X1070507Y173431D01*
X1070634Y173337D01*
X1070759Y173240D01*
X1070882Y173139D01*
X1071002Y173036D01*
X1071119Y172930D01*
X1071234Y172821D01*
X1071346Y172709D01*
X1071455Y172594D01*
X1071561Y172477D01*
X1071664Y172357D01*
X1071765Y172234D01*
X1071862Y172109D01*
X1071956Y171982D01*
X1072047Y171852D01*
X1072134Y171720D01*
X1072218Y171586D01*
X1072299Y171450D01*
X1072377Y171312D01*
X1072451Y171172D01*
X1072521Y171030D01*
X1072588Y170887D01*
X1072651Y170742D01*
X1072711Y170595D01*
X1072767Y170447D01*
X1072819Y170297D01*
X1072868Y170147D01*
X1072913Y169995D01*
X1072954Y169842D01*
X1072991Y169688D01*
X1073024Y169533D01*
X1073054Y169378D01*
X1073079Y169221D01*
X1073101Y169065D01*
X1073118Y168907D01*
X1073132Y168750D01*
X1073142Y168592D01*
X1073148Y168433D01*
X1073150Y168275D01*
X1073150Y139700D01*
X1060450Y139700D02*
X1060450Y174625D01*
D18*
X1035050Y88900D02*
X1035050Y69850D01*
D15*
X1123950Y69850D02*
X1123950Y88900D01*
X895350Y193675D02*
X876300Y193675D01*
X876300Y34925D02*
X895350Y34925D01*
X1035050Y193675D02*
X1098550Y193675D01*
X1098708Y193673D01*
X1098867Y193667D01*
X1099025Y193657D01*
X1099182Y193643D01*
X1099340Y193626D01*
X1099496Y193604D01*
X1099653Y193579D01*
X1099808Y193549D01*
X1099963Y193516D01*
X1100117Y193479D01*
X1100270Y193438D01*
X1100422Y193393D01*
X1100572Y193344D01*
X1100722Y193292D01*
X1100870Y193236D01*
X1101017Y193176D01*
X1101162Y193113D01*
X1101305Y193046D01*
X1101447Y192976D01*
X1101587Y192902D01*
X1101725Y192824D01*
X1101861Y192743D01*
X1101995Y192659D01*
X1102127Y192572D01*
X1102257Y192481D01*
X1102384Y192387D01*
X1102509Y192290D01*
X1102632Y192189D01*
X1102752Y192086D01*
X1102869Y191980D01*
X1102984Y191871D01*
X1103096Y191759D01*
X1103205Y191644D01*
X1103311Y191527D01*
X1103414Y191407D01*
X1103515Y191284D01*
X1103612Y191159D01*
X1103706Y191032D01*
X1103797Y190902D01*
X1103884Y190770D01*
X1103968Y190636D01*
X1104049Y190500D01*
X1104127Y190362D01*
X1104201Y190222D01*
X1104271Y190080D01*
X1104338Y189937D01*
X1104401Y189792D01*
X1104461Y189645D01*
X1104517Y189497D01*
X1104569Y189347D01*
X1104618Y189197D01*
X1104663Y189045D01*
X1104704Y188892D01*
X1104741Y188738D01*
X1104774Y188583D01*
X1104804Y188428D01*
X1104829Y188271D01*
X1104851Y188115D01*
X1104868Y187957D01*
X1104882Y187800D01*
X1104892Y187642D01*
X1104898Y187483D01*
X1104900Y187325D01*
X1104900Y149225D01*
D16*
X1216025Y76200D03*
D17*
X1035050Y69850D03*
X1123950Y69850D03*
X876300Y193675D03*
X876300Y34925D03*
X1104900Y149225D03*
M02*
