M48
;GenerationSoftware,Autodesk,EAGLE,9.5.2*%
;CreationDate,2024-06-21T16:31:10Z*%
FMAT,2
ICI,OFF
METRIC,TZ,000.000
T4C0.800
T3C1.000
T2C1.100
T1C3.302
%
G90
M71
T1
X3810Y11430
X3810Y35560
X3810Y59690
X45720Y59690
X45720Y35560
X45720Y11430
X87630Y59690
X87630Y35560
X87630Y11430
T2
X50292Y8382
X50292Y14478
X50292Y11430
X50292Y32512
X50292Y38608
X50292Y35560
X50292Y56642
X50292Y62738
X50292Y59690
X92202Y8382
X8382Y62738
X8382Y59690
X8382Y32512
X8382Y38608
X8382Y35560
X8382Y8382
X8382Y14478
X8382Y11430
X92202Y59690
X92202Y62738
X92202Y56642
X92202Y35560
X92202Y38608
X92202Y32512
X92202Y11430
X92202Y14478
X8382Y56642
T3
X37783Y11430
X37783Y15240
X37783Y7620
X37783Y35560
X79693Y35560
X79693Y39370
X37783Y39370
X37783Y31750
X79693Y31750
X37783Y59690
X37783Y63500
X37783Y55880
X79693Y59690
X79693Y63500
X79693Y11430
X79693Y15240
X79693Y55880
X121602Y7620
X79693Y7620
X121602Y15240
X121602Y11430
X121602Y31750
X121602Y39370
X121602Y35560
X121602Y59690
X121602Y63500
X121602Y55880
T4
X103505Y64452
X104775Y53975
X103505Y55245
X112395Y55245
X87630Y67628
X87630Y51752
X110490Y63182
X68580Y14922
X45720Y3492
X104775Y29845
X103505Y40323
X45720Y19368
X103505Y31115
X112395Y31115
X87630Y43498
X87630Y27622
X110490Y39053
X70485Y6985
X61595Y6985
X104775Y5715
X103505Y16192
X61595Y16192
X103505Y6985
X112395Y6985
X87630Y19368
X87630Y3492
X110490Y14922
X61595Y55245
X62865Y5715
X61595Y64452
X62865Y53975
X68580Y39053
X45720Y27622
X26670Y63182
X3810Y51752
X3810Y67628
X1905Y23495
X3175Y23495
X4445Y23495
X5715Y23495
X6985Y23495
X8255Y23495
X9525Y23495
X10795Y23495
X12065Y23495
X13335Y23495
X14605Y23495
X15875Y23495
X17145Y23495
X18415Y23495
X19685Y23495
X20955Y23495
X22225Y23495
X23495Y23495
X24765Y23495
X26035Y23495
X27305Y23495
X28575Y23495
X29845Y23495
X31115Y23495
X32385Y23495
X33655Y23495
X34925Y23495
X36195Y23495
X37465Y23495
X38735Y23495
X40005Y23495
X41275Y23495
X42545Y23495
X43815Y23495
X45085Y23495
X46355Y23495
X47625Y23495
X48895Y23495
X50165Y23495
X51435Y23495
X52705Y23495
X53975Y23495
X55245Y23495
X56515Y23495
X57785Y23495
X59055Y23495
X60325Y23495
X61595Y23495
X62865Y23495
X64135Y23495
X65405Y23495
X66675Y23495
X67945Y23495
X69215Y23495
X70485Y23495
X71755Y23495
X73025Y23495
X74295Y23495
X75565Y23495
X76835Y23495
X78105Y23495
X79375Y23495
X80645Y23495
X81915Y23495
X83185Y23495
X84455Y23495
X85725Y23495
X86995Y23495
X88265Y23495
X89535Y23495
X90805Y23495
X92075Y23495
X93345Y23495
X94615Y23495
X95885Y23495
X97155Y23495
X98425Y23495
X99695Y23495
X100965Y23495
X102235Y23495
X103505Y23495
X104775Y23495
X106045Y23495
X107315Y23495
X108585Y23495
X109855Y23495
X109855Y23495
X111125Y23495
X112395Y23495
X113665Y23495
X114935Y23495
X116205Y23495
X117475Y23495
X118745Y23495
X120015Y23495
X121285Y23495
X122555Y23495
X1905Y47625
X3175Y47625
X4445Y47625
X5715Y47625
X6985Y47625
X8255Y47625
X9525Y47625
X10795Y47625
X12065Y47625
X13335Y47625
X14605Y47625
X15875Y47625
X17145Y47625
X18415Y47625
X19685Y47625
X20955Y47625
X70485Y55245
X23495Y47625
X24765Y47625
X26035Y47625
X27305Y47625
X28575Y47625
X29845Y47625
X31115Y47625
X32385Y47625
X33655Y47625
X34925Y47625
X36195Y47625
X37465Y47625
X38735Y47625
X40005Y47625
X41275Y47625
X42545Y47625
X43815Y47625
X45085Y47625
X46355Y47625
X47625Y47625
X48895Y47625
X50165Y47625
X51435Y47625
X52705Y47625
X53975Y47625
X55245Y47625
X56515Y47625
X57785Y47625
X59055Y47625
X60325Y47625
X61595Y47625
X62865Y47625
X64135Y47625
X65405Y47625
X66675Y47625
X67945Y47625
X69215Y47625
X70485Y47625
X71755Y47625
X73025Y47625
X74295Y47625
X75565Y47625
X76835Y47625
X78105Y47625
X79375Y47625
X80645Y47625
X81915Y47625
X83185Y47625
X84455Y47625
X85725Y47625
X86995Y47625
X88265Y47625
X89535Y47625
X90805Y47625
X92075Y47625
X93345Y47625
X94615Y47625
X95885Y47625
X97155Y47625
X98425Y47625
X99695Y47625
X100965Y47625
X102235Y47625
X103505Y47625
X104775Y47625
X106045Y47625
X107315Y47625
X108585Y47625
X109855Y47625
X109855Y47625
X111125Y47625
X112395Y47625
X113665Y47625
X114935Y47625
X116205Y47625
X117475Y47625
X118745Y47625
X120015Y47625
X121285Y47625
X122555Y47625
X41275Y69215
X41275Y67945
X41275Y66675
X41275Y65405
X41275Y64135
X41275Y62865
X41275Y61595
X41275Y60325
X41275Y59055
X41275Y57785
X41275Y56515
X41275Y55245
X41275Y53975
X41275Y52705
X41275Y51435
X41275Y50165
X41275Y48895
X41275Y46355
X41275Y45085
X41275Y43815
X41275Y42545
X41275Y41275
X41275Y40005
X41275Y38735
X41275Y37465
X41275Y36195
X41275Y34925
X41275Y33655
X41275Y32385
X41275Y31115
X41275Y29845
X41275Y28575
X41275Y27305
X41275Y26035
X41275Y24765
X41275Y22225
X41275Y20955
X41275Y19685
X41275Y18415
X41275Y17145
X41275Y15875
X41275Y14605
X41275Y13335
X41275Y12065
X41275Y10795
X41275Y9525
X41275Y8255
X41275Y6985
X41275Y5715
X41275Y4445
X41275Y3175
X41275Y1905
X83185Y69215
X83185Y67945
X83185Y66675
X83185Y65405
X83185Y64135
X83185Y62865
X83185Y61595
X83185Y60325
X83185Y59055
X83185Y57785
X83185Y56515
X83185Y55245
X83185Y53975
X83185Y52705
X83185Y51435
X83185Y50165
X83185Y48895
X83185Y46355
X83185Y45085
X83185Y43815
X83185Y42545
X83185Y41275
X83185Y40005
X83185Y38735
X83185Y37465
X83185Y36195
X83185Y34925
X83185Y33655
X83185Y32385
X83185Y31115
X83185Y29845
X83185Y28575
X83185Y27305
X83185Y26035
X83185Y24765
X83185Y22225
X83185Y20955
X83185Y19685
X83185Y18415
X83185Y17145
X83185Y15875
X83185Y14605
X83185Y13335
X83185Y12065
X83185Y10795
X83185Y9525
X83185Y8255
X83185Y6985
X83185Y5715
X83185Y4445
X83185Y3175
X83185Y1905
X28575Y55245
X19685Y55245
X45720Y43498
X19685Y64452
X20955Y53975
X70485Y31115
X61595Y31115
X26670Y39053
X3810Y27622
X3810Y43498
X28575Y31115
X19685Y31115
X61595Y40323
X19685Y40323
X20955Y29845
X62865Y29845
X68580Y63182
X26670Y14922
X3810Y3492
X3810Y19368
X28575Y6985
X19685Y6985
X45720Y51752
X19685Y16192
X20955Y5715
X45720Y67628
X22225Y47625
M30