G04 CAM Products 2000  RS274-X Output*
G04 Serial Number: 0000-00-00000*
G04 File Name:1041h.gtl *
%FSLAX34Y34*%
%MOIN*%
%SFA1B1*%

%IPPOS*%
%ADD10C,0.030000*%
%ADD11C,0.012000*%
%ADD12R,0.035400X0.031500*%
%ADD13R,0.031500X0.035400*%
%ADD14C,0.035000*%
%ADD15R,0.051200X0.055100*%
%ADD16C,0.019700*%
%ADD17R,0.019700X0.019700*%
%ADD18C,0.040000*%
%ADD19R,0.023600X0.094500*%
%ADD20R,0.100000X0.100000*%
%ADD21R,0.051000X0.063000*%
%ADD22R,0.063000X0.086600*%
%ADD23R,0.055100X0.051200*%
%ADD24R,0.063000X0.051000*%
%ADD25C,0.015000*%
%ADD26C,0.007900*%
%ADD27R,0.020000X0.010000*%
%ADD28R,0.010000X0.020000*%
%ADD29R,0.022000X0.010000*%
%ADD30R,0.063000X0.063000*%
%ADD31R,0.063000X0.078700*%
%ADD32R,0.078700X0.063000*%
%ADD33R,0.055100X0.039400*%
%ADD34R,0.043500X0.047200*%
%ADD35R,0.086600X0.063000*%
%ADD36R,0.047200X0.043500*%
%ADD37R,0.050000X0.050000*%
%ADD38C,0.045000*%
%ADD39R,0.094500X0.094500*%
%ADD40R,0.050000X0.020000*%
%ADD41C,0.070000*%
%ADD42R,0.045000X0.045000*%
%ADD43C,0.001000*%
%ADD44R,0.005000X0.005000*%
%ADD45C,0.005000*%
%ADD46C,0.010000*%
%ADD47C,0.003900*%
%ADD48C,0.004000*%
%ADD49R,0.020000X0.020000*%
%ADD50C,0.020000*%
%ADD51C,0.135000*%
%ADD52C,0.080000*%
%ADD53C,0.025000*%
%ADD54C,0.050000*%
%ADD55R,0.010000X0.010000*%
%ADD56R,0.030000X0.030000*%
%ADD57C,0.100000*%
%ADD58C,0.008000*%
%ADD59R,0.068500X0.068500*%
%ADD60C,0.068500*%
%ADD61C,0.014000*%
%ADD62R,0.040000X0.040000*%
%ADD63R,0.001000X0.001000*%
%LN1041h-1*%
%LPD*%
G54D10*
X14469Y10102D03*
X14089Y9715D03*
X14461Y9709D03*
G54D11*
X13585Y10254D03*
X14949Y10249D03*
X14943Y9795D03*
G54D12*
X14112Y7100D03*
X13600D03*
G54D13*
X14944Y7356D03*
Y7868D03*
G54D12*
X14112Y6600D03*
X13600D03*
G54D10*
X11500Y3800D03*
G54D14*
X14700Y3200D03*
G54D13*
X12000Y6500D03*
Y7012D03*
X11496Y7392D03*
Y7904D03*
G54D10*
X14083Y10096D03*
X47933Y10093D03*
X48320Y9710D03*
X47930Y9705D03*
G54D12*
X50312Y9100D03*
X49800D03*
X49688Y8600D03*
X50200D03*
X49188Y8100D03*
X49700D03*
X48688Y7600D03*
X49200D03*
X48188Y7100D03*
X48700D03*
G54D13*
X47500Y7612D03*
Y7100D03*
G54D11*
X13570Y9774D03*
G54D10*
X32900Y1252D03*
X33080Y5320D03*
G54D51*
X1000Y11500D03*
Y8500D03*
Y1000D03*
X11000D03*
X45000Y12500D03*
Y7500D03*
X1000Y15300D03*
Y4700D03*
X39000Y1000D03*
G54D10*
X52971Y18629D03*
X18000Y1252D03*
G54D51*
X49000Y1000D03*
X74000D03*
Y4700D03*
Y8500D03*
Y11500D03*
Y15300D03*
Y19000D03*
X62000D03*
Y1000D03*
G54D15*
X8948Y14500D03*
X8200D03*
G54D51*
X25000Y7500D03*
G54D10*
X29060Y5680D03*
X46620Y3460D03*
G54D16*
X27606Y10000D03*
X28394D03*
X28000Y10394D03*
G54D17*
X28394Y10394D03*
G54D16*
X27606Y10394D03*
Y9606D03*
X28000Y10000D03*
Y9606D03*
X28394D03*
X59806Y10000D03*
X60594D03*
X60200Y10394D03*
G54D17*
X60594Y10394D03*
G54D16*
X59806Y10394D03*
Y9606D03*
X60200Y10000D03*
Y9606D03*
X60594D03*
G54D51*
X11000Y19000D03*
G54D10*
X10400Y6948D03*
G54D13*
X12504Y7008D03*
Y6496D03*
G54D16*
X2806Y10006D03*
X3594D03*
X3200Y10400D03*
G54D17*
X3594Y10400D03*
G54D16*
X2806Y10400D03*
Y9613D03*
X3200Y10006D03*
Y9613D03*
X3594D03*
G54D18*
X68600Y2400D03*
G54D51*
X49000Y19000D03*
G54D19*
X66060Y2511D03*
X65560D03*
X65060D03*
X64560D03*
X66060Y4480D03*
X65560D03*
X65060D03*
X64560D03*
G54D20*
X70600Y1300D03*
Y3300D03*
G54D21*
X70700Y13300D03*
X71448D03*
G54D22*
X71402Y15500D03*
X70300D03*
G54D15*
X66448Y15600D03*
X65700D03*
G54D23*
X62320Y3666D03*
Y2918D03*
X63320Y3668D03*
Y2920D03*
G54D15*
X60392Y2900D03*
X61140D03*
G54D24*
X68600Y1350D03*
Y2098D03*
G54D25*
X47447Y10250D03*
G54D11*
X47450Y9790D03*
G54D27*
X13693Y10200D03*
Y10005D03*
Y9810D03*
Y9615D03*
G54D28*
X13970Y10478D03*
X14165D03*
X14360D03*
X14555D03*
G54D29*
X14833Y10200D03*
Y10005D03*
Y9810D03*
Y9615D03*
G54D28*
X14555Y9338D03*
X14360D03*
X14165D03*
X13970D03*
G54D23*
X3200Y14100D03*
Y14848D03*
G54D21*
X7048Y13250D03*
X7796D03*
G54D30*
X7025Y14525D03*
Y15628D03*
G54D22*
X13852Y16750D03*
X12750D03*
G54D16*
X17394Y10000D03*
X18181D03*
X17787Y10394D03*
G54D17*
X18181Y10394D03*
G54D16*
X17394Y10394D03*
Y9606D03*
X17787Y10000D03*
Y9606D03*
X18181D03*
G54D21*
X64250Y13250D03*
X64998D03*
X59468Y12068D03*
X60216D03*
G54D31*
X61342Y13280D03*
X60240D03*
G54D30*
X66502Y14500D03*
X65400D03*
X54500D03*
Y15602D03*
G54D24*
X55798Y16698D03*
Y15950D03*
G54D30*
X51700Y13957D03*
Y15060D03*
G54D21*
X50900Y11700D03*
X51648D03*
G54D32*
X64320Y15602D03*
Y14500D03*
G54D21*
X63550Y16750D03*
X64298D03*
G54D33*
X53838Y18255D03*
X52971Y18629D03*
Y17881D03*
G54D15*
X49548Y17300D03*
X48800D03*
G54D34*
X48700Y11400D03*
X48031D03*
G54D21*
X31050Y13250D03*
X31798D03*
G54D30*
X31775Y14525D03*
Y15628D03*
G54D21*
X27300Y11700D03*
X28048D03*
X17100Y11800D03*
X17848D03*
G54D30*
X18900Y14500D03*
Y15602D03*
X17825Y14521D03*
Y15623D03*
G54D24*
X18898Y17498D03*
Y16750D03*
G54D22*
X22002Y16750D03*
X20900D03*
G54D35*
X14148Y13998D03*
Y15100D03*
G54D21*
X13400Y11800D03*
X14148D03*
G54D19*
X14500Y3331D03*
X14000D03*
X13500D03*
X13000D03*
X14500Y5300D03*
X14000D03*
X13500D03*
X13000D03*
X12500D03*
X12000D03*
X11500D03*
X12500Y3331D03*
X12000D03*
X11500D03*
X11000Y5300D03*
Y3331D03*
G54D15*
X17500Y4000D03*
X16752D03*
G54D30*
X19600Y2218D03*
Y3320D03*
G54D23*
X10000Y2900D03*
Y3648D03*
G54D24*
X10400Y6948D03*
Y6200D03*
G54D15*
X19348Y5200D03*
X18600D03*
G54D23*
X6400Y2864D03*
Y3612D03*
G54D15*
X21100Y5800D03*
X20352D03*
G54D24*
X18000Y2000D03*
Y1252D03*
G54D15*
X27748Y3200D03*
X27000D03*
G54D24*
X32900Y2000D03*
Y1252D03*
G54D22*
X35900Y1000D03*
X34798D03*
X55800Y1340D03*
X54698D03*
G54D21*
X55772Y5300D03*
X56520D03*
X31050Y16750D03*
X31798D03*
G54D16*
X36306Y10000D03*
X37094D03*
X36700Y10394D03*
G54D17*
X37094Y10394D03*
G54D16*
X36306Y10394D03*
Y9606D03*
X36700Y10000D03*
Y9606D03*
X37094D03*
G54D23*
X53340Y4732D03*
Y5480D03*
G54D33*
X47826Y3126D03*
X46960Y3500D03*
Y2752D03*
G54D36*
X54680Y5375D03*
Y6044D03*
G54D24*
X30153Y14896D03*
Y14147D03*
X42200Y16348D03*
Y15600D03*
G54D21*
X39800Y13200D03*
X40548D03*
G54D30*
X39900Y14500D03*
Y15602D03*
X37640Y13731D03*
Y14834D03*
G54D22*
X36500Y14300D03*
X35398D03*
G54D21*
X36000Y11600D03*
X36748D03*
G54D22*
X49302Y15600D03*
X48200D03*
X37600Y17000D03*
X36498D03*
G54D30*
X28000Y14500D03*
Y15602D03*
G54D15*
X64283Y17901D03*
X63535D03*
G54D22*
X58752Y16750D03*
X57650D03*
G54D21*
X55498Y13250D03*
X56246D03*
X2400Y12100D03*
X3148D03*
G54D33*
X61300Y15200D03*
X62166Y14826D03*
Y15574D03*
G54D51*
X1000Y19000D03*
G54D10*
X24150Y600D03*
X25850D03*
G54D51*
X21000Y1000D03*
X31000D03*
G54D10*
X45850Y500D03*
X44150D03*
X45750Y19400D03*
X44150D03*
X25750D03*
X24150D03*
X33800Y7500D03*
X30000D03*
X37800D03*
X40800D03*
G54D18*
X57849Y5361D03*
G54D38*
X11400Y11300D03*
X10500Y8700D03*
X12300D03*
G54D33*
X53846Y2816D03*
X52980Y3190D03*
Y2442D03*
G54D18*
X65060Y5020D03*
G54D52*
X70600Y3850D03*
G54D18*
X70400Y13300D03*
G54D30*
X10125Y14475D03*
Y15578D03*
G54D18*
X10160Y15920D03*
X13120Y11800D03*
X16800D03*
G54D53*
X14460Y10637D03*
G54D10*
X8720Y3200D03*
X22800Y2420D03*
G54D33*
X21600Y2800D03*
X22466Y2426D03*
Y3174D03*
X8400Y3200D03*
X7534Y3574D03*
Y2826D03*
G54D21*
X66060Y18500D03*
X66808D03*
G54D39*
X69000Y13700D03*
Y15432D03*
G54D18*
X35740Y11600D03*
G54D14*
X39500Y13180D03*
X42200Y16608D03*
G54D18*
X2100Y12100D03*
X8060Y13240D03*
G54D21*
X6300Y16750D03*
X7048D03*
G54D18*
X6000Y16740D03*
G54D21*
X20752Y13200D03*
X21500D03*
G54D18*
X20480Y13180D03*
X18900Y17780D03*
X30800Y16720D03*
G54D10*
X30160Y13840D03*
G54D18*
X30780Y13180D03*
X27020Y11700D03*
X55840Y15660D03*
X65680Y15900D03*
X63260Y16740D03*
X59160Y12080D03*
X50620Y11680D03*
G54D10*
X48940Y11380D03*
G54D18*
X56506Y13250D03*
X65260Y13220D03*
G54D10*
X56860Y5280D03*
X54680Y6280D03*
X54140Y2820D03*
G54D18*
X9149Y5361D03*
G54D33*
X31920Y5680D03*
X32786Y5306D03*
Y6054D03*
X29354Y5674D03*
X30220Y5300D03*
Y6048D03*
G54D15*
X42928Y3100D03*
X42180D03*
G54D24*
X37200Y1948D03*
Y1200D03*
X40260Y5740D03*
Y6488D03*
G54D10*
X37180Y940D03*
X40260Y6760D03*
G54D15*
X35048Y6080D03*
X34300D03*
G54D10*
X37840Y4980D03*
G54D51*
X21000Y19000D03*
G54D18*
X34151Y14639D03*
G54D51*
X25000Y12500D03*
G54D54*
X69000Y13200D03*
G54D19*
X52150Y4040D03*
X51650D03*
X51150D03*
X50650D03*
X52150Y6008D03*
X51650D03*
X51150D03*
X50650D03*
X50150D03*
X49650D03*
X49150D03*
X50150Y4040D03*
X49650D03*
X49150D03*
X48650Y6008D03*
Y4040D03*
G54D10*
X49150Y3560D03*
X52150Y3540D03*
G54D24*
X15580Y3028D03*
Y3776D03*
G54D10*
X15220Y2920D03*
G54D40*
X39292Y5840D03*
X38112D03*
X39292Y5090D03*
X38112Y5465D03*
Y5090D03*
G54D10*
X67860Y10540D03*
X67980Y9420D03*
X68620D03*
G54D27*
X47557Y10205D03*
Y10010D03*
Y9815D03*
Y9620D03*
G54D28*
X47835Y10483D03*
X48030D03*
X48225Y10482D03*
X48420D03*
G54D29*
X48697Y10205D03*
Y10010D03*
Y9815D03*
Y9620D03*
G54D28*
X48420Y9342D03*
X48225D03*
X48030D03*
X47835Y9343D03*
G54D10*
X48310Y10600D03*
Y10100D03*
G54D25*
X48819Y10250D03*
G54D11*
X48813Y9794D03*
G54D16*
X51306Y10000D03*
X52094D03*
X51700Y10394D03*
G54D17*
X52094Y10394D03*
G54D16*
X51306Y10394D03*
Y9606D03*
X51700Y10000D03*
Y9606D03*
X52094D03*
G54D51*
X39000Y19000D03*
X31000D03*
G54D23*
X65540Y6012D03*
Y6760D03*
G54D10*
X68240Y10580D03*
X68620Y10540D03*
X68300Y9420D03*
G54D41*
X2520Y2600D03*
G54D38*
X7048Y13250D02*
X7050Y12000D01*
X7048Y13250D02*
Y14525D01*
X31800Y16750D02*
X31775Y15628D01*
G54D46*
X63320Y2798D02*
X64070D01*
X65070Y2498D02*
X65066Y1652D01*
X62300Y3668D02*
X65546D01*
Y4540*
G54D55*
X14550Y5200D03*
X14750D03*
G54D46*
X14550Y5200D02*
X14750D01*
X14112Y7100D02*
X14368D01*
Y9235*
X14112Y6600D02*
X14565D01*
Y9235*
X14002Y6258D02*
X14944D01*
Y7356*
G54D42*
X475Y10000D03*
X1375D03*
G54D38*
X475Y10000D02*
X1375D01*
G54D42*
X38325Y10000D03*
X42175D03*
G54D38*
X38325Y10000D02*
X42175D01*
G54D56*
X43450Y10000D03*
X46550D03*
G54D10*
X43450Y10000D02*
X46550D01*
G54D42*
X19825Y10000D03*
X22475D03*
G54D38*
X19825Y10000D02*
X22475D01*
G54D46*
X48226Y10413D02*
Y10213D01*
X63340Y2818D02*
X61190D01*
X49800Y9100D02*
X48818D01*
Y9609*
X49688Y8600D02*
X48424D01*
Y9235*
X49188Y8100D02*
X48228D01*
Y9235*
X48688Y7600D02*
X48031D01*
Y9235*
X48188Y7100D02*
X47834D01*
Y9235*
G54D20*
X24250Y19400D03*
X25750D03*
G54D57*
X24250Y19400D02*
X25750D01*
G54D20*
X44250Y19400D03*
X45750D03*
G54D57*
X44250Y19400D02*
X45750D01*
G54D20*
X44250Y600D03*
X45750D03*
G54D57*
X44250Y600D02*
X45750D01*
G54D10*
X53400Y14500D03*
Y13100D01*
G54D46*
X14000Y5200D02*
X14002Y6258D01*
X13600Y6600D02*
X13500D01*
Y5200*
X13600Y7100D02*
X13000D01*
Y5200*
X14950Y9609D02*
Y7868D01*
X55820Y5140D02*
Y4283D01*
X49548Y17300D02*
X52971D01*
Y17881*
X16752Y4000D02*
X13500D01*
Y3231*
X16500Y2500D02*
X13000D01*
Y3231*
X19700Y3300D02*
X16500D01*
Y2500*
G54D10*
X39900Y14500D02*
X40600D01*
Y12000*
G54D46*
X64566Y4440D02*
X55820D01*
Y1220*
X48031Y10574D02*
Y11400D01*
G54D10*
X57650Y16750D02*
X54502Y16754D01*
X54500Y15602*
G54D46*
X63535Y17901D02*
X53838D01*
Y18255*
G54D10*
X31775Y12000D03*
Y14525D01*
X61300Y15200D02*
X58752D01*
Y16750*
X62166Y15574D02*
X64275D01*
Y15628*
X7025Y14525D02*
X8200Y14500D01*
X8948D02*
X10125D01*
X64275Y14525D02*
X65400D01*
X66502Y14500D02*
X66500Y15600D01*
G54D46*
X62200Y14300D02*
X58187D01*
Y17901*
X62200Y14300D02*
Y14800D01*
G54D42*
X69225Y10000D03*
X74575D03*
G54D38*
X69225Y10000D02*
X74575D01*
G54D42*
X49875Y10000D03*
X49435D03*
G54D38*
X49875Y10000D02*
X49435D01*
G54D42*
X42725Y10000D03*
X43075D03*
G54D38*
X42725Y10000D02*
X43075D01*
G54D42*
X15525Y10000D03*
X15829D03*
G54D38*
X15525Y10000D02*
X15829D01*
G54D42*
X70225Y10000D03*
X70775D03*
G54D38*
X70225Y10000D02*
X70775D01*
G54D42*
X70225Y12000D03*
X70775D03*
G54D38*
X70225Y12000D02*
X70775D01*
G54D42*
X72775Y10000D03*
X72225D03*
G54D38*
X72775Y10000D02*
X72225D01*
G54D42*
X72775Y11000D03*
X72225D03*
G54D38*
X72775Y11000D02*
X72225D01*
G54D42*
X72775Y12000D03*
X72225D03*
G54D38*
X72775Y12000D02*
X72225D01*
G54D42*
X70775Y11000D03*
X70225D03*
G54D38*
X70775Y11000D02*
X70225D01*
G54D42*
X62125Y10000D03*
X62675D03*
G54D38*
X62125Y10000D02*
X62675D01*
G54D42*
X62125Y12000D03*
X62675D03*
G54D38*
X62125Y12000D02*
X62675D01*
G54D42*
X64675Y10000D03*
X64125D03*
G54D38*
X64675Y10000D02*
X64125D01*
G54D42*
X64675Y11000D03*
X64125D03*
G54D38*
X64675Y11000D02*
X64125D01*
G54D42*
X64675Y12000D03*
X64125D03*
G54D38*
X64675Y12000D02*
X64125D01*
G54D42*
X62675Y11000D03*
X62125D03*
G54D38*
X62675Y11000D02*
X62125D01*
G54D42*
X53625Y10000D03*
X54175D03*
G54D38*
X53625Y10000D02*
X54175D01*
G54D42*
X53625Y12000D03*
X54175D03*
G54D38*
X53625Y12000D02*
X54175D01*
G54D42*
X56175Y10000D03*
X55625D03*
G54D38*
X56175Y10000D02*
X55625D01*
G54D42*
X56175Y11000D03*
X55625D03*
G54D38*
X56175Y11000D02*
X55625D01*
G54D42*
X56175Y12000D03*
X55625D03*
G54D38*
X56175Y12000D02*
X55625D01*
G54D42*
X54175Y11000D03*
X53625D03*
G54D38*
X54175Y11000D02*
X53625D01*
G54D42*
X19225Y10000D03*
X19775D03*
G54D38*
X19225Y10000D02*
X19775D01*
G54D42*
X19225Y12000D03*
X19775D03*
G54D38*
X19225Y12000D02*
X19775D01*
G54D42*
X21775Y10000D03*
X21225D03*
G54D38*
X21775Y10000D02*
X21225D01*
G54D42*
X21775Y11000D03*
X21225D03*
G54D38*
X21775Y11000D02*
X21225D01*
G54D42*
X21775Y12000D03*
X21225D03*
G54D38*
X21775Y12000D02*
X21225D01*
G54D42*
X19775Y11000D03*
X19225D03*
G54D38*
X19775Y11000D02*
X19225D01*
G54D42*
X29725Y10000D03*
X30275D03*
G54D38*
X29725Y10000D02*
X30275D01*
G54D42*
X29725Y12000D03*
X30275D03*
G54D38*
X29725Y12000D02*
X30275D01*
G54D42*
X32275Y10000D03*
X31725D03*
G54D38*
X32275Y10000D02*
X31725D01*
G54D42*
X32275Y11000D03*
X31725D03*
G54D38*
X32275Y11000D02*
X31725D01*
G54D42*
X32275Y12000D03*
X31725D03*
G54D38*
X32275Y12000D02*
X31725D01*
G54D42*
X30275Y11000D03*
X29725D03*
G54D38*
X30275Y11000D02*
X29725D01*
G54D46*
X21600Y2800D02*
X16800D01*
Y2200*
X22466Y3174D02*
X27000D01*
X17500Y4000D02*
X32100D01*
Y2500*
X38300*
X32400Y4200D02*
X19348D01*
Y5200*
X38000Y2800D02*
X32400D01*
Y4200*
X47000D02*
X38000D01*
Y2800*
X32700Y4400D02*
X21100D01*
Y5800*
X37700Y3100D02*
X32700D01*
Y4400*
X41527Y3100D02*
X42400D01*
G54D38*
X70100Y15500D02*
X69000D01*
Y17200*
G54D54*
X67600Y17300D02*
X71200D01*
G54D46*
X66100Y3900D02*
X66300D01*
X39097Y15062D02*
X47000D01*
Y14500*
X14148Y13998D03*
Y11800D01*
G54D10*
X53600Y8800D02*
Y7300D01*
X54500Y14500D02*
X55500D01*
Y12000*
G54D46*
X53400Y14500D02*
X48751D01*
Y17294*
G54D54*
X53540Y1300D02*
X50993D01*
G54D46*
X47500Y7100D02*
Y6700D01*
Y7612D02*
Y9609D01*
G54D10*
X47000Y11400D02*
Y14500D01*
G54D46*
X48031Y11400D02*
X47000D01*
D03*
X18600Y5200D02*
X16100D01*
Y4200*
X12500*
Y3200*
X15800Y4400D02*
X12000D01*
Y3231*
X15500Y4600D02*
X11000D01*
Y5300*
G54D10*
X16000Y11300D02*
Y13200D01*
G54D38*
X64275Y12000D03*
Y14525D01*
X72000Y12000D02*
X71502D01*
Y15500*
G54D42*
X4487Y10000D03*
X7875D03*
G54D38*
X4487Y10000D02*
X7875D01*
G54D46*
X20352Y5800D02*
X15800D01*
Y4400*
G54D17*
X28000Y10492D03*
Y10689D03*
G54D16*
X28000Y10492D02*
Y10689D01*
G54D17*
X28492Y10000D03*
X28704D03*
G54D16*
X28492Y10000D02*
X28704D01*
G54D17*
X27508Y10000D03*
X27261D03*
G54D16*
X27508Y10000D02*
X27261D01*
G54D17*
X60200Y10492D03*
Y10689D03*
G54D16*
X60200Y10492D02*
Y10689D01*
G54D17*
X60692Y10000D03*
X60904D03*
G54D16*
X60692Y10000D02*
X60904D01*
G54D17*
X59708Y10000D03*
X59461D03*
G54D16*
X59708Y10000D02*
X59461D01*
G54D42*
X37825Y10000D03*
X37875D03*
G54D38*
X37825Y10000D02*
X37875D01*
G54D56*
X23500Y10000D03*
X26950D03*
G54D10*
X23500Y10000D02*
X26950D01*
G54D42*
X50425Y10008D03*
X50588D03*
G54D38*
X50425Y10008D02*
X50588D01*
G54D42*
X61425Y10000D03*
X65375D03*
G54D38*
X61425Y10000D02*
X65375D01*
G54D42*
X16372Y10000D03*
X16575D03*
G54D38*
X16372Y10000D02*
X16575D01*
G54D46*
X16000Y11800D02*
X14164D01*
Y10572*
X16000Y7000D02*
X15500D01*
Y4600*
G54D10*
X18900Y14500D02*
X21500D01*
Y12000*
X17825Y15623D02*
X18898D01*
Y16750*
G54D49*
X28000Y10887D03*
Y14400D03*
G54D50*
X28000Y10887D02*
Y14400D01*
X36700Y10787D02*
Y12900D01*
X37640Y14834D02*
Y15600D01*
G54D42*
X1925Y10000D03*
X1975D03*
G54D38*
X1925Y10000D02*
X1975D01*
G54D49*
X3200Y10894D03*
Y14000D03*
G54D50*
X3200Y10894D02*
Y14000D01*
X7025Y15628D02*
X3200D01*
Y14848*
X51700Y10787D02*
Y13900D01*
X60200Y10787D02*
Y13100D01*
G54D42*
X23025Y10000D03*
X23125D03*
G54D38*
X23025Y10000D02*
X23125D01*
G54D10*
X16000Y7000D02*
Y8600D01*
X10900Y5400D02*
X10400D01*
Y6200*
G54D46*
X11000Y4600D03*
Y4200D01*
X10000*
Y3648*
X10400Y4500D02*
Y5400D01*
X7500Y2200D02*
X12500D01*
Y3231*
G54D10*
X31900Y15600D02*
X22002D01*
Y16750*
G54D50*
X36700Y12900D02*
X37700D01*
Y13800*
G54D10*
X48200Y15600D02*
X37600D01*
Y17000*
G54D46*
X36500Y14300D02*
X39097D01*
Y15062*
X14148Y15064D02*
X33200D01*
Y15800*
X35398*
Y14300*
G54D10*
X36498Y17000D02*
X31800D01*
Y16750*
G54D55*
X34151Y10489D03*
Y14589D03*
G54D46*
X34151Y10489D02*
Y14589D01*
G54D42*
X34675Y10000D03*
X34625D03*
G54D38*
X34675Y10000D02*
X34625D01*
G54D42*
X33678Y10004D03*
X33628D03*
G54D38*
X33678Y10004D02*
X33628D01*
G54D42*
X29225Y10000D03*
X33074D03*
G54D38*
X29225Y10000D02*
X33074D01*
G54D55*
X57849Y9511D03*
Y5411D03*
G54D46*
X57849Y9511D02*
Y5411D01*
G54D42*
X58325Y10000D03*
X58375D03*
G54D38*
X58325Y10000D02*
X58375D01*
G54D42*
X52825Y10000D03*
X56785D03*
G54D38*
X52825Y10000D02*
X56785D01*
G54D42*
X58925Y10000D03*
X59018D03*
G54D38*
X58925Y10000D02*
X59018D01*
G54D46*
X65066Y1652D02*
X64070D01*
Y2798*
G54D42*
X35227Y10000D03*
X35421D03*
G54D38*
X35227Y10000D02*
X35421D01*
G54D46*
X12504Y6496D02*
X12500D01*
Y5200*
Y7500D02*
X14171D01*
Y9235*
X12504Y7008D02*
X12500Y7500D01*
X12000Y6500D03*
Y5200D01*
X11500Y7900D02*
X13600D01*
Y9600*
X12000Y7012D02*
Y7700D01*
X11496Y7392D02*
X11500D01*
Y5200*
X6400Y3612D02*
X7500D01*
Y2200*
X6400Y2864D02*
X5500D01*
Y2000*
X10400Y4500D02*
X5500D01*
Y2864*
G54D42*
X13075Y10000D03*
D03*
G54D38*
X13075Y10000D03*
G54D42*
X12175Y10000D03*
X12475D03*
G54D38*
X12175Y10000D02*
X12475D01*
G54D42*
X11275Y10000D03*
X11575D03*
G54D38*
X11275Y10000D02*
X11575D01*
G54D42*
X10375Y10000D03*
X10675D03*
G54D38*
X10375Y10000D02*
X10675D01*
G54D42*
X65925Y10000D03*
X66575D03*
G54D38*
X65925Y10000D02*
X66575D01*
G54D17*
X3200Y10498D03*
Y10695D03*
G54D16*
X3200Y10498D02*
Y10695D01*
G54D17*
X3692Y10006D03*
X3904D03*
G54D16*
X3692Y10006D02*
X3904D01*
G54D17*
X2708Y10006D03*
X2461D03*
G54D16*
X2708Y10006D02*
X2461D01*
G54D42*
X4775Y10000D03*
X5325D03*
G54D38*
X4775Y10000D02*
X5325D01*
G54D42*
X4775Y12000D03*
X5325D03*
G54D38*
X4775Y12000D02*
X5325D01*
G54D42*
X7325Y10000D03*
X6775D03*
G54D38*
X7325Y10000D02*
X6775D01*
G54D42*
X7325Y11000D03*
X6775D03*
G54D38*
X7325Y11000D02*
X6775D01*
G54D42*
X7325Y12000D03*
X6775D03*
G54D38*
X7325Y12000D02*
X6775D01*
G54D42*
X5325Y11000D03*
X4775D03*
G54D38*
X5325Y11000D02*
X4775D01*
G54D46*
X47834Y10396D02*
Y10196D01*
X48420Y10417D02*
Y10217D01*
G54D58*
X47600Y10200D02*
X47800D01*
X47600Y9810D02*
X47850D01*
X48650Y10200D02*
X48400D01*
X48700Y9810D02*
X48450D01*
X14555Y10415D02*
Y10215D01*
X14360Y10418D02*
Y10218D01*
X13970Y10400D02*
Y10200D01*
G54D59*
X14263Y9908D03*
D03*
G54D60*
X14263Y9908D03*
G54D58*
X13720Y10200D02*
X14000D01*
X14820D02*
X14560D01*
X13700Y9810D02*
X13960D01*
X14800D02*
X14560D01*
G54D17*
X17787Y10492D03*
Y10689D03*
G54D16*
X17787Y10492D02*
Y10689D01*
G54D17*
X18280Y10000D03*
X18492D03*
G54D16*
X18280Y10000D02*
X18492D01*
G54D17*
X17295Y10000D03*
X17048D03*
G54D16*
X17295Y10000D02*
X17048D01*
G54D50*
X61200Y13250D02*
X63100D01*
Y15600*
G54D10*
X49302Y15600D02*
X54500D01*
Y15602*
G54D50*
X51700Y15060D02*
Y15600D01*
G54D10*
X20900Y16750D02*
X13852D01*
D03*
G54D17*
X36700Y10492D03*
Y10689D03*
G54D16*
X36700Y10492D02*
Y10689D01*
G54D17*
X37192Y10000D03*
X37404D03*
G54D16*
X37192Y10000D02*
X37404D01*
G54D17*
X36208Y10000D03*
X35961D03*
G54D16*
X36208Y10000D02*
X35961D01*
G54D46*
X12000Y7700D02*
X13974D01*
Y9235*
G54D42*
X38825Y10000D03*
X39375D03*
G54D38*
X38825Y10000D02*
X39375D01*
G54D42*
X38825Y12000D03*
X39375D03*
G54D38*
X38825Y12000D02*
X39375D01*
G54D42*
X41375Y10000D03*
X40825D03*
G54D38*
X41375Y10000D02*
X40825D01*
G54D42*
X41375Y11000D03*
X40825D03*
G54D38*
X41375Y11000D02*
X40825D01*
G54D42*
X41375Y12000D03*
X40825D03*
G54D38*
X41375Y12000D02*
X40825D01*
G54D42*
X39375Y11000D03*
X38825D03*
G54D38*
X39375Y11000D02*
X38825D01*
G54D20*
X24250Y600D03*
X25750D03*
G54D57*
X24250Y600D02*
X25750D01*
X24900Y7500D02*
X45000D01*
G54D10*
X12750Y16750D02*
X7025D01*
Y15628*
X66000Y18500D02*
X64275D01*
Y15628*
X66808Y18500D02*
X72700D01*
Y14400*
G54D55*
X9149Y9511D03*
Y5411D03*
G54D46*
X9149Y9511D02*
Y5411D01*
G54D42*
X9725Y10000D03*
X9775D03*
G54D38*
X9725Y10000D02*
X9775D01*
G54D42*
X8525Y10000D03*
X8575D03*
G54D38*
X8525Y10000D02*
X8575D01*
G54D42*
X8675Y10000D03*
X8425D03*
G54D38*
X8675Y10000D02*
X8425D01*
G54D42*
X9625Y10000D03*
X9775D03*
G54D38*
X9625Y10000D02*
X9775D01*
G54D42*
X9025Y10000D03*
X9275D03*
G54D38*
X9025Y10000D02*
X9275D01*
G54D42*
X57332Y10000D03*
X57382D03*
G54D38*
X57332Y10000D02*
X57382D01*
G54D42*
X57775Y10000D03*
X57925D03*
G54D38*
X57775Y10000D02*
X57925D01*
G54D42*
X34075Y10000D03*
X34225D03*
G54D38*
X34075Y10000D02*
X34225D01*
G54D10*
X65558Y6780D02*
Y8280D01*
G54D61*
X68000Y900D02*
X65560D01*
G54D54*
X57800Y1320D02*
X60400D01*
Y2920*
G54D11*
X63740Y2120D02*
X61020D01*
Y600*
X63740Y900D02*
Y2120D01*
X65560Y900D02*
X63740D01*
X65560D02*
Y2512D01*
G54D46*
X51160Y4040D02*
Y4760D01*
X46620Y4400D02*
X37700D01*
Y3100*
X53600Y7300D02*
X52150D01*
Y6022*
X50312Y9100D02*
X51650D01*
Y6022*
X51150Y6008D02*
Y8600D01*
X50200D02*
X51150D01*
X50650Y6008D02*
Y8100D01*
X49700*
X50150Y6008D02*
Y7600D01*
X49200*
X49650Y7100D02*
Y5920D01*
X48700Y7100D02*
X49650D01*
X49150Y6700D02*
Y6008D01*
X47500Y6700D02*
X49150D01*
G54D10*
X48600Y6022D02*
X46800D01*
Y8400*
G54D46*
X52400Y5400D02*
X48650D01*
Y6020*
X51150Y4760D02*
X53340D01*
X51150Y3130D02*
X52920D01*
X50644Y5380D03*
Y4034D01*
X50390Y3329D02*
X49639D01*
Y3968*
X47800Y3000D02*
X51150D01*
Y4100*
X48650Y4000D02*
X38300D01*
Y2500*
X50500Y2300D02*
X35900D01*
Y1140*
X54698Y1340D02*
X50500D01*
Y2300*
X30220Y5300D02*
Y4440D01*
Y5300D02*
X31940D01*
Y5680*
X47000Y2750D02*
X43000D01*
Y3100*
G54D18*
X41300Y5840D02*
X42680D01*
G54D61*
X37020Y4140D02*
Y5440D01*
G54D46*
X37020Y5460D02*
X38280D01*
X38760Y6120D02*
X35000D01*
X34300Y6100D02*
X32786D01*
X35060Y4200D02*
Y6140D01*
G54D54*
X68000Y900D02*
X72400D01*
Y6200*
G54D58*
X50150Y4800D02*
X47000D01*
X50140Y4040D02*
Y4800D01*
X47000D02*
Y4200D01*
X50400Y5050D02*
X46620D01*
X50400D02*
Y3334D01*
X46620Y5050D02*
Y4400D01*
G54D46*
X52400Y5400D02*
X55800D01*
Y5000*
G54D11*
X50200Y2020D02*
X43200D01*
X50200Y600D02*
Y2020D01*
X61020Y600D02*
X50200D01*
X43200Y2020D02*
Y1080D01*
G54D18*
X43200Y1080D02*
X41600D01*
X37060Y4200D02*
X36000D01*
X35160D02*
X33980D01*
X27748Y3200D02*
X30807D01*
X41527Y3100D02*
X39193D01*
G54D46*
X12500Y2200D02*
X16800D01*
X5500Y1950D02*
X34798D01*
Y1000*
X10000Y2500D02*
X12000D01*
Y4400*
X10000Y2900D02*
Y2500D01*
X38760Y5100D02*
Y6120D01*
X39180Y5100D02*
X38760D01*
X39180Y5840D02*
X41300D01*
G54D42*
X68675Y10000D03*
X67625D03*
G54D38*
X68675Y10000D02*
X67625D01*
G54D42*
X67075Y10000D03*
X66725D03*
G54D38*
X67075Y10000D02*
X66725D01*
G54D59*
X48127Y9912D03*
D03*
G54D60*
X48127Y9912D03*
G54D17*
X51700Y10492D03*
Y10689D03*
G54D16*
X51700Y10492D02*
Y10689D01*
G54D17*
X52192Y10000D03*
X52404D03*
G54D16*
X52192Y10000D02*
X52404D01*
G54D17*
X51208Y10000D03*
X50961D03*
G54D16*
X51208Y10000D02*
X50961D01*
G54D46*
X65550Y6000D03*
Y3648D01*
G54D37*
X68010Y10650D03*
X68510D03*
G54D54*
X68010Y10650D02*
X68510D01*
G54D62*
X68080Y9360D03*
X68580D03*
G54D18*
X68080Y9360D02*
X68580D01*
G36*
X74781Y10226D02*
X74956Y10132D01*
X74958Y9893*
X74786Y9778*
X74781Y10226*
G37*
G36*
X100Y10100D02*
X255Y10223D01*
Y9781*
X100Y9900*
Y10100*
G37*
G36*
X37400Y10000D02*
X37600Y10200D01*
Y9800*
X37400Y10000*
G37*
G36*
X27097Y10149D02*
X27215Y10096D01*
Y9906*
X27096Y9852*
X27097Y10149*
G37*
G36*
X28781Y10095D02*
X29007Y10225D01*
Y9782*
X28777Y9907*
X28781Y10095*
G37*
G36*
X50801Y10225D02*
X50928Y10100D01*
X50933Y9912*
X50795Y9790*
X50801Y10225*
G37*
G36*
X59235Y10217D02*
X59419Y10098D01*
X59422Y9906*
X59231Y9769*
X59235Y10217*
G37*
G36*
X60982Y10097D02*
X61207Y10229D01*
X61204Y9770*
X60982Y9897*
Y10097*
G37*
G36*
X16795Y10226D02*
X17014Y10093D01*
X17012Y9910*
X16793Y9782*
X16795Y10226*
G37*
G36*
X18567Y10093D02*
X18808Y10229D01*
X18807Y9777*
X18565Y9907*
X18567Y10093*
G37*
G36*
X2196Y10223D02*
X2421Y10098D01*
Y9912*
X2196Y9775*
Y10223*
G37*
G36*
X4268Y9775D02*
X3976Y9911D01*
Y10098*
X4270Y10225*
X4268Y9775*
G37*
G36*
X35637Y10228D02*
X35916Y10096D01*
X35921Y9903*
X35635Y9774*
X35637Y10228*
G37*
G36*
X47105Y10227D02*
X47467Y10048D01*
X47465Y9961*
X47104Y9776*
X47100Y10000*
X47105Y10227*
G37*
G36*
X48807Y10050D02*
X49211Y10225D01*
X49210Y9775*
X48807Y9957*
X48800Y10000*
X48807Y10050*
G37*
G36*
X52481Y10095D02*
X52608Y10225D01*
X52650Y10000*
X52609Y9781*
X52481Y9908*
X52450Y10000*
X52481Y10095*
G37*
G36*
X13248Y10228D02*
X13607Y10048D01*
X13603Y9959*
X13247Y9777*
X13248Y10228*
G37*
G36*
X14940Y10060D02*
X15305Y10228D01*
X15307Y9775*
X14940Y9960*
Y10000*
Y10060*
G37*
G36*
X59148Y6774D02*
X59149Y6769D01*
X59148Y6764*
X59144Y6759*
X59140Y6757*
X59135Y6756*
X59130Y6757*
X59125Y6760*
X59123Y6764*
X59002Y7082*
X59001Y7087*
X59002Y7092*
X59005Y7096*
X59010Y7099*
X59015Y7100*
X59020Y7099*
X59024Y7096*
X59027Y7091*
X59148Y6774*
G37*
G36*
X59002Y7091D02*
X59005Y7096D01*
X59009Y7099*
X59014Y7100*
X59019Y7099*
X59024Y7096*
X59027Y7092*
X59028Y7087*
X59027Y7082*
X58906Y6764*
X58903Y6760*
X58899Y6757*
X58894Y6756*
X58889Y6757*
X58884Y6759*
X58881Y6764*
X58880Y6769*
X58881Y6774*
X59002Y7091*
G37*
G36*
X58939Y6862D02*
X58934Y6863D01*
X58929Y6865*
X58926Y6870*
X58925Y6875*
X58926Y6880*
X58929Y6885*
X58934Y6887*
X58939Y6889*
X59090*
X59095Y6887*
X59099Y6885*
X59102Y6880*
X59103Y6875*
X59102Y6870*
X59099Y6865*
X59095Y6863*
X59090Y6862*
X58939*
G37*
G36*
X59322Y7087D02*
X59323Y7092D01*
X59326Y7096*
X59330Y7099*
X59335Y7100*
X59341Y7099*
X59345Y7096*
X59348Y7092*
X59349Y7087*
Y6769*
X59348Y6764*
X59345Y6760*
X59341Y6757*
X59335Y6756*
X59330Y6757*
X59326Y6760*
X59323Y6764*
X59322Y6769*
Y7087*
G37*
G36*
X59230Y7073D02*
X59225Y7074D01*
X59220Y7077*
X59217Y7081*
X59216Y7087*
X59217Y7092*
X59220Y7096*
X59225Y7099*
X59230Y7100*
X59441*
X59446Y7099*
X59451Y7096*
X59454Y7092*
X59455Y7087*
X59454Y7081*
X59451Y7077*
X59446Y7074*
X59441Y7073*
X59230*
G37*
G36*
X59790Y6774D02*
X59791Y6769D01*
X59790Y6764*
X59787Y6759*
X59782Y6757*
X59777Y6756*
X59772Y6757*
X59768Y6760*
X59765Y6764*
X59644Y7082*
X59643Y7087*
X59644Y7092*
X59647Y7096*
X59652Y7099*
X59657Y7100*
X59662Y7099*
X59666Y7096*
X59669Y7091*
X59790Y6774*
G37*
G36*
X59644Y7091D02*
X59647Y7096D01*
X59651Y7099*
X59656Y7100*
X59661Y7099*
X59666Y7096*
X59669Y7092*
X59670Y7087*
X59669Y7082*
X59548Y6764*
X59546Y6760*
X59541Y6757*
X59536Y6756*
X59531Y6757*
X59526Y6759*
X59523Y6764*
X59522Y6769*
X59523Y6774*
X59644Y7091*
G37*
G36*
X59581Y6862D02*
X59576Y6863D01*
X59571Y6865*
X59569Y6870*
X59568Y6875*
X59569Y6880*
X59571Y6885*
X59576Y6887*
X59581Y6889*
X59732*
X59737Y6887*
X59742Y6885*
X59745Y6880*
X59746Y6875*
X59745Y6870*
X59742Y6865*
X59737Y6863*
X59732Y6862*
X59581*
G37*
G36*
X59872Y6892D02*
X59867Y6893D01*
X59862Y6896*
X59859Y6900*
X59858Y6905*
X59859Y6910*
X59862Y6915*
X59867Y6918*
X59872Y6919*
X60144*
X60149Y6918*
X60153Y6915*
X60156Y6910*
X60157Y6905*
X60156Y6900*
X60153Y6896*
X60149Y6893*
X60144Y6892*
X59872*
G37*
G36*
X60493Y6774D02*
X60494Y6769D01*
X60492Y6764*
X60489Y6759*
X60485Y6757*
X60480Y6756*
X60475Y6757*
X60470Y6760*
X60467Y6764*
X60347Y7082*
X60346Y7087*
X60347Y7092*
X60350Y7096*
X60354Y7099*
X60360Y7100*
X60365Y7099*
X60369Y7096*
X60372Y7091*
X60493Y6774*
G37*
G36*
X60347Y7091D02*
X60349Y7096D01*
X60354Y7099*
X60359Y7100*
X60364Y7099*
X60368Y7096*
X60372Y7092*
X60373Y7087*
X60372Y7082*
X60251Y6764*
X60248Y6760*
X60244Y6757*
X60239Y6756*
X60234Y6757*
X60229Y6759*
X60226Y6764*
X60225Y6769*
X60226Y6774*
X60347Y7091*
G37*
G36*
X60284Y6862D02*
X60279Y6863D01*
X60274Y6865*
X60271Y6870*
X60270Y6875*
X60271Y6880*
X60274Y6885*
X60279Y6887*
X60284Y6889*
X60435*
X60440Y6887*
X60444Y6885*
X60447Y6880*
X60448Y6875*
X60447Y6870*
X60444Y6865*
X60440Y6863*
X60435Y6862*
X60284*
G37*
G36*
X60561Y6981D02*
X60562Y6986D01*
X60565Y6990*
X60569Y6993*
X60575Y6994*
X60580Y6993*
X60584Y6990*
X60587Y6986*
X60588Y6981*
Y6769*
X60587Y6764*
X60584Y6760*
X60580Y6757*
X60575Y6756*
X60569Y6757*
X60565Y6760*
X60562Y6764*
X60561Y6769*
Y6981*
G37*
G36*
X60584Y6911D02*
X60580Y6908D01*
X60575Y6907*
X60569Y6908*
X60565Y6911*
X60562Y6915*
X60561Y6920*
X60562Y6925*
X60565Y6930*
X60610Y6975*
X60615Y6978*
X60620Y6979*
X60625Y6978*
X60629Y6975*
X60632Y6971*
X60633Y6966*
X60632Y6960*
X60629Y6956*
X60584Y6911*
G37*
G36*
X60626Y6954D02*
X60621Y6952D01*
X60616Y6953*
X60611Y6955*
X60608Y6960*
X60606Y6965*
X60607Y6970*
X60610Y6974*
X60614Y6978*
X60644Y6993*
X60649Y6994*
X60654*
X60659Y6991*
X60662Y6987*
X60664Y6982*
X60663Y6976*
X60660Y6972*
X60656Y6969*
X60626Y6954*
G37*
G36*
X60650Y6967D02*
X60645Y6968D01*
X60641Y6971*
X60638Y6976*
X60637Y6981*
X60638Y6986*
X60641Y6990*
X60645Y6993*
X60650Y6994*
X60695*
X60701Y6993*
X60705Y6990*
X60708Y6986*
X60709Y6981*
X60708Y6976*
X60705Y6971*
X60701Y6968*
X60695Y6967*
X60650*
G37*
G36*
X60689Y6969D02*
X60685Y6972D01*
X60683Y6976*
X60682Y6982*
X60683Y6987*
X60687Y6991*
X60691Y6994*
X60696*
X60701Y6993*
X60732Y6978*
X60736Y6974*
X60738Y6970*
X60739Y6965*
X60738Y6960*
X60734Y6955*
X60730Y6953*
X60725Y6952*
X60720Y6954*
X60689Y6969*
G37*
G36*
X60713Y6961D02*
X60712Y6967D01*
X60714Y6972*
X60717Y6976*
X60721Y6978*
X60727Y6979*
X60732Y6978*
X60736Y6974*
X60738Y6970*
X60754Y6925*
Y6919*
X60753Y6914*
X60750Y6910*
X60745Y6908*
X60740Y6907*
X60735Y6908*
X60731Y6911*
X60728Y6916*
X60713Y6961*
G37*
G36*
X60727Y6920D02*
X60728Y6925D01*
X60731Y6930*
X60736Y6933*
X60741Y6934*
X60746Y6933*
X60750Y6930*
X60753Y6925*
X60754Y6920*
Y6769*
X60753Y6764*
X60750Y6760*
X60746Y6757*
X60741Y6756*
X60736Y6757*
X60731Y6760*
X60728Y6764*
X60727Y6769*
Y6920*
G37*
G36*
X60750Y6911D02*
X60746Y6908D01*
X60741Y6907*
X60736Y6908*
X60731Y6911*
X60728Y6915*
X60727Y6920*
X60728Y6925*
X60731Y6930*
X60777Y6975*
X60781Y6978*
X60786Y6979*
X60791Y6978*
X60796Y6975*
X60799Y6971*
X60800Y6966*
X60799Y6960*
X60796Y6956*
X60750Y6911*
G37*
G36*
X60792Y6954D02*
X60787Y6952D01*
X60782Y6953*
X60777Y6955*
X60774Y6960*
X60773Y6965*
Y6970*
X60776Y6974*
X60780Y6978*
X60810Y6993*
X60815Y6994*
X60821*
X60825Y6991*
X60828Y6987*
X60830Y6982*
X60829Y6976*
X60826Y6972*
X60822Y6969*
X60792Y6954*
G37*
G36*
X60816Y6967D02*
X60811Y6968D01*
X60807Y6971*
X60804Y6976*
X60803Y6981*
X60804Y6986*
X60807Y6990*
X60811Y6993*
X60816Y6994*
X60862*
X60867Y6993*
X60871Y6990*
X60874Y6986*
X60875Y6981*
X60874Y6976*
X60871Y6971*
X60867Y6968*
X60862Y6967*
X60816*
G37*
G36*
X60856Y6969D02*
X60851Y6972D01*
X60849Y6976*
X60848Y6982*
X60850Y6987*
X60853Y6991*
X60857Y6994*
X60863*
X60868Y6993*
X60898Y6978*
X60902Y6974*
X60905Y6970*
Y6965*
X60904Y6960*
X60901Y6955*
X60896Y6953*
X60891Y6952*
X60886Y6954*
X60856Y6969*
G37*
G36*
X60879Y6961D02*
X60878Y6967D01*
X60880Y6972*
X60883Y6976*
X60888Y6978*
X60893Y6979*
X60898Y6978*
X60902Y6974*
X60905Y6970*
X60920Y6925*
Y6919*
X60919Y6914*
X60916Y6910*
X60911Y6908*
X60906Y6907*
X60901Y6908*
X60897Y6911*
X60894Y6916*
X60879Y6961*
G37*
G36*
X60893Y6920D02*
X60894Y6925D01*
X60897Y6930*
X60902Y6933*
X60907Y6934*
X60912Y6933*
X60916Y6930*
X60919Y6925*
X60920Y6920*
Y6769*
X60919Y6764*
X60916Y6760*
X60912Y6757*
X60907Y6756*
X60902Y6757*
X60897Y6760*
X60894Y6764*
X60893Y6769*
Y6920*
G37*
G36*
X60988Y6981D02*
X60989Y6986D01*
X60992Y6990*
X60996Y6993*
X61001Y6994*
X61007Y6993*
X61011Y6990*
X61014Y6986*
X61015Y6981*
Y6664*
X61014Y6658*
X61011Y6654*
X61007Y6651*
X61001Y6650*
X60996Y6651*
X60992Y6654*
X60989Y6658*
X60988Y6664*
Y6981*
G37*
G36*
X61011Y6926D02*
X61007Y6923D01*
X61001Y6922*
X60996Y6923*
X60992Y6926*
X60989Y6930*
X60988Y6935*
X60989Y6941*
X60992Y6945*
X61022Y6975*
X61026Y6978*
X61032Y6979*
X61037Y6978*
X61041Y6975*
X61044Y6971*
X61045Y6966*
X61044Y6960*
X61041Y6956*
X61011Y6926*
G37*
G36*
X61038Y6954D02*
X61033Y6952D01*
X61027Y6953*
X61023Y6955*
X61020Y6960*
X61018Y6965*
X61019Y6970*
X61021Y6974*
X61026Y6978*
X61056Y6993*
X61061Y6994*
X61066*
X61071Y6991*
X61074Y6987*
X61075Y6982*
Y6976*
X61072Y6972*
X61068Y6969*
X61038Y6954*
G37*
G36*
X61062Y6967D02*
X61057Y6968D01*
X61052Y6971*
X61049Y6976*
X61048Y6981*
X61049Y6986*
X61052Y6990*
X61057Y6993*
X61062Y6994*
X61107*
X61112Y6993*
X61117Y6990*
X61120Y6986*
X61121Y6981*
X61120Y6976*
X61117Y6971*
X61112Y6968*
X61107Y6967*
X61062*
G37*
G36*
X61101Y6969D02*
X61097Y6972D01*
X61094Y6976*
Y6982*
X61095Y6987*
X61098Y6991*
X61103Y6994*
X61108*
X61113Y6993*
X61143Y6978*
X61148Y6974*
X61150Y6970*
X61151Y6965*
X61149Y6960*
X61146Y6955*
X61142Y6953*
X61136Y6952*
X61131Y6954*
X61101Y6969*
G37*
G36*
X61128Y6956D02*
X61125Y6960D01*
X61124Y6966*
X61125Y6971*
X61128Y6975*
X61132Y6978*
X61137Y6979*
X61143Y6978*
X61147Y6975*
X61177Y6945*
X61180Y6941*
X61181Y6935*
X61180Y6930*
X61177Y6926*
X61173Y6923*
X61168Y6922*
X61162Y6923*
X61158Y6926*
X61128Y6956*
G37*
G36*
X61155Y6931D02*
X61154Y6936D01*
X61156Y6941*
X61159Y6946*
X61163Y6948*
X61169Y6949*
X61174Y6948*
X61178Y6944*
X61180Y6940*
X61196Y6894*
Y6889*
X61195Y6884*
X61192Y6880*
X61187Y6877*
X61182*
X61177Y6878*
X61173Y6881*
X61170Y6886*
X61155Y6931*
G37*
G36*
X61169Y6890D02*
X61170Y6895D01*
X61173Y6900*
X61178Y6903*
X61183Y6904*
X61188Y6903*
X61192Y6900*
X61195Y6895*
X61196Y6890*
Y6860*
X61195Y6855*
X61192Y6850*
X61188Y6847*
X61183Y6846*
X61178Y6847*
X61173Y6850*
X61170Y6855*
X61169Y6860*
Y6890*
G37*
G36*
X61170Y6864D02*
X61173Y6869D01*
X61177Y6872*
X61182Y6873*
X61187*
X61192Y6870*
X61195Y6866*
X61196Y6861*
Y6856*
X61180Y6810*
X61178Y6806*
X61174Y6802*
X61169Y6801*
X61163Y6802*
X61159Y6804*
X61156Y6809*
X61154Y6814*
X61155Y6819*
X61170Y6864*
G37*
G36*
X61158Y6824D02*
X61162Y6827D01*
X61168Y6828*
X61173Y6827*
X61177Y6824*
X61180Y6820*
X61181Y6815*
X61180Y6809*
X61177Y6805*
X61147Y6775*
X61143Y6772*
X61137Y6771*
X61132Y6772*
X61128Y6775*
X61125Y6779*
X61124Y6784*
X61125Y6790*
X61128Y6794*
X61158Y6824*
G37*
G36*
X61131Y6796D02*
X61136Y6798D01*
X61142Y6797*
X61146Y6795*
X61149Y6790*
X61151Y6785*
X61150Y6780*
X61148Y6776*
X61143Y6772*
X61113Y6757*
X61108Y6756*
X61103*
X61098Y6759*
X61095Y6763*
X61094Y6768*
Y6774*
X61097Y6778*
X61101Y6781*
X61131Y6796*
G37*
G36*
X61107Y6783D02*
X61112Y6782D01*
X61117Y6779*
X61120Y6774*
X61121Y6769*
X61120Y6764*
X61117Y6760*
X61112Y6757*
X61107Y6756*
X61062*
X61057Y6757*
X61052Y6760*
X61049Y6764*
X61048Y6769*
X61049Y6774*
X61052Y6779*
X61057Y6782*
X61062Y6783*
X61107*
G37*
G36*
X61068Y6781D02*
X61072Y6778D01*
X61075Y6774*
Y6768*
X61074Y6763*
X61071Y6759*
X61066Y6756*
X61061*
X61056Y6757*
X61026Y6772*
X61021Y6776*
X61019Y6780*
X61018Y6785*
X61020Y6790*
X61023Y6795*
X61027Y6797*
X61033Y6798*
X61038Y6796*
X61068Y6781*
G37*
G36*
X61041Y6794D02*
X61044Y6790D01*
X61045Y6784*
X61044Y6779*
X61041Y6775*
X61037Y6772*
X61032Y6771*
X61026Y6772*
X61022Y6775*
X60992Y6805*
X60989Y6809*
X60988Y6815*
X60989Y6820*
X60992Y6824*
X60996Y6827*
X61001Y6828*
X61007Y6827*
X61011Y6824*
X61041Y6794*
G37*
G36*
X61307Y7073D02*
X61302Y7074D01*
X61298Y7077*
X61295Y7081*
X61294Y7087*
X61295Y7092*
X61298Y7096*
X61302Y7099*
X61307Y7100*
X61474*
X61479Y7099*
X61483Y7096*
X61486Y7092*
X61487Y7087*
X61486Y7081*
X61483Y7077*
X61479Y7074*
X61474Y7073*
X61307*
G37*
G36*
X61463Y7095D02*
X61467Y7098D01*
X61472Y7100*
X61477*
X61482Y7097*
X61485Y7093*
X61487Y7088*
Y7083*
X61484Y7078*
X61394Y6958*
X61390Y6954*
X61385Y6952*
X61380Y6953*
X61375Y6955*
X61371Y6959*
X61370Y6964*
Y6969*
X61372Y6974*
X61463Y7095*
G37*
G36*
X61383Y6952D02*
X61378Y6953D01*
X61373Y6956*
X61370Y6960*
X61369Y6966*
X61370Y6971*
X61373Y6975*
X61378Y6978*
X61383Y6979*
X61428*
X61433Y6978*
X61438Y6975*
X61441Y6971*
X61442Y6966*
X61441Y6960*
X61438Y6956*
X61433Y6953*
X61428Y6952*
X61383*
G37*
G36*
X61422Y6954D02*
X61418Y6957D01*
X61415Y6961*
Y6967*
X61416Y6972*
X61419Y6976*
X61424Y6978*
X61429Y6979*
X61434Y6978*
X61465Y6963*
X61469Y6959*
X61471Y6955*
X61472Y6950*
X61471Y6944*
X61467Y6940*
X61463Y6938*
X61458Y6937*
X61452Y6938*
X61422Y6954*
G37*
G36*
X61449Y6941D02*
X61446Y6945D01*
X61445Y6951*
X61446Y6956*
X61449Y6960*
X61453Y6963*
X61459Y6964*
X61464Y6963*
X61468Y6960*
X61483Y6945*
X61486Y6941*
X61487Y6935*
X61486Y6930*
X61483Y6926*
X61479Y6923*
X61474Y6922*
X61468Y6923*
X61464Y6926*
X61449Y6941*
G37*
G36*
X61461Y6931D02*
X61460Y6936D01*
X61462Y6941*
X61465Y6946*
X61469Y6948*
X61475Y6949*
X61480Y6948*
X61484Y6944*
X61486Y6940*
X61502Y6894*
Y6889*
X61501Y6884*
X61498Y6880*
X61493Y6877*
X61488*
X61483Y6878*
X61479Y6881*
X61476Y6886*
X61461Y6931*
G37*
G36*
X61475Y6890D02*
X61476Y6895D01*
X61479Y6900*
X61484Y6903*
X61489Y6904*
X61494Y6903*
X61498Y6900*
X61501Y6895*
X61502Y6890*
Y6860*
X61501Y6855*
X61498Y6850*
X61494Y6847*
X61489Y6846*
X61484Y6847*
X61479Y6850*
X61476Y6855*
X61475Y6860*
Y6890*
G37*
G36*
X61476Y6864D02*
X61479Y6869D01*
X61483Y6872*
X61488Y6873*
X61493*
X61498Y6870*
X61501Y6866*
X61502Y6861*
Y6856*
X61486Y6810*
X61484Y6806*
X61480Y6802*
X61475Y6801*
X61469Y6802*
X61465Y6804*
X61462Y6809*
X61460Y6814*
X61461Y6819*
X61476Y6864*
G37*
G36*
X61464Y6824D02*
X61468Y6827D01*
X61474Y6828*
X61479Y6827*
X61483Y6824*
X61486Y6820*
X61487Y6815*
X61486Y6809*
X61483Y6805*
X61453Y6775*
X61449Y6772*
X61443Y6771*
X61438Y6772*
X61434Y6775*
X61431Y6779*
X61430Y6784*
X61431Y6790*
X61434Y6794*
X61464Y6824*
G37*
G36*
X61439Y6797D02*
X61444Y6798D01*
X61449Y6796*
X61454Y6793*
X61456Y6789*
X61457Y6783*
X61455Y6778*
X61452Y6774*
X61448Y6772*
X61402Y6756*
X61397*
X61392Y6757*
X61388Y6760*
X61385Y6765*
Y6770*
X61386Y6775*
X61389Y6779*
X61394Y6782*
X61439Y6797*
G37*
G36*
X61398Y6783D02*
X61403Y6782D01*
X61408Y6779*
X61411Y6774*
X61412Y6769*
X61411Y6764*
X61408Y6760*
X61403Y6757*
X61398Y6756*
X61353*
X61348Y6757*
X61343Y6760*
X61340Y6764*
X61339Y6769*
X61340Y6774*
X61343Y6779*
X61348Y6782*
X61353Y6783*
X61398*
G37*
G36*
X61357Y6782D02*
X61362Y6779D01*
X61365Y6775*
X61366Y6770*
Y6765*
X61363Y6760*
X61359Y6757*
X61354Y6756*
X61348*
X61303Y6772*
X61299Y6774*
X61295Y6778*
X61294Y6783*
X61295Y6789*
X61297Y6793*
X61301Y6796*
X61306Y6798*
X61312Y6797*
X61357Y6782*
G37*
G36*
X61317Y6794D02*
X61320Y6790D01*
X61321Y6784*
X61320Y6779*
X61317Y6775*
X61313Y6772*
X61307Y6771*
X61302Y6772*
X61298Y6775*
X61283Y6790*
X61280Y6794*
X61279Y6799*
X61280Y6805*
X61283Y6809*
X61287Y6812*
X61292Y6813*
X61297Y6812*
X61302Y6809*
X61317Y6794*
G37*
G36*
X61304Y6806D02*
X61306Y6800D01*
X61305Y6795*
X61303Y6791*
X61298Y6787*
X61293Y6786*
X61288Y6787*
X61283Y6789*
X61280Y6793*
X61265Y6824*
X61264Y6829*
Y6834*
X61267Y6839*
X61271Y6842*
X61276Y6843*
X61281Y6842*
X61286Y6840*
X61289Y6836*
X61304Y6806*
G37*
G36*
X61583Y6892D02*
X61578Y6893D01*
X61574Y6896*
X61571Y6900*
X61570Y6905*
X61571Y6910*
X61574Y6915*
X61578Y6918*
X61583Y6919*
X61855*
X61860Y6918*
X61865Y6915*
X61868Y6910*
X61869Y6905*
X61868Y6900*
X61865Y6896*
X61860Y6893*
X61855Y6892*
X61583*
G37*
G36*
X61936Y7087D02*
X61937Y7092D01*
X61940Y7096*
X61944Y7099*
X61950Y7100*
X61955Y7099*
X61959Y7096*
X61962Y7092*
X61963Y7087*
Y6769*
X61962Y6764*
X61959Y6760*
X61955Y6757*
X61950Y6756*
X61944Y6757*
X61940Y6760*
X61937Y6764*
X61936Y6769*
Y7087*
G37*
G36*
X62148D02*
X62149Y7092D01*
X62152Y7096*
X62156Y7099*
X62161Y7100*
X62166Y7099*
X62171Y7096*
X62174Y7092*
X62175Y7087*
Y6769*
X62174Y6764*
X62171Y6760*
X62166Y6757*
X62161Y6756*
X62156Y6757*
X62152Y6760*
X62149Y6764*
X62148Y6769*
Y7087*
G37*
G36*
X61950Y6922D02*
X61944Y6923D01*
X61940Y6926*
X61937Y6930*
X61936Y6935*
X61937Y6941*
X61940Y6945*
X61944Y6948*
X61950Y6949*
X62161*
X62166Y6948*
X62171Y6945*
X62174Y6941*
X62175Y6935*
X62174Y6930*
X62171Y6926*
X62166Y6923*
X62161Y6922*
X61950*
G37*
G36*
X60040Y6334D02*
X60034Y6333D01*
X60029*
X60025Y6336*
X60021Y6340*
X60020Y6345*
X60021Y6350*
X60023Y6355*
X60027Y6358*
X60058Y6373*
X60063Y6375*
X60068Y6374*
X60073Y6371*
X60076Y6367*
X60077Y6362*
Y6357*
X60074Y6352*
X60070Y6349*
X60040Y6334*
G37*
G36*
X60073Y6352D02*
X60069Y6349D01*
X60064Y6348*
X60059Y6349*
X60054Y6352*
X60051Y6356*
X60050Y6361*
X60051Y6366*
X60054Y6371*
X60099Y6416*
X60104Y6419*
X60109Y6420*
X60114Y6419*
X60119Y6416*
X60122Y6412*
X60123Y6407*
X60122Y6401*
X60119Y6397*
X60073Y6352*
G37*
G36*
X60096Y6407D02*
X60097Y6412D01*
X60099Y6416*
X60104Y6419*
X60109Y6420*
X60114Y6419*
X60119Y6416*
X60122Y6412*
X60123Y6407*
Y6089*
X60122Y6084*
X60119Y6080*
X60114Y6077*
X60109Y6076*
X60104Y6077*
X60099Y6080*
X60097Y6084*
X60096Y6089*
Y6407*
G37*
G36*
X60290Y6419D02*
X60295Y6420D01*
X60300Y6419*
X60304Y6415*
X60307Y6411*
X60308Y6406*
X60306Y6400*
X60303Y6396*
X60298Y6394*
X60253Y6379*
X60248Y6378*
X60243Y6379*
X60239Y6383*
X60236Y6387*
X60235Y6392*
X60237Y6397*
X60240Y6402*
X60245Y6404*
X60290Y6419*
G37*
G36*
X60238Y6399D02*
X60241Y6403D01*
X60246Y6405*
X60251*
X60256Y6403*
X60260Y6399*
X60262Y6394*
Y6389*
X60260Y6384*
X60230Y6339*
X60226Y6335*
X60221Y6333*
X60216*
X60211Y6335*
X60207Y6339*
X60205Y6343*
Y6349*
X60207Y6354*
X60238Y6399*
G37*
G36*
X60205Y6349D02*
X60207Y6354D01*
X60211Y6357*
X60216Y6359*
X60221*
X60226Y6357*
X60230Y6354*
X60232Y6349*
Y6343*
X60217Y6268*
X60215Y6263*
X60211Y6259*
X60206Y6257*
X60201*
X60196Y6259*
X60192Y6263*
X60190Y6268*
Y6273*
X60205Y6349*
G37*
G36*
X60190Y6271D02*
X60191Y6276D01*
X60194Y6280*
X60198Y6283*
X60204Y6284*
X60209Y6283*
X60213Y6280*
X60216Y6276*
X60217Y6271*
Y6225*
X60216Y6220*
X60213Y6216*
X60209Y6213*
X60204Y6212*
X60198Y6213*
X60194Y6216*
X60191Y6220*
X60190Y6225*
Y6271*
G37*
G36*
Y6223D02*
Y6228D01*
X60192Y6233*
X60196Y6236*
X60201Y6238*
X60206*
X60211Y6236*
X60215Y6233*
X60217Y6228*
X60232Y6152*
Y6147*
X60230Y6142*
X60226Y6138*
X60221Y6136*
X60216*
X60211Y6138*
X60207Y6142*
X60205Y6147*
X60190Y6223*
G37*
G36*
X60207Y6142D02*
X60205Y6147D01*
Y6152*
X60207Y6157*
X60211Y6161*
X60216Y6163*
X60221*
X60226Y6161*
X60230Y6157*
X60260Y6112*
X60262Y6107*
Y6102*
X60260Y6097*
X60256Y6093*
X60251Y6091*
X60246*
X60241Y6093*
X60238Y6097*
X60207Y6142*
G37*
G36*
X60245Y6092D02*
X60240Y6094D01*
X60237Y6098*
X60235Y6103*
X60236Y6109*
X60239Y6113*
X60243Y6116*
X60248Y6118*
X60253Y6117*
X60298Y6102*
X60303Y6099*
X60306Y6095*
X60308Y6090*
X60307Y6085*
X60304Y6080*
X60300Y6077*
X60295Y6076*
X60290*
X60245Y6092*
G37*
G36*
X60294Y6076D02*
X60289Y6077D01*
X60285Y6080*
X60282Y6084*
X60281Y6089*
X60282Y6094*
X60285Y6099*
X60289Y6102*
X60294Y6103*
X60324*
X60330Y6102*
X60334Y6099*
X60337Y6094*
X60338Y6089*
X60337Y6084*
X60334Y6080*
X60330Y6077*
X60324Y6076*
X60294*
G37*
G36*
X60329D02*
X60323D01*
X60318Y6077*
X60314Y6080*
X60312Y6085*
X60311Y6090*
X60312Y6095*
X60316Y6099*
X60320Y6102*
X60365Y6117*
X60371Y6118*
X60376Y6116*
X60380Y6113*
X60383Y6109*
Y6103*
X60382Y6098*
X60379Y6094*
X60374Y6092*
X60329Y6076*
G37*
G36*
X60381Y6097D02*
X60377Y6093D01*
X60372Y6091*
X60367*
X60362Y6093*
X60358Y6097*
X60356Y6102*
Y6107*
X60358Y6112*
X60389Y6157*
X60392Y6161*
X60397Y6163*
X60403*
X60407Y6161*
X60411Y6157*
X60413Y6152*
Y6147*
X60411Y6142*
X60381Y6097*
G37*
G36*
X60413Y6147D02*
X60411Y6142D01*
X60407Y6138*
X60403Y6136*
X60397*
X60392Y6138*
X60389Y6142*
X60387Y6147*
Y6152*
X60402Y6228*
X60404Y6233*
X60408Y6236*
X60412Y6238*
X60418*
X60423Y6236*
X60426Y6233*
X60428Y6228*
Y6223*
X60413Y6147*
G37*
G36*
X60429Y6225D02*
X60428Y6220D01*
X60425Y6216*
X60420Y6213*
X60415Y6212*
X60410Y6213*
X60405Y6216*
X60403Y6220*
X60402Y6225*
Y6271*
X60403Y6276*
X60405Y6280*
X60410Y6283*
X60415Y6284*
X60420Y6283*
X60425Y6280*
X60428Y6276*
X60429Y6271*
Y6225*
G37*
G36*
X60428Y6273D02*
Y6268D01*
X60426Y6263*
X60423Y6259*
X60418Y6257*
X60412*
X60408Y6259*
X60404Y6263*
X60402Y6268*
X60387Y6343*
Y6349*
X60389Y6354*
X60392Y6357*
X60397Y6359*
X60403*
X60407Y6357*
X60411Y6354*
X60413Y6349*
X60428Y6273*
G37*
G36*
X60411Y6354D02*
X60413Y6349D01*
Y6343*
X60411Y6339*
X60407Y6335*
X60403Y6333*
X60397*
X60392Y6335*
X60389Y6339*
X60358Y6384*
X60356Y6389*
Y6394*
X60358Y6399*
X60362Y6403*
X60367Y6405*
X60372*
X60377Y6403*
X60381Y6399*
X60411Y6354*
G37*
G36*
X60374Y6404D02*
X60379Y6402D01*
X60382Y6397*
X60383Y6392*
Y6387*
X60380Y6383*
X60376Y6379*
X60371Y6378*
X60365Y6379*
X60320Y6394*
X60316Y6396*
X60312Y6400*
X60311Y6406*
X60312Y6411*
X60314Y6415*
X60318Y6419*
X60323Y6420*
X60329Y6419*
X60374Y6404*
G37*
G36*
X60324Y6420D02*
X60330Y6419D01*
X60334Y6416*
X60337Y6412*
X60338Y6407*
X60337Y6401*
X60334Y6397*
X60330Y6394*
X60324Y6393*
X60294*
X60289Y6394*
X60285Y6397*
X60282Y6401*
X60281Y6407*
X60282Y6412*
X60285Y6416*
X60289Y6419*
X60294Y6420*
X60324*
G37*
G36*
X60650Y6414D02*
X60653Y6418D01*
X60658Y6420*
X60664*
X60668Y6417*
X60672Y6414*
X60674Y6409*
Y6403*
X60672Y6399*
X60521Y6187*
X60517Y6184*
X60512Y6182*
X60506*
X60502Y6184*
X60498Y6188*
X60496Y6193*
Y6198*
X60499Y6203*
X60650Y6414*
G37*
G36*
X60510Y6181D02*
X60504Y6183D01*
X60500Y6185*
X60497Y6190*
X60496Y6195*
X60497Y6200*
X60500Y6205*
X60504Y6207*
X60510Y6208*
X60736*
X60741Y6207*
X60746Y6205*
X60749Y6200*
X60750Y6195*
X60749Y6190*
X60746Y6185*
X60741Y6183*
X60736Y6181*
X60510*
G37*
G36*
X60647Y6407D02*
X60648Y6412D01*
X60651Y6416*
X60655Y6419*
X60661Y6420*
X60666Y6419*
X60670Y6416*
X60673Y6412*
X60674Y6407*
Y6089*
X60673Y6084*
X60670Y6080*
X60666Y6077*
X60661Y6076*
X60655Y6077*
X60651Y6080*
X60648Y6084*
X60647Y6089*
Y6407*
G37*
G36*
X60837Y6334D02*
X60832Y6333D01*
X60826*
X60822Y6336*
X60819Y6340*
X60817Y6345*
X60818Y6350*
X60820Y6355*
X60825Y6358*
X60855Y6373*
X60860Y6375*
X60865Y6374*
X60870Y6371*
X60873Y6367*
X60874Y6362*
Y6357*
X60871Y6352*
X60867Y6349*
X60837Y6334*
G37*
G36*
X60870Y6352D02*
X60866Y6349D01*
X60861Y6348*
X60856Y6349*
X60851Y6352*
X60848Y6356*
X60847Y6361*
X60848Y6366*
X60851Y6371*
X60897Y6416*
X60901Y6419*
X60906Y6420*
X60911Y6419*
X60916Y6416*
X60919Y6412*
X60920Y6407*
X60919Y6401*
X60916Y6397*
X60870Y6352*
G37*
G36*
X60893Y6407D02*
X60894Y6412D01*
X60897Y6416*
X60901Y6419*
X60906Y6420*
X60911Y6419*
X60916Y6416*
X60919Y6412*
X60920Y6407*
Y6089*
X60919Y6084*
X60916Y6080*
X60911Y6077*
X60906Y6076*
X60901Y6077*
X60897Y6080*
X60894Y6084*
X60893Y6089*
Y6407*
G37*
G36*
X61001Y6212D02*
X60996Y6213D01*
X60991Y6216*
X60988Y6220*
X60987Y6225*
X60988Y6230*
X60991Y6235*
X60996Y6238*
X61001Y6239*
X61273*
X61278Y6238*
X61282Y6235*
X61285Y6230*
X61286Y6225*
X61285Y6220*
X61282Y6216*
X61278Y6213*
X61273Y6212*
X61001*
G37*
G36*
X61354Y6407D02*
X61355Y6412D01*
X61358Y6416*
X61362Y6419*
X61367Y6420*
X61372Y6419*
X61377Y6416*
X61380Y6412*
X61381Y6407*
Y6089*
X61380Y6084*
X61377Y6080*
X61372Y6077*
X61367Y6076*
X61362Y6077*
X61358Y6080*
X61355Y6084*
X61354Y6089*
Y6407*
G37*
G36*
X61565D02*
X61566Y6412D01*
X61569Y6416*
X61573Y6419*
X61579Y6420*
X61584Y6419*
X61588Y6416*
X61591Y6412*
X61592Y6407*
Y6089*
X61591Y6084*
X61588Y6080*
X61584Y6077*
X61579Y6076*
X61573Y6077*
X61569Y6080*
X61566Y6084*
X61565Y6089*
Y6407*
G37*
G36*
X61367Y6242D02*
X61362Y6243D01*
X61358Y6246*
X61355Y6250*
X61354Y6255*
X61355Y6261*
X61358Y6265*
X61362Y6268*
X61367Y6269*
X61579*
X61584Y6268*
X61588Y6265*
X61591Y6261*
X61592Y6255*
X61591Y6250*
X61588Y6246*
X61584Y6243*
X61579Y6242*
X61367*
G37*
G36*
X46700Y9775D02*
Y10225D01*
X47120*
Y9775*
X46700*
G37*
G36*
X50100Y10108D02*
Y9908D01*
X49950*
Y10108*
X50100*
G37*
G36*
X50350D02*
Y9908D01*
X50200*
Y10108*
X50350*
G37*
G36*
X42400Y10107D02*
Y9907D01*
X42250*
Y10107*
X42400*
G37*
G36*
X42650D02*
Y9907D01*
X42500*
Y10107*
X42650*
G37*
G36*
X34998Y9891D02*
Y10091D01*
X35148*
Y9891*
X34998*
G37*
G36*
X34748D02*
Y10091D01*
X34898*
Y9891*
X34748*
G37*
G36*
X22700Y10103D02*
Y9903D01*
X22550*
Y10103*
X22700*
G37*
G36*
X22950D02*
Y9903D01*
X22800*
Y10103*
X22950*
G37*
G36*
X1602Y10102D02*
Y9902D01*
X1452*
Y10102*
X1602*
G37*
G36*
X1852D02*
Y9902D01*
X1702*
Y10102*
X1852*
G37*
G36*
X57009Y10100D02*
Y9900D01*
X56859*
Y10100*
X57009*
G37*
G36*
X57259D02*
Y9900D01*
X57109*
Y10100*
X57259*
G37*
G36*
X65598Y10095D02*
Y9895D01*
X65448*
Y10095*
X65598*
G37*
G36*
X65848D02*
Y9895D01*
X65698*
Y10095*
X65848*
G37*
G36*
X8098Y10098D02*
Y9898D01*
X7948*
Y10098*
X8098*
G37*
G36*
X8348D02*
Y9898D01*
X8198*
Y10098*
X8348*
G37*
G36*
X33300Y10099D02*
Y9899D01*
X33150*
Y10099*
X33300*
G37*
G36*
X33550D02*
Y9899D01*
X33400*
Y10099*
X33550*
G37*
G36*
X18800Y9775D02*
Y10225D01*
X19000*
Y9775*
X18800*
G37*
G36*
X17887Y10787D02*
X17687Y10788D01*
X17700Y14500*
X17900*
X17887Y10787*
G37*
G36*
X57749Y9661D02*
X57949D01*
Y9511*
X57749*
Y9661*
G37*
G36*
Y9911D02*
X57949D01*
Y9761*
X57749*
Y9911*
G37*
G36*
X58600Y10100D02*
Y9900D01*
X58450*
Y10100*
X58600*
G37*
G36*
X58850D02*
Y9900D01*
X58700*
Y10100*
X58850*
G37*
G36*
X34251Y10339D02*
X34051D01*
Y10489*
X34251*
Y10339*
G37*
G36*
Y10089D02*
X34051D01*
Y10239*
X34251*
Y10089*
G37*
G36*
X16150Y9901D02*
Y10101D01*
X16300*
Y9901*
X16150*
G37*
G36*
X15900D02*
Y10101D01*
X16050*
Y9901*
X15900*
G37*
G36*
X11025Y9880D02*
Y10080D01*
X11175*
Y9880*
X11025*
G37*
G36*
X10775D02*
Y10080D01*
X10925*
Y9880*
X10775*
G37*
G36*
X10125Y9900D02*
Y10100D01*
X10275*
Y9900*
X10125*
G37*
G36*
X9875D02*
Y10100D01*
X10025*
Y9900*
X9875*
G37*
G36*
X11925D02*
Y10100D01*
X12075*
Y9900*
X11925*
G37*
G36*
X11675D02*
Y10100D01*
X11825*
Y9900*
X11675*
G37*
G36*
X12820D02*
Y10100D01*
X12970*
Y9900*
X12820*
G37*
G36*
X12570D02*
Y10100D01*
X12720*
Y9900*
X12570*
G37*
G36*
X9049Y9661D02*
X9249D01*
Y9511*
X9049*
Y9661*
G37*
G36*
Y9911D02*
X9249D01*
Y9761*
X9049*
Y9911*
G37*
G36*
X67300Y10220D02*
Y10020D01*
X67150*
Y10220*
X67300*
G37*
G36*
X67550D02*
Y10020D01*
X67400*
Y10220*
X67550*
G37*
G36*
X68901Y10097D02*
Y9897D01*
X68751*
Y10097*
X68901*
G37*
G36*
X69151D02*
Y9897D01*
X69001*
Y10097*
X69151*
G37*
G36*
X68120Y9660D02*
X68320D01*
Y9510*
X68120*
Y9660*
G37*
G36*
Y9910D02*
X68320D01*
Y9760*
X68120*
Y9910*
G37*
G36*
Y10220D02*
X68320D01*
Y10070*
X68120*
Y10220*
G37*
G36*
Y10470D02*
X68320D01*
Y10320*
X68120*
Y10470*
G37*
G36*
X67400Y9800D02*
Y10000D01*
X67550*
Y9800*
X67400*
G37*
G36*
X67150D02*
Y10000D01*
X67300*
Y9800*
X67150*
G37*
G54D63*
X74995Y0D03*
X5D03*
G54D43*
X74995Y0D02*
X5D01*
G54D63*
X0Y0D03*
Y19995D03*
G54D43*
X0Y0D02*
Y19995D01*
G54D63*
X5Y20000D03*
X74995D03*
G54D43*
X5Y20000D02*
X74995D01*
G54D63*
X75000Y20000D03*
Y5D03*
G54D43*
X75000Y20000D02*
Y5D01*
M02*