%FSLAX34Y34*%
%MOIN*%
%ADD200C,0.000591*%
%ADD201C,0.000315*%
%ADD202C,0.000787*%
%ADD203C,0.003543*%
%ADD204C,0.000984*%
%ADD205C,0.000394*%
%ADD206C,0.001181*%
G54D200*
X56969Y39764D03*
X55472Y38228D03*
X56929Y38228D03*
X45276Y14961D03*
X55433Y39764D03*
X188701Y39724D03*
X190236Y38228D03*
X188701Y38189D03*
X192677Y44803D03*
X193504Y14016D03*
X205315Y13937D03*
X190197Y41732D03*
X190197Y39764D03*
G54D201*
X53465Y40354D03*
X58858Y40354D03*
X58819Y38583D03*
X53425Y38465D03*
X111772Y40906D03*
X108701Y40906D03*
X108701Y37835D03*
X110236Y39370D03*
X110236Y37835D03*
X111772Y37835D03*
X238543Y40906D03*
X235472Y40906D03*
X235472Y37835D03*
X237008Y39370D03*
X237008Y37835D03*
X238543Y37835D03*
X14134Y40945D03*
X11063Y40945D03*
X11063Y37835D03*
X12598Y39409D03*
X12598Y37835D03*
X14134Y37835D03*
X186811Y40354D03*
X186811Y38543D03*
X71575Y40906D03*
X68465Y40906D03*
X68465Y37835D03*
X70039Y39370D03*
X70039Y37835D03*
X71575Y37835D03*
X146024Y40906D03*
X142953Y40906D03*
X142953Y37835D03*
X144488Y39370D03*
X144488Y37835D03*
X146024Y37835D03*
X192205Y40354D03*
X192165Y38543D03*
X205079Y40906D03*
X202008Y40906D03*
X202008Y37835D03*
X203543Y39370D03*
X203543Y37835D03*
X205079Y37835D03*
G54D202*
X57874Y12598D03*
X129528Y4921D03*
X130236Y20945D03*
X208543Y73346D03*
X70866Y4921D03*
X114409Y22362D03*
X183543Y13622D03*
X40945Y27362D03*
X95079Y2362D03*
X101772Y2362D03*
X180512Y1969D03*
X173819Y1969D03*
X180118Y76378D03*
X173819Y76378D03*
X101378Y76378D03*
X95079Y76378D03*
X133071Y29528D03*
X118110Y29528D03*
X148819Y29528D03*
X160630Y29528D03*
X227756Y21102D03*
X44882Y44488D03*
X41339Y34252D03*
X48425Y34252D03*
X256142Y19764D03*
X277165Y52362D03*
X51654Y46457D03*
X34331Y12598D03*
X89764Y9528D03*
X155512Y51890D03*
X166142Y65394D03*
X31732Y52126D03*
X23622Y65906D03*
X80630Y51890D03*
X74409Y70000D03*
X121260Y65827D03*
X118740Y54488D03*
X121181Y51890D03*
X219843Y61654D03*
X249055Y65906D03*
X222480Y52165D03*
X256929Y52047D03*
X223858Y20787D03*
X215276Y24724D03*
X213150Y11102D03*
X36024Y21102D03*
X146378Y3701D03*
X158504Y26614D03*
X148976Y19606D03*
X134449Y57638D03*
X59921Y11496D03*
G54D203*
X3937Y45276D03*
X3937Y33465D03*
X3937Y3937D03*
X43307Y3937D03*
X177165Y49213D03*
X177165Y29528D03*
X3937Y60236D03*
X3937Y18504D03*
X153543Y3937D03*
X192913Y3937D03*
X291339Y3937D03*
X291339Y18504D03*
X291339Y33465D03*
X291339Y45276D03*
X291339Y60236D03*
X291339Y74803D03*
X244094Y74803D03*
X244094Y3937D03*
X98425Y29528D03*
X43307Y74803D03*
X192913Y74803D03*
X3937Y74803D03*
X82677Y3937D03*
X122047Y3937D03*
X82677Y74803D03*
X98425Y49213D03*
X153543Y74803D03*
X122047Y74803D03*
G54D204*
X270079Y9449D03*
X277953Y15157D03*
X40000Y62677D03*
X66142Y46457D03*
X140709Y45669D03*
X8268Y47638D03*
X106378Y46063D03*
X258583Y62598D03*
X232913Y47559D03*
X199291Y45984D03*
G54D205*
X56929Y41890D03*
X267165Y41496D03*
X267638Y37087D03*
X270157Y37087D03*
X268661Y41654D03*
X270157Y41496D03*
X268898Y37087D03*
G54D206*
X271654Y51969D03*
M02*
