M48
;Layer_Color=9474304
;FILE_FORMAT=2:3
INCH,LZ
;TYPE=PLATED
T1F00S00C0.010
T2F00S00C0.090
%
T01
X00198Y-00653
X00243Y-00667
X00282
X00322
X00362
X00365Y-00733
X00325
X00285
X00245
X00198Y-00745
X00418Y-00738
X00477Y-00734
X00519
X00522Y-00784
X00541Y-00826
X00586
X00634
X00673Y-00813
X00695Y-00722
X00674Y-00686
Y-00643
X00723
X0077
X00769Y-00572
X00723Y-00576
X00672Y-00578
X00668Y-00532
X00624Y-00507
X00582Y-00511
X00577Y-00568
X00611
Y-00602
Y-00636
Y-0067
X00577
X00543
X00509
Y-00636
Y-00602
Y-00568
X00543
Y-00602
X00577
Y-00636
X00543
X00446Y-00619
Y-00579
Y-00534
X00478Y-0051
X00424Y-00496
X00393Y-0046
X00396Y-00609
X00448Y-00683
X00734Y-00746
X00749Y-00854
X00772Y-00487
X00708Y-00452
X00607Y-00467
X0083Y-00476
X00842Y-00533
X00817Y-00574
X0082Y-00643
X00874Y-00645
X0092Y-00668
Y-00615
X00938Y-00597
X0092Y-00579
X00956
Y-00615
X00998Y-00643
X01041Y-00649
X0107Y-00688
X0104Y-00725
X00978Y-00673
X01033Y-00574
X01073Y-00561
X01107Y-00581
X01139Y-0058
Y-0054
X01141Y-00624
X01102
X01139Y-00682
X01202Y-00672
X01236
Y-00638
X0127
Y-00604
X01236
Y-0057
X0127
X01304
Y-00604
Y-00638
Y-00672
X0127
X0123Y-00729
X01202Y-00739
X01171Y-00737
X0117Y-0077
Y-00802
X01195Y-00833
X01236Y-008
X01293Y-00798
X01287Y-00833
X01295Y-00905
X01248
X01189
X01134Y-00877
X01091Y-00838
X01018Y-00836
X00984Y-00886
X00924Y-00857
X00857Y-00881
X01345Y-00879
X01368Y-00813
X01398Y-00776
Y-00733
X01363Y-00725
X01365Y-00683
X01366Y-00643
X01408Y-00645
X01413Y-00692
X01446Y-00714
X015Y-00747
X01557
X01617
Y-00682
X01557
X015Y-00679
X01474Y-00644
X01475Y-00603
X01454Y-00577
X01409Y-00582
X01363Y-00583
X01352Y-00536
X01312Y-0051
X01272Y-00511
X01294Y-00455
X01413Y-00444
X0151Y-00443
X01509Y-00483
X01202Y-0057
Y-00604
Y-00638
X01054Y-0052
Y-00478
Y-00439
X011Y-00467
X01054Y-00403
X01052Y-00355
X01061Y-00305
X01036Y-0026
X00971Y-00254
X00911Y-00253
X00845Y-00254
X00863Y-00331
X00911
X00958
X01009Y-0033
X01105Y-00274
X01161Y-00277
X01217Y-00275
X01258Y-00296
X01307Y-00295
X01355Y-00296
X01386Y-00332
X01358Y-00369
X01307Y-0037
X0124Y-00371
X01184Y-0037
X01211Y-00408
X01156
X01273Y-00413
X01497Y-00381
X00833Y-00363
X00832Y-00418
X00702Y-00386
X00666Y-00356
X00687Y-0031
X00666Y-00276
X0063Y-00295
X00572
X00522Y-00283
X00463
X004Y-00284
X00376Y-00334
X00375Y-00408
X00454Y-00413
X00518Y-00403
X00567
X00607Y-00427
X00611Y-00374
X00738Y-00328
X0071Y-0026
X00772Y-00251
T02
X00259Y-00567
X00258Y-00845
X01558
X01559Y-00565
Y-00287
X00258Y-00286
M30
