G04*
G04 #@! TF.GenerationSoftware,Altium Limited,Altium Designer,24.9.1 (31)*
G04*
G04 Layer_Color=65535*
%FSLAX44Y44*%
%MOMM*%
G71*
G04*
G04 #@! TF.SameCoordinates,E9E1D246-21B5-4CF0-A3F4-6B989E9CA9DD*
G04*
G04*
G04 #@! TF.FilePolarity,Positive*
G04*
G01*
G75*
%ADD10C,0.2000*%
%ADD11C,0.1000*%
%ADD12C,0.1800*%
D10*
X68000Y396000D02*
G03*
X70000Y396000I1000J0D01*
G01*
D02*
G03*
X68000Y396000I-1000J0D01*
G01*
X234000Y149000D02*
G03*
X236000Y149000I1000J0D01*
G01*
D02*
G03*
X234000Y149000I-1000J0D01*
G01*
X72000Y223000D02*
G03*
X70000Y223000I-1000J0D01*
G01*
D02*
G03*
X72000Y223000I1000J0D01*
G01*
X208000Y112000D02*
G03*
X208000Y114000I0J1000D01*
G01*
D02*
G03*
X208000Y112000I0J-1000D01*
G01*
X200000Y263750D02*
G03*
X198000Y263750I-1000J0D01*
G01*
D02*
G03*
X200000Y263750I1000J0D01*
G01*
X234000Y396000D02*
G03*
X236000Y396000I1000J0D01*
G01*
D02*
G03*
X234000Y396000I-1000J0D01*
G01*
X104000Y314000D02*
G03*
X106000Y314000I1000J0D01*
G01*
D02*
G03*
X104000Y314000I-1000J0D01*
G01*
X179700Y173000D02*
G03*
X179700Y173000I-500J0D01*
G01*
X255300Y358600D02*
Y410950D01*
X282700D01*
Y331650D02*
Y410950D01*
X269000Y331650D02*
X282700D01*
X255300Y112000D02*
Y164350D01*
X282700D01*
Y85050D02*
Y164350D01*
X269000Y85050D02*
X282700D01*
X21300Y358600D02*
Y410950D01*
X48700D01*
Y331650D02*
Y410950D01*
X35000Y331650D02*
X48700D01*
X21300Y235000D02*
Y287350D01*
X48700D01*
Y208050D02*
Y287350D01*
X35000Y208050D02*
X48700D01*
X21300Y112000D02*
Y164350D01*
X48700D01*
Y85050D02*
Y164350D01*
X35000Y85050D02*
X48700D01*
X75250Y369000D02*
Y373000D01*
X62750Y369000D02*
Y373000D01*
X241250Y122000D02*
Y126000D01*
X228750Y122000D02*
Y126000D01*
X64750Y246000D02*
Y250000D01*
X77250Y246000D02*
Y250000D01*
X112000Y97750D02*
X168000D01*
X112000Y128250D02*
X168000D01*
X185380Y169000D02*
Y221000D01*
X212620Y169000D02*
Y224250D01*
X115250Y387500D02*
X130000D01*
X133500Y357000D02*
Y387000D01*
Y357000D02*
X170500D01*
Y387000D01*
X133500D02*
X170500D01*
X192750Y286750D02*
Y290750D01*
X205250Y286750D02*
Y290750D01*
X241250Y369000D02*
Y373000D01*
X228750Y369000D02*
Y373000D01*
X111250Y287000D02*
Y291000D01*
X98750Y287000D02*
Y291000D01*
X17997Y402990D02*
X11999D01*
Y398991D01*
X17997Y392993D02*
Y396992D01*
X11999D01*
Y392993D01*
X14998Y396992D02*
Y394992D01*
X17997Y390994D02*
X11999D01*
Y387995D01*
X12999Y386995D01*
X16998D01*
X17997Y387995D01*
Y390994D01*
Y378998D02*
Y376998D01*
Y377998D01*
X11999D01*
Y378998D01*
Y376998D01*
Y373999D02*
X15998D01*
Y371000D01*
X14998Y370001D01*
X11999D01*
X10000Y368001D02*
X15998D01*
Y365002D01*
X14998Y364002D01*
X12999D01*
X11999Y365002D01*
Y368001D01*
X15998Y362003D02*
X12999D01*
X11999Y361003D01*
Y358004D01*
X15998D01*
X16998Y355005D02*
X15998D01*
Y356005D01*
Y354006D01*
Y355005D01*
X12999D01*
X11999Y354006D01*
Y341010D02*
Y345009D01*
X15998Y341010D01*
X16998D01*
X17997Y342010D01*
Y344009D01*
X16998Y345009D01*
X10000Y140995D02*
Y138995D01*
Y139995D01*
X15998D01*
X14998Y140995D01*
X10000Y131998D02*
Y135996D01*
X13999Y131998D01*
X14998D01*
X15998Y132997D01*
Y134997D01*
X14998Y135996D01*
X15998Y129998D02*
X11999D01*
X10000Y127999D01*
X11999Y126000D01*
X15998D01*
Y118002D02*
Y116003D01*
Y117003D01*
X10000D01*
Y118002D01*
Y116003D01*
Y113004D02*
X15998D01*
X10000Y109005D01*
X15998D01*
X17997Y277990D02*
X11999D01*
Y273992D01*
X17997Y267994D02*
Y271992D01*
X11999D01*
Y267994D01*
X14998Y271992D02*
Y269993D01*
X17997Y265994D02*
X11999D01*
Y262995D01*
X12999Y261996D01*
X16998D01*
X17997Y262995D01*
Y265994D01*
Y253998D02*
Y251999D01*
Y252998D01*
X11999D01*
Y253998D01*
Y251999D01*
Y249000D02*
X15998D01*
Y246001D01*
X14998Y245001D01*
X11999D01*
X10000Y243002D02*
X15998D01*
Y240003D01*
X14998Y239003D01*
X12999D01*
X11999Y240003D01*
Y243002D01*
X15998Y237004D02*
X12999D01*
X11999Y236004D01*
Y233005D01*
X15998D01*
X16998Y230006D02*
X15998D01*
Y231005D01*
Y229006D01*
Y230006D01*
X12999D01*
X11999Y229006D01*
Y220009D02*
Y218010D01*
Y219009D01*
X17997D01*
X16998Y220009D01*
X82689Y480000D02*
Y487997D01*
X86688D01*
X88021Y486665D01*
Y483999D01*
X86688Y482666D01*
X82689D01*
X85355D02*
X88021Y480000D01*
X96018Y487997D02*
X90687D01*
Y483999D01*
X93352D01*
X90687D01*
Y480000D01*
X100017D02*
X102683D01*
X104016Y481333D01*
Y483999D01*
X102683Y485332D01*
X100017D01*
X98684Y483999D01*
Y481333D01*
X100017Y480000D01*
X112013Y487997D02*
X106681D01*
Y483999D01*
X109347D01*
X106681D01*
Y480000D01*
X122676Y487997D02*
Y480000D01*
X128008D01*
X136005Y487997D02*
X130674D01*
Y480000D01*
X136005D01*
X130674Y483999D02*
X133339D01*
X138671Y487997D02*
Y480000D01*
X142670D01*
X144003Y481333D01*
Y486665D01*
X142670Y487997D01*
X138671D01*
X159997Y486665D02*
X158665Y487997D01*
X155999D01*
X154666Y486665D01*
Y481333D01*
X155999Y480000D01*
X158665D01*
X159997Y481333D01*
X163996Y480000D02*
X166662D01*
X167995Y481333D01*
Y483999D01*
X166662Y485332D01*
X163996D01*
X162663Y483999D01*
Y481333D01*
X163996Y480000D01*
X170661D02*
Y485332D01*
X174659D01*
X175992Y483999D01*
Y480000D01*
X178658Y485332D02*
X181324Y480000D01*
X183990Y485332D01*
X190654Y480000D02*
X187988D01*
X186656Y481333D01*
Y483999D01*
X187988Y485332D01*
X190654D01*
X191987Y483999D01*
Y482666D01*
X186656D01*
X194653Y485332D02*
Y480000D01*
Y482666D01*
X195986Y483999D01*
X197319Y485332D01*
X198652D01*
X203983Y486665D02*
Y485332D01*
X202650D01*
X205316D01*
X203983D01*
Y481333D01*
X205316Y480000D01*
X213314D02*
X210648D01*
X209315Y481333D01*
Y483999D01*
X210648Y485332D01*
X213314D01*
X214646Y483999D01*
Y482666D01*
X209315D01*
X217312Y485332D02*
Y480000D01*
Y482666D01*
X218645Y483999D01*
X219978Y485332D01*
X221311D01*
X146036Y11997D02*
Y5999D01*
X149035D01*
X150034Y6999D01*
Y10998D01*
X149035Y11997D01*
X146036D01*
X155033Y5999D02*
X153033D01*
X152034Y6999D01*
Y8998D01*
X153033Y9998D01*
X155033D01*
X156032Y8998D01*
Y7999D01*
X152034D01*
X158032Y5999D02*
X161031D01*
X162031Y6999D01*
X161031Y7999D01*
X159031D01*
X158032Y8998D01*
X159031Y9998D01*
X162031D01*
X164030Y5999D02*
X166029D01*
X165030D01*
Y9998D01*
X164030D01*
X171028Y4000D02*
X172027D01*
X173027Y5000D01*
Y9998D01*
X170028D01*
X169028Y8998D01*
Y6999D01*
X170028Y5999D01*
X173027D01*
X175026D02*
Y9998D01*
X178025D01*
X179025Y8998D01*
Y5999D01*
X184023D02*
X182024D01*
X181024Y6999D01*
Y8998D01*
X182024Y9998D01*
X184023D01*
X185023Y8998D01*
Y7999D01*
X181024D01*
X191021Y11997D02*
Y5999D01*
X188022D01*
X187022Y6999D01*
Y8998D01*
X188022Y9998D01*
X191021D01*
X199018Y11997D02*
Y5999D01*
X202017D01*
X203017Y6999D01*
Y7999D01*
Y8998D01*
X202017Y9998D01*
X199018D01*
X205016D02*
Y6999D01*
X206016Y5999D01*
X209015D01*
Y5000D01*
X208016Y4000D01*
X207016D01*
X209015Y5999D02*
Y9998D01*
X221011Y10998D02*
X220012Y11997D01*
X218012D01*
X217013Y10998D01*
Y6999D01*
X218012Y5999D01*
X220012D01*
X221011Y6999D01*
X223011Y5999D02*
Y6999D01*
X224010D01*
Y5999D01*
X223011D01*
X234007D02*
Y11997D01*
X237006D01*
X238006Y10998D01*
Y8998D01*
X237006Y7999D01*
X234007D01*
X236007D02*
X238006Y5999D01*
X240005Y9998D02*
Y6999D01*
X241005Y5999D01*
X244004D01*
Y9998D01*
X246003Y5999D02*
X249002D01*
X250002Y6999D01*
X249002Y7999D01*
X247003D01*
X246003Y8998D01*
X247003Y9998D01*
X250002D01*
X252001Y11997D02*
Y5999D01*
Y8998D01*
X253001Y9998D01*
X255000D01*
X256000Y8998D01*
Y5999D01*
X286003Y338011D02*
X292001D01*
Y342010D01*
X286003Y348008D02*
Y344009D01*
X292001D01*
Y348008D01*
X289002Y344009D02*
Y346008D01*
X286003Y350007D02*
X292001D01*
Y353006D01*
X291001Y354006D01*
X287002D01*
X286003Y353006D01*
Y350007D01*
Y365002D02*
Y363003D01*
X287002Y362003D01*
X291001D01*
X292001Y363003D01*
Y365002D01*
X291001Y366002D01*
X287002D01*
X286003Y365002D01*
X288002Y368001D02*
X291001D01*
X292001Y369001D01*
Y372000D01*
X288002D01*
X287002Y374999D02*
X288002D01*
Y373999D01*
Y375999D01*
Y374999D01*
X291001D01*
X292001Y375999D01*
X294000Y378998D02*
X288002D01*
Y381997D01*
X289002Y382996D01*
X291001D01*
X292001Y381997D01*
Y378998D01*
X288002Y384996D02*
X291001D01*
X292001Y385995D01*
Y388994D01*
X288002D01*
X287002Y391993D02*
X288002D01*
Y390994D01*
Y392993D01*
Y391993D01*
X291001D01*
X292001Y392993D01*
Y405989D02*
Y401990D01*
X288002Y405989D01*
X287002D01*
X286003Y404989D01*
Y402990D01*
X287002Y401990D01*
X286003Y92011D02*
X292001D01*
Y96010D01*
X286003Y102008D02*
Y98009D01*
X292001D01*
Y102008D01*
X289002Y98009D02*
Y100008D01*
X286003Y104007D02*
X292001D01*
Y107006D01*
X291001Y108006D01*
X287002D01*
X286003Y107006D01*
Y104007D01*
Y119002D02*
Y117003D01*
X287002Y116003D01*
X291001D01*
X292001Y117003D01*
Y119002D01*
X291001Y120002D01*
X287002D01*
X286003Y119002D01*
X288002Y122001D02*
X291001D01*
X292001Y123001D01*
Y126000D01*
X288002D01*
X287002Y128999D02*
X288002D01*
Y127999D01*
Y129999D01*
Y128999D01*
X291001D01*
X292001Y129999D01*
X294000Y132998D02*
X288002D01*
Y135997D01*
X289002Y136996D01*
X291001D01*
X292001Y135997D01*
Y132998D01*
X288002Y138996D02*
X291001D01*
X292001Y139995D01*
Y142994D01*
X288002D01*
X287002Y145993D02*
X288002D01*
Y144994D01*
Y146993D01*
Y145993D01*
X291001D01*
X292001Y146993D01*
Y155990D02*
Y157989D01*
Y156990D01*
X286003D01*
X287002Y155990D01*
D11*
X95500Y151500D02*
X168500D01*
X95500Y194500D02*
X168500D01*
D12*
X261667Y421599D02*
X259001D01*
X260334D01*
Y414934D01*
X259001Y413601D01*
X257668D01*
X256336Y414934D01*
X269664Y421599D02*
X264333D01*
Y417600D01*
X266999Y418933D01*
X268332D01*
X269664Y417600D01*
Y414934D01*
X268332Y413601D01*
X265666D01*
X264333Y414934D01*
X261667Y175399D02*
X259001D01*
X260334D01*
Y168734D01*
X259001Y167401D01*
X257668D01*
X256336Y168734D01*
X268332Y167401D02*
Y175399D01*
X264333Y171400D01*
X269664D01*
X27667Y421999D02*
X25001D01*
X26334D01*
Y415334D01*
X25001Y414001D01*
X23668D01*
X22336Y415334D01*
X30333Y420666D02*
X31666Y421999D01*
X34332D01*
X35665Y420666D01*
Y419333D01*
X34332Y418000D01*
X32999D01*
X34332D01*
X35665Y416667D01*
Y415334D01*
X34332Y414001D01*
X31666D01*
X30333Y415334D01*
X27667Y297999D02*
X25001D01*
X26334D01*
Y291334D01*
X25001Y290001D01*
X23668D01*
X22336Y291334D01*
X35665Y290001D02*
X30333D01*
X35665Y295333D01*
Y296666D01*
X34332Y297999D01*
X31666D01*
X30333Y296666D01*
X28000Y174999D02*
X25334D01*
X26667D01*
Y168334D01*
X25334Y167001D01*
X24001D01*
X22668Y168334D01*
X30666Y167001D02*
X33332D01*
X31999D01*
Y174999D01*
X30666Y173666D01*
X62336Y404001D02*
Y411999D01*
X66334D01*
X67667Y410666D01*
Y408000D01*
X66334Y406667D01*
X62336D01*
X65001D02*
X67667Y404001D01*
X74332D02*
Y411999D01*
X70333Y408000D01*
X75665D01*
X228335Y93001D02*
Y100999D01*
X232334D01*
X233667Y99666D01*
Y97000D01*
X232334Y95667D01*
X228335D01*
X231001D02*
X233667Y93001D01*
X241665Y100999D02*
X236333D01*
Y97000D01*
X238999Y98333D01*
X240332D01*
X241665Y97000D01*
Y94334D01*
X240332Y93001D01*
X237666D01*
X236333Y94334D01*
X83336Y244001D02*
Y251999D01*
X87334D01*
X88667Y250666D01*
Y248000D01*
X87334Y246667D01*
X83336D01*
X86001D02*
X88667Y244001D01*
X91333Y250666D02*
X92666Y251999D01*
X95332D01*
X96664Y250666D01*
Y249333D01*
X95332Y248000D01*
X93999D01*
X95332D01*
X96664Y246667D01*
Y245334D01*
X95332Y244001D01*
X92666D01*
X91333Y245334D01*
X139000Y82999D02*
X133668D01*
Y79000D01*
X136334D01*
X133668D01*
Y75001D01*
X141666D02*
X144332D01*
X142999D01*
Y82999D01*
X141666Y81666D01*
X216668Y202999D02*
Y195001D01*
X220667D01*
X222000Y196334D01*
Y201666D01*
X220667Y202999D01*
X216668D01*
X224666Y195001D02*
X227332D01*
X225999D01*
Y202999D01*
X224666Y201666D01*
X152000Y418666D02*
X150667Y419999D01*
X148001D01*
X146668Y418666D01*
Y413334D01*
X148001Y412001D01*
X150667D01*
X152000Y413334D01*
X154666Y412001D02*
X157332D01*
X155999D01*
Y419999D01*
X154666Y418666D01*
X134668Y353999D02*
Y346001D01*
X138667D01*
X140000Y347334D01*
Y348667D01*
X138667Y350000D01*
X134668D01*
X138667D01*
X140000Y351333D01*
Y352666D01*
X138667Y353999D01*
X134668D01*
X142666Y346001D02*
X145332D01*
X143999D01*
Y353999D01*
X142666Y352666D01*
X211668Y285001D02*
Y292999D01*
X215667D01*
X217000Y291666D01*
Y289000D01*
X215667Y287667D01*
X211668D01*
X214334D02*
X217000Y285001D01*
X219666D02*
X222332D01*
X220999D01*
Y292999D01*
X219666Y291666D01*
X228335Y340001D02*
Y347999D01*
X232334D01*
X233667Y346666D01*
Y344000D01*
X232334Y342667D01*
X228335D01*
X231001D02*
X233667Y340001D01*
X241665Y347999D02*
X238999Y346666D01*
X236333Y344000D01*
Y341334D01*
X237666Y340001D01*
X240332D01*
X241665Y341334D01*
Y342667D01*
X240332Y344000D01*
X236333D01*
X117336Y285001D02*
Y292999D01*
X121334D01*
X122667Y291666D01*
Y289000D01*
X121334Y287667D01*
X117336D01*
X120001D02*
X122667Y285001D01*
X130665D02*
X125333D01*
X130665Y290333D01*
Y291666D01*
X129332Y292999D01*
X126666D01*
X125333Y291666D01*
X131667Y213666D02*
X130334Y214999D01*
X127668D01*
X126335Y213666D01*
Y208334D01*
X127668Y207001D01*
X130334D01*
X131667Y208334D01*
X139664Y207001D02*
X134333D01*
X139664Y212333D01*
Y213666D01*
X138332Y214999D01*
X135666D01*
X134333Y213666D01*
M02*
