G04*
G04 #@! TF.GenerationSoftware,Altium Limited,Altium Designer,26.3.0 (6)*
G04*
G04 Layer_Color=8388736*
%FSLAX44Y44*%
%MOMM*%
G71*
G04*
G04 #@! TF.SameCoordinates,8E864A74-D1D2-490B-8332-24043535647A*
G04*
G04*
G04 #@! TF.FilePolarity,Negative*
G04*
G01*
G75*
%ADD19R,1.3532X1.3532*%
%ADD20R,3.4532X3.6332*%
%ADD21R,1.7532X2.5532*%
%ADD22R,1.1632X1.5932*%
%ADD23R,1.6782X0.6532*%
%ADD24R,2.5732X2.6332*%
%ADD25R,1.7782X1.7782*%
%ADD26C,1.7782*%
%ADD27C,0.8032*%
%ADD28C,4.1032*%
D19*
X105000Y300750D02*
D03*
Y277250D02*
D03*
X199000Y277000D02*
D03*
Y300500D02*
D03*
X69000Y382750D02*
D03*
Y359250D02*
D03*
X235000Y112250D02*
D03*
Y135750D02*
D03*
X71000Y259750D02*
D03*
Y236250D02*
D03*
X235000Y359250D02*
D03*
Y382750D02*
D03*
D20*
X186750Y113000D02*
D03*
X93250D02*
D03*
D21*
X199000Y173500D02*
D03*
Y216500D02*
D03*
D22*
X143900Y401000D02*
D03*
X160100D02*
D03*
D23*
X181380Y381750D02*
D03*
Y375250D02*
D03*
Y368750D02*
D03*
Y362250D02*
D03*
X122620D02*
D03*
Y368750D02*
D03*
Y375250D02*
D03*
Y381750D02*
D03*
D24*
X163200Y173000D02*
D03*
X100800D02*
D03*
D25*
X35000Y358600D02*
D03*
X269000D02*
D03*
Y112000D02*
D03*
X35000Y235000D02*
D03*
Y112000D02*
D03*
D26*
X269000Y384000D02*
D03*
Y137400D02*
D03*
X35000Y384000D02*
D03*
Y260400D02*
D03*
Y137400D02*
D03*
D27*
X182000Y354000D02*
D03*
X235000Y156000D02*
D03*
X184000Y301000D02*
D03*
X95000Y375000D02*
D03*
X105000Y317000D02*
D03*
X119000Y301000D02*
D03*
X165000Y471000D02*
D03*
X123000Y401000D02*
D03*
X69000Y25000D02*
D03*
X93000D02*
D03*
X117000D02*
D03*
X141000D02*
D03*
X165000D02*
D03*
X189000D02*
D03*
X213000D02*
D03*
X237000D02*
D03*
X279000Y68000D02*
D03*
Y191000D02*
D03*
Y215000D02*
D03*
Y239000D02*
D03*
Y260000D02*
D03*
Y284000D02*
D03*
Y308000D02*
D03*
Y429000D02*
D03*
X237000Y471000D02*
D03*
X213000D02*
D03*
X189000D02*
D03*
X141000D02*
D03*
X117000D02*
D03*
X93000D02*
D03*
X69000D02*
D03*
X85000Y384000D02*
D03*
D28*
X25000Y471000D02*
D03*
X279000D02*
D03*
Y25000D02*
D03*
X25000D02*
D03*
M02*
