%TF.GenerationSoftware,KiCad,Pcbnew,8.0.6*%
%TF.CreationDate,2024-11-13T20:54:41-08:00*%
%TF.ProjectId,Voltage_Regulator_for_ZX60-14LN-S+,566f6c74-6167-4655-9f52-6567756c6174,rev?*%
%TF.SameCoordinates,Original*%
%TF.FileFunction,Copper,L1,Top*%
%TF.FilePolarity,Positive*%
%FSLAX46Y46*%
G04 Gerber Fmt 4.6, Leading zero omitted, Abs format (unit mm)*
G04 Created by KiCad (PCBNEW 8.0.6) date 2024-11-13 20:54:41*
%MOMM*%
%LPD*%
G01*
G04 APERTURE LIST*
G04 Aperture macros list*
%AMRoundRect*
0 Rectangle with rounded corners*
0 $1 Rounding radius*
0 $2 $3 $4 $5 $6 $7 $8 $9 X,Y pos of 4 corners*
0 Add a 4 corners polygon primitive as box body*
4,1,4,$2,$3,$4,$5,$6,$7,$8,$9,$2,$3,0*
0 Add four circle primitives for the rounded corners*
1,1,$1+$1,$2,$3*
1,1,$1+$1,$4,$5*
1,1,$1+$1,$6,$7*
1,1,$1+$1,$8,$9*
0 Add four rect primitives between the rounded corners*
20,1,$1+$1,$2,$3,$4,$5,0*
20,1,$1+$1,$4,$5,$6,$7,0*
20,1,$1+$1,$6,$7,$8,$9,0*
20,1,$1+$1,$8,$9,$2,$3,0*%
G04 Aperture macros list end*
%TA.AperFunction,SMDPad,CuDef*%
%ADD10R,2.350000X1.550000*%
%TD*%
%TA.AperFunction,SMDPad,CuDef*%
%ADD11R,1.390000X0.910000*%
%TD*%
%TA.AperFunction,SMDPad,CuDef*%
%ADD12R,2.920000X1.270000*%
%TD*%
%TA.AperFunction,ComponentPad*%
%ADD13C,2.910000*%
%TD*%
%TA.AperFunction,ComponentPad*%
%ADD14R,1.890000X1.890000*%
%TD*%
%TA.AperFunction,ComponentPad*%
%ADD15C,1.890000*%
%TD*%
%TA.AperFunction,SMDPad,CuDef*%
%ADD16R,2.370000X2.430000*%
%TD*%
%TA.AperFunction,SMDPad,CuDef*%
%ADD17R,4.241800X3.810000*%
%TD*%
%TA.AperFunction,SMDPad,CuDef*%
%ADD18RoundRect,0.250000X-0.450000X0.350000X-0.450000X-0.350000X0.450000X-0.350000X0.450000X0.350000X0*%
%TD*%
%TA.AperFunction,SMDPad,CuDef*%
%ADD19R,1.430000X0.940000*%
%TD*%
%TA.AperFunction,ComponentPad*%
%ADD20C,4.500000*%
%TD*%
%TA.AperFunction,ViaPad*%
%ADD21C,0.600000*%
%TD*%
%TA.AperFunction,Conductor*%
%ADD22C,0.800000*%
%TD*%
%TA.AperFunction,Conductor*%
%ADD23C,0.200000*%
%TD*%
G04 APERTURE END LIST*
D10*
%TO.P,D1,1*%
%TO.N,Net-(IC1-INPUT)*%
X150150000Y-93975000D03*
%TO.P,D1,2*%
%TO.N,Net-(D1-Pad2)*%
X145850000Y-93975000D03*
%TD*%
D11*
%TO.P,C2,1*%
%TO.N,Net-(IC1-INPUT)*%
X156500000Y-95820000D03*
%TO.P,C2,2*%
%TO.N,GND*%
X156500000Y-94180000D03*
%TD*%
D12*
%TO.P,J1,1,1*%
%TO.N,GND*%
X140500000Y-86650000D03*
%TO.P,J1,2,2*%
%TO.N,Net-(C1-Pad1)*%
X140500000Y-83650000D03*
D13*
%TO.P,J1,3,3*%
%TO.N,GND*%
X135030000Y-88800000D03*
%TO.P,J1,4,4*%
X135030000Y-81500000D03*
%TD*%
D14*
%TO.P,IC1,1,INPUT*%
%TO.N,Net-(IC1-INPUT)*%
X162450000Y-95760000D03*
D15*
%TO.P,IC1,2,COMMON*%
%TO.N,GND*%
X162450000Y-98300000D03*
%TO.P,IC1,3,OUTPUT*%
%TO.N,Net-(IC1-OUTPUT)*%
X162450000Y-100840000D03*
%TD*%
D16*
%TO.P,C1,1*%
%TO.N,Net-(C1-Pad1)*%
X146380000Y-82300000D03*
%TO.P,C1,2*%
%TO.N,GND*%
X152620000Y-82300000D03*
%TD*%
D17*
%TO.P,F1,1*%
%TO.N,Net-(C1-Pad1)*%
X146312300Y-88800000D03*
%TO.P,F1,2*%
%TO.N,Net-(D1-Pad2)*%
X152687700Y-88800000D03*
%TD*%
D18*
%TO.P,R2,1*%
%TO.N,Net-(IC1-OUTPUT)*%
X151500000Y-105000000D03*
%TO.P,R2,2*%
%TO.N,Net-(J3-Pad1)*%
X151500000Y-107000000D03*
%TD*%
D12*
%TO.P,J3,1,1*%
%TO.N,Net-(J3-Pad1)*%
X140500000Y-112800000D03*
%TO.P,J3,2,2*%
%TO.N,GND*%
X140500000Y-109800000D03*
D13*
%TO.P,J3,3,3*%
X135030000Y-114950000D03*
%TO.P,J3,4,4*%
X135030000Y-107650000D03*
%TD*%
D12*
%TO.P,J2,1,1*%
%TO.N,GND*%
X140500000Y-99725000D03*
%TO.P,J2,2,2*%
%TO.N,Net-(IC1-OUTPUT)*%
X140500000Y-96725000D03*
D13*
%TO.P,J2,3,3*%
%TO.N,GND*%
X135030000Y-101875000D03*
%TO.P,J2,4,4*%
X135030000Y-94575000D03*
%TD*%
D18*
%TO.P,R1,1*%
%TO.N,Net-(IC1-OUTPUT)*%
X145500000Y-98300000D03*
%TO.P,R1,2*%
%TO.N,GND*%
X145500000Y-100300000D03*
%TD*%
D19*
%TO.P,C3,1,1*%
%TO.N,Net-(IC1-OUTPUT)*%
X156500000Y-100835000D03*
%TO.P,C3,2,2*%
%TO.N,GND*%
X156500000Y-102475000D03*
%TD*%
D20*
%TO.P,U1,1,1*%
%TO.N,GND*%
X164259234Y-88821475D03*
%TO.P,U1,2,2*%
X164259234Y-107821475D03*
%TD*%
D21*
%TO.N,GND*%
X146500000Y-109500000D03*
X146500000Y-107500000D03*
X146500000Y-105500000D03*
X146500000Y-103500000D03*
X177000000Y-117000000D03*
X177000000Y-95235300D03*
X177000000Y-82176480D03*
X177000000Y-80000000D03*
X177000000Y-90882360D03*
X177000000Y-108294120D03*
X177000000Y-84352950D03*
X177000000Y-86529420D03*
X177000000Y-101764710D03*
X177000000Y-106117650D03*
X177000000Y-99588240D03*
X177000000Y-103941180D03*
X177000000Y-93058830D03*
X177000000Y-114823530D03*
X177000000Y-88705890D03*
X177000000Y-110470590D03*
X177000000Y-112647060D03*
X177000000Y-97411770D03*
X136000000Y-122000000D03*
X157764700Y-122000000D03*
X170823520Y-122000000D03*
X173000000Y-122000000D03*
X162117640Y-122000000D03*
X144705880Y-122000000D03*
X168647050Y-122000000D03*
X166470580Y-122000000D03*
X159941170Y-122000000D03*
X138176470Y-122000000D03*
X164294110Y-122000000D03*
X142529410Y-122000000D03*
X140352940Y-122000000D03*
X155588230Y-122000000D03*
X157264700Y-74500000D03*
X170323520Y-74500000D03*
X172500000Y-74500000D03*
X161617640Y-74500000D03*
X168147050Y-74500000D03*
X165970580Y-74500000D03*
X148558820Y-74500000D03*
X159441170Y-74500000D03*
X163794110Y-74500000D03*
X150735290Y-74500000D03*
X155088230Y-74500000D03*
X152911760Y-74500000D03*
X142029410Y-74500000D03*
X144205880Y-74500000D03*
X146382350Y-74500000D03*
X139852940Y-74500000D03*
X137676470Y-74500000D03*
X135500000Y-74500000D03*
%TD*%
D22*
%TO.N,Net-(C1-Pad1)*%
X142675000Y-83650000D02*
X146312300Y-87287300D01*
X140500000Y-82975000D02*
X141175000Y-82300000D01*
X140500000Y-83650000D02*
X142675000Y-83650000D01*
X146312300Y-87287300D02*
X146312300Y-88800000D01*
D23*
X146312300Y-88287300D02*
X146312300Y-88800000D01*
D22*
X141175000Y-82300000D02*
X146380000Y-82300000D01*
X140500000Y-83650000D02*
X140500000Y-82975000D01*
D23*
%TO.N,Net-(IC1-INPUT)*%
X158440000Y-95820000D02*
X158500000Y-95760000D01*
D22*
X162450000Y-95760000D02*
X162415000Y-95795000D01*
X151825000Y-93800000D02*
X150150000Y-93800000D01*
X153820000Y-95795000D02*
X151825000Y-93800000D01*
X162415000Y-95795000D02*
X153820000Y-95795000D01*
%TO.N,Net-(D1-Pad2)*%
X152687700Y-88800000D02*
X152687700Y-91287300D01*
X152000000Y-91975000D02*
X146500000Y-91975000D01*
X146500000Y-91975000D02*
X145850000Y-92625000D01*
X152687700Y-91287300D02*
X152000000Y-91975000D01*
X145850000Y-92625000D02*
X145850000Y-93800000D01*
%TO.N,Net-(IC1-OUTPUT)*%
X151500000Y-105000000D02*
X151500000Y-102500000D01*
X142750000Y-96725000D02*
X140500000Y-96725000D01*
X145500000Y-98125000D02*
X144150000Y-98125000D01*
X154505000Y-100840000D02*
X154500000Y-100835000D01*
X153085000Y-100835000D02*
X150375000Y-98125000D01*
X162450000Y-100840000D02*
X154505000Y-100840000D01*
X153335000Y-100835000D02*
X153085000Y-100835000D01*
X144150000Y-98125000D02*
X142750000Y-96725000D01*
X162445000Y-100835000D02*
X162450000Y-100840000D01*
X154500000Y-100835000D02*
X153165000Y-100835000D01*
X153165000Y-100835000D02*
X151500000Y-102500000D01*
X158000000Y-100835000D02*
X162445000Y-100835000D01*
X150375000Y-98125000D02*
X145500000Y-98125000D01*
%TO.N,Net-(J3-Pad1)*%
X151500000Y-109325000D02*
X151500000Y-107000000D01*
X148025000Y-112800000D02*
X140500000Y-112800000D01*
X151500000Y-109325000D02*
X148025000Y-112800000D01*
%TD*%
%TA.AperFunction,Conductor*%
%TO.N,GND*%
G36*
X181942539Y-70020185D02*
G01*
X181988294Y-70072989D01*
X181999500Y-70124500D01*
X181999500Y-126875500D01*
X181979815Y-126942539D01*
X181927011Y-126988294D01*
X181875500Y-126999500D01*
X128124500Y-126999500D01*
X128057461Y-126979815D01*
X128011706Y-126927011D01*
X128000500Y-126875500D01*
X128000500Y-121999998D01*
X130544518Y-121999998D01*
X130544518Y-122000001D01*
X130564422Y-122278299D01*
X130623727Y-122550916D01*
X130623729Y-122550923D01*
X130661027Y-122650923D01*
X130721231Y-122812338D01*
X130721233Y-122812342D01*
X130854940Y-123057207D01*
X130854945Y-123057215D01*
X131022138Y-123280560D01*
X131022154Y-123280578D01*
X131219421Y-123477845D01*
X131219439Y-123477861D01*
X131442784Y-123645054D01*
X131442792Y-123645059D01*
X131687657Y-123778766D01*
X131687661Y-123778768D01*
X131687663Y-123778769D01*
X131949077Y-123876271D01*
X132085391Y-123905924D01*
X132221700Y-123935577D01*
X132221702Y-123935577D01*
X132221706Y-123935578D01*
X132469014Y-123953265D01*
X132499999Y-123955482D01*
X132500000Y-123955482D01*
X132500001Y-123955482D01*
X132527881Y-123953487D01*
X132778294Y-123935578D01*
X133050923Y-123876271D01*
X133312337Y-123778769D01*
X133557213Y-123645056D01*
X133780568Y-123477855D01*
X133977855Y-123280568D01*
X134145056Y-123057213D01*
X134278769Y-122812337D01*
X134376271Y-122550923D01*
X134435578Y-122278294D01*
X134448330Y-122099998D01*
X175044518Y-122099998D01*
X175044518Y-122100001D01*
X175064422Y-122378299D01*
X175123727Y-122650916D01*
X175123729Y-122650923D01*
X175131366Y-122671398D01*
X175221231Y-122912338D01*
X175221233Y-122912342D01*
X175354940Y-123157207D01*
X175354945Y-123157215D01*
X175522138Y-123380560D01*
X175522154Y-123380578D01*
X175719421Y-123577845D01*
X175719439Y-123577861D01*
X175942784Y-123745054D01*
X175942792Y-123745059D01*
X176187657Y-123878766D01*
X176187661Y-123878768D01*
X176187663Y-123878769D01*
X176449077Y-123976271D01*
X176585391Y-124005924D01*
X176721700Y-124035577D01*
X176721702Y-124035577D01*
X176721706Y-124035578D01*
X176969014Y-124053265D01*
X176999999Y-124055482D01*
X177000000Y-124055482D01*
X177000001Y-124055482D01*
X177027881Y-124053487D01*
X177278294Y-124035578D01*
X177550923Y-123976271D01*
X177812337Y-123878769D01*
X178057213Y-123745056D01*
X178280568Y-123577855D01*
X178477855Y-123380568D01*
X178645056Y-123157213D01*
X178778769Y-122912337D01*
X178876271Y-122650923D01*
X178935578Y-122378294D01*
X178955482Y-122100000D01*
X178935578Y-121821706D01*
X178934067Y-121814762D01*
X178876272Y-121549083D01*
X178876271Y-121549077D01*
X178778769Y-121287663D01*
X178724161Y-121187657D01*
X178645059Y-121042792D01*
X178645054Y-121042784D01*
X178477861Y-120819439D01*
X178477845Y-120819421D01*
X178280578Y-120622154D01*
X178280560Y-120622138D01*
X178057215Y-120454945D01*
X178057207Y-120454940D01*
X177812342Y-120321233D01*
X177812338Y-120321231D01*
X177713230Y-120284266D01*
X177550923Y-120223729D01*
X177550919Y-120223728D01*
X177550916Y-120223727D01*
X177278299Y-120164422D01*
X177000001Y-120144518D01*
X176999999Y-120144518D01*
X176721700Y-120164422D01*
X176449083Y-120223727D01*
X176449078Y-120223728D01*
X176449077Y-120223729D01*
X176385875Y-120247301D01*
X176187661Y-120321231D01*
X176187657Y-120321233D01*
X175942792Y-120454940D01*
X175942784Y-120454945D01*
X175719439Y-120622138D01*
X175719421Y-120622154D01*
X175522154Y-120819421D01*
X175522138Y-120819439D01*
X175354945Y-121042784D01*
X175354940Y-121042792D01*
X175221233Y-121287657D01*
X175221231Y-121287661D01*
X175123727Y-121549083D01*
X175064422Y-121821700D01*
X175044518Y-122099998D01*
X134448330Y-122099998D01*
X134455482Y-122000000D01*
X134435578Y-121721706D01*
X134417073Y-121636642D01*
X134376272Y-121449083D01*
X134376271Y-121449077D01*
X134278769Y-121187663D01*
X134268438Y-121168744D01*
X134145059Y-120942792D01*
X134145054Y-120942784D01*
X133977861Y-120719439D01*
X133977845Y-120719421D01*
X133780578Y-120522154D01*
X133780560Y-120522138D01*
X133557215Y-120354945D01*
X133557207Y-120354940D01*
X133312342Y-120221233D01*
X133312338Y-120221231D01*
X133213230Y-120184266D01*
X133050923Y-120123729D01*
X133050919Y-120123728D01*
X133050916Y-120123727D01*
X132778299Y-120064422D01*
X132500001Y-120044518D01*
X132499999Y-120044518D01*
X132221700Y-120064422D01*
X131949083Y-120123727D01*
X131949078Y-120123728D01*
X131949077Y-120123729D01*
X131893339Y-120144518D01*
X131687661Y-120221231D01*
X131687657Y-120221233D01*
X131442792Y-120354940D01*
X131442784Y-120354945D01*
X131219439Y-120522138D01*
X131219421Y-120522154D01*
X131022154Y-120719421D01*
X131022138Y-120719439D01*
X130854945Y-120942784D01*
X130854940Y-120942792D01*
X130721233Y-121187657D01*
X130721231Y-121187661D01*
X130623727Y-121449083D01*
X130564422Y-121721700D01*
X130544518Y-121999998D01*
X128000500Y-121999998D01*
X128000500Y-114949998D01*
X133070006Y-114949998D01*
X133070006Y-114950001D01*
X133089956Y-115228937D01*
X133089957Y-115228944D01*
X133149398Y-115502187D01*
X133247127Y-115764212D01*
X133247129Y-115764216D01*
X133381144Y-116009647D01*
X133381149Y-116009655D01*
X133482029Y-116144416D01*
X134018536Y-115607908D01*
X134110878Y-115735005D01*
X134244995Y-115869122D01*
X134372089Y-115961461D01*
X133835582Y-116497968D01*
X133835583Y-116497969D01*
X133970344Y-116598850D01*
X133970352Y-116598855D01*
X134215783Y-116732870D01*
X134215787Y-116732872D01*
X134477812Y-116830601D01*
X134751055Y-116890042D01*
X134751062Y-116890043D01*
X135029999Y-116909994D01*
X135030001Y-116909994D01*
X135308937Y-116890043D01*
X135308944Y-116890042D01*
X135582187Y-116830601D01*
X135844212Y-116732872D01*
X135844216Y-116732870D01*
X136089647Y-116598855D01*
X136089648Y-116598854D01*
X136224416Y-116497968D01*
X135687909Y-115961462D01*
X135815005Y-115869122D01*
X135949122Y-115735005D01*
X136041462Y-115607910D01*
X136577968Y-116144416D01*
X136678854Y-116009648D01*
X136678855Y-116009647D01*
X136812870Y-115764216D01*
X136812872Y-115764212D01*
X136910601Y-115502187D01*
X136970042Y-115228944D01*
X136970043Y-115228937D01*
X136989994Y-114950001D01*
X136989994Y-114949998D01*
X136970043Y-114671062D01*
X136970042Y-114671055D01*
X136910601Y-114397812D01*
X136812872Y-114135787D01*
X136812870Y-114135783D01*
X136678855Y-113890352D01*
X136678850Y-113890344D01*
X136577969Y-113755583D01*
X136577968Y-113755582D01*
X136041461Y-114292089D01*
X135949122Y-114164995D01*
X135815005Y-114030878D01*
X135687909Y-113938537D01*
X136224416Y-113402030D01*
X136224416Y-113402029D01*
X136089655Y-113301149D01*
X136089647Y-113301144D01*
X135844216Y-113167129D01*
X135844212Y-113167127D01*
X135582187Y-113069398D01*
X135308944Y-113009957D01*
X135308937Y-113009956D01*
X135030001Y-112990006D01*
X135029999Y-112990006D01*
X134751062Y-113009956D01*
X134751055Y-113009957D01*
X134477812Y-113069398D01*
X134215787Y-113167127D01*
X134215783Y-113167129D01*
X133970352Y-113301144D01*
X133970344Y-113301149D01*
X133835582Y-113402029D01*
X134372090Y-113938537D01*
X134244995Y-114030878D01*
X134110878Y-114164995D01*
X134018537Y-114292090D01*
X133482029Y-113755582D01*
X133381149Y-113890344D01*
X133381144Y-113890352D01*
X133247129Y-114135783D01*
X133247127Y-114135787D01*
X133149398Y-114397812D01*
X133089957Y-114671055D01*
X133089956Y-114671062D01*
X133070006Y-114949998D01*
X128000500Y-114949998D01*
X128000500Y-110482844D01*
X138540000Y-110482844D01*
X138546401Y-110542372D01*
X138546403Y-110542379D01*
X138596645Y-110677086D01*
X138596649Y-110677093D01*
X138682809Y-110792187D01*
X138682812Y-110792190D01*
X138797906Y-110878350D01*
X138797913Y-110878354D01*
X138932620Y-110928596D01*
X138932627Y-110928598D01*
X138992155Y-110934999D01*
X138992172Y-110935000D01*
X140250000Y-110935000D01*
X140750000Y-110935000D01*
X142007828Y-110935000D01*
X142007844Y-110934999D01*
X142067372Y-110928598D01*
X142067379Y-110928596D01*
X142202086Y-110878354D01*
X142202093Y-110878350D01*
X142317187Y-110792190D01*
X142317190Y-110792187D01*
X142403350Y-110677093D01*
X142403354Y-110677086D01*
X142453596Y-110542379D01*
X142453598Y-110542372D01*
X142459999Y-110482844D01*
X142460000Y-110482827D01*
X142460000Y-110050000D01*
X140750000Y-110050000D01*
X140750000Y-110935000D01*
X140250000Y-110935000D01*
X140250000Y-110050000D01*
X138540000Y-110050000D01*
X138540000Y-110482844D01*
X128000500Y-110482844D01*
X128000500Y-107649998D01*
X133070006Y-107649998D01*
X133070006Y-107650001D01*
X133089956Y-107928937D01*
X133089957Y-107928944D01*
X133149398Y-108202187D01*
X133247127Y-108464212D01*
X133247129Y-108464216D01*
X133381144Y-108709647D01*
X133381149Y-108709655D01*
X133482029Y-108844416D01*
X134018536Y-108307908D01*
X134110878Y-108435005D01*
X134244995Y-108569122D01*
X134372089Y-108661461D01*
X133835582Y-109197968D01*
X133835583Y-109197969D01*
X133970344Y-109298850D01*
X133970352Y-109298855D01*
X134215783Y-109432870D01*
X134215787Y-109432872D01*
X134477812Y-109530601D01*
X134751055Y-109590042D01*
X134751062Y-109590043D01*
X135029999Y-109609994D01*
X135030001Y-109609994D01*
X135308937Y-109590043D01*
X135308944Y-109590042D01*
X135582187Y-109530601D01*
X135844212Y-109432872D01*
X135844216Y-109432870D01*
X136089647Y-109298855D01*
X136089648Y-109298854D01*
X136224416Y-109197968D01*
X136143603Y-109117155D01*
X138540000Y-109117155D01*
X138540000Y-109550000D01*
X140250000Y-109550000D01*
X140750000Y-109550000D01*
X142460000Y-109550000D01*
X142460000Y-109117172D01*
X142459999Y-109117155D01*
X142453598Y-109057627D01*
X142453596Y-109057620D01*
X142403354Y-108922913D01*
X142403350Y-108922906D01*
X142317190Y-108807812D01*
X142317187Y-108807809D01*
X142202093Y-108721649D01*
X142202086Y-108721645D01*
X142067379Y-108671403D01*
X142067372Y-108671401D01*
X142007844Y-108665000D01*
X140750000Y-108665000D01*
X140750000Y-109550000D01*
X140250000Y-109550000D01*
X140250000Y-108665000D01*
X138992155Y-108665000D01*
X138932627Y-108671401D01*
X138932620Y-108671403D01*
X138797913Y-108721645D01*
X138797906Y-108721649D01*
X138682812Y-108807809D01*
X138682809Y-108807812D01*
X138596649Y-108922906D01*
X138596645Y-108922913D01*
X138546403Y-109057620D01*
X138546401Y-109057627D01*
X138540000Y-109117155D01*
X136143603Y-109117155D01*
X135687909Y-108661462D01*
X135815005Y-108569122D01*
X135949122Y-108435005D01*
X136041462Y-108307910D01*
X136577968Y-108844416D01*
X136678854Y-108709648D01*
X136678855Y-108709647D01*
X136812870Y-108464216D01*
X136812872Y-108464212D01*
X136910601Y-108202187D01*
X136970042Y-107928944D01*
X136970043Y-107928937D01*
X136989994Y-107650001D01*
X136989994Y-107649998D01*
X136970043Y-107371062D01*
X136970042Y-107371055D01*
X136910601Y-107097812D01*
X136812872Y-106835787D01*
X136812870Y-106835783D01*
X136678855Y-106590352D01*
X136678850Y-106590344D01*
X136577969Y-106455583D01*
X136577968Y-106455582D01*
X136041461Y-106992089D01*
X135949122Y-106864995D01*
X135815005Y-106730878D01*
X135687909Y-106638537D01*
X136224416Y-106102030D01*
X136224416Y-106102029D01*
X136089655Y-106001149D01*
X136089647Y-106001144D01*
X135844216Y-105867129D01*
X135844212Y-105867127D01*
X135582187Y-105769398D01*
X135308944Y-105709957D01*
X135308937Y-105709956D01*
X135030001Y-105690006D01*
X135029999Y-105690006D01*
X134751062Y-105709956D01*
X134751055Y-105709957D01*
X134477812Y-105769398D01*
X134215787Y-105867127D01*
X134215783Y-105867129D01*
X133970352Y-106001144D01*
X133970344Y-106001149D01*
X133835582Y-106102029D01*
X134372090Y-106638537D01*
X134244995Y-106730878D01*
X134110878Y-106864995D01*
X134018537Y-106992090D01*
X133482029Y-106455582D01*
X133381149Y-106590344D01*
X133381144Y-106590352D01*
X133247129Y-106835783D01*
X133247127Y-106835787D01*
X133149398Y-107097812D01*
X133089957Y-107371055D01*
X133089956Y-107371062D01*
X133070006Y-107649998D01*
X128000500Y-107649998D01*
X128000500Y-101874998D01*
X133070006Y-101874998D01*
X133070006Y-101875001D01*
X133089956Y-102153937D01*
X133089957Y-102153944D01*
X133149398Y-102427187D01*
X133247127Y-102689212D01*
X133247129Y-102689216D01*
X133381144Y-102934647D01*
X133381149Y-102934655D01*
X133482029Y-103069416D01*
X134018536Y-102532908D01*
X134110878Y-102660005D01*
X134244995Y-102794122D01*
X134372089Y-102886461D01*
X133835582Y-103422968D01*
X133835583Y-103422969D01*
X133970344Y-103523850D01*
X133970352Y-103523855D01*
X134215783Y-103657870D01*
X134215787Y-103657872D01*
X134477812Y-103755601D01*
X134751055Y-103815042D01*
X134751062Y-103815043D01*
X135029999Y-103834994D01*
X135030001Y-103834994D01*
X135308937Y-103815043D01*
X135308944Y-103815042D01*
X135582187Y-103755601D01*
X135844212Y-103657872D01*
X135844216Y-103657870D01*
X136089647Y-103523855D01*
X136089648Y-103523854D01*
X136224416Y-103422968D01*
X135687909Y-102886462D01*
X135815005Y-102794122D01*
X135949122Y-102660005D01*
X136041462Y-102532910D01*
X136577968Y-103069416D01*
X136678854Y-102934648D01*
X136678855Y-102934647D01*
X136812870Y-102689216D01*
X136812872Y-102689212D01*
X136910601Y-102427187D01*
X136970042Y-102153944D01*
X136970043Y-102153937D01*
X136989994Y-101875001D01*
X136989994Y-101874998D01*
X136970043Y-101596062D01*
X136970042Y-101596055D01*
X136910601Y-101322812D01*
X136812872Y-101060787D01*
X136812870Y-101060783D01*
X136678855Y-100815352D01*
X136678850Y-100815344D01*
X136577969Y-100680583D01*
X136577968Y-100680582D01*
X136041461Y-101217089D01*
X135949122Y-101089995D01*
X135815005Y-100955878D01*
X135687909Y-100863537D01*
X136143602Y-100407844D01*
X138540000Y-100407844D01*
X138546401Y-100467372D01*
X138546403Y-100467379D01*
X138596645Y-100602086D01*
X138596649Y-100602093D01*
X138682809Y-100717187D01*
X138682812Y-100717190D01*
X138797906Y-100803350D01*
X138797913Y-100803354D01*
X138932620Y-100853596D01*
X138932627Y-100853598D01*
X138992155Y-100859999D01*
X138992172Y-100860000D01*
X140250000Y-100860000D01*
X140750000Y-100860000D01*
X142007828Y-100860000D01*
X142007844Y-100859999D01*
X142067372Y-100853598D01*
X142067379Y-100853596D01*
X142202086Y-100803354D01*
X142202093Y-100803350D01*
X142317187Y-100717190D01*
X142317190Y-100717187D01*
X142330067Y-100699986D01*
X144300001Y-100699986D01*
X144310494Y-100802697D01*
X144365641Y-100969119D01*
X144365643Y-100969124D01*
X144457684Y-101118345D01*
X144581654Y-101242315D01*
X144730875Y-101334356D01*
X144730880Y-101334358D01*
X144897302Y-101389505D01*
X144897309Y-101389506D01*
X145000019Y-101399999D01*
X145249999Y-101399999D01*
X145750000Y-101399999D01*
X145999972Y-101399999D01*
X145999986Y-101399998D01*
X146102697Y-101389505D01*
X146269119Y-101334358D01*
X146269124Y-101334356D01*
X146418345Y-101242315D01*
X146542315Y-101118345D01*
X146634356Y-100969124D01*
X146634358Y-100969119D01*
X146689505Y-100802697D01*
X146689506Y-100802690D01*
X146699999Y-100699986D01*
X146700000Y-100699973D01*
X146700000Y-100550000D01*
X145750000Y-100550000D01*
X145750000Y-101399999D01*
X145249999Y-101399999D01*
X145250000Y-101399998D01*
X145250000Y-100550000D01*
X144300001Y-100550000D01*
X144300001Y-100699986D01*
X142330067Y-100699986D01*
X142403350Y-100602093D01*
X142403354Y-100602086D01*
X142453596Y-100467379D01*
X142453598Y-100467372D01*
X142459999Y-100407844D01*
X142460000Y-100407827D01*
X142460000Y-99975000D01*
X140750000Y-99975000D01*
X140750000Y-100860000D01*
X140250000Y-100860000D01*
X140250000Y-99975000D01*
X138540000Y-99975000D01*
X138540000Y-100407844D01*
X136143602Y-100407844D01*
X136224416Y-100327030D01*
X136224416Y-100327029D01*
X136089655Y-100226149D01*
X136089647Y-100226144D01*
X135844216Y-100092129D01*
X135844212Y-100092127D01*
X135582187Y-99994398D01*
X135308944Y-99934957D01*
X135308937Y-99934956D01*
X135030001Y-99915006D01*
X135029999Y-99915006D01*
X134751062Y-99934956D01*
X134751055Y-99934957D01*
X134477812Y-99994398D01*
X134215787Y-100092127D01*
X134215783Y-100092129D01*
X133970352Y-100226144D01*
X133970344Y-100226149D01*
X133835582Y-100327029D01*
X134372090Y-100863537D01*
X134244995Y-100955878D01*
X134110878Y-101089995D01*
X134018537Y-101217090D01*
X133482029Y-100680582D01*
X133381149Y-100815344D01*
X133381144Y-100815352D01*
X133247129Y-101060783D01*
X133247127Y-101060787D01*
X133149398Y-101322812D01*
X133089957Y-101596055D01*
X133089956Y-101596062D01*
X133070006Y-101874998D01*
X128000500Y-101874998D01*
X128000500Y-99042155D01*
X138540000Y-99042155D01*
X138540000Y-99475000D01*
X140250000Y-99475000D01*
X140750000Y-99475000D01*
X142460000Y-99475000D01*
X142460000Y-99042172D01*
X142459999Y-99042155D01*
X142453598Y-98982627D01*
X142453596Y-98982620D01*
X142403354Y-98847913D01*
X142403350Y-98847906D01*
X142317190Y-98732812D01*
X142317187Y-98732809D01*
X142202093Y-98646649D01*
X142202086Y-98646645D01*
X142067379Y-98596403D01*
X142067372Y-98596401D01*
X142007844Y-98590000D01*
X140750000Y-98590000D01*
X140750000Y-99475000D01*
X140250000Y-99475000D01*
X140250000Y-98590000D01*
X138992155Y-98590000D01*
X138932627Y-98596401D01*
X138932620Y-98596403D01*
X138797913Y-98646645D01*
X138797906Y-98646649D01*
X138682812Y-98732809D01*
X138682809Y-98732812D01*
X138596649Y-98847906D01*
X138596645Y-98847913D01*
X138546403Y-98982620D01*
X138546401Y-98982627D01*
X138540000Y-99042155D01*
X128000500Y-99042155D01*
X128000500Y-94574998D01*
X133070006Y-94574998D01*
X133070006Y-94575001D01*
X133089956Y-94853937D01*
X133089957Y-94853944D01*
X133149398Y-95127187D01*
X133247127Y-95389212D01*
X133247129Y-95389216D01*
X133381144Y-95634647D01*
X133381149Y-95634655D01*
X133482029Y-95769416D01*
X134018536Y-95232908D01*
X134110878Y-95360005D01*
X134244995Y-95494122D01*
X134372089Y-95586461D01*
X133835582Y-96122968D01*
X133835583Y-96122969D01*
X133970344Y-96223850D01*
X133970352Y-96223855D01*
X134215783Y-96357870D01*
X134215787Y-96357872D01*
X134477812Y-96455601D01*
X134751055Y-96515042D01*
X134751062Y-96515043D01*
X135029999Y-96534994D01*
X135030001Y-96534994D01*
X135308937Y-96515043D01*
X135308944Y-96515042D01*
X135582187Y-96455601D01*
X135844212Y-96357872D01*
X135844216Y-96357870D01*
X136089647Y-96223855D01*
X136089648Y-96223854D01*
X136224416Y-96122968D01*
X135687909Y-95586462D01*
X135815005Y-95494122D01*
X135949122Y-95360005D01*
X136041462Y-95232910D01*
X136577968Y-95769416D01*
X136678854Y-95634648D01*
X136678855Y-95634647D01*
X136812870Y-95389216D01*
X136812872Y-95389212D01*
X136910601Y-95127187D01*
X136970042Y-94853944D01*
X136970043Y-94853937D01*
X136989994Y-94575001D01*
X136989994Y-94574998D01*
X136970043Y-94296062D01*
X136970042Y-94296055D01*
X136910601Y-94022812D01*
X136812872Y-93760787D01*
X136812870Y-93760783D01*
X136678855Y-93515352D01*
X136678850Y-93515344D01*
X136577969Y-93380583D01*
X136577968Y-93380582D01*
X136041461Y-93917089D01*
X135949122Y-93789995D01*
X135815005Y-93655878D01*
X135687909Y-93563537D01*
X136224416Y-93027030D01*
X136224416Y-93027029D01*
X136089655Y-92926149D01*
X136089647Y-92926144D01*
X135844216Y-92792129D01*
X135844212Y-92792127D01*
X135582187Y-92694398D01*
X135308944Y-92634957D01*
X135308937Y-92634956D01*
X135030001Y-92615006D01*
X135029999Y-92615006D01*
X134751062Y-92634956D01*
X134751055Y-92634957D01*
X134477812Y-92694398D01*
X134215787Y-92792127D01*
X134215783Y-92792129D01*
X133970352Y-92926144D01*
X133970344Y-92926149D01*
X133835582Y-93027029D01*
X134372090Y-93563537D01*
X134244995Y-93655878D01*
X134110878Y-93789995D01*
X134018537Y-93917090D01*
X133482029Y-93380582D01*
X133381149Y-93515344D01*
X133381144Y-93515352D01*
X133247129Y-93760783D01*
X133247127Y-93760787D01*
X133149398Y-94022812D01*
X133089957Y-94296055D01*
X133089956Y-94296062D01*
X133070006Y-94574998D01*
X128000500Y-94574998D01*
X128000500Y-88799998D01*
X133070006Y-88799998D01*
X133070006Y-88800001D01*
X133089956Y-89078937D01*
X133089957Y-89078944D01*
X133149398Y-89352187D01*
X133247127Y-89614212D01*
X133247129Y-89614216D01*
X133381144Y-89859647D01*
X133381149Y-89859655D01*
X133482029Y-89994416D01*
X134018536Y-89457908D01*
X134110878Y-89585005D01*
X134244995Y-89719122D01*
X134372089Y-89811461D01*
X133835582Y-90347968D01*
X133835583Y-90347969D01*
X133970344Y-90448850D01*
X133970352Y-90448855D01*
X134215783Y-90582870D01*
X134215787Y-90582872D01*
X134477812Y-90680601D01*
X134751055Y-90740042D01*
X134751062Y-90740043D01*
X135029999Y-90759994D01*
X135030001Y-90759994D01*
X135308937Y-90740043D01*
X135308944Y-90740042D01*
X135582187Y-90680601D01*
X135844212Y-90582872D01*
X135844216Y-90582870D01*
X136089647Y-90448855D01*
X136089648Y-90448854D01*
X136224416Y-90347968D01*
X135687909Y-89811462D01*
X135815005Y-89719122D01*
X135949122Y-89585005D01*
X136041462Y-89457910D01*
X136577968Y-89994416D01*
X136678854Y-89859648D01*
X136678855Y-89859647D01*
X136812870Y-89614216D01*
X136812872Y-89614212D01*
X136910601Y-89352187D01*
X136970042Y-89078944D01*
X136970043Y-89078937D01*
X136989994Y-88800001D01*
X136989994Y-88799998D01*
X136970043Y-88521062D01*
X136970042Y-88521055D01*
X136910601Y-88247812D01*
X136812872Y-87985787D01*
X136812870Y-87985783D01*
X136678855Y-87740352D01*
X136678850Y-87740344D01*
X136577969Y-87605583D01*
X136577968Y-87605582D01*
X136041461Y-88142089D01*
X135949122Y-88014995D01*
X135815005Y-87880878D01*
X135687909Y-87788537D01*
X136143602Y-87332844D01*
X138540000Y-87332844D01*
X138546401Y-87392372D01*
X138546403Y-87392379D01*
X138596645Y-87527086D01*
X138596649Y-87527093D01*
X138682809Y-87642187D01*
X138682812Y-87642190D01*
X138797906Y-87728350D01*
X138797913Y-87728354D01*
X138932620Y-87778596D01*
X138932627Y-87778598D01*
X138992155Y-87784999D01*
X138992172Y-87785000D01*
X140250000Y-87785000D01*
X140750000Y-87785000D01*
X142007828Y-87785000D01*
X142007844Y-87784999D01*
X142067372Y-87778598D01*
X142067379Y-87778596D01*
X142202086Y-87728354D01*
X142202093Y-87728350D01*
X142317187Y-87642190D01*
X142317190Y-87642187D01*
X142403350Y-87527093D01*
X142403354Y-87527086D01*
X142453596Y-87392379D01*
X142453598Y-87392372D01*
X142459999Y-87332844D01*
X142460000Y-87332827D01*
X142460000Y-86900000D01*
X140750000Y-86900000D01*
X140750000Y-87785000D01*
X140250000Y-87785000D01*
X140250000Y-86900000D01*
X138540000Y-86900000D01*
X138540000Y-87332844D01*
X136143602Y-87332844D01*
X136224416Y-87252030D01*
X136224416Y-87252029D01*
X136089655Y-87151149D01*
X136089647Y-87151144D01*
X135844216Y-87017129D01*
X135844212Y-87017127D01*
X135582187Y-86919398D01*
X135308944Y-86859957D01*
X135308937Y-86859956D01*
X135030001Y-86840006D01*
X135029999Y-86840006D01*
X134751062Y-86859956D01*
X134751055Y-86859957D01*
X134477812Y-86919398D01*
X134215787Y-87017127D01*
X134215783Y-87017129D01*
X133970352Y-87151144D01*
X133970344Y-87151149D01*
X133835582Y-87252029D01*
X134372090Y-87788537D01*
X134244995Y-87880878D01*
X134110878Y-88014995D01*
X134018537Y-88142090D01*
X133482029Y-87605582D01*
X133381149Y-87740344D01*
X133381144Y-87740352D01*
X133247129Y-87985783D01*
X133247127Y-87985787D01*
X133149398Y-88247812D01*
X133089957Y-88521055D01*
X133089956Y-88521062D01*
X133070006Y-88799998D01*
X128000500Y-88799998D01*
X128000500Y-85967155D01*
X138540000Y-85967155D01*
X138540000Y-86400000D01*
X140250000Y-86400000D01*
X140750000Y-86400000D01*
X142460000Y-86400000D01*
X142460000Y-85967172D01*
X142459999Y-85967155D01*
X142453598Y-85907627D01*
X142453596Y-85907620D01*
X142403354Y-85772913D01*
X142403350Y-85772906D01*
X142317190Y-85657812D01*
X142317187Y-85657809D01*
X142202093Y-85571649D01*
X142202086Y-85571645D01*
X142067379Y-85521403D01*
X142067372Y-85521401D01*
X142007844Y-85515000D01*
X140750000Y-85515000D01*
X140750000Y-86400000D01*
X140250000Y-86400000D01*
X140250000Y-85515000D01*
X138992155Y-85515000D01*
X138932627Y-85521401D01*
X138932620Y-85521403D01*
X138797913Y-85571645D01*
X138797906Y-85571649D01*
X138682812Y-85657809D01*
X138682809Y-85657812D01*
X138596649Y-85772906D01*
X138596645Y-85772913D01*
X138546403Y-85907620D01*
X138546401Y-85907627D01*
X138540000Y-85967155D01*
X128000500Y-85967155D01*
X128000500Y-81499998D01*
X133070006Y-81499998D01*
X133070006Y-81500001D01*
X133089956Y-81778937D01*
X133089957Y-81778944D01*
X133149398Y-82052187D01*
X133247127Y-82314212D01*
X133247129Y-82314216D01*
X133381144Y-82559647D01*
X133381149Y-82559655D01*
X133482029Y-82694416D01*
X134018536Y-82157908D01*
X134110878Y-82285005D01*
X134244995Y-82419122D01*
X134372089Y-82511461D01*
X133835582Y-83047968D01*
X133835583Y-83047969D01*
X133970344Y-83148850D01*
X133970352Y-83148855D01*
X134215783Y-83282870D01*
X134215787Y-83282872D01*
X134477812Y-83380601D01*
X134751055Y-83440042D01*
X134751062Y-83440043D01*
X135029999Y-83459994D01*
X135030001Y-83459994D01*
X135308937Y-83440043D01*
X135308944Y-83440042D01*
X135582187Y-83380601D01*
X135844212Y-83282872D01*
X135844216Y-83282870D01*
X136089647Y-83148855D01*
X136089648Y-83148854D01*
X136224416Y-83047968D01*
X136143583Y-82967135D01*
X138539500Y-82967135D01*
X138539500Y-84332870D01*
X138539501Y-84332876D01*
X138545908Y-84392483D01*
X138596202Y-84527328D01*
X138596206Y-84527335D01*
X138682452Y-84642544D01*
X138682455Y-84642547D01*
X138797664Y-84728793D01*
X138797671Y-84728797D01*
X138932517Y-84779091D01*
X138932516Y-84779091D01*
X138939444Y-84779835D01*
X138992127Y-84785500D01*
X142007872Y-84785499D01*
X142067483Y-84779091D01*
X142202331Y-84728796D01*
X142259804Y-84685772D01*
X142275280Y-84674187D01*
X142340744Y-84649769D01*
X142409017Y-84664620D01*
X142437272Y-84685772D01*
X143997367Y-86245867D01*
X144030852Y-86307190D01*
X144025868Y-86376882D01*
X143983996Y-86432815D01*
X143953022Y-86449729D01*
X143949072Y-86451202D01*
X143949064Y-86451206D01*
X143833855Y-86537452D01*
X143833852Y-86537455D01*
X143747606Y-86652664D01*
X143747602Y-86652671D01*
X143697308Y-86787517D01*
X143690901Y-86847116D01*
X143690901Y-86847123D01*
X143690900Y-86847135D01*
X143690900Y-90752870D01*
X143690901Y-90752876D01*
X143697308Y-90812483D01*
X143747602Y-90947328D01*
X143747606Y-90947335D01*
X143833852Y-91062544D01*
X143833855Y-91062547D01*
X143949064Y-91148793D01*
X143949071Y-91148797D01*
X144083917Y-91199091D01*
X144083916Y-91199091D01*
X144090844Y-91199835D01*
X144143527Y-91205500D01*
X145696638Y-91205499D01*
X145763677Y-91225184D01*
X145809432Y-91277987D01*
X145819376Y-91347146D01*
X145790351Y-91410702D01*
X145784319Y-91417180D01*
X145150536Y-92050963D01*
X145142035Y-92063688D01*
X145142032Y-92063692D01*
X145051988Y-92198450D01*
X145051987Y-92198452D01*
X145035745Y-92237665D01*
X145035745Y-92237666D01*
X144984105Y-92362333D01*
X144984103Y-92362341D01*
X144949500Y-92536303D01*
X144949500Y-92575500D01*
X144929815Y-92642539D01*
X144877011Y-92688294D01*
X144825501Y-92699500D01*
X144627130Y-92699500D01*
X144627123Y-92699501D01*
X144567516Y-92705908D01*
X144432671Y-92756202D01*
X144432664Y-92756206D01*
X144317455Y-92842452D01*
X144317452Y-92842455D01*
X144231206Y-92957664D01*
X144231202Y-92957671D01*
X144180908Y-93092517D01*
X144180046Y-93100540D01*
X144174501Y-93152123D01*
X144174500Y-93152135D01*
X144174500Y-94797870D01*
X144174501Y-94797876D01*
X144180908Y-94857483D01*
X144231202Y-94992328D01*
X144231206Y-94992335D01*
X144317452Y-95107544D01*
X144317455Y-95107547D01*
X144432664Y-95193793D01*
X144432671Y-95193797D01*
X144567517Y-95244091D01*
X144567516Y-95244091D01*
X144574444Y-95244835D01*
X144627127Y-95250500D01*
X147072872Y-95250499D01*
X147132483Y-95244091D01*
X147267331Y-95193796D01*
X147382546Y-95107546D01*
X147468796Y-94992331D01*
X147519091Y-94857483D01*
X147525500Y-94797873D01*
X147525499Y-93152128D01*
X147519091Y-93092517D01*
X147500559Y-93042832D01*
X147495576Y-92973142D01*
X147529061Y-92911819D01*
X147590384Y-92878334D01*
X147616742Y-92875500D01*
X148383258Y-92875500D01*
X148450297Y-92895185D01*
X148496052Y-92947989D01*
X148505996Y-93017147D01*
X148499440Y-93042834D01*
X148480908Y-93092518D01*
X148480046Y-93100540D01*
X148474501Y-93152123D01*
X148474500Y-93152135D01*
X148474500Y-94797870D01*
X148474501Y-94797876D01*
X148480908Y-94857483D01*
X148531202Y-94992328D01*
X148531206Y-94992335D01*
X148617452Y-95107544D01*
X148617455Y-95107547D01*
X148732664Y-95193793D01*
X148732671Y-95193797D01*
X148867517Y-95244091D01*
X148867516Y-95244091D01*
X148874444Y-95244835D01*
X148927127Y-95250500D01*
X151372872Y-95250499D01*
X151432483Y-95244091D01*
X151567331Y-95193796D01*
X151682546Y-95107546D01*
X151682548Y-95107542D01*
X151683115Y-95106977D01*
X151683822Y-95106590D01*
X151689645Y-95102232D01*
X151690271Y-95103069D01*
X151744438Y-95073492D01*
X151814130Y-95078476D01*
X151858477Y-95106977D01*
X153245966Y-96494466D01*
X153305036Y-96533933D01*
X153305039Y-96533936D01*
X153349246Y-96563474D01*
X153393453Y-96593013D01*
X153464150Y-96622296D01*
X153464151Y-96622297D01*
X153502749Y-96638284D01*
X153557334Y-96660895D01*
X153731303Y-96695499D01*
X153731307Y-96695500D01*
X153731308Y-96695500D01*
X153731309Y-96695500D01*
X155490278Y-96695500D01*
X155557317Y-96715185D01*
X155561965Y-96718412D01*
X155562670Y-96718797D01*
X155697517Y-96769091D01*
X155697516Y-96769091D01*
X155704444Y-96769835D01*
X155757127Y-96775500D01*
X157242872Y-96775499D01*
X157302483Y-96769091D01*
X157345966Y-96752873D01*
X157437329Y-96718797D01*
X157445112Y-96714547D01*
X157446050Y-96716264D01*
X157500875Y-96695816D01*
X157509722Y-96695500D01*
X160886949Y-96695500D01*
X160953988Y-96715185D01*
X160999743Y-96767989D01*
X161010239Y-96806251D01*
X161010908Y-96812482D01*
X161061202Y-96947328D01*
X161061206Y-96947335D01*
X161147452Y-97062544D01*
X161147455Y-97062547D01*
X161262664Y-97148793D01*
X161262673Y-97148798D01*
X161300539Y-97162921D01*
X161356473Y-97204791D01*
X161380891Y-97270255D01*
X161366040Y-97338529D01*
X161348438Y-97363084D01*
X161305790Y-97409412D01*
X161305782Y-97409423D01*
X161174805Y-97609897D01*
X161078610Y-97829200D01*
X161019822Y-98061349D01*
X161000048Y-98299993D01*
X161000048Y-98300006D01*
X161019822Y-98538650D01*
X161078610Y-98770799D01*
X161174804Y-98990100D01*
X161266299Y-99130144D01*
X161864265Y-98532178D01*
X161891702Y-98598417D01*
X161960647Y-98701601D01*
X162048399Y-98789353D01*
X162151583Y-98858298D01*
X162217818Y-98885733D01*
X161619135Y-99484417D01*
X161619807Y-99495237D01*
X161643774Y-99528540D01*
X161647449Y-99598313D01*
X161612818Y-99658996D01*
X161602961Y-99667536D01*
X161467641Y-99772858D01*
X161467637Y-99772863D01*
X161355678Y-99894483D01*
X161295791Y-99930474D01*
X161264448Y-99934500D01*
X157911308Y-99934500D01*
X157898152Y-99937117D01*
X157873960Y-99939500D01*
X157522487Y-99939500D01*
X157463058Y-99924331D01*
X157457330Y-99921203D01*
X157322482Y-99870908D01*
X157322483Y-99870908D01*
X157262883Y-99864501D01*
X157262881Y-99864500D01*
X157262873Y-99864500D01*
X157262864Y-99864500D01*
X155737129Y-99864500D01*
X155737123Y-99864501D01*
X155677516Y-99870908D01*
X155542669Y-99921203D01*
X155536942Y-99924331D01*
X155477513Y-99939500D01*
X154626041Y-99939500D01*
X154601849Y-99937117D01*
X154588693Y-99934500D01*
X154588692Y-99934500D01*
X154588691Y-99934500D01*
X153509361Y-99934500D01*
X153442322Y-99914815D01*
X153421680Y-99898181D01*
X150949039Y-97425538D01*
X150949038Y-97425537D01*
X150922597Y-97407870D01*
X150846895Y-97357288D01*
X150846893Y-97357287D01*
X150846893Y-97357286D01*
X150801544Y-97326985D01*
X150801542Y-97326984D01*
X150719607Y-97293046D01*
X150719606Y-97293046D01*
X150637666Y-97259105D01*
X150637658Y-97259103D01*
X150463696Y-97224500D01*
X150463692Y-97224500D01*
X150463691Y-97224500D01*
X146166562Y-97224500D01*
X146127559Y-97218206D01*
X146102799Y-97210001D01*
X146102795Y-97210000D01*
X146000010Y-97199500D01*
X144999998Y-97199500D01*
X144999980Y-97199501D01*
X144897203Y-97210000D01*
X144878617Y-97216159D01*
X144872441Y-97218206D01*
X144833438Y-97224500D01*
X144574362Y-97224500D01*
X144507323Y-97204815D01*
X144486681Y-97188181D01*
X143324039Y-96025538D01*
X143324034Y-96025534D01*
X143259654Y-95982518D01*
X143259653Y-95982517D01*
X143176544Y-95926985D01*
X143176542Y-95926984D01*
X143094607Y-95893046D01*
X143094606Y-95893046D01*
X143012666Y-95859105D01*
X143012658Y-95859103D01*
X142838696Y-95824500D01*
X142838692Y-95824500D01*
X142838691Y-95824500D01*
X142448521Y-95824500D01*
X142381482Y-95804815D01*
X142349254Y-95774810D01*
X142317550Y-95732458D01*
X142317547Y-95732455D01*
X142317546Y-95732454D01*
X142317542Y-95732451D01*
X142202335Y-95646206D01*
X142202328Y-95646202D01*
X142067482Y-95595908D01*
X142067483Y-95595908D01*
X142007883Y-95589501D01*
X142007881Y-95589500D01*
X142007873Y-95589500D01*
X142007864Y-95589500D01*
X138992129Y-95589500D01*
X138992123Y-95589501D01*
X138932516Y-95595908D01*
X138797671Y-95646202D01*
X138797664Y-95646206D01*
X138682455Y-95732452D01*
X138682452Y-95732455D01*
X138596206Y-95847664D01*
X138596202Y-95847671D01*
X138545908Y-95982517D01*
X138539501Y-96042116D01*
X138539500Y-96042135D01*
X138539500Y-97407870D01*
X138539501Y-97407876D01*
X138545908Y-97467483D01*
X138596202Y-97602328D01*
X138596206Y-97602335D01*
X138682452Y-97717544D01*
X138682455Y-97717547D01*
X138797664Y-97803793D01*
X138797671Y-97803797D01*
X138932517Y-97854091D01*
X138932516Y-97854091D01*
X138939444Y-97854835D01*
X138992127Y-97860500D01*
X142007872Y-97860499D01*
X142067483Y-97854091D01*
X142202331Y-97803796D01*
X142317546Y-97717546D01*
X142317547Y-97717544D01*
X142318170Y-97717078D01*
X142383634Y-97692660D01*
X142451908Y-97707511D01*
X142480163Y-97728663D01*
X143575966Y-98824466D01*
X143635036Y-98863933D01*
X143635039Y-98863936D01*
X143697676Y-98905789D01*
X143723453Y-98923013D01*
X143805393Y-98956953D01*
X143887334Y-98990895D01*
X144061303Y-99025499D01*
X144061307Y-99025500D01*
X144061308Y-99025500D01*
X144061309Y-99025500D01*
X144330622Y-99025500D01*
X144397661Y-99045185D01*
X144436161Y-99084403D01*
X144457289Y-99118657D01*
X144551304Y-99212672D01*
X144584789Y-99273995D01*
X144579805Y-99343687D01*
X144551305Y-99388034D01*
X144457682Y-99481657D01*
X144365643Y-99630875D01*
X144365641Y-99630880D01*
X144310494Y-99797302D01*
X144310493Y-99797309D01*
X144300000Y-99900013D01*
X144300000Y-100050000D01*
X146699999Y-100050000D01*
X146699999Y-99900028D01*
X146699998Y-99900013D01*
X146689505Y-99797302D01*
X146634358Y-99630880D01*
X146634356Y-99630875D01*
X146542315Y-99481654D01*
X146448695Y-99388034D01*
X146415210Y-99326711D01*
X146420194Y-99257019D01*
X146448691Y-99212676D01*
X146542712Y-99118656D01*
X146563839Y-99084402D01*
X146615787Y-99037679D01*
X146669378Y-99025500D01*
X149950638Y-99025500D01*
X150017677Y-99045185D01*
X150038319Y-99061819D01*
X150925616Y-99949116D01*
X151763819Y-100787318D01*
X151797304Y-100848641D01*
X151792320Y-100918333D01*
X151763819Y-100962680D01*
X150800533Y-101925966D01*
X150789379Y-101942662D01*
X150789378Y-101942664D01*
X150701985Y-102073455D01*
X150668046Y-102155393D01*
X150634106Y-102237329D01*
X150634103Y-102237341D01*
X150599500Y-102411303D01*
X150599500Y-103987769D01*
X150579815Y-104054808D01*
X150563182Y-104075450D01*
X150457287Y-104181345D01*
X150365187Y-104330663D01*
X150365186Y-104330666D01*
X150310001Y-104497203D01*
X150310001Y-104497204D01*
X150310000Y-104497204D01*
X150299500Y-104599983D01*
X150299500Y-105400001D01*
X150299501Y-105400019D01*
X150310000Y-105502796D01*
X150310001Y-105502799D01*
X150365185Y-105669331D01*
X150365187Y-105669336D01*
X150457289Y-105818657D01*
X150550951Y-105912319D01*
X150584436Y-105973642D01*
X150579452Y-106043334D01*
X150550951Y-106087681D01*
X150457289Y-106181342D01*
X150365187Y-106330663D01*
X150365185Y-106330668D01*
X150337349Y-106414670D01*
X150310001Y-106497203D01*
X150310001Y-106497204D01*
X150310000Y-106497204D01*
X150299500Y-106599983D01*
X150299500Y-107400001D01*
X150299501Y-107400019D01*
X150310000Y-107502796D01*
X150310001Y-107502799D01*
X150365185Y-107669331D01*
X150365187Y-107669336D01*
X150457289Y-107818657D01*
X150563181Y-107924549D01*
X150596666Y-107985872D01*
X150599500Y-108012230D01*
X150599500Y-108900638D01*
X150579815Y-108967677D01*
X150563181Y-108988319D01*
X147688319Y-111863181D01*
X147626996Y-111896666D01*
X147600638Y-111899500D01*
X142448521Y-111899500D01*
X142381482Y-111879815D01*
X142349254Y-111849810D01*
X142317550Y-111807458D01*
X142317547Y-111807455D01*
X142317546Y-111807454D01*
X142317542Y-111807451D01*
X142202335Y-111721206D01*
X142202328Y-111721202D01*
X142067482Y-111670908D01*
X142067483Y-111670908D01*
X142007883Y-111664501D01*
X142007881Y-111664500D01*
X142007873Y-111664500D01*
X142007864Y-111664500D01*
X138992129Y-111664500D01*
X138992123Y-111664501D01*
X138932516Y-111670908D01*
X138797671Y-111721202D01*
X138797664Y-111721206D01*
X138682455Y-111807452D01*
X138682452Y-111807455D01*
X138596206Y-111922664D01*
X138596202Y-111922671D01*
X138545908Y-112057517D01*
X138539501Y-112117116D01*
X138539500Y-112117135D01*
X138539500Y-113482870D01*
X138539501Y-113482876D01*
X138545908Y-113542483D01*
X138596202Y-113677328D01*
X138596206Y-113677335D01*
X138682452Y-113792544D01*
X138682455Y-113792547D01*
X138797664Y-113878793D01*
X138797671Y-113878797D01*
X138932517Y-113929091D01*
X138932516Y-113929091D01*
X138939444Y-113929835D01*
X138992127Y-113935500D01*
X142007872Y-113935499D01*
X142067483Y-113929091D01*
X142202331Y-113878796D01*
X142317546Y-113792546D01*
X142345218Y-113755582D01*
X142349254Y-113750190D01*
X142405187Y-113708318D01*
X142448521Y-113700500D01*
X148113693Y-113700500D01*
X148113694Y-113700499D01*
X148287666Y-113665895D01*
X148369606Y-113631953D01*
X148451547Y-113598013D01*
X148451549Y-113598011D01*
X148451552Y-113598010D01*
X148539955Y-113538939D01*
X148539955Y-113538938D01*
X148539959Y-113538936D01*
X148599036Y-113499464D01*
X152199464Y-109899036D01*
X152238936Y-109839959D01*
X152298013Y-109751547D01*
X152331953Y-109669606D01*
X152365895Y-109587666D01*
X152400500Y-109413692D01*
X152400500Y-109236308D01*
X152400500Y-108012230D01*
X152420185Y-107945191D01*
X152436819Y-107924549D01*
X152539893Y-107821475D01*
X161504208Y-107821475D01*
X161524294Y-108153551D01*
X161584266Y-108480804D01*
X161683233Y-108798403D01*
X161683239Y-108798418D01*
X161819777Y-109101794D01*
X161819779Y-109101796D01*
X161991891Y-109386506D01*
X161991896Y-109386514D01*
X162145096Y-109582058D01*
X163036574Y-108690580D01*
X163115098Y-108798659D01*
X163282050Y-108965611D01*
X163390127Y-109044133D01*
X162498649Y-109935611D01*
X162498649Y-109935612D01*
X162694194Y-110088812D01*
X162694202Y-110088817D01*
X162978912Y-110260929D01*
X162978914Y-110260931D01*
X163282290Y-110397469D01*
X163282305Y-110397475D01*
X163599904Y-110496442D01*
X163927157Y-110556414D01*
X164259234Y-110576500D01*
X164591310Y-110556414D01*
X164918563Y-110496442D01*
X165236162Y-110397475D01*
X165236177Y-110397469D01*
X165539553Y-110260931D01*
X165539555Y-110260929D01*
X165824264Y-110088818D01*
X166019817Y-109935612D01*
X166019817Y-109935611D01*
X165128340Y-109044134D01*
X165236418Y-108965611D01*
X165403370Y-108798659D01*
X165481893Y-108690581D01*
X166373370Y-109582058D01*
X166373371Y-109582058D01*
X166526577Y-109386505D01*
X166698688Y-109101796D01*
X166698690Y-109101794D01*
X166835228Y-108798418D01*
X166835234Y-108798403D01*
X166934201Y-108480804D01*
X166994173Y-108153551D01*
X167014259Y-107821475D01*
X166994173Y-107489398D01*
X166934201Y-107162145D01*
X166835234Y-106844546D01*
X166835228Y-106844531D01*
X166698690Y-106541155D01*
X166698688Y-106541153D01*
X166526576Y-106256443D01*
X166526571Y-106256435D01*
X166373370Y-106060890D01*
X165481892Y-106952368D01*
X165403370Y-106844291D01*
X165236418Y-106677339D01*
X165128339Y-106598815D01*
X166019817Y-105707337D01*
X166019817Y-105707336D01*
X165824273Y-105554137D01*
X165824265Y-105554132D01*
X165539555Y-105382020D01*
X165539553Y-105382018D01*
X165236177Y-105245480D01*
X165236162Y-105245474D01*
X164918563Y-105146507D01*
X164591310Y-105086535D01*
X164259234Y-105066449D01*
X163927157Y-105086535D01*
X163599904Y-105146507D01*
X163282305Y-105245474D01*
X163282290Y-105245480D01*
X162978914Y-105382018D01*
X162978912Y-105382020D01*
X162694202Y-105554132D01*
X162498649Y-105707337D01*
X163390127Y-106598815D01*
X163282050Y-106677339D01*
X163115098Y-106844291D01*
X163036574Y-106952368D01*
X162145096Y-106060890D01*
X161991891Y-106256443D01*
X161819779Y-106541153D01*
X161819777Y-106541155D01*
X161683239Y-106844531D01*
X161683233Y-106844546D01*
X161584266Y-107162145D01*
X161524294Y-107489398D01*
X161504208Y-107821475D01*
X152539893Y-107821475D01*
X152542712Y-107818656D01*
X152634814Y-107669334D01*
X152689999Y-107502797D01*
X152700500Y-107400009D01*
X152700499Y-106599992D01*
X152699513Y-106590344D01*
X152689999Y-106497203D01*
X152689998Y-106497200D01*
X152676207Y-106455582D01*
X152634814Y-106330666D01*
X152542712Y-106181344D01*
X152449049Y-106087681D01*
X152415564Y-106026358D01*
X152420548Y-105956666D01*
X152449049Y-105912319D01*
X152494241Y-105867127D01*
X152542712Y-105818656D01*
X152634814Y-105669334D01*
X152689999Y-105502797D01*
X152700500Y-105400009D01*
X152700499Y-104599992D01*
X152689999Y-104497203D01*
X152634814Y-104330666D01*
X152542712Y-104181344D01*
X152436818Y-104075450D01*
X152403334Y-104014127D01*
X152400500Y-103987769D01*
X152400500Y-102992844D01*
X155285000Y-102992844D01*
X155291401Y-103052372D01*
X155291403Y-103052379D01*
X155341645Y-103187086D01*
X155341649Y-103187093D01*
X155427809Y-103302187D01*
X155427812Y-103302190D01*
X155542906Y-103388350D01*
X155542913Y-103388354D01*
X155677620Y-103438596D01*
X155677627Y-103438598D01*
X155737155Y-103444999D01*
X155737172Y-103445000D01*
X156250000Y-103445000D01*
X156750000Y-103445000D01*
X157262828Y-103445000D01*
X157262844Y-103444999D01*
X157322372Y-103438598D01*
X157322379Y-103438596D01*
X157457086Y-103388354D01*
X157457093Y-103388350D01*
X157572187Y-103302190D01*
X157572190Y-103302187D01*
X157658350Y-103187093D01*
X157658354Y-103187086D01*
X157708596Y-103052379D01*
X157708598Y-103052372D01*
X157714999Y-102992844D01*
X157715000Y-102992827D01*
X157715000Y-102725000D01*
X156750000Y-102725000D01*
X156750000Y-103445000D01*
X156250000Y-103445000D01*
X156250000Y-102725000D01*
X155285000Y-102725000D01*
X155285000Y-102992844D01*
X152400500Y-102992844D01*
X152400500Y-102924361D01*
X152420185Y-102857322D01*
X152436819Y-102836680D01*
X153501680Y-101771819D01*
X153563003Y-101738334D01*
X153589361Y-101735500D01*
X154378959Y-101735500D01*
X154403151Y-101737883D01*
X154416306Y-101740499D01*
X154416307Y-101740500D01*
X154416308Y-101740500D01*
X154416309Y-101740500D01*
X155171814Y-101740500D01*
X155238853Y-101760185D01*
X155284608Y-101812989D01*
X155294552Y-101882147D01*
X155292492Y-101893009D01*
X155291402Y-101897622D01*
X155285000Y-101957155D01*
X155285000Y-102225000D01*
X157715000Y-102225000D01*
X157715000Y-101957172D01*
X157714999Y-101957155D01*
X157708597Y-101897622D01*
X157707508Y-101893009D01*
X157711252Y-101823240D01*
X157752121Y-101766570D01*
X157817141Y-101740993D01*
X157828186Y-101740500D01*
X161259845Y-101740500D01*
X161326884Y-101760185D01*
X161351075Y-101780517D01*
X161467634Y-101907134D01*
X161656677Y-102054271D01*
X161867359Y-102168287D01*
X162093935Y-102246070D01*
X162330222Y-102285500D01*
X162330223Y-102285500D01*
X162569777Y-102285500D01*
X162569778Y-102285500D01*
X162806065Y-102246070D01*
X163032641Y-102168287D01*
X163243323Y-102054271D01*
X163432366Y-101907134D01*
X163594612Y-101730887D01*
X163725636Y-101530340D01*
X163821864Y-101310962D01*
X163880672Y-101078737D01*
X163880673Y-101078729D01*
X163900454Y-100840006D01*
X163900454Y-100839993D01*
X163880673Y-100601270D01*
X163880672Y-100601267D01*
X163880672Y-100601263D01*
X163821864Y-100369038D01*
X163725636Y-100149660D01*
X163594612Y-99949113D01*
X163432366Y-99772866D01*
X163297036Y-99667535D01*
X163256224Y-99610825D01*
X163252549Y-99541052D01*
X163280374Y-99492295D01*
X163280863Y-99484417D01*
X162682181Y-98885733D01*
X162748417Y-98858298D01*
X162851601Y-98789353D01*
X162939353Y-98701601D01*
X163008298Y-98598417D01*
X163035733Y-98532180D01*
X163633698Y-99130145D01*
X163725194Y-98990102D01*
X163821389Y-98770799D01*
X163880177Y-98538650D01*
X163899952Y-98300006D01*
X163899952Y-98299993D01*
X163880177Y-98061349D01*
X163821389Y-97829200D01*
X163725194Y-97609897D01*
X163594217Y-97409423D01*
X163594209Y-97409412D01*
X163551562Y-97363086D01*
X163520639Y-97300432D01*
X163528499Y-97231006D01*
X163572646Y-97176850D01*
X163599453Y-97162923D01*
X163637331Y-97148796D01*
X163752546Y-97062546D01*
X163838796Y-96947331D01*
X163889091Y-96812483D01*
X163895500Y-96752873D01*
X163895499Y-94767128D01*
X163889091Y-94707517D01*
X163879882Y-94682827D01*
X163838797Y-94572671D01*
X163838793Y-94572664D01*
X163752547Y-94457455D01*
X163752544Y-94457452D01*
X163637335Y-94371206D01*
X163637328Y-94371202D01*
X163502482Y-94320908D01*
X163502483Y-94320908D01*
X163442883Y-94314501D01*
X163442881Y-94314500D01*
X163442873Y-94314500D01*
X163442864Y-94314500D01*
X161457129Y-94314500D01*
X161457123Y-94314501D01*
X161397516Y-94320908D01*
X161262671Y-94371202D01*
X161262664Y-94371206D01*
X161147455Y-94457452D01*
X161147452Y-94457455D01*
X161061206Y-94572664D01*
X161061202Y-94572671D01*
X161010908Y-94707517D01*
X161004501Y-94767116D01*
X161004501Y-94767123D01*
X161004500Y-94767135D01*
X161004500Y-94770500D01*
X160984815Y-94837539D01*
X160932011Y-94883294D01*
X160880500Y-94894500D01*
X157809367Y-94894500D01*
X157742328Y-94874815D01*
X157696573Y-94822011D01*
X157686629Y-94752853D01*
X157688574Y-94742596D01*
X157694999Y-94682844D01*
X157695000Y-94682827D01*
X157695000Y-94430000D01*
X155305000Y-94430000D01*
X155305000Y-94682844D01*
X155312231Y-94750087D01*
X155310867Y-94750233D01*
X155307568Y-94811757D01*
X155266700Y-94868427D01*
X155201681Y-94894007D01*
X155190633Y-94894500D01*
X154244362Y-94894500D01*
X154177323Y-94874815D01*
X154156681Y-94858181D01*
X152975656Y-93677155D01*
X155305000Y-93677155D01*
X155305000Y-93930000D01*
X156250000Y-93930000D01*
X156750000Y-93930000D01*
X157695000Y-93930000D01*
X157695000Y-93677172D01*
X157694999Y-93677155D01*
X157688598Y-93617627D01*
X157688596Y-93617620D01*
X157638354Y-93482913D01*
X157638350Y-93482906D01*
X157552190Y-93367812D01*
X157552187Y-93367809D01*
X157437093Y-93281649D01*
X157437086Y-93281645D01*
X157302379Y-93231403D01*
X157302372Y-93231401D01*
X157242844Y-93225000D01*
X156750000Y-93225000D01*
X156750000Y-93930000D01*
X156250000Y-93930000D01*
X156250000Y-93225000D01*
X155757155Y-93225000D01*
X155697627Y-93231401D01*
X155697620Y-93231403D01*
X155562913Y-93281645D01*
X155562906Y-93281649D01*
X155447812Y-93367809D01*
X155447809Y-93367812D01*
X155361649Y-93482906D01*
X155361645Y-93482913D01*
X155311403Y-93617620D01*
X155311401Y-93617627D01*
X155305000Y-93677155D01*
X152975656Y-93677155D01*
X152399041Y-93100540D01*
X152399038Y-93100537D01*
X152325717Y-93051546D01*
X152325716Y-93051545D01*
X152299860Y-93034268D01*
X152255055Y-92980655D01*
X152246349Y-92911330D01*
X152276505Y-92848303D01*
X152321294Y-92816609D01*
X152344606Y-92806953D01*
X152426547Y-92773013D01*
X152526975Y-92705909D01*
X152536564Y-92699502D01*
X152553338Y-92688294D01*
X152574036Y-92674464D01*
X153387164Y-91861335D01*
X153410115Y-91826987D01*
X153485713Y-91713847D01*
X153505595Y-91665847D01*
X153553595Y-91549966D01*
X153588200Y-91375991D01*
X153588200Y-91329499D01*
X153607885Y-91262460D01*
X153660689Y-91216705D01*
X153712200Y-91205499D01*
X154856471Y-91205499D01*
X154856472Y-91205499D01*
X154916083Y-91199091D01*
X155050931Y-91148796D01*
X155166146Y-91062546D01*
X155252396Y-90947331D01*
X155302691Y-90812483D01*
X155309100Y-90752873D01*
X155309100Y-88821475D01*
X161504208Y-88821475D01*
X161524294Y-89153551D01*
X161584266Y-89480804D01*
X161683233Y-89798403D01*
X161683239Y-89798418D01*
X161819777Y-90101794D01*
X161819779Y-90101796D01*
X161991891Y-90386506D01*
X161991896Y-90386514D01*
X162145096Y-90582058D01*
X163036574Y-89690580D01*
X163115098Y-89798659D01*
X163282050Y-89965611D01*
X163390127Y-90044133D01*
X162498649Y-90935611D01*
X162498649Y-90935612D01*
X162694194Y-91088812D01*
X162694202Y-91088817D01*
X162978912Y-91260929D01*
X162978914Y-91260931D01*
X163282290Y-91397469D01*
X163282305Y-91397475D01*
X163599904Y-91496442D01*
X163927157Y-91556414D01*
X164259234Y-91576500D01*
X164591310Y-91556414D01*
X164918563Y-91496442D01*
X165236162Y-91397475D01*
X165236177Y-91397469D01*
X165539553Y-91260931D01*
X165539555Y-91260929D01*
X165824264Y-91088818D01*
X166019817Y-90935612D01*
X166019817Y-90935611D01*
X165128340Y-90044134D01*
X165236418Y-89965611D01*
X165403370Y-89798659D01*
X165481893Y-89690581D01*
X166373370Y-90582058D01*
X166373371Y-90582058D01*
X166526577Y-90386505D01*
X166698688Y-90101796D01*
X166698690Y-90101794D01*
X166835228Y-89798418D01*
X166835234Y-89798403D01*
X166934201Y-89480804D01*
X166994173Y-89153551D01*
X167014259Y-88821475D01*
X166994173Y-88489398D01*
X166934201Y-88162145D01*
X166835234Y-87844546D01*
X166835228Y-87844531D01*
X166698690Y-87541155D01*
X166698688Y-87541153D01*
X166526576Y-87256443D01*
X166526571Y-87256435D01*
X166373370Y-87060890D01*
X165481892Y-87952368D01*
X165403370Y-87844291D01*
X165236418Y-87677339D01*
X165128339Y-87598815D01*
X166019817Y-86707337D01*
X166019817Y-86707336D01*
X165824273Y-86554137D01*
X165824265Y-86554132D01*
X165539555Y-86382020D01*
X165539553Y-86382018D01*
X165236177Y-86245480D01*
X165236162Y-86245474D01*
X164918563Y-86146507D01*
X164591310Y-86086535D01*
X164259234Y-86066449D01*
X163927157Y-86086535D01*
X163599904Y-86146507D01*
X163282305Y-86245474D01*
X163282290Y-86245480D01*
X162978914Y-86382018D01*
X162978912Y-86382020D01*
X162694202Y-86554132D01*
X162498649Y-86707337D01*
X163390127Y-87598815D01*
X163282050Y-87677339D01*
X163115098Y-87844291D01*
X163036574Y-87952368D01*
X162145096Y-87060890D01*
X161991891Y-87256443D01*
X161819779Y-87541153D01*
X161819777Y-87541155D01*
X161683239Y-87844531D01*
X161683233Y-87844546D01*
X161584266Y-88162145D01*
X161524294Y-88489398D01*
X161504208Y-88821475D01*
X155309100Y-88821475D01*
X155309099Y-86847128D01*
X155302691Y-86787517D01*
X155272785Y-86707336D01*
X155252397Y-86652671D01*
X155252393Y-86652664D01*
X155166147Y-86537455D01*
X155166144Y-86537452D01*
X155050935Y-86451206D01*
X155050928Y-86451202D01*
X154916082Y-86400908D01*
X154916083Y-86400908D01*
X154856483Y-86394501D01*
X154856481Y-86394500D01*
X154856473Y-86394500D01*
X154856464Y-86394500D01*
X150518929Y-86394500D01*
X150518923Y-86394501D01*
X150459316Y-86400908D01*
X150324471Y-86451202D01*
X150324464Y-86451206D01*
X150209255Y-86537452D01*
X150209252Y-86537455D01*
X150123006Y-86652664D01*
X150123002Y-86652671D01*
X150072708Y-86787517D01*
X150066301Y-86847116D01*
X150066301Y-86847123D01*
X150066300Y-86847135D01*
X150066300Y-90752870D01*
X150066301Y-90752876D01*
X150072709Y-90812484D01*
X150108023Y-90907168D01*
X150113007Y-90976859D01*
X150079521Y-91038182D01*
X150018198Y-91071666D01*
X149991841Y-91074500D01*
X149008159Y-91074500D01*
X148941120Y-91054815D01*
X148895365Y-91002011D01*
X148885421Y-90932853D01*
X148891977Y-90907168D01*
X148927290Y-90812485D01*
X148927291Y-90812484D01*
X148927291Y-90812483D01*
X148933700Y-90752873D01*
X148933699Y-86847128D01*
X148927291Y-86787517D01*
X148897385Y-86707336D01*
X148876997Y-86652671D01*
X148876993Y-86652664D01*
X148790747Y-86537455D01*
X148790744Y-86537452D01*
X148675535Y-86451206D01*
X148675528Y-86451202D01*
X148540682Y-86400908D01*
X148540683Y-86400908D01*
X148481083Y-86394501D01*
X148481081Y-86394500D01*
X148481073Y-86394500D01*
X148481065Y-86394500D01*
X146744362Y-86394500D01*
X146677323Y-86374815D01*
X146656681Y-86358181D01*
X143710681Y-83412181D01*
X143677196Y-83350858D01*
X143682180Y-83281166D01*
X143724052Y-83225233D01*
X143789516Y-83200816D01*
X143798362Y-83200500D01*
X144570501Y-83200500D01*
X144637540Y-83220185D01*
X144683295Y-83272989D01*
X144694501Y-83324500D01*
X144694501Y-83562876D01*
X144700908Y-83622483D01*
X144751202Y-83757328D01*
X144751206Y-83757335D01*
X144837452Y-83872544D01*
X144837455Y-83872547D01*
X144952664Y-83958793D01*
X144952671Y-83958797D01*
X145087517Y-84009091D01*
X145087516Y-84009091D01*
X145094444Y-84009835D01*
X145147127Y-84015500D01*
X147612872Y-84015499D01*
X147672483Y-84009091D01*
X147807331Y-83958796D01*
X147922546Y-83872546D01*
X148008796Y-83757331D01*
X148059091Y-83622483D01*
X148065500Y-83562873D01*
X148065500Y-83562844D01*
X150935000Y-83562844D01*
X150941401Y-83622372D01*
X150941403Y-83622379D01*
X150991645Y-83757086D01*
X150991649Y-83757093D01*
X151077809Y-83872187D01*
X151077812Y-83872190D01*
X151192906Y-83958350D01*
X151192913Y-83958354D01*
X151327620Y-84008596D01*
X151327627Y-84008598D01*
X151387155Y-84014999D01*
X151387172Y-84015000D01*
X152370000Y-84015000D01*
X152870000Y-84015000D01*
X153852828Y-84015000D01*
X153852844Y-84014999D01*
X153912372Y-84008598D01*
X153912379Y-84008596D01*
X154047086Y-83958354D01*
X154047093Y-83958350D01*
X154162187Y-83872190D01*
X154162190Y-83872187D01*
X154248350Y-83757093D01*
X154248354Y-83757086D01*
X154298596Y-83622379D01*
X154298598Y-83622372D01*
X154304999Y-83562844D01*
X154305000Y-83562827D01*
X154305000Y-82550000D01*
X152870000Y-82550000D01*
X152870000Y-84015000D01*
X152370000Y-84015000D01*
X152370000Y-82550000D01*
X150935000Y-82550000D01*
X150935000Y-83562844D01*
X148065500Y-83562844D01*
X148065499Y-81037155D01*
X150935000Y-81037155D01*
X150935000Y-82050000D01*
X152370000Y-82050000D01*
X152870000Y-82050000D01*
X154305000Y-82050000D01*
X154305000Y-81037172D01*
X154304999Y-81037155D01*
X154298598Y-80977627D01*
X154298596Y-80977620D01*
X154248354Y-80842913D01*
X154248350Y-80842906D01*
X154162190Y-80727812D01*
X154162187Y-80727809D01*
X154047093Y-80641649D01*
X154047086Y-80641645D01*
X153912379Y-80591403D01*
X153912372Y-80591401D01*
X153852844Y-80585000D01*
X152870000Y-80585000D01*
X152870000Y-82050000D01*
X152370000Y-82050000D01*
X152370000Y-80585000D01*
X151387155Y-80585000D01*
X151327627Y-80591401D01*
X151327620Y-80591403D01*
X151192913Y-80641645D01*
X151192906Y-80641649D01*
X151077812Y-80727809D01*
X151077809Y-80727812D01*
X150991649Y-80842906D01*
X150991645Y-80842913D01*
X150941403Y-80977620D01*
X150941401Y-80977627D01*
X150935000Y-81037155D01*
X148065499Y-81037155D01*
X148065499Y-81037128D01*
X148059091Y-80977517D01*
X148008884Y-80842906D01*
X148008797Y-80842671D01*
X148008793Y-80842664D01*
X147922547Y-80727455D01*
X147922544Y-80727452D01*
X147807335Y-80641206D01*
X147807328Y-80641202D01*
X147672482Y-80590908D01*
X147672483Y-80590908D01*
X147612883Y-80584501D01*
X147612881Y-80584500D01*
X147612873Y-80584500D01*
X147612864Y-80584500D01*
X145147129Y-80584500D01*
X145147123Y-80584501D01*
X145087516Y-80590908D01*
X144952671Y-80641202D01*
X144952664Y-80641206D01*
X144837455Y-80727452D01*
X144837452Y-80727455D01*
X144751206Y-80842664D01*
X144751202Y-80842671D01*
X144700908Y-80977517D01*
X144694501Y-81037116D01*
X144694501Y-81037123D01*
X144694500Y-81037135D01*
X144694500Y-81275500D01*
X144674815Y-81342539D01*
X144622011Y-81388294D01*
X144570500Y-81399500D01*
X141086303Y-81399500D01*
X140912341Y-81434103D01*
X140912329Y-81434106D01*
X140830392Y-81468045D01*
X140830393Y-81468046D01*
X140748455Y-81501985D01*
X140660040Y-81561063D01*
X140660039Y-81561064D01*
X140600961Y-81600537D01*
X139800537Y-82400961D01*
X139788403Y-82419122D01*
X139761496Y-82459391D01*
X139707886Y-82504195D01*
X139658395Y-82514500D01*
X138992129Y-82514500D01*
X138992123Y-82514501D01*
X138932516Y-82520908D01*
X138797671Y-82571202D01*
X138797664Y-82571206D01*
X138682455Y-82657452D01*
X138682452Y-82657455D01*
X138596206Y-82772664D01*
X138596202Y-82772671D01*
X138545908Y-82907517D01*
X138539501Y-82967116D01*
X138539500Y-82967135D01*
X136143583Y-82967135D01*
X135687909Y-82511462D01*
X135815005Y-82419122D01*
X135949122Y-82285005D01*
X136041462Y-82157910D01*
X136577968Y-82694416D01*
X136678854Y-82559648D01*
X136678855Y-82559647D01*
X136812870Y-82314216D01*
X136812872Y-82314212D01*
X136910601Y-82052187D01*
X136970042Y-81778944D01*
X136970043Y-81778937D01*
X136989994Y-81500001D01*
X136989994Y-81499998D01*
X136970043Y-81221062D01*
X136970042Y-81221055D01*
X136910601Y-80947812D01*
X136812872Y-80685787D01*
X136812870Y-80685783D01*
X136678855Y-80440352D01*
X136678850Y-80440344D01*
X136577969Y-80305583D01*
X136577968Y-80305582D01*
X136041461Y-80842089D01*
X135949122Y-80714995D01*
X135815005Y-80580878D01*
X135687909Y-80488537D01*
X136224416Y-79952030D01*
X136224416Y-79952029D01*
X136089655Y-79851149D01*
X136089647Y-79851144D01*
X135844216Y-79717129D01*
X135844212Y-79717127D01*
X135582187Y-79619398D01*
X135308944Y-79559957D01*
X135308937Y-79559956D01*
X135030001Y-79540006D01*
X135029999Y-79540006D01*
X134751062Y-79559956D01*
X134751055Y-79559957D01*
X134477812Y-79619398D01*
X134215787Y-79717127D01*
X134215783Y-79717129D01*
X133970352Y-79851144D01*
X133970344Y-79851149D01*
X133835582Y-79952029D01*
X134372090Y-80488537D01*
X134244995Y-80580878D01*
X134110878Y-80714995D01*
X134018537Y-80842090D01*
X133482029Y-80305582D01*
X133381149Y-80440344D01*
X133381144Y-80440352D01*
X133247129Y-80685783D01*
X133247127Y-80685787D01*
X133149398Y-80947812D01*
X133089957Y-81221055D01*
X133089956Y-81221062D01*
X133070006Y-81499998D01*
X128000500Y-81499998D01*
X128000500Y-74499998D01*
X130544518Y-74499998D01*
X130544518Y-74500001D01*
X130564422Y-74778299D01*
X130623727Y-75050916D01*
X130623729Y-75050923D01*
X130668664Y-75171398D01*
X130721231Y-75312338D01*
X130721233Y-75312342D01*
X130854940Y-75557207D01*
X130854945Y-75557215D01*
X131022138Y-75780560D01*
X131022154Y-75780578D01*
X131219421Y-75977845D01*
X131219439Y-75977861D01*
X131442784Y-76145054D01*
X131442792Y-76145059D01*
X131687657Y-76278766D01*
X131687661Y-76278768D01*
X131687663Y-76278769D01*
X131949077Y-76376271D01*
X132085391Y-76405924D01*
X132221700Y-76435577D01*
X132221702Y-76435577D01*
X132221706Y-76435578D01*
X132469014Y-76453265D01*
X132499999Y-76455482D01*
X132500000Y-76455482D01*
X132500001Y-76455482D01*
X132527881Y-76453487D01*
X132778294Y-76435578D01*
X133050923Y-76376271D01*
X133312337Y-76278769D01*
X133557213Y-76145056D01*
X133780568Y-75977855D01*
X133977855Y-75780568D01*
X134145056Y-75557213D01*
X134278769Y-75312337D01*
X134376271Y-75050923D01*
X134435578Y-74778294D01*
X134455482Y-74500000D01*
X134455482Y-74499998D01*
X175044518Y-74499998D01*
X175044518Y-74500001D01*
X175064422Y-74778299D01*
X175123727Y-75050916D01*
X175123729Y-75050923D01*
X175168664Y-75171398D01*
X175221231Y-75312338D01*
X175221233Y-75312342D01*
X175354940Y-75557207D01*
X175354945Y-75557215D01*
X175522138Y-75780560D01*
X175522154Y-75780578D01*
X175719421Y-75977845D01*
X175719439Y-75977861D01*
X175942784Y-76145054D01*
X175942792Y-76145059D01*
X176187657Y-76278766D01*
X176187661Y-76278768D01*
X176187663Y-76278769D01*
X176449077Y-76376271D01*
X176585391Y-76405924D01*
X176721700Y-76435577D01*
X176721702Y-76435577D01*
X176721706Y-76435578D01*
X176969014Y-76453265D01*
X176999999Y-76455482D01*
X177000000Y-76455482D01*
X177000001Y-76455482D01*
X177027881Y-76453487D01*
X177278294Y-76435578D01*
X177550923Y-76376271D01*
X177812337Y-76278769D01*
X178057213Y-76145056D01*
X178280568Y-75977855D01*
X178477855Y-75780568D01*
X178645056Y-75557213D01*
X178778769Y-75312337D01*
X178876271Y-75050923D01*
X178935578Y-74778294D01*
X178955482Y-74500000D01*
X178935578Y-74221706D01*
X178917073Y-74136642D01*
X178876272Y-73949083D01*
X178876271Y-73949077D01*
X178778769Y-73687663D01*
X178645056Y-73442787D01*
X178645054Y-73442784D01*
X178477861Y-73219439D01*
X178477845Y-73219421D01*
X178280578Y-73022154D01*
X178280560Y-73022138D01*
X178057215Y-72854945D01*
X178057207Y-72854940D01*
X177812342Y-72721233D01*
X177812338Y-72721231D01*
X177713230Y-72684266D01*
X177550923Y-72623729D01*
X177550919Y-72623728D01*
X177550916Y-72623727D01*
X177278299Y-72564422D01*
X177000001Y-72544518D01*
X176999999Y-72544518D01*
X176721700Y-72564422D01*
X176449083Y-72623727D01*
X176449078Y-72623728D01*
X176449077Y-72623729D01*
X176385875Y-72647301D01*
X176187661Y-72721231D01*
X176187657Y-72721233D01*
X175942792Y-72854940D01*
X175942784Y-72854945D01*
X175719439Y-73022138D01*
X175719421Y-73022154D01*
X175522154Y-73219421D01*
X175522138Y-73219439D01*
X175354945Y-73442784D01*
X175354940Y-73442792D01*
X175221233Y-73687657D01*
X175221231Y-73687661D01*
X175123727Y-73949083D01*
X175064422Y-74221700D01*
X175044518Y-74499998D01*
X134455482Y-74499998D01*
X134435578Y-74221706D01*
X134417073Y-74136642D01*
X134376272Y-73949083D01*
X134376271Y-73949077D01*
X134278769Y-73687663D01*
X134145056Y-73442787D01*
X134145054Y-73442784D01*
X133977861Y-73219439D01*
X133977845Y-73219421D01*
X133780578Y-73022154D01*
X133780560Y-73022138D01*
X133557215Y-72854945D01*
X133557207Y-72854940D01*
X133312342Y-72721233D01*
X133312338Y-72721231D01*
X133213230Y-72684266D01*
X133050923Y-72623729D01*
X133050919Y-72623728D01*
X133050916Y-72623727D01*
X132778299Y-72564422D01*
X132500001Y-72544518D01*
X132499999Y-72544518D01*
X132221700Y-72564422D01*
X131949083Y-72623727D01*
X131949078Y-72623728D01*
X131949077Y-72623729D01*
X131885875Y-72647301D01*
X131687661Y-72721231D01*
X131687657Y-72721233D01*
X131442792Y-72854940D01*
X131442784Y-72854945D01*
X131219439Y-73022138D01*
X131219421Y-73022154D01*
X131022154Y-73219421D01*
X131022138Y-73219439D01*
X130854945Y-73442784D01*
X130854940Y-73442792D01*
X130721233Y-73687657D01*
X130721231Y-73687661D01*
X130623727Y-73949083D01*
X130564422Y-74221700D01*
X130544518Y-74499998D01*
X128000500Y-74499998D01*
X128000500Y-70124500D01*
X128020185Y-70057461D01*
X128072989Y-70011706D01*
X128124500Y-70000500D01*
X181875500Y-70000500D01*
X181942539Y-70020185D01*
G37*
%TD.AperFunction*%
%TD*%
M02*
