M48
; DRILL file {KiCad 8.0.6} date 2024-11-13T20:54:38-0800
; FORMAT={-:-/ absolute / inch / decimal}
; #@! TF.CreationDate,2024-11-13T20:54:38-08:00
; #@! TF.GenerationSoftware,Kicad,Pcbnew,8.0.6
; #@! TF.FileFunction,Plated,1,2,PTH
FMAT,2
INCH
; #@! TA.AperFunction,Plated,PTH,ViaDrill
T1C0.0118
; #@! TA.AperFunction,Plated,PTH,ComponentDrill
T2C0.0496
; #@! TA.AperFunction,Plated,PTH,ComponentDrill
T3C0.0949
; #@! TA.AperFunction,Plated,PTH,ComponentDrill
T4C0.1181
%
G90
G05
T1
X5.3346Y-2.9331
X5.3543Y-4.8031
X5.4203Y-2.9331
X5.44Y-4.8031
X5.506Y-2.9331
X5.5257Y-4.8031
X5.5917Y-2.9331
X5.6114Y-4.8031
X5.6774Y-2.9331
X5.6971Y-4.8031
X5.7631Y-2.9331
X5.7677Y-4.0748
X5.7677Y-4.1535
X5.7677Y-4.2323
X5.7677Y-4.311
X5.8488Y-2.9331
X5.9345Y-2.9331
X6.0201Y-2.9331
X6.1058Y-2.9331
X6.1255Y-4.8031
X6.1915Y-2.9331
X6.2112Y-4.8031
X6.2772Y-2.9331
X6.2969Y-4.8031
X6.3629Y-2.9331
X6.3826Y-4.8031
X6.4486Y-2.9331
X6.4683Y-4.8031
X6.5343Y-2.9331
X6.554Y-4.8031
X6.62Y-2.9331
X6.6396Y-4.8031
X6.7057Y-2.9331
X6.7253Y-4.8031
X6.7913Y-2.9331
X6.811Y-4.8031
X6.9685Y-3.1496
X6.9685Y-3.2353
X6.9685Y-3.321
X6.9685Y-3.4067
X6.9685Y-3.4924
X6.9685Y-3.578
X6.9685Y-3.6637
X6.9685Y-3.7494
X6.9685Y-3.8351
X6.9685Y-3.9208
X6.9685Y-4.0065
X6.9685Y-4.0922
X6.9685Y-4.1779
X6.9685Y-4.2635
X6.9685Y-4.3492
X6.9685Y-4.4349
X6.9685Y-4.5206
X6.9685Y-4.6063
T2
X6.3957Y-3.7701
X6.3957Y-3.8701
X6.3957Y-3.9701
T3
X5.3161Y-3.2087
X5.3161Y-3.4961
X5.3161Y-3.7234
X5.3161Y-4.0108
X5.3161Y-4.2382
X5.3161Y-4.5256
T4
X6.4669Y-3.4969
X6.4669Y-4.2449
M30
