%TF.GenerationSoftware,KiCad,Pcbnew,8.0.6*%
%TF.CreationDate,2024-11-13T20:54:41-08:00*%
%TF.ProjectId,Voltage_Regulator_for_ZX60-14LN-S+,566f6c74-6167-4655-9f52-6567756c6174,rev?*%
%TF.SameCoordinates,Original*%
%TF.FileFunction,Legend,Top*%
%TF.FilePolarity,Positive*%
%FSLAX46Y46*%
G04 Gerber Fmt 4.6, Leading zero omitted, Abs format (unit mm)*
G04 Created by KiCad (PCBNEW 8.0.6) date 2024-11-13 20:54:41*
%MOMM*%
%LPD*%
G01*
G04 APERTURE LIST*
%ADD10C,0.150000*%
%ADD11C,0.100000*%
%ADD12C,0.254000*%
%ADD13C,0.200000*%
%ADD14C,0.127000*%
%ADD15C,0.120000*%
G04 APERTURE END LIST*
D10*
X129405704Y-95441541D02*
X129405704Y-95593922D01*
X129405704Y-95593922D02*
X129367609Y-95670112D01*
X129367609Y-95670112D02*
X129291419Y-95746303D01*
X129291419Y-95746303D02*
X129139038Y-95784398D01*
X129139038Y-95784398D02*
X128872371Y-95784398D01*
X128872371Y-95784398D02*
X128719990Y-95746303D01*
X128719990Y-95746303D02*
X128643800Y-95670112D01*
X128643800Y-95670112D02*
X128605704Y-95593922D01*
X128605704Y-95593922D02*
X128605704Y-95441541D01*
X128605704Y-95441541D02*
X128643800Y-95365350D01*
X128643800Y-95365350D02*
X128719990Y-95289160D01*
X128719990Y-95289160D02*
X128872371Y-95251064D01*
X128872371Y-95251064D02*
X129139038Y-95251064D01*
X129139038Y-95251064D02*
X129291419Y-95289160D01*
X129291419Y-95289160D02*
X129367609Y-95365350D01*
X129367609Y-95365350D02*
X129405704Y-95441541D01*
X129139038Y-96470112D02*
X128605704Y-96470112D01*
X129139038Y-96127255D02*
X128719990Y-96127255D01*
X128719990Y-96127255D02*
X128643800Y-96165350D01*
X128643800Y-96165350D02*
X128605704Y-96241540D01*
X128605704Y-96241540D02*
X128605704Y-96355826D01*
X128605704Y-96355826D02*
X128643800Y-96432017D01*
X128643800Y-96432017D02*
X128681895Y-96470112D01*
X129139038Y-96736779D02*
X129139038Y-97041541D01*
X129405704Y-96851065D02*
X128719990Y-96851065D01*
X128719990Y-96851065D02*
X128643800Y-96889160D01*
X128643800Y-96889160D02*
X128605704Y-96965350D01*
X128605704Y-96965350D02*
X128605704Y-97041541D01*
X129139038Y-97308208D02*
X128339038Y-97308208D01*
X129100942Y-97308208D02*
X129139038Y-97384398D01*
X129139038Y-97384398D02*
X129139038Y-97536779D01*
X129139038Y-97536779D02*
X129100942Y-97612970D01*
X129100942Y-97612970D02*
X129062847Y-97651065D01*
X129062847Y-97651065D02*
X128986657Y-97689160D01*
X128986657Y-97689160D02*
X128758085Y-97689160D01*
X128758085Y-97689160D02*
X128681895Y-97651065D01*
X128681895Y-97651065D02*
X128643800Y-97612970D01*
X128643800Y-97612970D02*
X128605704Y-97536779D01*
X128605704Y-97536779D02*
X128605704Y-97384398D01*
X128605704Y-97384398D02*
X128643800Y-97308208D01*
X129139038Y-98374875D02*
X128605704Y-98374875D01*
X129139038Y-98032018D02*
X128719990Y-98032018D01*
X128719990Y-98032018D02*
X128643800Y-98070113D01*
X128643800Y-98070113D02*
X128605704Y-98146303D01*
X128605704Y-98146303D02*
X128605704Y-98260589D01*
X128605704Y-98260589D02*
X128643800Y-98336780D01*
X128643800Y-98336780D02*
X128681895Y-98374875D01*
X129139038Y-98641542D02*
X129139038Y-98946304D01*
X129405704Y-98755828D02*
X128719990Y-98755828D01*
X128719990Y-98755828D02*
X128643800Y-98793923D01*
X128643800Y-98793923D02*
X128605704Y-98870113D01*
X128605704Y-98870113D02*
X128605704Y-98946304D01*
X129405704Y-100165352D02*
X129405704Y-100012971D01*
X129405704Y-100012971D02*
X129367609Y-99936780D01*
X129367609Y-99936780D02*
X129329514Y-99898685D01*
X129329514Y-99898685D02*
X129215228Y-99822495D01*
X129215228Y-99822495D02*
X129062847Y-99784399D01*
X129062847Y-99784399D02*
X128758085Y-99784399D01*
X128758085Y-99784399D02*
X128681895Y-99822495D01*
X128681895Y-99822495D02*
X128643800Y-99860590D01*
X128643800Y-99860590D02*
X128605704Y-99936780D01*
X128605704Y-99936780D02*
X128605704Y-100089161D01*
X128605704Y-100089161D02*
X128643800Y-100165352D01*
X128643800Y-100165352D02*
X128681895Y-100203447D01*
X128681895Y-100203447D02*
X128758085Y-100241542D01*
X128758085Y-100241542D02*
X128948561Y-100241542D01*
X128948561Y-100241542D02*
X129024752Y-100203447D01*
X129024752Y-100203447D02*
X129062847Y-100165352D01*
X129062847Y-100165352D02*
X129100942Y-100089161D01*
X129100942Y-100089161D02*
X129100942Y-99936780D01*
X129100942Y-99936780D02*
X129062847Y-99860590D01*
X129062847Y-99860590D02*
X129024752Y-99822495D01*
X129024752Y-99822495D02*
X128948561Y-99784399D01*
X129405704Y-100470114D02*
X128605704Y-100736781D01*
X128605704Y-100736781D02*
X129405704Y-101003447D01*
D11*
X167256265Y-126421371D02*
X167256265Y-125821371D01*
X167256265Y-125821371D02*
X167446741Y-125821371D01*
X167446741Y-125821371D02*
X167561027Y-125849942D01*
X167561027Y-125849942D02*
X167637217Y-125907085D01*
X167637217Y-125907085D02*
X167675312Y-125964228D01*
X167675312Y-125964228D02*
X167713408Y-126078514D01*
X167713408Y-126078514D02*
X167713408Y-126164228D01*
X167713408Y-126164228D02*
X167675312Y-126278514D01*
X167675312Y-126278514D02*
X167637217Y-126335657D01*
X167637217Y-126335657D02*
X167561027Y-126392800D01*
X167561027Y-126392800D02*
X167446741Y-126421371D01*
X167446741Y-126421371D02*
X167256265Y-126421371D01*
X168361027Y-126392800D02*
X168284836Y-126421371D01*
X168284836Y-126421371D02*
X168132455Y-126421371D01*
X168132455Y-126421371D02*
X168056265Y-126392800D01*
X168056265Y-126392800D02*
X168018169Y-126335657D01*
X168018169Y-126335657D02*
X168018169Y-126107085D01*
X168018169Y-126107085D02*
X168056265Y-126049942D01*
X168056265Y-126049942D02*
X168132455Y-126021371D01*
X168132455Y-126021371D02*
X168284836Y-126021371D01*
X168284836Y-126021371D02*
X168361027Y-126049942D01*
X168361027Y-126049942D02*
X168399122Y-126107085D01*
X168399122Y-126107085D02*
X168399122Y-126164228D01*
X168399122Y-126164228D02*
X168018169Y-126221371D01*
X168703883Y-126392800D02*
X168780074Y-126421371D01*
X168780074Y-126421371D02*
X168932455Y-126421371D01*
X168932455Y-126421371D02*
X169008645Y-126392800D01*
X169008645Y-126392800D02*
X169046741Y-126335657D01*
X169046741Y-126335657D02*
X169046741Y-126307085D01*
X169046741Y-126307085D02*
X169008645Y-126249942D01*
X169008645Y-126249942D02*
X168932455Y-126221371D01*
X168932455Y-126221371D02*
X168818169Y-126221371D01*
X168818169Y-126221371D02*
X168741979Y-126192800D01*
X168741979Y-126192800D02*
X168703883Y-126135657D01*
X168703883Y-126135657D02*
X168703883Y-126107085D01*
X168703883Y-126107085D02*
X168741979Y-126049942D01*
X168741979Y-126049942D02*
X168818169Y-126021371D01*
X168818169Y-126021371D02*
X168932455Y-126021371D01*
X168932455Y-126021371D02*
X169008645Y-126049942D01*
X169389598Y-126421371D02*
X169389598Y-126021371D01*
X169389598Y-125821371D02*
X169351502Y-125849942D01*
X169351502Y-125849942D02*
X169389598Y-125878514D01*
X169389598Y-125878514D02*
X169427693Y-125849942D01*
X169427693Y-125849942D02*
X169389598Y-125821371D01*
X169389598Y-125821371D02*
X169389598Y-125878514D01*
X170113407Y-126021371D02*
X170113407Y-126507085D01*
X170113407Y-126507085D02*
X170075312Y-126564228D01*
X170075312Y-126564228D02*
X170037216Y-126592800D01*
X170037216Y-126592800D02*
X169961026Y-126621371D01*
X169961026Y-126621371D02*
X169846740Y-126621371D01*
X169846740Y-126621371D02*
X169770550Y-126592800D01*
X170113407Y-126392800D02*
X170037216Y-126421371D01*
X170037216Y-126421371D02*
X169884835Y-126421371D01*
X169884835Y-126421371D02*
X169808645Y-126392800D01*
X169808645Y-126392800D02*
X169770550Y-126364228D01*
X169770550Y-126364228D02*
X169732454Y-126307085D01*
X169732454Y-126307085D02*
X169732454Y-126135657D01*
X169732454Y-126135657D02*
X169770550Y-126078514D01*
X169770550Y-126078514D02*
X169808645Y-126049942D01*
X169808645Y-126049942D02*
X169884835Y-126021371D01*
X169884835Y-126021371D02*
X170037216Y-126021371D01*
X170037216Y-126021371D02*
X170113407Y-126049942D01*
X170494360Y-126021371D02*
X170494360Y-126421371D01*
X170494360Y-126078514D02*
X170532455Y-126049942D01*
X170532455Y-126049942D02*
X170608645Y-126021371D01*
X170608645Y-126021371D02*
X170722931Y-126021371D01*
X170722931Y-126021371D02*
X170799122Y-126049942D01*
X170799122Y-126049942D02*
X170837217Y-126107085D01*
X170837217Y-126107085D02*
X170837217Y-126421371D01*
X171522932Y-126392800D02*
X171446741Y-126421371D01*
X171446741Y-126421371D02*
X171294360Y-126421371D01*
X171294360Y-126421371D02*
X171218170Y-126392800D01*
X171218170Y-126392800D02*
X171180074Y-126335657D01*
X171180074Y-126335657D02*
X171180074Y-126107085D01*
X171180074Y-126107085D02*
X171218170Y-126049942D01*
X171218170Y-126049942D02*
X171294360Y-126021371D01*
X171294360Y-126021371D02*
X171446741Y-126021371D01*
X171446741Y-126021371D02*
X171522932Y-126049942D01*
X171522932Y-126049942D02*
X171561027Y-126107085D01*
X171561027Y-126107085D02*
X171561027Y-126164228D01*
X171561027Y-126164228D02*
X171180074Y-126221371D01*
X172246741Y-126421371D02*
X172246741Y-125821371D01*
X172246741Y-126392800D02*
X172170550Y-126421371D01*
X172170550Y-126421371D02*
X172018169Y-126421371D01*
X172018169Y-126421371D02*
X171941979Y-126392800D01*
X171941979Y-126392800D02*
X171903884Y-126364228D01*
X171903884Y-126364228D02*
X171865788Y-126307085D01*
X171865788Y-126307085D02*
X171865788Y-126135657D01*
X171865788Y-126135657D02*
X171903884Y-126078514D01*
X171903884Y-126078514D02*
X171941979Y-126049942D01*
X171941979Y-126049942D02*
X172018169Y-126021371D01*
X172018169Y-126021371D02*
X172170550Y-126021371D01*
X172170550Y-126021371D02*
X172246741Y-126049942D01*
X173237218Y-126421371D02*
X173237218Y-125821371D01*
X173237218Y-126049942D02*
X173313408Y-126021371D01*
X173313408Y-126021371D02*
X173465789Y-126021371D01*
X173465789Y-126021371D02*
X173541980Y-126049942D01*
X173541980Y-126049942D02*
X173580075Y-126078514D01*
X173580075Y-126078514D02*
X173618170Y-126135657D01*
X173618170Y-126135657D02*
X173618170Y-126307085D01*
X173618170Y-126307085D02*
X173580075Y-126364228D01*
X173580075Y-126364228D02*
X173541980Y-126392800D01*
X173541980Y-126392800D02*
X173465789Y-126421371D01*
X173465789Y-126421371D02*
X173313408Y-126421371D01*
X173313408Y-126421371D02*
X173237218Y-126392800D01*
X173884837Y-126021371D02*
X174075313Y-126421371D01*
X174265790Y-126021371D02*
X174075313Y-126421371D01*
X174075313Y-126421371D02*
X173999123Y-126564228D01*
X173999123Y-126564228D02*
X173961028Y-126592800D01*
X173961028Y-126592800D02*
X173884837Y-126621371D01*
X175180076Y-126421371D02*
X175180076Y-125821371D01*
X175180076Y-125821371D02*
X175484838Y-125821371D01*
X175484838Y-125821371D02*
X175561028Y-125849942D01*
X175561028Y-125849942D02*
X175599123Y-125878514D01*
X175599123Y-125878514D02*
X175637219Y-125935657D01*
X175637219Y-125935657D02*
X175637219Y-126021371D01*
X175637219Y-126021371D02*
X175599123Y-126078514D01*
X175599123Y-126078514D02*
X175561028Y-126107085D01*
X175561028Y-126107085D02*
X175484838Y-126135657D01*
X175484838Y-126135657D02*
X175180076Y-126135657D01*
X176322933Y-126421371D02*
X176322933Y-126107085D01*
X176322933Y-126107085D02*
X176284838Y-126049942D01*
X176284838Y-126049942D02*
X176208647Y-126021371D01*
X176208647Y-126021371D02*
X176056266Y-126021371D01*
X176056266Y-126021371D02*
X175980076Y-126049942D01*
X176322933Y-126392800D02*
X176246742Y-126421371D01*
X176246742Y-126421371D02*
X176056266Y-126421371D01*
X176056266Y-126421371D02*
X175980076Y-126392800D01*
X175980076Y-126392800D02*
X175941980Y-126335657D01*
X175941980Y-126335657D02*
X175941980Y-126278514D01*
X175941980Y-126278514D02*
X175980076Y-126221371D01*
X175980076Y-126221371D02*
X176056266Y-126192800D01*
X176056266Y-126192800D02*
X176246742Y-126192800D01*
X176246742Y-126192800D02*
X176322933Y-126164228D01*
X177046743Y-126021371D02*
X177046743Y-126421371D01*
X176703886Y-126021371D02*
X176703886Y-126335657D01*
X176703886Y-126335657D02*
X176741981Y-126392800D01*
X176741981Y-126392800D02*
X176818171Y-126421371D01*
X176818171Y-126421371D02*
X176932457Y-126421371D01*
X176932457Y-126421371D02*
X177008648Y-126392800D01*
X177008648Y-126392800D02*
X177046743Y-126364228D01*
X177541981Y-126421371D02*
X177465791Y-126392800D01*
X177465791Y-126392800D02*
X177427696Y-126335657D01*
X177427696Y-126335657D02*
X177427696Y-125821371D01*
X178837220Y-126421371D02*
X178456268Y-126421371D01*
X178456268Y-126421371D02*
X178456268Y-125821371D01*
X179103887Y-126421371D02*
X179103887Y-126021371D01*
X179103887Y-125821371D02*
X179065791Y-125849942D01*
X179065791Y-125849942D02*
X179103887Y-125878514D01*
X179103887Y-125878514D02*
X179141982Y-125849942D01*
X179141982Y-125849942D02*
X179103887Y-125821371D01*
X179103887Y-125821371D02*
X179103887Y-125878514D01*
X179484839Y-126021371D02*
X179484839Y-126421371D01*
X179484839Y-126078514D02*
X179522934Y-126049942D01*
X179522934Y-126049942D02*
X179599124Y-126021371D01*
X179599124Y-126021371D02*
X179713410Y-126021371D01*
X179713410Y-126021371D02*
X179789601Y-126049942D01*
X179789601Y-126049942D02*
X179827696Y-126107085D01*
X179827696Y-126107085D02*
X179827696Y-126421371D01*
X180208649Y-126421371D02*
X180208649Y-125821371D01*
X180284839Y-126192800D02*
X180513411Y-126421371D01*
X180513411Y-126021371D02*
X180208649Y-126249942D01*
X181161030Y-126392800D02*
X181084839Y-126421371D01*
X181084839Y-126421371D02*
X180932458Y-126421371D01*
X180932458Y-126421371D02*
X180856268Y-126392800D01*
X180856268Y-126392800D02*
X180818172Y-126335657D01*
X180818172Y-126335657D02*
X180818172Y-126107085D01*
X180818172Y-126107085D02*
X180856268Y-126049942D01*
X180856268Y-126049942D02*
X180932458Y-126021371D01*
X180932458Y-126021371D02*
X181084839Y-126021371D01*
X181084839Y-126021371D02*
X181161030Y-126049942D01*
X181161030Y-126049942D02*
X181199125Y-126107085D01*
X181199125Y-126107085D02*
X181199125Y-126164228D01*
X181199125Y-126164228D02*
X180818172Y-126221371D01*
D10*
G36*
X152082829Y-119694029D02*
G01*
X152103711Y-119714911D01*
X152132681Y-119772851D01*
X152166541Y-119908290D01*
X152166541Y-120080299D01*
X152132681Y-120215738D01*
X152103711Y-120273677D01*
X152082828Y-120294561D01*
X152033360Y-120319295D01*
X151992580Y-120319295D01*
X151943111Y-120294561D01*
X151922228Y-120273677D01*
X151893258Y-120215737D01*
X151859398Y-120080297D01*
X151859398Y-119908292D01*
X151893258Y-119772851D01*
X151922228Y-119714911D01*
X151943110Y-119694029D01*
X151992580Y-119669295D01*
X152033360Y-119669295D01*
X152082829Y-119694029D01*
G37*
G36*
X152844734Y-119694029D02*
G01*
X152865616Y-119714911D01*
X152894586Y-119772851D01*
X152928446Y-119908290D01*
X152928446Y-120080299D01*
X152894586Y-120215738D01*
X152865616Y-120273677D01*
X152844733Y-120294561D01*
X152795265Y-120319295D01*
X152754485Y-120319295D01*
X152705016Y-120294561D01*
X152684133Y-120273677D01*
X152655163Y-120215737D01*
X152621303Y-120080297D01*
X152621303Y-119908292D01*
X152655163Y-119772851D01*
X152684133Y-119714911D01*
X152705015Y-119694029D01*
X152754485Y-119669295D01*
X152795265Y-119669295D01*
X152844734Y-119694029D01*
G37*
G36*
X147625685Y-119694029D02*
G01*
X147646568Y-119714912D01*
X147671303Y-119764381D01*
X147671303Y-119843255D01*
X147646568Y-119892724D01*
X147625685Y-119913608D01*
X147576217Y-119938342D01*
X147364160Y-119938342D01*
X147364160Y-119669295D01*
X147576217Y-119669295D01*
X147625685Y-119694029D01*
G37*
G36*
X147625685Y-118406074D02*
G01*
X147646568Y-118426957D01*
X147671303Y-118476426D01*
X147671303Y-118555300D01*
X147646568Y-118604769D01*
X147625685Y-118625653D01*
X147576217Y-118650387D01*
X147364160Y-118650387D01*
X147364160Y-118381340D01*
X147576217Y-118381340D01*
X147625685Y-118406074D01*
G37*
G36*
X154691145Y-120558184D02*
G01*
X147125271Y-120558184D01*
X147125271Y-119594295D01*
X147214160Y-119594295D01*
X147214160Y-120394295D01*
X147215601Y-120408927D01*
X147226800Y-120435963D01*
X147247492Y-120456655D01*
X147274528Y-120467854D01*
X147303792Y-120467854D01*
X147330828Y-120456655D01*
X147351520Y-120435963D01*
X147362719Y-120408927D01*
X147364160Y-120394295D01*
X147364160Y-120088342D01*
X147440587Y-120088342D01*
X147684860Y-120437304D01*
X147694432Y-120448465D01*
X147719111Y-120464192D01*
X147747928Y-120469277D01*
X147776499Y-120462948D01*
X147800473Y-120446166D01*
X147816200Y-120421487D01*
X147821285Y-120392669D01*
X147818404Y-120379663D01*
X147939410Y-120379663D01*
X147939410Y-120408927D01*
X147950609Y-120435963D01*
X147971301Y-120456655D01*
X147998337Y-120467854D01*
X148012969Y-120469295D01*
X148508207Y-120469295D01*
X148522839Y-120467854D01*
X148549875Y-120456655D01*
X148570567Y-120435963D01*
X148581766Y-120408927D01*
X148581766Y-120379663D01*
X148570567Y-120352627D01*
X148549875Y-120331935D01*
X148522839Y-120320736D01*
X148508207Y-120319295D01*
X148194035Y-120319295D01*
X148324143Y-120189187D01*
X149387030Y-120189187D01*
X149387030Y-120218451D01*
X149398229Y-120245487D01*
X149418921Y-120266179D01*
X149445957Y-120277378D01*
X149460589Y-120278819D01*
X150070113Y-120278819D01*
X150084745Y-120277378D01*
X150111781Y-120266179D01*
X150132473Y-120245487D01*
X150143672Y-120218451D01*
X150143672Y-120189187D01*
X150132473Y-120162151D01*
X150111781Y-120141459D01*
X150084745Y-120130260D01*
X150070113Y-120128819D01*
X149460589Y-120128819D01*
X149445957Y-120130260D01*
X149418921Y-120141459D01*
X149398229Y-120162151D01*
X149387030Y-120189187D01*
X148324143Y-120189187D01*
X148523145Y-119990185D01*
X148532473Y-119978820D01*
X148533505Y-119976327D01*
X148535269Y-119974294D01*
X148541263Y-119960869D01*
X148541348Y-119960615D01*
X149387030Y-119960615D01*
X149387030Y-119989879D01*
X149398229Y-120016915D01*
X149418921Y-120037607D01*
X149445957Y-120048806D01*
X149460589Y-120050247D01*
X150070113Y-120050247D01*
X150084745Y-120048806D01*
X150111781Y-120037607D01*
X150132473Y-120016915D01*
X150143672Y-119989879D01*
X150143672Y-119960615D01*
X150132473Y-119933579D01*
X150111781Y-119912887D01*
X150084745Y-119901688D01*
X150070113Y-119900247D01*
X149460589Y-119900247D01*
X149445957Y-119901688D01*
X149418921Y-119912887D01*
X149398229Y-119933579D01*
X149387030Y-119960615D01*
X148541348Y-119960615D01*
X148579358Y-119846583D01*
X148581007Y-119839329D01*
X148581766Y-119837498D01*
X148582027Y-119834843D01*
X148582618Y-119832246D01*
X148582477Y-119830271D01*
X148583207Y-119822866D01*
X148583207Y-119746676D01*
X148581766Y-119732044D01*
X148580734Y-119729554D01*
X148580544Y-119726867D01*
X148575289Y-119713135D01*
X148537194Y-119636944D01*
X148533229Y-119630644D01*
X148532472Y-119628817D01*
X148530783Y-119626760D01*
X148529362Y-119624501D01*
X148527863Y-119623201D01*
X148523145Y-119617452D01*
X148485356Y-119579663D01*
X150910839Y-119579663D01*
X150910839Y-119608927D01*
X150922038Y-119635963D01*
X150942730Y-119656655D01*
X150969766Y-119667854D01*
X150984398Y-119669295D01*
X151314354Y-119669295D01*
X151156527Y-119849669D01*
X151152005Y-119855993D01*
X151150610Y-119857389D01*
X151150061Y-119858712D01*
X151147976Y-119861630D01*
X151144074Y-119873167D01*
X151139411Y-119884425D01*
X151139411Y-119886955D01*
X151138601Y-119889351D01*
X151139411Y-119901504D01*
X151139411Y-119913689D01*
X151140378Y-119916025D01*
X151140547Y-119918549D01*
X151145949Y-119929474D01*
X151150610Y-119940725D01*
X151152396Y-119942511D01*
X151153519Y-119944781D01*
X151162691Y-119952806D01*
X151171302Y-119961417D01*
X151173638Y-119962385D01*
X151175543Y-119964051D01*
X151187080Y-119967952D01*
X151198338Y-119972616D01*
X151201908Y-119972967D01*
X151203264Y-119973426D01*
X151205231Y-119973294D01*
X151212970Y-119974057D01*
X151309550Y-119974057D01*
X151359019Y-119998791D01*
X151379901Y-120019673D01*
X151404636Y-120069142D01*
X151404636Y-120224209D01*
X151379901Y-120273677D01*
X151359018Y-120294561D01*
X151309550Y-120319295D01*
X151116389Y-120319295D01*
X151066920Y-120294561D01*
X151037432Y-120265072D01*
X151026066Y-120255744D01*
X150999030Y-120244545D01*
X150969768Y-120244545D01*
X150942731Y-120255743D01*
X150922038Y-120276436D01*
X150910839Y-120303472D01*
X150910839Y-120332734D01*
X150922037Y-120359771D01*
X150931364Y-120371136D01*
X150969459Y-120409232D01*
X150975210Y-120413952D01*
X150976509Y-120415450D01*
X150978764Y-120416869D01*
X150980824Y-120418560D01*
X150982654Y-120419318D01*
X150988952Y-120423282D01*
X151065143Y-120461377D01*
X151078875Y-120466632D01*
X151081562Y-120466822D01*
X151084052Y-120467854D01*
X151098684Y-120469295D01*
X151327255Y-120469295D01*
X151341887Y-120467854D01*
X151344376Y-120466822D01*
X151347064Y-120466632D01*
X151360796Y-120461377D01*
X151436987Y-120423282D01*
X151443286Y-120419317D01*
X151445114Y-120418560D01*
X151447170Y-120416872D01*
X151449430Y-120415450D01*
X151450730Y-120413950D01*
X151456480Y-120409232D01*
X151494575Y-120371136D01*
X151499292Y-120365387D01*
X151500791Y-120364088D01*
X151502212Y-120361829D01*
X151503902Y-120359771D01*
X151504659Y-120357941D01*
X151508623Y-120351645D01*
X151546718Y-120275455D01*
X151551973Y-120261723D01*
X151552163Y-120259035D01*
X151553195Y-120256546D01*
X151554636Y-120241914D01*
X151554636Y-120051438D01*
X151553195Y-120036806D01*
X151552163Y-120034316D01*
X151551973Y-120031629D01*
X151546718Y-120017897D01*
X151508623Y-119941706D01*
X151504658Y-119935406D01*
X151503901Y-119933579D01*
X151502212Y-119931522D01*
X151500791Y-119929263D01*
X151499292Y-119927963D01*
X151494574Y-119922214D01*
X151471417Y-119899057D01*
X151709398Y-119899057D01*
X151709398Y-120089533D01*
X151709649Y-120092086D01*
X151709487Y-120093179D01*
X151710296Y-120098653D01*
X151710839Y-120104165D01*
X151711261Y-120105185D01*
X151711637Y-120107724D01*
X151749733Y-120260105D01*
X151750118Y-120261184D01*
X151750157Y-120261723D01*
X151752481Y-120267798D01*
X151754680Y-120273950D01*
X151755002Y-120274385D01*
X151755412Y-120275455D01*
X151793507Y-120351645D01*
X151797470Y-120357941D01*
X151798228Y-120359771D01*
X151799917Y-120361829D01*
X151801339Y-120364088D01*
X151802837Y-120365387D01*
X151807555Y-120371136D01*
X151845650Y-120409232D01*
X151851401Y-120413952D01*
X151852700Y-120415450D01*
X151854955Y-120416869D01*
X151857015Y-120418560D01*
X151858845Y-120419318D01*
X151865143Y-120423282D01*
X151941334Y-120461377D01*
X151955066Y-120466632D01*
X151957753Y-120466822D01*
X151960243Y-120467854D01*
X151974875Y-120469295D01*
X152051065Y-120469295D01*
X152065697Y-120467854D01*
X152068186Y-120466822D01*
X152070874Y-120466632D01*
X152084606Y-120461377D01*
X152160797Y-120423282D01*
X152167096Y-120419317D01*
X152168924Y-120418560D01*
X152170980Y-120416872D01*
X152173240Y-120415450D01*
X152174540Y-120413950D01*
X152180290Y-120409232D01*
X152218385Y-120371136D01*
X152223102Y-120365387D01*
X152224601Y-120364088D01*
X152226022Y-120361829D01*
X152227712Y-120359771D01*
X152228469Y-120357941D01*
X152232433Y-120351645D01*
X152270528Y-120275455D01*
X152270937Y-120274385D01*
X152271260Y-120273950D01*
X152273455Y-120267804D01*
X152275783Y-120261723D01*
X152275821Y-120261183D01*
X152276207Y-120260104D01*
X152314302Y-120107723D01*
X152314677Y-120105185D01*
X152315100Y-120104165D01*
X152315641Y-120098662D01*
X152316453Y-120093178D01*
X152316289Y-120092082D01*
X152316541Y-120089533D01*
X152316541Y-119899057D01*
X152471303Y-119899057D01*
X152471303Y-120089533D01*
X152471554Y-120092086D01*
X152471392Y-120093179D01*
X152472201Y-120098653D01*
X152472744Y-120104165D01*
X152473166Y-120105185D01*
X152473542Y-120107724D01*
X152511638Y-120260105D01*
X152512023Y-120261184D01*
X152512062Y-120261723D01*
X152514386Y-120267798D01*
X152516585Y-120273950D01*
X152516907Y-120274385D01*
X152517317Y-120275455D01*
X152555412Y-120351645D01*
X152559375Y-120357941D01*
X152560133Y-120359771D01*
X152561822Y-120361829D01*
X152563244Y-120364088D01*
X152564742Y-120365387D01*
X152569460Y-120371136D01*
X152607555Y-120409232D01*
X152613306Y-120413952D01*
X152614605Y-120415450D01*
X152616860Y-120416869D01*
X152618920Y-120418560D01*
X152620750Y-120419318D01*
X152627048Y-120423282D01*
X152703239Y-120461377D01*
X152716971Y-120466632D01*
X152719658Y-120466822D01*
X152722148Y-120467854D01*
X152736780Y-120469295D01*
X152812970Y-120469295D01*
X152827602Y-120467854D01*
X152830091Y-120466822D01*
X152832779Y-120466632D01*
X152846511Y-120461377D01*
X152922702Y-120423282D01*
X152929001Y-120419317D01*
X152930829Y-120418560D01*
X152932885Y-120416872D01*
X152935145Y-120415450D01*
X152936445Y-120413950D01*
X152942195Y-120409232D01*
X152980290Y-120371136D01*
X152985007Y-120365387D01*
X152986506Y-120364088D01*
X152987927Y-120361829D01*
X152989617Y-120359771D01*
X152990374Y-120357941D01*
X152994338Y-120351645D01*
X153032433Y-120275455D01*
X153032842Y-120274385D01*
X153033165Y-120273950D01*
X153035360Y-120267804D01*
X153037688Y-120261723D01*
X153037726Y-120261183D01*
X153038112Y-120260104D01*
X153076207Y-120107723D01*
X153076582Y-120105185D01*
X153077005Y-120104165D01*
X153077546Y-120098662D01*
X153078358Y-120093178D01*
X153078194Y-120092082D01*
X153078446Y-120089533D01*
X153078446Y-119899057D01*
X153078194Y-119896507D01*
X153078358Y-119895412D01*
X153077546Y-119889927D01*
X153077005Y-119884425D01*
X153076582Y-119883404D01*
X153076207Y-119880867D01*
X153061707Y-119822866D01*
X153842732Y-119822866D01*
X153842732Y-120013342D01*
X153843461Y-120020747D01*
X153843321Y-120022723D01*
X153843911Y-120025320D01*
X153844173Y-120027974D01*
X153844931Y-120029804D01*
X153846581Y-120037059D01*
X153884677Y-120151345D01*
X153890671Y-120164771D01*
X153892436Y-120166806D01*
X153893467Y-120169295D01*
X153902795Y-120180661D01*
X153978985Y-120256852D01*
X153984734Y-120261570D01*
X153986034Y-120263069D01*
X153988293Y-120264490D01*
X153990350Y-120266179D01*
X153992177Y-120266936D01*
X153998477Y-120270901D01*
X154033209Y-120288266D01*
X154033209Y-120319295D01*
X153917732Y-120319295D01*
X153903100Y-120320736D01*
X153876064Y-120331935D01*
X153855372Y-120352627D01*
X153844173Y-120379663D01*
X153844173Y-120408927D01*
X153855372Y-120435963D01*
X153876064Y-120456655D01*
X153903100Y-120467854D01*
X153917732Y-120469295D01*
X154108209Y-120469295D01*
X154122841Y-120467854D01*
X154149877Y-120456655D01*
X154170569Y-120435963D01*
X154181768Y-120408927D01*
X154181768Y-120408926D01*
X154183209Y-120394295D01*
X154183209Y-120241914D01*
X154182479Y-120234508D01*
X154182620Y-120232533D01*
X154182144Y-120231107D01*
X154181768Y-120227282D01*
X154177166Y-120216174D01*
X154173366Y-120204772D01*
X154171600Y-120202736D01*
X154170569Y-120200246D01*
X154162071Y-120191748D01*
X154154193Y-120182664D01*
X154150938Y-120180615D01*
X154149877Y-120179554D01*
X154148049Y-120178796D01*
X154141750Y-120174832D01*
X154076445Y-120142179D01*
X154021380Y-120087114D01*
X153992732Y-120001171D01*
X153992732Y-119835036D01*
X154021380Y-119749093D01*
X154072531Y-119697942D01*
X154158474Y-119669295D01*
X154286515Y-119669295D01*
X154372457Y-119697942D01*
X154423608Y-119749093D01*
X154452256Y-119835035D01*
X154452256Y-120001172D01*
X154423608Y-120087114D01*
X154368543Y-120142179D01*
X154303239Y-120174832D01*
X154296939Y-120178796D01*
X154295112Y-120179554D01*
X154294050Y-120180615D01*
X154290796Y-120182664D01*
X154282917Y-120191748D01*
X154274420Y-120200246D01*
X154273388Y-120202736D01*
X154271623Y-120204772D01*
X154267822Y-120216174D01*
X154263221Y-120227282D01*
X154262844Y-120231107D01*
X154262369Y-120232533D01*
X154262509Y-120234508D01*
X154261780Y-120241914D01*
X154261780Y-120394295D01*
X154263221Y-120408926D01*
X154263221Y-120408927D01*
X154274420Y-120435963D01*
X154295112Y-120456655D01*
X154322148Y-120467854D01*
X154336780Y-120469295D01*
X154527256Y-120469295D01*
X154541888Y-120467854D01*
X154568924Y-120456655D01*
X154589616Y-120435963D01*
X154600815Y-120408927D01*
X154600815Y-120379663D01*
X154589616Y-120352627D01*
X154568924Y-120331935D01*
X154541888Y-120320736D01*
X154527256Y-120319295D01*
X154411780Y-120319295D01*
X154411780Y-120288266D01*
X154446512Y-120270901D01*
X154452811Y-120266936D01*
X154454639Y-120266179D01*
X154456695Y-120264490D01*
X154458955Y-120263069D01*
X154460254Y-120261570D01*
X154466004Y-120256852D01*
X154542195Y-120180660D01*
X154551522Y-120169295D01*
X154552553Y-120166804D01*
X154554318Y-120164770D01*
X154560312Y-120151345D01*
X154598407Y-120037059D01*
X154600056Y-120029805D01*
X154600815Y-120027974D01*
X154601076Y-120025319D01*
X154601667Y-120022722D01*
X154601526Y-120020747D01*
X154602256Y-120013342D01*
X154602256Y-119822866D01*
X154601526Y-119815460D01*
X154601667Y-119813486D01*
X154601076Y-119810888D01*
X154600815Y-119808234D01*
X154600056Y-119806402D01*
X154598407Y-119799149D01*
X154560312Y-119684863D01*
X154554318Y-119671438D01*
X154552554Y-119669404D01*
X154551522Y-119666912D01*
X154542194Y-119655547D01*
X154466004Y-119579357D01*
X154454639Y-119570030D01*
X154452148Y-119568998D01*
X154450113Y-119567233D01*
X154436688Y-119561239D01*
X154322402Y-119523144D01*
X154315148Y-119521494D01*
X154313317Y-119520736D01*
X154310662Y-119520474D01*
X154308065Y-119519884D01*
X154306090Y-119520024D01*
X154298685Y-119519295D01*
X154146304Y-119519295D01*
X154138898Y-119520024D01*
X154136924Y-119519884D01*
X154134326Y-119520474D01*
X154131672Y-119520736D01*
X154129840Y-119521494D01*
X154122587Y-119523144D01*
X154008301Y-119561239D01*
X153994876Y-119567233D01*
X153992842Y-119568996D01*
X153990350Y-119570029D01*
X153978985Y-119579357D01*
X153902795Y-119655547D01*
X153893468Y-119666912D01*
X153892437Y-119669400D01*
X153890671Y-119671437D01*
X153884677Y-119684863D01*
X153846581Y-119799149D01*
X153844931Y-119806403D01*
X153844173Y-119808234D01*
X153843911Y-119810887D01*
X153843321Y-119813485D01*
X153843461Y-119815460D01*
X153842732Y-119822866D01*
X153061707Y-119822866D01*
X153038112Y-119728486D01*
X153037726Y-119727406D01*
X153037688Y-119726867D01*
X153035360Y-119720785D01*
X153033165Y-119714640D01*
X153032842Y-119714204D01*
X153032433Y-119713135D01*
X152994338Y-119636944D01*
X152990373Y-119630644D01*
X152989616Y-119628817D01*
X152987927Y-119626760D01*
X152986506Y-119624501D01*
X152985007Y-119623201D01*
X152980289Y-119617452D01*
X152942194Y-119579357D01*
X152936444Y-119574638D01*
X152935145Y-119573140D01*
X152932885Y-119571718D01*
X152930829Y-119570030D01*
X152929001Y-119569272D01*
X152922702Y-119565308D01*
X152846511Y-119527213D01*
X152832779Y-119521958D01*
X152830091Y-119521767D01*
X152827602Y-119520736D01*
X152812970Y-119519295D01*
X152736780Y-119519295D01*
X152722148Y-119520736D01*
X152719658Y-119521767D01*
X152716971Y-119521958D01*
X152703239Y-119527213D01*
X152627048Y-119565308D01*
X152620748Y-119569272D01*
X152618921Y-119570030D01*
X152616864Y-119571718D01*
X152614605Y-119573140D01*
X152613305Y-119574638D01*
X152607556Y-119579357D01*
X152569461Y-119617452D01*
X152564742Y-119623201D01*
X152563244Y-119624501D01*
X152561822Y-119626760D01*
X152560134Y-119628817D01*
X152559376Y-119630644D01*
X152555412Y-119636944D01*
X152517317Y-119713135D01*
X152516907Y-119714204D01*
X152516585Y-119714640D01*
X152514386Y-119720791D01*
X152512062Y-119726867D01*
X152512023Y-119727405D01*
X152511638Y-119728485D01*
X152473542Y-119880866D01*
X152473166Y-119883404D01*
X152472744Y-119884425D01*
X152472201Y-119889936D01*
X152471392Y-119895411D01*
X152471554Y-119896503D01*
X152471303Y-119899057D01*
X152316541Y-119899057D01*
X152316289Y-119896507D01*
X152316453Y-119895412D01*
X152315641Y-119889927D01*
X152315100Y-119884425D01*
X152314677Y-119883404D01*
X152314302Y-119880867D01*
X152276207Y-119728486D01*
X152275821Y-119727406D01*
X152275783Y-119726867D01*
X152273455Y-119720785D01*
X152271260Y-119714640D01*
X152270937Y-119714204D01*
X152270528Y-119713135D01*
X152232433Y-119636944D01*
X152228468Y-119630644D01*
X152227711Y-119628817D01*
X152226022Y-119626760D01*
X152224601Y-119624501D01*
X152223102Y-119623201D01*
X152218384Y-119617452D01*
X152180289Y-119579357D01*
X152174539Y-119574638D01*
X152173240Y-119573140D01*
X152170980Y-119571718D01*
X152168924Y-119570030D01*
X152167096Y-119569272D01*
X152160797Y-119565308D01*
X152084606Y-119527213D01*
X152070874Y-119521958D01*
X152068186Y-119521767D01*
X152065697Y-119520736D01*
X152051065Y-119519295D01*
X151974875Y-119519295D01*
X151960243Y-119520736D01*
X151957753Y-119521767D01*
X151955066Y-119521958D01*
X151941334Y-119527213D01*
X151865143Y-119565308D01*
X151858843Y-119569272D01*
X151857016Y-119570030D01*
X151854959Y-119571718D01*
X151852700Y-119573140D01*
X151851400Y-119574638D01*
X151845651Y-119579357D01*
X151807556Y-119617452D01*
X151802837Y-119623201D01*
X151801339Y-119624501D01*
X151799917Y-119626760D01*
X151798229Y-119628817D01*
X151797471Y-119630644D01*
X151793507Y-119636944D01*
X151755412Y-119713135D01*
X151755002Y-119714204D01*
X151754680Y-119714640D01*
X151752481Y-119720791D01*
X151750157Y-119726867D01*
X151750118Y-119727405D01*
X151749733Y-119728485D01*
X151711637Y-119880866D01*
X151711261Y-119883404D01*
X151710839Y-119884425D01*
X151710296Y-119889936D01*
X151709487Y-119895411D01*
X151709649Y-119896503D01*
X151709398Y-119899057D01*
X151471417Y-119899057D01*
X151456479Y-119884119D01*
X151450729Y-119879400D01*
X151449430Y-119877902D01*
X151447170Y-119876480D01*
X151445114Y-119874792D01*
X151443286Y-119874034D01*
X151436987Y-119870070D01*
X151368119Y-119835636D01*
X151536080Y-119643682D01*
X151540600Y-119637358D01*
X151541996Y-119635963D01*
X151542544Y-119634639D01*
X151544630Y-119631722D01*
X151548534Y-119620178D01*
X151553195Y-119608927D01*
X151553195Y-119606398D01*
X151554006Y-119604001D01*
X151553195Y-119591838D01*
X151553195Y-119579663D01*
X151552227Y-119577326D01*
X151552059Y-119574802D01*
X151546654Y-119563874D01*
X151541996Y-119552627D01*
X151540209Y-119550840D01*
X151539087Y-119548571D01*
X151529914Y-119540545D01*
X151521304Y-119531935D01*
X151518967Y-119530966D01*
X151517063Y-119529301D01*
X151505519Y-119525396D01*
X151494268Y-119520736D01*
X151490701Y-119520384D01*
X151489342Y-119519925D01*
X151487368Y-119520056D01*
X151479636Y-119519295D01*
X150984398Y-119519295D01*
X150969766Y-119520736D01*
X150942730Y-119531935D01*
X150922038Y-119552627D01*
X150910839Y-119579663D01*
X148485356Y-119579663D01*
X148485050Y-119579357D01*
X148479300Y-119574638D01*
X148478001Y-119573140D01*
X148475741Y-119571718D01*
X148473685Y-119570030D01*
X148471857Y-119569272D01*
X148465558Y-119565308D01*
X148389367Y-119527213D01*
X148375635Y-119521958D01*
X148372947Y-119521767D01*
X148370458Y-119520736D01*
X148355826Y-119519295D01*
X148165350Y-119519295D01*
X148150718Y-119520736D01*
X148148228Y-119521767D01*
X148145541Y-119521958D01*
X148131809Y-119527213D01*
X148055619Y-119565308D01*
X148049322Y-119569271D01*
X148047493Y-119570029D01*
X148045434Y-119571718D01*
X148043176Y-119573140D01*
X148041876Y-119574638D01*
X148036128Y-119579356D01*
X147998032Y-119617451D01*
X147988704Y-119628817D01*
X147977505Y-119655853D01*
X147977505Y-119685115D01*
X147988703Y-119712152D01*
X148009396Y-119732845D01*
X148036432Y-119744044D01*
X148065694Y-119744044D01*
X148092731Y-119732846D01*
X148104096Y-119723519D01*
X148133586Y-119694029D01*
X148183055Y-119669295D01*
X148338121Y-119669295D01*
X148387590Y-119694029D01*
X148408472Y-119714911D01*
X148433207Y-119764380D01*
X148433207Y-119810696D01*
X148404559Y-119896638D01*
X147959936Y-120341262D01*
X147950609Y-120352627D01*
X147939410Y-120379663D01*
X147818404Y-120379663D01*
X147814956Y-120364098D01*
X147807745Y-120351285D01*
X147620111Y-120083237D01*
X147627463Y-120080424D01*
X147703653Y-120042329D01*
X147709952Y-120038364D01*
X147711780Y-120037607D01*
X147713836Y-120035918D01*
X147716096Y-120034497D01*
X147717395Y-120032998D01*
X147723145Y-120028280D01*
X147761240Y-119990185D01*
X147765960Y-119984432D01*
X147767456Y-119983136D01*
X147768875Y-119980881D01*
X147770567Y-119978820D01*
X147771325Y-119976989D01*
X147775289Y-119970693D01*
X147813385Y-119894503D01*
X147818640Y-119880771D01*
X147818831Y-119878081D01*
X147819862Y-119875593D01*
X147821303Y-119860961D01*
X147821303Y-119746676D01*
X147819862Y-119732044D01*
X147818831Y-119729555D01*
X147818640Y-119726866D01*
X147813385Y-119713134D01*
X147775289Y-119636944D01*
X147771325Y-119630647D01*
X147770567Y-119628817D01*
X147768875Y-119626755D01*
X147767456Y-119624501D01*
X147765960Y-119623204D01*
X147761240Y-119617452D01*
X147723145Y-119579357D01*
X147717395Y-119574638D01*
X147716096Y-119573140D01*
X147713836Y-119571718D01*
X147711780Y-119570030D01*
X147709952Y-119569272D01*
X147703653Y-119565308D01*
X147627463Y-119527213D01*
X147613731Y-119521958D01*
X147611043Y-119521767D01*
X147608554Y-119520736D01*
X147593922Y-119519295D01*
X147289160Y-119519295D01*
X147274528Y-119520736D01*
X147247492Y-119531935D01*
X147226800Y-119552627D01*
X147215601Y-119579663D01*
X147214160Y-119594295D01*
X147125271Y-119594295D01*
X147125271Y-118306340D01*
X147214160Y-118306340D01*
X147214160Y-119106340D01*
X147215601Y-119120972D01*
X147226800Y-119148008D01*
X147247492Y-119168700D01*
X147274528Y-119179899D01*
X147303792Y-119179899D01*
X147330828Y-119168700D01*
X147351520Y-119148008D01*
X147362719Y-119120972D01*
X147364160Y-119106340D01*
X147364160Y-118800387D01*
X147440587Y-118800387D01*
X147684860Y-119149349D01*
X147694432Y-119160510D01*
X147719111Y-119176237D01*
X147747928Y-119181322D01*
X147776499Y-119174993D01*
X147800473Y-119158211D01*
X147816200Y-119133532D01*
X147821285Y-119104714D01*
X147814956Y-119076143D01*
X147807745Y-119063330D01*
X147620111Y-118795282D01*
X147627463Y-118792469D01*
X147703653Y-118754374D01*
X147709952Y-118750409D01*
X147711780Y-118749652D01*
X147713836Y-118747963D01*
X147716096Y-118746542D01*
X147717395Y-118745043D01*
X147723145Y-118740325D01*
X147761240Y-118702230D01*
X147765960Y-118696477D01*
X147767456Y-118695181D01*
X147768875Y-118692926D01*
X147770567Y-118690865D01*
X147771325Y-118689034D01*
X147775289Y-118682738D01*
X147813385Y-118606548D01*
X147818640Y-118592816D01*
X147818831Y-118590126D01*
X147819862Y-118587638D01*
X147821303Y-118573006D01*
X147821303Y-118525530D01*
X147976653Y-118525530D01*
X147978727Y-118554720D01*
X147991814Y-118580895D01*
X148013922Y-118600068D01*
X148041683Y-118609322D01*
X148070873Y-118607248D01*
X148084605Y-118601993D01*
X148160796Y-118563898D01*
X148167095Y-118559933D01*
X148168923Y-118559176D01*
X148170979Y-118557487D01*
X148173239Y-118556066D01*
X148174538Y-118554567D01*
X148180288Y-118549849D01*
X148204636Y-118525500D01*
X148204636Y-119031340D01*
X148051064Y-119031340D01*
X148036432Y-119032781D01*
X148009396Y-119043980D01*
X147988704Y-119064672D01*
X147977505Y-119091708D01*
X147977505Y-119120972D01*
X147988704Y-119148008D01*
X148009396Y-119168700D01*
X148036432Y-119179899D01*
X148051064Y-119181340D01*
X148508207Y-119181340D01*
X148522839Y-119179899D01*
X148549875Y-119168700D01*
X148570567Y-119148008D01*
X148581766Y-119120972D01*
X148581766Y-119091708D01*
X148570567Y-119064672D01*
X148549875Y-119043980D01*
X148522839Y-119032781D01*
X148508207Y-119031340D01*
X148354636Y-119031340D01*
X148354636Y-118901232D01*
X149387030Y-118901232D01*
X149387030Y-118930496D01*
X149398229Y-118957532D01*
X149418921Y-118978224D01*
X149445957Y-118989423D01*
X149460589Y-118990864D01*
X150070113Y-118990864D01*
X150084745Y-118989423D01*
X150111781Y-118978224D01*
X150132473Y-118957532D01*
X150143672Y-118930496D01*
X150143672Y-118901232D01*
X150132473Y-118874196D01*
X150111781Y-118853504D01*
X150084745Y-118842305D01*
X150070113Y-118840864D01*
X149460589Y-118840864D01*
X149445957Y-118842305D01*
X149418921Y-118853504D01*
X149398229Y-118874196D01*
X149387030Y-118901232D01*
X148354636Y-118901232D01*
X148354636Y-118672660D01*
X149387030Y-118672660D01*
X149387030Y-118701924D01*
X149398229Y-118728960D01*
X149418921Y-118749652D01*
X149445957Y-118760851D01*
X149460589Y-118762292D01*
X150070113Y-118762292D01*
X150084745Y-118760851D01*
X150111781Y-118749652D01*
X150132473Y-118728960D01*
X150143672Y-118701924D01*
X150143672Y-118672660D01*
X150132473Y-118645624D01*
X150111781Y-118624932D01*
X150084745Y-118613733D01*
X150070113Y-118612292D01*
X149460589Y-118612292D01*
X149445957Y-118613733D01*
X149418921Y-118624932D01*
X149398229Y-118645624D01*
X149387030Y-118672660D01*
X148354636Y-118672660D01*
X148354636Y-118525530D01*
X151557606Y-118525530D01*
X151559680Y-118554720D01*
X151572767Y-118580895D01*
X151594875Y-118600068D01*
X151622636Y-118609322D01*
X151651826Y-118607248D01*
X151665558Y-118601993D01*
X151741749Y-118563898D01*
X151748048Y-118559933D01*
X151749876Y-118559176D01*
X151751932Y-118557487D01*
X151754192Y-118556066D01*
X151755491Y-118554567D01*
X151761241Y-118549849D01*
X151785589Y-118525500D01*
X151785589Y-119031340D01*
X151632017Y-119031340D01*
X151617385Y-119032781D01*
X151590349Y-119043980D01*
X151569657Y-119064672D01*
X151558458Y-119091708D01*
X151558458Y-119120972D01*
X151569657Y-119148008D01*
X151590349Y-119168700D01*
X151617385Y-119179899D01*
X151632017Y-119181340D01*
X152089160Y-119181340D01*
X152103792Y-119179899D01*
X152130828Y-119168700D01*
X152151520Y-119148008D01*
X152162719Y-119120972D01*
X152162719Y-119091708D01*
X152151520Y-119064672D01*
X152130828Y-119043980D01*
X152103792Y-119032781D01*
X152089160Y-119031340D01*
X151935589Y-119031340D01*
X151935589Y-118306340D01*
X152966542Y-118306340D01*
X152966542Y-119106340D01*
X152967983Y-119120972D01*
X152979182Y-119148008D01*
X152999874Y-119168700D01*
X153026910Y-119179899D01*
X153056174Y-119179899D01*
X153083210Y-119168700D01*
X153103902Y-119148008D01*
X153115101Y-119120972D01*
X153116542Y-119106340D01*
X153116542Y-118644408D01*
X153240244Y-118909485D01*
X153243418Y-118914844D01*
X153244078Y-118916657D01*
X153245252Y-118917939D01*
X153247738Y-118922135D01*
X153256147Y-118929835D01*
X153263842Y-118938238D01*
X153266860Y-118939646D01*
X153269319Y-118941898D01*
X153280031Y-118945793D01*
X153290360Y-118950614D01*
X153293688Y-118950760D01*
X153296820Y-118951899D01*
X153308214Y-118951398D01*
X153319596Y-118951898D01*
X153322724Y-118950760D01*
X153326056Y-118950614D01*
X153336391Y-118945790D01*
X153347097Y-118941898D01*
X153349552Y-118939648D01*
X153352574Y-118938239D01*
X153360275Y-118929828D01*
X153368678Y-118922134D01*
X153371161Y-118917941D01*
X153372338Y-118916657D01*
X153372998Y-118914841D01*
X153376172Y-118909484D01*
X153499875Y-118644406D01*
X153499875Y-119106340D01*
X153501316Y-119120972D01*
X153512515Y-119148008D01*
X153533207Y-119168700D01*
X153560243Y-119179899D01*
X153589507Y-119179899D01*
X153616543Y-119168700D01*
X153637235Y-119148008D01*
X153648434Y-119120972D01*
X153649875Y-119106340D01*
X153649875Y-118534911D01*
X153842732Y-118534911D01*
X153842732Y-118725387D01*
X153843461Y-118732792D01*
X153843321Y-118734768D01*
X153843911Y-118737365D01*
X153844173Y-118740019D01*
X153844931Y-118741849D01*
X153846581Y-118749104D01*
X153884677Y-118863390D01*
X153890671Y-118876816D01*
X153892436Y-118878851D01*
X153893467Y-118881340D01*
X153902795Y-118892706D01*
X153978985Y-118968897D01*
X153984734Y-118973615D01*
X153986034Y-118975114D01*
X153988293Y-118976535D01*
X153990350Y-118978224D01*
X153992177Y-118978981D01*
X153998477Y-118982946D01*
X154033209Y-119000311D01*
X154033209Y-119031340D01*
X153917732Y-119031340D01*
X153903100Y-119032781D01*
X153876064Y-119043980D01*
X153855372Y-119064672D01*
X153844173Y-119091708D01*
X153844173Y-119120972D01*
X153855372Y-119148008D01*
X153876064Y-119168700D01*
X153903100Y-119179899D01*
X153917732Y-119181340D01*
X154108209Y-119181340D01*
X154122841Y-119179899D01*
X154149877Y-119168700D01*
X154170569Y-119148008D01*
X154181768Y-119120972D01*
X154183209Y-119106340D01*
X154183209Y-118953959D01*
X154182479Y-118946553D01*
X154182620Y-118944578D01*
X154182144Y-118943152D01*
X154181768Y-118939327D01*
X154177166Y-118928219D01*
X154173366Y-118916817D01*
X154171600Y-118914781D01*
X154170569Y-118912291D01*
X154162071Y-118903793D01*
X154154193Y-118894709D01*
X154150938Y-118892660D01*
X154149877Y-118891599D01*
X154148049Y-118890841D01*
X154141750Y-118886877D01*
X154076445Y-118854224D01*
X154021380Y-118799159D01*
X153992732Y-118713216D01*
X153992732Y-118547081D01*
X154021380Y-118461138D01*
X154072531Y-118409987D01*
X154158474Y-118381340D01*
X154286515Y-118381340D01*
X154372457Y-118409987D01*
X154423608Y-118461138D01*
X154452256Y-118547080D01*
X154452256Y-118713217D01*
X154423608Y-118799159D01*
X154368543Y-118854224D01*
X154303239Y-118886877D01*
X154296939Y-118890841D01*
X154295112Y-118891599D01*
X154294050Y-118892660D01*
X154290796Y-118894709D01*
X154282917Y-118903793D01*
X154274420Y-118912291D01*
X154273388Y-118914781D01*
X154271623Y-118916817D01*
X154267822Y-118928219D01*
X154263221Y-118939327D01*
X154262844Y-118943152D01*
X154262369Y-118944578D01*
X154262509Y-118946553D01*
X154261780Y-118953959D01*
X154261780Y-119106340D01*
X154263221Y-119120972D01*
X154274420Y-119148008D01*
X154295112Y-119168700D01*
X154322148Y-119179899D01*
X154336780Y-119181340D01*
X154527256Y-119181340D01*
X154541888Y-119179899D01*
X154568924Y-119168700D01*
X154589616Y-119148008D01*
X154600815Y-119120972D01*
X154600815Y-119091708D01*
X154589616Y-119064672D01*
X154568924Y-119043980D01*
X154541888Y-119032781D01*
X154527256Y-119031340D01*
X154411780Y-119031340D01*
X154411780Y-119000311D01*
X154446512Y-118982946D01*
X154452811Y-118978981D01*
X154454639Y-118978224D01*
X154456695Y-118976535D01*
X154458955Y-118975114D01*
X154460254Y-118973615D01*
X154466004Y-118968897D01*
X154542195Y-118892705D01*
X154551522Y-118881340D01*
X154552553Y-118878849D01*
X154554318Y-118876815D01*
X154560312Y-118863390D01*
X154598407Y-118749104D01*
X154600056Y-118741850D01*
X154600815Y-118740019D01*
X154601076Y-118737364D01*
X154601667Y-118734767D01*
X154601526Y-118732792D01*
X154602256Y-118725387D01*
X154602256Y-118534911D01*
X154601526Y-118527505D01*
X154601667Y-118525531D01*
X154601076Y-118522933D01*
X154600815Y-118520279D01*
X154600056Y-118518447D01*
X154598407Y-118511194D01*
X154560312Y-118396908D01*
X154554318Y-118383483D01*
X154552554Y-118381449D01*
X154551522Y-118378957D01*
X154542194Y-118367592D01*
X154466004Y-118291402D01*
X154454639Y-118282075D01*
X154452148Y-118281043D01*
X154450113Y-118279278D01*
X154436688Y-118273284D01*
X154322402Y-118235189D01*
X154315148Y-118233539D01*
X154313317Y-118232781D01*
X154310662Y-118232519D01*
X154308065Y-118231929D01*
X154306090Y-118232069D01*
X154298685Y-118231340D01*
X154146304Y-118231340D01*
X154138898Y-118232069D01*
X154136924Y-118231929D01*
X154134326Y-118232519D01*
X154131672Y-118232781D01*
X154129840Y-118233539D01*
X154122587Y-118235189D01*
X154008301Y-118273284D01*
X153994876Y-118279278D01*
X153992842Y-118281041D01*
X153990350Y-118282074D01*
X153978985Y-118291402D01*
X153902795Y-118367592D01*
X153893468Y-118378957D01*
X153892437Y-118381445D01*
X153890671Y-118383482D01*
X153884677Y-118396908D01*
X153846581Y-118511194D01*
X153844931Y-118518448D01*
X153844173Y-118520279D01*
X153843911Y-118522932D01*
X153843321Y-118525530D01*
X153843461Y-118527505D01*
X153842732Y-118534911D01*
X153649875Y-118534911D01*
X153649875Y-118306340D01*
X153648927Y-118296718D01*
X153649005Y-118294952D01*
X153648660Y-118294003D01*
X153648434Y-118291708D01*
X153643452Y-118279681D01*
X153639005Y-118267451D01*
X153637875Y-118266217D01*
X153637235Y-118264672D01*
X153628029Y-118255466D01*
X153619241Y-118245870D01*
X153617725Y-118245162D01*
X153616543Y-118243980D01*
X153604521Y-118239000D01*
X153592723Y-118233494D01*
X153591051Y-118233420D01*
X153589507Y-118232781D01*
X153576488Y-118232781D01*
X153563487Y-118232210D01*
X153561917Y-118232781D01*
X153560243Y-118232781D01*
X153548216Y-118237762D01*
X153535986Y-118242210D01*
X153534752Y-118243339D01*
X153533207Y-118243980D01*
X153524001Y-118253185D01*
X153514405Y-118261974D01*
X153513230Y-118263956D01*
X153512515Y-118264672D01*
X153511836Y-118266308D01*
X153506911Y-118274624D01*
X153308208Y-118700414D01*
X153109506Y-118274624D01*
X153104580Y-118266308D01*
X153103902Y-118264672D01*
X153103186Y-118263956D01*
X153102012Y-118261974D01*
X153092415Y-118253185D01*
X153083210Y-118243980D01*
X153081664Y-118243339D01*
X153080431Y-118242210D01*
X153068200Y-118237762D01*
X153056174Y-118232781D01*
X153054500Y-118232781D01*
X153052930Y-118232210D01*
X153039929Y-118232781D01*
X153026910Y-118232781D01*
X153025365Y-118233420D01*
X153023694Y-118233494D01*
X153011895Y-118239000D01*
X152999874Y-118243980D01*
X152998691Y-118245162D01*
X152997176Y-118245870D01*
X152988387Y-118255466D01*
X152979182Y-118264672D01*
X152978541Y-118266217D01*
X152977412Y-118267451D01*
X152972964Y-118279681D01*
X152967983Y-118291708D01*
X152967756Y-118294003D01*
X152967412Y-118294952D01*
X152967489Y-118296718D01*
X152966542Y-118306340D01*
X151935589Y-118306340D01*
X151935583Y-118306287D01*
X151935589Y-118306262D01*
X151935573Y-118306186D01*
X151934148Y-118291708D01*
X151931306Y-118284847D01*
X151929850Y-118277567D01*
X151925761Y-118271461D01*
X151922949Y-118264672D01*
X151917698Y-118259421D01*
X151913567Y-118253252D01*
X151907452Y-118249175D01*
X151902257Y-118243980D01*
X151895396Y-118241138D01*
X151889218Y-118237019D01*
X151882009Y-118235592D01*
X151875221Y-118232781D01*
X151867795Y-118232781D01*
X151860511Y-118231340D01*
X151853306Y-118232781D01*
X151845957Y-118232781D01*
X151839096Y-118235622D01*
X151831816Y-118237079D01*
X151825710Y-118241167D01*
X151818921Y-118243980D01*
X151813670Y-118249230D01*
X151807501Y-118253362D01*
X151798280Y-118264620D01*
X151798229Y-118264672D01*
X151798219Y-118264694D01*
X151798185Y-118264737D01*
X151726112Y-118372845D01*
X151663780Y-118435176D01*
X151598476Y-118467829D01*
X151586033Y-118475661D01*
X151566860Y-118497769D01*
X151557606Y-118525530D01*
X148354636Y-118525530D01*
X148354636Y-118306340D01*
X148354630Y-118306287D01*
X148354636Y-118306262D01*
X148354620Y-118306186D01*
X148353195Y-118291708D01*
X148350353Y-118284847D01*
X148348897Y-118277567D01*
X148344808Y-118271461D01*
X148341996Y-118264672D01*
X148336745Y-118259421D01*
X148332614Y-118253252D01*
X148326499Y-118249175D01*
X148321304Y-118243980D01*
X148314443Y-118241138D01*
X148308265Y-118237019D01*
X148301056Y-118235592D01*
X148294268Y-118232781D01*
X148286842Y-118232781D01*
X148279558Y-118231340D01*
X148272353Y-118232781D01*
X148265004Y-118232781D01*
X148258143Y-118235622D01*
X148250863Y-118237079D01*
X148244757Y-118241167D01*
X148237968Y-118243980D01*
X148232717Y-118249230D01*
X148226548Y-118253362D01*
X148217327Y-118264620D01*
X148217276Y-118264672D01*
X148217266Y-118264694D01*
X148217232Y-118264737D01*
X148145159Y-118372845D01*
X148082827Y-118435176D01*
X148017523Y-118467829D01*
X148005080Y-118475661D01*
X147985907Y-118497769D01*
X147976653Y-118525530D01*
X147821303Y-118525530D01*
X147821303Y-118458721D01*
X147819862Y-118444089D01*
X147818831Y-118441600D01*
X147818640Y-118438911D01*
X147813385Y-118425179D01*
X147775289Y-118348989D01*
X147771325Y-118342692D01*
X147770567Y-118340862D01*
X147768875Y-118338800D01*
X147767456Y-118336546D01*
X147765960Y-118335249D01*
X147761240Y-118329497D01*
X147723145Y-118291402D01*
X147717395Y-118286683D01*
X147716096Y-118285185D01*
X147713836Y-118283763D01*
X147711780Y-118282075D01*
X147709952Y-118281317D01*
X147703653Y-118277353D01*
X147627463Y-118239258D01*
X147613731Y-118234003D01*
X147611043Y-118233812D01*
X147608554Y-118232781D01*
X147593922Y-118231340D01*
X147289160Y-118231340D01*
X147274528Y-118232781D01*
X147247492Y-118243980D01*
X147226800Y-118264672D01*
X147215601Y-118291708D01*
X147214160Y-118306340D01*
X147125271Y-118306340D01*
X147125271Y-118142451D01*
X154691145Y-118142451D01*
X154691145Y-120558184D01*
G37*
X128643800Y-108251064D02*
X128605704Y-108365350D01*
X128605704Y-108365350D02*
X128605704Y-108555826D01*
X128605704Y-108555826D02*
X128643800Y-108632017D01*
X128643800Y-108632017D02*
X128681895Y-108670112D01*
X128681895Y-108670112D02*
X128758085Y-108708207D01*
X128758085Y-108708207D02*
X128834276Y-108708207D01*
X128834276Y-108708207D02*
X128910466Y-108670112D01*
X128910466Y-108670112D02*
X128948561Y-108632017D01*
X128948561Y-108632017D02*
X128986657Y-108555826D01*
X128986657Y-108555826D02*
X129024752Y-108403445D01*
X129024752Y-108403445D02*
X129062847Y-108327255D01*
X129062847Y-108327255D02*
X129100942Y-108289160D01*
X129100942Y-108289160D02*
X129177133Y-108251064D01*
X129177133Y-108251064D02*
X129253323Y-108251064D01*
X129253323Y-108251064D02*
X129329514Y-108289160D01*
X129329514Y-108289160D02*
X129367609Y-108327255D01*
X129367609Y-108327255D02*
X129405704Y-108403445D01*
X129405704Y-108403445D02*
X129405704Y-108593922D01*
X129405704Y-108593922D02*
X129367609Y-108708207D01*
X129139038Y-108936779D02*
X129139038Y-109241541D01*
X129405704Y-109051065D02*
X128719990Y-109051065D01*
X128719990Y-109051065D02*
X128643800Y-109089160D01*
X128643800Y-109089160D02*
X128605704Y-109165350D01*
X128605704Y-109165350D02*
X128605704Y-109241541D01*
X128605704Y-109851065D02*
X129024752Y-109851065D01*
X129024752Y-109851065D02*
X129100942Y-109812970D01*
X129100942Y-109812970D02*
X129139038Y-109736779D01*
X129139038Y-109736779D02*
X129139038Y-109584398D01*
X129139038Y-109584398D02*
X129100942Y-109508208D01*
X128643800Y-109851065D02*
X128605704Y-109774874D01*
X128605704Y-109774874D02*
X128605704Y-109584398D01*
X128605704Y-109584398D02*
X128643800Y-109508208D01*
X128643800Y-109508208D02*
X128719990Y-109470112D01*
X128719990Y-109470112D02*
X128796180Y-109470112D01*
X128796180Y-109470112D02*
X128872371Y-109508208D01*
X128872371Y-109508208D02*
X128910466Y-109584398D01*
X128910466Y-109584398D02*
X128910466Y-109774874D01*
X128910466Y-109774874D02*
X128948561Y-109851065D01*
X129139038Y-110117732D02*
X129139038Y-110422494D01*
X129405704Y-110232018D02*
X128719990Y-110232018D01*
X128719990Y-110232018D02*
X128643800Y-110270113D01*
X128643800Y-110270113D02*
X128605704Y-110346303D01*
X128605704Y-110346303D02*
X128605704Y-110422494D01*
X129139038Y-111032018D02*
X128605704Y-111032018D01*
X129139038Y-110689161D02*
X128719990Y-110689161D01*
X128719990Y-110689161D02*
X128643800Y-110727256D01*
X128643800Y-110727256D02*
X128605704Y-110803446D01*
X128605704Y-110803446D02*
X128605704Y-110917732D01*
X128605704Y-110917732D02*
X128643800Y-110993923D01*
X128643800Y-110993923D02*
X128681895Y-111032018D01*
X128643800Y-111374875D02*
X128605704Y-111451066D01*
X128605704Y-111451066D02*
X128605704Y-111603447D01*
X128605704Y-111603447D02*
X128643800Y-111679637D01*
X128643800Y-111679637D02*
X128719990Y-111717733D01*
X128719990Y-111717733D02*
X128758085Y-111717733D01*
X128758085Y-111717733D02*
X128834276Y-111679637D01*
X128834276Y-111679637D02*
X128872371Y-111603447D01*
X128872371Y-111603447D02*
X128872371Y-111489161D01*
X128872371Y-111489161D02*
X128910466Y-111412971D01*
X128910466Y-111412971D02*
X128986657Y-111374875D01*
X128986657Y-111374875D02*
X129024752Y-111374875D01*
X129024752Y-111374875D02*
X129100942Y-111412971D01*
X129100942Y-111412971D02*
X129139038Y-111489161D01*
X129139038Y-111489161D02*
X129139038Y-111603447D01*
X129139038Y-111603447D02*
X129100942Y-111679637D01*
X128605704Y-113051066D02*
X128605704Y-112670114D01*
X128605704Y-112670114D02*
X129405704Y-112670114D01*
X129024752Y-113317733D02*
X129024752Y-113584399D01*
X128605704Y-113698685D02*
X128605704Y-113317733D01*
X128605704Y-113317733D02*
X129405704Y-113317733D01*
X129405704Y-113317733D02*
X129405704Y-113698685D01*
X128605704Y-114041543D02*
X129405704Y-114041543D01*
X129405704Y-114041543D02*
X129405704Y-114232019D01*
X129405704Y-114232019D02*
X129367609Y-114346305D01*
X129367609Y-114346305D02*
X129291419Y-114422495D01*
X129291419Y-114422495D02*
X129215228Y-114460590D01*
X129215228Y-114460590D02*
X129062847Y-114498686D01*
X129062847Y-114498686D02*
X128948561Y-114498686D01*
X128948561Y-114498686D02*
X128796180Y-114460590D01*
X128796180Y-114460590D02*
X128719990Y-114422495D01*
X128719990Y-114422495D02*
X128643800Y-114346305D01*
X128643800Y-114346305D02*
X128605704Y-114232019D01*
X128605704Y-114232019D02*
X128605704Y-114041543D01*
X128605704Y-82289160D02*
X129405704Y-82289160D01*
X129139038Y-82670112D02*
X128605704Y-82670112D01*
X129062847Y-82670112D02*
X129100942Y-82708207D01*
X129100942Y-82708207D02*
X129139038Y-82784397D01*
X129139038Y-82784397D02*
X129139038Y-82898683D01*
X129139038Y-82898683D02*
X129100942Y-82974874D01*
X129100942Y-82974874D02*
X129024752Y-83012969D01*
X129024752Y-83012969D02*
X128605704Y-83012969D01*
X129139038Y-83393922D02*
X128339038Y-83393922D01*
X129100942Y-83393922D02*
X129139038Y-83470112D01*
X129139038Y-83470112D02*
X129139038Y-83622493D01*
X129139038Y-83622493D02*
X129100942Y-83698684D01*
X129100942Y-83698684D02*
X129062847Y-83736779D01*
X129062847Y-83736779D02*
X128986657Y-83774874D01*
X128986657Y-83774874D02*
X128758085Y-83774874D01*
X128758085Y-83774874D02*
X128681895Y-83736779D01*
X128681895Y-83736779D02*
X128643800Y-83698684D01*
X128643800Y-83698684D02*
X128605704Y-83622493D01*
X128605704Y-83622493D02*
X128605704Y-83470112D01*
X128605704Y-83470112D02*
X128643800Y-83393922D01*
X129139038Y-84460589D02*
X128605704Y-84460589D01*
X129139038Y-84117732D02*
X128719990Y-84117732D01*
X128719990Y-84117732D02*
X128643800Y-84155827D01*
X128643800Y-84155827D02*
X128605704Y-84232017D01*
X128605704Y-84232017D02*
X128605704Y-84346303D01*
X128605704Y-84346303D02*
X128643800Y-84422494D01*
X128643800Y-84422494D02*
X128681895Y-84460589D01*
X129139038Y-84727256D02*
X129139038Y-85032018D01*
X129405704Y-84841542D02*
X128719990Y-84841542D01*
X128719990Y-84841542D02*
X128643800Y-84879637D01*
X128643800Y-84879637D02*
X128605704Y-84955827D01*
X128605704Y-84955827D02*
X128605704Y-85032018D01*
X128605704Y-86327256D02*
X128605704Y-85870113D01*
X128605704Y-86098685D02*
X129405704Y-86098685D01*
X129405704Y-86098685D02*
X129291419Y-86022494D01*
X129291419Y-86022494D02*
X129215228Y-85946304D01*
X129215228Y-85946304D02*
X129177133Y-85870113D01*
X129329514Y-86632018D02*
X129367609Y-86670114D01*
X129367609Y-86670114D02*
X129405704Y-86746304D01*
X129405704Y-86746304D02*
X129405704Y-86936780D01*
X129405704Y-86936780D02*
X129367609Y-87012971D01*
X129367609Y-87012971D02*
X129329514Y-87051066D01*
X129329514Y-87051066D02*
X129253323Y-87089161D01*
X129253323Y-87089161D02*
X129177133Y-87089161D01*
X129177133Y-87089161D02*
X129062847Y-87051066D01*
X129062847Y-87051066D02*
X128605704Y-86593923D01*
X128605704Y-86593923D02*
X128605704Y-87089161D01*
X129405704Y-87317733D02*
X128605704Y-87584400D01*
X128605704Y-87584400D02*
X129405704Y-87851066D01*
G36*
X151778068Y-123694029D02*
G01*
X151798950Y-123714911D01*
X151827920Y-123772851D01*
X151861780Y-123908290D01*
X151861780Y-124080299D01*
X151827920Y-124215738D01*
X151798950Y-124273677D01*
X151778067Y-124294561D01*
X151728599Y-124319295D01*
X151687819Y-124319295D01*
X151638350Y-124294561D01*
X151617467Y-124273677D01*
X151588497Y-124215737D01*
X151554637Y-124080297D01*
X151554637Y-123908292D01*
X151588497Y-123772851D01*
X151617467Y-123714911D01*
X151638349Y-123694029D01*
X151687819Y-123669295D01*
X151728599Y-123669295D01*
X151778068Y-123694029D01*
G37*
G36*
X152539973Y-123694029D02*
G01*
X152560855Y-123714911D01*
X152589825Y-123772851D01*
X152623685Y-123908290D01*
X152623685Y-124080299D01*
X152589825Y-124215738D01*
X152560855Y-124273677D01*
X152539972Y-124294561D01*
X152490504Y-124319295D01*
X152449724Y-124319295D01*
X152400255Y-124294561D01*
X152379372Y-124273677D01*
X152350402Y-124215737D01*
X152316542Y-124080297D01*
X152316542Y-123908292D01*
X152350402Y-123772851D01*
X152379372Y-123714911D01*
X152400254Y-123694029D01*
X152449724Y-123669295D01*
X152490504Y-123669295D01*
X152539973Y-123694029D01*
G37*
G36*
X152539973Y-122406074D02*
G01*
X152560855Y-122426956D01*
X152589825Y-122484896D01*
X152623685Y-122620335D01*
X152623685Y-122792344D01*
X152589825Y-122927783D01*
X152560855Y-122985722D01*
X152539972Y-123006606D01*
X152490504Y-123031340D01*
X152449724Y-123031340D01*
X152400255Y-123006606D01*
X152379372Y-122985722D01*
X152350402Y-122927782D01*
X152316542Y-122792342D01*
X152316542Y-122620337D01*
X152350402Y-122484896D01*
X152379372Y-122426956D01*
X152400254Y-122406074D01*
X152449724Y-122381340D01*
X152490504Y-122381340D01*
X152539973Y-122406074D01*
G37*
G36*
X151778068Y-121118119D02*
G01*
X151798950Y-121139001D01*
X151827920Y-121196941D01*
X151861780Y-121332380D01*
X151861780Y-121504389D01*
X151827920Y-121639828D01*
X151798950Y-121697767D01*
X151778067Y-121718651D01*
X151728599Y-121743385D01*
X151687819Y-121743385D01*
X151638350Y-121718651D01*
X151617467Y-121697767D01*
X151588497Y-121639827D01*
X151554637Y-121504387D01*
X151554637Y-121332382D01*
X151588497Y-121196941D01*
X151617467Y-121139001D01*
X151638349Y-121118119D01*
X151687819Y-121093385D01*
X151728599Y-121093385D01*
X151778068Y-121118119D01*
G37*
G36*
X152539973Y-121118119D02*
G01*
X152560855Y-121139001D01*
X152589825Y-121196941D01*
X152623685Y-121332380D01*
X152623685Y-121504389D01*
X152589825Y-121639828D01*
X152560855Y-121697767D01*
X152539972Y-121718651D01*
X152490504Y-121743385D01*
X152449724Y-121743385D01*
X152400255Y-121718651D01*
X152379372Y-121697767D01*
X152350402Y-121639827D01*
X152316542Y-121504387D01*
X152316542Y-121332382D01*
X152350402Y-121196941D01*
X152379372Y-121139001D01*
X152400254Y-121118119D01*
X152449724Y-121093385D01*
X152490504Y-121093385D01*
X152539973Y-121118119D01*
G37*
G36*
X155032562Y-124558184D02*
G01*
X146782414Y-124558184D01*
X146782414Y-123937152D01*
X146871303Y-123937152D01*
X146871303Y-124051438D01*
X146871554Y-124053991D01*
X146871392Y-124055084D01*
X146872201Y-124060558D01*
X146872744Y-124066070D01*
X146873166Y-124067090D01*
X146873542Y-124069629D01*
X146911638Y-124222010D01*
X146912023Y-124223089D01*
X146912062Y-124223628D01*
X146914386Y-124229703D01*
X146916585Y-124235855D01*
X146916907Y-124236290D01*
X146917317Y-124237360D01*
X146955412Y-124313550D01*
X146959375Y-124319846D01*
X146960133Y-124321676D01*
X146961822Y-124323734D01*
X146963244Y-124325993D01*
X146964742Y-124327292D01*
X146969461Y-124333042D01*
X147045651Y-124409233D01*
X147057016Y-124418560D01*
X147059506Y-124419591D01*
X147061542Y-124421357D01*
X147074967Y-124427351D01*
X147189253Y-124465446D01*
X147196506Y-124467095D01*
X147198338Y-124467854D01*
X147200992Y-124468115D01*
X147203590Y-124468706D01*
X147205564Y-124468565D01*
X147212970Y-124469295D01*
X147289161Y-124469295D01*
X147296566Y-124468565D01*
X147298541Y-124468706D01*
X147301138Y-124468115D01*
X147303793Y-124467854D01*
X147305624Y-124467095D01*
X147312878Y-124465446D01*
X147427163Y-124427351D01*
X147440589Y-124421357D01*
X147442625Y-124419590D01*
X147445114Y-124418560D01*
X147456479Y-124409233D01*
X147494575Y-124371137D01*
X147503903Y-124359772D01*
X147515101Y-124332735D01*
X147515101Y-124303472D01*
X147503903Y-124276436D01*
X147483210Y-124255743D01*
X147456174Y-124244545D01*
X147426911Y-124244545D01*
X147399874Y-124255743D01*
X147388509Y-124265071D01*
X147362932Y-124290648D01*
X147276991Y-124319295D01*
X147225140Y-124319295D01*
X147139198Y-124290648D01*
X147084133Y-124235582D01*
X147055163Y-124177642D01*
X147021303Y-124042202D01*
X147021303Y-123946387D01*
X147055163Y-123810946D01*
X147084133Y-123753006D01*
X147139197Y-123697942D01*
X147225140Y-123669295D01*
X147276991Y-123669295D01*
X147362932Y-123697942D01*
X147388510Y-123723519D01*
X147399875Y-123732846D01*
X147426911Y-123744044D01*
X147456174Y-123744044D01*
X147483210Y-123732845D01*
X147503903Y-123712152D01*
X147515101Y-123685115D01*
X147515101Y-123655852D01*
X147503902Y-123628816D01*
X147494574Y-123617451D01*
X147456785Y-123579663D01*
X147634649Y-123579663D01*
X147634649Y-123608927D01*
X147645848Y-123635963D01*
X147666540Y-123656655D01*
X147693576Y-123667854D01*
X147708208Y-123669295D01*
X148038164Y-123669295D01*
X147880337Y-123849669D01*
X147875815Y-123855993D01*
X147874420Y-123857389D01*
X147873871Y-123858712D01*
X147871786Y-123861630D01*
X147867884Y-123873167D01*
X147863221Y-123884425D01*
X147863221Y-123886955D01*
X147862411Y-123889351D01*
X147863221Y-123901504D01*
X147863221Y-123913689D01*
X147864188Y-123916025D01*
X147864357Y-123918549D01*
X147869759Y-123929474D01*
X147874420Y-123940725D01*
X147876206Y-123942511D01*
X147877329Y-123944781D01*
X147886501Y-123952806D01*
X147895112Y-123961417D01*
X147897448Y-123962385D01*
X147899353Y-123964051D01*
X147910890Y-123967952D01*
X147922148Y-123972616D01*
X147925718Y-123972967D01*
X147927074Y-123973426D01*
X147929041Y-123973294D01*
X147936780Y-123974057D01*
X148033360Y-123974057D01*
X148082829Y-123998791D01*
X148103711Y-124019673D01*
X148128446Y-124069142D01*
X148128446Y-124224209D01*
X148103711Y-124273677D01*
X148082828Y-124294561D01*
X148033360Y-124319295D01*
X147840199Y-124319295D01*
X147790730Y-124294561D01*
X147761242Y-124265072D01*
X147749876Y-124255744D01*
X147722840Y-124244545D01*
X147693578Y-124244545D01*
X147666541Y-124255743D01*
X147645848Y-124276436D01*
X147634649Y-124303472D01*
X147634649Y-124332734D01*
X147645847Y-124359771D01*
X147655174Y-124371136D01*
X147693269Y-124409232D01*
X147699020Y-124413952D01*
X147700319Y-124415450D01*
X147702574Y-124416869D01*
X147704634Y-124418560D01*
X147706464Y-124419318D01*
X147712762Y-124423282D01*
X147788953Y-124461377D01*
X147802685Y-124466632D01*
X147805372Y-124466822D01*
X147807862Y-124467854D01*
X147822494Y-124469295D01*
X148051065Y-124469295D01*
X148065697Y-124467854D01*
X148068186Y-124466822D01*
X148070874Y-124466632D01*
X148084606Y-124461377D01*
X148160797Y-124423282D01*
X148167096Y-124419317D01*
X148168924Y-124418560D01*
X148170980Y-124416872D01*
X148173240Y-124415450D01*
X148174540Y-124413950D01*
X148180290Y-124409232D01*
X148218385Y-124371136D01*
X148223102Y-124365387D01*
X148224601Y-124364088D01*
X148226022Y-124361829D01*
X148227712Y-124359771D01*
X148228469Y-124357941D01*
X148232433Y-124351645D01*
X148270528Y-124275455D01*
X148275783Y-124261723D01*
X148275973Y-124259035D01*
X148277005Y-124256546D01*
X148278446Y-124241914D01*
X148278446Y-124189187D01*
X149082269Y-124189187D01*
X149082269Y-124218451D01*
X149093468Y-124245487D01*
X149114160Y-124266179D01*
X149141196Y-124277378D01*
X149155828Y-124278819D01*
X149765352Y-124278819D01*
X149779984Y-124277378D01*
X149807020Y-124266179D01*
X149827712Y-124245487D01*
X149838911Y-124218451D01*
X149838911Y-124189187D01*
X149827712Y-124162151D01*
X149807020Y-124141459D01*
X149779984Y-124130260D01*
X149765352Y-124128819D01*
X149155828Y-124128819D01*
X149141196Y-124130260D01*
X149114160Y-124141459D01*
X149093468Y-124162151D01*
X149082269Y-124189187D01*
X148278446Y-124189187D01*
X148278446Y-124051438D01*
X148277005Y-124036806D01*
X148275973Y-124034316D01*
X148275783Y-124031629D01*
X148270528Y-124017897D01*
X148241887Y-123960615D01*
X149082269Y-123960615D01*
X149082269Y-123989879D01*
X149093468Y-124016915D01*
X149114160Y-124037607D01*
X149141196Y-124048806D01*
X149155828Y-124050247D01*
X149765352Y-124050247D01*
X149779984Y-124048806D01*
X149807020Y-124037607D01*
X149827712Y-124016915D01*
X149838911Y-123989879D01*
X149838911Y-123960615D01*
X149827712Y-123933579D01*
X149807020Y-123912887D01*
X149779984Y-123901688D01*
X149765352Y-123900247D01*
X149155828Y-123900247D01*
X149141196Y-123901688D01*
X149114160Y-123912887D01*
X149093468Y-123933579D01*
X149082269Y-123960615D01*
X148241887Y-123960615D01*
X148232433Y-123941706D01*
X148228468Y-123935406D01*
X148227711Y-123933579D01*
X148226022Y-123931522D01*
X148224601Y-123929263D01*
X148223102Y-123927963D01*
X148218384Y-123922214D01*
X148180289Y-123884119D01*
X148174539Y-123879400D01*
X148173240Y-123877902D01*
X148170980Y-123876480D01*
X148168924Y-123874792D01*
X148167096Y-123874034D01*
X148160797Y-123870070D01*
X148091929Y-123835636D01*
X148111311Y-123813485D01*
X150643321Y-123813485D01*
X150645395Y-123842675D01*
X150658482Y-123868850D01*
X150680590Y-123888023D01*
X150708351Y-123897277D01*
X150737541Y-123895203D01*
X150751273Y-123889948D01*
X150827464Y-123851853D01*
X150833763Y-123847888D01*
X150835591Y-123847131D01*
X150837647Y-123845442D01*
X150839907Y-123844021D01*
X150841206Y-123842522D01*
X150846956Y-123837804D01*
X150871304Y-123813455D01*
X150871304Y-124319295D01*
X150717732Y-124319295D01*
X150703100Y-124320736D01*
X150676064Y-124331935D01*
X150655372Y-124352627D01*
X150644173Y-124379663D01*
X150644173Y-124408927D01*
X150655372Y-124435963D01*
X150676064Y-124456655D01*
X150703100Y-124467854D01*
X150717732Y-124469295D01*
X151174875Y-124469295D01*
X151189507Y-124467854D01*
X151216543Y-124456655D01*
X151237235Y-124435963D01*
X151248434Y-124408927D01*
X151248434Y-124379663D01*
X151237235Y-124352627D01*
X151216543Y-124331935D01*
X151189507Y-124320736D01*
X151174875Y-124319295D01*
X151021304Y-124319295D01*
X151021304Y-123899057D01*
X151404637Y-123899057D01*
X151404637Y-124089533D01*
X151404888Y-124092086D01*
X151404726Y-124093179D01*
X151405535Y-124098653D01*
X151406078Y-124104165D01*
X151406500Y-124105185D01*
X151406876Y-124107724D01*
X151444972Y-124260105D01*
X151445357Y-124261184D01*
X151445396Y-124261723D01*
X151447720Y-124267798D01*
X151449919Y-124273950D01*
X151450241Y-124274385D01*
X151450651Y-124275455D01*
X151488746Y-124351645D01*
X151492709Y-124357941D01*
X151493467Y-124359771D01*
X151495156Y-124361829D01*
X151496578Y-124364088D01*
X151498076Y-124365387D01*
X151502794Y-124371136D01*
X151540889Y-124409232D01*
X151546640Y-124413952D01*
X151547939Y-124415450D01*
X151550194Y-124416869D01*
X151552254Y-124418560D01*
X151554084Y-124419318D01*
X151560382Y-124423282D01*
X151636573Y-124461377D01*
X151650305Y-124466632D01*
X151652992Y-124466822D01*
X151655482Y-124467854D01*
X151670114Y-124469295D01*
X151746304Y-124469295D01*
X151760936Y-124467854D01*
X151763425Y-124466822D01*
X151766113Y-124466632D01*
X151779845Y-124461377D01*
X151856036Y-124423282D01*
X151862335Y-124419317D01*
X151864163Y-124418560D01*
X151866219Y-124416872D01*
X151868479Y-124415450D01*
X151869779Y-124413950D01*
X151875529Y-124409232D01*
X151913624Y-124371136D01*
X151918341Y-124365387D01*
X151919840Y-124364088D01*
X151921261Y-124361829D01*
X151922951Y-124359771D01*
X151923708Y-124357941D01*
X151927672Y-124351645D01*
X151965767Y-124275455D01*
X151966176Y-124274385D01*
X151966499Y-124273950D01*
X151968694Y-124267804D01*
X151971022Y-124261723D01*
X151971060Y-124261183D01*
X151971446Y-124260104D01*
X152009541Y-124107723D01*
X152009916Y-124105185D01*
X152010339Y-124104165D01*
X152010880Y-124098662D01*
X152011692Y-124093178D01*
X152011528Y-124092082D01*
X152011780Y-124089533D01*
X152011780Y-123899057D01*
X152166542Y-123899057D01*
X152166542Y-124089533D01*
X152166793Y-124092086D01*
X152166631Y-124093179D01*
X152167440Y-124098653D01*
X152167983Y-124104165D01*
X152168405Y-124105185D01*
X152168781Y-124107724D01*
X152206877Y-124260105D01*
X152207262Y-124261184D01*
X152207301Y-124261723D01*
X152209625Y-124267798D01*
X152211824Y-124273950D01*
X152212146Y-124274385D01*
X152212556Y-124275455D01*
X152250651Y-124351645D01*
X152254614Y-124357941D01*
X152255372Y-124359771D01*
X152257061Y-124361829D01*
X152258483Y-124364088D01*
X152259981Y-124365387D01*
X152264699Y-124371136D01*
X152302794Y-124409232D01*
X152308545Y-124413952D01*
X152309844Y-124415450D01*
X152312099Y-124416869D01*
X152314159Y-124418560D01*
X152315989Y-124419318D01*
X152322287Y-124423282D01*
X152398478Y-124461377D01*
X152412210Y-124466632D01*
X152414897Y-124466822D01*
X152417387Y-124467854D01*
X152432019Y-124469295D01*
X152508209Y-124469295D01*
X152522841Y-124467854D01*
X152525330Y-124466822D01*
X152528018Y-124466632D01*
X152541750Y-124461377D01*
X152617941Y-124423282D01*
X152624240Y-124419317D01*
X152626068Y-124418560D01*
X152628124Y-124416872D01*
X152630384Y-124415450D01*
X152631684Y-124413950D01*
X152637434Y-124409232D01*
X152675529Y-124371136D01*
X152680246Y-124365387D01*
X152681745Y-124364088D01*
X152683166Y-124361829D01*
X152684856Y-124359771D01*
X152685613Y-124357941D01*
X152689577Y-124351645D01*
X152727672Y-124275455D01*
X152728081Y-124274385D01*
X152728404Y-124273950D01*
X152730599Y-124267804D01*
X152732927Y-124261723D01*
X152732965Y-124261183D01*
X152733351Y-124260104D01*
X152771446Y-124107723D01*
X152771821Y-124105185D01*
X152772244Y-124104165D01*
X152772785Y-124098662D01*
X152773597Y-124093178D01*
X152773433Y-124092082D01*
X152773685Y-124089533D01*
X152773685Y-123899057D01*
X152773433Y-123896507D01*
X152773597Y-123895412D01*
X152772785Y-123889927D01*
X152772244Y-123884425D01*
X152771821Y-123883404D01*
X152771446Y-123880867D01*
X152766470Y-123860961D01*
X153576067Y-123860961D01*
X153576067Y-124394295D01*
X153577508Y-124408927D01*
X153588707Y-124435963D01*
X153609399Y-124456655D01*
X153636435Y-124467854D01*
X153665699Y-124467854D01*
X153692735Y-124456655D01*
X153713427Y-124435963D01*
X153724626Y-124408927D01*
X153726067Y-124394295D01*
X153726067Y-123968218D01*
X153733588Y-123960696D01*
X153783058Y-123935961D01*
X153861933Y-123935961D01*
X153899927Y-123954958D01*
X153918924Y-123992952D01*
X153918924Y-124394295D01*
X153920365Y-124408927D01*
X153931564Y-124435963D01*
X153952256Y-124456655D01*
X153979292Y-124467854D01*
X154008556Y-124467854D01*
X154035592Y-124456655D01*
X154056284Y-124435963D01*
X154067483Y-124408927D01*
X154068924Y-124394295D01*
X154068924Y-123975247D01*
X154067483Y-123960615D01*
X154066451Y-123958125D01*
X154066261Y-123955438D01*
X154061006Y-123941706D01*
X154022911Y-123865516D01*
X154021370Y-123863068D01*
X154020986Y-123861915D01*
X154019740Y-123860478D01*
X154015079Y-123853073D01*
X154007972Y-123846909D01*
X154001813Y-123839808D01*
X153994409Y-123835147D01*
X153992971Y-123833900D01*
X153991816Y-123833515D01*
X153989370Y-123831975D01*
X153913179Y-123793879D01*
X153899448Y-123788624D01*
X153896758Y-123788432D01*
X153894270Y-123787402D01*
X153879638Y-123785961D01*
X153765352Y-123785961D01*
X153750720Y-123787402D01*
X153748228Y-123788434D01*
X153745542Y-123788625D01*
X153731810Y-123793880D01*
X153702612Y-123808478D01*
X153692735Y-123798601D01*
X153665699Y-123787402D01*
X153636435Y-123787402D01*
X153609399Y-123798601D01*
X153588707Y-123819293D01*
X153577508Y-123846329D01*
X153576067Y-123860961D01*
X152766470Y-123860961D01*
X152733351Y-123728486D01*
X152732965Y-123727406D01*
X152732927Y-123726867D01*
X152730599Y-123720785D01*
X152728404Y-123714640D01*
X152728081Y-123714204D01*
X152727672Y-123713135D01*
X152689577Y-123636944D01*
X152685612Y-123630644D01*
X152684855Y-123628817D01*
X152683166Y-123626760D01*
X152681745Y-123624501D01*
X152680246Y-123623201D01*
X152675528Y-123617452D01*
X152652371Y-123594295D01*
X154299877Y-123594295D01*
X154299877Y-124394295D01*
X154301318Y-124408927D01*
X154312517Y-124435963D01*
X154333209Y-124456655D01*
X154360245Y-124467854D01*
X154389509Y-124467854D01*
X154416545Y-124456655D01*
X154437237Y-124435963D01*
X154448436Y-124408927D01*
X154449877Y-124394295D01*
X154449877Y-124050247D01*
X154641543Y-124050247D01*
X154656175Y-124048806D01*
X154683211Y-124037607D01*
X154703903Y-124016915D01*
X154715102Y-123989879D01*
X154715102Y-123960615D01*
X154703903Y-123933579D01*
X154683211Y-123912887D01*
X154656175Y-123901688D01*
X154641543Y-123900247D01*
X154449877Y-123900247D01*
X154449877Y-123669295D01*
X154755829Y-123669295D01*
X154770461Y-123667854D01*
X154797497Y-123656655D01*
X154818189Y-123635963D01*
X154829388Y-123608927D01*
X154829388Y-123579663D01*
X154818189Y-123552627D01*
X154797497Y-123531935D01*
X154770461Y-123520736D01*
X154755829Y-123519295D01*
X154374877Y-123519295D01*
X154360245Y-123520736D01*
X154333209Y-123531935D01*
X154312517Y-123552627D01*
X154301318Y-123579663D01*
X154299877Y-123594295D01*
X152652371Y-123594295D01*
X152637433Y-123579357D01*
X152631683Y-123574638D01*
X152630384Y-123573140D01*
X152628124Y-123571718D01*
X152626068Y-123570030D01*
X152624240Y-123569272D01*
X152617941Y-123565308D01*
X152541750Y-123527213D01*
X152528018Y-123521958D01*
X152525330Y-123521767D01*
X152522841Y-123520736D01*
X152508209Y-123519295D01*
X152432019Y-123519295D01*
X152417387Y-123520736D01*
X152414897Y-123521767D01*
X152412210Y-123521958D01*
X152398478Y-123527213D01*
X152322287Y-123565308D01*
X152315987Y-123569272D01*
X152314160Y-123570030D01*
X152312103Y-123571718D01*
X152309844Y-123573140D01*
X152308544Y-123574638D01*
X152302795Y-123579357D01*
X152264700Y-123617452D01*
X152259981Y-123623201D01*
X152258483Y-123624501D01*
X152257061Y-123626760D01*
X152255373Y-123628817D01*
X152254615Y-123630644D01*
X152250651Y-123636944D01*
X152212556Y-123713135D01*
X152212146Y-123714204D01*
X152211824Y-123714640D01*
X152209625Y-123720791D01*
X152207301Y-123726867D01*
X152207262Y-123727405D01*
X152206877Y-123728485D01*
X152168781Y-123880866D01*
X152168405Y-123883404D01*
X152167983Y-123884425D01*
X152167440Y-123889936D01*
X152166631Y-123895411D01*
X152166793Y-123896503D01*
X152166542Y-123899057D01*
X152011780Y-123899057D01*
X152011528Y-123896507D01*
X152011692Y-123895412D01*
X152010880Y-123889927D01*
X152010339Y-123884425D01*
X152009916Y-123883404D01*
X152009541Y-123880867D01*
X151971446Y-123728486D01*
X151971060Y-123727406D01*
X151971022Y-123726867D01*
X151968694Y-123720785D01*
X151966499Y-123714640D01*
X151966176Y-123714204D01*
X151965767Y-123713135D01*
X151927672Y-123636944D01*
X151923707Y-123630644D01*
X151922950Y-123628817D01*
X151921261Y-123626760D01*
X151919840Y-123624501D01*
X151918341Y-123623201D01*
X151913623Y-123617452D01*
X151875528Y-123579357D01*
X151869778Y-123574638D01*
X151868479Y-123573140D01*
X151866219Y-123571718D01*
X151864163Y-123570030D01*
X151862335Y-123569272D01*
X151856036Y-123565308D01*
X151779845Y-123527213D01*
X151766113Y-123521958D01*
X151763425Y-123521767D01*
X151760936Y-123520736D01*
X151746304Y-123519295D01*
X151670114Y-123519295D01*
X151655482Y-123520736D01*
X151652992Y-123521767D01*
X151650305Y-123521958D01*
X151636573Y-123527213D01*
X151560382Y-123565308D01*
X151554082Y-123569272D01*
X151552255Y-123570030D01*
X151550198Y-123571718D01*
X151547939Y-123573140D01*
X151546639Y-123574638D01*
X151540890Y-123579357D01*
X151502795Y-123617452D01*
X151498076Y-123623201D01*
X151496578Y-123624501D01*
X151495156Y-123626760D01*
X151493468Y-123628817D01*
X151492710Y-123630644D01*
X151488746Y-123636944D01*
X151450651Y-123713135D01*
X151450241Y-123714204D01*
X151449919Y-123714640D01*
X151447720Y-123720791D01*
X151445396Y-123726867D01*
X151445357Y-123727405D01*
X151444972Y-123728485D01*
X151406876Y-123880866D01*
X151406500Y-123883404D01*
X151406078Y-123884425D01*
X151405535Y-123889936D01*
X151404726Y-123895411D01*
X151404888Y-123896503D01*
X151404637Y-123899057D01*
X151021304Y-123899057D01*
X151021304Y-123594295D01*
X151021298Y-123594242D01*
X151021304Y-123594217D01*
X151021288Y-123594141D01*
X151019863Y-123579663D01*
X151017021Y-123572802D01*
X151015565Y-123565522D01*
X151011476Y-123559416D01*
X151008664Y-123552627D01*
X151003413Y-123547376D01*
X150999282Y-123541207D01*
X150993167Y-123537130D01*
X150987972Y-123531935D01*
X150981111Y-123529093D01*
X150974933Y-123524974D01*
X150967724Y-123523547D01*
X150960936Y-123520736D01*
X150953510Y-123520736D01*
X150946226Y-123519295D01*
X150939021Y-123520736D01*
X150931672Y-123520736D01*
X150924811Y-123523577D01*
X150917531Y-123525034D01*
X150911425Y-123529122D01*
X150904636Y-123531935D01*
X150899385Y-123537185D01*
X150893216Y-123541317D01*
X150883995Y-123552575D01*
X150883944Y-123552627D01*
X150883934Y-123552649D01*
X150883900Y-123552692D01*
X150811827Y-123660800D01*
X150749495Y-123723131D01*
X150684191Y-123755784D01*
X150671748Y-123763616D01*
X150652575Y-123785724D01*
X150643321Y-123813485D01*
X148111311Y-123813485D01*
X148259890Y-123643682D01*
X148264410Y-123637358D01*
X148265806Y-123635963D01*
X148266354Y-123634639D01*
X148268440Y-123631722D01*
X148272344Y-123620178D01*
X148277005Y-123608927D01*
X148277005Y-123606398D01*
X148277816Y-123604001D01*
X148277005Y-123591838D01*
X148277005Y-123579663D01*
X148276037Y-123577326D01*
X148275869Y-123574802D01*
X148270464Y-123563874D01*
X148265806Y-123552627D01*
X148264019Y-123550840D01*
X148262897Y-123548571D01*
X148253724Y-123540545D01*
X148245114Y-123531935D01*
X148242777Y-123530966D01*
X148240873Y-123529301D01*
X148229329Y-123525396D01*
X148218078Y-123520736D01*
X148214511Y-123520384D01*
X148213152Y-123519925D01*
X148211178Y-123520056D01*
X148203446Y-123519295D01*
X147708208Y-123519295D01*
X147693576Y-123520736D01*
X147666540Y-123531935D01*
X147645848Y-123552627D01*
X147634649Y-123579663D01*
X147456785Y-123579663D01*
X147456478Y-123579356D01*
X147445113Y-123570029D01*
X147442624Y-123568998D01*
X147440589Y-123567233D01*
X147427163Y-123561239D01*
X147312878Y-123523144D01*
X147305624Y-123521494D01*
X147303793Y-123520736D01*
X147301138Y-123520474D01*
X147298541Y-123519884D01*
X147296566Y-123520024D01*
X147289161Y-123519295D01*
X147212970Y-123519295D01*
X147205564Y-123520024D01*
X147203590Y-123519884D01*
X147200992Y-123520474D01*
X147198338Y-123520736D01*
X147196506Y-123521494D01*
X147189253Y-123523144D01*
X147074967Y-123561239D01*
X147061542Y-123567233D01*
X147059508Y-123568996D01*
X147057016Y-123570029D01*
X147045651Y-123579357D01*
X146969461Y-123655547D01*
X146964742Y-123661296D01*
X146963244Y-123662596D01*
X146961822Y-123664855D01*
X146960134Y-123666912D01*
X146959376Y-123668739D01*
X146955412Y-123675039D01*
X146917317Y-123751230D01*
X146916907Y-123752299D01*
X146916585Y-123752735D01*
X146914386Y-123758886D01*
X146912062Y-123764962D01*
X146912023Y-123765500D01*
X146911638Y-123766580D01*
X146873542Y-123918961D01*
X146873166Y-123921499D01*
X146872744Y-123922520D01*
X146872201Y-123928031D01*
X146871392Y-123933506D01*
X146871554Y-123934598D01*
X146871303Y-123937152D01*
X146782414Y-123937152D01*
X146782414Y-122649197D01*
X146871303Y-122649197D01*
X146871303Y-122763483D01*
X146871554Y-122766036D01*
X146871392Y-122767129D01*
X146872201Y-122772603D01*
X146872744Y-122778115D01*
X146873166Y-122779135D01*
X146873542Y-122781674D01*
X146911638Y-122934055D01*
X146912023Y-122935134D01*
X146912062Y-122935673D01*
X146914386Y-122941748D01*
X146916585Y-122947900D01*
X146916907Y-122948335D01*
X146917317Y-122949405D01*
X146955412Y-123025595D01*
X146959375Y-123031891D01*
X146960133Y-123033721D01*
X146961822Y-123035779D01*
X146963244Y-123038038D01*
X146964742Y-123039337D01*
X146969461Y-123045087D01*
X147045651Y-123121278D01*
X147057016Y-123130605D01*
X147059506Y-123131636D01*
X147061542Y-123133402D01*
X147074967Y-123139396D01*
X147189253Y-123177491D01*
X147196506Y-123179140D01*
X147198338Y-123179899D01*
X147200992Y-123180160D01*
X147203590Y-123180751D01*
X147205564Y-123180610D01*
X147212970Y-123181340D01*
X147289161Y-123181340D01*
X147296566Y-123180610D01*
X147298541Y-123180751D01*
X147301138Y-123180160D01*
X147303793Y-123179899D01*
X147305624Y-123179140D01*
X147312878Y-123177491D01*
X147427163Y-123139396D01*
X147440589Y-123133402D01*
X147442625Y-123131635D01*
X147445114Y-123130605D01*
X147456479Y-123121278D01*
X147486049Y-123091708D01*
X147634649Y-123091708D01*
X147634649Y-123120972D01*
X147645848Y-123148008D01*
X147666540Y-123168700D01*
X147693576Y-123179899D01*
X147708208Y-123181340D01*
X148203446Y-123181340D01*
X148218078Y-123179899D01*
X148245114Y-123168700D01*
X148265806Y-123148008D01*
X148277005Y-123120972D01*
X148277005Y-123091708D01*
X148265806Y-123064672D01*
X148245114Y-123043980D01*
X148218078Y-123032781D01*
X148203446Y-123031340D01*
X147889274Y-123031340D01*
X148019382Y-122901232D01*
X149082269Y-122901232D01*
X149082269Y-122930496D01*
X149093468Y-122957532D01*
X149114160Y-122978224D01*
X149141196Y-122989423D01*
X149155828Y-122990864D01*
X149765352Y-122990864D01*
X149779984Y-122989423D01*
X149807020Y-122978224D01*
X149827712Y-122957532D01*
X149838911Y-122930496D01*
X149838911Y-122901232D01*
X149827712Y-122874196D01*
X149807020Y-122853504D01*
X149779984Y-122842305D01*
X149765352Y-122840864D01*
X149155828Y-122840864D01*
X149141196Y-122842305D01*
X149114160Y-122853504D01*
X149093468Y-122874196D01*
X149082269Y-122901232D01*
X148019382Y-122901232D01*
X148218384Y-122702230D01*
X148227712Y-122690865D01*
X148228744Y-122688372D01*
X148230508Y-122686339D01*
X148236502Y-122672914D01*
X148236587Y-122672660D01*
X149082269Y-122672660D01*
X149082269Y-122701924D01*
X149093468Y-122728960D01*
X149114160Y-122749652D01*
X149141196Y-122760851D01*
X149155828Y-122762292D01*
X149765352Y-122762292D01*
X149779984Y-122760851D01*
X149807020Y-122749652D01*
X149827712Y-122728960D01*
X149838911Y-122701924D01*
X149838911Y-122672660D01*
X149827712Y-122645624D01*
X149807020Y-122624932D01*
X149779984Y-122613733D01*
X149765352Y-122612292D01*
X149155828Y-122612292D01*
X149141196Y-122613733D01*
X149114160Y-122624932D01*
X149093468Y-122645624D01*
X149082269Y-122672660D01*
X148236587Y-122672660D01*
X148274597Y-122558628D01*
X148276246Y-122551374D01*
X148277005Y-122549543D01*
X148277266Y-122546888D01*
X148277857Y-122544291D01*
X148277716Y-122542316D01*
X148278446Y-122534911D01*
X148278446Y-122458721D01*
X148277005Y-122444089D01*
X148275973Y-122441599D01*
X148275783Y-122438912D01*
X148270528Y-122425180D01*
X148232433Y-122348989D01*
X148228468Y-122342689D01*
X148227711Y-122340862D01*
X148226022Y-122338805D01*
X148224601Y-122336546D01*
X148223102Y-122335246D01*
X148218384Y-122329497D01*
X148180595Y-122291708D01*
X150606078Y-122291708D01*
X150606078Y-122320972D01*
X150617277Y-122348008D01*
X150637969Y-122368700D01*
X150665005Y-122379899D01*
X150679637Y-122381340D01*
X151009593Y-122381340D01*
X150851766Y-122561714D01*
X150847244Y-122568038D01*
X150845849Y-122569434D01*
X150845300Y-122570757D01*
X150843215Y-122573675D01*
X150839313Y-122585212D01*
X150834650Y-122596470D01*
X150834650Y-122599000D01*
X150833840Y-122601396D01*
X150834650Y-122613549D01*
X150834650Y-122625734D01*
X150835617Y-122628070D01*
X150835786Y-122630594D01*
X150841188Y-122641519D01*
X150845849Y-122652770D01*
X150847635Y-122654556D01*
X150848758Y-122656826D01*
X150857930Y-122664851D01*
X150866541Y-122673462D01*
X150868877Y-122674430D01*
X150870782Y-122676096D01*
X150882319Y-122679997D01*
X150893577Y-122684661D01*
X150897147Y-122685012D01*
X150898503Y-122685471D01*
X150900470Y-122685339D01*
X150908209Y-122686102D01*
X151004789Y-122686102D01*
X151054258Y-122710836D01*
X151075140Y-122731718D01*
X151099875Y-122781187D01*
X151099875Y-122936254D01*
X151075140Y-122985722D01*
X151054257Y-123006606D01*
X151004789Y-123031340D01*
X150811628Y-123031340D01*
X150762159Y-123006606D01*
X150732671Y-122977117D01*
X150721305Y-122967789D01*
X150694269Y-122956590D01*
X150665007Y-122956590D01*
X150637970Y-122967788D01*
X150617277Y-122988481D01*
X150606078Y-123015517D01*
X150606078Y-123044779D01*
X150617276Y-123071816D01*
X150626603Y-123083181D01*
X150664698Y-123121277D01*
X150670449Y-123125997D01*
X150671748Y-123127495D01*
X150674003Y-123128914D01*
X150676063Y-123130605D01*
X150677893Y-123131363D01*
X150684191Y-123135327D01*
X150760382Y-123173422D01*
X150774114Y-123178677D01*
X150776801Y-123178867D01*
X150779291Y-123179899D01*
X150793923Y-123181340D01*
X151022494Y-123181340D01*
X151037126Y-123179899D01*
X151039615Y-123178867D01*
X151042303Y-123178677D01*
X151056035Y-123173422D01*
X151132226Y-123135327D01*
X151138525Y-123131362D01*
X151140353Y-123130605D01*
X151142409Y-123128917D01*
X151144669Y-123127495D01*
X151145969Y-123125995D01*
X151151719Y-123121277D01*
X151189814Y-123083181D01*
X151194531Y-123077432D01*
X151196030Y-123076133D01*
X151197451Y-123073874D01*
X151199141Y-123071816D01*
X151199898Y-123069986D01*
X151203862Y-123063690D01*
X151241957Y-122987500D01*
X151247212Y-122973768D01*
X151247402Y-122971080D01*
X151248434Y-122968591D01*
X151249875Y-122953959D01*
X151249875Y-122763483D01*
X151248434Y-122748851D01*
X151247402Y-122746361D01*
X151247212Y-122743674D01*
X151241957Y-122729942D01*
X151203862Y-122653751D01*
X151199897Y-122647451D01*
X151199140Y-122645624D01*
X151197451Y-122643567D01*
X151196030Y-122641308D01*
X151194531Y-122640008D01*
X151189813Y-122634259D01*
X151151718Y-122596164D01*
X151145968Y-122591445D01*
X151144669Y-122589947D01*
X151142409Y-122588525D01*
X151140353Y-122586837D01*
X151138525Y-122586079D01*
X151132226Y-122582115D01*
X151063358Y-122547681D01*
X151231319Y-122355727D01*
X151235839Y-122349403D01*
X151237235Y-122348008D01*
X151237783Y-122346684D01*
X151239869Y-122343767D01*
X151243773Y-122332223D01*
X151248434Y-122320972D01*
X151248434Y-122318443D01*
X151249245Y-122316046D01*
X151248434Y-122303883D01*
X151248434Y-122291708D01*
X151367983Y-122291708D01*
X151367983Y-122320972D01*
X151379182Y-122348008D01*
X151399874Y-122368700D01*
X151426910Y-122379899D01*
X151441542Y-122381340D01*
X151771498Y-122381340D01*
X151613671Y-122561714D01*
X151609149Y-122568038D01*
X151607754Y-122569434D01*
X151607205Y-122570757D01*
X151605120Y-122573675D01*
X151601218Y-122585212D01*
X151596555Y-122596470D01*
X151596555Y-122599000D01*
X151595745Y-122601396D01*
X151596555Y-122613549D01*
X151596555Y-122625734D01*
X151597522Y-122628070D01*
X151597691Y-122630594D01*
X151603093Y-122641519D01*
X151607754Y-122652770D01*
X151609540Y-122654556D01*
X151610663Y-122656826D01*
X151619835Y-122664851D01*
X151628446Y-122673462D01*
X151630782Y-122674430D01*
X151632687Y-122676096D01*
X151644224Y-122679997D01*
X151655482Y-122684661D01*
X151659052Y-122685012D01*
X151660408Y-122685471D01*
X151662375Y-122685339D01*
X151670114Y-122686102D01*
X151766694Y-122686102D01*
X151816163Y-122710836D01*
X151837045Y-122731718D01*
X151861780Y-122781187D01*
X151861780Y-122936254D01*
X151837045Y-122985722D01*
X151816162Y-123006606D01*
X151766694Y-123031340D01*
X151573533Y-123031340D01*
X151524064Y-123006606D01*
X151494576Y-122977117D01*
X151483210Y-122967789D01*
X151456174Y-122956590D01*
X151426912Y-122956590D01*
X151399875Y-122967788D01*
X151379182Y-122988481D01*
X151367983Y-123015517D01*
X151367983Y-123044779D01*
X151379181Y-123071816D01*
X151388508Y-123083181D01*
X151426603Y-123121277D01*
X151432354Y-123125997D01*
X151433653Y-123127495D01*
X151435908Y-123128914D01*
X151437968Y-123130605D01*
X151439798Y-123131363D01*
X151446096Y-123135327D01*
X151522287Y-123173422D01*
X151536019Y-123178677D01*
X151538706Y-123178867D01*
X151541196Y-123179899D01*
X151555828Y-123181340D01*
X151784399Y-123181340D01*
X151799031Y-123179899D01*
X151801520Y-123178867D01*
X151804208Y-123178677D01*
X151817940Y-123173422D01*
X151894131Y-123135327D01*
X151900430Y-123131362D01*
X151902258Y-123130605D01*
X151904314Y-123128917D01*
X151906574Y-123127495D01*
X151907874Y-123125995D01*
X151913624Y-123121277D01*
X151951719Y-123083181D01*
X151956436Y-123077432D01*
X151957935Y-123076133D01*
X151959356Y-123073874D01*
X151961046Y-123071816D01*
X151961803Y-123069986D01*
X151965767Y-123063690D01*
X152003862Y-122987500D01*
X152009117Y-122973768D01*
X152009307Y-122971080D01*
X152010339Y-122968591D01*
X152011780Y-122953959D01*
X152011780Y-122763483D01*
X152010339Y-122748851D01*
X152009307Y-122746361D01*
X152009117Y-122743674D01*
X152003862Y-122729942D01*
X151965767Y-122653751D01*
X151961802Y-122647451D01*
X151961045Y-122645624D01*
X151959356Y-122643567D01*
X151957935Y-122641308D01*
X151956436Y-122640008D01*
X151951718Y-122634259D01*
X151928561Y-122611102D01*
X152166542Y-122611102D01*
X152166542Y-122801578D01*
X152166793Y-122804131D01*
X152166631Y-122805224D01*
X152167440Y-122810698D01*
X152167983Y-122816210D01*
X152168405Y-122817230D01*
X152168781Y-122819769D01*
X152206877Y-122972150D01*
X152207262Y-122973229D01*
X152207301Y-122973768D01*
X152209625Y-122979843D01*
X152211824Y-122985995D01*
X152212146Y-122986430D01*
X152212556Y-122987500D01*
X152250651Y-123063690D01*
X152254614Y-123069986D01*
X152255372Y-123071816D01*
X152257061Y-123073874D01*
X152258483Y-123076133D01*
X152259981Y-123077432D01*
X152264699Y-123083181D01*
X152302794Y-123121277D01*
X152308545Y-123125997D01*
X152309844Y-123127495D01*
X152312099Y-123128914D01*
X152314159Y-123130605D01*
X152315989Y-123131363D01*
X152322287Y-123135327D01*
X152398478Y-123173422D01*
X152412210Y-123178677D01*
X152414897Y-123178867D01*
X152417387Y-123179899D01*
X152432019Y-123181340D01*
X152508209Y-123181340D01*
X152522841Y-123179899D01*
X152525330Y-123178867D01*
X152528018Y-123178677D01*
X152541750Y-123173422D01*
X152617941Y-123135327D01*
X152624240Y-123131362D01*
X152626068Y-123130605D01*
X152628124Y-123128917D01*
X152630384Y-123127495D01*
X152631684Y-123125995D01*
X152637434Y-123121277D01*
X152675529Y-123083181D01*
X152680246Y-123077432D01*
X152681745Y-123076133D01*
X152683166Y-123073874D01*
X152684856Y-123071816D01*
X152685613Y-123069986D01*
X152689577Y-123063690D01*
X152727672Y-122987500D01*
X152728081Y-122986430D01*
X152728404Y-122985995D01*
X152730599Y-122979849D01*
X152732927Y-122973768D01*
X152732965Y-122973228D01*
X152733351Y-122972149D01*
X152771446Y-122819768D01*
X152771821Y-122817230D01*
X152772244Y-122816210D01*
X152772785Y-122810707D01*
X152773597Y-122805223D01*
X152773433Y-122804127D01*
X152773685Y-122801578D01*
X152773685Y-122611102D01*
X152773433Y-122608552D01*
X152773597Y-122607457D01*
X152772785Y-122601972D01*
X152772244Y-122596470D01*
X152771821Y-122595449D01*
X152771446Y-122592912D01*
X152766470Y-122573006D01*
X153576067Y-122573006D01*
X153576067Y-123106340D01*
X153577508Y-123120972D01*
X153588707Y-123148008D01*
X153609399Y-123168700D01*
X153636435Y-123179899D01*
X153665699Y-123179899D01*
X153692735Y-123168700D01*
X153713427Y-123148008D01*
X153724626Y-123120972D01*
X153726067Y-123106340D01*
X153726067Y-122680263D01*
X153733588Y-122672741D01*
X153783058Y-122648006D01*
X153861933Y-122648006D01*
X153899927Y-122667003D01*
X153918924Y-122704997D01*
X153918924Y-123106340D01*
X153920365Y-123120972D01*
X153931564Y-123148008D01*
X153952256Y-123168700D01*
X153979292Y-123179899D01*
X154008556Y-123179899D01*
X154035592Y-123168700D01*
X154056284Y-123148008D01*
X154067483Y-123120972D01*
X154068924Y-123106340D01*
X154068924Y-122687292D01*
X154067483Y-122672660D01*
X154066451Y-122670170D01*
X154066261Y-122667483D01*
X154061006Y-122653751D01*
X154022911Y-122577561D01*
X154021370Y-122575113D01*
X154020986Y-122573960D01*
X154019740Y-122572523D01*
X154015079Y-122565118D01*
X154007972Y-122558954D01*
X154001813Y-122551853D01*
X153994409Y-122547192D01*
X153992971Y-122545945D01*
X153991816Y-122545560D01*
X153989370Y-122544020D01*
X153913179Y-122505924D01*
X153899448Y-122500669D01*
X153896758Y-122500477D01*
X153894270Y-122499447D01*
X153879638Y-122498006D01*
X153765352Y-122498006D01*
X153750720Y-122499447D01*
X153748228Y-122500479D01*
X153745542Y-122500670D01*
X153731810Y-122505925D01*
X153702612Y-122520523D01*
X153692735Y-122510646D01*
X153665699Y-122499447D01*
X153636435Y-122499447D01*
X153609399Y-122510646D01*
X153588707Y-122531338D01*
X153577508Y-122558374D01*
X153576067Y-122573006D01*
X152766470Y-122573006D01*
X152733351Y-122440531D01*
X152732965Y-122439451D01*
X152732927Y-122438912D01*
X152730599Y-122432830D01*
X152728404Y-122426685D01*
X152728081Y-122426249D01*
X152727672Y-122425180D01*
X152689577Y-122348989D01*
X152685612Y-122342689D01*
X152684855Y-122340862D01*
X152683166Y-122338805D01*
X152681745Y-122336546D01*
X152680246Y-122335246D01*
X152675528Y-122329497D01*
X152652371Y-122306340D01*
X154299877Y-122306340D01*
X154299877Y-123106340D01*
X154301318Y-123120972D01*
X154312517Y-123148008D01*
X154333209Y-123168700D01*
X154360245Y-123179899D01*
X154389509Y-123179899D01*
X154416545Y-123168700D01*
X154437237Y-123148008D01*
X154448436Y-123120972D01*
X154449877Y-123106340D01*
X154449877Y-122762292D01*
X154641543Y-122762292D01*
X154656175Y-122760851D01*
X154683211Y-122749652D01*
X154703903Y-122728960D01*
X154715102Y-122701924D01*
X154715102Y-122672660D01*
X154703903Y-122645624D01*
X154683211Y-122624932D01*
X154656175Y-122613733D01*
X154641543Y-122612292D01*
X154449877Y-122612292D01*
X154449877Y-122381340D01*
X154755829Y-122381340D01*
X154770461Y-122379899D01*
X154797497Y-122368700D01*
X154818189Y-122348008D01*
X154829388Y-122320972D01*
X154829388Y-122291708D01*
X154818189Y-122264672D01*
X154797497Y-122243980D01*
X154770461Y-122232781D01*
X154755829Y-122231340D01*
X154374877Y-122231340D01*
X154360245Y-122232781D01*
X154333209Y-122243980D01*
X154312517Y-122264672D01*
X154301318Y-122291708D01*
X154299877Y-122306340D01*
X152652371Y-122306340D01*
X152637433Y-122291402D01*
X152631683Y-122286683D01*
X152630384Y-122285185D01*
X152628124Y-122283763D01*
X152626068Y-122282075D01*
X152624240Y-122281317D01*
X152617941Y-122277353D01*
X152541750Y-122239258D01*
X152528018Y-122234003D01*
X152525330Y-122233812D01*
X152522841Y-122232781D01*
X152508209Y-122231340D01*
X152432019Y-122231340D01*
X152417387Y-122232781D01*
X152414897Y-122233812D01*
X152412210Y-122234003D01*
X152398478Y-122239258D01*
X152322287Y-122277353D01*
X152315987Y-122281317D01*
X152314160Y-122282075D01*
X152312103Y-122283763D01*
X152309844Y-122285185D01*
X152308544Y-122286683D01*
X152302795Y-122291402D01*
X152264700Y-122329497D01*
X152259981Y-122335246D01*
X152258483Y-122336546D01*
X152257061Y-122338805D01*
X152255373Y-122340862D01*
X152254615Y-122342689D01*
X152250651Y-122348989D01*
X152212556Y-122425180D01*
X152212146Y-122426249D01*
X152211824Y-122426685D01*
X152209625Y-122432836D01*
X152207301Y-122438912D01*
X152207262Y-122439450D01*
X152206877Y-122440530D01*
X152168781Y-122592911D01*
X152168405Y-122595449D01*
X152167983Y-122596470D01*
X152167440Y-122601981D01*
X152166631Y-122607456D01*
X152166793Y-122608548D01*
X152166542Y-122611102D01*
X151928561Y-122611102D01*
X151913623Y-122596164D01*
X151907873Y-122591445D01*
X151906574Y-122589947D01*
X151904314Y-122588525D01*
X151902258Y-122586837D01*
X151900430Y-122586079D01*
X151894131Y-122582115D01*
X151825263Y-122547681D01*
X151993224Y-122355727D01*
X151997744Y-122349403D01*
X151999140Y-122348008D01*
X151999688Y-122346684D01*
X152001774Y-122343767D01*
X152005678Y-122332223D01*
X152010339Y-122320972D01*
X152010339Y-122318443D01*
X152011150Y-122316046D01*
X152010339Y-122303883D01*
X152010339Y-122291708D01*
X152009371Y-122289371D01*
X152009203Y-122286847D01*
X152003798Y-122275919D01*
X151999140Y-122264672D01*
X151997353Y-122262885D01*
X151996231Y-122260616D01*
X151987058Y-122252590D01*
X151978448Y-122243980D01*
X151976111Y-122243011D01*
X151974207Y-122241346D01*
X151962663Y-122237441D01*
X151951412Y-122232781D01*
X151947845Y-122232429D01*
X151946486Y-122231970D01*
X151944512Y-122232101D01*
X151936780Y-122231340D01*
X151441542Y-122231340D01*
X151426910Y-122232781D01*
X151399874Y-122243980D01*
X151379182Y-122264672D01*
X151367983Y-122291708D01*
X151248434Y-122291708D01*
X151247466Y-122289371D01*
X151247298Y-122286847D01*
X151241893Y-122275919D01*
X151237235Y-122264672D01*
X151235448Y-122262885D01*
X151234326Y-122260616D01*
X151225153Y-122252590D01*
X151216543Y-122243980D01*
X151214206Y-122243011D01*
X151212302Y-122241346D01*
X151200758Y-122237441D01*
X151189507Y-122232781D01*
X151185940Y-122232429D01*
X151184581Y-122231970D01*
X151182607Y-122232101D01*
X151174875Y-122231340D01*
X150679637Y-122231340D01*
X150665005Y-122232781D01*
X150637969Y-122243980D01*
X150617277Y-122264672D01*
X150606078Y-122291708D01*
X148180595Y-122291708D01*
X148180289Y-122291402D01*
X148174539Y-122286683D01*
X148173240Y-122285185D01*
X148170980Y-122283763D01*
X148168924Y-122282075D01*
X148167096Y-122281317D01*
X148160797Y-122277353D01*
X148084606Y-122239258D01*
X148070874Y-122234003D01*
X148068186Y-122233812D01*
X148065697Y-122232781D01*
X148051065Y-122231340D01*
X147860589Y-122231340D01*
X147845957Y-122232781D01*
X147843467Y-122233812D01*
X147840780Y-122234003D01*
X147827048Y-122239258D01*
X147750858Y-122277353D01*
X147744561Y-122281316D01*
X147742732Y-122282074D01*
X147740673Y-122283763D01*
X147738415Y-122285185D01*
X147737115Y-122286683D01*
X147731367Y-122291401D01*
X147693271Y-122329496D01*
X147683943Y-122340862D01*
X147672744Y-122367898D01*
X147672744Y-122397160D01*
X147683942Y-122424197D01*
X147704635Y-122444890D01*
X147731671Y-122456089D01*
X147760933Y-122456089D01*
X147787970Y-122444891D01*
X147799335Y-122435564D01*
X147828825Y-122406074D01*
X147878294Y-122381340D01*
X148033360Y-122381340D01*
X148082829Y-122406074D01*
X148103711Y-122426956D01*
X148128446Y-122476425D01*
X148128446Y-122522741D01*
X148099798Y-122608683D01*
X147655175Y-123053307D01*
X147645848Y-123064672D01*
X147634649Y-123091708D01*
X147486049Y-123091708D01*
X147494575Y-123083182D01*
X147503903Y-123071817D01*
X147515101Y-123044780D01*
X147515101Y-123015517D01*
X147503903Y-122988481D01*
X147483210Y-122967788D01*
X147456174Y-122956590D01*
X147426911Y-122956590D01*
X147399874Y-122967788D01*
X147388509Y-122977116D01*
X147362932Y-123002693D01*
X147276991Y-123031340D01*
X147225140Y-123031340D01*
X147139198Y-123002693D01*
X147084133Y-122947627D01*
X147055163Y-122889687D01*
X147021303Y-122754247D01*
X147021303Y-122658432D01*
X147055163Y-122522991D01*
X147084133Y-122465051D01*
X147139197Y-122409987D01*
X147225140Y-122381340D01*
X147276991Y-122381340D01*
X147362932Y-122409987D01*
X147388510Y-122435564D01*
X147399875Y-122444891D01*
X147426911Y-122456089D01*
X147456174Y-122456089D01*
X147483210Y-122444890D01*
X147503903Y-122424197D01*
X147515101Y-122397160D01*
X147515101Y-122367897D01*
X147503902Y-122340861D01*
X147494574Y-122329496D01*
X147456478Y-122291401D01*
X147445113Y-122282074D01*
X147442624Y-122281043D01*
X147440589Y-122279278D01*
X147427163Y-122273284D01*
X147312878Y-122235189D01*
X147305624Y-122233539D01*
X147303793Y-122232781D01*
X147301138Y-122232519D01*
X147298541Y-122231929D01*
X147296566Y-122232069D01*
X147289161Y-122231340D01*
X147212970Y-122231340D01*
X147205564Y-122232069D01*
X147203590Y-122231929D01*
X147200992Y-122232519D01*
X147198338Y-122232781D01*
X147196506Y-122233539D01*
X147189253Y-122235189D01*
X147074967Y-122273284D01*
X147061542Y-122279278D01*
X147059508Y-122281041D01*
X147057016Y-122282074D01*
X147045651Y-122291402D01*
X146969461Y-122367592D01*
X146964742Y-122373341D01*
X146963244Y-122374641D01*
X146961822Y-122376900D01*
X146960134Y-122378957D01*
X146959376Y-122380784D01*
X146955412Y-122387084D01*
X146917317Y-122463275D01*
X146916907Y-122464344D01*
X146916585Y-122464780D01*
X146914386Y-122470931D01*
X146912062Y-122477007D01*
X146912023Y-122477545D01*
X146911638Y-122478625D01*
X146873542Y-122631006D01*
X146873166Y-122633544D01*
X146872744Y-122634565D01*
X146872201Y-122640076D01*
X146871392Y-122645551D01*
X146871554Y-122646643D01*
X146871303Y-122649197D01*
X146782414Y-122649197D01*
X146782414Y-121361242D01*
X146871303Y-121361242D01*
X146871303Y-121475528D01*
X146871554Y-121478081D01*
X146871392Y-121479174D01*
X146872201Y-121484648D01*
X146872744Y-121490160D01*
X146873166Y-121491180D01*
X146873542Y-121493719D01*
X146911638Y-121646100D01*
X146912023Y-121647179D01*
X146912062Y-121647718D01*
X146914386Y-121653793D01*
X146916585Y-121659945D01*
X146916907Y-121660380D01*
X146917317Y-121661450D01*
X146955412Y-121737640D01*
X146959375Y-121743936D01*
X146960133Y-121745766D01*
X146961822Y-121747824D01*
X146963244Y-121750083D01*
X146964742Y-121751382D01*
X146969461Y-121757132D01*
X147045651Y-121833323D01*
X147057016Y-121842650D01*
X147059506Y-121843681D01*
X147061542Y-121845447D01*
X147074967Y-121851441D01*
X147189253Y-121889536D01*
X147196506Y-121891185D01*
X147198338Y-121891944D01*
X147200992Y-121892205D01*
X147203590Y-121892796D01*
X147205564Y-121892655D01*
X147212970Y-121893385D01*
X147289161Y-121893385D01*
X147296566Y-121892655D01*
X147298541Y-121892796D01*
X147301138Y-121892205D01*
X147303793Y-121891944D01*
X147305624Y-121891185D01*
X147312878Y-121889536D01*
X147427163Y-121851441D01*
X147440589Y-121845447D01*
X147442625Y-121843680D01*
X147445114Y-121842650D01*
X147456479Y-121833323D01*
X147494575Y-121795227D01*
X147503903Y-121783862D01*
X147515101Y-121756825D01*
X147515101Y-121727562D01*
X147503903Y-121700526D01*
X147483210Y-121679833D01*
X147456174Y-121668635D01*
X147426911Y-121668635D01*
X147399874Y-121679833D01*
X147388509Y-121689161D01*
X147362932Y-121714738D01*
X147276991Y-121743385D01*
X147225140Y-121743385D01*
X147139198Y-121714738D01*
X147084133Y-121659672D01*
X147055163Y-121601732D01*
X147021303Y-121466292D01*
X147021303Y-121370477D01*
X147054528Y-121237575D01*
X147671892Y-121237575D01*
X147673966Y-121266765D01*
X147687053Y-121292940D01*
X147709161Y-121312113D01*
X147736922Y-121321367D01*
X147766112Y-121319293D01*
X147779844Y-121314038D01*
X147856035Y-121275943D01*
X147862334Y-121271978D01*
X147864162Y-121271221D01*
X147866218Y-121269532D01*
X147868478Y-121268111D01*
X147869777Y-121266612D01*
X147875527Y-121261894D01*
X147899875Y-121237545D01*
X147899875Y-121743385D01*
X147746303Y-121743385D01*
X147731671Y-121744826D01*
X147704635Y-121756025D01*
X147683943Y-121776717D01*
X147672744Y-121803753D01*
X147672744Y-121833017D01*
X147683943Y-121860053D01*
X147704635Y-121880745D01*
X147731671Y-121891944D01*
X147746303Y-121893385D01*
X148203446Y-121893385D01*
X148218078Y-121891944D01*
X148245114Y-121880745D01*
X148265806Y-121860053D01*
X148277005Y-121833017D01*
X148277005Y-121803753D01*
X148265806Y-121776717D01*
X148245114Y-121756025D01*
X148218078Y-121744826D01*
X148203446Y-121743385D01*
X148049875Y-121743385D01*
X148049875Y-121613277D01*
X149082269Y-121613277D01*
X149082269Y-121642541D01*
X149093468Y-121669577D01*
X149114160Y-121690269D01*
X149141196Y-121701468D01*
X149155828Y-121702909D01*
X149765352Y-121702909D01*
X149779984Y-121701468D01*
X149807020Y-121690269D01*
X149827712Y-121669577D01*
X149838911Y-121642541D01*
X149838911Y-121613277D01*
X149827712Y-121586241D01*
X149807020Y-121565549D01*
X149779984Y-121554350D01*
X149765352Y-121552909D01*
X149155828Y-121552909D01*
X149141196Y-121554350D01*
X149114160Y-121565549D01*
X149093468Y-121586241D01*
X149082269Y-121613277D01*
X148049875Y-121613277D01*
X148049875Y-121384705D01*
X149082269Y-121384705D01*
X149082269Y-121413969D01*
X149093468Y-121441005D01*
X149114160Y-121461697D01*
X149141196Y-121472896D01*
X149155828Y-121474337D01*
X149765352Y-121474337D01*
X149779984Y-121472896D01*
X149807020Y-121461697D01*
X149827712Y-121441005D01*
X149838911Y-121413969D01*
X149838911Y-121384705D01*
X149827712Y-121357669D01*
X149807020Y-121336977D01*
X149779984Y-121325778D01*
X149765352Y-121324337D01*
X149155828Y-121324337D01*
X149141196Y-121325778D01*
X149114160Y-121336977D01*
X149093468Y-121357669D01*
X149082269Y-121384705D01*
X148049875Y-121384705D01*
X148049875Y-121237575D01*
X150643321Y-121237575D01*
X150645395Y-121266765D01*
X150658482Y-121292940D01*
X150680590Y-121312113D01*
X150708351Y-121321367D01*
X150737541Y-121319293D01*
X150751273Y-121314038D01*
X150827464Y-121275943D01*
X150833763Y-121271978D01*
X150835591Y-121271221D01*
X150837647Y-121269532D01*
X150839907Y-121268111D01*
X150841206Y-121266612D01*
X150846956Y-121261894D01*
X150871304Y-121237545D01*
X150871304Y-121743385D01*
X150717732Y-121743385D01*
X150703100Y-121744826D01*
X150676064Y-121756025D01*
X150655372Y-121776717D01*
X150644173Y-121803753D01*
X150644173Y-121833017D01*
X150655372Y-121860053D01*
X150676064Y-121880745D01*
X150703100Y-121891944D01*
X150717732Y-121893385D01*
X151174875Y-121893385D01*
X151189507Y-121891944D01*
X151216543Y-121880745D01*
X151237235Y-121860053D01*
X151248434Y-121833017D01*
X151248434Y-121803753D01*
X151237235Y-121776717D01*
X151216543Y-121756025D01*
X151189507Y-121744826D01*
X151174875Y-121743385D01*
X151021304Y-121743385D01*
X151021304Y-121323147D01*
X151404637Y-121323147D01*
X151404637Y-121513623D01*
X151404888Y-121516176D01*
X151404726Y-121517269D01*
X151405535Y-121522743D01*
X151406078Y-121528255D01*
X151406500Y-121529275D01*
X151406876Y-121531814D01*
X151444972Y-121684195D01*
X151445357Y-121685274D01*
X151445396Y-121685813D01*
X151447720Y-121691888D01*
X151449919Y-121698040D01*
X151450241Y-121698475D01*
X151450651Y-121699545D01*
X151488746Y-121775735D01*
X151492709Y-121782031D01*
X151493467Y-121783861D01*
X151495156Y-121785919D01*
X151496578Y-121788178D01*
X151498076Y-121789477D01*
X151502794Y-121795226D01*
X151540889Y-121833322D01*
X151546640Y-121838042D01*
X151547939Y-121839540D01*
X151550194Y-121840959D01*
X151552254Y-121842650D01*
X151554084Y-121843408D01*
X151560382Y-121847372D01*
X151636573Y-121885467D01*
X151650305Y-121890722D01*
X151652992Y-121890912D01*
X151655482Y-121891944D01*
X151670114Y-121893385D01*
X151746304Y-121893385D01*
X151760936Y-121891944D01*
X151763425Y-121890912D01*
X151766113Y-121890722D01*
X151779845Y-121885467D01*
X151856036Y-121847372D01*
X151862335Y-121843407D01*
X151864163Y-121842650D01*
X151866219Y-121840962D01*
X151868479Y-121839540D01*
X151869779Y-121838040D01*
X151875529Y-121833322D01*
X151913624Y-121795226D01*
X151918341Y-121789477D01*
X151919840Y-121788178D01*
X151921261Y-121785919D01*
X151922951Y-121783861D01*
X151923708Y-121782031D01*
X151927672Y-121775735D01*
X151965767Y-121699545D01*
X151966176Y-121698475D01*
X151966499Y-121698040D01*
X151968694Y-121691894D01*
X151971022Y-121685813D01*
X151971060Y-121685273D01*
X151971446Y-121684194D01*
X152009541Y-121531813D01*
X152009916Y-121529275D01*
X152010339Y-121528255D01*
X152010880Y-121522752D01*
X152011692Y-121517268D01*
X152011528Y-121516172D01*
X152011780Y-121513623D01*
X152011780Y-121323147D01*
X152166542Y-121323147D01*
X152166542Y-121513623D01*
X152166793Y-121516176D01*
X152166631Y-121517269D01*
X152167440Y-121522743D01*
X152167983Y-121528255D01*
X152168405Y-121529275D01*
X152168781Y-121531814D01*
X152206877Y-121684195D01*
X152207262Y-121685274D01*
X152207301Y-121685813D01*
X152209625Y-121691888D01*
X152211824Y-121698040D01*
X152212146Y-121698475D01*
X152212556Y-121699545D01*
X152250651Y-121775735D01*
X152254614Y-121782031D01*
X152255372Y-121783861D01*
X152257061Y-121785919D01*
X152258483Y-121788178D01*
X152259981Y-121789477D01*
X152264699Y-121795226D01*
X152302794Y-121833322D01*
X152308545Y-121838042D01*
X152309844Y-121839540D01*
X152312099Y-121840959D01*
X152314159Y-121842650D01*
X152315989Y-121843408D01*
X152322287Y-121847372D01*
X152398478Y-121885467D01*
X152412210Y-121890722D01*
X152414897Y-121890912D01*
X152417387Y-121891944D01*
X152432019Y-121893385D01*
X152508209Y-121893385D01*
X152522841Y-121891944D01*
X152525330Y-121890912D01*
X152528018Y-121890722D01*
X152541750Y-121885467D01*
X152617941Y-121847372D01*
X152624240Y-121843407D01*
X152626068Y-121842650D01*
X152628124Y-121840962D01*
X152630384Y-121839540D01*
X152631684Y-121838040D01*
X152637434Y-121833322D01*
X152675529Y-121795226D01*
X152680246Y-121789477D01*
X152681745Y-121788178D01*
X152683166Y-121785919D01*
X152684856Y-121783861D01*
X152685613Y-121782031D01*
X152689577Y-121775735D01*
X152727672Y-121699545D01*
X152728081Y-121698475D01*
X152728404Y-121698040D01*
X152730599Y-121691894D01*
X152732927Y-121685813D01*
X152732965Y-121685273D01*
X152733351Y-121684194D01*
X152771446Y-121531813D01*
X152771821Y-121529275D01*
X152772244Y-121528255D01*
X152772785Y-121522752D01*
X152773597Y-121517268D01*
X152773433Y-121516172D01*
X152773685Y-121513623D01*
X152773685Y-121323147D01*
X152773433Y-121320597D01*
X152773597Y-121319502D01*
X152772785Y-121314017D01*
X152772244Y-121308515D01*
X152771821Y-121307494D01*
X152771446Y-121304957D01*
X152766470Y-121285051D01*
X153576067Y-121285051D01*
X153576067Y-122085051D01*
X153577508Y-122099683D01*
X153588707Y-122126719D01*
X153609399Y-122147411D01*
X153636435Y-122158610D01*
X153665699Y-122158610D01*
X153692735Y-122147411D01*
X153713427Y-122126719D01*
X153724626Y-122099683D01*
X153726067Y-122085051D01*
X153726067Y-121882595D01*
X153731811Y-121885467D01*
X153745543Y-121890722D01*
X153748230Y-121890912D01*
X153750720Y-121891944D01*
X153765352Y-121893385D01*
X153917733Y-121893385D01*
X153932365Y-121891944D01*
X153934854Y-121890912D01*
X153937542Y-121890722D01*
X153951274Y-121885467D01*
X154027465Y-121847372D01*
X154029912Y-121845831D01*
X154031066Y-121845447D01*
X154032019Y-121844620D01*
X154032972Y-121845447D01*
X154034125Y-121845831D01*
X154036573Y-121847372D01*
X154112764Y-121885467D01*
X154126496Y-121890722D01*
X154155686Y-121892796D01*
X154183447Y-121883542D01*
X154205555Y-121864369D01*
X154218642Y-121838194D01*
X154220716Y-121809004D01*
X154211462Y-121781243D01*
X154192289Y-121759135D01*
X154179846Y-121751303D01*
X154126015Y-121724388D01*
X154107019Y-121686394D01*
X154107019Y-121285051D01*
X154105578Y-121270419D01*
X154094379Y-121243383D01*
X154073687Y-121222691D01*
X154046651Y-121211492D01*
X154017387Y-121211492D01*
X153990351Y-121222691D01*
X153969659Y-121243383D01*
X153958460Y-121270419D01*
X153957019Y-121285051D01*
X153957019Y-121686394D01*
X153938022Y-121724388D01*
X153900028Y-121743385D01*
X153783057Y-121743385D01*
X153745063Y-121724388D01*
X153726067Y-121686394D01*
X153726067Y-121285051D01*
X153724626Y-121270419D01*
X153713427Y-121243383D01*
X153692735Y-121222691D01*
X153665699Y-121211492D01*
X153636435Y-121211492D01*
X153609399Y-121222691D01*
X153588707Y-121243383D01*
X153577508Y-121270419D01*
X153576067Y-121285051D01*
X152766470Y-121285051D01*
X152733351Y-121152576D01*
X152732965Y-121151496D01*
X152732927Y-121150957D01*
X152730599Y-121144875D01*
X152728404Y-121138730D01*
X152728081Y-121138294D01*
X152727672Y-121137225D01*
X152689577Y-121061034D01*
X152685612Y-121054734D01*
X152684855Y-121052907D01*
X152683166Y-121050850D01*
X152681745Y-121048591D01*
X152680246Y-121047291D01*
X152675528Y-121041542D01*
X152652371Y-121018385D01*
X154414162Y-121018385D01*
X154414162Y-121818385D01*
X154415603Y-121833017D01*
X154426802Y-121860053D01*
X154447494Y-121880745D01*
X154474530Y-121891944D01*
X154503794Y-121891944D01*
X154530830Y-121880745D01*
X154551522Y-121860053D01*
X154562721Y-121833017D01*
X154564162Y-121818385D01*
X154564162Y-121474337D01*
X154755828Y-121474337D01*
X154770460Y-121472896D01*
X154797496Y-121461697D01*
X154818188Y-121441005D01*
X154829387Y-121413969D01*
X154829387Y-121384705D01*
X154818188Y-121357669D01*
X154797496Y-121336977D01*
X154770460Y-121325778D01*
X154755828Y-121324337D01*
X154564162Y-121324337D01*
X154564162Y-121093385D01*
X154870114Y-121093385D01*
X154884746Y-121091944D01*
X154911782Y-121080745D01*
X154932474Y-121060053D01*
X154943673Y-121033017D01*
X154943673Y-121003753D01*
X154932474Y-120976717D01*
X154911782Y-120956025D01*
X154884746Y-120944826D01*
X154870114Y-120943385D01*
X154489162Y-120943385D01*
X154474530Y-120944826D01*
X154447494Y-120956025D01*
X154426802Y-120976717D01*
X154415603Y-121003753D01*
X154414162Y-121018385D01*
X152652371Y-121018385D01*
X152637433Y-121003447D01*
X152631683Y-120998728D01*
X152630384Y-120997230D01*
X152628124Y-120995808D01*
X152626068Y-120994120D01*
X152624240Y-120993362D01*
X152617941Y-120989398D01*
X152541750Y-120951303D01*
X152528018Y-120946048D01*
X152525330Y-120945857D01*
X152522841Y-120944826D01*
X152508209Y-120943385D01*
X152432019Y-120943385D01*
X152417387Y-120944826D01*
X152414897Y-120945857D01*
X152412210Y-120946048D01*
X152398478Y-120951303D01*
X152322287Y-120989398D01*
X152315987Y-120993362D01*
X152314160Y-120994120D01*
X152312103Y-120995808D01*
X152309844Y-120997230D01*
X152308544Y-120998728D01*
X152302795Y-121003447D01*
X152264700Y-121041542D01*
X152259981Y-121047291D01*
X152258483Y-121048591D01*
X152257061Y-121050850D01*
X152255373Y-121052907D01*
X152254615Y-121054734D01*
X152250651Y-121061034D01*
X152212556Y-121137225D01*
X152212146Y-121138294D01*
X152211824Y-121138730D01*
X152209625Y-121144881D01*
X152207301Y-121150957D01*
X152207262Y-121151495D01*
X152206877Y-121152575D01*
X152168781Y-121304956D01*
X152168405Y-121307494D01*
X152167983Y-121308515D01*
X152167440Y-121314026D01*
X152166631Y-121319501D01*
X152166793Y-121320593D01*
X152166542Y-121323147D01*
X152011780Y-121323147D01*
X152011528Y-121320597D01*
X152011692Y-121319502D01*
X152010880Y-121314017D01*
X152010339Y-121308515D01*
X152009916Y-121307494D01*
X152009541Y-121304957D01*
X151971446Y-121152576D01*
X151971060Y-121151496D01*
X151971022Y-121150957D01*
X151968694Y-121144875D01*
X151966499Y-121138730D01*
X151966176Y-121138294D01*
X151965767Y-121137225D01*
X151927672Y-121061034D01*
X151923707Y-121054734D01*
X151922950Y-121052907D01*
X151921261Y-121050850D01*
X151919840Y-121048591D01*
X151918341Y-121047291D01*
X151913623Y-121041542D01*
X151875528Y-121003447D01*
X151869778Y-120998728D01*
X151868479Y-120997230D01*
X151866219Y-120995808D01*
X151864163Y-120994120D01*
X151862335Y-120993362D01*
X151856036Y-120989398D01*
X151779845Y-120951303D01*
X151766113Y-120946048D01*
X151763425Y-120945857D01*
X151760936Y-120944826D01*
X151746304Y-120943385D01*
X151670114Y-120943385D01*
X151655482Y-120944826D01*
X151652992Y-120945857D01*
X151650305Y-120946048D01*
X151636573Y-120951303D01*
X151560382Y-120989398D01*
X151554082Y-120993362D01*
X151552255Y-120994120D01*
X151550198Y-120995808D01*
X151547939Y-120997230D01*
X151546639Y-120998728D01*
X151540890Y-121003447D01*
X151502795Y-121041542D01*
X151498076Y-121047291D01*
X151496578Y-121048591D01*
X151495156Y-121050850D01*
X151493468Y-121052907D01*
X151492710Y-121054734D01*
X151488746Y-121061034D01*
X151450651Y-121137225D01*
X151450241Y-121138294D01*
X151449919Y-121138730D01*
X151447720Y-121144881D01*
X151445396Y-121150957D01*
X151445357Y-121151495D01*
X151444972Y-121152575D01*
X151406876Y-121304956D01*
X151406500Y-121307494D01*
X151406078Y-121308515D01*
X151405535Y-121314026D01*
X151404726Y-121319501D01*
X151404888Y-121320593D01*
X151404637Y-121323147D01*
X151021304Y-121323147D01*
X151021304Y-121018385D01*
X151021298Y-121018332D01*
X151021304Y-121018307D01*
X151021288Y-121018231D01*
X151019863Y-121003753D01*
X151017021Y-120996892D01*
X151015565Y-120989612D01*
X151011476Y-120983506D01*
X151008664Y-120976717D01*
X151003413Y-120971466D01*
X150999282Y-120965297D01*
X150993167Y-120961220D01*
X150987972Y-120956025D01*
X150981111Y-120953183D01*
X150974933Y-120949064D01*
X150967724Y-120947637D01*
X150960936Y-120944826D01*
X150953510Y-120944826D01*
X150946226Y-120943385D01*
X150939021Y-120944826D01*
X150931672Y-120944826D01*
X150924811Y-120947667D01*
X150917531Y-120949124D01*
X150911425Y-120953212D01*
X150904636Y-120956025D01*
X150899385Y-120961275D01*
X150893216Y-120965407D01*
X150883995Y-120976665D01*
X150883944Y-120976717D01*
X150883934Y-120976739D01*
X150883900Y-120976782D01*
X150811827Y-121084890D01*
X150749495Y-121147221D01*
X150684191Y-121179874D01*
X150671748Y-121187706D01*
X150652575Y-121209814D01*
X150643321Y-121237575D01*
X148049875Y-121237575D01*
X148049875Y-121018385D01*
X148049869Y-121018332D01*
X148049875Y-121018307D01*
X148049859Y-121018231D01*
X148048434Y-121003753D01*
X148045592Y-120996892D01*
X148044136Y-120989612D01*
X148040047Y-120983506D01*
X148037235Y-120976717D01*
X148031984Y-120971466D01*
X148027853Y-120965297D01*
X148021738Y-120961220D01*
X148016543Y-120956025D01*
X148009682Y-120953183D01*
X148003504Y-120949064D01*
X147996295Y-120947637D01*
X147989507Y-120944826D01*
X147982081Y-120944826D01*
X147974797Y-120943385D01*
X147967592Y-120944826D01*
X147960243Y-120944826D01*
X147953382Y-120947667D01*
X147946102Y-120949124D01*
X147939996Y-120953212D01*
X147933207Y-120956025D01*
X147927956Y-120961275D01*
X147921787Y-120965407D01*
X147912566Y-120976665D01*
X147912515Y-120976717D01*
X147912505Y-120976739D01*
X147912471Y-120976782D01*
X147840398Y-121084890D01*
X147778066Y-121147221D01*
X147712762Y-121179874D01*
X147700319Y-121187706D01*
X147681146Y-121209814D01*
X147671892Y-121237575D01*
X147054528Y-121237575D01*
X147055163Y-121235036D01*
X147084133Y-121177096D01*
X147139197Y-121122032D01*
X147225140Y-121093385D01*
X147276991Y-121093385D01*
X147362932Y-121122032D01*
X147388510Y-121147609D01*
X147399875Y-121156936D01*
X147426911Y-121168134D01*
X147456174Y-121168134D01*
X147483210Y-121156935D01*
X147503903Y-121136242D01*
X147515101Y-121109205D01*
X147515101Y-121079942D01*
X147503902Y-121052906D01*
X147494574Y-121041541D01*
X147456478Y-121003446D01*
X147445113Y-120994119D01*
X147442624Y-120993088D01*
X147440589Y-120991323D01*
X147427163Y-120985329D01*
X147312878Y-120947234D01*
X147305624Y-120945584D01*
X147303793Y-120944826D01*
X147301138Y-120944564D01*
X147298541Y-120943974D01*
X147296566Y-120944114D01*
X147289161Y-120943385D01*
X147212970Y-120943385D01*
X147205564Y-120944114D01*
X147203590Y-120943974D01*
X147200992Y-120944564D01*
X147198338Y-120944826D01*
X147196506Y-120945584D01*
X147189253Y-120947234D01*
X147074967Y-120985329D01*
X147061542Y-120991323D01*
X147059508Y-120993086D01*
X147057016Y-120994119D01*
X147045651Y-121003447D01*
X146969461Y-121079637D01*
X146964742Y-121085386D01*
X146963244Y-121086686D01*
X146961822Y-121088945D01*
X146960134Y-121091002D01*
X146959376Y-121092829D01*
X146955412Y-121099129D01*
X146917317Y-121175320D01*
X146916907Y-121176389D01*
X146916585Y-121176825D01*
X146914386Y-121182976D01*
X146912062Y-121189052D01*
X146912023Y-121189590D01*
X146911638Y-121190670D01*
X146873542Y-121343051D01*
X146873166Y-121345589D01*
X146872744Y-121346610D01*
X146872201Y-121352121D01*
X146871392Y-121357596D01*
X146871554Y-121358688D01*
X146871303Y-121361242D01*
X146782414Y-121361242D01*
X146782414Y-120854496D01*
X155032562Y-120854496D01*
X155032562Y-124558184D01*
G37*
D12*
X148062618Y-97074318D02*
X148062618Y-95804318D01*
X148062618Y-95804318D02*
X148364999Y-95804318D01*
X148364999Y-95804318D02*
X148546428Y-95864794D01*
X148546428Y-95864794D02*
X148667380Y-95985746D01*
X148667380Y-95985746D02*
X148727857Y-96106699D01*
X148727857Y-96106699D02*
X148788333Y-96348603D01*
X148788333Y-96348603D02*
X148788333Y-96530032D01*
X148788333Y-96530032D02*
X148727857Y-96771937D01*
X148727857Y-96771937D02*
X148667380Y-96892889D01*
X148667380Y-96892889D02*
X148546428Y-97013842D01*
X148546428Y-97013842D02*
X148364999Y-97074318D01*
X148364999Y-97074318D02*
X148062618Y-97074318D01*
X149997857Y-97074318D02*
X149272142Y-97074318D01*
X149634999Y-97074318D02*
X149634999Y-95804318D01*
X149634999Y-95804318D02*
X149514047Y-95985746D01*
X149514047Y-95985746D02*
X149393095Y-96106699D01*
X149393095Y-96106699D02*
X149272142Y-96167175D01*
X156288333Y-92953365D02*
X156227857Y-93013842D01*
X156227857Y-93013842D02*
X156046428Y-93074318D01*
X156046428Y-93074318D02*
X155925476Y-93074318D01*
X155925476Y-93074318D02*
X155744047Y-93013842D01*
X155744047Y-93013842D02*
X155623095Y-92892889D01*
X155623095Y-92892889D02*
X155562618Y-92771937D01*
X155562618Y-92771937D02*
X155502142Y-92530032D01*
X155502142Y-92530032D02*
X155502142Y-92348603D01*
X155502142Y-92348603D02*
X155562618Y-92106699D01*
X155562618Y-92106699D02*
X155623095Y-91985746D01*
X155623095Y-91985746D02*
X155744047Y-91864794D01*
X155744047Y-91864794D02*
X155925476Y-91804318D01*
X155925476Y-91804318D02*
X156046428Y-91804318D01*
X156046428Y-91804318D02*
X156227857Y-91864794D01*
X156227857Y-91864794D02*
X156288333Y-91925270D01*
X156772142Y-91925270D02*
X156832618Y-91864794D01*
X156832618Y-91864794D02*
X156953571Y-91804318D01*
X156953571Y-91804318D02*
X157255952Y-91804318D01*
X157255952Y-91804318D02*
X157376904Y-91864794D01*
X157376904Y-91864794D02*
X157437380Y-91925270D01*
X157437380Y-91925270D02*
X157497857Y-92046222D01*
X157497857Y-92046222D02*
X157497857Y-92167175D01*
X157497857Y-92167175D02*
X157437380Y-92348603D01*
X157437380Y-92348603D02*
X156711666Y-93074318D01*
X156711666Y-93074318D02*
X157497857Y-93074318D01*
X134576667Y-84454318D02*
X134576667Y-85361461D01*
X134576667Y-85361461D02*
X134516190Y-85542889D01*
X134516190Y-85542889D02*
X134395238Y-85663842D01*
X134395238Y-85663842D02*
X134213809Y-85724318D01*
X134213809Y-85724318D02*
X134092857Y-85724318D01*
X135846667Y-85724318D02*
X135120952Y-85724318D01*
X135483809Y-85724318D02*
X135483809Y-84454318D01*
X135483809Y-84454318D02*
X135362857Y-84635746D01*
X135362857Y-84635746D02*
X135241905Y-84756699D01*
X135241905Y-84756699D02*
X135120952Y-84817175D01*
X157760237Y-99074318D02*
X157760237Y-97804318D01*
X159090714Y-98953365D02*
X159030238Y-99013842D01*
X159030238Y-99013842D02*
X158848809Y-99074318D01*
X158848809Y-99074318D02*
X158727857Y-99074318D01*
X158727857Y-99074318D02*
X158546428Y-99013842D01*
X158546428Y-99013842D02*
X158425476Y-98892889D01*
X158425476Y-98892889D02*
X158364999Y-98771937D01*
X158364999Y-98771937D02*
X158304523Y-98530032D01*
X158304523Y-98530032D02*
X158304523Y-98348603D01*
X158304523Y-98348603D02*
X158364999Y-98106699D01*
X158364999Y-98106699D02*
X158425476Y-97985746D01*
X158425476Y-97985746D02*
X158546428Y-97864794D01*
X158546428Y-97864794D02*
X158727857Y-97804318D01*
X158727857Y-97804318D02*
X158848809Y-97804318D01*
X158848809Y-97804318D02*
X159030238Y-97864794D01*
X159030238Y-97864794D02*
X159090714Y-97925270D01*
X160300238Y-99074318D02*
X159574523Y-99074318D01*
X159937380Y-99074318D02*
X159937380Y-97804318D01*
X159937380Y-97804318D02*
X159816428Y-97985746D01*
X159816428Y-97985746D02*
X159695476Y-98106699D01*
X159695476Y-98106699D02*
X159574523Y-98167175D01*
X149288333Y-79928365D02*
X149227857Y-79988842D01*
X149227857Y-79988842D02*
X149046428Y-80049318D01*
X149046428Y-80049318D02*
X148925476Y-80049318D01*
X148925476Y-80049318D02*
X148744047Y-79988842D01*
X148744047Y-79988842D02*
X148623095Y-79867889D01*
X148623095Y-79867889D02*
X148562618Y-79746937D01*
X148562618Y-79746937D02*
X148502142Y-79505032D01*
X148502142Y-79505032D02*
X148502142Y-79323603D01*
X148502142Y-79323603D02*
X148562618Y-79081699D01*
X148562618Y-79081699D02*
X148623095Y-78960746D01*
X148623095Y-78960746D02*
X148744047Y-78839794D01*
X148744047Y-78839794D02*
X148925476Y-78779318D01*
X148925476Y-78779318D02*
X149046428Y-78779318D01*
X149046428Y-78779318D02*
X149227857Y-78839794D01*
X149227857Y-78839794D02*
X149288333Y-78900270D01*
X150497857Y-80049318D02*
X149772142Y-80049318D01*
X150134999Y-80049318D02*
X150134999Y-78779318D01*
X150134999Y-78779318D02*
X150014047Y-78960746D01*
X150014047Y-78960746D02*
X149893095Y-79081699D01*
X149893095Y-79081699D02*
X149772142Y-79142175D01*
X149076667Y-85384080D02*
X148653333Y-85384080D01*
X148653333Y-86049318D02*
X148653333Y-84779318D01*
X148653333Y-84779318D02*
X149258095Y-84779318D01*
X150407143Y-86049318D02*
X149681428Y-86049318D01*
X150044285Y-86049318D02*
X150044285Y-84779318D01*
X150044285Y-84779318D02*
X149923333Y-84960746D01*
X149923333Y-84960746D02*
X149802381Y-85081699D01*
X149802381Y-85081699D02*
X149681428Y-85142175D01*
D10*
X153604819Y-106166666D02*
X153128628Y-106499999D01*
X153604819Y-106738094D02*
X152604819Y-106738094D01*
X152604819Y-106738094D02*
X152604819Y-106357142D01*
X152604819Y-106357142D02*
X152652438Y-106261904D01*
X152652438Y-106261904D02*
X152700057Y-106214285D01*
X152700057Y-106214285D02*
X152795295Y-106166666D01*
X152795295Y-106166666D02*
X152938152Y-106166666D01*
X152938152Y-106166666D02*
X153033390Y-106214285D01*
X153033390Y-106214285D02*
X153081009Y-106261904D01*
X153081009Y-106261904D02*
X153128628Y-106357142D01*
X153128628Y-106357142D02*
X153128628Y-106738094D01*
X152700057Y-105785713D02*
X152652438Y-105738094D01*
X152652438Y-105738094D02*
X152604819Y-105642856D01*
X152604819Y-105642856D02*
X152604819Y-105404761D01*
X152604819Y-105404761D02*
X152652438Y-105309523D01*
X152652438Y-105309523D02*
X152700057Y-105261904D01*
X152700057Y-105261904D02*
X152795295Y-105214285D01*
X152795295Y-105214285D02*
X152890533Y-105214285D01*
X152890533Y-105214285D02*
X153033390Y-105261904D01*
X153033390Y-105261904D02*
X153604819Y-105833332D01*
X153604819Y-105833332D02*
X153604819Y-105214285D01*
D12*
X134576667Y-110779318D02*
X134576667Y-111686461D01*
X134576667Y-111686461D02*
X134516190Y-111867889D01*
X134516190Y-111867889D02*
X134395238Y-111988842D01*
X134395238Y-111988842D02*
X134213809Y-112049318D01*
X134213809Y-112049318D02*
X134092857Y-112049318D01*
X135060476Y-110779318D02*
X135846667Y-110779318D01*
X135846667Y-110779318D02*
X135423333Y-111263127D01*
X135423333Y-111263127D02*
X135604762Y-111263127D01*
X135604762Y-111263127D02*
X135725714Y-111323603D01*
X135725714Y-111323603D02*
X135786190Y-111384080D01*
X135786190Y-111384080D02*
X135846667Y-111505032D01*
X135846667Y-111505032D02*
X135846667Y-111807413D01*
X135846667Y-111807413D02*
X135786190Y-111928365D01*
X135786190Y-111928365D02*
X135725714Y-111988842D01*
X135725714Y-111988842D02*
X135604762Y-112049318D01*
X135604762Y-112049318D02*
X135241905Y-112049318D01*
X135241905Y-112049318D02*
X135120952Y-111988842D01*
X135120952Y-111988842D02*
X135060476Y-111928365D01*
X134576667Y-97529318D02*
X134576667Y-98436461D01*
X134576667Y-98436461D02*
X134516190Y-98617889D01*
X134516190Y-98617889D02*
X134395238Y-98738842D01*
X134395238Y-98738842D02*
X134213809Y-98799318D01*
X134213809Y-98799318D02*
X134092857Y-98799318D01*
X135120952Y-97650270D02*
X135181428Y-97589794D01*
X135181428Y-97589794D02*
X135302381Y-97529318D01*
X135302381Y-97529318D02*
X135604762Y-97529318D01*
X135604762Y-97529318D02*
X135725714Y-97589794D01*
X135725714Y-97589794D02*
X135786190Y-97650270D01*
X135786190Y-97650270D02*
X135846667Y-97771222D01*
X135846667Y-97771222D02*
X135846667Y-97892175D01*
X135846667Y-97892175D02*
X135786190Y-98073603D01*
X135786190Y-98073603D02*
X135060476Y-98799318D01*
X135060476Y-98799318D02*
X135846667Y-98799318D01*
D10*
X147604819Y-99466666D02*
X147128628Y-99799999D01*
X147604819Y-100038094D02*
X146604819Y-100038094D01*
X146604819Y-100038094D02*
X146604819Y-99657142D01*
X146604819Y-99657142D02*
X146652438Y-99561904D01*
X146652438Y-99561904D02*
X146700057Y-99514285D01*
X146700057Y-99514285D02*
X146795295Y-99466666D01*
X146795295Y-99466666D02*
X146938152Y-99466666D01*
X146938152Y-99466666D02*
X147033390Y-99514285D01*
X147033390Y-99514285D02*
X147081009Y-99561904D01*
X147081009Y-99561904D02*
X147128628Y-99657142D01*
X147128628Y-99657142D02*
X147128628Y-100038094D01*
X147604819Y-98514285D02*
X147604819Y-99085713D01*
X147604819Y-98799999D02*
X146604819Y-98799999D01*
X146604819Y-98799999D02*
X146747676Y-98895237D01*
X146747676Y-98895237D02*
X146842914Y-98990475D01*
X146842914Y-98990475D02*
X146890533Y-99085713D01*
D12*
X155788333Y-104928365D02*
X155727857Y-104988842D01*
X155727857Y-104988842D02*
X155546428Y-105049318D01*
X155546428Y-105049318D02*
X155425476Y-105049318D01*
X155425476Y-105049318D02*
X155244047Y-104988842D01*
X155244047Y-104988842D02*
X155123095Y-104867889D01*
X155123095Y-104867889D02*
X155062618Y-104746937D01*
X155062618Y-104746937D02*
X155002142Y-104505032D01*
X155002142Y-104505032D02*
X155002142Y-104323603D01*
X155002142Y-104323603D02*
X155062618Y-104081699D01*
X155062618Y-104081699D02*
X155123095Y-103960746D01*
X155123095Y-103960746D02*
X155244047Y-103839794D01*
X155244047Y-103839794D02*
X155425476Y-103779318D01*
X155425476Y-103779318D02*
X155546428Y-103779318D01*
X155546428Y-103779318D02*
X155727857Y-103839794D01*
X155727857Y-103839794D02*
X155788333Y-103900270D01*
X156211666Y-103779318D02*
X156997857Y-103779318D01*
X156997857Y-103779318D02*
X156574523Y-104263127D01*
X156574523Y-104263127D02*
X156755952Y-104263127D01*
X156755952Y-104263127D02*
X156876904Y-104323603D01*
X156876904Y-104323603D02*
X156937380Y-104384080D01*
X156937380Y-104384080D02*
X156997857Y-104505032D01*
X156997857Y-104505032D02*
X156997857Y-104807413D01*
X156997857Y-104807413D02*
X156937380Y-104928365D01*
X156937380Y-104928365D02*
X156876904Y-104988842D01*
X156876904Y-104988842D02*
X156755952Y-105049318D01*
X156755952Y-105049318D02*
X156393095Y-105049318D01*
X156393095Y-105049318D02*
X156272142Y-104988842D01*
X156272142Y-104988842D02*
X156211666Y-104928365D01*
X171532380Y-97804318D02*
X171532380Y-98832413D01*
X171532380Y-98832413D02*
X171592857Y-98953365D01*
X171592857Y-98953365D02*
X171653333Y-99013842D01*
X171653333Y-99013842D02*
X171774285Y-99074318D01*
X171774285Y-99074318D02*
X172016190Y-99074318D01*
X172016190Y-99074318D02*
X172137142Y-99013842D01*
X172137142Y-99013842D02*
X172197619Y-98953365D01*
X172197619Y-98953365D02*
X172258095Y-98832413D01*
X172258095Y-98832413D02*
X172258095Y-97804318D01*
X173528095Y-99074318D02*
X172802380Y-99074318D01*
X173165237Y-99074318D02*
X173165237Y-97804318D01*
X173165237Y-97804318D02*
X173044285Y-97985746D01*
X173044285Y-97985746D02*
X172923333Y-98106699D01*
X172923333Y-98106699D02*
X172802380Y-98167175D01*
D13*
%TO.C,D1*%
X145400000Y-95337000D02*
X150925000Y-95337000D01*
X150600000Y-92613000D02*
X145400000Y-92613000D01*
%TO.C,C2*%
X155975000Y-95000000D02*
X157025000Y-95000000D01*
D14*
%TO.C,J1*%
X130600000Y-89975000D02*
X130600000Y-80325000D01*
X140000000Y-91650000D02*
X140500000Y-90650000D01*
X140500000Y-90650000D02*
X141000000Y-91650000D01*
X141000000Y-91650000D02*
X140000000Y-91650000D01*
D13*
%TO.C,IC1*%
X160700000Y-103450000D02*
X165300000Y-103450000D01*
X165300000Y-93150000D02*
X162450000Y-93150000D01*
X165300000Y-103450000D02*
X165300000Y-93150000D01*
D11*
%TO.C,C1*%
X145850000Y-80150000D02*
X153150000Y-80150000D01*
X153150000Y-84450000D02*
X145850000Y-84450000D01*
D13*
X144830000Y-82300000D02*
G75*
G02*
X144730000Y-82300000I-50000J0D01*
G01*
X144730000Y-82300000D02*
G75*
G02*
X144830000Y-82300000I50000J0D01*
G01*
D12*
%TO.C,F1*%
X144635900Y-86285400D02*
X154364100Y-86285400D01*
X144635900Y-91314600D02*
X154364100Y-91314600D01*
D15*
%TO.C,R2*%
X150765000Y-105772936D02*
X150765000Y-106227064D01*
X152235000Y-105772936D02*
X152235000Y-106227064D01*
D14*
%TO.C,J3*%
X130600000Y-116125000D02*
X130600000Y-106475000D01*
X140000000Y-117800000D02*
X140500000Y-116800000D01*
X140500000Y-116800000D02*
X141000000Y-117800000D01*
X141000000Y-117800000D02*
X140000000Y-117800000D01*
%TO.C,J2*%
X130600000Y-103050000D02*
X130600000Y-93400000D01*
X140000000Y-104725000D02*
X140500000Y-103725000D01*
X140500000Y-103725000D02*
X141000000Y-104725000D01*
X141000000Y-104725000D02*
X140000000Y-104725000D01*
D15*
%TO.C,R1*%
X144765000Y-99072936D02*
X144765000Y-99527064D01*
X146235000Y-99072936D02*
X146235000Y-99527064D01*
D13*
%TO.C,C3*%
X157025000Y-101655000D02*
X155975000Y-101655000D01*
D11*
%TO.C,U1*%
X158959234Y-80821475D02*
X178959234Y-80821475D01*
X158959234Y-92321475D02*
X158959234Y-80821475D01*
X158959234Y-104321475D02*
X165959234Y-104321475D01*
X158959234Y-115821475D02*
X158959234Y-104321475D01*
X165959234Y-92321475D02*
X158959234Y-92321475D01*
X165959234Y-104321475D02*
X165959234Y-92321475D01*
X178959234Y-80821475D02*
X178959234Y-115821475D01*
X178959234Y-115821475D02*
X158959234Y-115821475D01*
%TD*%
M02*
