%TF.GenerationSoftware,KiCad,Pcbnew,8.0.6*%
%TF.CreationDate,2024-11-13T20:54:41-08:00*%
%TF.ProjectId,Voltage_Regulator_for_ZX60-14LN-S+,566f6c74-6167-4655-9f52-6567756c6174,rev?*%
%TF.SameCoordinates,Original*%
%TF.FileFunction,Copper,L2,Bot*%
%TF.FilePolarity,Positive*%
%FSLAX46Y46*%
G04 Gerber Fmt 4.6, Leading zero omitted, Abs format (unit mm)*
G04 Created by KiCad (PCBNEW 8.0.6) date 2024-11-13 20:54:41*
%MOMM*%
%LPD*%
G01*
G04 APERTURE LIST*
%TA.AperFunction,ComponentPad*%
%ADD10C,2.910000*%
%TD*%
%TA.AperFunction,ComponentPad*%
%ADD11R,1.890000X1.890000*%
%TD*%
%TA.AperFunction,ComponentPad*%
%ADD12C,1.890000*%
%TD*%
%TA.AperFunction,ComponentPad*%
%ADD13C,4.500000*%
%TD*%
%TA.AperFunction,ViaPad*%
%ADD14C,0.600000*%
%TD*%
G04 APERTURE END LIST*
D10*
%TO.P,J1,3,3*%
%TO.N,GND*%
X135030000Y-88800000D03*
%TO.P,J1,4,4*%
X135030000Y-81500000D03*
%TD*%
D11*
%TO.P,IC1,1,INPUT*%
%TO.N,Net-(IC1-INPUT)*%
X162450000Y-95760000D03*
D12*
%TO.P,IC1,2,COMMON*%
%TO.N,GND*%
X162450000Y-98300000D03*
%TO.P,IC1,3,OUTPUT*%
%TO.N,Net-(IC1-OUTPUT)*%
X162450000Y-100840000D03*
%TD*%
D10*
%TO.P,J3,3,3*%
%TO.N,GND*%
X135030000Y-114950000D03*
%TO.P,J3,4,4*%
X135030000Y-107650000D03*
%TD*%
%TO.P,J2,3,3*%
%TO.N,GND*%
X135030000Y-101875000D03*
%TO.P,J2,4,4*%
X135030000Y-94575000D03*
%TD*%
D13*
%TO.P,U1,1,1*%
%TO.N,GND*%
X164259234Y-88821475D03*
%TO.P,U1,2,2*%
X164259234Y-107821475D03*
%TD*%
D14*
%TO.N,GND*%
X146500000Y-109500000D03*
X146500000Y-107500000D03*
X146500000Y-105500000D03*
X146500000Y-103500000D03*
X177000000Y-117000000D03*
X177000000Y-95235300D03*
X177000000Y-82176480D03*
X177000000Y-80000000D03*
X177000000Y-90882360D03*
X177000000Y-108294120D03*
X177000000Y-84352950D03*
X177000000Y-86529420D03*
X177000000Y-101764710D03*
X177000000Y-106117650D03*
X177000000Y-99588240D03*
X177000000Y-103941180D03*
X177000000Y-93058830D03*
X177000000Y-114823530D03*
X177000000Y-88705890D03*
X177000000Y-110470590D03*
X177000000Y-112647060D03*
X177000000Y-97411770D03*
X136000000Y-122000000D03*
X157764700Y-122000000D03*
X170823520Y-122000000D03*
X173000000Y-122000000D03*
X162117640Y-122000000D03*
X144705880Y-122000000D03*
X168647050Y-122000000D03*
X166470580Y-122000000D03*
X159941170Y-122000000D03*
X138176470Y-122000000D03*
X164294110Y-122000000D03*
X142529410Y-122000000D03*
X140352940Y-122000000D03*
X155588230Y-122000000D03*
X157264700Y-74500000D03*
X170323520Y-74500000D03*
X172500000Y-74500000D03*
X161617640Y-74500000D03*
X168147050Y-74500000D03*
X165970580Y-74500000D03*
X148558820Y-74500000D03*
X159441170Y-74500000D03*
X163794110Y-74500000D03*
X150735290Y-74500000D03*
X155088230Y-74500000D03*
X152911760Y-74500000D03*
X142029410Y-74500000D03*
X144205880Y-74500000D03*
X146382350Y-74500000D03*
X139852940Y-74500000D03*
X137676470Y-74500000D03*
X135500000Y-74500000D03*
%TD*%
%TA.AperFunction,Conductor*%
%TO.N,GND*%
G36*
X181942539Y-70020185D02*
G01*
X181988294Y-70072989D01*
X181999500Y-70124500D01*
X181999500Y-126875500D01*
X181979815Y-126942539D01*
X181927011Y-126988294D01*
X181875500Y-126999500D01*
X128124500Y-126999500D01*
X128057461Y-126979815D01*
X128011706Y-126927011D01*
X128000500Y-126875500D01*
X128000500Y-121999998D01*
X130544518Y-121999998D01*
X130544518Y-122000001D01*
X130564422Y-122278299D01*
X130623727Y-122550916D01*
X130623729Y-122550923D01*
X130661027Y-122650923D01*
X130721231Y-122812338D01*
X130721233Y-122812342D01*
X130854940Y-123057207D01*
X130854945Y-123057215D01*
X131022138Y-123280560D01*
X131022154Y-123280578D01*
X131219421Y-123477845D01*
X131219439Y-123477861D01*
X131442784Y-123645054D01*
X131442792Y-123645059D01*
X131687657Y-123778766D01*
X131687661Y-123778768D01*
X131687663Y-123778769D01*
X131949077Y-123876271D01*
X132085391Y-123905924D01*
X132221700Y-123935577D01*
X132221702Y-123935577D01*
X132221706Y-123935578D01*
X132469014Y-123953265D01*
X132499999Y-123955482D01*
X132500000Y-123955482D01*
X132500001Y-123955482D01*
X132527881Y-123953487D01*
X132778294Y-123935578D01*
X133050923Y-123876271D01*
X133312337Y-123778769D01*
X133557213Y-123645056D01*
X133780568Y-123477855D01*
X133977855Y-123280568D01*
X134145056Y-123057213D01*
X134278769Y-122812337D01*
X134376271Y-122550923D01*
X134435578Y-122278294D01*
X134448330Y-122099998D01*
X175044518Y-122099998D01*
X175044518Y-122100001D01*
X175064422Y-122378299D01*
X175123727Y-122650916D01*
X175123729Y-122650923D01*
X175131366Y-122671398D01*
X175221231Y-122912338D01*
X175221233Y-122912342D01*
X175354940Y-123157207D01*
X175354945Y-123157215D01*
X175522138Y-123380560D01*
X175522154Y-123380578D01*
X175719421Y-123577845D01*
X175719439Y-123577861D01*
X175942784Y-123745054D01*
X175942792Y-123745059D01*
X176187657Y-123878766D01*
X176187661Y-123878768D01*
X176187663Y-123878769D01*
X176449077Y-123976271D01*
X176585391Y-124005924D01*
X176721700Y-124035577D01*
X176721702Y-124035577D01*
X176721706Y-124035578D01*
X176969014Y-124053265D01*
X176999999Y-124055482D01*
X177000000Y-124055482D01*
X177000001Y-124055482D01*
X177027881Y-124053487D01*
X177278294Y-124035578D01*
X177550923Y-123976271D01*
X177812337Y-123878769D01*
X178057213Y-123745056D01*
X178280568Y-123577855D01*
X178477855Y-123380568D01*
X178645056Y-123157213D01*
X178778769Y-122912337D01*
X178876271Y-122650923D01*
X178935578Y-122378294D01*
X178955482Y-122100000D01*
X178935578Y-121821706D01*
X178934067Y-121814762D01*
X178876272Y-121549083D01*
X178876271Y-121549077D01*
X178778769Y-121287663D01*
X178724161Y-121187657D01*
X178645059Y-121042792D01*
X178645054Y-121042784D01*
X178477861Y-120819439D01*
X178477845Y-120819421D01*
X178280578Y-120622154D01*
X178280560Y-120622138D01*
X178057215Y-120454945D01*
X178057207Y-120454940D01*
X177812342Y-120321233D01*
X177812338Y-120321231D01*
X177713230Y-120284266D01*
X177550923Y-120223729D01*
X177550919Y-120223728D01*
X177550916Y-120223727D01*
X177278299Y-120164422D01*
X177000001Y-120144518D01*
X176999999Y-120144518D01*
X176721700Y-120164422D01*
X176449083Y-120223727D01*
X176449078Y-120223728D01*
X176449077Y-120223729D01*
X176385875Y-120247301D01*
X176187661Y-120321231D01*
X176187657Y-120321233D01*
X175942792Y-120454940D01*
X175942784Y-120454945D01*
X175719439Y-120622138D01*
X175719421Y-120622154D01*
X175522154Y-120819421D01*
X175522138Y-120819439D01*
X175354945Y-121042784D01*
X175354940Y-121042792D01*
X175221233Y-121287657D01*
X175221231Y-121287661D01*
X175123727Y-121549083D01*
X175064422Y-121821700D01*
X175044518Y-122099998D01*
X134448330Y-122099998D01*
X134455482Y-122000000D01*
X134435578Y-121721706D01*
X134417073Y-121636642D01*
X134376272Y-121449083D01*
X134376271Y-121449077D01*
X134278769Y-121187663D01*
X134268438Y-121168744D01*
X134145059Y-120942792D01*
X134145054Y-120942784D01*
X133977861Y-120719439D01*
X133977845Y-120719421D01*
X133780578Y-120522154D01*
X133780560Y-120522138D01*
X133557215Y-120354945D01*
X133557207Y-120354940D01*
X133312342Y-120221233D01*
X133312338Y-120221231D01*
X133213230Y-120184266D01*
X133050923Y-120123729D01*
X133050919Y-120123728D01*
X133050916Y-120123727D01*
X132778299Y-120064422D01*
X132500001Y-120044518D01*
X132499999Y-120044518D01*
X132221700Y-120064422D01*
X131949083Y-120123727D01*
X131949078Y-120123728D01*
X131949077Y-120123729D01*
X131893339Y-120144518D01*
X131687661Y-120221231D01*
X131687657Y-120221233D01*
X131442792Y-120354940D01*
X131442784Y-120354945D01*
X131219439Y-120522138D01*
X131219421Y-120522154D01*
X131022154Y-120719421D01*
X131022138Y-120719439D01*
X130854945Y-120942784D01*
X130854940Y-120942792D01*
X130721233Y-121187657D01*
X130721231Y-121187661D01*
X130623727Y-121449083D01*
X130564422Y-121721700D01*
X130544518Y-121999998D01*
X128000500Y-121999998D01*
X128000500Y-114949998D01*
X133070006Y-114949998D01*
X133070006Y-114950001D01*
X133089956Y-115228937D01*
X133089957Y-115228944D01*
X133149398Y-115502187D01*
X133247127Y-115764212D01*
X133247129Y-115764216D01*
X133381144Y-116009647D01*
X133381149Y-116009655D01*
X133482029Y-116144416D01*
X134018536Y-115607908D01*
X134110878Y-115735005D01*
X134244995Y-115869122D01*
X134372089Y-115961461D01*
X133835582Y-116497968D01*
X133835583Y-116497969D01*
X133970344Y-116598850D01*
X133970352Y-116598855D01*
X134215783Y-116732870D01*
X134215787Y-116732872D01*
X134477812Y-116830601D01*
X134751055Y-116890042D01*
X134751062Y-116890043D01*
X135029999Y-116909994D01*
X135030001Y-116909994D01*
X135308937Y-116890043D01*
X135308944Y-116890042D01*
X135582187Y-116830601D01*
X135844212Y-116732872D01*
X135844216Y-116732870D01*
X136089647Y-116598855D01*
X136089648Y-116598854D01*
X136224416Y-116497968D01*
X135687909Y-115961462D01*
X135815005Y-115869122D01*
X135949122Y-115735005D01*
X136041462Y-115607910D01*
X136577968Y-116144416D01*
X136678854Y-116009648D01*
X136678855Y-116009647D01*
X136812870Y-115764216D01*
X136812872Y-115764212D01*
X136910601Y-115502187D01*
X136970042Y-115228944D01*
X136970043Y-115228937D01*
X136989994Y-114950001D01*
X136989994Y-114949998D01*
X136970043Y-114671062D01*
X136970042Y-114671055D01*
X136910601Y-114397812D01*
X136812872Y-114135787D01*
X136812870Y-114135783D01*
X136678855Y-113890352D01*
X136678850Y-113890344D01*
X136577969Y-113755583D01*
X136577968Y-113755582D01*
X136041461Y-114292089D01*
X135949122Y-114164995D01*
X135815005Y-114030878D01*
X135687909Y-113938537D01*
X136224416Y-113402030D01*
X136224416Y-113402029D01*
X136089655Y-113301149D01*
X136089647Y-113301144D01*
X135844216Y-113167129D01*
X135844212Y-113167127D01*
X135582187Y-113069398D01*
X135308944Y-113009957D01*
X135308937Y-113009956D01*
X135030001Y-112990006D01*
X135029999Y-112990006D01*
X134751062Y-113009956D01*
X134751055Y-113009957D01*
X134477812Y-113069398D01*
X134215787Y-113167127D01*
X134215783Y-113167129D01*
X133970352Y-113301144D01*
X133970344Y-113301149D01*
X133835582Y-113402029D01*
X134372090Y-113938537D01*
X134244995Y-114030878D01*
X134110878Y-114164995D01*
X134018537Y-114292090D01*
X133482029Y-113755582D01*
X133381149Y-113890344D01*
X133381144Y-113890352D01*
X133247129Y-114135783D01*
X133247127Y-114135787D01*
X133149398Y-114397812D01*
X133089957Y-114671055D01*
X133089956Y-114671062D01*
X133070006Y-114949998D01*
X128000500Y-114949998D01*
X128000500Y-107649998D01*
X133070006Y-107649998D01*
X133070006Y-107650001D01*
X133089956Y-107928937D01*
X133089957Y-107928944D01*
X133149398Y-108202187D01*
X133247127Y-108464212D01*
X133247129Y-108464216D01*
X133381144Y-108709647D01*
X133381149Y-108709655D01*
X133482029Y-108844416D01*
X134018536Y-108307908D01*
X134110878Y-108435005D01*
X134244995Y-108569122D01*
X134372089Y-108661461D01*
X133835582Y-109197968D01*
X133835583Y-109197969D01*
X133970344Y-109298850D01*
X133970352Y-109298855D01*
X134215783Y-109432870D01*
X134215787Y-109432872D01*
X134477812Y-109530601D01*
X134751055Y-109590042D01*
X134751062Y-109590043D01*
X135029999Y-109609994D01*
X135030001Y-109609994D01*
X135308937Y-109590043D01*
X135308944Y-109590042D01*
X135582187Y-109530601D01*
X135844212Y-109432872D01*
X135844216Y-109432870D01*
X136089647Y-109298855D01*
X136089648Y-109298854D01*
X136224416Y-109197968D01*
X135687909Y-108661462D01*
X135815005Y-108569122D01*
X135949122Y-108435005D01*
X136041462Y-108307910D01*
X136577968Y-108844416D01*
X136678854Y-108709648D01*
X136678855Y-108709647D01*
X136812870Y-108464216D01*
X136812872Y-108464212D01*
X136910601Y-108202187D01*
X136970042Y-107928944D01*
X136970043Y-107928937D01*
X136977729Y-107821475D01*
X161504208Y-107821475D01*
X161524294Y-108153551D01*
X161584266Y-108480804D01*
X161683233Y-108798403D01*
X161683239Y-108798418D01*
X161819777Y-109101794D01*
X161819779Y-109101796D01*
X161991891Y-109386506D01*
X161991896Y-109386514D01*
X162145096Y-109582058D01*
X163036574Y-108690580D01*
X163115098Y-108798659D01*
X163282050Y-108965611D01*
X163390127Y-109044133D01*
X162498649Y-109935611D01*
X162498649Y-109935612D01*
X162694194Y-110088812D01*
X162694202Y-110088817D01*
X162978912Y-110260929D01*
X162978914Y-110260931D01*
X163282290Y-110397469D01*
X163282305Y-110397475D01*
X163599904Y-110496442D01*
X163927157Y-110556414D01*
X164259234Y-110576500D01*
X164591310Y-110556414D01*
X164918563Y-110496442D01*
X165236162Y-110397475D01*
X165236177Y-110397469D01*
X165539553Y-110260931D01*
X165539555Y-110260929D01*
X165824264Y-110088818D01*
X166019817Y-109935612D01*
X166019817Y-109935611D01*
X165128340Y-109044134D01*
X165236418Y-108965611D01*
X165403370Y-108798659D01*
X165481893Y-108690581D01*
X166373370Y-109582058D01*
X166373371Y-109582058D01*
X166526577Y-109386505D01*
X166698688Y-109101796D01*
X166698690Y-109101794D01*
X166835228Y-108798418D01*
X166835234Y-108798403D01*
X166934201Y-108480804D01*
X166994173Y-108153551D01*
X167014259Y-107821475D01*
X166994173Y-107489398D01*
X166934201Y-107162145D01*
X166835234Y-106844546D01*
X166835228Y-106844531D01*
X166698690Y-106541155D01*
X166698688Y-106541153D01*
X166526576Y-106256443D01*
X166526571Y-106256435D01*
X166373370Y-106060890D01*
X165481892Y-106952368D01*
X165403370Y-106844291D01*
X165236418Y-106677339D01*
X165128339Y-106598815D01*
X166019817Y-105707337D01*
X166019817Y-105707336D01*
X165824273Y-105554137D01*
X165824265Y-105554132D01*
X165539555Y-105382020D01*
X165539553Y-105382018D01*
X165236177Y-105245480D01*
X165236162Y-105245474D01*
X164918563Y-105146507D01*
X164591310Y-105086535D01*
X164259234Y-105066449D01*
X163927157Y-105086535D01*
X163599904Y-105146507D01*
X163282305Y-105245474D01*
X163282290Y-105245480D01*
X162978914Y-105382018D01*
X162978912Y-105382020D01*
X162694202Y-105554132D01*
X162498649Y-105707337D01*
X163390127Y-106598815D01*
X163282050Y-106677339D01*
X163115098Y-106844291D01*
X163036574Y-106952368D01*
X162145096Y-106060890D01*
X161991891Y-106256443D01*
X161819779Y-106541153D01*
X161819777Y-106541155D01*
X161683239Y-106844531D01*
X161683233Y-106844546D01*
X161584266Y-107162145D01*
X161524294Y-107489398D01*
X161504208Y-107821475D01*
X136977729Y-107821475D01*
X136989994Y-107650001D01*
X136989994Y-107649998D01*
X136970043Y-107371062D01*
X136970042Y-107371055D01*
X136910601Y-107097812D01*
X136812872Y-106835787D01*
X136812870Y-106835783D01*
X136678855Y-106590352D01*
X136678850Y-106590344D01*
X136577969Y-106455583D01*
X136577968Y-106455582D01*
X136041461Y-106992089D01*
X135949122Y-106864995D01*
X135815005Y-106730878D01*
X135687909Y-106638537D01*
X136224416Y-106102030D01*
X136224416Y-106102029D01*
X136089655Y-106001149D01*
X136089647Y-106001144D01*
X135844216Y-105867129D01*
X135844212Y-105867127D01*
X135582187Y-105769398D01*
X135308944Y-105709957D01*
X135308937Y-105709956D01*
X135030001Y-105690006D01*
X135029999Y-105690006D01*
X134751062Y-105709956D01*
X134751055Y-105709957D01*
X134477812Y-105769398D01*
X134215787Y-105867127D01*
X134215783Y-105867129D01*
X133970352Y-106001144D01*
X133970344Y-106001149D01*
X133835582Y-106102029D01*
X134372090Y-106638537D01*
X134244995Y-106730878D01*
X134110878Y-106864995D01*
X134018537Y-106992090D01*
X133482029Y-106455582D01*
X133381149Y-106590344D01*
X133381144Y-106590352D01*
X133247129Y-106835783D01*
X133247127Y-106835787D01*
X133149398Y-107097812D01*
X133089957Y-107371055D01*
X133089956Y-107371062D01*
X133070006Y-107649998D01*
X128000500Y-107649998D01*
X128000500Y-101874998D01*
X133070006Y-101874998D01*
X133070006Y-101875001D01*
X133089956Y-102153937D01*
X133089957Y-102153944D01*
X133149398Y-102427187D01*
X133247127Y-102689212D01*
X133247129Y-102689216D01*
X133381144Y-102934647D01*
X133381149Y-102934655D01*
X133482029Y-103069416D01*
X134018536Y-102532908D01*
X134110878Y-102660005D01*
X134244995Y-102794122D01*
X134372089Y-102886461D01*
X133835582Y-103422968D01*
X133835583Y-103422969D01*
X133970344Y-103523850D01*
X133970352Y-103523855D01*
X134215783Y-103657870D01*
X134215787Y-103657872D01*
X134477812Y-103755601D01*
X134751055Y-103815042D01*
X134751062Y-103815043D01*
X135029999Y-103834994D01*
X135030001Y-103834994D01*
X135308937Y-103815043D01*
X135308944Y-103815042D01*
X135582187Y-103755601D01*
X135844212Y-103657872D01*
X135844216Y-103657870D01*
X136089647Y-103523855D01*
X136089648Y-103523854D01*
X136224416Y-103422968D01*
X135687909Y-102886462D01*
X135815005Y-102794122D01*
X135949122Y-102660005D01*
X136041462Y-102532910D01*
X136577968Y-103069416D01*
X136678854Y-102934648D01*
X136678855Y-102934647D01*
X136812870Y-102689216D01*
X136812872Y-102689212D01*
X136910601Y-102427187D01*
X136970042Y-102153944D01*
X136970043Y-102153937D01*
X136989994Y-101875001D01*
X136989994Y-101874998D01*
X136970043Y-101596062D01*
X136970042Y-101596055D01*
X136910601Y-101322812D01*
X136812872Y-101060787D01*
X136812870Y-101060783D01*
X136692310Y-100839993D01*
X160999546Y-100839993D01*
X160999546Y-100840006D01*
X161019326Y-101078729D01*
X161019328Y-101078737D01*
X161078136Y-101310963D01*
X161170463Y-101521447D01*
X161174364Y-101530340D01*
X161305388Y-101730887D01*
X161467634Y-101907134D01*
X161525951Y-101952523D01*
X161656668Y-102054265D01*
X161656674Y-102054269D01*
X161656677Y-102054271D01*
X161829542Y-102147821D01*
X161846818Y-102157171D01*
X161867359Y-102168287D01*
X162093935Y-102246070D01*
X162330222Y-102285500D01*
X162330223Y-102285500D01*
X162569777Y-102285500D01*
X162569778Y-102285500D01*
X162806065Y-102246070D01*
X163032641Y-102168287D01*
X163243323Y-102054271D01*
X163432366Y-101907134D01*
X163594612Y-101730887D01*
X163725636Y-101530340D01*
X163821864Y-101310962D01*
X163880672Y-101078737D01*
X163880673Y-101078729D01*
X163900454Y-100840006D01*
X163900454Y-100839993D01*
X163880673Y-100601270D01*
X163880672Y-100601267D01*
X163880672Y-100601263D01*
X163821864Y-100369038D01*
X163725636Y-100149660D01*
X163594612Y-99949113D01*
X163432366Y-99772866D01*
X163297036Y-99667535D01*
X163256224Y-99610825D01*
X163252549Y-99541052D01*
X163280374Y-99492295D01*
X163280863Y-99484417D01*
X162682181Y-98885733D01*
X162748417Y-98858298D01*
X162851601Y-98789353D01*
X162939353Y-98701601D01*
X163008298Y-98598417D01*
X163035733Y-98532180D01*
X163633698Y-99130145D01*
X163725194Y-98990102D01*
X163821389Y-98770799D01*
X163880177Y-98538650D01*
X163899952Y-98300006D01*
X163899952Y-98299993D01*
X163880177Y-98061349D01*
X163821389Y-97829200D01*
X163725194Y-97609897D01*
X163594217Y-97409423D01*
X163594209Y-97409412D01*
X163551562Y-97363086D01*
X163520639Y-97300432D01*
X163528499Y-97231006D01*
X163572646Y-97176850D01*
X163599453Y-97162923D01*
X163637331Y-97148796D01*
X163752546Y-97062546D01*
X163838796Y-96947331D01*
X163889091Y-96812483D01*
X163895500Y-96752873D01*
X163895499Y-94767128D01*
X163889091Y-94707517D01*
X163838796Y-94572669D01*
X163838795Y-94572668D01*
X163838793Y-94572664D01*
X163752547Y-94457455D01*
X163752544Y-94457452D01*
X163637335Y-94371206D01*
X163637328Y-94371202D01*
X163502482Y-94320908D01*
X163502483Y-94320908D01*
X163442883Y-94314501D01*
X163442881Y-94314500D01*
X163442873Y-94314500D01*
X163442864Y-94314500D01*
X161457129Y-94314500D01*
X161457123Y-94314501D01*
X161397516Y-94320908D01*
X161262671Y-94371202D01*
X161262664Y-94371206D01*
X161147455Y-94457452D01*
X161147452Y-94457455D01*
X161061206Y-94572664D01*
X161061202Y-94572671D01*
X161010908Y-94707517D01*
X161004501Y-94767116D01*
X161004501Y-94767123D01*
X161004500Y-94767135D01*
X161004500Y-96752870D01*
X161004501Y-96752876D01*
X161010908Y-96812483D01*
X161061202Y-96947328D01*
X161061206Y-96947335D01*
X161147452Y-97062544D01*
X161147455Y-97062547D01*
X161262664Y-97148793D01*
X161262673Y-97148798D01*
X161300539Y-97162921D01*
X161356473Y-97204791D01*
X161380891Y-97270255D01*
X161366040Y-97338529D01*
X161348438Y-97363084D01*
X161305790Y-97409412D01*
X161305782Y-97409423D01*
X161174805Y-97609897D01*
X161078610Y-97829200D01*
X161019822Y-98061349D01*
X161000048Y-98299993D01*
X161000048Y-98300006D01*
X161019822Y-98538650D01*
X161078610Y-98770799D01*
X161174804Y-98990100D01*
X161266299Y-99130144D01*
X161864265Y-98532178D01*
X161891702Y-98598417D01*
X161960647Y-98701601D01*
X162048399Y-98789353D01*
X162151583Y-98858298D01*
X162217818Y-98885733D01*
X161619135Y-99484417D01*
X161619807Y-99495237D01*
X161643774Y-99528540D01*
X161647449Y-99598313D01*
X161612818Y-99658996D01*
X161602962Y-99667536D01*
X161467636Y-99772864D01*
X161467631Y-99772869D01*
X161305385Y-99949116D01*
X161174362Y-100149663D01*
X161078136Y-100369036D01*
X161019328Y-100601262D01*
X161019326Y-100601270D01*
X160999546Y-100839993D01*
X136692310Y-100839993D01*
X136678855Y-100815352D01*
X136678850Y-100815344D01*
X136577969Y-100680583D01*
X136577968Y-100680582D01*
X136041461Y-101217089D01*
X135949122Y-101089995D01*
X135815005Y-100955878D01*
X135687909Y-100863537D01*
X136224416Y-100327030D01*
X136224416Y-100327029D01*
X136089655Y-100226149D01*
X136089647Y-100226144D01*
X135844216Y-100092129D01*
X135844212Y-100092127D01*
X135582187Y-99994398D01*
X135308944Y-99934957D01*
X135308937Y-99934956D01*
X135030001Y-99915006D01*
X135029999Y-99915006D01*
X134751062Y-99934956D01*
X134751055Y-99934957D01*
X134477812Y-99994398D01*
X134215787Y-100092127D01*
X134215783Y-100092129D01*
X133970352Y-100226144D01*
X133970344Y-100226149D01*
X133835582Y-100327029D01*
X134372090Y-100863537D01*
X134244995Y-100955878D01*
X134110878Y-101089995D01*
X134018537Y-101217090D01*
X133482029Y-100680582D01*
X133381149Y-100815344D01*
X133381144Y-100815352D01*
X133247129Y-101060783D01*
X133247127Y-101060787D01*
X133149398Y-101322812D01*
X133089957Y-101596055D01*
X133089956Y-101596062D01*
X133070006Y-101874998D01*
X128000500Y-101874998D01*
X128000500Y-94574998D01*
X133070006Y-94574998D01*
X133070006Y-94575001D01*
X133089956Y-94853937D01*
X133089957Y-94853944D01*
X133149398Y-95127187D01*
X133247127Y-95389212D01*
X133247129Y-95389216D01*
X133381144Y-95634647D01*
X133381149Y-95634655D01*
X133482029Y-95769416D01*
X134018536Y-95232908D01*
X134110878Y-95360005D01*
X134244995Y-95494122D01*
X134372089Y-95586461D01*
X133835582Y-96122968D01*
X133835583Y-96122969D01*
X133970344Y-96223850D01*
X133970352Y-96223855D01*
X134215783Y-96357870D01*
X134215787Y-96357872D01*
X134477812Y-96455601D01*
X134751055Y-96515042D01*
X134751062Y-96515043D01*
X135029999Y-96534994D01*
X135030001Y-96534994D01*
X135308937Y-96515043D01*
X135308944Y-96515042D01*
X135582187Y-96455601D01*
X135844212Y-96357872D01*
X135844216Y-96357870D01*
X136089647Y-96223855D01*
X136089648Y-96223854D01*
X136224416Y-96122968D01*
X135687909Y-95586462D01*
X135815005Y-95494122D01*
X135949122Y-95360005D01*
X136041462Y-95232910D01*
X136577968Y-95769416D01*
X136678854Y-95634648D01*
X136678855Y-95634647D01*
X136812870Y-95389216D01*
X136812872Y-95389212D01*
X136910601Y-95127187D01*
X136970042Y-94853944D01*
X136970043Y-94853937D01*
X136989994Y-94575001D01*
X136989994Y-94574998D01*
X136970043Y-94296062D01*
X136970042Y-94296055D01*
X136910601Y-94022812D01*
X136812872Y-93760787D01*
X136812870Y-93760783D01*
X136678855Y-93515352D01*
X136678850Y-93515344D01*
X136577969Y-93380583D01*
X136577968Y-93380582D01*
X136041461Y-93917089D01*
X135949122Y-93789995D01*
X135815005Y-93655878D01*
X135687909Y-93563537D01*
X136224416Y-93027030D01*
X136224416Y-93027029D01*
X136089655Y-92926149D01*
X136089647Y-92926144D01*
X135844216Y-92792129D01*
X135844212Y-92792127D01*
X135582187Y-92694398D01*
X135308944Y-92634957D01*
X135308937Y-92634956D01*
X135030001Y-92615006D01*
X135029999Y-92615006D01*
X134751062Y-92634956D01*
X134751055Y-92634957D01*
X134477812Y-92694398D01*
X134215787Y-92792127D01*
X134215783Y-92792129D01*
X133970352Y-92926144D01*
X133970344Y-92926149D01*
X133835582Y-93027029D01*
X134372090Y-93563537D01*
X134244995Y-93655878D01*
X134110878Y-93789995D01*
X134018537Y-93917090D01*
X133482029Y-93380582D01*
X133381149Y-93515344D01*
X133381144Y-93515352D01*
X133247129Y-93760783D01*
X133247127Y-93760787D01*
X133149398Y-94022812D01*
X133089957Y-94296055D01*
X133089956Y-94296062D01*
X133070006Y-94574998D01*
X128000500Y-94574998D01*
X128000500Y-88799998D01*
X133070006Y-88799998D01*
X133070006Y-88800001D01*
X133089956Y-89078937D01*
X133089957Y-89078944D01*
X133149398Y-89352187D01*
X133247127Y-89614212D01*
X133247129Y-89614216D01*
X133381144Y-89859647D01*
X133381149Y-89859655D01*
X133482029Y-89994416D01*
X134018536Y-89457908D01*
X134110878Y-89585005D01*
X134244995Y-89719122D01*
X134372089Y-89811461D01*
X133835582Y-90347968D01*
X133835583Y-90347969D01*
X133970344Y-90448850D01*
X133970352Y-90448855D01*
X134215783Y-90582870D01*
X134215787Y-90582872D01*
X134477812Y-90680601D01*
X134751055Y-90740042D01*
X134751062Y-90740043D01*
X135029999Y-90759994D01*
X135030001Y-90759994D01*
X135308937Y-90740043D01*
X135308944Y-90740042D01*
X135582187Y-90680601D01*
X135844212Y-90582872D01*
X135844216Y-90582870D01*
X136089647Y-90448855D01*
X136089648Y-90448854D01*
X136224416Y-90347968D01*
X135687909Y-89811462D01*
X135815005Y-89719122D01*
X135949122Y-89585005D01*
X136041462Y-89457910D01*
X136577968Y-89994416D01*
X136678854Y-89859648D01*
X136678855Y-89859647D01*
X136812870Y-89614216D01*
X136812872Y-89614212D01*
X136910601Y-89352187D01*
X136970042Y-89078944D01*
X136970043Y-89078937D01*
X136988458Y-88821475D01*
X161504208Y-88821475D01*
X161524294Y-89153551D01*
X161584266Y-89480804D01*
X161683233Y-89798403D01*
X161683239Y-89798418D01*
X161819777Y-90101794D01*
X161819779Y-90101796D01*
X161991891Y-90386506D01*
X161991896Y-90386514D01*
X162145096Y-90582058D01*
X163036574Y-89690580D01*
X163115098Y-89798659D01*
X163282050Y-89965611D01*
X163390127Y-90044133D01*
X162498649Y-90935611D01*
X162498649Y-90935612D01*
X162694194Y-91088812D01*
X162694202Y-91088817D01*
X162978912Y-91260929D01*
X162978914Y-91260931D01*
X163282290Y-91397469D01*
X163282305Y-91397475D01*
X163599904Y-91496442D01*
X163927157Y-91556414D01*
X164259234Y-91576500D01*
X164591310Y-91556414D01*
X164918563Y-91496442D01*
X165236162Y-91397475D01*
X165236177Y-91397469D01*
X165539553Y-91260931D01*
X165539555Y-91260929D01*
X165824264Y-91088818D01*
X166019817Y-90935612D01*
X166019817Y-90935611D01*
X165128340Y-90044134D01*
X165236418Y-89965611D01*
X165403370Y-89798659D01*
X165481893Y-89690581D01*
X166373370Y-90582058D01*
X166373371Y-90582058D01*
X166526577Y-90386505D01*
X166698688Y-90101796D01*
X166698690Y-90101794D01*
X166835228Y-89798418D01*
X166835234Y-89798403D01*
X166934201Y-89480804D01*
X166994173Y-89153551D01*
X167014259Y-88821475D01*
X166994173Y-88489398D01*
X166934201Y-88162145D01*
X166835234Y-87844546D01*
X166835228Y-87844531D01*
X166698690Y-87541155D01*
X166698688Y-87541153D01*
X166526576Y-87256443D01*
X166526571Y-87256435D01*
X166373370Y-87060890D01*
X165481892Y-87952368D01*
X165403370Y-87844291D01*
X165236418Y-87677339D01*
X165128339Y-87598815D01*
X166019817Y-86707337D01*
X166019817Y-86707336D01*
X165824273Y-86554137D01*
X165824265Y-86554132D01*
X165539555Y-86382020D01*
X165539553Y-86382018D01*
X165236177Y-86245480D01*
X165236162Y-86245474D01*
X164918563Y-86146507D01*
X164591310Y-86086535D01*
X164259234Y-86066449D01*
X163927157Y-86086535D01*
X163599904Y-86146507D01*
X163282305Y-86245474D01*
X163282290Y-86245480D01*
X162978914Y-86382018D01*
X162978912Y-86382020D01*
X162694202Y-86554132D01*
X162498649Y-86707337D01*
X163390127Y-87598815D01*
X163282050Y-87677339D01*
X163115098Y-87844291D01*
X163036574Y-87952368D01*
X162145096Y-87060890D01*
X161991891Y-87256443D01*
X161819779Y-87541153D01*
X161819777Y-87541155D01*
X161683239Y-87844531D01*
X161683233Y-87844546D01*
X161584266Y-88162145D01*
X161524294Y-88489398D01*
X161504208Y-88821475D01*
X136988458Y-88821475D01*
X136989994Y-88800001D01*
X136989994Y-88799998D01*
X136970043Y-88521062D01*
X136970042Y-88521055D01*
X136910601Y-88247812D01*
X136812872Y-87985787D01*
X136812870Y-87985783D01*
X136678855Y-87740352D01*
X136678850Y-87740344D01*
X136577969Y-87605583D01*
X136577968Y-87605582D01*
X136041461Y-88142089D01*
X135949122Y-88014995D01*
X135815005Y-87880878D01*
X135687909Y-87788537D01*
X136224416Y-87252030D01*
X136224416Y-87252029D01*
X136089655Y-87151149D01*
X136089647Y-87151144D01*
X135844216Y-87017129D01*
X135844212Y-87017127D01*
X135582187Y-86919398D01*
X135308944Y-86859957D01*
X135308937Y-86859956D01*
X135030001Y-86840006D01*
X135029999Y-86840006D01*
X134751062Y-86859956D01*
X134751055Y-86859957D01*
X134477812Y-86919398D01*
X134215787Y-87017127D01*
X134215783Y-87017129D01*
X133970352Y-87151144D01*
X133970344Y-87151149D01*
X133835582Y-87252029D01*
X134372090Y-87788537D01*
X134244995Y-87880878D01*
X134110878Y-88014995D01*
X134018537Y-88142090D01*
X133482029Y-87605582D01*
X133381149Y-87740344D01*
X133381144Y-87740352D01*
X133247129Y-87985783D01*
X133247127Y-87985787D01*
X133149398Y-88247812D01*
X133089957Y-88521055D01*
X133089956Y-88521062D01*
X133070006Y-88799998D01*
X128000500Y-88799998D01*
X128000500Y-81499998D01*
X133070006Y-81499998D01*
X133070006Y-81500001D01*
X133089956Y-81778937D01*
X133089957Y-81778944D01*
X133149398Y-82052187D01*
X133247127Y-82314212D01*
X133247129Y-82314216D01*
X133381144Y-82559647D01*
X133381149Y-82559655D01*
X133482029Y-82694416D01*
X134018536Y-82157908D01*
X134110878Y-82285005D01*
X134244995Y-82419122D01*
X134372089Y-82511461D01*
X133835582Y-83047968D01*
X133835583Y-83047969D01*
X133970344Y-83148850D01*
X133970352Y-83148855D01*
X134215783Y-83282870D01*
X134215787Y-83282872D01*
X134477812Y-83380601D01*
X134751055Y-83440042D01*
X134751062Y-83440043D01*
X135029999Y-83459994D01*
X135030001Y-83459994D01*
X135308937Y-83440043D01*
X135308944Y-83440042D01*
X135582187Y-83380601D01*
X135844212Y-83282872D01*
X135844216Y-83282870D01*
X136089647Y-83148855D01*
X136089648Y-83148854D01*
X136224416Y-83047968D01*
X135687909Y-82511462D01*
X135815005Y-82419122D01*
X135949122Y-82285005D01*
X136041462Y-82157910D01*
X136577968Y-82694416D01*
X136678854Y-82559648D01*
X136678855Y-82559647D01*
X136812870Y-82314216D01*
X136812872Y-82314212D01*
X136910601Y-82052187D01*
X136970042Y-81778944D01*
X136970043Y-81778937D01*
X136989994Y-81500001D01*
X136989994Y-81499998D01*
X136970043Y-81221062D01*
X136970042Y-81221055D01*
X136910601Y-80947812D01*
X136812872Y-80685787D01*
X136812870Y-80685783D01*
X136678855Y-80440352D01*
X136678850Y-80440344D01*
X136577969Y-80305583D01*
X136577968Y-80305582D01*
X136041461Y-80842089D01*
X135949122Y-80714995D01*
X135815005Y-80580878D01*
X135687909Y-80488537D01*
X136224416Y-79952030D01*
X136224416Y-79952029D01*
X136089655Y-79851149D01*
X136089647Y-79851144D01*
X135844216Y-79717129D01*
X135844212Y-79717127D01*
X135582187Y-79619398D01*
X135308944Y-79559957D01*
X135308937Y-79559956D01*
X135030001Y-79540006D01*
X135029999Y-79540006D01*
X134751062Y-79559956D01*
X134751055Y-79559957D01*
X134477812Y-79619398D01*
X134215787Y-79717127D01*
X134215783Y-79717129D01*
X133970352Y-79851144D01*
X133970344Y-79851149D01*
X133835582Y-79952029D01*
X134372090Y-80488537D01*
X134244995Y-80580878D01*
X134110878Y-80714995D01*
X134018537Y-80842090D01*
X133482029Y-80305582D01*
X133381149Y-80440344D01*
X133381144Y-80440352D01*
X133247129Y-80685783D01*
X133247127Y-80685787D01*
X133149398Y-80947812D01*
X133089957Y-81221055D01*
X133089956Y-81221062D01*
X133070006Y-81499998D01*
X128000500Y-81499998D01*
X128000500Y-74499998D01*
X130544518Y-74499998D01*
X130544518Y-74500001D01*
X130564422Y-74778299D01*
X130623727Y-75050916D01*
X130623729Y-75050923D01*
X130668664Y-75171398D01*
X130721231Y-75312338D01*
X130721233Y-75312342D01*
X130854940Y-75557207D01*
X130854945Y-75557215D01*
X131022138Y-75780560D01*
X131022154Y-75780578D01*
X131219421Y-75977845D01*
X131219439Y-75977861D01*
X131442784Y-76145054D01*
X131442792Y-76145059D01*
X131687657Y-76278766D01*
X131687661Y-76278768D01*
X131687663Y-76278769D01*
X131949077Y-76376271D01*
X132085391Y-76405924D01*
X132221700Y-76435577D01*
X132221702Y-76435577D01*
X132221706Y-76435578D01*
X132469014Y-76453265D01*
X132499999Y-76455482D01*
X132500000Y-76455482D01*
X132500001Y-76455482D01*
X132527881Y-76453487D01*
X132778294Y-76435578D01*
X133050923Y-76376271D01*
X133312337Y-76278769D01*
X133557213Y-76145056D01*
X133780568Y-75977855D01*
X133977855Y-75780568D01*
X134145056Y-75557213D01*
X134278769Y-75312337D01*
X134376271Y-75050923D01*
X134435578Y-74778294D01*
X134455482Y-74500000D01*
X134455482Y-74499998D01*
X175044518Y-74499998D01*
X175044518Y-74500001D01*
X175064422Y-74778299D01*
X175123727Y-75050916D01*
X175123729Y-75050923D01*
X175168664Y-75171398D01*
X175221231Y-75312338D01*
X175221233Y-75312342D01*
X175354940Y-75557207D01*
X175354945Y-75557215D01*
X175522138Y-75780560D01*
X175522154Y-75780578D01*
X175719421Y-75977845D01*
X175719439Y-75977861D01*
X175942784Y-76145054D01*
X175942792Y-76145059D01*
X176187657Y-76278766D01*
X176187661Y-76278768D01*
X176187663Y-76278769D01*
X176449077Y-76376271D01*
X176585391Y-76405924D01*
X176721700Y-76435577D01*
X176721702Y-76435577D01*
X176721706Y-76435578D01*
X176969014Y-76453265D01*
X176999999Y-76455482D01*
X177000000Y-76455482D01*
X177000001Y-76455482D01*
X177027881Y-76453487D01*
X177278294Y-76435578D01*
X177550923Y-76376271D01*
X177812337Y-76278769D01*
X178057213Y-76145056D01*
X178280568Y-75977855D01*
X178477855Y-75780568D01*
X178645056Y-75557213D01*
X178778769Y-75312337D01*
X178876271Y-75050923D01*
X178935578Y-74778294D01*
X178955482Y-74500000D01*
X178935578Y-74221706D01*
X178917073Y-74136642D01*
X178876272Y-73949083D01*
X178876271Y-73949077D01*
X178778769Y-73687663D01*
X178645056Y-73442787D01*
X178645054Y-73442784D01*
X178477861Y-73219439D01*
X178477845Y-73219421D01*
X178280578Y-73022154D01*
X178280560Y-73022138D01*
X178057215Y-72854945D01*
X178057207Y-72854940D01*
X177812342Y-72721233D01*
X177812338Y-72721231D01*
X177713230Y-72684266D01*
X177550923Y-72623729D01*
X177550919Y-72623728D01*
X177550916Y-72623727D01*
X177278299Y-72564422D01*
X177000001Y-72544518D01*
X176999999Y-72544518D01*
X176721700Y-72564422D01*
X176449083Y-72623727D01*
X176449078Y-72623728D01*
X176449077Y-72623729D01*
X176385875Y-72647301D01*
X176187661Y-72721231D01*
X176187657Y-72721233D01*
X175942792Y-72854940D01*
X175942784Y-72854945D01*
X175719439Y-73022138D01*
X175719421Y-73022154D01*
X175522154Y-73219421D01*
X175522138Y-73219439D01*
X175354945Y-73442784D01*
X175354940Y-73442792D01*
X175221233Y-73687657D01*
X175221231Y-73687661D01*
X175123727Y-73949083D01*
X175064422Y-74221700D01*
X175044518Y-74499998D01*
X134455482Y-74499998D01*
X134435578Y-74221706D01*
X134417073Y-74136642D01*
X134376272Y-73949083D01*
X134376271Y-73949077D01*
X134278769Y-73687663D01*
X134145056Y-73442787D01*
X134145054Y-73442784D01*
X133977861Y-73219439D01*
X133977845Y-73219421D01*
X133780578Y-73022154D01*
X133780560Y-73022138D01*
X133557215Y-72854945D01*
X133557207Y-72854940D01*
X133312342Y-72721233D01*
X133312338Y-72721231D01*
X133213230Y-72684266D01*
X133050923Y-72623729D01*
X133050919Y-72623728D01*
X133050916Y-72623727D01*
X132778299Y-72564422D01*
X132500001Y-72544518D01*
X132499999Y-72544518D01*
X132221700Y-72564422D01*
X131949083Y-72623727D01*
X131949078Y-72623728D01*
X131949077Y-72623729D01*
X131885875Y-72647301D01*
X131687661Y-72721231D01*
X131687657Y-72721233D01*
X131442792Y-72854940D01*
X131442784Y-72854945D01*
X131219439Y-73022138D01*
X131219421Y-73022154D01*
X131022154Y-73219421D01*
X131022138Y-73219439D01*
X130854945Y-73442784D01*
X130854940Y-73442792D01*
X130721233Y-73687657D01*
X130721231Y-73687661D01*
X130623727Y-73949083D01*
X130564422Y-74221700D01*
X130544518Y-74499998D01*
X128000500Y-74499998D01*
X128000500Y-70124500D01*
X128020185Y-70057461D01*
X128072989Y-70011706D01*
X128124500Y-70000500D01*
X181875500Y-70000500D01*
X181942539Y-70020185D01*
G37*
%TD.AperFunction*%
%TD*%
M02*
