G75*
G70*
%OFA0B0*%
%FSLAX24Y24*%
%IPPOS*%
%LPD*%
%AMOC8*
5,1,8,0,0,1.08239X$1,22.5*
%
%ADD10O,0.0594X0.1187*%
%ADD11R,0.0315X0.0157*%
%ADD12R,0.0394X0.0551*%
%ADD13R,0.0591X0.0512*%
%ADD14R,0.0354X0.0276*%
%ADD15R,0.0394X0.0433*%
%ADD16R,0.0433X0.0394*%
%ADD17C,0.0515*%
%ADD18R,0.0866X0.0787*%
%ADD19O,0.1200X0.0600*%
%ADD20R,0.0630X0.0460*%
%ADD21R,0.0800X0.0260*%
%ADD22O,0.1040X0.0520*%
%ADD23OC8,0.0560*%
%ADD24C,0.0500*%
%ADD25R,0.0551X0.0394*%
%ADD26R,0.0787X0.0866*%
%ADD27R,0.0500X0.1000*%
%ADD28O,0.0600X0.1200*%
%ADD29R,0.0390X0.0120*%
%ADD30R,0.0650X0.0130*%
%ADD31R,0.0591X0.0200*%
%ADD32C,0.0100*%
%ADD33C,0.0400*%
%ADD34C,0.0090*%
%ADD35C,0.0396*%
%ADD36C,0.0160*%
D10*
X010551Y011524D03*
X011551Y011524D03*
X012551Y011524D03*
X058151Y006824D03*
X059151Y006824D03*
X060151Y006824D03*
D11*
X060066Y035369D03*
X060066Y035624D03*
X060066Y035880D03*
X059436Y035880D03*
X059436Y035624D03*
X059436Y035369D03*
X059136Y036989D03*
X059136Y037244D03*
X059136Y037500D03*
X059766Y037500D03*
X059766Y037244D03*
X059766Y036989D03*
X059566Y038469D03*
X059566Y038724D03*
X059566Y038980D03*
X058936Y038980D03*
X058936Y038724D03*
X058936Y038469D03*
X057866Y038669D03*
X057866Y038924D03*
X057866Y039180D03*
X057236Y039180D03*
X057236Y038924D03*
X057236Y038669D03*
X057136Y037480D03*
X057136Y037224D03*
X057136Y036969D03*
X057766Y036969D03*
X057766Y037224D03*
X057766Y037480D03*
X057666Y040169D03*
X057666Y040424D03*
X057666Y040680D03*
X057036Y040680D03*
X057036Y040424D03*
X057036Y040169D03*
X058936Y040269D03*
X058936Y040524D03*
X058936Y040780D03*
X059566Y040780D03*
X059566Y040524D03*
X059566Y040269D03*
X060936Y040369D03*
X060936Y040624D03*
X060936Y040880D03*
X061566Y040880D03*
X061566Y040624D03*
X061566Y040369D03*
D12*
X062677Y040057D03*
X063425Y040057D03*
X063051Y039191D03*
X063251Y037357D03*
X063625Y036491D03*
X062877Y036491D03*
X063351Y035357D03*
X063725Y034491D03*
X062977Y034491D03*
X063351Y033157D03*
X063725Y032291D03*
X062977Y032291D03*
X063451Y030957D03*
X063825Y030091D03*
X063077Y030091D03*
X063551Y028857D03*
X063925Y027991D03*
X063177Y027991D03*
X063451Y026757D03*
X063825Y025891D03*
X063077Y025891D03*
X063451Y024457D03*
X063825Y023591D03*
X063077Y023591D03*
X063551Y021957D03*
X063925Y021091D03*
X063177Y021091D03*
X063451Y014557D03*
X063825Y013691D03*
X063077Y013691D03*
X063451Y012057D03*
X063825Y011191D03*
X063077Y011191D03*
X063077Y009557D03*
X063825Y009557D03*
X063451Y008691D03*
X039725Y011491D03*
X038977Y011491D03*
X038025Y011591D03*
X037277Y011591D03*
X037651Y012457D03*
X039351Y012357D03*
X037925Y021791D03*
X037177Y021791D03*
X037551Y022657D03*
X038977Y022491D03*
X039725Y022491D03*
X039351Y023357D03*
X038825Y031591D03*
X038077Y031591D03*
X038451Y032457D03*
X039677Y031691D03*
X040425Y031691D03*
X040051Y032557D03*
X039525Y039291D03*
X038777Y039291D03*
X039151Y040157D03*
X040677Y039991D03*
X041425Y039991D03*
X041051Y040857D03*
D13*
X037751Y037798D03*
X037751Y037050D03*
X034951Y023798D03*
X034951Y023050D03*
X043151Y021498D03*
X043151Y020750D03*
X050851Y022650D03*
X050851Y023398D03*
X051451Y021198D03*
X051451Y020450D03*
X055251Y022150D03*
X055251Y022898D03*
X060351Y022498D03*
X060351Y021750D03*
X052051Y015998D03*
X052051Y015250D03*
X054951Y013098D03*
X054951Y012350D03*
X023451Y021850D03*
X023451Y022598D03*
D14*
X026095Y018224D03*
X026606Y018224D03*
X031395Y017624D03*
X031906Y017624D03*
X032006Y018524D03*
X031495Y018524D03*
X031595Y027624D03*
X032106Y027624D03*
X032106Y028324D03*
X031595Y028324D03*
X026806Y028124D03*
X026295Y028124D03*
X031495Y037524D03*
X032006Y037524D03*
X032006Y038124D03*
X031495Y038124D03*
X026906Y038824D03*
X026395Y038824D03*
X008806Y037624D03*
X008295Y037624D03*
X008195Y025724D03*
X008706Y025724D03*
X008706Y025024D03*
X008195Y025024D03*
X008095Y024224D03*
X008606Y024224D03*
X008606Y023324D03*
X008095Y023324D03*
X026495Y008924D03*
X027006Y008924D03*
X031795Y009024D03*
X032306Y009024D03*
X032306Y008424D03*
X031795Y008424D03*
D15*
X036151Y007959D03*
X036151Y007290D03*
X037551Y007190D03*
X037551Y007859D03*
X036151Y009590D03*
X036151Y010259D03*
X040951Y011790D03*
X040951Y012459D03*
X043351Y011159D03*
X044551Y011490D03*
X044551Y012159D03*
X044551Y010559D03*
X043351Y010490D03*
X044551Y009890D03*
X042451Y009459D03*
X042451Y008790D03*
X042451Y007759D03*
X042451Y007090D03*
X042751Y015390D03*
X042751Y016059D03*
X043051Y018490D03*
X043051Y019159D03*
X044351Y019259D03*
X044351Y018590D03*
X044651Y021090D03*
X044651Y021759D03*
X040851Y021990D03*
X040851Y022659D03*
X041851Y025290D03*
X041851Y025959D03*
X043251Y028490D03*
X043251Y029159D03*
X044451Y029190D03*
X044451Y029859D03*
X043251Y030490D03*
X043251Y031159D03*
X041251Y031790D03*
X041251Y032459D03*
X042151Y034690D03*
X042151Y035359D03*
X042851Y037990D03*
X042851Y038659D03*
X044251Y038859D03*
X044251Y038190D03*
X044451Y039790D03*
X044451Y040459D03*
X042851Y041190D03*
X042851Y041859D03*
X036551Y040059D03*
X036551Y039390D03*
X036451Y037859D03*
X036451Y037190D03*
X038251Y035359D03*
X038251Y034690D03*
X037051Y031359D03*
X037051Y030690D03*
X036651Y029159D03*
X036651Y028490D03*
X037951Y028490D03*
X037951Y029159D03*
X037851Y026959D03*
X037851Y026290D03*
X036651Y020259D03*
X036651Y019590D03*
X036651Y018259D03*
X036651Y017590D03*
X038051Y017690D03*
X038051Y018359D03*
X026454Y023335D03*
X026454Y024004D03*
X018951Y020359D03*
X018951Y019690D03*
X017251Y016259D03*
X017251Y015590D03*
X017351Y014859D03*
X017351Y014190D03*
X017251Y013359D03*
X017251Y012690D03*
X016251Y012690D03*
X016251Y013359D03*
X016151Y014190D03*
X016151Y014859D03*
X016051Y015490D03*
X016051Y016159D03*
X013551Y019390D03*
X013551Y020059D03*
X015551Y022990D03*
X015551Y023659D03*
X018351Y025090D03*
X018351Y025759D03*
X018251Y027290D03*
X018251Y027959D03*
X015251Y029890D03*
X015251Y030559D03*
X017251Y030290D03*
X017251Y030959D03*
X018751Y031059D03*
X018751Y030390D03*
X017251Y032090D03*
X017251Y032759D03*
X018202Y032736D03*
X018202Y033405D03*
X015351Y033159D03*
X015351Y032490D03*
X011651Y028959D03*
X011651Y028290D03*
X008151Y034890D03*
X008151Y035559D03*
X017351Y036490D03*
X017351Y037159D03*
X017351Y039790D03*
X017351Y040459D03*
X052451Y024459D03*
X052451Y023790D03*
X051951Y022859D03*
X051951Y022190D03*
X053951Y023590D03*
X053951Y024259D03*
X061361Y027390D03*
X061361Y028059D03*
X060951Y033090D03*
X060951Y033759D03*
X061351Y035790D03*
X061351Y036459D03*
X061251Y037990D03*
X061251Y038659D03*
X018251Y009659D03*
X018251Y008990D03*
X013951Y009159D03*
X013951Y008490D03*
D16*
X017316Y011324D03*
X017985Y011324D03*
X019316Y011324D03*
X019985Y011324D03*
X026216Y020424D03*
X026885Y020424D03*
X030416Y020224D03*
X031085Y020224D03*
X037716Y019724D03*
X038385Y019724D03*
X039816Y020524D03*
X040485Y020524D03*
X041516Y020024D03*
X042185Y020024D03*
X042116Y022824D03*
X042785Y022824D03*
X040685Y025224D03*
X040016Y025224D03*
X042816Y026624D03*
X043485Y026624D03*
X044516Y025824D03*
X045185Y025824D03*
X049916Y024924D03*
X050585Y024924D03*
X053316Y022324D03*
X053985Y022324D03*
X055316Y020824D03*
X055985Y020824D03*
X053885Y020524D03*
X053216Y020524D03*
X044985Y016224D03*
X044316Y016224D03*
X042785Y016924D03*
X042116Y016924D03*
X040885Y015524D03*
X040216Y015524D03*
X037785Y015924D03*
X037116Y015924D03*
X042116Y012424D03*
X042785Y012424D03*
X042185Y010624D03*
X041516Y010624D03*
X040285Y010224D03*
X039616Y010224D03*
X038085Y009824D03*
X037416Y009824D03*
X037316Y005824D03*
X037985Y005824D03*
X041316Y005624D03*
X041985Y005624D03*
X043916Y006924D03*
X044585Y006924D03*
X044585Y008624D03*
X043916Y008624D03*
X016185Y025224D03*
X015516Y025224D03*
X015516Y026224D03*
X016185Y026224D03*
X021316Y029024D03*
X021985Y029024D03*
X026216Y026524D03*
X026885Y026524D03*
X026985Y029724D03*
X026316Y029724D03*
X031416Y029724D03*
X032085Y029724D03*
X032085Y026424D03*
X031416Y026424D03*
X038216Y030524D03*
X038885Y030524D03*
X040016Y030424D03*
X040685Y030424D03*
X041616Y029224D03*
X042285Y029224D03*
X044516Y031024D03*
X045185Y031024D03*
X043585Y032524D03*
X042916Y032524D03*
X043216Y035024D03*
X043885Y035024D03*
X040585Y034924D03*
X039916Y034924D03*
X042116Y036824D03*
X042785Y036824D03*
X041385Y039024D03*
X040716Y039024D03*
X042216Y039624D03*
X042885Y039624D03*
X044116Y041624D03*
X044785Y041624D03*
X041585Y042224D03*
X040916Y042224D03*
X037985Y039224D03*
X037316Y039224D03*
X031885Y036224D03*
X031216Y036224D03*
X027185Y037024D03*
X026516Y037024D03*
X018893Y035078D03*
X018223Y035078D03*
X015985Y037024D03*
X015316Y037024D03*
X008785Y026624D03*
X008116Y026624D03*
D17*
X047351Y026124D03*
X047351Y027124D03*
X047351Y028124D03*
X047251Y030324D03*
X047251Y031324D03*
X047251Y032324D03*
X047151Y035424D03*
X047151Y036424D03*
X047151Y037424D03*
X047151Y039424D03*
X047151Y040424D03*
X047151Y041424D03*
X047451Y022924D03*
X047451Y021924D03*
X047451Y020924D03*
X047651Y018624D03*
X047651Y017624D03*
X047651Y016624D03*
X046951Y012524D03*
X046951Y011524D03*
X046951Y010524D03*
X046951Y008324D03*
X046951Y007324D03*
X046951Y006324D03*
D18*
X052551Y012334D03*
X052551Y013515D03*
X056951Y013415D03*
X056951Y012234D03*
X055751Y024334D03*
X055751Y025515D03*
X051151Y028834D03*
X051151Y030015D03*
X053351Y030315D03*
X053351Y029134D03*
X051151Y032234D03*
X051151Y033415D03*
X050951Y035334D03*
X050951Y036515D03*
X050851Y038434D03*
X050851Y039615D03*
X055351Y040534D03*
X055351Y041715D03*
X055451Y038515D03*
X055451Y037334D03*
X055451Y035015D03*
X055451Y033834D03*
X060851Y031415D03*
X060851Y030234D03*
X048951Y030015D03*
X048951Y028834D03*
X032951Y024015D03*
X032951Y022834D03*
D19*
X025151Y026924D03*
X025151Y027924D03*
X025151Y028924D03*
X025151Y029924D03*
X025151Y030924D03*
X025151Y031924D03*
X025151Y033924D03*
X025151Y034924D03*
X025151Y035924D03*
X025151Y036924D03*
X025151Y037924D03*
X025151Y038924D03*
X006151Y038924D03*
X006151Y037924D03*
X006151Y036924D03*
X006151Y035924D03*
X006151Y034924D03*
X006151Y033924D03*
X006151Y032924D03*
X006151Y031924D03*
X006151Y030324D03*
X006151Y029324D03*
X006151Y028324D03*
X006151Y027324D03*
X006151Y026324D03*
X006151Y025324D03*
X006151Y024324D03*
X006151Y023324D03*
X048751Y032424D03*
X048751Y033424D03*
X048751Y034424D03*
X048751Y036924D03*
X048751Y037924D03*
X048751Y038924D03*
X053151Y039224D03*
X053151Y038224D03*
X053151Y037224D03*
X053351Y034324D03*
X053351Y033324D03*
X053351Y032324D03*
D20*
X014351Y015024D03*
X014351Y014424D03*
D21*
X019541Y009224D03*
X019541Y008224D03*
X017761Y008324D03*
X017761Y007324D03*
X015341Y007324D03*
X015341Y008324D03*
X021961Y008224D03*
X021961Y009224D03*
X022561Y019424D03*
X022561Y020424D03*
X020141Y020424D03*
X020141Y019424D03*
X017361Y019324D03*
X017361Y020324D03*
X014941Y020324D03*
X014941Y019324D03*
X019441Y023524D03*
X019441Y024524D03*
X021861Y024524D03*
X021861Y023524D03*
X021861Y026824D03*
X021861Y027824D03*
X019441Y027824D03*
X019441Y026824D03*
X028041Y023774D03*
X028041Y023274D03*
X028041Y022774D03*
X028041Y022274D03*
X030461Y022274D03*
X030461Y022774D03*
X030461Y023274D03*
X030461Y023774D03*
X021361Y036224D03*
X021361Y037224D03*
X018941Y037224D03*
X018941Y036224D03*
X018941Y039824D03*
X018941Y040824D03*
X021361Y040824D03*
X021361Y039824D03*
X053941Y016674D03*
X053941Y016174D03*
X053941Y015674D03*
X053941Y015174D03*
X056361Y015174D03*
X056361Y015674D03*
X056361Y016174D03*
X056361Y016674D03*
D22*
X030751Y015224D03*
X030751Y014224D03*
X027751Y014224D03*
X027751Y015224D03*
X027851Y006024D03*
X027851Y005024D03*
X030851Y005024D03*
X030851Y006024D03*
X030451Y032824D03*
X030451Y033824D03*
X027451Y033824D03*
X027451Y032824D03*
X027451Y040924D03*
X027451Y041924D03*
X030451Y041924D03*
X030451Y040924D03*
D23*
X064851Y038824D03*
X065851Y038824D03*
X065851Y037824D03*
X064851Y037824D03*
X064851Y036824D03*
X065851Y036824D03*
X065851Y035824D03*
X064851Y035824D03*
X064851Y034824D03*
X065851Y034824D03*
X065851Y033824D03*
X064851Y033824D03*
X064851Y032824D03*
X065851Y032824D03*
X065851Y031824D03*
X064851Y031824D03*
X064851Y030824D03*
X065851Y030824D03*
X065851Y029824D03*
X064851Y029824D03*
X064851Y028824D03*
X065851Y028824D03*
X065851Y027824D03*
X064851Y027824D03*
X064851Y026824D03*
X065851Y026824D03*
X065851Y025824D03*
X064851Y025824D03*
X064851Y024824D03*
X065851Y024824D03*
X065851Y023824D03*
X064851Y023824D03*
X064851Y022824D03*
X065851Y022824D03*
X065851Y021824D03*
X064851Y021824D03*
X064851Y020824D03*
X065851Y020824D03*
X065851Y019824D03*
X064851Y019824D03*
X064851Y018824D03*
X065851Y018824D03*
X065851Y017824D03*
X064851Y017824D03*
X064851Y016824D03*
X065851Y016824D03*
X065851Y015824D03*
X064851Y015824D03*
X064851Y014824D03*
X065851Y014824D03*
X065851Y013824D03*
X064851Y013824D03*
X064851Y012824D03*
X065851Y012824D03*
X065851Y011824D03*
X064851Y011824D03*
X064851Y010824D03*
X065851Y010824D03*
X065851Y009824D03*
X064851Y009824D03*
X064851Y008824D03*
X065851Y008824D03*
X065851Y007824D03*
X064851Y007824D03*
D24*
X007701Y003384D02*
X004701Y003384D01*
X004701Y006384D01*
X004701Y040264D02*
X004701Y043264D01*
X007701Y043264D01*
X065201Y043264D02*
X068201Y043264D01*
X068201Y040264D01*
X068201Y006384D02*
X068201Y003384D01*
X065201Y003384D01*
D25*
X017884Y021850D03*
X017884Y022598D03*
X017017Y022224D03*
D26*
X028531Y025611D03*
X029712Y025611D03*
X051760Y018624D03*
X052941Y018624D03*
X056860Y027224D03*
X058041Y027224D03*
X058141Y034424D03*
X056960Y034424D03*
D27*
X050551Y041624D03*
X051751Y041824D03*
X052751Y041824D03*
X053751Y041824D03*
X049551Y041624D03*
X048551Y041624D03*
D28*
X056351Y032124D03*
X057351Y032124D03*
X058351Y032124D03*
X058551Y029724D03*
X057551Y029724D03*
X056551Y029724D03*
D29*
X056881Y022574D03*
X056881Y022324D03*
X056881Y022074D03*
X056881Y021824D03*
X056881Y021574D03*
X056881Y021324D03*
X056881Y021074D03*
X059021Y021074D03*
X059021Y021324D03*
X059021Y021574D03*
X059021Y021824D03*
X059021Y022074D03*
X059021Y022324D03*
X059021Y022574D03*
X041321Y018974D03*
X041321Y018724D03*
X041321Y018474D03*
X041321Y018224D03*
X041321Y017974D03*
X041321Y017724D03*
X041321Y017474D03*
X039181Y017474D03*
X039181Y017724D03*
X039181Y017974D03*
X039181Y018224D03*
X039181Y018474D03*
X039181Y018724D03*
X039181Y018974D03*
X030321Y018774D03*
X030321Y018524D03*
X030321Y018274D03*
X030321Y018024D03*
X030321Y017774D03*
X030321Y017524D03*
X030321Y017274D03*
X028181Y017274D03*
X028181Y017524D03*
X028181Y017774D03*
X028181Y018024D03*
X028181Y018274D03*
X028181Y018524D03*
X028181Y018774D03*
X039281Y026774D03*
X039281Y027024D03*
X039281Y027274D03*
X039281Y027524D03*
X039281Y027774D03*
X039281Y028024D03*
X039281Y028274D03*
X041421Y028274D03*
X041421Y028024D03*
X041421Y027774D03*
X041421Y027524D03*
X041421Y027274D03*
X041421Y027024D03*
X041421Y026774D03*
X030121Y027274D03*
X030121Y027524D03*
X030121Y027774D03*
X030121Y028024D03*
X030121Y028274D03*
X030121Y028524D03*
X030121Y028774D03*
X027981Y028774D03*
X027981Y028524D03*
X027981Y028274D03*
X027981Y028024D03*
X027981Y027774D03*
X027981Y027524D03*
X027981Y027274D03*
X039081Y036374D03*
X039081Y036624D03*
X039081Y036874D03*
X039081Y037124D03*
X039081Y037374D03*
X039081Y037624D03*
X039081Y037874D03*
X041221Y037874D03*
X041221Y037624D03*
X041221Y037374D03*
X041221Y037124D03*
X041221Y036874D03*
X041221Y036624D03*
X041221Y036374D03*
X029921Y037774D03*
X029921Y038024D03*
X029921Y038274D03*
X029921Y038524D03*
X029921Y038774D03*
X029921Y039024D03*
X029921Y039274D03*
X027781Y039274D03*
X027781Y039024D03*
X027781Y038774D03*
X027781Y038524D03*
X027781Y038274D03*
X027781Y038024D03*
X027781Y037774D03*
X028381Y009374D03*
X028381Y009124D03*
X028381Y008874D03*
X028381Y008624D03*
X028381Y008374D03*
X028381Y008124D03*
X028381Y007874D03*
X030521Y007874D03*
X030521Y008124D03*
X030521Y008374D03*
X030521Y008624D03*
X030521Y008874D03*
X030521Y009124D03*
X030521Y009374D03*
X038681Y008874D03*
X038681Y008624D03*
X038681Y008374D03*
X038681Y008124D03*
X038681Y007874D03*
X038681Y007624D03*
X038681Y007374D03*
X040821Y007374D03*
X040821Y007624D03*
X040821Y007874D03*
X040821Y008124D03*
X040821Y008374D03*
X040821Y008624D03*
X040821Y008874D03*
D30*
X020790Y012817D03*
X020790Y013073D03*
X020790Y013329D03*
X020790Y013585D03*
X020790Y013841D03*
X020790Y014096D03*
X020790Y014352D03*
X020790Y014608D03*
X020790Y014864D03*
X020790Y015120D03*
X020790Y015376D03*
X020790Y015632D03*
X018561Y015632D03*
X018561Y015376D03*
X018561Y015120D03*
X018561Y014864D03*
X018561Y014608D03*
X018561Y014352D03*
X018561Y014096D03*
X018561Y013841D03*
X018561Y013585D03*
X018561Y013329D03*
X018561Y013073D03*
X018561Y012817D03*
X020761Y030717D03*
X020761Y030973D03*
X020761Y031229D03*
X020761Y031485D03*
X020761Y031741D03*
X020761Y031996D03*
X020761Y032252D03*
X020761Y032508D03*
X020761Y032764D03*
X020761Y033020D03*
X020761Y033276D03*
X020761Y033532D03*
X022990Y033532D03*
X022990Y033276D03*
X022990Y033020D03*
X022990Y032764D03*
X022990Y032508D03*
X022990Y032252D03*
X022990Y031996D03*
X022990Y031741D03*
X022990Y031485D03*
X022990Y031229D03*
X022990Y030973D03*
X022990Y030717D03*
D31*
X013527Y030545D03*
X013527Y031037D03*
X013527Y031529D03*
X013527Y032021D03*
X013527Y032513D03*
X013527Y033006D03*
X013527Y033498D03*
X013627Y034553D03*
X013627Y035045D03*
X013627Y035537D03*
X013627Y036029D03*
X013627Y036521D03*
X013627Y037013D03*
X013627Y037506D03*
X013627Y037998D03*
X010280Y037998D03*
X010280Y037506D03*
X010280Y037013D03*
X010280Y036521D03*
X010280Y036029D03*
X010280Y035537D03*
X010280Y035045D03*
X010280Y034553D03*
X010180Y033498D03*
X010180Y033006D03*
X010180Y032513D03*
X010180Y032021D03*
X010180Y031529D03*
X010180Y031037D03*
X010180Y030545D03*
X010180Y030053D03*
X013527Y030053D03*
X013427Y026598D03*
X013427Y026106D03*
X013427Y025613D03*
X013427Y025121D03*
X013427Y024629D03*
X013427Y024137D03*
X013427Y023645D03*
X013427Y023153D03*
X010080Y023153D03*
X010080Y023645D03*
X010080Y024137D03*
X010080Y024629D03*
X010080Y025121D03*
X010080Y025613D03*
X010080Y026106D03*
X010080Y026598D03*
D32*
X010080Y026106D02*
X009851Y026024D01*
X009351Y026524D01*
X008951Y026524D01*
X008785Y026624D01*
X010080Y026106D02*
X010251Y026024D01*
X010751Y026024D01*
X010751Y025324D01*
X010751Y023224D01*
X010351Y023224D01*
X010080Y023153D01*
X010751Y023224D02*
X010751Y019524D01*
X008051Y022224D01*
X007251Y023024D01*
X007251Y024024D01*
X010751Y026024D02*
X010751Y027024D01*
X011851Y028124D01*
X011751Y028124D01*
X011651Y028290D01*
X011851Y028124D02*
X012251Y028524D01*
X012251Y034524D01*
X010951Y034524D01*
X010951Y035824D01*
X010951Y038324D01*
X009851Y038324D01*
X009751Y038224D01*
X009751Y037824D01*
X010051Y037524D01*
X010280Y037506D01*
X013627Y037506D02*
X014072Y037506D01*
X014164Y037414D01*
X014232Y037414D01*
X013851Y036024D02*
X013627Y036029D01*
X013851Y036024D02*
X015651Y036024D01*
X015651Y035824D01*
X016551Y036624D02*
X016951Y036624D01*
X016951Y039324D01*
X017251Y039624D01*
X017351Y039790D01*
X018941Y039824D02*
X019491Y039824D01*
X019491Y038434D01*
X019491Y036224D01*
X019485Y036224D01*
X018941Y036224D01*
X019485Y036224D02*
X018893Y035632D01*
X018893Y035078D01*
X018893Y034731D01*
X018722Y034561D01*
X018722Y033410D01*
X019112Y033020D01*
X020286Y033020D01*
X020286Y032764D01*
X020761Y032764D01*
X020761Y033020D02*
X020336Y033020D01*
X020286Y033020D01*
X018722Y033410D02*
X018553Y033410D01*
X018549Y033405D01*
X018202Y033405D01*
X017251Y032759D02*
X016904Y032759D01*
X016904Y030290D01*
X017251Y030290D01*
X017597Y030290D01*
X018304Y030290D01*
X018404Y030390D01*
X018751Y030390D01*
X019097Y030390D01*
X019681Y030973D01*
X020286Y030973D01*
X020286Y031485D01*
X020761Y031485D01*
X020761Y031741D02*
X020286Y031741D01*
X019779Y031741D01*
X019097Y031059D01*
X018876Y031059D01*
X020286Y030973D02*
X020524Y030973D01*
X020761Y030973D01*
X021236Y030973D01*
X021236Y030812D01*
X021142Y030717D01*
X021236Y030717D01*
X021316Y030637D01*
X021316Y029024D01*
X021316Y028678D01*
X022528Y028678D01*
X022539Y028667D01*
X023465Y029203D02*
X023952Y028716D01*
X023952Y028108D01*
X023515Y027671D01*
X023515Y026312D01*
X023631Y026196D01*
X024251Y025824D02*
X024251Y027024D01*
X024451Y027224D01*
X024451Y027424D01*
X025651Y027424D01*
X025951Y027724D01*
X025951Y028324D01*
X025851Y028424D01*
X026638Y028774D02*
X025937Y029475D01*
X025937Y030108D01*
X026417Y030588D01*
X026417Y031522D01*
X026655Y031760D01*
X026655Y032126D01*
X026420Y032361D01*
X026160Y032361D01*
X025948Y032149D01*
X025948Y031770D01*
X025643Y031464D01*
X023485Y031464D01*
X023465Y031485D01*
X022990Y031485D01*
X022990Y031741D02*
X023904Y031741D01*
X026064Y033901D01*
X026064Y035424D01*
X026516Y034719D02*
X026419Y034622D01*
X026419Y032645D01*
X026863Y032201D01*
X026863Y030619D01*
X026869Y030624D01*
X027851Y030624D01*
X028951Y030524D02*
X029251Y030224D01*
X029288Y030187D01*
X030194Y031094D01*
X030332Y031094D01*
X031323Y032085D01*
X031323Y034217D01*
X030843Y034697D01*
X030843Y036490D01*
X030925Y036571D01*
X031885Y036571D01*
X031885Y036224D01*
X031885Y035878D01*
X032085Y035678D01*
X032085Y033524D01*
X032251Y033524D01*
X032085Y033524D02*
X032085Y029724D01*
X033147Y028663D01*
X033147Y027486D01*
X032085Y026424D01*
X032085Y023471D01*
X032951Y023471D01*
X032951Y023743D01*
X032951Y024015D01*
X032951Y023743D02*
X034450Y023743D01*
X034505Y023798D01*
X034951Y023798D01*
X034951Y024204D01*
X036642Y025896D01*
X036975Y025896D01*
X039125Y025896D01*
X039251Y026024D01*
X039251Y024524D01*
X040151Y024524D01*
X043551Y024524D01*
X045751Y024524D01*
X047251Y026024D01*
X047351Y026124D01*
X047760Y026534D01*
X047760Y028965D01*
X047640Y029086D01*
X047640Y030015D01*
X047560Y030015D01*
X047751Y030024D01*
X048751Y030024D01*
X048951Y030015D01*
X049534Y030015D01*
X050077Y030559D01*
X050567Y030559D01*
X051151Y030559D01*
X051151Y030015D01*
X050567Y030559D02*
X050567Y032696D01*
X050743Y032871D01*
X051151Y032871D01*
X051151Y033415D01*
X051151Y034590D01*
X050951Y034790D01*
X050951Y035334D01*
X051544Y034885D02*
X051544Y038323D01*
X051434Y038434D01*
X050851Y038434D01*
X050188Y038418D02*
X050188Y038817D01*
X050443Y039071D01*
X050851Y039071D01*
X050851Y039615D01*
X050443Y039071D02*
X050150Y039364D01*
X050150Y042187D01*
X050238Y042274D01*
X050900Y042274D01*
X051351Y041824D01*
X051751Y041824D01*
X050551Y041624D02*
X050551Y040974D01*
X052301Y039224D01*
X052388Y039224D01*
X052388Y034329D01*
X052893Y033824D01*
X053789Y033824D01*
X054305Y033308D01*
X054305Y029028D01*
X053855Y028578D01*
X051989Y028578D01*
X051734Y028834D01*
X051151Y028834D01*
X052268Y029378D02*
X052755Y029865D01*
X052755Y031279D01*
X053351Y031874D01*
X053351Y032324D01*
X051824Y032324D01*
X051734Y032234D01*
X051151Y032234D01*
X052601Y033324D02*
X053351Y033324D01*
X053351Y032874D01*
X053744Y032874D01*
X054105Y032514D01*
X054105Y031613D01*
X053351Y030859D01*
X053351Y030315D01*
X052755Y029865D02*
X052943Y029678D01*
X053351Y029678D01*
X053351Y029134D01*
X052268Y029378D02*
X048449Y029378D01*
X048367Y029297D01*
X048367Y024978D01*
X048788Y024557D01*
X049717Y021988D02*
X050507Y021198D01*
X051005Y021198D01*
X051451Y021198D01*
X051005Y021198D02*
X051005Y016409D01*
X051010Y016404D01*
X052051Y016404D01*
X052051Y015998D01*
X052496Y015998D01*
X052496Y015887D01*
X052709Y015674D01*
X053941Y015674D01*
X054491Y015674D01*
X054491Y016124D01*
X054441Y016174D01*
X053941Y016174D01*
X054441Y016174D02*
X057440Y019174D01*
X057440Y021668D01*
X057283Y021824D01*
X056881Y021824D01*
X056881Y021574D02*
X057226Y021574D01*
X057226Y020952D01*
X057098Y020824D01*
X055985Y020824D01*
X055985Y020478D01*
X053548Y018040D01*
X052341Y018040D01*
X052340Y018041D01*
X051760Y018041D01*
X051760Y018624D01*
X051760Y019208D01*
X051451Y019517D01*
X051451Y020450D01*
X052341Y018040D02*
X052341Y017007D01*
X051010Y016404D02*
X050951Y016346D01*
X050951Y013149D01*
X051951Y013070D02*
X051951Y014744D01*
X052051Y014844D01*
X052051Y015250D01*
X051605Y015250D01*
X051605Y015392D01*
X051451Y015545D01*
X052551Y015516D02*
X052551Y013515D01*
X052551Y012878D02*
X052143Y012878D01*
X051951Y013070D01*
X052551Y012878D02*
X052551Y012334D01*
X053134Y012334D01*
X053134Y012436D01*
X053391Y012692D01*
X053391Y014624D01*
X052551Y015516D02*
X052709Y015674D01*
X053391Y012692D02*
X054163Y012692D01*
X054505Y012350D01*
X054951Y012350D01*
X055396Y012350D01*
X055512Y012234D01*
X056951Y012234D01*
X056951Y007624D01*
X056951Y007081D01*
X057960Y006072D01*
X058343Y006072D01*
X058704Y006432D01*
X058704Y006824D01*
X059151Y006824D01*
X060151Y006824D02*
X060597Y006824D01*
X062905Y009132D01*
X064431Y009132D01*
X064657Y009357D01*
X065012Y009357D01*
X065351Y009696D01*
X065351Y013945D01*
X065660Y014254D01*
X065900Y014254D01*
X066694Y015048D01*
X066694Y037605D01*
X065904Y038394D01*
X065851Y038394D01*
X065851Y038824D01*
X064421Y036878D02*
X063309Y037990D01*
X061251Y037990D01*
X061251Y037804D01*
X061251Y037623D01*
X061004Y037376D01*
X061004Y035790D01*
X061177Y035790D01*
X061351Y035790D01*
X062877Y035790D01*
X062877Y035017D01*
X062977Y034917D01*
X062977Y034491D01*
X061177Y034933D02*
X060651Y034407D01*
X060604Y034407D01*
X060604Y033090D01*
X060777Y033090D01*
X060951Y033090D01*
X060777Y033090D02*
X062483Y031384D01*
X062483Y030957D01*
X063104Y030957D01*
X063451Y030957D01*
X063104Y030957D02*
X063104Y031739D01*
X062977Y031866D01*
X062977Y032291D01*
X062483Y030957D02*
X062483Y028059D01*
X061361Y028059D01*
X062483Y028059D02*
X063077Y027466D01*
X063177Y027566D01*
X063177Y027991D01*
X063077Y027466D02*
X063077Y025891D01*
X063077Y023591D01*
X063077Y023166D01*
X063204Y023039D01*
X063204Y021957D01*
X063551Y021957D01*
X063897Y021957D01*
X064600Y021254D01*
X064896Y021254D01*
X065291Y021650D01*
X065291Y025007D01*
X064904Y025394D01*
X064851Y025394D01*
X064851Y025824D01*
X065851Y025824D02*
X065851Y026254D01*
X065895Y026254D01*
X066282Y026642D01*
X066282Y030016D01*
X065904Y030394D01*
X065851Y030394D01*
X065851Y030824D01*
X065851Y031824D01*
X064851Y031824D02*
X064851Y030824D01*
X060851Y031415D02*
X059297Y031415D01*
X058001Y030118D01*
X058001Y029724D01*
X057551Y029724D01*
X057551Y028974D01*
X057417Y028841D01*
X057417Y022260D01*
X057853Y021824D01*
X059021Y021824D01*
X059366Y021824D01*
X060040Y022498D01*
X060351Y022498D01*
X060351Y021750D02*
X060261Y021750D01*
X059905Y021750D01*
X059729Y021574D01*
X059021Y021574D01*
X060261Y021750D02*
X060287Y021725D01*
X060287Y021725D01*
X060287Y015024D01*
X060251Y015024D01*
X060287Y015024D02*
X060287Y012907D01*
X063074Y010120D01*
X063262Y010120D01*
X063825Y009557D01*
X064171Y009557D01*
X064421Y009807D01*
X064421Y009824D01*
X064851Y009824D01*
X064421Y009824D02*
X064421Y012018D01*
X064797Y012394D01*
X064851Y012394D01*
X064851Y012824D01*
X063451Y012057D02*
X063451Y014557D01*
X063797Y014557D01*
X063797Y014771D01*
X064851Y015824D01*
X064851Y016254D01*
X064895Y016254D01*
X065421Y016780D01*
X065421Y018018D01*
X065797Y018394D01*
X065851Y018394D01*
X065851Y018824D01*
X064851Y019824D02*
X063757Y019824D01*
X061952Y021630D01*
X061952Y026440D01*
X061601Y024079D02*
X061601Y021183D01*
X062083Y020701D01*
X062083Y019982D01*
X064811Y017254D01*
X064851Y017254D01*
X064851Y016824D01*
X063451Y015141D02*
X063451Y014557D01*
X061730Y019650D02*
X061730Y020559D01*
X061443Y020846D01*
X063877Y020380D02*
X065033Y020380D01*
X065420Y020768D01*
X065420Y021005D01*
X065810Y021394D01*
X066043Y021394D01*
X066281Y021632D01*
X066281Y022018D01*
X065904Y022394D01*
X065851Y022394D01*
X065851Y022824D01*
X056860Y027224D02*
X056860Y027808D01*
X056551Y028117D01*
X056551Y029724D01*
X057351Y032124D02*
X057351Y032874D01*
X057597Y033121D01*
X057597Y034424D01*
X058141Y034424D01*
X058685Y034424D01*
X058685Y035318D01*
X058735Y035368D01*
X058735Y036895D01*
X058736Y036896D01*
X058828Y036989D01*
X059136Y036989D01*
X058736Y036896D02*
X058408Y037224D01*
X057766Y037224D01*
X057554Y037224D01*
X057458Y037224D01*
X057443Y037210D01*
X057443Y036969D01*
X057136Y036969D01*
X057458Y037320D02*
X057554Y037224D01*
X057458Y037320D02*
X057458Y037480D01*
X057612Y037480D01*
X057766Y037480D01*
X057612Y037480D02*
X057612Y038440D01*
X058108Y038440D01*
X058173Y038505D01*
X058173Y038924D01*
X057866Y038924D01*
X057866Y039180D01*
X057236Y038669D02*
X056928Y038669D01*
X056828Y038769D01*
X056792Y038769D01*
X056792Y039680D01*
X056728Y039744D01*
X056728Y040169D01*
X057036Y040169D01*
X058936Y040269D02*
X059243Y040269D01*
X059243Y040510D01*
X059258Y040524D01*
X059354Y040524D01*
X059258Y040620D01*
X059258Y040780D01*
X059566Y040780D01*
X059873Y040780D01*
X060202Y041109D01*
X061190Y041109D01*
X061258Y041041D01*
X061258Y040880D01*
X061258Y040720D01*
X061354Y040624D01*
X061258Y040624D01*
X061243Y040610D01*
X061243Y040369D01*
X060936Y040369D01*
X061354Y040624D02*
X061566Y040624D01*
X061873Y040624D01*
X061873Y040499D01*
X061879Y040493D01*
X062946Y040493D01*
X063078Y040361D01*
X063078Y040057D01*
X063425Y040057D01*
X061879Y040228D02*
X061879Y040493D01*
X061879Y040228D02*
X060884Y039233D01*
X060884Y038170D01*
X061251Y037804D01*
X062877Y036491D02*
X062877Y035790D01*
X061177Y035790D02*
X061177Y034933D01*
X060604Y034407D02*
X060361Y034407D01*
X059436Y035333D01*
X059436Y035369D01*
X056960Y034424D02*
X056960Y033424D01*
X056869Y033333D01*
X056034Y034543D02*
X056034Y036207D01*
X055451Y036790D01*
X055451Y037334D01*
X055451Y038515D02*
X056034Y038515D01*
X056287Y038769D01*
X056792Y038769D01*
X057236Y038669D02*
X057464Y038440D01*
X057612Y038440D01*
X058628Y038469D02*
X058936Y038469D01*
X058628Y038469D02*
X058628Y037444D01*
X058408Y037224D01*
X055451Y038515D02*
X055451Y039059D01*
X055351Y039159D01*
X055351Y040534D01*
X055351Y041715D02*
X054260Y041715D01*
X054151Y041824D01*
X053751Y041824D01*
X053351Y041824D01*
X053351Y042224D01*
X053097Y042478D01*
X049416Y042478D01*
X049150Y042213D01*
X049150Y040168D01*
X049523Y039795D01*
X049523Y038753D01*
X049144Y038374D01*
X048751Y038374D01*
X048751Y037924D01*
X048751Y037374D02*
X048751Y036924D01*
X048751Y037374D02*
X049144Y037374D01*
X050188Y038418D01*
X052388Y039224D02*
X053151Y039224D01*
X053151Y038224D02*
X053151Y037774D01*
X053555Y037774D01*
X055451Y035879D01*
X055451Y035015D01*
X055451Y034378D02*
X055451Y034106D01*
X055451Y033834D01*
X055451Y034106D02*
X055596Y034106D01*
X056034Y034543D01*
X055451Y034378D02*
X053351Y034378D01*
X053351Y036574D01*
X053151Y036774D01*
X053151Y037224D01*
X050951Y036515D02*
X050951Y035971D01*
X050543Y035971D01*
X050348Y035777D01*
X050348Y034078D01*
X049144Y032874D01*
X048751Y032874D01*
X048751Y032424D01*
X047951Y030924D02*
X047451Y030424D01*
X047251Y030324D01*
X047560Y030015D01*
X047951Y030924D02*
X047951Y034424D01*
X048001Y034424D01*
X048001Y034574D01*
X048251Y034524D01*
X048751Y034424D01*
X048001Y034574D02*
X047151Y035424D01*
X047575Y035849D01*
X047575Y037722D01*
X047151Y038147D01*
X047151Y039424D01*
X047151Y038147D02*
X046680Y038147D01*
X045848Y037314D01*
X043665Y037664D02*
X043197Y037664D01*
X043197Y038659D01*
X042851Y038659D01*
X042731Y038659D01*
X041446Y037374D01*
X041221Y037374D01*
X042785Y037171D02*
X042785Y036824D01*
X042785Y037171D02*
X043197Y037584D01*
X043197Y037664D01*
X039081Y037124D02*
X038736Y037124D01*
X038111Y036500D01*
X038111Y036233D01*
X037751Y035512D02*
X037543Y035512D01*
X037543Y035230D01*
X037751Y035512D02*
X037904Y035359D01*
X038251Y035359D01*
X037751Y035512D02*
X037751Y037050D01*
X036937Y037050D01*
X036797Y037190D01*
X036451Y037190D01*
X035992Y036833D02*
X035969Y036810D01*
X035969Y036520D01*
X036174Y036315D01*
X036464Y036315D01*
X036487Y036338D01*
X036706Y036119D01*
X036907Y036119D01*
X036907Y035372D01*
X037589Y034690D01*
X038251Y034690D01*
X035992Y036833D02*
X035978Y036847D01*
X035978Y040115D01*
X036899Y041035D01*
X040526Y041035D01*
X040704Y040857D01*
X041051Y040857D01*
X035978Y040115D02*
X030266Y040115D01*
X029930Y040115D01*
X028121Y041924D01*
X027451Y041924D01*
X026781Y041924D01*
X025681Y040824D01*
X021361Y040824D01*
X022071Y040045D02*
X021911Y039885D01*
X021911Y039824D01*
X021361Y039824D01*
X017251Y036624D02*
X016951Y036624D01*
X017251Y036624D02*
X017351Y036490D01*
X014072Y034553D02*
X014072Y033976D01*
X014072Y033058D01*
X014435Y033058D01*
X015004Y032490D01*
X015351Y032490D01*
X014751Y032424D02*
X014751Y032224D01*
X016451Y030524D01*
X016451Y029024D01*
X018151Y027324D01*
X018251Y027290D01*
X018251Y027124D01*
X018251Y025924D01*
X018351Y025759D01*
X017951Y025824D02*
X017951Y023324D01*
X018451Y022824D01*
X018451Y022224D01*
X017152Y022756D02*
X017017Y022621D01*
X017017Y022224D01*
X015551Y022623D02*
X015551Y022990D01*
X015204Y022990D01*
X015041Y023153D01*
X013427Y023153D01*
X012251Y022024D02*
X012251Y013524D01*
X013251Y012524D01*
X013251Y008024D01*
X016751Y004524D01*
X045251Y004524D01*
X045251Y006524D01*
X045251Y006578D01*
X044585Y006578D01*
X044585Y006924D01*
X044585Y007324D01*
X042451Y009459D01*
X041366Y008374D01*
X040821Y008374D01*
X037551Y007190D02*
X037551Y006823D01*
X037316Y006589D01*
X037199Y006589D01*
X036497Y007290D01*
X036151Y007290D01*
X035804Y007290D01*
X035804Y008240D01*
X036213Y008649D01*
X036274Y008649D01*
X037316Y006589D02*
X037316Y005824D01*
X033409Y009574D02*
X032547Y008712D01*
X031795Y008712D01*
X031795Y008424D01*
X031467Y008424D01*
X031417Y008374D01*
X030521Y008374D01*
X030521Y008124D02*
X030176Y008124D01*
X030176Y007874D01*
X030521Y007874D01*
X030176Y007874D02*
X029738Y007437D01*
X027241Y007437D01*
X021605Y013073D01*
X020790Y013073D01*
X020790Y013585D02*
X023825Y013585D01*
X028036Y009374D01*
X028036Y009124D01*
X028381Y009124D01*
X028381Y008874D02*
X028020Y008874D01*
X028020Y007757D01*
X028129Y007648D01*
X028627Y007648D01*
X029411Y008433D01*
X029411Y008600D01*
X028921Y008570D02*
X028726Y008374D01*
X028381Y008374D01*
X028921Y008570D02*
X028921Y016804D01*
X028921Y017724D01*
X028871Y017774D01*
X028181Y017774D01*
X028181Y018274D02*
X026984Y018274D01*
X026934Y018224D01*
X026606Y018224D01*
X026863Y017968D01*
X026863Y013715D01*
X026054Y016606D02*
X023288Y013841D01*
X020790Y013841D01*
X020790Y014096D02*
X022861Y014096D01*
X026316Y017552D01*
X025575Y018523D02*
X027834Y018523D01*
X027836Y018524D01*
X028181Y018524D01*
X028181Y018774D02*
X027836Y018774D01*
X027836Y018524D01*
X028871Y017774D02*
X028871Y021992D01*
X028871Y022735D01*
X029911Y023774D01*
X030461Y023774D01*
X029911Y023774D02*
X029911Y024829D01*
X029712Y025028D01*
X029712Y025611D01*
X029168Y025611D01*
X029168Y026058D01*
X028828Y026398D01*
X028730Y026398D01*
X028343Y026785D01*
X028343Y027757D01*
X028326Y027774D01*
X028609Y028058D01*
X028609Y029509D01*
X029288Y030187D01*
X029251Y030224D02*
X029251Y030224D01*
X030293Y029576D02*
X029575Y028859D01*
X029575Y028224D01*
X029776Y028024D01*
X030121Y028024D01*
X030121Y027774D02*
X031117Y027774D01*
X031267Y027624D01*
X031595Y027624D01*
X031595Y027135D01*
X031554Y027094D01*
X031829Y026838D02*
X032203Y026838D01*
X032940Y027574D01*
X032940Y028178D01*
X031542Y029576D01*
X031416Y029576D01*
X030365Y029576D01*
X030293Y029576D01*
X030365Y029576D02*
X030365Y030744D01*
X030187Y031444D02*
X030187Y031989D01*
X029780Y032395D01*
X029780Y035174D01*
X029155Y035800D01*
X029155Y038104D01*
X029576Y038524D01*
X029921Y038524D01*
X030266Y038524D01*
X030266Y040115D01*
X030623Y039570D02*
X030623Y039284D01*
X031495Y038412D01*
X031495Y038124D01*
X031495Y037812D02*
X031207Y037812D01*
X030745Y038274D01*
X029921Y038274D01*
X029921Y038024D02*
X029576Y038024D01*
X029576Y037774D01*
X029921Y037774D01*
X029576Y037774D02*
X029505Y037704D01*
X029505Y037250D01*
X030643Y037193D02*
X030825Y037375D01*
X030643Y037193D02*
X030643Y034514D01*
X031121Y034036D01*
X031121Y032824D01*
X030451Y032824D01*
X029656Y031889D02*
X029179Y032366D01*
X029179Y034653D01*
X028955Y034877D01*
X028955Y038523D01*
X029176Y038744D01*
X029545Y038744D01*
X029576Y038774D01*
X029921Y038774D01*
X029921Y039024D02*
X029576Y039024D01*
X029576Y039099D01*
X029017Y039099D01*
X028752Y038834D01*
X028752Y033690D01*
X028777Y033665D01*
X026516Y034719D02*
X026516Y037024D01*
X027436Y037944D01*
X027436Y038274D01*
X027781Y038274D01*
X029576Y039099D02*
X029576Y039274D01*
X029921Y039274D01*
X030623Y039570D02*
X030623Y039570D01*
X031495Y037812D02*
X031495Y037524D01*
X031495Y037237D01*
X031521Y037237D01*
X033494Y035264D01*
X033494Y030024D01*
X031523Y030178D02*
X031523Y035571D01*
X031216Y035878D01*
X031216Y036224D01*
X023849Y034490D02*
X023645Y034490D01*
X021911Y036224D01*
X021361Y036224D01*
X023972Y032480D02*
X023489Y031996D01*
X022990Y031996D01*
X022990Y031229D02*
X023498Y031229D01*
X024039Y030687D01*
X024039Y028911D01*
X024152Y028799D01*
X024152Y027360D01*
X023872Y027081D01*
X022427Y026258D02*
X022427Y023291D01*
X022011Y022875D01*
X022011Y019424D01*
X022561Y019424D01*
X022561Y018094D01*
X022929Y017726D01*
X025575Y018523D02*
X021404Y014352D01*
X020790Y014352D01*
X018561Y013841D02*
X018086Y013841D01*
X018079Y013841D01*
X017944Y013706D01*
X017597Y013359D01*
X017251Y013359D01*
X018086Y013470D02*
X018086Y013073D01*
X018086Y012817D01*
X017985Y012716D01*
X017985Y012690D01*
X017597Y012690D01*
X017251Y012690D01*
X016904Y012690D01*
X016904Y012706D01*
X016251Y013359D01*
X016276Y014190D02*
X017004Y014190D01*
X017351Y014190D01*
X017351Y014859D02*
X017004Y014859D01*
X017004Y014813D01*
X016851Y014660D01*
X017351Y014859D02*
X018081Y014859D01*
X018086Y014864D01*
X018561Y014864D01*
X018561Y015120D02*
X018086Y015120D01*
X018086Y014864D01*
X018201Y013585D02*
X018561Y013585D01*
X018201Y013585D02*
X018086Y013470D01*
X018086Y013073D02*
X018561Y013073D01*
X018561Y012817D02*
X018324Y012817D01*
X018086Y012817D01*
X017985Y012690D02*
X017985Y011324D01*
X019316Y011324D02*
X019316Y011901D01*
X019730Y011901D01*
X019316Y011907D02*
X019316Y011901D01*
X019316Y011907D02*
X019234Y011907D01*
X018324Y012817D01*
X019664Y012681D02*
X019754Y012591D01*
X019664Y012681D02*
X019664Y017571D01*
X019400Y017835D01*
X021311Y019746D01*
X021311Y023524D01*
X021157Y023678D01*
X021157Y025981D01*
X020251Y026524D02*
X019991Y026524D01*
X019991Y026824D01*
X019441Y026824D01*
X019991Y026524D02*
X019991Y023524D01*
X019441Y023524D01*
X019991Y023524D02*
X020062Y023453D01*
X020154Y023453D01*
X020691Y022916D01*
X020691Y019424D01*
X020141Y019424D01*
X019751Y019524D01*
X019751Y019024D01*
X019251Y018524D01*
X019400Y017835D02*
X017911Y019324D01*
X017361Y019324D01*
X017851Y020724D02*
X018851Y019724D01*
X018951Y019690D01*
X017851Y020724D02*
X017851Y020824D01*
X017151Y020824D01*
X015551Y019384D02*
X015551Y022623D01*
X015551Y019384D02*
X015491Y019324D01*
X015491Y017250D01*
X015251Y017024D01*
X013751Y015524D01*
X013751Y010524D01*
X019251Y010524D01*
X020251Y009524D01*
X020251Y008024D01*
X020244Y008138D01*
X020251Y008024D01*
X020251Y007524D01*
X020751Y007024D01*
X020244Y008138D02*
X020177Y008138D01*
X020091Y008224D01*
X019541Y008224D01*
X018417Y007758D02*
X018416Y007758D01*
X018416Y007430D01*
X018311Y007324D01*
X017761Y007324D01*
X016059Y007493D02*
X015891Y007324D01*
X015341Y007324D01*
X014051Y009024D02*
X013951Y009159D01*
X013851Y009324D01*
X013551Y009624D01*
X013551Y012524D01*
X012751Y013324D01*
X012751Y031024D01*
X013251Y031524D01*
X013527Y031529D01*
X014651Y031924D02*
X016251Y030324D01*
X016251Y027524D01*
X017951Y025824D01*
X021861Y026824D02*
X022427Y026258D01*
X026070Y026031D02*
X026070Y023481D01*
X026216Y023335D01*
X026454Y023335D01*
X026454Y022968D01*
X026665Y022968D01*
X027430Y022203D01*
X027430Y022097D01*
X027536Y021992D01*
X028871Y021992D01*
X030416Y020571D02*
X031416Y021571D01*
X031416Y026424D01*
X031829Y026838D01*
X031595Y028037D02*
X031595Y028037D01*
X032586Y028037D01*
X031595Y028037D02*
X031595Y028324D01*
X031267Y028324D01*
X031217Y028274D01*
X030121Y028274D01*
X030121Y028524D02*
X029776Y028524D01*
X029776Y028649D01*
X029900Y028774D01*
X030121Y028774D01*
X030490Y028774D01*
X030630Y028635D01*
X031416Y029576D02*
X031416Y029724D01*
X031416Y030071D01*
X031523Y030178D01*
X027981Y028774D02*
X027639Y028774D01*
X027636Y028774D01*
X027636Y028524D01*
X027981Y028524D01*
X027981Y028274D02*
X027284Y028274D01*
X027134Y028124D01*
X026806Y028124D01*
X026806Y027837D01*
X026717Y027748D01*
X026717Y027176D01*
X026216Y026524D02*
X026216Y026178D01*
X026070Y026031D01*
X028531Y025611D02*
X029251Y024891D01*
X029251Y024524D01*
X032085Y023471D02*
X032085Y021224D01*
X031568Y020707D01*
X031751Y020524D01*
X033251Y019024D01*
X033251Y018024D01*
X032751Y017524D01*
X031395Y017624D02*
X031395Y015819D01*
X031971Y015243D01*
X031971Y014003D01*
X031421Y012921D02*
X031421Y015224D01*
X030751Y015224D01*
X030751Y014224D02*
X030081Y014224D01*
X029888Y014032D01*
X029888Y010583D01*
X030114Y010356D01*
X029535Y009265D02*
X029535Y017583D01*
X029976Y018024D01*
X030321Y018024D01*
X030321Y017774D02*
X030917Y017774D01*
X031067Y017624D01*
X031395Y017624D01*
X030917Y018274D02*
X030321Y018274D01*
X030321Y018524D02*
X029976Y018524D01*
X029976Y018661D01*
X029976Y018984D01*
X029912Y019047D01*
X029976Y018774D02*
X029976Y018661D01*
X029976Y018774D02*
X030321Y018774D01*
X030917Y018274D02*
X031167Y018524D01*
X031495Y018524D01*
X031495Y019237D01*
X030416Y019878D02*
X030242Y019878D01*
X029562Y019197D01*
X029562Y018438D01*
X029976Y018024D01*
X029976Y017524D02*
X029976Y017274D01*
X030321Y017274D01*
X030321Y017524D02*
X029976Y017524D01*
X029976Y017274D02*
X029976Y016302D01*
X029885Y016211D01*
X030416Y019878D02*
X030416Y020224D01*
X030416Y020571D01*
X031085Y020224D02*
X031568Y020707D01*
X036651Y017590D02*
X036997Y017243D01*
X036997Y016424D01*
X036997Y016043D01*
X037116Y015924D01*
X036997Y016424D02*
X036951Y016424D01*
X038051Y017690D02*
X037489Y018251D01*
X037489Y018638D01*
X040823Y018415D02*
X040976Y018263D01*
X040976Y018224D01*
X041321Y018224D01*
X042155Y018224D01*
X042421Y018490D01*
X043051Y018490D01*
X043397Y018202D02*
X043397Y018812D01*
X043051Y019159D01*
X042704Y019159D01*
X042019Y018474D01*
X041321Y018474D01*
X043397Y018202D02*
X043397Y017537D01*
X042785Y016924D01*
X042951Y016824D01*
X043251Y016824D01*
X043351Y016724D01*
X043397Y018202D02*
X044818Y018202D01*
X047451Y020835D01*
X047451Y020924D01*
X047651Y016624D02*
X047751Y016524D01*
X047751Y010524D01*
X046951Y010524D01*
X046751Y010524D01*
X046951Y010524D01*
X047358Y010117D01*
X047358Y008150D01*
X047033Y007824D01*
X046849Y007824D01*
X046543Y007518D01*
X046543Y006578D01*
X045251Y006578D01*
X046543Y006578D02*
X046697Y006578D01*
X046951Y006324D01*
X033409Y009574D02*
X033409Y010615D01*
X030521Y008624D02*
X030176Y008624D01*
X029535Y009265D01*
X028381Y009374D02*
X028036Y009374D01*
X028020Y008874D02*
X027384Y008874D01*
X027334Y008924D01*
X027006Y008924D01*
X025133Y005602D02*
X022511Y008224D01*
X021961Y008224D01*
X022511Y008224D02*
X022511Y008692D01*
X022424Y008779D01*
X018251Y008990D02*
X018151Y009024D01*
X014051Y009024D01*
X012551Y011524D02*
X012751Y012024D01*
X010751Y014024D01*
X010751Y019524D01*
X013551Y019390D02*
X013651Y019524D01*
X014151Y019524D01*
X014941Y019324D02*
X015441Y019324D01*
X015491Y019324D01*
X015491Y017250D02*
X016051Y016691D01*
X016051Y016159D01*
X026216Y020424D02*
X026216Y022598D01*
X023451Y022598D01*
X021861Y023524D02*
X021311Y023524D01*
X026216Y023335D02*
X026216Y022598D01*
X028875Y026748D02*
X029402Y027274D01*
X029776Y027274D01*
X029776Y027524D01*
X030121Y027524D01*
X030121Y027274D02*
X029826Y027274D01*
X029776Y027274D01*
X028326Y027774D02*
X027981Y027774D01*
X027636Y028774D02*
X026638Y028774D01*
X026316Y029724D02*
X026316Y030071D01*
X026863Y030619D01*
X023465Y030973D02*
X023465Y029203D01*
X023465Y030973D02*
X022990Y030973D01*
X021142Y030717D02*
X020999Y030717D01*
X020761Y030717D01*
X015251Y029890D02*
X014904Y029890D01*
X014260Y029890D01*
X014135Y029890D01*
X014135Y026369D01*
X013872Y026106D01*
X013427Y026106D01*
X010751Y027024D02*
X010751Y028424D01*
X010751Y029524D01*
X010251Y030024D01*
X010180Y030053D01*
X013527Y030053D02*
X013972Y030053D01*
X014135Y029890D01*
X014651Y031924D02*
X014651Y032024D01*
X013751Y032024D01*
X013527Y032021D01*
X013751Y032424D02*
X013527Y032513D01*
X013751Y032424D02*
X014751Y032424D01*
X014072Y033058D02*
X014025Y033058D01*
X013972Y033006D01*
X013527Y033006D01*
X013627Y034553D02*
X014072Y034553D01*
X010951Y034524D02*
X010251Y034524D01*
X010280Y034553D01*
X010251Y034524D01*
X009651Y034524D01*
X009651Y033324D01*
X009951Y033024D01*
X010180Y033006D01*
X009651Y034524D02*
X008851Y034524D01*
X008751Y034524D01*
X008251Y035024D01*
X008151Y034890D01*
X036651Y028490D02*
X036651Y027123D01*
X036975Y026799D01*
X037651Y026799D01*
X037851Y026999D01*
X037851Y026959D01*
X037851Y026999D02*
X037951Y027099D01*
X037951Y028490D01*
X036975Y026799D02*
X036975Y025896D01*
X039125Y025896D02*
X041004Y027774D01*
X041075Y027774D01*
X041421Y027774D01*
X041075Y027774D02*
X041075Y028702D01*
X043251Y029159D02*
X043597Y029159D01*
X043597Y027653D01*
X043597Y027084D01*
X043485Y026971D01*
X043485Y026624D01*
X043597Y027653D02*
X043416Y027835D01*
X043416Y027937D01*
X051292Y034633D02*
X052601Y033324D01*
X053351Y034324D02*
X053351Y034378D01*
X051544Y034885D02*
X051292Y034633D01*
X051249Y034590D01*
X051151Y034590D01*
X052751Y040656D02*
X052751Y041824D01*
X049779Y040819D02*
X049623Y040974D01*
X049551Y040974D01*
X049551Y041624D01*
X048551Y041624D02*
X048551Y040816D01*
X059354Y040524D02*
X059566Y040524D01*
X061258Y040880D02*
X061566Y040880D01*
X064421Y036878D02*
X064421Y036824D01*
X064851Y036824D01*
X055751Y024334D02*
X055751Y023790D01*
X055900Y023640D01*
X055900Y023604D01*
X030851Y006024D02*
X030181Y006024D01*
X029759Y005602D01*
X025133Y005602D01*
D33*
X020751Y007024D03*
X020244Y008138D03*
X018417Y007758D03*
X016059Y007493D03*
X022424Y008779D03*
X026495Y009392D03*
X029411Y008600D03*
X031622Y009709D03*
X030114Y010356D03*
X030238Y012601D03*
X031421Y012921D03*
X031971Y014003D03*
X029885Y016211D03*
X028921Y016804D03*
X026316Y017552D03*
X025655Y017551D03*
X026054Y016606D03*
X022929Y017726D03*
X025780Y018873D03*
X022857Y019868D03*
X024187Y021877D03*
X026900Y022238D03*
X029541Y022500D03*
X026435Y024670D03*
X027541Y025618D03*
X028875Y026748D03*
X026717Y027176D03*
X025851Y028424D03*
X023872Y027081D03*
X023631Y026196D03*
X024251Y025824D03*
X021984Y025542D03*
X021157Y025981D03*
X020251Y026524D03*
X019748Y027263D03*
X022539Y028667D03*
X023412Y028331D03*
X027851Y030624D03*
X028951Y030524D03*
X030365Y030744D03*
X030187Y031444D03*
X029656Y031889D03*
X028114Y031766D03*
X026298Y031988D03*
X023972Y032480D03*
X023849Y034490D03*
X021597Y034790D03*
X020097Y034016D03*
X019592Y034021D03*
X019072Y034030D03*
X015651Y035824D03*
X016551Y036624D03*
X014232Y037414D03*
X019491Y038434D03*
X022071Y040045D03*
X026530Y038092D03*
X027075Y036258D03*
X026064Y035424D03*
X026419Y034622D03*
X028777Y033665D03*
X030246Y035317D03*
X030231Y036158D03*
X029505Y037250D03*
X030825Y037375D03*
X032389Y037166D03*
X029176Y038744D03*
X030623Y039570D03*
X036371Y038372D03*
X037162Y037687D03*
X037985Y038443D03*
X038560Y037712D03*
X039699Y037089D03*
X040732Y036844D03*
X040731Y037911D03*
X040629Y038535D03*
X041596Y038288D03*
X042221Y037317D03*
X043665Y037664D03*
X045848Y037314D03*
X046508Y039393D03*
X045855Y040425D03*
X043401Y039498D03*
X043350Y041527D03*
X040849Y041519D03*
X039527Y040684D03*
X037066Y039996D03*
X036907Y036119D03*
X037543Y035230D03*
X038111Y036233D03*
X038900Y035602D03*
X041890Y036118D03*
X039554Y032567D03*
X041753Y032305D03*
X042916Y031795D03*
X041050Y029585D03*
X041075Y028702D03*
X040626Y028346D03*
X042154Y027993D03*
X042658Y027996D03*
X043416Y027937D03*
X044613Y026318D03*
X041214Y025923D03*
X040751Y026436D03*
X040481Y025923D03*
X039648Y025868D03*
X038654Y026443D03*
X037344Y027289D03*
X038441Y028120D03*
X039064Y028686D03*
X035981Y028419D03*
X035052Y026443D03*
X035446Y025857D03*
X032057Y027188D03*
X031554Y027094D03*
X032586Y028037D03*
X030630Y028635D03*
X030448Y029226D03*
X033494Y030024D03*
X032251Y033524D03*
X017917Y030713D03*
X014260Y029890D03*
X016118Y026810D03*
X015002Y025524D03*
X014245Y024629D03*
X015153Y024284D03*
X017152Y022756D03*
X018451Y022224D03*
X019324Y020874D03*
X018113Y019735D03*
X017151Y020824D03*
X020336Y021976D03*
X020154Y023453D03*
X014151Y019524D03*
X012251Y022024D03*
X008497Y023774D03*
X007251Y024024D03*
X009266Y025756D03*
X019251Y018524D03*
X018798Y016325D03*
X017767Y015935D03*
X016851Y014660D03*
X017860Y013790D03*
X019754Y012591D03*
X019730Y011901D03*
X024457Y012310D03*
X026863Y013715D03*
X032751Y017524D03*
X032449Y018077D03*
X031495Y019237D03*
X029912Y019047D03*
X035381Y019288D03*
X036542Y019076D03*
X037489Y018638D03*
X040226Y017752D03*
X040823Y018415D03*
X040366Y018760D03*
X040900Y019621D03*
X042412Y017986D03*
X043351Y016724D03*
X044841Y018738D03*
X048986Y021786D03*
X049717Y021988D03*
X049290Y022676D03*
X049792Y023827D03*
X048788Y024557D03*
X053201Y024104D03*
X054528Y023218D03*
X055900Y023604D03*
X057767Y023616D03*
X058532Y022446D03*
X057879Y022293D03*
X054800Y020695D03*
X052702Y020782D03*
X052341Y017007D03*
X051451Y015545D03*
X050951Y013149D03*
X047843Y010048D03*
X045050Y009900D03*
X040459Y012286D03*
X038851Y010402D03*
X036648Y010259D03*
X034260Y010282D03*
X033759Y010250D03*
X033409Y010615D03*
X036274Y008649D03*
X038918Y006641D03*
X037962Y006321D03*
X040101Y005744D03*
X040481Y006389D03*
X044618Y006223D03*
X037785Y014508D03*
X036951Y016424D03*
X037669Y020708D03*
X034951Y022500D03*
X047990Y029231D03*
X054019Y025882D03*
X059756Y028911D03*
X061222Y029537D03*
X061827Y031533D03*
X063028Y033871D03*
X060506Y034757D03*
X060745Y035265D03*
X059321Y036420D03*
X060068Y037891D03*
X059244Y039320D03*
X057544Y039522D03*
X056442Y039535D03*
X052751Y040656D03*
X049779Y040819D03*
X048551Y040816D03*
X056427Y035307D03*
X056869Y033333D03*
X062551Y027481D03*
X061952Y026440D03*
X064350Y026324D03*
X061601Y024079D03*
X061443Y020846D03*
X061361Y020018D03*
X061730Y019650D03*
X063877Y020380D03*
X063451Y015141D03*
X060251Y015024D03*
X063077Y010617D03*
X062665Y008307D03*
X016051Y016691D03*
X014072Y033976D03*
D34*
X013527Y033498D02*
X013087Y033498D01*
X013087Y034945D01*
X013187Y035045D01*
X013627Y035045D01*
X014067Y035045D01*
X015351Y033762D01*
X015351Y033521D01*
X015351Y033521D01*
X015351Y033159D01*
X013915Y031776D02*
X013136Y031776D01*
X013087Y031826D01*
X013087Y033498D01*
X013187Y035045D02*
X013187Y037998D01*
X013627Y037998D01*
X015354Y037998D01*
X015985Y037366D01*
X015985Y037089D01*
X015985Y037024D01*
X015985Y036683D01*
X018077Y034590D01*
X018223Y034736D01*
X018223Y035078D01*
X018077Y034590D02*
X018077Y034590D01*
X018077Y033899D01*
X017860Y033682D01*
X017860Y033129D01*
X018227Y032761D01*
X018793Y032761D01*
X018821Y032790D01*
X018992Y032790D01*
X019274Y032508D01*
X020291Y032508D01*
X020761Y032508D01*
X020761Y032252D02*
X020291Y032252D01*
X020291Y032508D01*
X020761Y033276D02*
X021231Y033276D01*
X021231Y033671D01*
X020887Y034016D01*
X020097Y034016D01*
X019933Y034362D02*
X019592Y034021D01*
X019933Y034362D02*
X021028Y034362D01*
X022370Y033020D01*
X022990Y033020D01*
X022990Y032764D02*
X022520Y032764D01*
X022520Y032508D01*
X022565Y032508D01*
X022990Y032508D01*
X022990Y032252D02*
X023460Y032252D01*
X023460Y033614D01*
X024298Y034452D01*
X024298Y039027D01*
X024657Y039386D01*
X027329Y039386D01*
X027441Y039274D01*
X027781Y039274D01*
X027781Y039024D02*
X027441Y039024D01*
X027441Y039274D01*
X027781Y038774D02*
X026956Y038774D01*
X026906Y038824D01*
X026395Y038824D02*
X026395Y038227D01*
X026530Y038092D01*
X027781Y038024D02*
X027781Y037774D01*
X028121Y037598D02*
X028121Y038406D01*
X028002Y038524D01*
X027781Y038524D01*
X027781Y038774D02*
X028121Y038774D01*
X028301Y038594D01*
X028301Y033932D01*
X028252Y033883D01*
X028252Y031904D01*
X028114Y031766D01*
X027058Y032282D02*
X026780Y032561D01*
X026780Y036066D01*
X026730Y036116D01*
X026730Y036441D01*
X026972Y036683D01*
X027185Y036683D01*
X027185Y037024D01*
X027547Y037024D01*
X028121Y037598D01*
X027075Y036258D02*
X027075Y034200D01*
X027451Y033824D01*
X028432Y033808D02*
X028432Y033522D01*
X028482Y033472D01*
X028482Y029922D01*
X028321Y029761D01*
X028321Y028152D01*
X028193Y028024D01*
X027981Y028024D01*
X027641Y028024D01*
X027062Y027446D01*
X027062Y026524D01*
X026885Y026524D01*
X027062Y026524D02*
X027062Y026096D01*
X027541Y025618D01*
X026454Y024651D02*
X026435Y024670D01*
X026454Y024651D02*
X026454Y024004D01*
X026796Y024004D01*
X027496Y023304D01*
X027496Y023274D01*
X028041Y023274D01*
X028313Y023274D01*
X028586Y023274D01*
X029251Y023939D01*
X029251Y024524D01*
X029916Y023274D02*
X030461Y023274D01*
X029916Y023274D02*
X029916Y022774D01*
X030461Y022774D01*
X029916Y022774D02*
X029815Y022774D01*
X029541Y022500D01*
X027066Y022072D02*
X026900Y022238D01*
X027066Y022072D02*
X027066Y020424D01*
X026885Y020424D01*
X027066Y020424D02*
X027247Y020424D01*
X028521Y019151D01*
X028521Y018024D01*
X028181Y018024D01*
X027841Y018024D01*
X027841Y016830D01*
X028721Y015950D01*
X028721Y008725D01*
X028620Y008624D01*
X028381Y008624D01*
X028381Y008124D02*
X028381Y007874D01*
X026495Y008924D02*
X026495Y009392D01*
X030181Y009374D02*
X030181Y009124D01*
X030521Y009124D01*
X030521Y008874D02*
X031322Y008874D01*
X031472Y009024D01*
X031795Y009024D01*
X031795Y009537D01*
X031622Y009709D01*
X032306Y010028D02*
X032306Y009024D01*
X032306Y008424D02*
X032629Y008424D01*
X033070Y008866D01*
X033759Y009555D01*
X033759Y010250D01*
X034260Y010282D02*
X034260Y007961D01*
X036939Y005283D01*
X041316Y005283D01*
X041316Y005624D01*
X041316Y007219D01*
X041161Y007374D01*
X040821Y007374D01*
X040821Y007624D02*
X041677Y007624D01*
X041826Y007476D01*
X041826Y005784D01*
X041985Y005624D01*
X042451Y005456D02*
X042451Y007090D01*
X042451Y007759D02*
X042109Y007759D01*
X041826Y007476D01*
X041591Y007874D02*
X040821Y007874D01*
X040821Y008124D02*
X041443Y008124D01*
X042109Y008790D01*
X042451Y008790D01*
X041516Y009230D02*
X041161Y008874D01*
X040821Y008874D01*
X040821Y008624D02*
X040481Y008624D01*
X040481Y009769D01*
X040649Y009937D01*
X040649Y010688D01*
X040124Y011213D01*
X040124Y012446D01*
X040488Y012811D01*
X041206Y012811D01*
X041509Y012507D01*
X041509Y012401D01*
X042103Y011807D01*
X043322Y011807D01*
X043692Y011437D01*
X043692Y010559D01*
X043692Y010490D01*
X043351Y010490D01*
X042320Y010490D01*
X042185Y010624D01*
X041516Y010624D02*
X041516Y010966D01*
X041709Y011159D01*
X043351Y011159D01*
X043692Y010559D02*
X044551Y010559D01*
X044551Y011490D01*
X044551Y012159D02*
X046316Y012159D01*
X046951Y011524D01*
X047365Y011364D02*
X047031Y011029D01*
X046667Y011029D01*
X044604Y008966D01*
X043916Y008966D01*
X043916Y008624D01*
X044585Y008624D02*
X046651Y008624D01*
X046951Y008324D01*
X047843Y008217D02*
X046951Y007324D01*
X047843Y008217D02*
X047843Y010048D01*
X047365Y011364D02*
X047365Y012834D01*
X044316Y015883D01*
X044316Y016224D01*
X044316Y016566D01*
X048986Y021236D01*
X048986Y021786D01*
X049539Y022297D02*
X047990Y022297D01*
X047990Y029231D01*
X048951Y028834D02*
X048951Y028295D01*
X049290Y028295D01*
X049290Y022676D01*
X049575Y022333D02*
X049860Y022333D01*
X050004Y022190D01*
X051951Y022190D01*
X051951Y019615D01*
X052402Y019163D01*
X052402Y018624D01*
X052941Y018624D01*
X053480Y018624D01*
X053885Y019030D01*
X053885Y020524D01*
X053216Y020524D02*
X053216Y020782D01*
X053606Y021173D01*
X056442Y021173D01*
X056541Y021074D01*
X056881Y021074D01*
X056881Y021324D02*
X056836Y021369D01*
X053625Y021369D01*
X052792Y022202D01*
X052792Y024459D01*
X052451Y024459D01*
X052109Y024459D01*
X051449Y023799D01*
X050851Y023799D01*
X050585Y024065D01*
X050585Y024924D01*
X049916Y024924D02*
X049916Y025266D01*
X050877Y026227D01*
X056076Y026227D01*
X057222Y025081D01*
X057222Y022074D01*
X056881Y022074D01*
X056881Y022324D02*
X055865Y022324D01*
X055691Y022150D01*
X055251Y022150D01*
X054702Y022150D01*
X054528Y022324D01*
X054528Y023218D01*
X053951Y023590D02*
X053609Y023590D01*
X053609Y025105D01*
X054019Y025515D01*
X055751Y025515D01*
X054019Y025515D02*
X054019Y025882D01*
X053951Y024259D02*
X054291Y024259D01*
X055251Y023299D01*
X055251Y022898D01*
X055691Y022898D01*
X056015Y022574D01*
X056881Y022574D01*
X057222Y022074D02*
X057323Y022074D01*
X057647Y021750D01*
X057647Y016371D01*
X056951Y015674D01*
X056951Y013415D01*
X054951Y013098D02*
X054951Y014503D01*
X056122Y015674D01*
X056361Y015674D01*
X056951Y015674D01*
X061361Y015075D02*
X062745Y013691D01*
X063077Y013691D01*
X064166Y014757D02*
X064725Y015316D01*
X064945Y015316D01*
X065426Y015796D01*
X065426Y016000D01*
X065743Y016318D01*
X065948Y016318D01*
X066499Y016869D01*
X066499Y032176D01*
X065851Y032824D01*
X065351Y032713D02*
X064968Y032330D01*
X064736Y032330D01*
X064087Y031681D01*
X064087Y030880D01*
X063719Y030512D01*
X063553Y030512D01*
X063408Y030368D01*
X063408Y030091D01*
X063077Y030091D01*
X061827Y029626D02*
X061827Y031533D01*
X061429Y031979D02*
X059131Y034277D01*
X059131Y035868D01*
X059143Y035880D01*
X059436Y035880D01*
X059436Y035624D02*
X059738Y035624D01*
X059763Y035600D01*
X059763Y035369D01*
X060066Y035369D01*
X060066Y035624D02*
X060358Y035624D01*
X060368Y035614D01*
X060368Y034895D01*
X060506Y034757D01*
X060745Y035265D02*
X060745Y035643D01*
X059850Y036537D01*
X059438Y036537D01*
X059438Y037490D01*
X059428Y037500D01*
X059136Y037500D01*
X059136Y037244D02*
X058833Y037244D01*
X058833Y037656D01*
X059404Y038226D01*
X060220Y038226D01*
X060407Y038040D01*
X060407Y037317D01*
X060078Y036989D01*
X059766Y036989D01*
X059766Y037244D02*
X060058Y037244D01*
X060068Y037254D01*
X060068Y037891D01*
X059566Y038469D02*
X059263Y038469D01*
X059238Y038493D01*
X059238Y038724D01*
X058936Y038724D01*
X058936Y038980D02*
X059228Y038980D01*
X059228Y039304D01*
X059244Y039320D01*
X059566Y038724D02*
X059858Y038724D01*
X059878Y038744D01*
X059878Y040132D01*
X060626Y040880D01*
X060936Y040880D01*
X060936Y040624D02*
X060633Y040624D01*
X060633Y040227D01*
X060717Y040143D01*
X061340Y040143D01*
X061566Y040369D01*
X063051Y039191D02*
X063083Y039191D01*
X063382Y039191D01*
X064249Y038324D01*
X064953Y038324D01*
X065276Y038002D01*
X065276Y036762D01*
X065799Y036239D01*
X065851Y036239D01*
X065851Y035824D01*
X065799Y035688D02*
X065351Y035239D01*
X065351Y032713D01*
X064851Y032824D02*
X064016Y032824D01*
X063682Y033157D01*
X063351Y033157D01*
X063019Y033157D01*
X062417Y033759D01*
X060951Y033759D01*
X063028Y033871D02*
X063063Y033871D01*
X063367Y034175D01*
X063367Y035357D01*
X063682Y035357D01*
X064800Y034239D01*
X064851Y034239D01*
X064851Y033824D01*
X064851Y034824D02*
X064851Y035239D01*
X064799Y035239D01*
X064436Y035603D01*
X064436Y036504D01*
X063582Y037357D01*
X063251Y037357D01*
X062581Y037357D01*
X061682Y036459D01*
X061351Y036459D01*
X059438Y036537D02*
X059321Y036420D01*
X057766Y036969D02*
X057520Y036723D01*
X056939Y036723D01*
X056833Y036829D01*
X056833Y037224D01*
X057136Y037224D01*
X057136Y037480D02*
X056820Y037480D01*
X056427Y037088D01*
X056427Y035307D01*
X056351Y032124D02*
X056351Y030785D01*
X053861Y028295D01*
X049290Y028295D01*
X047351Y028124D02*
X045185Y025959D01*
X045185Y025824D01*
X044516Y025824D02*
X044516Y026221D01*
X044613Y026318D01*
X044613Y028257D01*
X047201Y030844D01*
X047339Y030844D01*
X047663Y031168D01*
X047663Y032494D01*
X045474Y034683D01*
X043216Y034683D01*
X043216Y035024D01*
X043885Y035024D02*
X044751Y035024D01*
X047151Y037424D01*
X045855Y039018D02*
X042674Y035838D01*
X042674Y034314D01*
X041793Y033433D01*
X038447Y033433D01*
X037735Y032720D01*
X037735Y031255D01*
X038133Y030856D01*
X038216Y030856D01*
X038216Y030524D01*
X038216Y029776D01*
X037951Y029511D01*
X037951Y029159D01*
X037951Y029511D02*
X038414Y029047D01*
X038414Y028634D01*
X038786Y028263D01*
X038786Y027939D01*
X038951Y027774D01*
X039281Y027774D01*
X039611Y027774D01*
X039621Y027764D01*
X039621Y027148D01*
X039497Y027024D01*
X039281Y027024D01*
X039281Y026774D02*
X039508Y026774D01*
X039811Y027077D01*
X039811Y028874D01*
X039541Y029144D01*
X039541Y031691D01*
X038775Y032457D01*
X038451Y032457D01*
X038077Y032775D02*
X038199Y032897D01*
X038736Y032897D01*
X039521Y032112D01*
X039955Y032112D01*
X040083Y031984D01*
X040083Y031691D01*
X040425Y031691D01*
X040425Y031175D01*
X040016Y030766D01*
X040016Y030424D01*
X040685Y030424D02*
X040685Y030083D01*
X040626Y030024D01*
X040626Y028346D01*
X041421Y028274D02*
X041616Y028470D01*
X041616Y029224D01*
X041616Y031159D01*
X041616Y031766D01*
X041592Y031790D01*
X041251Y031790D01*
X040838Y032112D02*
X040838Y031163D01*
X041050Y030950D01*
X041050Y029585D01*
X042285Y029566D02*
X042285Y029224D01*
X042285Y028674D01*
X041761Y028149D01*
X041761Y028024D01*
X041421Y028024D01*
X041421Y027524D02*
X041761Y027524D01*
X041761Y027599D01*
X042154Y027993D01*
X042651Y028490D01*
X043251Y028490D01*
X042658Y027996D02*
X042508Y027846D01*
X042508Y027274D01*
X042816Y026966D01*
X042816Y026624D01*
X042200Y026275D02*
X041901Y026574D01*
X041421Y026574D01*
X041421Y026774D01*
X041421Y026574D02*
X041377Y026574D01*
X040726Y025923D01*
X040481Y025923D01*
X040124Y025566D01*
X040016Y025566D01*
X040016Y025224D01*
X039746Y024870D02*
X041793Y024870D01*
X041851Y024928D01*
X041851Y025290D01*
X041042Y025923D02*
X040685Y025566D01*
X040685Y025224D01*
X041042Y025923D02*
X041214Y025923D01*
X041250Y025959D01*
X041851Y025959D01*
X042200Y026275D02*
X043767Y026275D01*
X044109Y026617D01*
X044109Y029190D01*
X044451Y029190D01*
X044451Y029859D02*
X043618Y029859D01*
X043251Y030226D01*
X042591Y029566D01*
X042285Y029566D01*
X043251Y030226D02*
X043251Y030490D01*
X043251Y031159D02*
X041616Y031159D01*
X041737Y032305D02*
X041582Y032459D01*
X041251Y032459D01*
X041737Y032305D02*
X041753Y032305D01*
X040838Y032112D02*
X040392Y032557D01*
X040051Y032557D01*
X039709Y032557D01*
X039699Y032567D01*
X039554Y032567D01*
X039541Y031691D02*
X039677Y031691D01*
X038843Y030866D02*
X038418Y031291D01*
X038418Y031591D01*
X038077Y031591D01*
X038077Y032775D01*
X037051Y031359D02*
X037392Y031017D01*
X037392Y027337D01*
X037344Y027289D01*
X038192Y026786D02*
X038192Y026290D01*
X037851Y026290D01*
X038654Y026443D02*
X038654Y026988D01*
X038941Y027274D01*
X039281Y027274D01*
X039281Y027524D02*
X038931Y027524D01*
X038192Y026786D01*
X038931Y027524D02*
X038441Y028015D01*
X038441Y028120D01*
X039064Y028569D02*
X039358Y028274D01*
X039621Y028274D01*
X039621Y028024D01*
X039281Y028024D01*
X039281Y028274D02*
X039358Y028274D01*
X039064Y028569D02*
X039064Y028686D01*
X041421Y027274D02*
X042508Y027274D01*
X041421Y027024D02*
X041081Y027024D01*
X041081Y026765D01*
X040751Y026436D01*
X039648Y025868D02*
X039648Y024969D01*
X039746Y024870D01*
X039351Y023357D02*
X037562Y023357D01*
X035381Y021177D01*
X035381Y019288D01*
X036309Y019310D02*
X036542Y019076D01*
X036309Y019310D02*
X036309Y020259D01*
X036651Y020259D01*
X037144Y020683D02*
X036835Y020993D01*
X036835Y022283D01*
X037209Y022657D01*
X037551Y022657D01*
X037892Y022657D01*
X038059Y022491D01*
X038977Y022491D01*
X039725Y022491D02*
X039725Y020958D01*
X039816Y020866D01*
X039816Y020524D01*
X039725Y020958D02*
X038611Y020958D01*
X038385Y020731D01*
X038385Y019724D01*
X037716Y019724D02*
X037716Y020056D01*
X037669Y020103D01*
X037669Y020708D01*
X037144Y020683D02*
X037144Y017975D01*
X037796Y017323D01*
X038689Y017323D01*
X038841Y017474D01*
X039181Y017474D01*
X039181Y017724D02*
X038851Y017724D01*
X038382Y018192D01*
X038382Y018359D01*
X038051Y018359D01*
X038051Y019058D01*
X037716Y019393D01*
X037716Y019724D01*
X036895Y019345D02*
X036895Y018865D01*
X036651Y018621D01*
X036651Y018259D01*
X036651Y018214D01*
X037737Y017127D01*
X039321Y017127D01*
X039521Y017326D01*
X039521Y017830D01*
X039376Y017974D01*
X039181Y017974D01*
X039181Y018224D02*
X039521Y018224D01*
X039701Y018044D01*
X039701Y017251D01*
X038374Y015924D01*
X037785Y015924D01*
X037785Y014508D01*
X038736Y014155D02*
X035093Y014155D01*
X031906Y017342D01*
X031906Y017624D01*
X032006Y018242D02*
X032284Y018242D01*
X032449Y018077D01*
X032006Y018242D02*
X032006Y018524D01*
X028181Y017524D02*
X028181Y017274D01*
X026095Y017952D02*
X026055Y017952D01*
X025655Y017551D01*
X026095Y017952D02*
X026095Y018224D01*
X025780Y018873D02*
X025649Y018873D01*
X021384Y014608D01*
X020790Y014608D01*
X020790Y014864D02*
X020320Y014864D01*
X020320Y012817D01*
X020688Y012817D01*
X020688Y012817D01*
X020790Y012817D01*
X020688Y012817D02*
X020688Y012369D01*
X019985Y011666D01*
X019985Y011324D01*
X019985Y010983D01*
X017316Y010983D01*
X017316Y011324D01*
X016954Y011324D01*
X015909Y012370D01*
X015909Y012690D01*
X016251Y012690D01*
X015909Y012690D02*
X014549Y014049D01*
X014351Y014049D01*
X014351Y014424D01*
X014351Y015024D02*
X014811Y015024D01*
X015310Y015024D01*
X015809Y014525D01*
X015809Y014190D01*
X016151Y014190D01*
X016276Y014190D01*
X016151Y014859D02*
X016492Y014859D01*
X016854Y015221D01*
X017748Y015221D01*
X017903Y015376D01*
X018561Y015376D01*
X018561Y015632D02*
X018091Y015632D01*
X018091Y015771D01*
X018112Y015792D01*
X018112Y016078D01*
X017910Y016280D01*
X017613Y016280D01*
X017592Y016259D01*
X017443Y016259D01*
X017251Y016259D01*
X017443Y016259D02*
X016099Y017603D01*
X016099Y024001D01*
X015471Y024629D01*
X014245Y024629D01*
X013427Y024629D01*
X013427Y024137D02*
X015153Y024137D01*
X015700Y024137D01*
X015892Y023944D01*
X015892Y017533D01*
X016854Y016572D01*
X016854Y015221D01*
X017251Y015590D02*
X017592Y015590D01*
X017592Y015760D01*
X017767Y015935D01*
X018798Y016325D02*
X019031Y016092D01*
X019031Y014608D01*
X018561Y014608D01*
X018091Y014608D01*
X018091Y014352D01*
X017855Y014352D01*
X017692Y014190D01*
X017351Y014190D01*
X017860Y013790D02*
X017944Y013706D01*
X018091Y014352D02*
X018561Y014352D01*
X018561Y014096D02*
X019031Y014096D01*
X019031Y013329D01*
X018561Y013329D01*
X019031Y013329D02*
X019031Y012824D01*
X019609Y012246D01*
X019897Y012246D01*
X020320Y012669D01*
X020320Y012817D01*
X020790Y013329D02*
X023438Y013329D01*
X024457Y012310D01*
X021261Y014864D02*
X023655Y017258D01*
X023655Y021245D01*
X023451Y021449D01*
X023451Y021650D01*
X023451Y021850D01*
X024160Y021850D01*
X024187Y021877D01*
X023451Y021650D02*
X023010Y022090D01*
X023010Y027442D01*
X023757Y028188D01*
X023757Y028635D01*
X022990Y029402D01*
X022990Y030717D01*
X022520Y030717D01*
X021985Y030717D01*
X021985Y029024D01*
X022905Y027824D02*
X023412Y028331D01*
X022905Y027824D02*
X022406Y027824D01*
X021861Y027824D01*
X022379Y027308D02*
X021285Y027308D01*
X018690Y029904D01*
X016994Y029904D01*
X016709Y030189D01*
X016709Y035290D01*
X015316Y036683D01*
X015155Y036521D01*
X013627Y036521D01*
X015316Y036683D02*
X015316Y037024D01*
X017351Y037159D02*
X018330Y037159D01*
X018396Y037224D01*
X018941Y037224D01*
X021361Y037224D02*
X021906Y037224D01*
X025201Y040519D01*
X026380Y040519D01*
X026786Y040924D01*
X027451Y040924D01*
X028116Y040924D01*
X028482Y040558D01*
X028482Y033858D01*
X028432Y033808D01*
X030231Y035331D02*
X030246Y035317D01*
X030231Y035331D02*
X030231Y036158D01*
X032006Y037242D02*
X032006Y037524D01*
X032006Y037242D02*
X032313Y037242D01*
X032389Y037166D01*
X032006Y038124D02*
X035807Y034323D01*
X039657Y034323D01*
X039916Y034583D01*
X039916Y034924D01*
X039916Y034583D02*
X040170Y034328D01*
X042409Y034328D01*
X042492Y034412D01*
X042492Y036374D01*
X042404Y036463D01*
X041747Y036463D01*
X041658Y036374D01*
X041221Y036374D01*
X041221Y036624D02*
X041008Y036624D01*
X040878Y036494D01*
X040878Y034924D01*
X040585Y034924D01*
X040878Y034924D02*
X041916Y034924D01*
X042151Y034690D01*
X042151Y035359D02*
X042151Y035858D01*
X041890Y036118D01*
X042492Y036374D02*
X042956Y036374D01*
X044251Y037669D01*
X044251Y038190D01*
X044251Y038859D02*
X044251Y039221D01*
X044194Y039277D01*
X044194Y039624D01*
X044359Y039790D01*
X044451Y039790D01*
X044792Y039790D01*
X044792Y040777D01*
X044287Y041283D01*
X044116Y041283D01*
X044116Y041624D01*
X044785Y041624D02*
X045951Y041624D01*
X047151Y040424D01*
X047151Y041424D02*
X046351Y042224D01*
X041585Y042224D01*
X040916Y042224D02*
X040916Y041586D01*
X040849Y041519D01*
X039527Y040684D02*
X038993Y040684D01*
X038648Y040339D01*
X038648Y039957D01*
X038893Y039712D01*
X039033Y039712D01*
X039155Y039590D01*
X039155Y038547D01*
X039435Y038268D01*
X039435Y037512D01*
X039297Y037374D01*
X039081Y037374D01*
X039081Y037624D02*
X039081Y037874D01*
X038722Y037874D01*
X038560Y037712D01*
X037751Y037798D02*
X037751Y038189D01*
X037707Y038233D01*
X037491Y038449D01*
X037491Y039224D01*
X037316Y039224D01*
X037491Y039224D02*
X037491Y039356D01*
X038092Y039957D01*
X038648Y039957D01*
X039151Y040157D02*
X039492Y040157D01*
X039659Y039991D01*
X040058Y039991D01*
X040058Y036960D01*
X039472Y036374D01*
X039081Y036374D01*
X039081Y036624D02*
X038751Y036624D01*
X038740Y036614D01*
X038740Y035762D01*
X038900Y035602D01*
X039081Y036874D02*
X039484Y036874D01*
X039699Y037089D01*
X040732Y036844D02*
X040881Y036992D01*
X040881Y037124D01*
X041221Y037124D01*
X041538Y037124D01*
X042403Y037990D01*
X042851Y037990D01*
X042216Y038420D02*
X041670Y037874D01*
X041221Y037874D01*
X041221Y037624D02*
X040881Y037624D01*
X040731Y037774D01*
X040731Y037911D01*
X040629Y038535D02*
X040716Y038622D01*
X040716Y039024D01*
X041083Y039391D01*
X041083Y039991D01*
X041425Y039991D01*
X040677Y039991D02*
X040058Y039991D01*
X038777Y039291D02*
X038435Y039291D01*
X038368Y039224D01*
X037985Y039224D01*
X037985Y038443D01*
X037707Y038233D02*
X037162Y037687D01*
X036451Y037859D02*
X036451Y038221D01*
X036551Y038321D01*
X036551Y039390D01*
X036551Y040059D02*
X037003Y040059D01*
X037066Y039996D01*
X036371Y038372D02*
X036451Y038293D01*
X036451Y038221D01*
X041385Y038498D02*
X041596Y038288D01*
X041385Y038498D02*
X041385Y039024D01*
X042216Y039624D02*
X042216Y038420D01*
X042221Y037317D02*
X042221Y037020D01*
X042026Y036824D01*
X041976Y036874D01*
X041221Y036874D01*
X042026Y036824D02*
X042116Y036824D01*
X042854Y035738D02*
X042854Y032928D01*
X042916Y032866D01*
X042916Y032524D01*
X042916Y031795D01*
X043585Y032524D02*
X047051Y032524D01*
X047251Y032324D01*
X047251Y031324D02*
X046951Y031024D01*
X045185Y031024D01*
X044516Y031024D02*
X044516Y030286D01*
X044451Y030221D01*
X044451Y029859D01*
X038885Y030524D02*
X038885Y030866D01*
X038843Y030866D01*
X037051Y030690D02*
X036709Y030690D01*
X036709Y029579D01*
X036651Y029521D01*
X036651Y029159D01*
X036215Y029159D01*
X035052Y027996D01*
X035052Y026443D01*
X035446Y025857D02*
X035981Y026392D01*
X035981Y028419D01*
X032106Y028324D02*
X032106Y028607D01*
X031488Y029226D01*
X030448Y029226D01*
X028321Y029761D02*
X027058Y029761D01*
X027058Y032282D01*
X026298Y031988D02*
X026143Y031833D01*
X026143Y030998D01*
X025505Y030359D01*
X024670Y030359D01*
X024416Y030105D01*
X024416Y029744D01*
X024670Y029489D01*
X025543Y029489D01*
X026295Y028738D01*
X026295Y028124D01*
X027641Y027524D02*
X027641Y027274D01*
X027981Y027274D01*
X027981Y027524D02*
X027641Y027524D01*
X026985Y029724D02*
X027022Y029761D01*
X027058Y029761D01*
X022830Y026857D02*
X022379Y027308D01*
X022309Y027111D02*
X019900Y027111D01*
X019748Y027263D01*
X019441Y027824D02*
X018896Y027824D01*
X018761Y027959D01*
X018251Y027959D01*
X016562Y026865D02*
X016117Y027310D01*
X015516Y026709D01*
X015516Y026566D01*
X015516Y026224D01*
X016185Y026224D02*
X016185Y025883D01*
X014136Y025883D01*
X013867Y025613D01*
X013427Y025613D01*
X013427Y025121D02*
X015051Y025121D01*
X015154Y025224D01*
X015516Y025224D01*
X015154Y025224D02*
X015154Y025372D01*
X015002Y025524D01*
X016185Y025566D02*
X016185Y025224D01*
X016185Y024883D01*
X016527Y024541D01*
X016527Y018597D01*
X018798Y016325D01*
X020790Y015376D02*
X021260Y015376D01*
X023274Y017390D01*
X023274Y020879D01*
X022650Y021502D01*
X022650Y026770D01*
X022309Y027111D01*
X022830Y026857D02*
X022830Y021704D01*
X023454Y021081D01*
X023454Y017314D01*
X021260Y015120D01*
X020790Y015120D01*
X020790Y014864D02*
X021261Y014864D01*
X016051Y015490D02*
X015709Y015490D01*
X015709Y015423D01*
X015310Y015024D01*
X010109Y017597D02*
X005382Y022323D01*
X005382Y024782D01*
X007215Y024782D01*
X007772Y024224D01*
X008095Y024224D01*
X007772Y024224D02*
X007772Y023929D01*
X008095Y023607D01*
X008095Y023324D01*
X008095Y023284D01*
X008095Y023042D01*
X009037Y023042D01*
X009640Y023645D01*
X010080Y023645D01*
X010080Y024137D02*
X009136Y024137D01*
X008606Y023607D01*
X008606Y023324D01*
X008606Y023607D02*
X008497Y023717D01*
X008497Y023774D01*
X008606Y024224D02*
X008606Y024507D01*
X007915Y024507D01*
X006896Y025527D01*
X006896Y026324D01*
X006151Y026324D01*
X006151Y027324D02*
X006896Y027324D01*
X007738Y026482D01*
X007738Y024939D01*
X007936Y024742D01*
X008706Y024742D01*
X008706Y024904D01*
X008706Y025024D01*
X008706Y024904D02*
X009423Y024904D01*
X009640Y025121D01*
X010080Y025121D01*
X010080Y024629D02*
X009640Y024629D01*
X009518Y024507D01*
X008606Y024507D01*
X008195Y025024D02*
X008195Y025724D01*
X008195Y026204D01*
X008116Y026283D01*
X008116Y026624D01*
X008116Y026966D01*
X009640Y026966D01*
X009640Y030445D01*
X009740Y030545D01*
X010180Y030545D01*
X010621Y030545D01*
X010621Y032764D01*
X010621Y033498D01*
X010180Y033498D01*
X010621Y032764D02*
X009664Y032764D01*
X007819Y034610D01*
X007819Y035227D01*
X008151Y035559D01*
X008492Y035559D01*
X009007Y035045D01*
X010280Y035045D01*
X010721Y035045D01*
X010721Y037660D01*
X010384Y037998D01*
X010280Y037998D01*
X009840Y037136D02*
X009840Y037013D01*
X010280Y037013D01*
X009840Y037136D02*
X009063Y037913D01*
X007885Y037913D01*
X006896Y036924D01*
X006151Y036924D01*
X005639Y036369D02*
X007323Y036369D01*
X008295Y037342D01*
X008295Y037624D01*
X008806Y037624D02*
X008806Y037342D01*
X009020Y037342D01*
X009840Y036521D01*
X010280Y036521D01*
X010280Y036029D02*
X007997Y036029D01*
X006896Y034928D01*
X006896Y032924D01*
X006151Y032924D01*
X006896Y031924D02*
X007485Y032513D01*
X010180Y032513D01*
X010180Y032021D02*
X008592Y032021D01*
X006896Y030324D01*
X006151Y030324D01*
X006151Y029324D02*
X006896Y029324D01*
X009100Y031529D01*
X010180Y031529D01*
X010621Y030545D02*
X011651Y029515D01*
X011651Y028959D01*
X013087Y030545D02*
X013087Y026598D01*
X012987Y026498D01*
X012987Y023645D01*
X013427Y023645D01*
X015194Y023645D01*
X015209Y023659D01*
X015551Y023659D01*
X015153Y024137D02*
X015153Y024284D01*
X016185Y025566D02*
X016562Y025943D01*
X016562Y026865D01*
X016185Y026743D02*
X016185Y026224D01*
X016185Y026743D02*
X016118Y026810D01*
X016117Y027310D02*
X015808Y027619D01*
X015808Y030344D01*
X015592Y030559D01*
X015251Y030559D01*
X013967Y030559D01*
X013967Y031724D01*
X013915Y031776D01*
X013967Y030559D02*
X013967Y030545D01*
X013527Y030545D01*
X013087Y030545D01*
X017251Y030959D02*
X017251Y032090D01*
X017592Y032090D01*
X017686Y031996D01*
X020761Y031996D01*
X021231Y031996D01*
X021231Y031229D01*
X020761Y031229D01*
X021231Y031229D02*
X021473Y031229D01*
X021985Y030717D01*
X022520Y030717D02*
X022520Y032508D01*
X022520Y033276D02*
X022990Y033276D01*
X022520Y033276D02*
X022520Y033867D01*
X021597Y034790D01*
X020761Y033532D02*
X020291Y033532D01*
X019571Y033532D01*
X019072Y034030D01*
X018227Y032761D02*
X018202Y032736D01*
X018263Y031059D02*
X017917Y030713D01*
X018263Y031059D02*
X018751Y031059D01*
X018876Y031059D01*
X013427Y026598D02*
X013087Y026598D01*
X010080Y026598D02*
X009640Y026598D01*
X009640Y026966D01*
X008116Y026966D02*
X007286Y027796D01*
X005691Y027796D01*
X005389Y028099D01*
X005389Y036119D01*
X005639Y036369D01*
X006151Y035924D02*
X007389Y035924D01*
X008806Y037342D01*
X017351Y040459D02*
X018030Y040459D01*
X018396Y040824D01*
X018941Y040824D01*
X006896Y031924D02*
X006151Y031924D01*
X005691Y027796D02*
X005382Y027487D01*
X005382Y024782D01*
X008706Y025724D02*
X009029Y025724D01*
X009234Y025724D01*
X009266Y025756D01*
X009498Y025756D01*
X009640Y025613D01*
X010080Y025613D01*
X017461Y022133D02*
X017461Y021565D01*
X018152Y020874D01*
X019324Y020874D01*
X019596Y020424D02*
X019530Y020359D01*
X018951Y020359D01*
X019596Y020424D02*
X020141Y020424D01*
X020210Y021850D02*
X018304Y021850D01*
X017884Y021850D01*
X017884Y022257D02*
X017584Y022257D01*
X017461Y022133D01*
X017884Y022257D02*
X017884Y022598D01*
X020210Y021850D02*
X020336Y021976D01*
X022561Y020424D02*
X022561Y020165D01*
X022857Y019868D01*
X018113Y019735D02*
X018113Y020117D01*
X017906Y020324D01*
X017361Y020324D01*
X014941Y020324D02*
X014396Y020324D01*
X014130Y020059D01*
X013551Y020059D01*
X010109Y017597D02*
X010109Y011524D01*
X010551Y011524D01*
X013951Y008490D02*
X014630Y008490D01*
X014796Y008324D01*
X015341Y008324D01*
X017761Y008324D02*
X018685Y008324D01*
X021985Y005024D01*
X027851Y005024D01*
X027851Y006024D02*
X025706Y006024D01*
X022506Y009224D01*
X021961Y009224D01*
X019541Y009224D02*
X018996Y009224D01*
X018592Y009627D01*
X018592Y009659D01*
X018251Y009659D01*
X030181Y009579D02*
X030181Y009374D01*
X030521Y009374D01*
X030181Y009579D02*
X030485Y009884D01*
X030485Y012353D01*
X030238Y012601D01*
X032306Y010028D02*
X033246Y010967D01*
X033575Y010967D01*
X034260Y010282D01*
X035580Y010307D02*
X035580Y006917D01*
X037015Y005483D01*
X037985Y005483D01*
X037985Y005824D01*
X037985Y006298D01*
X037962Y006321D01*
X038324Y007235D02*
X038918Y006641D01*
X039021Y007374D02*
X039221Y007575D01*
X039221Y010826D01*
X038977Y011071D01*
X038977Y011491D01*
X038635Y011491D01*
X038635Y011815D01*
X037992Y012457D01*
X037651Y012457D01*
X037277Y012764D02*
X037277Y011591D01*
X037618Y011591D01*
X037618Y010633D01*
X038085Y010166D01*
X038085Y009824D01*
X037416Y009824D02*
X037416Y009309D01*
X038351Y008374D01*
X038681Y008374D01*
X039011Y008374D01*
X039021Y008364D01*
X039021Y007634D01*
X039011Y007624D01*
X038681Y007624D01*
X038324Y007624D01*
X038117Y007624D01*
X037882Y007859D01*
X037551Y007859D01*
X037689Y008416D02*
X038231Y007874D01*
X038681Y007874D01*
X038681Y008124D02*
X038341Y008124D01*
X037063Y009402D01*
X037063Y010337D01*
X036780Y010621D01*
X035894Y010621D01*
X035580Y010307D01*
X036151Y010259D02*
X036648Y010259D01*
X036780Y010621D02*
X036780Y012530D01*
X037332Y013083D01*
X038283Y013083D01*
X039009Y012357D01*
X039351Y012357D01*
X039291Y011912D02*
X038978Y011912D01*
X038002Y012889D01*
X037401Y012889D01*
X037277Y012764D01*
X038736Y014155D02*
X039801Y015221D01*
X039854Y015168D01*
X042528Y015168D01*
X042751Y015390D01*
X042751Y016059D02*
X041661Y016059D01*
X041420Y016059D01*
X040885Y015524D01*
X040216Y015524D02*
X040216Y017465D01*
X040226Y017474D01*
X040226Y017752D01*
X040226Y017474D02*
X041321Y017474D01*
X041321Y017724D02*
X041533Y017724D01*
X041661Y017597D01*
X041661Y016059D01*
X042116Y016924D02*
X042116Y017690D01*
X042412Y017986D01*
X041661Y018724D02*
X042185Y019249D01*
X042185Y020024D01*
X042547Y020024D01*
X042547Y020024D01*
X042597Y020024D01*
X043151Y020578D01*
X043151Y020750D01*
X043151Y020578D02*
X044351Y020578D01*
X044501Y020728D01*
X044651Y020728D01*
X044651Y021090D01*
X044651Y021759D02*
X044982Y021759D01*
X045148Y021924D01*
X047451Y021924D01*
X047873Y022190D02*
X047580Y022483D01*
X042458Y022483D01*
X042116Y022824D01*
X042785Y022824D02*
X043147Y022824D01*
X043247Y022924D01*
X047451Y022924D01*
X047990Y022297D02*
X047883Y022190D01*
X047873Y022190D01*
X047873Y020687D01*
X043550Y016364D01*
X043550Y013858D01*
X042116Y012424D01*
X042785Y012424D02*
X043147Y012424D01*
X043247Y012524D01*
X046951Y012524D01*
X043692Y010559D02*
X043692Y010559D01*
X044551Y009890D02*
X044892Y009890D01*
X044902Y009900D01*
X045050Y009900D01*
X043062Y008121D02*
X041838Y008121D01*
X041591Y007874D01*
X040821Y008124D02*
X040481Y008124D01*
X040481Y006389D01*
X040101Y005744D02*
X040101Y010040D01*
X040285Y010224D01*
X039616Y010224D02*
X039616Y011071D01*
X039725Y011071D01*
X039725Y011491D01*
X039616Y011587D02*
X039291Y011912D01*
X039616Y011587D02*
X039616Y011071D01*
X038851Y010402D02*
X038851Y008874D01*
X038893Y008874D01*
X039021Y008747D01*
X039021Y008624D01*
X038681Y008624D01*
X038681Y008874D02*
X038851Y008874D01*
X037689Y008416D02*
X036949Y008416D01*
X036949Y009133D01*
X036492Y009590D01*
X036151Y009590D01*
X036949Y008416D02*
X036492Y007959D01*
X036151Y007959D01*
X038324Y007624D02*
X038324Y007235D01*
X038681Y007374D02*
X039021Y007374D01*
X041516Y009230D02*
X041516Y010624D01*
X040951Y011190D01*
X040951Y011790D01*
X040951Y012459D02*
X040619Y012459D01*
X040619Y012446D01*
X040459Y012286D01*
X039801Y015221D02*
X039801Y017070D01*
X039881Y017149D01*
X039881Y018364D01*
X039521Y018724D01*
X039181Y018724D01*
X039181Y018474D02*
X038498Y018474D01*
X038382Y018359D01*
X039521Y018724D02*
X039521Y018974D01*
X039181Y018974D01*
X040366Y018760D02*
X040478Y018760D01*
X040485Y018767D01*
X040485Y020524D01*
X040900Y020855D02*
X040900Y019621D01*
X041516Y020024D02*
X041516Y019170D01*
X041321Y018974D01*
X041321Y018724D02*
X041661Y018724D01*
X041321Y017974D02*
X040776Y017974D01*
X040478Y018272D01*
X040478Y018760D01*
X041516Y020024D02*
X041516Y021498D01*
X041192Y021822D01*
X041192Y021990D01*
X040851Y021990D01*
X040851Y022659D02*
X040519Y022659D01*
X040509Y022649D01*
X040509Y021247D01*
X040900Y020855D01*
X041516Y021498D02*
X043151Y021498D01*
X044351Y020578D02*
X044351Y019259D01*
X044351Y018590D02*
X044692Y018590D01*
X044841Y018738D01*
X045347Y016321D02*
X047651Y018624D01*
X045347Y016321D02*
X045347Y016224D01*
X044985Y016224D01*
X038385Y020731D02*
X038302Y020731D01*
X037518Y021514D01*
X037518Y021791D01*
X037177Y021791D01*
X034951Y022500D02*
X034951Y023050D01*
X034510Y023050D01*
X034294Y022834D01*
X032951Y022834D01*
X036651Y019590D02*
X036895Y019345D01*
X032057Y027188D02*
X032057Y027292D01*
X032106Y027342D01*
X032106Y027624D01*
X021984Y025542D02*
X021861Y025418D01*
X021861Y024524D01*
X019441Y024524D02*
X018896Y024524D01*
X018896Y024887D01*
X018692Y025090D01*
X018351Y025090D01*
X042216Y039624D02*
X042216Y039966D01*
X042509Y040259D01*
X042509Y041190D01*
X042851Y041190D01*
X043378Y041190D01*
X044109Y040459D01*
X044451Y040459D01*
X044194Y039624D02*
X043401Y039624D01*
X043401Y039498D01*
X043401Y039624D02*
X042885Y039624D01*
X043350Y041527D02*
X043182Y041694D01*
X043182Y041859D01*
X042851Y041859D01*
X045855Y040425D02*
X045855Y039018D01*
X046508Y039393D02*
X042854Y035738D01*
X056442Y039535D02*
X056442Y040379D01*
X056743Y040680D01*
X057036Y040680D01*
X057036Y040424D02*
X057338Y040424D01*
X057338Y040193D01*
X057363Y040169D01*
X057666Y040169D01*
X057666Y040424D02*
X058278Y040424D01*
X058634Y040780D01*
X058936Y040780D01*
X058936Y040524D02*
X058633Y040524D01*
X058633Y040129D01*
X058739Y040023D01*
X059320Y040023D01*
X059566Y040269D01*
X057544Y039522D02*
X057528Y039506D01*
X057528Y039180D01*
X057236Y039180D01*
X057236Y038924D02*
X057538Y038924D01*
X057538Y038693D01*
X057563Y038669D01*
X057866Y038669D01*
X061251Y038659D02*
X062550Y038659D01*
X063083Y039191D01*
X065799Y036239D02*
X065799Y035688D01*
X063367Y035357D02*
X063351Y035357D01*
X061429Y031979D02*
X061429Y029743D01*
X061222Y029537D01*
X060851Y029695D02*
X060851Y030234D01*
X060851Y029695D02*
X058551Y029695D01*
X058551Y028312D01*
X058041Y027803D01*
X058041Y027224D01*
X059756Y025605D02*
X059756Y028911D01*
X061017Y028815D02*
X061827Y029626D01*
X061017Y028815D02*
X061017Y027402D01*
X061029Y027390D01*
X061361Y027390D01*
X061361Y027038D01*
X061098Y026776D01*
X061098Y020280D01*
X061361Y020018D01*
X061361Y015075D01*
X064166Y014757D02*
X064166Y012078D01*
X063701Y011612D01*
X063547Y011612D01*
X063077Y011141D01*
X063077Y011191D01*
X063077Y011141D02*
X063077Y010617D01*
X063119Y008691D02*
X063451Y008691D01*
X063119Y008691D02*
X062734Y008307D01*
X062665Y008307D01*
X044618Y006223D02*
X044258Y006583D01*
X043916Y006583D01*
X043916Y006924D01*
X043916Y007266D01*
X043062Y008121D01*
X042451Y005456D02*
X042097Y005102D01*
X036834Y005102D01*
X033070Y008866D01*
X052702Y020782D02*
X053216Y020782D01*
X053316Y022324D02*
X053316Y023590D01*
X053609Y023590D01*
X053316Y023590D02*
X053316Y023989D01*
X053201Y024104D01*
X052451Y023790D02*
X052451Y023017D01*
X052292Y022859D01*
X051951Y022859D01*
X050851Y022650D02*
X050410Y022650D01*
X049792Y023269D01*
X049792Y023827D01*
X050851Y023799D02*
X050851Y023398D01*
X049575Y022333D02*
X049539Y022297D01*
X053985Y022324D02*
X054528Y022324D01*
X054954Y020824D02*
X054825Y020695D01*
X054800Y020695D01*
X054954Y020824D02*
X055316Y020824D01*
X057879Y022293D02*
X058098Y022074D01*
X059021Y022074D01*
X059021Y022324D02*
X058681Y022324D01*
X058681Y022446D01*
X058532Y022446D01*
X058681Y022446D02*
X058681Y022574D01*
X059021Y022574D01*
X057767Y023616D02*
X059756Y025605D01*
X062551Y027481D02*
X062551Y021385D01*
X062845Y021091D01*
X063177Y021091D01*
X059361Y021074D02*
X059361Y021324D01*
X059021Y021324D01*
X059021Y021074D02*
X059361Y021074D01*
X063451Y024457D02*
X063782Y024457D01*
X064350Y025025D01*
X064350Y026324D01*
X064965Y026324D01*
X065283Y026642D01*
X065283Y027029D01*
X064902Y027409D01*
X064851Y027409D01*
X064851Y027824D01*
X064436Y028046D02*
X064436Y027411D01*
X063782Y026757D01*
X063451Y026757D01*
X064436Y028046D02*
X064799Y028409D01*
X064851Y028409D01*
X064851Y028824D01*
X064436Y029411D02*
X063882Y028857D01*
X063551Y028857D01*
X064436Y029411D02*
X064436Y029824D01*
X064851Y029824D01*
X058551Y029724D02*
X058551Y029695D01*
D35*
X043551Y024524D03*
X040151Y024524D03*
X035251Y024524D03*
X055051Y015224D03*
X044051Y007924D03*
X041751Y008724D03*
X056951Y007624D03*
X010751Y025324D03*
X010751Y028424D03*
X008851Y034524D03*
X010951Y035824D03*
X008051Y022224D03*
D36*
X053391Y014624D02*
X053951Y014624D01*
X053951Y015124D01*
X055051Y015124D01*
X055051Y015224D01*
X053951Y015224D02*
X053951Y015124D01*
X053951Y015174D02*
X053941Y015174D01*
X053951Y015174D02*
X053951Y015224D01*
M02*
