M48
;FILE_FORMAT=5:5
METRIC,TZ
T1C0.300000
T2C0.400000
T3C0.500000
T4C2.000000
%
T1
X-2198387Y444234
T2
X-9200000Y150000
X-8550000Y150000
X-8550000Y-150000
X-8300000Y-150000
X-7550000Y-150000
X-7400000Y250000
X-7261107Y-29020
X-7100000Y200000
X-7025832Y100000
X-6175000Y150000
X-6975000Y-125000
X-6175000Y-150000
X-4675000Y-150000
X-4425000Y150000
X-2225000Y-125000
X-2175000Y100000
X-2075000Y175000
X-2075000Y275000
X-1700000Y100000
X-1650000Y-100000
X-600000Y-150000
X-222194Y213649
X800000Y150000
X1175000Y150000
X-7532284Y444234
X-8550000Y0
X-6175000Y0
X-5493130Y214836
X-7869271Y212635
X-4661717Y0
X-3977311Y216441
X-1926922Y-30283
X-1850000Y175000
X-900000Y0
X550000Y0
X1229936Y214645
X2400000Y150000
X2475000Y275000
X2600000Y350000
X2750000Y375000
X2900000Y350000
X3000000Y275000
X2375000Y-150000
X2450000Y-250000
X2550000Y-350000
X2700000Y-375000
X2850000Y-350000
X2975000Y-300000
X3100000Y350000
X3100000Y-350000
X3250000Y-375000
X3400000Y-350000
X3500000Y-275000
X3600000Y-350000
X3250000Y375000
X3400000Y350000
X3500000Y275000
X3600000Y350000
X3800000Y-375000
X3975000Y-350000
X4050000Y-275000
X3775000Y375000
X3950000Y350000
X4050000Y300000
X4150000Y350000
X4325000Y375000
X4475000Y350000
X4600000Y300000
X4700000Y375000
X4850000Y400000
X4125000Y-350000
X4250000Y-400000
X4425000Y-400000
X4525000Y-350000
X4600000Y-275000
X4675000Y-350000
X4800000Y-400000
X4975000Y-400000
X5075000Y-350000
X5150000Y-300000
X5225000Y-350000
X5325000Y-400000
X5475000Y-400000
X5600000Y-375000
X5700000Y-300000
X5800000Y-375000
X5950000Y-425000
X6125000Y-425000
X6250000Y-350000
X6350000Y-250000
X5025000Y375000
X5150000Y300000
X5275000Y375000
X5450000Y400000
X5600000Y375000
X5700000Y300000
X5775000Y375000
X5900000Y400000
X6100000Y400000
X6225000Y350000
X6475000Y-300000
X6550000Y-400000
X6500000Y0
X6650000Y25000
X6775000Y-25000
X6900000Y-100000
X7025000Y-150000
X6625000Y-50000
X6725000Y-125000
X6800000Y-225000
X6850000Y-325000
X6875000Y-450000
X6600000Y-525000
X6650000Y-650000
X6950000Y-550000
X7050000Y-575000
X7200000Y-575000
X6725000Y-775000
X6850000Y-850000
X7000000Y-850000
X7150000Y-850000
X7325000Y-625000
X7450000Y-625000
X7400000Y-725000
X7425000Y-1025000
X6600000Y-975000
X8637376Y-1212871
X8638496Y-1422087
X7973661Y-1516254
X7435947Y-2006008
X6988584Y-1280738
X4019478Y-1693680
X2404388Y-1652245
X1257844Y-1288294
X642966Y-1004583
X-6466Y-1608734
X-828680Y-1725000
X-2309694Y-1392177
X-4400000Y-1700000
X-4220369Y-1185215
X-5342479Y-1092929
X-5549114Y-1946003
X-5418503Y-2325000
X-6309617Y-2325163
X-6566845Y-1655533
X-6763525Y-1605607
X-7579944Y-1448681
X-8160419Y-1650000
X-7875000Y-700000
X2675000Y125000
X2600000Y0
X2875000Y0
X3125000Y0
X3334232Y-125000
X3384232Y0
X3650000Y0
X3914480Y0
X4825000Y100000
X4755940Y0
X4984530Y0
X5312840Y0
X5537160Y0
X6325000Y275000
X7263783Y214371
X2422811Y1086630
X238582Y1082110
X-2675000Y1075000
X-5003308Y1084741
X-6700000Y1100000
X-6956201Y1900000
X-8300000Y975000
X-9250000Y975000
X-5525000Y350000
X-7550000Y-242257
X-6975000Y-243514
X7400000Y-850000
X6800015Y-1000000
X7075015Y-1000000
X-1270400Y-925000
X-1743585Y-925000
X-8638509Y975000
X-8957763Y975000
X-1626956Y-1369776
X-8638509Y570122
X-8957763Y570122
X6400000Y-400000
X-975000Y-725000
X-975000Y-875000
X-1270400Y-725000
X-1743585Y-725000
X-6850000Y-325000
X-6800000Y-700000
X-6800000Y-825000
X-6850000Y-500000
X-7725000Y-675000
X-7650000Y-500000
X-7625000Y-300000
X-9075000Y150000
X-8950000Y150000
X-8825000Y150000
X-9200000Y-150000
X-9075000Y-150000
X-8950000Y-150000
X-8825000Y-150000
X-8700000Y-150000
X-8700000Y150000
X-8425000Y150000
X-8425000Y-150000
X-8300000Y150000
X-8175000Y-150000
X-8050000Y-150000
X-7925000Y-150000
X-7800000Y-150000
X-7675000Y-150000
X-8300000Y350000
X-8300000Y575000
X-7925000Y150000
X-7800000Y150000
X-7675000Y150000
X-7550000Y150000
X-7475000Y100000
X-6925000Y150000
X-6800000Y150000
X-6675000Y150000
X-6550000Y150000
X-6425000Y150000
X-6300000Y150000
X-6050000Y150000
X-6800000Y-150000
X-6675000Y-150000
X-6550000Y-150000
X-6425000Y-150000
X-6300000Y-150000
X-6050000Y-150000
X-5925000Y-150000
X-6900000Y-150000
X-5800000Y-150000
X-5675000Y-150000
X-5550000Y-150000
X-5425000Y-150000
X-5300000Y-150000
X-5175000Y-150000
X-5050000Y-150000
X-4925000Y-150000
X-4800000Y-150000
X-4550000Y-150000
X-4425000Y-150000
X-5925000Y150000
X-5550000Y150000
X-5425000Y150000
X-5300000Y150000
X-5175000Y150000
X-5050000Y150000
X-4925000Y150000
X-4800000Y150000
X-4675000Y150000
X-4550000Y150000
X-4300000Y-150000
X-4175000Y-150000
X-4050000Y-150000
X-3925000Y-150000
X-3800000Y-150000
X-3675000Y-150000
X-4050000Y150000
X-3925000Y150000
X-3800000Y150000
X-3675000Y150000
X-3550000Y150000
X-3425000Y150000
X-3300000Y150000
X-3175000Y150000
X-3050000Y150000
X-2925000Y150000
X-2800000Y150000
X-2675000Y150000
X-3550000Y-150000
X-3425000Y-150000
X-3300000Y-150000
X-3175000Y-150000
X-3050000Y-150000
X-2925000Y-150000
X-2800000Y-150000
X-2675000Y-150000
X-2550000Y-150000
X-2550000Y150000
X-2425000Y150000
X-2425000Y-150000
X-2300000Y150000
X-2300000Y-150000
X-1600000Y150000
X-1475000Y150000
X-1350000Y150000
X-1225000Y150000
X-1050000Y150000
X-750000Y150000
X-900000Y150000
X-650000Y150000
X-1600000Y-150000
X-1475000Y-150000
X-1350000Y-150000
X-1225000Y-150000
X-1050000Y-150000
X-900000Y-150000
X-750000Y-150000
X-475000Y-150000
X-350000Y-150000
X-225000Y-150000
X-100000Y-150000
X-225000Y150000
X-100000Y150000
X25000Y150000
X150000Y150000
X275000Y150000
X25000Y-150000
X150000Y-150000
X275000Y-150000
X400000Y150000
X525000Y150000
X650000Y150000
X400000Y-150000
X525000Y-150000
X650000Y-150000
X1300000Y150000
X1425000Y150000
X1550000Y150000
X1675000Y150000
X1800000Y150000
X1925000Y150000
X2050000Y150000
X2175000Y150000
X2300000Y150000
X1150000Y-150000
X1025000Y-150000
X900000Y-150000
X1275000Y-150000
X775000Y-150000
X1775000Y-150000
X1650000Y-150000
X1525000Y-150000
X1900000Y-150000
X1400000Y-150000
X2050000Y-150000
X2175000Y-150000
X7150000Y-150000
X7400000Y-150000
X7275000Y-150000
X7525000Y-150000
X7775000Y-150000
X7650000Y-150000
X7900000Y-150000
X8150000Y-150000
X8025000Y-150000
X8275000Y-150000
X8525000Y-150000
X8400000Y-150000
X8650000Y-150000
X8900000Y-150000
X8775000Y-150000
X7700000Y150000
X7950000Y150000
X7825000Y150000
X8075000Y150000
X8325000Y150000
X8200000Y150000
X8450000Y150000
X8700000Y150000
X8575000Y150000
X8825000Y150000
X9075000Y150000
X8950000Y150000
X6425000Y275000
X6550000Y300000
X6675000Y300000
X6800000Y300000
X6900000Y250000
X7000000Y200000
X7075000Y150000
X7200000Y150000
X7325000Y125000
X9025000Y-150000
X9150000Y-150000
X9200000Y150000
X9325000Y150000
X9275000Y-150000
X-9250000Y775000
X-9250000Y575000
X-8957763Y775000
X-8638509Y775000
X-8300000Y775000
X-8638509Y350000
X-8957763Y350000
X-7925000Y975000
X-7400000Y975000
X-7925000Y775000
X-7925000Y575000
X-7925000Y350000
X-7400000Y775000
X-7400000Y575000
X-7650000Y350000
X-7175000Y975000
X-7175000Y775000
X-7175000Y575000
X-7175000Y350000
X-6786491Y975000
X-5950000Y975000
X-6786491Y775000
X-6786491Y575000
X-5950000Y775000
X-5950000Y575000
X-6786491Y350000
X-5950000Y350000
X-6382763Y575000
X-6382763Y350000
X-6382763Y975000
X-6382763Y775000
X-5164516Y575000
X-5164516Y975000
X-5164516Y775000
X-5164516Y350000
X-5525000Y775000
X-5525000Y575000
X-5525000Y975000
X-4450000Y775000
X-4450000Y575000
X-4450000Y975000
X-4450000Y350000
X-4025000Y775000
X-4025000Y575000
X-4025000Y975000
X-4025000Y350000
X-3642201Y775000
X-3642201Y350000
X-3642201Y975000
X-3642201Y575000
X-3249142Y350000
X-2854666Y775000
X-2854666Y975000
X-2854666Y575000
X-3249142Y975000
X-2854666Y350000
X-2456899Y575000
X-3249142Y575000
X-3249142Y775000
X-2456899Y775000
X-2456899Y350000
X-2456899Y975000
X-2075000Y775000
X-2075000Y575000
X-2075000Y975000
X2600000Y350000
X-4804194Y975000
X-4804194Y775000
X-4804194Y575000
X-4804194Y350000
X-7650000Y575000
X-7650000Y975000
X-7650000Y775000
X-1439516Y775000
X-1800000Y975000
X-1079194Y775000
X-1800000Y775000
X-1800000Y350000
X-1800000Y575000
X-725000Y350000
X-1079194Y975000
X-725000Y975000
X-725000Y775000
X-1079194Y350000
X-1439516Y575000
X-1439516Y975000
X-1439516Y350000
X-1079194Y575000
X-725000Y575000
X85484Y775000
X-275000Y575000
X445806Y975000
X-275000Y350000
X85484Y975000
X445806Y350000
X445806Y775000
X85484Y350000
X445806Y575000
X85484Y575000
X-275000Y775000
X-275000Y975000
X800000Y775000
X800000Y975000
X800000Y350000
X800000Y575000
X1189516Y575000
X1910322Y575000
X1189516Y350000
X1910322Y975000
X1550000Y350000
X1550000Y775000
X2264516Y575000
X2264516Y975000
X1550000Y575000
X1910322Y775000
X1910322Y350000
X2264516Y350000
X1189516Y775000
X1189516Y975000
X1550000Y975000
X2264516Y775000
X3370806Y575000
X3370806Y975000
X3725000Y575000
X3010484Y775000
X3725000Y975000
X3010484Y975000
X2650000Y575000
X2650000Y775000
X3010484Y575000
X3725000Y775000
X2650000Y975000
X3370806Y775000
X4839516Y775000
X5585484Y775000
X4485322Y575000
X5585484Y975000
X5225000Y975000
X6300000Y575000
X6300000Y975000
X4839516Y975000
X4485322Y775000
X4125000Y575000
X4125000Y975000
X5945806Y575000
X6300000Y775000
X4485322Y975000
X5225000Y775000
X4125000Y775000
X4839516Y575000
X5225000Y575000
X5945806Y975000
X5585484Y575000
X5945806Y775000
X7025000Y575000
X7025000Y775000
X6670806Y975000
X6670806Y775000
X6670806Y575000
X7025000Y975000
X7325000Y575000
X7325000Y975000
X7325000Y775000
X7025000Y375000
X7325000Y375000
X8025000Y575000
X8025000Y375000
X7725000Y375000
X7725000Y775000
X8025000Y775000
X8025000Y975000
X7725000Y975000
X7725000Y575000
X8625000Y575000
X8625000Y375000
X8325000Y375000
X8325000Y775000
X8625000Y775000
X8625000Y975000
X8325000Y975000
X8325000Y575000
X9250000Y775000
X8950000Y375000
X8950000Y975000
X9250000Y575000
X8950000Y575000
X8950000Y775000
X9250000Y975000
X6675000Y375000
X8200000Y-375000
X7600000Y-375000
X9125000Y-375000
X8825000Y-375000
X8500000Y-375000
X7900000Y-575000
X8500000Y-575000
X7600000Y-575000
X9125000Y-575000
X8825000Y-575000
X7900000Y-375000
X8200000Y-575000
X7350000Y-375000
X7050000Y-375000
X5425000Y-550000
X6150000Y-950000
X5425000Y-950000
X5795806Y-950000
X5795806Y-550000
X5070806Y-950000
X3964516Y-550000
X6450000Y-950000
X6450000Y-750000
X6150000Y-750000
X6450000Y-550000
X5795806Y-750000
X4350000Y-750000
X4710484Y-750000
X5425000Y-750000
X4710484Y-950000
X4350000Y-950000
X6150000Y-550000
X5070806Y-750000
X4710484Y-550000
X3964516Y-750000
X4350000Y-550000
X5070806Y-550000
X3964516Y-950000
X2175000Y-950000
X2560484Y-750000
X2920968Y-550000
X2560484Y-550000
X3635484Y-550000
X2920968Y-950000
X2920968Y-750000
X3281290Y-550000
X2175000Y-750000
X3281290Y-750000
X3635484Y-950000
X3635484Y-750000
X2175000Y-550000
X3281290Y-950000
X2560484Y-950000
X2175000Y-350000
X1801975Y-350000
X1801975Y-950000
X1400000Y-550000
X1400000Y-750000
X1400000Y-950000
X1400000Y-350000
X1025000Y-550000
X1025000Y-350000
X639516Y-750000
X639516Y-350000
X1025000Y-750000
X639516Y-550000
X310484Y-350000
X310484Y-750000
X310484Y-550000
X-75000Y-750000
X-75000Y-350000
X-75000Y-550000
X-1625000Y-275000
X-1300000Y-275000
X-950000Y-275000
X-600000Y-275000
X-250000Y-275000
X-2230523Y-500000
X-2625000Y-300000
X-2230523Y-300000
X-2625000Y-500000
X-2230523Y-700000
X-2625000Y-700000
X-2230523Y-925000
X-2625000Y-925000
X-3000000Y-700000
X-3000000Y-500000
X-3000000Y-300000
X-3000000Y-925000
X-3425815Y-703793
X-3425815Y-503793
X-3425815Y-303793
X-3425815Y-928793
X-4600000Y-500000
X-4600000Y-300000
X-4225000Y-700000
X-4600000Y-700000
X-4225000Y-300000
X-3830523Y-500000
X-3830523Y-300000
X-4225000Y-500000
X-3830523Y-700000
X-5750000Y-500000
X-5750000Y-300000
X-5375000Y-700000
X-5750000Y-700000
X-5375000Y-300000
X-4980523Y-500000
X-4980523Y-300000
X-5375000Y-500000
X-4980523Y-700000
X-6125000Y-500000
X-6125000Y-300000
X-6125000Y-700000
X-6450000Y-500000
X-6450000Y-300000
X-6450000Y-700000
X-8880746Y-374185
X-8880746Y-574185
X-9200000Y-574185
X-8880746Y-999185
X-9200000Y-999185
X-9200000Y-779063
X-8500000Y-375000
X-8500000Y-575000
X-8100000Y-375000
X-8100000Y-575000
X-8100000Y-800000
X-8500000Y-1000000
X-8100000Y-1000000
X2800000Y125000
X2675000Y-125000
X2800000Y-125000
X3334232Y125000
X3184232Y-125000
X3184232Y125000
X2740294Y-3611
X3264049Y-3611
X3725000Y117809
X3842628Y117809
X3725000Y-121067
X3842628Y-121067
X3785227Y2287
X4379846Y111912
X4322445Y-3611
X4199617Y-5898
X4451698Y-5898
X4268768Y-126964
X4268768Y111912
X4379846Y-126964
X4925000Y100000
X4873173Y-3611
X4825000Y-100000
X4925000Y-100000
X5375000Y100000
X5475000Y100000
X5429288Y-3611
X5375000Y-100000
X5475000Y-100000
X5950000Y87910
X6050000Y87910
X5997520Y-3187
X5887090Y0
X6112910Y0
X5950000Y-87910
X6050000Y-87910
T3
X-3004777Y2393310
X1691214Y-2388718
X2097155Y-2388161
X-3341392Y2391143
X2063234Y2403170
X1713929Y2404860
X-3349527Y-2383007
X-3023248Y-2380293
T4
X-3180923Y-634116
X381000Y-2286000
X-4191000Y2286000
X9271000Y2286000
X-1651000Y2286000
X1905366Y-633471
X9271000Y381000
X-9271000Y381000
X-1651000Y-2286000
X-6731000Y2286000
X-9271000Y1346200
X-9271000Y2286000
X6223000Y2286000
X381000Y2286000
X2921000Y-2286000
X2921000Y2286000
X9271000Y1346200
X9271000Y-381000
X-4191000Y-2286000
X6223000Y-2286000
X9271000Y-1346200
X9271000Y-2286000
X-9271000Y-1346200
X-9271000Y-2286000
X-9271000Y-381000
X-6731000Y-2286000
M30
