M48
;Layer_Color=9474304
;FILE_FORMAT=4:4
METRIC,LZ
;TYPE=PLATED
T01F00S00C0.3000
T02F00S00C1.0500
T03F00S00C2.9000
%
T01
X00069Y00025
X00093
X00117
X00141
X00165
X00189
X00213
X00237
X00279Y00068
Y00191
Y00215
Y00239
Y0026
Y00284
Y00308
X00188Y00301
X00201Y00369
X00213Y00471
X00237
X00189
X00165
X00279Y00429
X00235Y00156
X00119Y00301
X00123Y00401
X00085Y00384
X00093Y00471
X00117
X00141
X00069
T02
X00035Y00112
Y001374
X00269
Y00112
Y003586
Y00384
X00035
Y003586
Y002604
Y00235
T03
X00025Y00025
X00279
Y00471
X00025
M30
