G75*
G70*
%OFA0B0*%
%FSLAX24Y24*%
%IPPOS*%
%LPD*%
%AMOC8*
5,1,8,0,0,1.08239X$1,22.5*
%
%ADD10R,0.9100X0.8700*%
%ADD11R,0.9100X0.7600*%
%ADD12C,0.1580*%
%ADD13R,0.6900X0.8800*%
%ADD14R,0.8600X0.8300*%
%ADD15R,0.2700X0.4000*%
%ADD16R,1.1300X0.4300*%
%ADD17R,0.6200X0.4800*%
%ADD18C,0.1025*%
%ADD19C,0.0634*%
%ADD20C,0.0907*%
%ADD21R,0.0880X0.0680*%
%ADD22C,0.1980*%
%ADD23C,0.0730*%
%ADD24R,0.0880X0.1080*%
%ADD25R,0.1080X0.0880*%
%ADD26R,0.2080X0.1080*%
%ADD27C,0.0595*%
%ADD28O,0.1120X0.0600*%
%ADD29R,0.2080X0.2080*%
%ADD30R,0.0680X0.0880*%
%ADD31R,0.1280X0.1880*%
%ADD32R,0.0880X0.0980*%
%ADD33C,0.0611*%
%ADD34C,0.0555*%
D10*
X020431Y031752D03*
D11*
X020431Y022302D03*
D12*
X002181Y002302D03*
X002181Y043302D03*
X063181Y043302D03*
X063181Y002302D03*
D13*
X050131Y034802D03*
D14*
X059181Y032252D03*
D15*
X062131Y037502D03*
D16*
X033731Y023852D03*
D17*
X034481Y016802D03*
X034481Y003802D03*
D18*
X035381Y040302D03*
X036981Y040302D03*
X042381Y040302D03*
X043981Y040302D03*
X049381Y040302D03*
X050981Y040302D03*
X056381Y040302D03*
X057981Y040302D03*
X022981Y040302D03*
X021381Y040302D03*
X015981Y040302D03*
X014381Y040302D03*
X008981Y040302D03*
X007381Y040302D03*
D19*
X028181Y040302D03*
X029181Y040302D03*
X030181Y040302D03*
D20*
X028681Y035802D03*
X028681Y032802D03*
X034681Y032802D03*
X036681Y032802D03*
X038681Y032802D03*
X038681Y035802D03*
X036681Y035802D03*
X034681Y035802D03*
X021681Y016502D03*
X024381Y015202D03*
X021681Y013102D03*
X049481Y013202D03*
X049481Y016602D03*
X059181Y011002D03*
X062881Y010802D03*
X059181Y007602D03*
D21*
X062881Y008402D03*
X062881Y009402D03*
X055181Y004802D03*
X055181Y003802D03*
X035881Y008802D03*
X035881Y009802D03*
X032681Y009302D03*
X032681Y010302D03*
X024381Y010802D03*
X024381Y011802D03*
X019181Y010802D03*
X019181Y009802D03*
X034181Y027302D03*
X034181Y028302D03*
X037181Y028802D03*
X037181Y029802D03*
X038281Y029802D03*
X038281Y028802D03*
X049081Y021302D03*
X049081Y020302D03*
D22*
X050181Y035102D03*
X019981Y030302D03*
X019981Y022302D03*
D23*
X013181Y022302D03*
X013181Y023302D03*
X013181Y021302D03*
X013181Y029302D03*
X013181Y030302D03*
X013181Y031302D03*
X049181Y028302D03*
X050181Y028302D03*
X051181Y028302D03*
D24*
X051481Y027002D03*
X052881Y027002D03*
X044481Y018902D03*
X043081Y018902D03*
X031481Y027302D03*
X030081Y027302D03*
X011881Y022302D03*
X010481Y022302D03*
D25*
X011181Y029702D03*
X011181Y031102D03*
D26*
X026881Y031002D03*
X026881Y032802D03*
X026881Y035202D03*
X026881Y028602D03*
D27*
X033181Y028802D03*
X033181Y029802D03*
X036181Y029802D03*
X036181Y028802D03*
D28*
X034181Y011802D03*
X034181Y010802D03*
X034181Y009802D03*
X034181Y008802D03*
X031181Y008802D03*
X031181Y009802D03*
X031181Y010802D03*
X031181Y011802D03*
D29*
X055681Y038302D03*
X058681Y038302D03*
X058681Y042302D03*
X055681Y042302D03*
X051681Y042302D03*
X048681Y042302D03*
X023681Y042302D03*
X020681Y042302D03*
D30*
X030281Y028602D03*
X031281Y028602D03*
X045881Y018902D03*
X046881Y018902D03*
X046381Y017302D03*
X045381Y017302D03*
X049081Y018902D03*
X050081Y018902D03*
X058581Y025202D03*
X059581Y025202D03*
X061081Y025202D03*
X062081Y025202D03*
X050181Y027002D03*
X049181Y027002D03*
X047981Y027002D03*
X046981Y027002D03*
X022181Y010802D03*
X021181Y010802D03*
X056681Y003802D03*
X057681Y003802D03*
D31*
X032581Y036302D03*
X030181Y036302D03*
D32*
X030781Y020802D03*
X032581Y020802D03*
X034781Y020802D03*
X036581Y020802D03*
D33*
X037181Y018802D03*
X037181Y017502D03*
X037181Y016102D03*
X037181Y014802D03*
X038181Y013302D03*
X035281Y014802D03*
X035281Y016102D03*
X035281Y017502D03*
X035281Y018802D03*
X033481Y018802D03*
X031781Y018802D03*
X031781Y017502D03*
X033481Y017502D03*
X033481Y016102D03*
X031781Y016102D03*
X031781Y014802D03*
X033481Y014802D03*
X041181Y010602D03*
X043781Y010602D03*
X043181Y008302D03*
X041181Y008302D03*
X037181Y005802D03*
X037181Y004502D03*
X037181Y003102D03*
X037181Y001802D03*
X035281Y001802D03*
X035281Y003102D03*
X035281Y004502D03*
X035281Y005802D03*
X033481Y005802D03*
X031781Y005802D03*
X031781Y004502D03*
X033481Y004502D03*
X033481Y003102D03*
X031781Y003102D03*
X031781Y001802D03*
X033481Y001802D03*
X041181Y002302D03*
X043181Y002302D03*
X045181Y002302D03*
X047181Y002302D03*
X049181Y002302D03*
X051181Y002302D03*
X053481Y002702D03*
X053481Y005302D03*
X052681Y006802D03*
X051181Y005302D03*
X049181Y005302D03*
X047181Y005302D03*
X045181Y005302D03*
X043181Y005302D03*
X041181Y005302D03*
X024181Y005302D03*
X021681Y005302D03*
X019181Y005302D03*
X016181Y005302D03*
X013181Y005302D03*
X010181Y005302D03*
X007181Y005302D03*
X004681Y006302D03*
X002181Y006302D03*
X002181Y008302D03*
X002181Y010302D03*
X004681Y009802D03*
X007181Y008302D03*
X010181Y008302D03*
X013181Y008302D03*
X015681Y007802D03*
X019181Y008302D03*
X021681Y008302D03*
X024181Y008302D03*
X024181Y002302D03*
X021681Y002302D03*
X019181Y002302D03*
X016181Y002302D03*
X013181Y002302D03*
X010181Y002302D03*
X007181Y002302D03*
X008056Y013052D03*
X005556Y013052D03*
X003056Y013052D03*
X011981Y018802D03*
X016681Y019302D03*
X018181Y019302D03*
X020181Y019302D03*
X022181Y019302D03*
X024181Y019302D03*
X024181Y021302D03*
X022181Y021302D03*
X022181Y023302D03*
X024181Y023302D03*
X024181Y025302D03*
X022181Y025302D03*
X020181Y025302D03*
X018181Y025302D03*
X016681Y025302D03*
X016681Y023302D03*
X018181Y023302D03*
X018181Y021302D03*
X016681Y021302D03*
X016681Y028302D03*
X018181Y028302D03*
X020181Y028302D03*
X022181Y028302D03*
X024181Y028302D03*
X024181Y030302D03*
X022181Y030302D03*
X022181Y032302D03*
X020181Y032302D03*
X018181Y032302D03*
X016681Y032302D03*
X016681Y034302D03*
X018181Y034302D03*
X018181Y030302D03*
X016681Y030302D03*
X024181Y032302D03*
X024181Y034302D03*
X028681Y025502D03*
X028681Y023902D03*
X028681Y022302D03*
X033681Y022302D03*
X033681Y023902D03*
X033681Y025502D03*
X038681Y025502D03*
X038681Y023902D03*
X038681Y022302D03*
X044681Y027002D03*
X045881Y027002D03*
X047381Y024802D03*
X048981Y024802D03*
X050581Y024802D03*
X052181Y024802D03*
X054681Y024802D03*
X052181Y022302D03*
X054681Y021302D03*
X057181Y021302D03*
X057181Y019302D03*
X054681Y019302D03*
X053181Y017302D03*
X055281Y016902D03*
X057881Y016902D03*
X060481Y016902D03*
X063781Y020302D03*
X063781Y021502D03*
X063781Y022702D03*
X063781Y023902D03*
X063181Y028402D03*
X061181Y028402D03*
X059181Y028402D03*
X057181Y028402D03*
X055181Y028402D03*
X055181Y030402D03*
X057181Y030402D03*
X059181Y030402D03*
X061181Y030402D03*
X063181Y030402D03*
X063181Y032302D03*
X063181Y034202D03*
X063181Y036102D03*
X063181Y037702D03*
X063181Y039202D03*
X061181Y039202D03*
X061181Y037702D03*
X061181Y036102D03*
X059181Y036102D03*
X057181Y036102D03*
X055181Y036102D03*
X052881Y036902D03*
X051081Y037202D03*
X049281Y037202D03*
X047481Y036902D03*
X047481Y035102D03*
X045481Y035402D03*
X047481Y032902D03*
X049181Y032902D03*
X051081Y032902D03*
X052881Y032902D03*
X055181Y032302D03*
X057181Y032302D03*
X059181Y032302D03*
X061181Y032302D03*
X061181Y034202D03*
X059181Y034202D03*
X057181Y034202D03*
X055181Y034202D03*
X052881Y035102D03*
X052881Y038702D03*
X051081Y038702D03*
X049281Y038702D03*
X047481Y038702D03*
X045881Y032602D03*
X044681Y032602D03*
X047481Y031002D03*
X049281Y031002D03*
X051081Y031002D03*
X052881Y031002D03*
X045481Y029802D03*
X045481Y024302D03*
X046181Y022302D03*
X048981Y022302D03*
X046181Y020302D03*
X052181Y020302D03*
X005281Y022302D03*
X005281Y025802D03*
D34*
X004931Y030552D03*
X011181Y031952D03*
X008931Y035302D03*
X028681Y027302D03*
X032881Y027302D03*
X037181Y027302D03*
X037181Y031302D03*
X031981Y031802D03*
X042281Y022502D03*
X047981Y018902D03*
X047481Y017302D03*
X048481Y017302D03*
X036581Y020802D03*
X034781Y020802D03*
X032581Y020802D03*
X030781Y020802D03*
X028681Y018602D03*
X028681Y014802D03*
X029481Y011802D03*
X033181Y007402D03*
X035881Y007402D03*
X037281Y007302D03*
X035881Y011302D03*
X046181Y008902D03*
X062981Y025202D03*
X058481Y026702D03*
X057781Y026702D03*
X053181Y029402D03*
X009181Y009927D03*
M02*
