G75*
G70*
%OFA0B0*%
%FSLAX24Y24*%
%IPPOS*%
%LPD*%
%AMOC8*
5,1,8,0,0,1.08239X$1,22.5*
%
%ADD10R,1.1700X0.4400*%
%ADD11C,0.0945*%
%ADD12C,0.0554*%
%ADD13R,0.0350X0.0900*%
%ADD14R,0.1000X0.0800*%
%ADD15R,0.0800X0.0900*%
%ADD16R,0.2000X0.2000*%
%ADD17R,0.0800X0.1000*%
%ADD18C,0.0827*%
%ADD19C,0.1900*%
%ADD20C,0.0650*%
%ADD21R,0.1600X0.1200*%
%ADD22R,0.0600X0.0800*%
%ADD23R,0.1200X0.1800*%
%ADD24R,0.0866X0.0236*%
%ADD25R,0.0800X0.0600*%
%ADD26R,0.0900X0.0800*%
%ADD27C,0.0515*%
%ADD28R,0.2500X0.2000*%
%ADD29R,0.1000X0.0700*%
%ADD30O,0.1040X0.0520*%
%ADD31R,0.0800X0.1400*%
%ADD32C,0.0320*%
%ADD33C,0.0100*%
%ADD34C,0.0400*%
%ADD35C,0.0240*%
%ADD36C,0.0531*%
%ADD37C,0.0475*%
%ADD38C,0.1000*%
%ADD39C,0.0860*%
%ADD40C,0.0760*%
%ADD41C,0.0160*%
D10*
X033631Y023902D03*
D11*
X035381Y040302D03*
X036981Y040302D03*
X042381Y040302D03*
X043981Y040302D03*
X049381Y040302D03*
X050981Y040302D03*
X056381Y040302D03*
X057981Y040302D03*
X022981Y040302D03*
X021381Y040302D03*
X015981Y040302D03*
X014381Y040302D03*
X008981Y040302D03*
X007381Y040302D03*
D12*
X028181Y040302D03*
X029181Y040302D03*
X030181Y040302D03*
D13*
X057781Y025802D03*
X058481Y025802D03*
X059181Y025802D03*
X059881Y025802D03*
X060581Y025802D03*
X050481Y018102D03*
X049981Y018102D03*
X049481Y018102D03*
X048981Y018102D03*
X048481Y018102D03*
X047981Y018102D03*
X047481Y018102D03*
X047681Y009802D03*
X047181Y009802D03*
X046681Y009802D03*
X046181Y009802D03*
X045681Y009802D03*
X048181Y009802D03*
X048681Y009802D03*
X011681Y010802D03*
X011181Y010802D03*
X010681Y010802D03*
X010181Y010802D03*
X009681Y010802D03*
X009181Y010802D03*
X008681Y010802D03*
D14*
X013056Y011377D03*
X013056Y009977D03*
X013181Y018802D03*
X013181Y020202D03*
X005281Y026902D03*
X005281Y028302D03*
X028681Y017502D03*
X028681Y016102D03*
X028681Y004502D03*
X028681Y003102D03*
X050081Y009002D03*
X050081Y010402D03*
X061981Y025202D03*
X061981Y026602D03*
D15*
X043781Y016802D03*
X041981Y016802D03*
X036581Y020802D03*
X034781Y020802D03*
X032581Y020802D03*
X030781Y020802D03*
X016581Y008777D03*
X014781Y008777D03*
X020481Y033802D03*
X022281Y033802D03*
X051781Y007802D03*
X053581Y007802D03*
D16*
X053681Y005302D03*
X056681Y005302D03*
X056681Y002702D03*
X053681Y002702D03*
X043781Y010802D03*
X041181Y010802D03*
X041181Y013802D03*
X043781Y013802D03*
X055281Y013802D03*
X057881Y013802D03*
X060481Y013802D03*
X060481Y016802D03*
X057881Y016802D03*
X055281Y016802D03*
X060681Y020902D03*
X063681Y020902D03*
X063681Y023302D03*
X060681Y023302D03*
X058281Y023202D03*
X055281Y023202D03*
X045281Y024302D03*
X042281Y024302D03*
X042281Y029802D03*
X045281Y029802D03*
X045281Y035402D03*
X042281Y035402D03*
X008056Y015802D03*
X005556Y015802D03*
X003056Y015802D03*
X003056Y012802D03*
X005556Y012802D03*
X008056Y012802D03*
X019181Y011052D03*
X021681Y011052D03*
X024181Y011052D03*
X024181Y008052D03*
X021681Y008052D03*
X019181Y008052D03*
D17*
X011381Y012302D03*
X009981Y012302D03*
X030081Y027302D03*
X031481Y027302D03*
X051281Y018102D03*
X052681Y018102D03*
X048381Y011302D03*
X046981Y011302D03*
X051781Y029402D03*
X053181Y029402D03*
D18*
X038681Y032802D03*
X036681Y032802D03*
X034681Y032802D03*
X034681Y035802D03*
X036681Y035802D03*
X038681Y035802D03*
X028681Y035802D03*
X028681Y032802D03*
X021681Y016502D03*
X024381Y015202D03*
X021681Y013102D03*
X049481Y013202D03*
X049481Y016602D03*
X059181Y011002D03*
X062881Y010802D03*
X059181Y007602D03*
D19*
X019981Y022302D03*
X019981Y030302D03*
X050181Y035102D03*
D20*
X050181Y028302D03*
X051181Y028302D03*
X049181Y028302D03*
X013181Y029302D03*
X013181Y030302D03*
X013181Y031302D03*
X013181Y023302D03*
X013181Y022302D03*
X013181Y021302D03*
D21*
X013181Y025802D03*
X013181Y028002D03*
D22*
X011681Y022302D03*
X010681Y022302D03*
X007681Y022302D03*
X006681Y022302D03*
X009731Y035302D03*
X010731Y035302D03*
X012231Y035302D03*
X013231Y035302D03*
X026181Y040302D03*
X027181Y040302D03*
X028181Y039102D03*
X029181Y039102D03*
X033781Y013302D03*
X034781Y013302D03*
X029481Y008802D03*
X028481Y008802D03*
X027781Y001502D03*
X026781Y001502D03*
X029181Y001502D03*
X030181Y001502D03*
D23*
X009381Y025802D03*
X006981Y025802D03*
D24*
X006120Y029552D03*
X006120Y030052D03*
X006120Y030552D03*
X006120Y031052D03*
X006120Y031552D03*
X006120Y032052D03*
X006120Y032552D03*
X006120Y033052D03*
X009742Y033052D03*
X009742Y032552D03*
X009742Y032052D03*
X009742Y031552D03*
X009742Y031052D03*
X009742Y030552D03*
X009742Y030052D03*
X009742Y029552D03*
D25*
X011181Y030152D03*
X011181Y031152D03*
X014281Y035502D03*
X014281Y036502D03*
X028681Y013802D03*
X028681Y012802D03*
X028381Y010902D03*
X029481Y010902D03*
X029481Y009902D03*
X028381Y009902D03*
X028681Y007302D03*
X028681Y006302D03*
X037281Y008402D03*
X037281Y009402D03*
X037281Y010802D03*
X037281Y011802D03*
D26*
X030281Y015902D03*
X030281Y017702D03*
X030281Y004702D03*
X030281Y002902D03*
D27*
X033181Y028802D03*
X033181Y029802D03*
X036181Y029802D03*
X036181Y028802D03*
D28*
X029181Y029802D03*
D29*
X031981Y028802D03*
X031981Y030802D03*
D30*
X031181Y011802D03*
X031181Y010802D03*
X031181Y009802D03*
X031181Y008802D03*
X034181Y008802D03*
X034181Y009802D03*
X034181Y010802D03*
X034181Y011802D03*
D31*
X034981Y007402D03*
X033181Y007402D03*
X033781Y027302D03*
X035581Y027302D03*
D32*
X037181Y027302D01*
X033781Y027302D02*
X032881Y027302D01*
X031481Y027302D01*
X030081Y027302D02*
X028681Y027302D01*
X019981Y030302D02*
X018181Y030302D01*
X016681Y030302D01*
X013181Y030302D01*
X013181Y025802D02*
X011181Y025802D01*
X009381Y025802D01*
X006981Y025802D02*
X005281Y025802D01*
X009181Y022902D02*
X009181Y022302D01*
X007681Y022302D01*
X006681Y022302D02*
X005281Y022302D01*
X009181Y022302D02*
X010681Y022302D01*
X011681Y022302D02*
X013181Y022302D01*
X013181Y023302D02*
X009581Y023302D01*
X009542Y023300D01*
X009503Y023294D01*
X009465Y023285D01*
X009428Y023272D01*
X009392Y023255D01*
X009359Y023235D01*
X009327Y023211D01*
X009298Y023185D01*
X009272Y023156D01*
X009248Y023124D01*
X009228Y023091D01*
X009211Y023055D01*
X009198Y023018D01*
X009189Y022980D01*
X009183Y022941D01*
X009181Y022902D01*
X011981Y018802D02*
X013181Y018802D01*
X011181Y012177D02*
X011181Y011427D01*
X011556Y011927D01*
X011681Y011802D02*
X011181Y011302D01*
X011181Y011427D01*
X011181Y011302D02*
X011181Y010802D01*
X010681Y010802D02*
X010681Y010177D01*
X010683Y010140D01*
X010688Y010104D01*
X010697Y010068D01*
X010710Y010033D01*
X010725Y010000D01*
X010744Y009969D01*
X010766Y009939D01*
X010791Y009912D01*
X010818Y009887D01*
X010848Y009865D01*
X010879Y009846D01*
X010912Y009831D01*
X010947Y009818D01*
X010983Y009809D01*
X011019Y009804D01*
X011056Y009802D01*
X013056Y009802D01*
X013081Y011202D02*
X011681Y010802D01*
X011681Y011102D02*
X013081Y011502D01*
X010181Y012177D02*
X010181Y010802D01*
X010181Y010302D02*
X010181Y008302D01*
X009181Y009927D02*
X009181Y010802D01*
X046181Y009702D02*
X046181Y008902D01*
X047181Y009802D02*
X047181Y007302D01*
X047981Y008802D02*
X050081Y008802D01*
X050081Y010302D02*
X048681Y009802D01*
X048681Y010102D02*
X050081Y010602D01*
X048581Y011002D02*
X048181Y010202D01*
X048181Y011302D01*
X048381Y011002D02*
X048181Y010102D01*
X048181Y010202D01*
X048181Y010102D02*
X048181Y009802D01*
X047681Y009802D02*
X047681Y009102D01*
X047683Y009068D01*
X047689Y009035D01*
X047698Y009003D01*
X047711Y008972D01*
X047727Y008942D01*
X047746Y008915D01*
X047769Y008890D01*
X047794Y008867D01*
X047821Y008848D01*
X047851Y008832D01*
X047882Y008819D01*
X047914Y008810D01*
X047947Y008804D01*
X047981Y008802D01*
X047181Y009802D02*
X047181Y011302D01*
X049481Y016602D02*
X049481Y017802D01*
X049581Y017202D01*
X049381Y017202D02*
X049481Y017802D01*
X049481Y018002D01*
X048981Y018102D02*
X048981Y020602D01*
X047981Y018902D02*
X047981Y018102D01*
X047481Y018102D02*
X047481Y017302D01*
X048481Y017302D02*
X048481Y018002D01*
X050481Y017902D02*
X050981Y017902D01*
X051281Y018102D02*
X050481Y018102D01*
X050481Y018302D02*
X051081Y018302D01*
X059081Y018902D02*
X059081Y023202D01*
X059081Y024802D01*
X056581Y024802D01*
X053081Y028302D01*
X051781Y028302D01*
X051181Y028302D01*
X051781Y028302D02*
X051781Y029402D01*
X050181Y028302D02*
X050181Y032302D01*
X057781Y027802D02*
X057781Y026702D01*
X057781Y025802D01*
X058481Y025802D02*
X058481Y026702D01*
X059181Y025802D02*
X059181Y028402D01*
X059181Y029302D01*
X060281Y026802D02*
X061881Y026802D01*
X060581Y025802D02*
X060281Y024002D01*
X060581Y023702D02*
X060581Y025702D01*
X060981Y024002D01*
X059781Y024802D02*
X059881Y025302D01*
X059881Y025802D01*
X059881Y026302D01*
X059878Y026344D01*
X059879Y026386D01*
X059884Y026427D01*
X059893Y026468D01*
X059906Y026508D01*
X059922Y026546D01*
X059942Y026583D01*
X059965Y026618D01*
X059991Y026651D01*
X060020Y026681D01*
X060051Y026708D01*
X060086Y026733D01*
X060122Y026754D01*
X060160Y026771D01*
X060199Y026785D01*
X060240Y026796D01*
X060281Y026802D01*
X060581Y025802D02*
X060581Y025702D01*
X059781Y024802D02*
X059081Y024802D01*
X061981Y025202D02*
X062981Y025202D01*
X059081Y018902D02*
X059083Y018863D01*
X059089Y018824D01*
X059098Y018786D01*
X059111Y018749D01*
X059128Y018713D01*
X059148Y018680D01*
X059172Y018648D01*
X059198Y018619D01*
X059227Y018593D01*
X059259Y018569D01*
X059292Y018549D01*
X059328Y018532D01*
X059365Y018519D01*
X059403Y018510D01*
X059442Y018504D01*
X059481Y018502D01*
X061681Y018502D01*
X061720Y018500D01*
X061759Y018494D01*
X061797Y018485D01*
X061834Y018472D01*
X061870Y018455D01*
X061903Y018435D01*
X061935Y018411D01*
X061964Y018385D01*
X061990Y018356D01*
X062014Y018324D01*
X062034Y018291D01*
X062051Y018255D01*
X062064Y018218D01*
X062073Y018180D01*
X062079Y018141D01*
X062081Y018102D01*
X062081Y014102D01*
X062079Y014068D01*
X062073Y014035D01*
X062064Y014003D01*
X062051Y013972D01*
X062035Y013942D01*
X062016Y013915D01*
X061993Y013890D01*
X061968Y013867D01*
X061941Y013848D01*
X061911Y013832D01*
X061880Y013819D01*
X061848Y013810D01*
X061815Y013804D01*
X061781Y013802D01*
X060481Y013802D01*
D33*
X005181Y003302D02*
X005181Y001302D01*
X025681Y001302D01*
X025681Y009302D01*
X008056Y009302D01*
X008056Y011677D01*
X010431Y011677D01*
X010431Y013302D01*
X009681Y014052D01*
X001181Y014052D01*
X001181Y005302D01*
X003181Y005302D01*
X005181Y003302D01*
X005181Y003259D02*
X025681Y003259D01*
X025681Y003357D02*
X005127Y003357D01*
X005028Y003456D02*
X025681Y003456D01*
X025681Y003554D02*
X004929Y003554D01*
X004831Y003653D02*
X025681Y003653D01*
X025681Y003751D02*
X004732Y003751D01*
X004634Y003850D02*
X025681Y003850D01*
X025681Y003948D02*
X004535Y003948D01*
X004437Y004047D02*
X025681Y004047D01*
X025681Y004146D02*
X004338Y004146D01*
X004240Y004244D02*
X025681Y004244D01*
X025681Y004343D02*
X004141Y004343D01*
X004043Y004441D02*
X025681Y004441D01*
X025681Y004540D02*
X003944Y004540D01*
X003846Y004638D02*
X025681Y004638D01*
X025681Y004737D02*
X003747Y004737D01*
X003648Y004835D02*
X025681Y004835D01*
X025681Y004934D02*
X003550Y004934D01*
X003451Y005032D02*
X025681Y005032D01*
X025681Y005131D02*
X003353Y005131D01*
X003254Y005230D02*
X025681Y005230D01*
X025681Y005328D02*
X001181Y005328D01*
X001181Y005427D02*
X025681Y005427D01*
X025681Y005525D02*
X001181Y005525D01*
X001181Y005624D02*
X025681Y005624D01*
X025681Y005722D02*
X001181Y005722D01*
X001181Y005821D02*
X025681Y005821D01*
X025681Y005919D02*
X001181Y005919D01*
X001181Y006018D02*
X025681Y006018D01*
X025681Y006116D02*
X001181Y006116D01*
X001181Y006215D02*
X025681Y006215D01*
X025681Y006314D02*
X001181Y006314D01*
X001181Y006412D02*
X025681Y006412D01*
X025681Y006511D02*
X001181Y006511D01*
X001181Y006609D02*
X025681Y006609D01*
X025681Y006708D02*
X001181Y006708D01*
X001181Y006806D02*
X025681Y006806D01*
X025681Y006905D02*
X001181Y006905D01*
X001181Y007003D02*
X025681Y007003D01*
X025681Y007102D02*
X001181Y007102D01*
X001181Y007200D02*
X025681Y007200D01*
X025681Y007299D02*
X001181Y007299D01*
X001181Y007397D02*
X025681Y007397D01*
X025681Y007496D02*
X001181Y007496D01*
X001181Y007595D02*
X025681Y007595D01*
X025681Y007693D02*
X001181Y007693D01*
X001181Y007792D02*
X025681Y007792D01*
X025681Y007890D02*
X001181Y007890D01*
X001181Y007989D02*
X025681Y007989D01*
X025681Y008087D02*
X001181Y008087D01*
X001181Y008186D02*
X025681Y008186D01*
X025681Y008284D02*
X001181Y008284D01*
X001181Y008383D02*
X025681Y008383D01*
X025681Y008481D02*
X001181Y008481D01*
X001181Y008580D02*
X025681Y008580D01*
X025681Y008679D02*
X001181Y008679D01*
X001181Y008777D02*
X025681Y008777D01*
X025681Y008876D02*
X001181Y008876D01*
X001181Y008974D02*
X025681Y008974D01*
X025681Y009073D02*
X001181Y009073D01*
X001181Y009171D02*
X025681Y009171D01*
X025681Y009270D02*
X001181Y009270D01*
X001181Y009368D02*
X008056Y009368D01*
X008056Y009467D02*
X001181Y009467D01*
X001181Y009565D02*
X008056Y009565D01*
X008056Y009664D02*
X001181Y009664D01*
X001181Y009763D02*
X008056Y009763D01*
X008056Y009861D02*
X001181Y009861D01*
X001181Y009960D02*
X008056Y009960D01*
X008056Y010058D02*
X001181Y010058D01*
X001181Y010157D02*
X008056Y010157D01*
X008056Y010255D02*
X001181Y010255D01*
X001181Y010354D02*
X008056Y010354D01*
X008056Y010452D02*
X001181Y010452D01*
X001181Y010551D02*
X008056Y010551D01*
X008056Y010649D02*
X001181Y010649D01*
X001181Y010748D02*
X008056Y010748D01*
X008056Y010846D02*
X001181Y010846D01*
X001181Y010945D02*
X008056Y010945D01*
X008056Y011044D02*
X001181Y011044D01*
X001181Y011142D02*
X008056Y011142D01*
X008056Y011241D02*
X001181Y011241D01*
X001181Y011339D02*
X008056Y011339D01*
X008056Y011438D02*
X001181Y011438D01*
X001181Y011536D02*
X008056Y011536D01*
X008056Y011635D02*
X001181Y011635D01*
X001181Y011733D02*
X010431Y011733D01*
X010431Y011832D02*
X001181Y011832D01*
X001181Y011930D02*
X010431Y011930D01*
X010431Y012029D02*
X001181Y012029D01*
X001181Y012128D02*
X010431Y012128D01*
X010431Y012226D02*
X001181Y012226D01*
X001181Y012325D02*
X010431Y012325D01*
X010431Y012423D02*
X001181Y012423D01*
X001181Y012522D02*
X010431Y012522D01*
X010431Y012620D02*
X001181Y012620D01*
X001181Y012719D02*
X010431Y012719D01*
X010431Y012817D02*
X001181Y012817D01*
X001181Y012916D02*
X010431Y012916D01*
X010431Y013014D02*
X001181Y013014D01*
X001181Y013113D02*
X010431Y013113D01*
X010431Y013212D02*
X001181Y013212D01*
X001181Y013310D02*
X010424Y013310D01*
X010325Y013409D02*
X001181Y013409D01*
X001181Y013507D02*
X010227Y013507D01*
X010128Y013606D02*
X001181Y013606D01*
X001181Y013704D02*
X010030Y013704D01*
X009931Y013803D02*
X001181Y013803D01*
X001181Y013901D02*
X009832Y013901D01*
X009734Y014000D02*
X001181Y014000D01*
X001181Y014552D02*
X001181Y040302D01*
X003181Y040302D01*
X005181Y042302D01*
X005181Y044302D01*
X017181Y044302D01*
X017181Y037302D01*
X005681Y037302D01*
X003681Y035302D01*
X003681Y019302D01*
X005681Y017302D01*
X011931Y017302D01*
X011931Y011677D01*
X010931Y011677D01*
X010931Y013427D01*
X009806Y014552D01*
X001181Y014552D01*
X001181Y014591D02*
X011931Y014591D01*
X011931Y014493D02*
X009866Y014493D01*
X009965Y014394D02*
X011931Y014394D01*
X011931Y014296D02*
X010063Y014296D01*
X010162Y014197D02*
X011931Y014197D01*
X011931Y014098D02*
X010260Y014098D01*
X010359Y014000D02*
X011931Y014000D01*
X011931Y013901D02*
X010457Y013901D01*
X010556Y013803D02*
X011931Y013803D01*
X011931Y013704D02*
X010655Y013704D01*
X010753Y013606D02*
X011931Y013606D01*
X011931Y013507D02*
X010852Y013507D01*
X010931Y013409D02*
X011931Y013409D01*
X011931Y013310D02*
X010931Y013310D01*
X010931Y013212D02*
X011931Y013212D01*
X011931Y013113D02*
X010931Y013113D01*
X010931Y013014D02*
X011931Y013014D01*
X011931Y012916D02*
X010931Y012916D01*
X010931Y012817D02*
X011931Y012817D01*
X011931Y012719D02*
X010931Y012719D01*
X010931Y012620D02*
X011931Y012620D01*
X011931Y012522D02*
X010931Y012522D01*
X010931Y012423D02*
X011931Y012423D01*
X011931Y012325D02*
X010931Y012325D01*
X010931Y012226D02*
X011931Y012226D01*
X011931Y012128D02*
X010931Y012128D01*
X010931Y012029D02*
X011931Y012029D01*
X011931Y011930D02*
X010931Y011930D01*
X010931Y011832D02*
X011931Y011832D01*
X011931Y011733D02*
X010931Y011733D01*
X012431Y011733D02*
X017431Y011733D01*
X017431Y011635D02*
X012431Y011635D01*
X012431Y011536D02*
X017431Y011536D01*
X017431Y011438D02*
X012431Y011438D01*
X012431Y011339D02*
X017431Y011339D01*
X017431Y011241D02*
X012431Y011241D01*
X012431Y011142D02*
X017431Y011142D01*
X017431Y011044D02*
X012431Y011044D01*
X012431Y010945D02*
X017431Y010945D01*
X017431Y010846D02*
X012431Y010846D01*
X012431Y010802D02*
X012431Y017302D01*
X022681Y017302D01*
X022681Y015052D01*
X018431Y015052D01*
X017431Y014052D01*
X017431Y009802D01*
X014056Y009802D01*
X014056Y010802D01*
X012431Y010802D01*
X012431Y011832D02*
X017431Y011832D01*
X017431Y011930D02*
X012431Y011930D01*
X012431Y012029D02*
X017431Y012029D01*
X017431Y012128D02*
X012431Y012128D01*
X012431Y012226D02*
X017431Y012226D01*
X017431Y012325D02*
X012431Y012325D01*
X012431Y012423D02*
X017431Y012423D01*
X017431Y012522D02*
X012431Y012522D01*
X012431Y012620D02*
X017431Y012620D01*
X017431Y012719D02*
X012431Y012719D01*
X012431Y012817D02*
X017431Y012817D01*
X017431Y012916D02*
X012431Y012916D01*
X012431Y013014D02*
X017431Y013014D01*
X017431Y013113D02*
X012431Y013113D01*
X012431Y013212D02*
X017431Y013212D01*
X017431Y013310D02*
X012431Y013310D01*
X012431Y013409D02*
X017431Y013409D01*
X017431Y013507D02*
X012431Y013507D01*
X012431Y013606D02*
X017431Y013606D01*
X017431Y013704D02*
X012431Y013704D01*
X012431Y013803D02*
X017431Y013803D01*
X017431Y013901D02*
X012431Y013901D01*
X012431Y014000D02*
X017431Y014000D01*
X017477Y014098D02*
X012431Y014098D01*
X012431Y014197D02*
X017576Y014197D01*
X017675Y014296D02*
X012431Y014296D01*
X012431Y014394D02*
X017773Y014394D01*
X017872Y014493D02*
X012431Y014493D01*
X012431Y014591D02*
X017970Y014591D01*
X018069Y014690D02*
X012431Y014690D01*
X012431Y014788D02*
X018167Y014788D01*
X018266Y014887D02*
X012431Y014887D01*
X012431Y014985D02*
X018364Y014985D01*
X018556Y014552D02*
X023181Y014552D01*
X023181Y017302D01*
X025681Y017302D01*
X025681Y009802D01*
X017931Y009802D01*
X017931Y013927D01*
X018556Y014552D01*
X018497Y014493D02*
X025681Y014493D01*
X025681Y014591D02*
X023181Y014591D01*
X023181Y014690D02*
X025681Y014690D01*
X025681Y014788D02*
X023181Y014788D01*
X023181Y014887D02*
X025681Y014887D01*
X025681Y014985D02*
X023181Y014985D01*
X023181Y015084D02*
X025681Y015084D01*
X025681Y015182D02*
X023181Y015182D01*
X023181Y015281D02*
X025681Y015281D01*
X025681Y015379D02*
X023181Y015379D01*
X023181Y015478D02*
X025681Y015478D01*
X025681Y015577D02*
X023181Y015577D01*
X023181Y015675D02*
X025681Y015675D01*
X025681Y015774D02*
X023181Y015774D01*
X023181Y015872D02*
X025681Y015872D01*
X025681Y015971D02*
X023181Y015971D01*
X023181Y016069D02*
X025681Y016069D01*
X025681Y016168D02*
X023181Y016168D01*
X023181Y016266D02*
X025681Y016266D01*
X025681Y016365D02*
X023181Y016365D01*
X023181Y016463D02*
X025681Y016463D01*
X025681Y016562D02*
X023181Y016562D01*
X023181Y016661D02*
X025681Y016661D01*
X025681Y016759D02*
X023181Y016759D01*
X023181Y016858D02*
X025681Y016858D01*
X025681Y016956D02*
X023181Y016956D01*
X023181Y017055D02*
X025681Y017055D01*
X025681Y017153D02*
X023181Y017153D01*
X023181Y017252D02*
X025681Y017252D01*
X025681Y017802D02*
X015181Y017802D01*
X015181Y026802D01*
X025681Y026802D01*
X025681Y017802D01*
X025681Y017843D02*
X015181Y017843D01*
X015181Y017942D02*
X025681Y017942D01*
X025681Y018040D02*
X015181Y018040D01*
X015181Y018139D02*
X025681Y018139D01*
X025681Y018237D02*
X015181Y018237D01*
X015181Y018336D02*
X025681Y018336D01*
X025681Y018434D02*
X015181Y018434D01*
X015181Y018533D02*
X025681Y018533D01*
X025681Y018631D02*
X015181Y018631D01*
X015181Y018730D02*
X025681Y018730D01*
X025681Y018829D02*
X015181Y018829D01*
X015181Y018927D02*
X025681Y018927D01*
X025681Y019026D02*
X015181Y019026D01*
X015181Y019124D02*
X025681Y019124D01*
X025681Y019223D02*
X015181Y019223D01*
X015181Y019321D02*
X025681Y019321D01*
X025681Y019420D02*
X015181Y019420D01*
X015181Y019518D02*
X025681Y019518D01*
X025681Y019617D02*
X015181Y019617D01*
X015181Y019715D02*
X025681Y019715D01*
X025681Y019814D02*
X015181Y019814D01*
X015181Y019912D02*
X025681Y019912D01*
X025681Y020011D02*
X015181Y020011D01*
X015181Y020110D02*
X025681Y020110D01*
X025681Y020208D02*
X015181Y020208D01*
X015181Y020307D02*
X025681Y020307D01*
X025681Y020405D02*
X015181Y020405D01*
X015181Y020504D02*
X025681Y020504D01*
X025681Y020602D02*
X015181Y020602D01*
X015181Y020701D02*
X025681Y020701D01*
X025681Y020799D02*
X015181Y020799D01*
X015181Y020898D02*
X025681Y020898D01*
X025681Y020996D02*
X015181Y020996D01*
X015181Y021095D02*
X025681Y021095D01*
X025681Y021194D02*
X015181Y021194D01*
X015181Y021292D02*
X025681Y021292D01*
X025681Y021391D02*
X015181Y021391D01*
X015181Y021489D02*
X025681Y021489D01*
X025681Y021588D02*
X015181Y021588D01*
X015181Y021686D02*
X025681Y021686D01*
X025681Y021785D02*
X015181Y021785D01*
X015181Y021883D02*
X025681Y021883D01*
X025681Y021982D02*
X015181Y021982D01*
X015181Y022080D02*
X025681Y022080D01*
X025681Y022179D02*
X015181Y022179D01*
X015181Y022278D02*
X025681Y022278D01*
X025681Y022376D02*
X015181Y022376D01*
X015181Y022475D02*
X025681Y022475D01*
X025681Y022573D02*
X015181Y022573D01*
X015181Y022672D02*
X025681Y022672D01*
X025681Y022770D02*
X015181Y022770D01*
X015181Y022869D02*
X025681Y022869D01*
X025681Y022967D02*
X015181Y022967D01*
X015181Y023066D02*
X025681Y023066D01*
X025681Y023164D02*
X015181Y023164D01*
X015181Y023263D02*
X025681Y023263D01*
X025681Y023361D02*
X015181Y023361D01*
X015181Y023460D02*
X025681Y023460D01*
X025681Y023559D02*
X015181Y023559D01*
X015181Y023657D02*
X025681Y023657D01*
X025681Y023756D02*
X015181Y023756D01*
X015181Y023854D02*
X025681Y023854D01*
X025681Y023953D02*
X015181Y023953D01*
X015181Y024051D02*
X025681Y024051D01*
X025681Y024150D02*
X015181Y024150D01*
X015181Y024248D02*
X025681Y024248D01*
X025681Y024347D02*
X015181Y024347D01*
X015181Y024445D02*
X025681Y024445D01*
X025681Y024544D02*
X015181Y024544D01*
X015181Y024643D02*
X025681Y024643D01*
X025681Y024741D02*
X015181Y024741D01*
X015181Y024840D02*
X025681Y024840D01*
X025681Y024938D02*
X015181Y024938D01*
X015181Y025037D02*
X025681Y025037D01*
X025681Y025135D02*
X015181Y025135D01*
X015181Y025234D02*
X025681Y025234D01*
X025681Y025332D02*
X015181Y025332D01*
X015181Y025431D02*
X025681Y025431D01*
X025681Y025529D02*
X015181Y025529D01*
X015181Y025628D02*
X025681Y025628D01*
X025681Y025727D02*
X015181Y025727D01*
X015181Y025825D02*
X025681Y025825D01*
X025681Y025924D02*
X015181Y025924D01*
X015181Y026022D02*
X025681Y026022D01*
X025681Y026121D02*
X015181Y026121D01*
X015181Y026219D02*
X025681Y026219D01*
X025681Y026318D02*
X015181Y026318D01*
X015181Y026416D02*
X025681Y026416D01*
X025681Y026515D02*
X015181Y026515D01*
X015181Y026613D02*
X025681Y026613D01*
X025681Y026712D02*
X015181Y026712D01*
X015181Y027302D02*
X015181Y035802D01*
X019081Y035802D01*
X019081Y034302D01*
X023681Y034302D01*
X023681Y036802D01*
X025681Y036802D01*
X025681Y027302D01*
X015181Y027302D01*
X015181Y027303D02*
X025681Y027303D01*
X025681Y027402D02*
X015181Y027402D01*
X015181Y027500D02*
X025681Y027500D01*
X025681Y027599D02*
X015181Y027599D01*
X015181Y027697D02*
X025681Y027697D01*
X025681Y027796D02*
X015181Y027796D01*
X015181Y027894D02*
X025681Y027894D01*
X025681Y027993D02*
X015181Y027993D01*
X015181Y028092D02*
X025681Y028092D01*
X025681Y028190D02*
X015181Y028190D01*
X015181Y028289D02*
X025681Y028289D01*
X025681Y028387D02*
X015181Y028387D01*
X015181Y028486D02*
X025681Y028486D01*
X025681Y028584D02*
X015181Y028584D01*
X015181Y028683D02*
X025681Y028683D01*
X025681Y028781D02*
X015181Y028781D01*
X015181Y028880D02*
X025681Y028880D01*
X025681Y028978D02*
X015181Y028978D01*
X015181Y029077D02*
X025681Y029077D01*
X025681Y029176D02*
X015181Y029176D01*
X015181Y029274D02*
X025681Y029274D01*
X025681Y029373D02*
X015181Y029373D01*
X015181Y029471D02*
X025681Y029471D01*
X025681Y029570D02*
X015181Y029570D01*
X015181Y029668D02*
X025681Y029668D01*
X025681Y029767D02*
X015181Y029767D01*
X015181Y029865D02*
X025681Y029865D01*
X025681Y029964D02*
X015181Y029964D01*
X015181Y030062D02*
X025681Y030062D01*
X025681Y030161D02*
X015181Y030161D01*
X015181Y030260D02*
X025681Y030260D01*
X025681Y030358D02*
X015181Y030358D01*
X015181Y030457D02*
X025681Y030457D01*
X025681Y030555D02*
X015181Y030555D01*
X015181Y030654D02*
X025681Y030654D01*
X025681Y030752D02*
X015181Y030752D01*
X015181Y030851D02*
X025681Y030851D01*
X025681Y030949D02*
X015181Y030949D01*
X015181Y031048D02*
X025681Y031048D01*
X025681Y031146D02*
X015181Y031146D01*
X015181Y031245D02*
X025681Y031245D01*
X025681Y031344D02*
X015181Y031344D01*
X015181Y031442D02*
X025681Y031442D01*
X025681Y031541D02*
X015181Y031541D01*
X015181Y031639D02*
X025681Y031639D01*
X025681Y031738D02*
X015181Y031738D01*
X015181Y031836D02*
X025681Y031836D01*
X025681Y031935D02*
X015181Y031935D01*
X015181Y032033D02*
X025681Y032033D01*
X025681Y032132D02*
X015181Y032132D01*
X015181Y032230D02*
X025681Y032230D01*
X025681Y032329D02*
X015181Y032329D01*
X015181Y032427D02*
X025681Y032427D01*
X025681Y032526D02*
X015181Y032526D01*
X015181Y032625D02*
X025681Y032625D01*
X025681Y032723D02*
X015181Y032723D01*
X015181Y032822D02*
X025681Y032822D01*
X025681Y032920D02*
X015181Y032920D01*
X015181Y033019D02*
X025681Y033019D01*
X025681Y033117D02*
X015181Y033117D01*
X015181Y033216D02*
X025681Y033216D01*
X025681Y033314D02*
X015181Y033314D01*
X015181Y033413D02*
X025681Y033413D01*
X025681Y033511D02*
X015181Y033511D01*
X015181Y033610D02*
X025681Y033610D01*
X025681Y033709D02*
X015181Y033709D01*
X015181Y033807D02*
X025681Y033807D01*
X025681Y033906D02*
X015181Y033906D01*
X015181Y034004D02*
X025681Y034004D01*
X025681Y034103D02*
X015181Y034103D01*
X015181Y034201D02*
X025681Y034201D01*
X025681Y034300D02*
X015181Y034300D01*
X015181Y034398D02*
X019081Y034398D01*
X019081Y034497D02*
X015181Y034497D01*
X015181Y034595D02*
X019081Y034595D01*
X019081Y034694D02*
X015181Y034694D01*
X015181Y034793D02*
X019081Y034793D01*
X019081Y034891D02*
X015181Y034891D01*
X015181Y034990D02*
X019081Y034990D01*
X019081Y035088D02*
X015181Y035088D01*
X015181Y035187D02*
X019081Y035187D01*
X019081Y035285D02*
X015181Y035285D01*
X015181Y035384D02*
X019081Y035384D01*
X019081Y035482D02*
X015181Y035482D01*
X015181Y035581D02*
X019081Y035581D01*
X019081Y035679D02*
X015181Y035679D01*
X015181Y035778D02*
X019081Y035778D01*
X019581Y035778D02*
X023181Y035778D01*
X023181Y035876D02*
X019581Y035876D01*
X019581Y035975D02*
X023181Y035975D01*
X023181Y036074D02*
X019581Y036074D01*
X019581Y036172D02*
X023181Y036172D01*
X023181Y036271D02*
X019581Y036271D01*
X019581Y036369D02*
X023181Y036369D01*
X023181Y036468D02*
X019581Y036468D01*
X019581Y036566D02*
X023181Y036566D01*
X023181Y036665D02*
X019581Y036665D01*
X019581Y036763D02*
X023181Y036763D01*
X023181Y036862D02*
X019581Y036862D01*
X019581Y036960D02*
X023181Y036960D01*
X023181Y037059D02*
X019581Y037059D01*
X019581Y037158D02*
X023181Y037158D01*
X023181Y037256D02*
X019581Y037256D01*
X019581Y037302D02*
X017781Y037302D01*
X017781Y044302D01*
X025681Y044302D01*
X025681Y037302D01*
X023181Y037302D01*
X023181Y034752D01*
X019581Y034752D01*
X019581Y037302D01*
X017781Y037355D02*
X025681Y037355D01*
X025681Y037453D02*
X017781Y037453D01*
X017781Y037552D02*
X025681Y037552D01*
X025681Y037650D02*
X017781Y037650D01*
X017781Y037749D02*
X025681Y037749D01*
X025681Y037847D02*
X017781Y037847D01*
X017781Y037946D02*
X025681Y037946D01*
X025681Y038044D02*
X017781Y038044D01*
X017781Y038143D02*
X025681Y038143D01*
X025681Y038242D02*
X017781Y038242D01*
X017781Y038340D02*
X025681Y038340D01*
X025681Y038439D02*
X017781Y038439D01*
X017781Y038537D02*
X025681Y038537D01*
X025681Y038636D02*
X017781Y038636D01*
X017781Y038734D02*
X025681Y038734D01*
X025681Y038833D02*
X017781Y038833D01*
X017781Y038931D02*
X025681Y038931D01*
X025681Y039030D02*
X017781Y039030D01*
X017781Y039128D02*
X025681Y039128D01*
X025681Y039227D02*
X017781Y039227D01*
X017781Y039326D02*
X025681Y039326D01*
X025681Y039424D02*
X017781Y039424D01*
X017781Y039523D02*
X025681Y039523D01*
X025681Y039621D02*
X023120Y039621D01*
X023117Y039620D02*
X023368Y039724D01*
X023560Y039916D01*
X023664Y040167D01*
X023664Y040438D01*
X023560Y040689D01*
X023368Y040881D01*
X023117Y040985D01*
X022846Y040985D01*
X022595Y040881D01*
X022403Y040689D01*
X022299Y040438D01*
X022299Y040167D01*
X022403Y039916D01*
X022595Y039724D01*
X022846Y039620D01*
X023117Y039620D01*
X023358Y039720D02*
X025681Y039720D01*
X025681Y039818D02*
X023462Y039818D01*
X023560Y039917D02*
X025681Y039917D01*
X025681Y040015D02*
X023601Y040015D01*
X023642Y040114D02*
X025681Y040114D01*
X025681Y040212D02*
X023664Y040212D01*
X023664Y040311D02*
X025681Y040311D01*
X025681Y040409D02*
X023664Y040409D01*
X023635Y040508D02*
X025681Y040508D01*
X025681Y040607D02*
X023594Y040607D01*
X023544Y040705D02*
X025681Y040705D01*
X025681Y040804D02*
X023445Y040804D01*
X023316Y040902D02*
X025681Y040902D01*
X025681Y041001D02*
X017781Y041001D01*
X017781Y041099D02*
X025681Y041099D01*
X025681Y041198D02*
X017781Y041198D01*
X017781Y041296D02*
X025681Y041296D01*
X025681Y041395D02*
X017781Y041395D01*
X017781Y041493D02*
X025681Y041493D01*
X025681Y041592D02*
X017781Y041592D01*
X017781Y041691D02*
X025681Y041691D01*
X025681Y041789D02*
X017781Y041789D01*
X017781Y041888D02*
X025681Y041888D01*
X025681Y041986D02*
X017781Y041986D01*
X017781Y042085D02*
X025681Y042085D01*
X025681Y042183D02*
X017781Y042183D01*
X017781Y042282D02*
X025681Y042282D01*
X025681Y042380D02*
X017781Y042380D01*
X017781Y042479D02*
X025681Y042479D01*
X025681Y042577D02*
X017781Y042577D01*
X017781Y042676D02*
X025681Y042676D01*
X025681Y042775D02*
X017781Y042775D01*
X017781Y042873D02*
X025681Y042873D01*
X025681Y042972D02*
X017781Y042972D01*
X017781Y043070D02*
X025681Y043070D01*
X025681Y043169D02*
X017781Y043169D01*
X017781Y043267D02*
X025681Y043267D01*
X025681Y043366D02*
X017781Y043366D01*
X017781Y043464D02*
X025681Y043464D01*
X025681Y043563D02*
X017781Y043563D01*
X017781Y043661D02*
X025681Y043661D01*
X025681Y043760D02*
X017781Y043760D01*
X017781Y043859D02*
X025681Y043859D01*
X025681Y043957D02*
X017781Y043957D01*
X017781Y044056D02*
X025681Y044056D01*
X025681Y044154D02*
X017781Y044154D01*
X017781Y044253D02*
X025681Y044253D01*
X022646Y040902D02*
X017781Y040902D01*
X017781Y040804D02*
X022518Y040804D01*
X022419Y040705D02*
X017781Y040705D01*
X017781Y040607D02*
X022369Y040607D01*
X022328Y040508D02*
X017781Y040508D01*
X017781Y040409D02*
X022299Y040409D01*
X022299Y040311D02*
X017781Y040311D01*
X017781Y040212D02*
X022299Y040212D01*
X022321Y040114D02*
X017781Y040114D01*
X017781Y040015D02*
X022362Y040015D01*
X022402Y039917D02*
X017781Y039917D01*
X017781Y039818D02*
X022500Y039818D01*
X022605Y039720D02*
X017781Y039720D01*
X017781Y039621D02*
X022843Y039621D01*
X023681Y036763D02*
X025681Y036763D01*
X025681Y036665D02*
X023681Y036665D01*
X023681Y036566D02*
X025681Y036566D01*
X025681Y036468D02*
X023681Y036468D01*
X023681Y036369D02*
X025681Y036369D01*
X025681Y036271D02*
X023681Y036271D01*
X023681Y036172D02*
X025681Y036172D01*
X025681Y036074D02*
X023681Y036074D01*
X023681Y035975D02*
X025681Y035975D01*
X025681Y035876D02*
X023681Y035876D01*
X023681Y035778D02*
X025681Y035778D01*
X025681Y035679D02*
X023681Y035679D01*
X023681Y035581D02*
X025681Y035581D01*
X025681Y035482D02*
X023681Y035482D01*
X023681Y035384D02*
X025681Y035384D01*
X025681Y035285D02*
X023681Y035285D01*
X023681Y035187D02*
X025681Y035187D01*
X025681Y035088D02*
X023681Y035088D01*
X023681Y034990D02*
X025681Y034990D01*
X025681Y034891D02*
X023681Y034891D01*
X023681Y034793D02*
X025681Y034793D01*
X025681Y034694D02*
X023681Y034694D01*
X023681Y034595D02*
X025681Y034595D01*
X025681Y034497D02*
X023681Y034497D01*
X023681Y034398D02*
X025681Y034398D01*
X023181Y034793D02*
X019581Y034793D01*
X019581Y034891D02*
X023181Y034891D01*
X023181Y034990D02*
X019581Y034990D01*
X019581Y035088D02*
X023181Y035088D01*
X023181Y035187D02*
X019581Y035187D01*
X019581Y035285D02*
X023181Y035285D01*
X023181Y035384D02*
X019581Y035384D01*
X019581Y035482D02*
X023181Y035482D01*
X023181Y035581D02*
X019581Y035581D01*
X019581Y035679D02*
X023181Y035679D01*
X017181Y037355D02*
X001181Y037355D01*
X001181Y037453D02*
X017181Y037453D01*
X017181Y037552D02*
X001181Y037552D01*
X001181Y037650D02*
X017181Y037650D01*
X017181Y037749D02*
X001181Y037749D01*
X001181Y037847D02*
X017181Y037847D01*
X017181Y037946D02*
X001181Y037946D01*
X001181Y038044D02*
X017181Y038044D01*
X017181Y038143D02*
X001181Y038143D01*
X001181Y038242D02*
X017181Y038242D01*
X017181Y038340D02*
X001181Y038340D01*
X001181Y038439D02*
X017181Y038439D01*
X017181Y038537D02*
X001181Y038537D01*
X001181Y038636D02*
X017181Y038636D01*
X017181Y038734D02*
X001181Y038734D01*
X001181Y038833D02*
X017181Y038833D01*
X017181Y038931D02*
X001181Y038931D01*
X001181Y039030D02*
X017181Y039030D01*
X017181Y039128D02*
X001181Y039128D01*
X001181Y039227D02*
X017181Y039227D01*
X017181Y039326D02*
X001181Y039326D01*
X001181Y039424D02*
X017181Y039424D01*
X017181Y039523D02*
X001181Y039523D01*
X001181Y039621D02*
X008843Y039621D01*
X008846Y039620D02*
X009117Y039620D01*
X009368Y039724D01*
X009560Y039916D01*
X009664Y040167D01*
X009664Y040438D01*
X009560Y040689D01*
X009368Y040881D01*
X009117Y040985D01*
X008846Y040985D01*
X008595Y040881D01*
X008403Y040689D01*
X008299Y040438D01*
X008299Y040167D01*
X008403Y039916D01*
X008595Y039724D01*
X008846Y039620D01*
X008605Y039720D02*
X001181Y039720D01*
X001181Y039818D02*
X008500Y039818D01*
X008402Y039917D02*
X001181Y039917D01*
X001181Y040015D02*
X008362Y040015D01*
X008321Y040114D02*
X001181Y040114D01*
X001181Y040212D02*
X008299Y040212D01*
X008299Y040311D02*
X003190Y040311D01*
X003289Y040409D02*
X008299Y040409D01*
X008328Y040508D02*
X003387Y040508D01*
X003486Y040607D02*
X008369Y040607D01*
X008419Y040705D02*
X003584Y040705D01*
X003683Y040804D02*
X008518Y040804D01*
X008646Y040902D02*
X003781Y040902D01*
X003880Y041001D02*
X017181Y041001D01*
X017181Y041099D02*
X003978Y041099D01*
X004077Y041198D02*
X017181Y041198D01*
X017181Y041296D02*
X004175Y041296D01*
X004274Y041395D02*
X017181Y041395D01*
X017181Y041493D02*
X004373Y041493D01*
X004471Y041592D02*
X017181Y041592D01*
X017181Y041691D02*
X004570Y041691D01*
X004668Y041789D02*
X017181Y041789D01*
X017181Y041888D02*
X004767Y041888D01*
X004865Y041986D02*
X017181Y041986D01*
X017181Y042085D02*
X004964Y042085D01*
X005062Y042183D02*
X017181Y042183D01*
X017181Y042282D02*
X005161Y042282D01*
X005181Y042380D02*
X017181Y042380D01*
X017181Y042479D02*
X005181Y042479D01*
X005181Y042577D02*
X017181Y042577D01*
X017181Y042676D02*
X005181Y042676D01*
X005181Y042775D02*
X017181Y042775D01*
X017181Y042873D02*
X005181Y042873D01*
X005181Y042972D02*
X017181Y042972D01*
X017181Y043070D02*
X005181Y043070D01*
X005181Y043169D02*
X017181Y043169D01*
X017181Y043267D02*
X005181Y043267D01*
X005181Y043366D02*
X017181Y043366D01*
X017181Y043464D02*
X005181Y043464D01*
X005181Y043563D02*
X017181Y043563D01*
X017181Y043661D02*
X005181Y043661D01*
X005181Y043760D02*
X017181Y043760D01*
X017181Y043859D02*
X005181Y043859D01*
X005181Y043957D02*
X017181Y043957D01*
X017181Y044056D02*
X005181Y044056D01*
X005181Y044154D02*
X017181Y044154D01*
X017181Y044253D02*
X005181Y044253D01*
X009316Y040902D02*
X015646Y040902D01*
X015595Y040881D02*
X015403Y040689D01*
X015299Y040438D01*
X015299Y040167D01*
X015403Y039916D01*
X015595Y039724D01*
X015846Y039620D01*
X016117Y039620D01*
X016368Y039724D01*
X016560Y039916D01*
X016664Y040167D01*
X016664Y040438D01*
X016560Y040689D01*
X016368Y040881D01*
X016117Y040985D01*
X015846Y040985D01*
X015595Y040881D01*
X015518Y040804D02*
X009445Y040804D01*
X009544Y040705D02*
X015419Y040705D01*
X015369Y040607D02*
X009594Y040607D01*
X009635Y040508D02*
X015328Y040508D01*
X015299Y040409D02*
X009664Y040409D01*
X009664Y040311D02*
X015299Y040311D01*
X015299Y040212D02*
X009664Y040212D01*
X009642Y040114D02*
X015321Y040114D01*
X015362Y040015D02*
X009601Y040015D01*
X009560Y039917D02*
X015402Y039917D01*
X015500Y039818D02*
X009462Y039818D01*
X009358Y039720D02*
X015605Y039720D01*
X015843Y039621D02*
X009120Y039621D01*
X005635Y037256D02*
X001181Y037256D01*
X001181Y037158D02*
X005537Y037158D01*
X005438Y037059D02*
X001181Y037059D01*
X001181Y036960D02*
X005340Y036960D01*
X005241Y036862D02*
X001181Y036862D01*
X001181Y036763D02*
X005142Y036763D01*
X005044Y036665D02*
X001181Y036665D01*
X001181Y036566D02*
X004945Y036566D01*
X004847Y036468D02*
X001181Y036468D01*
X001181Y036369D02*
X004748Y036369D01*
X004650Y036271D02*
X001181Y036271D01*
X001181Y036172D02*
X004551Y036172D01*
X004453Y036074D02*
X001181Y036074D01*
X001181Y035975D02*
X004354Y035975D01*
X004256Y035876D02*
X001181Y035876D01*
X001181Y035778D02*
X004157Y035778D01*
X004058Y035679D02*
X001181Y035679D01*
X001181Y035581D02*
X003960Y035581D01*
X003861Y035482D02*
X001181Y035482D01*
X001181Y035384D02*
X003763Y035384D01*
X003681Y035285D02*
X001181Y035285D01*
X001181Y035187D02*
X003681Y035187D01*
X003681Y035088D02*
X001181Y035088D01*
X001181Y034990D02*
X003681Y034990D01*
X003681Y034891D02*
X001181Y034891D01*
X001181Y034793D02*
X003681Y034793D01*
X003681Y034694D02*
X001181Y034694D01*
X001181Y034595D02*
X003681Y034595D01*
X003681Y034497D02*
X001181Y034497D01*
X001181Y034398D02*
X003681Y034398D01*
X003681Y034300D02*
X001181Y034300D01*
X001181Y034201D02*
X003681Y034201D01*
X003681Y034103D02*
X001181Y034103D01*
X001181Y034004D02*
X003681Y034004D01*
X003681Y033906D02*
X001181Y033906D01*
X001181Y033807D02*
X003681Y033807D01*
X003681Y033709D02*
X001181Y033709D01*
X001181Y033610D02*
X003681Y033610D01*
X003681Y033511D02*
X001181Y033511D01*
X001181Y033413D02*
X003681Y033413D01*
X003681Y033314D02*
X001181Y033314D01*
X001181Y033216D02*
X003681Y033216D01*
X003681Y033117D02*
X001181Y033117D01*
X001181Y033019D02*
X003681Y033019D01*
X003681Y032920D02*
X001181Y032920D01*
X001181Y032822D02*
X003681Y032822D01*
X003681Y032723D02*
X001181Y032723D01*
X001181Y032625D02*
X003681Y032625D01*
X003681Y032526D02*
X001181Y032526D01*
X001181Y032427D02*
X003681Y032427D01*
X003681Y032329D02*
X001181Y032329D01*
X001181Y032230D02*
X003681Y032230D01*
X003681Y032132D02*
X001181Y032132D01*
X001181Y032033D02*
X003681Y032033D01*
X003681Y031935D02*
X001181Y031935D01*
X001181Y031836D02*
X003681Y031836D01*
X003681Y031738D02*
X001181Y031738D01*
X001181Y031639D02*
X003681Y031639D01*
X003681Y031541D02*
X001181Y031541D01*
X001181Y031442D02*
X003681Y031442D01*
X003681Y031344D02*
X001181Y031344D01*
X001181Y031245D02*
X003681Y031245D01*
X003681Y031146D02*
X001181Y031146D01*
X001181Y031048D02*
X003681Y031048D01*
X003681Y030949D02*
X001181Y030949D01*
X001181Y030851D02*
X003681Y030851D01*
X003681Y030752D02*
X001181Y030752D01*
X001181Y030654D02*
X003681Y030654D01*
X003681Y030555D02*
X001181Y030555D01*
X001181Y030457D02*
X003681Y030457D01*
X003681Y030358D02*
X001181Y030358D01*
X001181Y030260D02*
X003681Y030260D01*
X003681Y030161D02*
X001181Y030161D01*
X001181Y030062D02*
X003681Y030062D01*
X003681Y029964D02*
X001181Y029964D01*
X001181Y029865D02*
X003681Y029865D01*
X003681Y029767D02*
X001181Y029767D01*
X001181Y029668D02*
X003681Y029668D01*
X003681Y029570D02*
X001181Y029570D01*
X001181Y029471D02*
X003681Y029471D01*
X003681Y029373D02*
X001181Y029373D01*
X001181Y029274D02*
X003681Y029274D01*
X003681Y029176D02*
X001181Y029176D01*
X001181Y029077D02*
X003681Y029077D01*
X003681Y028978D02*
X001181Y028978D01*
X001181Y028880D02*
X003681Y028880D01*
X003681Y028781D02*
X001181Y028781D01*
X001181Y028683D02*
X003681Y028683D01*
X003681Y028584D02*
X001181Y028584D01*
X001181Y028486D02*
X003681Y028486D01*
X003681Y028387D02*
X001181Y028387D01*
X001181Y028289D02*
X003681Y028289D01*
X003681Y028190D02*
X001181Y028190D01*
X001181Y028092D02*
X003681Y028092D01*
X003681Y027993D02*
X001181Y027993D01*
X001181Y027894D02*
X003681Y027894D01*
X003681Y027796D02*
X001181Y027796D01*
X001181Y027697D02*
X003681Y027697D01*
X003681Y027599D02*
X001181Y027599D01*
X001181Y027500D02*
X003681Y027500D01*
X003681Y027402D02*
X001181Y027402D01*
X001181Y027303D02*
X003681Y027303D01*
X003681Y027205D02*
X001181Y027205D01*
X001181Y027106D02*
X003681Y027106D01*
X003681Y027008D02*
X001181Y027008D01*
X001181Y026909D02*
X003681Y026909D01*
X003681Y026811D02*
X001181Y026811D01*
X001181Y026712D02*
X003681Y026712D01*
X003681Y026613D02*
X001181Y026613D01*
X001181Y026515D02*
X003681Y026515D01*
X003681Y026416D02*
X001181Y026416D01*
X001181Y026318D02*
X003681Y026318D01*
X003681Y026219D02*
X001181Y026219D01*
X001181Y026121D02*
X003681Y026121D01*
X003681Y026022D02*
X001181Y026022D01*
X001181Y025924D02*
X003681Y025924D01*
X003681Y025825D02*
X001181Y025825D01*
X001181Y025727D02*
X003681Y025727D01*
X003681Y025628D02*
X001181Y025628D01*
X001181Y025529D02*
X003681Y025529D01*
X003681Y025431D02*
X001181Y025431D01*
X001181Y025332D02*
X003681Y025332D01*
X003681Y025234D02*
X001181Y025234D01*
X001181Y025135D02*
X003681Y025135D01*
X003681Y025037D02*
X001181Y025037D01*
X001181Y024938D02*
X003681Y024938D01*
X003681Y024840D02*
X001181Y024840D01*
X001181Y024741D02*
X003681Y024741D01*
X003681Y024643D02*
X001181Y024643D01*
X001181Y024544D02*
X003681Y024544D01*
X003681Y024445D02*
X001181Y024445D01*
X001181Y024347D02*
X003681Y024347D01*
X003681Y024248D02*
X001181Y024248D01*
X001181Y024150D02*
X003681Y024150D01*
X003681Y024051D02*
X001181Y024051D01*
X001181Y023953D02*
X003681Y023953D01*
X003681Y023854D02*
X001181Y023854D01*
X001181Y023756D02*
X003681Y023756D01*
X003681Y023657D02*
X001181Y023657D01*
X001181Y023559D02*
X003681Y023559D01*
X003681Y023460D02*
X001181Y023460D01*
X001181Y023361D02*
X003681Y023361D01*
X003681Y023263D02*
X001181Y023263D01*
X001181Y023164D02*
X003681Y023164D01*
X003681Y023066D02*
X001181Y023066D01*
X001181Y022967D02*
X003681Y022967D01*
X003681Y022869D02*
X001181Y022869D01*
X001181Y022770D02*
X003681Y022770D01*
X003681Y022672D02*
X001181Y022672D01*
X001181Y022573D02*
X003681Y022573D01*
X003681Y022475D02*
X001181Y022475D01*
X001181Y022376D02*
X003681Y022376D01*
X003681Y022278D02*
X001181Y022278D01*
X001181Y022179D02*
X003681Y022179D01*
X003681Y022080D02*
X001181Y022080D01*
X001181Y021982D02*
X003681Y021982D01*
X003681Y021883D02*
X001181Y021883D01*
X001181Y021785D02*
X003681Y021785D01*
X003681Y021686D02*
X001181Y021686D01*
X001181Y021588D02*
X003681Y021588D01*
X003681Y021489D02*
X001181Y021489D01*
X001181Y021391D02*
X003681Y021391D01*
X003681Y021292D02*
X001181Y021292D01*
X001181Y021194D02*
X003681Y021194D01*
X003681Y021095D02*
X001181Y021095D01*
X001181Y020996D02*
X003681Y020996D01*
X003681Y020898D02*
X001181Y020898D01*
X001181Y020799D02*
X003681Y020799D01*
X003681Y020701D02*
X001181Y020701D01*
X001181Y020602D02*
X003681Y020602D01*
X003681Y020504D02*
X001181Y020504D01*
X001181Y020405D02*
X003681Y020405D01*
X003681Y020307D02*
X001181Y020307D01*
X001181Y020208D02*
X003681Y020208D01*
X003681Y020110D02*
X001181Y020110D01*
X001181Y020011D02*
X003681Y020011D01*
X003681Y019912D02*
X001181Y019912D01*
X001181Y019814D02*
X003681Y019814D01*
X003681Y019715D02*
X001181Y019715D01*
X001181Y019617D02*
X003681Y019617D01*
X003681Y019518D02*
X001181Y019518D01*
X001181Y019420D02*
X003681Y019420D01*
X003681Y019321D02*
X001181Y019321D01*
X001181Y019223D02*
X003761Y019223D01*
X003860Y019124D02*
X001181Y019124D01*
X001181Y019026D02*
X003958Y019026D01*
X004057Y018927D02*
X001181Y018927D01*
X001181Y018829D02*
X004155Y018829D01*
X004254Y018730D02*
X001181Y018730D01*
X001181Y018631D02*
X004352Y018631D01*
X004451Y018533D02*
X001181Y018533D01*
X001181Y018434D02*
X004549Y018434D01*
X004648Y018336D02*
X001181Y018336D01*
X001181Y018237D02*
X004747Y018237D01*
X004845Y018139D02*
X001181Y018139D01*
X001181Y018040D02*
X004944Y018040D01*
X005042Y017942D02*
X001181Y017942D01*
X001181Y017843D02*
X005141Y017843D01*
X005239Y017745D02*
X001181Y017745D01*
X001181Y017646D02*
X005338Y017646D01*
X005436Y017547D02*
X001181Y017547D01*
X001181Y017449D02*
X005535Y017449D01*
X005633Y017350D02*
X001181Y017350D01*
X001181Y017252D02*
X011931Y017252D01*
X011931Y017153D02*
X001181Y017153D01*
X001181Y017055D02*
X011931Y017055D01*
X011931Y016956D02*
X001181Y016956D01*
X001181Y016858D02*
X011931Y016858D01*
X011931Y016759D02*
X001181Y016759D01*
X001181Y016661D02*
X011931Y016661D01*
X011931Y016562D02*
X001181Y016562D01*
X001181Y016463D02*
X011931Y016463D01*
X011931Y016365D02*
X001181Y016365D01*
X001181Y016266D02*
X011931Y016266D01*
X011931Y016168D02*
X001181Y016168D01*
X001181Y016069D02*
X011931Y016069D01*
X011931Y015971D02*
X001181Y015971D01*
X001181Y015872D02*
X011931Y015872D01*
X011931Y015774D02*
X001181Y015774D01*
X001181Y015675D02*
X011931Y015675D01*
X011931Y015577D02*
X001181Y015577D01*
X001181Y015478D02*
X011931Y015478D01*
X011931Y015379D02*
X001181Y015379D01*
X001181Y015281D02*
X011931Y015281D01*
X011931Y015182D02*
X001181Y015182D01*
X001181Y015084D02*
X011931Y015084D01*
X011931Y014985D02*
X001181Y014985D01*
X001181Y014887D02*
X011931Y014887D01*
X011931Y014788D02*
X001181Y014788D01*
X001181Y014690D02*
X011931Y014690D01*
X012431Y015084D02*
X022681Y015084D01*
X022681Y015182D02*
X012431Y015182D01*
X012431Y015281D02*
X022681Y015281D01*
X022681Y015379D02*
X012431Y015379D01*
X012431Y015478D02*
X022681Y015478D01*
X022681Y015577D02*
X012431Y015577D01*
X012431Y015675D02*
X022681Y015675D01*
X022681Y015774D02*
X012431Y015774D01*
X012431Y015872D02*
X022681Y015872D01*
X022681Y015971D02*
X012431Y015971D01*
X012431Y016069D02*
X022681Y016069D01*
X022681Y016168D02*
X012431Y016168D01*
X012431Y016266D02*
X022681Y016266D01*
X022681Y016365D02*
X012431Y016365D01*
X012431Y016463D02*
X022681Y016463D01*
X022681Y016562D02*
X012431Y016562D01*
X012431Y016661D02*
X022681Y016661D01*
X022681Y016759D02*
X012431Y016759D01*
X012431Y016858D02*
X022681Y016858D01*
X022681Y016956D02*
X012431Y016956D01*
X012431Y017055D02*
X022681Y017055D01*
X022681Y017153D02*
X012431Y017153D01*
X012431Y017252D02*
X022681Y017252D01*
X025681Y014394D02*
X018398Y014394D01*
X018300Y014296D02*
X025681Y014296D01*
X025681Y014197D02*
X018201Y014197D01*
X018102Y014098D02*
X025681Y014098D01*
X025681Y014000D02*
X018004Y014000D01*
X017931Y013901D02*
X025681Y013901D01*
X025681Y013803D02*
X017931Y013803D01*
X017931Y013704D02*
X025681Y013704D01*
X025681Y013606D02*
X017931Y013606D01*
X017931Y013507D02*
X025681Y013507D01*
X025681Y013409D02*
X017931Y013409D01*
X017931Y013310D02*
X025681Y013310D01*
X025681Y013212D02*
X017931Y013212D01*
X017931Y013113D02*
X025681Y013113D01*
X025681Y013014D02*
X017931Y013014D01*
X017931Y012916D02*
X025681Y012916D01*
X025681Y012817D02*
X017931Y012817D01*
X017931Y012719D02*
X025681Y012719D01*
X025681Y012620D02*
X017931Y012620D01*
X017931Y012522D02*
X025681Y012522D01*
X025681Y012423D02*
X017931Y012423D01*
X017931Y012325D02*
X025681Y012325D01*
X025681Y012226D02*
X017931Y012226D01*
X017931Y012128D02*
X025681Y012128D01*
X025681Y012029D02*
X017931Y012029D01*
X017931Y011930D02*
X025681Y011930D01*
X025681Y011832D02*
X017931Y011832D01*
X017931Y011733D02*
X025681Y011733D01*
X025681Y011635D02*
X017931Y011635D01*
X017931Y011536D02*
X025681Y011536D01*
X025681Y011438D02*
X017931Y011438D01*
X017931Y011339D02*
X025681Y011339D01*
X025681Y011241D02*
X017931Y011241D01*
X017931Y011142D02*
X025681Y011142D01*
X025681Y011044D02*
X017931Y011044D01*
X017931Y010945D02*
X025681Y010945D01*
X025681Y010846D02*
X017931Y010846D01*
X017931Y010748D02*
X025681Y010748D01*
X025681Y010649D02*
X017931Y010649D01*
X017931Y010551D02*
X025681Y010551D01*
X025681Y010452D02*
X017931Y010452D01*
X017931Y010354D02*
X025681Y010354D01*
X025681Y010255D02*
X017931Y010255D01*
X017931Y010157D02*
X025681Y010157D01*
X025681Y010058D02*
X017931Y010058D01*
X017931Y009960D02*
X025681Y009960D01*
X025681Y009861D02*
X017931Y009861D01*
X017431Y009861D02*
X014056Y009861D01*
X014056Y009960D02*
X017431Y009960D01*
X017431Y010058D02*
X014056Y010058D01*
X014056Y010157D02*
X017431Y010157D01*
X017431Y010255D02*
X014056Y010255D01*
X014056Y010354D02*
X017431Y010354D01*
X017431Y010452D02*
X014056Y010452D01*
X014056Y010551D02*
X017431Y010551D01*
X017431Y010649D02*
X014056Y010649D01*
X014056Y010748D02*
X017431Y010748D01*
X025681Y003160D02*
X005181Y003160D01*
X005181Y003062D02*
X025681Y003062D01*
X025681Y002963D02*
X005181Y002963D01*
X005181Y002864D02*
X025681Y002864D01*
X025681Y002766D02*
X005181Y002766D01*
X005181Y002667D02*
X025681Y002667D01*
X025681Y002569D02*
X005181Y002569D01*
X005181Y002470D02*
X025681Y002470D01*
X025681Y002372D02*
X005181Y002372D01*
X005181Y002273D02*
X025681Y002273D01*
X025681Y002175D02*
X005181Y002175D01*
X005181Y002076D02*
X025681Y002076D01*
X025681Y001978D02*
X005181Y001978D01*
X005181Y001879D02*
X025681Y001879D01*
X025681Y001781D02*
X005181Y001781D01*
X005181Y001682D02*
X025681Y001682D01*
X025681Y001583D02*
X005181Y001583D01*
X005181Y001485D02*
X025681Y001485D01*
X025681Y001386D02*
X005181Y001386D01*
X031281Y001386D02*
X037681Y001386D01*
X037681Y001302D02*
X031281Y001302D01*
X031281Y006302D01*
X037681Y006302D01*
X037681Y001302D01*
X037681Y001485D02*
X031281Y001485D01*
X031281Y001583D02*
X037681Y001583D01*
X037681Y001682D02*
X031281Y001682D01*
X031281Y001781D02*
X037681Y001781D01*
X037681Y001879D02*
X031281Y001879D01*
X031281Y001978D02*
X037681Y001978D01*
X037681Y002076D02*
X031281Y002076D01*
X031281Y002175D02*
X037681Y002175D01*
X037681Y002273D02*
X031281Y002273D01*
X031281Y002372D02*
X037681Y002372D01*
X037681Y002470D02*
X031281Y002470D01*
X031281Y002569D02*
X037681Y002569D01*
X037681Y002667D02*
X031281Y002667D01*
X031281Y002766D02*
X037681Y002766D01*
X037681Y002864D02*
X031281Y002864D01*
X031281Y002963D02*
X037681Y002963D01*
X037681Y003062D02*
X031281Y003062D01*
X031281Y003160D02*
X037681Y003160D01*
X037681Y003259D02*
X031281Y003259D01*
X031281Y003357D02*
X037681Y003357D01*
X037681Y003456D02*
X031281Y003456D01*
X031281Y003554D02*
X037681Y003554D01*
X037681Y003653D02*
X031281Y003653D01*
X031281Y003751D02*
X037681Y003751D01*
X037681Y003850D02*
X031281Y003850D01*
X031281Y003948D02*
X037681Y003948D01*
X037681Y004047D02*
X031281Y004047D01*
X031281Y004146D02*
X037681Y004146D01*
X037681Y004244D02*
X031281Y004244D01*
X031281Y004343D02*
X037681Y004343D01*
X037681Y004441D02*
X031281Y004441D01*
X031281Y004540D02*
X037681Y004540D01*
X037681Y004638D02*
X031281Y004638D01*
X031281Y004737D02*
X037681Y004737D01*
X037681Y004835D02*
X031281Y004835D01*
X031281Y004934D02*
X037681Y004934D01*
X037681Y005032D02*
X031281Y005032D01*
X031281Y005131D02*
X037681Y005131D01*
X037681Y005230D02*
X031281Y005230D01*
X031281Y005328D02*
X037681Y005328D01*
X037681Y005427D02*
X031281Y005427D01*
X031281Y005525D02*
X037681Y005525D01*
X037681Y005624D02*
X031281Y005624D01*
X031281Y005722D02*
X037681Y005722D01*
X037681Y005821D02*
X031281Y005821D01*
X031281Y005919D02*
X037681Y005919D01*
X037681Y006018D02*
X031281Y006018D01*
X031281Y006116D02*
X037681Y006116D01*
X037681Y006215D02*
X031281Y006215D01*
X039981Y006215D02*
X054881Y006215D01*
X054881Y006314D02*
X039981Y006314D01*
X039981Y006412D02*
X054881Y006412D01*
X054881Y006511D02*
X039981Y006511D01*
X039981Y006609D02*
X054881Y006609D01*
X054881Y006708D02*
X039981Y006708D01*
X039981Y006806D02*
X054881Y006806D01*
X054881Y006905D02*
X039981Y006905D01*
X039981Y007003D02*
X054881Y007003D01*
X054881Y007102D02*
X039981Y007102D01*
X039981Y007200D02*
X054881Y007200D01*
X054881Y007299D02*
X039981Y007299D01*
X039981Y007397D02*
X054881Y007397D01*
X054881Y007496D02*
X039981Y007496D01*
X039981Y007595D02*
X054881Y007595D01*
X054881Y007693D02*
X039981Y007693D01*
X039981Y007792D02*
X054881Y007792D01*
X054881Y007890D02*
X039981Y007890D01*
X039981Y007989D02*
X054881Y007989D01*
X054881Y008087D02*
X039981Y008087D01*
X039981Y008186D02*
X054881Y008186D01*
X054881Y008284D02*
X039981Y008284D01*
X039981Y008383D02*
X045081Y008383D01*
X045081Y008302D02*
X054881Y008302D01*
X054881Y001302D01*
X039981Y001302D01*
X039981Y012002D01*
X047381Y012002D01*
X047381Y010702D01*
X045081Y010702D01*
X045081Y008302D01*
X045081Y008481D02*
X039981Y008481D01*
X039981Y008580D02*
X045081Y008580D01*
X045081Y008679D02*
X039981Y008679D01*
X039981Y008777D02*
X045081Y008777D01*
X045081Y008876D02*
X039981Y008876D01*
X039981Y008974D02*
X045081Y008974D01*
X045081Y009073D02*
X039981Y009073D01*
X039981Y009171D02*
X045081Y009171D01*
X045081Y009270D02*
X039981Y009270D01*
X039981Y009368D02*
X045081Y009368D01*
X045081Y009467D02*
X039981Y009467D01*
X039981Y009565D02*
X045081Y009565D01*
X045081Y009664D02*
X039981Y009664D01*
X039981Y009763D02*
X045081Y009763D01*
X045081Y009861D02*
X039981Y009861D01*
X039981Y009960D02*
X045081Y009960D01*
X045081Y010058D02*
X039981Y010058D01*
X039981Y010157D02*
X045081Y010157D01*
X045081Y010255D02*
X039981Y010255D01*
X039981Y010354D02*
X045081Y010354D01*
X045081Y010452D02*
X039981Y010452D01*
X039981Y010551D02*
X045081Y010551D01*
X045081Y010649D02*
X039981Y010649D01*
X039981Y010748D02*
X047381Y010748D01*
X047381Y010846D02*
X039981Y010846D01*
X039981Y010945D02*
X047381Y010945D01*
X047381Y011044D02*
X039981Y011044D01*
X039981Y011142D02*
X047381Y011142D01*
X047381Y011241D02*
X039981Y011241D01*
X039981Y011339D02*
X047381Y011339D01*
X047381Y011438D02*
X039981Y011438D01*
X039981Y011536D02*
X047381Y011536D01*
X047381Y011635D02*
X039981Y011635D01*
X039981Y011733D02*
X047381Y011733D01*
X047381Y011832D02*
X039981Y011832D01*
X039981Y011930D02*
X047381Y011930D01*
X049581Y011930D02*
X060381Y011930D01*
X060381Y011832D02*
X049581Y011832D01*
X049581Y011733D02*
X060381Y011733D01*
X060381Y011635D02*
X049581Y011635D01*
X049581Y011536D02*
X060381Y011536D01*
X060381Y011438D02*
X049581Y011438D01*
X049581Y011339D02*
X060381Y011339D01*
X060381Y011241D02*
X049581Y011241D01*
X049581Y011142D02*
X060381Y011142D01*
X060381Y011044D02*
X049581Y011044D01*
X049581Y010945D02*
X060381Y010945D01*
X060381Y010846D02*
X049581Y010846D01*
X049581Y010748D02*
X060381Y010748D01*
X060381Y010649D02*
X049581Y010649D01*
X049581Y010551D02*
X060381Y010551D01*
X060381Y010452D02*
X049581Y010452D01*
X049581Y010354D02*
X060381Y010354D01*
X060381Y010255D02*
X049581Y010255D01*
X049581Y010157D02*
X060381Y010157D01*
X060381Y010058D02*
X049581Y010058D01*
X049581Y010002D02*
X051081Y010002D01*
X051081Y008802D01*
X054881Y008802D01*
X054881Y009602D01*
X060381Y009602D01*
X060381Y012102D01*
X049581Y012102D01*
X049581Y010002D01*
X051081Y009960D02*
X060381Y009960D01*
X060381Y009861D02*
X051081Y009861D01*
X051081Y009763D02*
X060381Y009763D01*
X060381Y009664D02*
X051081Y009664D01*
X051081Y009565D02*
X054881Y009565D01*
X054881Y009467D02*
X051081Y009467D01*
X051081Y009368D02*
X054881Y009368D01*
X054881Y009270D02*
X051081Y009270D01*
X051081Y009171D02*
X054881Y009171D01*
X054881Y009073D02*
X051081Y009073D01*
X051081Y008974D02*
X054881Y008974D01*
X054881Y008876D02*
X051081Y008876D01*
X054881Y006116D02*
X039981Y006116D01*
X039981Y006018D02*
X054881Y006018D01*
X054881Y005919D02*
X039981Y005919D01*
X039981Y005821D02*
X054881Y005821D01*
X054881Y005722D02*
X039981Y005722D01*
X039981Y005624D02*
X054881Y005624D01*
X054881Y005525D02*
X039981Y005525D01*
X039981Y005427D02*
X054881Y005427D01*
X054881Y005328D02*
X039981Y005328D01*
X039981Y005230D02*
X054881Y005230D01*
X054881Y005131D02*
X039981Y005131D01*
X039981Y005032D02*
X054881Y005032D01*
X054881Y004934D02*
X039981Y004934D01*
X039981Y004835D02*
X054881Y004835D01*
X054881Y004737D02*
X039981Y004737D01*
X039981Y004638D02*
X054881Y004638D01*
X054881Y004540D02*
X039981Y004540D01*
X039981Y004441D02*
X054881Y004441D01*
X054881Y004343D02*
X039981Y004343D01*
X039981Y004244D02*
X054881Y004244D01*
X054881Y004146D02*
X039981Y004146D01*
X039981Y004047D02*
X054881Y004047D01*
X054881Y003948D02*
X039981Y003948D01*
X039981Y003850D02*
X054881Y003850D01*
X054881Y003751D02*
X039981Y003751D01*
X039981Y003653D02*
X054881Y003653D01*
X054881Y003554D02*
X039981Y003554D01*
X039981Y003456D02*
X054881Y003456D01*
X054881Y003357D02*
X039981Y003357D01*
X039981Y003259D02*
X054881Y003259D01*
X054881Y003160D02*
X039981Y003160D01*
X039981Y003062D02*
X054881Y003062D01*
X054881Y002963D02*
X039981Y002963D01*
X039981Y002864D02*
X054881Y002864D01*
X054881Y002766D02*
X039981Y002766D01*
X039981Y002667D02*
X054881Y002667D01*
X054881Y002569D02*
X039981Y002569D01*
X039981Y002470D02*
X054881Y002470D01*
X054881Y002372D02*
X039981Y002372D01*
X039981Y002273D02*
X054881Y002273D01*
X054881Y002175D02*
X039981Y002175D01*
X039981Y002076D02*
X054881Y002076D01*
X054881Y001978D02*
X039981Y001978D01*
X039981Y001879D02*
X054881Y001879D01*
X054881Y001781D02*
X039981Y001781D01*
X039981Y001682D02*
X054881Y001682D01*
X054881Y001583D02*
X039981Y001583D01*
X039981Y001485D02*
X054881Y001485D01*
X054881Y001386D02*
X039981Y001386D01*
X049581Y012029D02*
X060381Y012029D01*
X060981Y012029D02*
X064651Y012029D01*
X064651Y012128D02*
X062781Y012128D01*
X062781Y012102D02*
X062781Y019302D01*
X064651Y019302D01*
X064651Y005302D01*
X062181Y005302D01*
X060181Y003302D01*
X060181Y001302D01*
X055481Y001302D01*
X055481Y009102D01*
X060981Y009102D01*
X060981Y012102D01*
X062781Y012102D01*
X062781Y012226D02*
X064651Y012226D01*
X064651Y012325D02*
X062781Y012325D01*
X062781Y012423D02*
X064651Y012423D01*
X064651Y012522D02*
X062781Y012522D01*
X062781Y012620D02*
X064651Y012620D01*
X064651Y012719D02*
X062781Y012719D01*
X062781Y012817D02*
X064651Y012817D01*
X064651Y012916D02*
X062781Y012916D01*
X062781Y013014D02*
X064651Y013014D01*
X064651Y013113D02*
X062781Y013113D01*
X062781Y013212D02*
X064651Y013212D01*
X064651Y013310D02*
X062781Y013310D01*
X062781Y013409D02*
X064651Y013409D01*
X064651Y013507D02*
X062781Y013507D01*
X062781Y013606D02*
X064651Y013606D01*
X064651Y013704D02*
X062781Y013704D01*
X062781Y013803D02*
X064651Y013803D01*
X064651Y013901D02*
X062781Y013901D01*
X062781Y014000D02*
X064651Y014000D01*
X064651Y014098D02*
X062781Y014098D01*
X062781Y014197D02*
X064651Y014197D01*
X064651Y014296D02*
X062781Y014296D01*
X062781Y014394D02*
X064651Y014394D01*
X064651Y014493D02*
X062781Y014493D01*
X062781Y014591D02*
X064651Y014591D01*
X064651Y014690D02*
X062781Y014690D01*
X062781Y014788D02*
X064651Y014788D01*
X064651Y014887D02*
X062781Y014887D01*
X062781Y014985D02*
X064651Y014985D01*
X064651Y015084D02*
X062781Y015084D01*
X062781Y015182D02*
X064651Y015182D01*
X064651Y015281D02*
X062781Y015281D01*
X062781Y015379D02*
X064651Y015379D01*
X064651Y015478D02*
X062781Y015478D01*
X062781Y015577D02*
X064651Y015577D01*
X064651Y015675D02*
X062781Y015675D01*
X062781Y015774D02*
X064651Y015774D01*
X064651Y015872D02*
X062781Y015872D01*
X062781Y015971D02*
X064651Y015971D01*
X064651Y016069D02*
X062781Y016069D01*
X062781Y016168D02*
X064651Y016168D01*
X064651Y016266D02*
X062781Y016266D01*
X062781Y016365D02*
X064651Y016365D01*
X064651Y016463D02*
X062781Y016463D01*
X062781Y016562D02*
X064651Y016562D01*
X064651Y016661D02*
X062781Y016661D01*
X062781Y016759D02*
X064651Y016759D01*
X064651Y016858D02*
X062781Y016858D01*
X062781Y016956D02*
X064651Y016956D01*
X064651Y017055D02*
X062781Y017055D01*
X062781Y017153D02*
X064651Y017153D01*
X064651Y017252D02*
X062781Y017252D01*
X062781Y017350D02*
X064651Y017350D01*
X064651Y017449D02*
X062781Y017449D01*
X062781Y017547D02*
X064651Y017547D01*
X064651Y017646D02*
X062781Y017646D01*
X062781Y017745D02*
X064651Y017745D01*
X064651Y017843D02*
X062781Y017843D01*
X062781Y017942D02*
X064651Y017942D01*
X064651Y018040D02*
X062781Y018040D01*
X062781Y018139D02*
X064651Y018139D01*
X064651Y018237D02*
X062781Y018237D01*
X062781Y018336D02*
X064651Y018336D01*
X064651Y018434D02*
X062781Y018434D01*
X062781Y018533D02*
X064651Y018533D01*
X064651Y018631D02*
X062781Y018631D01*
X062781Y018730D02*
X064651Y018730D01*
X064651Y018829D02*
X062781Y018829D01*
X062781Y018927D02*
X064651Y018927D01*
X064651Y019026D02*
X062781Y019026D01*
X062781Y019124D02*
X064651Y019124D01*
X064651Y019223D02*
X062781Y019223D01*
X061481Y017902D02*
X061481Y015602D01*
X052181Y015602D01*
X052181Y019602D01*
X045081Y019602D01*
X045081Y022302D01*
X044181Y023002D01*
X044181Y036602D01*
X046381Y036602D01*
X046381Y029702D01*
X048281Y029702D01*
X048281Y027502D01*
X052881Y027502D01*
X056481Y023902D01*
X056481Y021802D01*
X058381Y021802D01*
X058381Y017902D01*
X061481Y017902D01*
X061481Y017843D02*
X052181Y017843D01*
X052181Y017745D02*
X061481Y017745D01*
X061481Y017646D02*
X052181Y017646D01*
X052181Y017547D02*
X061481Y017547D01*
X061481Y017449D02*
X052181Y017449D01*
X052181Y017350D02*
X061481Y017350D01*
X061481Y017252D02*
X052181Y017252D01*
X052181Y017153D02*
X061481Y017153D01*
X061481Y017055D02*
X052181Y017055D01*
X052181Y016956D02*
X061481Y016956D01*
X061481Y016858D02*
X052181Y016858D01*
X052181Y016759D02*
X061481Y016759D01*
X061481Y016661D02*
X052181Y016661D01*
X052181Y016562D02*
X061481Y016562D01*
X061481Y016463D02*
X052181Y016463D01*
X052181Y016365D02*
X061481Y016365D01*
X061481Y016266D02*
X052181Y016266D01*
X052181Y016168D02*
X061481Y016168D01*
X061481Y016069D02*
X052181Y016069D01*
X052181Y015971D02*
X061481Y015971D01*
X061481Y015872D02*
X052181Y015872D01*
X052181Y015774D02*
X061481Y015774D01*
X061481Y015675D02*
X052181Y015675D01*
X050381Y015675D02*
X041909Y015675D01*
X042007Y015577D02*
X050381Y015577D01*
X050381Y015502D02*
X042081Y015502D01*
X041281Y016302D01*
X041281Y017302D01*
X046781Y017302D01*
X046781Y016802D01*
X048981Y016802D01*
X049181Y017302D01*
X050381Y017302D01*
X050381Y015502D01*
X050381Y015774D02*
X041810Y015774D01*
X041712Y015872D02*
X050381Y015872D01*
X050381Y015971D02*
X041613Y015971D01*
X041514Y016069D02*
X050381Y016069D01*
X050381Y016168D02*
X041416Y016168D01*
X041317Y016266D02*
X050381Y016266D01*
X050381Y016365D02*
X041281Y016365D01*
X041281Y016463D02*
X050381Y016463D01*
X050381Y016562D02*
X041281Y016562D01*
X041281Y016661D02*
X050381Y016661D01*
X050381Y016759D02*
X041281Y016759D01*
X041281Y016858D02*
X046781Y016858D01*
X046781Y016956D02*
X041281Y016956D01*
X041281Y017055D02*
X046781Y017055D01*
X046781Y017153D02*
X041281Y017153D01*
X041281Y017252D02*
X046781Y017252D01*
X049004Y016858D02*
X050381Y016858D01*
X050381Y016956D02*
X049043Y016956D01*
X049082Y017055D02*
X050381Y017055D01*
X050381Y017153D02*
X049122Y017153D01*
X049161Y017252D02*
X050381Y017252D01*
X052181Y017942D02*
X058381Y017942D01*
X058381Y018040D02*
X052181Y018040D01*
X052181Y018139D02*
X058381Y018139D01*
X058381Y018237D02*
X052181Y018237D01*
X052181Y018336D02*
X058381Y018336D01*
X058381Y018434D02*
X052181Y018434D01*
X052181Y018533D02*
X058381Y018533D01*
X058381Y018631D02*
X052181Y018631D01*
X052181Y018730D02*
X058381Y018730D01*
X058381Y018829D02*
X052181Y018829D01*
X052181Y018927D02*
X058381Y018927D01*
X058381Y019026D02*
X052181Y019026D01*
X052181Y019124D02*
X058381Y019124D01*
X058381Y019223D02*
X052181Y019223D01*
X052181Y019321D02*
X058381Y019321D01*
X058381Y019420D02*
X052181Y019420D01*
X052181Y019518D02*
X058381Y019518D01*
X058381Y019617D02*
X045081Y019617D01*
X045081Y019715D02*
X058381Y019715D01*
X058381Y019814D02*
X045081Y019814D01*
X045081Y019912D02*
X058381Y019912D01*
X058381Y020011D02*
X045081Y020011D01*
X045081Y020110D02*
X058381Y020110D01*
X058381Y020208D02*
X045081Y020208D01*
X045081Y020307D02*
X058381Y020307D01*
X058381Y020405D02*
X045081Y020405D01*
X045081Y020504D02*
X058381Y020504D01*
X058381Y020602D02*
X045081Y020602D01*
X045081Y020701D02*
X058381Y020701D01*
X058381Y020799D02*
X045081Y020799D01*
X045081Y020898D02*
X058381Y020898D01*
X058381Y020996D02*
X045081Y020996D01*
X045081Y021095D02*
X058381Y021095D01*
X058381Y021194D02*
X045081Y021194D01*
X045081Y021292D02*
X058381Y021292D01*
X058381Y021391D02*
X045081Y021391D01*
X045081Y021489D02*
X058381Y021489D01*
X058381Y021588D02*
X045081Y021588D01*
X045081Y021686D02*
X058381Y021686D01*
X058381Y021785D02*
X045081Y021785D01*
X045081Y021883D02*
X056481Y021883D01*
X056481Y021982D02*
X045081Y021982D01*
X045081Y022080D02*
X056481Y022080D01*
X056481Y022179D02*
X045081Y022179D01*
X045081Y022278D02*
X056481Y022278D01*
X056481Y022376D02*
X044987Y022376D01*
X044860Y022475D02*
X056481Y022475D01*
X056481Y022573D02*
X044733Y022573D01*
X044607Y022672D02*
X056481Y022672D01*
X056481Y022770D02*
X044480Y022770D01*
X044353Y022869D02*
X056481Y022869D01*
X056481Y022967D02*
X044226Y022967D01*
X044181Y023066D02*
X056481Y023066D01*
X056481Y023164D02*
X044181Y023164D01*
X044181Y023263D02*
X056481Y023263D01*
X056481Y023361D02*
X044181Y023361D01*
X044181Y023460D02*
X056481Y023460D01*
X056481Y023559D02*
X044181Y023559D01*
X044181Y023657D02*
X056481Y023657D01*
X056481Y023756D02*
X044181Y023756D01*
X044181Y023854D02*
X056481Y023854D01*
X056431Y023953D02*
X044181Y023953D01*
X044181Y024051D02*
X056332Y024051D01*
X056234Y024150D02*
X044181Y024150D01*
X044181Y024248D02*
X056135Y024248D01*
X056037Y024347D02*
X044181Y024347D01*
X044181Y024445D02*
X055938Y024445D01*
X055840Y024544D02*
X044181Y024544D01*
X044181Y024643D02*
X055741Y024643D01*
X055643Y024741D02*
X044181Y024741D01*
X044181Y024840D02*
X055544Y024840D01*
X055446Y024938D02*
X044181Y024938D01*
X044181Y025037D02*
X055347Y025037D01*
X055249Y025135D02*
X044181Y025135D01*
X044181Y025234D02*
X055150Y025234D01*
X055051Y025332D02*
X044181Y025332D01*
X044181Y025431D02*
X054953Y025431D01*
X054854Y025529D02*
X044181Y025529D01*
X044181Y025628D02*
X054756Y025628D01*
X054657Y025727D02*
X044181Y025727D01*
X044181Y025825D02*
X054559Y025825D01*
X054460Y025924D02*
X044181Y025924D01*
X044181Y026022D02*
X054362Y026022D01*
X054263Y026121D02*
X044181Y026121D01*
X044181Y026219D02*
X054165Y026219D01*
X054066Y026318D02*
X044181Y026318D01*
X044181Y026416D02*
X053967Y026416D01*
X053869Y026515D02*
X044181Y026515D01*
X044181Y026613D02*
X053770Y026613D01*
X053672Y026712D02*
X044181Y026712D01*
X044181Y026811D02*
X053573Y026811D01*
X053475Y026909D02*
X044181Y026909D01*
X044181Y027008D02*
X053376Y027008D01*
X053278Y027106D02*
X044181Y027106D01*
X044181Y027205D02*
X053179Y027205D01*
X053081Y027303D02*
X044181Y027303D01*
X044181Y027402D02*
X052982Y027402D01*
X052883Y027500D02*
X044181Y027500D01*
X044181Y027599D02*
X048281Y027599D01*
X048281Y027697D02*
X044181Y027697D01*
X044181Y027796D02*
X048281Y027796D01*
X048281Y027894D02*
X044181Y027894D01*
X044181Y027993D02*
X048281Y027993D01*
X048281Y028092D02*
X044181Y028092D01*
X044181Y028190D02*
X048281Y028190D01*
X048281Y028289D02*
X044181Y028289D01*
X044181Y028387D02*
X048281Y028387D01*
X048281Y028486D02*
X044181Y028486D01*
X044181Y028584D02*
X048281Y028584D01*
X048281Y028683D02*
X044181Y028683D01*
X044181Y028781D02*
X048281Y028781D01*
X048281Y028880D02*
X044181Y028880D01*
X044181Y028978D02*
X048281Y028978D01*
X048281Y029077D02*
X044181Y029077D01*
X044181Y029176D02*
X048281Y029176D01*
X048281Y029274D02*
X044181Y029274D01*
X044181Y029373D02*
X048281Y029373D01*
X048281Y029471D02*
X044181Y029471D01*
X044181Y029570D02*
X048281Y029570D01*
X048281Y029668D02*
X044181Y029668D01*
X044181Y029767D02*
X046381Y029767D01*
X046381Y029865D02*
X044181Y029865D01*
X044181Y029964D02*
X046381Y029964D01*
X046381Y030062D02*
X044181Y030062D01*
X044181Y030161D02*
X046381Y030161D01*
X046381Y030260D02*
X044181Y030260D01*
X044181Y030358D02*
X046381Y030358D01*
X046381Y030457D02*
X044181Y030457D01*
X044181Y030555D02*
X046381Y030555D01*
X046381Y030654D02*
X044181Y030654D01*
X044181Y030752D02*
X046381Y030752D01*
X046381Y030851D02*
X044181Y030851D01*
X044181Y030949D02*
X046381Y030949D01*
X046381Y031048D02*
X044181Y031048D01*
X044181Y031146D02*
X046381Y031146D01*
X046381Y031245D02*
X044181Y031245D01*
X044181Y031344D02*
X046381Y031344D01*
X046381Y031442D02*
X044181Y031442D01*
X044181Y031541D02*
X046381Y031541D01*
X046381Y031639D02*
X044181Y031639D01*
X044181Y031738D02*
X046381Y031738D01*
X046381Y031836D02*
X044181Y031836D01*
X044181Y031935D02*
X046381Y031935D01*
X046381Y032033D02*
X044181Y032033D01*
X044181Y032132D02*
X046381Y032132D01*
X046381Y032230D02*
X044181Y032230D01*
X044181Y032329D02*
X046381Y032329D01*
X046381Y032427D02*
X044181Y032427D01*
X044181Y032526D02*
X046381Y032526D01*
X046381Y032625D02*
X044181Y032625D01*
X044181Y032723D02*
X046381Y032723D01*
X046381Y032822D02*
X044181Y032822D01*
X044181Y032920D02*
X046381Y032920D01*
X046381Y033019D02*
X044181Y033019D01*
X044181Y033117D02*
X046381Y033117D01*
X046381Y033216D02*
X044181Y033216D01*
X044181Y033314D02*
X046381Y033314D01*
X046381Y033413D02*
X044181Y033413D01*
X044181Y033511D02*
X046381Y033511D01*
X046381Y033610D02*
X044181Y033610D01*
X044181Y033709D02*
X046381Y033709D01*
X046381Y033807D02*
X044181Y033807D01*
X044181Y033906D02*
X046381Y033906D01*
X046381Y034004D02*
X044181Y034004D01*
X044181Y034103D02*
X046381Y034103D01*
X046381Y034201D02*
X044181Y034201D01*
X044181Y034300D02*
X046381Y034300D01*
X046381Y034398D02*
X044181Y034398D01*
X044181Y034497D02*
X046381Y034497D01*
X046381Y034595D02*
X044181Y034595D01*
X044181Y034694D02*
X046381Y034694D01*
X046381Y034793D02*
X044181Y034793D01*
X044181Y034891D02*
X046381Y034891D01*
X046381Y034990D02*
X044181Y034990D01*
X044181Y035088D02*
X046381Y035088D01*
X046381Y035187D02*
X044181Y035187D01*
X044181Y035285D02*
X046381Y035285D01*
X046381Y035384D02*
X044181Y035384D01*
X044181Y035482D02*
X046381Y035482D01*
X046381Y035581D02*
X044181Y035581D01*
X044181Y035679D02*
X046381Y035679D01*
X046381Y035778D02*
X044181Y035778D01*
X044181Y035876D02*
X046381Y035876D01*
X046381Y035975D02*
X044181Y035975D01*
X044181Y036074D02*
X046381Y036074D01*
X046381Y036172D02*
X044181Y036172D01*
X044181Y036271D02*
X046381Y036271D01*
X046381Y036369D02*
X044181Y036369D01*
X044181Y036468D02*
X046381Y036468D01*
X046381Y036566D02*
X044181Y036566D01*
X043481Y036566D02*
X041281Y036566D01*
X041281Y036468D02*
X043481Y036468D01*
X043481Y036369D02*
X041281Y036369D01*
X041281Y036271D02*
X043481Y036271D01*
X043481Y036172D02*
X041281Y036172D01*
X041281Y036074D02*
X043481Y036074D01*
X043481Y035975D02*
X041281Y035975D01*
X041281Y035876D02*
X043481Y035876D01*
X043481Y035778D02*
X041281Y035778D01*
X041281Y035679D02*
X043481Y035679D01*
X043481Y035581D02*
X041281Y035581D01*
X041281Y035482D02*
X043481Y035482D01*
X043481Y035384D02*
X041281Y035384D01*
X041281Y035285D02*
X043481Y035285D01*
X043481Y035187D02*
X041281Y035187D01*
X041281Y035088D02*
X043481Y035088D01*
X043481Y034990D02*
X041281Y034990D01*
X041281Y034891D02*
X043481Y034891D01*
X043481Y034793D02*
X041281Y034793D01*
X041281Y034694D02*
X043481Y034694D01*
X043481Y034595D02*
X041281Y034595D01*
X041281Y034497D02*
X043481Y034497D01*
X043481Y034398D02*
X041281Y034398D01*
X041281Y034300D02*
X043481Y034300D01*
X043481Y034201D02*
X041281Y034201D01*
X041281Y034103D02*
X043481Y034103D01*
X043481Y034004D02*
X041281Y034004D01*
X041281Y033906D02*
X043481Y033906D01*
X043481Y033807D02*
X041281Y033807D01*
X041281Y033709D02*
X043481Y033709D01*
X043481Y033610D02*
X041281Y033610D01*
X041281Y033511D02*
X043481Y033511D01*
X043481Y033413D02*
X041281Y033413D01*
X041281Y033314D02*
X043481Y033314D01*
X043481Y033216D02*
X041281Y033216D01*
X041281Y033117D02*
X043481Y033117D01*
X043481Y033019D02*
X041281Y033019D01*
X041281Y032920D02*
X043481Y032920D01*
X043481Y032822D02*
X041281Y032822D01*
X041281Y032723D02*
X043481Y032723D01*
X043481Y032625D02*
X041281Y032625D01*
X041281Y032526D02*
X043481Y032526D01*
X043481Y032427D02*
X041281Y032427D01*
X041281Y032329D02*
X043481Y032329D01*
X043481Y032230D02*
X041281Y032230D01*
X041281Y032132D02*
X043481Y032132D01*
X043481Y032033D02*
X041281Y032033D01*
X041281Y031935D02*
X043481Y031935D01*
X043481Y031836D02*
X041281Y031836D01*
X041281Y031738D02*
X043481Y031738D01*
X043481Y031639D02*
X041281Y031639D01*
X041281Y031541D02*
X043481Y031541D01*
X043481Y031442D02*
X041281Y031442D01*
X041281Y031344D02*
X043481Y031344D01*
X043481Y031245D02*
X041281Y031245D01*
X041281Y031146D02*
X043481Y031146D01*
X043481Y031048D02*
X041281Y031048D01*
X041281Y030949D02*
X043481Y030949D01*
X043481Y030851D02*
X041281Y030851D01*
X041281Y030752D02*
X043481Y030752D01*
X043481Y030654D02*
X041281Y030654D01*
X041281Y030555D02*
X043481Y030555D01*
X043481Y030457D02*
X041281Y030457D01*
X041281Y030358D02*
X043481Y030358D01*
X043481Y030260D02*
X041281Y030260D01*
X041281Y030161D02*
X043481Y030161D01*
X043481Y030062D02*
X041281Y030062D01*
X041281Y029964D02*
X043481Y029964D01*
X043481Y029865D02*
X041281Y029865D01*
X041281Y029767D02*
X043481Y029767D01*
X043481Y029668D02*
X041281Y029668D01*
X041281Y029570D02*
X043481Y029570D01*
X043481Y029471D02*
X041281Y029471D01*
X041281Y029373D02*
X043481Y029373D01*
X043481Y029274D02*
X041281Y029274D01*
X041281Y029176D02*
X043481Y029176D01*
X043481Y029077D02*
X041281Y029077D01*
X041281Y028978D02*
X043481Y028978D01*
X043481Y028880D02*
X041281Y028880D01*
X041281Y028781D02*
X043481Y028781D01*
X043481Y028683D02*
X041281Y028683D01*
X041281Y028584D02*
X043481Y028584D01*
X043481Y028486D02*
X041281Y028486D01*
X041281Y028387D02*
X043481Y028387D01*
X043481Y028289D02*
X041281Y028289D01*
X041281Y028190D02*
X043481Y028190D01*
X043481Y028092D02*
X041281Y028092D01*
X041281Y027993D02*
X043481Y027993D01*
X043481Y027894D02*
X041281Y027894D01*
X041281Y027796D02*
X043481Y027796D01*
X043481Y027697D02*
X041281Y027697D01*
X041281Y027599D02*
X043481Y027599D01*
X043481Y027500D02*
X041281Y027500D01*
X041281Y027402D02*
X043481Y027402D01*
X043481Y027303D02*
X041281Y027303D01*
X041281Y027205D02*
X043481Y027205D01*
X043481Y027106D02*
X041281Y027106D01*
X041281Y027008D02*
X043481Y027008D01*
X043481Y026909D02*
X041281Y026909D01*
X041281Y026811D02*
X043481Y026811D01*
X043481Y026712D02*
X041281Y026712D01*
X041281Y026613D02*
X043481Y026613D01*
X043481Y026515D02*
X041281Y026515D01*
X041281Y026416D02*
X043481Y026416D01*
X043481Y026318D02*
X041281Y026318D01*
X041281Y026219D02*
X043481Y026219D01*
X043481Y026121D02*
X041281Y026121D01*
X041281Y026022D02*
X043481Y026022D01*
X043481Y025924D02*
X041281Y025924D01*
X041281Y025825D02*
X043481Y025825D01*
X043481Y025727D02*
X041281Y025727D01*
X041281Y025628D02*
X043481Y025628D01*
X043481Y025529D02*
X041281Y025529D01*
X041281Y025431D02*
X043481Y025431D01*
X043481Y025332D02*
X041281Y025332D01*
X041281Y025234D02*
X043481Y025234D01*
X043481Y025135D02*
X041281Y025135D01*
X041281Y025037D02*
X043481Y025037D01*
X043481Y024938D02*
X041281Y024938D01*
X041281Y024840D02*
X043481Y024840D01*
X043481Y024741D02*
X041281Y024741D01*
X041281Y024643D02*
X043481Y024643D01*
X043481Y024544D02*
X041281Y024544D01*
X041281Y024445D02*
X043481Y024445D01*
X043481Y024347D02*
X041281Y024347D01*
X041281Y024248D02*
X043481Y024248D01*
X043481Y024150D02*
X041281Y024150D01*
X041281Y024051D02*
X043481Y024051D01*
X043481Y023953D02*
X041281Y023953D01*
X041281Y023854D02*
X043481Y023854D01*
X043481Y023756D02*
X041281Y023756D01*
X041281Y023657D02*
X043481Y023657D01*
X043481Y023559D02*
X041281Y023559D01*
X041281Y023460D02*
X043481Y023460D01*
X043481Y023361D02*
X041281Y023361D01*
X041281Y023263D02*
X043481Y023263D01*
X043481Y023164D02*
X041281Y023164D01*
X041281Y023066D02*
X043481Y023066D01*
X043481Y022967D02*
X041281Y022967D01*
X041281Y022869D02*
X043481Y022869D01*
X043481Y022770D02*
X041281Y022770D01*
X041281Y022672D02*
X043481Y022672D01*
X043481Y022602D02*
X044481Y021902D01*
X044481Y017802D01*
X041281Y017802D01*
X041281Y037302D01*
X039981Y037302D01*
X039981Y044302D01*
X046381Y044302D01*
X046381Y037302D01*
X043481Y037302D01*
X043481Y022602D01*
X043523Y022573D02*
X041281Y022573D01*
X041281Y022475D02*
X043664Y022475D01*
X043805Y022376D02*
X041281Y022376D01*
X041281Y022278D02*
X043945Y022278D01*
X044086Y022179D02*
X041281Y022179D01*
X041281Y022080D02*
X044227Y022080D01*
X044368Y021982D02*
X041281Y021982D01*
X041281Y021883D02*
X044481Y021883D01*
X044481Y021785D02*
X041281Y021785D01*
X041281Y021686D02*
X044481Y021686D01*
X044481Y021588D02*
X041281Y021588D01*
X041281Y021489D02*
X044481Y021489D01*
X044481Y021391D02*
X041281Y021391D01*
X041281Y021292D02*
X044481Y021292D01*
X044481Y021194D02*
X041281Y021194D01*
X041281Y021095D02*
X044481Y021095D01*
X044481Y020996D02*
X041281Y020996D01*
X041281Y020898D02*
X044481Y020898D01*
X044481Y020799D02*
X041281Y020799D01*
X041281Y020701D02*
X044481Y020701D01*
X044481Y020602D02*
X041281Y020602D01*
X041281Y020504D02*
X044481Y020504D01*
X044481Y020405D02*
X041281Y020405D01*
X041281Y020307D02*
X044481Y020307D01*
X044481Y020208D02*
X041281Y020208D01*
X041281Y020110D02*
X044481Y020110D01*
X044481Y020011D02*
X041281Y020011D01*
X041281Y019912D02*
X044481Y019912D01*
X044481Y019814D02*
X041281Y019814D01*
X041281Y019715D02*
X044481Y019715D01*
X044481Y019617D02*
X041281Y019617D01*
X041281Y019518D02*
X044481Y019518D01*
X044481Y019420D02*
X041281Y019420D01*
X041281Y019321D02*
X044481Y019321D01*
X044481Y019223D02*
X041281Y019223D01*
X041281Y019124D02*
X044481Y019124D01*
X044481Y019026D02*
X041281Y019026D01*
X041281Y018927D02*
X044481Y018927D01*
X044481Y018829D02*
X041281Y018829D01*
X041281Y018730D02*
X044481Y018730D01*
X044481Y018631D02*
X041281Y018631D01*
X041281Y018533D02*
X044481Y018533D01*
X044481Y018434D02*
X041281Y018434D01*
X041281Y018336D02*
X044481Y018336D01*
X044481Y018237D02*
X041281Y018237D01*
X041281Y018139D02*
X044481Y018139D01*
X044481Y018040D02*
X041281Y018040D01*
X041281Y017942D02*
X044481Y017942D01*
X044481Y017843D02*
X041281Y017843D01*
X037681Y017843D02*
X031281Y017843D01*
X031281Y017745D02*
X037681Y017745D01*
X037681Y017646D02*
X031281Y017646D01*
X031281Y017547D02*
X037681Y017547D01*
X037681Y017449D02*
X031281Y017449D01*
X031281Y017350D02*
X037681Y017350D01*
X037681Y017252D02*
X031281Y017252D01*
X031281Y017153D02*
X037681Y017153D01*
X037681Y017055D02*
X031281Y017055D01*
X031281Y016956D02*
X037681Y016956D01*
X037681Y016858D02*
X031281Y016858D01*
X031281Y016759D02*
X037681Y016759D01*
X037681Y016661D02*
X031281Y016661D01*
X031281Y016562D02*
X037681Y016562D01*
X037681Y016463D02*
X031281Y016463D01*
X031281Y016365D02*
X037681Y016365D01*
X037681Y016266D02*
X031281Y016266D01*
X031281Y016168D02*
X037681Y016168D01*
X037681Y016069D02*
X031281Y016069D01*
X031281Y015971D02*
X037681Y015971D01*
X037681Y015872D02*
X031281Y015872D01*
X031281Y015774D02*
X037681Y015774D01*
X037681Y015675D02*
X031281Y015675D01*
X031281Y015577D02*
X037681Y015577D01*
X037681Y015478D02*
X031281Y015478D01*
X031281Y015379D02*
X037681Y015379D01*
X037681Y015281D02*
X031281Y015281D01*
X031281Y015182D02*
X037681Y015182D01*
X037681Y015084D02*
X031281Y015084D01*
X031281Y014985D02*
X037681Y014985D01*
X037681Y014887D02*
X031281Y014887D01*
X031281Y014788D02*
X037681Y014788D01*
X037681Y014690D02*
X031281Y014690D01*
X031281Y014591D02*
X037681Y014591D01*
X037681Y014493D02*
X031281Y014493D01*
X031281Y014394D02*
X037681Y014394D01*
X037681Y014302D02*
X031281Y014302D01*
X031281Y019302D01*
X037681Y019302D01*
X037681Y014302D01*
X039981Y014296D02*
X061681Y014296D01*
X061681Y014394D02*
X039981Y014394D01*
X039981Y014493D02*
X061681Y014493D01*
X061681Y014591D02*
X039981Y014591D01*
X039981Y014690D02*
X061681Y014690D01*
X061681Y014788D02*
X039981Y014788D01*
X039981Y014887D02*
X061681Y014887D01*
X061681Y014985D02*
X039981Y014985D01*
X039981Y015002D02*
X061681Y015002D01*
X061681Y012602D01*
X039981Y012602D01*
X039981Y015002D01*
X039981Y014197D02*
X061681Y014197D01*
X061681Y014098D02*
X039981Y014098D01*
X039981Y014000D02*
X061681Y014000D01*
X061681Y013901D02*
X039981Y013901D01*
X039981Y013803D02*
X061681Y013803D01*
X061681Y013704D02*
X039981Y013704D01*
X039981Y013606D02*
X061681Y013606D01*
X061681Y013507D02*
X039981Y013507D01*
X039981Y013409D02*
X061681Y013409D01*
X061681Y013310D02*
X039981Y013310D01*
X039981Y013212D02*
X061681Y013212D01*
X061681Y013113D02*
X039981Y013113D01*
X039981Y013014D02*
X061681Y013014D01*
X061681Y012916D02*
X039981Y012916D01*
X039981Y012817D02*
X061681Y012817D01*
X061681Y012719D02*
X039981Y012719D01*
X039981Y012620D02*
X061681Y012620D01*
X060981Y011930D02*
X064651Y011930D01*
X064651Y011832D02*
X060981Y011832D01*
X060981Y011733D02*
X064651Y011733D01*
X064651Y011635D02*
X060981Y011635D01*
X060981Y011536D02*
X064651Y011536D01*
X064651Y011438D02*
X060981Y011438D01*
X060981Y011339D02*
X064651Y011339D01*
X064651Y011241D02*
X060981Y011241D01*
X060981Y011142D02*
X064651Y011142D01*
X064651Y011044D02*
X060981Y011044D01*
X060981Y010945D02*
X064651Y010945D01*
X064651Y010846D02*
X060981Y010846D01*
X060981Y010748D02*
X064651Y010748D01*
X064651Y010649D02*
X060981Y010649D01*
X060981Y010551D02*
X064651Y010551D01*
X064651Y010452D02*
X060981Y010452D01*
X060981Y010354D02*
X064651Y010354D01*
X064651Y010255D02*
X060981Y010255D01*
X060981Y010157D02*
X064651Y010157D01*
X064651Y010058D02*
X060981Y010058D01*
X060981Y009960D02*
X064651Y009960D01*
X064651Y009861D02*
X060981Y009861D01*
X060981Y009763D02*
X064651Y009763D01*
X064651Y009664D02*
X060981Y009664D01*
X060981Y009565D02*
X064651Y009565D01*
X064651Y009467D02*
X060981Y009467D01*
X060981Y009368D02*
X064651Y009368D01*
X064651Y009270D02*
X060981Y009270D01*
X060981Y009171D02*
X064651Y009171D01*
X064651Y009073D02*
X055481Y009073D01*
X055481Y008974D02*
X064651Y008974D01*
X064651Y008876D02*
X055481Y008876D01*
X055481Y008777D02*
X064651Y008777D01*
X064651Y008679D02*
X055481Y008679D01*
X055481Y008580D02*
X064651Y008580D01*
X064651Y008481D02*
X055481Y008481D01*
X055481Y008383D02*
X064651Y008383D01*
X064651Y008284D02*
X055481Y008284D01*
X055481Y008186D02*
X064651Y008186D01*
X064651Y008087D02*
X055481Y008087D01*
X055481Y007989D02*
X064651Y007989D01*
X064651Y007890D02*
X055481Y007890D01*
X055481Y007792D02*
X064651Y007792D01*
X064651Y007693D02*
X055481Y007693D01*
X055481Y007595D02*
X064651Y007595D01*
X064651Y007496D02*
X055481Y007496D01*
X055481Y007397D02*
X064651Y007397D01*
X064651Y007299D02*
X055481Y007299D01*
X055481Y007200D02*
X064651Y007200D01*
X064651Y007102D02*
X055481Y007102D01*
X055481Y007003D02*
X064651Y007003D01*
X064651Y006905D02*
X055481Y006905D01*
X055481Y006806D02*
X064651Y006806D01*
X064651Y006708D02*
X055481Y006708D01*
X055481Y006609D02*
X064651Y006609D01*
X064651Y006511D02*
X055481Y006511D01*
X055481Y006412D02*
X064651Y006412D01*
X064651Y006314D02*
X055481Y006314D01*
X055481Y006215D02*
X064651Y006215D01*
X064651Y006116D02*
X055481Y006116D01*
X055481Y006018D02*
X064651Y006018D01*
X064651Y005919D02*
X055481Y005919D01*
X055481Y005821D02*
X064651Y005821D01*
X064651Y005722D02*
X055481Y005722D01*
X055481Y005624D02*
X064651Y005624D01*
X064651Y005525D02*
X055481Y005525D01*
X055481Y005427D02*
X064651Y005427D01*
X064651Y005328D02*
X055481Y005328D01*
X055481Y005230D02*
X062109Y005230D01*
X062010Y005131D02*
X055481Y005131D01*
X055481Y005032D02*
X061911Y005032D01*
X061813Y004934D02*
X055481Y004934D01*
X055481Y004835D02*
X061714Y004835D01*
X061616Y004737D02*
X055481Y004737D01*
X055481Y004638D02*
X061517Y004638D01*
X061419Y004540D02*
X055481Y004540D01*
X055481Y004441D02*
X061320Y004441D01*
X061222Y004343D02*
X055481Y004343D01*
X055481Y004244D02*
X061123Y004244D01*
X061025Y004146D02*
X055481Y004146D01*
X055481Y004047D02*
X060926Y004047D01*
X060828Y003948D02*
X055481Y003948D01*
X055481Y003850D02*
X060729Y003850D01*
X060630Y003751D02*
X055481Y003751D01*
X055481Y003653D02*
X060532Y003653D01*
X060433Y003554D02*
X055481Y003554D01*
X055481Y003456D02*
X060335Y003456D01*
X060236Y003357D02*
X055481Y003357D01*
X055481Y003259D02*
X060181Y003259D01*
X060181Y003160D02*
X055481Y003160D01*
X055481Y003062D02*
X060181Y003062D01*
X060181Y002963D02*
X055481Y002963D01*
X055481Y002864D02*
X060181Y002864D01*
X060181Y002766D02*
X055481Y002766D01*
X055481Y002667D02*
X060181Y002667D01*
X060181Y002569D02*
X055481Y002569D01*
X055481Y002470D02*
X060181Y002470D01*
X060181Y002372D02*
X055481Y002372D01*
X055481Y002273D02*
X060181Y002273D01*
X060181Y002175D02*
X055481Y002175D01*
X055481Y002076D02*
X060181Y002076D01*
X060181Y001978D02*
X055481Y001978D01*
X055481Y001879D02*
X060181Y001879D01*
X060181Y001781D02*
X055481Y001781D01*
X055481Y001682D02*
X060181Y001682D01*
X060181Y001583D02*
X055481Y001583D01*
X055481Y001485D02*
X060181Y001485D01*
X060181Y001386D02*
X055481Y001386D01*
X037681Y017942D02*
X031281Y017942D01*
X031281Y018040D02*
X037681Y018040D01*
X037681Y018139D02*
X031281Y018139D01*
X031281Y018237D02*
X037681Y018237D01*
X037681Y018336D02*
X031281Y018336D01*
X031281Y018434D02*
X037681Y018434D01*
X037681Y018533D02*
X031281Y018533D01*
X031281Y018631D02*
X037681Y018631D01*
X037681Y018730D02*
X031281Y018730D01*
X031281Y018829D02*
X037681Y018829D01*
X037681Y018927D02*
X031281Y018927D01*
X031281Y019026D02*
X037681Y019026D01*
X037681Y019124D02*
X031281Y019124D01*
X031281Y019223D02*
X037681Y019223D01*
X046981Y030302D02*
X046981Y044302D01*
X053381Y044302D01*
X053381Y030302D01*
X046981Y030302D01*
X046981Y030358D02*
X053381Y030358D01*
X053381Y030457D02*
X046981Y030457D01*
X046981Y030555D02*
X053381Y030555D01*
X053381Y030654D02*
X046981Y030654D01*
X046981Y030752D02*
X053381Y030752D01*
X053381Y030851D02*
X046981Y030851D01*
X046981Y030949D02*
X053381Y030949D01*
X053381Y031048D02*
X046981Y031048D01*
X046981Y031146D02*
X053381Y031146D01*
X053381Y031245D02*
X046981Y031245D01*
X046981Y031344D02*
X053381Y031344D01*
X053381Y031442D02*
X046981Y031442D01*
X046981Y031541D02*
X053381Y031541D01*
X053381Y031639D02*
X046981Y031639D01*
X046981Y031738D02*
X053381Y031738D01*
X053381Y031836D02*
X046981Y031836D01*
X046981Y031935D02*
X053381Y031935D01*
X053381Y032033D02*
X046981Y032033D01*
X046981Y032132D02*
X053381Y032132D01*
X053381Y032230D02*
X046981Y032230D01*
X046981Y032329D02*
X053381Y032329D01*
X053381Y032427D02*
X046981Y032427D01*
X046981Y032526D02*
X053381Y032526D01*
X053381Y032625D02*
X046981Y032625D01*
X046981Y032723D02*
X053381Y032723D01*
X053381Y032822D02*
X046981Y032822D01*
X046981Y032920D02*
X053381Y032920D01*
X053381Y033019D02*
X046981Y033019D01*
X046981Y033117D02*
X053381Y033117D01*
X053381Y033216D02*
X046981Y033216D01*
X046981Y033314D02*
X053381Y033314D01*
X053381Y033413D02*
X046981Y033413D01*
X046981Y033511D02*
X053381Y033511D01*
X053381Y033610D02*
X046981Y033610D01*
X046981Y033709D02*
X053381Y033709D01*
X053381Y033807D02*
X046981Y033807D01*
X046981Y033906D02*
X053381Y033906D01*
X053381Y034004D02*
X046981Y034004D01*
X046981Y034103D02*
X053381Y034103D01*
X053381Y034201D02*
X046981Y034201D01*
X046981Y034300D02*
X053381Y034300D01*
X053381Y034398D02*
X046981Y034398D01*
X046981Y034497D02*
X053381Y034497D01*
X053381Y034595D02*
X046981Y034595D01*
X046981Y034694D02*
X053381Y034694D01*
X053381Y034793D02*
X046981Y034793D01*
X046981Y034891D02*
X053381Y034891D01*
X053381Y034990D02*
X046981Y034990D01*
X046981Y035088D02*
X053381Y035088D01*
X053381Y035187D02*
X046981Y035187D01*
X046981Y035285D02*
X053381Y035285D01*
X053381Y035384D02*
X046981Y035384D01*
X046981Y035482D02*
X053381Y035482D01*
X053381Y035581D02*
X046981Y035581D01*
X046981Y035679D02*
X053381Y035679D01*
X053381Y035778D02*
X046981Y035778D01*
X046981Y035876D02*
X053381Y035876D01*
X053381Y035975D02*
X046981Y035975D01*
X046981Y036074D02*
X053381Y036074D01*
X053381Y036172D02*
X046981Y036172D01*
X046981Y036271D02*
X053381Y036271D01*
X053381Y036369D02*
X046981Y036369D01*
X046981Y036468D02*
X053381Y036468D01*
X053381Y036566D02*
X046981Y036566D01*
X046981Y036665D02*
X053381Y036665D01*
X053381Y036763D02*
X046981Y036763D01*
X046981Y036862D02*
X053381Y036862D01*
X053381Y036960D02*
X046981Y036960D01*
X046981Y037059D02*
X053381Y037059D01*
X053381Y037158D02*
X046981Y037158D01*
X046981Y037256D02*
X053381Y037256D01*
X053381Y037355D02*
X046981Y037355D01*
X046981Y037453D02*
X053381Y037453D01*
X053381Y037552D02*
X046981Y037552D01*
X046981Y037650D02*
X053381Y037650D01*
X053381Y037749D02*
X046981Y037749D01*
X046981Y037847D02*
X053381Y037847D01*
X053381Y037946D02*
X046981Y037946D01*
X046981Y038044D02*
X053381Y038044D01*
X053381Y038143D02*
X046981Y038143D01*
X046981Y038242D02*
X053381Y038242D01*
X053381Y038340D02*
X046981Y038340D01*
X046981Y038439D02*
X053381Y038439D01*
X053381Y038537D02*
X046981Y038537D01*
X046981Y038636D02*
X053381Y038636D01*
X053381Y038734D02*
X046981Y038734D01*
X046981Y038833D02*
X053381Y038833D01*
X053381Y038931D02*
X046981Y038931D01*
X046981Y039030D02*
X053381Y039030D01*
X053381Y039128D02*
X046981Y039128D01*
X046981Y039227D02*
X053381Y039227D01*
X053381Y039326D02*
X046981Y039326D01*
X046981Y039424D02*
X053381Y039424D01*
X053381Y039523D02*
X046981Y039523D01*
X046981Y039621D02*
X050843Y039621D01*
X050846Y039620D02*
X051117Y039620D01*
X051368Y039724D01*
X051560Y039916D01*
X051664Y040167D01*
X051664Y040438D01*
X051560Y040689D01*
X051368Y040881D01*
X051117Y040985D01*
X050846Y040985D01*
X050595Y040881D01*
X050403Y040689D01*
X050299Y040438D01*
X050299Y040167D01*
X050403Y039916D01*
X050595Y039724D01*
X050846Y039620D01*
X050605Y039720D02*
X046981Y039720D01*
X046981Y039818D02*
X050500Y039818D01*
X050402Y039917D02*
X046981Y039917D01*
X046981Y040015D02*
X050362Y040015D01*
X050321Y040114D02*
X046981Y040114D01*
X046981Y040212D02*
X050299Y040212D01*
X050299Y040311D02*
X046981Y040311D01*
X046981Y040409D02*
X050299Y040409D01*
X050328Y040508D02*
X046981Y040508D01*
X046981Y040607D02*
X050369Y040607D01*
X050419Y040705D02*
X046981Y040705D01*
X046981Y040804D02*
X050518Y040804D01*
X050646Y040902D02*
X046981Y040902D01*
X046981Y041001D02*
X053381Y041001D01*
X053381Y041099D02*
X046981Y041099D01*
X046981Y041198D02*
X053381Y041198D01*
X053381Y041296D02*
X046981Y041296D01*
X046981Y041395D02*
X053381Y041395D01*
X053381Y041493D02*
X046981Y041493D01*
X046981Y041592D02*
X053381Y041592D01*
X053381Y041691D02*
X046981Y041691D01*
X046981Y041789D02*
X053381Y041789D01*
X053381Y041888D02*
X046981Y041888D01*
X046981Y041986D02*
X053381Y041986D01*
X053381Y042085D02*
X046981Y042085D01*
X046981Y042183D02*
X053381Y042183D01*
X053381Y042282D02*
X046981Y042282D01*
X046981Y042380D02*
X053381Y042380D01*
X053381Y042479D02*
X046981Y042479D01*
X046981Y042577D02*
X053381Y042577D01*
X053381Y042676D02*
X046981Y042676D01*
X046981Y042775D02*
X053381Y042775D01*
X053381Y042873D02*
X046981Y042873D01*
X046981Y042972D02*
X053381Y042972D01*
X053381Y043070D02*
X046981Y043070D01*
X046981Y043169D02*
X053381Y043169D01*
X053381Y043267D02*
X046981Y043267D01*
X046981Y043366D02*
X053381Y043366D01*
X053381Y043464D02*
X046981Y043464D01*
X046981Y043563D02*
X053381Y043563D01*
X053381Y043661D02*
X046981Y043661D01*
X046981Y043760D02*
X053381Y043760D01*
X053381Y043859D02*
X046981Y043859D01*
X046981Y043957D02*
X053381Y043957D01*
X053381Y044056D02*
X046981Y044056D01*
X046981Y044154D02*
X053381Y044154D01*
X053381Y044253D02*
X046981Y044253D01*
X046381Y044253D02*
X039981Y044253D01*
X039981Y044154D02*
X046381Y044154D01*
X046381Y044056D02*
X039981Y044056D01*
X039981Y043957D02*
X046381Y043957D01*
X046381Y043859D02*
X039981Y043859D01*
X039981Y043760D02*
X046381Y043760D01*
X046381Y043661D02*
X039981Y043661D01*
X039981Y043563D02*
X046381Y043563D01*
X046381Y043464D02*
X039981Y043464D01*
X039981Y043366D02*
X046381Y043366D01*
X046381Y043267D02*
X039981Y043267D01*
X039981Y043169D02*
X046381Y043169D01*
X046381Y043070D02*
X039981Y043070D01*
X039981Y042972D02*
X046381Y042972D01*
X046381Y042873D02*
X039981Y042873D01*
X039981Y042775D02*
X046381Y042775D01*
X046381Y042676D02*
X039981Y042676D01*
X039981Y042577D02*
X046381Y042577D01*
X046381Y042479D02*
X039981Y042479D01*
X039981Y042380D02*
X046381Y042380D01*
X046381Y042282D02*
X039981Y042282D01*
X039981Y042183D02*
X046381Y042183D01*
X046381Y042085D02*
X039981Y042085D01*
X039981Y041986D02*
X046381Y041986D01*
X046381Y041888D02*
X039981Y041888D01*
X039981Y041789D02*
X046381Y041789D01*
X046381Y041691D02*
X039981Y041691D01*
X039981Y041592D02*
X046381Y041592D01*
X046381Y041493D02*
X039981Y041493D01*
X039981Y041395D02*
X046381Y041395D01*
X046381Y041296D02*
X039981Y041296D01*
X039981Y041198D02*
X046381Y041198D01*
X046381Y041099D02*
X039981Y041099D01*
X039981Y041001D02*
X046381Y041001D01*
X046381Y040902D02*
X044316Y040902D01*
X044368Y040881D02*
X044117Y040985D01*
X043846Y040985D01*
X043595Y040881D01*
X043403Y040689D01*
X043299Y040438D01*
X043299Y040167D01*
X043403Y039916D01*
X043595Y039724D01*
X043846Y039620D01*
X044117Y039620D01*
X044368Y039724D01*
X044560Y039916D01*
X044664Y040167D01*
X044664Y040438D01*
X044560Y040689D01*
X044368Y040881D01*
X044445Y040804D02*
X046381Y040804D01*
X046381Y040705D02*
X044544Y040705D01*
X044594Y040607D02*
X046381Y040607D01*
X046381Y040508D02*
X044635Y040508D01*
X044664Y040409D02*
X046381Y040409D01*
X046381Y040311D02*
X044664Y040311D01*
X044664Y040212D02*
X046381Y040212D01*
X046381Y040114D02*
X044642Y040114D01*
X044601Y040015D02*
X046381Y040015D01*
X046381Y039917D02*
X044560Y039917D01*
X044462Y039818D02*
X046381Y039818D01*
X046381Y039720D02*
X044358Y039720D01*
X044120Y039621D02*
X046381Y039621D01*
X046381Y039523D02*
X039981Y039523D01*
X039981Y039621D02*
X043843Y039621D01*
X043605Y039720D02*
X039981Y039720D01*
X039981Y039818D02*
X043500Y039818D01*
X043402Y039917D02*
X039981Y039917D01*
X039981Y040015D02*
X043362Y040015D01*
X043321Y040114D02*
X039981Y040114D01*
X039981Y040212D02*
X043299Y040212D01*
X043299Y040311D02*
X039981Y040311D01*
X039981Y040409D02*
X043299Y040409D01*
X043328Y040508D02*
X039981Y040508D01*
X039981Y040607D02*
X043369Y040607D01*
X043419Y040705D02*
X039981Y040705D01*
X039981Y040804D02*
X043518Y040804D01*
X043646Y040902D02*
X039981Y040902D01*
X039381Y040902D02*
X037316Y040902D01*
X037368Y040881D02*
X037117Y040985D01*
X036846Y040985D01*
X036595Y040881D01*
X036403Y040689D01*
X036299Y040438D01*
X036299Y040167D01*
X036403Y039916D01*
X036595Y039724D01*
X036846Y039620D01*
X037117Y039620D01*
X037368Y039724D01*
X037560Y039916D01*
X037664Y040167D01*
X037664Y040438D01*
X037560Y040689D01*
X037368Y040881D01*
X037445Y040804D02*
X039381Y040804D01*
X039381Y040705D02*
X037544Y040705D01*
X037594Y040607D02*
X039381Y040607D01*
X039381Y040508D02*
X037635Y040508D01*
X037664Y040409D02*
X039381Y040409D01*
X039381Y040311D02*
X037664Y040311D01*
X037664Y040212D02*
X039381Y040212D01*
X039381Y040114D02*
X037642Y040114D01*
X037601Y040015D02*
X039381Y040015D01*
X039381Y039917D02*
X037560Y039917D01*
X037462Y039818D02*
X039381Y039818D01*
X039381Y039720D02*
X037358Y039720D01*
X037120Y039621D02*
X039381Y039621D01*
X039381Y039523D02*
X032681Y039523D01*
X032681Y039621D02*
X036843Y039621D01*
X036605Y039720D02*
X032681Y039720D01*
X032681Y039818D02*
X036500Y039818D01*
X036402Y039917D02*
X032681Y039917D01*
X032681Y040015D02*
X036362Y040015D01*
X036321Y040114D02*
X032681Y040114D01*
X032681Y040212D02*
X036299Y040212D01*
X036299Y040311D02*
X032681Y040311D01*
X032681Y040409D02*
X036299Y040409D01*
X036328Y040508D02*
X032681Y040508D01*
X032681Y040607D02*
X036369Y040607D01*
X036419Y040705D02*
X032681Y040705D01*
X032681Y040804D02*
X036518Y040804D01*
X036646Y040902D02*
X032681Y040902D01*
X032681Y041001D02*
X039381Y041001D01*
X039381Y041099D02*
X032681Y041099D01*
X032681Y041198D02*
X039381Y041198D01*
X039381Y041296D02*
X032681Y041296D01*
X032681Y041395D02*
X039381Y041395D01*
X039381Y041493D02*
X032681Y041493D01*
X032681Y041592D02*
X039381Y041592D01*
X039381Y041691D02*
X032681Y041691D01*
X032681Y041789D02*
X039381Y041789D01*
X039381Y041888D02*
X032681Y041888D01*
X032681Y041986D02*
X039381Y041986D01*
X039381Y042085D02*
X032681Y042085D01*
X032681Y042183D02*
X039381Y042183D01*
X039381Y042282D02*
X032681Y042282D01*
X032681Y042380D02*
X039381Y042380D01*
X039381Y042479D02*
X032681Y042479D01*
X032681Y042577D02*
X039381Y042577D01*
X039381Y042676D02*
X032681Y042676D01*
X032681Y042775D02*
X039381Y042775D01*
X039381Y042873D02*
X032681Y042873D01*
X032681Y042972D02*
X039381Y042972D01*
X039381Y043070D02*
X032681Y043070D01*
X032681Y043169D02*
X039381Y043169D01*
X039381Y043267D02*
X032681Y043267D01*
X032681Y043366D02*
X039381Y043366D01*
X039381Y043464D02*
X032681Y043464D01*
X032681Y043563D02*
X039381Y043563D01*
X039381Y043661D02*
X032681Y043661D01*
X032681Y043760D02*
X039381Y043760D01*
X039381Y043859D02*
X032681Y043859D01*
X032681Y043957D02*
X039381Y043957D01*
X039381Y044056D02*
X032681Y044056D01*
X032681Y044154D02*
X039381Y044154D01*
X039381Y044253D02*
X032681Y044253D01*
X032681Y044302D02*
X039381Y044302D01*
X039381Y037302D01*
X032681Y037302D01*
X032681Y044302D01*
X032681Y039424D02*
X039381Y039424D01*
X039381Y039326D02*
X032681Y039326D01*
X032681Y039227D02*
X039381Y039227D01*
X039381Y039128D02*
X032681Y039128D01*
X032681Y039030D02*
X039381Y039030D01*
X039381Y038931D02*
X032681Y038931D01*
X032681Y038833D02*
X039381Y038833D01*
X039381Y038734D02*
X032681Y038734D01*
X032681Y038636D02*
X039381Y038636D01*
X039381Y038537D02*
X032681Y038537D01*
X032681Y038439D02*
X039381Y038439D01*
X039381Y038340D02*
X032681Y038340D01*
X032681Y038242D02*
X039381Y038242D01*
X039381Y038143D02*
X032681Y038143D01*
X032681Y038044D02*
X039381Y038044D01*
X039381Y037946D02*
X032681Y037946D01*
X032681Y037847D02*
X039381Y037847D01*
X039381Y037749D02*
X032681Y037749D01*
X032681Y037650D02*
X039381Y037650D01*
X039381Y037552D02*
X032681Y037552D01*
X032681Y037453D02*
X039381Y037453D01*
X039381Y037355D02*
X032681Y037355D01*
X039981Y037355D02*
X046381Y037355D01*
X046381Y037453D02*
X039981Y037453D01*
X039981Y037552D02*
X046381Y037552D01*
X046381Y037650D02*
X039981Y037650D01*
X039981Y037749D02*
X046381Y037749D01*
X046381Y037847D02*
X039981Y037847D01*
X039981Y037946D02*
X046381Y037946D01*
X046381Y038044D02*
X039981Y038044D01*
X039981Y038143D02*
X046381Y038143D01*
X046381Y038242D02*
X039981Y038242D01*
X039981Y038340D02*
X046381Y038340D01*
X046381Y038439D02*
X039981Y038439D01*
X039981Y038537D02*
X046381Y038537D01*
X046381Y038636D02*
X039981Y038636D01*
X039981Y038734D02*
X046381Y038734D01*
X046381Y038833D02*
X039981Y038833D01*
X039981Y038931D02*
X046381Y038931D01*
X046381Y039030D02*
X039981Y039030D01*
X039981Y039128D02*
X046381Y039128D01*
X046381Y039227D02*
X039981Y039227D01*
X039981Y039326D02*
X046381Y039326D01*
X046381Y039424D02*
X039981Y039424D01*
X041281Y037256D02*
X043481Y037256D01*
X043481Y037158D02*
X041281Y037158D01*
X041281Y037059D02*
X043481Y037059D01*
X043481Y036960D02*
X041281Y036960D01*
X041281Y036862D02*
X043481Y036862D01*
X043481Y036763D02*
X041281Y036763D01*
X041281Y036665D02*
X043481Y036665D01*
X051120Y039621D02*
X053381Y039621D01*
X053381Y039720D02*
X051358Y039720D01*
X051462Y039818D02*
X053381Y039818D01*
X053381Y039917D02*
X051560Y039917D01*
X051601Y040015D02*
X053381Y040015D01*
X053381Y040114D02*
X051642Y040114D01*
X051664Y040212D02*
X053381Y040212D01*
X053381Y040311D02*
X051664Y040311D01*
X051664Y040409D02*
X053381Y040409D01*
X053381Y040508D02*
X051635Y040508D01*
X051594Y040607D02*
X053381Y040607D01*
X053381Y040705D02*
X051544Y040705D01*
X051445Y040804D02*
X053381Y040804D01*
X053381Y040902D02*
X051316Y040902D01*
X053981Y040902D02*
X057646Y040902D01*
X057595Y040881D02*
X057403Y040689D01*
X057299Y040438D01*
X057299Y040167D01*
X057403Y039916D01*
X057595Y039724D01*
X057846Y039620D01*
X058117Y039620D01*
X058368Y039724D01*
X058560Y039916D01*
X058664Y040167D01*
X058664Y040438D01*
X058560Y040689D01*
X058368Y040881D01*
X058117Y040985D01*
X057846Y040985D01*
X057595Y040881D01*
X057518Y040804D02*
X053981Y040804D01*
X053981Y040705D02*
X057419Y040705D01*
X057369Y040607D02*
X053981Y040607D01*
X053981Y040508D02*
X057328Y040508D01*
X057299Y040409D02*
X053981Y040409D01*
X053981Y040311D02*
X057299Y040311D01*
X057299Y040212D02*
X053981Y040212D01*
X053981Y040114D02*
X057321Y040114D01*
X057362Y040015D02*
X053981Y040015D01*
X053981Y039917D02*
X057402Y039917D01*
X057500Y039818D02*
X053981Y039818D01*
X053981Y039720D02*
X057605Y039720D01*
X057843Y039621D02*
X053981Y039621D01*
X053981Y039523D02*
X064651Y039523D01*
X064651Y039621D02*
X058120Y039621D01*
X058358Y039720D02*
X064651Y039720D01*
X064651Y039818D02*
X058462Y039818D01*
X058560Y039917D02*
X064651Y039917D01*
X064651Y040015D02*
X058601Y040015D01*
X058642Y040114D02*
X064651Y040114D01*
X064651Y040212D02*
X058664Y040212D01*
X058664Y040311D02*
X062173Y040311D01*
X062181Y040302D02*
X064651Y040302D01*
X064651Y027302D01*
X054981Y027302D01*
X053981Y028302D01*
X053981Y044302D01*
X060181Y044302D01*
X060181Y042302D01*
X062181Y040302D01*
X062074Y040409D02*
X058664Y040409D01*
X058635Y040508D02*
X061976Y040508D01*
X061877Y040607D02*
X058594Y040607D01*
X058544Y040705D02*
X061779Y040705D01*
X061680Y040804D02*
X058445Y040804D01*
X058316Y040902D02*
X061582Y040902D01*
X061483Y041001D02*
X053981Y041001D01*
X053981Y041099D02*
X061384Y041099D01*
X061286Y041198D02*
X053981Y041198D01*
X053981Y041296D02*
X061187Y041296D01*
X061089Y041395D02*
X053981Y041395D01*
X053981Y041493D02*
X060990Y041493D01*
X060892Y041592D02*
X053981Y041592D01*
X053981Y041691D02*
X060793Y041691D01*
X060695Y041789D02*
X053981Y041789D01*
X053981Y041888D02*
X060596Y041888D01*
X060498Y041986D02*
X053981Y041986D01*
X053981Y042085D02*
X060399Y042085D01*
X060301Y042183D02*
X053981Y042183D01*
X053981Y042282D02*
X060202Y042282D01*
X060181Y042380D02*
X053981Y042380D01*
X053981Y042479D02*
X060181Y042479D01*
X060181Y042577D02*
X053981Y042577D01*
X053981Y042676D02*
X060181Y042676D01*
X060181Y042775D02*
X053981Y042775D01*
X053981Y042873D02*
X060181Y042873D01*
X060181Y042972D02*
X053981Y042972D01*
X053981Y043070D02*
X060181Y043070D01*
X060181Y043169D02*
X053981Y043169D01*
X053981Y043267D02*
X060181Y043267D01*
X060181Y043366D02*
X053981Y043366D01*
X053981Y043464D02*
X060181Y043464D01*
X060181Y043563D02*
X053981Y043563D01*
X053981Y043661D02*
X060181Y043661D01*
X060181Y043760D02*
X053981Y043760D01*
X053981Y043859D02*
X060181Y043859D01*
X060181Y043957D02*
X053981Y043957D01*
X053981Y044056D02*
X060181Y044056D01*
X060181Y044154D02*
X053981Y044154D01*
X053981Y044253D02*
X060181Y044253D01*
X064651Y039424D02*
X053981Y039424D01*
X053981Y039326D02*
X064651Y039326D01*
X064651Y039227D02*
X053981Y039227D01*
X053981Y039128D02*
X064651Y039128D01*
X064651Y039030D02*
X053981Y039030D01*
X053981Y038931D02*
X064651Y038931D01*
X064651Y038833D02*
X053981Y038833D01*
X053981Y038734D02*
X064651Y038734D01*
X064651Y038636D02*
X053981Y038636D01*
X053981Y038537D02*
X064651Y038537D01*
X064651Y038439D02*
X053981Y038439D01*
X053981Y038340D02*
X064651Y038340D01*
X064651Y038242D02*
X053981Y038242D01*
X053981Y038143D02*
X064651Y038143D01*
X064651Y038044D02*
X053981Y038044D01*
X053981Y037946D02*
X064651Y037946D01*
X064651Y037847D02*
X053981Y037847D01*
X053981Y037749D02*
X064651Y037749D01*
X064651Y037650D02*
X053981Y037650D01*
X053981Y037552D02*
X064651Y037552D01*
X064651Y037453D02*
X053981Y037453D01*
X053981Y037355D02*
X064651Y037355D01*
X064651Y037256D02*
X053981Y037256D01*
X053981Y037158D02*
X064651Y037158D01*
X064651Y037059D02*
X053981Y037059D01*
X053981Y036960D02*
X064651Y036960D01*
X064651Y036862D02*
X053981Y036862D01*
X053981Y036763D02*
X064651Y036763D01*
X064651Y036665D02*
X053981Y036665D01*
X053981Y036566D02*
X064651Y036566D01*
X064651Y036468D02*
X053981Y036468D01*
X053981Y036369D02*
X064651Y036369D01*
X064651Y036271D02*
X053981Y036271D01*
X053981Y036172D02*
X064651Y036172D01*
X064651Y036074D02*
X053981Y036074D01*
X053981Y035975D02*
X064651Y035975D01*
X064651Y035876D02*
X053981Y035876D01*
X053981Y035778D02*
X064651Y035778D01*
X064651Y035679D02*
X053981Y035679D01*
X053981Y035581D02*
X064651Y035581D01*
X064651Y035482D02*
X053981Y035482D01*
X053981Y035384D02*
X064651Y035384D01*
X064651Y035285D02*
X053981Y035285D01*
X053981Y035187D02*
X064651Y035187D01*
X064651Y035088D02*
X053981Y035088D01*
X053981Y034990D02*
X064651Y034990D01*
X064651Y034891D02*
X053981Y034891D01*
X053981Y034793D02*
X064651Y034793D01*
X064651Y034694D02*
X053981Y034694D01*
X053981Y034595D02*
X064651Y034595D01*
X064651Y034497D02*
X053981Y034497D01*
X053981Y034398D02*
X064651Y034398D01*
X064651Y034300D02*
X053981Y034300D01*
X053981Y034201D02*
X064651Y034201D01*
X064651Y034103D02*
X053981Y034103D01*
X053981Y034004D02*
X064651Y034004D01*
X064651Y033906D02*
X053981Y033906D01*
X053981Y033807D02*
X064651Y033807D01*
X064651Y033709D02*
X053981Y033709D01*
X053981Y033610D02*
X064651Y033610D01*
X064651Y033511D02*
X053981Y033511D01*
X053981Y033413D02*
X064651Y033413D01*
X064651Y033314D02*
X053981Y033314D01*
X053981Y033216D02*
X064651Y033216D01*
X064651Y033117D02*
X053981Y033117D01*
X053981Y033019D02*
X064651Y033019D01*
X064651Y032920D02*
X053981Y032920D01*
X053981Y032822D02*
X064651Y032822D01*
X064651Y032723D02*
X053981Y032723D01*
X053981Y032625D02*
X064651Y032625D01*
X064651Y032526D02*
X053981Y032526D01*
X053981Y032427D02*
X064651Y032427D01*
X064651Y032329D02*
X053981Y032329D01*
X053981Y032230D02*
X064651Y032230D01*
X064651Y032132D02*
X053981Y032132D01*
X053981Y032033D02*
X064651Y032033D01*
X064651Y031935D02*
X053981Y031935D01*
X053981Y031836D02*
X064651Y031836D01*
X064651Y031738D02*
X053981Y031738D01*
X053981Y031639D02*
X064651Y031639D01*
X064651Y031541D02*
X053981Y031541D01*
X053981Y031442D02*
X064651Y031442D01*
X064651Y031344D02*
X053981Y031344D01*
X053981Y031245D02*
X064651Y031245D01*
X064651Y031146D02*
X053981Y031146D01*
X053981Y031048D02*
X064651Y031048D01*
X064651Y030949D02*
X053981Y030949D01*
X053981Y030851D02*
X064651Y030851D01*
X064651Y030752D02*
X053981Y030752D01*
X053981Y030654D02*
X064651Y030654D01*
X064651Y030555D02*
X053981Y030555D01*
X053981Y030457D02*
X064651Y030457D01*
X064651Y030358D02*
X053981Y030358D01*
X053981Y030260D02*
X064651Y030260D01*
X064651Y030161D02*
X053981Y030161D01*
X053981Y030062D02*
X064651Y030062D01*
X064651Y029964D02*
X053981Y029964D01*
X053981Y029865D02*
X064651Y029865D01*
X064651Y029767D02*
X053981Y029767D01*
X053981Y029668D02*
X064651Y029668D01*
X064651Y029570D02*
X053981Y029570D01*
X053981Y029471D02*
X064651Y029471D01*
X064651Y029373D02*
X053981Y029373D01*
X053981Y029274D02*
X064651Y029274D01*
X064651Y029176D02*
X053981Y029176D01*
X053981Y029077D02*
X064651Y029077D01*
X064651Y028978D02*
X053981Y028978D01*
X053981Y028880D02*
X064651Y028880D01*
X064651Y028781D02*
X053981Y028781D01*
X053981Y028683D02*
X064651Y028683D01*
X064651Y028584D02*
X053981Y028584D01*
X053981Y028486D02*
X064651Y028486D01*
X064651Y028387D02*
X053981Y028387D01*
X053995Y028289D02*
X064651Y028289D01*
X064651Y028190D02*
X054094Y028190D01*
X054192Y028092D02*
X064651Y028092D01*
X064651Y027993D02*
X054291Y027993D01*
X054389Y027894D02*
X064651Y027894D01*
X064651Y027796D02*
X054488Y027796D01*
X054586Y027697D02*
X064651Y027697D01*
X064651Y027599D02*
X054685Y027599D01*
X054783Y027500D02*
X064651Y027500D01*
X064651Y027402D02*
X054882Y027402D01*
X054981Y027303D02*
X064651Y027303D01*
X017181Y039621D02*
X016120Y039621D01*
X016358Y039720D02*
X017181Y039720D01*
X017181Y039818D02*
X016462Y039818D01*
X016560Y039917D02*
X017181Y039917D01*
X017181Y040015D02*
X016601Y040015D01*
X016642Y040114D02*
X017181Y040114D01*
X017181Y040212D02*
X016664Y040212D01*
X016664Y040311D02*
X017181Y040311D01*
X017181Y040409D02*
X016664Y040409D01*
X016635Y040508D02*
X017181Y040508D01*
X017181Y040607D02*
X016594Y040607D01*
X016544Y040705D02*
X017181Y040705D01*
X017181Y040804D02*
X016445Y040804D01*
X016316Y040902D02*
X017181Y040902D01*
D34*
X013181Y029302D02*
X013181Y028002D01*
X013181Y025802D02*
X016681Y025802D01*
X019981Y022302D02*
X013181Y022302D01*
X013181Y021302D02*
X013181Y020202D01*
X002681Y020202D01*
D35*
X005281Y025802D02*
X005281Y026902D01*
X007181Y027702D02*
X007181Y030802D01*
X007179Y030832D01*
X007174Y030862D01*
X007165Y030891D01*
X007152Y030918D01*
X007137Y030944D01*
X007118Y030968D01*
X007097Y030989D01*
X007073Y031008D01*
X007047Y031023D01*
X007020Y031036D01*
X006991Y031045D01*
X006961Y031050D01*
X006931Y031052D01*
X005331Y031052D01*
X005305Y031054D01*
X005279Y031059D01*
X005254Y031067D01*
X005231Y031079D01*
X005209Y031093D01*
X005190Y031111D01*
X005172Y031130D01*
X005158Y031152D01*
X005146Y031175D01*
X005138Y031200D01*
X005133Y031226D01*
X005131Y031252D01*
X005131Y031802D01*
X005133Y031832D01*
X005138Y031862D01*
X005147Y031891D01*
X005160Y031918D01*
X005175Y031944D01*
X005194Y031968D01*
X005215Y031989D01*
X005239Y032008D01*
X005265Y032023D01*
X005292Y032036D01*
X005321Y032045D01*
X005351Y032050D01*
X005381Y032052D01*
X006131Y032052D01*
X006131Y031552D02*
X007681Y031552D01*
X007681Y028302D01*
X007683Y028268D01*
X007689Y028235D01*
X007698Y028203D01*
X007711Y028172D01*
X007727Y028142D01*
X007746Y028115D01*
X007769Y028090D01*
X007794Y028067D01*
X007821Y028048D01*
X007851Y028032D01*
X007882Y028019D01*
X007914Y028010D01*
X007947Y028004D01*
X007981Y028002D01*
X013181Y028002D01*
X011181Y027102D02*
X011181Y025802D01*
X011181Y027102D02*
X011179Y027136D01*
X011173Y027169D01*
X011164Y027201D01*
X011151Y027232D01*
X011135Y027262D01*
X011116Y027289D01*
X011093Y027314D01*
X011068Y027337D01*
X011041Y027356D01*
X011011Y027372D01*
X010980Y027385D01*
X010948Y027394D01*
X010915Y027400D01*
X010881Y027402D01*
X007481Y027402D01*
X007447Y027404D01*
X007414Y027410D01*
X007382Y027419D01*
X007351Y027432D01*
X007321Y027448D01*
X007294Y027467D01*
X007269Y027490D01*
X007246Y027515D01*
X007227Y027542D01*
X007211Y027572D01*
X007198Y027603D01*
X007189Y027635D01*
X007183Y027668D01*
X007181Y027702D01*
X005231Y028302D02*
X004581Y028302D01*
X004551Y028304D01*
X004521Y028309D01*
X004492Y028318D01*
X004465Y028331D01*
X004439Y028346D01*
X004415Y028365D01*
X004394Y028386D01*
X004375Y028410D01*
X004360Y028436D01*
X004347Y028463D01*
X004338Y028492D01*
X004333Y028522D01*
X004331Y028552D01*
X004331Y029552D01*
X006081Y029552D01*
X006081Y030552D02*
X004931Y030552D01*
X004331Y029552D02*
X004331Y032752D01*
X004333Y032786D01*
X004339Y032819D01*
X004348Y032851D01*
X004361Y032882D01*
X004377Y032912D01*
X004396Y032939D01*
X004419Y032964D01*
X004444Y032987D01*
X004471Y033006D01*
X004501Y033022D01*
X004532Y033035D01*
X004564Y033044D01*
X004597Y033050D01*
X004631Y033052D01*
X006131Y033052D01*
X006081Y032552D02*
X007431Y032552D01*
X007461Y032550D01*
X007491Y032545D01*
X007520Y032536D01*
X007547Y032523D01*
X007573Y032508D01*
X007597Y032489D01*
X007618Y032468D01*
X007637Y032444D01*
X007652Y032418D01*
X007665Y032391D01*
X007674Y032362D01*
X007679Y032332D01*
X007681Y032302D01*
X007681Y031552D01*
X008181Y031352D02*
X008181Y036202D01*
X008183Y036239D01*
X008189Y036275D01*
X008198Y036310D01*
X008211Y036344D01*
X008228Y036377D01*
X008248Y036408D01*
X008271Y036436D01*
X008297Y036462D01*
X008325Y036485D01*
X008356Y036505D01*
X008389Y036522D01*
X008423Y036535D01*
X008458Y036544D01*
X008494Y036550D01*
X008531Y036552D01*
X018181Y036552D01*
X018215Y036554D01*
X018248Y036560D01*
X018280Y036569D01*
X018311Y036582D01*
X018341Y036598D01*
X018368Y036617D01*
X018393Y036640D01*
X018416Y036665D01*
X018435Y036692D01*
X018451Y036722D01*
X018464Y036753D01*
X018473Y036785D01*
X018479Y036818D01*
X018481Y036852D01*
X018481Y038052D01*
X014281Y035502D02*
X013181Y035302D01*
X012281Y035302D02*
X011481Y035302D01*
X011481Y034252D01*
X011473Y034219D01*
X011462Y034187D01*
X011448Y034156D01*
X011429Y034127D01*
X011408Y034100D01*
X011384Y034076D01*
X011358Y034055D01*
X011329Y034036D01*
X011298Y034022D01*
X011266Y034010D01*
X011233Y034002D01*
X011199Y033999D01*
X011165Y033998D01*
X011131Y034002D01*
X008931Y034002D01*
X008901Y034000D01*
X008871Y033995D01*
X008842Y033986D01*
X008815Y033973D01*
X008789Y033958D01*
X008765Y033939D01*
X008744Y033918D01*
X008725Y033894D01*
X008710Y033868D01*
X008697Y033841D01*
X008688Y033812D01*
X008683Y033782D01*
X008681Y033752D01*
X008681Y031802D01*
X008683Y031772D01*
X008688Y031742D01*
X008697Y031713D01*
X008710Y031686D01*
X008725Y031660D01*
X008744Y031636D01*
X008765Y031615D01*
X008789Y031596D01*
X008815Y031581D01*
X008842Y031568D01*
X008871Y031559D01*
X008901Y031554D01*
X008931Y031552D01*
X010381Y031552D01*
X010431Y032052D02*
X009731Y032052D01*
X009731Y032552D02*
X011881Y032552D01*
X011915Y032550D01*
X011948Y032544D01*
X011980Y032535D01*
X012011Y032522D01*
X012041Y032506D01*
X012068Y032487D01*
X012093Y032464D01*
X012116Y032439D01*
X012135Y032412D01*
X012151Y032382D01*
X012164Y032351D01*
X012173Y032319D01*
X012179Y032286D01*
X012181Y032252D01*
X012181Y030602D01*
X012183Y030568D01*
X012189Y030535D01*
X012198Y030503D01*
X012211Y030472D01*
X012227Y030442D01*
X012246Y030415D01*
X012269Y030390D01*
X012294Y030367D01*
X012321Y030348D01*
X012351Y030332D01*
X012382Y030319D01*
X012414Y030310D01*
X012447Y030304D01*
X012481Y030302D01*
X013181Y030302D01*
X013181Y031302D02*
X013181Y032702D01*
X013179Y032739D01*
X013173Y032775D01*
X013164Y032810D01*
X013151Y032844D01*
X013134Y032877D01*
X013114Y032908D01*
X013091Y032936D01*
X013065Y032962D01*
X013037Y032985D01*
X013006Y033005D01*
X012973Y033022D01*
X012939Y033035D01*
X012904Y033044D01*
X012868Y033050D01*
X012831Y033052D01*
X009681Y033052D01*
X009731Y031052D02*
X008481Y031052D01*
X008447Y031054D01*
X008414Y031060D01*
X008382Y031069D01*
X008351Y031082D01*
X008321Y031098D01*
X008294Y031117D01*
X008269Y031140D01*
X008246Y031165D01*
X008227Y031192D01*
X008211Y031222D01*
X008198Y031253D01*
X008189Y031285D01*
X008183Y031318D01*
X008181Y031352D01*
X009731Y030052D02*
X011181Y030052D01*
X011181Y031152D02*
X011142Y031200D01*
X011101Y031246D01*
X011057Y031289D01*
X011010Y031330D01*
X010961Y031367D01*
X010909Y031401D01*
X010856Y031432D01*
X010800Y031460D01*
X010743Y031484D01*
X010685Y031505D01*
X010626Y031522D01*
X010565Y031535D01*
X010504Y031544D01*
X010443Y031550D01*
X010381Y031552D01*
X010431Y032053D02*
X010526Y032051D01*
X010621Y032047D01*
X010715Y032039D01*
X010809Y032028D01*
X010903Y032014D01*
X010997Y031997D01*
X011089Y031976D01*
X011181Y031953D01*
X011481Y035302D02*
X010731Y035302D01*
X009731Y035302D02*
X008931Y035302D01*
X025181Y040302D02*
X026181Y040302D01*
X027181Y040302D02*
X028181Y040302D01*
X028181Y039102D01*
X029181Y039102D02*
X029181Y040302D01*
X030181Y040302D02*
X031181Y040302D01*
X031225Y040300D01*
X031268Y040294D01*
X031310Y040285D01*
X031352Y040272D01*
X031392Y040255D01*
X031431Y040235D01*
X031468Y040212D01*
X031502Y040185D01*
X031535Y040156D01*
X031564Y040123D01*
X031591Y040089D01*
X031614Y040052D01*
X031634Y040013D01*
X031651Y039973D01*
X031664Y039931D01*
X031673Y039889D01*
X031679Y039846D01*
X031681Y039802D01*
X031681Y033802D01*
X031683Y033758D01*
X031689Y033715D01*
X031698Y033673D01*
X031711Y033631D01*
X031728Y033591D01*
X031748Y033552D01*
X031771Y033515D01*
X031798Y033481D01*
X031827Y033448D01*
X031860Y033419D01*
X031894Y033392D01*
X031931Y033369D01*
X031970Y033349D01*
X032010Y033332D01*
X032052Y033319D01*
X032094Y033310D01*
X032137Y033304D01*
X032181Y033302D01*
X032981Y033302D01*
X033025Y033300D01*
X033068Y033294D01*
X033110Y033285D01*
X033152Y033272D01*
X033192Y033255D01*
X033231Y033235D01*
X033268Y033212D01*
X033302Y033185D01*
X033335Y033156D01*
X033364Y033123D01*
X033391Y033089D01*
X033414Y033052D01*
X033434Y033013D01*
X033451Y032973D01*
X033464Y032931D01*
X033473Y032889D01*
X033479Y032846D01*
X033481Y032802D01*
X033481Y031302D01*
X033483Y031258D01*
X033489Y031215D01*
X033498Y031173D01*
X033511Y031131D01*
X033528Y031091D01*
X033548Y031052D01*
X033571Y031015D01*
X033598Y030981D01*
X033627Y030948D01*
X033660Y030919D01*
X033694Y030892D01*
X033731Y030869D01*
X033770Y030849D01*
X033810Y030832D01*
X033852Y030819D01*
X033894Y030810D01*
X033937Y030804D01*
X033981Y030802D01*
X035681Y030802D01*
X035725Y030800D01*
X035768Y030794D01*
X035810Y030785D01*
X035852Y030772D01*
X035892Y030755D01*
X035931Y030735D01*
X035968Y030712D01*
X036002Y030685D01*
X036035Y030656D01*
X036064Y030623D01*
X036091Y030589D01*
X036114Y030552D01*
X036134Y030513D01*
X036151Y030473D01*
X036164Y030431D01*
X036173Y030389D01*
X036179Y030346D01*
X036181Y030302D01*
X036181Y029802D01*
X037181Y031302D02*
X037181Y031802D01*
X037179Y031870D01*
X037174Y031938D01*
X037164Y032006D01*
X037151Y032073D01*
X037135Y032139D01*
X037115Y032204D01*
X037091Y032268D01*
X037064Y032330D01*
X037033Y032391D01*
X037000Y032451D01*
X036963Y032508D01*
X036923Y032563D01*
X036880Y032616D01*
X036834Y032666D01*
X036785Y032714D01*
X036734Y032760D01*
X036681Y032802D01*
X033181Y029802D02*
X032381Y029802D01*
X032342Y029800D01*
X032303Y029794D01*
X032265Y029785D01*
X032228Y029772D01*
X032192Y029755D01*
X032159Y029735D01*
X032127Y029711D01*
X032098Y029685D01*
X032072Y029656D01*
X032048Y029624D01*
X032028Y029591D01*
X032011Y029555D01*
X031998Y029518D01*
X031989Y029480D01*
X031983Y029441D01*
X031981Y029402D01*
X031981Y028802D01*
X029981Y029802D02*
X029981Y035302D01*
X029979Y035346D01*
X029973Y035389D01*
X029964Y035431D01*
X029951Y035473D01*
X029934Y035513D01*
X029914Y035552D01*
X029891Y035589D01*
X029864Y035623D01*
X029835Y035656D01*
X029802Y035685D01*
X029768Y035712D01*
X029731Y035735D01*
X029692Y035755D01*
X029652Y035772D01*
X029610Y035785D01*
X029568Y035794D01*
X029525Y035800D01*
X029481Y035802D01*
X028681Y035802D01*
X031981Y031802D02*
X031981Y030802D01*
X028681Y018602D02*
X028681Y017502D01*
X030281Y017702D01*
X030281Y015902D02*
X030281Y013702D01*
X030283Y013663D01*
X030289Y013624D01*
X030298Y013586D01*
X030311Y013549D01*
X030328Y013513D01*
X030348Y013480D01*
X030372Y013448D01*
X030398Y013419D01*
X030427Y013393D01*
X030459Y013369D01*
X030492Y013349D01*
X030528Y013332D01*
X030565Y013319D01*
X030603Y013310D01*
X030642Y013304D01*
X030681Y013302D01*
X033781Y013302D01*
X034781Y013302D02*
X035581Y013302D01*
X035615Y013300D01*
X035648Y013294D01*
X035680Y013285D01*
X035711Y013272D01*
X035741Y013256D01*
X035768Y013237D01*
X035793Y013214D01*
X035816Y013189D01*
X035835Y013162D01*
X035851Y013132D01*
X035864Y013101D01*
X035873Y013069D01*
X035879Y013036D01*
X035881Y013002D01*
X035881Y011302D01*
X035881Y010102D01*
X035879Y010068D01*
X035873Y010035D01*
X035864Y010003D01*
X035851Y009972D01*
X035835Y009942D01*
X035816Y009915D01*
X035793Y009890D01*
X035768Y009867D01*
X035741Y009848D01*
X035711Y009832D01*
X035680Y009819D01*
X035648Y009810D01*
X035615Y009804D01*
X035581Y009802D01*
X034181Y009802D01*
X034181Y010802D02*
X033181Y010802D01*
X033147Y010804D01*
X033114Y010810D01*
X033082Y010819D01*
X033051Y010832D01*
X033021Y010848D01*
X032994Y010867D01*
X032969Y010890D01*
X032946Y010915D01*
X032927Y010942D01*
X032911Y010972D01*
X032898Y011003D01*
X032889Y011035D01*
X032883Y011068D01*
X032881Y011102D01*
X032881Y012502D01*
X032879Y012536D01*
X032873Y012569D01*
X032864Y012601D01*
X032851Y012632D01*
X032835Y012662D01*
X032816Y012689D01*
X032793Y012714D01*
X032768Y012737D01*
X032741Y012756D01*
X032711Y012772D01*
X032680Y012785D01*
X032648Y012794D01*
X032615Y012800D01*
X032581Y012802D01*
X028681Y012802D01*
X028681Y013802D02*
X028681Y014802D01*
X029481Y011802D02*
X029481Y010902D01*
X028381Y010902D01*
X028381Y009902D02*
X028481Y008802D01*
X026881Y008802D01*
X028681Y007302D02*
X031881Y007302D01*
X031915Y007304D01*
X031948Y007310D01*
X031980Y007319D01*
X032011Y007332D01*
X032041Y007348D01*
X032068Y007367D01*
X032093Y007390D01*
X032116Y007415D01*
X032135Y007442D01*
X032151Y007472D01*
X032164Y007503D01*
X032173Y007535D01*
X032179Y007568D01*
X032181Y007602D01*
X032181Y010502D01*
X032179Y010536D01*
X032173Y010569D01*
X032164Y010601D01*
X032151Y010632D01*
X032135Y010662D01*
X032116Y010689D01*
X032093Y010714D01*
X032068Y010737D01*
X032041Y010756D01*
X032011Y010772D01*
X031980Y010785D01*
X031948Y010794D01*
X031915Y010800D01*
X031881Y010802D01*
X031181Y010802D01*
X029481Y009902D02*
X029481Y008802D01*
X031181Y008802D01*
X028681Y006302D02*
X028681Y004502D01*
X030281Y004702D01*
X030181Y001502D02*
X031981Y001502D01*
X029181Y001502D02*
X027781Y001502D01*
X026781Y001502D02*
X025181Y001502D01*
X034981Y007402D02*
X035881Y007402D01*
X037281Y007302D02*
X037281Y008402D01*
X037281Y009402D02*
X037281Y010802D01*
X037281Y011802D02*
X037281Y014802D01*
D36*
X037181Y014802D03*
X037181Y016102D03*
X037181Y017502D03*
X037181Y018802D03*
X035281Y018802D03*
X035281Y017502D03*
X035281Y016102D03*
X035281Y014802D03*
X033481Y014802D03*
X031781Y014802D03*
X031781Y016102D03*
X033481Y016102D03*
X033481Y017502D03*
X031781Y017502D03*
X031781Y018802D03*
X033481Y018802D03*
X033681Y022302D03*
X033681Y023902D03*
X033681Y025502D03*
X038681Y025502D03*
X038681Y023902D03*
X038681Y022302D03*
X044681Y027002D03*
X045881Y027002D03*
X047381Y024802D03*
X048981Y024802D03*
X050581Y024802D03*
X052181Y024802D03*
X054681Y024802D03*
X052181Y022302D03*
X054681Y021302D03*
X057181Y021302D03*
X057181Y019302D03*
X054681Y019302D03*
X053181Y017302D03*
X055281Y016902D03*
X057881Y016902D03*
X060481Y016902D03*
X063781Y020302D03*
X063781Y021502D03*
X063781Y022702D03*
X063781Y023902D03*
X063181Y028402D03*
X061181Y028402D03*
X059181Y028402D03*
X057181Y028402D03*
X055181Y028402D03*
X055181Y030402D03*
X057181Y030402D03*
X059181Y030402D03*
X061181Y030402D03*
X063181Y030402D03*
X063181Y032302D03*
X063181Y034202D03*
X063181Y036102D03*
X063181Y037702D03*
X063181Y039202D03*
X061181Y039202D03*
X061181Y037702D03*
X061181Y036102D03*
X059181Y036102D03*
X057181Y036102D03*
X055181Y036102D03*
X052881Y036902D03*
X051081Y037202D03*
X049281Y037202D03*
X047481Y036902D03*
X047481Y035102D03*
X045481Y035402D03*
X047481Y032902D03*
X049181Y032902D03*
X051081Y032902D03*
X052881Y032902D03*
X055181Y032302D03*
X057181Y032302D03*
X059181Y032302D03*
X061181Y032302D03*
X061181Y034202D03*
X059181Y034202D03*
X057181Y034202D03*
X055181Y034202D03*
X052881Y035102D03*
X052881Y038702D03*
X051081Y038702D03*
X049281Y038702D03*
X047481Y038702D03*
X045881Y032602D03*
X044681Y032602D03*
X047481Y031002D03*
X049281Y031002D03*
X051081Y031002D03*
X052881Y031002D03*
X045481Y029802D03*
X045481Y024302D03*
X046181Y022302D03*
X048981Y022302D03*
X046181Y020302D03*
X052181Y020302D03*
X043781Y010602D03*
X041181Y010602D03*
X041181Y008302D03*
X043181Y008302D03*
X043181Y005302D03*
X041181Y005302D03*
X041181Y002302D03*
X043181Y002302D03*
X045181Y002302D03*
X047181Y002302D03*
X049181Y002302D03*
X051181Y002302D03*
X053481Y002702D03*
X053481Y005302D03*
X052681Y006802D03*
X051181Y005302D03*
X049181Y005302D03*
X047181Y005302D03*
X045181Y005302D03*
X037181Y005802D03*
X037181Y004502D03*
X037181Y003102D03*
X037181Y001802D03*
X035281Y001802D03*
X035281Y003102D03*
X035281Y004502D03*
X035281Y005802D03*
X033481Y005802D03*
X031781Y005802D03*
X031781Y004502D03*
X033481Y004502D03*
X033481Y003102D03*
X031781Y003102D03*
X031781Y001802D03*
X033481Y001802D03*
X024181Y002302D03*
X021681Y002302D03*
X019181Y002302D03*
X016181Y002302D03*
X013181Y002302D03*
X010181Y002302D03*
X007181Y002302D03*
X007181Y005302D03*
X004681Y006302D03*
X002181Y006302D03*
X002181Y008302D03*
X002181Y010302D03*
X004681Y009802D03*
X007181Y008302D03*
X010181Y008302D03*
X013181Y008302D03*
X015681Y007802D03*
X016181Y005302D03*
X013181Y005302D03*
X010181Y005302D03*
X019181Y005302D03*
X021681Y005302D03*
X024181Y005302D03*
X024181Y008302D03*
X021681Y008302D03*
X019181Y008302D03*
X008056Y013052D03*
X005556Y013052D03*
X003056Y013052D03*
X011981Y018802D03*
X016681Y019302D03*
X018181Y019302D03*
X020181Y019302D03*
X022181Y019302D03*
X024181Y019302D03*
X024181Y021302D03*
X022181Y021302D03*
X022181Y023302D03*
X024181Y023302D03*
X024181Y025302D03*
X022181Y025302D03*
X020181Y025302D03*
X018181Y025302D03*
X016681Y025302D03*
X016681Y023302D03*
X018181Y023302D03*
X018181Y021302D03*
X016681Y021302D03*
X016681Y028302D03*
X018181Y028302D03*
X020181Y028302D03*
X022181Y028302D03*
X024181Y028302D03*
X024181Y030302D03*
X022181Y030302D03*
X022181Y032302D03*
X020181Y032302D03*
X018181Y032302D03*
X016681Y032302D03*
X016681Y034302D03*
X018181Y034302D03*
X018181Y030302D03*
X016681Y030302D03*
X024181Y032302D03*
X024181Y034302D03*
X028681Y025502D03*
X028681Y023902D03*
X028681Y022302D03*
X038181Y013302D03*
X005281Y022302D03*
X005281Y025802D03*
D37*
X004931Y030552D03*
X011181Y031952D03*
X008931Y035302D03*
X028681Y027302D03*
X032881Y027302D03*
X037181Y027302D03*
X037181Y031302D03*
X031981Y031802D03*
X042281Y022502D03*
X047981Y018902D03*
X047481Y017302D03*
X048481Y017302D03*
X036581Y020802D03*
X034781Y020802D03*
X032581Y020802D03*
X030781Y020802D03*
X028681Y018602D03*
X028681Y014802D03*
X029481Y011802D03*
X033181Y007402D03*
X035881Y007402D03*
X037281Y007302D03*
X035881Y011302D03*
X046181Y008902D03*
X062981Y025202D03*
X058481Y026702D03*
X057781Y026702D03*
X053181Y029402D03*
X009181Y009927D03*
D38*
X024181Y013402D02*
X026081Y013402D01*
X026136Y013400D01*
X026190Y013395D01*
X026244Y013385D01*
X026297Y013372D01*
X026349Y013356D01*
X026400Y013336D01*
X026449Y013312D01*
X026497Y013286D01*
X026542Y013256D01*
X026586Y013223D01*
X026627Y013187D01*
X026666Y013148D01*
X026702Y013107D01*
X026735Y013063D01*
X026765Y013018D01*
X026791Y012970D01*
X026815Y012921D01*
X026835Y012870D01*
X026851Y012818D01*
X026864Y012765D01*
X026874Y012711D01*
X026879Y012657D01*
X026881Y012602D01*
X026881Y008802D01*
X026881Y003902D01*
X026883Y003847D01*
X026888Y003793D01*
X026898Y003739D01*
X026911Y003686D01*
X026927Y003634D01*
X026947Y003583D01*
X026971Y003534D01*
X026997Y003486D01*
X027027Y003441D01*
X027060Y003397D01*
X027096Y003356D01*
X027135Y003317D01*
X027176Y003281D01*
X027220Y003248D01*
X027265Y003218D01*
X027313Y003192D01*
X027362Y003168D01*
X027413Y003148D01*
X027465Y003132D01*
X027518Y003119D01*
X027572Y003109D01*
X027626Y003104D01*
X027681Y003102D01*
X028681Y003102D01*
X036181Y003802D02*
X038181Y003802D01*
X038236Y003804D01*
X038290Y003809D01*
X038344Y003819D01*
X038397Y003832D01*
X038449Y003848D01*
X038500Y003868D01*
X038549Y003892D01*
X038597Y003918D01*
X038642Y003948D01*
X038686Y003981D01*
X038727Y004017D01*
X038766Y004056D01*
X038802Y004097D01*
X038835Y004141D01*
X038865Y004186D01*
X038891Y004234D01*
X038915Y004283D01*
X038935Y004334D01*
X038951Y004386D01*
X038964Y004439D01*
X038974Y004493D01*
X038979Y004547D01*
X038981Y004602D01*
X038981Y013302D01*
X038981Y020102D01*
X038979Y020154D01*
X038973Y020206D01*
X038963Y020258D01*
X038950Y020308D01*
X038933Y020358D01*
X038912Y020406D01*
X038887Y020452D01*
X038859Y020496D01*
X038828Y020538D01*
X038794Y020578D01*
X038757Y020615D01*
X038717Y020649D01*
X038675Y020680D01*
X038631Y020708D01*
X038585Y020733D01*
X038537Y020754D01*
X038487Y020771D01*
X038437Y020784D01*
X038385Y020794D01*
X038333Y020800D01*
X038281Y020802D01*
X036581Y020802D01*
X034781Y020802D01*
X032581Y020802D02*
X030781Y020802D01*
X032581Y020802D02*
X032581Y018702D01*
X028681Y016102D02*
X027681Y016102D01*
X027626Y016104D01*
X027572Y016109D01*
X027518Y016119D01*
X027465Y016132D01*
X027413Y016148D01*
X027362Y016168D01*
X027313Y016192D01*
X027265Y016218D01*
X027220Y016248D01*
X027176Y016281D01*
X027135Y016317D01*
X027096Y016356D01*
X027060Y016397D01*
X027027Y016441D01*
X026997Y016486D01*
X026971Y016534D01*
X026947Y016583D01*
X026927Y016634D01*
X026911Y016686D01*
X026898Y016739D01*
X026888Y016793D01*
X026883Y016847D01*
X026881Y016902D01*
X026881Y038002D01*
X026879Y038057D01*
X026874Y038111D01*
X026864Y038165D01*
X026851Y038218D01*
X026835Y038270D01*
X026815Y038321D01*
X026791Y038370D01*
X026765Y038418D01*
X026735Y038463D01*
X026702Y038507D01*
X026666Y038548D01*
X026627Y038587D01*
X026586Y038623D01*
X026542Y038656D01*
X026497Y038686D01*
X026449Y038712D01*
X026400Y038736D01*
X026349Y038756D01*
X026297Y038772D01*
X026244Y038785D01*
X026190Y038795D01*
X026136Y038800D01*
X026081Y038802D01*
X024681Y038802D01*
X036681Y035802D02*
X038681Y032802D01*
X038681Y025602D01*
X040381Y035002D02*
X040379Y035057D01*
X040374Y035111D01*
X040364Y035165D01*
X040351Y035218D01*
X040335Y035270D01*
X040315Y035321D01*
X040291Y035370D01*
X040265Y035418D01*
X040235Y035463D01*
X040202Y035507D01*
X040166Y035548D01*
X040127Y035587D01*
X040086Y035623D01*
X040042Y035656D01*
X039997Y035686D01*
X039949Y035712D01*
X039900Y035736D01*
X039849Y035756D01*
X039797Y035772D01*
X039744Y035785D01*
X039690Y035795D01*
X039636Y035800D01*
X039581Y035802D01*
X038681Y035802D01*
X038681Y037802D01*
X040381Y035002D02*
X040381Y015802D01*
D39*
X041681Y014502D01*
X040381Y013802D02*
X040381Y015802D01*
X038981Y013302D02*
X038181Y013302D01*
X030281Y015902D02*
X028681Y016102D01*
X028681Y003102D02*
X030281Y002902D01*
D40*
X048381Y011302D02*
X048381Y013402D01*
X051281Y014302D02*
X051281Y018102D01*
X060681Y020402D02*
X063581Y018302D01*
X063681Y020802D02*
X063681Y023302D01*
X060681Y023302D02*
X060681Y020902D01*
D41*
X059081Y023202D02*
X058281Y023202D01*
M02*
