G75*
G70*
%OFA0B0*%
%FSLAX24Y24*%
%IPPOS*%
%LPD*%
%AMOC8*
5,1,8,0,0,1.08239X$1,22.5*
%
%ADD10R,0.9500X0.9100*%
%ADD11R,0.9500X0.8000*%
%ADD12R,0.7100X0.9000*%
%ADD13R,0.8800X0.8500*%
%ADD14R,0.2900X0.4100*%
%ADD15R,1.1500X0.4400*%
%ADD16R,0.6400X0.5000*%
%ADD17C,0.0945*%
%ADD18C,0.0554*%
%ADD19C,0.0827*%
%ADD20R,0.0800X0.0600*%
%ADD21C,0.1900*%
%ADD22C,0.0650*%
%ADD23R,0.0800X0.1000*%
%ADD24R,0.1000X0.0800*%
%ADD25R,0.2000X0.1000*%
%ADD26C,0.0515*%
%ADD27O,0.1040X0.0520*%
%ADD28R,0.2000X0.2000*%
%ADD29R,0.0600X0.0800*%
%ADD30R,0.1200X0.1800*%
%ADD31R,0.0800X0.0900*%
%ADD32C,0.0320*%
%ADD33C,0.0531*%
%ADD34C,0.0475*%
%ADD35C,0.0240*%
%ADD36C,0.0160*%
%ADD37C,0.0760*%
%ADD38C,0.0660*%
%ADD39C,0.0100*%
%ADD40C,0.0500*%
D10*
X020431Y031752D03*
D11*
X020431Y022302D03*
D12*
X050131Y034802D03*
D13*
X059181Y032252D03*
D14*
X062131Y037552D03*
D15*
X033731Y023902D03*
D16*
X034481Y016802D03*
X034481Y003802D03*
D17*
X035381Y040302D03*
X036981Y040302D03*
X042381Y040302D03*
X043981Y040302D03*
X049381Y040302D03*
X050981Y040302D03*
X056381Y040302D03*
X057981Y040302D03*
X022981Y040302D03*
X021381Y040302D03*
X015981Y040302D03*
X014381Y040302D03*
X008981Y040302D03*
X007381Y040302D03*
D18*
X028181Y040302D03*
X029181Y040302D03*
X030181Y040302D03*
D19*
X028681Y035802D03*
X028681Y032802D03*
X034681Y032802D03*
X036681Y032802D03*
X038681Y032802D03*
X038681Y035802D03*
X036681Y035802D03*
X034681Y035802D03*
X021681Y016502D03*
X024381Y015202D03*
X021681Y013102D03*
X049481Y013202D03*
X049481Y016602D03*
X059181Y011002D03*
X062881Y010802D03*
X059181Y007602D03*
D20*
X062881Y008402D03*
X062881Y009402D03*
X055181Y004802D03*
X055181Y003802D03*
X035881Y008802D03*
X035881Y009802D03*
X032681Y009302D03*
X032681Y010302D03*
X024381Y010802D03*
X024381Y011802D03*
X019181Y010802D03*
X019181Y009802D03*
X034181Y027302D03*
X034181Y028302D03*
X037181Y028802D03*
X037181Y029802D03*
X038281Y029802D03*
X038281Y028802D03*
X049081Y021302D03*
X049081Y020302D03*
D21*
X050181Y035102D03*
X019981Y030302D03*
X019981Y022302D03*
D22*
X013181Y022302D03*
X013181Y023302D03*
X013181Y021302D03*
X013181Y029302D03*
X013181Y030302D03*
X013181Y031302D03*
X049181Y028302D03*
X050181Y028302D03*
X051181Y028302D03*
D23*
X051481Y027002D03*
X052881Y027002D03*
X044481Y018902D03*
X043081Y018902D03*
X031481Y027302D03*
X030081Y027302D03*
X011881Y022302D03*
X010481Y022302D03*
D24*
X011181Y029702D03*
X011181Y031102D03*
D25*
X026881Y031002D03*
X026881Y032802D03*
X026881Y035202D03*
X026881Y028602D03*
D26*
X033181Y028802D03*
X033181Y029802D03*
X036181Y029802D03*
X036181Y028802D03*
D27*
X034181Y011802D03*
X034181Y010802D03*
X034181Y009802D03*
X034181Y008802D03*
X031181Y008802D03*
X031181Y009802D03*
X031181Y010802D03*
X031181Y011802D03*
D28*
X055681Y038302D03*
X058681Y038302D03*
X058681Y042302D03*
X055681Y042302D03*
X051681Y042302D03*
X048681Y042302D03*
X023681Y042302D03*
X020681Y042302D03*
D29*
X030281Y028602D03*
X031281Y028602D03*
X045881Y018902D03*
X046881Y018902D03*
X046381Y017302D03*
X045381Y017302D03*
X049081Y018902D03*
X050081Y018902D03*
X058581Y025202D03*
X059581Y025202D03*
X061081Y025202D03*
X062081Y025202D03*
X050181Y027002D03*
X049181Y027002D03*
X047981Y027002D03*
X046981Y027002D03*
X022181Y010802D03*
X021181Y010802D03*
X056681Y003802D03*
X057681Y003802D03*
D30*
X032581Y036302D03*
X030181Y036302D03*
D31*
X030781Y020802D03*
X032581Y020802D03*
X034781Y020802D03*
X036581Y020802D03*
D32*
X032581Y034302D02*
X032581Y036302D01*
X028681Y035802D02*
X026781Y035202D01*
X028681Y035802D02*
X029057Y035923D01*
X029433Y036046D01*
X029807Y036173D01*
X030181Y036302D01*
X013181Y022302D02*
X011881Y022302D01*
D33*
X016681Y021302D03*
X018181Y021302D03*
X018181Y019302D03*
X016681Y019302D03*
X020181Y019302D03*
X022181Y019302D03*
X024181Y019302D03*
X024181Y021302D03*
X022181Y021302D03*
X022181Y023302D03*
X024181Y023302D03*
X024181Y025302D03*
X022181Y025302D03*
X020181Y025302D03*
X018181Y025302D03*
X016681Y025302D03*
X016681Y023302D03*
X018181Y023302D03*
X011981Y018802D03*
X005281Y022302D03*
X005281Y025802D03*
X016681Y028302D03*
X018181Y028302D03*
X020181Y028302D03*
X022181Y028302D03*
X024181Y028302D03*
X024181Y030302D03*
X022181Y030302D03*
X022181Y032302D03*
X020181Y032302D03*
X018181Y032302D03*
X016681Y032302D03*
X016681Y034302D03*
X018181Y034302D03*
X018181Y030302D03*
X016681Y030302D03*
X024181Y032302D03*
X024181Y034302D03*
X028681Y025502D03*
X028681Y023902D03*
X028681Y022302D03*
X031781Y018802D03*
X033481Y018802D03*
X033481Y017502D03*
X031781Y017502D03*
X031781Y016102D03*
X033481Y016102D03*
X033481Y014802D03*
X031781Y014802D03*
X035281Y014802D03*
X035281Y016102D03*
X035281Y017502D03*
X035281Y018802D03*
X037181Y018802D03*
X037181Y017502D03*
X037181Y016102D03*
X037181Y014802D03*
X038181Y013302D03*
X041181Y010602D03*
X043781Y010602D03*
X043181Y008302D03*
X041181Y008302D03*
X037181Y005802D03*
X037181Y004502D03*
X037181Y003102D03*
X037181Y001802D03*
X035281Y001802D03*
X035281Y003102D03*
X035281Y004502D03*
X035281Y005802D03*
X033481Y005802D03*
X031781Y005802D03*
X031781Y004502D03*
X033481Y004502D03*
X033481Y003102D03*
X031781Y003102D03*
X031781Y001802D03*
X033481Y001802D03*
X041181Y002302D03*
X043181Y002302D03*
X045181Y002302D03*
X047181Y002302D03*
X049181Y002302D03*
X051181Y002302D03*
X053481Y002702D03*
X053481Y005302D03*
X052681Y006802D03*
X051181Y005302D03*
X049181Y005302D03*
X047181Y005302D03*
X045181Y005302D03*
X043181Y005302D03*
X041181Y005302D03*
X024181Y005302D03*
X021681Y005302D03*
X019181Y005302D03*
X016181Y005302D03*
X013181Y005302D03*
X010181Y005302D03*
X007181Y005302D03*
X004681Y006302D03*
X002181Y006302D03*
X002181Y008302D03*
X002181Y010302D03*
X004681Y009802D03*
X007181Y008302D03*
X010181Y008302D03*
X013181Y008302D03*
X015681Y007802D03*
X019181Y008302D03*
X021681Y008302D03*
X024181Y008302D03*
X024181Y002302D03*
X021681Y002302D03*
X019181Y002302D03*
X016181Y002302D03*
X013181Y002302D03*
X010181Y002302D03*
X007181Y002302D03*
X008056Y013052D03*
X005556Y013052D03*
X003056Y013052D03*
X033681Y022302D03*
X033681Y023902D03*
X033681Y025502D03*
X038681Y025502D03*
X038681Y023902D03*
X038681Y022302D03*
X044681Y027002D03*
X045881Y027002D03*
X047381Y024802D03*
X048981Y024802D03*
X050581Y024802D03*
X052181Y024802D03*
X054681Y024802D03*
X052181Y022302D03*
X054681Y021302D03*
X057181Y021302D03*
X057181Y019302D03*
X054681Y019302D03*
X053181Y017302D03*
X055281Y016902D03*
X057881Y016902D03*
X060481Y016902D03*
X063781Y020302D03*
X063781Y021502D03*
X063781Y022702D03*
X063781Y023902D03*
X063181Y028402D03*
X061181Y028402D03*
X059181Y028402D03*
X057181Y028402D03*
X055181Y028402D03*
X055181Y030402D03*
X057181Y030402D03*
X059181Y030402D03*
X061181Y030402D03*
X063181Y030402D03*
X063181Y032302D03*
X063181Y034202D03*
X063181Y036102D03*
X063181Y037702D03*
X063181Y039202D03*
X061181Y039202D03*
X061181Y037702D03*
X061181Y036102D03*
X059181Y036102D03*
X057181Y036102D03*
X055181Y036102D03*
X052881Y036902D03*
X051081Y037202D03*
X049281Y037202D03*
X047481Y036902D03*
X047481Y035102D03*
X045481Y035402D03*
X047481Y032902D03*
X049181Y032902D03*
X051081Y032902D03*
X052881Y032902D03*
X055181Y032302D03*
X057181Y032302D03*
X059181Y032302D03*
X061181Y032302D03*
X061181Y034202D03*
X059181Y034202D03*
X057181Y034202D03*
X055181Y034202D03*
X052881Y035102D03*
X052881Y038702D03*
X051081Y038702D03*
X049281Y038702D03*
X047481Y038702D03*
X045881Y032602D03*
X044681Y032602D03*
X047481Y031002D03*
X049281Y031002D03*
X051081Y031002D03*
X052881Y031002D03*
X045481Y029802D03*
X045481Y024302D03*
X046181Y022302D03*
X048981Y022302D03*
X046181Y020302D03*
X052181Y020302D03*
D34*
X048481Y017302D03*
X047481Y017302D03*
X047981Y018902D03*
X042281Y022502D03*
X036581Y020802D03*
X034781Y020802D03*
X032581Y020802D03*
X030781Y020802D03*
X028681Y018602D03*
X028681Y014802D03*
X029481Y011802D03*
X033181Y007402D03*
X035881Y007402D03*
X037281Y007302D03*
X035881Y011302D03*
X046181Y008902D03*
X062981Y025202D03*
X058481Y026702D03*
X057781Y026702D03*
X053181Y029402D03*
X037181Y031302D03*
X037181Y027302D03*
X032881Y027302D03*
X028681Y027302D03*
X031981Y031802D03*
X011181Y031952D03*
X008931Y035302D03*
X004931Y030552D03*
X009181Y009927D03*
D35*
X009181Y007052D01*
X009183Y007015D01*
X009188Y006979D01*
X009197Y006943D01*
X009210Y006908D01*
X009225Y006875D01*
X009244Y006844D01*
X009266Y006814D01*
X009291Y006787D01*
X009318Y006762D01*
X009348Y006740D01*
X009379Y006721D01*
X009412Y006706D01*
X009447Y006693D01*
X009483Y006684D01*
X009519Y006679D01*
X009556Y006677D01*
X017281Y006677D01*
X017318Y006679D01*
X017354Y006684D01*
X017390Y006693D01*
X017425Y006706D01*
X017458Y006721D01*
X017489Y006740D01*
X017519Y006762D01*
X017546Y006787D01*
X017571Y006814D01*
X017593Y006844D01*
X017612Y006875D01*
X017627Y006909D01*
X017640Y006943D01*
X017649Y006979D01*
X017654Y007015D01*
X017656Y007052D01*
X017656Y010427D01*
X017658Y010464D01*
X017663Y010500D01*
X017672Y010536D01*
X017685Y010571D01*
X017700Y010604D01*
X017719Y010635D01*
X017741Y010665D01*
X017766Y010692D01*
X017793Y010717D01*
X017823Y010739D01*
X017854Y010758D01*
X017888Y010773D01*
X017922Y010786D01*
X017958Y010795D01*
X017994Y010800D01*
X018031Y010802D01*
X019181Y010802D01*
X021181Y010802D01*
X022181Y010802D02*
X024381Y010802D01*
X024381Y011802D02*
X024381Y015202D01*
X028681Y014802D02*
X028681Y018602D01*
X030081Y026502D02*
X030081Y027302D01*
X028681Y027302D01*
X030081Y027302D02*
X030281Y028602D01*
X029681Y028602D01*
X030281Y028602D02*
X030281Y029502D01*
X031281Y028602D02*
X031481Y027302D01*
X032881Y027302D01*
X034181Y027302D01*
X034181Y028302D02*
X033181Y028802D01*
X036181Y028802D02*
X037181Y028802D01*
X038281Y028802D01*
X038281Y029802D02*
X037181Y029802D01*
X037181Y031302D01*
X045881Y027002D02*
X046981Y027002D01*
X046981Y026202D01*
X046981Y027002D02*
X046981Y027702D01*
X047981Y027002D02*
X049181Y027002D01*
X049181Y028302D01*
X050181Y028302D02*
X050181Y027002D01*
X051481Y027002D01*
X052881Y027002D02*
X052881Y026102D01*
X052881Y027002D02*
X053681Y027002D01*
X052881Y027002D02*
X052881Y028002D01*
X057781Y026702D02*
X057781Y025502D01*
X057783Y025468D01*
X057789Y025435D01*
X057798Y025403D01*
X057811Y025372D01*
X057827Y025342D01*
X057846Y025315D01*
X057869Y025290D01*
X057894Y025267D01*
X057921Y025248D01*
X057951Y025232D01*
X057982Y025219D01*
X058014Y025210D01*
X058047Y025204D01*
X058081Y025202D01*
X058581Y025202D01*
X059581Y025202D02*
X060281Y025202D01*
X060281Y026402D01*
X060279Y026436D01*
X060273Y026469D01*
X060264Y026501D01*
X060251Y026532D01*
X060235Y026562D01*
X060216Y026589D01*
X060193Y026614D01*
X060168Y026637D01*
X060141Y026656D01*
X060111Y026672D01*
X060080Y026685D01*
X060048Y026694D01*
X060015Y026700D01*
X059981Y026702D01*
X058481Y026702D01*
X060281Y025202D02*
X061081Y025202D01*
X062081Y025202D02*
X062081Y024402D01*
X062081Y025202D02*
X062081Y026002D01*
X062081Y025202D02*
X062981Y025202D01*
X050781Y018902D02*
X050081Y018902D01*
X050081Y018102D01*
X050081Y018902D02*
X050081Y019602D01*
X049081Y018902D02*
X049081Y018302D01*
X049081Y018902D02*
X049081Y020302D01*
X049081Y021302D02*
X042581Y021302D01*
X042547Y021304D01*
X042514Y021310D01*
X042482Y021319D01*
X042451Y021332D01*
X042421Y021348D01*
X042394Y021367D01*
X042369Y021390D01*
X042346Y021415D01*
X042327Y021442D01*
X042311Y021472D01*
X042298Y021503D01*
X042289Y021535D01*
X042283Y021568D01*
X042281Y021602D01*
X042281Y022502D01*
X043081Y019802D02*
X043081Y018902D01*
X043081Y018002D01*
X043081Y018902D02*
X042281Y018902D01*
X044481Y018902D02*
X045881Y018902D01*
X046881Y018902D02*
X047981Y018902D01*
X049081Y018302D02*
X049079Y018238D01*
X049074Y018173D01*
X049065Y018110D01*
X049052Y018046D01*
X049035Y017984D01*
X049016Y017923D01*
X048992Y017863D01*
X048966Y017804D01*
X048936Y017747D01*
X048903Y017692D01*
X048866Y017638D01*
X048827Y017587D01*
X048785Y017538D01*
X048740Y017492D01*
X048693Y017448D01*
X048643Y017407D01*
X048591Y017369D01*
X048537Y017334D01*
X048481Y017302D01*
X047481Y017302D02*
X046381Y017302D01*
X045381Y017302D02*
X045381Y016602D01*
X045381Y017302D02*
X044681Y017302D01*
X045381Y017302D02*
X045381Y018002D01*
X046181Y008902D02*
X046181Y004302D01*
X046183Y004258D01*
X046189Y004215D01*
X046198Y004173D01*
X046211Y004131D01*
X046228Y004091D01*
X046248Y004052D01*
X046271Y004015D01*
X046298Y003981D01*
X046327Y003948D01*
X046360Y003919D01*
X046394Y003892D01*
X046431Y003869D01*
X046470Y003849D01*
X046510Y003832D01*
X046552Y003819D01*
X046594Y003810D01*
X046637Y003804D01*
X046681Y003802D01*
X055181Y003802D01*
X056681Y003802D01*
X057681Y003802D02*
X059481Y003802D01*
X062881Y007202D01*
X062881Y008402D01*
X062881Y009402D02*
X062881Y010802D01*
X055181Y005702D02*
X055181Y004802D01*
X054381Y004802D01*
X055181Y004802D02*
X055981Y004802D01*
X019981Y009802D02*
X019181Y009802D01*
X019181Y008302D01*
X019181Y009802D02*
X018481Y009802D01*
X010481Y021302D02*
X010481Y022302D01*
X009281Y022302D01*
X010481Y022302D02*
X010481Y023302D01*
X011181Y028752D02*
X011181Y029702D01*
X009831Y029702D01*
X011181Y029702D02*
X012331Y029702D01*
X011181Y031102D02*
X011181Y031952D01*
D36*
X035881Y011302D02*
X035881Y009802D01*
X035881Y008802D02*
X035181Y008802D01*
X035881Y008802D02*
X035881Y008102D01*
X035881Y008802D02*
X036681Y008802D01*
X034181Y010802D02*
X032681Y010302D01*
X032681Y009302D02*
X031181Y008802D01*
D37*
X055281Y038302D02*
X055281Y040302D01*
X056381Y040302D01*
X055281Y040302D02*
X055281Y042302D01*
X049381Y040302D02*
X048681Y042302D01*
X021381Y040302D02*
X020681Y042302D01*
D38*
X028681Y032802D02*
X030181Y034302D01*
X032581Y034302D01*
X035181Y034302D01*
X036681Y032802D01*
X028681Y032802D02*
X026881Y032802D01*
X026881Y031002D01*
X026881Y028602D02*
X026881Y014102D01*
X026883Y014047D01*
X026888Y013993D01*
X026898Y013939D01*
X026911Y013886D01*
X026927Y013834D01*
X026947Y013783D01*
X026971Y013734D01*
X026997Y013686D01*
X027027Y013641D01*
X027060Y013597D01*
X027096Y013556D01*
X027135Y013517D01*
X027176Y013481D01*
X027220Y013448D01*
X027265Y013418D01*
X027313Y013392D01*
X027362Y013368D01*
X027413Y013348D01*
X027465Y013332D01*
X027518Y013319D01*
X027572Y013309D01*
X027626Y013304D01*
X027681Y013302D01*
X038181Y013302D01*
D39*
X005181Y003302D02*
X005181Y001302D01*
X031071Y001302D01*
X031071Y006389D01*
X031194Y006512D01*
X037768Y006512D01*
X037891Y006389D01*
X037891Y001302D01*
X060181Y001302D01*
X060181Y003302D01*
X062181Y005302D01*
X064181Y005302D01*
X064181Y040302D01*
X062181Y040302D01*
X060481Y042002D01*
X060481Y044302D01*
X005181Y044302D01*
X005181Y042302D01*
X003181Y040302D01*
X001181Y040302D01*
X001181Y005302D01*
X003181Y005302D01*
X005181Y003302D01*
X005181Y003259D02*
X031071Y003259D01*
X031071Y003357D02*
X005127Y003357D01*
X005028Y003456D02*
X031071Y003456D01*
X031071Y003554D02*
X004929Y003554D01*
X004831Y003653D02*
X031071Y003653D01*
X031071Y003751D02*
X004732Y003751D01*
X004634Y003850D02*
X031071Y003850D01*
X031071Y003948D02*
X004535Y003948D01*
X004437Y004047D02*
X031071Y004047D01*
X031071Y004146D02*
X004338Y004146D01*
X004240Y004244D02*
X031071Y004244D01*
X031071Y004343D02*
X004141Y004343D01*
X004043Y004441D02*
X031071Y004441D01*
X031071Y004540D02*
X003944Y004540D01*
X003846Y004638D02*
X031071Y004638D01*
X031071Y004737D02*
X003747Y004737D01*
X003648Y004835D02*
X031071Y004835D01*
X031071Y004934D02*
X003550Y004934D01*
X003451Y005032D02*
X031071Y005032D01*
X031071Y005131D02*
X003353Y005131D01*
X003254Y005230D02*
X031071Y005230D01*
X031071Y005328D02*
X001181Y005328D01*
X001181Y005427D02*
X031071Y005427D01*
X031071Y005525D02*
X001181Y005525D01*
X001181Y005624D02*
X031071Y005624D01*
X031071Y005722D02*
X001181Y005722D01*
X001181Y005821D02*
X031071Y005821D01*
X031071Y005919D02*
X001181Y005919D01*
X001181Y006018D02*
X031071Y006018D01*
X031071Y006116D02*
X001181Y006116D01*
X001181Y006215D02*
X031071Y006215D01*
X031071Y006314D02*
X001181Y006314D01*
X001181Y006412D02*
X009260Y006412D01*
X009223Y006428D02*
X009351Y006374D01*
X009403Y006364D01*
X009420Y006347D01*
X009657Y006347D01*
X009693Y006347D01*
X017418Y006347D01*
X017435Y006364D01*
X017487Y006374D01*
X017615Y006428D01*
X017615Y006428D01*
X017731Y006505D01*
X017829Y006603D01*
X017906Y006718D01*
X017906Y006718D01*
X017959Y006847D01*
X017970Y006899D01*
X017986Y006916D01*
X017986Y010291D01*
X017986Y010427D01*
X017987Y010432D01*
X017988Y010440D01*
X017992Y010449D01*
X017997Y010456D01*
X018003Y010462D01*
X018010Y010467D01*
X018018Y010470D01*
X018027Y010472D01*
X018031Y010472D01*
X018168Y010472D01*
X018168Y010472D01*
X018571Y010472D01*
X018571Y010415D01*
X018571Y009415D01*
X018694Y009292D01*
X019668Y009292D01*
X019791Y009415D01*
X019791Y010415D01*
X019791Y010472D01*
X020671Y010472D01*
X020671Y010315D01*
X020794Y010192D01*
X021394Y010192D01*
X021968Y010192D01*
X022568Y010192D01*
X022691Y010315D01*
X022691Y010472D01*
X023771Y010472D01*
X023771Y010415D01*
X023894Y010292D01*
X024868Y010292D01*
X024991Y010415D01*
X024991Y011189D01*
X024991Y011415D01*
X024991Y012189D01*
X024868Y012312D01*
X024711Y012312D01*
X024711Y014664D01*
X024735Y014674D01*
X024910Y014849D01*
X025005Y015078D01*
X025005Y015326D01*
X024910Y015555D01*
X024735Y015731D01*
X024505Y015826D01*
X024257Y015826D01*
X024028Y015731D01*
X023853Y015555D01*
X023758Y015326D01*
X023758Y015078D01*
X023853Y014849D01*
X024028Y014674D01*
X024051Y014664D01*
X024051Y012312D01*
X023894Y012312D01*
X023771Y012189D01*
X023771Y011415D01*
X023771Y011189D01*
X023771Y011132D01*
X022691Y011132D01*
X022691Y011289D01*
X022568Y011412D01*
X021968Y011412D01*
X021394Y011412D01*
X020794Y011412D01*
X020671Y011289D01*
X020671Y011132D01*
X019791Y011132D01*
X019791Y011189D01*
X019668Y011312D01*
X018694Y011312D01*
X018571Y011189D01*
X018571Y011132D01*
X017895Y011132D01*
X017878Y011116D01*
X017826Y011105D01*
X017826Y011105D01*
X017698Y011052D01*
X017697Y011052D01*
X017582Y010975D01*
X017484Y010877D01*
X017484Y010877D01*
X017407Y010761D01*
X017354Y010633D01*
X017343Y010581D01*
X017326Y010564D01*
X017326Y010441D01*
X017326Y010427D01*
X017326Y010291D01*
X017326Y007189D01*
X017326Y007052D01*
X017326Y007048D01*
X017324Y007039D01*
X017321Y007031D01*
X017316Y007024D01*
X017310Y007018D01*
X017303Y007013D01*
X017294Y007009D01*
X017286Y007008D01*
X017281Y007007D01*
X009693Y007007D01*
X009657Y007007D01*
X009556Y007007D01*
X009552Y007008D01*
X009543Y007009D01*
X009535Y007013D01*
X009528Y007018D01*
X009522Y007024D01*
X009517Y007031D01*
X009513Y007039D01*
X009512Y007048D01*
X009511Y007052D01*
X009511Y009625D01*
X009561Y009674D01*
X009629Y009838D01*
X009629Y010016D01*
X009561Y010181D01*
X009435Y010307D01*
X009270Y010375D01*
X009092Y010375D01*
X008928Y010307D01*
X008802Y010181D01*
X008734Y010016D01*
X008734Y009838D01*
X008802Y009674D01*
X008851Y009625D01*
X008851Y006916D01*
X008868Y006899D01*
X008879Y006847D01*
X008879Y006847D01*
X008932Y006718D01*
X009009Y006603D01*
X009107Y006505D01*
X009222Y006428D01*
X009223Y006428D01*
X009351Y006374D02*
X009351Y006374D01*
X009107Y006505D02*
X009107Y006505D01*
X009101Y006511D02*
X001181Y006511D01*
X001181Y006609D02*
X009005Y006609D01*
X009009Y006603D02*
X009009Y006603D01*
X008939Y006708D02*
X001181Y006708D01*
X001181Y006806D02*
X008895Y006806D01*
X008932Y006718D02*
X008932Y006718D01*
X008862Y006905D02*
X001181Y006905D01*
X001181Y007003D02*
X008851Y007003D01*
X008851Y007102D02*
X001181Y007102D01*
X001181Y007200D02*
X008851Y007200D01*
X008851Y007299D02*
X001181Y007299D01*
X001181Y007397D02*
X008851Y007397D01*
X008851Y007496D02*
X001181Y007496D01*
X001181Y007595D02*
X008851Y007595D01*
X008851Y007693D02*
X001181Y007693D01*
X001181Y007792D02*
X008851Y007792D01*
X008851Y007890D02*
X001181Y007890D01*
X001181Y007989D02*
X008851Y007989D01*
X008851Y008087D02*
X001181Y008087D01*
X001181Y008186D02*
X008851Y008186D01*
X008851Y008284D02*
X001181Y008284D01*
X001181Y008383D02*
X008851Y008383D01*
X008851Y008481D02*
X001181Y008481D01*
X001181Y008580D02*
X008851Y008580D01*
X008851Y008679D02*
X001181Y008679D01*
X001181Y008777D02*
X008851Y008777D01*
X008851Y008876D02*
X001181Y008876D01*
X001181Y008974D02*
X008851Y008974D01*
X008851Y009073D02*
X001181Y009073D01*
X001181Y009171D02*
X008851Y009171D01*
X008851Y009270D02*
X001181Y009270D01*
X001181Y009368D02*
X008851Y009368D01*
X008851Y009467D02*
X001181Y009467D01*
X001181Y009565D02*
X008851Y009565D01*
X008812Y009664D02*
X001181Y009664D01*
X001181Y009763D02*
X008765Y009763D01*
X008734Y009861D02*
X001181Y009861D01*
X001181Y009960D02*
X008734Y009960D01*
X008751Y010058D02*
X001181Y010058D01*
X001181Y010157D02*
X008792Y010157D01*
X008876Y010255D02*
X001181Y010255D01*
X001181Y010354D02*
X009042Y010354D01*
X009321Y010354D02*
X017326Y010354D01*
X017326Y010452D02*
X001181Y010452D01*
X001181Y010551D02*
X017326Y010551D01*
X017354Y010633D02*
X017354Y010633D01*
X017360Y010649D02*
X001181Y010649D01*
X001181Y010748D02*
X017401Y010748D01*
X017407Y010761D02*
X017407Y010761D01*
X017464Y010846D02*
X001181Y010846D01*
X001181Y010945D02*
X017552Y010945D01*
X017582Y010975D02*
X017582Y010975D01*
X017685Y011044D02*
X001181Y011044D01*
X001181Y011142D02*
X018571Y011142D01*
X018623Y011241D02*
X001181Y011241D01*
X001181Y011339D02*
X020721Y011339D01*
X020671Y011241D02*
X019740Y011241D01*
X019791Y011142D02*
X020671Y011142D01*
X020671Y010452D02*
X019791Y010452D01*
X019791Y010354D02*
X020671Y010354D01*
X020732Y010255D02*
X019791Y010255D01*
X019791Y010157D02*
X030611Y010157D01*
X030710Y010255D02*
X022631Y010255D01*
X022691Y010354D02*
X023833Y010354D01*
X023771Y010452D02*
X022691Y010452D01*
X022691Y011142D02*
X023771Y011142D01*
X023771Y011241D02*
X022691Y011241D01*
X022641Y011339D02*
X023771Y011339D01*
X023771Y011438D02*
X001181Y011438D01*
X001181Y011536D02*
X023771Y011536D01*
X023771Y011635D02*
X001181Y011635D01*
X001181Y011733D02*
X023771Y011733D01*
X023771Y011832D02*
X001181Y011832D01*
X001181Y011930D02*
X023771Y011930D01*
X023771Y012029D02*
X001181Y012029D01*
X001181Y012128D02*
X023771Y012128D01*
X023808Y012226D02*
X001181Y012226D01*
X001181Y012325D02*
X024051Y012325D01*
X024051Y012423D02*
X001181Y012423D01*
X001181Y012522D02*
X021454Y012522D01*
X021557Y012479D02*
X021805Y012479D01*
X022035Y012574D01*
X022210Y012749D01*
X022305Y012978D01*
X022305Y013226D01*
X022210Y013455D01*
X022035Y013631D01*
X021805Y013726D01*
X021557Y013726D01*
X021328Y013631D01*
X021153Y013455D01*
X021058Y013226D01*
X021058Y012978D01*
X021153Y012749D01*
X021328Y012574D01*
X021557Y012479D01*
X021282Y012620D02*
X001181Y012620D01*
X001181Y012719D02*
X021183Y012719D01*
X021125Y012817D02*
X001181Y012817D01*
X001181Y012916D02*
X021084Y012916D01*
X021058Y013014D02*
X001181Y013014D01*
X001181Y013113D02*
X021058Y013113D01*
X021058Y013212D02*
X001181Y013212D01*
X001181Y013310D02*
X021093Y013310D01*
X021134Y013409D02*
X001181Y013409D01*
X001181Y013507D02*
X021205Y013507D01*
X021303Y013606D02*
X001181Y013606D01*
X001181Y013704D02*
X021506Y013704D01*
X021857Y013704D02*
X024051Y013704D01*
X024051Y013606D02*
X022060Y013606D01*
X022158Y013507D02*
X024051Y013507D01*
X024051Y013409D02*
X022229Y013409D01*
X022270Y013310D02*
X024051Y013310D01*
X024051Y013212D02*
X022305Y013212D01*
X022305Y013113D02*
X024051Y013113D01*
X024051Y013014D02*
X022305Y013014D01*
X022279Y012916D02*
X024051Y012916D01*
X024051Y012817D02*
X022238Y012817D01*
X022179Y012719D02*
X024051Y012719D01*
X024051Y012620D02*
X022081Y012620D01*
X021909Y012522D02*
X024051Y012522D01*
X024711Y012522D02*
X064181Y012522D01*
X064181Y012620D02*
X049705Y012620D01*
X049605Y012579D02*
X049835Y012674D01*
X050010Y012849D01*
X050105Y013078D01*
X050105Y013326D01*
X050010Y013555D01*
X049835Y013731D01*
X049605Y013826D01*
X049357Y013826D01*
X049128Y013731D01*
X048953Y013555D01*
X048858Y013326D01*
X048858Y013078D01*
X048953Y012849D01*
X049128Y012674D01*
X049357Y012579D01*
X049605Y012579D01*
X049879Y012719D02*
X064181Y012719D01*
X064181Y012817D02*
X049978Y012817D01*
X050037Y012916D02*
X064181Y012916D01*
X064181Y013014D02*
X050078Y013014D01*
X050105Y013113D02*
X064181Y013113D01*
X064181Y013212D02*
X050105Y013212D01*
X050105Y013310D02*
X064181Y013310D01*
X064181Y013409D02*
X050071Y013409D01*
X050030Y013507D02*
X064181Y013507D01*
X064181Y013606D02*
X049960Y013606D01*
X049861Y013704D02*
X064181Y013704D01*
X064181Y013803D02*
X049661Y013803D01*
X049302Y013803D02*
X038445Y013803D01*
X038405Y013842D02*
X027681Y013842D01*
X027663Y013843D01*
X027626Y013848D01*
X027591Y013859D01*
X027557Y013874D01*
X027526Y013894D01*
X027498Y013919D01*
X027473Y013947D01*
X027453Y013978D01*
X027438Y014011D01*
X027427Y014047D01*
X027422Y014084D01*
X027421Y014102D01*
X027421Y014326D01*
X027421Y027892D01*
X027968Y027892D01*
X028091Y028015D01*
X028091Y029015D01*
X028091Y030589D01*
X028091Y031589D01*
X027968Y031712D01*
X027421Y031712D01*
X027421Y032092D01*
X027968Y032092D01*
X028091Y032215D01*
X028091Y032262D01*
X028356Y032262D01*
X028557Y032179D01*
X028805Y032179D01*
X029035Y032274D01*
X029210Y032449D01*
X029293Y032651D01*
X030405Y033762D01*
X032805Y033762D01*
X034958Y033762D01*
X036070Y032651D01*
X036153Y032449D01*
X036328Y032274D01*
X036557Y032179D01*
X036805Y032179D01*
X037035Y032274D01*
X037210Y032449D01*
X037305Y032678D01*
X037305Y032926D01*
X037210Y033155D01*
X037035Y033331D01*
X036833Y033414D01*
X035721Y034526D01*
X035405Y034842D01*
X032951Y034842D01*
X032951Y035192D01*
X033268Y035192D01*
X033391Y035315D01*
X033391Y037289D01*
X033268Y037412D01*
X031894Y037412D01*
X030868Y037412D01*
X029494Y037412D01*
X029371Y037289D01*
X029371Y036417D01*
X029054Y036311D01*
X029035Y036331D01*
X028805Y036426D01*
X028557Y036426D01*
X028328Y036331D01*
X028153Y036155D01*
X028090Y036004D01*
X027801Y035912D01*
X025794Y035912D01*
X025671Y035789D01*
X025671Y034789D01*
X025671Y033215D01*
X025671Y032215D01*
X025794Y032092D01*
X026341Y032092D01*
X026341Y031712D01*
X025794Y031712D01*
X025671Y031589D01*
X025671Y030589D01*
X025671Y029015D01*
X025671Y028015D01*
X025794Y027892D01*
X026341Y027892D01*
X026341Y014326D01*
X026341Y014102D01*
X026341Y014097D01*
X026341Y013879D01*
X026363Y013857D01*
X026369Y013817D01*
X026369Y013817D01*
X026423Y013633D01*
X026502Y013459D01*
X026502Y013459D01*
X026606Y013297D01*
X026731Y013152D01*
X026732Y013152D02*
X026876Y013027D01*
X026876Y013027D01*
X027038Y012923D01*
X027212Y012844D01*
X027396Y012790D01*
X027436Y012784D01*
X027458Y012762D01*
X038405Y012762D01*
X038721Y013079D01*
X038721Y013526D01*
X038405Y013842D01*
X038543Y013704D02*
X049102Y013704D01*
X049003Y013606D02*
X038642Y013606D01*
X038721Y013507D02*
X048933Y013507D01*
X048892Y013409D02*
X038721Y013409D01*
X038721Y013310D02*
X048858Y013310D01*
X048858Y013212D02*
X038721Y013212D01*
X038721Y013113D02*
X048858Y013113D01*
X048884Y013014D02*
X038657Y013014D01*
X038559Y012916D02*
X048925Y012916D01*
X048985Y012817D02*
X038460Y012817D01*
X037768Y014092D02*
X037891Y014215D01*
X037891Y019389D01*
X037768Y019512D01*
X031194Y019512D01*
X031071Y019389D01*
X031071Y014215D01*
X031194Y014092D01*
X037768Y014092D01*
X037774Y014098D02*
X064181Y014098D01*
X064181Y014000D02*
X027443Y014000D01*
X027422Y014098D02*
X031188Y014098D01*
X031090Y014197D02*
X027421Y014197D01*
X027421Y014296D02*
X031071Y014296D01*
X031071Y014394D02*
X028865Y014394D01*
X028935Y014423D02*
X029061Y014549D01*
X029129Y014713D01*
X029129Y014891D01*
X029061Y015056D01*
X029011Y015105D01*
X029011Y018299D01*
X029061Y018349D01*
X029129Y018513D01*
X029129Y018691D01*
X029061Y018856D01*
X028935Y018982D01*
X028770Y019050D01*
X028592Y019050D01*
X028428Y018982D01*
X028302Y018856D01*
X028234Y018691D01*
X028234Y018513D01*
X028302Y018349D01*
X028351Y018299D01*
X028351Y015105D01*
X028302Y015056D01*
X028234Y014891D01*
X028234Y014713D01*
X028302Y014549D01*
X028428Y014423D01*
X028592Y014355D01*
X028770Y014355D01*
X028935Y014423D01*
X029004Y014493D02*
X031071Y014493D01*
X031071Y014591D02*
X029078Y014591D01*
X029119Y014690D02*
X031071Y014690D01*
X031071Y014788D02*
X029129Y014788D01*
X029129Y014887D02*
X031071Y014887D01*
X031071Y014985D02*
X029090Y014985D01*
X029033Y015084D02*
X031071Y015084D01*
X031071Y015182D02*
X029011Y015182D01*
X029011Y015281D02*
X031071Y015281D01*
X031071Y015379D02*
X029011Y015379D01*
X029011Y015478D02*
X031071Y015478D01*
X031071Y015577D02*
X029011Y015577D01*
X029011Y015675D02*
X031071Y015675D01*
X031071Y015774D02*
X029011Y015774D01*
X029011Y015872D02*
X031071Y015872D01*
X031071Y015971D02*
X029011Y015971D01*
X029011Y016069D02*
X031071Y016069D01*
X031071Y016168D02*
X029011Y016168D01*
X029011Y016266D02*
X031071Y016266D01*
X031071Y016365D02*
X029011Y016365D01*
X029011Y016463D02*
X031071Y016463D01*
X031071Y016562D02*
X029011Y016562D01*
X029011Y016661D02*
X031071Y016661D01*
X031071Y016759D02*
X029011Y016759D01*
X029011Y016858D02*
X031071Y016858D01*
X031071Y016956D02*
X029011Y016956D01*
X029011Y017055D02*
X031071Y017055D01*
X031071Y017153D02*
X029011Y017153D01*
X029011Y017252D02*
X031071Y017252D01*
X031071Y017350D02*
X029011Y017350D01*
X029011Y017449D02*
X031071Y017449D01*
X031071Y017547D02*
X029011Y017547D01*
X029011Y017646D02*
X031071Y017646D01*
X031071Y017745D02*
X029011Y017745D01*
X029011Y017843D02*
X031071Y017843D01*
X031071Y017942D02*
X029011Y017942D01*
X029011Y018040D02*
X031071Y018040D01*
X031071Y018139D02*
X029011Y018139D01*
X029011Y018237D02*
X031071Y018237D01*
X031071Y018336D02*
X029048Y018336D01*
X029096Y018434D02*
X031071Y018434D01*
X031071Y018533D02*
X029129Y018533D01*
X029129Y018631D02*
X031071Y018631D01*
X031071Y018730D02*
X029113Y018730D01*
X029072Y018829D02*
X031071Y018829D01*
X031071Y018927D02*
X028990Y018927D01*
X028829Y019026D02*
X031071Y019026D01*
X031071Y019124D02*
X027421Y019124D01*
X027421Y019026D02*
X028534Y019026D01*
X028373Y018927D02*
X027421Y018927D01*
X027421Y018829D02*
X028291Y018829D01*
X028250Y018730D02*
X027421Y018730D01*
X027421Y018631D02*
X028234Y018631D01*
X028234Y018533D02*
X027421Y018533D01*
X027421Y018434D02*
X028267Y018434D01*
X028315Y018336D02*
X027421Y018336D01*
X027421Y018237D02*
X028351Y018237D01*
X028351Y018139D02*
X027421Y018139D01*
X027421Y018040D02*
X028351Y018040D01*
X028351Y017942D02*
X027421Y017942D01*
X027421Y017843D02*
X028351Y017843D01*
X028351Y017745D02*
X027421Y017745D01*
X027421Y017646D02*
X028351Y017646D01*
X028351Y017547D02*
X027421Y017547D01*
X027421Y017449D02*
X028351Y017449D01*
X028351Y017350D02*
X027421Y017350D01*
X027421Y017252D02*
X028351Y017252D01*
X028351Y017153D02*
X027421Y017153D01*
X027421Y017055D02*
X028351Y017055D01*
X028351Y016956D02*
X027421Y016956D01*
X027421Y016858D02*
X028351Y016858D01*
X028351Y016759D02*
X027421Y016759D01*
X027421Y016661D02*
X028351Y016661D01*
X028351Y016562D02*
X027421Y016562D01*
X027421Y016463D02*
X028351Y016463D01*
X028351Y016365D02*
X027421Y016365D01*
X027421Y016266D02*
X028351Y016266D01*
X028351Y016168D02*
X027421Y016168D01*
X027421Y016069D02*
X028351Y016069D01*
X028351Y015971D02*
X027421Y015971D01*
X027421Y015872D02*
X028351Y015872D01*
X028351Y015774D02*
X027421Y015774D01*
X027421Y015675D02*
X028351Y015675D01*
X028351Y015577D02*
X027421Y015577D01*
X027421Y015478D02*
X028351Y015478D01*
X028351Y015379D02*
X027421Y015379D01*
X027421Y015281D02*
X028351Y015281D01*
X028351Y015182D02*
X027421Y015182D01*
X027421Y015084D02*
X028330Y015084D01*
X028273Y014985D02*
X027421Y014985D01*
X027421Y014887D02*
X028234Y014887D01*
X028234Y014788D02*
X027421Y014788D01*
X027421Y014690D02*
X028244Y014690D01*
X028285Y014591D02*
X027421Y014591D01*
X027421Y014493D02*
X028358Y014493D01*
X028498Y014394D02*
X027421Y014394D01*
X027517Y013901D02*
X064181Y013901D01*
X064181Y014197D02*
X037873Y014197D01*
X037891Y014296D02*
X064181Y014296D01*
X064181Y014394D02*
X037891Y014394D01*
X037891Y014493D02*
X064181Y014493D01*
X064181Y014591D02*
X037891Y014591D01*
X037891Y014690D02*
X064181Y014690D01*
X064181Y014788D02*
X037891Y014788D01*
X037891Y014887D02*
X064181Y014887D01*
X064181Y014985D02*
X037891Y014985D01*
X037891Y015084D02*
X064181Y015084D01*
X064181Y015182D02*
X037891Y015182D01*
X037891Y015281D02*
X064181Y015281D01*
X064181Y015379D02*
X037891Y015379D01*
X037891Y015478D02*
X064181Y015478D01*
X064181Y015577D02*
X037891Y015577D01*
X037891Y015675D02*
X064181Y015675D01*
X064181Y015774D02*
X037891Y015774D01*
X037891Y015872D02*
X064181Y015872D01*
X064181Y015971D02*
X037891Y015971D01*
X037891Y016069D02*
X049139Y016069D01*
X049128Y016074D02*
X049357Y015979D01*
X049605Y015979D01*
X049835Y016074D01*
X050010Y016249D01*
X050105Y016478D01*
X050105Y016726D01*
X050010Y016955D01*
X049835Y017131D01*
X049605Y017226D01*
X049357Y017226D01*
X049128Y017131D01*
X048953Y016955D01*
X048858Y016726D01*
X048858Y016478D01*
X048953Y016249D01*
X049128Y016074D01*
X049034Y016168D02*
X037891Y016168D01*
X037891Y016266D02*
X048946Y016266D01*
X048905Y016365D02*
X037891Y016365D01*
X037891Y016463D02*
X048864Y016463D01*
X048858Y016562D02*
X037891Y016562D01*
X037891Y016661D02*
X048858Y016661D01*
X048872Y016759D02*
X046835Y016759D01*
X046891Y016815D02*
X046891Y016972D01*
X047179Y016972D01*
X047228Y016923D01*
X047392Y016855D01*
X047570Y016855D01*
X047735Y016923D01*
X047861Y017049D01*
X047929Y017213D01*
X047929Y017391D01*
X047861Y017556D01*
X047735Y017682D01*
X047570Y017750D01*
X047392Y017750D01*
X047228Y017682D01*
X047179Y017632D01*
X046891Y017632D01*
X046891Y017789D01*
X046768Y017912D01*
X046168Y017912D01*
X044994Y017912D01*
X044871Y017789D01*
X044871Y016815D01*
X044994Y016692D01*
X046168Y016692D01*
X046768Y016692D01*
X046891Y016815D01*
X046891Y016858D02*
X047386Y016858D01*
X047577Y016858D02*
X048386Y016858D01*
X048392Y016855D02*
X048570Y016855D01*
X048735Y016923D01*
X048861Y017049D01*
X048929Y017213D01*
X048929Y017216D01*
X049028Y017310D01*
X049152Y017465D01*
X049254Y017634D01*
X049332Y017816D01*
X049385Y018007D01*
X049405Y018160D01*
X049411Y018166D01*
X049411Y018292D01*
X050468Y018292D01*
X050591Y018415D01*
X050591Y019389D01*
X050468Y019512D01*
X049411Y019512D01*
X049411Y019792D01*
X049568Y019792D01*
X049691Y019915D01*
X049691Y020515D01*
X049691Y021089D01*
X049691Y021689D01*
X049568Y021812D01*
X048594Y021812D01*
X048471Y021689D01*
X048471Y021632D01*
X042718Y021632D01*
X042611Y021632D01*
X042611Y021739D01*
X042611Y022200D01*
X042661Y022249D01*
X042729Y022413D01*
X042729Y022591D01*
X042661Y022756D01*
X042535Y022882D01*
X042370Y022950D01*
X042192Y022950D01*
X042028Y022882D01*
X041902Y022756D01*
X041834Y022591D01*
X041834Y022413D01*
X041902Y022249D01*
X041951Y022200D01*
X041951Y021466D01*
X041970Y021447D01*
X041976Y021419D01*
X041976Y021419D01*
X042023Y021304D01*
X042092Y021201D01*
X042092Y021201D01*
X042180Y021113D01*
X042283Y021044D01*
X042398Y020997D01*
X042426Y020991D01*
X042445Y020972D01*
X042519Y020972D01*
X042686Y020972D01*
X042718Y020972D01*
X048471Y020972D01*
X048471Y020515D01*
X048471Y019915D01*
X048594Y019792D01*
X048751Y019792D01*
X048751Y019512D01*
X048694Y019512D01*
X048571Y019389D01*
X048571Y018415D01*
X048694Y018292D01*
X048751Y018292D01*
X048750Y018248D01*
X048735Y018141D01*
X048706Y018036D01*
X048663Y017936D01*
X048607Y017843D01*
X046838Y017843D01*
X046891Y017745D02*
X047380Y017745D01*
X047583Y017745D02*
X048380Y017745D01*
X048392Y017750D02*
X048228Y017682D01*
X048102Y017556D01*
X048034Y017391D01*
X048034Y017213D01*
X048102Y017049D01*
X048228Y016923D01*
X048392Y016855D01*
X048577Y016858D02*
X048912Y016858D01*
X048954Y016956D02*
X048768Y016956D01*
X048863Y017055D02*
X049052Y017055D01*
X049182Y017153D02*
X048904Y017153D01*
X048967Y017252D02*
X064181Y017252D01*
X064181Y017350D02*
X049060Y017350D01*
X049139Y017449D02*
X064181Y017449D01*
X064181Y017547D02*
X049202Y017547D01*
X049259Y017646D02*
X064181Y017646D01*
X064181Y017745D02*
X049301Y017745D01*
X049332Y017816D02*
X049332Y017816D01*
X049339Y017843D02*
X064181Y017843D01*
X064181Y017942D02*
X049366Y017942D01*
X049385Y018007D02*
X049385Y018007D01*
X049389Y018040D02*
X064181Y018040D01*
X064181Y018139D02*
X049403Y018139D01*
X049411Y018237D02*
X064181Y018237D01*
X064181Y018336D02*
X050512Y018336D01*
X050591Y018434D02*
X064181Y018434D01*
X064181Y018533D02*
X050591Y018533D01*
X050591Y018631D02*
X064181Y018631D01*
X064181Y018730D02*
X050591Y018730D01*
X050591Y018829D02*
X064181Y018829D01*
X064181Y018927D02*
X050591Y018927D01*
X050591Y019026D02*
X064181Y019026D01*
X064181Y019124D02*
X050591Y019124D01*
X050591Y019223D02*
X064181Y019223D01*
X064181Y019321D02*
X050591Y019321D01*
X050561Y019420D02*
X064181Y019420D01*
X064181Y019518D02*
X049411Y019518D01*
X049411Y019617D02*
X064181Y019617D01*
X064181Y019715D02*
X049411Y019715D01*
X049590Y019814D02*
X064181Y019814D01*
X064181Y019912D02*
X049689Y019912D01*
X049691Y020011D02*
X064181Y020011D01*
X064181Y020110D02*
X049691Y020110D01*
X049691Y020208D02*
X064181Y020208D01*
X064181Y020307D02*
X049691Y020307D01*
X049691Y020405D02*
X064181Y020405D01*
X064181Y020504D02*
X049691Y020504D01*
X049691Y020602D02*
X064181Y020602D01*
X064181Y020701D02*
X049691Y020701D01*
X049691Y020799D02*
X064181Y020799D01*
X064181Y020898D02*
X049691Y020898D01*
X049691Y020996D02*
X064181Y020996D01*
X064181Y021095D02*
X049691Y021095D01*
X049691Y021194D02*
X064181Y021194D01*
X064181Y021292D02*
X049691Y021292D01*
X049691Y021391D02*
X064181Y021391D01*
X064181Y021489D02*
X049691Y021489D01*
X049691Y021588D02*
X064181Y021588D01*
X064181Y021686D02*
X049691Y021686D01*
X049596Y021785D02*
X064181Y021785D01*
X064181Y021883D02*
X042611Y021883D01*
X042611Y021785D02*
X048567Y021785D01*
X048471Y021686D02*
X042611Y021686D01*
X042718Y021632D02*
X042718Y021632D01*
X042611Y021982D02*
X064181Y021982D01*
X064181Y022080D02*
X042611Y022080D01*
X042611Y022179D02*
X064181Y022179D01*
X064181Y022278D02*
X042673Y022278D01*
X042713Y022376D02*
X064181Y022376D01*
X064181Y022475D02*
X042729Y022475D01*
X042729Y022573D02*
X064181Y022573D01*
X064181Y022672D02*
X042696Y022672D01*
X042646Y022770D02*
X064181Y022770D01*
X064181Y022869D02*
X042548Y022869D01*
X042015Y022869D02*
X039691Y022869D01*
X039691Y022967D02*
X064181Y022967D01*
X064181Y023066D02*
X039691Y023066D01*
X039691Y023164D02*
X064181Y023164D01*
X064181Y023263D02*
X039691Y023263D01*
X039691Y023361D02*
X064181Y023361D01*
X064181Y023460D02*
X039691Y023460D01*
X039691Y023559D02*
X064181Y023559D01*
X064181Y023657D02*
X039691Y023657D01*
X039691Y023756D02*
X064181Y023756D01*
X064181Y023854D02*
X039691Y023854D01*
X039691Y023953D02*
X064181Y023953D01*
X064181Y024051D02*
X039691Y024051D01*
X039691Y024150D02*
X064181Y024150D01*
X064181Y024248D02*
X039691Y024248D01*
X039691Y024347D02*
X064181Y024347D01*
X064181Y024445D02*
X039691Y024445D01*
X039691Y024544D02*
X064181Y024544D01*
X064181Y024643D02*
X062519Y024643D01*
X062468Y024592D02*
X062591Y024715D01*
X062591Y025689D01*
X062468Y025812D01*
X061294Y025812D01*
X060694Y025812D01*
X060611Y025729D01*
X060611Y026539D01*
X060593Y026558D01*
X060587Y026586D01*
X060587Y026586D01*
X060540Y026701D01*
X060471Y026804D01*
X060471Y026804D01*
X060471Y026804D01*
X060383Y026892D01*
X060280Y026961D01*
X060165Y027008D01*
X060137Y027014D01*
X060118Y027032D01*
X060043Y027032D01*
X059981Y027032D01*
X059962Y027032D01*
X059845Y027032D01*
X058784Y027032D01*
X058735Y027082D01*
X058570Y027150D01*
X058392Y027150D01*
X058228Y027082D01*
X058131Y026985D01*
X058035Y027082D01*
X057870Y027150D01*
X057692Y027150D01*
X057528Y027082D01*
X057402Y026956D01*
X057334Y026791D01*
X057334Y026613D01*
X057402Y026449D01*
X057451Y026399D01*
X057451Y025639D01*
X057451Y025502D01*
X057451Y025440D01*
X057451Y025366D01*
X057470Y025347D01*
X057476Y025319D01*
X057476Y025319D01*
X057523Y025204D01*
X057592Y025101D01*
X057592Y025101D01*
X057680Y025013D01*
X057783Y024944D01*
X057898Y024897D01*
X057926Y024891D01*
X057945Y024872D01*
X058071Y024872D01*
X058071Y024715D01*
X058194Y024592D01*
X058968Y024592D01*
X059194Y024592D01*
X059968Y024592D01*
X060091Y024715D01*
X060091Y024872D01*
X060145Y024872D01*
X060418Y024872D01*
X060571Y024872D01*
X060571Y024715D01*
X060694Y024592D01*
X061294Y024592D01*
X062468Y024592D01*
X062591Y024741D02*
X064181Y024741D01*
X064181Y024840D02*
X062591Y024840D01*
X062591Y024938D02*
X064181Y024938D01*
X064181Y025037D02*
X062591Y025037D01*
X062591Y025135D02*
X064181Y025135D01*
X064181Y025234D02*
X062591Y025234D01*
X062591Y025332D02*
X064181Y025332D01*
X064181Y025431D02*
X062591Y025431D01*
X062591Y025529D02*
X064181Y025529D01*
X064181Y025628D02*
X062591Y025628D01*
X062554Y025727D02*
X064181Y025727D01*
X064181Y025825D02*
X060611Y025825D01*
X060611Y025924D02*
X064181Y025924D01*
X064181Y026022D02*
X060611Y026022D01*
X060611Y026121D02*
X064181Y026121D01*
X064181Y026219D02*
X060611Y026219D01*
X060611Y026318D02*
X064181Y026318D01*
X064181Y026416D02*
X060611Y026416D01*
X060611Y026515D02*
X064181Y026515D01*
X064181Y026613D02*
X060576Y026613D01*
X060540Y026701D02*
X060540Y026701D01*
X060532Y026712D02*
X064181Y026712D01*
X064181Y026811D02*
X060464Y026811D01*
X060383Y026892D02*
X060383Y026892D01*
X060357Y026909D02*
X064181Y026909D01*
X064181Y027008D02*
X060166Y027008D01*
X060165Y027008D02*
X060165Y027008D01*
X060043Y027032D02*
X060043Y027032D01*
X060280Y026961D02*
X060280Y026961D01*
X058676Y027106D02*
X064181Y027106D01*
X064181Y027205D02*
X053491Y027205D01*
X053491Y027303D02*
X064181Y027303D01*
X064181Y027402D02*
X053491Y027402D01*
X053491Y027500D02*
X064181Y027500D01*
X064181Y027599D02*
X053482Y027599D01*
X053491Y027589D02*
X053368Y027712D01*
X051794Y027712D01*
X050994Y027712D01*
X050871Y027589D01*
X050871Y027332D01*
X050691Y027332D01*
X050691Y027489D01*
X050568Y027612D01*
X050511Y027612D01*
X050511Y027876D01*
X050635Y027999D01*
X050681Y028112D01*
X050728Y027999D01*
X050878Y027849D01*
X051075Y027768D01*
X051288Y027768D01*
X051484Y027849D01*
X051635Y027999D01*
X051716Y028196D01*
X051716Y028409D01*
X051635Y028605D01*
X051484Y028756D01*
X051288Y028837D01*
X051075Y028837D01*
X050878Y028756D01*
X050728Y028605D01*
X050681Y028493D01*
X050635Y028605D01*
X050484Y028756D01*
X050288Y028837D01*
X050075Y028837D01*
X049878Y028756D01*
X049728Y028605D01*
X049681Y028493D01*
X049635Y028605D01*
X049484Y028756D01*
X049288Y028837D01*
X049075Y028837D01*
X048878Y028756D01*
X048728Y028605D01*
X048647Y028409D01*
X048647Y028196D01*
X048728Y027999D01*
X048851Y027876D01*
X048851Y027612D01*
X048794Y027612D01*
X048671Y027489D01*
X048671Y027332D01*
X048491Y027332D01*
X048491Y027489D01*
X048368Y027612D01*
X047768Y027612D01*
X046594Y027612D01*
X046471Y027489D01*
X046471Y026515D01*
X046594Y026392D01*
X047768Y026392D01*
X048368Y026392D01*
X048491Y026515D01*
X048672Y026515D01*
X048671Y026515D02*
X048794Y026392D01*
X049394Y026392D01*
X049968Y026392D01*
X050568Y026392D01*
X050691Y026515D01*
X050871Y026515D01*
X050871Y026613D02*
X050691Y026613D01*
X050691Y026672D02*
X050871Y026672D01*
X050871Y026415D01*
X050994Y026292D01*
X051794Y026292D01*
X053368Y026292D01*
X053491Y026415D01*
X053491Y027589D01*
X053383Y027697D02*
X064181Y027697D01*
X064181Y027796D02*
X063672Y027796D01*
X063668Y027792D02*
X063791Y027915D01*
X063791Y035415D01*
X063791Y039689D01*
X063668Y039812D01*
X060594Y039812D01*
X060471Y039689D01*
X060471Y036712D01*
X054694Y036712D01*
X054571Y036589D01*
X054571Y027915D01*
X054694Y027792D01*
X063668Y027792D01*
X063771Y027894D02*
X064181Y027894D01*
X064181Y027993D02*
X063791Y027993D01*
X063791Y028092D02*
X064181Y028092D01*
X064181Y028190D02*
X063791Y028190D01*
X063791Y028289D02*
X064181Y028289D01*
X064181Y028387D02*
X063791Y028387D01*
X063791Y028486D02*
X064181Y028486D01*
X064181Y028584D02*
X063791Y028584D01*
X063791Y028683D02*
X064181Y028683D01*
X064181Y028781D02*
X063791Y028781D01*
X063791Y028880D02*
X064181Y028880D01*
X064181Y028978D02*
X063791Y028978D01*
X063791Y029077D02*
X064181Y029077D01*
X064181Y029176D02*
X063791Y029176D01*
X063791Y029274D02*
X064181Y029274D01*
X064181Y029373D02*
X063791Y029373D01*
X063791Y029471D02*
X064181Y029471D01*
X064181Y029570D02*
X063791Y029570D01*
X063791Y029668D02*
X064181Y029668D01*
X064181Y029767D02*
X063791Y029767D01*
X063791Y029865D02*
X064181Y029865D01*
X064181Y029964D02*
X063791Y029964D01*
X063791Y030062D02*
X064181Y030062D01*
X064181Y030161D02*
X063791Y030161D01*
X063791Y030260D02*
X064181Y030260D01*
X064181Y030358D02*
X063791Y030358D01*
X063791Y030457D02*
X064181Y030457D01*
X064181Y030555D02*
X063791Y030555D01*
X063791Y030654D02*
X064181Y030654D01*
X064181Y030752D02*
X063791Y030752D01*
X063791Y030851D02*
X064181Y030851D01*
X064181Y030949D02*
X063791Y030949D01*
X063791Y031048D02*
X064181Y031048D01*
X064181Y031146D02*
X063791Y031146D01*
X063791Y031245D02*
X064181Y031245D01*
X064181Y031344D02*
X063791Y031344D01*
X063791Y031442D02*
X064181Y031442D01*
X064181Y031541D02*
X063791Y031541D01*
X063791Y031639D02*
X064181Y031639D01*
X064181Y031738D02*
X063791Y031738D01*
X063791Y031836D02*
X064181Y031836D01*
X064181Y031935D02*
X063791Y031935D01*
X063791Y032033D02*
X064181Y032033D01*
X064181Y032132D02*
X063791Y032132D01*
X063791Y032230D02*
X064181Y032230D01*
X064181Y032329D02*
X063791Y032329D01*
X063791Y032427D02*
X064181Y032427D01*
X064181Y032526D02*
X063791Y032526D01*
X063791Y032625D02*
X064181Y032625D01*
X064181Y032723D02*
X063791Y032723D01*
X063791Y032822D02*
X064181Y032822D01*
X064181Y032920D02*
X063791Y032920D01*
X063791Y033019D02*
X064181Y033019D01*
X064181Y033117D02*
X063791Y033117D01*
X063791Y033216D02*
X064181Y033216D01*
X064181Y033314D02*
X063791Y033314D01*
X063791Y033413D02*
X064181Y033413D01*
X064181Y033511D02*
X063791Y033511D01*
X063791Y033610D02*
X064181Y033610D01*
X064181Y033709D02*
X063791Y033709D01*
X063791Y033807D02*
X064181Y033807D01*
X064181Y033906D02*
X063791Y033906D01*
X063791Y034004D02*
X064181Y034004D01*
X064181Y034103D02*
X063791Y034103D01*
X063791Y034201D02*
X064181Y034201D01*
X064181Y034300D02*
X063791Y034300D01*
X063791Y034398D02*
X064181Y034398D01*
X064181Y034497D02*
X063791Y034497D01*
X063791Y034595D02*
X064181Y034595D01*
X064181Y034694D02*
X063791Y034694D01*
X063791Y034793D02*
X064181Y034793D01*
X064181Y034891D02*
X063791Y034891D01*
X063791Y034990D02*
X064181Y034990D01*
X064181Y035088D02*
X063791Y035088D01*
X063791Y035187D02*
X064181Y035187D01*
X064181Y035285D02*
X063791Y035285D01*
X063791Y035384D02*
X064181Y035384D01*
X064181Y035482D02*
X063791Y035482D01*
X063791Y035581D02*
X064181Y035581D01*
X064181Y035679D02*
X063791Y035679D01*
X063791Y035778D02*
X064181Y035778D01*
X064181Y035876D02*
X063791Y035876D01*
X063791Y035975D02*
X064181Y035975D01*
X064181Y036074D02*
X063791Y036074D01*
X063791Y036172D02*
X064181Y036172D01*
X064181Y036271D02*
X063791Y036271D01*
X063791Y036369D02*
X064181Y036369D01*
X064181Y036468D02*
X063791Y036468D01*
X063791Y036566D02*
X064181Y036566D01*
X064181Y036665D02*
X063791Y036665D01*
X063791Y036763D02*
X064181Y036763D01*
X064181Y036862D02*
X063791Y036862D01*
X063791Y036960D02*
X064181Y036960D01*
X064181Y037059D02*
X063791Y037059D01*
X063791Y037158D02*
X064181Y037158D01*
X064181Y037256D02*
X063791Y037256D01*
X063791Y037355D02*
X064181Y037355D01*
X064181Y037453D02*
X063791Y037453D01*
X063791Y037552D02*
X064181Y037552D01*
X064181Y037650D02*
X063791Y037650D01*
X063791Y037749D02*
X064181Y037749D01*
X064181Y037847D02*
X063791Y037847D01*
X063791Y037946D02*
X064181Y037946D01*
X064181Y038044D02*
X063791Y038044D01*
X063791Y038143D02*
X064181Y038143D01*
X064181Y038242D02*
X063791Y038242D01*
X063791Y038340D02*
X064181Y038340D01*
X064181Y038439D02*
X063791Y038439D01*
X063791Y038537D02*
X064181Y038537D01*
X064181Y038636D02*
X063791Y038636D01*
X063791Y038734D02*
X064181Y038734D01*
X064181Y038833D02*
X063791Y038833D01*
X063791Y038931D02*
X064181Y038931D01*
X064181Y039030D02*
X063791Y039030D01*
X063791Y039128D02*
X064181Y039128D01*
X064181Y039227D02*
X063791Y039227D01*
X063791Y039326D02*
X064181Y039326D01*
X064181Y039424D02*
X063791Y039424D01*
X063791Y039523D02*
X064181Y039523D01*
X064181Y039621D02*
X063791Y039621D01*
X063761Y039720D02*
X064181Y039720D01*
X064181Y039818D02*
X056862Y039818D01*
X056768Y039724D02*
X056960Y039916D01*
X057064Y040167D01*
X057064Y040438D01*
X056960Y040689D01*
X056768Y040881D01*
X056517Y040985D01*
X056246Y040985D01*
X056023Y040892D01*
X055871Y040892D01*
X055871Y041092D01*
X056768Y041092D01*
X059768Y041092D01*
X059891Y041215D01*
X059891Y043389D01*
X059768Y043512D01*
X056768Y043512D01*
X054594Y043512D01*
X054471Y043389D01*
X054471Y041215D01*
X054594Y041092D01*
X054691Y041092D01*
X054691Y040547D01*
X054691Y040058D01*
X054691Y039512D01*
X054594Y039512D01*
X054471Y039389D01*
X054471Y037215D01*
X054594Y037092D01*
X056768Y037092D01*
X059768Y037092D01*
X059891Y037215D01*
X059891Y039389D01*
X059768Y039512D01*
X056768Y039512D01*
X055871Y039512D01*
X055871Y039712D01*
X056023Y039712D01*
X056246Y039620D01*
X056517Y039620D01*
X056768Y039724D01*
X056758Y039720D02*
X060502Y039720D01*
X060471Y039621D02*
X056520Y039621D01*
X056243Y039621D02*
X055871Y039621D01*
X055871Y039523D02*
X060471Y039523D01*
X060471Y039424D02*
X059857Y039424D01*
X059891Y039326D02*
X060471Y039326D01*
X060471Y039227D02*
X059891Y039227D01*
X059891Y039128D02*
X060471Y039128D01*
X060471Y039030D02*
X059891Y039030D01*
X059891Y038931D02*
X060471Y038931D01*
X060471Y038833D02*
X059891Y038833D01*
X059891Y038734D02*
X060471Y038734D01*
X060471Y038636D02*
X059891Y038636D01*
X059891Y038537D02*
X060471Y038537D01*
X060471Y038439D02*
X059891Y038439D01*
X059891Y038340D02*
X060471Y038340D01*
X060471Y038242D02*
X059891Y038242D01*
X059891Y038143D02*
X060471Y038143D01*
X060471Y038044D02*
X059891Y038044D01*
X059891Y037946D02*
X060471Y037946D01*
X060471Y037847D02*
X059891Y037847D01*
X059891Y037749D02*
X060471Y037749D01*
X060471Y037650D02*
X059891Y037650D01*
X059891Y037552D02*
X060471Y037552D01*
X060471Y037453D02*
X059891Y037453D01*
X059891Y037355D02*
X060471Y037355D01*
X060471Y037256D02*
X059891Y037256D01*
X059834Y037158D02*
X060471Y037158D01*
X060471Y037059D02*
X053891Y037059D01*
X053891Y037158D02*
X054529Y037158D01*
X054471Y037256D02*
X053891Y037256D01*
X053891Y037355D02*
X054471Y037355D01*
X054471Y037453D02*
X053891Y037453D01*
X053891Y037552D02*
X054471Y037552D01*
X054471Y037650D02*
X053891Y037650D01*
X053891Y037749D02*
X054471Y037749D01*
X054471Y037847D02*
X053891Y037847D01*
X053891Y037946D02*
X054471Y037946D01*
X054471Y038044D02*
X053891Y038044D01*
X053891Y038143D02*
X054471Y038143D01*
X054471Y038242D02*
X053891Y038242D01*
X053891Y038340D02*
X054471Y038340D01*
X054471Y038439D02*
X053891Y038439D01*
X053891Y038537D02*
X054471Y038537D01*
X054471Y038636D02*
X053891Y038636D01*
X053891Y038734D02*
X054471Y038734D01*
X054471Y038833D02*
X053891Y038833D01*
X053891Y038931D02*
X054471Y038931D01*
X054471Y039030D02*
X053891Y039030D01*
X053891Y039128D02*
X054471Y039128D01*
X054471Y039227D02*
X053891Y039227D01*
X053891Y039326D02*
X054471Y039326D01*
X054506Y039424D02*
X053857Y039424D01*
X053891Y039389D02*
X053768Y039512D01*
X046494Y039512D01*
X046371Y039389D01*
X046371Y030215D01*
X046494Y030092D01*
X053768Y030092D01*
X053891Y030215D01*
X053891Y039389D01*
X054691Y039523D02*
X001181Y039523D01*
X001181Y039621D02*
X007243Y039621D01*
X007246Y039620D02*
X007517Y039620D01*
X007768Y039724D01*
X007960Y039916D01*
X008064Y040167D01*
X008064Y040438D01*
X007960Y040689D01*
X007768Y040881D01*
X007517Y040985D01*
X007246Y040985D01*
X006995Y040881D01*
X006803Y040689D01*
X006699Y040438D01*
X006699Y040167D01*
X006803Y039916D01*
X006995Y039724D01*
X007246Y039620D01*
X007005Y039720D02*
X001181Y039720D01*
X001181Y039818D02*
X006900Y039818D01*
X006802Y039917D02*
X001181Y039917D01*
X001181Y040015D02*
X006762Y040015D01*
X006721Y040114D02*
X001181Y040114D01*
X001181Y040212D02*
X006699Y040212D01*
X006699Y040311D02*
X003190Y040311D01*
X003289Y040409D02*
X006699Y040409D01*
X006728Y040508D02*
X003387Y040508D01*
X003486Y040607D02*
X006769Y040607D01*
X006819Y040705D02*
X003584Y040705D01*
X003683Y040804D02*
X006918Y040804D01*
X007046Y040902D02*
X003781Y040902D01*
X003880Y041001D02*
X020512Y041001D01*
X020480Y041092D02*
X020704Y040451D01*
X020699Y040438D01*
X020699Y040167D01*
X020803Y039916D01*
X020995Y039724D01*
X021246Y039620D01*
X021517Y039620D01*
X021768Y039724D01*
X021960Y039916D01*
X022064Y040167D01*
X022064Y040438D01*
X021960Y040689D01*
X021823Y040825D01*
X021730Y041092D01*
X024768Y041092D01*
X024891Y041215D01*
X024891Y043389D01*
X024768Y043512D01*
X021594Y043512D01*
X019594Y043512D01*
X019471Y043389D01*
X019471Y041215D01*
X019594Y041092D01*
X020480Y041092D01*
X020546Y040902D02*
X014716Y040902D01*
X014768Y040881D02*
X014517Y040985D01*
X014246Y040985D01*
X013995Y040881D01*
X013803Y040689D01*
X013699Y040438D01*
X013699Y040167D01*
X013803Y039916D01*
X013995Y039724D01*
X014246Y039620D01*
X014517Y039620D01*
X014768Y039724D01*
X014960Y039916D01*
X015064Y040167D01*
X015064Y040438D01*
X014960Y040689D01*
X014768Y040881D01*
X014845Y040804D02*
X020581Y040804D01*
X020615Y040705D02*
X014944Y040705D01*
X014994Y040607D02*
X020650Y040607D01*
X020684Y040508D02*
X015035Y040508D01*
X015064Y040409D02*
X020699Y040409D01*
X020699Y040311D02*
X015064Y040311D01*
X015064Y040212D02*
X020699Y040212D01*
X020721Y040114D02*
X015042Y040114D01*
X015001Y040015D02*
X020762Y040015D01*
X020802Y039917D02*
X014960Y039917D01*
X014862Y039818D02*
X020900Y039818D01*
X021005Y039720D02*
X014758Y039720D01*
X014520Y039621D02*
X021243Y039621D01*
X021520Y039621D02*
X035243Y039621D01*
X035246Y039620D02*
X035517Y039620D01*
X035768Y039724D01*
X035960Y039916D01*
X036064Y040167D01*
X036064Y040438D01*
X035960Y040689D01*
X035768Y040881D01*
X035517Y040985D01*
X035246Y040985D01*
X034995Y040881D01*
X034803Y040689D01*
X034699Y040438D01*
X034699Y040167D01*
X034803Y039916D01*
X034995Y039724D01*
X035246Y039620D01*
X035005Y039720D02*
X021758Y039720D01*
X021862Y039818D02*
X028077Y039818D01*
X028084Y039815D02*
X028278Y039815D01*
X028457Y039889D01*
X028594Y040026D01*
X028669Y040205D01*
X028669Y040399D01*
X028594Y040578D01*
X028457Y040715D01*
X028278Y040789D01*
X028084Y040789D01*
X027905Y040715D01*
X027768Y040578D01*
X027694Y040399D01*
X027694Y040205D01*
X027768Y040026D01*
X027905Y039889D01*
X028084Y039815D01*
X028286Y039818D02*
X030077Y039818D01*
X030084Y039815D02*
X030278Y039815D01*
X030457Y039889D01*
X030594Y040026D01*
X030669Y040205D01*
X030669Y040399D01*
X030594Y040578D01*
X030457Y040715D01*
X030278Y040789D01*
X030084Y040789D01*
X029905Y040715D01*
X029768Y040578D01*
X029694Y040399D01*
X029694Y040205D01*
X029768Y040026D01*
X029905Y039889D01*
X030084Y039815D01*
X030286Y039818D02*
X034900Y039818D01*
X034802Y039917D02*
X030485Y039917D01*
X030583Y040015D02*
X034762Y040015D01*
X034721Y040114D02*
X030631Y040114D01*
X030669Y040212D02*
X034699Y040212D01*
X034699Y040311D02*
X030669Y040311D01*
X030664Y040409D02*
X034699Y040409D01*
X034728Y040508D02*
X030624Y040508D01*
X030566Y040607D02*
X034769Y040607D01*
X034819Y040705D02*
X030468Y040705D01*
X029895Y040705D02*
X028468Y040705D01*
X028566Y040607D02*
X029797Y040607D01*
X029739Y040508D02*
X028624Y040508D01*
X028664Y040409D02*
X029699Y040409D01*
X029694Y040311D02*
X028669Y040311D01*
X028669Y040212D02*
X029694Y040212D01*
X029732Y040114D02*
X028631Y040114D01*
X028583Y040015D02*
X029779Y040015D01*
X029878Y039917D02*
X028485Y039917D01*
X027878Y039917D02*
X021960Y039917D01*
X022001Y040015D02*
X027779Y040015D01*
X027732Y040114D02*
X022042Y040114D01*
X022064Y040212D02*
X027694Y040212D01*
X027694Y040311D02*
X022064Y040311D01*
X022064Y040409D02*
X027699Y040409D01*
X027739Y040508D02*
X022035Y040508D01*
X021994Y040607D02*
X027797Y040607D01*
X027895Y040705D02*
X021944Y040705D01*
X021845Y040804D02*
X034918Y040804D01*
X035046Y040902D02*
X021797Y040902D01*
X021762Y041001D02*
X048512Y041001D01*
X048480Y041092D02*
X048704Y040451D01*
X048699Y040438D01*
X048699Y040167D01*
X048803Y039916D01*
X048995Y039724D01*
X049246Y039620D01*
X049517Y039620D01*
X049768Y039724D01*
X049960Y039916D01*
X050064Y040167D01*
X050064Y040438D01*
X049960Y040689D01*
X049823Y040825D01*
X049730Y041092D01*
X052768Y041092D01*
X052891Y041215D01*
X052891Y043389D01*
X052768Y043512D01*
X049594Y043512D01*
X047594Y043512D01*
X047471Y043389D01*
X047471Y041215D01*
X047594Y041092D01*
X048480Y041092D01*
X048546Y040902D02*
X042716Y040902D01*
X042768Y040881D02*
X042517Y040985D01*
X042246Y040985D01*
X041995Y040881D01*
X041803Y040689D01*
X041699Y040438D01*
X041699Y040167D01*
X041803Y039916D01*
X041995Y039724D01*
X042246Y039620D01*
X042517Y039620D01*
X042768Y039724D01*
X042960Y039916D01*
X043064Y040167D01*
X043064Y040438D01*
X042960Y040689D01*
X042768Y040881D01*
X042845Y040804D02*
X048581Y040804D01*
X048615Y040705D02*
X042944Y040705D01*
X042994Y040607D02*
X048650Y040607D01*
X048684Y040508D02*
X043035Y040508D01*
X043064Y040409D02*
X048699Y040409D01*
X048699Y040311D02*
X043064Y040311D01*
X043064Y040212D02*
X048699Y040212D01*
X048721Y040114D02*
X043042Y040114D01*
X043001Y040015D02*
X048762Y040015D01*
X048802Y039917D02*
X042960Y039917D01*
X042862Y039818D02*
X048900Y039818D01*
X049005Y039720D02*
X042758Y039720D01*
X042520Y039621D02*
X049243Y039621D01*
X049520Y039621D02*
X054691Y039621D01*
X054691Y039720D02*
X049758Y039720D01*
X049862Y039818D02*
X054691Y039818D01*
X054691Y039917D02*
X049960Y039917D01*
X050001Y040015D02*
X054691Y040015D01*
X054691Y040114D02*
X050042Y040114D01*
X050064Y040212D02*
X054691Y040212D01*
X054691Y040311D02*
X050064Y040311D01*
X050064Y040409D02*
X054691Y040409D01*
X054691Y040508D02*
X050035Y040508D01*
X049994Y040607D02*
X054691Y040607D01*
X054691Y040705D02*
X049944Y040705D01*
X049845Y040804D02*
X054691Y040804D01*
X054691Y040902D02*
X049797Y040902D01*
X049762Y041001D02*
X054691Y041001D01*
X054587Y041099D02*
X052775Y041099D01*
X052874Y041198D02*
X054489Y041198D01*
X054471Y041296D02*
X052891Y041296D01*
X052891Y041395D02*
X054471Y041395D01*
X054471Y041493D02*
X052891Y041493D01*
X052891Y041592D02*
X054471Y041592D01*
X054471Y041691D02*
X052891Y041691D01*
X052891Y041789D02*
X054471Y041789D01*
X054471Y041888D02*
X052891Y041888D01*
X052891Y041986D02*
X054471Y041986D01*
X054471Y042085D02*
X052891Y042085D01*
X052891Y042183D02*
X054471Y042183D01*
X054471Y042282D02*
X052891Y042282D01*
X052891Y042380D02*
X054471Y042380D01*
X054471Y042479D02*
X052891Y042479D01*
X052891Y042577D02*
X054471Y042577D01*
X054471Y042676D02*
X052891Y042676D01*
X052891Y042775D02*
X054471Y042775D01*
X054471Y042873D02*
X052891Y042873D01*
X052891Y042972D02*
X054471Y042972D01*
X054471Y043070D02*
X052891Y043070D01*
X052891Y043169D02*
X054471Y043169D01*
X054471Y043267D02*
X052891Y043267D01*
X052891Y043366D02*
X054471Y043366D01*
X054546Y043464D02*
X052816Y043464D01*
X055871Y041001D02*
X061483Y041001D01*
X061384Y041099D02*
X059775Y041099D01*
X059874Y041198D02*
X061286Y041198D01*
X061187Y041296D02*
X059891Y041296D01*
X059891Y041395D02*
X061089Y041395D01*
X060990Y041493D02*
X059891Y041493D01*
X059891Y041592D02*
X060892Y041592D01*
X060793Y041691D02*
X059891Y041691D01*
X059891Y041789D02*
X060695Y041789D01*
X060596Y041888D02*
X059891Y041888D01*
X059891Y041986D02*
X060498Y041986D01*
X060481Y042085D02*
X059891Y042085D01*
X059891Y042183D02*
X060481Y042183D01*
X060481Y042282D02*
X059891Y042282D01*
X059891Y042380D02*
X060481Y042380D01*
X060481Y042479D02*
X059891Y042479D01*
X059891Y042577D02*
X060481Y042577D01*
X060481Y042676D02*
X059891Y042676D01*
X059891Y042775D02*
X060481Y042775D01*
X060481Y042873D02*
X059891Y042873D01*
X059891Y042972D02*
X060481Y042972D01*
X060481Y043070D02*
X059891Y043070D01*
X059891Y043169D02*
X060481Y043169D01*
X060481Y043267D02*
X059891Y043267D01*
X059891Y043366D02*
X060481Y043366D01*
X060481Y043464D02*
X059816Y043464D01*
X060481Y043563D02*
X005181Y043563D01*
X005181Y043661D02*
X060481Y043661D01*
X060481Y043760D02*
X005181Y043760D01*
X005181Y043859D02*
X060481Y043859D01*
X060481Y043957D02*
X005181Y043957D01*
X005181Y044056D02*
X060481Y044056D01*
X060481Y044154D02*
X005181Y044154D01*
X005181Y044253D02*
X060481Y044253D01*
X061582Y040902D02*
X056716Y040902D01*
X056845Y040804D02*
X061680Y040804D01*
X061779Y040705D02*
X056944Y040705D01*
X056994Y040607D02*
X061877Y040607D01*
X061976Y040508D02*
X057035Y040508D01*
X057064Y040409D02*
X062074Y040409D01*
X062173Y040311D02*
X057064Y040311D01*
X057064Y040212D02*
X064181Y040212D01*
X064181Y040114D02*
X057042Y040114D01*
X057001Y040015D02*
X064181Y040015D01*
X064181Y039917D02*
X056960Y039917D01*
X056046Y040902D02*
X055871Y040902D01*
X053891Y036960D02*
X060471Y036960D01*
X060471Y036862D02*
X053891Y036862D01*
X053891Y036763D02*
X060471Y036763D01*
X054647Y036665D02*
X053891Y036665D01*
X053891Y036566D02*
X054571Y036566D01*
X054571Y036468D02*
X053891Y036468D01*
X053891Y036369D02*
X054571Y036369D01*
X054571Y036271D02*
X053891Y036271D01*
X053891Y036172D02*
X054571Y036172D01*
X054571Y036074D02*
X053891Y036074D01*
X053891Y035975D02*
X054571Y035975D01*
X054571Y035876D02*
X053891Y035876D01*
X053891Y035778D02*
X054571Y035778D01*
X054571Y035679D02*
X053891Y035679D01*
X053891Y035581D02*
X054571Y035581D01*
X054571Y035482D02*
X053891Y035482D01*
X053891Y035384D02*
X054571Y035384D01*
X054571Y035285D02*
X053891Y035285D01*
X053891Y035187D02*
X054571Y035187D01*
X054571Y035088D02*
X053891Y035088D01*
X053891Y034990D02*
X054571Y034990D01*
X054571Y034891D02*
X053891Y034891D01*
X053891Y034793D02*
X054571Y034793D01*
X054571Y034694D02*
X053891Y034694D01*
X053891Y034595D02*
X054571Y034595D01*
X054571Y034497D02*
X053891Y034497D01*
X053891Y034398D02*
X054571Y034398D01*
X054571Y034300D02*
X053891Y034300D01*
X053891Y034201D02*
X054571Y034201D01*
X054571Y034103D02*
X053891Y034103D01*
X053891Y034004D02*
X054571Y034004D01*
X054571Y033906D02*
X053891Y033906D01*
X053891Y033807D02*
X054571Y033807D01*
X054571Y033709D02*
X053891Y033709D01*
X053891Y033610D02*
X054571Y033610D01*
X054571Y033511D02*
X053891Y033511D01*
X053891Y033413D02*
X054571Y033413D01*
X054571Y033314D02*
X053891Y033314D01*
X053891Y033216D02*
X054571Y033216D01*
X054571Y033117D02*
X053891Y033117D01*
X053891Y033019D02*
X054571Y033019D01*
X054571Y032920D02*
X053891Y032920D01*
X053891Y032822D02*
X054571Y032822D01*
X054571Y032723D02*
X053891Y032723D01*
X053891Y032625D02*
X054571Y032625D01*
X054571Y032526D02*
X053891Y032526D01*
X053891Y032427D02*
X054571Y032427D01*
X054571Y032329D02*
X053891Y032329D01*
X053891Y032230D02*
X054571Y032230D01*
X054571Y032132D02*
X053891Y032132D01*
X053891Y032033D02*
X054571Y032033D01*
X054571Y031935D02*
X053891Y031935D01*
X053891Y031836D02*
X054571Y031836D01*
X054571Y031738D02*
X053891Y031738D01*
X053891Y031639D02*
X054571Y031639D01*
X054571Y031541D02*
X053891Y031541D01*
X053891Y031442D02*
X054571Y031442D01*
X054571Y031344D02*
X053891Y031344D01*
X053891Y031245D02*
X054571Y031245D01*
X054571Y031146D02*
X053891Y031146D01*
X053891Y031048D02*
X054571Y031048D01*
X054571Y030949D02*
X053891Y030949D01*
X053891Y030851D02*
X054571Y030851D01*
X054571Y030752D02*
X053891Y030752D01*
X053891Y030654D02*
X054571Y030654D01*
X054571Y030555D02*
X053891Y030555D01*
X053891Y030457D02*
X054571Y030457D01*
X054571Y030358D02*
X053891Y030358D01*
X053891Y030260D02*
X054571Y030260D01*
X054571Y030161D02*
X053837Y030161D01*
X054571Y030062D02*
X038891Y030062D01*
X038891Y029964D02*
X054571Y029964D01*
X054571Y029865D02*
X038891Y029865D01*
X038891Y029767D02*
X054571Y029767D01*
X054571Y029668D02*
X038891Y029668D01*
X038891Y029570D02*
X054571Y029570D01*
X054571Y029471D02*
X038891Y029471D01*
X038891Y029415D02*
X038891Y029189D01*
X038891Y028415D01*
X038768Y028292D01*
X037794Y028292D01*
X037668Y028292D01*
X036694Y028292D01*
X036571Y028415D01*
X036571Y028472D01*
X036513Y028472D01*
X036446Y028406D01*
X036274Y028335D01*
X036088Y028335D01*
X035917Y028406D01*
X035785Y028538D01*
X035714Y028709D01*
X035714Y028895D01*
X035785Y029067D01*
X035917Y029199D01*
X036088Y029270D01*
X036274Y029270D01*
X036446Y029199D01*
X036513Y029132D01*
X036571Y029132D01*
X036571Y029189D01*
X036571Y029415D01*
X036571Y029531D01*
X036446Y029406D01*
X036274Y029335D01*
X036088Y029335D01*
X035917Y029406D01*
X035785Y029538D01*
X035714Y029709D01*
X035714Y029895D01*
X035785Y030067D01*
X035917Y030199D01*
X036088Y030270D01*
X036274Y030270D01*
X036446Y030199D01*
X036571Y030073D01*
X036571Y030189D01*
X036694Y030312D01*
X036851Y030312D01*
X036851Y030999D01*
X036802Y031049D01*
X036734Y031213D01*
X036734Y031391D01*
X036802Y031556D01*
X036928Y031682D01*
X037092Y031750D01*
X037270Y031750D01*
X037435Y031682D01*
X037561Y031556D01*
X037629Y031391D01*
X037629Y031213D01*
X037561Y031049D01*
X037511Y030999D01*
X037511Y030312D01*
X037668Y030312D01*
X037794Y030312D01*
X038768Y030312D01*
X038891Y030189D01*
X038891Y029415D01*
X038891Y029373D02*
X054571Y029373D01*
X054571Y029274D02*
X038891Y029274D01*
X038891Y029176D02*
X054571Y029176D01*
X054571Y029077D02*
X038891Y029077D01*
X038891Y028978D02*
X054571Y028978D01*
X054571Y028880D02*
X038891Y028880D01*
X038891Y028781D02*
X048940Y028781D01*
X048806Y028683D02*
X038891Y028683D01*
X038891Y028584D02*
X048719Y028584D01*
X048679Y028486D02*
X038891Y028486D01*
X038863Y028387D02*
X048647Y028387D01*
X048647Y028289D02*
X034791Y028289D01*
X034791Y028387D02*
X035962Y028387D01*
X035837Y028486D02*
X034791Y028486D01*
X034791Y028584D02*
X035766Y028584D01*
X035725Y028683D02*
X034791Y028683D01*
X034791Y028689D02*
X034668Y028812D01*
X033899Y028812D01*
X033627Y028949D01*
X033578Y029067D01*
X033446Y029199D01*
X033274Y029270D01*
X033088Y029270D01*
X032917Y029199D01*
X032785Y029067D01*
X032714Y028895D01*
X032714Y028709D01*
X032785Y028538D01*
X032917Y028406D01*
X033088Y028335D01*
X033274Y028335D01*
X033331Y028359D01*
X033571Y028238D01*
X033571Y027915D01*
X033571Y027689D01*
X033571Y027632D01*
X033184Y027632D01*
X033135Y027682D01*
X032970Y027750D01*
X032792Y027750D01*
X032628Y027682D01*
X032579Y027632D01*
X032091Y027632D01*
X032091Y027889D01*
X031968Y028012D01*
X031706Y028012D01*
X031704Y028028D01*
X031791Y028115D01*
X031791Y029089D01*
X031668Y029212D01*
X030894Y029212D01*
X029894Y029212D01*
X029771Y029089D01*
X029771Y028115D01*
X029874Y028012D01*
X029594Y028012D01*
X029471Y027889D01*
X029471Y026715D01*
X029594Y026592D01*
X030994Y026592D01*
X031968Y026592D01*
X032091Y026715D01*
X032091Y026972D01*
X032579Y026972D01*
X032628Y026923D01*
X032792Y026855D01*
X032970Y026855D01*
X033135Y026923D01*
X033184Y026972D01*
X033571Y026972D01*
X033571Y026915D01*
X033694Y026792D01*
X034668Y026792D01*
X034791Y026915D01*
X034791Y027689D01*
X034791Y027915D01*
X034791Y028689D01*
X034699Y028781D02*
X035714Y028781D01*
X035714Y028880D02*
X033764Y028880D01*
X033614Y028978D02*
X035748Y028978D01*
X035795Y029077D02*
X033568Y029077D01*
X033469Y029176D02*
X035894Y029176D01*
X035997Y029373D02*
X033366Y029373D01*
X033446Y029406D02*
X033578Y029538D01*
X033649Y029709D01*
X033649Y029895D01*
X033578Y030067D01*
X033446Y030199D01*
X033274Y030270D01*
X033088Y030270D01*
X032917Y030199D01*
X032785Y030067D01*
X032714Y029895D01*
X032714Y029709D01*
X032785Y029538D01*
X032917Y029406D01*
X033088Y029335D01*
X033274Y029335D01*
X033446Y029406D01*
X033511Y029471D02*
X035851Y029471D01*
X035772Y029570D02*
X033591Y029570D01*
X033632Y029668D02*
X035731Y029668D01*
X035714Y029767D02*
X033649Y029767D01*
X033649Y029865D02*
X035714Y029865D01*
X035742Y029964D02*
X033620Y029964D01*
X033580Y030062D02*
X035783Y030062D01*
X035879Y030161D02*
X033484Y030161D01*
X033299Y030260D02*
X036064Y030260D01*
X036299Y030260D02*
X036642Y030260D01*
X036571Y030161D02*
X036484Y030161D01*
X036851Y030358D02*
X028091Y030358D01*
X028091Y030260D02*
X033064Y030260D01*
X032879Y030161D02*
X028091Y030161D01*
X028091Y030062D02*
X032783Y030062D01*
X032742Y029964D02*
X028091Y029964D01*
X028091Y029865D02*
X032714Y029865D01*
X032714Y029767D02*
X028091Y029767D01*
X028091Y029668D02*
X032731Y029668D01*
X032772Y029570D02*
X028091Y029570D01*
X028091Y029471D02*
X032851Y029471D01*
X032997Y029373D02*
X028091Y029373D01*
X028091Y029274D02*
X036571Y029274D01*
X036571Y029176D02*
X036469Y029176D01*
X036571Y029373D02*
X036366Y029373D01*
X036511Y029471D02*
X036571Y029471D01*
X036851Y030457D02*
X028091Y030457D01*
X028091Y030555D02*
X036851Y030555D01*
X036851Y030654D02*
X028091Y030654D01*
X028091Y030752D02*
X036851Y030752D01*
X036851Y030851D02*
X028091Y030851D01*
X028091Y030949D02*
X036851Y030949D01*
X036803Y031048D02*
X028091Y031048D01*
X028091Y031146D02*
X036762Y031146D01*
X036734Y031245D02*
X028091Y031245D01*
X028091Y031344D02*
X036734Y031344D01*
X036755Y031442D02*
X028091Y031442D01*
X028091Y031541D02*
X036796Y031541D01*
X036885Y031639D02*
X028042Y031639D01*
X028008Y032132D02*
X046371Y032132D01*
X046371Y032230D02*
X038930Y032230D01*
X039035Y032274D02*
X039210Y032449D01*
X039305Y032678D01*
X039305Y032926D01*
X039210Y033155D01*
X039035Y033331D01*
X038805Y033426D01*
X038557Y033426D01*
X038328Y033331D01*
X038153Y033155D01*
X038058Y032926D01*
X038058Y032678D01*
X038153Y032449D01*
X038328Y032274D01*
X038557Y032179D01*
X038805Y032179D01*
X039035Y032274D01*
X039090Y032329D02*
X046371Y032329D01*
X046371Y032427D02*
X039188Y032427D01*
X039242Y032526D02*
X046371Y032526D01*
X046371Y032625D02*
X039282Y032625D01*
X039305Y032723D02*
X046371Y032723D01*
X046371Y032822D02*
X039305Y032822D01*
X039305Y032920D02*
X046371Y032920D01*
X046371Y033019D02*
X039267Y033019D01*
X039226Y033117D02*
X046371Y033117D01*
X046371Y033216D02*
X039150Y033216D01*
X039051Y033314D02*
X046371Y033314D01*
X046371Y033413D02*
X038836Y033413D01*
X038527Y033413D02*
X036836Y033413D01*
X036736Y033511D02*
X046371Y033511D01*
X046371Y033610D02*
X036637Y033610D01*
X036539Y033709D02*
X046371Y033709D01*
X046371Y033807D02*
X036440Y033807D01*
X036342Y033906D02*
X046371Y033906D01*
X046371Y034004D02*
X036243Y034004D01*
X036145Y034103D02*
X046371Y034103D01*
X046371Y034201D02*
X036046Y034201D01*
X035948Y034300D02*
X046371Y034300D01*
X046371Y034398D02*
X035849Y034398D01*
X035750Y034497D02*
X046371Y034497D01*
X046371Y034595D02*
X035652Y034595D01*
X035553Y034694D02*
X046371Y034694D01*
X046371Y034793D02*
X035455Y034793D01*
X035035Y035274D02*
X034805Y035179D01*
X034557Y035179D01*
X034328Y035274D01*
X034153Y035449D01*
X034058Y035678D01*
X034058Y035926D01*
X034153Y036155D01*
X034328Y036331D01*
X034557Y036426D01*
X034805Y036426D01*
X035035Y036331D01*
X035210Y036155D01*
X035305Y035926D01*
X035305Y035678D01*
X035210Y035449D01*
X035035Y035274D01*
X035046Y035285D02*
X036317Y035285D01*
X036328Y035274D02*
X036557Y035179D01*
X036805Y035179D01*
X037035Y035274D01*
X037210Y035449D01*
X037305Y035678D01*
X037305Y035926D01*
X037210Y036155D01*
X037035Y036331D01*
X036805Y036426D01*
X036557Y036426D01*
X036328Y036331D01*
X036153Y036155D01*
X036058Y035926D01*
X036058Y035678D01*
X036153Y035449D01*
X036328Y035274D01*
X036218Y035384D02*
X035144Y035384D01*
X035224Y035482D02*
X036139Y035482D01*
X036098Y035581D02*
X035264Y035581D01*
X035305Y035679D02*
X036058Y035679D01*
X036058Y035778D02*
X035305Y035778D01*
X035305Y035876D02*
X036058Y035876D01*
X036078Y035975D02*
X035285Y035975D01*
X035244Y036074D02*
X036119Y036074D01*
X036170Y036172D02*
X035193Y036172D01*
X035095Y036271D02*
X036268Y036271D01*
X036421Y036369D02*
X034942Y036369D01*
X034421Y036369D02*
X033391Y036369D01*
X033391Y036271D02*
X034268Y036271D01*
X034170Y036172D02*
X033391Y036172D01*
X033391Y036074D02*
X034119Y036074D01*
X034078Y035975D02*
X033391Y035975D01*
X033391Y035876D02*
X034058Y035876D01*
X034058Y035778D02*
X033391Y035778D01*
X033391Y035679D02*
X034058Y035679D01*
X034098Y035581D02*
X033391Y035581D01*
X033391Y035482D02*
X034139Y035482D01*
X034218Y035384D02*
X033391Y035384D01*
X033361Y035285D02*
X034317Y035285D01*
X034539Y035187D02*
X032951Y035187D01*
X032951Y035088D02*
X046371Y035088D01*
X046371Y034990D02*
X032951Y034990D01*
X032951Y034891D02*
X046371Y034891D01*
X046371Y035187D02*
X038824Y035187D01*
X038805Y035179D02*
X039035Y035274D01*
X039210Y035449D01*
X039305Y035678D01*
X039305Y035926D01*
X039210Y036155D01*
X039035Y036331D01*
X038805Y036426D01*
X038557Y036426D01*
X038328Y036331D01*
X038153Y036155D01*
X038058Y035926D01*
X038058Y035678D01*
X038153Y035449D01*
X038328Y035274D01*
X038557Y035179D01*
X038805Y035179D01*
X039046Y035285D02*
X046371Y035285D01*
X046371Y035384D02*
X039144Y035384D01*
X039224Y035482D02*
X046371Y035482D01*
X046371Y035581D02*
X039264Y035581D01*
X039305Y035679D02*
X046371Y035679D01*
X046371Y035778D02*
X039305Y035778D01*
X039305Y035876D02*
X046371Y035876D01*
X046371Y035975D02*
X039285Y035975D01*
X039244Y036074D02*
X046371Y036074D01*
X046371Y036172D02*
X039193Y036172D01*
X039095Y036271D02*
X046371Y036271D01*
X046371Y036369D02*
X038942Y036369D01*
X038421Y036369D02*
X036942Y036369D01*
X037095Y036271D02*
X038268Y036271D01*
X038170Y036172D02*
X037193Y036172D01*
X037244Y036074D02*
X038119Y036074D01*
X038078Y035975D02*
X037285Y035975D01*
X037305Y035876D02*
X038058Y035876D01*
X038058Y035778D02*
X037305Y035778D01*
X037305Y035679D02*
X038058Y035679D01*
X038098Y035581D02*
X037264Y035581D01*
X037224Y035482D02*
X038139Y035482D01*
X038218Y035384D02*
X037144Y035384D01*
X037046Y035285D02*
X038317Y035285D01*
X038539Y035187D02*
X036824Y035187D01*
X036539Y035187D02*
X034824Y035187D01*
X035012Y033709D02*
X030351Y033709D01*
X030253Y033610D02*
X035110Y033610D01*
X035209Y033511D02*
X030154Y033511D01*
X030056Y033413D02*
X034527Y033413D01*
X034557Y033426D02*
X034328Y033331D01*
X034153Y033155D01*
X034058Y032926D01*
X034058Y032678D01*
X034153Y032449D01*
X034328Y032274D01*
X034557Y032179D01*
X034805Y032179D01*
X035035Y032274D01*
X035210Y032449D01*
X035305Y032678D01*
X035305Y032926D01*
X035210Y033155D01*
X035035Y033331D01*
X034805Y033426D01*
X034557Y033426D01*
X034312Y033314D02*
X029957Y033314D01*
X029858Y033216D02*
X034213Y033216D01*
X034137Y033117D02*
X029760Y033117D01*
X029661Y033019D02*
X034096Y033019D01*
X034058Y032920D02*
X029563Y032920D01*
X029464Y032822D02*
X034058Y032822D01*
X034058Y032723D02*
X029366Y032723D01*
X029282Y032625D02*
X034080Y032625D01*
X034121Y032526D02*
X029242Y032526D01*
X029188Y032427D02*
X034175Y032427D01*
X034273Y032329D02*
X029090Y032329D01*
X028930Y032230D02*
X034433Y032230D01*
X034930Y032230D02*
X036433Y032230D01*
X036273Y032329D02*
X035090Y032329D01*
X035188Y032427D02*
X036175Y032427D01*
X036121Y032526D02*
X035242Y032526D01*
X035282Y032625D02*
X036080Y032625D01*
X035997Y032723D02*
X035305Y032723D01*
X035305Y032822D02*
X035898Y032822D01*
X035800Y032920D02*
X035305Y032920D01*
X035267Y033019D02*
X035701Y033019D01*
X035603Y033117D02*
X035226Y033117D01*
X035150Y033216D02*
X035504Y033216D01*
X035406Y033314D02*
X035051Y033314D01*
X034836Y033413D02*
X035307Y033413D01*
X037051Y033314D02*
X038312Y033314D01*
X038213Y033216D02*
X037150Y033216D01*
X037226Y033117D02*
X038137Y033117D01*
X038096Y033019D02*
X037267Y033019D01*
X037305Y032920D02*
X038058Y032920D01*
X038058Y032822D02*
X037305Y032822D01*
X037305Y032723D02*
X038058Y032723D01*
X038080Y032625D02*
X037282Y032625D01*
X037242Y032526D02*
X038121Y032526D01*
X038175Y032427D02*
X037188Y032427D01*
X037090Y032329D02*
X038273Y032329D01*
X038433Y032230D02*
X036930Y032230D01*
X037063Y031738D02*
X027421Y031738D01*
X027421Y031836D02*
X046371Y031836D01*
X046371Y031738D02*
X037300Y031738D01*
X037477Y031639D02*
X046371Y031639D01*
X046371Y031541D02*
X037567Y031541D01*
X037608Y031442D02*
X046371Y031442D01*
X046371Y031344D02*
X037629Y031344D01*
X037629Y031245D02*
X046371Y031245D01*
X046371Y031146D02*
X037601Y031146D01*
X037560Y031048D02*
X046371Y031048D01*
X046371Y030949D02*
X037511Y030949D01*
X037511Y030851D02*
X046371Y030851D01*
X046371Y030752D02*
X037511Y030752D01*
X037511Y030654D02*
X046371Y030654D01*
X046371Y030555D02*
X037511Y030555D01*
X037511Y030457D02*
X046371Y030457D01*
X046371Y030358D02*
X037511Y030358D01*
X038821Y030260D02*
X046371Y030260D01*
X046426Y030161D02*
X038891Y030161D01*
X036600Y028387D02*
X036401Y028387D01*
X036928Y027682D02*
X037092Y027750D01*
X037270Y027750D01*
X037435Y027682D01*
X037561Y027556D01*
X037629Y027391D01*
X037629Y027213D01*
X037561Y027049D01*
X037435Y026923D01*
X037270Y026855D01*
X037092Y026855D01*
X036928Y026923D01*
X036802Y027049D01*
X036734Y027213D01*
X036734Y027391D01*
X036802Y027556D01*
X036928Y027682D01*
X036966Y027697D02*
X034791Y027697D01*
X034791Y027599D02*
X036845Y027599D01*
X036779Y027500D02*
X034791Y027500D01*
X034791Y027402D02*
X036738Y027402D01*
X036734Y027303D02*
X034791Y027303D01*
X034791Y027205D02*
X036737Y027205D01*
X036778Y027106D02*
X034791Y027106D01*
X034791Y027008D02*
X036843Y027008D01*
X036962Y026909D02*
X034785Y026909D01*
X034687Y026811D02*
X046471Y026811D01*
X046471Y026909D02*
X037401Y026909D01*
X037519Y027008D02*
X046471Y027008D01*
X046471Y027106D02*
X037584Y027106D01*
X037625Y027205D02*
X046471Y027205D01*
X046471Y027303D02*
X037629Y027303D01*
X037625Y027402D02*
X046471Y027402D01*
X046482Y027500D02*
X037584Y027500D01*
X037518Y027599D02*
X046581Y027599D01*
X046471Y026712D02*
X032088Y026712D01*
X032091Y026811D02*
X033676Y026811D01*
X033578Y026909D02*
X033101Y026909D01*
X032662Y026909D02*
X032091Y026909D01*
X031989Y026613D02*
X046471Y026613D01*
X046472Y026515D02*
X027421Y026515D01*
X027421Y026613D02*
X029573Y026613D01*
X029475Y026712D02*
X027421Y026712D01*
X027421Y026811D02*
X029471Y026811D01*
X029471Y026909D02*
X027421Y026909D01*
X027421Y027008D02*
X029471Y027008D01*
X029471Y027106D02*
X027421Y027106D01*
X027421Y027205D02*
X029471Y027205D01*
X029471Y027303D02*
X027421Y027303D01*
X027421Y027402D02*
X029471Y027402D01*
X029471Y027500D02*
X027421Y027500D01*
X027421Y027599D02*
X029471Y027599D01*
X029471Y027697D02*
X027421Y027697D01*
X027421Y027796D02*
X029471Y027796D01*
X029477Y027894D02*
X027971Y027894D01*
X028069Y027993D02*
X029575Y027993D01*
X029795Y028092D02*
X028091Y028092D01*
X028091Y028190D02*
X029771Y028190D01*
X029771Y028289D02*
X028091Y028289D01*
X028091Y028387D02*
X029771Y028387D01*
X029771Y028486D02*
X028091Y028486D01*
X028091Y028584D02*
X029771Y028584D01*
X029771Y028683D02*
X028091Y028683D01*
X028091Y028781D02*
X029771Y028781D01*
X029771Y028880D02*
X028091Y028880D01*
X028091Y028978D02*
X029771Y028978D01*
X029771Y029077D02*
X028091Y029077D01*
X028091Y029176D02*
X029858Y029176D01*
X031705Y029176D02*
X032894Y029176D01*
X032795Y029077D02*
X031791Y029077D01*
X031791Y028978D02*
X032748Y028978D01*
X032714Y028880D02*
X031791Y028880D01*
X031791Y028781D02*
X032714Y028781D01*
X032725Y028683D02*
X031791Y028683D01*
X031791Y028584D02*
X032766Y028584D01*
X032837Y028486D02*
X031791Y028486D01*
X031791Y028387D02*
X032962Y028387D01*
X033471Y028289D02*
X031791Y028289D01*
X031791Y028190D02*
X033571Y028190D01*
X033571Y028092D02*
X031768Y028092D01*
X031988Y027993D02*
X033571Y027993D01*
X033571Y027894D02*
X032086Y027894D01*
X032091Y027796D02*
X033571Y027796D01*
X033571Y027697D02*
X033097Y027697D01*
X032666Y027697D02*
X032091Y027697D01*
X034791Y027796D02*
X048851Y027796D01*
X048851Y027697D02*
X037397Y027697D01*
X039568Y026312D02*
X027894Y026312D01*
X027771Y026189D01*
X027771Y021615D01*
X027894Y021492D01*
X029671Y021492D01*
X029671Y019815D01*
X029794Y019692D01*
X037568Y019692D01*
X037691Y019815D01*
X037691Y021492D01*
X039568Y021492D01*
X039691Y021615D01*
X039691Y026189D01*
X039568Y026312D01*
X039661Y026219D02*
X057451Y026219D01*
X057451Y026121D02*
X039691Y026121D01*
X039691Y026022D02*
X057451Y026022D01*
X057451Y025924D02*
X039691Y025924D01*
X039691Y025825D02*
X057451Y025825D01*
X057451Y025727D02*
X039691Y025727D01*
X039691Y025628D02*
X057451Y025628D01*
X057451Y025529D02*
X039691Y025529D01*
X039691Y025431D02*
X057451Y025431D01*
X057451Y025440D02*
X057451Y025440D01*
X057473Y025332D02*
X039691Y025332D01*
X039691Y025234D02*
X057511Y025234D01*
X057523Y025204D02*
X057523Y025204D01*
X057569Y025135D02*
X039691Y025135D01*
X039691Y025037D02*
X057656Y025037D01*
X057680Y025013D02*
X057680Y025013D01*
X057783Y024944D02*
X057783Y024944D01*
X057797Y024938D02*
X039691Y024938D01*
X039691Y024840D02*
X058071Y024840D01*
X058071Y024741D02*
X039691Y024741D01*
X039691Y024643D02*
X058144Y024643D01*
X057898Y024897D02*
X057898Y024897D01*
X057451Y026318D02*
X053394Y026318D01*
X053491Y026416D02*
X057435Y026416D01*
X057375Y026515D02*
X053491Y026515D01*
X053491Y026613D02*
X057334Y026613D01*
X057334Y026712D02*
X053491Y026712D01*
X053491Y026811D02*
X057342Y026811D01*
X057383Y026909D02*
X053491Y026909D01*
X053491Y027008D02*
X057454Y027008D01*
X057587Y027106D02*
X053491Y027106D01*
X054592Y027894D02*
X051530Y027894D01*
X051628Y027993D02*
X054571Y027993D01*
X054571Y028092D02*
X051673Y028092D01*
X051714Y028190D02*
X054571Y028190D01*
X054571Y028289D02*
X051716Y028289D01*
X051716Y028387D02*
X054571Y028387D01*
X054571Y028486D02*
X051684Y028486D01*
X051643Y028584D02*
X054571Y028584D01*
X054571Y028683D02*
X051557Y028683D01*
X051422Y028781D02*
X054571Y028781D01*
X054691Y027796D02*
X051356Y027796D01*
X051006Y027796D02*
X050511Y027796D01*
X050511Y027697D02*
X050979Y027697D01*
X050881Y027599D02*
X050582Y027599D01*
X050680Y027500D02*
X050871Y027500D01*
X050871Y027402D02*
X050691Y027402D01*
X050833Y027894D02*
X050530Y027894D01*
X050628Y027993D02*
X050734Y027993D01*
X050690Y028092D02*
X050673Y028092D01*
X050643Y028584D02*
X050719Y028584D01*
X050806Y028683D02*
X050557Y028683D01*
X050422Y028781D02*
X050940Y028781D01*
X049940Y028781D02*
X049422Y028781D01*
X049557Y028683D02*
X049806Y028683D01*
X049719Y028584D02*
X049643Y028584D01*
X048833Y027894D02*
X034791Y027894D01*
X034791Y027993D02*
X048734Y027993D01*
X048690Y028092D02*
X034791Y028092D01*
X034791Y028190D02*
X048649Y028190D01*
X048781Y027599D02*
X048382Y027599D01*
X048480Y027500D02*
X048682Y027500D01*
X048671Y027402D02*
X048491Y027402D01*
X048491Y026672D02*
X048671Y026672D01*
X048671Y026515D01*
X048671Y026613D02*
X048491Y026613D01*
X048491Y026672D02*
X048491Y026515D01*
X048392Y026416D02*
X048770Y026416D01*
X050592Y026416D02*
X050871Y026416D01*
X050969Y026318D02*
X027421Y026318D01*
X027421Y026416D02*
X046570Y026416D01*
X050691Y026515D02*
X050691Y026672D01*
X057976Y027106D02*
X058287Y027106D01*
X058154Y027008D02*
X058109Y027008D01*
X060091Y024840D02*
X060571Y024840D01*
X060571Y024741D02*
X060091Y024741D01*
X060019Y024643D02*
X060644Y024643D01*
X064181Y017153D02*
X049780Y017153D01*
X049911Y017055D02*
X064181Y017055D01*
X064181Y016956D02*
X050009Y016956D01*
X050050Y016858D02*
X064181Y016858D01*
X064181Y016759D02*
X050091Y016759D01*
X050105Y016661D02*
X064181Y016661D01*
X064181Y016562D02*
X050105Y016562D01*
X050099Y016463D02*
X064181Y016463D01*
X064181Y016365D02*
X050058Y016365D01*
X050017Y016266D02*
X064181Y016266D01*
X064181Y016168D02*
X049929Y016168D01*
X049823Y016069D02*
X064181Y016069D01*
X064181Y012423D02*
X024711Y012423D01*
X024711Y012325D02*
X064181Y012325D01*
X064181Y012226D02*
X031682Y012226D01*
X031636Y012272D02*
X030727Y012272D01*
X030451Y011997D01*
X030451Y011608D01*
X030727Y011332D01*
X031636Y011332D01*
X031911Y011608D01*
X031911Y011997D01*
X031636Y012272D01*
X031781Y012128D02*
X064181Y012128D01*
X064181Y012029D02*
X031879Y012029D01*
X031911Y011930D02*
X064181Y011930D01*
X064181Y011832D02*
X031911Y011832D01*
X031911Y011733D02*
X035753Y011733D01*
X035792Y011750D02*
X035628Y011682D01*
X035502Y011556D01*
X035434Y011391D01*
X035434Y011213D01*
X035502Y011049D01*
X035591Y010959D01*
X035591Y010312D01*
X035394Y010312D01*
X035271Y010189D01*
X035271Y009415D01*
X035271Y008415D01*
X035394Y008292D01*
X036368Y008292D01*
X036491Y008415D01*
X036491Y009415D01*
X036491Y010189D01*
X036368Y010312D01*
X036171Y010312D01*
X036171Y010959D01*
X036261Y011049D01*
X036329Y011213D01*
X036329Y011391D01*
X036261Y011556D01*
X036135Y011682D01*
X035970Y011750D01*
X035792Y011750D01*
X036010Y011733D02*
X064181Y011733D01*
X064181Y011635D02*
X036182Y011635D01*
X036269Y011536D02*
X058841Y011536D01*
X058828Y011531D02*
X058653Y011355D01*
X058558Y011126D01*
X058558Y010878D01*
X058653Y010649D01*
X058828Y010474D01*
X059057Y010379D01*
X059305Y010379D01*
X059535Y010474D01*
X059710Y010649D01*
X059805Y010878D01*
X059805Y011126D01*
X059710Y011355D01*
X059535Y011531D01*
X059305Y011626D01*
X059057Y011626D01*
X058828Y011531D01*
X058735Y011438D02*
X036310Y011438D01*
X036329Y011339D02*
X058646Y011339D01*
X058605Y011241D02*
X036329Y011241D01*
X036299Y011142D02*
X058565Y011142D01*
X058558Y011044D02*
X036255Y011044D01*
X036171Y010945D02*
X058558Y010945D01*
X058571Y010846D02*
X036171Y010846D01*
X036171Y010748D02*
X058612Y010748D01*
X058653Y010649D02*
X036171Y010649D01*
X036171Y010551D02*
X058751Y010551D01*
X058880Y010452D02*
X036171Y010452D01*
X036171Y010354D02*
X062448Y010354D01*
X062528Y010274D02*
X062353Y010449D01*
X062258Y010678D01*
X062258Y010926D01*
X062353Y011155D01*
X062528Y011331D01*
X062757Y011426D01*
X063005Y011426D01*
X063235Y011331D01*
X063410Y011155D01*
X063505Y010926D01*
X063505Y010678D01*
X063410Y010449D01*
X063235Y010274D01*
X063211Y010264D01*
X063211Y009912D01*
X063368Y009912D01*
X063491Y009789D01*
X063491Y009189D01*
X063491Y008615D01*
X063491Y008015D01*
X063368Y007892D01*
X063211Y007892D01*
X063211Y007339D01*
X063211Y007066D01*
X059811Y003666D01*
X059618Y003472D01*
X058191Y003472D01*
X058191Y003315D01*
X058068Y003192D01*
X057468Y003192D01*
X056894Y003192D01*
X056294Y003192D01*
X056171Y003315D01*
X056171Y003472D01*
X055791Y003472D01*
X055791Y003415D01*
X055668Y003292D01*
X054694Y003292D01*
X054571Y003415D01*
X054571Y003472D01*
X046818Y003472D01*
X046765Y003472D01*
X046545Y003472D01*
X046531Y003486D01*
X046466Y003498D01*
X046466Y003498D01*
X046329Y003547D01*
X046329Y003547D01*
X046204Y003620D01*
X046204Y003620D01*
X046092Y003713D01*
X046092Y003713D01*
X046092Y003713D01*
X045999Y003824D01*
X045999Y003825D01*
X045926Y003950D01*
X045926Y003950D01*
X045877Y004087D01*
X045877Y004087D01*
X045865Y004152D01*
X045851Y004166D01*
X045851Y008599D01*
X045802Y008649D01*
X045734Y008813D01*
X045734Y008991D01*
X045802Y009156D01*
X045928Y009282D01*
X046092Y009350D01*
X046270Y009350D01*
X046435Y009282D01*
X046561Y009156D01*
X046629Y008991D01*
X046629Y008813D01*
X046561Y008649D01*
X046511Y008599D01*
X046511Y004302D01*
X046512Y004288D01*
X046517Y004258D01*
X046527Y004231D01*
X046542Y004205D01*
X046561Y004182D01*
X046584Y004163D01*
X046610Y004148D01*
X046637Y004138D01*
X046667Y004133D01*
X046681Y004132D01*
X046765Y004132D01*
X046818Y004132D01*
X054571Y004132D01*
X054571Y005189D01*
X054694Y005312D01*
X055668Y005312D01*
X055791Y005189D01*
X055791Y004132D01*
X056171Y004132D01*
X056171Y004289D01*
X056294Y004412D01*
X056894Y004412D01*
X057468Y004412D01*
X058068Y004412D01*
X058191Y004289D01*
X058191Y004132D01*
X059345Y004132D01*
X062551Y007339D01*
X062551Y007892D01*
X062394Y007892D01*
X062271Y008015D01*
X062271Y008615D01*
X062271Y009189D01*
X062271Y009789D01*
X062394Y009912D01*
X062551Y009912D01*
X062551Y010264D01*
X062528Y010274D01*
X062551Y010255D02*
X036425Y010255D01*
X036491Y010157D02*
X062551Y010157D01*
X062551Y010058D02*
X036491Y010058D01*
X036491Y009960D02*
X062551Y009960D01*
X062343Y009861D02*
X036491Y009861D01*
X036491Y009763D02*
X062271Y009763D01*
X062271Y009664D02*
X036491Y009664D01*
X036491Y009565D02*
X062271Y009565D01*
X062271Y009467D02*
X036491Y009467D01*
X036491Y009368D02*
X062271Y009368D01*
X062271Y009270D02*
X046447Y009270D01*
X046545Y009171D02*
X062271Y009171D01*
X062271Y009073D02*
X046595Y009073D01*
X046629Y008974D02*
X062271Y008974D01*
X062271Y008876D02*
X046629Y008876D01*
X046614Y008777D02*
X062271Y008777D01*
X062271Y008679D02*
X046573Y008679D01*
X046511Y008580D02*
X062271Y008580D01*
X062271Y008481D02*
X046511Y008481D01*
X046511Y008383D02*
X062271Y008383D01*
X062271Y008284D02*
X046511Y008284D01*
X046511Y008186D02*
X058961Y008186D01*
X059057Y008226D02*
X058828Y008131D01*
X058653Y007955D01*
X058558Y007726D01*
X058558Y007478D01*
X058653Y007249D01*
X058828Y007074D01*
X059057Y006979D01*
X059305Y006979D01*
X059535Y007074D01*
X059710Y007249D01*
X059805Y007478D01*
X059805Y007726D01*
X059710Y007955D01*
X059535Y008131D01*
X059305Y008226D01*
X059057Y008226D01*
X058785Y008087D02*
X046511Y008087D01*
X046511Y007989D02*
X058686Y007989D01*
X058626Y007890D02*
X046511Y007890D01*
X046511Y007792D02*
X058585Y007792D01*
X058558Y007693D02*
X046511Y007693D01*
X046511Y007595D02*
X058558Y007595D01*
X058558Y007496D02*
X046511Y007496D01*
X046511Y007397D02*
X058591Y007397D01*
X058632Y007299D02*
X046511Y007299D01*
X046511Y007200D02*
X058702Y007200D01*
X058800Y007102D02*
X046511Y007102D01*
X046511Y007003D02*
X058999Y007003D01*
X059364Y007003D02*
X062216Y007003D01*
X062117Y006905D02*
X046511Y006905D01*
X046511Y006806D02*
X062019Y006806D01*
X061920Y006708D02*
X046511Y006708D01*
X046511Y006609D02*
X061822Y006609D01*
X061723Y006511D02*
X046511Y006511D01*
X046511Y006412D02*
X061624Y006412D01*
X061526Y006314D02*
X046511Y006314D01*
X046511Y006215D02*
X061427Y006215D01*
X061329Y006116D02*
X046511Y006116D01*
X046511Y006018D02*
X061230Y006018D01*
X061132Y005919D02*
X046511Y005919D01*
X046511Y005821D02*
X061033Y005821D01*
X060935Y005722D02*
X046511Y005722D01*
X046511Y005624D02*
X060836Y005624D01*
X060738Y005525D02*
X046511Y005525D01*
X046511Y005427D02*
X060639Y005427D01*
X060540Y005328D02*
X046511Y005328D01*
X046511Y005230D02*
X054612Y005230D01*
X054571Y005131D02*
X046511Y005131D01*
X046511Y005032D02*
X054571Y005032D01*
X054571Y004934D02*
X046511Y004934D01*
X046511Y004835D02*
X054571Y004835D01*
X054571Y004737D02*
X046511Y004737D01*
X046511Y004638D02*
X054571Y004638D01*
X054571Y004540D02*
X046511Y004540D01*
X046511Y004441D02*
X054571Y004441D01*
X054571Y004343D02*
X046511Y004343D01*
X046522Y004244D02*
X054571Y004244D01*
X054571Y004146D02*
X046617Y004146D01*
X046164Y003653D02*
X037891Y003653D01*
X037891Y003751D02*
X046060Y003751D01*
X045984Y003850D02*
X037891Y003850D01*
X037891Y003948D02*
X045927Y003948D01*
X045891Y004047D02*
X037891Y004047D01*
X037891Y004146D02*
X045866Y004146D01*
X045851Y004244D02*
X037891Y004244D01*
X037891Y004343D02*
X045851Y004343D01*
X045851Y004441D02*
X037891Y004441D01*
X037891Y004540D02*
X045851Y004540D01*
X045851Y004638D02*
X037891Y004638D01*
X037891Y004737D02*
X045851Y004737D01*
X045851Y004835D02*
X037891Y004835D01*
X037891Y004934D02*
X045851Y004934D01*
X045851Y005032D02*
X037891Y005032D01*
X037891Y005131D02*
X045851Y005131D01*
X045851Y005230D02*
X037891Y005230D01*
X037891Y005328D02*
X045851Y005328D01*
X045851Y005427D02*
X037891Y005427D01*
X037891Y005525D02*
X045851Y005525D01*
X045851Y005624D02*
X037891Y005624D01*
X037891Y005722D02*
X045851Y005722D01*
X045851Y005821D02*
X037891Y005821D01*
X037891Y005919D02*
X045851Y005919D01*
X045851Y006018D02*
X037891Y006018D01*
X037891Y006116D02*
X045851Y006116D01*
X045851Y006215D02*
X037891Y006215D01*
X037891Y006314D02*
X045851Y006314D01*
X045851Y006412D02*
X037869Y006412D01*
X037770Y006511D02*
X045851Y006511D01*
X045851Y006609D02*
X017833Y006609D01*
X017829Y006603D02*
X017829Y006603D01*
X017899Y006708D02*
X045851Y006708D01*
X045851Y006806D02*
X017942Y006806D01*
X017975Y006905D02*
X045851Y006905D01*
X045851Y007003D02*
X036087Y007003D01*
X036135Y007023D02*
X036261Y007149D01*
X036329Y007313D01*
X036329Y007491D01*
X036261Y007656D01*
X036135Y007782D01*
X035970Y007850D01*
X035792Y007850D01*
X035628Y007782D01*
X035502Y007656D01*
X035434Y007491D01*
X035434Y007313D01*
X035502Y007149D01*
X035628Y007023D01*
X035792Y006955D01*
X035970Y006955D01*
X036135Y007023D01*
X036214Y007102D02*
X045851Y007102D01*
X045851Y007200D02*
X036282Y007200D01*
X036323Y007299D02*
X045851Y007299D01*
X045851Y007397D02*
X036329Y007397D01*
X036327Y007496D02*
X045851Y007496D01*
X045851Y007595D02*
X036286Y007595D01*
X036223Y007693D02*
X045851Y007693D01*
X045851Y007792D02*
X036111Y007792D01*
X035652Y007792D02*
X017986Y007792D01*
X017986Y007890D02*
X045851Y007890D01*
X045851Y007989D02*
X017986Y007989D01*
X017986Y008087D02*
X045851Y008087D01*
X045851Y008186D02*
X017986Y008186D01*
X017986Y008284D02*
X045851Y008284D01*
X045851Y008383D02*
X036459Y008383D01*
X036491Y008481D02*
X045851Y008481D01*
X045851Y008580D02*
X036491Y008580D01*
X036491Y008679D02*
X045790Y008679D01*
X045749Y008777D02*
X036491Y008777D01*
X036491Y008876D02*
X045734Y008876D01*
X045734Y008974D02*
X036491Y008974D01*
X036491Y009073D02*
X045768Y009073D01*
X045817Y009171D02*
X036491Y009171D01*
X036491Y009270D02*
X045916Y009270D01*
X049083Y012719D02*
X024711Y012719D01*
X024711Y012817D02*
X027302Y012817D01*
X027212Y012844D02*
X027212Y012844D01*
X027054Y012916D02*
X024711Y012916D01*
X024711Y013014D02*
X026896Y013014D01*
X026777Y013113D02*
X024711Y013113D01*
X024711Y013212D02*
X026680Y013212D01*
X026731Y013152D02*
X026731Y013152D01*
X026732Y013152D01*
X026606Y013297D02*
X026606Y013297D01*
X026598Y013310D02*
X024711Y013310D01*
X024711Y013409D02*
X026534Y013409D01*
X026480Y013507D02*
X024711Y013507D01*
X024711Y013606D02*
X026435Y013606D01*
X026423Y013633D02*
X026423Y013633D01*
X026402Y013704D02*
X024711Y013704D01*
X024711Y013803D02*
X026373Y013803D01*
X026341Y013901D02*
X024711Y013901D01*
X024711Y014000D02*
X026341Y014000D01*
X026341Y014098D02*
X024711Y014098D01*
X024711Y014197D02*
X026341Y014197D01*
X026341Y014296D02*
X024711Y014296D01*
X024711Y014394D02*
X026341Y014394D01*
X026341Y014493D02*
X024711Y014493D01*
X024711Y014591D02*
X026341Y014591D01*
X026341Y014690D02*
X024750Y014690D01*
X024849Y014788D02*
X026341Y014788D01*
X026341Y014887D02*
X024925Y014887D01*
X024966Y014985D02*
X026341Y014985D01*
X026341Y015084D02*
X025005Y015084D01*
X025005Y015182D02*
X026341Y015182D01*
X026341Y015281D02*
X025005Y015281D01*
X024983Y015379D02*
X026341Y015379D01*
X026341Y015478D02*
X024942Y015478D01*
X024889Y015577D02*
X026341Y015577D01*
X026341Y015675D02*
X024790Y015675D01*
X024631Y015774D02*
X026341Y015774D01*
X026341Y015872D02*
X001181Y015872D01*
X001181Y015774D02*
X024132Y015774D01*
X023973Y015675D02*
X001181Y015675D01*
X001181Y015577D02*
X023874Y015577D01*
X023821Y015478D02*
X001181Y015478D01*
X001181Y015379D02*
X023780Y015379D01*
X023758Y015281D02*
X001181Y015281D01*
X001181Y015182D02*
X023758Y015182D01*
X023758Y015084D02*
X001181Y015084D01*
X001181Y014985D02*
X023797Y014985D01*
X023837Y014887D02*
X001181Y014887D01*
X001181Y014788D02*
X023914Y014788D01*
X024012Y014690D02*
X001181Y014690D01*
X001181Y014591D02*
X024051Y014591D01*
X024051Y014493D02*
X001181Y014493D01*
X001181Y014394D02*
X024051Y014394D01*
X024051Y014296D02*
X001181Y014296D01*
X001181Y014197D02*
X024051Y014197D01*
X024051Y014098D02*
X001181Y014098D01*
X001181Y014000D02*
X024051Y014000D01*
X024051Y013901D02*
X001181Y013901D01*
X001181Y013803D02*
X024051Y013803D01*
X024711Y012620D02*
X049258Y012620D01*
X044928Y016759D02*
X037891Y016759D01*
X037891Y016858D02*
X044871Y016858D01*
X044871Y016956D02*
X037891Y016956D01*
X037891Y017055D02*
X044871Y017055D01*
X044871Y017153D02*
X037891Y017153D01*
X037891Y017252D02*
X044871Y017252D01*
X044871Y017350D02*
X037891Y017350D01*
X037891Y017449D02*
X044871Y017449D01*
X044871Y017547D02*
X037891Y017547D01*
X037891Y017646D02*
X044871Y017646D01*
X044871Y017745D02*
X037891Y017745D01*
X037891Y017843D02*
X044925Y017843D01*
X044968Y018192D02*
X045091Y018315D01*
X045091Y018572D01*
X045371Y018572D01*
X045371Y018415D01*
X045494Y018292D01*
X046094Y018292D01*
X046668Y018292D01*
X047268Y018292D01*
X047391Y018415D01*
X047391Y018572D01*
X047679Y018572D01*
X047728Y018523D01*
X047892Y018455D01*
X048070Y018455D01*
X048235Y018523D01*
X048361Y018649D01*
X048429Y018813D01*
X048429Y018991D01*
X048361Y019156D01*
X048235Y019282D01*
X048070Y019350D01*
X047892Y019350D01*
X047728Y019282D01*
X047679Y019232D01*
X047391Y019232D01*
X047391Y019389D01*
X047268Y019512D01*
X046668Y019512D01*
X046094Y019512D01*
X045494Y019512D01*
X045371Y019389D01*
X045371Y019232D01*
X045091Y019232D01*
X045091Y019489D01*
X044968Y019612D01*
X044168Y019612D01*
X042594Y019612D01*
X042471Y019489D01*
X042471Y018315D01*
X042594Y018192D01*
X044168Y018192D01*
X044968Y018192D01*
X045013Y018237D02*
X048748Y018237D01*
X048734Y018139D02*
X037891Y018139D01*
X037891Y018237D02*
X042550Y018237D01*
X042471Y018336D02*
X037891Y018336D01*
X037891Y018434D02*
X042471Y018434D01*
X042471Y018533D02*
X037891Y018533D01*
X037891Y018631D02*
X042471Y018631D01*
X042471Y018730D02*
X037891Y018730D01*
X037891Y018829D02*
X042471Y018829D01*
X042471Y018927D02*
X037891Y018927D01*
X037891Y019026D02*
X042471Y019026D01*
X042471Y019124D02*
X037891Y019124D01*
X037891Y019223D02*
X042471Y019223D01*
X042471Y019321D02*
X037891Y019321D01*
X037861Y019420D02*
X042471Y019420D01*
X042500Y019518D02*
X027421Y019518D01*
X027421Y019420D02*
X031102Y019420D01*
X031071Y019321D02*
X027421Y019321D01*
X027421Y019223D02*
X031071Y019223D01*
X029771Y019715D02*
X027421Y019715D01*
X027421Y019617D02*
X048751Y019617D01*
X048751Y019715D02*
X037591Y019715D01*
X037690Y019814D02*
X048573Y019814D01*
X048474Y019912D02*
X037691Y019912D01*
X037691Y020011D02*
X048471Y020011D01*
X048471Y020110D02*
X037691Y020110D01*
X037691Y020208D02*
X048471Y020208D01*
X048471Y020307D02*
X037691Y020307D01*
X037691Y020405D02*
X048471Y020405D01*
X048471Y020504D02*
X037691Y020504D01*
X037691Y020602D02*
X048471Y020602D01*
X048471Y020701D02*
X037691Y020701D01*
X037691Y020799D02*
X048471Y020799D01*
X048471Y020898D02*
X037691Y020898D01*
X037691Y020996D02*
X042398Y020996D01*
X042398Y020997D02*
X042398Y020997D01*
X042283Y021044D02*
X042283Y021044D01*
X042207Y021095D02*
X037691Y021095D01*
X037691Y021194D02*
X042099Y021194D01*
X042180Y021113D02*
X042180Y021113D01*
X042031Y021292D02*
X037691Y021292D01*
X037691Y021391D02*
X041987Y021391D01*
X042023Y021304D02*
X042023Y021304D01*
X041951Y021489D02*
X037691Y021489D01*
X039664Y021588D02*
X041951Y021588D01*
X041951Y021686D02*
X039691Y021686D01*
X039691Y021785D02*
X041951Y021785D01*
X041951Y021883D02*
X039691Y021883D01*
X039691Y021982D02*
X041951Y021982D01*
X041951Y022080D02*
X039691Y022080D01*
X039691Y022179D02*
X041951Y022179D01*
X041890Y022278D02*
X039691Y022278D01*
X039691Y022376D02*
X041849Y022376D01*
X041834Y022475D02*
X039691Y022475D01*
X039691Y022573D02*
X041834Y022573D01*
X041867Y022672D02*
X039691Y022672D01*
X039691Y022770D02*
X041916Y022770D01*
X045062Y019518D02*
X048751Y019518D01*
X048602Y019420D02*
X047361Y019420D01*
X047391Y019321D02*
X047823Y019321D01*
X048139Y019321D02*
X048571Y019321D01*
X048571Y019223D02*
X048294Y019223D01*
X048374Y019124D02*
X048571Y019124D01*
X048571Y019026D02*
X048415Y019026D01*
X048429Y018927D02*
X048571Y018927D01*
X048571Y018829D02*
X048429Y018829D01*
X048394Y018730D02*
X048571Y018730D01*
X048571Y018631D02*
X048343Y018631D01*
X048245Y018533D02*
X048571Y018533D01*
X048571Y018434D02*
X047391Y018434D01*
X047391Y018533D02*
X047718Y018533D01*
X047312Y018336D02*
X048651Y018336D01*
X048707Y018040D02*
X037891Y018040D01*
X037891Y017942D02*
X048666Y017942D01*
X048607Y017843D02*
X048540Y017759D01*
X048540Y017759D01*
X048530Y017750D01*
X048392Y017750D01*
X048192Y017646D02*
X047771Y017646D01*
X047864Y017547D02*
X048099Y017547D01*
X048058Y017449D02*
X047905Y017449D01*
X047929Y017350D02*
X048034Y017350D01*
X048034Y017252D02*
X047929Y017252D01*
X047904Y017153D02*
X048059Y017153D01*
X048100Y017055D02*
X047863Y017055D01*
X047768Y016956D02*
X048195Y016956D01*
X047195Y016956D02*
X046891Y016956D01*
X046891Y017646D02*
X047192Y017646D01*
X045451Y018336D02*
X045091Y018336D01*
X045091Y018434D02*
X045371Y018434D01*
X045371Y018533D02*
X045091Y018533D01*
X045091Y019321D02*
X045371Y019321D01*
X045402Y019420D02*
X045091Y019420D01*
X035581Y011635D02*
X031911Y011635D01*
X031840Y011536D02*
X035494Y011536D01*
X035453Y011438D02*
X031741Y011438D01*
X031643Y011339D02*
X035434Y011339D01*
X035434Y011241D02*
X034668Y011241D01*
X034636Y011272D02*
X033727Y011272D01*
X033451Y010997D01*
X033451Y010865D01*
X033200Y010781D01*
X033168Y010812D01*
X032194Y010812D01*
X032071Y010689D01*
X032071Y010089D01*
X032071Y009515D01*
X032071Y009405D01*
X031646Y009263D01*
X031636Y009272D01*
X030727Y009272D01*
X030451Y008997D01*
X030451Y008608D01*
X030727Y008332D01*
X031636Y008332D01*
X031911Y008608D01*
X031911Y008740D01*
X032163Y008824D01*
X032194Y008792D01*
X033168Y008792D01*
X033291Y008915D01*
X033291Y009515D01*
X033291Y010089D01*
X033291Y010200D01*
X033717Y010342D01*
X033727Y010332D01*
X034636Y010332D01*
X034911Y010608D01*
X034911Y010997D01*
X034636Y011272D01*
X034766Y011142D02*
X035463Y011142D01*
X035507Y011044D02*
X034865Y011044D01*
X034911Y010945D02*
X035591Y010945D01*
X035591Y010846D02*
X034911Y010846D01*
X034911Y010748D02*
X035591Y010748D01*
X035591Y010649D02*
X034911Y010649D01*
X034855Y010551D02*
X035591Y010551D01*
X035591Y010452D02*
X034756Y010452D01*
X034657Y010354D02*
X035591Y010354D01*
X035337Y010255D02*
X034653Y010255D01*
X034636Y010272D02*
X033727Y010272D01*
X033451Y009997D01*
X033451Y009608D01*
X033727Y009332D01*
X034636Y009332D01*
X034911Y009608D01*
X034911Y009997D01*
X034636Y010272D01*
X034752Y010157D02*
X035271Y010157D01*
X035271Y010058D02*
X034850Y010058D01*
X034911Y009960D02*
X035271Y009960D01*
X035271Y009861D02*
X034911Y009861D01*
X034911Y009763D02*
X035271Y009763D01*
X035271Y009664D02*
X034911Y009664D01*
X034869Y009565D02*
X035271Y009565D01*
X035271Y009467D02*
X034771Y009467D01*
X034672Y009368D02*
X035271Y009368D01*
X035271Y009270D02*
X034639Y009270D01*
X034636Y009272D02*
X033727Y009272D01*
X033451Y008997D01*
X033451Y008608D01*
X033727Y008332D01*
X034636Y008332D01*
X034911Y008608D01*
X034911Y008997D01*
X034636Y009272D01*
X034737Y009171D02*
X035271Y009171D01*
X035271Y009073D02*
X034836Y009073D01*
X034911Y008974D02*
X035271Y008974D01*
X035271Y008876D02*
X034911Y008876D01*
X034911Y008777D02*
X035271Y008777D01*
X035271Y008679D02*
X034911Y008679D01*
X034884Y008580D02*
X035271Y008580D01*
X035271Y008481D02*
X034785Y008481D01*
X034687Y008383D02*
X035304Y008383D01*
X035539Y007693D02*
X017986Y007693D01*
X017986Y007595D02*
X035477Y007595D01*
X035436Y007496D02*
X017986Y007496D01*
X017986Y007397D02*
X035434Y007397D01*
X035440Y007299D02*
X017986Y007299D01*
X017986Y007200D02*
X035481Y007200D01*
X035549Y007102D02*
X017986Y007102D01*
X017986Y007003D02*
X035675Y007003D01*
X033676Y008383D02*
X031687Y008383D01*
X031785Y008481D02*
X033578Y008481D01*
X033479Y008580D02*
X031884Y008580D01*
X031911Y008679D02*
X033451Y008679D01*
X033451Y008777D02*
X032023Y008777D01*
X031962Y009368D02*
X031672Y009368D01*
X031636Y009332D02*
X031911Y009608D01*
X031911Y009997D01*
X031636Y010272D01*
X030727Y010272D01*
X030451Y009997D01*
X030451Y009608D01*
X030727Y009332D01*
X031636Y009332D01*
X031639Y009270D02*
X031667Y009270D01*
X031771Y009467D02*
X032071Y009467D01*
X032071Y009565D02*
X031869Y009565D01*
X031911Y009664D02*
X032071Y009664D01*
X032071Y009763D02*
X031911Y009763D01*
X031911Y009861D02*
X032071Y009861D01*
X032071Y009960D02*
X031911Y009960D01*
X031850Y010058D02*
X032071Y010058D01*
X032071Y010157D02*
X031752Y010157D01*
X031653Y010255D02*
X032071Y010255D01*
X032071Y010354D02*
X031657Y010354D01*
X031636Y010332D02*
X031911Y010608D01*
X031911Y010997D01*
X031636Y011272D01*
X030727Y011272D01*
X030451Y010997D01*
X030451Y010608D01*
X030727Y010332D01*
X031636Y010332D01*
X031756Y010452D02*
X032071Y010452D01*
X032071Y010551D02*
X031855Y010551D01*
X031911Y010649D02*
X032071Y010649D01*
X032130Y010748D02*
X031911Y010748D01*
X031911Y010846D02*
X033397Y010846D01*
X033451Y010945D02*
X031911Y010945D01*
X031865Y011044D02*
X033498Y011044D01*
X033597Y011142D02*
X031766Y011142D01*
X031668Y011241D02*
X033695Y011241D01*
X033710Y010255D02*
X033457Y010255D01*
X033611Y010157D02*
X033291Y010157D01*
X033291Y010058D02*
X033513Y010058D01*
X033451Y009960D02*
X033291Y009960D01*
X033291Y009861D02*
X033451Y009861D01*
X033451Y009763D02*
X033291Y009763D01*
X033291Y009664D02*
X033451Y009664D01*
X033494Y009565D02*
X033291Y009565D01*
X033291Y009467D02*
X033592Y009467D01*
X033691Y009368D02*
X033291Y009368D01*
X033291Y009270D02*
X033724Y009270D01*
X033626Y009171D02*
X033291Y009171D01*
X033291Y009073D02*
X033527Y009073D01*
X033451Y008974D02*
X033291Y008974D01*
X033252Y008876D02*
X033451Y008876D01*
X030724Y009270D02*
X017986Y009270D01*
X017986Y009368D02*
X018618Y009368D01*
X018571Y009467D02*
X017986Y009467D01*
X017986Y009565D02*
X018571Y009565D01*
X018571Y009664D02*
X017986Y009664D01*
X017986Y009763D02*
X018571Y009763D01*
X018571Y009861D02*
X017986Y009861D01*
X017986Y009960D02*
X018571Y009960D01*
X018571Y010058D02*
X017986Y010058D01*
X017986Y010157D02*
X018571Y010157D01*
X018571Y010255D02*
X017986Y010255D01*
X017986Y010354D02*
X018571Y010354D01*
X018571Y010452D02*
X017994Y010452D01*
X017326Y010255D02*
X009486Y010255D01*
X009571Y010157D02*
X017326Y010157D01*
X017326Y010058D02*
X009612Y010058D01*
X009629Y009960D02*
X017326Y009960D01*
X017326Y009861D02*
X009629Y009861D01*
X009597Y009763D02*
X017326Y009763D01*
X017326Y009664D02*
X009551Y009664D01*
X009511Y009565D02*
X017326Y009565D01*
X017326Y009467D02*
X009511Y009467D01*
X009511Y009368D02*
X017326Y009368D01*
X017326Y009270D02*
X009511Y009270D01*
X009511Y009171D02*
X017326Y009171D01*
X017326Y009073D02*
X009511Y009073D01*
X009511Y008974D02*
X017326Y008974D01*
X017326Y008876D02*
X009511Y008876D01*
X009511Y008777D02*
X017326Y008777D01*
X017326Y008679D02*
X009511Y008679D01*
X009511Y008580D02*
X017326Y008580D01*
X017326Y008481D02*
X009511Y008481D01*
X009511Y008383D02*
X017326Y008383D01*
X017326Y008284D02*
X009511Y008284D01*
X009511Y008186D02*
X017326Y008186D01*
X017326Y008087D02*
X009511Y008087D01*
X009511Y007989D02*
X017326Y007989D01*
X017326Y007890D02*
X009511Y007890D01*
X009511Y007792D02*
X017326Y007792D01*
X017326Y007693D02*
X009511Y007693D01*
X009511Y007595D02*
X017326Y007595D01*
X017326Y007496D02*
X009511Y007496D01*
X009511Y007397D02*
X017326Y007397D01*
X017326Y007299D02*
X009511Y007299D01*
X009511Y007200D02*
X017326Y007200D01*
X017326Y007189D02*
X017326Y007189D01*
X017326Y007102D02*
X009511Y007102D01*
X005181Y003160D02*
X031071Y003160D01*
X031071Y003062D02*
X005181Y003062D01*
X005181Y002963D02*
X031071Y002963D01*
X031071Y002864D02*
X005181Y002864D01*
X005181Y002766D02*
X031071Y002766D01*
X031071Y002667D02*
X005181Y002667D01*
X005181Y002569D02*
X031071Y002569D01*
X031071Y002470D02*
X005181Y002470D01*
X005181Y002372D02*
X031071Y002372D01*
X031071Y002273D02*
X005181Y002273D01*
X005181Y002175D02*
X031071Y002175D01*
X031071Y002076D02*
X005181Y002076D01*
X005181Y001978D02*
X031071Y001978D01*
X031071Y001879D02*
X005181Y001879D01*
X005181Y001781D02*
X031071Y001781D01*
X031071Y001682D02*
X005181Y001682D01*
X005181Y001583D02*
X031071Y001583D01*
X031071Y001485D02*
X005181Y001485D01*
X005181Y001386D02*
X031071Y001386D01*
X037891Y001386D02*
X060181Y001386D01*
X060181Y001485D02*
X037891Y001485D01*
X037891Y001583D02*
X060181Y001583D01*
X060181Y001682D02*
X037891Y001682D01*
X037891Y001781D02*
X060181Y001781D01*
X060181Y001879D02*
X037891Y001879D01*
X037891Y001978D02*
X060181Y001978D01*
X060181Y002076D02*
X037891Y002076D01*
X037891Y002175D02*
X060181Y002175D01*
X060181Y002273D02*
X037891Y002273D01*
X037891Y002372D02*
X060181Y002372D01*
X060181Y002470D02*
X037891Y002470D01*
X037891Y002569D02*
X060181Y002569D01*
X060181Y002667D02*
X037891Y002667D01*
X037891Y002766D02*
X060181Y002766D01*
X060181Y002864D02*
X037891Y002864D01*
X037891Y002963D02*
X060181Y002963D01*
X060181Y003062D02*
X037891Y003062D01*
X037891Y003160D02*
X060181Y003160D01*
X060181Y003259D02*
X058135Y003259D01*
X058191Y003357D02*
X060236Y003357D01*
X060335Y003456D02*
X058191Y003456D01*
X058191Y004146D02*
X059358Y004146D01*
X059456Y004244D02*
X058191Y004244D01*
X058138Y004343D02*
X059555Y004343D01*
X059654Y004441D02*
X055791Y004441D01*
X055791Y004343D02*
X056225Y004343D01*
X056171Y004244D02*
X055791Y004244D01*
X055791Y004146D02*
X056171Y004146D01*
X055791Y004540D02*
X059752Y004540D01*
X059851Y004638D02*
X055791Y004638D01*
X055791Y004737D02*
X059949Y004737D01*
X060048Y004835D02*
X055791Y004835D01*
X055791Y004934D02*
X060146Y004934D01*
X060245Y005032D02*
X055791Y005032D01*
X055791Y005131D02*
X060343Y005131D01*
X060442Y005230D02*
X055751Y005230D01*
X055791Y003456D02*
X056171Y003456D01*
X056171Y003357D02*
X055733Y003357D01*
X056228Y003259D02*
X037891Y003259D01*
X037891Y003357D02*
X054630Y003357D01*
X054571Y003456D02*
X037891Y003456D01*
X037891Y003554D02*
X046317Y003554D01*
X059700Y003554D02*
X060433Y003554D01*
X060532Y003653D02*
X059799Y003653D01*
X059897Y003751D02*
X060630Y003751D01*
X060729Y003850D02*
X059996Y003850D01*
X060094Y003948D02*
X060828Y003948D01*
X060926Y004047D02*
X060193Y004047D01*
X060291Y004146D02*
X061025Y004146D01*
X061123Y004244D02*
X060390Y004244D01*
X060488Y004343D02*
X061222Y004343D01*
X061320Y004441D02*
X060587Y004441D01*
X060685Y004540D02*
X061419Y004540D01*
X061517Y004638D02*
X060784Y004638D01*
X060883Y004737D02*
X061616Y004737D01*
X061714Y004835D02*
X060981Y004835D01*
X061080Y004934D02*
X061813Y004934D01*
X061911Y005032D02*
X061178Y005032D01*
X061277Y005131D02*
X062010Y005131D01*
X062109Y005230D02*
X061375Y005230D01*
X061474Y005328D02*
X064181Y005328D01*
X064181Y005427D02*
X061572Y005427D01*
X061671Y005525D02*
X064181Y005525D01*
X064181Y005624D02*
X061769Y005624D01*
X061868Y005722D02*
X064181Y005722D01*
X064181Y005821D02*
X061966Y005821D01*
X062065Y005919D02*
X064181Y005919D01*
X064181Y006018D02*
X062164Y006018D01*
X062262Y006116D02*
X064181Y006116D01*
X064181Y006215D02*
X062361Y006215D01*
X062459Y006314D02*
X064181Y006314D01*
X064181Y006412D02*
X062558Y006412D01*
X062656Y006511D02*
X064181Y006511D01*
X064181Y006609D02*
X062755Y006609D01*
X062853Y006708D02*
X064181Y006708D01*
X064181Y006806D02*
X062952Y006806D01*
X063050Y006905D02*
X064181Y006905D01*
X064181Y007003D02*
X063149Y007003D01*
X063211Y007102D02*
X064181Y007102D01*
X064181Y007200D02*
X063211Y007200D01*
X063211Y007299D02*
X064181Y007299D01*
X064181Y007397D02*
X063211Y007397D01*
X063211Y007496D02*
X064181Y007496D01*
X064181Y007595D02*
X063211Y007595D01*
X063211Y007693D02*
X064181Y007693D01*
X064181Y007792D02*
X063211Y007792D01*
X063211Y007890D02*
X064181Y007890D01*
X064181Y007989D02*
X063465Y007989D01*
X063491Y008087D02*
X064181Y008087D01*
X064181Y008186D02*
X063491Y008186D01*
X063491Y008284D02*
X064181Y008284D01*
X064181Y008383D02*
X063491Y008383D01*
X063491Y008481D02*
X064181Y008481D01*
X064181Y008580D02*
X063491Y008580D01*
X063491Y008679D02*
X064181Y008679D01*
X064181Y008777D02*
X063491Y008777D01*
X063491Y008876D02*
X064181Y008876D01*
X064181Y008974D02*
X063491Y008974D01*
X063491Y009073D02*
X064181Y009073D01*
X064181Y009171D02*
X063491Y009171D01*
X063491Y009270D02*
X064181Y009270D01*
X064181Y009368D02*
X063491Y009368D01*
X063491Y009467D02*
X064181Y009467D01*
X064181Y009565D02*
X063491Y009565D01*
X063491Y009664D02*
X064181Y009664D01*
X064181Y009763D02*
X063491Y009763D01*
X063420Y009861D02*
X064181Y009861D01*
X064181Y009960D02*
X063211Y009960D01*
X063211Y010058D02*
X064181Y010058D01*
X064181Y010157D02*
X063211Y010157D01*
X063211Y010255D02*
X064181Y010255D01*
X064181Y010354D02*
X063314Y010354D01*
X063411Y010452D02*
X064181Y010452D01*
X064181Y010551D02*
X063452Y010551D01*
X063493Y010649D02*
X064181Y010649D01*
X064181Y010748D02*
X063505Y010748D01*
X063505Y010846D02*
X064181Y010846D01*
X064181Y010945D02*
X063497Y010945D01*
X063456Y011044D02*
X064181Y011044D01*
X064181Y011142D02*
X063415Y011142D01*
X063325Y011241D02*
X064181Y011241D01*
X064181Y011339D02*
X063214Y011339D01*
X062549Y011339D02*
X059717Y011339D01*
X059757Y011241D02*
X062438Y011241D01*
X062347Y011142D02*
X059798Y011142D01*
X059805Y011044D02*
X062307Y011044D01*
X062266Y010945D02*
X059805Y010945D01*
X059792Y010846D02*
X062258Y010846D01*
X062258Y010748D02*
X059751Y010748D01*
X059710Y010649D02*
X062270Y010649D01*
X062311Y010551D02*
X059612Y010551D01*
X059483Y010452D02*
X062352Y010452D01*
X064181Y011438D02*
X059628Y011438D01*
X059521Y011536D02*
X064181Y011536D01*
X062271Y008186D02*
X059402Y008186D01*
X059578Y008087D02*
X062271Y008087D01*
X062298Y007989D02*
X059677Y007989D01*
X059737Y007890D02*
X062551Y007890D01*
X062551Y007792D02*
X059778Y007792D01*
X059805Y007693D02*
X062551Y007693D01*
X062551Y007595D02*
X059805Y007595D01*
X059805Y007496D02*
X062551Y007496D01*
X062551Y007397D02*
X059771Y007397D01*
X059730Y007299D02*
X062511Y007299D01*
X062413Y007200D02*
X059661Y007200D01*
X059563Y007102D02*
X062314Y007102D01*
X031193Y006511D02*
X017737Y006511D01*
X017731Y006505D02*
X017731Y006505D01*
X017731Y006505D01*
X017578Y006412D02*
X031094Y006412D01*
X030676Y008383D02*
X017986Y008383D01*
X017986Y008481D02*
X030578Y008481D01*
X030479Y008580D02*
X017986Y008580D01*
X017986Y008679D02*
X030451Y008679D01*
X030451Y008777D02*
X017986Y008777D01*
X017986Y008876D02*
X030451Y008876D01*
X030451Y008974D02*
X017986Y008974D01*
X017986Y009073D02*
X030527Y009073D01*
X030626Y009171D02*
X017986Y009171D01*
X019744Y009368D02*
X030691Y009368D01*
X030592Y009467D02*
X019791Y009467D01*
X019791Y009565D02*
X030494Y009565D01*
X030451Y009664D02*
X019791Y009664D01*
X019791Y009763D02*
X030451Y009763D01*
X030451Y009861D02*
X019791Y009861D01*
X019791Y009960D02*
X030451Y009960D01*
X030513Y010058D02*
X019791Y010058D01*
X024930Y010354D02*
X030705Y010354D01*
X030607Y010452D02*
X024991Y010452D01*
X024991Y010551D02*
X030508Y010551D01*
X030451Y010649D02*
X024991Y010649D01*
X024991Y010748D02*
X030451Y010748D01*
X030451Y010846D02*
X024991Y010846D01*
X024991Y010945D02*
X030451Y010945D01*
X030498Y011044D02*
X024991Y011044D01*
X024991Y011142D02*
X030597Y011142D01*
X030695Y011241D02*
X024991Y011241D01*
X024991Y011339D02*
X030720Y011339D01*
X030621Y011438D02*
X024991Y011438D01*
X024991Y011536D02*
X030523Y011536D01*
X030451Y011635D02*
X024991Y011635D01*
X024991Y011733D02*
X030451Y011733D01*
X030451Y011832D02*
X024991Y011832D01*
X024991Y011930D02*
X030451Y011930D01*
X030483Y012029D02*
X024991Y012029D01*
X024991Y012128D02*
X030582Y012128D01*
X030681Y012226D02*
X024955Y012226D01*
X027038Y012923D02*
X027038Y012923D01*
X027396Y012790D02*
X027396Y012790D01*
X026341Y015971D02*
X022027Y015971D01*
X022035Y015974D02*
X022210Y016149D01*
X022305Y016378D01*
X022305Y016626D01*
X022210Y016855D01*
X022035Y017031D01*
X021805Y017126D01*
X021557Y017126D01*
X021328Y017031D01*
X021153Y016855D01*
X021058Y016626D01*
X021058Y016378D01*
X021153Y016149D01*
X021328Y015974D01*
X021557Y015879D01*
X021805Y015879D01*
X022035Y015974D01*
X022130Y016069D02*
X026341Y016069D01*
X026341Y016168D02*
X022218Y016168D01*
X022258Y016266D02*
X026341Y016266D01*
X026341Y016365D02*
X022299Y016365D01*
X022305Y016463D02*
X026341Y016463D01*
X026341Y016562D02*
X022305Y016562D01*
X022291Y016661D02*
X026341Y016661D01*
X026341Y016759D02*
X022250Y016759D01*
X022208Y016858D02*
X026341Y016858D01*
X026341Y016956D02*
X022109Y016956D01*
X021977Y017055D02*
X026341Y017055D01*
X026341Y017153D02*
X001181Y017153D01*
X001181Y017055D02*
X021386Y017055D01*
X021254Y016956D02*
X001181Y016956D01*
X001181Y016858D02*
X021155Y016858D01*
X021113Y016759D02*
X001181Y016759D01*
X001181Y016661D02*
X021072Y016661D01*
X021058Y016562D02*
X001181Y016562D01*
X001181Y016463D02*
X021058Y016463D01*
X021064Y016365D02*
X001181Y016365D01*
X001181Y016266D02*
X021104Y016266D01*
X021145Y016168D02*
X001181Y016168D01*
X001181Y016069D02*
X021233Y016069D01*
X021336Y015971D02*
X001181Y015971D01*
X001181Y017252D02*
X026341Y017252D01*
X026341Y017350D02*
X001181Y017350D01*
X001181Y017449D02*
X026341Y017449D01*
X026341Y017547D02*
X001181Y017547D01*
X001181Y017646D02*
X026341Y017646D01*
X026341Y017745D02*
X001181Y017745D01*
X001181Y017843D02*
X026341Y017843D01*
X026341Y017942D02*
X001181Y017942D01*
X001181Y018040D02*
X026341Y018040D01*
X026341Y018139D02*
X025315Y018139D01*
X025268Y018092D02*
X025391Y018215D01*
X025391Y026389D01*
X025268Y026512D01*
X015594Y026512D01*
X015471Y026389D01*
X015471Y018215D01*
X015594Y018092D01*
X025268Y018092D01*
X025391Y018237D02*
X026341Y018237D01*
X026341Y018336D02*
X025391Y018336D01*
X025391Y018434D02*
X026341Y018434D01*
X026341Y018533D02*
X025391Y018533D01*
X025391Y018631D02*
X026341Y018631D01*
X026341Y018730D02*
X025391Y018730D01*
X025391Y018829D02*
X026341Y018829D01*
X026341Y018927D02*
X025391Y018927D01*
X025391Y019026D02*
X026341Y019026D01*
X026341Y019124D02*
X025391Y019124D01*
X025391Y019223D02*
X026341Y019223D01*
X026341Y019321D02*
X025391Y019321D01*
X025391Y019420D02*
X026341Y019420D01*
X026341Y019518D02*
X025391Y019518D01*
X025391Y019617D02*
X026341Y019617D01*
X026341Y019715D02*
X025391Y019715D01*
X025391Y019814D02*
X026341Y019814D01*
X026341Y019912D02*
X025391Y019912D01*
X025391Y020011D02*
X026341Y020011D01*
X026341Y020110D02*
X025391Y020110D01*
X025391Y020208D02*
X026341Y020208D01*
X026341Y020307D02*
X025391Y020307D01*
X025391Y020405D02*
X026341Y020405D01*
X026341Y020504D02*
X025391Y020504D01*
X025391Y020602D02*
X026341Y020602D01*
X026341Y020701D02*
X025391Y020701D01*
X025391Y020799D02*
X026341Y020799D01*
X026341Y020898D02*
X025391Y020898D01*
X025391Y020996D02*
X026341Y020996D01*
X026341Y021095D02*
X025391Y021095D01*
X025391Y021194D02*
X026341Y021194D01*
X026341Y021292D02*
X025391Y021292D01*
X025391Y021391D02*
X026341Y021391D01*
X026341Y021489D02*
X025391Y021489D01*
X025391Y021588D02*
X026341Y021588D01*
X026341Y021686D02*
X025391Y021686D01*
X025391Y021785D02*
X026341Y021785D01*
X026341Y021883D02*
X025391Y021883D01*
X025391Y021982D02*
X026341Y021982D01*
X026341Y022080D02*
X025391Y022080D01*
X025391Y022179D02*
X026341Y022179D01*
X026341Y022278D02*
X025391Y022278D01*
X025391Y022376D02*
X026341Y022376D01*
X026341Y022475D02*
X025391Y022475D01*
X025391Y022573D02*
X026341Y022573D01*
X026341Y022672D02*
X025391Y022672D01*
X025391Y022770D02*
X026341Y022770D01*
X026341Y022869D02*
X025391Y022869D01*
X025391Y022967D02*
X026341Y022967D01*
X026341Y023066D02*
X025391Y023066D01*
X025391Y023164D02*
X026341Y023164D01*
X026341Y023263D02*
X025391Y023263D01*
X025391Y023361D02*
X026341Y023361D01*
X026341Y023460D02*
X025391Y023460D01*
X025391Y023559D02*
X026341Y023559D01*
X026341Y023657D02*
X025391Y023657D01*
X025391Y023756D02*
X026341Y023756D01*
X026341Y023854D02*
X025391Y023854D01*
X025391Y023953D02*
X026341Y023953D01*
X026341Y024051D02*
X025391Y024051D01*
X025391Y024150D02*
X026341Y024150D01*
X026341Y024248D02*
X025391Y024248D01*
X025391Y024347D02*
X026341Y024347D01*
X026341Y024445D02*
X025391Y024445D01*
X025391Y024544D02*
X026341Y024544D01*
X026341Y024643D02*
X025391Y024643D01*
X025391Y024741D02*
X026341Y024741D01*
X026341Y024840D02*
X025391Y024840D01*
X025391Y024938D02*
X026341Y024938D01*
X026341Y025037D02*
X025391Y025037D01*
X025391Y025135D02*
X026341Y025135D01*
X026341Y025234D02*
X025391Y025234D01*
X025391Y025332D02*
X026341Y025332D01*
X026341Y025431D02*
X025391Y025431D01*
X025391Y025529D02*
X026341Y025529D01*
X026341Y025628D02*
X025391Y025628D01*
X025391Y025727D02*
X026341Y025727D01*
X026341Y025825D02*
X025391Y025825D01*
X025391Y025924D02*
X026341Y025924D01*
X026341Y026022D02*
X025391Y026022D01*
X025391Y026121D02*
X026341Y026121D01*
X026341Y026219D02*
X025391Y026219D01*
X025391Y026318D02*
X026341Y026318D01*
X026341Y026416D02*
X025364Y026416D01*
X025268Y026992D02*
X025391Y027115D01*
X025391Y036389D01*
X025268Y036512D01*
X015594Y036512D01*
X015471Y036389D01*
X015471Y027115D01*
X015594Y026992D01*
X025268Y026992D01*
X025284Y027008D02*
X026341Y027008D01*
X026341Y027106D02*
X025382Y027106D01*
X025391Y027205D02*
X026341Y027205D01*
X026341Y027303D02*
X025391Y027303D01*
X025391Y027402D02*
X026341Y027402D01*
X026341Y027500D02*
X025391Y027500D01*
X025391Y027599D02*
X026341Y027599D01*
X026341Y027697D02*
X025391Y027697D01*
X025391Y027796D02*
X026341Y027796D01*
X025792Y027894D02*
X025391Y027894D01*
X025391Y027993D02*
X025694Y027993D01*
X025671Y028092D02*
X025391Y028092D01*
X025391Y028190D02*
X025671Y028190D01*
X025671Y028289D02*
X025391Y028289D01*
X025391Y028387D02*
X025671Y028387D01*
X025671Y028486D02*
X025391Y028486D01*
X025391Y028584D02*
X025671Y028584D01*
X025671Y028683D02*
X025391Y028683D01*
X025391Y028781D02*
X025671Y028781D01*
X025671Y028880D02*
X025391Y028880D01*
X025391Y028978D02*
X025671Y028978D01*
X025671Y029077D02*
X025391Y029077D01*
X025391Y029176D02*
X025671Y029176D01*
X025671Y029274D02*
X025391Y029274D01*
X025391Y029373D02*
X025671Y029373D01*
X025671Y029471D02*
X025391Y029471D01*
X025391Y029570D02*
X025671Y029570D01*
X025671Y029668D02*
X025391Y029668D01*
X025391Y029767D02*
X025671Y029767D01*
X025671Y029865D02*
X025391Y029865D01*
X025391Y029964D02*
X025671Y029964D01*
X025671Y030062D02*
X025391Y030062D01*
X025391Y030161D02*
X025671Y030161D01*
X025671Y030260D02*
X025391Y030260D01*
X025391Y030358D02*
X025671Y030358D01*
X025671Y030457D02*
X025391Y030457D01*
X025391Y030555D02*
X025671Y030555D01*
X025671Y030654D02*
X025391Y030654D01*
X025391Y030752D02*
X025671Y030752D01*
X025671Y030851D02*
X025391Y030851D01*
X025391Y030949D02*
X025671Y030949D01*
X025671Y031048D02*
X025391Y031048D01*
X025391Y031146D02*
X025671Y031146D01*
X025671Y031245D02*
X025391Y031245D01*
X025391Y031344D02*
X025671Y031344D01*
X025671Y031442D02*
X025391Y031442D01*
X025391Y031541D02*
X025671Y031541D01*
X025721Y031639D02*
X025391Y031639D01*
X025391Y031738D02*
X026341Y031738D01*
X026341Y031836D02*
X025391Y031836D01*
X025391Y031935D02*
X026341Y031935D01*
X026341Y032033D02*
X025391Y032033D01*
X025391Y032132D02*
X025755Y032132D01*
X025671Y032230D02*
X025391Y032230D01*
X025391Y032329D02*
X025671Y032329D01*
X025671Y032427D02*
X025391Y032427D01*
X025391Y032526D02*
X025671Y032526D01*
X025671Y032625D02*
X025391Y032625D01*
X025391Y032723D02*
X025671Y032723D01*
X025671Y032822D02*
X025391Y032822D01*
X025391Y032920D02*
X025671Y032920D01*
X025671Y033019D02*
X025391Y033019D01*
X025391Y033117D02*
X025671Y033117D01*
X025671Y033216D02*
X025391Y033216D01*
X025391Y033314D02*
X025671Y033314D01*
X025671Y033413D02*
X025391Y033413D01*
X025391Y033511D02*
X025671Y033511D01*
X025671Y033610D02*
X025391Y033610D01*
X025391Y033709D02*
X025671Y033709D01*
X025671Y033807D02*
X025391Y033807D01*
X025391Y033906D02*
X025671Y033906D01*
X025671Y034004D02*
X025391Y034004D01*
X025391Y034103D02*
X025671Y034103D01*
X025671Y034201D02*
X025391Y034201D01*
X025391Y034300D02*
X025671Y034300D01*
X025671Y034398D02*
X025391Y034398D01*
X025391Y034497D02*
X025671Y034497D01*
X025671Y034595D02*
X025391Y034595D01*
X025391Y034694D02*
X025671Y034694D01*
X025671Y034793D02*
X025391Y034793D01*
X025391Y034891D02*
X025671Y034891D01*
X025671Y034990D02*
X025391Y034990D01*
X025391Y035088D02*
X025671Y035088D01*
X025671Y035187D02*
X025391Y035187D01*
X025391Y035285D02*
X025671Y035285D01*
X025671Y035384D02*
X025391Y035384D01*
X025391Y035482D02*
X025671Y035482D01*
X025671Y035581D02*
X025391Y035581D01*
X025391Y035679D02*
X025671Y035679D01*
X025671Y035778D02*
X025391Y035778D01*
X025391Y035876D02*
X025759Y035876D01*
X025391Y035975D02*
X028000Y035975D01*
X028119Y036074D02*
X025391Y036074D01*
X025391Y036172D02*
X028170Y036172D01*
X028268Y036271D02*
X025391Y036271D01*
X025391Y036369D02*
X028421Y036369D01*
X028942Y036369D02*
X029227Y036369D01*
X029371Y036468D02*
X025313Y036468D01*
X029371Y036566D02*
X001181Y036566D01*
X001181Y036468D02*
X015550Y036468D01*
X015471Y036369D02*
X001181Y036369D01*
X001181Y036271D02*
X015471Y036271D01*
X015471Y036172D02*
X001181Y036172D01*
X001181Y036074D02*
X015471Y036074D01*
X015471Y035975D02*
X001181Y035975D01*
X001181Y035876D02*
X015471Y035876D01*
X015471Y035778D02*
X001181Y035778D01*
X001181Y035679D02*
X015471Y035679D01*
X015471Y035581D02*
X001181Y035581D01*
X001181Y035482D02*
X015471Y035482D01*
X015471Y035384D02*
X001181Y035384D01*
X001181Y035285D02*
X015471Y035285D01*
X015471Y035187D02*
X001181Y035187D01*
X001181Y035088D02*
X015471Y035088D01*
X015471Y034990D02*
X001181Y034990D01*
X001181Y034891D02*
X015471Y034891D01*
X015471Y034793D02*
X001181Y034793D01*
X001181Y034694D02*
X015471Y034694D01*
X015471Y034595D02*
X001181Y034595D01*
X001181Y034497D02*
X015471Y034497D01*
X015471Y034398D02*
X001181Y034398D01*
X001181Y034300D02*
X015471Y034300D01*
X015471Y034201D02*
X001181Y034201D01*
X001181Y034103D02*
X015471Y034103D01*
X015471Y034004D02*
X001181Y034004D01*
X001181Y033906D02*
X015471Y033906D01*
X015471Y033807D02*
X001181Y033807D01*
X001181Y033709D02*
X015471Y033709D01*
X015471Y033610D02*
X001181Y033610D01*
X001181Y033511D02*
X015471Y033511D01*
X015471Y033413D02*
X001181Y033413D01*
X001181Y033314D02*
X015471Y033314D01*
X015471Y033216D02*
X001181Y033216D01*
X001181Y033117D02*
X015471Y033117D01*
X015471Y033019D02*
X001181Y033019D01*
X001181Y032920D02*
X015471Y032920D01*
X015471Y032822D02*
X001181Y032822D01*
X001181Y032723D02*
X015471Y032723D01*
X015471Y032625D02*
X001181Y032625D01*
X001181Y032526D02*
X015471Y032526D01*
X015471Y032427D02*
X001181Y032427D01*
X001181Y032329D02*
X010925Y032329D01*
X010928Y032332D02*
X010802Y032206D01*
X010734Y032041D01*
X010734Y031863D01*
X010796Y031712D01*
X010594Y031712D01*
X010471Y031589D01*
X010471Y030615D01*
X010471Y029215D01*
X010594Y029092D01*
X011768Y029092D01*
X011891Y029215D01*
X011891Y030615D01*
X011891Y031589D01*
X011768Y031712D01*
X011566Y031712D01*
X011629Y031863D01*
X011629Y032041D01*
X011561Y032206D01*
X011435Y032332D01*
X011270Y032400D01*
X011092Y032400D01*
X010928Y032332D01*
X010827Y032230D02*
X001181Y032230D01*
X001181Y032132D02*
X010771Y032132D01*
X010734Y032033D02*
X001181Y032033D01*
X001181Y031935D02*
X010734Y031935D01*
X010745Y031836D02*
X001181Y031836D01*
X001181Y031738D02*
X010786Y031738D01*
X010521Y031639D02*
X001181Y031639D01*
X001181Y031541D02*
X010471Y031541D01*
X010471Y031442D02*
X001181Y031442D01*
X001181Y031344D02*
X010471Y031344D01*
X010471Y031245D02*
X001181Y031245D01*
X001181Y031146D02*
X010471Y031146D01*
X010471Y031048D02*
X001181Y031048D01*
X001181Y030949D02*
X010471Y030949D01*
X010471Y030851D02*
X001181Y030851D01*
X001181Y030752D02*
X010471Y030752D01*
X010471Y030654D02*
X001181Y030654D01*
X001181Y030555D02*
X010471Y030555D01*
X010471Y030457D02*
X001181Y030457D01*
X001181Y030358D02*
X010471Y030358D01*
X010471Y030260D02*
X001181Y030260D01*
X001181Y030161D02*
X010471Y030161D01*
X010471Y030062D02*
X001181Y030062D01*
X001181Y029964D02*
X010471Y029964D01*
X010471Y029865D02*
X001181Y029865D01*
X001181Y029767D02*
X010471Y029767D01*
X010471Y029668D02*
X001181Y029668D01*
X001181Y029570D02*
X010471Y029570D01*
X010471Y029471D02*
X001181Y029471D01*
X001181Y029373D02*
X010471Y029373D01*
X010471Y029274D02*
X001181Y029274D01*
X001181Y029176D02*
X010511Y029176D01*
X011852Y029176D02*
X012655Y029176D01*
X012647Y029196D02*
X012728Y028999D01*
X012878Y028849D01*
X013075Y028768D01*
X013288Y028768D01*
X013484Y028849D01*
X013635Y028999D01*
X013716Y029196D01*
X013716Y029409D01*
X013635Y029605D01*
X013484Y029756D01*
X013372Y029802D01*
X013484Y029849D01*
X013635Y029999D01*
X013716Y030196D01*
X013716Y030409D01*
X013635Y030605D01*
X013484Y030756D01*
X013372Y030802D01*
X013484Y030849D01*
X013635Y030999D01*
X013716Y031196D01*
X013716Y031409D01*
X013635Y031605D01*
X013484Y031756D01*
X013288Y031837D01*
X013075Y031837D01*
X012878Y031756D01*
X012728Y031605D01*
X012647Y031409D01*
X012647Y031196D01*
X012728Y030999D01*
X012878Y030849D01*
X012991Y030802D01*
X012878Y030756D01*
X012728Y030605D01*
X012647Y030409D01*
X012647Y030196D01*
X012728Y029999D01*
X012878Y029849D01*
X012991Y029802D01*
X012878Y029756D01*
X012728Y029605D01*
X012647Y029409D01*
X012647Y029196D01*
X012647Y029274D02*
X011891Y029274D01*
X011891Y029373D02*
X012647Y029373D01*
X012673Y029471D02*
X011891Y029471D01*
X011891Y029570D02*
X012713Y029570D01*
X012791Y029668D02*
X011891Y029668D01*
X011891Y029767D02*
X012905Y029767D01*
X012862Y029865D02*
X011891Y029865D01*
X011891Y029964D02*
X012764Y029964D01*
X012702Y030062D02*
X011891Y030062D01*
X011891Y030161D02*
X012661Y030161D01*
X012647Y030260D02*
X011891Y030260D01*
X011891Y030358D02*
X012647Y030358D01*
X012666Y030457D02*
X011891Y030457D01*
X011891Y030555D02*
X012707Y030555D01*
X012776Y030654D02*
X011891Y030654D01*
X011891Y030752D02*
X012875Y030752D01*
X012877Y030851D02*
X011891Y030851D01*
X011891Y030949D02*
X012778Y030949D01*
X012708Y031048D02*
X011891Y031048D01*
X011891Y031146D02*
X012667Y031146D01*
X012647Y031245D02*
X011891Y031245D01*
X011891Y031344D02*
X012647Y031344D01*
X012660Y031442D02*
X011891Y031442D01*
X011891Y031541D02*
X012701Y031541D01*
X012762Y031639D02*
X011842Y031639D01*
X011577Y031738D02*
X012860Y031738D01*
X013073Y031836D02*
X011618Y031836D01*
X011629Y031935D02*
X015471Y031935D01*
X015471Y032033D02*
X011629Y032033D01*
X011591Y032132D02*
X015471Y032132D01*
X015471Y032230D02*
X011536Y032230D01*
X011438Y032329D02*
X015471Y032329D01*
X015471Y031836D02*
X013290Y031836D01*
X013502Y031738D02*
X015471Y031738D01*
X015471Y031639D02*
X013601Y031639D01*
X013662Y031541D02*
X015471Y031541D01*
X015471Y031442D02*
X013702Y031442D01*
X013716Y031344D02*
X015471Y031344D01*
X015471Y031245D02*
X013716Y031245D01*
X013696Y031146D02*
X015471Y031146D01*
X015471Y031048D02*
X013655Y031048D01*
X013585Y030949D02*
X015471Y030949D01*
X015471Y030851D02*
X013486Y030851D01*
X013488Y030752D02*
X015471Y030752D01*
X015471Y030654D02*
X013586Y030654D01*
X013656Y030555D02*
X015471Y030555D01*
X015471Y030457D02*
X013696Y030457D01*
X013716Y030358D02*
X015471Y030358D01*
X015471Y030260D02*
X013716Y030260D01*
X013702Y030161D02*
X015471Y030161D01*
X015471Y030062D02*
X013661Y030062D01*
X013599Y029964D02*
X015471Y029964D01*
X015471Y029865D02*
X013501Y029865D01*
X013458Y029767D02*
X015471Y029767D01*
X015471Y029668D02*
X013572Y029668D01*
X013650Y029570D02*
X015471Y029570D01*
X015471Y029471D02*
X013690Y029471D01*
X013716Y029373D02*
X015471Y029373D01*
X015471Y029274D02*
X013716Y029274D01*
X013708Y029176D02*
X015471Y029176D01*
X015471Y029077D02*
X013667Y029077D01*
X013614Y028978D02*
X015471Y028978D01*
X015471Y028880D02*
X013515Y028880D01*
X013321Y028781D02*
X015471Y028781D01*
X015471Y028683D02*
X001181Y028683D01*
X001181Y028781D02*
X013042Y028781D01*
X012848Y028880D02*
X001181Y028880D01*
X001181Y028978D02*
X012749Y028978D01*
X012696Y029077D02*
X001181Y029077D01*
X001181Y028584D02*
X015471Y028584D01*
X015471Y028486D02*
X001181Y028486D01*
X001181Y028387D02*
X015471Y028387D01*
X015471Y028289D02*
X001181Y028289D01*
X001181Y028190D02*
X015471Y028190D01*
X015471Y028092D02*
X001181Y028092D01*
X001181Y027993D02*
X015471Y027993D01*
X015471Y027894D02*
X001181Y027894D01*
X001181Y027796D02*
X015471Y027796D01*
X015471Y027697D02*
X001181Y027697D01*
X001181Y027599D02*
X015471Y027599D01*
X015471Y027500D02*
X001181Y027500D01*
X001181Y027402D02*
X015471Y027402D01*
X015471Y027303D02*
X001181Y027303D01*
X001181Y027205D02*
X015471Y027205D01*
X015481Y027106D02*
X001181Y027106D01*
X001181Y027008D02*
X015579Y027008D01*
X015498Y026416D02*
X001181Y026416D01*
X001181Y026318D02*
X015471Y026318D01*
X015471Y026219D02*
X001181Y026219D01*
X001181Y026121D02*
X015471Y026121D01*
X015471Y026022D02*
X001181Y026022D01*
X001181Y025924D02*
X015471Y025924D01*
X015471Y025825D02*
X001181Y025825D01*
X001181Y025727D02*
X015471Y025727D01*
X015471Y025628D02*
X001181Y025628D01*
X001181Y025529D02*
X015471Y025529D01*
X015471Y025431D02*
X001181Y025431D01*
X001181Y025332D02*
X015471Y025332D01*
X015471Y025234D02*
X001181Y025234D01*
X001181Y025135D02*
X015471Y025135D01*
X015471Y025037D02*
X001181Y025037D01*
X001181Y024938D02*
X015471Y024938D01*
X015471Y024840D02*
X001181Y024840D01*
X001181Y024741D02*
X015471Y024741D01*
X015471Y024643D02*
X001181Y024643D01*
X001181Y024544D02*
X015471Y024544D01*
X015471Y024445D02*
X001181Y024445D01*
X001181Y024347D02*
X015471Y024347D01*
X015471Y024248D02*
X001181Y024248D01*
X001181Y024150D02*
X015471Y024150D01*
X015471Y024051D02*
X001181Y024051D01*
X001181Y023953D02*
X015471Y023953D01*
X015471Y023854D02*
X001181Y023854D01*
X001181Y023756D02*
X012878Y023756D01*
X012728Y023605D01*
X012647Y023409D01*
X012647Y023196D01*
X012728Y022999D01*
X012878Y022849D01*
X012991Y022802D01*
X012878Y022756D01*
X012795Y022672D01*
X012491Y022672D01*
X012491Y022889D01*
X012368Y023012D01*
X011394Y023012D01*
X009994Y023012D01*
X009871Y022889D01*
X009871Y021715D01*
X009994Y021592D01*
X011394Y021592D01*
X012368Y021592D01*
X012491Y021715D01*
X012491Y021932D01*
X012795Y021932D01*
X012878Y021849D01*
X012991Y021802D01*
X012878Y021756D01*
X012728Y021605D01*
X012647Y021409D01*
X012647Y021196D01*
X012728Y020999D01*
X012878Y020849D01*
X013075Y020768D01*
X013288Y020768D01*
X013484Y020849D01*
X013635Y020999D01*
X013716Y021196D01*
X013716Y021409D01*
X013635Y021605D01*
X013484Y021756D01*
X013372Y021802D01*
X013484Y021849D01*
X013635Y021999D01*
X013716Y022196D01*
X013716Y022409D01*
X013635Y022605D01*
X013484Y022756D01*
X013372Y022802D01*
X013484Y022849D01*
X013635Y022999D01*
X013716Y023196D01*
X013716Y023409D01*
X013635Y023605D01*
X013484Y023756D01*
X013288Y023837D01*
X013075Y023837D01*
X012878Y023756D01*
X012780Y023657D02*
X001181Y023657D01*
X001181Y023559D02*
X012709Y023559D01*
X012668Y023460D02*
X001181Y023460D01*
X001181Y023361D02*
X012647Y023361D01*
X012647Y023263D02*
X001181Y023263D01*
X001181Y023164D02*
X012660Y023164D01*
X012700Y023066D02*
X001181Y023066D01*
X001181Y022967D02*
X009949Y022967D01*
X009871Y022869D02*
X001181Y022869D01*
X001181Y022770D02*
X009871Y022770D01*
X009871Y022672D02*
X001181Y022672D01*
X001181Y022573D02*
X009871Y022573D01*
X009871Y022475D02*
X001181Y022475D01*
X001181Y022376D02*
X009871Y022376D01*
X009871Y022278D02*
X001181Y022278D01*
X001181Y022179D02*
X009871Y022179D01*
X009871Y022080D02*
X001181Y022080D01*
X001181Y021982D02*
X009871Y021982D01*
X009871Y021883D02*
X001181Y021883D01*
X001181Y021785D02*
X009871Y021785D01*
X009901Y021686D02*
X001181Y021686D01*
X001181Y021588D02*
X012721Y021588D01*
X012680Y021489D02*
X001181Y021489D01*
X001181Y021391D02*
X012647Y021391D01*
X012647Y021292D02*
X001181Y021292D01*
X001181Y021194D02*
X012648Y021194D01*
X012688Y021095D02*
X001181Y021095D01*
X001181Y020996D02*
X012731Y020996D01*
X012830Y020898D02*
X001181Y020898D01*
X001181Y020799D02*
X012998Y020799D01*
X013365Y020799D02*
X015471Y020799D01*
X015471Y020701D02*
X001181Y020701D01*
X001181Y020602D02*
X015471Y020602D01*
X015471Y020504D02*
X001181Y020504D01*
X001181Y020405D02*
X015471Y020405D01*
X015471Y020307D02*
X001181Y020307D01*
X001181Y020208D02*
X015471Y020208D01*
X015471Y020110D02*
X001181Y020110D01*
X001181Y020011D02*
X015471Y020011D01*
X015471Y019912D02*
X001181Y019912D01*
X001181Y019814D02*
X015471Y019814D01*
X015471Y019715D02*
X001181Y019715D01*
X001181Y019617D02*
X015471Y019617D01*
X015471Y019518D02*
X001181Y019518D01*
X001181Y019420D02*
X015471Y019420D01*
X015471Y019321D02*
X001181Y019321D01*
X001181Y019223D02*
X015471Y019223D01*
X015471Y019124D02*
X001181Y019124D01*
X001181Y019026D02*
X015471Y019026D01*
X015471Y018927D02*
X001181Y018927D01*
X001181Y018829D02*
X015471Y018829D01*
X015471Y018730D02*
X001181Y018730D01*
X001181Y018631D02*
X015471Y018631D01*
X015471Y018533D02*
X001181Y018533D01*
X001181Y018434D02*
X015471Y018434D01*
X015471Y018336D02*
X001181Y018336D01*
X001181Y018237D02*
X015471Y018237D01*
X015548Y018139D02*
X001181Y018139D01*
X012462Y021686D02*
X012809Y021686D01*
X012949Y021785D02*
X012491Y021785D01*
X012491Y021883D02*
X012844Y021883D01*
X013414Y021785D02*
X015471Y021785D01*
X015471Y021883D02*
X013519Y021883D01*
X013617Y021982D02*
X015471Y021982D01*
X015471Y022080D02*
X013668Y022080D01*
X013709Y022179D02*
X015471Y022179D01*
X015471Y022278D02*
X013716Y022278D01*
X013716Y022376D02*
X015471Y022376D01*
X015471Y022475D02*
X013689Y022475D01*
X013648Y022573D02*
X015471Y022573D01*
X015471Y022672D02*
X013568Y022672D01*
X013449Y022770D02*
X015471Y022770D01*
X015471Y022869D02*
X013504Y022869D01*
X013603Y022967D02*
X015471Y022967D01*
X015471Y023066D02*
X013662Y023066D01*
X013703Y023164D02*
X015471Y023164D01*
X015471Y023263D02*
X013716Y023263D01*
X013716Y023361D02*
X015471Y023361D01*
X015471Y023460D02*
X013695Y023460D01*
X013654Y023559D02*
X015471Y023559D01*
X015471Y023657D02*
X013583Y023657D01*
X013484Y023756D02*
X015471Y023756D01*
X012914Y022770D02*
X012491Y022770D01*
X012491Y022869D02*
X012859Y022869D01*
X012760Y022967D02*
X012413Y022967D01*
X013554Y021686D02*
X015471Y021686D01*
X015471Y021588D02*
X013642Y021588D01*
X013683Y021489D02*
X015471Y021489D01*
X015471Y021391D02*
X013716Y021391D01*
X013716Y021292D02*
X015471Y021292D01*
X015471Y021194D02*
X013715Y021194D01*
X013674Y021095D02*
X015471Y021095D01*
X015471Y020996D02*
X013632Y020996D01*
X013533Y020898D02*
X015471Y020898D01*
X026341Y026515D02*
X001181Y026515D01*
X001181Y026613D02*
X026341Y026613D01*
X026341Y026712D02*
X001181Y026712D01*
X001181Y026811D02*
X026341Y026811D01*
X026341Y026909D02*
X001181Y026909D01*
X001181Y036665D02*
X029371Y036665D01*
X029371Y036763D02*
X001181Y036763D01*
X001181Y036862D02*
X029371Y036862D01*
X029371Y036960D02*
X001181Y036960D01*
X001181Y037059D02*
X029371Y037059D01*
X029371Y037158D02*
X001181Y037158D01*
X001181Y037256D02*
X029371Y037256D01*
X029437Y037355D02*
X001181Y037355D01*
X001181Y037453D02*
X046371Y037453D01*
X046371Y037355D02*
X033326Y037355D01*
X033391Y037256D02*
X046371Y037256D01*
X046371Y037158D02*
X033391Y037158D01*
X033391Y037059D02*
X046371Y037059D01*
X046371Y036960D02*
X033391Y036960D01*
X033391Y036862D02*
X046371Y036862D01*
X046371Y036763D02*
X033391Y036763D01*
X033391Y036665D02*
X046371Y036665D01*
X046371Y036566D02*
X033391Y036566D01*
X033391Y036468D02*
X046371Y036468D01*
X046371Y037552D02*
X001181Y037552D01*
X001181Y037650D02*
X046371Y037650D01*
X046371Y037749D02*
X001181Y037749D01*
X001181Y037847D02*
X046371Y037847D01*
X046371Y037946D02*
X001181Y037946D01*
X001181Y038044D02*
X046371Y038044D01*
X046371Y038143D02*
X001181Y038143D01*
X001181Y038242D02*
X046371Y038242D01*
X046371Y038340D02*
X001181Y038340D01*
X001181Y038439D02*
X046371Y038439D01*
X046371Y038537D02*
X001181Y038537D01*
X001181Y038636D02*
X046371Y038636D01*
X046371Y038734D02*
X001181Y038734D01*
X001181Y038833D02*
X046371Y038833D01*
X046371Y038931D02*
X001181Y038931D01*
X001181Y039030D02*
X046371Y039030D01*
X046371Y039128D02*
X001181Y039128D01*
X001181Y039227D02*
X046371Y039227D01*
X046371Y039326D02*
X001181Y039326D01*
X001181Y039424D02*
X046406Y039424D01*
X047587Y041099D02*
X024775Y041099D01*
X024874Y041198D02*
X047489Y041198D01*
X047471Y041296D02*
X024891Y041296D01*
X024891Y041395D02*
X047471Y041395D01*
X047471Y041493D02*
X024891Y041493D01*
X024891Y041592D02*
X047471Y041592D01*
X047471Y041691D02*
X024891Y041691D01*
X024891Y041789D02*
X047471Y041789D01*
X047471Y041888D02*
X024891Y041888D01*
X024891Y041986D02*
X047471Y041986D01*
X047471Y042085D02*
X024891Y042085D01*
X024891Y042183D02*
X047471Y042183D01*
X047471Y042282D02*
X024891Y042282D01*
X024891Y042380D02*
X047471Y042380D01*
X047471Y042479D02*
X024891Y042479D01*
X024891Y042577D02*
X047471Y042577D01*
X047471Y042676D02*
X024891Y042676D01*
X024891Y042775D02*
X047471Y042775D01*
X047471Y042873D02*
X024891Y042873D01*
X024891Y042972D02*
X047471Y042972D01*
X047471Y043070D02*
X024891Y043070D01*
X024891Y043169D02*
X047471Y043169D01*
X047471Y043267D02*
X024891Y043267D01*
X024891Y043366D02*
X047471Y043366D01*
X047546Y043464D02*
X024816Y043464D01*
X019546Y043464D02*
X005181Y043464D01*
X005181Y043366D02*
X019471Y043366D01*
X019471Y043267D02*
X005181Y043267D01*
X005181Y043169D02*
X019471Y043169D01*
X019471Y043070D02*
X005181Y043070D01*
X005181Y042972D02*
X019471Y042972D01*
X019471Y042873D02*
X005181Y042873D01*
X005181Y042775D02*
X019471Y042775D01*
X019471Y042676D02*
X005181Y042676D01*
X005181Y042577D02*
X019471Y042577D01*
X019471Y042479D02*
X005181Y042479D01*
X005181Y042380D02*
X019471Y042380D01*
X019471Y042282D02*
X005161Y042282D01*
X005062Y042183D02*
X019471Y042183D01*
X019471Y042085D02*
X004964Y042085D01*
X004865Y041986D02*
X019471Y041986D01*
X019471Y041888D02*
X004767Y041888D01*
X004668Y041789D02*
X019471Y041789D01*
X019471Y041691D02*
X004570Y041691D01*
X004471Y041592D02*
X019471Y041592D01*
X019471Y041493D02*
X004373Y041493D01*
X004274Y041395D02*
X019471Y041395D01*
X019471Y041296D02*
X004175Y041296D01*
X004077Y041198D02*
X019489Y041198D01*
X019587Y041099D02*
X003978Y041099D01*
X007716Y040902D02*
X014046Y040902D01*
X013918Y040804D02*
X007845Y040804D01*
X007944Y040705D02*
X013819Y040705D01*
X013769Y040607D02*
X007994Y040607D01*
X008035Y040508D02*
X013728Y040508D01*
X013699Y040409D02*
X008064Y040409D01*
X008064Y040311D02*
X013699Y040311D01*
X013699Y040212D02*
X008064Y040212D01*
X008042Y040114D02*
X013721Y040114D01*
X013762Y040015D02*
X008001Y040015D01*
X007960Y039917D02*
X013802Y039917D01*
X013900Y039818D02*
X007862Y039818D01*
X007758Y039720D02*
X014005Y039720D01*
X014243Y039621D02*
X007520Y039621D01*
X027421Y032033D02*
X046371Y032033D01*
X046371Y031935D02*
X027421Y031935D01*
X028091Y032230D02*
X028433Y032230D01*
X027801Y026219D02*
X027421Y026219D01*
X027421Y026121D02*
X027771Y026121D01*
X027771Y026022D02*
X027421Y026022D01*
X027421Y025924D02*
X027771Y025924D01*
X027771Y025825D02*
X027421Y025825D01*
X027421Y025727D02*
X027771Y025727D01*
X027771Y025628D02*
X027421Y025628D01*
X027421Y025529D02*
X027771Y025529D01*
X027771Y025431D02*
X027421Y025431D01*
X027421Y025332D02*
X027771Y025332D01*
X027771Y025234D02*
X027421Y025234D01*
X027421Y025135D02*
X027771Y025135D01*
X027771Y025037D02*
X027421Y025037D01*
X027421Y024938D02*
X027771Y024938D01*
X027771Y024840D02*
X027421Y024840D01*
X027421Y024741D02*
X027771Y024741D01*
X027771Y024643D02*
X027421Y024643D01*
X027421Y024544D02*
X027771Y024544D01*
X027771Y024445D02*
X027421Y024445D01*
X027421Y024347D02*
X027771Y024347D01*
X027771Y024248D02*
X027421Y024248D01*
X027421Y024150D02*
X027771Y024150D01*
X027771Y024051D02*
X027421Y024051D01*
X027421Y023953D02*
X027771Y023953D01*
X027771Y023854D02*
X027421Y023854D01*
X027421Y023756D02*
X027771Y023756D01*
X027771Y023657D02*
X027421Y023657D01*
X027421Y023559D02*
X027771Y023559D01*
X027771Y023460D02*
X027421Y023460D01*
X027421Y023361D02*
X027771Y023361D01*
X027771Y023263D02*
X027421Y023263D01*
X027421Y023164D02*
X027771Y023164D01*
X027771Y023066D02*
X027421Y023066D01*
X027421Y022967D02*
X027771Y022967D01*
X027771Y022869D02*
X027421Y022869D01*
X027421Y022770D02*
X027771Y022770D01*
X027771Y022672D02*
X027421Y022672D01*
X027421Y022573D02*
X027771Y022573D01*
X027771Y022475D02*
X027421Y022475D01*
X027421Y022376D02*
X027771Y022376D01*
X027771Y022278D02*
X027421Y022278D01*
X027421Y022179D02*
X027771Y022179D01*
X027771Y022080D02*
X027421Y022080D01*
X027421Y021982D02*
X027771Y021982D01*
X027771Y021883D02*
X027421Y021883D01*
X027421Y021785D02*
X027771Y021785D01*
X027771Y021686D02*
X027421Y021686D01*
X027421Y021588D02*
X027799Y021588D01*
X027421Y021489D02*
X029671Y021489D01*
X029671Y021391D02*
X027421Y021391D01*
X027421Y021292D02*
X029671Y021292D01*
X029671Y021194D02*
X027421Y021194D01*
X027421Y021095D02*
X029671Y021095D01*
X029671Y020996D02*
X027421Y020996D01*
X027421Y020898D02*
X029671Y020898D01*
X029671Y020799D02*
X027421Y020799D01*
X027421Y020701D02*
X029671Y020701D01*
X029671Y020602D02*
X027421Y020602D01*
X027421Y020504D02*
X029671Y020504D01*
X029671Y020405D02*
X027421Y020405D01*
X027421Y020307D02*
X029671Y020307D01*
X029671Y020208D02*
X027421Y020208D01*
X027421Y020110D02*
X029671Y020110D01*
X029671Y020011D02*
X027421Y020011D01*
X027421Y019912D02*
X029671Y019912D01*
X029673Y019814D02*
X027421Y019814D01*
X017487Y006374D02*
X017487Y006374D01*
X035520Y039621D02*
X042243Y039621D01*
X042005Y039720D02*
X035758Y039720D01*
X035862Y039818D02*
X041900Y039818D01*
X041802Y039917D02*
X035960Y039917D01*
X036001Y040015D02*
X041762Y040015D01*
X041721Y040114D02*
X036042Y040114D01*
X036064Y040212D02*
X041699Y040212D01*
X041699Y040311D02*
X036064Y040311D01*
X036064Y040409D02*
X041699Y040409D01*
X041728Y040508D02*
X036035Y040508D01*
X035994Y040607D02*
X041769Y040607D01*
X041819Y040705D02*
X035944Y040705D01*
X035845Y040804D02*
X041918Y040804D01*
X042046Y040902D02*
X035716Y040902D01*
D40*
X025381Y042302D02*
X023681Y042302D01*
X023681Y040802D01*
X023681Y042302D02*
X023681Y043802D01*
X051681Y043802D02*
X051681Y042302D01*
X051681Y040902D01*
X051681Y042302D02*
X053281Y042302D01*
X058681Y042302D02*
X058681Y040802D01*
X058681Y039702D02*
X058681Y038302D01*
X058681Y037202D01*
X058681Y038302D02*
X059981Y038302D01*
X059981Y042302D02*
X058681Y042302D01*
X058681Y043902D01*
M02*
