G75*
G70*
%OFA0B0*%
%FSLAX24Y24*%
%IPPOS*%
%LPD*%
%AMOC8*
5,1,8,0,0,1.08239X$1,22.5*
%
%ADD10C,0.0160*%
%ADD11C,0.0000*%
D10*
X000181Y000302D02*
X000181Y045302D01*
X065181Y045302D01*
X065181Y000302D01*
X000181Y000302D01*
D11*
X001431Y002302D02*
X001434Y002370D01*
X001443Y002438D01*
X001459Y002504D01*
X001480Y002569D01*
X001507Y002632D01*
X001540Y002692D01*
X001578Y002748D01*
X001621Y002801D01*
X001669Y002850D01*
X001721Y002894D01*
X001777Y002934D01*
X001836Y002968D01*
X001898Y002997D01*
X001962Y003019D01*
X002028Y003036D01*
X002096Y003047D01*
X002164Y003052D01*
X002232Y003050D01*
X002300Y003042D01*
X002367Y003029D01*
X002432Y003009D01*
X002495Y002983D01*
X002556Y002952D01*
X002614Y002915D01*
X002667Y002873D01*
X002717Y002826D01*
X002763Y002775D01*
X002803Y002720D01*
X002839Y002662D01*
X002869Y002601D01*
X002893Y002537D01*
X002912Y002471D01*
X002924Y002404D01*
X002930Y002336D01*
X002930Y002268D01*
X002924Y002200D01*
X002912Y002133D01*
X002893Y002067D01*
X002869Y002003D01*
X002839Y001942D01*
X002803Y001884D01*
X002763Y001829D01*
X002717Y001778D01*
X002667Y001731D01*
X002614Y001689D01*
X002556Y001652D01*
X002495Y001621D01*
X002432Y001595D01*
X002367Y001575D01*
X002300Y001562D01*
X002232Y001554D01*
X002164Y001552D01*
X002096Y001557D01*
X002028Y001568D01*
X001962Y001585D01*
X001898Y001607D01*
X001836Y001636D01*
X001777Y001670D01*
X001721Y001710D01*
X001669Y001754D01*
X001621Y001803D01*
X001578Y001856D01*
X001540Y001912D01*
X001507Y001972D01*
X001480Y002035D01*
X001459Y002100D01*
X001443Y002166D01*
X001434Y002234D01*
X001431Y002302D01*
X001431Y043302D02*
X001434Y043370D01*
X001443Y043438D01*
X001459Y043504D01*
X001480Y043569D01*
X001507Y043632D01*
X001540Y043692D01*
X001578Y043748D01*
X001621Y043801D01*
X001669Y043850D01*
X001721Y043894D01*
X001777Y043934D01*
X001836Y043968D01*
X001898Y043997D01*
X001962Y044019D01*
X002028Y044036D01*
X002096Y044047D01*
X002164Y044052D01*
X002232Y044050D01*
X002300Y044042D01*
X002367Y044029D01*
X002432Y044009D01*
X002495Y043983D01*
X002556Y043952D01*
X002614Y043915D01*
X002667Y043873D01*
X002717Y043826D01*
X002763Y043775D01*
X002803Y043720D01*
X002839Y043662D01*
X002869Y043601D01*
X002893Y043537D01*
X002912Y043471D01*
X002924Y043404D01*
X002930Y043336D01*
X002930Y043268D01*
X002924Y043200D01*
X002912Y043133D01*
X002893Y043067D01*
X002869Y043003D01*
X002839Y042942D01*
X002803Y042884D01*
X002763Y042829D01*
X002717Y042778D01*
X002667Y042731D01*
X002614Y042689D01*
X002556Y042652D01*
X002495Y042621D01*
X002432Y042595D01*
X002367Y042575D01*
X002300Y042562D01*
X002232Y042554D01*
X002164Y042552D01*
X002096Y042557D01*
X002028Y042568D01*
X001962Y042585D01*
X001898Y042607D01*
X001836Y042636D01*
X001777Y042670D01*
X001721Y042710D01*
X001669Y042754D01*
X001621Y042803D01*
X001578Y042856D01*
X001540Y042912D01*
X001507Y042972D01*
X001480Y043035D01*
X001459Y043100D01*
X001443Y043166D01*
X001434Y043234D01*
X001431Y043302D01*
X062431Y043302D02*
X062434Y043370D01*
X062443Y043438D01*
X062459Y043504D01*
X062480Y043569D01*
X062507Y043632D01*
X062540Y043692D01*
X062578Y043748D01*
X062621Y043801D01*
X062669Y043850D01*
X062721Y043894D01*
X062777Y043934D01*
X062836Y043968D01*
X062898Y043997D01*
X062962Y044019D01*
X063028Y044036D01*
X063096Y044047D01*
X063164Y044052D01*
X063232Y044050D01*
X063300Y044042D01*
X063367Y044029D01*
X063432Y044009D01*
X063495Y043983D01*
X063556Y043952D01*
X063614Y043915D01*
X063667Y043873D01*
X063717Y043826D01*
X063763Y043775D01*
X063803Y043720D01*
X063839Y043662D01*
X063869Y043601D01*
X063893Y043537D01*
X063912Y043471D01*
X063924Y043404D01*
X063930Y043336D01*
X063930Y043268D01*
X063924Y043200D01*
X063912Y043133D01*
X063893Y043067D01*
X063869Y043003D01*
X063839Y042942D01*
X063803Y042884D01*
X063763Y042829D01*
X063717Y042778D01*
X063667Y042731D01*
X063614Y042689D01*
X063556Y042652D01*
X063495Y042621D01*
X063432Y042595D01*
X063367Y042575D01*
X063300Y042562D01*
X063232Y042554D01*
X063164Y042552D01*
X063096Y042557D01*
X063028Y042568D01*
X062962Y042585D01*
X062898Y042607D01*
X062836Y042636D01*
X062777Y042670D01*
X062721Y042710D01*
X062669Y042754D01*
X062621Y042803D01*
X062578Y042856D01*
X062540Y042912D01*
X062507Y042972D01*
X062480Y043035D01*
X062459Y043100D01*
X062443Y043166D01*
X062434Y043234D01*
X062431Y043302D01*
X062431Y002302D02*
X062434Y002370D01*
X062443Y002438D01*
X062459Y002504D01*
X062480Y002569D01*
X062507Y002632D01*
X062540Y002692D01*
X062578Y002748D01*
X062621Y002801D01*
X062669Y002850D01*
X062721Y002894D01*
X062777Y002934D01*
X062836Y002968D01*
X062898Y002997D01*
X062962Y003019D01*
X063028Y003036D01*
X063096Y003047D01*
X063164Y003052D01*
X063232Y003050D01*
X063300Y003042D01*
X063367Y003029D01*
X063432Y003009D01*
X063495Y002983D01*
X063556Y002952D01*
X063614Y002915D01*
X063667Y002873D01*
X063717Y002826D01*
X063763Y002775D01*
X063803Y002720D01*
X063839Y002662D01*
X063869Y002601D01*
X063893Y002537D01*
X063912Y002471D01*
X063924Y002404D01*
X063930Y002336D01*
X063930Y002268D01*
X063924Y002200D01*
X063912Y002133D01*
X063893Y002067D01*
X063869Y002003D01*
X063839Y001942D01*
X063803Y001884D01*
X063763Y001829D01*
X063717Y001778D01*
X063667Y001731D01*
X063614Y001689D01*
X063556Y001652D01*
X063495Y001621D01*
X063432Y001595D01*
X063367Y001575D01*
X063300Y001562D01*
X063232Y001554D01*
X063164Y001552D01*
X063096Y001557D01*
X063028Y001568D01*
X062962Y001585D01*
X062898Y001607D01*
X062836Y001636D01*
X062777Y001670D01*
X062721Y001710D01*
X062669Y001754D01*
X062621Y001803D01*
X062578Y001856D01*
X062540Y001912D01*
X062507Y001972D01*
X062480Y002035D01*
X062459Y002100D01*
X062443Y002166D01*
X062434Y002234D01*
X062431Y002302D01*
M02*
