%
M48
M72
T01C0.1500
T02C0.0630
T03C0.0354
T04C0.0551
T05C0.0433
T06C0.0315
T07C0.0320
%
T01
X218Y230
X1998Y2230
X1998Y3030
X218Y4330
X5018Y3510
X6318Y4330
X6318Y230
T02
X5798Y4030
X5638Y4030
X5098Y4030
X4938Y4030
X4398Y4030
X4238Y4030
X3698Y4030
X3538Y4030
X2298Y4030
X2138Y4030
X1598Y4030
X1438Y4030
X898Y4030
X738Y4030
T03
X1668Y3430
X1818Y3430
X1818Y3230
X1668Y3230
X1668Y3030
X1818Y3030
X1818Y2830
X1668Y2830
X2018Y2830
X2218Y2830
X2418Y2830
X2418Y3030
X2218Y3030
X2218Y3230
X2018Y3230
X2418Y3230
X2418Y3430
X2818Y4030
X2918Y4030
X3018Y4030
X4468Y3260
X4588Y3260
X4748Y3290
X4918Y3290
X5108Y3290
X5288Y3290
X5518Y3230
X5718Y3230
X5918Y3230
X6118Y3230
X6118Y3420
X5918Y3420
X5718Y3420
X5518Y3420
X5288Y3510
X5518Y3610
X5718Y3610
X5918Y3610
X6118Y3610
X6118Y3770
X6118Y3920
X6318Y3920
X6318Y3770
X6318Y3610
X6318Y3420
X6318Y3230
X6318Y3040
X6318Y2840
X6118Y2840
X5918Y2840
X5718Y2840
X5518Y2840
X5518Y3040
X5718Y3040
X5918Y3040
X6118Y3040
X5288Y3100
X5108Y3100
X4928Y3100
X4748Y3100
X4548Y2980
X4588Y2700
X4468Y2700
X4738Y2480
X4898Y2480
X5058Y2480
X5218Y2480
X5468Y2480
X5218Y2230
X5468Y2130
X5718Y2130
X5718Y1930
X5468Y1930
X5318Y1730
X5528Y1690
X5788Y1690
X6048Y1690
X6378Y2030
X6378Y2150
X6378Y2270
X6378Y2390
X5218Y2030
X4898Y2230
X4618Y2230
X4548Y2430
X4618Y2030
X3868Y2230
X3868Y2390
X3868Y2550
X3368Y2550
X3368Y2390
X3368Y2230
X3348Y1880
X3178Y1880
X3178Y1750
X3348Y1750
X3348Y1610
X3178Y1610
X3178Y1480
X3348Y1480
X3528Y1480
X3528Y1610
X3528Y1750
X3528Y1880
X3718Y1880
X3718Y1750
X3718Y1610
X3718Y1480
X3818Y1330
X4118Y1060
X4378Y1060
X4318Y830
X4118Y830
X3718Y580
X3718Y450
X3718Y310
X3718Y180
X3528Y180
X3528Y310
X3528Y450
X3528Y580
X3348Y580
X3178Y580
X3178Y450
X3348Y450
X3348Y310
X3178Y310
X3178Y180
X3348Y180
X4118Y230
X4318Y230
X4518Y230
X4718Y230
X4918Y230
X5118Y230
X5348Y270
X5348Y530
X5268Y680
X5118Y530
X4918Y530
X4718Y530
X4518Y530
X4318Y530
X4118Y530
X2418Y530
X2168Y530
X1918Y530
X1618Y530
X1318Y530
X1018Y530
X718Y530
X468Y630
X218Y630
X218Y830
X218Y1030
X468Y980
X718Y830
X1018Y830
X1318Y830
X1568Y780
X1918Y830
X2168Y830
X2418Y830
X2418Y230
X2168Y230
X1918Y230
X1618Y230
X1318Y230
X1018Y230
X718Y230
X806Y1305
X556Y1305
X306Y1305
X1198Y1880
X1668Y1930
X1818Y1930
X2018Y1930
X2218Y1930
X2418Y1930
X2418Y2130
X2218Y2130
X2218Y2330
X2418Y2330
X2418Y2530
X2218Y2530
X2018Y2530
X1818Y2530
X1668Y2530
X1668Y2330
X1818Y2330
X1818Y2130
X1668Y2130
X528Y2230
X528Y2580
X2868Y2550
X2868Y2390
X2868Y2230
X4548Y3540
X4748Y3510
X4748Y3690
X4928Y3720
X5108Y3720
X5288Y3690
X5288Y3870
X5108Y3870
X4928Y3870
X4748Y3870
T04
X3868Y3580
X3668Y3580
X3468Y3580
X3468Y3280
X3668Y3280
X3868Y3280
X2868Y3280
X2868Y3580
X2168Y1650
X2438Y1520
X2168Y1310
X4948Y1320
X4948Y1660
X5918Y1100
X6288Y1080
X5918Y760
T05
X5118Y2830
X5018Y2830
X4918Y2830
X1318Y2930
X1318Y3030
X1318Y3130
X1318Y2330
X1318Y2230
X1318Y2130
T06
X493Y3055
X1118Y3195
X893Y3530
X2868Y2730
X3288Y2730
X3318Y2880
X3318Y2980
X3198Y3180
X3618Y2980
X3618Y2880
X3718Y2730
X3718Y3130
X4228Y2250
X4798Y1890
X4748Y1730
X4848Y1730
X3658Y2080
X3478Y2080
X3258Y2080
X3078Y2080
X2868Y1860
X2868Y1480
X2948Y1180
X3318Y740
X3588Y740
X3728Y730
X3588Y1130
X4618Y890
X6298Y2520
X5848Y2670
X5778Y2670
X5318Y2940
X918Y993
T07
X3118Y980
X3118Y880
X3118Y1080
X3118Y1180
X3418Y1180
X3418Y1080
X3418Y980
X3418Y880
M30
