G75*
G70*
%OFA0B0*%
%FSLAX24Y24*%
%IPPOS*%
%LPD*%
%AMOC8*
5,1,8,0,0,1.08239X$1,22.5*
%
%ADD10R,0.3250X0.3750*%
%ADD11R,0.7500X0.7625*%
%ADD12R,0.8000X0.4875*%
%ADD13R,0.3350X0.3450*%
%ADD14R,1.0600X0.7050*%
%ADD15R,1.0600X0.9100*%
%ADD16R,0.4000X0.1700*%
%ADD17R,0.2100X0.2700*%
%ADD18R,1.1400X0.4200*%
%ADD19R,0.6400X0.5000*%
%ADD20C,0.1580*%
%ADD21R,0.9900X1.1800*%
%ADD22R,0.5100X0.1100*%
%ADD23R,0.0800X0.1100*%
%ADD24R,0.9500X0.0500*%
%ADD25R,0.6000X0.9200*%
%ADD26R,0.1000X0.0800*%
%ADD27R,0.7700X0.7800*%
%ADD28R,0.3200X0.3900*%
%ADD29R,0.3200X0.3400*%
%ADD30R,1.0100X0.6700*%
%ADD31R,0.1700X0.5300*%
%ADD32R,0.4000X0.1200*%
%ADD33R,0.1300X0.6700*%
%ADD34R,0.5500X0.2800*%
%ADD35R,0.2000X0.1200*%
%ADD36R,0.2000X0.2400*%
%ADD37R,0.3200X0.1200*%
%ADD38R,0.2000X0.1000*%
%ADD39R,0.2200X0.1900*%
%ADD40R,0.2200X0.2100*%
%ADD41R,0.2000X0.2800*%
%ADD42R,0.1100X0.2300*%
%ADD43R,0.4800X0.1500*%
%ADD44C,0.1025*%
%ADD45C,0.0634*%
%ADD46R,0.0430X0.0980*%
%ADD47R,0.1080X0.0880*%
%ADD48R,0.0880X0.0980*%
%ADD49R,0.2080X0.2080*%
%ADD50R,0.0880X0.1080*%
%ADD51C,0.0907*%
%ADD52C,0.1980*%
%ADD53C,0.0730*%
%ADD54R,0.1680X0.1280*%
%ADD55R,0.0680X0.0880*%
%ADD56R,0.1280X0.1880*%
%ADD57R,0.0946X0.0316*%
%ADD58R,0.0880X0.0680*%
%ADD59R,0.0980X0.0880*%
%ADD60C,0.0595*%
%ADD61R,0.2580X0.2080*%
%ADD62R,0.1080X0.0780*%
%ADD63O,0.1120X0.0600*%
%ADD64R,0.0880X0.1480*%
%ADD65C,0.0611*%
%ADD66C,0.0555*%
D10*
X015681Y011777D03*
D11*
X010181Y005240D03*
D12*
X016181Y003865D03*
D13*
X021406Y036677D03*
D14*
X020431Y030777D03*
D15*
X020431Y022302D03*
D16*
X017131Y035002D03*
D17*
X024681Y035502D03*
D18*
X033681Y023902D03*
D19*
X034481Y016802D03*
X034481Y003802D03*
D20*
X002181Y002302D03*
X002181Y043302D03*
X063181Y043302D03*
X063181Y002302D03*
D21*
X059331Y033602D03*
D22*
X061731Y039452D03*
D23*
X054781Y039452D03*
D24*
X059531Y027552D03*
D25*
X050181Y034902D03*
D26*
X047681Y039702D03*
X052681Y039702D03*
D27*
X049031Y023502D03*
D28*
X042881Y019752D03*
D29*
X052681Y010502D03*
D30*
X045631Y004852D03*
D31*
X051231Y004152D03*
D32*
X042581Y008502D03*
D33*
X053331Y022652D03*
D34*
X055531Y020302D03*
D35*
X045281Y034202D03*
D36*
X042281Y037302D03*
D37*
X041581Y037902D03*
D38*
X045281Y030902D03*
D39*
X047181Y028752D03*
D40*
X042381Y031552D03*
D41*
X042281Y026202D03*
D42*
X044831Y026252D03*
D43*
X055881Y018952D03*
D44*
X056381Y040302D03*
X057981Y040302D03*
X050981Y040302D03*
X049381Y040302D03*
X043981Y040302D03*
X042381Y040302D03*
X036981Y040302D03*
X035381Y040302D03*
X022981Y040302D03*
X021381Y040302D03*
X015981Y040302D03*
X014381Y040302D03*
X008981Y040302D03*
X007381Y040302D03*
D45*
X028181Y040302D03*
X029181Y040302D03*
X030181Y040302D03*
D46*
X057781Y025802D03*
X058481Y025802D03*
X059181Y025802D03*
X059881Y025802D03*
X060581Y025802D03*
X050481Y018102D03*
X049981Y018102D03*
X049481Y018102D03*
X048981Y018102D03*
X048481Y018102D03*
X047981Y018102D03*
X047481Y018102D03*
X047681Y009802D03*
X047181Y009802D03*
X046681Y009802D03*
X046181Y009802D03*
X045681Y009802D03*
X048181Y009802D03*
X048681Y009802D03*
X011681Y010802D03*
X011181Y010802D03*
X010681Y010802D03*
X010181Y010802D03*
X009681Y010802D03*
X009181Y010802D03*
X008681Y010802D03*
D47*
X013056Y011377D03*
X013056Y009977D03*
X013181Y018802D03*
X013181Y020202D03*
X005281Y026902D03*
X005281Y028302D03*
X028681Y017502D03*
X028681Y016102D03*
X028681Y004502D03*
X028681Y003102D03*
X050081Y009002D03*
X050081Y010402D03*
X061981Y025202D03*
X061981Y026602D03*
D48*
X043781Y016802D03*
X041981Y016802D03*
X036581Y020802D03*
X034781Y020802D03*
X032581Y020802D03*
X030781Y020802D03*
X016581Y008777D03*
X014781Y008777D03*
X020481Y033802D03*
X022281Y033802D03*
X051781Y007802D03*
X053581Y007802D03*
D49*
X053681Y005302D03*
X056681Y005302D03*
X056681Y002702D03*
X053681Y002702D03*
X043781Y010802D03*
X041181Y010802D03*
X041181Y013802D03*
X043781Y013802D03*
X055281Y013802D03*
X057881Y013802D03*
X060481Y013802D03*
X060481Y016802D03*
X057881Y016802D03*
X055281Y016802D03*
X060681Y020902D03*
X063681Y020902D03*
X063681Y023302D03*
X060681Y023302D03*
X058281Y023202D03*
X055281Y023202D03*
X045281Y024302D03*
X042281Y024302D03*
X042281Y029802D03*
X045281Y029802D03*
X045281Y035402D03*
X042281Y035402D03*
X008056Y015802D03*
X005556Y015802D03*
X003056Y015802D03*
X003056Y012802D03*
X005556Y012802D03*
X008056Y012802D03*
X019181Y011052D03*
X021681Y011052D03*
X024181Y011052D03*
X024181Y008052D03*
X021681Y008052D03*
X019181Y008052D03*
D50*
X011381Y012302D03*
X009981Y012302D03*
X030081Y027302D03*
X031481Y027302D03*
X051281Y018102D03*
X052681Y018102D03*
X048381Y011302D03*
X046981Y011302D03*
X051781Y029402D03*
X053181Y029402D03*
D51*
X038681Y032802D03*
X036681Y032802D03*
X034681Y032802D03*
X034681Y035802D03*
X036681Y035802D03*
X038681Y035802D03*
X028681Y035802D03*
X028681Y032802D03*
X021681Y016502D03*
X024381Y015202D03*
X021681Y013102D03*
X049481Y013202D03*
X049481Y016602D03*
X059181Y011002D03*
X062881Y010802D03*
X059181Y007602D03*
D52*
X019981Y022302D03*
X019981Y030302D03*
X050181Y035102D03*
D53*
X050181Y028302D03*
X051181Y028302D03*
X049181Y028302D03*
X013181Y029302D03*
X013181Y030302D03*
X013181Y031302D03*
X013181Y023302D03*
X013181Y022302D03*
X013181Y021302D03*
D54*
X013181Y025802D03*
X013181Y028002D03*
D55*
X011681Y022302D03*
X010681Y022302D03*
X007681Y022302D03*
X006681Y022302D03*
X009731Y035302D03*
X010731Y035302D03*
X012231Y035302D03*
X013231Y035302D03*
X026181Y040302D03*
X027181Y040302D03*
X028181Y039102D03*
X029181Y039102D03*
X033781Y013302D03*
X034781Y013302D03*
X029481Y008802D03*
X028481Y008802D03*
X027781Y001502D03*
X026781Y001502D03*
X029181Y001502D03*
X030181Y001502D03*
D56*
X009381Y025802D03*
X006981Y025802D03*
D57*
X006120Y029552D03*
X006120Y030052D03*
X006120Y030552D03*
X006120Y031052D03*
X006120Y031552D03*
X006120Y032052D03*
X006120Y032552D03*
X006120Y033052D03*
X009742Y033052D03*
X009742Y032552D03*
X009742Y032052D03*
X009742Y031552D03*
X009742Y031052D03*
X009742Y030552D03*
X009742Y030052D03*
X009742Y029552D03*
D58*
X011181Y030152D03*
X011181Y031152D03*
X014281Y035502D03*
X014281Y036502D03*
X028681Y013802D03*
X028681Y012802D03*
X028381Y010902D03*
X029481Y010902D03*
X029481Y009902D03*
X028381Y009902D03*
X028681Y007302D03*
X028681Y006302D03*
X037281Y008402D03*
X037281Y009402D03*
X037281Y010802D03*
X037281Y011802D03*
D59*
X030281Y015902D03*
X030281Y017702D03*
X030281Y004702D03*
X030281Y002902D03*
D60*
X033181Y028802D03*
X033181Y029802D03*
X036181Y029802D03*
X036181Y028802D03*
D61*
X029181Y029802D03*
D62*
X031981Y028802D03*
X031981Y030802D03*
D63*
X031181Y011802D03*
X031181Y010802D03*
X031181Y009802D03*
X031181Y008802D03*
X034181Y008802D03*
X034181Y009802D03*
X034181Y010802D03*
X034181Y011802D03*
D64*
X034981Y007402D03*
X033181Y007402D03*
X033781Y027302D03*
X035581Y027302D03*
D65*
X033681Y025502D03*
X033681Y023902D03*
X033681Y022302D03*
X038681Y022302D03*
X038681Y023902D03*
X038681Y025502D03*
X044681Y027002D03*
X045881Y027002D03*
X047381Y024802D03*
X048981Y024802D03*
X050581Y024802D03*
X052181Y024802D03*
X054681Y024802D03*
X052181Y022302D03*
X054681Y021302D03*
X057181Y021302D03*
X057181Y019302D03*
X054681Y019302D03*
X053181Y017302D03*
X055281Y016902D03*
X057881Y016902D03*
X060481Y016902D03*
X063781Y020302D03*
X063781Y021502D03*
X063781Y022702D03*
X063781Y023902D03*
X063181Y028402D03*
X061181Y028402D03*
X059181Y028402D03*
X057181Y028402D03*
X055181Y028402D03*
X055181Y030402D03*
X057181Y030402D03*
X059181Y030402D03*
X061181Y030402D03*
X063181Y030402D03*
X063181Y032302D03*
X063181Y034202D03*
X063181Y036102D03*
X063181Y037702D03*
X063181Y039202D03*
X061181Y039202D03*
X061181Y037702D03*
X061181Y036102D03*
X059181Y036102D03*
X057181Y036102D03*
X055181Y036102D03*
X052881Y036902D03*
X051081Y037202D03*
X049281Y037202D03*
X047481Y036902D03*
X047481Y035102D03*
X045481Y035402D03*
X047481Y032902D03*
X049181Y032902D03*
X051081Y032902D03*
X052881Y032902D03*
X055181Y032302D03*
X057181Y032302D03*
X059181Y032302D03*
X061181Y032302D03*
X061181Y034202D03*
X059181Y034202D03*
X057181Y034202D03*
X055181Y034202D03*
X052881Y035102D03*
X052881Y038702D03*
X051081Y038702D03*
X049281Y038702D03*
X047481Y038702D03*
X045881Y032602D03*
X044681Y032602D03*
X047481Y031002D03*
X049281Y031002D03*
X051081Y031002D03*
X052881Y031002D03*
X045481Y029802D03*
X045481Y024302D03*
X046181Y022302D03*
X048981Y022302D03*
X046181Y020302D03*
X052181Y020302D03*
X043781Y010602D03*
X041181Y010602D03*
X041181Y008302D03*
X043181Y008302D03*
X043181Y005302D03*
X041181Y005302D03*
X041181Y002302D03*
X043181Y002302D03*
X045181Y002302D03*
X047181Y002302D03*
X049181Y002302D03*
X051181Y002302D03*
X053481Y002702D03*
X053481Y005302D03*
X052681Y006802D03*
X051181Y005302D03*
X049181Y005302D03*
X047181Y005302D03*
X045181Y005302D03*
X037181Y005802D03*
X037181Y004502D03*
X037181Y003102D03*
X037181Y001802D03*
X035281Y001802D03*
X035281Y003102D03*
X035281Y004502D03*
X035281Y005802D03*
X033481Y005802D03*
X031781Y005802D03*
X031781Y004502D03*
X033481Y004502D03*
X033481Y003102D03*
X031781Y003102D03*
X031781Y001802D03*
X033481Y001802D03*
X024181Y002302D03*
X021681Y002302D03*
X019181Y002302D03*
X016181Y002302D03*
X013181Y002302D03*
X010181Y002302D03*
X007181Y002302D03*
X007181Y005302D03*
X004681Y006302D03*
X002181Y006302D03*
X002181Y008302D03*
X002181Y010302D03*
X004681Y009802D03*
X007181Y008302D03*
X010181Y008302D03*
X013181Y008302D03*
X015681Y007802D03*
X016181Y005302D03*
X013181Y005302D03*
X010181Y005302D03*
X019181Y005302D03*
X021681Y005302D03*
X024181Y005302D03*
X024181Y008302D03*
X021681Y008302D03*
X019181Y008302D03*
X008056Y013052D03*
X005556Y013052D03*
X003056Y013052D03*
X011981Y018802D03*
X016681Y019302D03*
X018181Y019302D03*
X020181Y019302D03*
X022181Y019302D03*
X024181Y019302D03*
X024181Y021302D03*
X022181Y021302D03*
X022181Y023302D03*
X024181Y023302D03*
X024181Y025302D03*
X022181Y025302D03*
X020181Y025302D03*
X018181Y025302D03*
X016681Y025302D03*
X016681Y023302D03*
X018181Y023302D03*
X018181Y021302D03*
X016681Y021302D03*
X016681Y028302D03*
X018181Y028302D03*
X020181Y028302D03*
X022181Y028302D03*
X024181Y028302D03*
X024181Y030302D03*
X022181Y030302D03*
X022181Y032302D03*
X020181Y032302D03*
X018181Y032302D03*
X016681Y032302D03*
X016681Y034302D03*
X018181Y034302D03*
X018181Y030302D03*
X016681Y030302D03*
X024181Y032302D03*
X024181Y034302D03*
X028681Y025502D03*
X028681Y023902D03*
X028681Y022302D03*
X031781Y018802D03*
X033481Y018802D03*
X033481Y017502D03*
X031781Y017502D03*
X031781Y016102D03*
X033481Y016102D03*
X033481Y014802D03*
X031781Y014802D03*
X035281Y014802D03*
X035281Y016102D03*
X035281Y017502D03*
X035281Y018802D03*
X037181Y018802D03*
X037181Y017502D03*
X037181Y016102D03*
X037181Y014802D03*
X038181Y013302D03*
X005281Y022302D03*
X005281Y025802D03*
D66*
X004931Y030552D03*
X011181Y031952D03*
X008931Y035302D03*
X028681Y027302D03*
X032881Y027302D03*
X037181Y027302D03*
X037181Y031302D03*
X031981Y031802D03*
X042281Y022502D03*
X047981Y018902D03*
X047481Y017302D03*
X048481Y017302D03*
X036581Y020802D03*
X034781Y020802D03*
X032581Y020802D03*
X030781Y020802D03*
X028681Y018602D03*
X028681Y014802D03*
X029481Y011802D03*
X033181Y007402D03*
X035881Y007402D03*
X037281Y007302D03*
X035881Y011302D03*
X046181Y008902D03*
X062981Y025202D03*
X058481Y026702D03*
X057781Y026702D03*
X053181Y029402D03*
X009181Y009927D03*
M02*
