G04*
G04 #@! TF.GenerationSoftware,Altium Limited,Altium Designer,26.3.0 (6)*
G04*
G04 Layer_Color=8421504*
%FSLAX44Y44*%
%MOMM*%
G71*
G04*
G04 #@! TF.SameCoordinates,8E864A74-D1D2-490B-8332-24043535647A*
G04*
G04*
G04 #@! TF.FilePolarity,Positive*
G04*
G01*
G75*
%ADD13R,1.1500X1.1500*%
%ADD14R,3.2500X3.4300*%
%ADD15R,1.5500X2.3500*%
%ADD16R,0.9600X1.3900*%
%ADD17R,1.4750X0.4500*%
%ADD18R,2.3700X2.4300*%
D13*
X105000Y300750D02*
D03*
Y277250D02*
D03*
X199000Y277000D02*
D03*
Y300500D02*
D03*
X69000Y382750D02*
D03*
Y359250D02*
D03*
X235000Y112250D02*
D03*
Y135750D02*
D03*
X71000Y259750D02*
D03*
Y236250D02*
D03*
X235000Y359250D02*
D03*
Y382750D02*
D03*
D14*
X186750Y113000D02*
D03*
X93250D02*
D03*
D15*
X199000Y173500D02*
D03*
Y216500D02*
D03*
D16*
X143900Y401000D02*
D03*
X160100D02*
D03*
D17*
X181380Y381750D02*
D03*
Y375250D02*
D03*
Y368750D02*
D03*
Y362250D02*
D03*
X122620D02*
D03*
Y368750D02*
D03*
Y375250D02*
D03*
Y381750D02*
D03*
D18*
X163200Y173000D02*
D03*
X100800D02*
D03*
M02*
