ISO-10303-21;
HEADER;
FILE_DESCRIPTION (( 'STEP AP214' ),
    '1' );
FILE_NAME ('MFW030A.STEP',
    '2023-07-17T14:52:46',
    ( '' ),
    ( '' ),
    'SwSTEP 2.0',
    'SolidWorks 2023',
    '' );
FILE_SCHEMA (( 'AUTOMOTIVE_DESIGN' ));
ENDSEC;

DATA;
#1 = ORIENTED_EDGE ( 'NONE', *, *, #78, .F. ) ;
#2 = ORIENTED_EDGE ( 'NONE', *, *, #22, .F. ) ;
#3 = CARTESIAN_POINT ( 'NONE',  ( 0.000000000000000000, 0.01968503937007873988, 0.000000000000000000 ) ) ;
#4 = EDGE_CURVE ( 'NONE', #149, #160, #139, .T. ) ;
#5 = CARTESIAN_POINT ( 'NONE',  ( 1.687505431895959187E-17, 0.01968503937007873988, -0.1377952755905511861 ) ) ;
#6 = EDGE_LOOP ( 'NONE', ( #196, #81, #2, #1 ) ) ;
#7 = MECHANICAL_DESIGN_GEOMETRIC_PRESENTATION_REPRESENTATION (  '', ( #18 ), #106 ) ;
#8 = AXIS2_PLACEMENT_3D ( 'NONE', #100, #27, #86 ) ;
#9 = DIRECTION ( 'NONE',  ( 0.000000000000000000, 1.000000000000000000, 0.000000000000000000 ) ) ;
#10 = CARTESIAN_POINT ( 'NONE',  ( 7.714310545810099671E-18, 0.01968503937007873988, -0.06299212598425196763 ) ) ;
#11 = DIRECTION ( 'NONE',  ( 0.000000000000000000, 1.000000000000000000, 0.000000000000000000 ) ) ;
#12 = FACE_OUTER_BOUND ( 'NONE', #204, .T. ) ;
#13 = AXIS2_PLACEMENT_3D ( 'NONE', #3, #82, #98 ) ;
#14 = CIRCLE ( 'NONE', #56, 0.06299212598425196763 ) ;
#15 = ORIENTED_EDGE ( 'NONE', *, *, #118, .F. ) ;
#16 = ADVANCED_FACE ( 'NONE', ( #35 ), #48, .F. ) ;
#17 =( LENGTH_UNIT ( ) NAMED_UNIT ( * ) SI_UNIT ( $, .METRE. ) );
#18 = STYLED_ITEM ( 'NONE', ( #59 ), #80 ) ;
#19 = AXIS2_PLACEMENT_3D ( 'NONE', #40, #107, #67 ) ;
#20 = CARTESIAN_POINT ( 'NONE',  ( 0.000000000000000000, 0.01968503937007873988, 0.1377952755905511861 ) ) ;
#21 = EDGE_LOOP ( 'NONE', ( #23, #177 ) ) ;
#22 = EDGE_CURVE ( 'NONE', #191, #61, #126, .T. ) ;
#23 = ORIENTED_EDGE ( 'NONE', *, *, #22, .T. ) ;
#24 = ORIENTED_EDGE ( 'NONE', *, *, #89, .F. ) ;
#25 = LINE ( 'NONE', #5, #51 ) ;
#26 = APPLICATION_CONTEXT ( 'automotive_design' ) ;
#27 = DIRECTION ( 'NONE',  ( -0.000000000000000000, -1.000000000000000000, -0.000000000000000000 ) ) ;
#28 = DIRECTION ( 'NONE',  ( 0.000000000000000000, 1.000000000000000000, 0.000000000000000000 ) ) ;
#29 = PRODUCT_CONTEXT ( 'NONE', #26, 'mechanical' ) ;
#30 = AXIS2_PLACEMENT_3D ( 'NONE', #200, #9, #88 ) ;
#31 = LINE ( 'NONE', #20, #76 ) ;
#32 = ORIENTED_EDGE ( 'NONE', *, *, #104, .T. ) ;
#33 = CARTESIAN_POINT ( 'NONE',  ( 7.714310545810099671E-18, 0.000000000000000000, -0.06299212598425196763 ) ) ;
#34 = ORIENTED_EDGE ( 'NONE', *, *, #127, .F. ) ;
#35 = FACE_OUTER_BOUND ( 'NONE', #94, .T. ) ;
#36 = FACE_OUTER_BOUND ( 'NONE', #83, .T. ) ;
#37 = DIRECTION ( 'NONE',  ( 0.000000000000000000, 1.000000000000000000, 0.000000000000000000 ) ) ;
#38 = CARTESIAN_POINT ( 'NONE',  ( 0.000000000000000000, 0.000000000000000000, 0.06299212598425196763 ) ) ;
#39 = DIRECTION ( 'NONE',  ( 0.000000000000000000, 1.000000000000000000, 0.000000000000000000 ) ) ;
#40 = CARTESIAN_POINT ( 'NONE',  ( 0.000000000000000000, 0.000000000000000000, 0.000000000000000000 ) ) ;
#41 = PRESENTATION_LAYER_ASSIGNMENT (  '', '', ( #18 ) ) ;
#42 = CIRCLE ( 'NONE', #19, 0.1377952755905511861 ) ;
#43 = EDGE_CURVE ( 'NONE', #149, #61, #25, .T. ) ;
#44 = ORIENTED_EDGE ( 'NONE', *, *, #179, .F. ) ;
#45 = DIRECTION ( 'NONE',  ( 0.000000000000000000, -0.000000000000000000, -1.000000000000000000 ) ) ;
#46 = ORIENTED_EDGE ( 'NONE', *, *, #4, .F. ) ;
#47 = AXIS2_PLACEMENT_3D ( 'NONE', #54, #28, #103 ) ;
#48 = CYLINDRICAL_SURFACE ( 'NONE', #13, 0.06299212598425196763 ) ;
#49 = VERTEX_POINT ( 'NONE', #33 ) ;
#50 = DIRECTION ( 'NONE',  ( 0.000000000000000000, 0.000000000000000000, 1.000000000000000000 ) ) ;
#51 = VECTOR ( 'NONE', #159, 39.37007874015748143 ) ;
#52 = ORIENTED_EDGE ( 'NONE', *, *, #188, .T. ) ;
#53 = FACE_OUTER_BOUND ( 'NONE', #21, .T. ) ;
#54 = CARTESIAN_POINT ( 'NONE',  ( 0.000000000000000000, 0.01968503937007873988, 0.000000000000000000 ) ) ;
#55 = ADVANCED_FACE ( 'NONE', ( #62 ), #113, .T. ) ;
#56 = AXIS2_PLACEMENT_3D ( 'NONE', #167, #201, #136 ) ;
#57 = DIRECTION ( 'NONE',  ( 0.000000000000000000, 0.000000000000000000, 1.000000000000000000 ) ) ;
#58 = CYLINDRICAL_SURFACE ( 'NONE', #47, 0.1377952755905511861 ) ;
#59 = PRESENTATION_STYLE_ASSIGNMENT (( #164 ) ) ;
#60 = FACE_BOUND ( 'NONE', #97, .T. ) ;
#61 = VERTEX_POINT ( 'NONE', #114 ) ;
#62 = FACE_OUTER_BOUND ( 'NONE', #6, .T. ) ;
#63 = CARTESIAN_POINT ( 'NONE',  ( 0.000000000000000000, 0.01968503937007873988, 0.000000000000000000 ) ) ;
#64 = DIRECTION ( 'NONE',  ( 0.000000000000000000, 0.000000000000000000, 1.000000000000000000 ) ) ;
#65 = VERTEX_POINT ( 'NONE', #172 ) ;
#66 = ORIENTED_EDGE ( 'NONE', *, *, #78, .T. ) ;
#67 = DIRECTION ( 'NONE',  ( 0.000000000000000000, 0.000000000000000000, 1.000000000000000000 ) ) ;
#68 = DIRECTION ( 'NONE',  ( 0.000000000000000000, 1.000000000000000000, 0.000000000000000000 ) ) ;
#69 = CARTESIAN_POINT ( 'NONE',  ( 0.000000000000000000, 0.000000000000000000, 0.000000000000000000 ) ) ;
#70 = LINE ( 'NONE', #101, #202 ) ;
#71 = DIRECTION ( 'NONE',  ( 0.000000000000000000, 0.000000000000000000, 1.000000000000000000 ) ) ;
#72 = VECTOR ( 'NONE', #68, 39.37007874015748143 ) ;
#73 = EDGE_LOOP ( 'NONE', ( #44, #46 ) ) ;
#74 = FACE_OUTER_BOUND ( 'NONE', #73, .T. ) ;
#75 = APPLICATION_PROTOCOL_DEFINITION ( 'draft international standard', 'automotive_design', 1998, #146 ) ;
#76 = VECTOR ( 'NONE', #79, 39.37007874015748143 ) ;
#77 = AXIS2_PLACEMENT_3D ( 'NONE', #69, #182, #102 ) ;
#78 = EDGE_CURVE ( 'NONE', #160, #191, #31, .T. ) ;
#79 = DIRECTION ( 'NONE',  ( 0.000000000000000000, 1.000000000000000000, 0.000000000000000000 ) ) ;
#80 = MANIFOLD_SOLID_BREP ( '1074779', #185 ) ;
#81 = ORIENTED_EDGE ( 'NONE', *, *, #43, .T. ) ;
#82 = DIRECTION ( 'NONE',  ( 0.000000000000000000, 1.000000000000000000, 0.000000000000000000 ) ) ;
#83 = EDGE_LOOP ( 'NONE', ( #34, #52, #93, #15 ) ) ;
#84 = PRODUCT ( 'MFW030A', 'MFW030A', '', ( #29 ) ) ;
#85 = AXIS2_PLACEMENT_3D ( 'NONE', #150, #120, #119 ) ;
#86 = DIRECTION ( 'NONE',  ( 0.000000000000000000, 0.000000000000000000, 1.000000000000000000 ) ) ;
#87 = PRODUCT_DEFINITION ( 'UNKNOWN', '', #96, #152 ) ;
#88 = DIRECTION ( 'NONE',  ( 0.000000000000000000, 0.000000000000000000, 1.000000000000000000 ) ) ;
#89 = EDGE_CURVE ( 'NONE', #61, #191, #195, .T. ) ;
#90 =( LENGTH_UNIT ( ) NAMED_UNIT ( * ) SI_UNIT ( $, .METRE. ) );
#91 =( NAMED_UNIT ( * ) PLANE_ANGLE_UNIT ( ) SI_UNIT ( $, .RADIAN. ) );
#92 = CIRCLE ( 'NONE', #8, 0.06299212598425196763 ) ;
#93 = ORIENTED_EDGE ( 'NONE', *, *, #124, .F. ) ;
#94 = EDGE_LOOP ( 'NONE', ( #132, #128, #131, #173 ) ) ;
#95 = VERTEX_POINT ( 'NONE', #38 ) ;
#96 = PRODUCT_DEFINITION_FORMATION_WITH_SPECIFIED_SOURCE ( 'ANY', '', #84, .NOT_KNOWN. ) ;
#97 = EDGE_LOOP ( 'NONE', ( #32, #130 ) ) ;
#98 = DIRECTION ( 'NONE',  ( 0.000000000000000000, 0.000000000000000000, 1.000000000000000000 ) ) ;
#99 = ADVANCED_FACE ( 'NONE', ( #137, #53 ), #163, .T. ) ;
#100 = CARTESIAN_POINT ( 'NONE',  ( 0.000000000000000000, 0.01968503937007873988, 0.000000000000000000 ) ) ;
#101 = CARTESIAN_POINT ( 'NONE',  ( 0.000000000000000000, 0.01968503937007873988, 0.06299212598425196763 ) ) ;
#102 = DIRECTION ( 'NONE',  ( 0.000000000000000000, 0.000000000000000000, 1.000000000000000000 ) ) ;
#103 = DIRECTION ( 'NONE',  ( 0.000000000000000000, 0.000000000000000000, 1.000000000000000000 ) ) ;
#104 = EDGE_CURVE ( 'NONE', #95, #49, #171, .T. ) ;
#105 = COLOUR_RGB ( '',0.6470588235294117974, 0.6196078431372549211, 0.5882352941176470784 ) ;
#106 =( GEOMETRIC_REPRESENTATION_CONTEXT ( 3 ) GLOBAL_UNCERTAINTY_ASSIGNED_CONTEXT ( ( #165 ) ) GLOBAL_UNIT_ASSIGNED_CONTEXT ( ( #168, #155, #180 ) ) REPRESENTATION_CONTEXT ( 'NONE', 'WORKASPACE' ) );
#107 = DIRECTION ( 'NONE',  ( 0.000000000000000000, 1.000000000000000000, 0.000000000000000000 ) ) ;
#108 =( CONVERSION_BASED_UNIT ( 'INCH', #203 ) LENGTH_UNIT ( ) NAMED_UNIT ( #142 ) );
#109 =( NAMED_UNIT ( * ) SI_UNIT ( $, .STERADIAN. ) SOLID_ANGLE_UNIT ( ) );
#110 = AXIS2_PLACEMENT_3D ( 'NONE', #189, #170, #45 ) ;
#111 = AXIS2_PLACEMENT_3D ( 'NONE', #178, #37, #57 ) ;
#112 = PLANE ( 'NONE',  #110 ) ;
#113 = CYLINDRICAL_SURFACE ( 'NONE', #194, 0.1377952755905511861 ) ;
#114 = CARTESIAN_POINT ( 'NONE',  ( 1.687505431895959187E-17, 0.01968503937007873988, -0.1377952755905511861 ) ) ;
#115 = FILL_AREA_STYLE_COLOUR ( '', #105 ) ;
#116 = CARTESIAN_POINT ( 'NONE',  ( 0.000000000000000000, 0.01968503937007873988, 0.000000000000000000 ) ) ;
#117 = EDGE_LOOP ( 'NONE', ( #148, #176 ) ) ;
#118 = EDGE_CURVE ( 'NONE', #95, #65, #70, .T. ) ;
#119 = DIRECTION ( 'NONE',  ( 0.000000000000000000, -0.000000000000000000, 1.000000000000000000 ) ) ;
#120 = DIRECTION ( 'NONE',  ( -0.000000000000000000, 1.000000000000000000, 0.000000000000000000 ) ) ;
#121 = SURFACE_STYLE_FILL_AREA ( #174 ) ;
#122 = PRODUCT_RELATED_PRODUCT_CATEGORY ( 'part', '', ( #84 ) ) ;
#123 = CARTESIAN_POINT ( 'NONE',  ( 0.000000000000000000, 0.000000000000000000, 0.1377952755905511861 ) ) ;
#124 = EDGE_CURVE ( 'NONE', #65, #192, #14, .T. ) ;
#125 = SHAPE_DEFINITION_REPRESENTATION ( #197, #175 ) ;
#126 = CIRCLE ( 'NONE', #143, 0.1377952755905511861 ) ;
#127 = EDGE_CURVE ( 'NONE', #49, #95, #156, .T. ) ;
#128 = ORIENTED_EDGE ( 'NONE', *, *, #104, .F. ) ;
#129 = AXIS2_PLACEMENT_3D ( 'NONE', #63, #39, #71 ) ;
#130 = ORIENTED_EDGE ( 'NONE', *, *, #127, .T. ) ;
#131 = ORIENTED_EDGE ( 'NONE', *, *, #118, .T. ) ;
#132 = ORIENTED_EDGE ( 'NONE', *, *, #188, .F. ) ;
#133 =( GEOMETRIC_REPRESENTATION_CONTEXT ( 3 ) GLOBAL_UNCERTAINTY_ASSIGNED_CONTEXT ( ( #199 ) ) GLOBAL_UNIT_ASSIGNED_CONTEXT ( ( #108, #91, #109 ) ) REPRESENTATION_CONTEXT ( 'NONE', 'WORKASPACE' ) );
#134 = LENGTH_MEASURE_WITH_UNIT ( LENGTH_MEASURE( 0.02539999999999999897 ), #90 );
#135 = CARTESIAN_POINT ( 'NONE',  ( 0.000000000000000000, 0.01968503937007873988, 0.1377952755905511861 ) ) ;
#136 = DIRECTION ( 'NONE',  ( 0.000000000000000000, 0.000000000000000000, 1.000000000000000000 ) ) ;
#137 = FACE_BOUND ( 'NONE', #117, .T. ) ;
#138 = ADVANCED_FACE ( 'NONE', ( #36 ), #166, .F. ) ;
#139 = CIRCLE ( 'NONE', #181, 0.1377952755905511861 ) ;
#140 = DIRECTION ( 'NONE',  ( 0.000000000000000000, 0.000000000000000000, 1.000000000000000000 ) ) ;
#141 = CARTESIAN_POINT ( 'NONE',  ( 0.000000000000000000, 0.000000000000000000, 0.000000000000000000 ) ) ;
#142 = DIMENSIONAL_EXPONENTS ( 1.000000000000000000, 0.000000000000000000, 0.000000000000000000, 0.000000000000000000, 0.000000000000000000, 0.000000000000000000, 0.000000000000000000 ) ;
#143 = AXIS2_PLACEMENT_3D ( 'NONE', #193, #162, #50 ) ;
#144 = DIRECTION ( 'NONE',  ( 0.000000000000000000, 0.000000000000000000, 1.000000000000000000 ) ) ;
#145 = DIRECTION ( 'NONE',  ( 0.000000000000000000, 1.000000000000000000, 0.000000000000000000 ) ) ;
#146 = APPLICATION_CONTEXT ( 'automotive_design' ) ;
#147 = CARTESIAN_POINT ( 'NONE',  ( 0.000000000000000000, 0.000000000000000000, 0.000000000000000000 ) ) ;
#148 = ORIENTED_EDGE ( 'NONE', *, *, #124, .T. ) ;
#149 = VERTEX_POINT ( 'NONE', #153 ) ;
#150 = CARTESIAN_POINT ( 'NONE',  ( -0.06299212598425196763, 0.01968503937007873988, 0.000000000000000000 ) ) ;
#151 = LINE ( 'NONE', #10, #72 ) ;
#152 = PRODUCT_DEFINITION_CONTEXT ( 'detailed design', #146, 'design' ) ;
#153 = CARTESIAN_POINT ( 'NONE',  ( 1.687505431895959187E-17, 0.000000000000000000, -0.1377952755905511861 ) ) ;
#154 = AXIS2_PLACEMENT_3D ( 'NONE', #141, #140, #186 ) ;
#155 =( NAMED_UNIT ( * ) PLANE_ANGLE_UNIT ( ) SI_UNIT ( $, .RADIAN. ) );
#156 = CIRCLE ( 'NONE', #77, 0.06299212598425196763 ) ;
#157 = DIRECTION ( 'NONE',  ( 0.000000000000000000, 1.000000000000000000, 0.000000000000000000 ) ) ;
#158 = ADVANCED_FACE ( 'NONE', ( #12 ), #58, .T. ) ;
#159 = DIRECTION ( 'NONE',  ( 0.000000000000000000, 1.000000000000000000, 0.000000000000000000 ) ) ;
#160 = VERTEX_POINT ( 'NONE', #123 ) ;
#161 = ORIENTED_EDGE ( 'NONE', *, *, #43, .F. ) ;
#162 = DIRECTION ( 'NONE',  ( 0.000000000000000000, 1.000000000000000000, 0.000000000000000000 ) ) ;
#163 = PLANE ( 'NONE',  #85 ) ;
#164 = SURFACE_STYLE_USAGE ( .BOTH. , #184 ) ;
#165 = UNCERTAINTY_MEASURE_WITH_UNIT (LENGTH_MEASURE( 1.000000000000000082E-05 ), #168, 'distance_accuracy_value', 'NONE');
#166 = CYLINDRICAL_SURFACE ( 'NONE', #30, 0.06299212598425196763 ) ;
#167 = CARTESIAN_POINT ( 'NONE',  ( 0.000000000000000000, 0.01968503937007873988, 0.000000000000000000 ) ) ;
#168 =( CONVERSION_BASED_UNIT ( 'INCH', #134 ) LENGTH_UNIT ( ) NAMED_UNIT ( #169 ) );
#169 = DIMENSIONAL_EXPONENTS ( 1.000000000000000000, 0.000000000000000000, 0.000000000000000000, 0.000000000000000000, 0.000000000000000000, 0.000000000000000000, 0.000000000000000000 ) ;
#170 = DIRECTION ( 'NONE',  ( 0.000000000000000000, -1.000000000000000000, 0.000000000000000000 ) ) ;
#171 = CIRCLE ( 'NONE', #111, 0.06299212598425196763 ) ;
#172 = CARTESIAN_POINT ( 'NONE',  ( 0.000000000000000000, 0.01968503937007873988, 0.06299212598425196763 ) ) ;
#173 = ORIENTED_EDGE ( 'NONE', *, *, #183, .F. ) ;
#174 = FILL_AREA_STYLE ('',( #115 ) ) ;
#175 = ADVANCED_BREP_SHAPE_REPRESENTATION ( 'MFW030A', ( #80, #154 ), #133 ) ;
#176 = ORIENTED_EDGE ( 'NONE', *, *, #183, .T. ) ;
#177 = ORIENTED_EDGE ( 'NONE', *, *, #89, .T. ) ;
#178 = CARTESIAN_POINT ( 'NONE',  ( 0.000000000000000000, 0.000000000000000000, 0.000000000000000000 ) ) ;
#179 = EDGE_CURVE ( 'NONE', #160, #149, #42, .T. ) ;
#180 =( NAMED_UNIT ( * ) SI_UNIT ( $, .STERADIAN. ) SOLID_ANGLE_UNIT ( ) );
#181 = AXIS2_PLACEMENT_3D ( 'NONE', #147, #157, #144 ) ;
#182 = DIRECTION ( 'NONE',  ( 0.000000000000000000, 1.000000000000000000, 0.000000000000000000 ) ) ;
#183 = EDGE_CURVE ( 'NONE', #192, #65, #92, .T. ) ;
#184 = SURFACE_SIDE_STYLE ('',( #121 ) ) ;
#185 = CLOSED_SHELL ( 'NONE', ( #138, #55, #99, #16, #158, #205 ) ) ;
#186 = DIRECTION ( 'NONE',  ( 1.000000000000000000, 0.000000000000000000, 0.000000000000000000 ) ) ;
#187 = APPLICATION_PROTOCOL_DEFINITION ( 'draft international standard', 'automotive_design', 1998, #26 ) ;
#188 = EDGE_CURVE ( 'NONE', #49, #192, #151, .T. ) ;
#189 = CARTESIAN_POINT ( 'NONE',  ( -0.1377952755905511861, 0.000000000000000000, 0.000000000000000000 ) ) ;
#190 = ORIENTED_EDGE ( 'NONE', *, *, #4, .T. ) ;
#191 = VERTEX_POINT ( 'NONE', #135 ) ;
#192 = VERTEX_POINT ( 'NONE', #198 ) ;
#193 = CARTESIAN_POINT ( 'NONE',  ( 0.000000000000000000, 0.01968503937007873988, 0.000000000000000000 ) ) ;
#194 = AXIS2_PLACEMENT_3D ( 'NONE', #116, #145, #64 ) ;
#195 = CIRCLE ( 'NONE', #129, 0.1377952755905511861 ) ;
#196 = ORIENTED_EDGE ( 'NONE', *, *, #179, .T. ) ;
#197 = PRODUCT_DEFINITION_SHAPE ( 'NONE', 'NONE',  #87 ) ;
#198 = CARTESIAN_POINT ( 'NONE',  ( 7.714310545810099671E-18, 0.01968503937007873988, -0.06299212598425196763 ) ) ;
#199 = UNCERTAINTY_MEASURE_WITH_UNIT (LENGTH_MEASURE( 1.000000000000000082E-05 ), #108, 'distance_accuracy_value', 'NONE');
#200 = CARTESIAN_POINT ( 'NONE',  ( 0.000000000000000000, 0.01968503937007873988, 0.000000000000000000 ) ) ;
#201 = DIRECTION ( 'NONE',  ( -0.000000000000000000, -1.000000000000000000, -0.000000000000000000 ) ) ;
#202 = VECTOR ( 'NONE', #11, 39.37007874015748143 ) ;
#203 = LENGTH_MEASURE_WITH_UNIT ( LENGTH_MEASURE( 0.02539999999999999897 ), #17 );
#204 = EDGE_LOOP ( 'NONE', ( #161, #190, #66, #24 ) ) ;
#205 = ADVANCED_FACE ( 'NONE', ( #60, #74 ), #112, .T. ) ;
ENDSEC;
END-ISO-10303-21;
