*
*
G04 PADS VX.2 Build Number: 5060570 generated Gerber (RS-274-X) file*
G04 PC Version=2.1*
*
%IN "Control_Rim_Board.pcb"*%
*
%MOIN*%
*
%FSLAX35Y35*%
*
*
*
*
G04 PC Standard Apertures*
*
*
G04 Thermal Relief Aperture macro.*
%AMTER*
1,1,$1,0,0*
1,0,$1-$2,0,0*
21,0,$3,$4,0,0,45*
21,0,$3,$4,0,0,135*
%
*
*
G04 Annular Aperture macro.*
%AMANN*
1,1,$1,0,0*
1,0,$2,0,0*
%
*
*
G04 Odd Aperture macro.*
%AMODD*
1,1,$1,0,0*
1,0,$1-0.005,0,0*
%
*
*
G04 PC Custom Aperture Macros*
*
*
*
*
*
*
G04 PC Aperture Table*
*
%ADD021C,0.02*%
%ADD024C,0.00787*%
%ADD079C,0.004*%
%ADD080C,0.01181*%
*
*
*
*
G04 PC Circuitry*
G04 Layer Name Control_Rim_Board.pcb - circuitry*
%LPD*%
*
*
G04 PC Custom Flashes*
G04 Layer Name Control_Rim_Board.pcb - flashes*
%LPD*%
*
*
G04 PC Circuitry*
G04 Layer Name Control_Rim_Board.pcb - circuitry*
%LPD*%
*
G54D21*
G01X1500000Y200000D02*
Y1100000D01*
X200000*
Y200000*
X1500000*
G54D24*
X511161Y889724D02*
X493839D01*
Y880276*
X511161*
Y889724*
X404724Y1026339D02*
Y1043661D01*
X395276*
Y1026339*
X404724*
X572589Y967776D02*
X589911D01*
Y977224*
X572589*
Y967776*
X510000Y1081969D02*
X410000D01*
Y1061969*
X510000*
Y1081969*
X500000D02*
Y1127953D01*
X480000Y1081969D02*
Y1127953D01*
X460000Y1081969D02*
Y1127953D01*
X440000Y1081969D02*
Y1127953D01*
X420000Y1081969D02*
Y1127953D01*
X506299Y1056299D02*
Y1043701D01*
X493701*
Y1056299*
X506299*
Y1030000D02*
G75*
G03X506299I-6299J0D01*
G01X486299Y1050000D02*
G03X486299I-6299J0D01*
G01Y1030000D02*
G03X486299I-6299J0D01*
G01X466299Y1050000D02*
G03X466299I-6299J0D01*
G01Y1030000D02*
G03X466299I-6299J0D01*
G01X446299Y1050000D02*
G03X446299I-6299J0D01*
G01Y1030000D02*
G03X446299I-6299J0D01*
G01X426299Y1050000D02*
G03X426299I-6299J0D01*
G01Y1030000D02*
G03X426299I-6299J0D01*
G01X390000Y1081969D02*
X290000D01*
Y1061969*
X390000*
Y1081969*
X380000D02*
Y1127953D01*
X360000Y1081969D02*
Y1127953D01*
X340000Y1081969D02*
Y1127953D01*
X320000Y1081969D02*
Y1127953D01*
X300000Y1081969D02*
Y1127953D01*
X386299Y1056299D02*
Y1043701D01*
X373701*
Y1056299*
X386299*
Y1030000D02*
G03X386299I-6299J0D01*
G01X366299Y1050000D02*
G03X366299I-6299J0D01*
G01Y1030000D02*
G03X366299I-6299J0D01*
G01X346299Y1050000D02*
G03X346299I-6299J0D01*
G01Y1030000D02*
G03X346299I-6299J0D01*
G01X326299Y1050000D02*
G03X326299I-6299J0D01*
G01Y1030000D02*
G03X326299I-6299J0D01*
G01X306299Y1050000D02*
G03X306299I-6299J0D01*
G01Y1030000D02*
G03X306299I-6299J0D01*
G01X320000Y891969D02*
X220000D01*
Y871969*
X320000*
Y891969*
X310000D02*
Y937953D01*
X290000Y891969D02*
Y937953D01*
X270000Y891969D02*
Y937953D01*
X250000Y891969D02*
Y937953D01*
X230000Y891969D02*
Y937953D01*
X316299Y866299D02*
Y853701D01*
X303701*
Y866299*
X316299*
X296299Y860000D02*
G03X296299I-6299J0D01*
G01X276299D02*
G03X276299I-6299J0D01*
G01X256299D02*
G03X256299I-6299J0D01*
G01X236299D02*
G03X236299I-6299J0D01*
G01X980000Y775000D02*
Y655000D01*
X1000000*
Y775000*
X980000*
X983701Y771299D02*
X996299D01*
Y758701*
X983701*
Y771299*
X996299Y745000D02*
G03X996299I-6299J0D01*
G01Y725000D02*
G03X996299I-6299J0D01*
G01Y705000D02*
G03X996299I-6299J0D01*
G01Y685000D02*
G03X996299I-6299J0D01*
G01Y665000D02*
G03X996299I-6299J0D01*
G01X509724Y941339D02*
Y958661D01*
X500276*
Y941339*
X509724*
X497224D02*
Y958661D01*
X487776*
Y941339*
X497224*
X509724Y901339D02*
Y918661D01*
X500276*
Y901339*
X509724*
X497224D02*
Y918661D01*
X487776*
Y901339*
X497224*
X479724Y921339D02*
Y938661D01*
X470276*
Y921339*
X479724*
X467224D02*
Y938661D01*
X457776*
Y921339*
X467224*
X543917Y951142D02*
G03X543917I-3937J0D01*
G01X532106Y880984D02*
X562894D01*
Y959016*
X532106*
Y880984*
X417224Y756339D02*
Y773661D01*
X407776*
Y756339*
X417224*
X404724D02*
Y773661D01*
X395276*
Y756339*
X404724*
X442224D02*
Y773661D01*
X432776*
Y756339*
X442224*
X429724D02*
Y773661D01*
X420276*
Y756339*
X429724*
X402776Y613661D02*
Y596339D01*
X412224*
Y613661*
X402776*
X417776D02*
Y596339D01*
X427224*
Y613661*
X417776*
X600276Y923661D02*
Y906339D01*
X609724*
Y923661*
X600276*
X498581Y885037D02*
X498402Y885529D01*
X498044Y886021*
X497686Y886267*
X496970*
X496612Y886021*
X496254Y885529*
X496076Y885037*
X495897Y884299*
Y883068*
X496076Y882330*
X496254Y881838*
X496612Y881346*
X496970Y881100*
X497686*
X498044Y881346*
X498402Y881838*
X498581Y882330*
X500370Y885037D02*
Y885283D01*
X500549Y885775*
X500728Y886021*
X501086Y886267*
X501802*
X502160Y886021*
X502339Y885775*
X502518Y885283*
Y884791*
X502339Y884299*
X501981Y883561*
X500191Y881100*
X502697*
X506813Y886267D02*
X505023Y881100D01*
X504307Y886267D02*
X506813D01*
X398314Y1031868D02*
X397822Y1031689D01*
X397330Y1031331*
X397084Y1030974*
Y1030258*
X397330Y1029900*
X397822Y1029542*
X398314Y1029363*
X399053Y1029184*
X400283*
X401021Y1029363*
X401513Y1029542*
X402005Y1029900*
X402251Y1030258*
Y1030974*
X402005Y1031331*
X401513Y1031689*
X401021Y1031868*
X398314Y1033658D02*
X398068D01*
X397576Y1033837*
X397330Y1034016*
X397084Y1034374*
Y1035089*
X397330Y1035447*
X397576Y1035626*
X398068Y1035805*
X398561*
X399053Y1035626*
X399791Y1035268*
X402251Y1033479*
Y1035984*
X397084Y1038490D02*
X397330Y1037953D01*
X397822Y1037774*
X398314*
X398807Y1037953*
X399053Y1038311*
X399299Y1039026*
X399545Y1039563*
X400037Y1039921*
X400529Y1040100*
X401267*
X401759Y1039921*
X402005Y1039742*
X402251Y1039205*
Y1038490*
X402005Y1037953*
X401759Y1037774*
X401267Y1037595*
X400529*
X400037Y1037774*
X399545Y1038132*
X399299Y1038669*
X399053Y1039384*
X398807Y1039742*
X398314Y1039921*
X397822*
X397330Y1039742*
X397084Y1039205*
Y1038490*
X580176Y974186D02*
X579997Y974678D01*
X579639Y975170*
X579281Y975416*
X578566*
X578208Y975170*
X577850Y974678*
X577671Y974186*
X577492Y973447*
Y972217*
X577671Y971479*
X577850Y970987*
X578208Y970495*
X578566Y970249*
X579281*
X579639Y970495*
X579997Y970987*
X580176Y971479*
X582682Y975416D02*
X582145Y975170D01*
X581966Y974678*
Y974186*
X582145Y973693*
X582503Y973447*
X583219Y973201*
X583755Y972955*
X584113Y972463*
X584292Y971971*
Y971233*
X584113Y970741*
X583934Y970495*
X583397Y970249*
X582682*
X582145Y970495*
X581966Y970741*
X581787Y971233*
Y971971*
X581966Y972463*
X582324Y972955*
X582861Y973201*
X583576Y973447*
X583934Y973693*
X584113Y974186*
Y974678*
X583934Y975170*
X583397Y975416*
X582682*
X502084Y945079D02*
X507251D01*
X502084D02*
Y946689D01*
X502330Y947226*
X502576Y947405*
X503068Y947584*
X503561*
X504053Y947405*
X504299Y947226*
X504545Y946689*
Y945079*
Y946331D02*
X507251Y947584D01*
X503068Y949195D02*
X502822Y949553D01*
X502084Y950089*
X507251*
X502084Y952058D02*
Y954026D01*
X504053Y952953*
Y953490*
X504299Y953848*
X504545Y954026*
X505283Y954205*
X505775*
X506513Y954026*
X507005Y953669*
X507251Y953132*
Y952595*
X507005Y952058*
X506759Y951879*
X506267Y951700*
X489584Y944989D02*
X494751D01*
X489584D02*
Y946600D01*
X489830Y947137*
X490076Y947316*
X490568Y947495*
X491061*
X491553Y947316*
X491799Y947137*
X492045Y946600*
Y944989*
Y946242D02*
X494751Y947495D01*
X490568Y949105D02*
X490322Y949463D01*
X489584Y950000*
X494751*
X489584Y953400D02*
X493029Y951611D01*
Y954295*
X489584Y953400D02*
X494751D01*
X502084Y904989D02*
X507251D01*
X502084D02*
Y906600D01*
X502330Y907137*
X502576Y907316*
X503068Y907495*
X503561*
X504053Y907316*
X504299Y907137*
X504545Y906600*
Y904989*
Y906242D02*
X507251Y907495D01*
X503068Y909105D02*
X502822Y909463D01*
X502084Y910000*
X507251*
X502084Y913937D02*
Y912147D01*
X504299Y911969*
X504053Y912147*
X503807Y912684*
Y913221*
X504053Y913758*
X504545Y914116*
X505283Y914295*
X505775Y914116*
X506513Y913937*
X507005Y913579*
X507251Y913042*
Y912505*
X507005Y911969*
X506759Y911790*
X506267Y911611*
X489584Y905168D02*
X494751D01*
X489584D02*
Y906779D01*
X489830Y907316*
X490076Y907495*
X490568Y907674*
X491061*
X491553Y907495*
X491799Y907316*
X492045Y906779*
Y905168*
Y906421D02*
X494751Y907674D01*
X490568Y909284D02*
X490322Y909642D01*
X489584Y910179*
X494751*
X490322Y913937D02*
X489830Y913758D01*
X489584Y913221*
Y912863*
X489830Y912326*
X490568Y911969*
X491799Y911790*
X493029*
X494013Y911969*
X494505Y912326*
X494751Y912863*
Y913042*
X494505Y913579*
X494013Y913937*
X493275Y914116*
X493029*
X492291Y913937*
X491799Y913579*
X491553Y913042*
Y912863*
X491799Y912326*
X492291Y911969*
X493029Y911790*
X472084Y925079D02*
X477251D01*
X472084D02*
Y926689D01*
X472330Y927226*
X472576Y927405*
X473068Y927584*
X473561*
X474053Y927405*
X474299Y927226*
X474545Y926689*
Y925079*
Y926331D02*
X477251Y927584D01*
X473068Y929195D02*
X472822Y929553D01*
X472084Y930089*
X477251*
X472084Y934205D02*
X477251Y932416D01*
X472084Y931700D02*
Y934205D01*
X459584Y925079D02*
X464751D01*
X459584D02*
Y926689D01*
X459830Y927226*
X460076Y927405*
X460568Y927584*
X461061*
X461553Y927405*
X461799Y927226*
X462045Y926689*
Y925079*
Y926331D02*
X464751Y927584D01*
X460568Y929195D02*
X460322Y929553D01*
X459584Y930089*
X464751*
X459584Y932595D02*
X459830Y932058D01*
X460322Y931879*
X460814*
X461307Y932058*
X461553Y932416*
X461799Y933132*
X462045Y933669*
X462537Y934026*
X463029Y934205*
X463767*
X464259Y934026*
X464505Y933848*
X464751Y933311*
Y932595*
X464505Y932058*
X464259Y931879*
X463767Y931700*
X463029*
X462537Y931879*
X462045Y932237*
X461799Y932774*
X461553Y933490*
X461307Y933848*
X460814Y934026*
X460322*
X459830Y933848*
X459584Y933311*
Y932595*
X409584Y759184D02*
X414751D01*
X409584D02*
Y760795D01*
X409830Y761331*
X410076Y761510*
X410568Y761689*
X411061*
X411553Y761510*
X411799Y761331*
X412045Y760795*
Y759184*
Y760437D02*
X414751Y761689D01*
X409584Y765089D02*
X413029Y763300D01*
Y765984*
X409584Y765089D02*
X414751D01*
X409584Y767953D02*
Y769921D01*
X411553Y768848*
Y769384*
X411799Y769742*
X412045Y769921*
X412783Y770100*
X413275*
X414013Y769921*
X414505Y769563*
X414751Y769026*
Y768490*
X414505Y767953*
X414259Y767774*
X413767Y767595*
X397084Y759273D02*
X402251D01*
X397084D02*
Y760884D01*
X397330Y761421*
X397576Y761600*
X398068Y761779*
X398561*
X399053Y761600*
X399299Y761421*
X399545Y760884*
Y759273*
Y760526D02*
X402251Y761779D01*
X397084Y765179D02*
X400529Y763389D01*
Y766074*
X397084Y765179D02*
X402251D01*
X397822Y769832D02*
X397330Y769653D01*
X397084Y769116*
Y768758*
X397330Y768221*
X398068Y767863*
X399299Y767684*
X400529*
X401513Y767863*
X402005Y768221*
X402251Y768758*
Y768937*
X402005Y769474*
X401513Y769832*
X400775Y770011*
X400529*
X399791Y769832*
X399299Y769474*
X399053Y768937*
Y768758*
X399299Y768221*
X399791Y767863*
X400529Y767684*
X434584Y759273D02*
X439751D01*
X434584D02*
Y760884D01*
X434830Y761421*
X435076Y761600*
X435568Y761779*
X436061*
X436553Y761600*
X436799Y761421*
X437045Y760884*
Y759273*
Y760526D02*
X439751Y761779D01*
X434584Y765179D02*
X438029Y763389D01*
Y766074*
X434584Y765179D02*
X439751D01*
X436307Y770011D02*
X437045Y769832D01*
X437537Y769474*
X437783Y768937*
Y768758*
X437537Y768221*
X437045Y767863*
X436307Y767684*
X436061*
X435322Y767863*
X434830Y768221*
X434584Y768758*
Y768937*
X434830Y769474*
X435322Y769832*
X436307Y770011*
X437537*
X438767Y769832*
X439505Y769474*
X439751Y768937*
Y768579*
X439505Y768042*
X439013Y767863*
X422084Y759184D02*
X427251D01*
X422084D02*
Y760795D01*
X422330Y761331*
X422576Y761510*
X423068Y761689*
X423561*
X424053Y761510*
X424299Y761331*
X424545Y760795*
Y759184*
Y760437D02*
X427251Y761689D01*
X422084Y765626D02*
Y763837D01*
X424299Y763658*
X424053Y763837*
X423807Y764374*
Y764911*
X424053Y765447*
X424545Y765805*
X425283Y765984*
X425775Y765805*
X426513Y765626*
X427005Y765268*
X427251Y764732*
Y764195*
X427005Y763658*
X426759Y763479*
X426267Y763300*
X423314Y767774D02*
X423068D01*
X422576Y767953*
X422330Y768132*
X422084Y768490*
Y769205*
X422330Y769563*
X422576Y769742*
X423068Y769921*
X423561*
X424053Y769742*
X424791Y769384*
X427251Y767595*
Y770100*
X406233Y598307D02*
X411400D01*
X406233D02*
Y599918D01*
X406479Y600455*
X406725Y600634*
X406725D02*
X407217Y600812D01*
X407709*
X408201Y600634*
X408201D02*
X408447Y600455D01*
X408693Y599918*
Y598307*
Y599560D02*
X411400Y600812D01*
X406233Y604749D02*
Y602960D01*
X408447Y602781*
X408201Y602960*
X407955Y603497*
Y604034*
X408201Y604571*
X408693Y604928*
X409432Y605107*
X409924Y604928*
X410662Y604749*
X411154Y604392*
X411400Y603855*
Y603318*
X411154Y602781*
X410908Y602602*
X410416Y602423*
X406233Y609044D02*
Y607255D01*
X408447Y607076*
X408201Y607255*
X407955Y607792*
Y608329*
X408201Y608865*
X408693Y609223*
X409432Y609402*
X409924Y609223*
X410662Y609044*
X411154Y608686*
X411400Y608150*
Y607613*
X411154Y607076*
X410908Y606897*
X410416Y606718*
X421233Y598397D02*
X426400D01*
X421233D02*
Y600007D01*
X421479Y600544*
X421725Y600723*
X422217Y600902*
X422709*
X423201Y600723*
X423447Y600544*
X423693Y600007*
Y598397*
Y599649D02*
X426400Y600902D01*
X421233Y604839D02*
Y603049D01*
X423447Y602870*
X423201Y603049*
X422955Y603586*
Y604123*
X423201Y604660*
X423693Y605018*
X424432Y605197*
X424924Y605018*
X425662Y604839*
X426154Y604481*
X426400Y603944*
Y603407*
X426154Y602870*
X425908Y602691*
X425416Y602513*
X421233Y607702D02*
X421479Y607165D01*
X421971Y606986*
X422463*
X422955Y607165*
X423201Y607523*
X423447Y608239*
X423693Y608776*
X424186Y609134*
X424678Y609313*
X425416*
X425908Y609134*
X426154Y608955*
X426400Y608418*
Y607702*
X426154Y607165*
X425908Y606986*
X425416Y606807*
X424678*
X424186Y606986*
X423693Y607344*
X423447Y607881*
X423201Y608597*
X422955Y608955*
X422463Y609134*
X421971*
X421479Y608955*
X421233Y608418*
Y607702*
X603733Y908486D02*
X608900D01*
X603733D02*
Y910097D01*
X603979Y910634*
X603979D02*
X604225Y910812D01*
X604717Y910991*
X605209*
X605701Y910812*
X605947Y910634*
X605947D02*
X606193Y910097D01*
Y908486*
Y909739D02*
X608900Y910991D01*
X603733Y913497D02*
X603979Y912960D01*
X604471Y912781*
X604963*
X605455Y912960*
X605701Y913318*
X605947Y914034*
X606193Y914571*
X606686Y914928*
X607178Y915107*
X607916*
X608408Y914928*
X608654Y914749*
X608900Y914213*
Y913497*
X608654Y912960*
X608408Y912781*
X607916Y912602*
X607178*
X606686Y912781*
X606193Y913139*
X605947Y913676*
X605701Y914392*
X605455Y914749*
X604963Y914928*
X604471*
X603979Y914749*
X603733Y914213*
Y913497*
Y917076D02*
Y919044D01*
X605701Y917971*
Y918508*
X605947Y918865*
X606193Y919044*
X606932Y919223*
X607424*
X608162Y919044*
X608654Y918686*
X608900Y918150*
Y917613*
X608654Y917076*
X608408Y916897*
X607916Y916718*
G54D79*
G54D80*
X496647Y875042D02*
X496379Y875780D01*
X495842Y876518*
X495305Y876887*
X494231*
X493695Y876518*
X493158Y875780*
X492889Y875042*
X492621Y873935*
Y872089*
X492889Y870982*
X493158Y870244*
X493695Y869505*
X494231Y869136*
X495305*
X495842Y869505*
X496379Y870244*
X496647Y870982*
X499332Y875042D02*
Y875411D01*
X499600Y876149*
X499868Y876518*
X500405Y876887*
X501479*
X502016Y876518*
X502284Y876149*
X502553Y875411*
Y874673*
X502284Y873935*
X501747Y872827*
X499063Y869136*
X502821*
X508995Y876887D02*
X506311Y869136D01*
X505237Y876887D02*
X508995D01*
X398708Y1062776D02*
X397970Y1062508D01*
X397232Y1061971*
X396863Y1061434*
Y1060361*
X397232Y1059824*
X397970Y1059287*
X398708Y1059018*
X399815Y1058750*
X401661*
X402768Y1059018*
X403506Y1059287*
X404245Y1059824*
X404614Y1060361*
Y1061434*
X404245Y1061971*
X403506Y1062508*
X402768Y1062776*
X398708Y1065461D02*
X398339D01*
X397601Y1065729*
X397232Y1065998*
X396863Y1066535*
Y1067608*
X397232Y1068145*
X397601Y1068414*
X398339Y1068682*
X399077*
X399815Y1068414*
X400923Y1067877*
X404614Y1065192*
Y1068950*
X396863Y1072708D02*
X397232Y1071903D01*
X397970Y1071635*
X398708*
X399446Y1071903*
X399815Y1072440*
X400185Y1073514*
X400554Y1074319*
X401292Y1074856*
X402030Y1075124*
X403137*
X403875Y1074856*
X404245Y1074588*
X404614Y1073782*
Y1072708*
X404245Y1071903*
X403875Y1071635*
X403137Y1071366*
X402030*
X401292Y1071635*
X400554Y1072172*
X400185Y1072977*
X399815Y1074051*
X399446Y1074588*
X398708Y1074856*
X397970*
X397232Y1074588*
X396863Y1073782*
Y1072708*
X581526Y986292D02*
X581258Y987030D01*
X580721Y987768*
X580184Y988137*
X579111*
X578574Y987768*
X578037Y987030*
X577768Y986292*
X577500Y985185*
Y983339*
X577768Y982232*
X578037Y981494*
X578574Y980755*
X579111Y980386*
X580184*
X580721Y980755*
X581258Y981494*
X581526Y982232*
X585285Y988137D02*
X584479Y987768D01*
X584211Y987030*
Y986292*
X584479Y985554*
X585016Y985185*
X586090Y984815*
X586895Y984446*
X587432Y983708*
X587700Y982970*
Y981863*
X587432Y981125*
X587164Y980755*
X586358Y980386*
X585285*
X584479Y980755*
X584211Y981125*
X583942Y981863*
Y982970*
X584211Y983708*
X584748Y984446*
X585553Y984815*
X586627Y985185*
X587164Y985554*
X587432Y986292*
Y987030*
X587164Y987768*
X586358Y988137*
X585285*
X497128Y1053137D02*
Y1047232D01*
X496859Y1046125*
X496591Y1045755*
X496054Y1045386*
X495517*
X494980Y1045755*
X494712Y1046125*
X494443Y1047232*
Y1047970*
X500081Y1053137D02*
X503033D01*
X501423Y1050185*
X502228*
X502765Y1049815*
X503033Y1049446*
X503302Y1048339*
Y1047601*
X503033Y1046494*
X502496Y1045755*
X501691Y1045386*
X500886*
X500081Y1045755*
X499812Y1046125*
X499544Y1046863*
X520287Y1038137D02*
Y1032232D01*
X520019Y1031125*
X519750Y1030755*
X519213Y1030386*
X518677*
X518140Y1030755*
X517871Y1031125*
X517603Y1032232*
Y1032970*
X523240Y1038137D02*
X526193D01*
X524582Y1035185*
X525387*
X525924Y1034815*
X526193Y1034446*
X526461Y1033339*
Y1032601*
X526193Y1031494*
X525656Y1030755*
X524851Y1030386*
X524045*
X523240Y1030755*
X522972Y1031125*
X522703Y1031863*
X376994Y1053137D02*
Y1047232D01*
X376725Y1046125*
X376457Y1045755*
X375920Y1045386*
X375383*
X374846Y1045755*
X374578Y1046125*
X374309Y1047232*
Y1047970*
X382094Y1053137D02*
X379409Y1047970D01*
X383436*
X382094Y1053137D02*
Y1045386D01*
X261403Y1034387D02*
Y1028482D01*
X261135Y1027375*
X260866Y1027005*
X260329Y1026636*
X259792*
X259256Y1027005*
X258987Y1027375*
X258719Y1028482*
Y1029220*
X266503Y1034387D02*
X263819Y1029220D01*
X267845*
X266503Y1034387D02*
Y1026636D01*
X307262Y863137D02*
Y857232D01*
X306994Y856125*
X306725Y855755*
X306188Y855386*
X305651*
X305115Y855755*
X304846Y856125*
X304578Y857232*
Y857970*
X312899Y862030D02*
X312631Y862768D01*
X311825Y863137*
X311288*
X310483Y862768*
X309946Y861661*
X309678Y859815*
Y857970*
X309946Y856494*
X310483Y855755*
X311288Y855386*
X311557*
X312362Y855755*
X312899Y856494*
X313168Y857601*
Y857970*
X312899Y859077*
X312362Y859815*
X311557Y860185*
X311288*
X310483Y859815*
X309946Y859077*
X309678Y857970*
X329171Y861887D02*
Y855982D01*
X328903Y854875*
X328635Y854505*
X328098Y854136*
X327561*
X327024Y854505*
X326756Y854875*
X326487Y855982*
Y856720*
X334809Y860780D02*
X334540Y861518D01*
X333735Y861887*
X333198*
X332393Y861518*
X331856Y860411*
X331587Y858565*
Y856720*
X331856Y855244*
X332393Y854505*
X333198Y854136*
X333466*
X334272Y854505*
X334809Y855244*
X335077Y856351*
Y856720*
X334809Y857827*
X334272Y858565*
X333466Y858935*
X333198*
X332393Y858565*
X331856Y857827*
X331587Y856720*
X986863Y760115D02*
X994614D01*
X986863D02*
Y762530D01*
X987232Y763336*
X987601Y763604*
X988339Y763873*
X989446*
X990185Y763604*
X990554Y763336*
X990923Y762530*
Y760115*
X988339Y766288D02*
X987970Y766825D01*
X986863Y767631*
X994614*
X984363Y783274D02*
X992114D01*
X984363D02*
Y785690D01*
X984732Y786495*
X985101Y786764*
X985839Y787032*
X986946*
X987685Y786764*
X988054Y786495*
X988423Y785690*
Y783274*
X985839Y789448D02*
X985470Y789985D01*
X984363Y790790*
X992114*
X501863Y965000D02*
X509614D01*
X501863D02*
Y967416D01*
X502232Y968221*
X502601Y968490*
X503339Y968758*
X504077*
X504815Y968490*
X505185Y968221*
X505554Y967416*
Y965000*
Y966879D02*
X509614Y968758D01*
X503339Y971174D02*
X502970Y971711D01*
X501863Y972516*
X509614*
X501863Y975469D02*
Y978422D01*
X504815Y976811*
Y977616*
X505185Y978153*
X505554Y978422*
X506661Y978690*
X507399*
X508506Y978422*
X509245Y977885*
X509614Y977079*
Y976274*
X509245Y975469*
X508875Y975200*
X508137Y974932*
X488113Y965000D02*
X495864D01*
X488113D02*
Y967416D01*
X488482Y968221*
X488851Y968490*
X489589Y968758*
X490327*
X491065Y968490*
X491435Y968221*
X491804Y967416*
Y965000*
Y966879D02*
X495864Y968758D01*
X489589Y971174D02*
X489220Y971711D01*
X488113Y972516*
X495864*
X488113Y977616D02*
X493280Y974932D01*
Y978958*
X488113Y977616D02*
X495864D01*
X501863Y921250D02*
X509614D01*
X501863D02*
Y923666D01*
X502232Y924471*
X502601Y924740*
X503339Y925008*
X504077*
X504815Y924740*
X505185Y924471*
X505554Y923666*
Y921250*
Y923129D02*
X509614Y925008D01*
X503339Y927424D02*
X502970Y927961D01*
X501863Y928766*
X509614*
X501863Y934672D02*
Y931987D01*
X505185Y931719*
X504815Y931987*
X504446Y932793*
Y933598*
X504815Y934403*
X505554Y934940*
X506661Y935208*
X507399Y934940*
X508506Y934672*
X509245Y934135*
X509614Y933329*
Y932524*
X509245Y931719*
X508875Y931450*
X508137Y931182*
X489363Y921250D02*
X497114D01*
X489363D02*
Y923666D01*
X489732Y924471*
X490101Y924740*
X490839Y925008*
X491577*
X492315Y924740*
X492685Y924471*
X493054Y923666*
Y921250*
Y923129D02*
X497114Y925008D01*
X490839Y927424D02*
X490470Y927961D01*
X489363Y928766*
X497114*
X490470Y934403D02*
X489732Y934135D01*
X489363Y933329*
Y932793*
X489732Y931987*
X490839Y931450*
X492685Y931182*
X494530*
X496006Y931450*
X496745Y931987*
X497114Y932793*
Y933061*
X496745Y933866*
X496006Y934403*
X494899Y934672*
X494530*
X493423Y934403*
X492685Y933866*
X492315Y933061*
Y932793*
X492685Y931987*
X493423Y931450*
X494530Y931182*
X469363Y942500D02*
X477114D01*
X469363D02*
Y944916D01*
X469732Y945721*
X470101Y945990*
X470839Y946258*
X471577*
X472315Y945990*
X472685Y945721*
X473054Y944916*
Y942500*
Y944379D02*
X477114Y946258D01*
X470839Y948674D02*
X470470Y949211D01*
X469363Y950016*
X477114*
X469363Y956190D02*
X477114Y953506D01*
X469363Y952432D02*
Y956190D01*
X458113Y942500D02*
X465864D01*
X458113D02*
Y944916D01*
X458482Y945721*
X458851Y945990*
X459589Y946258*
X460327*
X461065Y945990*
X461435Y945721*
X461804Y944916*
Y942500*
Y944379D02*
X465864Y946258D01*
X459589Y948674D02*
X459220Y949211D01*
X458113Y950016*
X465864*
X458113Y953774D02*
X458482Y952969D01*
X459220Y952700*
X459958*
X460696Y952969*
X461065Y953506*
X461435Y954579*
X461804Y955385*
X462542Y955922*
X463280Y956190*
X464387*
X465125Y955922*
X465495Y955653*
X465864Y954848*
Y953774*
X465495Y952969*
X465125Y952700*
X464387Y952432*
X463280*
X462542Y952700*
X461804Y953237*
X461435Y954043*
X461065Y955116*
X460696Y955653*
X459958Y955922*
X459220*
X458482Y955653*
X458113Y954848*
Y953774*
X585747Y949387D02*
Y943851D01*
X586016Y942744*
X586552Y942005*
X587358Y941636*
X587895*
X588700Y942005*
X589237Y942744*
X589505Y943851*
Y949387*
X592458D02*
X595411D01*
X593800Y946435*
X594605*
X595142Y946065*
X595411Y945696*
X595679Y944589*
Y943851*
X595411Y942744*
X594874Y942005*
X594069Y941636*
X593263*
X592458Y942005*
X592190Y942375*
X591921Y943113*
X544363Y913907D02*
X549899D01*
X551006Y914175*
X551745Y914712*
X552114Y915517*
Y916054*
X551745Y916859*
X551006Y917396*
X549899Y917665*
X544363*
Y920617D02*
Y923570D01*
X547315Y921960*
Y922765*
X547685Y923302*
X548054Y923570*
X549161Y923839*
X549899*
X551006Y923570*
X551745Y923033*
X552114Y922228*
Y921423*
X551745Y920617*
X551375Y920349*
X550637Y920081*
X993910Y939041D02*
X1001661D01*
X993910D02*
Y941457D01*
X994279Y942262*
X994648Y942530*
X995386Y942799*
X996494*
X997232Y942530*
X997601Y942262*
X997970Y941457*
Y939041*
X996494Y948704D02*
X997601Y948436D01*
X998339Y947899*
X998708Y947094*
Y946825*
X998339Y946020*
X997601Y945483*
X996494Y945215*
X996125*
X995017Y945483*
X994279Y946020*
X993910Y946825*
Y947094*
X994279Y947899*
X995017Y948436*
X996494Y948704*
X998339*
X1000185Y948436*
X1001292Y947899*
X1001661Y947094*
Y946557*
X1001292Y945752*
X1000554Y945483*
X1031863Y939041D02*
X1039614D01*
X1031863D02*
Y941457D01*
X1032232Y942262*
X1032601Y942530*
X1033339Y942799*
X1034446*
X1035185Y942530*
X1035554Y942262*
X1035923Y941457*
Y939041*
X1034446Y948704D02*
X1035554Y948436D01*
X1036292Y947899*
X1036661Y947094*
Y946825*
X1036292Y946020*
X1035554Y945483*
X1034446Y945215*
X1034077*
X1032970Y945483*
X1032232Y946020*
X1031863Y946825*
Y947094*
X1032232Y947899*
X1032970Y948436*
X1034446Y948704*
X1036292*
X1038137Y948436*
X1039245Y947899*
X1039614Y947094*
Y946557*
X1039245Y945752*
X1038506Y945483*
X613910Y938907D02*
X621661D01*
X613910D02*
Y941322D01*
X614279Y942128*
X614648Y942396*
X615386Y942665*
X616494*
X617232Y942396*
X617601Y942128*
X617970Y941322*
Y938907*
X613910Y946423D02*
X614279Y945617D01*
X615017Y945349*
X615755*
X616494Y945617*
X616863Y946154*
X617232Y947228*
X617601Y948033*
X618339Y948570*
X619077Y948839*
X620185*
X620923Y948570*
X621292Y948302*
X621661Y947496*
Y946423*
X621292Y945617*
X620923Y945349*
X620185Y945081*
X619077*
X618339Y945349*
X617601Y945886*
X617232Y946691*
X616863Y947765*
X616494Y948302*
X615755Y948570*
X615017*
X614279Y948302*
X613910Y947496*
Y946423*
X651863Y938907D02*
X659614D01*
X651863D02*
Y941322D01*
X652232Y942128*
X652601Y942396*
X653339Y942665*
X654446*
X655185Y942396*
X655554Y942128*
X655923Y941322*
Y938907*
X651863Y946423D02*
X652232Y945617D01*
X652970Y945349*
X653708*
X654446Y945617*
X654815Y946154*
X655185Y947228*
X655554Y948033*
X656292Y948570*
X657030Y948839*
X658137*
X658875Y948570*
X659245Y948302*
X659614Y947496*
Y946423*
X659245Y945617*
X658875Y945349*
X658137Y945081*
X657030*
X656292Y945349*
X655554Y945886*
X655185Y946691*
X654815Y947765*
X654446Y948302*
X653708Y948570*
X652970*
X652232Y948302*
X651863Y947496*
Y946423*
X408113Y778750D02*
X415864D01*
X408113D02*
Y781166D01*
X408482Y781971*
X408851Y782240*
X409589Y782508*
X410327*
X411065Y782240*
X411435Y781971*
X411804Y781166*
Y778750*
Y780629D02*
X415864Y782508D01*
X408113Y787608D02*
X413280Y784924D01*
Y788950*
X408113Y787608D02*
X415864D01*
X408113Y791903D02*
Y794856D01*
X411065Y793245*
Y794051*
X411435Y794588*
X411804Y794856*
X412911Y795124*
X413649*
X414756Y794856*
X415495Y794319*
X415864Y793514*
Y792708*
X415495Y791903*
X415125Y791635*
X414387Y791366*
X395613Y778750D02*
X403364D01*
X395613D02*
Y781166D01*
X395982Y781971*
X396351Y782240*
X397089Y782508*
X397827*
X398565Y782240*
X398935Y781971*
X399304Y781166*
Y778750*
Y780629D02*
X403364Y782508D01*
X395613Y787608D02*
X400780Y784924D01*
Y788950*
X395613Y787608D02*
X403364D01*
X396720Y794588D02*
X395982Y794319D01*
X395613Y793514*
Y792977*
X395982Y792172*
X397089Y791635*
X398935Y791366*
X400780*
X402256Y791635*
X402995Y792172*
X403364Y792977*
Y793245*
X402995Y794051*
X402256Y794588*
X401149Y794856*
X400780*
X399673Y794588*
X398935Y794051*
X398565Y793245*
Y792977*
X398935Y792172*
X399673Y791635*
X400780Y791366*
X434363Y778750D02*
X442114D01*
X434363D02*
Y781166D01*
X434732Y781971*
X435101Y782240*
X435839Y782508*
X436577*
X437315Y782240*
X437685Y781971*
X438054Y781166*
Y778750*
Y780629D02*
X442114Y782508D01*
X434363Y787608D02*
X439530Y784924D01*
Y788950*
X434363Y787608D02*
X442114D01*
X436946Y794856D02*
X438054Y794588D01*
X438792Y794051*
X439161Y793245*
Y792977*
X438792Y792172*
X438054Y791635*
X436946Y791366*
X436577*
X435470Y791635*
X434732Y792172*
X434363Y792977*
Y793245*
X434732Y794051*
X435470Y794588*
X436946Y794856*
X438792*
X440637Y794588*
X441745Y794051*
X442114Y793245*
Y792708*
X441745Y791903*
X441006Y791635*
X420613Y778750D02*
X428364D01*
X420613D02*
Y781166D01*
X420982Y781971*
X421351Y782240*
X422089Y782508*
X422827*
X423565Y782240*
X423935Y781971*
X424304Y781166*
Y778750*
Y780629D02*
X428364Y782508D01*
X420613Y788414D02*
Y785729D01*
X423935Y785461*
X423565Y785729*
X423196Y786535*
Y787340*
X423565Y788145*
X424304Y788682*
X425411Y788950*
X426149Y788682*
X427256Y788414*
X427995Y787877*
X428364Y787071*
Y786266*
X427995Y785461*
X427625Y785192*
X426887Y784924*
X422458Y791635D02*
X422089D01*
X421351Y791903*
X420982Y792172*
X420613Y792708*
Y793782*
X420982Y794319*
X421351Y794588*
X422089Y794856*
X422827*
X423565Y794588*
X424673Y794051*
X428364Y791366*
Y795124*
X403113Y567352D02*
X410864D01*
X403113D02*
Y569768D01*
X403482Y570574*
X403851Y570842*
X404589Y571110*
X405327*
X406065Y570842*
X406435Y570574*
X406804Y569768*
Y567352*
Y569231D02*
X410864Y571110D01*
X403113Y577016D02*
Y574332D01*
X406435Y574063*
X406065Y574332*
X405696Y575137*
Y575942*
X406065Y576747*
X406804Y577284*
X407911Y577553*
X408649Y577284*
X409756Y577016*
X410495Y576479*
X410864Y575674*
Y574868*
X410495Y574063*
X410125Y573795*
X409387Y573526*
X403113Y583458D02*
Y580774D01*
X406435Y580506*
X406065Y580774*
X405696Y581579*
Y582385*
X406065Y583190*
X406804Y583727*
X407911Y583995*
X408649Y583727*
X409756Y583458*
X410495Y582921*
X410864Y582116*
Y581311*
X410495Y580506*
X410125Y580237*
X409387Y579969*
X418113Y567621D02*
X425864D01*
X418113D02*
Y570037D01*
X418482Y570842*
X418851Y571110*
X419589Y571379*
X420327*
X421065Y571110*
X421435Y570842*
X421804Y570037*
Y567621*
Y569500D02*
X425864Y571379D01*
X418113Y577284D02*
Y574600D01*
X421435Y574332*
X421065Y574600*
X420696Y575405*
Y576211*
X421065Y577016*
X421804Y577553*
X422911Y577821*
X423649Y577553*
X424756Y577284*
X425495Y576747*
X425864Y575942*
Y575137*
X425495Y574332*
X425125Y574063*
X424387Y573795*
X418113Y581579D02*
X418482Y580774D01*
X419220Y580506*
X419958*
X420696Y580774*
X421065Y581311*
X421435Y582385*
X421804Y583190*
X422542Y583727*
X423280Y583995*
X424387*
X425125Y583727*
X425495Y583458*
X425864Y582653*
Y581579*
X425495Y580774*
X425125Y580506*
X424387Y580237*
X423280*
X422542Y580506*
X421804Y581042*
X421435Y581848*
X421065Y582921*
X420696Y583458*
X419958Y583727*
X419220*
X418482Y583458*
X418113Y582653*
Y581579*
X590613Y905389D02*
X598364D01*
X590613D02*
Y907805D01*
X590982Y908610*
X591351Y908879*
X592089Y909147*
X592827*
X593565Y908879*
X593935Y908610*
X594304Y907805*
Y905389*
Y907268D02*
X598364Y909147D01*
X590613Y912905D02*
X590982Y912100D01*
X591720Y911832*
X592458*
X593196Y912100*
X593565Y912637*
X593935Y913711*
X594304Y914516*
X595042Y915053*
X595780Y915321*
X596887*
X597625Y915053*
X597995Y914784*
X598364Y913979*
Y912905*
X597995Y912100*
X597625Y911832*
X596887Y911563*
X595780*
X595042Y911832*
X594304Y912368*
X593935Y913174*
X593565Y914247*
X593196Y914784*
X592458Y915053*
X591720*
X590982Y914784*
X590613Y913979*
Y912905*
Y918274D02*
Y921227D01*
X593565Y919616*
Y920421*
X593935Y920958*
X594304Y921227*
X595411Y921495*
X596149*
X597256Y921227*
X597995Y920690*
X598364Y919885*
Y919079*
X597995Y918274*
X597625Y918006*
X596887Y917737*
G74*
X0Y0D02*
M02*
