*
*
G04 PADS VX.2 Build Number: 5060570 generated Gerber (RS-274-X) file*
G04 PC Version=2.1*
*
%IN "Control_Rim_Board.pcb"*%
*
%MOIN*%
*
%FSLAX35Y35*%
*
*
*
*
G04 PC Standard Apertures*
*
*
G04 Thermal Relief Aperture macro.*
%AMTER*
1,1,$1,0,0*
1,0,$1-$2,0,0*
21,0,$3,$4,0,0,45*
21,0,$3,$4,0,0,135*
%
*
*
G04 Annular Aperture macro.*
%AMANN*
1,1,$1,0,0*
1,0,$2,0,0*
%
*
*
G04 Odd Aperture macro.*
%AMODD*
1,1,$1,0,0*
1,0,$1-0.005,0,0*
%
*
*
G04 PC Custom Aperture Macros*
*
*
*
*
*
*
G04 PC Aperture Table*
*
%ADD013C,0.01*%
%ADD021C,0.02*%
%ADD024C,0.00787*%
%ADD028C,0.00394*%
%ADD079C,0.004*%
%ADD080C,0.01181*%
%ADD081C,0.00866*%
%ADD082C,0.00669*%
%ADD083C,0.016*%
%ADD094C,0.00945*%
*
*
*
*
G04 PC Circuitry*
G04 Layer Name Control_Rim_Board.pcb - circuitry*
%LPD*%
*
*
G04 PC Custom Flashes*
G04 Layer Name Control_Rim_Board.pcb - flashes*
%LPD*%
*
*
G04 PC Circuitry*
G04 Layer Name Control_Rim_Board.pcb - circuitry*
%LPD*%
*
G54D13*
G01X872500Y1005000D02*
X880000Y957600D01*
X920000*
X927500Y1005000*
Y1047400*
X872500*
Y1005000*
X762500D02*
X770000Y957600D01*
X810000*
X817500Y1005000*
Y1047400*
X762500*
Y1005000*
X652500D02*
X660000Y957600D01*
X700000*
X707500Y1005000*
Y1047400*
X652500*
Y1005000*
X542500D02*
X550000Y957600D01*
X590000*
X597500Y1005000*
Y1047400*
X542500*
Y1005000*
X432500D02*
X440000Y957600D01*
X480000*
X487500Y1005000*
Y1047400*
X432500*
Y1005000*
X322500D02*
X330000Y957600D01*
X370000*
X377500Y1005000*
Y1047400*
X322500*
Y1005000*
X469091Y925312D02*
Y918750D01*
X467500Y925312D02*
X470682D01*
X472727D02*
Y918750D01*
Y925312D02*
X474773D01*
X474773D02*
X475455Y925000D01*
X475682Y924688*
X475682D02*
X475909Y924062D01*
X475909D02*
Y923125D01*
X475682Y922500*
X475455Y922188*
X475455D02*
X474773Y921875D01*
X472727*
X477955Y924062D02*
X478409Y924375D01*
X479091Y925312*
X479091D02*
Y918750D01*
X696591Y944062D02*
Y937500D01*
X695000Y944062D02*
X698182D01*
X700227D02*
Y937500D01*
Y944062D02*
X702273D01*
X702273D02*
X702955Y943750D01*
X703182Y943438*
X703182D02*
X703409Y942812D01*
X703409D02*
Y941875D01*
X703182Y941250*
X702955Y940938*
X702955D02*
X702273Y940625D01*
X700227*
X705682Y942500D02*
Y942812D01*
X705682D02*
X705909Y943438D01*
X705909D02*
X706136Y943750D01*
X706591Y944062*
X706591D02*
X707500D01*
X707500D02*
X707955Y943750D01*
X708182Y943438*
X708182D02*
X708409Y942812D01*
X708409D02*
Y942188D01*
X708409D02*
X708182Y941562D01*
X708182D02*
X707727Y940625D01*
X705455Y937500*
X708636*
X879091Y946562D02*
Y940000D01*
X877500Y946562D02*
X880682D01*
X882727D02*
Y940000D01*
Y946562D02*
X884773D01*
X884773D02*
X885455Y946250D01*
X885682Y945938*
X885682D02*
X885909Y945312D01*
X885909D02*
Y944375D01*
X885682Y943750*
X885455Y943438*
X885455D02*
X884773Y943125D01*
X882727*
X888409Y946562D02*
X890909D01*
X890909D02*
X889545Y944062D01*
X889545D02*
X890227D01*
X890227D02*
X890682Y943750D01*
X890909Y943438*
X890909D02*
X891136Y942500D01*
Y941875*
X890909Y940938*
X890909D02*
X890455Y940312D01*
X890455D02*
X889773Y940000D01*
X889091*
X888409Y940312*
X888409D02*
X888182Y940625D01*
X887955Y941250*
X431591Y877812D02*
Y871250D01*
X430000Y877812D02*
X433182D01*
X435227D02*
Y871250D01*
Y877812D02*
X437273D01*
X437273D02*
X437955Y877500D01*
X438182Y877188*
X438182D02*
X438409Y876562D01*
X438409D02*
Y875625D01*
X438182Y875000*
X437955Y874688*
X437955D02*
X437273Y874375D01*
X435227*
X442727Y877812D02*
X440455Y873438D01*
X440455D02*
X443864D01*
X442727Y877812D02*
Y871250D01*
X585968Y928441D02*
Y921878D01*
X584377Y928441D02*
X587559D01*
X589604D02*
Y921878D01*
Y928441D02*
X591650D01*
X592331Y928128*
X592559Y927816*
X592786Y927191*
Y926253*
X592559Y925628*
X592331Y925316*
X591650Y925003*
X589604*
X597786Y928441D02*
X595513D01*
X595286Y925628*
X595513Y925941*
X596195Y926253*
X596877*
X597559Y925941*
X598013Y925316*
X598240Y924378*
X598013Y923753*
X597786Y922816*
X597331Y922191*
X596650Y921878*
X595968*
X595286Y922191*
X595059Y922503*
X594831Y923128*
X762841Y945312D02*
Y938750D01*
X761250Y945312D02*
X764432D01*
X766477D02*
Y938750D01*
Y945312D02*
X768523D01*
X768523D02*
X769205Y945000D01*
X769432Y944688*
X769432D02*
X769659Y944062D01*
X769659D02*
Y943125D01*
X769432Y942500*
X769205Y942188*
X769205D02*
X768523Y941875D01*
X766477*
X774432Y944375D02*
X774205Y945000D01*
X773523Y945312*
X773523D02*
X773068D01*
X773068D02*
X772386Y945000D01*
X771932Y944062*
X771932D02*
X771705Y942500D01*
Y940938*
X771705D02*
X771932Y939688D01*
X771932D02*
X772386Y939062D01*
X772386D02*
X773068Y938750D01*
X773295*
X773977Y939062*
X773977D02*
X774432Y939688D01*
X774432D02*
X774659Y940625D01*
Y940938*
X774659D02*
X774432Y941875D01*
X773977Y942500*
X773295Y942812*
X773295D02*
X773068D01*
X773068D02*
X772386Y942500D01*
X771932Y941875*
X771705Y940938*
X306591Y837812D02*
Y831250D01*
X305000Y837812D02*
X308182D01*
X310227D02*
Y831250D01*
Y837812D02*
X312273D01*
X312273D02*
X312955Y837500D01*
X313182Y837188*
X313182D02*
X313409Y836562D01*
X313409D02*
Y835625D01*
X313182Y835000*
X312955Y834688*
X312955D02*
X312273Y834375D01*
X310227*
X318636Y837812D02*
X316364Y831250D01*
X315455Y837812D02*
X318636D01*
X306591Y681562D02*
Y675000D01*
X305000Y681562D02*
X308182D01*
X310227D02*
Y675000D01*
Y681562D02*
X312273D01*
X312273D02*
X312955Y681250D01*
X313182Y680938*
X313182D02*
X313409Y680312D01*
X313409D02*
Y679375D01*
X313182Y678750*
X312955Y678438*
X312955D02*
X312273Y678125D01*
X310227*
X316591Y681562D02*
X315909Y681250D01*
X315682Y680625*
Y680000*
X315909Y679375*
X316364Y679062*
X316364D02*
X317273Y678750D01*
X317955Y678438*
X317955D02*
X318409Y677812D01*
X318409D02*
X318636Y677188D01*
X318636D02*
Y676250D01*
X318409Y675625*
X318182Y675312*
X318182D02*
X317500Y675000D01*
X316591*
X315909Y675312*
X315909D02*
X315682Y675625D01*
X315455Y676250*
Y677188*
X315455D02*
X315682Y677812D01*
X315682D02*
X316136Y678438D01*
X316136D02*
X316818Y678750D01*
X317727Y679062*
X317727D02*
X318182Y679375D01*
X318409Y680000*
Y680625*
X318182Y681250*
X317500Y681562*
X317500D02*
X316591D01*
X1336591Y256562D02*
Y250000D01*
X1335000Y256562D02*
X1338182D01*
X1340227D02*
Y250000D01*
Y256562D02*
X1342273D01*
X1342273D02*
X1342955Y256250D01*
X1343182Y255938*
X1343182D02*
X1343409Y255312D01*
X1343409D02*
Y254375D01*
X1343182Y253750*
X1342955Y253438*
X1342955D02*
X1342273Y253125D01*
X1340227*
X1345455Y255312D02*
X1345909Y255625D01*
X1346591Y256562*
X1346591D02*
Y250000D01*
X1350000Y256562D02*
X1349318Y256250D01*
X1348864Y255312*
X1348864D02*
X1348636Y253750D01*
Y252812*
X1348636D02*
X1348864Y251250D01*
X1349318Y250312*
X1349318D02*
X1350000Y250000D01*
X1350455*
X1351136Y250312*
X1351136D02*
X1351591Y251250D01*
X1351818Y252812*
X1351818D02*
Y253750D01*
X1351591Y255312*
X1351591D02*
X1351136Y256250D01*
X1350455Y256562*
X1350455D02*
X1350000D01*
X1116591Y650312D02*
Y643750D01*
X1115000Y650312D02*
X1118182D01*
X1120227D02*
Y643750D01*
Y650312D02*
X1122273D01*
X1122273D02*
X1122955Y650000D01*
X1123182Y649688*
X1123182D02*
X1123409Y649062D01*
X1123409D02*
Y648125D01*
X1123182Y647500*
X1122955Y647188*
X1122955D02*
X1122273Y646875D01*
X1120227*
X1125455Y649062D02*
X1125909Y649375D01*
X1126591Y650312*
X1126591D02*
Y643750D01*
X1128636Y649062D02*
X1129091Y649375D01*
X1129773Y650312*
X1129773D02*
Y643750D01*
X565341Y887812D02*
Y881250D01*
X563750Y887812D02*
X566932D01*
X568977D02*
Y881250D01*
Y887812D02*
X571023D01*
X571023D02*
X571705Y887500D01*
X571932Y887188*
X571932D02*
X572159Y886562D01*
X572159D02*
Y885625D01*
X571932Y885000*
X571705Y884688*
X571705D02*
X571023Y884375D01*
X568977*
X574205Y886562D02*
X574659Y886875D01*
X575341Y887812*
X575341D02*
Y881250D01*
X577614Y886250D02*
Y886562D01*
X577614D02*
X577841Y887188D01*
X577841D02*
X578068Y887500D01*
X578523Y887812*
X578523D02*
X579432D01*
X579432D02*
X579886Y887500D01*
X580114Y887188*
X580114D02*
X580341Y886562D01*
X580341D02*
Y885938D01*
X580341D02*
X580114Y885312D01*
X580114D02*
X579659Y884375D01*
X577386Y881250*
X580568*
X377841Y609062D02*
Y602500D01*
X376250Y609062D02*
X379432D01*
X381477D02*
Y602500D01*
Y609062D02*
X383523D01*
X383523D02*
X384205Y608750D01*
X384432Y608438*
X384432D02*
X384659Y607812D01*
X384659D02*
Y606875D01*
X384432Y606250*
X384205Y605938*
X384205D02*
X383523Y605625D01*
X381477*
X389659Y606875D02*
X389432Y605938D01*
X389432D02*
X388977Y605312D01*
X388977D02*
X388295Y605000D01*
X388068*
X387386Y605312*
X387386D02*
X386932Y605938D01*
X386932D02*
X386705Y606875D01*
Y607188*
X386705D02*
X386932Y608125D01*
X387386Y608750*
X388068Y609062*
X388068D02*
X388295D01*
X388295D02*
X388977Y608750D01*
X389432Y608125*
X389659Y606875*
Y605312*
X389659D02*
X389432Y603750D01*
X388977Y602812*
X388977D02*
X388295Y602500D01*
X387841*
X387159Y602812*
X387159D02*
X386932Y603438D01*
G54D21*
X150000Y200000D02*
Y1100000D01*
X1450000*
Y200000*
X150000*
X526250Y217500D02*
Y287500D01*
X667500*
Y216250*
X526250*
X795000Y220000D02*
Y290000D01*
X936250*
Y218750*
X795000*
G54D24*
X302776Y1023661D02*
Y1006339D01*
X312224*
Y1023661*
X302776*
X1226161Y534724D02*
X1208839D01*
Y525276*
X1226161*
Y534724*
X1208661D02*
X1191339D01*
Y525276*
X1208661*
Y534724*
X1213839Y540276D02*
X1231161D01*
Y549724*
X1213839*
Y540276*
X1171339Y525276D02*
X1188661D01*
Y534724*
X1171339*
Y525276*
X1192224Y788839D02*
Y806161D01*
X1182776*
Y788839*
X1192224*
X1139724Y986339D02*
Y1003661D01*
X1130276*
Y986339*
X1139724*
X1008839Y315276D02*
X1026161D01*
Y324724*
X1008839*
Y315276*
X1275089Y722776D02*
X1292411D01*
Y732224*
X1275089*
Y722776*
X1276339Y645276D02*
X1293661D01*
Y654724*
X1276339*
Y645276*
X520276Y1023661D02*
Y1006339D01*
X529724*
Y1023661*
X520276*
X1323661Y784724D02*
X1306339D01*
Y775276*
X1323661*
Y784724*
Y704724D02*
X1306339D01*
Y695276*
X1323661*
Y704724*
Y624724D02*
X1306339D01*
Y615276*
X1323661*
Y624724*
X1153839Y402776D02*
X1171161D01*
Y412224*
X1153839*
Y402776*
X1155089Y309026D02*
X1172411D01*
Y318474*
X1155089*
Y309026*
X1088839Y1085276D02*
X1106161D01*
Y1094724*
X1088839*
Y1085276*
X247657Y842598D02*
Y817402D01*
X267343*
Y842598*
X247657*
X740276Y1023661D02*
Y1006339D01*
X749724*
Y1023661*
X740276*
X242402Y892657D02*
X267598D01*
Y912343*
X242402*
Y892657*
X287224Y876339D02*
Y893661D01*
X277776*
Y876339*
X287224*
X250157Y695098D02*
Y669902D01*
X269843*
Y695098*
X250157*
X244902Y745157D02*
X270098D01*
Y764843*
X244902*
Y745157*
X289724Y728839D02*
Y746161D01*
X280276*
Y728839*
X289724*
X809724Y848839D02*
Y866161D01*
X800276*
Y848839*
X809724*
X1033839Y997776D02*
X1051161D01*
Y1007224*
X1033839*
Y997776*
X1374724Y1026339D02*
Y1043661D01*
X1365276*
Y1026339*
X1374724*
X1235276Y456161D02*
Y438839D01*
X1244724*
Y456161*
X1235276*
X349350Y823799D02*
Y811201D01*
X355650*
Y823799*
X349350*
Y823012D02*
X355650D01*
X349350Y822224D02*
X355650D01*
X349350Y821437D02*
X355650D01*
X349350Y820650D02*
X355650D01*
X349350Y819862D02*
X355650D01*
X349350Y819075D02*
X355650D01*
X349350Y818287D02*
X355650D01*
X351850Y676299D02*
Y663701D01*
X358150*
Y676299*
X351850*
Y675512D02*
X358150D01*
X351850Y674724D02*
X358150D01*
X351850Y673937D02*
X358150D01*
X351850Y673150D02*
X358150D01*
X351850Y672362D02*
X358150D01*
X351850Y671575D02*
X358150D01*
X351850Y670787D02*
X358150D01*
X903700Y1013700D02*
Y1026300D01*
X916300*
Y1013700*
X903700*
X798701Y1013701D02*
Y1026299D01*
X811299*
Y1013701*
X798701*
X683700Y1013700D02*
Y1026300D01*
X696300*
Y1013700*
X683700*
X578701Y1013701D02*
Y1026299D01*
X591299*
Y1013701*
X578701*
X463700Y1013700D02*
Y1026300D01*
X476300*
Y1013700*
X463700*
X358701Y1013701D02*
Y1026299D01*
X371299*
Y1013701*
X358701*
X1311132Y830768D02*
G75*
G03X1311132I-3937J0D01*
G01X1299321Y806358D02*
X1333179D01*
Y838642*
X1299321*
Y806358*
X290711Y1066929D02*
X229293D01*
Y1047244*
X290711*
Y1066929*
X275750D02*
Y1098425D01*
X244254Y1066929D02*
Y1098425D01*
X281065Y1005315D02*
Y994685D01*
X270435*
Y1005315*
X281065*
X249569Y1000000D02*
G03X249569I-5315J0D01*
G01X1391969Y570000D02*
Y630000D01*
X1371969*
Y570000*
X1391969*
Y580000D02*
X1437953D01*
X1391969Y600000D02*
X1437953D01*
X1391969Y620000D02*
X1437953D01*
X1346299Y580000D02*
G03X1346299I-6299J0D01*
G01X1366299Y600000D02*
G03X1366299I-6299J0D01*
G01X1346299D02*
G03X1346299I-6299J0D01*
G01X1366299Y620000D02*
G03X1366299I-6299J0D01*
G01X1346299Y613701D02*
X1333701D01*
Y626299*
X1346299*
Y613701*
X1366299Y580000D02*
G03X1366299I-6299J0D01*
G01X1391969Y450000D02*
Y510000D01*
X1371969*
Y450000*
X1391969*
Y460000D02*
X1437953D01*
X1391969Y480000D02*
X1437953D01*
X1391969Y500000D02*
X1437953D01*
X1346299Y460000D02*
G03X1346299I-6299J0D01*
G01X1366299Y480000D02*
G03X1366299I-6299J0D01*
G01X1346299D02*
G03X1346299I-6299J0D01*
G01X1366299Y500000D02*
G03X1366299I-6299J0D01*
G01X1346299Y493701D02*
X1333701D01*
Y506299*
X1346299*
Y493701*
X1366299Y460000D02*
G03X1366299I-6299J0D01*
G01X1350000Y1041969D02*
X1150000D01*
Y1021969*
X1350000*
Y1041969*
X1340000D02*
Y1087953D01*
X1320000Y1041969D02*
Y1087953D01*
X1300000Y1041969D02*
Y1087953D01*
X1280000Y1041969D02*
Y1087953D01*
X1260000Y1041969D02*
Y1087953D01*
X1240000Y1041969D02*
Y1087953D01*
X1220000Y1041969D02*
Y1087953D01*
X1200000Y1041969D02*
Y1087953D01*
X1180000Y1041969D02*
Y1087953D01*
X1160000Y1041969D02*
Y1087953D01*
X1346299Y990000D02*
G03X1346299I-6299J0D01*
G01X1326299Y1010000D02*
G03X1326299I-6299J0D01*
G01Y990000D02*
G03X1326299I-6299J0D01*
G01X1306299Y1010000D02*
G03X1306299I-6299J0D01*
G01Y990000D02*
G03X1306299I-6299J0D01*
G01X1286299Y1010000D02*
G03X1286299I-6299J0D01*
G01Y990000D02*
G03X1286299I-6299J0D01*
G01X1266299Y1010000D02*
G03X1266299I-6299J0D01*
G01Y990000D02*
G03X1266299I-6299J0D01*
G01X1246299Y1010000D02*
G03X1246299I-6299J0D01*
G01Y990000D02*
G03X1246299I-6299J0D01*
G01X1226299Y1010000D02*
G03X1226299I-6299J0D01*
G01Y990000D02*
G03X1226299I-6299J0D01*
G01X1206299Y1010000D02*
G03X1206299I-6299J0D01*
G01Y990000D02*
G03X1206299I-6299J0D01*
G01X1186299Y1010000D02*
G03X1186299I-6299J0D01*
G01Y990000D02*
G03X1186299I-6299J0D01*
G01X1166299Y1010000D02*
G03X1166299I-6299J0D01*
G01Y996299D02*
Y983701D01*
X1153701*
Y996299*
X1166299*
X1346299Y1010000D02*
G03X1346299I-6299J0D01*
G01X1420000Y871969D02*
X1360000D01*
Y851969*
X1420000*
Y871969*
X1410000D02*
Y917953D01*
X1390000Y871969D02*
Y917953D01*
X1370000Y871969D02*
Y917953D01*
X1396299Y840000D02*
G03X1396299I-6299J0D01*
G01X1416299D02*
G03X1416299I-6299J0D01*
G01X1376299Y846299D02*
Y833701D01*
X1363701*
Y846299*
X1376299*
X1391969Y730000D02*
Y790000D01*
X1371969*
Y730000*
X1391969*
Y740000D02*
X1437953D01*
X1391969Y760000D02*
X1437953D01*
X1391969Y780000D02*
X1437953D01*
X1346299Y740000D02*
G03X1346299I-6299J0D01*
G01X1366299Y760000D02*
G03X1366299I-6299J0D01*
G01X1346299D02*
G03X1346299I-6299J0D01*
G01X1366299Y780000D02*
G03X1366299I-6299J0D01*
G01X1346299Y773701D02*
X1333701D01*
Y786299*
X1346299*
Y773701*
X1366299Y740000D02*
G03X1366299I-6299J0D01*
G01X1391969Y650000D02*
Y710000D01*
X1371969*
Y650000*
X1391969*
Y660000D02*
X1437953D01*
X1391969Y680000D02*
X1437953D01*
X1391969Y700000D02*
X1437953D01*
X1346299Y660000D02*
G03X1346299I-6299J0D01*
G01X1366299Y680000D02*
G03X1366299I-6299J0D01*
G01X1346299D02*
G03X1346299I-6299J0D01*
G01X1366299Y700000D02*
G03X1366299I-6299J0D01*
G01X1346299Y693701D02*
X1333701D01*
Y706299*
X1346299*
Y693701*
X1366299Y660000D02*
G03X1366299I-6299J0D01*
G01X680000Y775000D02*
Y655000D01*
X700000*
Y775000*
X680000*
X683701Y771299D02*
X696299D01*
Y758701*
X683701*
Y771299*
X696299Y745000D02*
G03X696299I-6299J0D01*
G01Y725000D02*
G03X696299I-6299J0D01*
G01Y705000D02*
G03X696299I-6299J0D01*
G01Y685000D02*
G03X696299I-6299J0D01*
G01Y665000D02*
G03X696299I-6299J0D01*
G01X338366Y875374D02*
X337579Y874587D01*
X339154Y875374D02*
X337579Y873799D01*
X339941Y875374D02*
X337579Y873012D01*
X340728Y875374D02*
X337579Y872224D01*
X341516Y875374D02*
X337579Y871437D01*
X342303Y875374D02*
X337579Y870650D01*
X343091Y875374D02*
X337579Y869862D01*
X343878Y875374D02*
X337579Y869075D01*
X344665Y875374D02*
X337579Y868287D01*
X345453Y875374D02*
X337579Y867500D01*
Y859626D02*
X347421D01*
Y875374*
X337579*
Y859626*
X340866Y727874D02*
X340079Y727087D01*
X341654Y727874D02*
X340079Y726299D01*
X342441Y727874D02*
X340079Y725512D01*
X343228Y727874D02*
X340079Y724724D01*
X344016Y727874D02*
X340079Y723937D01*
X344803Y727874D02*
X340079Y723150D01*
X345591Y727874D02*
X340079Y722362D01*
X346378Y727874D02*
X340079Y721575D01*
X347165Y727874D02*
X340079Y720787D01*
X347953Y727874D02*
X340079Y720000D01*
Y712126D02*
X349921D01*
Y727874*
X340079*
Y712126*
X497224Y938839D02*
Y956161D01*
X487776*
Y938839*
X497224*
X1090276Y1078661D02*
Y1061339D01*
X1099724*
Y1078661*
X1090276*
X1102776Y1053661D02*
Y1036339D01*
X1112224*
Y1053661*
X1102776*
X1090276D02*
Y1036339D01*
X1099724*
Y1053661*
X1090276*
X728661Y857224D02*
X711339D01*
Y847776*
X728661*
Y857224*
X722224Y957589D02*
Y974911D01*
X712776*
Y957589*
X722224*
X754724Y818839D02*
Y836161D01*
X745276*
Y818839*
X754724*
X767224D02*
Y836161D01*
X757776*
Y818839*
X767224*
X1187776Y869911D02*
Y852589D01*
X1197224*
Y869911*
X1187776*
X1163839Y767776D02*
X1181161D01*
Y777224*
X1163839*
Y767776*
X1017224Y395089D02*
Y412411D01*
X1007776*
Y395089*
X1017224*
X987224Y370089D02*
Y387411D01*
X977776*
Y370089*
X987224*
X870974Y956339D02*
Y973661D01*
X861526*
Y956339*
X870974*
X287224Y851339D02*
Y868661D01*
X277776*
Y851339*
X287224*
X292776Y868661D02*
Y851339D01*
X302224*
Y868661*
X292776*
X357224Y836339D02*
Y853661D01*
X347776*
Y836339*
X357224*
X359724Y688839D02*
Y706161D01*
X350276*
Y688839*
X359724*
X289724Y703839D02*
Y721161D01*
X280276*
Y703839*
X289724*
X295276Y721161D02*
Y703839D01*
X304724*
Y721161*
X295276*
X319724Y858839D02*
Y876161D01*
X310276*
Y858839*
X319724*
X322224Y711339D02*
Y728661D01*
X312776*
Y711339*
X322224*
X381339Y955276D02*
X398661D01*
Y964724*
X381339*
Y955276*
X527411Y964724D02*
X510089D01*
Y955276*
X527411*
Y964724*
X753661D02*
X736339D01*
Y955276*
X753661*
Y964724*
X1102776Y1028661D02*
Y1011339D01*
X1112224*
Y1028661*
X1102776*
X1090276D02*
Y1011339D01*
X1099724*
Y1028661*
X1090276*
X1102776Y1078661D02*
Y1061339D01*
X1112224*
Y1078661*
X1102776*
X789409Y892992D02*
G03X789409I-3937J0D01*
G01X736654Y900866D02*
Y859134D01*
X793346*
Y900866*
X736654*
X1176457Y386181D02*
G03X1176457I-3937J0D01*
G01X1164646Y325945D02*
X1195354D01*
Y394055*
X1164646*
Y325945*
X1176457Y293681D02*
G03X1176457I-3937J0D01*
G01X1164646Y233445D02*
X1195354D01*
Y301555*
X1164646*
Y233445*
X244764Y881811D02*
X243976Y881024D01*
X245551Y881811D02*
X243976Y880236D01*
X246339Y881811D02*
X243976Y879449D01*
X247126Y881811D02*
X243976Y878661D01*
X247913Y881811D02*
X243976Y877874D01*
X248701Y881811D02*
X243976Y877087D01*
X249488Y881811D02*
X243976Y876299D01*
X250276Y881811D02*
X243976Y875512D01*
X251063Y881811D02*
X243976Y874724D01*
Y858189D02*
Y881811D01*
X266024*
Y858189*
X243976*
X247264Y734311D02*
X246476Y733524D01*
X248051Y734311D02*
X246476Y732736D01*
X248839Y734311D02*
X246476Y731949D01*
X249626Y734311D02*
X246476Y731161D01*
X250413Y734311D02*
X246476Y730374D01*
X251201Y734311D02*
X246476Y729587D01*
X251988Y734311D02*
X246476Y728799D01*
X252776Y734311D02*
X246476Y728012D01*
X253563Y734311D02*
X246476Y727224D01*
Y710689D02*
Y734311D01*
X268524*
Y710689*
X246476*
X1063957Y1021358D02*
G03X1063957I-3937J0D01*
G01X1067894Y1091516D02*
X1037106D01*
Y1013484*
X1067894*
Y1091516*
X1220472Y492992D02*
G03X1220472I-3937J0D01*
G01X1175591Y500866D02*
Y459134D01*
X1224409*
Y500866*
X1175591*
X1174409Y832992D02*
G03X1174409I-3937J0D01*
G01X1121654Y840866D02*
Y799134D01*
X1178346*
Y840866*
X1121654*
X1056929Y339528D02*
G03X1056929I-3937J0D01*
G01X1060866Y388346D02*
X1019134D01*
Y331654*
X1060866*
Y388346*
X1391969Y310000D02*
Y390000D01*
X1371969*
Y310000*
X1391969*
Y320000D02*
X1437953D01*
X1391969Y340000D02*
X1437953D01*
X1391969Y360000D02*
X1437953D01*
X1391969Y380000D02*
X1437953D01*
X1346299Y320000D02*
G03X1346299I-6299J0D01*
G01X1366299Y340000D02*
G03X1366299I-6299J0D01*
G01X1346299D02*
G03X1346299I-6299J0D01*
G01X1366299Y360000D02*
G03X1366299I-6299J0D01*
G01X1346299D02*
G03X1346299I-6299J0D01*
G01X1366299Y380000D02*
G03X1366299I-6299J0D01*
G01X1346299Y373701D02*
X1333701D01*
Y386299*
X1346299*
Y373701*
X1366299Y320000D02*
G03X1366299I-6299J0D01*
G01X608898Y951102D02*
X621102D01*
Y938898*
X608898*
Y951102*
X641102Y945000D02*
G03X641102I-6102J0D01*
G01X621102Y925000D02*
G03X621102I-6102J0D01*
G01X641102D02*
G03X641102I-6102J0D01*
G01X621102Y905000D02*
G03X621102I-6102J0D01*
G01X641102D02*
G03X641102I-6102J0D01*
G01X621102Y885000D02*
G03X621102I-6102J0D01*
G01X641102D02*
G03X641102I-6102J0D01*
G01X621102Y865000D02*
G03X621102I-6102J0D01*
G01X641102D02*
G03X641102I-6102J0D01*
G01X621102Y845000D02*
G03X621102I-6102J0D01*
G01X641102D02*
G03X641102I-6102J0D01*
G01X621102Y825000D02*
G03X621102I-6102J0D01*
G01X641102D02*
G03X641102I-6102J0D01*
G01X621102Y805000D02*
G03X621102I-6102J0D01*
G01X641102D02*
G03X641102I-6102J0D01*
G01X621102Y785000D02*
G03X621102I-6102J0D01*
G01X641102D02*
G03X641102I-6102J0D01*
G01X621102Y765000D02*
G03X621102I-6102J0D01*
G01X641102D02*
G03X641102I-6102J0D01*
G01X621102Y745000D02*
G03X621102I-6102J0D01*
G01X641102D02*
G03X641102I-6102J0D01*
G01X621102Y725000D02*
G03X621102I-6102J0D01*
G01X641102D02*
G03X641102I-6102J0D01*
G01X621102Y705000D02*
G03X621102I-6102J0D01*
G01X641102D02*
G03X641102I-6102J0D01*
G01X621102Y685000D02*
G03X621102I-6102J0D01*
G01X641102D02*
G03X641102I-6102J0D01*
G01X621102Y665000D02*
G03X621102I-6102J0D01*
G01X641102D02*
G03X641102I-6102J0D01*
G01X621102Y645000D02*
G03X621102I-6102J0D01*
G01X641102D02*
G03X641102I-6102J0D01*
G01X621102Y625000D02*
G03X621102I-6102J0D01*
G01X641102D02*
G03X641102I-6102J0D01*
G01X621102Y605000D02*
G03X621102I-6102J0D01*
G01X641102D02*
G03X641102I-6102J0D01*
G01X621102Y585000D02*
G03X621102I-6102J0D01*
G01X641102D02*
G03X641102I-6102J0D01*
G01X621102Y565000D02*
G03X621102I-6102J0D01*
G01X641102D02*
G03X641102I-6102J0D01*
G01X621102Y545000D02*
G03X621102I-6102J0D01*
G01X641102D02*
G03X641102I-6102J0D01*
G01X621102Y525000D02*
G03X621102I-6102J0D01*
G01X641102D02*
G03X641102I-6102J0D01*
G01X621102Y505000D02*
G03X621102I-6102J0D01*
G01X641102D02*
G03X641102I-6102J0D01*
G01X988898Y951102D02*
X1001102D01*
Y938898*
X988898*
Y951102*
X1021102Y945000D02*
G03X1021102I-6102J0D01*
G01X1001102Y925000D02*
G03X1001102I-6102J0D01*
G01X1021102D02*
G03X1021102I-6102J0D01*
G01X1001102Y905000D02*
G03X1001102I-6102J0D01*
G01X1021102D02*
G03X1021102I-6102J0D01*
G01X1001102Y885000D02*
G03X1001102I-6102J0D01*
G01X1021102D02*
G03X1021102I-6102J0D01*
G01X1001102Y865000D02*
G03X1001102I-6102J0D01*
G01X1021102D02*
G03X1021102I-6102J0D01*
G01X1001102Y845000D02*
G03X1001102I-6102J0D01*
G01X1021102D02*
G03X1021102I-6102J0D01*
G01X1001102Y825000D02*
G03X1001102I-6102J0D01*
G01X1021102D02*
G03X1021102I-6102J0D01*
G01X1001102Y805000D02*
G03X1001102I-6102J0D01*
G01X1021102D02*
G03X1021102I-6102J0D01*
G01X1001102Y785000D02*
G03X1001102I-6102J0D01*
G01X1021102D02*
G03X1021102I-6102J0D01*
G01X1001102Y765000D02*
G03X1001102I-6102J0D01*
G01X1021102D02*
G03X1021102I-6102J0D01*
G01X1001102Y745000D02*
G03X1001102I-6102J0D01*
G01X1021102D02*
G03X1021102I-6102J0D01*
G01X1001102Y725000D02*
G03X1001102I-6102J0D01*
G01X1021102D02*
G03X1021102I-6102J0D01*
G01X1001102Y705000D02*
G03X1001102I-6102J0D01*
G01X1021102D02*
G03X1021102I-6102J0D01*
G01X1001102Y685000D02*
G03X1001102I-6102J0D01*
G01X1021102D02*
G03X1021102I-6102J0D01*
G01X1001102Y665000D02*
G03X1001102I-6102J0D01*
G01X1021102D02*
G03X1021102I-6102J0D01*
G01X1001102Y645000D02*
G03X1001102I-6102J0D01*
G01X1021102D02*
G03X1021102I-6102J0D01*
G01X1001102Y625000D02*
G03X1001102I-6102J0D01*
G01X1021102D02*
G03X1021102I-6102J0D01*
G01X1001102Y605000D02*
G03X1001102I-6102J0D01*
G01X1021102D02*
G03X1021102I-6102J0D01*
G01X1001102Y585000D02*
G03X1001102I-6102J0D01*
G01X1021102D02*
G03X1021102I-6102J0D01*
G01X1001102Y565000D02*
G03X1001102I-6102J0D01*
G01X1021102D02*
G03X1021102I-6102J0D01*
G01X1001102Y545000D02*
G03X1001102I-6102J0D01*
G01X1021102D02*
G03X1021102I-6102J0D01*
G01X1001102Y525000D02*
G03X1001102I-6102J0D01*
G01X1021102D02*
G03X1021102I-6102J0D01*
G01X1001102Y505000D02*
G03X1001102I-6102J0D01*
G01X1021102D02*
G03X1021102I-6102J0D01*
G01X462224Y643839D02*
Y661161D01*
X452776*
Y643839*
X462224*
X711339Y835276D02*
X728661D01*
Y844724*
X711339*
Y835276*
X732776Y836161D02*
Y818839D01*
X742224*
Y836161*
X732776*
X541339Y560276D02*
X558661D01*
Y569724*
X541339*
Y560276*
X575276Y568661D02*
Y551339D01*
X584724*
Y568661*
X575276*
X703661Y569724D02*
X686339D01*
Y560276*
X703661*
Y569724*
X660276Y568661D02*
Y551339D01*
X669724*
Y568661*
X660276*
X541339Y580276D02*
X558661D01*
Y589724*
X541339*
Y580276*
X584724Y581339D02*
Y598661D01*
X575276*
Y581339*
X584724*
X703661Y589724D02*
X686339D01*
Y580276*
X703661*
Y589724*
X669724Y581339D02*
Y598661D01*
X660276*
Y581339*
X669724*
X541339Y617776D02*
X558661D01*
Y627224*
X541339*
Y617776*
X575276Y626161D02*
Y608839D01*
X584724*
Y626161*
X575276*
X703661Y609724D02*
X686339D01*
Y600276*
X703661*
Y609724*
X669724Y603839D02*
Y621161D01*
X660276*
Y603839*
X669724*
X1186161Y662224D02*
X1168839D01*
Y652776*
X1186161*
Y662224*
Y649724D02*
X1168839D01*
Y640276*
X1186161*
Y649724*
X1232776Y773661D02*
Y756339D01*
X1242224*
Y773661*
X1232776*
X1321161Y724724D02*
X1303839D01*
Y715276*
X1321161*
Y724724*
X1245276Y773661D02*
Y756339D01*
X1254724*
Y773661*
X1245276*
X1321161Y742224D02*
X1303839D01*
Y732776*
X1321161*
Y742224*
X1207776Y773661D02*
Y756339D01*
X1217224*
Y773661*
X1207776*
X1168839Y730276D02*
X1186161D01*
Y739724*
X1168839*
Y730276*
X1220276Y773661D02*
Y756339D01*
X1229724*
Y773661*
X1220276*
X1168839Y717776D02*
X1186161D01*
Y727224*
X1168839*
Y717776*
X1247224Y596339D02*
Y613661D01*
X1237776*
Y596339*
X1247224*
X1273661Y614724D02*
X1256339D01*
Y605276*
X1273661*
Y614724*
X1232224Y596339D02*
Y613661D01*
X1222776*
Y596339*
X1232224*
X1196339Y605276D02*
X1213661D01*
Y614724*
X1196339*
Y605276*
X1062776Y323661D02*
Y306339D01*
X1072224*
Y323661*
X1062776*
X486161Y637224D02*
X468839D01*
Y627776*
X486161*
Y637224*
X1245886Y715689D02*
G03X1245886I-3937J0D01*
G01X1249823Y747185D02*
X1215177D01*
Y707815*
X1249823*
Y747185*
X1245886Y638189D02*
G03X1245886I-3937J0D01*
G01X1249823Y669685D02*
X1215177D01*
Y630315*
X1249823*
Y669685*
X476988Y666417D02*
X476201Y665630D01*
X477776Y666417D02*
X476201Y664843D01*
X478563Y666417D02*
X476201Y664055D01*
X479350Y666417D02*
X476201Y663268D01*
X480138Y666417D02*
X476201Y662480D01*
X480925Y666417D02*
X476201Y661693D01*
X481713Y666417D02*
X476201Y660906D01*
X482500Y666417D02*
X476201Y660118D01*
X483287Y666417D02*
X476201Y659331D01*
X484075Y666417D02*
X476201Y658543D01*
Y643583D02*
X488799D01*
Y666417*
X476201*
Y643583*
X562776Y568661D02*
Y551339D01*
X572224*
Y568661*
X562776*
X672776D02*
Y551339D01*
X682224*
Y568661*
X672776*
X572224Y581339D02*
Y598661D01*
X562776*
Y581339*
X572224*
X682224D02*
Y598661D01*
X672776*
Y581339*
X682224*
X562776Y626161D02*
Y608839D01*
X572224*
Y626161*
X562776*
X682224Y603839D02*
Y621161D01*
X672776*
Y603839*
X682224*
X573839Y937776D02*
X591161D01*
Y947224*
X573839*
Y937776*
X436339Y920276D02*
X453661D01*
Y929724*
X436339*
Y920276*
X1276161Y872224D02*
X1258839D01*
Y862776*
X1276161*
Y872224*
X1253661Y882224D02*
X1236339D01*
Y872776*
X1253661*
Y882224*
X1211161Y892224D02*
X1193839D01*
Y882776*
X1211161*
Y892224*
X667776Y861161D02*
Y843839D01*
X677224*
Y861161*
X667776*
X543839Y904026D02*
X561161D01*
Y913474*
X543839*
Y904026*
X403839Y887776D02*
X421161D01*
Y897224*
X403839*
Y887776*
X1086161Y849724D02*
X1068839D01*
Y840276*
X1086161*
Y849724*
X1068839Y532776D02*
X1086161D01*
Y542224*
X1068839*
Y532776*
X738661Y709724D02*
X721339D01*
Y700276*
X738661*
Y709724*
X401988Y928917D02*
X401201Y928130D01*
X402776Y928917D02*
X401201Y927343D01*
X403563Y928917D02*
X401201Y926555D01*
X404350Y928917D02*
X401201Y925768D01*
X405138Y928917D02*
X401201Y924980D01*
X405925Y928917D02*
X401201Y924193D01*
X406713Y928917D02*
X401201Y923406D01*
X407500Y928917D02*
X401201Y922618D01*
X408287Y928917D02*
X401201Y921831D01*
X409075Y928917D02*
X401201Y921043D01*
Y906083D02*
X413799D01*
Y928917*
X401201*
Y906083*
X541988Y943917D02*
X541201Y943130D01*
X542776Y943917D02*
X541201Y942343D01*
X543563Y943917D02*
X541201Y941555D01*
X544350Y943917D02*
X541201Y940768D01*
X545138Y943917D02*
X541201Y939980D01*
X545925Y943917D02*
X541201Y939193D01*
X546713Y943917D02*
X541201Y938406D01*
X547500Y943917D02*
X541201Y937618D01*
X548287Y943917D02*
X541201Y936831D01*
X549075Y943917D02*
X541201Y936043D01*
Y921083D02*
X553799D01*
Y943917*
X541201*
Y921083*
X307463Y1013944D02*
X306971Y1013765D01*
X306479Y1013407*
X306233Y1013049*
Y1012334*
X306479Y1011976*
X306971Y1011618*
X307463Y1011439*
X308201Y1011260*
X309432*
X310170Y1011439*
X310662Y1011618*
X311154Y1011976*
X311400Y1012334*
Y1013049*
X311154Y1013407*
X310662Y1013765*
X310170Y1013944*
X307217Y1015555D02*
X306971Y1015913D01*
X306233Y1016450*
X311400*
X1214386Y530037D02*
X1214207Y530529D01*
X1213849Y531021*
X1213491Y531267*
X1212776*
X1212418Y531021*
X1212060Y530529*
X1211881Y530037*
X1211702Y529299*
Y528068*
X1211881Y527330*
X1212060Y526838*
X1212418Y526346*
X1212776Y526100*
X1213491*
X1213849Y526346*
X1214207Y526838*
X1214386Y527330*
X1215997Y530283D02*
X1216355Y530529D01*
X1216892Y531267*
Y526100*
X1219576Y531267D02*
X1219039Y531021D01*
X1218681Y530283*
X1218502Y529053*
Y528314*
X1218681Y527084*
X1219039Y526346*
X1219576Y526100*
X1219934*
X1220471Y526346*
X1220829Y527084*
X1221008Y528314*
Y529053*
X1220829Y530283*
X1220471Y531021*
X1219934Y531267*
X1219576*
X1197691Y530037D02*
X1197513Y530529D01*
X1197155Y531021*
X1196797Y531267*
X1196081*
X1195723Y531021*
X1195365Y530529*
X1195186Y530037*
X1195007Y529299*
Y528068*
X1195186Y527330*
X1195365Y526838*
X1195723Y526346*
X1196081Y526100*
X1196797*
X1197155Y526346*
X1197513Y526838*
X1197691Y527330*
X1199302Y530283D02*
X1199660Y530529D01*
X1200197Y531267*
Y526100*
X1201807Y530283D02*
X1202165Y530529D01*
X1202702Y531267*
Y526100*
X1220174Y546686D02*
X1219995Y547178D01*
X1219637Y547670*
X1219279Y547916*
X1218563*
X1218205Y547670*
X1217847Y547178*
X1217668Y546686*
X1217489Y545947*
Y544717*
X1217668Y543979*
X1217847Y543487*
X1218205Y542995*
X1218563Y542749*
X1219279*
X1219637Y542995*
X1219995Y543487*
X1220174Y543979*
X1221784Y546932D02*
X1222142Y547178D01*
X1222679Y547916*
Y542749*
X1224469Y546686D02*
Y546932D01*
X1224647Y547424*
X1224826Y547670*
X1225184Y547916*
X1225900*
X1226258Y547670*
X1226437Y547424*
X1226616Y546932*
Y546439*
X1226437Y545947*
X1226079Y545209*
X1224290Y542749*
X1226795*
X1177674Y531686D02*
X1177495Y532178D01*
X1177137Y532670*
X1176779Y532916*
X1176063*
X1175705Y532670*
X1175347Y532178*
X1175168Y531686*
X1174989Y530947*
Y529717*
X1175168Y528979*
X1175347Y528487*
X1175705Y527995*
X1176063Y527749*
X1176779*
X1177137Y527995*
X1177495Y528487*
X1177674Y528979*
X1179284Y531932D02*
X1179642Y532178D01*
X1180179Y532916*
Y527749*
X1182147Y532916D02*
X1184116D01*
X1183042Y530947*
X1183579*
X1183937Y530701*
X1184116Y530455*
X1184295Y529717*
Y529225*
X1184116Y528487*
X1183758Y527995*
X1183221Y527749*
X1182684*
X1182147Y527995*
X1181969Y528241*
X1181790Y528733*
X1185814Y795084D02*
X1185322Y794905D01*
X1184830Y794547*
X1184584Y794189*
Y793474*
X1184830Y793116*
X1185322Y792758*
X1185814Y792579*
X1186553Y792400*
X1187783*
X1188521Y792579*
X1189013Y792758*
X1189505Y793116*
X1189751Y793474*
Y794189*
X1189505Y794547*
X1189013Y794905*
X1188521Y795084*
X1185568Y796695D02*
X1185322Y797053D01*
X1184584Y797589*
X1189751*
X1184584Y800990D02*
X1188029Y799200D01*
Y801884*
X1184584Y800990D02*
X1189751D01*
X1133314Y992584D02*
X1132822Y992405D01*
X1132330Y992047*
X1132084Y991689*
Y990974*
X1132330Y990616*
X1132822Y990258*
X1133314Y990079*
X1134053Y989900*
X1135283*
X1136021Y990079*
X1136513Y990258*
X1137005Y990616*
X1137251Y990974*
Y991689*
X1137005Y992047*
X1136513Y992405*
X1136021Y992584*
X1133068Y994195D02*
X1132822Y994553D01*
X1132084Y995089*
X1137251*
X1132084Y999026D02*
Y997237D01*
X1134299Y997058*
X1134053Y997237*
X1133807Y997774*
Y998311*
X1134053Y998848*
X1134545Y999205*
X1135283Y999384*
X1135775Y999205*
X1136513Y999026*
X1137005Y998669*
X1137251Y998132*
Y997595*
X1137005Y997058*
X1136759Y996879*
X1136267Y996700*
X1015263Y321686D02*
X1015084Y322178D01*
X1014726Y322670*
X1014368Y322916*
X1013652*
X1013295Y322670*
X1012937Y322178*
X1012758Y321686*
X1012579Y320947*
Y319717*
X1012758Y318979*
X1012937Y318487*
X1013295Y317995*
X1013652Y317749*
X1014368*
X1014726Y317995*
X1015084Y318487*
X1015263Y318979*
X1016874Y321932D02*
X1017232Y322178D01*
X1017768Y322916*
Y317749*
X1021526Y322178D02*
X1021348Y322670D01*
X1020811Y322916*
X1020453*
X1019916Y322670*
X1019558Y321932*
X1019379Y320701*
Y319471*
X1019558Y318487*
X1019916Y317995*
X1020453Y317749*
X1020632*
X1021169Y317995*
X1021526Y318487*
X1021705Y319225*
Y319471*
X1021526Y320209*
X1021169Y320701*
X1020632Y320947*
X1020453*
X1019916Y320701*
X1019558Y320209*
X1019379Y319471*
X1281424Y729186D02*
X1281245Y729678D01*
X1280887Y730170*
X1280529Y730416*
X1279813*
X1279455Y730170*
X1279097Y729678*
X1278918Y729186*
X1278739Y728447*
Y727217*
X1278918Y726479*
X1279097Y725987*
X1279455Y725495*
X1279813Y725249*
X1280529*
X1280887Y725495*
X1281245Y725987*
X1281424Y726479*
X1283034Y729432D02*
X1283392Y729678D01*
X1283929Y730416*
Y725249*
X1288045Y730416D02*
X1286255Y725249D01*
X1285540Y730416D02*
X1288045D01*
X1282763Y651686D02*
X1282584Y652178D01*
X1282226Y652670*
X1281868Y652916*
X1281152*
X1280795Y652670*
X1280437Y652178*
X1280258Y651686*
X1280079Y650947*
Y649717*
X1280258Y648979*
X1280437Y648487*
X1280795Y647995*
X1281152Y647749*
X1281868*
X1282226Y647995*
X1282584Y648487*
X1282763Y648979*
X1284374Y651932D02*
X1284732Y652178D01*
X1285268Y652916*
Y647749*
X1289205Y651193D02*
X1289026Y650455D01*
X1288669Y649963*
X1288132Y649717*
X1287953*
X1287416Y649963*
X1287058Y650455*
X1286879Y651193*
Y651439*
X1287058Y652178*
X1287416Y652670*
X1287953Y652916*
X1288132*
X1288669Y652670*
X1289026Y652178*
X1289205Y651193*
Y649963*
X1289026Y648733*
X1288669Y647995*
X1288132Y647749*
X1287774*
X1287237Y647995*
X1287058Y648487*
X524963Y1013139D02*
X524471Y1012960D01*
X523979Y1012602*
X523733Y1012244*
Y1011528*
X523979Y1011170*
X524471Y1010812*
X524963Y1010634*
X524963D02*
X525701Y1010455D01*
X526932*
X527670Y1010634*
X527670D02*
X528162Y1010812D01*
X528654Y1011170*
X528900Y1011528*
Y1012244*
X528654Y1012602*
X528162Y1012960*
X527670Y1013139*
X524963Y1014928D02*
X524717D01*
X524225Y1015107*
X523979Y1015286*
X523733Y1015644*
Y1016360*
X523979Y1016718*
X524225Y1016897*
X524717Y1017076*
X525209*
X525701Y1016897*
X526439Y1016539*
X528900Y1014749*
Y1017255*
X1311081Y780037D02*
X1310902Y780529D01*
X1310544Y781021*
X1310186Y781267*
X1309470*
X1309112Y781021*
X1308754Y780529*
X1308576Y780037*
X1308397Y779299*
Y778068*
X1308576Y777330*
X1308754Y776838*
X1309112Y776346*
X1309470Y776100*
X1310186*
X1310544Y776346*
X1310902Y776838*
X1311081Y777330*
X1312870Y780037D02*
Y780283D01*
X1313049Y780775*
X1313228Y781021*
X1313586Y781267*
X1314302*
X1314660Y781021*
X1314839Y780775*
X1315018Y780283*
Y779791*
X1314839Y779299*
X1314481Y778561*
X1312691Y776100*
X1315197*
X1317881Y781267D02*
X1317344Y781021D01*
X1316986Y780283*
X1316807Y779053*
Y778314*
X1316986Y777084*
X1317344Y776346*
X1317881Y776100*
X1318239*
X1318776Y776346*
X1319134Y777084*
X1319313Y778314*
Y779053*
X1319134Y780283*
X1318776Y781021*
X1318239Y781267*
X1317881*
X1311886Y700037D02*
X1311707Y700529D01*
X1311349Y701021*
X1310991Y701267*
X1310276*
X1309918Y701021*
X1309560Y700529*
X1309381Y700037*
X1309202Y699299*
Y698068*
X1309381Y697330*
X1309560Y696838*
X1309918Y696346*
X1310276Y696100*
X1310991*
X1311349Y696346*
X1311707Y696838*
X1311886Y697330*
X1313676Y700037D02*
Y700283D01*
X1313855Y700775*
X1314034Y701021*
X1314392Y701267*
X1315107*
X1315465Y701021*
X1315644Y700775*
X1315823Y700283*
Y699791*
X1315644Y699299*
X1315286Y698561*
X1313497Y696100*
X1316002*
X1317613Y700283D02*
X1317971Y700529D01*
X1318508Y701267*
Y696100*
X1311081Y620037D02*
X1310902Y620529D01*
X1310544Y621021*
X1310186Y621267*
X1309470*
X1309112Y621021*
X1308754Y620529*
X1308576Y620037*
X1308397Y619299*
Y618068*
X1308576Y617330*
X1308754Y616838*
X1309112Y616346*
X1309470Y616100*
X1310186*
X1310544Y616346*
X1310902Y616838*
X1311081Y617330*
X1312870Y620037D02*
Y620283D01*
X1313049Y620775*
X1313228Y621021*
X1313586Y621267*
X1314302*
X1314660Y621021*
X1314839Y620775*
X1315018Y620283*
Y619791*
X1314839Y619299*
X1314481Y618561*
X1312691Y616100*
X1315197*
X1316986Y620037D02*
Y620283D01*
X1317165Y620775*
X1317344Y621021*
X1317702Y621267*
X1318418*
X1318776Y621021*
X1318955Y620775*
X1319134Y620283*
Y619791*
X1318955Y619299*
X1318597Y618561*
X1316807Y616100*
X1319313*
X1159279Y409186D02*
X1159100Y409678D01*
X1158742Y410170*
X1158384Y410416*
X1157668*
X1157310Y410170*
X1156952Y409678*
X1156773Y409186*
X1156594Y408447*
Y407217*
X1156773Y406479*
X1156952Y405987*
X1157310Y405495*
X1157668Y405249*
X1158384*
X1158742Y405495*
X1159100Y405987*
X1159279Y406479*
X1161068Y409186D02*
Y409432D01*
X1161247Y409924*
X1161426Y410170*
X1161784Y410416*
X1162500*
X1162858Y410170*
X1163037Y409924*
X1163216Y409432*
Y408939*
X1163037Y408447*
X1162679Y407709*
X1160889Y405249*
X1163395*
X1166795Y410416D02*
X1165005Y406971D01*
X1167690*
X1166795Y410416D02*
Y405249D01*
X1160529Y315436D02*
X1160350Y315928D01*
X1159992Y316420*
X1159634Y316666*
X1158918*
X1158560Y316420*
X1158202Y315928*
X1158023Y315436*
X1157844Y314697*
Y313467*
X1158023Y312729*
X1158202Y312237*
X1158560Y311745*
X1158918Y311499*
X1159634*
X1159992Y311745*
X1160350Y312237*
X1160529Y312729*
X1162318Y315436D02*
Y315682D01*
X1162497Y316174*
X1162676Y316420*
X1163034Y316666*
X1163750*
X1164108Y316420*
X1164287Y316174*
X1164466Y315682*
Y315189*
X1164287Y314697*
X1163929Y313959*
X1162139Y311499*
X1164645*
X1168582Y316666D02*
X1166792D01*
X1166613Y314451*
X1166792Y314697*
X1167329Y314943*
X1167866*
X1168403Y314697*
X1168761Y314205*
X1168940Y313467*
X1168761Y312975*
X1168582Y312237*
X1168224Y311745*
X1167687Y311499*
X1167150*
X1166613Y311745*
X1166434Y311991*
X1166255Y312483*
X1094458Y1091686D02*
X1094279Y1092178D01*
X1093921Y1092670*
X1093563Y1092916*
X1092847*
X1092489Y1092670*
X1092131Y1092178*
X1091952Y1091686*
X1091773Y1090947*
Y1089717*
X1091952Y1088979*
X1092131Y1088487*
X1092489Y1087995*
X1092847Y1087749*
X1093563*
X1093921Y1087995*
X1094279Y1088487*
X1094458Y1088979*
X1096247Y1091686D02*
Y1091932D01*
X1096426Y1092424*
X1096605Y1092670*
X1096963Y1092916*
X1097679*
X1098037Y1092670*
X1098216Y1092424*
X1098395Y1091932*
Y1091439*
X1098216Y1090947*
X1097858Y1090209*
X1096068Y1087749*
X1098574*
X1102332Y1092178D02*
X1102153Y1092670D01*
X1101616Y1092916*
X1101258*
X1100721Y1092670*
X1100363Y1091932*
X1100184Y1090701*
Y1089471*
X1100363Y1088487*
X1100721Y1087995*
X1101258Y1087749*
X1101437*
X1101974Y1087995*
X1102332Y1088487*
X1102511Y1089225*
Y1089471*
X1102332Y1090209*
X1101974Y1090701*
X1101437Y1090947*
X1101258*
X1100721Y1090701*
X1100363Y1090209*
X1100184Y1089471*
X744963Y1013139D02*
X744471Y1012960D01*
X743979Y1012602*
X743733Y1012244*
Y1011528*
X743979Y1011170*
X744471Y1010812*
X744963Y1010634*
X744963D02*
X745701Y1010455D01*
X746932*
X747670Y1010634*
X747670D02*
X748162Y1010812D01*
X748654Y1011170*
X748900Y1011528*
Y1012244*
X748654Y1012602*
X748162Y1012960*
X747670Y1013139*
X743733Y1015107D02*
Y1017076D01*
X745701Y1016002*
Y1016539*
X745947Y1016897*
X746193Y1017076*
X746932Y1017255*
X747424*
X748162Y1017076*
X748654Y1016718*
X748900Y1016181*
Y1015644*
X748654Y1015107*
X748408Y1014928*
X747916Y1014749*
X280814Y882674D02*
X280322Y882495D01*
X279830Y882137*
X279584Y881779*
Y881063*
X279830Y880705*
X280322Y880347*
X280814Y880168*
X281553Y879989*
X282783*
X283521Y880168*
X284013Y880347*
X284505Y880705*
X284751Y881063*
Y881779*
X284505Y882137*
X284013Y882495*
X283521Y882674*
X279584Y884642D02*
Y886611D01*
X281553Y885537*
Y886074*
X281799Y886432*
X282045Y886611*
X282783Y886790*
X283275*
X284013Y886611*
X284505Y886253*
X284751Y885716*
Y885179*
X284505Y884642*
X284259Y884463*
X283767Y884284*
X280568Y888400D02*
X280322Y888758D01*
X279584Y889295*
X284751*
X283314Y734279D02*
X282822Y734100D01*
X282330Y733742*
X282084Y733384*
Y732668*
X282330Y732310*
X282822Y731952*
X283314Y731773*
X284053Y731594*
X285283*
X286021Y731773*
X286513Y731952*
X287005Y732310*
X287251Y732668*
Y733384*
X287005Y733742*
X286513Y734100*
X286021Y734279*
X282084Y736247D02*
Y738216D01*
X284053Y737142*
Y737679*
X284299Y738037*
X284545Y738216*
X285283Y738395*
X285775*
X286513Y738216*
X287005Y737858*
X287251Y737321*
Y736784*
X287005Y736247*
X286759Y736068*
X286267Y735889*
X282084Y741795D02*
X285529Y740005D01*
Y742690*
X282084Y741795D02*
X287251D01*
X803314Y856337D02*
X802822Y856158D01*
X802330Y855800*
X802084Y855442*
Y854726*
X802330Y854368*
X802822Y854010*
X803314Y853831*
X804053Y853652*
X805283*
X806021Y853831*
X806513Y854010*
X807005Y854368*
X807251Y854726*
Y855442*
X807005Y855800*
X806513Y856158*
X806021Y856337*
X802084Y859737D02*
X805529Y857947D01*
Y860632*
X802084Y859737D02*
X807251D01*
X1041516Y1004186D02*
X1041337Y1004678D01*
X1040979Y1005170*
X1040621Y1005416*
X1039905*
X1039547Y1005170*
X1039189Y1004678*
X1039010Y1004186*
X1038831Y1003447*
Y1002217*
X1039010Y1001479*
X1039189Y1000987*
X1039547Y1000495*
X1039905Y1000249*
X1040621*
X1040979Y1000495*
X1041337Y1000987*
X1041516Y1001479*
X1045274Y1004678D02*
X1045095Y1005170D01*
X1044558Y1005416*
X1044200*
X1043663Y1005170*
X1043305Y1004432*
X1043126Y1003201*
Y1001971*
X1043305Y1000987*
X1043663Y1000495*
X1044200Y1000249*
X1044379*
X1044916Y1000495*
X1045274Y1000987*
X1045453Y1001725*
Y1001971*
X1045274Y1002709*
X1044916Y1003201*
X1044379Y1003447*
X1044200*
X1043663Y1003201*
X1043305Y1002709*
X1043126Y1001971*
X1368314Y1033926D02*
X1367822Y1033747D01*
X1367330Y1033389*
X1367084Y1033031*
Y1032316*
X1367330Y1031958*
X1367822Y1031600*
X1368314Y1031421*
X1369053Y1031242*
X1370283*
X1371021Y1031421*
X1371513Y1031600*
X1372005Y1031958*
X1372251Y1032316*
Y1033031*
X1372005Y1033389*
X1371513Y1033747*
X1371021Y1033926*
X1367084Y1038042D02*
X1372251Y1036253D01*
X1367084Y1035537D02*
Y1038042D01*
X1239963Y445728D02*
X1239471Y445549D01*
X1238979Y445191*
X1238733Y444834*
Y444118*
X1238979Y443760*
X1239471Y443402*
X1239963Y443223*
X1240701Y443044*
X1241932*
X1242670Y443223*
X1243162Y443402*
X1243654Y443760*
X1243900Y444118*
Y444834*
X1243654Y445191*
X1243162Y445549*
X1242670Y445728*
X1240455Y449665D02*
X1241193Y449486D01*
X1241686Y449128*
X1241932Y448592*
Y448413*
X1241686Y447876*
X1241193Y447518*
X1240455Y447339*
X1240209*
X1239471Y447518*
X1238979Y447876*
X1238733Y448413*
Y448592*
X1238979Y449128*
X1239471Y449486*
X1240455Y449665*
X1241686*
X1242916Y449486*
X1243654Y449128*
X1243900Y448592*
Y448234*
X1243654Y447697*
X1243162Y447518*
X489584Y944637D02*
X494751D01*
X489584D02*
Y946247D01*
X489830Y946784*
X490076Y946963*
X490568Y947142*
X491061*
X491553Y946963*
X491799Y946784*
X492045Y946247*
Y944637*
Y945889D02*
X494751Y947142D01*
X490568Y948753D02*
X490322Y949111D01*
X489584Y949647*
X494751*
X1093733Y1064291D02*
X1098900D01*
X1093733D02*
Y1065902D01*
X1093979Y1066439*
X1094225Y1066618*
X1094717Y1066797*
X1095209*
X1095701Y1066618*
X1095947Y1066439*
X1096193Y1065902*
Y1064291*
Y1065544D02*
X1098900Y1066797D01*
X1094717Y1068407D02*
X1094471Y1068765D01*
X1093733Y1069302*
X1098900*
X1093733Y1071986D02*
X1093979Y1071450D01*
X1094717Y1071092*
X1095947Y1070913*
X1096686*
X1097916Y1071092*
X1098654Y1071450*
X1098900Y1071986*
Y1072344*
X1098654Y1072881*
X1097916Y1073239*
X1096686Y1073418*
X1095947*
X1094717Y1073239*
X1093979Y1072881*
X1093733Y1072344*
Y1071986*
X1106233Y1040097D02*
X1111400D01*
X1106233D02*
Y1041707D01*
X1106479Y1042244*
X1106725Y1042423*
X1107217Y1042602*
X1107709*
X1108201Y1042423*
X1108447Y1042244*
X1108693Y1041707*
Y1040097*
Y1041349D02*
X1111400Y1042602D01*
X1107217Y1044213D02*
X1106971Y1044571D01*
X1106233Y1045107*
X1111400*
X1107217Y1046718D02*
X1106971Y1047076D01*
X1106233Y1047613*
X1111400*
X1093733Y1039291D02*
X1098900D01*
X1093733D02*
Y1040902D01*
X1093979Y1041439*
X1094225Y1041618*
X1094717Y1041797*
X1095209*
X1095701Y1041618*
X1095947Y1041439*
X1096193Y1040902*
Y1039291*
Y1040544D02*
X1098900Y1041797D01*
X1094717Y1043407D02*
X1094471Y1043765D01*
X1093733Y1044302*
X1098900*
X1094963Y1046092D02*
X1094717D01*
X1094225Y1046271*
X1093979Y1046450*
X1093733Y1046807*
Y1047523*
X1093979Y1047881*
X1094225Y1048060*
X1094717Y1048239*
X1095209*
X1095701Y1048060*
X1096439Y1047702*
X1098900Y1045913*
Y1048418*
X714381Y853767D02*
Y848600D01*
Y853767D02*
X715991D01*
X716528Y853521*
X716707Y853275*
X716886Y852783*
Y852291*
X716707Y851799*
X716528Y851553*
X715991Y851307*
X714381*
X715634D02*
X716886Y848600D01*
X718497Y852783D02*
X718855Y853029D01*
X719392Y853767*
Y848600*
X723329Y852045D02*
X723150Y851307D01*
X722792Y850814*
X722255Y850568*
X722076*
X721539Y850814*
X721181Y851307*
X721002Y852045*
Y852291*
X721181Y853029*
X721539Y853521*
X722076Y853767*
X722255*
X722792Y853521*
X723150Y853029*
X723329Y852045*
Y850814*
X723150Y849584*
X722792Y848846*
X722255Y848600*
X721897*
X721360Y848846*
X721181Y849338*
X714584Y962581D02*
X719751D01*
X714584D02*
Y964192D01*
X714830Y964729*
X715076Y964908*
X715568Y965087*
X716061*
X716553Y964908*
X716799Y964729*
X717045Y964192*
Y962581*
Y963834D02*
X719751Y965087D01*
X715814Y966876D02*
X715568D01*
X715076Y967055*
X714830Y967234*
X714584Y967592*
Y968308*
X714830Y968666*
X715076Y968845*
X715568Y969024*
X716061*
X716553Y968845*
X717291Y968487*
X719751Y966697*
Y969203*
X747084Y821773D02*
X752251D01*
X747084D02*
Y823384D01*
X747330Y823921*
X747576Y824100*
X748068Y824279*
X748561*
X749053Y824100*
X749299Y823921*
X749545Y823384*
Y821773*
Y823026D02*
X752251Y824279D01*
X748314Y826068D02*
X748068D01*
X747576Y826247*
X747330Y826426*
X747084Y826784*
Y827500*
X747330Y827858*
X747576Y828037*
X748068Y828216*
X748561*
X749053Y828037*
X749791Y827679*
X752251Y825889*
Y828395*
X747084Y831079D02*
X747330Y830542D01*
X748068Y830184*
X749299Y830005*
X750037*
X751267Y830184*
X752005Y830542*
X752251Y831079*
Y831437*
X752005Y831974*
X751267Y832332*
X750037Y832511*
X749299*
X748068Y832332*
X747330Y831974*
X747084Y831437*
Y831079*
X759584Y822579D02*
X764751D01*
X759584D02*
Y824189D01*
X759830Y824726*
X760076Y824905*
X760568Y825084*
X761061*
X761553Y824905*
X761799Y824726*
X762045Y824189*
Y822579*
Y823831D02*
X764751Y825084D01*
X760814Y826874D02*
X760568D01*
X760076Y827053*
X759830Y827232*
X759584Y827589*
Y828305*
X759830Y828663*
X760076Y828842*
X760568Y829021*
X761061*
X761553Y828842*
X762291Y828484*
X764751Y826695*
Y829200*
X760568Y830811D02*
X760322Y831169D01*
X759584Y831705*
X764751*
X1191233Y854736D02*
X1196400D01*
X1191233D02*
Y856347D01*
X1191479Y856884*
X1191479D02*
X1191725Y857062D01*
X1192217Y857241*
X1192709*
X1193201Y857062*
X1193447Y856884*
X1193447D02*
X1193693Y856347D01*
Y854736*
Y855989D02*
X1196400Y857241D01*
X1192463Y859031D02*
X1192217D01*
X1191725Y859210*
X1191479Y859389*
X1191233Y859747*
Y860463*
X1191479Y860821*
X1191725Y860999*
X1192217Y861178*
X1192709*
X1193201Y860999*
X1193939Y860642*
X1196400Y858852*
Y861357*
X1192463Y863147D02*
X1192217D01*
X1191725Y863326*
X1191479Y863505*
X1191233Y863863*
Y864579*
X1191479Y864936*
X1191725Y865115*
X1192217Y865294*
X1192709*
X1193201Y865115*
X1193939Y864758*
X1196400Y862968*
Y865473*
X1166773Y775416D02*
Y770249D01*
Y775416D02*
X1168384D01*
X1168921Y775170*
X1169100Y774924*
X1169279Y774432*
Y773939*
X1169100Y773447*
X1168921Y773201*
X1168384Y772955*
X1166773*
X1168026D02*
X1169279Y770249D01*
X1171068Y774186D02*
Y774432D01*
X1171247Y774924*
X1171426Y775170*
X1171784Y775416*
X1172500*
X1172858Y775170*
X1173037Y774924*
X1173216Y774432*
Y773939*
X1173037Y773447*
X1172679Y772709*
X1170889Y770249*
X1173395*
X1175363Y775416D02*
X1177332D01*
X1176258Y773447*
X1176795*
X1177153Y773201*
X1177332Y772955*
X1177511Y772217*
Y771725*
X1177332Y770987*
X1176974Y770495*
X1176437Y770249*
X1175900*
X1175363Y770495*
X1175184Y770741*
X1175005Y771233*
X1009584Y398023D02*
X1014751D01*
X1009584D02*
Y399634D01*
X1009830Y400171*
X1010076Y400350*
X1010568Y400529*
X1011061*
X1011553Y400350*
X1011799Y400171*
X1012045Y399634*
Y398023*
Y399276D02*
X1014751Y400529D01*
X1010814Y402318D02*
X1010568D01*
X1010076Y402497*
X1009830Y402676*
X1009584Y403034*
Y403750*
X1009830Y404108*
X1010076Y404287*
X1010568Y404466*
X1011061*
X1011553Y404287*
X1012291Y403929*
X1014751Y402139*
Y404645*
X1009584Y407150D02*
X1009830Y406613D01*
X1010322Y406434*
X1010814*
X1011307Y406613*
X1011553Y406971*
X1011799Y407687*
X1012045Y408224*
X1012537Y408582*
X1013029Y408761*
X1013767*
X1014259Y408582*
X1014505Y408403*
X1014751Y407866*
Y407150*
X1014505Y406613*
X1014259Y406434*
X1013767Y406255*
X1013029*
X1012537Y406434*
X1012045Y406792*
X1011799Y407329*
X1011553Y408045*
X1011307Y408403*
X1010814Y408582*
X1010322*
X1009830Y408403*
X1009584Y407866*
Y407150*
X979584Y373113D02*
X984751D01*
X979584D02*
Y374724D01*
X979830Y375260*
X980076Y375439*
X980568Y375618*
X981061*
X981553Y375439*
X981799Y375260*
X982045Y374724*
Y373113*
Y374366D02*
X984751Y375618D01*
X980814Y377408D02*
X980568D01*
X980076Y377587*
X979830Y377766*
X979584Y378124*
Y378839*
X979830Y379197*
X980076Y379376*
X980568Y379555*
X981061*
X981553Y379376*
X982291Y379018*
X984751Y377229*
Y379734*
X981307Y383671D02*
X982045Y383492D01*
X982537Y383134*
X982783Y382598*
Y382419*
X982537Y381882*
X982045Y381524*
X981307Y381345*
X981061*
X980322Y381524*
X979830Y381882*
X979584Y382419*
Y382598*
X979830Y383134*
X980322Y383492*
X981307Y383671*
X982537*
X983767Y383492*
X984505Y383134*
X984751Y382598*
Y382240*
X984505Y381703*
X984013Y381524*
X863334Y961331D02*
X868501D01*
X863334D02*
Y962942D01*
X863580Y963479*
X863826Y963658*
X864318Y963837*
X864811*
X865303Y963658*
X865549Y963479*
X865795Y962942*
Y961331*
Y962584D02*
X868501Y963837D01*
X863334Y965805D02*
Y967774D01*
X865303Y966700*
Y967237*
X865549Y967595*
X865795Y967774*
X866533Y967953*
X867025*
X867763Y967774*
X868255Y967416*
X868501Y966879*
Y966342*
X868255Y965805*
X868009Y965626*
X867517Y965447*
X279584Y854273D02*
X284751D01*
X279584D02*
Y855884D01*
X279830Y856421*
X280076Y856600*
X280568Y856779*
X281061*
X281553Y856600*
X281799Y856421*
X282045Y855884*
Y854273*
Y855526D02*
X284751Y856779D01*
X279584Y858747D02*
Y860716D01*
X281553Y859642*
Y860179*
X281799Y860537*
X282045Y860716*
X282783Y860895*
X283275*
X284013Y860716*
X284505Y860358*
X284751Y859821*
Y859284*
X284505Y858747*
X284259Y858568*
X283767Y858389*
X279584Y863579D02*
X279830Y863042D01*
X280568Y862684*
X281799Y862505*
X282537*
X283767Y862684*
X284505Y863042*
X284751Y863579*
Y863937*
X284505Y864474*
X283767Y864832*
X282537Y865011*
X281799*
X280568Y864832*
X279830Y864474*
X279584Y863937*
Y863579*
X296233Y854291D02*
X301400D01*
X296233D02*
Y855902D01*
X296479Y856439*
X296725Y856618*
X297217Y856797*
X297709*
X298201Y856618*
X298447Y856439*
X298693Y855902*
Y854291*
Y855544D02*
X301400Y856797D01*
X296233Y858765D02*
Y860734D01*
X298201Y859660*
Y860197*
X298447Y860555*
X298693Y860734*
X299432Y860913*
X299924*
X300662Y860734*
X301154Y860376*
X301400Y859839*
Y859302*
X301154Y858765*
X300908Y858586*
X300416Y858407*
X297217Y862523D02*
X296971Y862881D01*
X296233Y863418*
X301400*
X349584Y839273D02*
X354751D01*
X349584D02*
Y840884D01*
X349830Y841421*
X350076Y841600*
X350568Y841779*
X351061*
X351553Y841600*
X351799Y841421*
X352045Y840884*
Y839273*
Y840526D02*
X354751Y841779D01*
X349584Y843747D02*
Y845716D01*
X351553Y844642*
Y845179*
X351799Y845537*
X352045Y845716*
X352783Y845895*
X353275*
X354013Y845716*
X354505Y845358*
X354751Y844821*
Y844284*
X354505Y843747*
X354259Y843568*
X353767Y843389*
X350814Y847684D02*
X350568D01*
X350076Y847863*
X349830Y848042*
X349584Y848400*
Y849116*
X349830Y849474*
X350076Y849653*
X350568Y849832*
X351061*
X351553Y849653*
X352291Y849295*
X354751Y847505*
Y850011*
X352084Y691773D02*
X357251D01*
X352084D02*
Y693384D01*
X352330Y693921*
X352576Y694100*
X353068Y694279*
X353561*
X354053Y694100*
X354299Y693921*
X354545Y693384*
Y691773*
Y693026D02*
X357251Y694279D01*
X352084Y696247D02*
Y698216D01*
X354053Y697142*
Y697679*
X354299Y698037*
X354545Y698216*
X355283Y698395*
X355775*
X356513Y698216*
X357005Y697858*
X357251Y697321*
Y696784*
X357005Y696247*
X356759Y696068*
X356267Y695889*
X352084Y700363D02*
Y702332D01*
X354053Y701258*
Y701795*
X354299Y702153*
X354545Y702332*
X355283Y702511*
X355775*
X356513Y702332*
X357005Y701974*
X357251Y701437*
Y700900*
X357005Y700363*
X356759Y700184*
X356267Y700005*
X282084Y706684D02*
X287251D01*
X282084D02*
Y708295D01*
X282330Y708831*
X282576Y709010*
X283068Y709189*
X283561*
X284053Y709010*
X284299Y708831*
X284545Y708295*
Y706684*
Y707937D02*
X287251Y709189D01*
X282084Y711158D02*
Y713126D01*
X284053Y712053*
Y712589*
X284299Y712947*
X284545Y713126*
X285283Y713305*
X285775*
X286513Y713126*
X287005Y712768*
X287251Y712232*
Y711695*
X287005Y711158*
X286759Y710979*
X286267Y710800*
X282084Y716705D02*
X285529Y714916D01*
Y717600*
X282084Y716705D02*
X287251D01*
X298733Y705897D02*
X303900D01*
X298733D02*
Y707507D01*
X298979Y708044*
X299225Y708223*
X299717Y708402*
X300209*
X300701Y708223*
X300947Y708044*
X301193Y707507*
Y705897*
Y707149D02*
X303900Y708402D01*
X298733Y710370D02*
Y712339D01*
X300701Y711265*
Y711802*
X300947Y712160*
X301193Y712339*
X301932Y712518*
X302424*
X303162Y712339*
X303654Y711981*
X303900Y711444*
Y710907*
X303654Y710370*
X303408Y710191*
X302916Y710013*
X298733Y716455D02*
Y714665D01*
X300947Y714486*
X300701Y714665*
X300455Y715202*
Y715739*
X300701Y716276*
X301193Y716634*
X301932Y716813*
X302424Y716634*
X303162Y716455*
X303654Y716097*
X303900Y715560*
Y715023*
X303654Y714486*
X303408Y714307*
X302916Y714128*
X312084Y861863D02*
X317251D01*
X312084D02*
Y863474D01*
X312330Y864010*
X312576Y864189*
X313068Y864368*
X313561*
X314053Y864189*
X314299Y864010*
X314545Y863474*
Y861863*
Y863116D02*
X317251Y864368D01*
X312084Y866337D02*
Y868305D01*
X314053Y867232*
Y867768*
X314299Y868126*
X314545Y868305*
X315283Y868484*
X315775*
X316513Y868305*
X317005Y867947*
X317251Y867411*
Y866874*
X317005Y866337*
X316759Y866158*
X316267Y865979*
X312822Y872242D02*
X312330Y872063D01*
X312084Y871526*
Y871169*
X312330Y870632*
X313068Y870274*
X314299Y870095*
X315529*
X316513Y870274*
X317005Y870632*
X317251Y871169*
Y871348*
X317005Y871884*
X316513Y872242*
X315775Y872421*
X315529*
X314791Y872242*
X314299Y871884*
X314053Y871348*
Y871169*
X314299Y870632*
X314791Y870274*
X315529Y870095*
X314584Y714273D02*
X319751D01*
X314584D02*
Y715884D01*
X314830Y716421*
X315076Y716600*
X315568Y716779*
X316061*
X316553Y716600*
X316799Y716421*
X317045Y715884*
Y714273*
Y715526D02*
X319751Y716779D01*
X314584Y718747D02*
Y720716D01*
X316553Y719642*
Y720179*
X316799Y720537*
X317045Y720716*
X317783Y720895*
X318275*
X319013Y720716*
X319505Y720358*
X319751Y719821*
Y719284*
X319505Y718747*
X319259Y718568*
X318767Y718389*
X314584Y723400D02*
X314830Y722863D01*
X315322Y722684*
X315814*
X316307Y722863*
X316553Y723221*
X316799Y723937*
X317045Y724474*
X317537Y724832*
X318029Y725011*
X318767*
X319259Y724832*
X319505Y724653*
X319751Y724116*
Y723400*
X319505Y722863*
X319259Y722684*
X318767Y722505*
X318029*
X317537Y722684*
X317045Y723042*
X316799Y723579*
X316553Y724295*
X316307Y724653*
X315814Y724832*
X315322*
X314830Y724653*
X314584Y724116*
Y723400*
X386242Y962916D02*
Y957749D01*
Y962916D02*
X387853D01*
X388389Y962670*
X388568Y962424*
X388747Y961932*
Y961439*
X388568Y960947*
X388389Y960701*
X387853Y960455*
X386242*
X387495D02*
X388747Y957749D01*
X392147Y962916D02*
X390358Y959471D01*
X393042*
X392147Y962916D02*
Y957749D01*
X514205Y961267D02*
Y956100D01*
Y961267D02*
X515815D01*
X516352Y961021*
X516531Y960775*
X516710Y960283*
Y959791*
X516531Y959299*
X516352Y959053*
X515815Y958807*
X514205*
X515457D02*
X516710Y956100D01*
X520647Y961267D02*
X518857D01*
X518678Y959053*
X518857Y959299*
X519394Y959545*
X519931*
X520468Y959299*
X520826Y958807*
X521005Y958068*
X520826Y957576*
X520647Y956838*
X520289Y956346*
X519752Y956100*
X519215*
X518678Y956346*
X518499Y956592*
X518321Y957084*
X740634Y961267D02*
Y956100D01*
Y961267D02*
X742244D01*
X742781Y961021*
X742960Y960775*
X743139Y960283*
Y959791*
X742960Y959299*
X742781Y959053*
X742244Y958807*
X740634*
X741886D02*
X743139Y956100D01*
X746897Y960529D02*
X746718Y961021D01*
X746181Y961267*
X745823*
X745286Y961021*
X744928Y960283*
X744749Y959053*
Y957822*
X744928Y956838*
X745286Y956346*
X745823Y956100*
X746002*
X746539Y956346*
X746897Y956838*
X747076Y957576*
Y957822*
X746897Y958561*
X746539Y959053*
X746002Y959299*
X745823*
X745286Y959053*
X744928Y958561*
X744749Y957822*
X1106233Y1015544D02*
X1111400D01*
X1106233D02*
Y1017155D01*
X1106479Y1017691*
X1106725Y1017870*
X1107217Y1018049*
X1107709*
X1108201Y1017870*
X1108447Y1017691*
X1108693Y1017155*
Y1015544*
Y1016797D02*
X1111400Y1018049D01*
X1106233Y1022165D02*
X1111400Y1020376D01*
X1106233Y1019660D02*
Y1022165D01*
X1093733Y1015544D02*
X1098900D01*
X1093733D02*
Y1017155D01*
X1093979Y1017691*
X1094225Y1017870*
X1094717Y1018049*
X1095209*
X1095701Y1017870*
X1095947Y1017691*
X1096193Y1017155*
Y1015544*
Y1016797D02*
X1098900Y1018049D01*
X1093733Y1020555D02*
X1093979Y1020018D01*
X1094471Y1019839*
X1094963*
X1095455Y1020018*
X1095701Y1020376*
X1095947Y1021092*
X1096193Y1021628*
X1096686Y1021986*
X1097178Y1022165*
X1097916*
X1098408Y1021986*
X1098654Y1021807*
X1098900Y1021271*
Y1020555*
X1098654Y1020018*
X1098408Y1019839*
X1097916Y1019660*
X1097178*
X1096686Y1019839*
X1096193Y1020197*
X1095947Y1020734*
X1095701Y1021450*
X1095455Y1021807*
X1094963Y1021986*
X1094471*
X1093979Y1021807*
X1093733Y1021271*
Y1020555*
X1106233Y1065634D02*
X1111400D01*
X1106233D02*
Y1067244D01*
X1106479Y1067781*
X1106725Y1067960*
X1107217Y1068139*
X1107709*
X1108201Y1067960*
X1108447Y1067781*
X1108693Y1067244*
Y1065634*
Y1066886D02*
X1111400Y1068139D01*
X1107955Y1072076D02*
X1108693Y1071897D01*
X1109186Y1071539*
X1109432Y1071002*
Y1070823*
X1109186Y1070286*
X1108693Y1069928*
X1107955Y1069749*
X1107709*
X1106971Y1069928*
X1106479Y1070286*
X1106233Y1070823*
Y1071002*
X1106479Y1071539*
X1106971Y1071897*
X1107955Y1072076*
X1109186*
X1110416Y1071897*
X1111154Y1071539*
X1111400Y1071002*
Y1070644*
X1111154Y1070107*
X1110662Y1069928*
X455814Y649279D02*
X455322Y649100D01*
X454830Y648742*
X454584Y648384*
Y647668*
X454830Y647310*
X455322Y646952*
X455814Y646773*
X456553Y646594*
X457783*
X458521Y646773*
X459013Y646952*
X459505Y647310*
X459751Y647668*
Y648384*
X459505Y648742*
X459013Y649100*
X458521Y649279*
X454584Y651247D02*
Y653216D01*
X456553Y652142*
Y652679*
X456799Y653037*
X457045Y653216*
X457783Y653395*
X458275*
X459013Y653216*
X459505Y652858*
X459751Y652321*
Y651784*
X459505Y651247*
X459259Y651068*
X458767Y650889*
X454584Y657332D02*
Y655542D01*
X456799Y655363*
X456553Y655542*
X456307Y656079*
Y656616*
X456553Y657153*
X457045Y657511*
X457783Y657690*
X458275Y657511*
X459013Y657332*
X459505Y656974*
X459751Y656437*
Y655900*
X459505Y655363*
X459259Y655184*
X458767Y655005*
X714363Y842916D02*
Y837749D01*
Y842916D02*
X715974D01*
X716510Y842670*
X716689Y842424*
X716868Y841932*
Y841439*
X716689Y840947*
X716510Y840701*
X715974Y840455*
X714363*
X715616D02*
X716868Y837749D01*
X718837Y842916D02*
X720805D01*
X719732Y840947*
X720268*
X720626Y840701*
X720805Y840455*
X720984Y839717*
Y839225*
X720805Y838487*
X720447Y837995*
X719911Y837749*
X719374*
X718837Y837995*
X718658Y838241*
X718479Y838733*
X724921Y841193D02*
X724742Y840455D01*
X724384Y839963*
X723848Y839717*
X723669*
X723132Y839963*
X722774Y840455*
X722595Y841193*
Y841439*
X722774Y842178*
X723132Y842670*
X723669Y842916*
X723848*
X724384Y842670*
X724742Y842178*
X724921Y841193*
Y839963*
X724742Y838733*
X724384Y837995*
X723848Y837749*
X723490*
X722953Y837995*
X722774Y838487*
X736233Y820897D02*
X741400D01*
X736233D02*
Y822507D01*
X736479Y823044*
X736725Y823223*
X737217Y823402*
X737709*
X738201Y823223*
X738447Y823044*
X738693Y822507*
Y820897*
Y822149D02*
X741400Y823402D01*
X736233Y826802D02*
X739678Y825013D01*
Y827697*
X736233Y826802D02*
X741400D01*
X736233Y830381D02*
X736479Y829844D01*
X737217Y829486*
X738447Y829307*
X739186*
X740416Y829486*
X741154Y829844*
X741400Y830381*
Y830739*
X741154Y831276*
X740416Y831634*
X739186Y831813*
X738447*
X737217Y831634*
X736479Y831276*
X736233Y830739*
Y830381*
X544989Y567916D02*
Y562749D01*
Y567916D02*
X546600D01*
X547137Y567670*
X547316Y567424*
X547495Y566932*
Y566439*
X547316Y565947*
X547137Y565701*
X546600Y565455*
X544989*
X546242D02*
X547495Y562749D01*
X550895Y567916D02*
X549105Y564471D01*
X551790*
X550895Y567916D02*
Y562749D01*
X553400Y566932D02*
X553758Y567178D01*
X554295Y567916*
Y562749*
X578733Y553397D02*
X583900D01*
X578733D02*
Y555007D01*
X578979Y555544*
X579225Y555723*
X579717Y555902*
X580209*
X580701Y555723*
X580947Y555544*
X581193Y555007*
Y553397*
Y554649D02*
X583900Y555902D01*
X578733Y559302D02*
X582178Y557513D01*
Y560197*
X578733Y559302D02*
X583900D01*
X579963Y561986D02*
X579717D01*
X579225Y562165*
X578979Y562344*
X578733Y562702*
Y563418*
X578979Y563776*
X579225Y563955*
X579717Y564134*
X580209*
X580701Y563955*
X581439Y563597*
X583900Y561807*
Y564313*
X688307Y566267D02*
Y561100D01*
Y566267D02*
X689918D01*
X690455Y566021*
X690634Y565775*
X690634D02*
X690812Y565283D01*
Y564791*
X690634Y564299*
X690634D02*
X690455Y564053D01*
X689918Y563807*
X688307*
X689560D02*
X690812Y561100D01*
X694213Y566267D02*
X692423Y562822D01*
X695107*
X694213Y566267D02*
Y561100D01*
X698508Y566267D02*
X696718Y562822D01*
X699402*
X698508Y566267D02*
Y561100D01*
X663733Y553307D02*
X668900D01*
X663733D02*
Y554918D01*
X663979Y555455*
X664225Y555634*
X664225D02*
X664717Y555812D01*
X665209*
X665701Y555634*
X665701D02*
X665947Y555455D01*
X666193Y554918*
Y553307*
Y554560D02*
X668900Y555812D01*
X663733Y559213D02*
X667178Y557423D01*
Y560107*
X663733Y559213D02*
X668900D01*
X663733Y564044D02*
Y562255D01*
X665947Y562076*
X665701Y562255*
X665455Y562792*
Y563329*
X665701Y563865*
X666193Y564223*
X666932Y564402*
X667424Y564223*
X668162Y564044*
X668654Y563686*
X668900Y563150*
Y562613*
X668654Y562076*
X668408Y561897*
X667916Y561718*
X544184Y587916D02*
Y582749D01*
Y587916D02*
X545795D01*
X546331Y587670*
X546510Y587424*
X546689Y586932*
Y586439*
X546510Y585947*
X546331Y585701*
X545795Y585455*
X544184*
X545437D02*
X546689Y582749D01*
X550089Y587916D02*
X548300Y584471D01*
X550984*
X550089Y587916D02*
Y582749D01*
X555100Y587916D02*
X553311Y582749D01*
X552595Y587916D02*
X555100D01*
X577084Y584184D02*
X582251D01*
X577084D02*
Y585795D01*
X577330Y586331*
X577576Y586510*
X578068Y586689*
X578561*
X579053Y586510*
X579299Y586331*
X579545Y585795*
Y584184*
Y585437D02*
X582251Y586689D01*
X577084Y590089D02*
X580529Y588300D01*
Y590984*
X577084Y590089D02*
X582251D01*
X577084Y593490D02*
X577330Y592953D01*
X577822Y592774*
X578314*
X578807Y592953*
X579053Y593311*
X579299Y594026*
X579545Y594563*
X580037Y594921*
X580529Y595100*
X581267*
X581759Y594921*
X582005Y594742*
X582251Y594205*
Y593490*
X582005Y592953*
X581759Y592774*
X581267Y592595*
X580529*
X580037Y592774*
X579545Y593132*
X579299Y593669*
X579053Y594384*
X578807Y594742*
X578314Y594921*
X577822*
X577330Y594742*
X577084Y594205*
Y593490*
X688397Y586267D02*
Y581100D01*
Y586267D02*
X690007D01*
X690544Y586021*
X690723Y585775*
X690902Y585283*
Y584791*
X690723Y584299*
X690544Y584053*
X690007Y583807*
X688397*
X689649D02*
X690902Y581100D01*
X694839Y586267D02*
X693049D01*
X692870Y584053*
X693049Y584299*
X693586Y584545*
X694123*
X694660Y584299*
X695018Y583807*
X695197Y583068*
X695018Y582576*
X694839Y581838*
X694481Y581346*
X693944Y581100*
X693407*
X692870Y581346*
X692691Y581592*
X692513Y582084*
X697881Y586267D02*
X697344Y586021D01*
X696986Y585283*
X696807Y584053*
Y583314*
X696986Y582084*
X697344Y581346*
X697881Y581100*
X698239*
X698776Y581346*
X699134Y582084*
X699313Y583314*
Y584053*
X699134Y585283*
X698776Y586021*
X698239Y586267*
X697881*
X662084Y584989D02*
X667251D01*
X662084D02*
Y586600D01*
X662330Y587137*
X662576Y587316*
X663068Y587495*
X663561*
X664053Y587316*
X664299Y587137*
X664545Y586600*
Y584989*
Y586242D02*
X667251Y587495D01*
X662084Y591432D02*
Y589642D01*
X664299Y589463*
X664053Y589642*
X663807Y590179*
Y590716*
X664053Y591253*
X664545Y591611*
X665283Y591790*
X665775Y591611*
X666513Y591432*
X667005Y591074*
X667251Y590537*
Y590000*
X667005Y589463*
X666759Y589284*
X666267Y589105*
X663068Y593400D02*
X662822Y593758D01*
X662084Y594295*
X667251*
X544184Y625416D02*
Y620249D01*
Y625416D02*
X545795D01*
X546331Y625170*
X546510Y624924*
X546689Y624432*
Y623939*
X546510Y623447*
X546331Y623201*
X545795Y622955*
X544184*
X545437D02*
X546689Y620249D01*
X550626Y625416D02*
X548837D01*
X548658Y623201*
X548837Y623447*
X549374Y623693*
X549911*
X550447Y623447*
X550805Y622955*
X550984Y622217*
X550805Y621725*
X550626Y620987*
X550268Y620495*
X549732Y620249*
X549195*
X548658Y620495*
X548479Y620741*
X548300Y621233*
X552953Y625416D02*
X554921D01*
X553848Y623447*
X554384*
X554742Y623201*
X554921Y622955*
X555100Y622217*
Y621725*
X554921Y620987*
X554563Y620495*
X554026Y620249*
X553490*
X552953Y620495*
X552774Y620741*
X552595Y621233*
X578733Y610807D02*
X583900D01*
X578733D02*
Y612418D01*
X578979Y612955*
X579225Y613134*
X579225D02*
X579717Y613312D01*
X580209*
X580701Y613134*
X580701D02*
X580947Y612955D01*
X581193Y612418*
Y610807*
Y612060D02*
X583900Y613312D01*
X578733Y617249D02*
Y615460D01*
X580947Y615281*
X580701Y615460*
X580455Y615997*
Y616534*
X580701Y617071*
X581193Y617428*
X581932Y617607*
X582424Y617428*
X583162Y617249*
X583654Y616892*
X583900Y616355*
Y615818*
X583654Y615281*
X583408Y615102*
X582916Y614923*
X578733Y621008D02*
X582178Y619218D01*
Y621902*
X578733Y621008D02*
X583900D01*
X688486Y606267D02*
Y601100D01*
Y606267D02*
X690097D01*
X690634Y606021*
X690634D02*
X690812Y605775D01*
X690991Y605283*
Y604791*
X690812Y604299*
X690634Y604053*
X690634D02*
X690097Y603807D01*
X688486*
X689739D02*
X690991Y601100D01*
X694928Y606267D02*
X693139D01*
X692960Y604053*
X693139Y604299*
X693676Y604545*
X694213*
X694749Y604299*
X695107Y603807*
X695286Y603068*
X695107Y602576*
X694928Y601838*
X694571Y601346*
X694034Y601100*
X693497*
X692960Y601346*
X692781Y601592*
X692602Y602084*
X699044Y605529D02*
X698865Y606021D01*
X698329Y606267*
X697971*
X697434Y606021*
X697076Y605283*
X696897Y604053*
Y602822*
X697076Y601838*
X697434Y601346*
X697971Y601100*
X698150*
X698686Y601346*
X699044Y601838*
X699223Y602576*
Y602822*
X699044Y603561*
X698686Y604053*
X698150Y604299*
X697971*
X697434Y604053*
X697076Y603561*
X696897Y602822*
X662084Y606684D02*
X667251D01*
X662084D02*
Y608295D01*
X662330Y608831*
X662576Y609010*
X663068Y609189*
X663561*
X664053Y609010*
X664299Y608831*
X664545Y608295*
Y606684*
Y607937D02*
X667251Y609189D01*
X662084Y613126D02*
Y611337D01*
X664299Y611158*
X664053Y611337*
X663807Y611874*
Y612411*
X664053Y612947*
X664545Y613305*
X665283Y613484*
X665775Y613305*
X666513Y613126*
X667005Y612768*
X667251Y612232*
Y611695*
X667005Y611158*
X666759Y610979*
X666267Y610800*
X662084Y617600D02*
X667251Y615811D01*
X662084Y615095D02*
Y617600D01*
X1171881Y658767D02*
Y653600D01*
Y658767D02*
X1173491D01*
X1174028Y658521*
X1174207Y658275*
X1174386Y657783*
Y657291*
X1174207Y656799*
X1174028Y656553*
X1173491Y656307*
X1171881*
X1173134D02*
X1174386Y653600D01*
X1178144Y658029D02*
X1177965Y658521D01*
X1177428Y658767*
X1177071*
X1176534Y658521*
X1176176Y657783*
X1175997Y656553*
Y655322*
X1176176Y654338*
X1176534Y653846*
X1177071Y653600*
X1177249*
X1177786Y653846*
X1178144Y654338*
X1178323Y655076*
Y655322*
X1178144Y656061*
X1177786Y656553*
X1177249Y656799*
X1177071*
X1176534Y656553*
X1176176Y656061*
X1175997Y655322*
X1179934Y657783D02*
X1180292Y658029D01*
X1180829Y658767*
Y653600*
X1171076Y646267D02*
Y641100D01*
Y646267D02*
X1172686D01*
X1173223Y646021*
X1173402Y645775*
X1173581Y645283*
Y644791*
X1173402Y644299*
X1173223Y644053*
X1172686Y643807*
X1171076*
X1172328D02*
X1173581Y641100D01*
X1177339Y645529D02*
X1177160Y646021D01*
X1176623Y646267*
X1176265*
X1175728Y646021*
X1175370Y645283*
X1175191Y644053*
Y642822*
X1175370Y641838*
X1175728Y641346*
X1176265Y641100*
X1176444*
X1176981Y641346*
X1177339Y641838*
X1177518Y642576*
Y642822*
X1177339Y643561*
X1176981Y644053*
X1176444Y644299*
X1176265*
X1175728Y644053*
X1175370Y643561*
X1175191Y642822*
X1179307Y645037D02*
Y645283D01*
X1179486Y645775*
X1179665Y646021*
X1180023Y646267*
X1180739*
X1181097Y646021*
X1181276Y645775*
X1181455Y645283*
Y644791*
X1181276Y644299*
X1180918Y643561*
X1179128Y641100*
X1181634*
X1236233Y758576D02*
X1241400D01*
X1236233D02*
Y760186D01*
X1236479Y760723*
X1236725Y760902*
X1237217Y761081*
X1237709*
X1238201Y760902*
X1238447Y760723*
X1238693Y760186*
Y758576*
Y759828D02*
X1241400Y761081D01*
X1236971Y764839D02*
X1236479Y764660D01*
X1236233Y764123*
Y763765*
X1236479Y763228*
X1237217Y762870*
X1238447Y762691*
X1239678*
X1240662Y762870*
X1241154Y763228*
X1241400Y763765*
Y763944*
X1241154Y764481*
X1240662Y764839*
X1239924Y765018*
X1239678*
X1238939Y764839*
X1238447Y764481*
X1238201Y763944*
Y763765*
X1238447Y763228*
X1238939Y762870*
X1239678Y762691*
X1236233Y766986D02*
Y768955D01*
X1238201Y767881*
Y768418*
X1238447Y768776*
X1238693Y768955*
X1239432Y769134*
X1239924*
X1240662Y768955*
X1241154Y768597*
X1241400Y768060*
Y767523*
X1241154Y766986*
X1240908Y766807*
X1240416Y766628*
X1305986Y721267D02*
Y716100D01*
Y721267D02*
X1307597D01*
X1308134Y721021*
X1308134D02*
X1308312Y720775D01*
X1308491Y720283*
Y719791*
X1308312Y719299*
X1308134Y719053*
X1308134D02*
X1307597Y718807D01*
X1305986*
X1307239D02*
X1308491Y716100D01*
X1312249Y720529D02*
X1312071Y721021D01*
X1311534Y721267*
X1311176*
X1310639Y721021*
X1310281Y720283*
X1310102Y719053*
Y717822*
X1310281Y716838*
X1310639Y716346*
X1311176Y716100*
X1311355*
X1311892Y716346*
X1312249Y716838*
X1312428Y717576*
Y717822*
X1312249Y718561*
X1311892Y719053*
X1311355Y719299*
X1311176*
X1310639Y719053*
X1310281Y718561*
X1310102Y717822*
X1315829Y721267D02*
X1314039Y717822D01*
X1316723*
X1315829Y721267D02*
Y716100D01*
X1248733Y758486D02*
X1253900D01*
X1248733D02*
Y760097D01*
X1248979Y760634*
X1248979D02*
X1249225Y760812D01*
X1249717Y760991*
X1250209*
X1250701Y760812*
X1250947Y760634*
X1250947D02*
X1251193Y760097D01*
Y758486*
Y759739D02*
X1253900Y760991D01*
X1249471Y764749D02*
X1248979Y764571D01*
X1248733Y764034*
Y763676*
X1248979Y763139*
X1249717Y762781*
X1250947Y762602*
X1252178*
X1253162Y762781*
X1253654Y763139*
X1253900Y763676*
Y763855*
X1253654Y764392*
X1253162Y764749*
X1252424Y764928*
X1252178*
X1251439Y764749*
X1250947Y764392*
X1250701Y763855*
Y763676*
X1250947Y763139*
X1251439Y762781*
X1252178Y762602*
X1248733Y768865D02*
Y767076D01*
X1250947Y766897*
X1250701Y767076*
X1250455Y767613*
Y768150*
X1250701Y768686*
X1251193Y769044*
X1251932Y769223*
X1252424Y769044*
X1253162Y768865*
X1253654Y768508*
X1253900Y767971*
Y767434*
X1253654Y766897*
X1253408Y766718*
X1252916Y766539*
X1306165Y738767D02*
Y733600D01*
Y738767D02*
X1307776D01*
X1308312Y738521*
X1308491Y738275*
X1308670Y737783*
Y737291*
X1308491Y736799*
X1308312Y736553*
X1307776Y736307*
X1306165*
X1307418D02*
X1308670Y733600D01*
X1312428Y738029D02*
X1312249Y738521D01*
X1311713Y738767*
X1311355*
X1310818Y738521*
X1310460Y737783*
X1310281Y736553*
Y735322*
X1310460Y734338*
X1310818Y733846*
X1311355Y733600*
X1311534*
X1312071Y733846*
X1312428Y734338*
X1312607Y735076*
Y735322*
X1312428Y736061*
X1312071Y736553*
X1311534Y736799*
X1311355*
X1310818Y736553*
X1310460Y736061*
X1310281Y735322*
X1316365Y738029D02*
X1316186Y738521D01*
X1315650Y738767*
X1315292*
X1314755Y738521*
X1314397Y737783*
X1314218Y736553*
Y735322*
X1314397Y734338*
X1314755Y733846*
X1315292Y733600*
X1315471*
X1316008Y733846*
X1316365Y734338*
X1316544Y735076*
Y735322*
X1316365Y736061*
X1316008Y736553*
X1315471Y736799*
X1315292*
X1314755Y736553*
X1314397Y736061*
X1314218Y735322*
X1211233Y758576D02*
X1216400D01*
X1211233D02*
Y760186D01*
X1211479Y760723*
X1211725Y760902*
X1212217Y761081*
X1212709*
X1213201Y760902*
X1213447Y760723*
X1213693Y760186*
Y758576*
Y759828D02*
X1216400Y761081D01*
X1211971Y764839D02*
X1211479Y764660D01*
X1211233Y764123*
Y763765*
X1211479Y763228*
X1212217Y762870*
X1213447Y762691*
X1214678*
X1215662Y762870*
X1216154Y763228*
X1216400Y763765*
Y763944*
X1216154Y764481*
X1215662Y764839*
X1214924Y765018*
X1214678*
X1213939Y764839*
X1213447Y764481*
X1213201Y763944*
Y763765*
X1213447Y763228*
X1213939Y762870*
X1214678Y762691*
X1211233Y769134D02*
X1216400Y767344D01*
X1211233Y766628D02*
Y769134D01*
X1171863Y737916D02*
Y732749D01*
Y737916D02*
X1173474D01*
X1174010Y737670*
X1174189Y737424*
X1174368Y736932*
Y736439*
X1174189Y735947*
X1174010Y735701*
X1173474Y735455*
X1171863*
X1173116D02*
X1174368Y732749D01*
X1178126Y737178D02*
X1177947Y737670D01*
X1177411Y737916*
X1177053*
X1176516Y737670*
X1176158Y736932*
X1175979Y735701*
Y734471*
X1176158Y733487*
X1176516Y732995*
X1177053Y732749*
X1177232*
X1177768Y732995*
X1178126Y733487*
X1178305Y734225*
Y734471*
X1178126Y735209*
X1177768Y735701*
X1177232Y735947*
X1177053*
X1176516Y735701*
X1176158Y735209*
X1175979Y734471*
X1180811Y737916D02*
X1180274Y737670D01*
X1180095Y737178*
Y736686*
X1180274Y736193*
X1180632Y735947*
X1181348Y735701*
X1181884Y735455*
X1182242Y734963*
X1182421Y734471*
Y733733*
X1182242Y733241*
X1182063Y732995*
X1181526Y732749*
X1180811*
X1180274Y732995*
X1180095Y733241*
X1179916Y733733*
Y734471*
X1180095Y734963*
X1180453Y735455*
X1180990Y735701*
X1181705Y735947*
X1182063Y736193*
X1182242Y736686*
Y737178*
X1182063Y737670*
X1181526Y737916*
X1180811*
X1223733Y758665D02*
X1228900D01*
X1223733D02*
Y760276D01*
X1223979Y760812*
X1224225Y760991*
X1224717Y761170*
X1225209*
X1225701Y760991*
X1225947Y760812*
X1226193Y760276*
Y758665*
Y759918D02*
X1228900Y761170D01*
X1224471Y764928D02*
X1223979Y764749D01*
X1223733Y764213*
Y763855*
X1223979Y763318*
X1224717Y762960*
X1225947Y762781*
X1227178*
X1228162Y762960*
X1228654Y763318*
X1228900Y763855*
Y764034*
X1228654Y764571*
X1228162Y764928*
X1227424Y765107*
X1227178*
X1226439Y764928*
X1225947Y764571*
X1225701Y764034*
Y763855*
X1225947Y763318*
X1226439Y762960*
X1227178Y762781*
X1225455Y769044D02*
X1226193Y768865D01*
X1226686Y768508*
X1226932Y767971*
Y767792*
X1226686Y767255*
X1226193Y766897*
X1225455Y766718*
X1225209*
X1224471Y766897*
X1223979Y767255*
X1223733Y767792*
Y767971*
X1223979Y768508*
X1224471Y768865*
X1225455Y769044*
X1226686*
X1227916Y768865*
X1228654Y768508*
X1228900Y767971*
Y767613*
X1228654Y767076*
X1228162Y766897*
X1171773Y725416D02*
Y720249D01*
Y725416D02*
X1173384D01*
X1173921Y725170*
X1174100Y724924*
X1174279Y724432*
Y723939*
X1174100Y723447*
X1173921Y723201*
X1173384Y722955*
X1171773*
X1173026D02*
X1174279Y720249D01*
X1178395Y725416D02*
X1176605Y720249D01*
X1175889Y725416D02*
X1178395D01*
X1181079D02*
X1180542Y725170D01*
X1180184Y724432*
X1180005Y723201*
Y722463*
X1180184Y721233*
X1180542Y720495*
X1181079Y720249*
X1181437*
X1181974Y720495*
X1182332Y721233*
X1182511Y722463*
Y723201*
X1182332Y724432*
X1181974Y725170*
X1181437Y725416*
X1181079*
X1239584Y600079D02*
X1244751D01*
X1239584D02*
Y601689D01*
X1239830Y602226*
X1240076Y602405*
X1240568Y602584*
X1241061*
X1241553Y602405*
X1241799Y602226*
X1242045Y601689*
Y600079*
Y601331D02*
X1244751Y602584D01*
X1239584Y606700D02*
X1244751Y604911D01*
X1239584Y604195D02*
Y606700D01*
X1240568Y608311D02*
X1240322Y608669D01*
X1239584Y609205*
X1244751*
X1258486Y611267D02*
Y606100D01*
Y611267D02*
X1260097D01*
X1260634Y611021*
X1260634D02*
X1260812Y610775D01*
X1260991Y610283*
Y609791*
X1260812Y609299*
X1260634Y609053*
X1260634D02*
X1260097Y608807D01*
X1258486*
X1259739D02*
X1260991Y606100D01*
X1265107Y611267D02*
X1263318Y606100D01*
X1262602Y611267D02*
X1265107D01*
X1266897Y610037D02*
Y610283D01*
X1267076Y610775*
X1267255Y611021*
X1267613Y611267*
X1268329*
X1268686Y611021*
X1268865Y610775*
X1269044Y610283*
Y609791*
X1268865Y609299*
X1268508Y608561*
X1266718Y606100*
X1269223*
X1224584Y599273D02*
X1229751D01*
X1224584D02*
Y600884D01*
X1224830Y601421*
X1225076Y601600*
X1225568Y601779*
X1226061*
X1226553Y601600*
X1226799Y601421*
X1227045Y600884*
Y599273*
Y600526D02*
X1229751Y601779D01*
X1224584Y605895D02*
X1229751Y604105D01*
X1224584Y603389D02*
Y605895D01*
Y607863D02*
Y609832D01*
X1226553Y608758*
Y609295*
X1226799Y609653*
X1227045Y609832*
X1227783Y610011*
X1228275*
X1229013Y609832*
X1229505Y609474*
X1229751Y608937*
Y608400*
X1229505Y607863*
X1229259Y607684*
X1228767Y607505*
X1199184Y612916D02*
Y607749D01*
Y612916D02*
X1200795D01*
X1201331Y612670*
X1201510Y612424*
X1201689Y611932*
Y611439*
X1201510Y610947*
X1201331Y610701*
X1200795Y610455*
X1199184*
X1200437D02*
X1201689Y607749D01*
X1205805Y612916D02*
X1204016Y607749D01*
X1203300Y612916D02*
X1205805D01*
X1209205D02*
X1207416Y609471D01*
X1210100*
X1209205Y612916D02*
Y607749D01*
X1066233Y308397D02*
X1071400D01*
X1066233D02*
Y310007D01*
X1066479Y310544*
X1066725Y310723*
X1067217Y310902*
X1067709*
X1068201Y310723*
X1068447Y310544*
X1068693Y310007*
Y308397*
Y309649D02*
X1071400Y310902D01*
X1066233Y315018D02*
X1071400Y313228D01*
X1066233Y312513D02*
Y315018D01*
Y318955D02*
Y317165D01*
X1068447Y316986*
X1068201Y317165*
X1067955Y317702*
Y318239*
X1068201Y318776*
X1068693Y319134*
X1069432Y319313*
X1069924Y319134*
X1070662Y318955*
X1071154Y318597*
X1071400Y318060*
Y317523*
X1071154Y316986*
X1070908Y316807*
X1070416Y316628*
X471076Y633767D02*
Y628600D01*
Y633767D02*
X472686D01*
X473223Y633521*
X473402Y633275*
X473581Y632783*
Y632291*
X473402Y631799*
X473223Y631553*
X472686Y631307*
X471076*
X472328D02*
X473581Y628600D01*
X477697Y633767D02*
X475907Y628600D01*
X475191Y633767D02*
X477697D01*
X481455Y633029D02*
X481276Y633521D01*
X480739Y633767*
X480381*
X479844Y633521*
X479486Y632783*
X479307Y631553*
Y630322*
X479486Y629338*
X479844Y628846*
X480381Y628600*
X480560*
X481097Y628846*
X481455Y629338*
X481634Y630076*
Y630322*
X481455Y631061*
X481097Y631553*
X480560Y631799*
X480381*
X479844Y631553*
X479486Y631061*
X479307Y630322*
X567463Y556170D02*
X566971Y555991D01*
X566479Y555634*
X566479D02*
X566233Y555276D01*
Y554560*
X566479Y554202*
X566971Y553844*
X567463Y553665*
X568201Y553486*
X569432*
X570170Y553665*
X570662Y553844*
X571154Y554202*
X571400Y554560*
Y555276*
X571154Y555634*
X571154D02*
X570662Y555991D01*
X570170Y556170*
X566233Y558139D02*
Y560107D01*
X568201Y559034*
Y559571*
X568447Y559928*
X568693Y560107*
X569432Y560286*
X569924*
X570662Y560107*
X571154Y559749*
X571400Y559213*
Y558676*
X571154Y558139*
X570908Y557960*
X570416Y557781*
X566971Y564044D02*
X566479Y563865D01*
X566233Y563329*
Y562971*
X566479Y562434*
X567217Y562076*
X568447Y561897*
X569678*
X570662Y562076*
X571154Y562434*
X571400Y562971*
Y563150*
X571154Y563686*
X570662Y564044*
X569924Y564223*
X569678*
X568939Y564044*
X568447Y563686*
X568201Y563150*
Y562971*
X568447Y562434*
X568939Y562076*
X569678Y561897*
X677463Y556081D02*
X676971Y555902D01*
X676479Y555544*
X676233Y555186*
Y554470*
X676479Y554112*
X676971Y553754*
X677463Y553576*
X678201Y553397*
X679432*
X680170Y553576*
X680662Y553754*
X681154Y554112*
X681400Y554470*
Y555186*
X681154Y555544*
X680662Y555902*
X680170Y556081*
X676233Y558049D02*
Y560018D01*
X678201Y558944*
Y559481*
X678447Y559839*
X678693Y560018*
X679432Y560197*
X679924*
X680662Y560018*
X681154Y559660*
X681400Y559123*
Y558586*
X681154Y558049*
X680908Y557870*
X680416Y557691*
X676233Y564313D02*
X681400Y562523D01*
X676233Y561807D02*
Y564313D01*
X565814Y586868D02*
X565322Y586689D01*
X564830Y586331*
X564584Y585974*
Y585258*
X564830Y584900*
X565322Y584542*
X565814Y584363*
X566553Y584184*
X567783*
X568521Y584363*
X569013Y584542*
X569505Y584900*
X569751Y585258*
Y585974*
X569505Y586331*
X569013Y586689*
X568521Y586868*
X564584Y588837D02*
Y590805D01*
X566553Y589732*
Y590268*
X566799Y590626*
X567045Y590805*
X567783Y590984*
X568275*
X569013Y590805*
X569505Y590447*
X569751Y589911*
Y589374*
X569505Y588837*
X569259Y588658*
X568767Y588479*
X564584Y593490D02*
X564830Y592953D01*
X565322Y592774*
X565814*
X566307Y592953*
X566553Y593311*
X566799Y594026*
X567045Y594563*
X567537Y594921*
X568029Y595100*
X568767*
X569259Y594921*
X569505Y594742*
X569751Y594205*
Y593490*
X569505Y592953*
X569259Y592774*
X568767Y592595*
X568029*
X567537Y592774*
X567045Y593132*
X566799Y593669*
X566553Y594384*
X566307Y594742*
X565814Y594921*
X565322*
X564830Y594742*
X564584Y594205*
Y593490*
X675814Y586958D02*
X675322Y586779D01*
X674830Y586421*
X674584Y586063*
Y585347*
X674830Y584989*
X675322Y584631*
X675814Y584452*
X676553Y584273*
X677783*
X678521Y584452*
X679013Y584631*
X679505Y584989*
X679751Y585347*
Y586063*
X679505Y586421*
X679013Y586779*
X678521Y586958*
X674584Y588926D02*
Y590895D01*
X676553Y589821*
Y590358*
X676799Y590716*
X677045Y590895*
X677783Y591074*
X678275*
X679013Y590895*
X679505Y590537*
X679751Y590000*
Y589463*
X679505Y588926*
X679259Y588747*
X678767Y588568*
X676307Y595011D02*
X677045Y594832D01*
X677537Y594474*
X677783Y593937*
Y593758*
X677537Y593221*
X677045Y592863*
X676307Y592684*
X676061*
X675322Y592863*
X674830Y593221*
X674584Y593758*
Y593937*
X674830Y594474*
X675322Y594832*
X676307Y595011*
X677537*
X678767Y594832*
X679505Y594474*
X679751Y593937*
Y593579*
X679505Y593042*
X679013Y592863*
X567463Y613491D02*
X566971Y613312D01*
X566479Y612955*
X566233Y612597*
Y611881*
X566479Y611523*
X566971Y611165*
X567463Y610986*
X568201Y610807*
X569432*
X570170Y610986*
X570662Y611165*
X571154Y611523*
X571400Y611881*
Y612597*
X571154Y612955*
X570662Y613312*
X570170Y613491*
X566233Y616892D02*
X569678Y615102D01*
Y617786*
X566233Y616892D02*
X571400D01*
X566233Y620471D02*
X566479Y619934D01*
X567217Y619576*
X568447Y619397*
X569186*
X570416Y619576*
X571154Y619934*
X571400Y620471*
Y620829*
X571154Y621365*
X570416Y621723*
X569186Y621902*
X568447*
X567217Y621723*
X566479Y621365*
X566233Y620829*
Y620471*
X675814Y610084D02*
X675322Y609905D01*
X674830Y609547*
X674584Y609189*
Y608474*
X674830Y608116*
X675322Y607758*
X675814Y607579*
X676553Y607400*
X677783*
X678521Y607579*
X679013Y607758*
X679505Y608116*
X679751Y608474*
Y609189*
X679505Y609547*
X679013Y609905*
X678521Y610084*
X674584Y613484D02*
X678029Y611695D01*
Y614379*
X674584Y613484D02*
X679751D01*
X675568Y615990D02*
X675322Y616348D01*
X674584Y616884*
X679751*
X579279Y944186D02*
X579100Y944678D01*
X578742Y945170*
X578384Y945416*
X577668*
X577310Y945170*
X576952Y944678*
X576773Y944186*
X576594Y943447*
Y942217*
X576773Y941479*
X576952Y940987*
X577310Y940495*
X577668Y940249*
X578384*
X578742Y940495*
X579100Y940987*
X579279Y941479*
X582679Y945416D02*
X580889Y941971D01*
X583574*
X582679Y945416D02*
Y940249D01*
X585363Y944186D02*
Y944432D01*
X585542Y944924*
X585721Y945170*
X586079Y945416*
X586795*
X587153Y945170*
X587332Y944924*
X587511Y944432*
Y943939*
X587332Y943447*
X586974Y942709*
X585184Y940249*
X587690*
X441779Y926686D02*
X441600Y927178D01*
X441242Y927670*
X440884Y927916*
X440168*
X439810Y927670*
X439452Y927178*
X439273Y926686*
X439094Y925947*
Y924717*
X439273Y923979*
X439452Y923487*
X439810Y922995*
X440168Y922749*
X440884*
X441242Y922995*
X441600Y923487*
X441779Y923979*
X445179Y927916D02*
X443389Y924471D01*
X446074*
X445179Y927916D02*
Y922749D01*
X448042Y927916D02*
X450011D01*
X448937Y925947*
X449474*
X449832Y925701*
X450011Y925455*
X450190Y924717*
Y924225*
X450011Y923487*
X449653Y922995*
X449116Y922749*
X448579*
X448042Y922995*
X447863Y923241*
X447684Y923733*
X1260986Y868767D02*
Y863600D01*
Y868767D02*
X1262597D01*
X1263134Y868521*
X1263134D02*
X1263312Y868275D01*
X1263491Y867783*
Y867291*
X1263312Y866799*
X1263134Y866553*
X1263134D02*
X1262597Y866307D01*
X1260986*
X1262239D02*
X1263491Y863600D01*
X1267607Y868767D02*
X1265818Y863600D01*
X1265102Y868767D02*
X1267607D01*
X1271723D02*
X1269934Y863600D01*
X1269218Y868767D02*
X1271723D01*
X1238486Y878767D02*
Y873600D01*
Y878767D02*
X1240097D01*
X1240634Y878521*
X1240634D02*
X1240812Y878275D01*
X1240991Y877783*
Y877291*
X1240812Y876799*
X1240634Y876553*
X1240634D02*
X1240097Y876307D01*
X1238486*
X1239739D02*
X1240991Y873600D01*
X1245107Y878767D02*
X1243318Y873600D01*
X1242602Y878767D02*
X1245107D01*
X1247613D02*
X1247076Y878521D01*
X1246897Y878029*
Y877537*
X1247076Y877045*
X1247434Y876799*
X1248150Y876553*
X1248686Y876307*
X1249044Y875814*
X1249223Y875322*
Y874584*
X1249044Y874092*
X1248865Y873846*
X1248329Y873600*
X1247613*
X1247076Y873846*
X1246897Y874092*
X1246718Y874584*
Y875322*
X1246897Y875814*
X1247255Y876307*
X1247792Y876553*
X1248508Y876799*
X1248865Y877045*
X1249044Y877537*
Y878029*
X1248865Y878521*
X1248329Y878767*
X1247613*
X1196076Y888767D02*
Y883600D01*
Y888767D02*
X1197686D01*
X1198223Y888521*
X1198402Y888275*
X1198581Y887783*
Y887291*
X1198402Y886799*
X1198223Y886553*
X1197686Y886307*
X1196076*
X1197328D02*
X1198581Y883600D01*
X1202697Y888767D02*
X1200907Y883600D01*
X1200191Y888767D02*
X1202697D01*
X1206634Y887045D02*
X1206455Y886307D01*
X1206097Y885814*
X1205560Y885568*
X1205381*
X1204844Y885814*
X1204486Y886307*
X1204307Y887045*
Y887291*
X1204486Y888029*
X1204844Y888521*
X1205381Y888767*
X1205560*
X1206097Y888521*
X1206455Y888029*
X1206634Y887045*
Y885814*
X1206455Y884584*
X1206097Y883846*
X1205560Y883600*
X1205202*
X1204665Y883846*
X1204486Y884338*
X671233Y845986D02*
X676400D01*
X671233D02*
Y847597D01*
X671479Y848134*
X671479D02*
X671725Y848312D01*
X672217Y848491*
X672709*
X673201Y848312*
X673447Y848134*
X673447D02*
X673693Y847597D01*
Y845986*
Y847239D02*
X676400Y848491D01*
X671233Y850997D02*
X671479Y850460D01*
X671971Y850281*
X672463*
X672955Y850460*
X673201Y850818*
X673447Y851534*
X673693Y852071*
X674186Y852428*
X674678Y852607*
X675416*
X675908Y852428*
X676154Y852249*
X676400Y851713*
Y850997*
X676154Y850460*
X675908Y850281*
X675416Y850102*
X674678*
X674186Y850281*
X673693Y850639*
X673447Y851176*
X673201Y851892*
X672955Y852249*
X672463Y852428*
X671971*
X671479Y852249*
X671233Y851713*
Y850997*
Y855292D02*
X671479Y854755D01*
X672217Y854397*
X673447Y854218*
X674186*
X675416Y854397*
X676154Y854755*
X676400Y855292*
Y855650*
X676154Y856186*
X675416Y856544*
X674186Y856723*
X673447*
X672217Y856544*
X671479Y856186*
X671233Y855650*
Y855292*
X547579Y911666D02*
Y906499D01*
Y911666D02*
X549189D01*
X549726Y911420*
X549905Y911174*
X550084Y910682*
Y910189*
X549905Y909697*
X549726Y909451*
X549189Y909205*
X547579*
X548831D02*
X550084Y906499D01*
X552589Y911666D02*
X552053Y911420D01*
X551874Y910928*
Y910436*
X552053Y909943*
X552411Y909697*
X553126Y909451*
X553663Y909205*
X554021Y908713*
X554200Y908221*
Y907483*
X554021Y906991*
X553842Y906745*
X553305Y906499*
X552589*
X552053Y906745*
X551874Y906991*
X551695Y907483*
Y908221*
X551874Y908713*
X552232Y909205*
X552768Y909451*
X553484Y909697*
X553842Y909943*
X554021Y910436*
Y910928*
X553842Y911420*
X553305Y911666*
X552589*
X555811Y910682D02*
X556169Y910928D01*
X556705Y911666*
Y906499*
X406773Y895416D02*
Y890249D01*
Y895416D02*
X408384D01*
X408921Y895170*
X409100Y894924*
X409279Y894432*
Y893939*
X409100Y893447*
X408921Y893201*
X408384Y892955*
X406773*
X408026D02*
X409279Y890249D01*
X411784Y895416D02*
X411247Y895170D01*
X411068Y894678*
Y894186*
X411247Y893693*
X411605Y893447*
X412321Y893201*
X412858Y892955*
X413216Y892463*
X413395Y891971*
Y891233*
X413216Y890741*
X413037Y890495*
X412500Y890249*
X411784*
X411247Y890495*
X411068Y890741*
X410889Y891233*
Y891971*
X411068Y892463*
X411426Y892955*
X411963Y893201*
X412679Y893447*
X413037Y893693*
X413216Y894186*
Y894678*
X413037Y895170*
X412500Y895416*
X411784*
X415184Y894186D02*
Y894432D01*
X415363Y894924*
X415542Y895170*
X415900Y895416*
X416616*
X416974Y895170*
X417153Y894924*
X417332Y894432*
Y893939*
X417153Y893447*
X416795Y892709*
X415005Y890249*
X417511*
X1070897Y846267D02*
Y841100D01*
Y846267D02*
X1072507D01*
X1073044Y846021*
X1073223Y845775*
X1073402Y845283*
Y844791*
X1073223Y844299*
X1073044Y844053*
X1072507Y843807*
X1070897*
X1072149D02*
X1073402Y841100D01*
X1075907Y846267D02*
X1075370Y846021D01*
X1075191Y845529*
Y845037*
X1075370Y844545*
X1075728Y844299*
X1076444Y844053*
X1076981Y843807*
X1077339Y843314*
X1077518Y842822*
Y842084*
X1077339Y841592*
X1077160Y841346*
X1076623Y841100*
X1075907*
X1075370Y841346*
X1075191Y841592*
X1075013Y842084*
Y842822*
X1075191Y843314*
X1075549Y843807*
X1076086Y844053*
X1076802Y844299*
X1077160Y844545*
X1077339Y845037*
Y845529*
X1077160Y846021*
X1076623Y846267*
X1075907*
X1080918D02*
X1079128Y842822D01*
X1081813*
X1080918Y846267D02*
Y841100D01*
X1071684Y540416D02*
Y535249D01*
Y540416D02*
X1073295D01*
X1073831Y540170*
X1074010Y539924*
X1074189Y539432*
Y538939*
X1074010Y538447*
X1073831Y538201*
X1073295Y537955*
X1071684*
X1072937D02*
X1074189Y535249D01*
X1076695Y540416D02*
X1076158Y540170D01*
X1075979Y539678*
Y539186*
X1076158Y538693*
X1076516Y538447*
X1077232Y538201*
X1077768Y537955*
X1078126Y537463*
X1078305Y536971*
Y536233*
X1078126Y535741*
X1077947Y535495*
X1077411Y535249*
X1076695*
X1076158Y535495*
X1075979Y535741*
X1075800Y536233*
Y536971*
X1075979Y537463*
X1076337Y537955*
X1076874Y538201*
X1077589Y538447*
X1077947Y538693*
X1078126Y539186*
Y539678*
X1077947Y540170*
X1077411Y540416*
X1076695*
X1082242D02*
X1080453D01*
X1080274Y538201*
X1080453Y538447*
X1080990Y538693*
X1081526*
X1082063Y538447*
X1082421Y537955*
X1082600Y537217*
X1082421Y536725*
X1082242Y535987*
X1081884Y535495*
X1081348Y535249*
X1080811*
X1080274Y535495*
X1080095Y535741*
X1079916Y536233*
X723576Y706267D02*
Y701100D01*
Y706267D02*
X725186D01*
X725723Y706021*
X725902Y705775*
X726081Y705283*
Y704791*
X725902Y704299*
X725723Y704053*
X725186Y703807*
X723576*
X724828D02*
X726081Y701100D01*
X728586Y706267D02*
X728049Y706021D01*
X727870Y705529*
Y705037*
X728049Y704545*
X728407Y704299*
X729123Y704053*
X729660Y703807*
X730018Y703314*
X730197Y702822*
Y702084*
X730018Y701592*
X729839Y701346*
X729302Y701100*
X728586*
X728049Y701346*
X727870Y701592*
X727691Y702084*
Y702822*
X727870Y703314*
X728228Y703807*
X728765Y704053*
X729481Y704299*
X729839Y704545*
X730018Y705037*
Y705529*
X729839Y706021*
X729302Y706267*
X728586*
X733955Y705529D02*
X733776Y706021D01*
X733239Y706267*
X732881*
X732344Y706021*
X731986Y705283*
X731807Y704053*
Y702822*
X731986Y701838*
X732344Y701346*
X732881Y701100*
X733060*
X733597Y701346*
X733955Y701838*
X734134Y702576*
Y702822*
X733955Y703561*
X733597Y704053*
X733060Y704299*
X732881*
X732344Y704053*
X731986Y703561*
X731807Y702822*
G54D28*
X351454Y812328D02*
X354038D01*
X351454D02*
Y812955D01*
X351577Y813223*
X351823Y813402*
X352069Y813491*
X352438Y813581*
X353054*
X353423Y813491*
X353669Y813402*
X353915Y813223*
X354038Y812955*
Y812328*
X351946Y814386D02*
X351823Y814565D01*
X351454Y814834*
X354038*
X353954Y664426D02*
X356538D01*
X353954D02*
Y665052D01*
X354077Y665320*
X354323Y665499*
X354569Y665589*
X354938Y665678*
X355554*
X355923Y665589*
X356169Y665499*
X356415Y665320*
X356538Y665052*
Y664426*
X354569Y666573D02*
X354446D01*
X354200Y666662*
X354077Y666752*
X353954Y666931*
Y667289*
X354077Y667468*
X354200Y667557*
X354446Y667647*
X354692*
X354938Y667557*
X355308Y667378*
X356538Y666484*
Y667736*
G54D79*
G54D80*
X304958Y985237D02*
X304220Y984969D01*
X303482Y984432*
X303113Y983895*
Y982821*
X303482Y982284*
X304220Y981747*
X304958Y981479*
X306065Y981211*
X307911*
X309018Y981479*
X309756Y981747*
X310495Y982284*
X310864Y982821*
Y983895*
X310495Y984432*
X309756Y984969*
X309018Y985237*
X304589Y987653D02*
X304220Y988190D01*
X303113Y988995*
X310864*
X1234063Y532542D02*
X1233795Y533280D01*
X1233258Y534018*
X1232721Y534387*
X1231647*
X1231110Y534018*
X1230574Y533280*
X1230305Y532542*
X1230037Y531435*
Y529589*
X1230305Y528482*
X1230574Y527744*
X1231110Y527005*
X1231647Y526636*
X1232721*
X1233258Y527005*
X1233795Y527744*
X1234063Y528482*
X1236479Y532911D02*
X1237016Y533280D01*
X1237821Y534387*
Y526636*
X1241848Y534387D02*
X1241042Y534018D01*
X1240506Y532911*
X1240237Y531065*
Y529958*
X1240506Y528113*
X1241042Y527005*
X1241848Y526636*
X1242385*
X1243190Y527005*
X1243727Y528113*
X1243995Y529958*
Y531065*
X1243727Y532911*
X1243190Y534018*
X1242385Y534387*
X1241848*
X1195229Y543792D02*
X1194961Y544530D01*
X1194424Y545268*
X1193887Y545637*
X1192813*
X1192276Y545268*
X1191739Y544530*
X1191471Y543792*
X1191203Y542685*
Y540839*
X1191471Y539732*
X1191739Y538994*
X1192276Y538255*
X1192813Y537886*
X1193887*
X1194424Y538255*
X1194961Y538994*
X1195229Y539732*
X1197645Y544161D02*
X1198182Y544530D01*
X1198987Y545637*
Y537886*
X1201403Y544161D02*
X1201940Y544530D01*
X1202745Y545637*
Y537886*
X1249026Y546292D02*
X1248758Y547030D01*
X1248221Y547768*
X1247684Y548137*
X1246611*
X1246074Y547768*
X1245537Y547030*
X1245268Y546292*
X1245000Y545185*
Y543339*
X1245268Y542232*
X1245537Y541494*
X1246074Y540755*
X1246611Y540386*
X1247684*
X1248221Y540755*
X1248758Y541494*
X1249026Y542232*
X1251442Y546661D02*
X1251979Y547030D01*
X1252785Y548137*
Y540386*
X1255469Y546292D02*
Y546661D01*
X1255737Y547399*
X1256006Y547768*
X1256543Y548137*
X1257616*
X1258153Y547768*
X1258422Y547399*
X1258690Y546661*
Y545923*
X1258422Y545185*
X1257885Y544077*
X1255200Y540386*
X1258958*
X1147776Y532542D02*
X1147508Y533280D01*
X1146971Y534018*
X1146434Y534387*
X1145361*
X1144824Y534018*
X1144287Y533280*
X1144018Y532542*
X1143750Y531435*
Y529589*
X1144018Y528482*
X1144287Y527744*
X1144824Y527005*
X1145361Y526636*
X1146434*
X1146971Y527005*
X1147508Y527744*
X1147776Y528482*
X1150192Y532911D02*
X1150729Y533280D01*
X1151535Y534387*
Y526636*
X1154487Y534387D02*
X1157440D01*
X1155829Y531435*
X1156635*
X1157172Y531065*
X1157440Y530696*
X1157708Y529589*
Y528851*
X1157440Y527744*
X1156903Y527005*
X1156098Y526636*
X1155293*
X1154487Y527005*
X1154219Y527375*
X1153950Y528113*
X1196208Y776526D02*
X1195470Y776258D01*
X1194732Y775721*
X1194363Y775184*
Y774111*
X1194732Y773574*
X1195470Y773037*
X1196208Y772768*
X1197315Y772500*
X1199161*
X1200268Y772768*
X1201006Y773037*
X1201745Y773574*
X1202114Y774111*
Y775184*
X1201745Y775721*
X1201006Y776258*
X1200268Y776526*
X1195839Y778942D02*
X1195470Y779479D01*
X1194363Y780285*
X1202114*
X1194363Y785385D02*
X1199530Y782700D01*
Y786727*
X1194363Y785385D02*
X1202114D01*
X1121208Y991526D02*
X1120470Y991258D01*
X1119732Y990721*
X1119363Y990184*
Y989111*
X1119732Y988574*
X1120470Y988037*
X1121208Y987768*
X1122315Y987500*
X1124161*
X1125268Y987768*
X1126006Y988037*
X1126745Y988574*
X1127114Y989111*
Y990184*
X1126745Y990721*
X1126006Y991258*
X1125268Y991526*
X1120839Y993942D02*
X1120470Y994479D01*
X1119363Y995285*
X1127114*
X1119363Y1001190D02*
Y998506D01*
X1122685Y998237*
X1122315Y998506*
X1121946Y999311*
Y1000116*
X1122315Y1000922*
X1123054Y1001458*
X1124161Y1001727*
X1124899Y1001458*
X1126006Y1001190*
X1126745Y1000653*
X1127114Y999848*
Y999043*
X1126745Y998237*
X1126375Y997969*
X1125637Y997700*
X994026Y322542D02*
X993758Y323280D01*
X993221Y324018*
X992684Y324387*
X991611*
X991074Y324018*
X990537Y323280*
X990268Y322542*
X990000Y321435*
Y319589*
X990268Y318482*
X990537Y317744*
X991074Y317005*
X991611Y316636*
X992684*
X993221Y317005*
X993758Y317744*
X994026Y318482*
X996442Y322911D02*
X996979Y323280D01*
X997785Y324387*
Y316636*
X1003422Y323280D02*
X1003153Y324018D01*
X1002348Y324387*
X1001811*
X1001006Y324018*
X1000469Y322911*
X1000200Y321065*
Y319220*
X1000469Y317744*
X1001006Y317005*
X1001811Y316636*
X1002079*
X1002885Y317005*
X1003422Y317744*
X1003690Y318851*
Y319220*
X1003422Y320327*
X1002885Y321065*
X1002079Y321435*
X1001811*
X1001006Y321065*
X1000469Y320327*
X1000200Y319220*
X1281526Y717542D02*
X1281258Y718280D01*
X1280721Y719018*
X1280184Y719387*
X1279111*
X1278574Y719018*
X1278037Y718280*
X1277768Y717542*
X1277500Y716435*
Y714589*
X1277768Y713482*
X1278037Y712744*
X1278574Y712005*
X1279111Y711636*
X1280184*
X1280721Y712005*
X1281258Y712744*
X1281526Y713482*
X1283942Y717911D02*
X1284479Y718280D01*
X1285285Y719387*
Y711636*
X1291458Y719387D02*
X1288774Y711636D01*
X1287700Y719387D02*
X1291458D01*
X1281526Y665042D02*
X1281258Y665780D01*
X1280721Y666518*
X1280184Y666887*
X1279111*
X1278574Y666518*
X1278037Y665780*
X1277768Y665042*
X1277500Y663935*
Y662089*
X1277768Y660982*
X1278037Y660244*
X1278574Y659505*
X1279111Y659136*
X1280184*
X1280721Y659505*
X1281258Y660244*
X1281526Y660982*
X1283942Y665411D02*
X1284479Y665780D01*
X1285285Y666887*
Y659136*
X1291190Y664304D02*
X1290922Y663196D01*
X1290385Y662458*
X1289579Y662089*
X1289311*
X1288506Y662458*
X1287969Y663196*
X1287700Y664304*
Y664673*
X1287969Y665780*
X1288506Y666518*
X1289311Y666887*
X1289579*
X1290385Y666518*
X1290922Y665780*
X1291190Y664304*
Y662458*
X1290922Y660613*
X1290385Y659505*
X1289579Y659136*
X1289043*
X1288237Y659505*
X1287969Y660244*
X509958Y1012821D02*
X509220Y1012553D01*
X508482Y1012016*
X508113Y1011479*
Y1010405*
X508482Y1009868*
X509220Y1009332*
X509958Y1009063*
X511065Y1008795*
X512911*
X514018Y1009063*
X514756Y1009332*
X515495Y1009868*
X515864Y1010405*
Y1011479*
X515495Y1012016*
X514756Y1012553*
X514018Y1012821*
X509958Y1015506D02*
X509589D01*
X508851Y1015774*
X508482Y1016042*
X508113Y1016579*
Y1017653*
X508482Y1018190*
X508851Y1018458*
X509589Y1018727*
X510327*
X511065Y1018458*
X512173Y1017921*
X515864Y1015237*
Y1018995*
X1309147Y770042D02*
X1308879Y770780D01*
X1308342Y771518*
X1307805Y771887*
X1306731*
X1306195Y771518*
X1305658Y770780*
X1305389Y770042*
X1305121Y768935*
Y767089*
X1305389Y765982*
X1305658Y765244*
X1306195Y764505*
X1306731Y764136*
X1307805*
X1308342Y764505*
X1308879Y765244*
X1309147Y765982*
X1311832Y770042D02*
Y770411D01*
X1312100Y771149*
X1312368Y771518*
X1312905Y771887*
X1313979*
X1314516Y771518*
X1314784Y771149*
X1315053Y770411*
Y769673*
X1314784Y768935*
X1314247Y767827*
X1311563Y764136*
X1315321*
X1319348Y771887D02*
X1318542Y771518D01*
X1318006Y770411*
X1317737Y768565*
Y767458*
X1318006Y765613*
X1318542Y764505*
X1319348Y764136*
X1319885*
X1320690Y764505*
X1321227Y765613*
X1321495Y767458*
Y768565*
X1321227Y770411*
X1320690Y771518*
X1319885Y771887*
X1319348*
X1310313Y690042D02*
X1310045Y690780D01*
X1309508Y691518*
X1308971Y691887*
X1307897*
X1307360Y691518*
X1306824Y690780*
X1306555Y690042*
X1306287Y688935*
Y687089*
X1306555Y685982*
X1306824Y685244*
X1307360Y684505*
X1307897Y684136*
X1308971*
X1309508Y684505*
X1310045Y685244*
X1310313Y685982*
X1312997Y690042D02*
Y690411D01*
X1313266Y691149*
X1313534Y691518*
X1314071Y691887*
X1315145*
X1315682Y691518*
X1315950Y691149*
X1316219Y690411*
Y689673*
X1315950Y688935*
X1315413Y687827*
X1312729Y684136*
X1316487*
X1318903Y690411D02*
X1319440Y690780D01*
X1320245Y691887*
Y684136*
X1309147Y635042D02*
X1308879Y635780D01*
X1308342Y636518*
X1307805Y636887*
X1306731*
X1306195Y636518*
X1305658Y635780*
X1305389Y635042*
X1305121Y633935*
Y632089*
X1305389Y630982*
X1305658Y630244*
X1306195Y629505*
X1306731Y629136*
X1307805*
X1308342Y629505*
X1308879Y630244*
X1309147Y630982*
X1311832Y635042D02*
Y635411D01*
X1312100Y636149*
X1312368Y636518*
X1312905Y636887*
X1313979*
X1314516Y636518*
X1314784Y636149*
X1315053Y635411*
Y634673*
X1314784Y633935*
X1314247Y632827*
X1311563Y629136*
X1315321*
X1318006Y635042D02*
Y635411D01*
X1318274Y636149*
X1318542Y636518*
X1319079Y636887*
X1320153*
X1320690Y636518*
X1320958Y636149*
X1321227Y635411*
Y634673*
X1320958Y633935*
X1320421Y632827*
X1317737Y629136*
X1321495*
X1157776Y421292D02*
X1157508Y422030D01*
X1156971Y422768*
X1156434Y423137*
X1155361*
X1154824Y422768*
X1154287Y422030*
X1154018Y421292*
X1153750Y420185*
Y418339*
X1154018Y417232*
X1154287Y416494*
X1154824Y415755*
X1155361Y415386*
X1156434*
X1156971Y415755*
X1157508Y416494*
X1157776Y417232*
X1160461Y421292D02*
Y421661D01*
X1160729Y422399*
X1160998Y422768*
X1161535Y423137*
X1162608*
X1163145Y422768*
X1163414Y422399*
X1163682Y421661*
Y420923*
X1163414Y420185*
X1162877Y419077*
X1160192Y415386*
X1163950*
X1169051Y423137D02*
X1166366Y417970D01*
X1170393*
X1169051Y423137D02*
Y415386D01*
X1187776Y316292D02*
X1187508Y317030D01*
X1186971Y317768*
X1186434Y318137*
X1185361*
X1184824Y317768*
X1184287Y317030*
X1184018Y316292*
X1183750Y315185*
Y313339*
X1184018Y312232*
X1184287Y311494*
X1184824Y310755*
X1185361Y310386*
X1186434*
X1186971Y310755*
X1187508Y311494*
X1187776Y312232*
X1190461Y316292D02*
Y316661D01*
X1190729Y317399*
X1190998Y317768*
X1191535Y318137*
X1192608*
X1193145Y317768*
X1193414Y317399*
X1193682Y316661*
Y315923*
X1193414Y315185*
X1192877Y314077*
X1190192Y310386*
X1193950*
X1199856Y318137D02*
X1197172D01*
X1196903Y314815*
X1197172Y315185*
X1197977Y315554*
X1198782*
X1199588Y315185*
X1200124Y314446*
X1200393Y313339*
X1200124Y312601*
X1199856Y311494*
X1199319Y310755*
X1198514Y310386*
X1197708*
X1196903Y310755*
X1196635Y311125*
X1196366Y311863*
X1122776Y1093792D02*
X1122508Y1094530D01*
X1121971Y1095268*
X1121434Y1095637*
X1120361*
X1119824Y1095268*
X1119287Y1094530*
X1119018Y1093792*
X1118750Y1092685*
Y1090839*
X1119018Y1089732*
X1119287Y1088994*
X1119824Y1088255*
X1120361Y1087886*
X1121434*
X1121971Y1088255*
X1122508Y1088994*
X1122776Y1089732*
X1125461Y1093792D02*
Y1094161D01*
X1125729Y1094899*
X1125998Y1095268*
X1126535Y1095637*
X1127608*
X1128145Y1095268*
X1128414Y1094899*
X1128682Y1094161*
Y1093423*
X1128414Y1092685*
X1127877Y1091577*
X1125192Y1087886*
X1128950*
X1134588Y1094530D02*
X1134319Y1095268D01*
X1133514Y1095637*
X1132977*
X1132172Y1095268*
X1131635Y1094161*
X1131366Y1092315*
Y1090470*
X1131635Y1088994*
X1132172Y1088255*
X1132977Y1087886*
X1133245*
X1134051Y1088255*
X1134588Y1088994*
X1134856Y1090101*
Y1090470*
X1134588Y1091577*
X1134051Y1092315*
X1133245Y1092685*
X1132977*
X1132172Y1092315*
X1131635Y1091577*
X1131366Y1090470*
X233708Y830506D02*
X232970Y830237D01*
X232232Y829700*
X231863Y829163*
Y828090*
X232232Y827553*
X232970Y827016*
X233708Y826747*
X234815Y826479*
X236661*
X237768Y826747*
X238506Y827016*
X239245Y827553*
X239614Y828090*
Y829163*
X239245Y829700*
X238506Y830237*
X237768Y830506*
X233708Y833190D02*
X233339D01*
X232601Y833458*
X232232Y833727*
X231863Y834264*
Y835337*
X232232Y835874*
X232601Y836143*
X233339Y836411*
X234077*
X234815Y836143*
X235923Y835606*
X239614Y832921*
Y836679*
X234446Y842585D02*
X235554Y842317D01*
X236292Y841780*
X236661Y840974*
Y840706*
X236292Y839901*
X235554Y839364*
X234446Y839095*
X234077*
X232970Y839364*
X232232Y839901*
X231863Y840706*
Y840974*
X232232Y841780*
X232970Y842317*
X234446Y842585*
X236292*
X238137Y842317*
X239245Y841780*
X239614Y840974*
Y840438*
X239245Y839632*
X238506Y839364*
X256208Y824846D02*
X255470Y824578D01*
X254732Y824041*
X254363Y823504*
Y822430*
X254732Y821893*
X255470Y821356*
X256208Y821088*
X257315Y820820*
X259161*
X260268Y821088*
X261006Y821356*
X261745Y821893*
X262114Y822430*
Y823504*
X261745Y824041*
X261006Y824578*
X260268Y824846*
X256208Y827530D02*
X255839D01*
X255101Y827799*
X254732Y828067*
X254363Y828604*
Y829678*
X254732Y830215*
X255101Y830483*
X255839Y830752*
X256577*
X257315Y830483*
X258423Y829946*
X262114Y827262*
Y831020*
X256946Y836926D02*
X258054Y836657D01*
X258792Y836120*
X259161Y835315*
Y835047*
X258792Y834241*
X258054Y833704*
X256946Y833436*
X256577*
X255470Y833704*
X254732Y834241*
X254363Y835047*
Y835315*
X254732Y836120*
X255470Y836657*
X256946Y836926*
X258792*
X260637Y836657*
X261745Y836120*
X262114Y835315*
Y834778*
X261745Y833973*
X261006Y833704*
X729958Y1014071D02*
X729220Y1013803D01*
X728482Y1013266*
X728113Y1012729*
Y1011655*
X728482Y1011118*
X729220Y1010582*
X729958Y1010313*
X731065Y1010045*
X732911*
X734018Y1010313*
X734756Y1010582*
X735495Y1011118*
X735864Y1011655*
Y1012729*
X735495Y1013266*
X734756Y1013803*
X734018Y1014071*
X728113Y1017024D02*
Y1019977D01*
X731065Y1018366*
Y1019171*
X731435Y1019708*
X731804Y1019977*
X732911Y1020245*
X733649*
X734756Y1019977*
X735495Y1019440*
X735864Y1018635*
Y1017829*
X735495Y1017024*
X735125Y1016756*
X734387Y1016487*
X249052Y927542D02*
X248784Y928280D01*
X248247Y929018*
X247710Y929387*
X246637*
X246100Y929018*
X245563Y928280*
X245294Y927542*
X245026Y926435*
Y924589*
X245294Y923482*
X245563Y922744*
X246100Y922005*
X246637Y921636*
X247710*
X248247Y922005*
X248784Y922744*
X249052Y923482*
X252005Y929387D02*
X254958D01*
X253347Y926435*
X254153*
X254690Y926065*
X254958Y925696*
X255226Y924589*
Y923851*
X254958Y922744*
X254421Y922005*
X253616Y921636*
X252810*
X252005Y922005*
X251737Y922375*
X251468Y923113*
X259253Y929387D02*
X258448Y929018D01*
X257911Y927911*
X257642Y926065*
Y924958*
X257911Y923113*
X258448Y922005*
X259253Y921636*
X259790*
X260595Y922005*
X261132Y923113*
X261400Y924958*
Y926065*
X261132Y927911*
X260595Y929018*
X259790Y929387*
X259253*
X249712Y903792D02*
X249443Y904530D01*
X248907Y905268*
X248370Y905637*
X247296*
X246759Y905268*
X246222Y904530*
X245954Y903792*
X245685Y902685*
Y900839*
X245954Y899732*
X246222Y898994*
X246759Y898255*
X247296Y897886*
X248370*
X248907Y898255*
X249443Y898994*
X249712Y899732*
X252665Y905637D02*
X255617D01*
X254007Y902685*
X254812*
X255349Y902315*
X255617Y901946*
X255886Y900839*
Y900101*
X255617Y898994*
X255081Y898255*
X254275Y897886*
X253470*
X252665Y898255*
X252396Y898625*
X252128Y899363*
X259912Y905637D02*
X259107Y905268D01*
X258570Y904161*
X258302Y902315*
Y901208*
X258570Y899363*
X259107Y898255*
X259912Y897886*
X260449*
X261254Y898255*
X261791Y899363*
X262060Y901208*
Y902315*
X261791Y904161*
X261254Y905268*
X260449Y905637*
X259912*
X281208Y910276D02*
X280470Y910008D01*
X279732Y909471*
X279363Y908934*
Y907861*
X279732Y907324*
X280470Y906787*
X281208Y906518*
X282315Y906250*
X284161*
X285268Y906518*
X286006Y906787*
X286745Y907324*
X287114Y907861*
Y908934*
X286745Y909471*
X286006Y910008*
X285268Y910276*
X279363Y913229D02*
Y916182D01*
X282315Y914571*
Y915377*
X282685Y915914*
X283054Y916182*
X284161Y916450*
X284899*
X286006Y916182*
X286745Y915645*
X287114Y914840*
Y914035*
X286745Y913229*
X286375Y912961*
X285637Y912692*
X280839Y918866D02*
X280470Y919403D01*
X279363Y920208*
X287114*
X236208Y682871D02*
X235470Y682603D01*
X234732Y682066*
X234363Y681529*
Y680455*
X234732Y679919*
X235470Y679382*
X236208Y679113*
X237315Y678845*
X239161*
X240268Y679113*
X241006Y679382*
X241745Y679919*
X242114Y680455*
Y681529*
X241745Y682066*
X241006Y682603*
X240268Y682871*
X234363Y685824D02*
Y688777D01*
X237315Y687166*
Y687972*
X237685Y688508*
X238054Y688777*
X239161Y689045*
X239899*
X241006Y688777*
X241745Y688240*
X242114Y687435*
Y686629*
X241745Y685824*
X241375Y685556*
X240637Y685287*
X236208Y691730D02*
X235839D01*
X235101Y691998*
X234732Y692266*
X234363Y692803*
Y693877*
X234732Y694414*
X235101Y694682*
X235839Y694951*
X236577*
X237315Y694682*
X238423Y694145*
X242114Y691461*
Y695219*
X258708Y677212D02*
X257970Y676943D01*
X257232Y676407*
X256863Y675870*
Y674796*
X257232Y674259*
X257970Y673722*
X258708Y673454*
X259815Y673185*
X261661*
X262768Y673454*
X263506Y673722*
X264245Y674259*
X264614Y674796*
Y675870*
X264245Y676407*
X263506Y676943*
X262768Y677212*
X256863Y680165D02*
Y683117D01*
X259815Y681507*
Y682312*
X260185Y682849*
X260554Y683117*
X261661Y683386*
X262399*
X263506Y683117*
X264245Y682581*
X264614Y681775*
Y680970*
X264245Y680165*
X263875Y679896*
X263137Y679628*
X258708Y686070D02*
X258339D01*
X257601Y686339*
X257232Y686607*
X256863Y687144*
Y688218*
X257232Y688754*
X257601Y689023*
X258339Y689291*
X259077*
X259815Y689023*
X260923Y688486*
X264614Y685802*
Y689560*
X254052Y780042D02*
X253784Y780780D01*
X253247Y781518*
X252710Y781887*
X251637*
X251100Y781518*
X250563Y780780*
X250294Y780042*
X250026Y778935*
Y777089*
X250294Y775982*
X250563Y775244*
X251100Y774505*
X251637Y774136*
X252710*
X253247Y774505*
X253784Y775244*
X254052Y775982*
X257005Y781887D02*
X259958D01*
X258347Y778935*
X259153*
X259690Y778565*
X259958Y778196*
X260226Y777089*
Y776351*
X259958Y775244*
X259421Y774505*
X258616Y774136*
X257810*
X257005Y774505*
X256737Y774875*
X256468Y775613*
X263179Y781887D02*
X266132D01*
X264521Y778935*
X265327*
X265863Y778565*
X266132Y778196*
X266400Y777089*
Y776351*
X266132Y775244*
X265595Y774505*
X264790Y774136*
X263984*
X263179Y774505*
X262911Y774875*
X262642Y775613*
X252212Y756292D02*
X251943Y757030D01*
X251407Y757768*
X250870Y758137*
X249796*
X249259Y757768*
X248722Y757030*
X248454Y756292*
X248185Y755185*
Y753339*
X248454Y752232*
X248722Y751494*
X249259Y750755*
X249796Y750386*
X250870*
X251407Y750755*
X251943Y751494*
X252212Y752232*
X255165Y758137D02*
X258117D01*
X256507Y755185*
X257312*
X257849Y754815*
X258117Y754446*
X258386Y753339*
Y752601*
X258117Y751494*
X257581Y750755*
X256775Y750386*
X255970*
X255165Y750755*
X254896Y751125*
X254628Y751863*
X261339Y758137D02*
X264291D01*
X262681Y755185*
X263486*
X264023Y754815*
X264291Y754446*
X264560Y753339*
Y752601*
X264291Y751494*
X263754Y750755*
X262949Y750386*
X262144*
X261339Y750755*
X261070Y751125*
X260802Y751863*
X283708Y765276D02*
X282970Y765008D01*
X282232Y764471*
X281863Y763934*
Y762861*
X282232Y762324*
X282970Y761787*
X283708Y761518*
X284815Y761250*
X286661*
X287768Y761518*
X288506Y761787*
X289245Y762324*
X289614Y762861*
Y763934*
X289245Y764471*
X288506Y765008*
X287768Y765276*
X281863Y768229D02*
Y771182D01*
X284815Y769571*
Y770377*
X285185Y770914*
X285554Y771182*
X286661Y771450*
X287399*
X288506Y771182*
X289245Y770645*
X289614Y769840*
Y769035*
X289245Y768229*
X288875Y767961*
X288137Y767692*
X281863Y776551D02*
X287030Y773866D01*
Y777893*
X281863Y776551D02*
X289614D01*
X816208Y857776D02*
X815470Y857508D01*
X814732Y856971*
X814363Y856434*
Y855361*
X814732Y854824*
X815470Y854287*
X816208Y854018*
X817315Y853750*
X819161*
X820268Y854018*
X821006Y854287*
X821745Y854824*
X822114Y855361*
Y856434*
X821745Y856971*
X821006Y857508*
X820268Y857776*
X814363Y862877D02*
X819530Y860192D01*
Y864219*
X814363Y862877D02*
X822114D01*
X1049026Y992542D02*
X1048758Y993280D01*
X1048221Y994018*
X1047684Y994387*
X1046611*
X1046074Y994018*
X1045537Y993280*
X1045268Y992542*
X1045000Y991435*
Y989589*
X1045268Y988482*
X1045537Y987744*
X1046074Y987005*
X1046611Y986636*
X1047684*
X1048221Y987005*
X1048758Y987744*
X1049026Y988482*
X1054664Y993280D02*
X1054395Y994018D01*
X1053590Y994387*
X1053053*
X1052248Y994018*
X1051711Y992911*
X1051442Y991065*
Y989220*
X1051711Y987744*
X1052248Y987005*
X1053053Y986636*
X1053321*
X1054127Y987005*
X1054664Y987744*
X1054932Y988851*
Y989220*
X1054664Y990327*
X1054127Y991065*
X1053321Y991435*
X1053053*
X1052248Y991065*
X1051711Y990327*
X1051442Y989220*
X1383708Y1031526D02*
X1382970Y1031258D01*
X1382232Y1030721*
X1381863Y1030184*
Y1029111*
X1382232Y1028574*
X1382970Y1028037*
X1383708Y1027768*
X1384815Y1027500*
X1386661*
X1387768Y1027768*
X1388506Y1028037*
X1389245Y1028574*
X1389614Y1029111*
Y1030184*
X1389245Y1030721*
X1388506Y1031258*
X1387768Y1031526*
X1381863Y1037700D02*
X1389614Y1035016D01*
X1381863Y1033942D02*
Y1037700D01*
X1249958Y446840D02*
X1249220Y446571D01*
X1248482Y446034*
X1248113Y445497*
Y444424*
X1248482Y443887*
X1249220Y443350*
X1249958Y443082*
X1251065Y442813*
X1252911*
X1254018Y443082*
X1254756Y443350*
X1255495Y443887*
X1255864Y444424*
Y445497*
X1255495Y446034*
X1254756Y446571*
X1254018Y446840*
X1250696Y452745D02*
X1251804Y452477D01*
X1252542Y451940*
X1252911Y451135*
Y450866*
X1252542Y450061*
X1251804Y449524*
X1250696Y449256*
X1250327*
X1249220Y449524*
X1248482Y450061*
X1248113Y450866*
Y451135*
X1248482Y451940*
X1249220Y452477*
X1250696Y452745*
X1252542*
X1254387Y452477*
X1255495Y451940*
X1255864Y451135*
Y450598*
X1255495Y449792*
X1254756Y449524*
X361863Y813274D02*
X369614D01*
X361863D02*
Y815153D01*
X362232Y815958*
X362970Y816495*
X363708Y816764*
X364815Y817032*
X366661*
X367768Y816764*
X368506Y816495*
X369245Y815958*
X369614Y815153*
Y813274*
X363339Y819448D02*
X362970Y819985D01*
X361863Y820790*
X369614*
X365613Y664566D02*
X373364D01*
X365613D02*
Y666445D01*
X365982Y667250*
X366720Y667787*
X367458Y668056*
X368565Y668324*
X370411*
X371518Y668056*
X372256Y667787*
X372995Y667250*
X373364Y666445*
Y664566*
X367458Y671008D02*
X367089D01*
X366351Y671277*
X365982Y671545*
X365613Y672082*
Y673156*
X365982Y673693*
X366351Y673961*
X367089Y674230*
X367827*
X368565Y673961*
X369673Y673424*
X373364Y670740*
Y674498*
X890839Y1003137D02*
Y995386D01*
Y1003137D02*
X894329D01*
X890839Y999446D02*
X892987D01*
X896745Y1001661D02*
X897282Y1002030D01*
X898087Y1003137*
Y995386*
X850839Y1043137D02*
Y1035386D01*
Y1043137D02*
X854329D01*
X850839Y1039446D02*
X852987D01*
X856745Y1041661D02*
X857282Y1042030D01*
X858087Y1043137*
Y1035386*
X779631Y1003137D02*
Y995386D01*
Y1003137D02*
X783121D01*
X779631Y999446D02*
X781779D01*
X785805Y1001292D02*
Y1001661D01*
X786074Y1002399*
X786342Y1002768*
X786879Y1003137*
X787953*
X788490Y1002768*
X788758Y1002399*
X789026Y1001661*
Y1000923*
X788758Y1000185*
X788221Y999077*
X785537Y995386*
X789295*
X739631Y1043137D02*
Y1035386D01*
Y1043137D02*
X743121D01*
X739631Y1039446D02*
X741779D01*
X745805Y1041292D02*
Y1041661D01*
X746074Y1042399*
X746342Y1042768*
X746879Y1043137*
X747953*
X748490Y1042768*
X748758Y1042399*
X749026Y1041661*
Y1040923*
X748758Y1040185*
X748221Y1039077*
X745537Y1035386*
X749295*
X669631Y1003137D02*
Y995386D01*
Y1003137D02*
X673121D01*
X669631Y999446D02*
X671779D01*
X676074Y1003137D02*
X679026D01*
X677416Y1000185*
X678221*
X678758Y999815*
X679026Y999446*
X679295Y998339*
Y997601*
X679026Y996494*
X678490Y995755*
X677684Y995386*
X676879*
X676074Y995755*
X675805Y996125*
X675537Y996863*
X629631Y1043137D02*
Y1035386D01*
Y1043137D02*
X633121D01*
X629631Y1039446D02*
X631779D01*
X636074Y1043137D02*
X639026D01*
X637416Y1040185*
X638221*
X638758Y1039815*
X639026Y1039446*
X639295Y1038339*
Y1037601*
X639026Y1036494*
X638490Y1035755*
X637684Y1035386*
X636879*
X636074Y1035755*
X635805Y1036125*
X635537Y1036863*
X559497Y1003137D02*
Y995386D01*
Y1003137D02*
X562987D01*
X559497Y999446D02*
X561645D01*
X568087Y1003137D02*
X565403Y997970D01*
X569429*
X568087Y1003137D02*
Y995386D01*
X519497Y1043137D02*
Y1035386D01*
Y1043137D02*
X522987D01*
X519497Y1039446D02*
X521645D01*
X528087Y1043137D02*
X525403Y1037970D01*
X529429*
X528087Y1043137D02*
Y1035386D01*
X449497Y1003137D02*
Y995386D01*
Y1003137D02*
X452987D01*
X449497Y999446D02*
X451645D01*
X458892Y1003137D02*
X456208D01*
X455940Y999815*
X456208Y1000185*
X457013Y1000554*
X457819*
X458624Y1000185*
X459161Y999446*
X459429Y998339*
X459161Y997601*
X458892Y996494*
X458355Y995755*
X457550Y995386*
X456745*
X455940Y995755*
X455671Y996125*
X455403Y996863*
X409497Y1043137D02*
Y1035386D01*
Y1043137D02*
X412987D01*
X409497Y1039446D02*
X411645D01*
X418892Y1043137D02*
X416208D01*
X415940Y1039815*
X416208Y1040185*
X417013Y1040554*
X417819*
X418624Y1040185*
X419161Y1039446*
X419429Y1038339*
X419161Y1037601*
X418892Y1036494*
X418355Y1035755*
X417550Y1035386*
X416745*
X415940Y1035755*
X415671Y1036125*
X415403Y1036863*
X339766Y1003137D02*
Y995386D01*
Y1003137D02*
X343255D01*
X339766Y999446D02*
X341913D01*
X348892Y1002030D02*
X348624Y1002768D01*
X347819Y1003137*
X347282*
X346476Y1002768*
X345940Y1001661*
X345671Y999815*
Y997970*
X345940Y996494*
X346476Y995755*
X347282Y995386*
X347550*
X348355Y995755*
X348892Y996494*
X349161Y997601*
Y997970*
X348892Y999077*
X348355Y999815*
X347550Y1000185*
X347282*
X346476Y999815*
X345940Y999077*
X345671Y997970*
X299766Y1043137D02*
Y1035386D01*
Y1043137D02*
X303255D01*
X299766Y1039446D02*
X301913D01*
X308892Y1042030D02*
X308624Y1042768D01*
X307819Y1043137*
X307282*
X306476Y1042768*
X305940Y1041661*
X305671Y1039815*
Y1037970*
X305940Y1036494*
X306476Y1035755*
X307282Y1035386*
X307550*
X308355Y1035755*
X308892Y1036494*
X309161Y1037601*
Y1037970*
X308892Y1039077*
X308355Y1039815*
X307550Y1040185*
X307282*
X306476Y1039815*
X305940Y1039077*
X305671Y1037970*
X1288642Y853137D02*
Y845386D01*
X1294816Y852030D02*
X1294279Y852768D01*
X1293474Y853137*
X1292400*
X1291594Y852768*
X1291058Y852030*
Y851292*
X1291326Y850554*
X1291594Y850185*
X1292131Y849815*
X1293742Y849077*
X1294279Y848708*
X1294547Y848339*
X1294816Y847601*
Y846494*
X1294279Y845755*
X1293474Y845386*
X1292400*
X1291594Y845755*
X1291058Y846494*
X1298842Y853137D02*
X1298305Y852768D01*
X1297768Y852030*
X1297500Y851292*
X1297232Y850185*
Y848339*
X1297500Y847232*
X1297768Y846494*
X1298305Y845755*
X1298842Y845386*
X1299916*
X1300453Y845755*
X1300990Y846494*
X1301258Y847232*
X1301526Y848339*
Y850185*
X1301258Y851292*
X1300990Y852030*
X1300453Y852768*
X1299916Y853137*
X1298842*
X1303942Y851661D02*
X1304479Y852030D01*
X1305285Y853137*
Y845386*
X1306801Y825637D02*
Y817886D01*
X1312975Y824530D02*
X1312438Y825268D01*
X1311633Y825637*
X1310559*
X1309754Y825268*
X1309217Y824530*
Y823792*
X1309486Y823054*
X1309754Y822685*
X1310291Y822315*
X1311901Y821577*
X1312438Y821208*
X1312707Y820839*
X1312975Y820101*
Y818994*
X1312438Y818255*
X1311633Y817886*
X1310559*
X1309754Y818255*
X1309217Y818994*
X1317002Y825637D02*
X1316465Y825268D01*
X1315928Y824530*
X1315659Y823792*
X1315391Y822685*
Y820839*
X1315659Y819732*
X1315928Y818994*
X1316465Y818255*
X1317002Y817886*
X1318075*
X1318612Y818255*
X1319149Y818994*
X1319418Y819732*
X1319418D02*
X1319686Y820839D01*
Y822685*
X1319418Y823792*
X1319418D02*
X1319149Y824530D01*
X1318612Y825268*
X1318075Y825637*
X1317002*
X1322102Y824161D02*
X1322639Y824530D01*
X1323444Y825637*
Y817886*
X211495Y1008137D02*
Y1002232D01*
X211227Y1001125*
X210958Y1000755*
X210421Y1000386*
X209885*
X209348Y1000755*
X209079Y1001125*
X208811Y1002232*
Y1002970*
X213911Y1006661D02*
X214448Y1007030D01*
X215253Y1008137*
Y1000386*
X1368999Y562478D02*
Y556572D01*
X1368730Y555465*
X1368462Y555096*
X1367925Y554727*
X1367388*
X1366851Y555096*
X1366583Y555465*
X1366314Y556572*
Y557311*
X1371415Y561001D02*
X1371952Y561371D01*
X1372757Y562478*
Y554727*
X1376783Y562478D02*
X1375978Y562109D01*
X1375441Y561001*
X1375173Y559156*
Y558049*
X1375441Y556203*
X1375978Y555096*
X1376783Y554727*
X1377320*
X1378125Y555096*
X1378662Y556203*
X1378931Y558049*
Y559156*
X1378662Y561001*
X1378125Y562109*
X1377320Y562478*
X1376783*
X1356863Y575249D02*
X1362768D01*
X1363875Y574980*
X1364245Y574712*
X1364614Y574175*
Y573638*
X1364245Y573101*
X1363875Y572833*
X1362768Y572564*
X1362030*
X1358339Y577665D02*
X1357970Y578202D01*
X1356863Y579007*
X1364614*
X1356863Y583033D02*
X1357232Y582228D01*
X1358339Y581691*
X1360185Y581423*
X1361292*
X1363137Y581691*
X1364245Y582228*
X1364614Y583033*
Y583570*
X1364245Y584375*
X1363137Y584912*
X1361292Y585181*
X1360185*
X1358339Y584912*
X1357232Y584375*
X1356863Y583570*
Y583033*
X1368957Y527478D02*
Y521572D01*
X1368688Y520465*
X1368420Y520096*
X1367883Y519727*
X1367346*
X1366809Y520096*
X1366541Y520465*
X1366272Y521572*
Y522311*
X1371373Y526001D02*
X1371909Y526371D01*
X1372715Y527478*
Y519727*
X1375131Y526001D02*
X1375668Y526371D01*
X1376473Y527478*
Y519727*
X1356863Y456457D02*
X1362768D01*
X1363875Y456188*
X1364245Y455920*
X1364614Y455383*
Y454846*
X1364245Y454309*
X1363875Y454041*
X1362768Y453772*
X1362030*
X1358339Y458873D02*
X1357970Y459409D01*
X1356863Y460215*
X1364614*
X1358339Y462631D02*
X1357970Y463168D01*
X1356863Y463973*
X1364614*
X1336994Y978964D02*
Y973059D01*
X1336725Y971951*
X1336457Y971582*
X1335920Y971213*
X1335383*
X1334846Y971582*
X1334578Y971951*
X1334309Y973059*
Y973797*
X1342899Y978964D02*
X1340215D01*
X1339946Y975642*
X1340215Y976011*
X1341020Y976380*
X1341825*
X1342631Y976011*
X1343168Y975273*
X1343168D02*
X1343436Y974166D01*
X1343168Y973428*
X1343168D02*
X1342899Y972320D01*
X1342362Y971582*
X1341557Y971213*
X1340752*
X1339946Y971582*
X1339678Y971951*
X1339409Y972689*
X1336994Y1013137D02*
Y1007232D01*
X1336725Y1006125*
X1336457Y1005755*
X1335920Y1005386*
X1335383*
X1334846Y1005755*
X1334578Y1006125*
X1334309Y1007232*
Y1007970*
X1342899Y1013137D02*
X1340215D01*
X1339946Y1009815*
X1340215Y1010185*
X1341020Y1010554*
X1341825*
X1342631Y1010185*
X1343168Y1009446*
X1343168D02*
X1343436Y1008339D01*
X1343168Y1007601*
X1343168D02*
X1342899Y1006494D01*
X1342362Y1005755*
X1341557Y1005386*
X1340752*
X1339946Y1005755*
X1339678Y1006125*
X1339409Y1006863*
X1407128Y828964D02*
Y823059D01*
X1406859Y821951*
X1406591Y821582*
X1406054Y821213*
X1405517*
X1404980Y821582*
X1404712Y821951*
X1404443Y823059*
Y823797*
X1413302Y828964D02*
X1410617Y821213D01*
X1409544Y828964D02*
X1413302D01*
X1407128Y843137D02*
Y837232D01*
X1406859Y836125*
X1406591Y835755*
X1406054Y835386*
X1405517*
X1404980Y835755*
X1404712Y836125*
X1404443Y837232*
Y837970*
X1413302Y843137D02*
X1410617Y835386D01*
X1409544Y843137D02*
X1413302D01*
X1369628Y806228D02*
Y800322D01*
X1369359Y799215*
X1369091Y798846*
X1368554Y798477*
X1368017*
X1367480Y798846*
X1367212Y799215*
X1366943Y800322*
Y801061*
X1373386Y806228D02*
X1372581Y805859D01*
X1372312Y805121*
Y804382*
X1372581Y803644*
X1373117Y803275*
X1374191Y802906*
X1374996Y802537*
X1375533Y801799*
X1375802Y801061*
Y799953*
X1375533Y799215*
X1375265Y798846*
X1374460Y798477*
X1373386*
X1372581Y798846*
X1372312Y799215*
X1372044Y799953*
Y801061*
X1372312Y801799*
X1372849Y802537*
X1373654Y802906*
X1374728Y803275*
X1375265Y803644*
X1375533Y804382*
Y805121*
X1375265Y805859*
X1374460Y806228*
X1373386*
X1356863Y737128D02*
X1362768D01*
X1363875Y736859*
X1364245Y736591*
X1364614Y736054*
Y735517*
X1364245Y734980*
X1363875Y734712*
X1362768Y734443*
X1362030*
X1356863Y740886D02*
X1357232Y740081D01*
X1357970Y739812*
X1358708*
X1359446Y740081*
X1359815Y740617*
X1360185Y741691*
X1360554Y742496*
X1361292Y743033*
X1362030Y743302*
X1363137*
X1363875Y743033*
X1364245Y742765*
X1364614Y741960*
Y740886*
X1364245Y740081*
X1363875Y739812*
X1363137Y739544*
X1362030*
X1361292Y739812*
X1360554Y740349*
X1360185Y741154*
X1359815Y742228*
X1359446Y742765*
X1358708Y743033*
X1357970*
X1357232Y742765*
X1356863Y741960*
Y740886*
X1369762Y724978D02*
Y719072D01*
X1369494Y717965*
X1369225Y717596*
X1368688Y717227*
X1368151*
X1367615Y717596*
X1367346Y717965*
X1367078Y719072*
Y719811*
X1375668Y722394D02*
X1375399Y721287D01*
X1374862Y720549*
X1374057Y720180*
X1373788*
X1372983Y720549*
X1372446Y721287*
X1372178Y722394*
Y722763*
X1372446Y723871*
X1372983Y724609*
X1373788Y724978*
X1374057*
X1374862Y724609*
X1375399Y723871*
X1375668Y722394*
Y720549*
X1375399Y718703*
X1374862Y717596*
X1374057Y717227*
X1373520*
X1372715Y717596*
X1372446Y718334*
X1356863Y657262D02*
X1362768D01*
X1363875Y656994*
X1364245Y656725*
X1364614Y656188*
Y655651*
X1364245Y655115*
X1363875Y654846*
X1362768Y654578*
X1362030*
X1359446Y663168D02*
X1360554Y662899D01*
X1361292Y662362*
X1361661Y661557*
Y661288*
X1361292Y660483*
X1360554Y659946*
X1359446Y659678*
X1359077*
X1357970Y659946*
X1357232Y660483*
X1356863Y661288*
Y661557*
X1357232Y662362*
X1357970Y662899*
X1359446Y663168*
X1361292*
X1363137Y662899*
X1364245Y662362*
X1364614Y661557*
Y661020*
X1364245Y660215*
X1363506Y659946*
X686863Y757028D02*
X694614D01*
X686863D02*
Y759443D01*
X687232Y760249*
X687601Y760517*
X688339Y760786*
X689446*
X690185Y760517*
X690554Y760249*
X690923Y759443*
Y757028*
X688339Y763202D02*
X687970Y763738D01*
X686863Y764544*
X694614*
X686863Y768570D02*
X687232Y767765D01*
X688339Y767228*
X690185Y766960*
X691292*
X693137Y767228*
X694245Y767765*
X694614Y768570*
Y769107*
X694245Y769912*
X693137Y770449*
X691292Y770718*
X690185*
X688339Y770449*
X687232Y769912*
X686863Y769107*
Y768570*
X704579Y757028D02*
X712330D01*
X704579D02*
Y759443D01*
X704948Y760249*
X705317Y760517*
X706056Y760786*
X707163*
X707901Y760517*
X708270Y760249*
X708639Y759443*
Y757028*
X706056Y763202D02*
X705687Y763738D01*
X704579Y764544*
X712330*
X704579Y768570D02*
X704948Y767765D01*
X706056Y767228*
X707901Y766960*
X709008*
X710854Y767228*
X711961Y767765*
X712330Y768570*
Y769107*
X711961Y769912*
X710854Y770449*
X709008Y770718*
X707901*
X706056Y770449*
X704948Y769912*
X704579Y769107*
Y768570*
X339547Y891887D02*
X339010Y891518D01*
X338474Y890780*
X338205Y890042*
X337937Y888935*
Y887089*
X338205Y885982*
X338474Y885244*
X339010Y884505*
X339547Y884136*
X340621*
X341158Y884505*
X341695Y885244*
X341963Y885982*
X342232Y887089*
Y888935*
X341963Y890042*
X341695Y890780*
X341158Y891518*
X340621Y891887*
X339547*
X340353Y885613D02*
X341963Y883398D01*
X344647Y890411D02*
X345184Y890780D01*
X345990Y891887*
Y884136*
X342089Y744387D02*
X341552Y744018D01*
X341016Y743280*
X340747Y742542*
X340479Y741435*
Y739589*
X340747Y738482*
X341016Y737744*
X341552Y737005*
X342089Y736636*
X343163*
X343700Y737005*
X344237Y737744*
X344505Y738482*
X344774Y739589*
Y741435*
X344505Y742542*
X344237Y743280*
X343700Y744018*
X343163Y744387*
X342089*
X342895Y738113D02*
X344505Y735898D01*
X347458Y742542D02*
Y742911D01*
X347726Y743649*
X347995Y744018*
X348532Y744387*
X349605*
X350142Y744018*
X350411Y743649*
X350679Y742911*
Y742173*
X350411Y741435*
X349874Y740327*
X347190Y736636*
X350948*
X474363Y942500D02*
X482114D01*
X474363D02*
Y944916D01*
X474732Y945721*
X475101Y945990*
X475839Y946258*
X476577*
X477315Y945990*
X477685Y945721*
X478054Y944916*
Y942500*
Y944379D02*
X482114Y946258D01*
X475839Y948674D02*
X475470Y949211D01*
X474363Y950016*
X482114*
X1115613Y1064055D02*
X1123364D01*
X1115613D02*
Y1066471D01*
X1115982Y1067276*
X1116351Y1067545*
X1117089Y1067813*
X1117827*
X1118565Y1067545*
X1118935Y1067276*
X1119304Y1066471*
Y1064055*
Y1065934D02*
X1123364Y1067813D01*
X1117089Y1070229D02*
X1116720Y1070766D01*
X1115613Y1071571*
X1123364*
X1115613Y1075598D02*
X1115982Y1074792D01*
X1117089Y1074256*
X1118935Y1073987*
X1120042*
X1121887Y1074256*
X1122995Y1074792*
X1123364Y1075598*
Y1076135*
X1122995Y1076940*
X1121887Y1077477*
X1120042Y1077745*
X1118935*
X1117089Y1077477*
X1115982Y1076940*
X1115613Y1076135*
Y1075598*
X1125613Y1036471D02*
X1133364D01*
X1125613D02*
Y1038887D01*
X1125982Y1039692*
X1126351Y1039961*
X1127089Y1040229*
X1127827*
X1128565Y1039961*
X1128935Y1039692*
X1129304Y1038887*
Y1036471*
Y1038350D02*
X1133364Y1040229D01*
X1127089Y1042645D02*
X1126720Y1043182D01*
X1125613Y1043987*
X1133364*
X1127089Y1046403D02*
X1126720Y1046940D01*
X1125613Y1047745*
X1133364*
X1115613Y1036555D02*
X1123364D01*
X1115613D02*
Y1038971D01*
X1115982Y1039776*
X1116351Y1040045*
X1117089Y1040313*
X1117827*
X1118565Y1040045*
X1118935Y1039776*
X1119304Y1038971*
Y1036555*
Y1038434D02*
X1123364Y1040313D01*
X1117089Y1042729D02*
X1116720Y1043266D01*
X1115613Y1044071*
X1123364*
X1117458Y1046756D02*
X1117089D01*
X1116351Y1047024*
X1115982Y1047292*
X1115613Y1047829*
Y1048903*
X1115982Y1049440*
X1116351Y1049708*
X1117089Y1049977*
X1117827*
X1118565Y1049708*
X1119673Y1049171*
X1123364Y1046487*
Y1050245*
X709324Y866887D02*
Y859136D01*
Y866887D02*
X711739D01*
X712545Y866518*
X712813Y866149*
X713082Y865411*
Y864673*
X712813Y863935*
X712545Y863565*
X711739Y863196*
X709324*
X711203D02*
X713082Y859136D01*
X715497Y865411D02*
X716034Y865780D01*
X716840Y866887*
Y859136*
X722745Y864304D02*
X722477Y863196D01*
X721940Y862458*
X721135Y862089*
X720866*
X720061Y862458*
X719524Y863196*
X719256Y864304*
Y864673*
X719524Y865780*
X720061Y866518*
X720866Y866887*
X721135*
X721940Y866518*
X722477Y865780*
X722745Y864304*
Y862458*
X722477Y860613*
X721940Y859505*
X721135Y859136*
X720598*
X719792Y859505*
X719524Y860244*
X701863Y952500D02*
X709614D01*
X701863D02*
Y954916D01*
X702232Y955721*
X702601Y955990*
X703339Y956258*
X704077*
X704815Y955990*
X705185Y955721*
X705554Y954916*
Y952500*
Y954379D02*
X709614Y956258D01*
X703708Y958942D02*
X703339D01*
X702601Y959211*
X702232Y959479*
X701863Y960016*
Y961090*
X702232Y961627*
X702601Y961895*
X703339Y962164*
X704077*
X704815Y961895*
X705923Y961358*
X709614Y958674*
Y962432*
X746863Y792500D02*
X754614D01*
X746863D02*
Y794916D01*
X747232Y795721*
X747601Y795990*
X748339Y796258*
X749077*
X749815Y795990*
X750185Y795721*
X750554Y794916*
Y792500*
Y794379D02*
X754614Y796258D01*
X748708Y798942D02*
X748339D01*
X747601Y799211*
X747232Y799479*
X746863Y800016*
Y801090*
X747232Y801627*
X747601Y801895*
X748339Y802164*
X749077*
X749815Y801895*
X750923Y801358*
X754614Y798674*
Y802432*
X746863Y806458D02*
X747232Y805653D01*
X748339Y805116*
X750185Y804848*
X751292*
X753137Y805116*
X754245Y805653*
X754614Y806458*
Y806995*
X754245Y807801*
X753137Y808338*
X751292Y808606*
X750185*
X748339Y808338*
X747232Y807801*
X746863Y806995*
Y806458*
X759363Y800000D02*
X767114D01*
X759363D02*
Y802416D01*
X759732Y803221*
X760101Y803490*
X760839Y803758*
X761577*
X762315Y803490*
X762685Y803221*
X763054Y802416*
Y800000*
Y801879D02*
X767114Y803758D01*
X761208Y806442D02*
X760839D01*
X760101Y806711*
X759732Y806979*
X759363Y807516*
Y808590*
X759732Y809127*
X760101Y809395*
X760839Y809664*
X761577*
X762315Y809395*
X763423Y808858*
X767114Y806174*
Y809932*
X760839Y812348D02*
X760470Y812885D01*
X759363Y813690*
X767114*
X1199363Y850389D02*
X1207114D01*
X1199363D02*
Y852805D01*
X1199732Y853610*
X1200101Y853879*
X1200839Y854147*
X1201577*
X1202315Y853879*
X1202685Y853610*
X1203054Y852805*
Y850389*
Y852268D02*
X1207114Y854147D01*
X1201208Y856832D02*
X1200839D01*
X1200101Y857100*
X1199732Y857368*
X1199363Y857905*
Y858979*
X1199732Y859516*
X1200101Y859784*
X1200839Y860053*
X1201577*
X1202315Y859784*
X1203423Y859247*
X1207114Y856563*
Y860321*
X1201208Y863006D02*
X1200839D01*
X1200101Y863274*
X1199732Y863542*
X1199363Y864079*
Y865153*
X1199732Y865690*
X1200101Y865958*
X1200839Y866227*
X1201577*
X1202315Y865958*
X1203423Y865421*
X1207114Y862737*
Y866495*
X1165000Y764387D02*
Y756636D01*
Y764387D02*
X1167416D01*
X1168221Y764018*
X1168490Y763649*
X1168758Y762911*
Y762173*
X1168490Y761435*
X1168221Y761065*
X1167416Y760696*
X1165000*
X1166879D02*
X1168758Y756636D01*
X1171442Y762542D02*
Y762911D01*
X1171711Y763649*
X1171979Y764018*
X1172516Y764387*
X1173590*
X1174127Y764018*
X1174395Y763649*
X1174664Y762911*
Y762173*
X1174395Y761435*
X1173858Y760327*
X1171174Y756636*
X1174932*
X1177885Y764387D02*
X1180838D01*
X1179227Y761435*
X1180032*
X1180569Y761065*
X1180838Y760696*
X1181106Y759589*
Y758851*
X1180838Y757744*
X1180301Y757005*
X1179495Y756636*
X1178690*
X1177885Y757005*
X1177616Y757375*
X1177348Y758113*
X996613Y394750D02*
X1004364D01*
X996613D02*
Y397166D01*
X996982Y397971*
X997351Y398240*
X998089Y398508*
X998827*
X999565Y398240*
X999935Y397971*
X1000304Y397166*
Y394750*
Y396629D02*
X1004364Y398508D01*
X998458Y401192D02*
X998089D01*
X997351Y401461*
X996982Y401729*
X996613Y402266*
Y403340*
X996982Y403877*
X997351Y404145*
X998089Y404414*
X998827*
X999565Y404145*
X1000673Y403608*
X1004364Y400924*
Y404682*
X996613Y408440D02*
X996982Y407635D01*
X997720Y407366*
X998458*
X999196Y407635*
X999565Y408172*
X999935Y409245*
X1000304Y410051*
X1001042Y410588*
X1001780Y410856*
X1002887*
X1003625Y410588*
X1003995Y410319*
X1004364Y409514*
Y408440*
X1003995Y407635*
X1003625Y407366*
X1002887Y407098*
X1001780*
X1001042Y407366*
X1000304Y407903*
X999935Y408708*
X999565Y409782*
X999196Y410319*
X998458Y410588*
X997720*
X996982Y410319*
X996613Y409514*
Y408440*
X966863Y371250D02*
X974614D01*
X966863D02*
Y373666D01*
X967232Y374471*
X967601Y374740*
X968339Y375008*
X969077*
X969815Y374740*
X970185Y374471*
X970554Y373666*
Y371250*
Y373129D02*
X974614Y375008D01*
X968708Y377692D02*
X968339D01*
X967601Y377961*
X967232Y378229*
X966863Y378766*
Y379840*
X967232Y380377*
X967601Y380645*
X968339Y380914*
X969077*
X969815Y380645*
X970923Y380108*
X974614Y377424*
Y381182*
X969446Y387088D02*
X970554Y386819D01*
X971292Y386282*
X971661Y385477*
Y385208*
X971292Y384403*
X970554Y383866*
X969446Y383598*
X969077*
X967970Y383866*
X967232Y384403*
X966863Y385208*
Y385477*
X967232Y386282*
X967970Y386819*
X969446Y387088*
X971292*
X973137Y386819*
X974245Y386282*
X974614Y385477*
Y384940*
X974245Y384135*
X973506Y383866*
X849363Y958750D02*
X857114D01*
X849363D02*
Y961166D01*
X849732Y961971*
X850101Y962240*
X850839Y962508*
X851577*
X852315Y962240*
X852685Y961971*
X853054Y961166*
Y958750*
Y960629D02*
X857114Y962508D01*
X849363Y965461D02*
Y968414D01*
X852315Y966803*
Y967608*
X852685Y968145*
X853054Y968414*
X854161Y968682*
X854899*
X856006Y968414*
X856745Y967877*
X857114Y967071*
Y966266*
X856745Y965461*
X856375Y965192*
X855637Y964924*
X283113Y803750D02*
X290864D01*
X283113D02*
Y806166D01*
X283482Y806971*
X283851Y807240*
X284589Y807508*
X285327*
X286065Y807240*
X286435Y806971*
X286804Y806166*
Y803750*
Y805629D02*
X290864Y807508D01*
X283113Y810461D02*
Y813414D01*
X286065Y811803*
Y812608*
X286435Y813145*
X286804Y813414*
X287911Y813682*
X288649*
X289756Y813414*
X290495Y812877*
X290864Y812071*
Y811266*
X290495Y810461*
X290125Y810192*
X289387Y809924*
X283113Y817708D02*
X283482Y816903D01*
X284589Y816366*
X286435Y816098*
X287542*
X289387Y816366*
X290495Y816903*
X290864Y817708*
Y818245*
X290495Y819051*
X289387Y819588*
X287542Y819856*
X286435*
X284589Y819588*
X283482Y819051*
X283113Y818245*
Y817708*
X294363Y875305D02*
X302114D01*
X294363D02*
Y877721D01*
X294732Y878526*
X295101Y878795*
X295839Y879063*
X296577*
X297315Y878795*
X297685Y878526*
X298054Y877721*
Y875305*
Y877184D02*
X302114Y879063D01*
X294363Y882016D02*
Y884969D01*
X297315Y883358*
Y884163*
X297685Y884700*
X298054Y884969*
X299161Y885237*
X299899*
X301006Y884969*
X301745Y884432*
X302114Y883627*
Y882821*
X301745Y882016*
X301375Y881747*
X300637Y881479*
X295839Y887653D02*
X295470Y888190D01*
X294363Y888995*
X302114*
X361863Y838750D02*
X369614D01*
X361863D02*
Y841166D01*
X362232Y841971*
X362601Y842240*
X363339Y842508*
X364077*
X364815Y842240*
X365185Y841971*
X365554Y841166*
Y838750*
Y840629D02*
X369614Y842508D01*
X361863Y845461D02*
Y848414D01*
X364815Y846803*
Y847608*
X365185Y848145*
X365554Y848414*
X366661Y848682*
X367399*
X368506Y848414*
X369245Y847877*
X369614Y847071*
Y846266*
X369245Y845461*
X368875Y845192*
X368137Y844924*
X363708Y851366D02*
X363339D01*
X362601Y851635*
X362232Y851903*
X361863Y852440*
Y853514*
X362232Y854051*
X362601Y854319*
X363339Y854588*
X364077*
X364815Y854319*
X365923Y853782*
X369614Y851098*
Y854856*
X365613Y690000D02*
X373364D01*
X365613D02*
Y692416D01*
X365982Y693221*
X366351Y693490*
X367089Y693758*
X367827*
X368565Y693490*
X368935Y693221*
X369304Y692416*
Y690000*
Y691879D02*
X373364Y693758D01*
X365613Y696711D02*
Y699664D01*
X368565Y698053*
Y698858*
X368935Y699395*
X369304Y699664*
X370411Y699932*
X371149*
X372256Y699664*
X372995Y699127*
X373364Y698321*
Y697516*
X372995Y696711*
X372625Y696442*
X371887Y696174*
X365613Y702885D02*
Y705838D01*
X368565Y704227*
Y705032*
X368935Y705569*
X369304Y705838*
X370411Y706106*
X371149*
X372256Y705838*
X372995Y705301*
X373364Y704495*
Y703690*
X372995Y702885*
X372625Y702616*
X371887Y702348*
X283113Y656250D02*
X290864D01*
X283113D02*
Y658666D01*
X283482Y659471*
X283851Y659740*
X284589Y660008*
X285327*
X286065Y659740*
X286435Y659471*
X286804Y658666*
Y656250*
Y658129D02*
X290864Y660008D01*
X283113Y662961D02*
Y665914D01*
X286065Y664303*
Y665108*
X286435Y665645*
X286804Y665914*
X287911Y666182*
X288649*
X289756Y665914*
X290495Y665377*
X290864Y664571*
Y663766*
X290495Y662961*
X290125Y662692*
X289387Y662424*
X283113Y671282D02*
X288280Y668598D01*
Y672624*
X283113Y671282D02*
X290864D01*
X295613Y727621D02*
X303364D01*
X295613D02*
Y730037D01*
X295982Y730842*
X296351Y731110*
X297089Y731379*
X297827*
X298565Y731110*
X298935Y730842*
X299304Y730037*
Y727621*
Y729500D02*
X303364Y731379D01*
X295613Y734332D02*
Y737284D01*
X298565Y735674*
Y736479*
X298935Y737016*
X299304Y737284*
X300411Y737553*
X301149*
X302256Y737284*
X302995Y736747*
X303364Y735942*
Y735137*
X302995Y734332*
X302625Y734063*
X301887Y733795*
X295613Y743458D02*
Y740774D01*
X298935Y740506*
X298565Y740774*
X298196Y741579*
Y742385*
X298565Y743190*
X299304Y743727*
X300411Y743995*
X301149Y743727*
X302256Y743458*
X302995Y742921*
X303364Y742116*
Y741311*
X302995Y740506*
X302625Y740237*
X301887Y739969*
X311863Y882500D02*
X319614D01*
X311863D02*
Y884916D01*
X312232Y885721*
X312601Y885990*
X313339Y886258*
X314077*
X314815Y885990*
X315185Y885721*
X315554Y884916*
Y882500*
Y884379D02*
X319614Y886258D01*
X311863Y889211D02*
Y892164D01*
X314815Y890553*
Y891358*
X315185Y891895*
X315554Y892164*
X316661Y892432*
X317399*
X318506Y892164*
X319245Y891627*
X319614Y890821*
Y890016*
X319245Y889211*
X318875Y888942*
X318137Y888674*
X312970Y898069D02*
X312232Y897801D01*
X311863Y896995*
Y896458*
X312232Y895653*
X313339Y895116*
X315185Y894848*
X317030*
X318506Y895116*
X319245Y895653*
X319614Y896458*
Y896727*
X319245Y897532*
X318506Y898069*
X317399Y898338*
X317030*
X315923Y898069*
X315185Y897532*
X314815Y896727*
Y896458*
X315185Y895653*
X315923Y895116*
X317030Y894848*
X313113Y733750D02*
X320864D01*
X313113D02*
Y736166D01*
X313482Y736971*
X313851Y737240*
X314589Y737508*
X315327*
X316065Y737240*
X316435Y736971*
X316804Y736166*
Y733750*
Y735629D02*
X320864Y737508D01*
X313113Y740461D02*
Y743414D01*
X316065Y741803*
Y742608*
X316435Y743145*
X316804Y743414*
X317911Y743682*
X318649*
X319756Y743414*
X320495Y742877*
X320864Y742071*
Y741266*
X320495Y740461*
X320125Y740192*
X319387Y739924*
X313113Y747440D02*
X313482Y746635D01*
X314220Y746366*
X314958*
X315696Y746635*
X316065Y747172*
X316435Y748245*
X316804Y749051*
X317542Y749588*
X318280Y749856*
X319387*
X320125Y749588*
X320495Y749319*
X320864Y748514*
Y747440*
X320495Y746635*
X320125Y746366*
X319387Y746098*
X318280*
X317542Y746366*
X316804Y746903*
X316435Y747708*
X316065Y748782*
X315696Y749319*
X314958Y749588*
X314220*
X313482Y749319*
X313113Y748514*
Y747440*
X390000Y978137D02*
Y970386D01*
Y978137D02*
X392416D01*
X393221Y977768*
X393490Y977399*
X393758Y976661*
Y975923*
X393490Y975185*
X393221Y974815*
X392416Y974446*
X390000*
X391879D02*
X393758Y970386D01*
X398858Y978137D02*
X396174Y972970D01*
X400200*
X398858Y978137D02*
Y970386D01*
X505045Y975637D02*
Y967886D01*
Y975637D02*
X507461D01*
X508266Y975268*
X508534Y974899*
X508803Y974161*
Y973423*
X508534Y972685*
X508266Y972315*
X507461Y971946*
X505045*
X506924D02*
X508803Y967886D01*
X514708Y975637D02*
X512024D01*
X511756Y972315*
X512024Y972685*
X512829Y973054*
X513635*
X514440Y972685*
X514977Y971946*
X515245Y970839*
X514977Y970101*
X514708Y968994*
X514171Y968255*
X513366Y967886*
X512561*
X511756Y968255*
X511487Y968625*
X511219Y969363*
X748082Y978137D02*
Y970386D01*
Y978137D02*
X750497D01*
X751303Y977768*
X751571Y977399*
X751840Y976661*
Y975923*
X751571Y975185*
X751303Y974815*
X750497Y974446*
X748082*
X749961D02*
X751840Y970386D01*
X757477Y977030D02*
X757208Y977768D01*
X756403Y978137*
X755866*
X755061Y977768*
X754524Y976661*
X754256Y974815*
Y972970*
X754524Y971494*
X755061Y970755*
X755866Y970386*
X756135*
X756940Y970755*
X757477Y971494*
X757745Y972601*
Y972970*
X757477Y974077*
X756940Y974815*
X756135Y975185*
X755866*
X755061Y974815*
X754524Y974077*
X754256Y972970*
X1104363Y994063D02*
X1112114D01*
X1104363D02*
Y996479D01*
X1104732Y997284*
X1105101Y997553*
X1105839Y997821*
X1106577*
X1107315Y997553*
X1107685Y997284*
X1108054Y996479*
Y994063*
Y995942D02*
X1112114Y997821D01*
X1104363Y1003995D02*
X1112114Y1001311D01*
X1104363Y1000237D02*
Y1003995D01*
X1091863Y995313D02*
X1099614D01*
X1091863D02*
Y997729D01*
X1092232Y998534*
X1092601Y998803*
X1093339Y999071*
X1094077*
X1094815Y998803*
X1095185Y998534*
X1095554Y997729*
Y995313*
Y997192D02*
X1099614Y999071D01*
X1091863Y1002829D02*
X1092232Y1002024D01*
X1092970Y1001756*
X1093708*
X1094446Y1002024*
X1094815Y1002561*
X1095185Y1003635*
X1095554Y1004440*
X1096292Y1004977*
X1097030Y1005245*
X1098137*
X1098875Y1004977*
X1099245Y1004708*
X1099614Y1003903*
Y1002829*
X1099245Y1002024*
X1098875Y1001756*
X1098137Y1001487*
X1097030*
X1096292Y1001756*
X1095554Y1002292*
X1095185Y1003098*
X1094815Y1004171*
X1094446Y1004708*
X1093708Y1004977*
X1092970*
X1092232Y1004708*
X1091863Y1003903*
Y1002829*
X1126863Y1064332D02*
X1134614D01*
X1126863D02*
Y1066747D01*
X1127232Y1067553*
X1127601Y1067821*
X1128339Y1068090*
X1129077*
X1129815Y1067821*
X1130185Y1067553*
X1130554Y1066747*
Y1064332*
Y1066211D02*
X1134614Y1068090D01*
X1129446Y1073995D02*
X1130554Y1073727D01*
X1131292Y1073190*
X1131661Y1072385*
Y1072116*
X1131292Y1071311*
X1130554Y1070774*
X1129446Y1070506*
X1129077*
X1127970Y1070774*
X1127232Y1071311*
X1126863Y1072116*
Y1072385*
X1127232Y1073190*
X1127970Y1073727*
X1129446Y1073995*
X1131292*
X1133137Y1073727*
X1134245Y1073190*
X1134614Y1072385*
Y1071848*
X1134245Y1071042*
X1133506Y1070774*
X810115Y903797D02*
Y898260D01*
X810383Y897153*
X810920Y896415*
X811725Y896046*
X812262*
X813067Y896415*
X813604Y897153*
X813873Y898260*
Y903797*
X816288Y902320D02*
X816825Y902689D01*
X817631Y903797*
Y896046*
X760115Y883137D02*
Y877601D01*
X760383Y876494*
X760920Y875755*
X761725Y875386*
X762262*
X763067Y875755*
X763604Y876494*
X763873Y877601*
Y883137*
X766288Y881661D02*
X766825Y882030D01*
X767631Y883137*
Y875386*
X1128868Y393137D02*
Y387601D01*
X1129137Y386494*
X1129673Y385755*
X1130479Y385386*
X1131016*
X1131821Y385755*
X1132358Y386494*
X1132626Y387601*
Y393137*
X1135042Y391661D02*
X1135579Y392030D01*
X1136384Y393137*
Y385386*
X1140411Y393137D02*
X1139605Y392768D01*
X1139069Y391661*
X1138800Y389815*
Y388708*
X1139069Y386863*
X1139605Y385755*
X1140411Y385386*
X1140948*
X1141753Y385755*
X1142290Y386863*
X1142558Y388708*
Y389815*
X1142290Y391661*
X1141753Y392768*
X1140948Y393137*
X1140411*
X1176863Y352028D02*
X1182399D01*
X1183506Y352296*
X1184245Y352833*
X1184614Y353638*
Y354175*
X1184245Y354980*
X1183506Y355517*
X1182399Y355786*
X1176863*
X1178339Y358202D02*
X1177970Y358738D01*
X1176863Y359544*
X1184614*
X1176863Y363570D02*
X1177232Y362765D01*
X1178339Y362228*
X1180185Y361960*
X1181292*
X1183137Y362228*
X1184245Y362765*
X1184614Y363570*
Y364107*
X1184245Y364912*
X1183137Y365449*
X1181292Y365718*
X1180185*
X1178339Y365449*
X1177232Y364912*
X1176863Y364107*
Y363570*
X1133826Y296887D02*
Y291351D01*
X1134094Y290244*
X1134631Y289505*
X1135437Y289136*
X1135974*
X1136779Y289505*
X1137316Y290244*
X1137584Y291351*
Y296887*
X1140000Y295411D02*
X1140537Y295780D01*
X1141342Y296887*
Y289136*
X1143758Y295411D02*
X1144295Y295780D01*
X1145100Y296887*
Y289136*
X1176863Y260736D02*
X1182399D01*
X1183506Y261004*
X1184245Y261541*
X1184614Y262346*
Y262883*
X1184245Y263688*
X1183506Y264225*
X1182399Y264494*
X1176863*
X1178339Y266909D02*
X1177970Y267446D01*
X1176863Y268252*
X1184614*
X1178339Y270668D02*
X1177970Y271204D01*
X1176863Y272010*
X1184614*
X247028Y873137D02*
Y867601D01*
X247296Y866494*
X247833Y865755*
X248638Y865386*
X249175*
X249980Y865755*
X250517Y866494*
X250786Y867601*
Y873137*
X253202Y871661D02*
X253738Y872030D01*
X254544Y873137*
Y865386*
X257228Y871292D02*
Y871661D01*
X257496Y872399*
X257765Y872768*
X258302Y873137*
X259375*
X259912Y872768*
X260181Y872399*
X260449Y871661*
Y870923*
X260181Y870185*
X259644Y869077*
X256960Y865386*
X260718*
X213868Y868137D02*
Y862601D01*
X214137Y861494*
X214673Y860755*
X215479Y860386*
X216016*
X216821Y860755*
X217358Y861494*
X217626Y862601*
Y868137*
X220042Y866661D02*
X220579Y867030D01*
X221384Y868137*
Y860386*
X224069Y866292D02*
Y866661D01*
X224337Y867399*
X224605Y867768*
X225142Y868137*
X226216*
X226753Y867768*
X227021Y867399*
X227290Y866661*
Y865923*
X227021Y865185*
X226484Y864077*
X223800Y860386*
X227558*
X249528Y725637D02*
Y720101D01*
X249796Y718994*
X250333Y718255*
X251138Y717886*
X251675*
X252480Y718255*
X253017Y718994*
X253286Y720101*
Y725637*
X255702Y724161D02*
X256238Y724530D01*
X257044Y725637*
Y717886*
X259996Y725637D02*
X262949D01*
X261339Y722685*
X262144*
X262681Y722315*
X262949Y721946*
X263218Y720839*
Y720101*
X262949Y718994*
X262412Y718255*
X261607Y717886*
X260802*
X259996Y718255*
X259728Y718625*
X259460Y719363*
X221368Y725637D02*
Y720101D01*
X221637Y718994*
X222173Y718255*
X222979Y717886*
X223516*
X224321Y718255*
X224858Y718994*
X225126Y720101*
Y725637*
X227542Y724161D02*
X228079Y724530D01*
X228884Y725637*
Y717886*
X231837Y725637D02*
X234790D01*
X233179Y722685*
X233984*
X234521Y722315*
X234790Y721946*
X235058Y720839*
Y720101*
X234790Y718994*
X234253Y718255*
X233448Y717886*
X232642*
X231837Y718255*
X231569Y718625*
X231300Y719363*
X1004566Y1028137D02*
Y1022601D01*
X1004834Y1021494*
X1005371Y1020755*
X1006177Y1020386*
X1006714*
X1006714D02*
X1007519Y1020755D01*
X1008056Y1021494*
X1008324Y1022601*
Y1028137*
X1011008Y1026292D02*
Y1026661D01*
X1011277Y1027399*
X1011545Y1027768*
X1012082Y1028137*
X1013156*
X1013693Y1027768*
X1013961Y1027399*
X1014230Y1026661*
Y1025923*
X1013961Y1025185*
X1013424Y1024077*
X1010740Y1020386*
X1014498*
X1049363Y1046407D02*
X1054899D01*
X1056006Y1046675*
X1056745Y1047212*
X1057114Y1048017*
Y1048554*
X1056745Y1049359*
X1056006Y1049896*
X1054899Y1050165*
X1049363*
X1051208Y1052849D02*
X1050839D01*
X1050101Y1053117*
X1049732Y1053386*
X1049363Y1053923*
Y1054996*
X1049732Y1055533*
X1050101Y1055802*
X1050839Y1056070*
X1051577*
X1052315Y1055802*
X1053423Y1055265*
X1057114Y1052581*
Y1056339*
X1233772Y506297D02*
Y500760D01*
X1234041Y499653*
X1234578Y498915*
X1235383Y498546*
X1235920*
X1236725Y498915*
X1237262Y499653*
X1237530Y500760*
Y506297*
X1242631D02*
X1239946Y501129D01*
X1243973*
X1242631Y506297D02*
Y498546D01*
X1193772Y483137D02*
Y477601D01*
X1194041Y476494*
X1194578Y475755*
X1195383Y475386*
X1195920*
X1196725Y475755*
X1197262Y476494*
X1197530Y477601*
Y483137*
X1202631D02*
X1199946Y477970D01*
X1203973*
X1202631Y483137D02*
Y475386D01*
X1100022Y843797D02*
Y838260D01*
X1100291Y837153*
X1100828Y836415*
X1101633Y836046*
X1102170*
X1102975Y836415*
X1103512Y837153*
X1103780Y838260*
Y843797*
X1109686D02*
X1107002D01*
X1106733Y840475*
X1107002Y840844*
X1107807Y841213*
X1108612*
X1109418Y840844*
X1109954Y840106*
X1110223Y838999*
X1109954Y838260*
X1109686Y837153*
X1109149Y836415*
X1108344Y836046*
X1107538*
X1106733Y836415*
X1106465Y836784*
X1106196Y837522*
X1143772Y823137D02*
Y817601D01*
X1144041Y816494*
X1144578Y815755*
X1145383Y815386*
X1145920*
X1146725Y815755*
X1147262Y816494*
X1147530Y817601*
Y823137*
X1153436D02*
X1150752D01*
X1150483Y819815*
X1150752Y820185*
X1151557Y820554*
X1152362*
X1153168Y820185*
X1153704Y819446*
X1153973Y818339*
X1153704Y817601*
X1153436Y816494*
X1152899Y815755*
X1152094Y815386*
X1151288*
X1150483Y815755*
X1150215Y816125*
X1149946Y816863*
X1083450Y334387D02*
Y328851D01*
X1083719Y327744*
X1084256Y327005*
X1085061Y326636*
X1085598*
X1086403Y327005*
X1086940Y327744*
X1087208Y328851*
Y334387*
X1092845Y333280D02*
X1092577Y334018D01*
X1091772Y334387*
X1091235*
X1090429Y334018*
X1089893Y332911*
X1089624Y331065*
Y329220*
X1089893Y327744*
X1090429Y327005*
X1091235Y326636*
X1091503*
X1092309Y327005*
X1092845Y327744*
X1093114Y328851*
Y329220*
X1092845Y330327*
X1092309Y331065*
X1091503Y331435*
X1091235*
X1090429Y331065*
X1089893Y330327*
X1089624Y329220*
X1036863Y354041D02*
X1042399D01*
X1043506Y354309*
X1044245Y354846*
X1044614Y355651*
Y356188*
X1044245Y356994*
X1043506Y357530*
X1042399Y357799*
X1036863*
X1037970Y363436D02*
X1037232Y363168D01*
X1037232D02*
X1036863Y362362D01*
Y361825*
X1037232Y361020*
X1038339Y360483*
X1040185Y360215*
X1042030*
X1043506Y360483*
X1044245Y361020*
X1044614Y361825*
Y362094*
X1044245Y362899*
X1043506Y363436*
X1042399Y363704*
X1042030*
X1040923Y363436*
X1040185Y362899*
X1039815Y362094*
Y361825*
X1040185Y361020*
X1040923Y360483*
X1042030Y360215*
X1367749Y406228D02*
Y400322D01*
X1367480Y399215*
X1367212Y398846*
X1366675Y398477*
X1366138*
X1365601Y398846*
X1365333Y399215*
X1365064Y400322*
Y401061*
X1370165Y404751D02*
X1370702Y405121D01*
X1371507Y406228*
Y398477*
X1374191Y404382D02*
Y404751D01*
X1374460Y405490*
X1374728Y405859*
X1375265Y406228*
X1376339*
X1376875Y405859*
X1377144Y405490*
X1377412Y404751*
Y404013*
X1377144Y403275*
X1376607Y402168*
X1373923Y398477*
X1377681*
X1336863Y375249D02*
X1342768D01*
X1343875Y374980*
X1344245Y374712*
X1344614Y374175*
Y373638*
X1344245Y373101*
X1343875Y372833*
X1342768Y372564*
X1342030*
X1338339Y377665D02*
X1337970Y378202D01*
X1336863Y379007*
X1344614*
X1338708Y381691D02*
X1338339D01*
X1337601Y381960*
X1337232Y382228*
X1336863Y382765*
Y383839*
X1337232Y384375*
X1337601Y384644*
X1338339Y384912*
X1339077*
X1339815Y384644*
X1340923Y384107*
X1344614Y381423*
Y385181*
X443708Y654026D02*
X442970Y653758D01*
X442232Y653221*
X441863Y652684*
Y651611*
X442232Y651074*
X442970Y650537*
X443708Y650268*
X444815Y650000*
X446661*
X447768Y650268*
X448506Y650537*
X449245Y651074*
X449614Y651611*
Y652684*
X449245Y653221*
X448506Y653758*
X447768Y654026*
X441863Y656979D02*
Y659932D01*
X444815Y658321*
Y659127*
X445185Y659664*
X445554Y659932*
X446661Y660200*
X447399*
X448506Y659932*
X449245Y659395*
X449614Y658590*
Y657785*
X449245Y656979*
X448875Y656711*
X448137Y656442*
X441863Y666106D02*
Y663422D01*
X445185Y663153*
X444815Y663422*
X444446Y664227*
Y665032*
X444815Y665838*
X445554Y666374*
X446661Y666643*
X447399Y666374*
X448506Y666106*
X449245Y665569*
X449614Y664764*
Y663958*
X449245Y663153*
X448875Y662885*
X448137Y662616*
X702500Y831887D02*
Y824136D01*
Y831887D02*
X704916D01*
X705721Y831518*
X705990Y831149*
X706258Y830411*
Y829673*
X705990Y828935*
X705721Y828565*
X704916Y828196*
X702500*
X704379D02*
X706258Y824136D01*
X709211Y831887D02*
X712164D01*
X710553Y828935*
X711358*
X711895Y828565*
X712164Y828196*
X712432Y827089*
Y826351*
X712164Y825244*
X711627Y824505*
X710821Y824136*
X710016*
X709211Y824505*
X708942Y824875*
X708674Y825613*
X718338Y829304D02*
X718069Y828196D01*
X717532Y827458*
X716727Y827089*
X716458*
X715653Y827458*
X715116Y828196*
X714848Y829304*
Y829673*
X715116Y830780*
X715653Y831518*
X716458Y831887*
X716727*
X717532Y831518*
X718069Y830780*
X718338Y829304*
Y827458*
X718069Y825613*
X717532Y824505*
X716727Y824136*
X716190*
X715385Y824505*
X715116Y825244*
X734363Y791371D02*
X742114D01*
X734363D02*
Y793787D01*
X734732Y794592*
X735101Y794860*
X735839Y795129*
X736577*
X737315Y794860*
X737685Y794592*
X738054Y793787*
Y791371*
Y793250D02*
X742114Y795129D01*
X734363Y800229D02*
X739530Y797545D01*
Y801571*
X734363Y800229D02*
X742114D01*
X734363Y805598D02*
X734732Y804792D01*
X735839Y804256*
X737685Y803987*
X738792*
X740637Y804256*
X741745Y804792*
X742114Y805598*
Y806135*
X741745Y806940*
X740637Y807477*
X738792Y807745*
X737685*
X735839Y807477*
X734732Y806940*
X734363Y806135*
Y805598*
X523750Y568137D02*
Y560386D01*
Y568137D02*
X526166D01*
X526971Y567768*
X527240Y567399*
X527508Y566661*
Y565923*
X527240Y565185*
X526971Y564815*
X526166Y564446*
X523750*
X525629D02*
X527508Y560386D01*
X532608Y568137D02*
X529924Y562970D01*
X533950*
X532608Y568137D02*
Y560386D01*
X536366Y566661D02*
X536903Y567030D01*
X537708Y568137*
Y560386*
X588113Y551371D02*
X595864D01*
X588113D02*
Y553787D01*
X588482Y554592*
X588851Y554860*
X589589Y555129*
X590327*
X591065Y554860*
X591435Y554592*
X591804Y553787*
Y551371*
Y553250D02*
X595864Y555129D01*
X588113Y560229D02*
X593280Y557545D01*
Y561571*
X588113Y560229D02*
X595864D01*
X589958Y564256D02*
X589589D01*
X588851Y564524*
X588482Y564792*
X588113Y565329*
Y566403*
X588482Y566940*
X588851Y567208*
X589589Y567477*
X590327*
X591065Y567208*
X592173Y566671*
X595864Y563987*
Y567745*
X686102Y556887D02*
Y549136D01*
Y556887D02*
X688518D01*
X689324Y556518*
X689592Y556149*
X689860Y555411*
Y554673*
X689592Y553935*
X689324Y553565*
X688518Y553196*
X686102*
X687981D02*
X689860Y549136D01*
X694961Y556887D02*
X692276Y551720D01*
X696303*
X694961Y556887D02*
Y549136D01*
X701403Y556887D02*
X698719Y551720D01*
X702745*
X701403Y556887D02*
Y549136D01*
X661863Y528602D02*
X669614D01*
X661863D02*
Y531018D01*
X662232Y531824*
X662601Y532092*
X663339Y532360*
X664077*
X664815Y532092*
X665185Y531824*
X665554Y531018*
Y528602*
Y530481D02*
X669614Y532360D01*
X661863Y537461D02*
X667030Y534776D01*
Y538803*
X661863Y537461D02*
X669614D01*
X661863Y544708D02*
Y542024D01*
X665185Y541756*
X664815Y542024*
X664446Y542829*
Y543635*
X664815Y544440*
X665554Y544977*
X666661Y545245*
X667399Y544977*
X668506Y544708*
X669245Y544171*
X669614Y543366*
Y542561*
X669245Y541756*
X668875Y541487*
X668137Y541219*
X522500Y588137D02*
Y580386D01*
Y588137D02*
X524916D01*
X525721Y587768*
X525990Y587399*
X526258Y586661*
Y585923*
X525990Y585185*
X525721Y584815*
X524916Y584446*
X522500*
X524379D02*
X526258Y580386D01*
X531358Y588137D02*
X528674Y582970D01*
X532700*
X531358Y588137D02*
Y580386D01*
X538874Y588137D02*
X536190Y580386D01*
X535116Y588137D02*
X538874D01*
X588113Y582500D02*
X595864D01*
X588113D02*
Y584916D01*
X588482Y585721*
X588851Y585990*
X589589Y586258*
X590327*
X591065Y585990*
X591435Y585721*
X591804Y584916*
Y582500*
Y584379D02*
X595864Y586258D01*
X588113Y591358D02*
X593280Y588674D01*
Y592700*
X588113Y591358D02*
X595864D01*
X588113Y596458D02*
X588482Y595653D01*
X589220Y595385*
X589958*
X590696Y595653*
X591065Y596190*
X591435Y597264*
X591804Y598069*
X592542Y598606*
X593280Y598874*
X594387*
X595125Y598606*
X595495Y598338*
X595864Y597532*
Y596458*
X595495Y595653*
X595125Y595385*
X594387Y595116*
X593280*
X592542Y595385*
X591804Y595922*
X591435Y596727*
X591065Y597801*
X590696Y598338*
X589958Y598606*
X589220*
X588482Y598338*
X588113Y597532*
Y596458*
X706371Y589387D02*
Y581636D01*
Y589387D02*
X708787D01*
X709592Y589018*
X709860Y588649*
X710129Y587911*
Y587173*
X709860Y586435*
X709592Y586065*
X708787Y585696*
X706371*
X708250D02*
X710129Y581636D01*
X716034Y589387D02*
X713350D01*
X713082Y586065*
X713350Y586435*
X714155Y586804*
X714961*
X715766Y586435*
X716303Y585696*
X716571Y584589*
X716303Y583851*
X716034Y582744*
X715497Y582005*
X714692Y581636*
X713887*
X713082Y582005*
X712813Y582375*
X712545Y583113*
X720598Y589387D02*
X719792Y589018D01*
X719256Y587911*
X718987Y586065*
Y584958*
X719256Y583113*
X719792Y582005*
X720598Y581636*
X721135*
X721940Y582005*
X722477Y583113*
X722745Y584958*
Y586065*
X722477Y587911*
X721940Y589018*
X721135Y589387*
X720598*
X649363Y576250D02*
X657114D01*
X649363D02*
Y578666D01*
X649732Y579471*
X650101Y579740*
X650839Y580008*
X651577*
X652315Y579740*
X652685Y579471*
X653054Y578666*
Y576250*
Y578129D02*
X657114Y580008D01*
X649363Y585914D02*
Y583229D01*
X652685Y582961*
X652315Y583229*
X651946Y584035*
Y584840*
X652315Y585645*
X653054Y586182*
X654161Y586450*
X654899Y586182*
X656006Y585914*
X656745Y585377*
X657114Y584571*
Y583766*
X656745Y582961*
X656375Y582692*
X655637Y582424*
X650839Y588866D02*
X650470Y589403D01*
X649363Y590208*
X657114*
X521250Y625637D02*
Y617886D01*
Y625637D02*
X523666D01*
X524471Y625268*
X524740Y624899*
X525008Y624161*
Y623423*
X524740Y622685*
X524471Y622315*
X523666Y621946*
X521250*
X523129D02*
X525008Y617886D01*
X530914Y625637D02*
X528229D01*
X527961Y622315*
X528229Y622685*
X529035Y623054*
X529840*
X530645Y622685*
X531182Y621946*
X531450Y620839*
X531182Y620101*
X530914Y618994*
X530377Y618255*
X529571Y617886*
X528766*
X527961Y618255*
X527692Y618625*
X527424Y619363*
X534403Y625637D02*
X537356D01*
X535745Y622685*
X536551*
X537088Y622315*
X537356Y621946*
X537624Y620839*
Y620101*
X537356Y618994*
X536819Y618255*
X536014Y617886*
X535208*
X534403Y618255*
X534135Y618625*
X533866Y619363*
X588113Y608602D02*
X595864D01*
X588113D02*
Y611018D01*
X588482Y611824*
X588851Y612092*
X589589Y612360*
X590327*
X591065Y612092*
X591435Y611824*
X591804Y611018*
Y608602*
Y610481D02*
X595864Y612360D01*
X588113Y618266D02*
Y615582D01*
X591435Y615313*
X591065Y615582*
X590696Y616387*
Y617192*
X591065Y617997*
X591804Y618534*
X592911Y618803*
X593649Y618534*
X594756Y618266*
X595495Y617729*
X595864Y616924*
Y616118*
X595495Y615313*
X595125Y615045*
X594387Y614776*
X588113Y623903D02*
X593280Y621219D01*
Y625245*
X588113Y623903D02*
X595864D01*
X685389Y620637D02*
Y612886D01*
Y620637D02*
X687805D01*
X688610Y620268*
X688879Y619899*
X689147Y619161*
Y618423*
X688879Y617685*
X688610Y617315*
X687805Y616946*
X685389*
X687268D02*
X689147Y612886D01*
X695053Y620637D02*
X692368D01*
X692100Y617315*
X692368Y617685*
X693174Y618054*
X693979*
X694784Y617685*
X695321Y616946*
X695590Y615839*
X695321Y615101*
X695053Y613994*
X694516Y613255*
X693711Y612886*
X692905*
X692100Y613255*
X691832Y613625*
X691563Y614363*
X701227Y619530D02*
X700958Y620268D01*
X700153Y620637*
X699616*
X698811Y620268*
X698274Y619161*
X698006Y617315*
Y615470*
X698274Y613994*
X698811Y613255*
X699616Y612886*
X699885*
X700690Y613255*
X701227Y613994*
X701495Y615101*
Y615470*
X701227Y616577*
X700690Y617315*
X699885Y617685*
X699616*
X698811Y617315*
X698274Y616577*
X698006Y615470*
X649363Y617500D02*
X657114D01*
X649363D02*
Y619916D01*
X649732Y620721*
X650101Y620990*
X650839Y621258*
X651577*
X652315Y620990*
X652685Y620721*
X653054Y619916*
Y617500*
Y619379D02*
X657114Y621258D01*
X649363Y627164D02*
Y624479D01*
X652685Y624211*
X652315Y624479*
X651946Y625285*
Y626090*
X652315Y626895*
X653054Y627432*
X654161Y627700*
X654899Y627432*
X656006Y627164*
X656745Y626627*
X657114Y625821*
Y625016*
X656745Y624211*
X656375Y623942*
X655637Y623674*
X649363Y633874D02*
X657114Y631190D01*
X649363Y630116D02*
Y633874D01*
X1168074Y673137D02*
Y665386D01*
Y673137D02*
X1170489D01*
X1171295Y672768*
X1171563Y672399*
X1171832Y671661*
Y670923*
X1171563Y670185*
X1171295Y669815*
X1170489Y669446*
X1168074*
X1169953D02*
X1171832Y665386D01*
X1177469Y672030D02*
X1177200Y672768D01*
X1176395Y673137*
X1175858*
X1175053Y672768*
X1174516Y671661*
X1174247Y669815*
Y667970*
X1174516Y666494*
X1175053Y665755*
X1175858Y665386*
X1176127*
X1176932Y665755*
X1177469Y666494*
X1177737Y667601*
Y667970*
X1177469Y669077*
X1176932Y669815*
X1176127Y670185*
X1175858*
X1175053Y669815*
X1174516Y669077*
X1174247Y667970*
X1180153Y671661D02*
X1180690Y672030D01*
X1181495Y673137*
Y665386*
X1168158Y636887D02*
Y629136D01*
Y636887D02*
X1170574D01*
X1171379Y636518*
X1171647Y636149*
X1171916Y635411*
Y634673*
X1171647Y633935*
X1171379Y633565*
X1170574Y633196*
X1168158*
X1170037D02*
X1171916Y629136D01*
X1177553Y635780D02*
X1177284Y636518D01*
X1176479Y636887*
X1175942*
X1175137Y636518*
X1174600Y635411*
X1174332Y633565*
Y631720*
X1174600Y630244*
X1175137Y629505*
X1175942Y629136*
X1176211*
X1177016Y629505*
X1177553Y630244*
X1177821Y631351*
Y631720*
X1177553Y632827*
X1177016Y633565*
X1176211Y633935*
X1175942*
X1175137Y633565*
X1174600Y632827*
X1174332Y631720*
X1180506Y635042D02*
Y635411D01*
X1180774Y636149*
X1181042Y636518*
X1181579Y636887*
X1182653*
X1183190Y636518*
X1183458Y636149*
X1183727Y635411*
Y634673*
X1183458Y633935*
X1182921Y632827*
X1180237Y629136*
X1183995*
X1234363Y778158D02*
X1242114D01*
X1234363D02*
Y780574D01*
X1234732Y781379*
X1235101Y781647*
X1235839Y781916*
X1236577*
X1237315Y781647*
X1237685Y781379*
X1238054Y780574*
Y778158*
Y780037D02*
X1242114Y781916D01*
X1235470Y787553D02*
X1234732Y787284D01*
X1234363Y786479*
Y785942*
X1234732Y785137*
X1235839Y784600*
X1237685Y784332*
X1239530*
X1241006Y784600*
X1241745Y785137*
X1242114Y785942*
Y786211*
X1241745Y787016*
X1241006Y787553*
X1239899Y787821*
X1239530*
X1238423Y787553*
X1237685Y787016*
X1237315Y786211*
Y785942*
X1237685Y785137*
X1238423Y784600*
X1239530Y784332*
X1234363Y790774D02*
Y793727D01*
X1237315Y792116*
Y792921*
X1237685Y793458*
X1238054Y793727*
X1239161Y793995*
X1239899*
X1241006Y793727*
X1241745Y793190*
X1242114Y792385*
Y791579*
X1241745Y790774*
X1241375Y790506*
X1240637Y790237*
X1324139Y725637D02*
Y717886D01*
Y725637D02*
X1326555D01*
X1327360Y725268*
X1327629Y724899*
X1327897Y724161*
Y723423*
X1327629Y722685*
X1327360Y722315*
X1326555Y721946*
X1324139*
X1326018D02*
X1327897Y717886D01*
X1333534Y724530D02*
X1333266Y725268D01*
X1332461Y725637*
X1331924*
X1331118Y725268*
X1330582Y724161*
X1330313Y722315*
Y720470*
X1330582Y718994*
X1331118Y718255*
X1331924Y717886*
X1332192*
X1332997Y718255*
X1333534Y718994*
X1333803Y720101*
Y720470*
X1333534Y721577*
X1332997Y722315*
X1332192Y722685*
X1331924*
X1331118Y722315*
X1330582Y721577*
X1330313Y720470*
X1338903Y725637D02*
X1336219Y720470D01*
X1340245*
X1338903Y725637D02*
Y717886D01*
X1246863Y777889D02*
X1254614D01*
X1246863D02*
Y780305D01*
X1247232Y781110*
X1247601Y781379*
X1248339Y781647*
X1249077*
X1249815Y781379*
X1250185Y781110*
X1250554Y780305*
Y777889*
Y779768D02*
X1254614Y781647D01*
X1247970Y787284D02*
X1247232Y787016D01*
X1246863Y786211*
Y785674*
X1247232Y784868*
X1248339Y784332*
X1250185Y784063*
X1252030*
X1253506Y784332*
X1254245Y784868*
X1254614Y785674*
Y785942*
X1254245Y786747*
X1253506Y787284*
X1252399Y787553*
X1252030*
X1250923Y787284*
X1250185Y786747*
X1249815Y785942*
Y785674*
X1250185Y784868*
X1250923Y784332*
X1252030Y784063*
X1246863Y793458D02*
Y790774D01*
X1250185Y790506*
X1249815Y790774*
X1249446Y791579*
Y792385*
X1249815Y793190*
X1250554Y793727*
X1251661Y793995*
X1252399Y793727*
X1253506Y793458*
X1254245Y792921*
X1254614Y792116*
Y791311*
X1254245Y790506*
X1253875Y790237*
X1253137Y789969*
X1294676Y753137D02*
Y745386D01*
Y753137D02*
X1297092D01*
X1297897Y752768*
X1298166Y752399*
X1298434Y751661*
Y750923*
X1298166Y750185*
X1297897Y749815*
X1297092Y749446*
X1294676*
X1296555D02*
X1298434Y745386D01*
X1304071Y752030D02*
X1303803Y752768D01*
X1302997Y753137*
X1302461*
X1301655Y752768*
X1301118Y751661*
X1300850Y749815*
Y747970*
X1301118Y746494*
X1301655Y745755*
X1302461Y745386*
X1302729*
X1303534Y745755*
X1304071Y746494*
X1304340Y747601*
Y747970*
X1304071Y749077*
X1303534Y749815*
X1302729Y750185*
X1302461*
X1301655Y749815*
X1301118Y749077*
X1300850Y747970*
X1309977Y752030D02*
X1309708Y752768D01*
X1308903Y753137*
X1308366*
X1307561Y752768*
X1307024Y751661*
X1306756Y749815*
Y747970*
X1307024Y746494*
X1307561Y745755*
X1308366Y745386*
X1308635*
X1309440Y745755*
X1309977Y746494*
X1310245Y747601*
Y747970*
X1309977Y749077*
X1309440Y749815*
X1308635Y750185*
X1308366*
X1307561Y749815*
X1307024Y749077*
X1306756Y747970*
X1208113Y778158D02*
X1215864D01*
X1208113D02*
Y780574D01*
X1208482Y781379*
X1208851Y781647*
X1209589Y781916*
X1210327*
X1211065Y781647*
X1211435Y781379*
X1211804Y780574*
Y778158*
Y780037D02*
X1215864Y781916D01*
X1209220Y787553D02*
X1208482Y787284D01*
X1208113Y786479*
Y785942*
X1208482Y785137*
X1209589Y784600*
X1211435Y784332*
X1213280*
X1214756Y784600*
X1215495Y785137*
X1215864Y785942*
Y786211*
X1215495Y787016*
X1214756Y787553*
X1213649Y787821*
X1213280*
X1212173Y787553*
X1211435Y787016*
X1211065Y786211*
Y785942*
X1211435Y785137*
X1212173Y784600*
X1213280Y784332*
X1208113Y793995D02*
X1215864Y791311D01*
X1208113Y790237D02*
Y793995D01*
X1170000Y749387D02*
Y741636D01*
Y749387D02*
X1172416D01*
X1173221Y749018*
X1173490Y748649*
X1173758Y747911*
Y747173*
X1173490Y746435*
X1173221Y746065*
X1172416Y745696*
X1170000*
X1171879D02*
X1173758Y741636D01*
X1179395Y748280D02*
X1179127Y749018D01*
X1178321Y749387*
X1177785*
X1176979Y749018*
X1176442Y747911*
X1176174Y746065*
Y744220*
X1176442Y742744*
X1176979Y742005*
X1177785Y741636*
X1178053*
X1178858Y742005*
X1179395Y742744*
X1179664Y743851*
Y744220*
X1179395Y745327*
X1178858Y746065*
X1178053Y746435*
X1177785*
X1176979Y746065*
X1176442Y745327*
X1176174Y744220*
X1183422Y749387D02*
X1182616Y749018D01*
X1182348Y748280*
Y747542*
X1182616Y746804*
X1183153Y746435*
X1184227Y746065*
X1185032Y745696*
X1185569Y744958*
X1185838Y744220*
Y743113*
X1185569Y742375*
X1185301Y742005*
X1184495Y741636*
X1183422*
X1182616Y742005*
X1182348Y742375*
X1182079Y743113*
Y744220*
X1182348Y744958*
X1182885Y745696*
X1183690Y746065*
X1184764Y746435*
X1185301Y746804*
X1185569Y747542*
Y748280*
X1185301Y749018*
X1184495Y749387*
X1183422*
X1221863Y778426D02*
X1229614D01*
X1221863D02*
Y780842D01*
X1222232Y781647*
X1222601Y781916*
X1223339Y782184*
X1224077*
X1224815Y781916*
X1225185Y781647*
X1225554Y780842*
Y778426*
Y780305D02*
X1229614Y782184D01*
X1222970Y787821D02*
X1222232Y787553D01*
X1221863Y786747*
Y786211*
X1222232Y785405*
X1223339Y784868*
X1225185Y784600*
X1227030*
X1228506Y784868*
X1229245Y785405*
X1229614Y786211*
Y786479*
X1229245Y787284*
X1228506Y787821*
X1227399Y788090*
X1227030*
X1225923Y787821*
X1225185Y787284*
X1224815Y786479*
Y786211*
X1225185Y785405*
X1225923Y784868*
X1227030Y784600*
X1224446Y793995D02*
X1225554Y793727D01*
X1226292Y793190*
X1226661Y792385*
Y792116*
X1226292Y791311*
X1225554Y790774*
X1224446Y790506*
X1224077*
X1222970Y790774*
X1222232Y791311*
X1221863Y792116*
Y792385*
X1222232Y793190*
X1222970Y793727*
X1224446Y793995*
X1226292*
X1228137Y793727*
X1229245Y793190*
X1229614Y792385*
Y791848*
X1229245Y791042*
X1228506Y790774*
X1170000Y714387D02*
Y706636D01*
Y714387D02*
X1172416D01*
X1173221Y714018*
X1173490Y713649*
X1173758Y712911*
Y712173*
X1173490Y711435*
X1173221Y711065*
X1172416Y710696*
X1170000*
X1171879D02*
X1173758Y706636D01*
X1179932Y714387D02*
X1177248Y706636D01*
X1176174Y714387D02*
X1179932D01*
X1183958D02*
X1183153Y714018D01*
X1182616Y712911*
X1182348Y711065*
Y709958*
X1182616Y708113*
X1183153Y707005*
X1183958Y706636*
X1184495*
X1185301Y707005*
X1185838Y708113*
X1186106Y709958*
Y711065*
X1185838Y712911*
X1185301Y714018*
X1184495Y714387*
X1183958*
X1239363Y567500D02*
X1247114D01*
X1239363D02*
Y569916D01*
X1239732Y570721*
X1240101Y570990*
X1240839Y571258*
X1241577*
X1242315Y570990*
X1242685Y570721*
X1243054Y569916*
Y567500*
Y569379D02*
X1247114Y571258D01*
X1239363Y577432D02*
X1247114Y574748D01*
X1239363Y573674D02*
Y577432D01*
X1240839Y579848D02*
X1240470Y580385D01*
X1239363Y581190*
X1247114*
X1276639Y605637D02*
Y597886D01*
Y605637D02*
X1279055D01*
X1279860Y605268*
X1280129Y604899*
X1280397Y604161*
Y603423*
X1280129Y602685*
X1279860Y602315*
X1279055Y601946*
X1276639*
X1278518D02*
X1280397Y597886D01*
X1286571Y605637D02*
X1283887Y597886D01*
X1282813Y605637D02*
X1286571D01*
X1289256Y603792D02*
Y604161D01*
X1289524Y604899*
X1289792Y605268*
X1290329Y605637*
X1291403*
X1291940Y605268*
X1292208Y604899*
X1292477Y604161*
Y603423*
X1292208Y602685*
X1291671Y601577*
X1288987Y597886*
X1292745*
X1224363Y568750D02*
X1232114D01*
X1224363D02*
Y571166D01*
X1224732Y571971*
X1225101Y572240*
X1225839Y572508*
X1226577*
X1227315Y572240*
X1227685Y571971*
X1228054Y571166*
Y568750*
Y570629D02*
X1232114Y572508D01*
X1224363Y578682D02*
X1232114Y575998D01*
X1224363Y574924D02*
Y578682D01*
Y581635D02*
Y584588D01*
X1227315Y582977*
Y583782*
X1227685Y584319*
X1228054Y584588*
X1229161Y584856*
X1229899*
X1231006Y584588*
X1231745Y584051*
X1232114Y583245*
Y582440*
X1231745Y581635*
X1231375Y581366*
X1230637Y581098*
X1177500Y613137D02*
Y605386D01*
Y613137D02*
X1179916D01*
X1180721Y612768*
X1180990Y612399*
X1181258Y611661*
Y610923*
X1180990Y610185*
X1180721Y609815*
X1179916Y609446*
X1177500*
X1179379D02*
X1181258Y605386D01*
X1187432Y613137D02*
X1184748Y605386D01*
X1183674Y613137D02*
X1187432D01*
X1192532D02*
X1189848Y607970D01*
X1193874*
X1192532Y613137D02*
Y605386D01*
X1075613Y305121D02*
X1083364D01*
X1075613D02*
Y307537D01*
X1075982Y308342*
X1076351Y308610*
X1077089Y308879*
X1077827*
X1078565Y308610*
X1078935Y308342*
X1079304Y307537*
Y305121*
Y307000D02*
X1083364Y308879D01*
X1075613Y315053D02*
X1083364Y312368D01*
X1075613Y311295D02*
Y315053D01*
Y320958D02*
Y318274D01*
X1078935Y318006*
X1078565Y318274*
X1078196Y319079*
Y319885*
X1078565Y320690*
X1079304Y321227*
X1080411Y321495*
X1081149Y321227*
X1082256Y320958*
X1082995Y320421*
X1083364Y319616*
Y318811*
X1082995Y318006*
X1082625Y317737*
X1081887Y317469*
X469408Y624387D02*
Y616636D01*
Y624387D02*
X471824D01*
X472629Y624018*
X472897Y623649*
X473166Y622911*
Y622173*
X472897Y621435*
X472629Y621065*
X471824Y620696*
X469408*
X471287D02*
X473166Y616636D01*
X479340Y624387D02*
X476655Y616636D01*
X475582Y624387D02*
X479340D01*
X484977Y623280D02*
X484708Y624018D01*
X483903Y624387*
X483366*
X482561Y624018*
X482024Y622911*
X481756Y621065*
Y619220*
X482024Y617744*
X482561Y617005*
X483366Y616636*
X483635*
X484440Y617005*
X484977Y617744*
X485245Y618851*
Y619220*
X484977Y620327*
X484440Y621065*
X483635Y621435*
X483366*
X482561Y621065*
X482024Y620327*
X481756Y619220*
X1267522Y699393D02*
X1273059D01*
X1274166Y699662*
X1274904Y700199*
X1275273Y701004*
Y701541*
X1274904Y702346*
X1274166Y702883*
X1273059Y703151*
X1267522*
X1268999Y705567D02*
X1268629Y706104D01*
X1267522Y706909*
X1275273*
X1267522Y712010D02*
X1272689Y709325D01*
Y713352*
X1267522Y712010D02*
X1275273D01*
X1229363Y719393D02*
X1234899D01*
X1236006Y719662*
X1236745Y720199*
X1237114Y721004*
Y721541*
X1236745Y722346*
X1236006Y722883*
X1234899Y723151*
X1229363*
X1230839Y725567D02*
X1230470Y726104D01*
X1229363Y726909*
X1237114*
X1229363Y732010D02*
X1234530Y729325D01*
Y733352*
X1229363Y732010D02*
X1237114D01*
X1266272Y625643D02*
X1271809D01*
X1272916Y625912*
X1273654Y626449*
X1274023Y627254*
Y627791*
X1273654Y628596*
X1272916Y629133*
X1271809Y629401*
X1266272*
X1267749Y631817D02*
X1267379Y632354D01*
X1266272Y633159*
X1274023*
X1266272Y639065D02*
Y636381D01*
X1269594Y636112*
X1269225Y636381*
X1268856Y637186*
Y637991*
X1269225Y638797*
X1269963Y639333*
X1271070Y639602*
X1271809Y639333*
X1272916Y639065*
X1273654Y638528*
X1274023Y637723*
Y636918*
X1273654Y636112*
X1273285Y635844*
X1272547Y635575*
X1229363Y641893D02*
X1234899D01*
X1236006Y642162*
X1236745Y642699*
X1237114Y643504*
Y644041*
X1236745Y644846*
X1236006Y645383*
X1234899Y645651*
X1229363*
X1230839Y648067D02*
X1230470Y648604D01*
X1229363Y649409*
X1237114*
X1229363Y655315D02*
Y652631D01*
X1232685Y652362*
X1232315Y652631*
X1231946Y653436*
Y654241*
X1232315Y655047*
X1233054Y655583*
X1234161Y655852*
X1234899Y655583*
X1236006Y655315*
X1236745Y654778*
X1237114Y653973*
Y653168*
X1237114D02*
X1236745Y652362D01*
X1236375Y652094*
X1235637Y651825*
X479953Y672162D02*
X485490D01*
X486597Y672430*
X487335Y672967*
X487704Y673772*
Y674309*
X487335Y675115*
X486597Y675651*
X485490Y675920*
X479953*
X481430Y678336D02*
X481061Y678873D01*
X479953Y679678*
X487704*
X481061Y685315D02*
X480322Y685047D01*
X479953Y684241*
Y683704*
X480322Y682899*
X481430Y682362*
X483275Y682094*
X485121*
X486597Y682362*
X487335Y682899*
X487704Y683704*
Y683973*
X487335Y684778*
X486597Y685315*
X485490Y685583*
X485121*
X484013Y685315*
X483275Y684778*
X482906Y683973*
Y683704*
X483275Y682899*
X484013Y682362*
X485121Y682094*
X564958Y534416D02*
X564220Y534147D01*
X563482Y533610*
X563113Y533074*
Y532000*
X563482Y531463*
X564220Y530926*
X564958Y530658*
X566065Y530389*
X567911*
X569018Y530658*
X569756Y530926*
X570495Y531463*
X570864Y532000*
Y533074*
X570495Y533610*
X569756Y534147*
X569018Y534416*
X563113Y537368D02*
Y540321D01*
X566065Y538711*
Y539516*
X566435Y540053*
X566804Y540321*
X567911Y540590*
X568649*
X569756Y540321*
X570495Y539784*
X570864Y538979*
Y538174*
X570495Y537368*
X570125Y537100*
X569387Y536832*
X564220Y546227D02*
X563482Y545958D01*
X563113Y545153*
Y544616*
X563482Y543811*
X564589Y543274*
X566435Y543006*
X568280*
X569756Y543274*
X570495Y543811*
X570864Y544616*
Y544885*
X570495Y545690*
X569756Y546227*
X568649Y546495*
X568280*
X567173Y546227*
X566435Y545690*
X566065Y544885*
Y544616*
X566435Y543811*
X567173Y543274*
X568280Y543006*
X676208Y532897D02*
X675470Y532629D01*
X674732Y532092*
X674363Y531555*
Y530481*
X674732Y529945*
X675470Y529408*
X676208Y529139*
X677315Y528871*
X679161*
X680268Y529139*
X681006Y529408*
X681745Y529945*
X682114Y530481*
Y531555*
X681745Y532092*
X681006Y532629*
X680268Y532897*
X674363Y535850D02*
Y538803D01*
X677315Y537192*
Y537997*
X677685Y538534*
X678054Y538803*
X679161Y539071*
X679899*
X681006Y538803*
X681745Y538266*
X682114Y537461*
Y536655*
X681745Y535850*
X681375Y535582*
X680637Y535313*
X674363Y545245D02*
X682114Y542561D01*
X674363Y541487D02*
Y545245D01*
X540397Y606292D02*
X540129Y607030D01*
X539592Y607768*
X539055Y608137*
X537981*
X537445Y607768*
X536908Y607030*
X536639Y606292*
X536371Y605185*
Y603339*
X536639Y602232*
X536908Y601494*
X537445Y600755*
X537981Y600386*
X539055*
X539592Y600755*
X540129Y601494*
X540397Y602232*
X543350Y608137D02*
X546303D01*
X544692Y605185*
X545497*
X546034Y604815*
X546303Y604446*
X546571Y603339*
Y602601*
X546303Y601494*
X545766Y600755*
X544961Y600386*
X544155*
X543350Y600755*
X543082Y601125*
X542813Y601863*
X550329Y608137D02*
X549524Y607768D01*
X549256Y607030*
Y606292*
X549524Y605554*
X550061Y605185*
X551135Y604815*
X551940Y604446*
X552477Y603708*
X552745Y602970*
Y601863*
X552477Y601125*
X552208Y600755*
X551403Y600386*
X550329*
X549524Y600755*
X549256Y601125*
X548987Y601863*
Y602970*
X549256Y603708*
X549792Y604446*
X550598Y604815*
X551671Y605185*
X552208Y605554*
X552477Y606292*
Y607030*
X552208Y607768*
X551403Y608137*
X550329*
X718166Y577542D02*
X717897Y578280D01*
X717360Y579018*
X716824Y579387*
X715750*
X715213Y579018*
X714676Y578280*
X714408Y577542*
X714139Y576435*
Y574589*
X714408Y573482*
X714676Y572744*
X715213Y572005*
X715750Y571636*
X716824*
X717360Y572005*
X717897Y572744*
X718166Y573482*
X721118Y579387D02*
X724071D01*
X722461Y576435*
X723266*
X723803Y576065*
X724071Y575696*
X724340Y574589*
Y573851*
X724071Y572744*
X723534Y572005*
X722729Y571636*
X721924*
X721118Y572005*
X720850Y572375*
X720582Y573113*
X730245Y576804D02*
X729977Y575696D01*
X729440Y574958*
X728635Y574589*
X728366*
X727561Y574958*
X727024Y575696*
X726756Y576804*
Y577173*
X727024Y578280*
X727561Y579018*
X728366Y579387*
X728635*
X729440Y579018*
X729977Y578280*
X730245Y576804*
Y574958*
X729977Y573113*
X729440Y572005*
X728635Y571636*
X728098*
X727292Y572005*
X727024Y572744*
X564958Y632629D02*
X564220Y632360D01*
X563482Y631824*
X563113Y631287*
Y630213*
X563482Y629676*
X564220Y629139*
X564958Y628871*
X566065Y628602*
X567911*
X569018Y628871*
X569756Y629139*
X570495Y629676*
X570864Y630213*
Y631287*
X570495Y631824*
X569756Y632360*
X569018Y632629*
X563113Y637729D02*
X568280Y635045D01*
Y639071*
X563113Y637729D02*
X570864D01*
X563113Y643098D02*
X563482Y642292D01*
X564589Y641756*
X566435Y641487*
X567542*
X569387Y641756*
X570495Y642292*
X570864Y643098*
Y643635*
X570495Y644440*
X569387Y644977*
X567542Y645245*
X566435*
X564589Y644977*
X563482Y644440*
X563113Y643635*
Y643098*
X674958Y629026D02*
X674220Y628758D01*
X673482Y628221*
X673113Y627684*
Y626611*
X673482Y626074*
X674220Y625537*
X674958Y625268*
X676065Y625000*
X677911*
X679018Y625268*
X679756Y625537*
X680495Y626074*
X680864Y626611*
Y627684*
X680495Y628221*
X679756Y628758*
X679018Y629026*
X673113Y634127D02*
X678280Y631442D01*
Y635469*
X673113Y634127D02*
X680864D01*
X674589Y637885D02*
X674220Y638422D01*
X673113Y639227*
X680864*
X577778Y955045D02*
X577510Y955783D01*
X576973Y956521*
X576436Y956890*
X575362*
X574826Y956521*
X574289Y955783*
X574020Y955045*
X573752Y953938*
Y952092*
X574020Y950985*
X574289Y950247*
X574826Y949509*
X575362Y949139*
X576436*
X576973Y949509*
X577510Y950247*
X577778Y950985*
X582878Y956890D02*
X580194Y951723D01*
X584221*
X582878Y956890D02*
Y949139D01*
X586905Y955045D02*
Y955414D01*
X587173Y956152*
X587442Y956521*
X587979Y956890*
X589052*
X589589Y956521*
X589858Y956152*
X590126Y955414*
Y954676*
X589858Y953938*
X589321Y952830*
X586637Y949139*
X590395*
X441526Y938792D02*
X441258Y939530D01*
X440721Y940268*
X440184Y940637*
X439111*
X438574Y940268*
X438037Y939530*
X437768Y938792*
X437500Y937685*
Y935839*
X437768Y934732*
X438037Y933994*
X438574Y933255*
X439111Y932886*
X440184*
X440721Y933255*
X441258Y933994*
X441526Y934732*
X446627Y940637D02*
X443942Y935470D01*
X447969*
X446627Y940637D02*
Y932886D01*
X450922Y940637D02*
X453874D01*
X452264Y937685*
X453069*
X453606Y937315*
X453874Y936946*
X454143Y935839*
Y935101*
X453874Y933994*
X453338Y933255*
X452532Y932886*
X451727*
X450922Y933255*
X450653Y933625*
X450385Y934363*
X1259139Y858137D02*
Y850386D01*
Y858137D02*
X1261555D01*
X1262360Y857768*
X1262629Y857399*
X1262897Y856661*
Y855923*
X1262629Y855185*
X1262360Y854815*
X1261555Y854446*
X1259139*
X1261018D02*
X1262897Y850386D01*
X1269071Y858137D02*
X1266387Y850386D01*
X1265313Y858137D02*
X1269071D01*
X1275245D02*
X1272561Y850386D01*
X1271487Y858137D02*
X1275245D01*
X1235389Y894387D02*
Y886636D01*
Y894387D02*
X1237805D01*
X1238610Y894018*
X1238879Y893649*
X1239147Y892911*
Y892173*
X1238879Y891435*
X1238610Y891065*
X1237805Y890696*
X1235389*
X1237268D02*
X1239147Y886636D01*
X1245321Y894387D02*
X1242637Y886636D01*
X1241563Y894387D02*
X1245321D01*
X1249079D02*
X1248274Y894018D01*
X1248006Y893280*
Y892542*
X1248274Y891804*
X1248811Y891435*
X1249885Y891065*
X1250690Y890696*
X1251227Y889958*
X1251495Y889220*
Y888113*
X1251227Y887375*
X1250958Y887005*
X1250153Y886636*
X1249079*
X1248274Y887005*
X1248006Y887375*
X1247737Y888113*
Y889220*
X1248006Y889958*
X1248542Y890696*
X1249348Y891065*
X1250421Y891435*
X1250958Y891804*
X1251227Y892542*
Y893280*
X1250958Y894018*
X1250153Y894387*
X1249079*
X1191908Y903137D02*
Y895386D01*
Y903137D02*
X1194324D01*
X1195129Y902768*
X1195397Y902399*
X1195666Y901661*
Y900923*
X1195397Y900185*
X1195129Y899815*
X1194324Y899446*
X1191908*
X1193787D02*
X1195666Y895386D01*
X1201840Y903137D02*
X1199155Y895386D01*
X1198082Y903137D02*
X1201840D01*
X1207745Y900554D02*
X1207477Y899446D01*
X1206940Y898708*
X1206135Y898339*
X1205866*
X1205061Y898708*
X1204524Y899446*
X1204256Y900554*
Y900923*
X1204524Y902030*
X1205061Y902768*
X1205866Y903137*
X1206135*
X1206940Y902768*
X1207477Y902030*
X1207745Y900554*
Y898708*
X1207477Y896863*
X1206940Y895755*
X1206135Y895386*
X1205598*
X1204792Y895755*
X1204524Y896494*
X680613Y842889D02*
X688364D01*
X680613D02*
Y845305D01*
X680982Y846110*
X681351Y846379*
X682089Y846647*
X682827*
X683565Y846379*
X683935Y846110*
X684304Y845305*
Y842889*
Y844768D02*
X688364Y846647D01*
X680613Y850405D02*
X680982Y849600D01*
X681720Y849332*
X682458*
X683196Y849600*
X683565Y850137*
X683935Y851211*
X684304Y852016*
X685042Y852553*
X685780Y852821*
X686887*
X687625Y852553*
X687995Y852284*
X688364Y851479*
Y850405*
X687995Y849600*
X687625Y849332*
X686887Y849063*
X685780*
X685042Y849332*
X684304Y849868*
X683935Y850674*
X683565Y851747*
X683196Y852284*
X682458Y852553*
X681720*
X680982Y852284*
X680613Y851479*
Y850405*
Y856848D02*
X680982Y856042D01*
X682089Y855506*
X683935Y855237*
X685042*
X686887Y855506*
X687995Y856042*
X688364Y856848*
Y857385*
X687995Y858190*
X686887Y858727*
X685042Y858995*
X683935*
X682089Y858727*
X680982Y858190*
X680613Y857385*
Y856848*
X545627Y898140D02*
Y890389D01*
Y898140D02*
X548043D01*
X548848Y897771*
X549116Y897402*
X549385Y896664*
Y895926*
X549116Y895187*
X548848Y894818*
X548043Y894449*
X545627*
X547506D02*
X549385Y890389D01*
X553143Y898140D02*
X552337Y897771D01*
X552069Y897033*
Y896295*
X552337Y895557*
X552874Y895187*
X553948Y894818*
X554753Y894449*
X555290Y893711*
X555559Y892973*
Y891866*
X555290Y891127*
X555022Y890758*
X554216Y890389*
X554216D02*
X553143D01*
X552337Y890758*
X552069Y891127*
X551801Y891866*
Y892973*
X552069Y893711*
X552606Y894449*
X553411Y894818*
X554485Y895187*
X555022Y895557*
X555290Y896295*
Y897033*
X555022Y897771*
X554216Y898140*
X554216D02*
X553143D01*
X557975Y896664D02*
X558511Y897033D01*
X559317Y898140*
Y890389*
X428750Y896887D02*
Y889136D01*
Y896887D02*
X431166D01*
X431971Y896518*
X432240Y896149*
X432508Y895411*
Y894673*
X432240Y893935*
X431971Y893565*
X431166Y893196*
X428750*
X430629D02*
X432508Y889136D01*
X436266Y896887D02*
X435461Y896518D01*
X435192Y895780*
Y895042*
X435461Y894304*
X435998Y893935*
X437071Y893565*
X437877Y893196*
X438414Y892458*
X438682Y891720*
Y890613*
X438414Y889875*
X438145Y889505*
X437340Y889136*
X436266*
X435461Y889505*
X435192Y889875*
X434924Y890613*
Y891720*
X435192Y892458*
X435729Y893196*
X436535Y893565*
X437608Y893935*
X438145Y894304*
X438414Y895042*
Y895780*
X438145Y896518*
X437340Y896887*
X436266*
X441366Y895042D02*
Y895411D01*
X441635Y896149*
X441903Y896518*
X442440Y896887*
X443514*
X444051Y896518*
X444319Y896149*
X444588Y895411*
Y894673*
X444319Y893935*
X443782Y892827*
X441098Y889136*
X444856*
X1067621Y861887D02*
Y854136D01*
Y861887D02*
X1070037D01*
X1070842Y861518*
X1071110Y861149*
X1071379Y860411*
Y859673*
X1071110Y858935*
X1070842Y858565*
X1070037Y858196*
X1067621*
X1069500D02*
X1071379Y854136D01*
X1075137Y861887D02*
X1074332Y861518D01*
X1074063Y860780*
Y860042*
X1074332Y859304*
X1074868Y858935*
X1075942Y858565*
X1076747Y858196*
X1077284Y857458*
X1077553Y856720*
Y855613*
X1077284Y854875*
X1077016Y854505*
X1076211Y854136*
X1075137*
X1074332Y854505*
X1074063Y854875*
X1073795Y855613*
Y856720*
X1074063Y857458*
X1074600Y858196*
X1075405Y858565*
X1076479Y858935*
X1077016Y859304*
X1077284Y860042*
Y860780*
X1077016Y861518*
X1076211Y861887*
X1075137*
X1082653D02*
X1079969Y856720D01*
X1083995*
X1082653Y861887D02*
Y854136D01*
X1068750Y528137D02*
Y520386D01*
Y528137D02*
X1071166D01*
X1071971Y527768*
X1072240Y527399*
X1072508Y526661*
Y525923*
X1072240Y525185*
X1071971Y524815*
X1071166Y524446*
X1068750*
X1070629D02*
X1072508Y520386D01*
X1076266Y528137D02*
X1075461Y527768D01*
X1075192Y527030*
Y526292*
X1075461Y525554*
X1075998Y525185*
X1077071Y524815*
X1077877Y524446*
X1078414Y523708*
X1078682Y522970*
Y521863*
X1078414Y521125*
X1078145Y520755*
X1077340Y520386*
X1076266*
X1075461Y520755*
X1075192Y521125*
X1074924Y521863*
Y522970*
X1075192Y523708*
X1075729Y524446*
X1076535Y524815*
X1077608Y525185*
X1078145Y525554*
X1078414Y526292*
Y527030*
X1078145Y527768*
X1077340Y528137*
X1076266*
X1084588D02*
X1081903D01*
X1081635Y524815*
X1081903Y525185*
X1082708Y525554*
X1083514*
X1084319Y525185*
X1084856Y524446*
X1085124Y523339*
X1084856Y522601*
X1084588Y521494*
X1084051Y520755*
X1083245Y520386*
X1082440*
X1081635Y520755*
X1081366Y521125*
X1081098Y521863*
X720658Y696887D02*
Y689136D01*
Y696887D02*
X723074D01*
X723879Y696518*
X724147Y696149*
X724416Y695411*
Y694673*
X724147Y693935*
X723879Y693565*
X723074Y693196*
X720658*
X722537D02*
X724416Y689136D01*
X728174Y696887D02*
X727368Y696518D01*
X727100Y695780*
Y695042*
X727368Y694304*
X727905Y693935*
X728979Y693565*
X729784Y693196*
X730321Y692458*
X730590Y691720*
Y690613*
X730321Y689875*
X730053Y689505*
X729247Y689136*
X728174*
X727368Y689505*
X727100Y689875*
X726832Y690613*
Y691720*
X727100Y692458*
X727637Y693196*
X728442Y693565*
X729516Y693935*
X730053Y694304*
X730321Y695042*
Y695780*
X730053Y696518*
X729247Y696887*
X728174*
X736227Y695780D02*
X735958Y696518D01*
X735153Y696887*
X734616*
X733811Y696518*
X733274Y695411*
X733006Y693565*
Y691720*
X733274Y690244*
X733811Y689505*
X734616Y689136*
X734885*
X735690Y689505*
X736227Y690244*
X736495Y691351*
Y691720*
X736227Y692827*
X735690Y693565*
X734885Y693935*
X734616*
X733811Y693565*
X733274Y692827*
X733006Y691720*
X367618Y905637D02*
Y900101D01*
X367887Y898994*
X368423Y898255*
X369229Y897886*
X369766*
X370571Y898255*
X371108Y898994*
X371376Y900101*
Y905637*
X373792Y904161D02*
X374329Y904530D01*
X375134Y905637*
Y897886*
X381308Y905637D02*
X378624Y897886D01*
X377550Y905637D02*
X381308D01*
X513245Y915640D02*
Y910104D01*
X513513Y908997*
X514050Y908258*
X514855Y907889*
X515392*
X516197Y908258*
X516734Y908997*
X517003Y910104*
Y915640*
X519419Y914164D02*
X519955Y914533D01*
X520761Y915640*
Y907889*
X524519Y915640D02*
X523714Y915271D01*
X523445Y914533*
Y913795*
X523714Y913057*
X524250Y912688*
X525324Y912318*
X526129Y911949*
X526666Y911211*
X526935Y910473*
Y909366*
X526666Y908628*
X526666D02*
X526398Y908258D01*
X525593Y907889*
X524519*
X523714Y908258*
X523445Y908628*
X523445D02*
X523177Y909366D01*
Y910473*
X523445Y911211*
X523982Y911949*
X524787Y912318*
X525861Y912688*
X526398Y913057*
X526666Y913795*
Y914533*
X526398Y915271*
X525593Y915640*
X524519*
G54D81*
X274530Y1002301D02*
Y997970D01*
X274333Y997158*
X274136Y996887*
X273742Y996617*
X273348*
X272955Y996887*
X272758Y997158*
X272561Y997970*
Y998511*
X276301Y1001218D02*
X276695Y1001489D01*
X277285Y1002301*
Y996617*
G54D82*
X340722Y865492D02*
X340931Y865188D01*
X341350Y864884*
X341768Y864732*
X342395Y864579*
X343441*
X344069Y864732*
X344487Y864884*
X344905Y865188*
X345114Y865492*
Y866101*
X344905Y866405*
X344487Y866709*
X344069Y866861*
X343441Y867013*
X342395*
X341768Y866861*
X341350Y866709*
X340931Y866405*
X340722Y866101*
Y865492*
X344278Y865948D02*
X345533Y866861D01*
X341559Y868382D02*
X341350Y868686D01*
X340722Y869143*
X345114*
X343222Y717308D02*
X343431Y717003D01*
X343850Y716699*
X344268Y716547*
X344895Y716395*
X345941*
X346569Y716547*
X346987Y716699*
X347405Y717003*
X347614Y717308*
Y717916*
X347405Y718220*
X346987Y718525*
X346569Y718677*
X345941Y718829*
X344895*
X344268Y718677*
X343850Y718525*
X343431Y718220*
X343222Y717916*
Y717308*
X346778Y717764D02*
X348033Y718677D01*
X344268Y720350D02*
X344059D01*
X343641Y720502*
X343431Y720654*
X343222Y720958*
Y721567*
X343431Y721871*
X343641Y722023*
X344059Y722175*
X344477*
X344895Y722023*
X345523Y721719*
X347614Y720198*
Y722327*
G54D83*
X282500Y822500D02*
X277500Y827500D01*
Y845000*
X281250Y848750*
X283750Y675000D02*
X278750Y680000D01*
Y698750*
X282500Y702500*
X555000Y601250D02*
X560000Y598750D01*
X680000Y578750D02*
X685000Y573750D01*
X711250*
G54D94*
X479990Y648729D02*
X484419D01*
X485305Y648944*
X485896Y649374*
X486191Y650018*
Y650447*
X485896Y651092*
X485305Y651521*
X484419Y651736*
X479990*
X481171Y653669D02*
X480876Y654098D01*
X479990Y654742*
X486191*
X480876Y659252D02*
X480285Y659037D01*
X479990Y658393*
Y657963*
X480285Y657319*
X481171Y656890*
X482648Y656675*
X484124*
X485305Y656890*
X485896Y657319*
X486191Y657963*
Y658178*
X485896Y658822*
X485305Y659252*
X484419Y659467*
X484124*
X483238Y659252*
X482648Y658822*
X482352Y658178*
Y657963*
X482648Y657319*
X483238Y656890*
X484124Y656675*
X404990Y911122D02*
X409419D01*
X410305Y911337*
X410896Y911766*
X411191Y912411*
Y912840*
X410896Y913484*
X410305Y913914*
X409419Y914128*
X404990*
X406171Y916061D02*
X405876Y916491D01*
X404990Y917135*
X411191*
X404990Y922074D02*
X411191Y919927D01*
X404990Y919068D02*
Y922074D01*
X544990Y926122D02*
X549419D01*
X550305Y926337*
X550896Y926766*
X551191Y927411*
Y927840*
X550896Y928484*
X550305Y928914*
X549419Y929128*
X544990*
X546171Y931061D02*
X545876Y931491D01*
X544990Y932135*
X551191*
X544990Y935141D02*
X545285Y934497D01*
X545876Y934282*
X546467*
X547057Y934497*
X547352Y934927*
X547648Y935786*
X547943Y936430*
X548533Y936859*
X549124Y937074*
X550010*
X550600Y936859*
X550896Y936645*
X551191Y936000*
Y935141*
X550896Y934497*
X550600Y934282*
X550010Y934068*
X549124*
X548533Y934282*
X547943Y934712*
X547648Y935356*
X547352Y936215*
X547057Y936645*
X546467Y936859*
X545876*
X545285Y936645*
X544990Y936000*
Y935141*
G74*
X0Y0D02*
M02*
