  0
SECTION
  2
HEADER
  9
$ACADVER
  1
AC1006
  0
ENDSEC
  0
SECTION
  2
TABLES
  0
TABLE
  2
LTYPE
 70
16
  0
LTYPE
  2
CONTINUOUS
 70
64
  3
GS Solid
 72
65
 73
0
 40
0.000000
  0
LTYPE
  2
GSDASHED
 70
64
  3
GS Internal Dash
 72
65
 73
2
 40
0.750000
 49
0.500000
 49
-0.250000
  0
LTYPE
  2
GSDOTTED
 70
64
  3
GS Internal Dot
 72
65
 73
2
 40
0.250000
 49
0.000000
 49
-0.250000
  0
LTYPE
  2
GSDASHDOT
 70
64
  3
GS Internal Dash-Dot
 72
65
 73
4
 40
1.000000
 49
0.500000
 49
-0.250000
 49
0.000000
 49
-0.250000
  0
LTYPE
  2
GSDASHDOTDOT
 70
64
  3
GS Internal Dash-Dot-Dot
 72
65
 73
6
 40
1.000000
 49
0.250000
 49
-0.250000
 49
0.000000
 49
-0.250000
 49
0.000000
 49
-0.250000
  0
LTYPE
  2
GSCUSTOM0
 70
64
  3
GSCUSTOM0
 72
65
 73
2
 40
0.200000
 49
0.100000
 49
-0.100000
  0
LTYPE
  2
GSCUSTOM1
 70
64
  3
GSCUSTOM1
 72
65
 73
2
 40
0.400000
 49
0.200000
 49
-0.200000
  0
LTYPE
  2
GSCUSTOM2
 70
64
  3
GSCUSTOM2
 72
65
 73
2
 40
0.600000
 49
0.300000
 49
-0.300000
  0
LTYPE
  2
GSCUSTOM3
 70
64
  3
GSCUSTOM3
 72
65
 73
2
 40
0.800000
 49
0.400000
 49
-0.400000
  0
LTYPE
  2
GSCUSTOM4
 70
64
  3
GSCUSTOM4
 72
65
 73
2
 40
1.000000
 49
0.500000
 49
-0.500000
  0
LTYPE
  2
GSCUSTOM5
 70
64
  3
GSCUSTOM5
 72
65
 73
4
 40
0.630000
 49
0.200000
 49
-0.200000
 49
0.030000
 49
-0.200000
  0
LTYPE
  2
GSCUSTOM6
 70
64
  3
GSCUSTOM6
 72
65
 73
6
 40
1.049999
 49
0.350000
 49
-0.200000
 49
0.050000
 49
-0.200000
 49
0.050000
 49
-0.200000
  0
LTYPE
  2
GSCUSTOM7
 70
64
  3
GSCUSTOM7
 72
65
 73
8
 40
1.100000
 49
0.350000
 49
-0.150000
 49
0.050000
 49
-0.150000
 49
0.050000
 49
-0.150000
 49
0.050000
 49
-0.150000
  0
LTYPE
  2
GSCUSTOM8
 70
64
  3
GSCUSTOM8
 72
65
 73
6
 40
0.879999
 49
0.200000
 49
-0.150000
 49
0.200000
 49
-0.150000
 49
0.030000
 49
-0.150000
  0
LTYPE
  2
GSCUSTOM9
 70
64
  3
GSCUSTOM9
 72
65
 73
8
 40
1.059999
 49
0.200000
 49
-0.150000
 49
0.200000
 49
-0.150000
 49
0.030000
 49
-0.150000
 49
0.030000
 49
-0.150000
  0
LTYPE
  2
GSCUSTOM10
 70
64
  3
GSCUSTOM10
 72
65
 73
10
 40
2.299999
 49
0.500000
 49
-0.200000
 49
0.500000
 49
-0.200000
 49
0.100000
 49
-0.200000
 49
0.100000
 49
-0.200000
 49
0.100000
 49
-0.200000
  0
ENDTAB
  0
ENDSEC
  0
SECTION
  2
ENTITIES
  0
POLYLINE
  8
GSLAYER
  6
CONTINUOUS
 62
1
 40
0.000000
 41
0.000000
 70
128
 66
1
  0
VERTEX
  8
GSLAYER
 10
5.907000
 20
27.994001
  0
VERTEX
  8
GSLAYER
 10
6.068000
 20
27.564001
  0
VERTEX
  8
GSLAYER
 10
6.875000
 20
27.239002
  0
VERTEX
  8
GSLAYER
 10
7.924000
 20
27.942001
  0
VERTEX
  8
GSLAYER
 10
8.973000
 20
27.005001
  0
VERTEX
  8
GSLAYER
 10
9.160000
 20
27.109001
  0
VERTEX
  8
GSLAYER
 10
9.457000
 20
26.940001
  0
VERTEX
  8
GSLAYER
 10
9.806000
 20
27.213001
  0
VERTEX
  8
GSLAYER
 10
10.371000
 20
27.161001
  0
VERTEX
  8
GSLAYER
 10
10.988000
 20
27.369001
  0
VERTEX
  8
GSLAYER
 10
11.554000
 20
27.343000
  0
VERTEX
  8
GSLAYER
 10
11.689000
 20
27.005001
  0
VERTEX
  8
GSLAYER
 10
13.408999
 20
26.887001
  0
VERTEX
  8
GSLAYER
 10
13.488999
 20
26.432001
  0
VERTEX
  8
GSLAYER
 10
13.624000
 20
26.250002
  0
VERTEX
  8
GSLAYER
 10
13.624000
 20
23.959002
  0
VERTEX
  8
GSLAYER
 10
17.469000
 20
23.348001
  0
VERTEX
  8
GSLAYER
 10
18.410999
 20
23.296001
  0
VERTEX
  8
GSLAYER
 10
18.841000
 20
23.048000
  0
VERTEX
  8
GSLAYER
 10
19.081999
 20
22.645000
  0
VERTEX
  8
GSLAYER
 10
19.379000
 20
22.007002
  0
VERTEX
  8
GSLAYER
 10
19.567999
 20
21.278002
  0
VERTEX
  8
GSLAYER
 10
19.567999
 20
20.927002
  0
VERTEX
  8
GSLAYER
 10
19.299000
 20
20.120001
  0
VERTEX
  8
GSLAYER
 10
19.109999
 20
19.352001
  0
VERTEX
  8
GSLAYER
 10
19.217999
 20
18.298000
  0
VERTEX
  8
GSLAYER
 10
19.407000
 20
17.999001
  0
VERTEX
  8
GSLAYER
 10
19.486000
 20
16.606001
  0
VERTEX
  8
GSLAYER
 10
19.567999
 20
16.125000
  0
VERTEX
  8
GSLAYER
 10
19.729000
 20
15.422001
  0
VERTEX
  8
GSLAYER
 10
19.915998
 20
14.303000
  0
VERTEX
  8
GSLAYER
 10
20.158998
 20
13.600000
  0
VERTEX
  8
GSLAYER
 10
20.347000
 20
13.119000
  0
VERTEX
  8
GSLAYER
 10
20.347000
 20
12.442000
  0
VERTEX
  8
GSLAYER
 10
21.987000
 20
9.227000
  0
VERTEX
  8
GSLAYER
 10
22.202000
 20
8.473001
  0
VERTEX
  8
GSLAYER
 10
22.230000
 20
7.718000
  0
VERTEX
  8
GSLAYER
 10
23.358999
 20
7.692000
  0
VERTEX
  8
GSLAYER
 10
24.863998
 20
7.614000
  0
VERTEX
  8
GSLAYER
 10
26.074999
 20
7.405000
  0
VERTEX
  8
GSLAYER
 10
27.150000
 20
7.614000
  0
VERTEX
  8
GSLAYER
 10
28.737000
 20
6.859000
  0
VERTEX
  8
GSLAYER
 10
29.300999
 20
7.002000
  0
VERTEX
  8
GSLAYER
 10
29.355000
 20
6.625000
  0
VERTEX
  8
GSLAYER
 10
29.059999
 20
6.377000
  0
VERTEX
  8
GSLAYER
 10
28.844999
 20
5.141000
  0
VERTEX
  8
GSLAYER
 10
27.983999
 20
5.115000
  0
VERTEX
  8
GSLAYER
 10
27.311998
 20
5.219000
  0
VERTEX
  8
GSLAYER
 10
26.907000
 20
4.933000
  0
VERTEX
  8
GSLAYER
 10
26.960999
 20
4.633000
  0
VERTEX
  8
GSLAYER
 10
26.773998
 20
4.477000
  0
VERTEX
  8
GSLAYER
 10
26.154999
 20
4.555000
  0
VERTEX
  8
GSLAYER
 10
25.724998
 20
4.100000
  0
VERTEX
  8
GSLAYER
 10
24.891998
 20
4.230000
  0
VERTEX
  8
GSLAYER
 10
24.542000
 20
3.501000
  0
VERTEX
  8
GSLAYER
 10
24.004000
 20
3.189000
  0
VERTEX
  8
GSLAYER
 10
22.875000
 20
3.696000
  0
VERTEX
  8
GSLAYER
 10
22.713999
 20
3.592000
  0
VERTEX
  8
GSLAYER
 10
22.175999
 20
3.774000
  0
VERTEX
  8
GSLAYER
 10
21.960999
 20
3.553000
  0
VERTEX
  8
GSLAYER
 10
21.879999
 20
3.098000
  0
VERTEX
  8
GSLAYER
 10
21.664999
 20
2.968000
  0
VERTEX
  8
GSLAYER
 10
21.073000
 20
3.241000
  0
VERTEX
  8
GSLAYER
 10
20.615000
 20
3.618000
  0
VERTEX
  8
GSLAYER
 10
19.191000
 20
3.644000
  0
VERTEX
  8
GSLAYER
 10
18.303999
 20
3.020000
  0
VERTEX
  8
GSLAYER
 10
17.605000
 20
3.098000
  0
VERTEX
  8
GSLAYER
 10
17.201000
 20
2.668000
  0
VERTEX
  8
GSLAYER
 10
16.823999
 20
2.512000
  0
VERTEX
  8
GSLAYER
 10
16.448000
 20
2.616000
  0
VERTEX
  8
GSLAYER
 10
16.258999
 20
2.942000
  0
VERTEX
  8
GSLAYER
 10
16.018000
 20
2.994000
  0
VERTEX
  8
GSLAYER
 10
15.802999
 20
2.642000
  0
VERTEX
  8
GSLAYER
 10
15.372999
 20
2.811000
  0
VERTEX
  8
GSLAYER
 10
14.835000
 20
3.215000
  0
VERTEX
  8
GSLAYER
 10
15.049999
 20
3.644000
  0
VERTEX
  8
GSLAYER
 10
14.726999
 20
3.774000
  0
VERTEX
  8
GSLAYER
 10
14.646000
 20
4.204000
  0
VERTEX
  8
GSLAYER
 10
13.731999
 20
4.360000
  0
VERTEX
  8
GSLAYER
 10
13.462999
 20
4.607000
  0
VERTEX
  8
GSLAYER
 10
13.408999
 20
5.011000
  0
VERTEX
  8
GSLAYER
 10
12.360000
 20
5.115000
  0
VERTEX
  8
GSLAYER
 10
11.769000
 20
4.711000
  0
VERTEX
  8
GSLAYER
 10
10.640000
 20
4.816000
  0
VERTEX
  8
GSLAYER
 10
9.995000
 20
4.959000
  0
VERTEX
  8
GSLAYER
 10
9.726000
 20
4.855000
  0
VERTEX
  8
GSLAYER
 10
9.027000
 20
4.764000
  0
VERTEX
  8
GSLAYER
 10
8.919000
 20
3.800000
  0
VERTEX
  8
GSLAYER
 10
8.543000
 20
3.774000
  0
VERTEX
  8
GSLAYER
 10
8.111000
 20
4.607000
  0
VERTEX
  8
GSLAYER
 10
7.601000
 20
4.451000
  0
VERTEX
  8
GSLAYER
 10
7.197000
 20
4.256000
  0
VERTEX
  8
GSLAYER
 10
6.659000
 20
4.230000
  0
VERTEX
  8
GSLAYER
 10
6.014000
 20
3.905000
  0
VERTEX
  8
GSLAYER
 10
5.341000
 20
3.774000
  0
VERTEX
  8
GSLAYER
 10
4.589000
 20
3.931000
  0
VERTEX
  8
GSLAYER
 10
4.320000
 20
4.126000
  0
VERTEX
  8
GSLAYER
 10
2.976001
 20
5.622000
  0
VERTEX
  8
GSLAYER
 10
2.841001
 20
7.340000
  0
VERTEX
  8
GSLAYER
 10
2.894001
 20
9.331000
  0
VERTEX
  8
GSLAYER
 10
3.460001
 20
9.514001
  0
VERTEX
  8
GSLAYER
 10
3.649000
 20
10.295000
  0
VERTEX
  8
GSLAYER
 10
3.649000
 20
11.205001
  0
VERTEX
  8
GSLAYER
 10
4.025001
 20
11.778001
  0
VERTEX
  8
GSLAYER
 10
4.589000
 20
11.830001
  0
VERTEX
  8
GSLAYER
 10
4.643000
 20
13.119000
  0
VERTEX
  8
GSLAYER
 10
5.047000
 20
13.392001
  0
VERTEX
  8
GSLAYER
 10
4.965000
 20
14.030001
  0
VERTEX
  8
GSLAYER
 10
5.341000
 20
14.732000
  0
VERTEX
  8
GSLAYER
 10
5.881000
 20
14.784000
  0
VERTEX
  8
GSLAYER
 10
5.825000
 20
16.229000
  0
VERTEX
  8
GSLAYER
 10
5.772000
 20
18.624001
  0
VERTEX
  8
GSLAYER
 10
5.799000
 20
22.814001
  0
VERTEX
  8
GSLAYER
 10
5.746000
 20
23.504002
  0
VERTEX
  8
GSLAYER
 10
5.746000
 20
26.224001
  0
VERTEX
  8
GSLAYER
 10
5.584000
 20
27.083002
  0
VERTEX
  8
GSLAYER
 10
5.315001
 20
27.538002
  0
VERTEX
  8
GSLAYER
 10
5.341000
 20
27.994001
  0
VERTEX
  8
GSLAYER
 10
5.907000
 20
27.994001
  0
SEQEND
  0
ENDSEC
  0
EOF
