G04*
G04 #@! TF.GenerationSoftware,Altium Limited,Altium Designer,26.8.1 (31)*
G04*
G04 Layer_Color=8421504*
G04 Board_Origin=0|0*
%FSLAX44Y44*%
%MOMM*%
G71*
G04*
G04 #@! TF.SameCoordinates,25A73ECC-5A8A-49CE-9F70-E0482227A304*
G04*
G04*
G04 #@! TF.FilePolarity,Positive*
G04*
G01*
G75*
%ADD12R,0.4000X0.5379*%
%ADD13R,0.6000X0.6200*%
%ADD14R,0.7500X0.9400*%
%ADD15R,0.7000X0.3000*%
%ADD16R,0.3000X0.7000*%
%ADD17R,2.9500X2.9500*%
G04:AMPARAMS|DCode=18|XSize=0.3mm|YSize=0.8mm|CornerRadius=0.0495mm|HoleSize=0mm|Usage=FLASHONLY|Rotation=0.000|XOffset=0mm|YOffset=0mm|HoleType=Round|Shape=RoundedRectangle|*
%AMROUNDEDRECTD18*
21,1,0.3000,0.7010,0,0,0.0*
21,1,0.2010,0.8000,0,0,0.0*
1,1,0.0990,0.1005,-0.3505*
1,1,0.0990,-0.1005,-0.3505*
1,1,0.0990,-0.1005,0.3505*
1,1,0.0990,0.1005,0.3505*
%
%ADD18ROUNDEDRECTD18*%
D12*
X54500Y72000D02*
D03*
X48500D02*
D03*
D13*
X71040Y102670D02*
D03*
X80240D02*
D03*
X153810Y113180D02*
D03*
X144610D02*
D03*
X181320Y102910D02*
D03*
X172120D02*
D03*
D14*
X159360Y132260D02*
D03*
X145360D02*
D03*
X186870Y118890D02*
D03*
X172870D02*
D03*
X79470Y121670D02*
D03*
X65470D02*
D03*
D15*
X114870Y92000D02*
D03*
Y87000D02*
D03*
Y82000D02*
D03*
Y77000D02*
D03*
Y72000D02*
D03*
Y67000D02*
D03*
X155870D02*
D03*
Y72000D02*
D03*
Y77000D02*
D03*
Y82000D02*
D03*
Y87000D02*
D03*
Y92000D02*
D03*
D16*
X122870Y59000D02*
D03*
X127870D02*
D03*
X132870D02*
D03*
X137870D02*
D03*
X142870D02*
D03*
X147870D02*
D03*
Y100000D02*
D03*
X142870D02*
D03*
X137870D02*
D03*
X132870D02*
D03*
X127870D02*
D03*
X122870D02*
D03*
D17*
X135370Y79500D02*
D03*
D18*
X111310Y142790D02*
D03*
X106310D02*
D03*
X101310D02*
D03*
X96310D02*
D03*
X111310Y110790D02*
D03*
X106310D02*
D03*
X101310D02*
D03*
X96310D02*
D03*
M02*
