G04*
G04 #@! TF.GenerationSoftware,Altium Limited,Altium Designer,26.8.1 (31)*
G04*
G04 Layer_Color=8388736*
G04 Board_Origin=0|0*
%FSLAX44Y44*%
%MOMM*%
G71*
G04*
G04 #@! TF.SameCoordinates,25A73ECC-5A8A-49CE-9F70-E0482227A304*
G04*
G04*
G04 #@! TF.FilePolarity,Negative*
G04*
G01*
G75*
%ADD19C,1.5000*%
%ADD20R,0.6032X0.7411*%
%ADD21R,0.8032X0.8232*%
%ADD22R,1.4032X3.7032*%
%ADD23R,0.9532X1.1432*%
%ADD24R,0.9032X0.5032*%
%ADD25R,0.5032X0.9032*%
%ADD26R,3.1532X3.1532*%
G04:AMPARAMS|DCode=27|XSize=0.5032mm|YSize=1.0032mm|CornerRadius=0.1511mm|HoleSize=0mm|Usage=FLASHONLY|Rotation=0.000|XOffset=0mm|YOffset=0mm|HoleType=Round|Shape=RoundedRectangle|*
%AMROUNDEDRECTD27*
21,1,0.5032,0.7010,0,0,0.0*
21,1,0.2010,1.0032,0,0,0.0*
1,1,0.3022,0.1005,-0.3505*
1,1,0.3022,-0.1005,-0.3505*
1,1,0.3022,-0.1005,0.3505*
1,1,0.3022,0.1005,0.3505*
%
%ADD27ROUNDEDRECTD27*%
%ADD28C,0.5532*%
G36*
X0Y0D02*
X250000D01*
Y210000D01*
X0D01*
Y0D01*
D02*
G37*
D19*
X41500Y112000D02*
G03*
X41500Y112000I-7500J0D01*
G01*
Y34000D02*
G03*
X41500Y34000I-7500J0D01*
G01*
X223500D02*
G03*
X223500Y34000I-7500J0D01*
G01*
Y112000D02*
G03*
X223500Y112000I-7500J0D01*
G01*
D20*
X54500Y72000D02*
D03*
X48500D02*
D03*
D21*
X71040Y102670D02*
D03*
X80240D02*
D03*
X153810Y113180D02*
D03*
X144610D02*
D03*
X181320Y102910D02*
D03*
X172120D02*
D03*
D22*
X185000Y177500D02*
D03*
X145000D02*
D03*
X25000D02*
D03*
X65000D02*
D03*
X105000D02*
D03*
D23*
X159360Y132260D02*
D03*
X145360D02*
D03*
X186870Y118890D02*
D03*
X172870D02*
D03*
X79470Y121670D02*
D03*
X65470D02*
D03*
D24*
X114870Y92000D02*
D03*
Y87000D02*
D03*
Y82000D02*
D03*
Y77000D02*
D03*
Y72000D02*
D03*
Y67000D02*
D03*
X155870D02*
D03*
Y72000D02*
D03*
Y77000D02*
D03*
Y82000D02*
D03*
Y87000D02*
D03*
Y92000D02*
D03*
D25*
X122870Y59000D02*
D03*
X127870D02*
D03*
X132870D02*
D03*
X137870D02*
D03*
X142870D02*
D03*
X147870D02*
D03*
Y100000D02*
D03*
X142870D02*
D03*
X137870D02*
D03*
X132870D02*
D03*
X127870D02*
D03*
X122870D02*
D03*
D26*
X135370Y79500D02*
D03*
D27*
X111310Y142790D02*
D03*
X106310D02*
D03*
X101310D02*
D03*
X96310D02*
D03*
X111310Y110790D02*
D03*
X106310D02*
D03*
X101310D02*
D03*
X96310D02*
D03*
D28*
X117307Y51885D02*
D03*
X135420D02*
D03*
X153762D02*
D03*
X139620Y75250D02*
D03*
Y83750D02*
D03*
X131120D02*
D03*
Y75250D02*
D03*
X154762Y100002D02*
D03*
X65600Y110840D02*
D03*
X63500Y90830D02*
D03*
X88900Y53170D02*
D03*
X76200Y80830D02*
D03*
X50800D02*
D03*
X63500D02*
D03*
X88900Y63170D02*
D03*
X101600D02*
D03*
X173800D02*
D03*
X186500Y90830D02*
D03*
X173800Y80830D02*
D03*
X186500D02*
D03*
X135310Y109660D02*
D03*
X156441Y121605D02*
D03*
X183720Y109880D02*
D03*
X88091Y142605D02*
D03*
X211900Y90830D02*
D03*
X186500Y53170D02*
D03*
X211900D02*
D03*
X63500D02*
D03*
X38100D02*
D03*
Y90830D02*
D03*
X237300D02*
D03*
Y80830D02*
D03*
X224600D02*
D03*
X211900D02*
D03*
X199200D02*
D03*
X237300Y53170D02*
D03*
Y63170D02*
D03*
X224600D02*
D03*
X186500D02*
D03*
X211900D02*
D03*
X199200D02*
D03*
X12700Y53170D02*
D03*
Y63170D02*
D03*
X25400D02*
D03*
X63500D02*
D03*
X38100D02*
D03*
X50800D02*
D03*
X76200D02*
D03*
X38100Y80830D02*
D03*
X25400D02*
D03*
X12700D02*
D03*
Y90830D02*
D03*
M02*
