G04*
G04 #@! TF.GenerationSoftware,Altium Limited,Altium Designer,26.8.1 (31)*
G04*
G04 Layer_Color=65535*
G04 Board_Origin=0|0*
%FSLAX44Y44*%
%MOMM*%
G71*
G04*
G04 #@! TF.SameCoordinates,25A73ECC-5A8A-49CE-9F70-E0482227A304*
G04*
G04*
G04 #@! TF.FilePolarity,Positive*
G04*
G01*
G75*
%ADD10C,0.2500*%
%ADD11C,0.1800*%
D10*
X104870Y96645D02*
G03*
X104870Y96645I-1250J0D01*
G01*
X119030Y143300D02*
G03*
X119030Y143300I-1250J0D01*
G01*
D11*
X58054Y19321D02*
Y27318D01*
X62053D01*
X63386Y25985D01*
Y23320D01*
X62053Y21987D01*
X58054D01*
X66051Y19321D02*
Y24653D01*
X68717Y27318D01*
X71383Y24653D01*
Y19321D01*
Y23320D01*
X66051D01*
X74049Y19321D02*
Y27318D01*
X76715Y24653D01*
X79380Y27318D01*
Y19321D01*
X95375D02*
X90044D01*
X95375Y24653D01*
Y25985D01*
X94042Y27318D01*
X91377D01*
X90044Y25985D01*
X98041D02*
X99374Y27318D01*
X102040D01*
X103373Y25985D01*
Y20654D01*
X102040Y19321D01*
X99374D01*
X98041Y20654D01*
Y25985D01*
X111370Y19321D02*
X106039D01*
X111370Y24653D01*
Y25985D01*
X110037Y27318D01*
X107371D01*
X106039Y25985D01*
X119368Y27318D02*
X114036D01*
Y23320D01*
X116702Y24653D01*
X118035D01*
X119368Y23320D01*
Y20654D01*
X118035Y19321D01*
X115369D01*
X114036Y20654D01*
X58054Y5404D02*
Y10736D01*
X60720Y13401D01*
X63386Y10736D01*
Y5404D01*
Y9403D01*
X58054D01*
X67384Y12069D02*
Y10736D01*
X66051D01*
X68717D01*
X67384D01*
Y6737D01*
X68717Y5404D01*
X74049Y12069D02*
Y10736D01*
X72716D01*
X75382D01*
X74049D01*
Y6737D01*
X75382Y5404D01*
X83379D02*
X80713D01*
X79380Y6737D01*
Y9403D01*
X80713Y10736D01*
X83379D01*
X84712Y9403D01*
Y8070D01*
X79380D01*
X87378Y5404D02*
Y10736D01*
X91377D01*
X92710Y9403D01*
Y5404D01*
X95375Y10736D02*
Y6737D01*
X96708Y5404D01*
X100707D01*
Y10736D01*
X104706D02*
X107371D01*
X108704Y9403D01*
Y5404D01*
X104706D01*
X103373Y6737D01*
X104706Y8070D01*
X108704D01*
X112703Y12069D02*
Y10736D01*
X111370D01*
X114036D01*
X112703D01*
Y6737D01*
X114036Y5404D01*
X119368D02*
X122033D01*
X123366Y6737D01*
Y9403D01*
X122033Y10736D01*
X119368D01*
X118035Y9403D01*
Y6737D01*
X119368Y5404D01*
X126032Y10736D02*
Y5404D01*
Y8070D01*
X127365Y9403D01*
X128698Y10736D01*
X130031D01*
X56001Y44879D02*
X50670D01*
Y36881D01*
X56001D01*
X50670Y40880D02*
X53335D01*
X63999Y38214D02*
Y43546D01*
X62666Y44879D01*
X60000D01*
X58667Y43546D01*
Y38214D01*
X60000Y36881D01*
X62666D01*
X61333Y39547D02*
X63999Y36881D01*
X62666D02*
X63999Y38214D01*
X66665Y36881D02*
X69330D01*
X67997D01*
Y44879D01*
X66665Y43546D01*
X172461Y171890D02*
Y177222D01*
X169795Y174556D02*
X175127D01*
X168463Y185219D02*
Y179887D01*
X172461D01*
X171128Y182553D01*
Y183886D01*
X172461Y185219D01*
X175127D01*
X176460Y183886D01*
Y181220D01*
X175127Y179887D01*
X168463Y187885D02*
X173794D01*
X176460Y190551D01*
X173794Y193216D01*
X168463D01*
X128587Y180018D02*
X136584D01*
Y185350D01*
X128587Y193347D02*
Y188015D01*
X136584D01*
Y193347D01*
X132585Y188015D02*
Y190681D01*
X89696Y177222D02*
X88364Y175889D01*
Y173223D01*
X89696Y171890D01*
X95028D01*
X96361Y173223D01*
Y175889D01*
X95028Y177222D01*
X88364Y179887D02*
X96361D01*
Y185219D01*
X88364Y187885D02*
X96361D01*
X93695D01*
X88364Y193216D01*
X92362Y189218D01*
X96361Y193216D01*
X47863Y164248D02*
X55860D01*
Y168247D01*
X54527Y169580D01*
X49195D01*
X47863Y168247D01*
Y164248D01*
X55860Y172245D02*
X50528D01*
X47863Y174911D01*
X50528Y177577D01*
X55860D01*
X51861D01*
Y172245D01*
X47863Y180243D02*
Y185574D01*
Y182909D01*
X55860D01*
Y188240D02*
X50528D01*
X47863Y190906D01*
X50528Y193572D01*
X55860D01*
X51861D01*
Y188240D01*
X12030Y171999D02*
Y177331D01*
X8032Y185328D02*
Y179996D01*
X12030D01*
X10697Y182662D01*
Y183995D01*
X12030Y185328D01*
X14696D01*
X16029Y183995D01*
Y181329D01*
X14696Y179996D01*
X8032Y187994D02*
X13363D01*
X16029Y190660D01*
X13363Y193325D01*
X8032D01*
X115132Y157938D02*
Y151273D01*
X116464Y149940D01*
X119130D01*
X120463Y151273D01*
Y157938D01*
X128461Y149940D02*
X123129D01*
X128461Y155272D01*
Y156605D01*
X127128Y157938D01*
X124462D01*
X123129Y156605D01*
X179030Y206701D02*
X184362Y198703D01*
Y206701D02*
X179030Y198703D01*
X187028Y206701D02*
X192360D01*
Y205368D01*
X187028Y200036D01*
Y198703D01*
X18361Y206600D02*
X23692Y198602D01*
Y206600D02*
X18361Y198602D01*
X26358Y205267D02*
X27691Y206600D01*
X30357D01*
X31690Y205267D01*
Y203934D01*
X30357Y202601D01*
X29024D01*
X30357D01*
X31690Y201268D01*
Y199935D01*
X30357Y198602D01*
X27691D01*
X26358Y199935D01*
X98923Y206751D02*
X104254Y198753D01*
Y206751D02*
X98923Y198753D01*
X112252Y206751D02*
X106920D01*
Y202752D01*
X109586Y204085D01*
X110919D01*
X112252Y202752D01*
Y200086D01*
X110919Y198753D01*
X108253D01*
X106920Y200086D01*
X58945Y206802D02*
X64276Y198804D01*
Y206802D02*
X58945Y198804D01*
X70941D02*
Y206802D01*
X66942Y202803D01*
X72274D01*
X138547Y206701D02*
X143879Y198703D01*
Y206701D02*
X138547Y198703D01*
X151876Y206701D02*
X149211Y205368D01*
X146545Y202702D01*
Y200036D01*
X147878Y198703D01*
X150544D01*
X151876Y200036D01*
Y201369D01*
X150544Y202702D01*
X146545D01*
X130502Y44876D02*
Y38211D01*
X131835Y36878D01*
X134501D01*
X135834Y38211D01*
Y44876D01*
X138500Y36878D02*
X141166D01*
X139833D01*
Y44876D01*
X138500Y43543D01*
X83667Y43546D02*
X82334Y44879D01*
X79668D01*
X78335Y43546D01*
Y38214D01*
X79668Y36881D01*
X82334D01*
X83667Y38214D01*
X91664Y44879D02*
X88999Y43546D01*
X86333Y40880D01*
Y38214D01*
X87666Y36881D01*
X90332D01*
X91664Y38214D01*
Y39547D01*
X90332Y40880D01*
X86333D01*
X178396Y43561D02*
X177063Y44894D01*
X174397D01*
X173064Y43561D01*
Y38229D01*
X174397Y36896D01*
X177063D01*
X178396Y38229D01*
X186394Y44894D02*
X181062D01*
Y40895D01*
X183728Y42228D01*
X185061D01*
X186394Y40895D01*
Y38229D01*
X185061Y36896D01*
X182395D01*
X181062Y38229D01*
X185062Y133249D02*
X183729Y134582D01*
X181063D01*
X179730Y133249D01*
Y127917D01*
X181063Y126584D01*
X183729D01*
X185062Y127917D01*
X191727Y126584D02*
Y134582D01*
X187728Y130583D01*
X193060D01*
X70203Y147593D02*
X68870Y148926D01*
X66204D01*
X64872Y147593D01*
Y142261D01*
X66204Y140928D01*
X68870D01*
X70203Y142261D01*
X72869Y147593D02*
X74202Y148926D01*
X76868D01*
X78200Y147593D01*
Y146260D01*
X76868Y144927D01*
X75535D01*
X76868D01*
X78200Y143594D01*
Y142261D01*
X76868Y140928D01*
X74202D01*
X72869Y142261D01*
X154868Y43079D02*
X153535Y44412D01*
X150869D01*
X149537Y43079D01*
Y37747D01*
X150869Y36414D01*
X153535D01*
X154868Y37747D01*
X162866Y36414D02*
X157534D01*
X162866Y41746D01*
Y43079D01*
X161533Y44412D01*
X158867D01*
X157534Y43079D01*
X154907Y146076D02*
X153574Y147409D01*
X150908D01*
X149575Y146076D01*
Y140744D01*
X150908Y139411D01*
X153574D01*
X154907Y140744D01*
X157573Y139411D02*
X160239D01*
X158906D01*
Y147409D01*
X157573Y146076D01*
X230245Y142589D02*
X235577Y134591D01*
Y142589D02*
X230245Y134591D01*
X243575D02*
X238243D01*
X243575Y139923D01*
Y141256D01*
X242242Y142589D01*
X239576D01*
X238243Y141256D01*
X6558Y138769D02*
X11890Y130771D01*
Y138769D02*
X6558Y130771D01*
X14556D02*
X17222D01*
X15889D01*
Y138769D01*
X14556Y137436D01*
M02*
