M48
;Layer_Color=9474304
;FILE_FORMAT=4:4
METRIC,LZ
;TYPE=PLATED
T01F00S00C0.2000
T02F00S00C2.0500
%
T01
X000127Y0005317
Y0006317
X000254
X000381
Y0005317
X000508Y0006317
X000635
Y0005317
X000762Y0006317
X000889
Y0005317
X001016Y0006317
X00117307Y00051885
X0013542
X00153762
X001738Y0006317
X001865
Y0005317
X001992Y0006317
X002119
Y0005317
X002246Y0006317
X002373
Y0005317
Y0008083
Y0009083
X002246Y0008083
X002119
Y0009083
X001992Y0008083
X001865
Y0009083
X0018372Y0010988
X00154762Y00100002
X00156441Y00121605
X0013531Y0010966
X0013112Y0008375
X0013962
Y0007525
X0013112
X001738Y0008083
X000762
X000635
Y0009083
X000656Y0011084
X000508Y0008083
X000381
Y0009083
X000254Y0008083
X000127
Y0009083
X00088091Y00142605
T02
X00034Y00034
Y00112
X00216
Y00034
M30
