G04*
G04 #@! TF.GenerationSoftware,Altium Limited,Altium Designer,26.8.1 (31)*
G04*
G04 Layer_Physical_Order=1*
G04 Layer_Color=255*
G04 Board_Origin=0|0*
%FSLAX44Y44*%
%MOMM*%
G71*
G04*
G04 #@! TF.SameCoordinates,8F5295A2-3668-447A-BDAC-E870A25A478C*
G04*
G04*
G04 #@! TF.FilePolarity,Positive*
G04*
G01*
G75*
%ADD12R,0.4000X0.5379*%
%ADD13R,0.6000X0.6200*%
%ADD14R,0.7500X0.9400*%
%ADD15R,0.7000X0.3000*%
%ADD16R,0.3000X0.7000*%
%ADD17R,2.9500X2.9500*%
G04:AMPARAMS|DCode=18|XSize=0.3mm|YSize=0.8mm|CornerRadius=0.0495mm|HoleSize=0mm|Usage=FLASHONLY|Rotation=0.000|XOffset=0mm|YOffset=0mm|HoleType=Round|Shape=RoundedRectangle|*
%AMROUNDEDRECTD18*
21,1,0.3000,0.7010,0,0,0.0*
21,1,0.2010,0.8000,0,0,0.0*
1,1,0.0990,0.1005,-0.3505*
1,1,0.0990,-0.1005,-0.3505*
1,1,0.0990,-0.1005,0.3505*
1,1,0.0990,0.1005,0.3505*
%
%ADD18ROUNDEDRECTD18*%
%ADD29R,1.2000X3.5000*%
%ADD30R,0.2000X0.1000*%
%ADD31R,0.2000X1.5000*%
%ADD32C,0.2540*%
%ADD33C,0.1270*%
%ADD34R,5.3502X0.5379*%
%ADD35R,3.6693X0.5379*%
%ADD36R,7.9225X0.5379*%
%ADD37C,3.0000*%
%ADD38C,0.3500*%
G36*
X250000Y75608D02*
X245000D01*
X240000Y75833D01*
X160774D01*
X159360Y75500D01*
Y75833D01*
Y84500D01*
X160370D01*
Y84726D01*
X168902D01*
X169788Y84902D01*
X170539Y85403D01*
X172027Y86891D01*
X172528Y87642D01*
X172705Y88528D01*
Y95833D01*
X250000D01*
Y75608D01*
D02*
G37*
G36*
X79666Y82744D02*
X79842Y81858D01*
X80344Y81107D01*
X81087Y80363D01*
X81838Y79862D01*
X82724Y79686D01*
X110370D01*
Y79500D01*
X111380D01*
Y75833D01*
Y75500D01*
X109964Y75833D01*
X10000D01*
X5000Y75608D01*
X-0D01*
Y95833D01*
X79666D01*
Y82744D01*
D02*
G37*
G36*
X160780Y69311D02*
X159365Y70500D01*
Y73500D01*
X160780Y74689D01*
Y69311D01*
D02*
G37*
G36*
X245000Y73500D02*
X250000D01*
Y70500D01*
X245000D01*
X240000Y69311D01*
Y74689D01*
X245000Y73500D01*
D02*
G37*
G36*
X111375D02*
Y70500D01*
X109960Y69311D01*
Y74689D01*
X111375Y73500D01*
D02*
G37*
G36*
X10000Y69311D02*
X5000Y70500D01*
X-0D01*
Y73500D01*
X5000D01*
X10000Y74689D01*
Y69311D01*
D02*
G37*
G36*
X111380Y68167D02*
X111380Y55510D01*
X159370D01*
Y68167D01*
Y68500D01*
X160784Y68167D01*
X240000D01*
X245000Y68392D01*
X250000D01*
Y48167D01*
X242130D01*
Y48167D01*
X111370D01*
Y48167D01*
X10000Y48167D01*
D01*
X-0D01*
Y68392D01*
X5000D01*
X10000Y68167D01*
X109964D01*
X111380Y68500D01*
Y68167D01*
D02*
G37*
D12*
X54500Y72000D02*
D03*
X48500D02*
D03*
D13*
X71040Y102670D02*
D03*
X80240D02*
D03*
X153810Y113180D02*
D03*
X144610D02*
D03*
X181320Y102910D02*
D03*
X172120D02*
D03*
D14*
X159360Y132260D02*
D03*
X145360D02*
D03*
X186870Y118890D02*
D03*
X172870D02*
D03*
X79470Y121670D02*
D03*
X65470D02*
D03*
D15*
X114870Y92000D02*
D03*
Y87000D02*
D03*
Y82000D02*
D03*
Y77000D02*
D03*
Y72000D02*
D03*
Y67000D02*
D03*
X155870D02*
D03*
Y72000D02*
D03*
Y77000D02*
D03*
Y82000D02*
D03*
Y87000D02*
D03*
Y92000D02*
D03*
D16*
X122870Y59000D02*
D03*
X127870D02*
D03*
X132870D02*
D03*
X137870D02*
D03*
X142870D02*
D03*
X147870D02*
D03*
Y100000D02*
D03*
X142870D02*
D03*
X137870D02*
D03*
X132870D02*
D03*
X127870D02*
D03*
X122870D02*
D03*
D17*
X135370Y79500D02*
D03*
D18*
X111310Y142790D02*
D03*
X106310D02*
D03*
X101310D02*
D03*
X96310D02*
D03*
X111310Y110790D02*
D03*
X106310D02*
D03*
X101310D02*
D03*
X96310D02*
D03*
D29*
X185000Y177500D02*
D03*
X145000D02*
D03*
X25000D02*
D03*
X65000D02*
D03*
X105000D02*
D03*
D30*
X247500Y72000D02*
D03*
X2500D02*
D03*
D31*
X247500Y86000D02*
D03*
Y58000D02*
D03*
X2500Y86000D02*
D03*
Y58000D02*
D03*
D32*
X176838Y161270D02*
X189429D01*
X111080Y110590D02*
X127870D01*
X25121Y138388D02*
X26609Y136900D01*
X25026Y138304D02*
Y175071D01*
X26609Y136900D02*
X75652D01*
X175350Y151388D02*
Y159782D01*
X145360Y149900D02*
X146848Y151388D01*
X145360Y132260D02*
Y149900D01*
X146848Y151388D02*
X175350D01*
Y121370D02*
Y151388D01*
X122860Y99990D02*
X122870Y100000D01*
X154761Y100001D02*
X154762Y100002D01*
X147870Y100000D02*
X147871Y100001D01*
X154761D01*
X65784Y108026D02*
Y110656D01*
X71040Y102670D02*
Y102770D01*
X65784Y108026D02*
X71040Y102770D01*
X65600Y110840D02*
X65784Y110656D01*
X65535Y110905D02*
X65600Y110840D01*
X65470Y121670D02*
X65535Y121605D01*
Y110905D02*
Y121605D01*
X175350Y159782D02*
X176838Y161270D01*
X170390Y105160D02*
Y116410D01*
X172230Y102920D02*
X172550D01*
X142880Y114910D02*
X144610Y113180D01*
X142870Y100000D02*
Y111760D01*
X144300Y113190D01*
X81980Y82744D02*
X82724Y82000D01*
X157310Y87040D02*
X168902D01*
X170390Y88528D02*
Y99592D01*
X168902Y87040D02*
X170390Y88528D01*
X179880Y102870D02*
X181610Y104600D01*
X183050Y104640D02*
Y108950D01*
X127870Y100000D02*
Y110590D01*
X135520Y109660D02*
X137870Y107310D01*
Y100000D02*
Y107310D01*
X132870D02*
X135220Y109660D01*
X132870Y100000D02*
Y107310D01*
X77140Y124000D02*
Y135412D01*
Y124000D02*
X79470Y121670D01*
X75652Y136900D02*
X77140Y135412D01*
X81980Y82744D02*
Y102670D01*
Y121670D01*
X82724Y82000D02*
X114870D01*
X96218Y142698D02*
X96310Y142790D01*
X88091Y142605D02*
X88184Y142698D01*
X96218D01*
X142880Y116498D02*
Y130090D01*
X145010Y132220D01*
X153810Y118974D02*
X156441Y121605D01*
X159360Y124524D01*
Y132260D01*
X153810Y113180D02*
Y118974D01*
X184390Y110810D02*
Y116410D01*
X183720Y110140D02*
X184390Y110810D01*
X142880Y114910D02*
Y116498D01*
X129358Y118880D02*
X142680D01*
X127870Y117392D02*
X129358Y118880D01*
X127870Y110590D02*
Y117392D01*
X142880Y116498D02*
X142880Y116498D01*
X135220Y109660D02*
X135520D01*
D33*
X134985Y160651D02*
X149656D01*
X105000Y166000D02*
X110365Y160635D01*
X110566D02*
X111310Y159891D01*
Y142790D02*
Y159891D01*
X110365Y160635D02*
X110566D01*
X105000Y166000D02*
Y177500D01*
X65507Y152890D02*
X100566D01*
X64763Y153634D02*
X65507Y152890D01*
X64763Y153634D02*
Y175920D01*
X102054Y124363D02*
X133497D01*
X134241Y125107D02*
Y159907D01*
X133497Y124363D02*
X134241Y125107D01*
X101310Y110790D02*
Y123619D01*
X102054Y124363D01*
X134241Y159907D02*
X134985Y160651D01*
X106310Y100734D02*
Y110790D01*
Y100734D02*
X107054Y99990D01*
X122860D01*
X91698Y87000D02*
X114870D01*
X95420Y92744D02*
Y114220D01*
Y92744D02*
X96164Y92000D01*
X114870D01*
X90210Y88488D02*
X91698Y87000D01*
X105486Y130070D02*
X106230Y130814D01*
X90210Y129326D02*
X90954Y130070D01*
X105486D01*
X90210Y88488D02*
Y129326D01*
X101310Y142790D02*
Y152146D01*
X100566Y152890D02*
X101310Y152146D01*
X106230Y130814D02*
Y142710D01*
D34*
X83214Y71995D02*
D03*
D35*
X28345Y72000D02*
D03*
D36*
X200390D02*
D03*
D37*
X34000Y112000D02*
D03*
Y34000D02*
D03*
X216000D02*
D03*
Y112000D02*
D03*
D38*
X117307Y51885D02*
D03*
X135420D02*
D03*
X153762D02*
D03*
X139620Y75250D02*
D03*
Y83750D02*
D03*
X131120D02*
D03*
Y75250D02*
D03*
X154762Y100002D02*
D03*
X65600Y110840D02*
D03*
X63500Y90830D02*
D03*
X88900Y53170D02*
D03*
X76200Y80830D02*
D03*
X50800D02*
D03*
X63500D02*
D03*
X88900Y63170D02*
D03*
X101600D02*
D03*
X173800D02*
D03*
X186500Y90830D02*
D03*
X173800Y80830D02*
D03*
X186500D02*
D03*
X135310Y109660D02*
D03*
X156441Y121605D02*
D03*
X183720Y109880D02*
D03*
X88091Y142605D02*
D03*
X211900Y90830D02*
D03*
X186500Y53170D02*
D03*
X211900D02*
D03*
X63500D02*
D03*
X38100D02*
D03*
Y90830D02*
D03*
X237300D02*
D03*
Y80830D02*
D03*
X224600D02*
D03*
X211900D02*
D03*
X199200D02*
D03*
X237300Y53170D02*
D03*
Y63170D02*
D03*
X224600D02*
D03*
X186500D02*
D03*
X211900D02*
D03*
X199200D02*
D03*
X12700Y53170D02*
D03*
Y63170D02*
D03*
X25400D02*
D03*
X63500D02*
D03*
X38100D02*
D03*
X50800D02*
D03*
X76200D02*
D03*
X38100Y80830D02*
D03*
X25400D02*
D03*
X12700D02*
D03*
Y90830D02*
D03*
M02*
