G04*
G04 #@! TF.GenerationSoftware,Altium Limited,Altium Designer,26.8.1 (31)*
G04*
G04 Layer_Physical_Order=2*
G04 Layer_Color=16711680*
G04 Board_Origin=0|0*
%FSLAX44Y44*%
%MOMM*%
G71*
G04*
G04 #@! TF.SameCoordinates,25A73ECC-5A8A-49CE-9F70-E0482227A304*
G04*
G04*
G04 #@! TF.FilePolarity,Positive*
G04*
G01*
G75*
%ADD37C,3.0000*%
%ADD38C,0.3500*%
G36*
X250000Y0D02*
X0D01*
Y210000D01*
X250000D01*
Y0D01*
D02*
G37*
D37*
X34000Y112000D02*
D03*
Y34000D02*
D03*
X216000D02*
D03*
Y112000D02*
D03*
D38*
X117307Y51885D02*
D03*
X135420D02*
D03*
X153762D02*
D03*
X139620Y75250D02*
D03*
Y83750D02*
D03*
X131120D02*
D03*
Y75250D02*
D03*
X154762Y100002D02*
D03*
X65600Y110840D02*
D03*
X63500Y90830D02*
D03*
X88900Y53170D02*
D03*
X76200Y80830D02*
D03*
X50800D02*
D03*
X63500D02*
D03*
X88900Y63170D02*
D03*
X101600D02*
D03*
X173800D02*
D03*
X186500Y90830D02*
D03*
X173800Y80830D02*
D03*
X186500D02*
D03*
X135310Y109660D02*
D03*
X156441Y121605D02*
D03*
X183720Y109880D02*
D03*
X88091Y142605D02*
D03*
X211900Y90830D02*
D03*
X186500Y53170D02*
D03*
X211900D02*
D03*
X63500D02*
D03*
X38100D02*
D03*
Y90830D02*
D03*
X237300D02*
D03*
Y80830D02*
D03*
X224600D02*
D03*
X211900D02*
D03*
X199200D02*
D03*
X237300Y53170D02*
D03*
Y63170D02*
D03*
X224600D02*
D03*
X186500D02*
D03*
X211900D02*
D03*
X199200D02*
D03*
X12700Y53170D02*
D03*
Y63170D02*
D03*
X25400D02*
D03*
X63500D02*
D03*
X38100D02*
D03*
X50800D02*
D03*
X76200D02*
D03*
X38100Y80830D02*
D03*
X25400D02*
D03*
X12700D02*
D03*
Y90830D02*
D03*
M02*
