G04*
G04 #@! TF.GenerationSoftware,Altium Limited,Altium Designer,26.8.1 (31)*
G04*
G04 Layer_Color=8421504*
G04 Board_Origin=15650000|21550000*
%FSLAX44Y44*%
%MOMM*%
G71*
G04*
G04 #@! TF.SameCoordinates,60BFEA45-8E34-490C-A906-5F33D4C4AE87*
G04*
G04*
G04 #@! TF.FilePolarity,Positive*
G04*
G01*
G75*
%ADD16R,1.1000X1.7500*%
%ADD17R,1.0500X0.5500*%
%ADD18R,1.3900X0.9600*%
%ADD19R,1.1500X1.1500*%
D16*
X450000Y71430D02*
D03*
X420000D02*
D03*
Y142860D02*
D03*
Y178570D02*
D03*
Y107140D02*
D03*
X450000Y142860D02*
D03*
Y178570D02*
D03*
Y107140D02*
D03*
D17*
X267670Y130150D02*
D03*
X293670Y120650D02*
D03*
X266400Y48870D02*
D03*
X292400Y39370D02*
D03*
X293670Y111150D02*
D03*
X267670Y120650D02*
D03*
X266400Y39370D02*
D03*
X292400Y29870D02*
D03*
Y48870D02*
D03*
X266400Y29870D02*
D03*
X293670Y130150D02*
D03*
X267670Y111150D02*
D03*
D18*
X246380Y104930D02*
D03*
X245110Y23650D02*
D03*
X246380Y121130D02*
D03*
X245110Y39850D02*
D03*
D19*
X270190Y157480D02*
D03*
Y76200D02*
D03*
X293690D02*
D03*
Y157480D02*
D03*
M02*
