G04*
G04 #@! TF.GenerationSoftware,Altium Limited,Altium Designer,26.8.1 (31)*
G04*
G04 Layer_Physical_Order=2*
G04 Layer_Color=16711680*
G04 Board_Origin=15650000|21550000*
%FSLAX44Y44*%
%MOMM*%
G71*
G04*
G04 #@! TF.SameCoordinates,60BFEA45-8E34-490C-A906-5F33D4C4AE87*
G04*
G04*
G04 #@! TF.FilePolarity,Positive*
G04*
G01*
G75*
%ADD29C,0.2540*%
%ADD30C,1.2700*%
%ADD31C,1.4080*%
%ADD32R,1.4080X1.4080*%
%ADD33C,0.6000*%
%ADD34C,3.9000*%
%ADD35R,1.1500X1.1500*%
%ADD36R,0.5080X0.9723*%
G04:AMPARAMS|DCode=37|XSize=1.17mm|YSize=1.47mm|CornerRadius=0.1463mm|HoleSize=0mm|Usage=FLASHONLY|Rotation=90.000|XOffset=0mm|YOffset=0mm|HoleType=Round|Shape=RoundedRectangle|*
%AMROUNDEDRECTD37*
21,1,1.1700,1.1775,0,0,90.0*
21,1,0.8775,1.4700,0,0,90.0*
1,1,0.2925,0.5888,0.4387*
1,1,0.2925,0.5888,-0.4387*
1,1,0.2925,-0.5888,-0.4387*
1,1,0.2925,-0.5888,0.4387*
%
%ADD37ROUNDEDRECTD37*%
%ADD38R,0.3556X1.6764*%
G04:AMPARAMS|DCode=39|XSize=1.17mm|YSize=1.47mm|CornerRadius=0.1463mm|HoleSize=0mm|Usage=FLASHONLY|Rotation=180.000|XOffset=0mm|YOffset=0mm|HoleType=Round|Shape=RoundedRectangle|*
%AMROUNDEDRECTD39*
21,1,1.1700,1.1775,0,0,180.0*
21,1,0.8775,1.4700,0,0,180.0*
1,1,0.2925,-0.4387,0.5888*
1,1,0.2925,0.4387,0.5888*
1,1,0.2925,0.4387,-0.5888*
1,1,0.2925,-0.4387,-0.5888*
%
%ADD39ROUNDEDRECTD39*%
G36*
X520000Y0D02*
X0D01*
Y250190D01*
X520000D01*
Y0D01*
D02*
G37*
%LPC*%
G36*
X396270Y232721D02*
Y231270D01*
X397721D01*
X397543Y231699D01*
X396699Y232543D01*
X396270Y232721D01*
D02*
G37*
G36*
X393730D02*
X393301Y232543D01*
X392457Y231699D01*
X392279Y231270D01*
X393730D01*
Y232721D01*
D02*
G37*
G36*
X397721Y228730D02*
X396270D01*
Y227279D01*
X396699Y227457D01*
X397543Y228301D01*
X397721Y228730D01*
D02*
G37*
G36*
X393730D02*
X392279D01*
X392457Y228301D01*
X393301Y227457D01*
X393730Y227279D01*
Y228730D01*
D02*
G37*
G36*
X496921Y244500D02*
X496270D01*
Y226270D01*
X514500D01*
Y226921D01*
X513751Y230688D01*
X512281Y234237D01*
X510147Y237430D01*
X507430Y240147D01*
X504237Y242281D01*
X500688Y243751D01*
X496921Y244500D01*
D02*
G37*
G36*
X493730D02*
X493079D01*
X489312Y243751D01*
X485763Y242281D01*
X482570Y240147D01*
X479853Y237430D01*
X477719Y234237D01*
X476249Y230688D01*
X475500Y226921D01*
Y226270D01*
X493730D01*
Y244500D01*
D02*
G37*
G36*
X26921D02*
X26270D01*
Y226270D01*
X44500D01*
Y226921D01*
X43751Y230688D01*
X42281Y234237D01*
X40147Y237430D01*
X37431Y240147D01*
X34237Y242281D01*
X30688Y243751D01*
X26921Y244500D01*
D02*
G37*
G36*
X23730D02*
X23079D01*
X19312Y243751D01*
X15763Y242281D01*
X12570Y240147D01*
X9853Y237430D01*
X7719Y234237D01*
X6249Y230688D01*
X5500Y226921D01*
Y226270D01*
X23730D01*
Y244500D01*
D02*
G37*
G36*
X160011Y226430D02*
X157489D01*
X155052Y225777D01*
X152868Y224516D01*
X151084Y222732D01*
X150153Y221120D01*
X149027Y220860D01*
X148473D01*
X147347Y221120D01*
X146416Y222732D01*
X144632Y224516D01*
X142448Y225777D01*
X140011Y226430D01*
X137489D01*
X135052Y225777D01*
X132868Y224516D01*
X131084Y222732D01*
X130153Y221120D01*
X129026Y220860D01*
X128474D01*
X127347Y221120D01*
X126416Y222732D01*
X124632Y224516D01*
X122448Y225777D01*
X120020Y226428D01*
Y216850D01*
X117480D01*
Y226428D01*
X115052Y225777D01*
X112868Y224516D01*
X111084Y222732D01*
X110870Y222362D01*
X108330Y223042D01*
Y226430D01*
X89170D01*
Y212764D01*
X73500Y197094D01*
X20489D01*
X19003Y196798D01*
X17742Y195956D01*
X7733Y185947D01*
X6891Y184687D01*
X6595Y183200D01*
Y161290D01*
X6891Y159803D01*
X7733Y158543D01*
X11750Y154526D01*
Y153830D01*
X12356Y151569D01*
X13526Y149541D01*
X15181Y147886D01*
X17209Y146716D01*
X19470Y146110D01*
X21810D01*
X24071Y146716D01*
X26099Y147886D01*
X27754Y149541D01*
X28924Y151569D01*
X29325Y153065D01*
X31955D01*
X32356Y151569D01*
X33526Y149541D01*
X35181Y147886D01*
X37209Y146716D01*
X39370Y146137D01*
Y155000D01*
X40640D01*
Y156270D01*
X49503D01*
X48924Y158431D01*
X47754Y160459D01*
X46099Y162114D01*
X44071Y163284D01*
X42575Y163685D01*
Y166315D01*
X44071Y166716D01*
X46099Y167886D01*
X47754Y169541D01*
X48924Y171569D01*
X49530Y173830D01*
Y176170D01*
X48924Y178431D01*
X47754Y180459D01*
X46099Y182114D01*
X44071Y183284D01*
X41810Y183890D01*
X39470D01*
X37209Y183284D01*
X35181Y182114D01*
X33526Y180459D01*
X32356Y178431D01*
X31955Y176935D01*
X29325D01*
X28924Y178431D01*
X27754Y180459D01*
X26099Y182114D01*
X24071Y183284D01*
X21810Y183890D01*
X20256D01*
X19126Y186033D01*
X19082Y186308D01*
X22098Y189324D01*
X75109D01*
X76596Y189620D01*
X77856Y190462D01*
X86919Y199526D01*
X89197Y198211D01*
X89170Y198111D01*
Y195589D01*
X89823Y193152D01*
X91084Y190968D01*
X92868Y189184D01*
X95052Y187923D01*
X97489Y187270D01*
X100011D01*
X102448Y187923D01*
X104632Y189184D01*
X106416Y190968D01*
X107347Y192580D01*
X108473Y192840D01*
X109027D01*
X110153Y192580D01*
X111084Y190968D01*
X112868Y189184D01*
X115052Y187923D01*
X117489Y187270D01*
X120011D01*
X122448Y187923D01*
X124632Y189184D01*
X126416Y190968D01*
X127347Y192580D01*
X128474Y192840D01*
X129026D01*
X130153Y192580D01*
X131084Y190968D01*
X132868Y189184D01*
X135052Y187923D01*
X137480Y187272D01*
Y196850D01*
X140020D01*
Y187272D01*
X142448Y187923D01*
X144632Y189184D01*
X146416Y190968D01*
X147347Y192580D01*
X148473Y192840D01*
X149027D01*
X150153Y192580D01*
X151084Y190968D01*
X152868Y189184D01*
X155052Y187923D01*
X157480Y187272D01*
Y196850D01*
X158750D01*
Y198120D01*
X168328D01*
X167677Y200548D01*
X166416Y202732D01*
X164632Y204516D01*
X163020Y205447D01*
X162760Y206574D01*
Y207127D01*
X163020Y208253D01*
X164632Y209184D01*
X166416Y210968D01*
X167677Y213152D01*
X168330Y215589D01*
Y218111D01*
X167677Y220548D01*
X166416Y222732D01*
X164632Y224516D01*
X162448Y225777D01*
X160011Y226430D01*
D02*
G37*
G36*
X514500Y223730D02*
X496270D01*
Y205500D01*
X496921D01*
X500688Y206249D01*
X504237Y207719D01*
X507430Y209853D01*
X510147Y212570D01*
X512281Y215763D01*
X513751Y219312D01*
X514500Y223079D01*
Y223730D01*
D02*
G37*
G36*
X493730D02*
X475500D01*
Y223079D01*
X476249Y219312D01*
X477719Y215763D01*
X479853Y212570D01*
X482570Y209853D01*
X485763Y207719D01*
X489312Y206249D01*
X493079Y205500D01*
X493730D01*
Y223730D01*
D02*
G37*
G36*
X44500D02*
X26270D01*
Y205500D01*
X26921D01*
X30688Y206249D01*
X34237Y207719D01*
X37431Y209853D01*
X40147Y212570D01*
X42281Y215763D01*
X43751Y219312D01*
X44500Y223079D01*
Y223730D01*
D02*
G37*
G36*
X23730D02*
X5500D01*
Y223079D01*
X6249Y219312D01*
X7719Y215763D01*
X9853Y212570D01*
X12570Y209853D01*
X15763Y207719D01*
X19312Y206249D01*
X23079Y205500D01*
X23730D01*
Y223730D01*
D02*
G37*
G36*
X168328Y195580D02*
X160020D01*
Y187272D01*
X162448Y187923D01*
X164632Y189184D01*
X166416Y190968D01*
X167677Y193152D01*
X168328Y195580D01*
D02*
G37*
G36*
X454380Y186860D02*
X437800D01*
Y170280D01*
X454380D01*
Y174685D01*
X466050D01*
X466862Y173873D01*
X468898Y173030D01*
X471102D01*
X473138Y173873D01*
X474697Y175432D01*
X475540Y177468D01*
Y179672D01*
X474697Y181708D01*
X473138Y183267D01*
X471102Y184110D01*
X468898D01*
X466862Y183267D01*
X466050Y182455D01*
X454380D01*
Y186860D01*
D02*
G37*
G36*
X237800Y238835D02*
X209550D01*
X208063Y238539D01*
X206803Y237697D01*
X185213Y216107D01*
X184371Y214847D01*
X184075Y213360D01*
Y176530D01*
X184371Y175043D01*
X185213Y173783D01*
X209475Y149521D01*
Y141448D01*
X207727Y140716D01*
X206935Y140637D01*
X205459Y142114D01*
X203431Y143284D01*
X201270Y143863D01*
Y135000D01*
X198730D01*
Y143863D01*
X196569Y143284D01*
X194541Y142114D01*
X192886Y140459D01*
X191716Y138431D01*
X191315Y136935D01*
X188685D01*
X188284Y138431D01*
X187114Y140459D01*
X185459Y142114D01*
X183431Y143284D01*
X181170Y143890D01*
X178830D01*
X176569Y143284D01*
X174541Y142114D01*
X172886Y140459D01*
X171716Y138431D01*
X171110Y136170D01*
Y133830D01*
X171716Y131569D01*
X172886Y129541D01*
X174541Y127886D01*
X176569Y126716D01*
X178065Y126315D01*
Y123685D01*
X176569Y123284D01*
X174541Y122114D01*
X172886Y120459D01*
X171716Y118431D01*
X171110Y116170D01*
Y113830D01*
X171716Y111569D01*
X172886Y109541D01*
X174541Y107886D01*
X176569Y106716D01*
X178830Y106110D01*
X181170D01*
X183431Y106716D01*
X185459Y107886D01*
X187114Y109541D01*
X188284Y111569D01*
X188685Y113065D01*
X191315D01*
X191716Y111569D01*
X192886Y109541D01*
X194541Y107886D01*
X196160Y106952D01*
Y74750D01*
X196456Y73263D01*
X197298Y72003D01*
X210745Y58556D01*
Y54060D01*
X208284Y53431D01*
X207114Y55459D01*
X205459Y57114D01*
X203431Y58284D01*
X201270Y58863D01*
Y50000D01*
X198730D01*
Y58863D01*
X196569Y58284D01*
X194541Y57114D01*
X192886Y55459D01*
X191716Y53431D01*
X191315Y51935D01*
X188685D01*
X188284Y53431D01*
X187114Y55459D01*
X185459Y57114D01*
X183431Y58284D01*
X181170Y58890D01*
X178830D01*
X176569Y58284D01*
X174541Y57114D01*
X172886Y55459D01*
X171716Y53431D01*
X171110Y51170D01*
Y48830D01*
X171716Y46569D01*
X172886Y44541D01*
X174541Y42886D01*
X176569Y41716D01*
X178065Y41315D01*
Y38685D01*
X176569Y38284D01*
X174541Y37114D01*
X172886Y35459D01*
X171716Y33431D01*
X171110Y31170D01*
Y28830D01*
X171716Y26569D01*
X172886Y24541D01*
X174541Y22886D01*
X176569Y21716D01*
X178830Y21110D01*
X181170D01*
X183431Y21716D01*
X185459Y22886D01*
X187114Y24541D01*
X188284Y26569D01*
X188685Y28065D01*
X191315D01*
X191716Y26569D01*
X192886Y24541D01*
X194541Y22886D01*
X196569Y21716D01*
X198830Y21110D01*
X201170D01*
X203431Y21716D01*
X205459Y22886D01*
X207114Y24541D01*
X208022Y26115D01*
X222090D01*
X223577Y26411D01*
X224837Y27253D01*
X231254Y33670D01*
X231346D01*
X233663Y31353D01*
X234923Y30511D01*
X236410Y30215D01*
X281217D01*
X282704Y30511D01*
X283964Y31353D01*
X289314Y36703D01*
X293980D01*
Y39105D01*
X299912D01*
Y38602D01*
X300222Y37041D01*
X301014Y35856D01*
X301107Y35717D01*
X301107Y32863D01*
X301014Y32724D01*
X300222Y31539D01*
X299912Y29978D01*
Y26860D01*
X309880D01*
Y24320D01*
X299912D01*
Y21202D01*
X300222Y19641D01*
X301107Y18317D01*
X302431Y17432D01*
X303993Y17122D01*
X310331D01*
X311303Y14775D01*
X308596Y12069D01*
X293980D01*
Y24257D01*
X271170D01*
Y16855D01*
Y9454D01*
X278018D01*
X282035Y5437D01*
X283295Y4595D01*
X284782Y4299D01*
X310205D01*
X311692Y4595D01*
X312952Y5437D01*
X327867Y20352D01*
X328709Y21612D01*
X329005Y23099D01*
Y86220D01*
X329817Y87032D01*
X330660Y89068D01*
Y91272D01*
X329817Y93308D01*
X328258Y94867D01*
X326222Y95710D01*
X324018D01*
X321982Y94867D01*
X320423Y93308D01*
X319580Y91272D01*
Y89068D01*
X320423Y87032D01*
X321235Y86220D01*
Y50971D01*
X318695Y50200D01*
X318653Y50263D01*
X317329Y51148D01*
X315767Y51458D01*
X303993D01*
X302431Y51148D01*
X301107Y50263D01*
X300222Y48939D01*
X299912Y47378D01*
Y46875D01*
X293980D01*
Y51506D01*
X283820D01*
Y42197D01*
X279608Y37985D01*
X274980D01*
Y50533D01*
X275194Y51655D01*
X276951Y52880D01*
X277632D01*
X279668Y53723D01*
X281227Y55282D01*
X282070Y57318D01*
Y59402D01*
X282147Y59479D01*
X282989Y60740D01*
X283285Y62226D01*
Y86360D01*
X303218D01*
Y108204D01*
X296285D01*
Y111989D01*
X295989Y113476D01*
X295147Y114736D01*
X275760Y134123D01*
X276188Y136273D01*
X277747Y137832D01*
X278590Y139868D01*
Y142072D01*
X279042Y142748D01*
X297630D01*
Y153670D01*
Y164592D01*
X292585D01*
X291010Y167132D01*
X291290Y167808D01*
Y170012D01*
X292508Y171835D01*
X302011D01*
X344991Y128855D01*
X343329Y127003D01*
X342900Y127181D01*
Y124460D01*
Y120803D01*
X343849Y119383D01*
X334613Y110147D01*
X333771Y108887D01*
X333475Y107400D01*
Y62612D01*
X333771Y61125D01*
X334613Y59865D01*
X335525Y58953D01*
Y53377D01*
X335821Y51891D01*
X336663Y50631D01*
X345591Y41703D01*
X346851Y40861D01*
X348337Y40565D01*
X380963D01*
X382449Y40861D01*
X383709Y41703D01*
X392637Y50631D01*
X393479Y51891D01*
X393775Y53377D01*
Y58953D01*
X400402Y65580D01*
X401152D01*
X403188Y66423D01*
X404000Y67235D01*
X414630D01*
Y63140D01*
X431210D01*
Y79720D01*
X423547D01*
X422920Y79845D01*
X422293Y79720D01*
X414630D01*
Y75005D01*
X404000D01*
X403188Y75817D01*
X401152Y76660D01*
X398948D01*
X396912Y75817D01*
X395353Y74258D01*
X394510Y72222D01*
Y70676D01*
X391041Y67207D01*
X388695Y68179D01*
Y90181D01*
X399654Y101140D01*
X401152D01*
X403188Y101983D01*
X404000Y102795D01*
X414630D01*
Y98270D01*
X431210D01*
Y114850D01*
X414630D01*
Y110565D01*
X404000D01*
X403188Y111377D01*
X401152Y112220D01*
X398948D01*
X396912Y111377D01*
X395353Y109818D01*
X394510Y107782D01*
Y106984D01*
X382063Y94537D01*
X381538Y93752D01*
X381184Y93269D01*
X378885Y92795D01*
X377552Y93634D01*
X377966Y96375D01*
X378081Y96406D01*
X380109Y97576D01*
X381764Y99231D01*
X382934Y101259D01*
X383540Y103520D01*
Y105860D01*
X382934Y108121D01*
X381764Y110149D01*
X380109Y111804D01*
X378081Y112974D01*
X376585Y113375D01*
Y116005D01*
X378081Y116406D01*
X380109Y117576D01*
X381764Y119231D01*
X382934Y121259D01*
X383513Y123420D01*
X374650D01*
Y125960D01*
X383513D01*
X382934Y128121D01*
X381764Y130149D01*
X380109Y131804D01*
X378081Y132974D01*
X376585Y133375D01*
Y136005D01*
X378081Y136406D01*
X380109Y137576D01*
X381764Y139231D01*
X382673Y140805D01*
X393904D01*
X394083Y140372D01*
X395642Y138813D01*
X397678Y137970D01*
X399882D01*
X401918Y138813D01*
X402250Y139145D01*
X414630D01*
Y134740D01*
X431210D01*
Y151320D01*
X414630D01*
Y146915D01*
X403210D01*
X401918Y148207D01*
X399882Y149050D01*
X397678D01*
X396530Y148575D01*
X382673D01*
X381764Y150149D01*
X380109Y151804D01*
X378081Y152974D01*
X376585Y153375D01*
Y156005D01*
X378081Y156406D01*
X380109Y157576D01*
X381764Y159231D01*
X382934Y161259D01*
X383513Y163420D01*
X374650D01*
Y165960D01*
X383513D01*
X382934Y168121D01*
X381764Y170149D01*
X380109Y171804D01*
X378977Y172457D01*
X379884Y174866D01*
X380794Y174685D01*
X414300D01*
Y170280D01*
X430880D01*
Y186860D01*
X414300D01*
Y182455D01*
X384357D01*
X383540Y183520D01*
Y185860D01*
X382934Y188121D01*
X381764Y190149D01*
X380109Y191804D01*
X378081Y192974D01*
X375820Y193580D01*
X373480D01*
X371724Y193110D01*
X346507Y218327D01*
X345247Y219169D01*
X343760Y219465D01*
X265117D01*
X264827Y220548D01*
X263566Y222732D01*
X261782Y224516D01*
X259598Y225777D01*
X257161Y226430D01*
X254639D01*
X252411Y225833D01*
X240547Y237697D01*
X239287Y238539D01*
X237800Y238835D01*
D02*
G37*
G36*
X303218Y164592D02*
X300170D01*
Y154940D01*
X303218D01*
Y164592D01*
D02*
G37*
G36*
X49503Y153730D02*
X41910D01*
Y146137D01*
X44071Y146716D01*
X46099Y147886D01*
X47754Y149541D01*
X48924Y151569D01*
X49503Y153730D01*
D02*
G37*
G36*
X303218Y152400D02*
X300170D01*
Y142748D01*
X303218D01*
Y152400D01*
D02*
G37*
G36*
X454710Y151320D02*
X438130D01*
Y134740D01*
X454710D01*
Y139145D01*
X465880D01*
X466862Y138163D01*
X468898Y137320D01*
X471102D01*
X473138Y138163D01*
X474697Y139722D01*
X475540Y141758D01*
Y143962D01*
X474697Y145998D01*
X473138Y147557D01*
X471102Y148400D01*
X468898D01*
X466862Y147557D01*
X466220Y146915D01*
X454710D01*
Y151320D01*
D02*
G37*
G36*
X121270Y143863D02*
Y136270D01*
X128863D01*
X128284Y138431D01*
X127114Y140459D01*
X125459Y142114D01*
X123431Y143284D01*
X121270Y143863D01*
D02*
G37*
G36*
X396270Y127721D02*
Y126270D01*
X397721D01*
X397543Y126699D01*
X396699Y127543D01*
X396270Y127721D01*
D02*
G37*
G36*
X393730D02*
X393301Y127543D01*
X392457Y126699D01*
X392279Y126270D01*
X393730D01*
Y127721D01*
D02*
G37*
G36*
X340360Y127181D02*
X339931Y127003D01*
X339087Y126159D01*
X338909Y125730D01*
X340360D01*
Y127181D01*
D02*
G37*
G36*
X397721Y123730D02*
X396270D01*
Y122279D01*
X396699Y122457D01*
X397543Y123301D01*
X397721Y123730D01*
D02*
G37*
G36*
X393730D02*
X392279D01*
X392457Y123301D01*
X393301Y122457D01*
X393730Y122279D01*
Y123730D01*
D02*
G37*
G36*
X340360Y123190D02*
X338909D01*
X339087Y122761D01*
X339931Y121917D01*
X340360Y121739D01*
Y123190D01*
D02*
G37*
G36*
X101170Y143890D02*
X98830D01*
X96569Y143284D01*
X94541Y142114D01*
X92886Y140459D01*
X91716Y138431D01*
X91110Y136170D01*
Y133830D01*
X91716Y131569D01*
X92886Y129541D01*
X94541Y127886D01*
X96569Y126716D01*
X98065Y126315D01*
Y123685D01*
X96569Y123284D01*
X94541Y122114D01*
X92886Y120459D01*
X91716Y118431D01*
X91110Y116170D01*
Y113830D01*
X91716Y111569D01*
X92886Y109541D01*
X94541Y107886D01*
X96569Y106716D01*
X98830Y106110D01*
X101170D01*
X103431Y106716D01*
X105459Y107886D01*
X107114Y109541D01*
X108284Y111569D01*
X108685Y113065D01*
X111315D01*
X111716Y111569D01*
X112886Y109541D01*
X114541Y107886D01*
X116569Y106716D01*
X118830Y106110D01*
X121170D01*
X123431Y106716D01*
X125459Y107886D01*
X127114Y109541D01*
X128284Y111569D01*
X128890Y113830D01*
Y116170D01*
X128284Y118431D01*
X127114Y120459D01*
X125459Y122114D01*
X123431Y123284D01*
X121935Y123685D01*
Y126315D01*
X123431Y126716D01*
X125459Y127886D01*
X127114Y129541D01*
X128284Y131569D01*
X128863Y133730D01*
X120000D01*
Y135000D01*
X118730D01*
Y143863D01*
X116569Y143284D01*
X114541Y142114D01*
X112886Y140459D01*
X111716Y138431D01*
X111315Y136935D01*
X108685D01*
X108284Y138431D01*
X107114Y140459D01*
X105459Y142114D01*
X103431Y143284D01*
X101170Y143890D01*
D02*
G37*
G36*
X454710Y114850D02*
X438130D01*
Y98270D01*
X454710D01*
Y103255D01*
X466050D01*
X466862Y102443D01*
X468898Y101600D01*
X471102D01*
X473138Y102443D01*
X474697Y104002D01*
X475540Y106038D01*
Y108242D01*
X474697Y110278D01*
X473138Y111837D01*
X471102Y112680D01*
X468898D01*
X466862Y111837D01*
X466050Y111025D01*
X454710D01*
Y114850D01*
D02*
G37*
G36*
X43080Y103890D02*
X40740D01*
X38479Y103284D01*
X36451Y102114D01*
X34796Y100459D01*
X33626Y98431D01*
X33225Y96935D01*
X30595D01*
X30194Y98431D01*
X29024Y100459D01*
X27369Y102114D01*
X25341Y103284D01*
X23180Y103863D01*
Y95000D01*
X21910D01*
Y93730D01*
X13047D01*
X13626Y91569D01*
X14796Y89541D01*
X16451Y87886D01*
X18479Y86716D01*
X19975Y86315D01*
Y83685D01*
X18479Y83284D01*
X16451Y82114D01*
X14796Y80459D01*
X13626Y78431D01*
X13020Y76170D01*
Y73830D01*
X13626Y71569D01*
X14796Y69541D01*
X16451Y67886D01*
X18479Y66716D01*
X20740Y66110D01*
X23080D01*
X25341Y66716D01*
X27369Y67886D01*
X29024Y69541D01*
X30194Y71569D01*
X30595Y73065D01*
X33225D01*
X33626Y71569D01*
X34796Y69541D01*
X36451Y67886D01*
X38479Y66716D01*
X40740Y66110D01*
X43080D01*
X45341Y66716D01*
X47369Y67886D01*
X49024Y69541D01*
X50194Y71569D01*
X50800Y73830D01*
Y76170D01*
X50194Y78431D01*
X49024Y80459D01*
X47369Y82114D01*
X45341Y83284D01*
X43845Y83685D01*
Y86315D01*
X45341Y86716D01*
X47369Y87886D01*
X49024Y89541D01*
X50194Y91569D01*
X50800Y93830D01*
Y96170D01*
X50194Y98431D01*
X49024Y100459D01*
X47369Y102114D01*
X45341Y103284D01*
X43080Y103890D01*
D02*
G37*
G36*
X20640Y103863D02*
X18479Y103284D01*
X16451Y102114D01*
X14796Y100459D01*
X13626Y98431D01*
X13047Y96270D01*
X20640D01*
Y103863D01*
D02*
G37*
G36*
X454710Y79720D02*
X438130D01*
Y63140D01*
X454710D01*
Y67545D01*
X466050D01*
X466862Y66733D01*
X468898Y65890D01*
X471102D01*
X473138Y66733D01*
X474697Y68292D01*
X475540Y70328D01*
Y72532D01*
X474697Y74568D01*
X473138Y76127D01*
X471102Y76970D01*
X468898D01*
X466862Y76127D01*
X466050Y75315D01*
X454710D01*
Y79720D01*
D02*
G37*
G36*
X121270Y58863D02*
Y51270D01*
X128863D01*
X128284Y53431D01*
X127114Y55459D01*
X125459Y57114D01*
X123431Y58284D01*
X121270Y58863D01*
D02*
G37*
G36*
X347980Y29391D02*
Y27940D01*
X349431D01*
X349253Y28369D01*
X348409Y29213D01*
X347980Y29391D01*
D02*
G37*
G36*
X345440D02*
X345011Y29213D01*
X344167Y28369D01*
X343989Y27940D01*
X345440D01*
Y29391D01*
D02*
G37*
G36*
X496921Y44500D02*
X496270D01*
Y26270D01*
X514500D01*
Y26921D01*
X513751Y30688D01*
X512281Y34237D01*
X510147Y37431D01*
X507430Y40147D01*
X504237Y42281D01*
X500688Y43751D01*
X496921Y44500D01*
D02*
G37*
G36*
X493730D02*
X493079D01*
X489312Y43751D01*
X485763Y42281D01*
X482570Y40147D01*
X479853Y37431D01*
X477719Y34237D01*
X476249Y30688D01*
X475500Y26921D01*
Y26270D01*
X493730D01*
Y44500D01*
D02*
G37*
G36*
X26921D02*
X26270D01*
Y26270D01*
X44500D01*
Y26921D01*
X43751Y30688D01*
X42281Y34237D01*
X40147Y37431D01*
X37431Y40147D01*
X34237Y42281D01*
X30688Y43751D01*
X26921Y44500D01*
D02*
G37*
G36*
X23730D02*
X23079D01*
X19312Y43751D01*
X15763Y42281D01*
X12570Y40147D01*
X9853Y37431D01*
X7719Y34237D01*
X6249Y30688D01*
X5500Y26921D01*
Y26270D01*
X23730D01*
Y44500D01*
D02*
G37*
G36*
X349431Y25400D02*
X347980D01*
Y23949D01*
X348409Y24127D01*
X349253Y24971D01*
X349431Y25400D01*
D02*
G37*
G36*
X345440D02*
X343989D01*
X344167Y24971D01*
X345011Y24127D01*
X345440Y23949D01*
Y25400D01*
D02*
G37*
G36*
X396270Y22721D02*
Y21270D01*
X397721D01*
X397543Y21699D01*
X396699Y22543D01*
X396270Y22721D01*
D02*
G37*
G36*
X393730D02*
X393301Y22543D01*
X392457Y21699D01*
X392279Y21270D01*
X393730D01*
Y22721D01*
D02*
G37*
G36*
X101170Y58890D02*
X98830D01*
X96569Y58284D01*
X94541Y57114D01*
X92886Y55459D01*
X91716Y53431D01*
X91110Y51170D01*
Y48830D01*
X91716Y46569D01*
X92886Y44541D01*
X94541Y42886D01*
X96569Y41716D01*
X98065Y41315D01*
Y38685D01*
X96569Y38284D01*
X94541Y37114D01*
X92886Y35459D01*
X91716Y33431D01*
X91110Y31170D01*
Y28830D01*
X91716Y26569D01*
X92886Y24541D01*
X94541Y22886D01*
X96569Y21716D01*
X98830Y21110D01*
X101170D01*
X103431Y21716D01*
X105459Y22886D01*
X107114Y24541D01*
X108284Y26569D01*
X108685Y28065D01*
X111315D01*
X111716Y26569D01*
X112886Y24541D01*
X114541Y22886D01*
X116569Y21716D01*
X118830Y21110D01*
X121170D01*
X123431Y21716D01*
X125459Y22886D01*
X127114Y24541D01*
X128284Y26569D01*
X128890Y28830D01*
Y31170D01*
X128284Y33431D01*
X127114Y35459D01*
X125459Y37114D01*
X123431Y38284D01*
X121935Y38685D01*
Y41315D01*
X123431Y41716D01*
X125459Y42886D01*
X127114Y44541D01*
X128284Y46569D01*
X128863Y48730D01*
X120000D01*
Y50000D01*
X118730D01*
Y58863D01*
X116569Y58284D01*
X114541Y57114D01*
X112886Y55459D01*
X111716Y53431D01*
X111315Y51935D01*
X108685D01*
X108284Y53431D01*
X107114Y55459D01*
X105459Y57114D01*
X103431Y58284D01*
X101170Y58890D01*
D02*
G37*
G36*
X268630Y24257D02*
X264820D01*
Y18125D01*
X268630D01*
Y24257D01*
D02*
G37*
G36*
X397721Y18730D02*
X396270D01*
Y17279D01*
X396699Y17457D01*
X397543Y18301D01*
X397721Y18730D01*
D02*
G37*
G36*
X393730D02*
X392279D01*
X392457Y18301D01*
X393301Y17457D01*
X393730Y17279D01*
Y18730D01*
D02*
G37*
G36*
X268630Y15586D02*
X264820D01*
Y9454D01*
X268630D01*
Y15586D01*
D02*
G37*
G36*
X514500Y23730D02*
X496270D01*
Y5500D01*
X496921D01*
X500688Y6249D01*
X504237Y7719D01*
X507430Y9853D01*
X510147Y12570D01*
X512281Y15763D01*
X513751Y19312D01*
X514500Y23079D01*
Y23730D01*
D02*
G37*
G36*
X493730D02*
X475500D01*
Y23079D01*
X476249Y19312D01*
X477719Y15763D01*
X479853Y12570D01*
X482570Y9853D01*
X485763Y7719D01*
X489312Y6249D01*
X493079Y5500D01*
X493730D01*
Y23730D01*
D02*
G37*
G36*
X44500D02*
X26270D01*
Y5500D01*
X26921D01*
X30688Y6249D01*
X34237Y7719D01*
X37431Y9853D01*
X40147Y12570D01*
X42281Y15763D01*
X43751Y19312D01*
X44500Y23079D01*
Y23730D01*
D02*
G37*
G36*
X23730D02*
X5500D01*
Y23079D01*
X6249Y19312D01*
X7719Y15763D01*
X9853Y12570D01*
X12570Y9853D01*
X15763Y7719D01*
X19312Y6249D01*
X23079Y5500D01*
X23730D01*
Y23730D01*
D02*
G37*
%LPD*%
G36*
X238576Y228681D02*
X237261Y226403D01*
X237170Y226428D01*
Y216850D01*
X234630D01*
Y226428D01*
X232202Y225777D01*
X230018Y224516D01*
X228234Y222732D01*
X227303Y221120D01*
X226176Y220860D01*
X225623D01*
X224497Y221120D01*
X223566Y222732D01*
X221782Y224516D01*
X219598Y225777D01*
X217161Y226430D01*
X214639D01*
X212202Y225777D01*
X210018Y224516D01*
X208234Y222732D01*
X206973Y220548D01*
X206320Y218111D01*
Y215589D01*
X206973Y213152D01*
X207341Y212515D01*
X202303Y207477D01*
X201461Y206217D01*
X201165Y204730D01*
Y179139D01*
X201461Y177653D01*
X202303Y176392D01*
X210332Y168363D01*
X211593Y167521D01*
X213079Y167225D01*
X253092D01*
X255555Y164898D01*
X255583Y164744D01*
X255582Y164592D01*
X255582D01*
Y142748D01*
X256015D01*
Y108204D01*
X255582D01*
Y86360D01*
X256015D01*
Y81833D01*
X255370D01*
X253809Y81522D01*
X252624Y80730D01*
X252485Y80638D01*
X249631Y80638D01*
X249492Y80730D01*
X248307Y81522D01*
X246745Y81833D01*
X243628D01*
Y71864D01*
Y61896D01*
X244900D01*
X245952Y59356D01*
X231346Y44750D01*
X230198D01*
X228162Y43907D01*
X226603Y42348D01*
X225760Y40312D01*
Y39164D01*
X220481Y33885D01*
X215097D01*
X214125Y36231D01*
X217377Y39483D01*
X218219Y40743D01*
X218515Y42230D01*
Y60165D01*
X218219Y61652D01*
X217377Y62912D01*
X203930Y76359D01*
Y107003D01*
X205459Y107886D01*
X207114Y109541D01*
X208284Y111569D01*
X208890Y113830D01*
Y116170D01*
X208439Y117855D01*
X216107Y125523D01*
X216949Y126783D01*
X217245Y128270D01*
Y151130D01*
X216949Y152617D01*
X216107Y153877D01*
X191845Y178139D01*
Y211751D01*
X211159Y231065D01*
X236191D01*
X238576Y228681D01*
D02*
G37*
G36*
X358302Y195545D02*
X356987Y193267D01*
X355920Y193553D01*
Y184690D01*
X354650D01*
Y183420D01*
X345787D01*
X346366Y181259D01*
X347536Y179231D01*
X349191Y177576D01*
X351219Y176406D01*
X352715Y176005D01*
Y173375D01*
X351219Y172974D01*
X349191Y171804D01*
X347536Y170149D01*
X346366Y168121D01*
X345760Y165860D01*
Y163520D01*
X346366Y161259D01*
X347536Y159231D01*
X349191Y157576D01*
X351219Y156406D01*
X352715Y156005D01*
Y153375D01*
X351219Y152974D01*
X349191Y151804D01*
X347536Y150149D01*
X346366Y148121D01*
X345787Y145960D01*
X354650D01*
Y143420D01*
X345787D01*
X346073Y142353D01*
X343795Y141039D01*
X306367Y178467D01*
X305107Y179309D01*
X303620Y179605D01*
X259746D01*
X258260Y179309D01*
X257000Y178467D01*
X253527Y174995D01*
X222658D01*
X221440Y176818D01*
Y179022D01*
X220597Y181058D01*
X219785Y181870D01*
Y188031D01*
X221782Y189184D01*
X223566Y190968D01*
X224497Y192580D01*
X225623Y192840D01*
X226176D01*
X227303Y192580D01*
X228234Y190968D01*
X230018Y189184D01*
X232202Y187923D01*
X234639Y187270D01*
X237161D01*
X239598Y187923D01*
X241782Y189184D01*
X243566Y190968D01*
X243780Y191339D01*
X246320Y190658D01*
Y187270D01*
X265480D01*
Y206430D01*
X262092D01*
X261411Y208970D01*
X261782Y209184D01*
X263566Y210968D01*
X263986Y211695D01*
X342151D01*
X358302Y195545D01*
D02*
G37*
G36*
X283080Y115816D02*
X283034Y115471D01*
X281945Y113359D01*
X269544D01*
X268057Y113063D01*
X266797Y112221D01*
X266325Y111749D01*
X263785Y112801D01*
Y131792D01*
X266131Y132764D01*
X283080Y115816D01*
D02*
G37*
G36*
X265835Y59642D02*
Y54558D01*
X265937Y54046D01*
X264820Y51506D01*
X264820D01*
Y37985D01*
X239160D01*
X238108Y40525D01*
X258277Y60693D01*
X259081Y61896D01*
X264145D01*
X265835Y59642D01*
D02*
G37*
%LPC*%
G36*
X218440Y92891D02*
Y91440D01*
X219891D01*
X219713Y91869D01*
X218869Y92713D01*
X218440Y92891D01*
D02*
G37*
G36*
X215900D02*
X215471Y92713D01*
X214627Y91869D01*
X214449Y91440D01*
X215900D01*
Y92891D01*
D02*
G37*
G36*
X247320Y91951D02*
Y90500D01*
X248771D01*
X248593Y90929D01*
X247749Y91773D01*
X247320Y91951D01*
D02*
G37*
G36*
X244780D02*
X244351Y91773D01*
X243507Y90929D01*
X243329Y90500D01*
X244780D01*
Y91951D01*
D02*
G37*
G36*
X219891Y88900D02*
X218440D01*
Y87449D01*
X218869Y87627D01*
X219713Y88471D01*
X219891Y88900D01*
D02*
G37*
G36*
X215900D02*
X214449D01*
X214627Y88471D01*
X215471Y87627D01*
X215900Y87449D01*
Y88900D01*
D02*
G37*
G36*
X248771Y87960D02*
X247320D01*
Y86509D01*
X247749Y86687D01*
X248593Y87531D01*
X248771Y87960D01*
D02*
G37*
G36*
X244780D02*
X243329D01*
X243507Y87531D01*
X244351Y86687D01*
X244780Y86509D01*
Y87960D01*
D02*
G37*
G36*
X241088Y81833D02*
X237970D01*
X236409Y81522D01*
X235085Y80638D01*
X234200Y79314D01*
X233889Y77752D01*
Y73134D01*
X241088D01*
Y81833D01*
D02*
G37*
G36*
Y70594D02*
X233889D01*
Y65977D01*
X234200Y64415D01*
X235085Y63091D01*
X236409Y62207D01*
X237970Y61896D01*
X241088D01*
Y70594D01*
D02*
G37*
G36*
X295910Y207191D02*
Y205740D01*
X297361D01*
X297183Y206169D01*
X296339Y207013D01*
X295910Y207191D01*
D02*
G37*
G36*
X293370D02*
X292941Y207013D01*
X292097Y206169D01*
X291919Y205740D01*
X293370D01*
Y207191D01*
D02*
G37*
G36*
X297361Y203200D02*
X295910D01*
Y201749D01*
X296339Y201927D01*
X297183Y202771D01*
X297361Y203200D01*
D02*
G37*
G36*
X293370D02*
X291919D01*
X292097Y202771D01*
X292941Y201927D01*
X293370Y201749D01*
Y203200D01*
D02*
G37*
G36*
X353380Y193553D02*
X351219Y192974D01*
X349191Y191804D01*
X347536Y190149D01*
X346366Y188121D01*
X345787Y185960D01*
X353380D01*
Y193553D01*
D02*
G37*
%LPD*%
D29*
X187960Y176530D02*
X213360Y151130D01*
Y128270D02*
Y151130D01*
X187960Y176530D02*
Y213360D01*
X209550Y234950D01*
X237800D01*
X255900Y216850D01*
Y215580D02*
X343760D01*
X259900Y71864D02*
Y97282D01*
X200045Y114955D02*
X213360Y128270D01*
X288900Y41783D02*
Y44104D01*
X215900Y177920D02*
Y195580D01*
X200045Y74750D02*
X214630Y60165D01*
X200045Y74750D02*
Y114955D01*
X200000Y30000D02*
X202400D01*
X222090D01*
X202400D02*
X214630Y42230D01*
X222090Y30000D02*
X231300Y39210D01*
X214630Y42230D02*
Y60165D01*
X10480Y161290D02*
Y183200D01*
X20489Y193209D02*
X75109D01*
X10480Y183200D02*
X20489Y193209D01*
X380794Y178570D02*
X422590D01*
X374674Y184690D02*
X380794Y178570D01*
X374650Y184690D02*
X374674D01*
X446090Y178570D02*
X470000D01*
X399260Y143030D02*
X422920D01*
X398780Y143510D02*
X399260Y143030D01*
X396664Y144690D02*
X397844Y143510D01*
X374650Y144690D02*
X396664D01*
X399700Y106680D02*
X422800D01*
X384810Y91790D02*
X399700Y106680D01*
X422800D02*
X422920Y106560D01*
X447000Y107140D02*
X470000D01*
X446420Y106560D02*
X447000Y107140D01*
X418440Y71120D02*
X421890Y74570D01*
X389890Y60562D02*
X400050Y70722D01*
Y71120D02*
X418440D01*
X400050Y70722D02*
Y71120D01*
X421890Y74570D02*
Y74930D01*
X389890Y53377D02*
Y60562D01*
X421890Y74930D02*
X422920Y75960D01*
X446420Y71430D02*
X470225D01*
X343760Y215580D02*
X374650Y184690D01*
X344490Y55482D02*
Y94930D01*
X344170Y95250D02*
X344490Y94930D01*
X337360Y107400D02*
X354650Y124690D01*
X337360Y62612D02*
Y107400D01*
Y62612D02*
X339410Y60562D01*
X303620Y175720D02*
X354650Y124690D01*
X259746Y175720D02*
X303620D01*
X310205Y8184D02*
X325120Y23099D01*
Y90170D01*
X284782Y8184D02*
X310205D01*
X384810Y55482D02*
Y91790D01*
X378858Y49530D02*
X384810Y55482D01*
X350442Y49530D02*
X378858D01*
X344490Y55482D02*
X350442Y49530D01*
X348337Y44450D02*
X380963D01*
X389890Y53377D01*
X339410D02*
X348337Y44450D01*
X339410Y53377D02*
Y60562D01*
X205050Y179139D02*
Y204730D01*
X213079Y171110D02*
X255136D01*
X259746Y175720D01*
X205050Y204730D02*
X215900Y215580D01*
X279400Y16855D02*
X280670Y15586D01*
Y12296D02*
Y15586D01*
Y12296D02*
X284782Y8184D01*
X205050Y179139D02*
X213079Y171110D01*
X259900Y97282D02*
X266400D01*
X266908Y97790D01*
Y106838D01*
X269544Y109474D01*
X282756D01*
X285392Y106838D01*
Y97790D02*
Y106838D01*
Y97790D02*
X285900Y97282D01*
X259900Y153670D02*
X260408Y154178D01*
Y163226D01*
X263044Y165862D01*
X276256D01*
X278892Y163226D01*
Y154178D02*
Y163226D01*
Y154178D02*
X279400Y153670D01*
X259900D02*
X259900Y153670D01*
Y97282D02*
Y153670D01*
X231300Y39210D02*
X236410Y34100D01*
X281217D01*
X288900Y41783D01*
Y44104D02*
X290014Y42990D01*
X309880D01*
X255530Y67637D02*
X259758Y71864D01*
X231300Y39210D02*
X255530Y63440D01*
Y67637D01*
X10480Y161290D02*
X20640Y151130D01*
X75109Y193209D02*
X98750Y216850D01*
X279400Y62226D02*
Y97282D01*
X276530Y59356D02*
X279400Y62226D01*
X276530Y58420D02*
Y59356D01*
X269720Y67507D02*
X272900Y70687D01*
X269720Y54558D02*
Y67507D01*
Y54558D02*
X269900Y54378D01*
Y44104D02*
Y54378D01*
X285750Y168910D02*
X285825Y168835D01*
Y153745D02*
Y168835D01*
Y153745D02*
X285900Y153670D01*
X272900Y70687D02*
Y97282D01*
X292400D02*
Y111989D01*
X266240Y138149D02*
X292400Y111989D01*
X266240Y138149D02*
Y153510D01*
X266400Y153670D01*
X272900D02*
X272975Y153595D01*
Y141045D02*
X273050Y140970D01*
X272975Y141045D02*
Y153595D01*
X446420Y143030D02*
X470740D01*
D30*
X354650Y84690D02*
D03*
Y104690D02*
D03*
Y124690D02*
D03*
X374650D02*
D03*
X354650Y144690D02*
D03*
X374650D02*
D03*
X354650Y64690D02*
D03*
Y164690D02*
D03*
Y184690D02*
D03*
X374650Y64690D02*
D03*
Y104690D02*
D03*
Y84690D02*
D03*
Y184690D02*
D03*
Y164690D02*
D03*
X41910Y75000D02*
D03*
X120000Y50000D02*
D03*
X21910Y95000D02*
D03*
X200000Y50000D02*
D03*
Y135000D02*
D03*
X120000D02*
D03*
X40640Y155000D02*
D03*
X120000Y115000D02*
D03*
X200000D02*
D03*
X120000Y30000D02*
D03*
X200000D02*
D03*
X41910Y95000D02*
D03*
X180000Y135000D02*
D03*
Y115000D02*
D03*
Y50000D02*
D03*
Y30000D02*
D03*
X21910Y75000D02*
D03*
X100000Y135000D02*
D03*
Y115000D02*
D03*
Y50000D02*
D03*
Y30000D02*
D03*
X40640Y175000D02*
D03*
X20640D02*
D03*
Y155000D02*
D03*
D31*
X98750Y196850D02*
D03*
X118750D02*
D03*
X235900Y216850D02*
D03*
X118750D02*
D03*
X158750Y196850D02*
D03*
X138750D02*
D03*
Y216850D02*
D03*
X215900D02*
D03*
X235900Y196850D02*
D03*
X255900Y216850D02*
D03*
X215900Y196850D02*
D03*
X158750Y216850D02*
D03*
D32*
X255900Y196850D02*
D03*
X98750Y216850D02*
D03*
D33*
X395000Y20000D02*
D03*
X341630Y124460D02*
D03*
X215900Y177920D02*
D03*
X398780Y143510D02*
D03*
X400050Y106680D02*
D03*
Y71120D02*
D03*
X344170Y95250D02*
D03*
X395000Y230000D02*
D03*
X325120Y90170D02*
D03*
X246050Y89230D02*
D03*
X217170Y90170D02*
D03*
X294640Y204470D02*
D03*
X395000Y125000D02*
D03*
X346710Y26670D02*
D03*
X231300Y39210D02*
D03*
X276530Y58420D02*
D03*
X285750Y168910D02*
D03*
X273050Y140970D02*
D03*
X470000Y142860D02*
D03*
Y178570D02*
D03*
Y71430D02*
D03*
Y107140D02*
D03*
D34*
X495000Y225000D02*
D03*
Y25000D02*
D03*
X25000Y225000D02*
D03*
Y25000D02*
D03*
D35*
X422920Y143030D02*
D03*
Y106560D02*
D03*
Y71430D02*
D03*
X422590Y178570D02*
D03*
X446420Y143030D02*
D03*
Y106560D02*
D03*
X446090Y178570D02*
D03*
X446420Y71430D02*
D03*
D36*
X279400Y16855D02*
D03*
X269900D02*
D03*
X288900Y44104D02*
D03*
Y16855D02*
D03*
X269900Y44104D02*
D03*
D37*
X309880Y25590D02*
D03*
Y42990D02*
D03*
D38*
X298900Y153670D02*
D03*
X285900Y97282D02*
D03*
X279400Y153670D02*
D03*
X266400Y97282D02*
D03*
X259900Y153670D02*
D03*
X259900Y97282D02*
D03*
X272900Y153670D02*
D03*
X279400Y97282D02*
D03*
X285900Y153670D02*
D03*
X292400D02*
D03*
X266400D02*
D03*
X298900Y97282D02*
D03*
X292400D02*
D03*
X272900D02*
D03*
D39*
X242358Y71864D02*
D03*
X259758D02*
D03*
M02*
