G04*
G04 #@! TF.GenerationSoftware,Altium Limited,Altium Designer,26.8.1 (31)*
G04*
G04 Layer_Color=16711935*
G04 Board_Origin=15650000|21550000*
%FSLAX44Y44*%
%MOMM*%
G71*
G04*
G04 #@! TF.SameCoordinates,60BFEA45-8E34-490C-A906-5F33D4C4AE87*
G04*
G04*
G04 #@! TF.FilePolarity,Negative*
G04*
G01*
G75*
%ADD24C,1.4740*%
%ADD25C,1.6112*%
%ADD26R,1.6112X1.6112*%
%ADD27C,0.8032*%
%ADD28C,4.1032*%
%ADD36R,0.5080X0.9723*%
%ADD40R,1.3532X1.3532*%
G04:AMPARAMS|DCode=41|XSize=1.374mm|YSize=1.674mm|CornerRadius=0.2483mm|HoleSize=0mm|Usage=FLASHONLY|Rotation=90.000|XOffset=0mm|YOffset=0mm|HoleType=Round|Shape=RoundedRectangle|*
%AMROUNDEDRECTD41*
21,1,1.3740,1.1775,0,0,90.0*
21,1,0.8775,1.6740,0,0,90.0*
1,1,0.4965,0.5888,0.4387*
1,1,0.4965,0.5888,-0.4387*
1,1,0.4965,-0.5888,-0.4387*
1,1,0.4965,-0.5888,0.4387*
%
%ADD41ROUNDEDRECTD41*%
G04:AMPARAMS|DCode=42|XSize=1.374mm|YSize=1.674mm|CornerRadius=0.2483mm|HoleSize=0mm|Usage=FLASHONLY|Rotation=180.000|XOffset=0mm|YOffset=0mm|HoleType=Round|Shape=RoundedRectangle|*
%AMROUNDEDRECTD42*
21,1,1.3740,1.1775,0,0,180.0*
21,1,0.8775,1.6740,0,0,180.0*
1,1,0.4965,-0.4387,0.5888*
1,1,0.4965,0.4387,0.5888*
1,1,0.4965,0.4387,-0.5888*
1,1,0.4965,-0.4387,-0.5888*
%
%ADD42ROUNDEDRECTD42*%
G36*
X274678Y88900D02*
X271122D01*
Y105664D01*
X274678D01*
Y88900D01*
D02*
G37*
G36*
X268178D02*
X264622D01*
Y105664D01*
X268178D01*
Y88900D01*
D02*
G37*
G36*
X261678D02*
X258122D01*
Y105664D01*
X261678D01*
Y88900D01*
D02*
G37*
G36*
X281178Y105664D02*
Y88900D01*
X277622D01*
Y105664D01*
X281178D01*
D02*
G37*
G36*
X287678D02*
Y88900D01*
X284122D01*
Y105664D01*
X287678D01*
D02*
G37*
G36*
X294178D02*
Y88900D01*
X290622D01*
Y105664D01*
X294178D01*
D02*
G37*
G36*
X300678D02*
Y88900D01*
X297122D01*
Y105664D01*
X300678D01*
D02*
G37*
G36*
X261678Y162052D02*
Y145288D01*
X258122D01*
Y162052D01*
X261678D01*
D02*
G37*
G36*
X268178D02*
Y145288D01*
X264622D01*
Y162052D01*
X268178D01*
D02*
G37*
G36*
X274678D02*
Y145288D01*
X271122D01*
Y162052D01*
X274678D01*
D02*
G37*
G36*
X281178D02*
Y145288D01*
X277622D01*
Y162052D01*
X281178D01*
D02*
G37*
G36*
X300678Y145288D02*
X297122D01*
Y162052D01*
X300678D01*
Y145288D01*
D02*
G37*
G36*
X294178D02*
X290622D01*
Y162052D01*
X294178D01*
Y145288D01*
D02*
G37*
G36*
X287678D02*
X284122D01*
Y162052D01*
X287678D01*
Y145288D01*
D02*
G37*
D24*
X354650Y84690D02*
D03*
Y104690D02*
D03*
Y124690D02*
D03*
X374650D02*
D03*
X354650Y144690D02*
D03*
X374650D02*
D03*
X354650Y64690D02*
D03*
Y164690D02*
D03*
Y184690D02*
D03*
X374650Y64690D02*
D03*
Y104690D02*
D03*
Y84690D02*
D03*
Y184690D02*
D03*
Y164690D02*
D03*
X41910Y75000D02*
D03*
X120000Y50000D02*
D03*
X21910Y95000D02*
D03*
X200000Y50000D02*
D03*
Y135000D02*
D03*
X120000D02*
D03*
X40640Y155000D02*
D03*
X120000Y115000D02*
D03*
X200000D02*
D03*
X120000Y30000D02*
D03*
X200000D02*
D03*
X41910Y95000D02*
D03*
X180000Y135000D02*
D03*
Y115000D02*
D03*
Y50000D02*
D03*
Y30000D02*
D03*
X21910Y75000D02*
D03*
X100000Y135000D02*
D03*
Y115000D02*
D03*
Y50000D02*
D03*
Y30000D02*
D03*
X40640Y175000D02*
D03*
X20640D02*
D03*
Y155000D02*
D03*
D25*
X98750Y196850D02*
D03*
X118750D02*
D03*
X235900Y216850D02*
D03*
X118750D02*
D03*
X158750Y196850D02*
D03*
X138750D02*
D03*
Y216850D02*
D03*
X215900D02*
D03*
X235900Y196850D02*
D03*
X255900Y216850D02*
D03*
X215900Y196850D02*
D03*
X158750Y216850D02*
D03*
D26*
X255900Y196850D02*
D03*
X98750Y216850D02*
D03*
D27*
X395000Y20000D02*
D03*
X341630Y124460D02*
D03*
X215900Y177920D02*
D03*
X398780Y143510D02*
D03*
X400050Y106680D02*
D03*
Y71120D02*
D03*
X344170Y95250D02*
D03*
X395000Y230000D02*
D03*
X325120Y90170D02*
D03*
X246050Y89230D02*
D03*
X217170Y90170D02*
D03*
X294640Y204470D02*
D03*
X395000Y125000D02*
D03*
X346710Y26670D02*
D03*
X231300Y39210D02*
D03*
X276530Y58420D02*
D03*
X285750Y168910D02*
D03*
X273050Y140970D02*
D03*
X470000Y142860D02*
D03*
Y178570D02*
D03*
Y71430D02*
D03*
Y107140D02*
D03*
D28*
X495000Y225000D02*
D03*
Y25000D02*
D03*
X25000Y225000D02*
D03*
Y25000D02*
D03*
D36*
X279400Y16855D02*
D03*
X269900D02*
D03*
X288900Y44104D02*
D03*
Y16855D02*
D03*
X269900Y44104D02*
D03*
D40*
X422920Y143030D02*
D03*
Y106560D02*
D03*
Y71430D02*
D03*
X422590Y178570D02*
D03*
X446420Y143030D02*
D03*
Y106560D02*
D03*
X446090Y178570D02*
D03*
X446420Y71430D02*
D03*
D41*
X309880Y25590D02*
D03*
Y42990D02*
D03*
D42*
X242358Y71864D02*
D03*
X259758D02*
D03*
M02*
