G04*
G04 #@! TF.GenerationSoftware,Altium Limited,Altium Designer,26.8.1 (31)*
G04*
G04 Layer_Color=65535*
G04 Board_Origin=15650000|21550000*
%FSLAX44Y44*%
%MOMM*%
G71*
G04*
G04 #@! TF.SameCoordinates,60BFEA45-8E34-490C-A906-5F33D4C4AE87*
G04*
G04*
G04 #@! TF.FilePolarity,Positive*
G04*
G01*
G75*
%ADD10C,0.5080*%
%ADD11C,0.2000*%
%ADD12C,0.1524*%
%ADD13C,0.1270*%
%ADD14C,0.1000*%
%ADD15C,0.1800*%
G36*
X485375Y184625D02*
X487118D01*
Y183881D01*
X485375D01*
Y182138D01*
X484644D01*
Y183881D01*
X482888D01*
Y184625D01*
X484644D01*
Y186368D01*
X485375D01*
Y184625D01*
D02*
G37*
G36*
X483600Y180451D02*
X483594D01*
X483575Y180445D01*
X483544Y180438D01*
X483500Y180432D01*
X483450Y180420D01*
X483394Y180407D01*
X483257Y180363D01*
X483113Y180307D01*
X482963Y180238D01*
X482813Y180145D01*
X482751Y180088D01*
X482688Y180032D01*
X482682Y180026D01*
X482676Y180013D01*
X482663Y179995D01*
X482644Y179970D01*
X482619Y179938D01*
X482594Y179901D01*
X482538Y179801D01*
X482482Y179682D01*
X482438Y179545D01*
X482401Y179389D01*
X482394Y179307D01*
X482388Y179220D01*
Y179164D01*
X482394Y179126D01*
X482401Y179076D01*
X482413Y179020D01*
X482426Y178957D01*
X482444Y178889D01*
X482494Y178732D01*
X482526Y178657D01*
X482569Y178576D01*
X482619Y178495D01*
X482676Y178414D01*
X482738Y178333D01*
X482813Y178258D01*
X482819Y178251D01*
X482832Y178239D01*
X482857Y178220D01*
X482894Y178195D01*
X482932Y178164D01*
X482988Y178133D01*
X483050Y178095D01*
X483119Y178058D01*
X483194Y178026D01*
X483282Y177989D01*
X483375Y177958D01*
X483475Y177926D01*
X483582Y177901D01*
X483700Y177883D01*
X483819Y177870D01*
X483950Y177864D01*
X483956D01*
X483982D01*
X484013D01*
X484063Y177870D01*
X484119Y177876D01*
X484181Y177883D01*
X484256Y177895D01*
X484338Y177914D01*
X484506Y177958D01*
X484594Y177989D01*
X484681Y178026D01*
X484769Y178070D01*
X484856Y178120D01*
X484938Y178176D01*
X485013Y178245D01*
X485019Y178251D01*
X485031Y178264D01*
X485050Y178283D01*
X485075Y178314D01*
X485106Y178351D01*
X485137Y178395D01*
X485175Y178451D01*
X485212Y178507D01*
X485244Y178576D01*
X485281Y178651D01*
X485312Y178732D01*
X485344Y178820D01*
X485369Y178920D01*
X485387Y179020D01*
X485400Y179126D01*
X485406Y179239D01*
Y179301D01*
X485400Y179338D01*
Y179376D01*
X485387Y179470D01*
X485362Y179576D01*
X485331Y179688D01*
X485287Y179807D01*
X485231Y179926D01*
Y179932D01*
X485225Y179938D01*
X485200Y179976D01*
X485162Y180032D01*
X485112Y180095D01*
X485044Y180176D01*
X484969Y180251D01*
X484881Y180332D01*
X484787Y180401D01*
X484881Y181138D01*
X488174Y180520D01*
Y177327D01*
X487424D01*
Y179895D01*
X485694Y180238D01*
X485700Y180232D01*
X485712Y180213D01*
X485731Y180182D01*
X485756Y180138D01*
X485787Y180088D01*
X485825Y180020D01*
X485856Y179951D01*
X485900Y179870D01*
X485937Y179782D01*
X485969Y179688D01*
X486037Y179482D01*
X486062Y179376D01*
X486081Y179263D01*
X486093Y179145D01*
X486100Y179026D01*
Y178989D01*
X486093Y178945D01*
Y178882D01*
X486081Y178814D01*
X486068Y178726D01*
X486050Y178633D01*
X486025Y178533D01*
X485993Y178426D01*
X485956Y178307D01*
X485912Y178189D01*
X485856Y178070D01*
X485787Y177951D01*
X485712Y177833D01*
X485619Y177720D01*
X485519Y177608D01*
X485512Y177602D01*
X485494Y177583D01*
X485456Y177551D01*
X485412Y177514D01*
X485356Y177470D01*
X485287Y177426D01*
X485206Y177370D01*
X485112Y177314D01*
X485013Y177264D01*
X484900Y177208D01*
X484775Y177164D01*
X484644Y177114D01*
X484500Y177083D01*
X484350Y177052D01*
X484188Y177033D01*
X484019Y177027D01*
X484007D01*
X483982D01*
X483938Y177033D01*
X483875D01*
X483800Y177039D01*
X483713Y177052D01*
X483613Y177070D01*
X483507Y177089D01*
X483394Y177120D01*
X483269Y177152D01*
X483144Y177195D01*
X483019Y177245D01*
X482894Y177302D01*
X482763Y177370D01*
X482638Y177451D01*
X482519Y177539D01*
X482513Y177545D01*
X482488Y177570D01*
X482451Y177602D01*
X482401Y177652D01*
X482338Y177714D01*
X482276Y177789D01*
X482207Y177876D01*
X482132Y177976D01*
X482057Y178095D01*
X481988Y178220D01*
X481926Y178358D01*
X481863Y178507D01*
X481813Y178670D01*
X481776Y178839D01*
X481751Y179026D01*
X481745Y179220D01*
Y179257D01*
X481751Y179301D01*
Y179363D01*
X481757Y179438D01*
X481769Y179526D01*
X481788Y179620D01*
X481807Y179726D01*
X481832Y179838D01*
X481863Y179951D01*
X481901Y180070D01*
X481951Y180195D01*
X482007Y180313D01*
X482070Y180432D01*
X482145Y180544D01*
X482232Y180651D01*
X482238Y180657D01*
X482257Y180676D01*
X482282Y180701D01*
X482319Y180738D01*
X482369Y180782D01*
X482432Y180826D01*
X482501Y180882D01*
X482576Y180932D01*
X482663Y180988D01*
X482763Y181044D01*
X482869Y181094D01*
X482988Y181144D01*
X483113Y181188D01*
X483244Y181225D01*
X483382Y181257D01*
X483532Y181276D01*
X483600Y180451D01*
D02*
G37*
G36*
X488255Y175714D02*
X483600Y174052D01*
X483594D01*
X483575Y174046D01*
X483544Y174034D01*
X483507Y174021D01*
X483457Y174002D01*
X483394Y173984D01*
X483332Y173959D01*
X483257Y173934D01*
X483094Y173884D01*
X482919Y173827D01*
X482738Y173771D01*
X482551Y173715D01*
X482557D01*
X482576Y173709D01*
X482601Y173703D01*
X482638Y173690D01*
X482688Y173671D01*
X482744Y173659D01*
X482807Y173640D01*
X482882Y173615D01*
X483038Y173565D01*
X483213Y173509D01*
X483407Y173440D01*
X483600Y173371D01*
X488255Y171634D01*
Y170772D01*
X481851Y173278D01*
Y174159D01*
X488255Y176633D01*
Y175714D01*
D02*
G37*
G36*
X484561Y75800D02*
X483771D01*
Y78209D01*
X484561D01*
Y75800D01*
D02*
G37*
G36*
X483586Y74317D02*
X483576D01*
X483556D01*
X483527Y74307D01*
X483488Y74297D01*
X483381Y74268D01*
X483244Y74229D01*
X483098Y74180D01*
X482952Y74103D01*
X482805Y74015D01*
X482679Y73898D01*
X482669Y73878D01*
X482630Y73839D01*
X482591Y73771D01*
X482532Y73673D01*
X482483Y73556D01*
X482435Y73420D01*
X482396Y73264D01*
X482386Y73098D01*
Y73039D01*
X482396Y73000D01*
X482406Y72893D01*
X482435Y72757D01*
X482493Y72610D01*
X482562Y72444D01*
X482669Y72288D01*
X482727Y72210D01*
X482805Y72132D01*
X482815D01*
X482825Y72113D01*
X482883Y72074D01*
X482981Y72005D01*
X483108Y71937D01*
X483274Y71869D01*
X483469Y71801D01*
X483693Y71762D01*
X483947Y71742D01*
X483956D01*
X483976D01*
X484015D01*
X484054Y71752D01*
X484112D01*
X484181Y71762D01*
X484337Y71791D01*
X484502Y71830D01*
X484678Y71898D01*
X484854Y71996D01*
X485010Y72123D01*
X485029Y72142D01*
X485068Y72191D01*
X485136Y72269D01*
X485205Y72386D01*
X485273Y72522D01*
X485341Y72698D01*
X485380Y72893D01*
X485400Y73108D01*
Y73176D01*
X485390Y73244D01*
X485380Y73342D01*
X485351Y73449D01*
X485322Y73566D01*
X485273Y73683D01*
X485215Y73800D01*
X485205Y73810D01*
X485185Y73849D01*
X485146Y73907D01*
X485098Y73976D01*
X485029Y74044D01*
X484951Y74122D01*
X484863Y74200D01*
X484766Y74268D01*
X484873Y75010D01*
X488160Y74385D01*
Y71206D01*
X487409D01*
Y73761D01*
X485683Y74112D01*
X485692Y74103D01*
X485702Y74083D01*
X485722Y74054D01*
X485751Y74015D01*
X485780Y73956D01*
X485810Y73898D01*
X485887Y73742D01*
X485966Y73566D01*
X486024Y73361D01*
X486073Y73137D01*
X486092Y72903D01*
Y72825D01*
X486083Y72766D01*
X486073Y72688D01*
X486063Y72610D01*
X486044Y72513D01*
X486024Y72415D01*
X485946Y72191D01*
X485907Y72074D01*
X485849Y71957D01*
X485780Y71830D01*
X485702Y71713D01*
X485614Y71596D01*
X485507Y71488D01*
X485497Y71479D01*
X485478Y71459D01*
X485449Y71430D01*
X485400Y71401D01*
X485341Y71352D01*
X485273Y71303D01*
X485195Y71254D01*
X485107Y71196D01*
X485000Y71137D01*
X484893Y71089D01*
X484766Y71040D01*
X484639Y70991D01*
X484493Y70962D01*
X484347Y70932D01*
X484181Y70913D01*
X484015Y70903D01*
X484005D01*
X483976D01*
X483927D01*
X483869Y70913D01*
X483791Y70923D01*
X483703Y70932D01*
X483605Y70942D01*
X483498Y70962D01*
X483264Y71030D01*
X483020Y71118D01*
X482883Y71176D01*
X482757Y71245D01*
X482630Y71323D01*
X482513Y71410D01*
X482503Y71420D01*
X482483Y71440D01*
X482444Y71479D01*
X482396Y71528D01*
X482337Y71586D01*
X482269Y71664D01*
X482201Y71752D01*
X482132Y71859D01*
X482054Y71966D01*
X481986Y72093D01*
X481918Y72239D01*
X481859Y72386D01*
X481810Y72552D01*
X481772Y72717D01*
X481752Y72903D01*
X481742Y73098D01*
Y73186D01*
X481752Y73244D01*
X481762Y73312D01*
X481772Y73400D01*
X481781Y73498D01*
X481801Y73605D01*
X481859Y73829D01*
X481947Y74064D01*
X482006Y74180D01*
X482074Y74297D01*
X482142Y74415D01*
X482230Y74522D01*
X482240Y74532D01*
X482249Y74541D01*
X482279Y74571D01*
X482318Y74610D01*
X482366Y74649D01*
X482425Y74697D01*
X482493Y74746D01*
X482571Y74805D01*
X482757Y74912D01*
X482981Y75019D01*
X483235Y75097D01*
X483381Y75127D01*
X483527Y75146D01*
X483586Y74317D01*
D02*
G37*
G36*
X488258Y69587D02*
X483605Y67928D01*
X483596D01*
X483576Y67919D01*
X483547Y67909D01*
X483508Y67889D01*
X483400Y67860D01*
X483264Y67811D01*
X483098Y67753D01*
X482923Y67694D01*
X482552Y67587D01*
X482562D01*
X482571Y67577D01*
X482601Y67568D01*
X482640Y67558D01*
X482747Y67529D01*
X482883Y67490D01*
X483040Y67441D01*
X483215Y67382D01*
X483410Y67314D01*
X483605Y67246D01*
X488258Y65510D01*
Y64651D01*
X481850Y67158D01*
Y68026D01*
X488258Y70513D01*
Y69587D01*
D02*
G37*
G36*
X485371Y151594D02*
X487117D01*
Y150853D01*
X485371D01*
Y149107D01*
X484639D01*
Y150853D01*
X482883D01*
Y151594D01*
X484639D01*
Y153340D01*
X485371D01*
Y151594D01*
D02*
G37*
G36*
X483586Y147400D02*
X483576D01*
X483556D01*
X483527Y147390D01*
X483488Y147381D01*
X483381Y147352D01*
X483244Y147312D01*
X483098Y147264D01*
X482952Y147186D01*
X482805Y147098D01*
X482679Y146981D01*
X482669Y146961D01*
X482630Y146922D01*
X482591Y146854D01*
X482532Y146756D01*
X482483Y146639D01*
X482435Y146503D01*
X482396Y146347D01*
X482386Y146181D01*
Y146123D01*
X482396Y146083D01*
X482406Y145976D01*
X482435Y145840D01*
X482493Y145693D01*
X482562Y145528D01*
X482669Y145372D01*
X482727Y145294D01*
X482805Y145216D01*
X482815D01*
X482825Y145196D01*
X482883Y145157D01*
X482981Y145089D01*
X483108Y145020D01*
X483274Y144952D01*
X483469Y144884D01*
X483693Y144845D01*
X483947Y144825D01*
X483956D01*
X483976D01*
X484015D01*
X484054Y144835D01*
X484112D01*
X484181Y144845D01*
X484337Y144874D01*
X484502Y144913D01*
X484678Y144981D01*
X484854Y145079D01*
X485010Y145206D01*
X485029Y145225D01*
X485068Y145274D01*
X485136Y145352D01*
X485205Y145469D01*
X485273Y145606D01*
X485341Y145781D01*
X485380Y145976D01*
X485400Y146191D01*
Y146259D01*
X485390Y146327D01*
X485380Y146425D01*
X485351Y146532D01*
X485322Y146649D01*
X485273Y146766D01*
X485215Y146883D01*
X485205Y146893D01*
X485185Y146932D01*
X485146Y146991D01*
X485098Y147059D01*
X485029Y147127D01*
X484951Y147205D01*
X484863Y147283D01*
X484766Y147352D01*
X484873Y148093D01*
X488160Y147469D01*
Y144289D01*
X487409D01*
Y146844D01*
X485683Y147195D01*
X485692Y147186D01*
X485702Y147166D01*
X485722Y147137D01*
X485751Y147098D01*
X485780Y147039D01*
X485810Y146981D01*
X485887Y146825D01*
X485966Y146649D01*
X486024Y146444D01*
X486073Y146220D01*
X486092Y145986D01*
Y145908D01*
X486083Y145849D01*
X486073Y145771D01*
X486063Y145693D01*
X486044Y145596D01*
X486024Y145498D01*
X485946Y145274D01*
X485907Y145157D01*
X485849Y145040D01*
X485780Y144913D01*
X485702Y144796D01*
X485614Y144679D01*
X485507Y144572D01*
X485497Y144562D01*
X485478Y144543D01*
X485449Y144513D01*
X485400Y144484D01*
X485341Y144435D01*
X485273Y144386D01*
X485195Y144338D01*
X485107Y144279D01*
X485000Y144221D01*
X484893Y144172D01*
X484766Y144123D01*
X484639Y144074D01*
X484493Y144045D01*
X484347Y144016D01*
X484181Y143996D01*
X484015Y143987D01*
X484005D01*
X483976D01*
X483927D01*
X483869Y143996D01*
X483791Y144006D01*
X483703Y144016D01*
X483605Y144025D01*
X483498Y144045D01*
X483264Y144113D01*
X483020Y144201D01*
X482883Y144260D01*
X482757Y144328D01*
X482630Y144406D01*
X482513Y144494D01*
X482503Y144503D01*
X482483Y144523D01*
X482444Y144562D01*
X482396Y144611D01*
X482337Y144669D01*
X482269Y144747D01*
X482201Y144835D01*
X482132Y144942D01*
X482054Y145050D01*
X481986Y145176D01*
X481918Y145323D01*
X481859Y145469D01*
X481810Y145635D01*
X481772Y145801D01*
X481752Y145986D01*
X481742Y146181D01*
Y146269D01*
X481752Y146327D01*
X481762Y146396D01*
X481772Y146483D01*
X481781Y146581D01*
X481801Y146688D01*
X481859Y146913D01*
X481947Y147147D01*
X482006Y147264D01*
X482074Y147381D01*
X482142Y147498D01*
X482230Y147605D01*
X482240Y147615D01*
X482249Y147625D01*
X482279Y147654D01*
X482318Y147693D01*
X482366Y147732D01*
X482425Y147781D01*
X482493Y147829D01*
X482571Y147888D01*
X482757Y147995D01*
X482981Y148103D01*
X483235Y148181D01*
X483381Y148210D01*
X483527Y148229D01*
X483586Y147400D01*
D02*
G37*
G36*
X488258Y142670D02*
X483605Y141012D01*
X483596D01*
X483576Y141002D01*
X483547Y140992D01*
X483508Y140973D01*
X483400Y140943D01*
X483264Y140895D01*
X483098Y140836D01*
X482923Y140778D01*
X482552Y140670D01*
X482562D01*
X482571Y140660D01*
X482601Y140651D01*
X482640Y140641D01*
X482747Y140612D01*
X482883Y140573D01*
X483040Y140524D01*
X483215Y140465D01*
X483410Y140397D01*
X483605Y140329D01*
X488258Y138593D01*
Y137734D01*
X481850Y140241D01*
Y141109D01*
X488258Y143596D01*
Y142670D01*
D02*
G37*
G36*
Y132380D02*
X487507D01*
Y134487D01*
X481850D01*
Y135335D01*
X487507D01*
Y137442D01*
X488258D01*
Y132380D01*
D02*
G37*
G36*
X485317Y116513D02*
X487063D01*
Y115772D01*
X485317D01*
Y114026D01*
X484585D01*
Y115772D01*
X482830D01*
Y116513D01*
X484585D01*
Y118259D01*
X485317D01*
Y116513D01*
D02*
G37*
G36*
X483532Y112319D02*
X483522D01*
X483503D01*
X483474Y112309D01*
X483434Y112300D01*
X483327Y112270D01*
X483191Y112231D01*
X483044Y112183D01*
X482898Y112105D01*
X482752Y112017D01*
X482625Y111900D01*
X482615Y111880D01*
X482576Y111841D01*
X482537Y111773D01*
X482479Y111675D01*
X482430Y111558D01*
X482381Y111422D01*
X482342Y111266D01*
X482332Y111100D01*
Y111041D01*
X482342Y111002D01*
X482352Y110895D01*
X482381Y110759D01*
X482440Y110612D01*
X482508Y110447D01*
X482615Y110290D01*
X482674Y110212D01*
X482752Y110134D01*
X482761D01*
X482771Y110115D01*
X482830Y110076D01*
X482927Y110008D01*
X483054Y109939D01*
X483220Y109871D01*
X483415Y109803D01*
X483639Y109764D01*
X483893Y109744D01*
X483903D01*
X483922D01*
X483961D01*
X484000Y109754D01*
X484059D01*
X484127Y109764D01*
X484283Y109793D01*
X484449Y109832D01*
X484624Y109900D01*
X484800Y109998D01*
X484956Y110125D01*
X484976Y110144D01*
X485015Y110193D01*
X485083Y110271D01*
X485151Y110388D01*
X485219Y110525D01*
X485288Y110700D01*
X485327Y110895D01*
X485346Y111110D01*
Y111178D01*
X485336Y111246D01*
X485327Y111344D01*
X485298Y111451D01*
X485268Y111568D01*
X485219Y111685D01*
X485161Y111802D01*
X485151Y111812D01*
X485132Y111851D01*
X485093Y111910D01*
X485044Y111978D01*
X484976Y112046D01*
X484898Y112124D01*
X484810Y112202D01*
X484712Y112270D01*
X484820Y113012D01*
X488106Y112387D01*
Y109208D01*
X487355D01*
Y111763D01*
X485629Y112114D01*
X485639Y112105D01*
X485649Y112085D01*
X485668Y112056D01*
X485697Y112017D01*
X485727Y111958D01*
X485756Y111900D01*
X485834Y111744D01*
X485912Y111568D01*
X485970Y111363D01*
X486019Y111139D01*
X486039Y110905D01*
Y110827D01*
X486029Y110768D01*
X486019Y110690D01*
X486009Y110612D01*
X485990Y110515D01*
X485970Y110417D01*
X485892Y110193D01*
X485853Y110076D01*
X485795Y109959D01*
X485727Y109832D01*
X485649Y109715D01*
X485561Y109598D01*
X485453Y109491D01*
X485444Y109481D01*
X485424Y109461D01*
X485395Y109432D01*
X485346Y109403D01*
X485288Y109354D01*
X485219Y109305D01*
X485141Y109256D01*
X485054Y109198D01*
X484946Y109139D01*
X484839Y109091D01*
X484712Y109042D01*
X484585Y108993D01*
X484439Y108964D01*
X484293Y108935D01*
X484127Y108915D01*
X483961Y108905D01*
X483951D01*
X483922D01*
X483873D01*
X483815Y108915D01*
X483737Y108925D01*
X483649Y108935D01*
X483552Y108944D01*
X483444Y108964D01*
X483210Y109032D01*
X482966Y109120D01*
X482830Y109178D01*
X482703Y109247D01*
X482576Y109325D01*
X482459Y109413D01*
X482449Y109422D01*
X482430Y109442D01*
X482391Y109481D01*
X482342Y109530D01*
X482284Y109588D01*
X482215Y109666D01*
X482147Y109754D01*
X482079Y109861D01*
X482001Y109969D01*
X481932Y110095D01*
X481864Y110242D01*
X481806Y110388D01*
X481757Y110554D01*
X481718Y110720D01*
X481698Y110905D01*
X481689Y111100D01*
Y111188D01*
X481698Y111246D01*
X481708Y111314D01*
X481718Y111402D01*
X481728Y111500D01*
X481747Y111607D01*
X481806Y111832D01*
X481894Y112066D01*
X481952Y112183D01*
X482020Y112300D01*
X482089Y112417D01*
X482176Y112524D01*
X482186Y112534D01*
X482196Y112543D01*
X482225Y112573D01*
X482264Y112612D01*
X482313Y112651D01*
X482371Y112699D01*
X482440Y112748D01*
X482518Y112807D01*
X482703Y112914D01*
X482927Y113021D01*
X483181Y113099D01*
X483327Y113129D01*
X483474Y113148D01*
X483532Y112319D01*
D02*
G37*
G36*
X488204Y107589D02*
X483552Y105931D01*
X483542D01*
X483522Y105921D01*
X483493Y105911D01*
X483454Y105892D01*
X483347Y105862D01*
X483210Y105814D01*
X483044Y105755D01*
X482869Y105696D01*
X482498Y105589D01*
X482508D01*
X482518Y105579D01*
X482547Y105570D01*
X482586Y105560D01*
X482693Y105531D01*
X482830Y105492D01*
X482986Y105443D01*
X483161Y105384D01*
X483357Y105316D01*
X483552Y105248D01*
X488204Y103512D01*
Y102653D01*
X481796Y105160D01*
Y106028D01*
X488204Y108515D01*
Y107589D01*
D02*
G37*
G36*
X485063Y102136D02*
X485171D01*
X485307Y102117D01*
X485463Y102097D01*
X485629Y102078D01*
X485824Y102039D01*
X486019Y101990D01*
X486224Y101941D01*
X486429Y101873D01*
X486634Y101785D01*
X486838Y101688D01*
X487043Y101580D01*
X487229Y101444D01*
X487404Y101298D01*
X487414Y101288D01*
X487443Y101259D01*
X487492Y101210D01*
X487551Y101142D01*
X487619Y101054D01*
X487687Y100956D01*
X487775Y100839D01*
X487863Y100703D01*
X487941Y100547D01*
X488028Y100381D01*
X488097Y100195D01*
X488175Y100000D01*
X488224Y99796D01*
X488272Y99571D01*
X488302Y99327D01*
X488311Y99083D01*
Y98996D01*
X488302Y98937D01*
Y98859D01*
X488292Y98762D01*
X488272Y98664D01*
X488263Y98547D01*
X488204Y98303D01*
X488126Y98030D01*
X488028Y97757D01*
X487960Y97620D01*
X487882Y97484D01*
Y97474D01*
X487863Y97455D01*
X487843Y97416D01*
X487804Y97367D01*
X487765Y97308D01*
X487707Y97240D01*
X487580Y97084D01*
X487414Y96909D01*
X487209Y96723D01*
X486975Y96557D01*
X486702Y96401D01*
X486692D01*
X486663Y96382D01*
X486624Y96362D01*
X486565Y96343D01*
X486497Y96313D01*
X486409Y96284D01*
X486312Y96245D01*
X486205Y96206D01*
X486078Y96177D01*
X485951Y96138D01*
X485658Y96079D01*
X485336Y96040D01*
X484985Y96021D01*
X484976D01*
X484946D01*
X484888D01*
X484820Y96031D01*
X484732D01*
X484634Y96040D01*
X484527Y96050D01*
X484400Y96070D01*
X484127Y96118D01*
X483834Y96187D01*
X483532Y96284D01*
X483240Y96421D01*
X483230D01*
X483210Y96440D01*
X483171Y96460D01*
X483113Y96489D01*
X483054Y96538D01*
X482976Y96587D01*
X482810Y96704D01*
X482625Y96860D01*
X482430Y97055D01*
X482245Y97279D01*
X482079Y97533D01*
Y97542D01*
X482059Y97562D01*
X482040Y97601D01*
X482020Y97660D01*
X481991Y97728D01*
X481952Y97806D01*
X481923Y97894D01*
X481884Y98001D01*
X481815Y98225D01*
X481747Y98489D01*
X481708Y98781D01*
X481689Y99083D01*
Y99171D01*
X481698Y99240D01*
Y99318D01*
X481708Y99405D01*
X481728Y99513D01*
X481747Y99630D01*
X481796Y99874D01*
X481874Y100147D01*
X481981Y100429D01*
X482040Y100566D01*
X482118Y100703D01*
X482128Y100712D01*
X482137Y100732D01*
X482167Y100771D01*
X482196Y100820D01*
X482245Y100878D01*
X482293Y100947D01*
X482430Y101103D01*
X482606Y101278D01*
X482801Y101463D01*
X483044Y101629D01*
X483308Y101785D01*
X483317D01*
X483347Y101805D01*
X483386Y101814D01*
X483444Y101844D01*
X483513Y101873D01*
X483591Y101902D01*
X483688Y101932D01*
X483795Y101961D01*
X483913Y102000D01*
X484030Y102029D01*
X484303Y102088D01*
X484595Y102127D01*
X484907Y102146D01*
X484927D01*
X484976D01*
X485063Y102136D01*
D02*
G37*
%LPC*%
G36*
X484898Y101268D02*
X484888D01*
X484849D01*
X484790D01*
X484702Y101259D01*
X484605Y101249D01*
X484498Y101239D01*
X484371Y101220D01*
X484234Y101190D01*
X483942Y101122D01*
X483795Y101063D01*
X483639Y101005D01*
X483493Y100937D01*
X483347Y100859D01*
X483200Y100761D01*
X483074Y100654D01*
X483064Y100644D01*
X483044Y100625D01*
X483015Y100586D01*
X482966Y100537D01*
X482918Y100478D01*
X482869Y100410D01*
X482801Y100322D01*
X482742Y100225D01*
X482683Y100117D01*
X482625Y100000D01*
X482566Y99874D01*
X482518Y99727D01*
X482469Y99581D01*
X482440Y99425D01*
X482420Y99269D01*
X482410Y99093D01*
Y99005D01*
X482420Y98937D01*
X482430Y98849D01*
X482449Y98762D01*
X482469Y98654D01*
X482498Y98537D01*
X482576Y98294D01*
X482625Y98157D01*
X482693Y98030D01*
X482771Y97894D01*
X482859Y97767D01*
X482957Y97640D01*
X483074Y97523D01*
X483083Y97513D01*
X483103Y97494D01*
X483142Y97464D01*
X483200Y97425D01*
X483269Y97377D01*
X483357Y97328D01*
X483454Y97269D01*
X483561Y97211D01*
X483698Y97152D01*
X483834Y97094D01*
X483991Y97045D01*
X484166Y96996D01*
X484351Y96957D01*
X484547Y96928D01*
X484761Y96909D01*
X484985Y96899D01*
X484995D01*
X485024D01*
X485063D01*
X485112D01*
X485180Y96909D01*
X485268D01*
X485453Y96928D01*
X485658Y96967D01*
X485892Y97016D01*
X486127Y97084D01*
X486351Y97172D01*
X486361D01*
X486380Y97182D01*
X486409Y97201D01*
X486448Y97221D01*
X486556Y97279D01*
X486683Y97367D01*
X486829Y97474D01*
X486985Y97611D01*
X487131Y97767D01*
X487258Y97942D01*
Y97952D01*
X487268Y97962D01*
X487287Y97991D01*
X487307Y98030D01*
X487355Y98137D01*
X487424Y98274D01*
X487482Y98440D01*
X487531Y98635D01*
X487570Y98849D01*
X487580Y99083D01*
Y99171D01*
X487570Y99230D01*
X487560Y99308D01*
X487551Y99405D01*
X487531Y99503D01*
X487502Y99610D01*
X487424Y99854D01*
X487375Y99981D01*
X487317Y100108D01*
X487248Y100244D01*
X487160Y100371D01*
X487063Y100498D01*
X486956Y100625D01*
X486946Y100634D01*
X486926Y100654D01*
X486887Y100683D01*
X486838Y100722D01*
X486770Y100771D01*
X486683Y100829D01*
X486585Y100888D01*
X486468Y100947D01*
X486331Y101005D01*
X486185Y101063D01*
X486019Y101122D01*
X485824Y101171D01*
X485619Y101210D01*
X485405Y101239D01*
X485161Y101259D01*
X484898Y101268D01*
D02*
G37*
%LPD*%
D10*
X378460Y212310D02*
G03*
X378460Y212310I-3810J0D01*
G01*
X203810Y95950D02*
G03*
X203810Y95950I-3810J0D01*
G01*
Y10950D02*
G03*
X203810Y10950I-3810J0D01*
G01*
X64770Y95000D02*
G03*
X64770Y95000I-3810J0D01*
G01*
X123810Y95950D02*
G03*
X123810Y95950I-3810J0D01*
G01*
Y10950D02*
G03*
X123810Y10950I-3810J0D01*
G01*
X63500Y175000D02*
G03*
X63500Y175000I-3810J0D01*
G01*
D11*
X306940Y75200D02*
G03*
X306940Y77200I0J1000D01*
G01*
D02*
G03*
X306940Y75200I0J-1000D01*
G01*
Y156480D02*
G03*
X306940Y158480I0J1000D01*
G01*
D02*
G03*
X306940Y156480I0J-1000D01*
G01*
X281900Y196850D02*
G03*
X281900Y196850I-1000J0D01*
G01*
X99750Y239350D02*
G03*
X99750Y239350I-1000J0D01*
G01*
X420000Y83680D02*
X459000D01*
Y59180D02*
Y83680D01*
X420000Y59180D02*
X459000D01*
X275150Y24870D02*
X283650D01*
X275150D02*
Y53870D01*
X283650D01*
Y24870D02*
Y53870D01*
X287150Y23620D02*
X297650D01*
X279940Y82450D02*
X283940D01*
X279940Y69950D02*
X283940D01*
X279940Y163730D02*
X283940D01*
X279940Y151230D02*
X283940D01*
X276420Y106150D02*
X284920D01*
X276420D02*
Y135150D01*
X284920D01*
Y106150D02*
Y135150D01*
X288420Y104900D02*
X298920D01*
X411000Y166320D02*
X450000D01*
X411000D02*
Y190820D01*
X450000D01*
X411000Y94890D02*
X450000D01*
X411000D02*
Y119390D01*
X450000D01*
X411000Y155110D02*
X450000D01*
X411000Y130610D02*
Y155110D01*
Y130610D02*
X450000D01*
X502000Y184314D02*
X509997D01*
Y180315D01*
X508665Y178983D01*
X505999D01*
X504666Y180315D01*
Y184314D01*
X502000Y176317D02*
X507332D01*
X509997Y173651D01*
X507332Y170985D01*
X502000D01*
X505999D01*
Y176317D01*
X502000Y168319D02*
X509997D01*
X507332Y165654D01*
X509997Y162988D01*
X502000D01*
X509997Y152324D02*
Y149659D01*
Y150992D01*
X502000D01*
Y152324D01*
Y149659D01*
Y145660D02*
X507332D01*
Y141661D01*
X505999Y140328D01*
X502000D01*
X508665Y136330D02*
X507332D01*
Y137663D01*
Y134997D01*
Y136330D01*
X503333D01*
X502000Y134997D01*
Y126999D02*
Y129665D01*
X503333Y130998D01*
X505999D01*
X507332Y129665D01*
Y126999D01*
X505999Y125666D01*
X504666D01*
Y130998D01*
X507332Y123001D02*
X502000D01*
X504666D01*
X505999Y121668D01*
X507332Y120335D01*
Y119002D01*
X502000Y113670D02*
X508665D01*
X505999D01*
Y115003D01*
Y112337D01*
Y113670D01*
X508665D01*
X509997Y112337D01*
X507332Y107006D02*
Y104340D01*
X505999Y103007D01*
X502000D01*
Y107006D01*
X503333Y108339D01*
X504666Y107006D01*
Y103007D01*
X507332Y95010D02*
Y99008D01*
X505999Y100341D01*
X503333D01*
X502000Y99008D01*
Y95010D01*
Y88345D02*
Y91011D01*
X503333Y92344D01*
X505999D01*
X507332Y91011D01*
Y88345D01*
X505999Y87012D01*
X504666D01*
Y92344D01*
X507332Y76349D02*
X502000Y73683D01*
X507332Y71017D01*
X502000Y68352D02*
Y65686D01*
Y67019D01*
X509997D01*
X508665Y68352D01*
D12*
X338380Y43420D02*
X390920D01*
X338380D02*
Y205960D01*
X390920D01*
Y43420D02*
Y205960D01*
X158730Y98730D02*
Y151270D01*
X221270D01*
Y98730D02*
Y151270D01*
X158730Y98730D02*
X221270D01*
X158730Y13730D02*
Y66270D01*
X221270D01*
Y13730D02*
Y66270D01*
X158730Y13730D02*
X221270D01*
X5640Y53730D02*
X58180D01*
X5640D02*
Y116270D01*
X58180D01*
Y53730D02*
Y116270D01*
X78730Y98730D02*
Y151270D01*
X141270D01*
Y98730D02*
Y151270D01*
X78730Y98730D02*
X141270D01*
X78730Y13730D02*
Y66270D01*
X141270D01*
Y13730D02*
Y66270D01*
X78730Y13730D02*
X141270D01*
X56910Y133730D02*
Y196270D01*
X4370D02*
X56910D01*
X4370Y133730D02*
Y196270D01*
Y133730D02*
X56910D01*
D13*
X195900Y181850D02*
Y231850D01*
X275900D01*
Y181850D02*
Y231850D01*
X195900Y181850D02*
X275900D01*
X178750D02*
Y231850D01*
X78750D02*
X178750D01*
X78750Y181850D02*
Y231850D01*
Y181850D02*
X178750D01*
D14*
X355706Y8872D02*
Y4873D01*
X357705D01*
X358372Y5539D01*
Y8205D01*
X357705Y8872D01*
X355706D01*
X361704Y4873D02*
X360371D01*
X359704Y5539D01*
Y6872D01*
X360371Y7539D01*
X361704D01*
X362370Y6872D01*
Y6206D01*
X359704D01*
X363703Y4873D02*
X365702D01*
X366369Y5539D01*
X365702Y6206D01*
X364370D01*
X363703Y6872D01*
X364370Y7539D01*
X366369D01*
X367702Y4873D02*
X369035D01*
X368368D01*
Y7539D01*
X367702D01*
X372367Y3540D02*
X373033D01*
X373700Y4206D01*
Y7539D01*
X371701D01*
X371034Y6872D01*
Y5539D01*
X371701Y4873D01*
X373700D01*
X375033D02*
Y7539D01*
X377032D01*
X377699Y6872D01*
Y4873D01*
X381031D02*
X379698D01*
X379031Y5539D01*
Y6872D01*
X379698Y7539D01*
X381031D01*
X381697Y6872D01*
Y6206D01*
X379031D01*
X385696Y8872D02*
Y4873D01*
X383697D01*
X383030Y5539D01*
Y6872D01*
X383697Y7539D01*
X385696D01*
X391027Y8872D02*
Y4873D01*
X393027D01*
X393693Y5539D01*
Y6206D01*
Y6872D01*
X393027Y7539D01*
X391027D01*
X395026D02*
Y5539D01*
X395693Y4873D01*
X397692D01*
Y4206D01*
X397025Y3540D01*
X396359D01*
X397692Y4873D02*
Y7539D01*
X403024Y8872D02*
Y4873D01*
Y6206D01*
X405689Y8872D01*
X403690Y6872D01*
X405689Y4873D01*
X407022D02*
Y5539D01*
X407689D01*
Y4873D01*
X407022D01*
X414353D02*
Y8872D01*
X416353D01*
X417019Y8205D01*
Y6872D01*
X416353Y6206D01*
X414353D01*
X420351Y4873D02*
X419018D01*
X418352Y5539D01*
Y6872D01*
X419018Y7539D01*
X420351D01*
X421018Y6872D01*
Y6206D01*
X418352D01*
X422351Y7539D02*
Y4873D01*
Y6206D01*
X423017Y6872D01*
X423684Y7539D01*
X424350D01*
X428349Y4873D02*
X427016D01*
X426349Y5539D01*
Y6872D01*
X427016Y7539D01*
X428349D01*
X429015Y6872D01*
Y6206D01*
X426349D01*
X430348Y7539D02*
X433014D01*
X430348Y4873D01*
X433014D01*
X441011D02*
X440345Y5539D01*
X439678Y4873D01*
X439012D01*
X438345Y5539D01*
Y6206D01*
X439012Y6872D01*
X438345Y7539D01*
Y8205D01*
X439012Y8872D01*
X439678D01*
X440345Y8205D01*
Y7539D01*
X439678Y6872D01*
X440345Y6206D01*
Y5539D01*
X441011Y6872D02*
X440345Y6206D01*
X439012Y6872D02*
X439678D01*
X449009Y8205D02*
X448342Y8872D01*
X447009D01*
X446343Y8205D01*
Y5539D01*
X447009Y4873D01*
X448342D01*
X449009Y5539D01*
X450341Y4873D02*
Y5539D01*
X451008D01*
Y4873D01*
X450341D01*
X457672D02*
Y8872D01*
X459672D01*
X460338Y8205D01*
Y6872D01*
X459672Y6206D01*
X457672D01*
X459005D02*
X460338Y4873D01*
X461671Y7539D02*
Y5539D01*
X462338Y4873D01*
X464337Y4873D01*
Y7539D01*
X465670Y4873D02*
X467669D01*
X468336Y5539D01*
X467669Y6206D01*
X466336D01*
X465670Y6872D01*
X466336Y7539D01*
X468336D01*
X469669Y8872D02*
Y4873D01*
Y6872D01*
X470335Y7539D01*
X471668D01*
X472334Y6872D01*
Y4873D01*
X496489Y149659D02*
X492490D01*
X493823Y148326D01*
X492490Y146993D01*
X496489D01*
X492490Y145660D02*
Y144327D01*
Y144993D01*
X495156D01*
Y145660D01*
X495822Y141661D02*
X495156D01*
Y142328D01*
Y140995D01*
Y141661D01*
X493156D01*
X492490Y140995D01*
X496489Y138995D02*
X492490D01*
X494489D01*
X495156Y138329D01*
Y136996D01*
X494489Y136330D01*
X492490D01*
X496489Y130998D02*
X492490D01*
Y128999D01*
X493156Y128332D01*
X493823D01*
X494489Y128999D01*
Y130998D01*
Y128999D01*
X495156Y128332D01*
X495822D01*
X496489Y128999D01*
Y130998D01*
X492490Y126999D02*
Y125666D01*
Y126333D01*
X495156D01*
Y126999D01*
X495822Y123001D02*
X495156D01*
Y123667D01*
Y122334D01*
Y123001D01*
X493156D01*
X492490Y122334D01*
X495822Y113670D02*
X496489Y114337D01*
Y115670D01*
X495822Y116336D01*
X495156D01*
X494489Y115670D01*
Y114337D01*
X493823Y113670D01*
X493156D01*
X492490Y114337D01*
Y115670D01*
X493156Y116336D01*
X496489Y112337D02*
X492490D01*
X494489D01*
X495156Y111671D01*
Y110338D01*
X494489Y109672D01*
X492490D01*
Y108339D02*
Y107006D01*
Y107672D01*
X495156D01*
Y108339D01*
X492490Y104340D02*
X495822D01*
X494489D01*
Y105007D01*
Y103674D01*
Y104340D01*
X495822D01*
X496489Y103674D01*
X495822Y101008D02*
X495156D01*
Y101674D01*
Y100341D01*
Y101008D01*
X493156D01*
X492490Y100341D01*
D15*
X242507Y54736D02*
X241174Y56069D01*
X238508D01*
X237176Y54736D01*
Y49404D01*
X238508Y48071D01*
X241174D01*
X242507Y49404D01*
X249172Y48071D02*
Y56069D01*
X245173Y52070D01*
X250504D01*
X241237Y136016D02*
X239904Y137349D01*
X237238D01*
X235905Y136016D01*
Y130684D01*
X237238Y129351D01*
X239904D01*
X241237Y130684D01*
X243903Y136016D02*
X245236Y137349D01*
X247902D01*
X249235Y136016D01*
Y134683D01*
X247902Y133350D01*
X246569D01*
X247902D01*
X249235Y132017D01*
Y130684D01*
X247902Y129351D01*
X245236D01*
X243903Y130684D01*
X262575Y86171D02*
Y94169D01*
X266574D01*
X267907Y92836D01*
Y90170D01*
X266574Y88837D01*
X262575D01*
X265241D02*
X267907Y86171D01*
X275905D02*
X270573D01*
X275905Y91503D01*
Y92836D01*
X274572Y94169D01*
X271906D01*
X270573Y92836D01*
X265193Y167432D02*
X265164Y175429D01*
X269163Y175444D01*
X270500Y174116D01*
X270510Y171450D01*
X269182Y170112D01*
X265183Y170098D01*
X267849Y170107D02*
X270525Y167451D01*
X273190Y167461D02*
X275856Y167471D01*
X274523Y167466D01*
X274494Y175463D01*
X273166Y174125D01*
X260035Y63689D02*
Y55691D01*
X264034D01*
X265367Y57024D01*
Y58357D01*
X264034Y59690D01*
X260035D01*
X264034D01*
X265367Y61023D01*
Y62356D01*
X264034Y63689D01*
X260035D01*
X273365Y55691D02*
X268033D01*
X273365Y61023D01*
Y62356D01*
X272032Y63689D01*
X269366D01*
X268033Y62356D01*
X255018Y144969D02*
Y136971D01*
X259017D01*
X260350Y138304D01*
Y139637D01*
X259017Y140970D01*
X255018D01*
X259017D01*
X260350Y142303D01*
Y143636D01*
X259017Y144969D01*
X255018D01*
X263016Y136971D02*
X265682D01*
X264349D01*
Y144969D01*
X263016Y143636D01*
X70165Y64924D02*
X62170Y65116D01*
X62074Y61118D01*
X63375Y59754D01*
X68705Y59626D01*
X70069Y60927D01*
X70165Y64924D01*
X61979Y57121D02*
X61915Y54456D01*
X61947Y55788D01*
X69942Y55596D01*
X68641Y56961D01*
X84853Y242599D02*
X79521D01*
Y238600D01*
X82187D01*
X79521D01*
Y234601D01*
X87518D02*
X90184D01*
X88851D01*
Y239933D01*
X87518D01*
X94183Y242599D02*
Y234601D01*
X98182D01*
X99515Y235934D01*
Y237267D01*
Y238600D01*
X98182Y239933D01*
X94183D01*
X106179Y234601D02*
X103513D01*
X102180Y235934D01*
Y238600D01*
X103513Y239933D01*
X106179D01*
X107512Y238600D01*
Y237267D01*
X102180D01*
X110178Y239933D02*
Y234601D01*
Y237267D01*
X111511Y238600D01*
X112844Y239933D01*
X114177D01*
X130171Y242599D02*
X127506D01*
X126173Y241266D01*
Y235934D01*
X127506Y234601D01*
X130171D01*
X131504Y235934D01*
Y241266D01*
X130171Y242599D01*
X134170D02*
X139502D01*
X136836D01*
Y234601D01*
X142167Y242599D02*
X147499Y234601D01*
Y242599D02*
X142167Y234601D01*
X324523Y113036D02*
X332520Y112976D01*
X332550Y116975D01*
X331227Y118318D01*
X325896Y118358D01*
X324553Y117035D01*
X324523Y113036D01*
X328582Y121003D02*
X328622Y126335D01*
X326016Y134352D02*
X324673Y133029D01*
X324653Y130364D01*
X325976Y129021D01*
X327309Y129011D01*
X328652Y130333D01*
X328672Y132999D01*
X330015Y134322D01*
X331348Y134312D01*
X332670Y132969D01*
X332650Y130303D01*
X331307Y128981D01*
X332730Y140966D02*
X332710Y138301D01*
X331368Y136978D01*
X328702Y136998D01*
X327379Y138341D01*
X327399Y141006D01*
X328742Y142329D01*
X330075Y142319D01*
X330035Y136988D01*
X335426Y144945D02*
X327429Y145005D01*
X327459Y149003D01*
X328802Y150326D01*
X331468Y150306D01*
X332791Y148963D01*
X332761Y144965D01*
X326256Y166341D02*
X324914Y165018D01*
X324894Y162352D01*
X326216Y161009D01*
X327549Y160999D01*
X328892Y162322D01*
X328912Y164988D01*
X330255Y166311D01*
X331588Y166301D01*
X332911Y164958D01*
X332891Y162292D01*
X331548Y160969D01*
X327609Y168997D02*
X331608Y168967D01*
X332951Y170289D01*
X332981Y174288D01*
X327649Y174328D01*
X335667Y176934D02*
X327669Y176994D01*
X327700Y180992D01*
X329042Y182315D01*
X331708Y182295D01*
X333031Y180952D01*
X333001Y176954D01*
X335727Y184931D02*
X327730Y184991D01*
X327760Y188990D01*
X329103Y190312D01*
X331768Y190292D01*
X333091Y188950D01*
X333061Y184951D01*
X333121Y192948D02*
X333141Y195614D01*
X333131Y194281D01*
X325134Y194341D01*
X325124Y193008D01*
X327840Y199652D02*
X331838Y199622D01*
X333181Y200945D01*
X333211Y204944D01*
X334544Y204934D01*
X335867Y203591D01*
X335857Y202258D01*
X333211Y204944D02*
X327880Y204984D01*
X68819Y163841D02*
X60821Y163870D01*
X60807Y159871D01*
X62135Y158533D01*
X63468Y158529D01*
X64806Y159857D01*
X64820Y163855D01*
X64806Y159857D01*
X66134Y158519D01*
X67467Y158514D01*
X68804Y159843D01*
X68819Y163841D01*
X60793Y155872D02*
X60783Y153207D01*
X60788Y154539D01*
X66120Y154520D01*
X66124Y155853D01*
X66096Y147856D02*
X66086Y145190D01*
X64749Y143862D01*
X60750Y143876D01*
X60764Y147875D01*
X62102Y149203D01*
X63430Y147865D01*
X63416Y143867D01*
X60740Y141210D02*
X60726Y137212D01*
X62054Y135874D01*
X63392Y137202D01*
X63401Y139868D01*
X64739Y141196D01*
X66067Y139859D01*
X66053Y135860D01*
X196422Y234761D02*
Y240093D01*
X199087Y242759D01*
X201753Y240093D01*
Y234761D01*
Y238760D01*
X196422D01*
X205752Y241426D02*
Y240093D01*
X204419D01*
X207085D01*
X205752D01*
Y236094D01*
X207085Y234761D01*
X212416Y241426D02*
Y240093D01*
X211084D01*
X213749D01*
X212416D01*
Y236094D01*
X213749Y234761D01*
X221747D02*
X219081D01*
X217748Y236094D01*
Y238760D01*
X219081Y240093D01*
X221747D01*
X223080Y238760D01*
Y237427D01*
X217748D01*
X225746Y234761D02*
Y240093D01*
X229744D01*
X231077Y238760D01*
Y234761D01*
X233743Y240093D02*
Y236094D01*
X235076Y234761D01*
X239074D01*
Y240093D01*
X243073D02*
X245739D01*
X247072Y238760D01*
Y234761D01*
X243073D01*
X241740Y236094D01*
X243073Y237427D01*
X247072D01*
X251071Y241426D02*
Y240093D01*
X249738D01*
X252404D01*
X251071D01*
Y236094D01*
X252404Y234761D01*
X257735D02*
X260401D01*
X261734Y236094D01*
Y238760D01*
X260401Y240093D01*
X257735D01*
X256402Y238760D01*
Y236094D01*
X257735Y234761D01*
X264400Y240093D02*
Y234761D01*
Y237427D01*
X265733Y238760D01*
X267066Y240093D01*
X268398D01*
X96121Y153971D02*
Y159303D01*
X98787Y161969D01*
X101453Y159303D01*
Y153971D01*
Y157970D01*
X96121D01*
X104118Y153971D02*
Y161969D01*
X106784Y159303D01*
X109450Y161969D01*
Y153971D01*
X112116D02*
Y161969D01*
X116115D01*
X117447Y160636D01*
Y157970D01*
X116115Y156637D01*
X112116D01*
X120113Y153971D02*
X122779D01*
X121446D01*
Y161969D01*
X120113Y160636D01*
X175258Y153971D02*
Y159303D01*
X177924Y161969D01*
X180590Y159303D01*
Y153971D01*
Y157970D01*
X175258D01*
X183256Y153971D02*
Y161969D01*
X185921Y159303D01*
X188587Y161969D01*
Y153971D01*
X191253D02*
Y161969D01*
X195252D01*
X196585Y160636D01*
Y157970D01*
X195252Y156637D01*
X191253D01*
X204582Y153971D02*
X199250D01*
X204582Y159303D01*
Y160636D01*
X203249Y161969D01*
X200583D01*
X199250Y160636D01*
X95728Y68971D02*
Y74303D01*
X98394Y76969D01*
X101060Y74303D01*
Y68971D01*
Y72970D01*
X95728D01*
X103726Y68971D02*
Y76969D01*
X106391Y74303D01*
X109057Y76969D01*
Y68971D01*
X111723D02*
Y76969D01*
X115722D01*
X117055Y75636D01*
Y72970D01*
X115722Y71637D01*
X111723D01*
X119720Y75636D02*
X121053Y76969D01*
X123719D01*
X125052Y75636D01*
Y74303D01*
X123719Y72970D01*
X122386D01*
X123719D01*
X125052Y71637D01*
Y70304D01*
X123719Y68971D01*
X121053D01*
X119720Y70304D01*
X176198Y68971D02*
Y74303D01*
X178864Y76969D01*
X181530Y74303D01*
Y68971D01*
Y72970D01*
X176198D01*
X184195Y68971D02*
Y76969D01*
X186861Y74303D01*
X189527Y76969D01*
Y68971D01*
X192193D02*
Y76969D01*
X196192D01*
X197525Y75636D01*
Y72970D01*
X196192Y71637D01*
X192193D01*
X204189Y68971D02*
Y76969D01*
X200190Y72970D01*
X205522D01*
M02*
