M48
;Layer_Color=9474304
;FILE_FORMAT=4:4
METRIC,LZ
;TYPE=PLATED
T01F00S00C0.3000
T02F00S00C0.7620
T03F00S00C0.9000
T04F00S00C2.9000
%
T01
X0040005Y0007112
Y0010668
X0039878Y0014351
X0047Y0014286
Y0017857
Y0010714
Y0007143
X00395Y0002
X0034671Y0002667
X0032512Y0009017
X00342951Y001315
X00395Y00125
Y0023
X00345217Y0023786
X0033401Y0022352
X0029464Y0020447
X0028575Y0016845
X0025654Y0012446
Y0003937
T02
X0002191Y00075
X0004191
Y00095
X0002191
X0002064Y00155
X0004064
Y00175
X0002064
X001Y00135
Y00115
X0012
Y00135
X0018
X002
Y00115
X0018
Y0005
X002
Y0003
X0018
X0012
Y0005
X001
Y0003
X0035465Y0006469
Y0008469
Y0010469
Y0012469
X0037465
Y0014469
Y0016469
X0035465
Y0014469
Y0018469
X0037465
Y0010469
Y0008469
Y0006469
T03
X0009875Y0019685
X0011875
Y0021685
X0009875
X0013875
X0015875
Y0019685
X0013875
X002159
Y0021685
X002359
Y0019685
X002559
Y0021685
T04
X00495Y00025
Y00225
X00025
Y00025
M30
