G04*
G04 #@! TF.GenerationSoftware,Altium Limited,Altium Designer,26.8.1 (31)*
G04*
G04 Layer_Color=65535*
G04 Board_Origin=15650000|21550000*
%FSLAX44Y44*%
%MOMM*%
G71*
G04*
G04 #@! TF.SameCoordinates,99302A45-5263-425D-AFF4-97551B679790*
G04*
G04*
G04 #@! TF.FilePolarity,Positive*
G04*
G01*
G75*
%ADD10C,0.5080*%
%ADD11C,0.2000*%
%ADD12C,0.1524*%
%ADD13C,0.1270*%
%ADD14C,0.1000*%
%ADD15C,0.1800*%
G36*
X485372Y184613D02*
X487110D01*
Y183869D01*
X485372D01*
Y182131D01*
X484637D01*
Y183869D01*
X482890D01*
Y184613D01*
X484637D01*
Y186351D01*
X485372D01*
Y184613D01*
D02*
G37*
G36*
X483605Y180429D02*
X483596D01*
X483578D01*
X483550Y180420D01*
X483503Y180411D01*
X483401Y180383D01*
X483261Y180346D01*
X483122Y180290D01*
X482964Y180225D01*
X482825Y180132D01*
X482695Y180020D01*
X482685Y180002D01*
X482648Y179964D01*
X482602Y179890D01*
X482546Y179797D01*
X482490Y179676D01*
X482444Y179537D01*
X482406Y179379D01*
X482397Y179211D01*
Y179156D01*
X482406Y179118D01*
X482416Y179007D01*
X482453Y178877D01*
X482499Y178719D01*
X482574Y178561D01*
X482676Y178393D01*
X482741Y178319D01*
X482815Y178245D01*
X482825Y178235D01*
X482834Y178226D01*
X482862Y178207D01*
X482890Y178179D01*
X482992Y178124D01*
X483122Y178049D01*
X483280Y177975D01*
X483475Y177919D01*
X483699Y177873D01*
X483950Y177854D01*
X483959D01*
X483977D01*
X484015D01*
X484061Y177863D01*
X484117D01*
X484182Y177873D01*
X484331Y177901D01*
X484507Y177947D01*
X484684Y178012D01*
X484851Y178105D01*
X485009Y178235D01*
X485028Y178254D01*
X485074Y178300D01*
X485130Y178384D01*
X485205Y178496D01*
X485279Y178635D01*
X485335Y178812D01*
X485381Y178998D01*
X485400Y179221D01*
Y179286D01*
X485390Y179360D01*
X485381Y179453D01*
X485353Y179565D01*
X485325Y179676D01*
X485279Y179797D01*
X485223Y179918D01*
X485214Y179927D01*
X485195Y179964D01*
X485149Y180020D01*
X485102Y180085D01*
X485037Y180160D01*
X484963Y180243D01*
X484870Y180318D01*
X484777Y180383D01*
X484879Y181117D01*
X488161Y180494D01*
Y177315D01*
X487408D01*
Y179872D01*
X485688Y180215D01*
X485697Y180206D01*
X485706Y180187D01*
X485725Y180160D01*
X485753Y180113D01*
X485781Y180067D01*
X485818Y180002D01*
X485892Y179844D01*
X485967Y179667D01*
X486032Y179462D01*
X486078Y179239D01*
X486097Y179128D01*
Y178923D01*
X486088Y178867D01*
X486078Y178793D01*
X486069Y178709D01*
X486050Y178617D01*
X486023Y178514D01*
X485957Y178291D01*
X485911Y178179D01*
X485846Y178059D01*
X485781Y177938D01*
X485706Y177817D01*
X485614Y177705D01*
X485511Y177594D01*
X485502Y177585D01*
X485483Y177566D01*
X485456Y177538D01*
X485409Y177501D01*
X485353Y177464D01*
X485279Y177408D01*
X485205Y177361D01*
X485112Y177306D01*
X485009Y177250D01*
X484898Y177203D01*
X484777Y177148D01*
X484637Y177110D01*
X484498Y177073D01*
X484349Y177045D01*
X484191Y177027D01*
X484024Y177017D01*
X484015D01*
X483987D01*
X483940D01*
X483875Y177027D01*
X483801Y177036D01*
X483717Y177045D01*
X483624Y177064D01*
X483512Y177083D01*
X483280Y177138D01*
X483029Y177231D01*
X482899Y177287D01*
X482769Y177361D01*
X482648Y177436D01*
X482527Y177529D01*
X482518Y177538D01*
X482490Y177557D01*
X482453Y177594D01*
X482406Y177640D01*
X482351Y177705D01*
X482285Y177780D01*
X482211Y177863D01*
X482146Y177966D01*
X482072Y178087D01*
X481997Y178207D01*
X481932Y178347D01*
X481876Y178496D01*
X481830Y178663D01*
X481793Y178830D01*
X481765Y179016D01*
X481755Y179211D01*
Y179295D01*
X481765Y179351D01*
X481774Y179425D01*
X481783Y179518D01*
X481793Y179611D01*
X481821Y179713D01*
X481876Y179937D01*
X481960Y180178D01*
X482016Y180299D01*
X482081Y180411D01*
X482155Y180522D01*
X482239Y180634D01*
X482248Y180643D01*
X482257Y180662D01*
X482285Y180680D01*
X482332Y180717D01*
X482378Y180764D01*
X482434Y180810D01*
X482509Y180866D01*
X482583Y180913D01*
X482676Y180968D01*
X482778Y181024D01*
X482992Y181126D01*
X483252Y181210D01*
X483392Y181238D01*
X483540Y181257D01*
X483605Y180429D01*
D02*
G37*
G36*
X488244Y175707D02*
X483596Y174052D01*
X483587D01*
X483568Y174043D01*
X483540Y174033D01*
X483503Y174015D01*
X483457Y174005D01*
X483392Y173987D01*
X483261Y173940D01*
X483094Y173885D01*
X482918Y173829D01*
X482555Y173717D01*
X482564D01*
X482583Y173708D01*
X482611Y173699D01*
X482648Y173689D01*
X482750Y173661D01*
X482880Y173615D01*
X483038Y173568D01*
X483215Y173513D01*
X483401Y173448D01*
X483596Y173373D01*
X488244Y171644D01*
Y170789D01*
X481858Y173280D01*
Y174163D01*
X488244Y176627D01*
Y175707D01*
D02*
G37*
G36*
X484561Y75800D02*
X483771D01*
Y78209D01*
X484561D01*
Y75800D01*
D02*
G37*
G36*
X483586Y74317D02*
X483576D01*
X483556D01*
X483527Y74307D01*
X483488Y74297D01*
X483381Y74268D01*
X483244Y74229D01*
X483098Y74180D01*
X482952Y74103D01*
X482805Y74015D01*
X482679Y73898D01*
X482669Y73878D01*
X482630Y73839D01*
X482591Y73771D01*
X482532Y73673D01*
X482483Y73556D01*
X482435Y73420D01*
X482396Y73264D01*
X482386Y73098D01*
Y73039D01*
X482396Y73000D01*
X482406Y72893D01*
X482435Y72757D01*
X482493Y72610D01*
X482562Y72444D01*
X482669Y72288D01*
X482727Y72210D01*
X482805Y72132D01*
X482815D01*
X482825Y72113D01*
X482883Y72074D01*
X482981Y72005D01*
X483108Y71937D01*
X483274Y71869D01*
X483469Y71801D01*
X483693Y71762D01*
X483947Y71742D01*
X483956D01*
X483976D01*
X484015D01*
X484054Y71752D01*
X484112D01*
X484181Y71762D01*
X484337Y71791D01*
X484502Y71830D01*
X484678Y71898D01*
X484854Y71996D01*
X485010Y72123D01*
X485029Y72142D01*
X485068Y72191D01*
X485136Y72269D01*
X485205Y72386D01*
X485273Y72522D01*
X485341Y72698D01*
X485380Y72893D01*
X485400Y73108D01*
Y73176D01*
X485390Y73244D01*
X485380Y73342D01*
X485351Y73449D01*
X485322Y73566D01*
X485273Y73683D01*
X485215Y73800D01*
X485205Y73810D01*
X485185Y73849D01*
X485146Y73907D01*
X485098Y73976D01*
X485029Y74044D01*
X484951Y74122D01*
X484863Y74200D01*
X484766Y74268D01*
X484873Y75010D01*
X488160Y74385D01*
Y71206D01*
X487409D01*
Y73761D01*
X485683Y74112D01*
X485692Y74103D01*
X485702Y74083D01*
X485722Y74054D01*
X485751Y74015D01*
X485780Y73956D01*
X485810Y73898D01*
X485887Y73742D01*
X485966Y73566D01*
X486024Y73361D01*
X486073Y73137D01*
X486092Y72903D01*
Y72825D01*
X486083Y72766D01*
X486073Y72688D01*
X486063Y72610D01*
X486044Y72513D01*
X486024Y72415D01*
X485946Y72191D01*
X485907Y72074D01*
X485849Y71957D01*
X485780Y71830D01*
X485702Y71713D01*
X485614Y71596D01*
X485507Y71488D01*
X485497Y71479D01*
X485478Y71459D01*
X485449Y71430D01*
X485400Y71401D01*
X485341Y71352D01*
X485273Y71303D01*
X485195Y71254D01*
X485107Y71196D01*
X485000Y71137D01*
X484893Y71089D01*
X484766Y71040D01*
X484639Y70991D01*
X484493Y70962D01*
X484347Y70932D01*
X484181Y70913D01*
X484015Y70903D01*
X484005D01*
X483976D01*
X483927D01*
X483869Y70913D01*
X483791Y70923D01*
X483703Y70932D01*
X483605Y70942D01*
X483498Y70962D01*
X483264Y71030D01*
X483020Y71118D01*
X482883Y71176D01*
X482757Y71245D01*
X482630Y71323D01*
X482513Y71410D01*
X482503Y71420D01*
X482483Y71440D01*
X482444Y71479D01*
X482396Y71528D01*
X482337Y71586D01*
X482269Y71664D01*
X482201Y71752D01*
X482132Y71859D01*
X482054Y71966D01*
X481986Y72093D01*
X481918Y72239D01*
X481859Y72386D01*
X481810Y72552D01*
X481772Y72717D01*
X481752Y72903D01*
X481742Y73098D01*
Y73186D01*
X481752Y73244D01*
X481762Y73312D01*
X481772Y73400D01*
X481781Y73498D01*
X481801Y73605D01*
X481859Y73829D01*
X481947Y74064D01*
X482006Y74180D01*
X482074Y74297D01*
X482142Y74415D01*
X482230Y74522D01*
X482240Y74532D01*
X482249Y74541D01*
X482279Y74571D01*
X482318Y74610D01*
X482366Y74649D01*
X482425Y74697D01*
X482493Y74746D01*
X482571Y74805D01*
X482757Y74912D01*
X482981Y75019D01*
X483235Y75097D01*
X483381Y75127D01*
X483527Y75146D01*
X483586Y74317D01*
D02*
G37*
G36*
X488258Y69587D02*
X483605Y67928D01*
X483596D01*
X483576Y67919D01*
X483547Y67909D01*
X483508Y67889D01*
X483400Y67860D01*
X483264Y67811D01*
X483098Y67753D01*
X482923Y67694D01*
X482552Y67587D01*
X482562D01*
X482571Y67577D01*
X482601Y67568D01*
X482640Y67558D01*
X482747Y67529D01*
X482883Y67490D01*
X483040Y67441D01*
X483215Y67382D01*
X483410Y67314D01*
X483605Y67246D01*
X488258Y65510D01*
Y64651D01*
X481850Y67158D01*
Y68026D01*
X488258Y70513D01*
Y69587D01*
D02*
G37*
G36*
X485371Y151594D02*
X487117D01*
Y150853D01*
X485371D01*
Y149107D01*
X484639D01*
Y150853D01*
X482883D01*
Y151594D01*
X484639D01*
Y153340D01*
X485371D01*
Y151594D01*
D02*
G37*
G36*
X483586Y147400D02*
X483576D01*
X483556D01*
X483527Y147390D01*
X483488Y147381D01*
X483381Y147352D01*
X483244Y147312D01*
X483098Y147264D01*
X482952Y147186D01*
X482805Y147098D01*
X482679Y146981D01*
X482669Y146961D01*
X482630Y146922D01*
X482591Y146854D01*
X482532Y146756D01*
X482483Y146639D01*
X482435Y146503D01*
X482396Y146347D01*
X482386Y146181D01*
Y146123D01*
X482396Y146083D01*
X482406Y145976D01*
X482435Y145840D01*
X482493Y145693D01*
X482562Y145528D01*
X482669Y145372D01*
X482727Y145294D01*
X482805Y145216D01*
X482815D01*
X482825Y145196D01*
X482883Y145157D01*
X482981Y145089D01*
X483108Y145020D01*
X483274Y144952D01*
X483469Y144884D01*
X483693Y144845D01*
X483947Y144825D01*
X483956D01*
X483976D01*
X484015D01*
X484054Y144835D01*
X484112D01*
X484181Y144845D01*
X484337Y144874D01*
X484502Y144913D01*
X484678Y144981D01*
X484854Y145079D01*
X485010Y145206D01*
X485029Y145225D01*
X485068Y145274D01*
X485136Y145352D01*
X485205Y145469D01*
X485273Y145606D01*
X485341Y145781D01*
X485380Y145976D01*
X485400Y146191D01*
Y146259D01*
X485390Y146327D01*
X485380Y146425D01*
X485351Y146532D01*
X485322Y146649D01*
X485273Y146766D01*
X485215Y146883D01*
X485205Y146893D01*
X485185Y146932D01*
X485146Y146991D01*
X485098Y147059D01*
X485029Y147127D01*
X484951Y147205D01*
X484863Y147283D01*
X484766Y147352D01*
X484873Y148093D01*
X488160Y147469D01*
Y144289D01*
X487409D01*
Y146844D01*
X485683Y147195D01*
X485692Y147186D01*
X485702Y147166D01*
X485722Y147137D01*
X485751Y147098D01*
X485780Y147039D01*
X485810Y146981D01*
X485887Y146825D01*
X485966Y146649D01*
X486024Y146444D01*
X486073Y146220D01*
X486092Y145986D01*
Y145908D01*
X486083Y145849D01*
X486073Y145771D01*
X486063Y145693D01*
X486044Y145596D01*
X486024Y145498D01*
X485946Y145274D01*
X485907Y145157D01*
X485849Y145040D01*
X485780Y144913D01*
X485702Y144796D01*
X485614Y144679D01*
X485507Y144572D01*
X485497Y144562D01*
X485478Y144543D01*
X485449Y144513D01*
X485400Y144484D01*
X485341Y144435D01*
X485273Y144386D01*
X485195Y144338D01*
X485107Y144279D01*
X485000Y144221D01*
X484893Y144172D01*
X484766Y144123D01*
X484639Y144074D01*
X484493Y144045D01*
X484347Y144016D01*
X484181Y143996D01*
X484015Y143987D01*
X484005D01*
X483976D01*
X483927D01*
X483869Y143996D01*
X483791Y144006D01*
X483703Y144016D01*
X483605Y144025D01*
X483498Y144045D01*
X483264Y144113D01*
X483020Y144201D01*
X482883Y144260D01*
X482757Y144328D01*
X482630Y144406D01*
X482513Y144494D01*
X482503Y144503D01*
X482483Y144523D01*
X482444Y144562D01*
X482396Y144611D01*
X482337Y144669D01*
X482269Y144747D01*
X482201Y144835D01*
X482132Y144942D01*
X482054Y145050D01*
X481986Y145176D01*
X481918Y145323D01*
X481859Y145469D01*
X481810Y145635D01*
X481772Y145801D01*
X481752Y145986D01*
X481742Y146181D01*
Y146269D01*
X481752Y146327D01*
X481762Y146396D01*
X481772Y146483D01*
X481781Y146581D01*
X481801Y146688D01*
X481859Y146913D01*
X481947Y147147D01*
X482006Y147264D01*
X482074Y147381D01*
X482142Y147498D01*
X482230Y147605D01*
X482240Y147615D01*
X482249Y147625D01*
X482279Y147654D01*
X482318Y147693D01*
X482366Y147732D01*
X482425Y147781D01*
X482493Y147829D01*
X482571Y147888D01*
X482757Y147995D01*
X482981Y148103D01*
X483235Y148181D01*
X483381Y148210D01*
X483527Y148229D01*
X483586Y147400D01*
D02*
G37*
G36*
X488258Y142670D02*
X483605Y141012D01*
X483596D01*
X483576Y141002D01*
X483547Y140992D01*
X483508Y140973D01*
X483400Y140943D01*
X483264Y140895D01*
X483098Y140836D01*
X482923Y140778D01*
X482552Y140670D01*
X482562D01*
X482571Y140660D01*
X482601Y140651D01*
X482640Y140641D01*
X482747Y140612D01*
X482883Y140573D01*
X483040Y140524D01*
X483215Y140465D01*
X483410Y140397D01*
X483605Y140329D01*
X488258Y138593D01*
Y137734D01*
X481850Y140241D01*
Y141109D01*
X488258Y143596D01*
Y142670D01*
D02*
G37*
G36*
Y132380D02*
X487507D01*
Y134487D01*
X481850D01*
Y135335D01*
X487507D01*
Y137442D01*
X488258D01*
Y132380D01*
D02*
G37*
G36*
X485317Y116513D02*
X487063D01*
Y115772D01*
X485317D01*
Y114026D01*
X484585D01*
Y115772D01*
X482830D01*
Y116513D01*
X484585D01*
Y118259D01*
X485317D01*
Y116513D01*
D02*
G37*
G36*
X483532Y112319D02*
X483522D01*
X483503D01*
X483474Y112309D01*
X483434Y112300D01*
X483327Y112270D01*
X483191Y112231D01*
X483044Y112183D01*
X482898Y112105D01*
X482752Y112017D01*
X482625Y111900D01*
X482615Y111880D01*
X482576Y111841D01*
X482537Y111773D01*
X482479Y111675D01*
X482430Y111558D01*
X482381Y111422D01*
X482342Y111266D01*
X482332Y111100D01*
Y111041D01*
X482342Y111002D01*
X482352Y110895D01*
X482381Y110759D01*
X482440Y110612D01*
X482508Y110447D01*
X482615Y110290D01*
X482674Y110212D01*
X482752Y110134D01*
X482761D01*
X482771Y110115D01*
X482830Y110076D01*
X482927Y110008D01*
X483054Y109939D01*
X483220Y109871D01*
X483415Y109803D01*
X483639Y109764D01*
X483893Y109744D01*
X483903D01*
X483922D01*
X483961D01*
X484000Y109754D01*
X484059D01*
X484127Y109764D01*
X484283Y109793D01*
X484449Y109832D01*
X484624Y109900D01*
X484800Y109998D01*
X484956Y110125D01*
X484976Y110144D01*
X485015Y110193D01*
X485083Y110271D01*
X485151Y110388D01*
X485219Y110525D01*
X485288Y110700D01*
X485327Y110895D01*
X485346Y111110D01*
Y111178D01*
X485336Y111246D01*
X485327Y111344D01*
X485298Y111451D01*
X485268Y111568D01*
X485219Y111685D01*
X485161Y111802D01*
X485151Y111812D01*
X485132Y111851D01*
X485093Y111910D01*
X485044Y111978D01*
X484976Y112046D01*
X484898Y112124D01*
X484810Y112202D01*
X484712Y112270D01*
X484820Y113012D01*
X488106Y112387D01*
Y109208D01*
X487355D01*
Y111763D01*
X485629Y112114D01*
X485639Y112105D01*
X485649Y112085D01*
X485668Y112056D01*
X485697Y112017D01*
X485727Y111958D01*
X485756Y111900D01*
X485834Y111744D01*
X485912Y111568D01*
X485970Y111363D01*
X486019Y111139D01*
X486039Y110905D01*
Y110827D01*
X486029Y110768D01*
X486019Y110690D01*
X486009Y110612D01*
X485990Y110515D01*
X485970Y110417D01*
X485892Y110193D01*
X485853Y110076D01*
X485795Y109959D01*
X485727Y109832D01*
X485649Y109715D01*
X485561Y109598D01*
X485453Y109491D01*
X485444Y109481D01*
X485424Y109461D01*
X485395Y109432D01*
X485346Y109403D01*
X485288Y109354D01*
X485219Y109305D01*
X485141Y109256D01*
X485054Y109198D01*
X484946Y109139D01*
X484839Y109091D01*
X484712Y109042D01*
X484585Y108993D01*
X484439Y108964D01*
X484293Y108935D01*
X484127Y108915D01*
X483961Y108905D01*
X483951D01*
X483922D01*
X483873D01*
X483815Y108915D01*
X483737Y108925D01*
X483649Y108935D01*
X483552Y108944D01*
X483444Y108964D01*
X483210Y109032D01*
X482966Y109120D01*
X482830Y109178D01*
X482703Y109247D01*
X482576Y109325D01*
X482459Y109413D01*
X482449Y109422D01*
X482430Y109442D01*
X482391Y109481D01*
X482342Y109530D01*
X482284Y109588D01*
X482215Y109666D01*
X482147Y109754D01*
X482079Y109861D01*
X482001Y109969D01*
X481932Y110095D01*
X481864Y110242D01*
X481806Y110388D01*
X481757Y110554D01*
X481718Y110720D01*
X481698Y110905D01*
X481689Y111100D01*
Y111188D01*
X481698Y111246D01*
X481708Y111314D01*
X481718Y111402D01*
X481728Y111500D01*
X481747Y111607D01*
X481806Y111832D01*
X481894Y112066D01*
X481952Y112183D01*
X482020Y112300D01*
X482089Y112417D01*
X482176Y112524D01*
X482186Y112534D01*
X482196Y112543D01*
X482225Y112573D01*
X482264Y112612D01*
X482313Y112651D01*
X482371Y112699D01*
X482440Y112748D01*
X482518Y112807D01*
X482703Y112914D01*
X482927Y113021D01*
X483181Y113099D01*
X483327Y113129D01*
X483474Y113148D01*
X483532Y112319D01*
D02*
G37*
G36*
X488204Y107589D02*
X483552Y105931D01*
X483542D01*
X483522Y105921D01*
X483493Y105911D01*
X483454Y105892D01*
X483347Y105862D01*
X483210Y105814D01*
X483044Y105755D01*
X482869Y105696D01*
X482498Y105589D01*
X482508D01*
X482518Y105579D01*
X482547Y105570D01*
X482586Y105560D01*
X482693Y105531D01*
X482830Y105492D01*
X482986Y105443D01*
X483161Y105384D01*
X483357Y105316D01*
X483552Y105248D01*
X488204Y103512D01*
Y102653D01*
X481796Y105160D01*
Y106028D01*
X488204Y108515D01*
Y107589D01*
D02*
G37*
G36*
X485063Y102136D02*
X485171D01*
X485307Y102117D01*
X485463Y102097D01*
X485629Y102078D01*
X485824Y102039D01*
X486019Y101990D01*
X486224Y101941D01*
X486429Y101873D01*
X486634Y101785D01*
X486838Y101688D01*
X487043Y101580D01*
X487229Y101444D01*
X487404Y101298D01*
X487414Y101288D01*
X487443Y101259D01*
X487492Y101210D01*
X487551Y101142D01*
X487619Y101054D01*
X487687Y100956D01*
X487775Y100839D01*
X487863Y100703D01*
X487941Y100547D01*
X488028Y100381D01*
X488097Y100195D01*
X488175Y100000D01*
X488224Y99796D01*
X488272Y99571D01*
X488302Y99327D01*
X488311Y99083D01*
Y98996D01*
X488302Y98937D01*
Y98859D01*
X488292Y98762D01*
X488272Y98664D01*
X488263Y98547D01*
X488204Y98303D01*
X488126Y98030D01*
X488028Y97757D01*
X487960Y97620D01*
X487882Y97484D01*
Y97474D01*
X487863Y97455D01*
X487843Y97416D01*
X487804Y97367D01*
X487765Y97308D01*
X487707Y97240D01*
X487580Y97084D01*
X487414Y96909D01*
X487209Y96723D01*
X486975Y96557D01*
X486702Y96401D01*
X486692D01*
X486663Y96382D01*
X486624Y96362D01*
X486565Y96343D01*
X486497Y96313D01*
X486409Y96284D01*
X486312Y96245D01*
X486205Y96206D01*
X486078Y96177D01*
X485951Y96138D01*
X485658Y96079D01*
X485336Y96040D01*
X484985Y96021D01*
X484976D01*
X484946D01*
X484888D01*
X484820Y96031D01*
X484732D01*
X484634Y96040D01*
X484527Y96050D01*
X484400Y96070D01*
X484127Y96118D01*
X483834Y96187D01*
X483532Y96284D01*
X483240Y96421D01*
X483230D01*
X483210Y96440D01*
X483171Y96460D01*
X483113Y96489D01*
X483054Y96538D01*
X482976Y96587D01*
X482810Y96704D01*
X482625Y96860D01*
X482430Y97055D01*
X482245Y97279D01*
X482079Y97533D01*
Y97542D01*
X482059Y97562D01*
X482040Y97601D01*
X482020Y97660D01*
X481991Y97728D01*
X481952Y97806D01*
X481923Y97894D01*
X481884Y98001D01*
X481815Y98225D01*
X481747Y98489D01*
X481708Y98781D01*
X481689Y99083D01*
Y99171D01*
X481698Y99240D01*
Y99318D01*
X481708Y99405D01*
X481728Y99513D01*
X481747Y99630D01*
X481796Y99874D01*
X481874Y100147D01*
X481981Y100429D01*
X482040Y100566D01*
X482118Y100703D01*
X482128Y100712D01*
X482137Y100732D01*
X482167Y100771D01*
X482196Y100820D01*
X482245Y100878D01*
X482293Y100947D01*
X482430Y101103D01*
X482606Y101278D01*
X482801Y101463D01*
X483044Y101629D01*
X483308Y101785D01*
X483317D01*
X483347Y101805D01*
X483386Y101814D01*
X483444Y101844D01*
X483513Y101873D01*
X483591Y101902D01*
X483688Y101932D01*
X483795Y101961D01*
X483913Y102000D01*
X484030Y102029D01*
X484303Y102088D01*
X484595Y102127D01*
X484907Y102146D01*
X484927D01*
X484976D01*
X485063Y102136D01*
D02*
G37*
%LPC*%
G36*
X484898Y101268D02*
X484888D01*
X484849D01*
X484790D01*
X484702Y101259D01*
X484605Y101249D01*
X484498Y101239D01*
X484371Y101220D01*
X484234Y101190D01*
X483942Y101122D01*
X483795Y101063D01*
X483639Y101005D01*
X483493Y100937D01*
X483347Y100859D01*
X483200Y100761D01*
X483074Y100654D01*
X483064Y100644D01*
X483044Y100625D01*
X483015Y100586D01*
X482966Y100537D01*
X482918Y100478D01*
X482869Y100410D01*
X482801Y100322D01*
X482742Y100225D01*
X482683Y100117D01*
X482625Y100000D01*
X482566Y99874D01*
X482518Y99727D01*
X482469Y99581D01*
X482440Y99425D01*
X482420Y99269D01*
X482410Y99093D01*
Y99005D01*
X482420Y98937D01*
X482430Y98849D01*
X482449Y98762D01*
X482469Y98654D01*
X482498Y98537D01*
X482576Y98294D01*
X482625Y98157D01*
X482693Y98030D01*
X482771Y97894D01*
X482859Y97767D01*
X482957Y97640D01*
X483074Y97523D01*
X483083Y97513D01*
X483103Y97494D01*
X483142Y97464D01*
X483200Y97425D01*
X483269Y97377D01*
X483357Y97328D01*
X483454Y97269D01*
X483561Y97211D01*
X483698Y97152D01*
X483834Y97094D01*
X483991Y97045D01*
X484166Y96996D01*
X484351Y96957D01*
X484547Y96928D01*
X484761Y96909D01*
X484985Y96899D01*
X484995D01*
X485024D01*
X485063D01*
X485112D01*
X485180Y96909D01*
X485268D01*
X485453Y96928D01*
X485658Y96967D01*
X485892Y97016D01*
X486127Y97084D01*
X486351Y97172D01*
X486361D01*
X486380Y97182D01*
X486409Y97201D01*
X486448Y97221D01*
X486556Y97279D01*
X486683Y97367D01*
X486829Y97474D01*
X486985Y97611D01*
X487131Y97767D01*
X487258Y97942D01*
Y97952D01*
X487268Y97962D01*
X487287Y97991D01*
X487307Y98030D01*
X487355Y98137D01*
X487424Y98274D01*
X487482Y98440D01*
X487531Y98635D01*
X487570Y98849D01*
X487580Y99083D01*
Y99171D01*
X487570Y99230D01*
X487560Y99308D01*
X487551Y99405D01*
X487531Y99503D01*
X487502Y99610D01*
X487424Y99854D01*
X487375Y99981D01*
X487317Y100108D01*
X487248Y100244D01*
X487160Y100371D01*
X487063Y100498D01*
X486956Y100625D01*
X486946Y100634D01*
X486926Y100654D01*
X486887Y100683D01*
X486838Y100722D01*
X486770Y100771D01*
X486683Y100829D01*
X486585Y100888D01*
X486468Y100947D01*
X486331Y101005D01*
X486185Y101063D01*
X486019Y101122D01*
X485824Y101171D01*
X485619Y101210D01*
X485405Y101239D01*
X485161Y101259D01*
X484898Y101268D01*
D02*
G37*
%LPD*%
D10*
X123810Y95950D02*
G03*
X123810Y95950I-3810J0D01*
G01*
X378460Y212310D02*
G03*
X378460Y212310I-3810J0D01*
G01*
X203810Y95950D02*
G03*
X203810Y95950I-3810J0D01*
G01*
Y10950D02*
G03*
X203810Y10950I-3810J0D01*
G01*
X64770Y95000D02*
G03*
X64770Y95000I-3810J0D01*
G01*
X123810Y10950D02*
G03*
X123810Y10950I-3810J0D01*
G01*
X63500Y175000D02*
G03*
X63500Y175000I-3810J0D01*
G01*
D11*
X281900Y196850D02*
G03*
X281900Y196850I-1000J0D01*
G01*
X99750Y239350D02*
G03*
X99750Y239350I-1000J0D01*
G01*
X420000Y83680D02*
X459000D01*
Y59180D02*
Y83680D01*
X420000Y59180D02*
X459000D01*
X411000Y166320D02*
X450000D01*
X411000D02*
Y190820D01*
X450000D01*
X411000Y94890D02*
X450000D01*
X411000D02*
Y119390D01*
X450000D01*
X411000Y155110D02*
X450000D01*
X411000Y130610D02*
Y155110D01*
Y130610D02*
X450000D01*
X502000Y185647D02*
X509997D01*
Y181648D01*
X508665Y180315D01*
X505999D01*
X504666Y181648D01*
Y185647D01*
X502000Y177650D02*
X507332D01*
X509997Y174984D01*
X507332Y172318D01*
X502000D01*
X505999D01*
Y177650D01*
X502000Y169652D02*
X509997D01*
X507332Y166987D01*
X509997Y164321D01*
X502000D01*
X509997Y153657D02*
Y150992D01*
Y152324D01*
X502000D01*
Y153657D01*
Y150992D01*
Y146993D02*
X507332D01*
Y142994D01*
X505999Y141661D01*
X502000D01*
X508665Y137663D02*
X507332D01*
Y138996D01*
Y136330D01*
Y137663D01*
X503333D01*
X502000Y136330D01*
Y128332D02*
Y130998D01*
X503333Y132331D01*
X505999D01*
X507332Y130998D01*
Y128332D01*
X505999Y126999D01*
X504666D01*
Y132331D01*
X507332Y124333D02*
X502000D01*
X504666D01*
X505999Y123001D01*
X507332Y121668D01*
Y120335D01*
X502000Y115003D02*
X508665D01*
X505999D01*
Y116336D01*
Y113670D01*
Y115003D01*
X508665D01*
X509997Y113670D01*
X507332Y108339D02*
Y105673D01*
X505999Y104340D01*
X502000D01*
Y108339D01*
X503333Y109672D01*
X504666Y108339D01*
Y104340D01*
X507332Y96343D02*
Y100341D01*
X505999Y101674D01*
X503333D01*
X502000Y100341D01*
Y96343D01*
Y89678D02*
Y92344D01*
X503333Y93677D01*
X505999D01*
X507332Y92344D01*
Y89678D01*
X505999Y88345D01*
X504666D01*
Y93677D01*
X507332Y77682D02*
X502000Y75016D01*
X507332Y72350D01*
X508665Y69685D02*
X509997Y68352D01*
Y65686D01*
X508665Y64353D01*
X507332D01*
X505999Y65686D01*
Y67019D01*
Y65686D01*
X504666Y64353D01*
X503333D01*
X502000Y65686D01*
Y68352D01*
X503333Y69685D01*
D12*
X78730Y98730D02*
X141270D01*
Y151270D01*
X78730D02*
X141270D01*
X78730Y98730D02*
Y151270D01*
X338380Y43420D02*
X390920D01*
X338380D02*
Y205960D01*
X390920D01*
Y43420D02*
Y205960D01*
X158730Y98730D02*
Y151270D01*
X221270D01*
Y98730D02*
Y151270D01*
X158730Y98730D02*
X221270D01*
X158730Y13730D02*
Y66270D01*
X221270D01*
Y13730D02*
Y66270D01*
X158730Y13730D02*
X221270D01*
X5640Y53730D02*
X58180D01*
X5640D02*
Y116270D01*
X58180D01*
Y53730D02*
Y116270D01*
X78730Y13730D02*
Y66270D01*
X141270D01*
Y13730D02*
Y66270D01*
X78730Y13730D02*
X141270D01*
X56910Y133730D02*
Y196270D01*
X4370D02*
X56910D01*
X4370Y133730D02*
Y196270D01*
Y133730D02*
X56910D01*
D13*
X195900Y181850D02*
Y231850D01*
X275900D01*
Y181850D02*
Y231850D01*
X195900Y181850D02*
X275900D01*
X178750D02*
Y231850D01*
X78750D02*
X178750D01*
X78750Y181850D02*
Y231850D01*
Y181850D02*
X178750D01*
D14*
X355706Y8872D02*
Y4873D01*
X357705D01*
X358372Y5539D01*
Y8205D01*
X357705Y8872D01*
X355706D01*
X361704Y4873D02*
X360371D01*
X359704Y5539D01*
Y6872D01*
X360371Y7539D01*
X361704D01*
X362370Y6872D01*
Y6206D01*
X359704D01*
X363703Y4873D02*
X365702D01*
X366369Y5539D01*
X365702Y6206D01*
X364370D01*
X363703Y6872D01*
X364370Y7539D01*
X366369D01*
X367702Y4873D02*
X369035D01*
X368368D01*
Y7539D01*
X367702D01*
X372367Y3540D02*
X373033D01*
X373700Y4206D01*
Y7539D01*
X371701D01*
X371034Y6872D01*
Y5539D01*
X371701Y4873D01*
X373700D01*
X375033D02*
Y7539D01*
X377032D01*
X377699Y6872D01*
Y4873D01*
X381031D02*
X379698D01*
X379031Y5539D01*
Y6872D01*
X379698Y7539D01*
X381031D01*
X381697Y6872D01*
Y6206D01*
X379031D01*
X385696Y8872D02*
Y4873D01*
X383697D01*
X383030Y5539D01*
Y6872D01*
X383697Y7539D01*
X385696D01*
X391027Y8872D02*
Y4873D01*
X393027D01*
X393693Y5539D01*
Y6206D01*
Y6872D01*
X393027Y7539D01*
X391027D01*
X395026D02*
Y5539D01*
X395693Y4873D01*
X397692D01*
Y4206D01*
X397025Y3540D01*
X396359D01*
X397692Y4873D02*
Y7539D01*
X403024Y8872D02*
Y4873D01*
Y6206D01*
X405689Y8872D01*
X403690Y6872D01*
X405689Y4873D01*
X407022D02*
Y5539D01*
X407689D01*
Y4873D01*
X407022D01*
X414353D02*
Y8872D01*
X416353D01*
X417019Y8205D01*
Y6872D01*
X416353Y6206D01*
X414353D01*
X420351Y4873D02*
X419018D01*
X418352Y5539D01*
Y6872D01*
X419018Y7539D01*
X420351D01*
X421018Y6872D01*
Y6206D01*
X418352D01*
X422351Y7539D02*
Y4873D01*
Y6206D01*
X423017Y6872D01*
X423684Y7539D01*
X424350D01*
X428349Y4873D02*
X427016D01*
X426349Y5539D01*
Y6872D01*
X427016Y7539D01*
X428349D01*
X429015Y6872D01*
Y6206D01*
X426349D01*
X430348Y7539D02*
X433014D01*
X430348Y4873D01*
X433014D01*
X441011D02*
X440345Y5539D01*
X439678Y4873D01*
X439012D01*
X438345Y5539D01*
Y6206D01*
X439012Y6872D01*
X438345Y7539D01*
Y8205D01*
X439012Y8872D01*
X439678D01*
X440345Y8205D01*
Y7539D01*
X439678Y6872D01*
X440345Y6206D01*
Y5539D01*
X441011Y6872D02*
X440345Y6206D01*
X439012Y6872D02*
X439678D01*
X449009Y8205D02*
X448342Y8872D01*
X447009D01*
X446343Y8205D01*
Y5539D01*
X447009Y4873D01*
X448342D01*
X449009Y5539D01*
X450341Y4873D02*
Y5539D01*
X451008D01*
Y4873D01*
X450341D01*
X457672D02*
Y8872D01*
X459672D01*
X460338Y8205D01*
Y6872D01*
X459672Y6206D01*
X457672D01*
X459005D02*
X460338Y4873D01*
X461671Y7539D02*
Y5539D01*
X462338Y4873D01*
X464337Y4873D01*
Y7539D01*
X465670Y4873D02*
X467669D01*
X468336Y5539D01*
X467669Y6206D01*
X466336D01*
X465670Y6872D01*
X466336Y7539D01*
X468336D01*
X469669Y8872D02*
Y4873D01*
Y6872D01*
X470335Y7539D01*
X471668D01*
X472334Y6872D01*
Y4873D01*
X492490Y146326D02*
X496489D01*
X492490Y143660D01*
X496489D01*
X492490Y141661D02*
Y140328D01*
X493157Y139662D01*
X494489D01*
X495156Y140328D01*
Y141661D01*
X494489Y142328D01*
X493157D01*
X492490Y141661D01*
X496489Y134330D02*
X492490D01*
Y132331D01*
X493157Y131664D01*
X493823D01*
X494489Y132331D01*
Y134330D01*
Y132331D01*
X495156Y131664D01*
X495822D01*
X496489Y132331D01*
Y134330D01*
X492490Y130332D02*
Y128999D01*
Y129665D01*
X495156D01*
Y130332D01*
X495822Y126333D02*
X495156D01*
Y126999D01*
Y125666D01*
Y126333D01*
X493157D01*
X492490Y125666D01*
X495822Y117003D02*
X496489Y117669D01*
Y119002D01*
X495822Y119668D01*
X495156D01*
X494489Y119002D01*
Y117669D01*
X493823Y117003D01*
X493157D01*
X492490Y117669D01*
Y119002D01*
X493157Y119668D01*
X496489Y115670D02*
X492490D01*
X494489D01*
X495156Y115003D01*
Y113670D01*
X494489Y113004D01*
X492490D01*
Y111671D02*
Y110338D01*
Y111004D01*
X495156D01*
Y111671D01*
X492490Y107672D02*
X495822D01*
X494489D01*
Y108339D01*
Y107006D01*
Y107672D01*
X495822D01*
X496489Y107006D01*
X495822Y104340D02*
X495156D01*
Y105007D01*
Y103674D01*
Y104340D01*
X493157D01*
X492490Y103674D01*
D15*
X70261Y72732D02*
X62266Y72923D01*
X62170Y68926D01*
X63471Y67561D01*
X68801Y67434D01*
X70165Y68734D01*
X70261Y72732D01*
X61979Y60931D02*
X62042Y63596D01*
X63407Y64896D01*
X66072Y64833D01*
X67372Y63468D01*
X67309Y60803D01*
X65944Y59502D01*
X64612Y59534D01*
X64739Y64865D01*
X68513Y55441D02*
X67181Y55473D01*
X67213Y56805D01*
X67149Y54140D01*
X67181Y55473D01*
X63183Y55569D01*
X61819Y54268D01*
X84853Y242599D02*
X79521D01*
Y238600D01*
X82187D01*
X79521D01*
Y234601D01*
X87518D02*
X90184D01*
X88851D01*
Y239933D01*
X87518D01*
X94183Y242599D02*
Y234601D01*
X98182D01*
X99515Y235934D01*
Y237267D01*
Y238600D01*
X98182Y239933D01*
X94183D01*
X106179Y234601D02*
X103513D01*
X102180Y235934D01*
Y238600D01*
X103513Y239933D01*
X106179D01*
X107512Y238600D01*
Y237267D01*
X102180D01*
X110178Y239933D02*
Y234601D01*
Y237267D01*
X111511Y238600D01*
X112844Y239933D01*
X114177D01*
X130171Y242599D02*
X127506D01*
X126173Y241266D01*
Y235934D01*
X127506Y234601D01*
X130171D01*
X131504Y235934D01*
Y241266D01*
X130171Y242599D01*
X134170D02*
X139502D01*
X136836D01*
Y234601D01*
X142167Y242599D02*
X147499Y234601D01*
Y242599D02*
X142167Y234601D01*
X324523Y113036D02*
X332520Y112976D01*
X332550Y116975D01*
X331227Y118317D01*
X325896Y118358D01*
X324553Y117035D01*
X324523Y113036D01*
X328582Y121003D02*
X328622Y126335D01*
X326016Y134352D02*
X324673Y133029D01*
X324653Y130363D01*
X325976Y129021D01*
X327309Y129010D01*
X328652Y130333D01*
X328672Y132999D01*
X330015Y134322D01*
X331348Y134312D01*
X332670Y132969D01*
X332650Y130303D01*
X331307Y128981D01*
X332730Y140966D02*
X332710Y138301D01*
X331368Y136978D01*
X328702Y136998D01*
X327379Y138341D01*
X327399Y141006D01*
X328742Y142329D01*
X330075Y142319D01*
X330035Y136988D01*
X335426Y144945D02*
X327429Y145005D01*
X327459Y149003D01*
X328802Y150326D01*
X331468Y150306D01*
X332791Y148963D01*
X332761Y144965D01*
X326256Y166341D02*
X324914Y165018D01*
X324894Y162352D01*
X326216Y161009D01*
X327549Y160999D01*
X328892Y162322D01*
X328912Y164988D01*
X330255Y166311D01*
X331588Y166301D01*
X332911Y164958D01*
X332891Y162292D01*
X331548Y160969D01*
X327609Y168997D02*
X331608Y168966D01*
X332951Y170289D01*
X332981Y174288D01*
X327649Y174328D01*
X335667Y176934D02*
X327669Y176994D01*
X327700Y180992D01*
X329042Y182315D01*
X331708Y182295D01*
X333031Y180952D01*
X333001Y176954D01*
X335727Y184931D02*
X327729Y184991D01*
X327760Y188990D01*
X329103Y190312D01*
X331768Y190292D01*
X333091Y188949D01*
X333061Y184951D01*
X333121Y192948D02*
X333141Y195614D01*
X333131Y194281D01*
X325134Y194341D01*
X325124Y193008D01*
X327840Y199652D02*
X331838Y199622D01*
X333181Y200945D01*
X333211Y204944D01*
X334544Y204934D01*
X335867Y203591D01*
X335857Y202258D01*
X333211Y204944D02*
X327880Y204984D01*
X68819Y163841D02*
X60821Y163870D01*
X60807Y159871D01*
X62135Y158533D01*
X63468Y158529D01*
X64806Y159857D01*
X64820Y163855D01*
X64806Y159857D01*
X66134Y158519D01*
X67467Y158514D01*
X68804Y159843D01*
X68819Y163841D01*
X60793Y155872D02*
X60783Y153207D01*
X60788Y154539D01*
X66120Y154520D01*
X66124Y155853D01*
X66096Y147856D02*
X66086Y145190D01*
X64749Y143862D01*
X60750Y143876D01*
X60764Y147875D01*
X62102Y149203D01*
X63430Y147865D01*
X63416Y143867D01*
X60740Y141210D02*
X60726Y137212D01*
X62054Y135874D01*
X63392Y137202D01*
X63401Y139868D01*
X64739Y141196D01*
X66067Y139859D01*
X66053Y135860D01*
X196422Y234761D02*
Y240093D01*
X199087Y242759D01*
X201753Y240093D01*
Y234761D01*
Y238760D01*
X196422D01*
X205752Y241426D02*
Y240093D01*
X204419D01*
X207085D01*
X205752D01*
Y236094D01*
X207085Y234761D01*
X212416Y241426D02*
Y240093D01*
X211084D01*
X213749D01*
X212416D01*
Y236094D01*
X213749Y234761D01*
X221747D02*
X219081D01*
X217748Y236094D01*
Y238760D01*
X219081Y240093D01*
X221747D01*
X223080Y238760D01*
Y237427D01*
X217748D01*
X225746Y234761D02*
Y240093D01*
X229744D01*
X231077Y238760D01*
Y234761D01*
X233743Y240093D02*
Y236094D01*
X235076Y234761D01*
X239074D01*
Y240093D01*
X243073D02*
X245739D01*
X247072Y238760D01*
Y234761D01*
X243073D01*
X241740Y236094D01*
X243073Y237427D01*
X247072D01*
X251071Y241426D02*
Y240093D01*
X249738D01*
X252404D01*
X251071D01*
Y236094D01*
X252404Y234761D01*
X257735D02*
X260401D01*
X261734Y236094D01*
Y238760D01*
X260401Y240093D01*
X257735D01*
X256402Y238760D01*
Y236094D01*
X257735Y234761D01*
X264400Y240093D02*
Y234761D01*
Y237427D01*
X265733Y238760D01*
X267066Y240093D01*
X268398D01*
X79192Y153544D02*
Y158876D01*
X81858Y161542D01*
X84524Y158876D01*
Y153544D01*
Y157543D01*
X79192D01*
X87190Y153544D02*
Y158876D01*
X88523D01*
X89855Y157543D01*
Y153544D01*
Y157543D01*
X91188Y158876D01*
X92521Y157543D01*
Y153544D01*
X95187Y150878D02*
Y158876D01*
X99186D01*
X100519Y157543D01*
Y154877D01*
X99186Y153544D01*
X95187D01*
X111182D02*
X113848D01*
X112515D01*
Y161542D01*
X111182Y160209D01*
X159139Y153544D02*
Y158876D01*
X161805Y161542D01*
X164471Y158876D01*
Y153544D01*
Y157543D01*
X159139D01*
X167137Y153544D02*
Y158876D01*
X168470D01*
X169803Y157543D01*
Y153544D01*
Y157543D01*
X171136Y158876D01*
X172468Y157543D01*
Y153544D01*
X175134Y150878D02*
Y158876D01*
X179133D01*
X180466Y157543D01*
Y154877D01*
X179133Y153544D01*
X175134D01*
X196461D02*
X191129D01*
X196461Y158876D01*
Y160209D01*
X195128Y161542D01*
X192462D01*
X191129Y160209D01*
X79129Y68454D02*
Y73786D01*
X81795Y76452D01*
X84461Y73786D01*
Y68454D01*
Y72453D01*
X79129D01*
X87127Y68454D02*
Y73786D01*
X88460D01*
X89793Y72453D01*
Y68454D01*
Y72453D01*
X91125Y73786D01*
X92458Y72453D01*
Y68454D01*
X95124Y65788D02*
Y73786D01*
X99123D01*
X100456Y72453D01*
Y69787D01*
X99123Y68454D01*
X95124D01*
X111119Y75119D02*
X112452Y76452D01*
X115118D01*
X116451Y75119D01*
Y73786D01*
X115118Y72453D01*
X113785D01*
X115118D01*
X116451Y71120D01*
Y69787D01*
X115118Y68454D01*
X112452D01*
X111119Y69787D01*
X159139Y68454D02*
Y73786D01*
X161805Y76452D01*
X164471Y73786D01*
Y68454D01*
Y72453D01*
X159139D01*
X167137Y68454D02*
Y73786D01*
X168470D01*
X169803Y72453D01*
Y68454D01*
Y72453D01*
X171136Y73786D01*
X172468Y72453D01*
Y68454D01*
X175134Y65788D02*
Y73786D01*
X179133D01*
X180466Y72453D01*
Y69787D01*
X179133Y68454D01*
X175134D01*
X195128D02*
Y76452D01*
X191129Y72453D01*
X196461D01*
M02*
