G04*
G04 #@! TF.GenerationSoftware,Altium Limited,Altium Designer,26.3.0 (6)*
G04*
G04 Layer_Physical_Order=2*
G04 Layer_Color=16711680*
%FSLAX44Y44*%
%MOMM*%
G71*
G04*
G04 #@! TF.SameCoordinates,8E864A74-D1D2-490B-8332-24043535647A*
G04*
G04*
G04 #@! TF.FilePolarity,Positive*
G04*
G01*
G75*
%ADD29C,0.2540*%
%ADD31R,1.5750X1.5750*%
%ADD32C,1.5750*%
%ADD33C,0.6000*%
%ADD34C,3.9000*%
G36*
X304000Y0D02*
X0D01*
Y496000D01*
X304000D01*
Y0D01*
D02*
G37*
%LPC*%
G36*
X270371Y394415D02*
X270270D01*
Y385270D01*
X279415D01*
Y385371D01*
X278705Y388020D01*
X277334Y390395D01*
X275395Y392334D01*
X273020Y393705D01*
X270371Y394415D01*
D02*
G37*
G36*
X267730D02*
X267629D01*
X264980Y393705D01*
X262605Y392334D01*
X260666Y390395D01*
X259295Y388020D01*
X258585Y385371D01*
Y385270D01*
X267730D01*
Y394415D01*
D02*
G37*
G36*
X279415Y382730D02*
X270270D01*
Y373585D01*
X270371D01*
X273020Y374295D01*
X275395Y375666D01*
X277334Y377605D01*
X278705Y379980D01*
X279415Y382629D01*
Y382730D01*
D02*
G37*
G36*
X267730D02*
X258585D01*
Y382629D01*
X259295Y379980D01*
X260666Y377605D01*
X262605Y375666D01*
X264980Y374295D01*
X267629Y373585D01*
X267730D01*
Y382730D01*
D02*
G37*
G36*
X36371Y394415D02*
X33629D01*
X30980Y393705D01*
X28605Y392334D01*
X26666Y390395D01*
X25295Y388020D01*
X24585Y385371D01*
Y382629D01*
X25295Y379980D01*
X26666Y377605D01*
X28605Y375666D01*
X30980Y374295D01*
X33629Y373585D01*
X36371D01*
X39020Y374295D01*
X41395Y375666D01*
X43334Y377605D01*
X44705Y379980D01*
X45415Y382629D01*
Y385371D01*
X44705Y388020D01*
X43334Y390395D01*
X41395Y392334D01*
X39020Y393705D01*
X36371Y394415D01*
D02*
G37*
G36*
X86102Y389540D02*
X83898D01*
X81862Y388697D01*
X80303Y387138D01*
X79460Y385102D01*
Y382898D01*
X80303Y380862D01*
X81862Y379303D01*
X83898Y378460D01*
X86102D01*
X88138Y379303D01*
X88950Y380115D01*
X90485D01*
X91011Y378845D01*
X90303Y378138D01*
X89460Y376102D01*
Y373898D01*
X90303Y371862D01*
X91862Y370303D01*
X93898Y369460D01*
X95046D01*
X101115Y363391D01*
Y320950D01*
X100303Y320138D01*
X99460Y318102D01*
Y315898D01*
X100303Y313862D01*
X101862Y312303D01*
X103898Y311460D01*
X106102D01*
X108138Y312303D01*
X109697Y313862D01*
X110540Y315898D01*
Y318102D01*
X109697Y320138D01*
X108885Y320950D01*
Y365000D01*
X108589Y366487D01*
X107747Y367747D01*
X100540Y374954D01*
Y376102D01*
X99697Y378138D01*
X98989Y378845D01*
X99515Y380115D01*
X150391D01*
X176460Y354046D01*
Y352898D01*
X177303Y350862D01*
X178862Y349303D01*
X180898Y348460D01*
X183102D01*
X185138Y349303D01*
X186697Y350862D01*
X187540Y352898D01*
Y355102D01*
X186697Y357138D01*
X185138Y358697D01*
X183102Y359540D01*
X181954D01*
X154747Y386747D01*
X153487Y387589D01*
X152000Y387885D01*
X88950D01*
X88138Y388697D01*
X86102Y389540D01*
D02*
G37*
G36*
X279415Y369015D02*
X258585D01*
Y348185D01*
X279415D01*
Y369015D01*
D02*
G37*
G36*
X45415D02*
X24585D01*
Y348185D01*
X45415D01*
Y369015D01*
D02*
G37*
G36*
X185102Y306540D02*
X182898D01*
X180862Y305697D01*
X180050Y304885D01*
X122950D01*
X122138Y305697D01*
X120102Y306540D01*
X117898D01*
X115862Y305697D01*
X114303Y304138D01*
X113460Y302102D01*
Y299898D01*
X114303Y297862D01*
X115862Y296303D01*
X117898Y295460D01*
X120102D01*
X122138Y296303D01*
X122950Y297115D01*
X180050D01*
X180862Y296303D01*
X182898Y295460D01*
X185102D01*
X187138Y296303D01*
X188697Y297862D01*
X189540Y299898D01*
Y302102D01*
X188697Y304138D01*
X187138Y305697D01*
X185102Y306540D01*
D02*
G37*
G36*
X36371Y270815D02*
X33629D01*
X30980Y270105D01*
X28605Y268734D01*
X26666Y266795D01*
X25295Y264420D01*
X24585Y261771D01*
Y259029D01*
X25295Y256380D01*
X26666Y254005D01*
X28605Y252066D01*
X30980Y250695D01*
X33629Y249985D01*
X36371D01*
X39020Y250695D01*
X41395Y252066D01*
X43334Y254005D01*
X44705Y256380D01*
X45415Y259029D01*
Y261771D01*
X44705Y264420D01*
X43334Y266795D01*
X41395Y268734D01*
X39020Y270105D01*
X36371Y270815D01*
D02*
G37*
G36*
X45415Y245415D02*
X24585D01*
Y224585D01*
X45415D01*
Y245415D01*
D02*
G37*
G36*
X166000Y437885D02*
X133414D01*
X131928Y437589D01*
X130667Y436747D01*
X120253Y426333D01*
X119411Y425072D01*
X119115Y423586D01*
Y404950D01*
X118303Y404138D01*
X117460Y402102D01*
Y399898D01*
X118303Y397862D01*
X119862Y396303D01*
X121898Y395460D01*
X124102D01*
X126138Y396303D01*
X127697Y397862D01*
X128540Y399898D01*
Y402102D01*
X127697Y404138D01*
X126885Y404950D01*
Y421977D01*
X135023Y430115D01*
X164391D01*
X214115Y380391D01*
Y173000D01*
X214411Y171513D01*
X215253Y170253D01*
X229460Y156046D01*
Y154898D01*
X230303Y152862D01*
X231862Y151303D01*
X233898Y150460D01*
X236102D01*
X238138Y151303D01*
X239697Y152862D01*
X240540Y154898D01*
Y157102D01*
X239697Y159138D01*
X238138Y160697D01*
X236102Y161540D01*
X234954D01*
X221885Y174609D01*
Y382000D01*
X221589Y383487D01*
X220747Y384747D01*
X168747Y436747D01*
X167487Y437589D01*
X166000Y437885D01*
D02*
G37*
G36*
X36371Y147815D02*
X36270D01*
Y138670D01*
X45415D01*
Y138771D01*
X44705Y141420D01*
X43334Y143795D01*
X41395Y145734D01*
X39020Y147105D01*
X36371Y147815D01*
D02*
G37*
G36*
X33730D02*
X33629D01*
X30980Y147105D01*
X28605Y145734D01*
X26666Y143795D01*
X25295Y141420D01*
X24585Y138771D01*
Y138670D01*
X33730D01*
Y147815D01*
D02*
G37*
G36*
X270371D02*
X270270D01*
Y138670D01*
X279415D01*
Y138771D01*
X278705Y141420D01*
X277334Y143795D01*
X275395Y145734D01*
X273020Y147105D01*
X270371Y147815D01*
D02*
G37*
G36*
X267730D02*
X267629D01*
X264980Y147105D01*
X262605Y145734D01*
X260666Y143795D01*
X259295Y141420D01*
X258585Y138771D01*
Y138670D01*
X267730D01*
Y147815D01*
D02*
G37*
G36*
X279415Y136130D02*
X270270D01*
Y126985D01*
X270371D01*
X273020Y127695D01*
X275395Y129066D01*
X277334Y131005D01*
X278705Y133380D01*
X279415Y136029D01*
Y136130D01*
D02*
G37*
G36*
X267730D02*
X258585D01*
Y136029D01*
X259295Y133380D01*
X260666Y131005D01*
X262605Y129066D01*
X264980Y127695D01*
X267629Y126985D01*
X267730D01*
Y136130D01*
D02*
G37*
G36*
X45415Y136130D02*
X36270D01*
Y126985D01*
X36371D01*
X39020Y127695D01*
X41395Y129066D01*
X43334Y131005D01*
X44705Y133380D01*
X45415Y136029D01*
Y136130D01*
D02*
G37*
G36*
X33730D02*
X24585D01*
Y136029D01*
X25295Y133380D01*
X26666Y131005D01*
X28605Y129066D01*
X30980Y127695D01*
X33629Y126985D01*
X33730D01*
Y136130D01*
D02*
G37*
G36*
X279415Y122415D02*
X258585D01*
Y101585D01*
X279415D01*
Y122415D01*
D02*
G37*
G36*
X45415D02*
X24585D01*
Y101585D01*
X45415D01*
Y122415D01*
D02*
G37*
%LPD*%
D29*
X119000Y301000D02*
X184000D01*
X184000Y301000D01*
X105000Y317000D02*
Y365000D01*
X95000Y375000D02*
X105000Y365000D01*
X218000Y173000D02*
Y382000D01*
X166000Y434000D02*
X218000Y382000D01*
Y173000D02*
X235000Y156000D01*
X133414Y434000D02*
X166000D01*
X123000Y423586D02*
X133414Y434000D01*
X85000Y384000D02*
X152000D01*
X182000Y354000D01*
X123000Y401000D02*
Y423586D01*
D31*
X35000Y358600D02*
D03*
X269000D02*
D03*
Y112000D02*
D03*
X35000Y235000D02*
D03*
Y112000D02*
D03*
D32*
X269000Y384000D02*
D03*
Y137400D02*
D03*
X35000Y384000D02*
D03*
Y260400D02*
D03*
Y137400D02*
D03*
D33*
X182000Y354000D02*
D03*
X235000Y156000D02*
D03*
X184000Y301000D02*
D03*
X95000Y375000D02*
D03*
X105000Y317000D02*
D03*
X119000Y301000D02*
D03*
X165000Y471000D02*
D03*
X123000Y401000D02*
D03*
X69000Y25000D02*
D03*
X93000D02*
D03*
X117000D02*
D03*
X141000D02*
D03*
X165000D02*
D03*
X189000D02*
D03*
X213000D02*
D03*
X237000D02*
D03*
X279000Y68000D02*
D03*
Y191000D02*
D03*
Y215000D02*
D03*
Y239000D02*
D03*
Y260000D02*
D03*
Y284000D02*
D03*
Y308000D02*
D03*
Y429000D02*
D03*
X237000Y471000D02*
D03*
X213000D02*
D03*
X189000D02*
D03*
X141000D02*
D03*
X117000D02*
D03*
X93000D02*
D03*
X69000D02*
D03*
X85000Y384000D02*
D03*
D34*
X25000Y471000D02*
D03*
X279000D02*
D03*
Y25000D02*
D03*
X25000D02*
D03*
M02*
