G04*
G04 #@! TF.GenerationSoftware,Altium Limited,Altium Designer,26.3.0 (6)*
G04*
G04 Layer_Color=16711935*
%FSLAX44Y44*%
%MOMM*%
G71*
G04*
G04 #@! TF.SameCoordinates,8E864A74-D1D2-490B-8332-24043535647A*
G04*
G04*
G04 #@! TF.FilePolarity,Negative*
G04*
G01*
G75*
%ADD25R,1.7782X1.7782*%
%ADD26C,1.7782*%
%ADD27C,0.8032*%
%ADD28C,4.1032*%
D25*
X35000Y358600D02*
D03*
X269000D02*
D03*
Y112000D02*
D03*
X35000Y235000D02*
D03*
Y112000D02*
D03*
D26*
X269000Y384000D02*
D03*
Y137400D02*
D03*
X35000Y384000D02*
D03*
Y260400D02*
D03*
Y137400D02*
D03*
D27*
X182000Y354000D02*
D03*
X235000Y156000D02*
D03*
X184000Y301000D02*
D03*
X95000Y375000D02*
D03*
X105000Y317000D02*
D03*
X119000Y301000D02*
D03*
X165000Y471000D02*
D03*
X123000Y401000D02*
D03*
X69000Y25000D02*
D03*
X93000D02*
D03*
X117000D02*
D03*
X141000D02*
D03*
X165000D02*
D03*
X189000D02*
D03*
X213000D02*
D03*
X237000D02*
D03*
X279000Y68000D02*
D03*
Y191000D02*
D03*
Y215000D02*
D03*
Y239000D02*
D03*
Y260000D02*
D03*
Y284000D02*
D03*
Y308000D02*
D03*
Y429000D02*
D03*
X237000Y471000D02*
D03*
X213000D02*
D03*
X189000D02*
D03*
X141000D02*
D03*
X117000D02*
D03*
X93000D02*
D03*
X69000D02*
D03*
X85000Y384000D02*
D03*
D28*
X25000Y471000D02*
D03*
X279000D02*
D03*
Y25000D02*
D03*
X25000D02*
D03*
M02*
