ISO-10303-21;
HEADER;
FILE_DESCRIPTION (( 'STEP AP203' ),
    '1' );
FILE_NAME ('93475A196_18-8 Stainless Steel General Purpose Washer.STEP',
    '2026-06-30T18:18:08',
    ( 'McMaster Carr Supply' ),
    ( 'McMaster Carr Supply' ),
    'SwSTEP 2.0',
    'SolidWorks 2024',
    '' );
FILE_SCHEMA (( 'CONFIG_CONTROL_DESIGN' ));
ENDSEC;

DATA;
#1 = DIRECTION ( 'NONE',  ( 1.000000000000000000, 0.000000000000000000, 0.000000000000000000 ) ) ;
#2 = EDGE_LOOP ( 'NONE', ( #75, #68, #130, #202 ) ) ;
#3 = EDGE_CURVE ( 'NONE', #170, #246, #17, .T. ) ;
#4 = AXIS2_PLACEMENT_3D ( 'NONE', #441, #212, #101 ) ;
#5 = EDGE_LOOP ( 'NONE', ( #139, #29 ) ) ;
#6 = LOCAL_TIME ( 13, 18, 8.000000000000000000, #287 ) ;
#7 = ORIENTED_EDGE ( 'NONE', *, *, #253, .T. ) ;
#8 = APPROVAL_STATUS ( 'not_yet_approved' ) ;
#9 = ORIENTED_EDGE ( 'NONE', *, *, #148, .F. ) ;
#10 = CIRCLE ( 'NONE', #115, 1.409999999999999920 ) ;
#11 = TOROIDAL_SURFACE ( 'NONE', #183, 2.940000000000000391, 0.05999999999999999778 ) ;
#12 = PERSON_AND_ORGANIZATION ( #341, #137 ) ;
#13 = EDGE_CURVE ( 'NONE', #53, #423, #145, .T. ) ;
#14 = FACE_OUTER_BOUND ( 'NONE', #363, .T. ) ;
#15 = ORIENTED_EDGE ( 'NONE', *, *, #21, .F. ) ;
#16 = DIRECTION ( 'NONE',  ( -0.000000000000000000, -0.000000000000000000, -1.000000000000000000 ) ) ;
#17 = CIRCLE ( 'NONE', #242, 2.940000000000000391 ) ;
#18 = APPROVAL_DATE_TIME ( #113, #362 ) ;
#19 = AXIS2_PLACEMENT_3D ( 'NONE', #47, #184, #370 ) ;
#20 = EDGE_CURVE ( 'NONE', #221, #219, #48, .T. ) ;
#21 = EDGE_CURVE ( 'NONE', #250, #426, #81, .T. ) ;
#22 = TOROIDAL_SURFACE ( 'NONE', #159, 2.940000000000000391, 0.05999999999999999778 ) ;
#23 = AXIS2_PLACEMENT_3D ( 'NONE', #262, #355, #33 ) ;
#24 = CARTESIAN_POINT ( 'NONE',  ( 1.350000000000000089, 0.000000000000000000, -0.2499999999999997224 ) ) ;
#25 = CARTESIAN_POINT ( 'NONE',  ( 1.350000000000000089, 0.000000000000000000, 0.1900000000000002798 ) ) ;
#26 = DIRECTION ( 'NONE',  ( -0.000000000000000000, -0.000000000000000000, -1.000000000000000000 ) ) ;
#27 = CARTESIAN_POINT ( 'NONE',  ( -1.409999999999999920, 1.726751986797768143E-16, -0.1899999999999997524 ) ) ;
#28 = DIRECTION ( 'NONE',  ( 0.000000000000000000, -1.000000000000000000, 0.000000000000000000 ) ) ;
#29 = ORIENTED_EDGE ( 'NONE', *, *, #138, .T. ) ;
#30 = DIRECTION ( 'NONE',  ( 0.000000000000000000, 0.000000000000000000, 1.000000000000000000 ) ) ;
#31 = TOROIDAL_SURFACE ( 'NONE', #104, 2.940000000000000391, 0.05999999999999999778 ) ;
#32 = ADVANCED_FACE ( 'NONE', ( #384 ), #22, .T. ) ;
#33 = DIRECTION ( 'NONE',  ( 1.000000000000000000, 0.000000000000000000, 0.000000000000000000 ) ) ;
#34 = ORIENTED_EDGE ( 'NONE', *, *, #117, .T. ) ;
#35 = FACE_OUTER_BOUND ( 'NONE', #422, .T. ) ;
#36 = DIRECTION ( 'NONE',  ( 0.000000000000000000, 0.000000000000000000, 1.000000000000000000 ) ) ;
#37 = CIRCLE ( 'NONE', #306, 1.409999999999999920 ) ;
#38 = ORIENTED_EDGE ( 'NONE', *, *, #335, .T. ) ;
#39 = DIRECTION ( 'NONE',  ( 1.000000000000000000, 0.000000000000000000, 0.000000000000000000 ) ) ;
#40 = EDGE_LOOP ( 'NONE', ( #371, #409 ) ) ;
#41 = CARTESIAN_POINT ( 'NONE',  ( 0.000000000000000000, 0.000000000000000000, -0.2499999999999997224 ) ) ;
#42 = APPLICATION_PROTOCOL_DEFINITION ( 'international standard', 'config_control_design', 1994, #230 ) ;
#43 = ORIENTED_EDGE ( 'NONE', *, *, #253, .F. ) ;
#44 = CC_DESIGN_PERSON_AND_ORGANIZATION_ASSIGNMENT ( #361, #425, ( #344 ) ) ;
#45 = DIRECTION ( 'NONE',  ( 0.000000000000000000, 0.000000000000000000, 1.000000000000000000 ) ) ;
#46 = ORIENTED_EDGE ( 'NONE', *, *, #447, .F. ) ;
#47 = CARTESIAN_POINT ( 'NONE',  ( 1.409999999999999920, 0.000000000000000000, 0.1900000000000002798 ) ) ;
#48 = CIRCLE ( 'NONE', #123, 3.000000000000000444 ) ;
#49 = CIRCLE ( 'NONE', #299, 3.000000000000000444 ) ;
#50 = APPROVAL_PERSON_ORGANIZATION ( #323, #362, #284 ) ;
#51 = PERSON_AND_ORGANIZATION ( #341, #137 ) ;
#52 = CARTESIAN_POINT ( 'NONE',  ( -3.000000000000000444, 3.673940397442060361E-16, -0.2499999999999997224 ) ) ;
#53 = VERTEX_POINT ( 'NONE', #387 ) ;
#54 = CIRCLE ( 'NONE', #268, 0.05999999999999999778 ) ;
#55 = DIRECTION ( 'NONE',  ( 1.224646799147353207E-16, 1.000000000000000000, -0.000000000000000000 ) ) ;
#56 = DIRECTION ( 'NONE',  ( 0.000000000000000000, 0.000000000000000000, 1.000000000000000000 ) ) ;
#57 = EDGE_CURVE ( 'NONE', #188, #432, #37, .T. ) ;
#58 = TOROIDAL_SURFACE ( 'NONE', #23, 2.940000000000000391, 0.05999999999999999778 ) ;
#59 = CARTESIAN_POINT ( 'NONE',  ( -2.940000000000000391, 3.637200993467639600E-16, -0.2499999999999997224 ) ) ;
#60 = DIRECTION ( 'NONE',  ( -1.000000000000000000, 1.224646799147351482E-16, 0.000000000000000000 ) ) ;
#61 = VERTEX_POINT ( 'NONE', #225 ) ;
#62 = CARTESIAN_POINT ( 'NONE',  ( 0.000000000000000000, 0.000000000000000000, -0.2499999999999997224 ) ) ;
#63 = CARTESIAN_POINT ( 'NONE',  ( 0.000000000000000000, 0.000000000000000000, -0.1899999999999997524 ) ) ;
#64 = VERTEX_POINT ( 'NONE', #110 ) ;
#65 = CARTESIAN_POINT ( 'NONE',  ( 0.000000000000000000, 0.000000000000000000, 0.2500000000000002776 ) ) ;
#66 = AXIS2_PLACEMENT_3D ( 'NONE', #240, #205, #169 ) ;
#67 = DIRECTION ( 'NONE',  ( 0.000000000000000000, 0.000000000000000000, 1.000000000000000000 ) ) ;
#68 = ORIENTED_EDGE ( 'NONE', *, *, #13, .F. ) ;
#69 = AXIS2_PLACEMENT_3D ( 'NONE', #65, #343, #121 ) ;
#70 = CARTESIAN_POINT ( 'NONE',  ( 0.000000000000000000, 0.000000000000000000, 0.1900000000000002798 ) ) ;
#71 = ORIENTED_EDGE ( 'NONE', *, *, #57, .F. ) ;
#72 = CARTESIAN_POINT ( 'NONE',  ( -1.409999999999999920, 1.726751986797768143E-16, -0.2499999999999997224 ) ) ;
#73 = ORIENTED_EDGE ( 'NONE', *, *, #84, .T. ) ;
#74 = SHAPE_DEFINITION_REPRESENTATION ( #157, #318 ) ;
#75 = ORIENTED_EDGE ( 'NONE', *, *, #117, .F. ) ;
#76 = CIRCLE ( 'NONE', #325, 0.06000000000000015737 ) ;
#77 = PRODUCT_DEFINITION ( 'UNKNOWN', '', #98, #456 ) ;
#78 = AXIS2_PLACEMENT_3D ( 'NONE', #381, #90, #83 ) ;
#79 = EDGE_LOOP ( 'NONE', ( #389, #34, #71, #217 ) ) ;
#80 = COORDINATED_UNIVERSAL_TIME_OFFSET ( 6, 0, .BEHIND. ) ;
#81 = CIRCLE ( 'NONE', #203, 0.05999999999999994227 ) ;
#82 = CIRCLE ( 'NONE', #166, 2.940000000000000391 ) ;
#83 = DIRECTION ( 'NONE',  ( 1.000000000000000000, 0.000000000000000000, 0.000000000000000000 ) ) ;
#84 = EDGE_CURVE ( 'NONE', #250, #61, #10, .T. ) ;
#85 = DIRECTION ( 'NONE',  ( 1.000000000000000000, 0.000000000000000000, 0.000000000000000000 ) ) ;
#86 = DIRECTION ( 'NONE',  ( 0.000000000000000000, 0.000000000000000000, 1.000000000000000000 ) ) ;
#87 = PERSON_AND_ORGANIZATION ( #341, #137 ) ;
#88 = CIRCLE ( 'NONE', #390, 1.350000000000000089 ) ;
#89 = DIRECTION ( 'NONE',  ( 0.000000000000000000, 0.000000000000000000, 1.000000000000000000 ) ) ;
#90 = DIRECTION ( 'NONE',  ( -0.000000000000000000, -0.000000000000000000, -1.000000000000000000 ) ) ;
#91 = DIRECTION ( 'NONE',  ( 1.000000000000000000, 0.000000000000000000, 0.000000000000000000 ) ) ;
#92 = DIRECTION ( 'NONE',  ( 1.000000000000000000, 0.000000000000000000, -0.000000000000000000 ) ) ;
#93 = CARTESIAN_POINT ( 'NONE',  ( 2.940000000000000391, 0.000000000000000000, 0.2500000000000002776 ) ) ;
#94 = CARTESIAN_POINT ( 'NONE',  ( -1.409999999999999920, 1.726751986797768143E-16, 0.2500000000000002776 ) ) ;
#95 = ORIENTED_EDGE ( 'NONE', *, *, #197, .F. ) ;
#96 =( NAMED_UNIT ( * ) SI_UNIT ( $, .STERADIAN. ) SOLID_ANGLE_UNIT ( ) );
#97 = CIRCLE ( 'NONE', #259, 1.350000000000000089 ) ;
#98 = PRODUCT_DEFINITION_FORMATION_WITH_SPECIFIED_SOURCE ( 'ANY', '', #344, .NOT_KNOWN. ) ;
#99 = ORIENTED_EDGE ( 'NONE', *, *, #442, .F. ) ;
#100 = DIRECTION ( 'NONE',  ( 0.000000000000000000, 0.000000000000000000, 1.000000000000000000 ) ) ;
#101 = DIRECTION ( 'NONE',  ( 1.000000000000000000, 0.000000000000000000, 0.000000000000000000 ) ) ;
#102 = FACE_OUTER_BOUND ( 'NONE', #149, .T. ) ;
#103 = CARTESIAN_POINT ( 'NONE',  ( 0.000000000000000000, 0.000000000000000000, 0.2500000000000002776 ) ) ;
#104 = AXIS2_PLACEMENT_3D ( 'NONE', #227, #273, #163 ) ;
#105 = ORIENTED_EDGE ( 'NONE', *, *, #442, .T. ) ;
#106 = CARTESIAN_POINT ( 'NONE',  ( 0.000000000000000000, 0.000000000000000000, -0.2499999999999997224 ) ) ;
#107 = EDGE_CURVE ( 'NONE', #423, #53, #160, .T. ) ;
#108 = EDGE_LOOP ( 'NONE', ( #95, #347, #358, #38 ) ) ;
#109 = PERSON_AND_ORGANIZATION_ROLE ( 'classification_officer' ) ;
#110 = CARTESIAN_POINT ( 'NONE',  ( -2.940000000000000391, 3.637200993467639600E-16, 0.2500000000000002776 ) ) ;
#111 = TOROIDAL_SURFACE ( 'NONE', #220, 1.409999999999999920, 0.05999999999999999778 ) ;
#112 = LOCAL_TIME ( 13, 18, 8.000000000000000000, #80 ) ;
#113 = DATE_AND_TIME ( #295, #185 ) ;
#114 = EDGE_CURVE ( 'NONE', #423, #426, #428, .T. ) ;
#115 = AXIS2_PLACEMENT_3D ( 'NONE', #189, #16, #154 ) ;
#116 = CIRCLE ( 'NONE', #338, 2.940000000000000391 ) ;
#117 = EDGE_CURVE ( 'NONE', #423, #432, #153, .T. ) ;
#118 = DIRECTION ( 'NONE',  ( 1.000000000000000000, 0.000000000000000000, 0.000000000000000000 ) ) ;
#119 = APPROVAL_ROLE ( '' ) ;
#120 = DIRECTION ( 'NONE',  ( 1.000000000000000000, 0.000000000000000000, 0.000000000000000000 ) ) ;
#121 = DIRECTION ( 'NONE',  ( 1.000000000000000000, 0.000000000000000000, 0.000000000000000000 ) ) ;
#122 = CARTESIAN_POINT ( 'NONE',  ( 0.000000000000000000, 0.000000000000000000, -0.1899999999999997524 ) ) ;
#123 = AXIS2_PLACEMENT_3D ( 'NONE', #127, #56, #340 ) ;
#124 = AXIS2_PLACEMENT_3D ( 'NONE', #196, #28, #140 ) ;
#125 = FACE_OUTER_BOUND ( 'NONE', #79, .T. ) ;
#126 = DIRECTION ( 'NONE',  ( 0.000000000000000000, 0.000000000000000000, 1.000000000000000000 ) ) ;
#127 = CARTESIAN_POINT ( 'NONE',  ( 0.000000000000000000, 0.000000000000000000, -0.1899999999999997524 ) ) ;
#128 = DIRECTION ( 'NONE',  ( -0.000000000000000000, -0.000000000000000000, -1.000000000000000000 ) ) ;
#129 = FACE_OUTER_BOUND ( 'NONE', #277, .T. ) ;
#130 = ORIENTED_EDGE ( 'NONE', *, *, #297, .T. ) ;
#131 = CARTESIAN_POINT ( 'NONE',  ( 0.000000000000000000, 0.000000000000000000, 0.1900000000000002798 ) ) ;
#132 = CARTESIAN_POINT ( 'NONE',  ( 0.000000000000000000, 0.000000000000000000, 0.2500000000000002776 ) ) ;
#133 = ADVANCED_FACE ( 'NONE', ( #125 ), #333, .T. ) ;
#134 = ORIENTED_EDGE ( 'NONE', *, *, #114, .F. ) ;
#135 = MECHANICAL_CONTEXT ( 'NONE', #207, 'mechanical' ) ;
#136 = VECTOR ( 'NONE', #233, 1000.000000000000000 ) ;
#137 = ORGANIZATION ( 'UNSPECIFIED', 'UNSPECIFIED', '' ) ;
#138 = EDGE_CURVE ( 'NONE', #246, #170, #116, .T. ) ;
#139 = ORIENTED_EDGE ( 'NONE', *, *, #3, .T. ) ;
#140 = DIRECTION ( 'NONE',  ( 0.000000000000000000, 0.000000000000000000, -1.000000000000000000 ) ) ;
#141 = CC_DESIGN_DATE_AND_TIME_ASSIGNMENT ( #190, #412, ( #77 ) ) ;
#142 = DIRECTION ( 'NONE',  ( 1.000000000000000000, 0.000000000000000000, 0.000000000000000000 ) ) ;
#143 = EDGE_LOOP ( 'NONE', ( #99, #274, #324, #46 ) ) ;
#144 = DIRECTION ( 'NONE',  ( 0.000000000000000000, 0.000000000000000000, 1.000000000000000000 ) ) ;
#145 = CIRCLE ( 'NONE', #192, 1.350000000000000089 ) ;
#146 = VECTOR ( 'NONE', #255, 1000.000000000000000 ) ;
#147 = PERSON_AND_ORGANIZATION ( #341, #137 ) ;
#148 = EDGE_CURVE ( 'NONE', #260, #265, #214, .T. ) ;
#149 = EDGE_LOOP ( 'NONE', ( #151, #321, #421, #180 ) ) ;
#150 = APPROVAL_DATE_TIME ( #193, #407 ) ;
#151 = ORIENTED_EDGE ( 'NONE', *, *, #20, .T. ) ;
#152 = VERTEX_POINT ( 'NONE', #93 ) ;
#153 = CIRCLE ( 'NONE', #382, 0.05999999999999994227 ) ;
#154 = DIRECTION ( 'NONE',  ( 1.000000000000000000, 0.000000000000000000, 0.000000000000000000 ) ) ;
#155 = CC_DESIGN_APPROVAL ( #404, ( #98 ) ) ;
#156 = PERSON_AND_ORGANIZATION ( #341, #137 ) ;
#157 = PRODUCT_DEFINITION_SHAPE ( 'NONE', 'NONE',  #77 ) ;
#158 = EDGE_CURVE ( 'NONE', #53, #326, #342, .T. ) ;
#159 = AXIS2_PLACEMENT_3D ( 'NONE', #353, #345, #457 ) ;
#160 = CIRCLE ( 'NONE', #4, 1.350000000000000089 ) ;
#161 = FACE_OUTER_BOUND ( 'NONE', #2, .T. ) ;
#162 = CARTESIAN_POINT ( 'NONE',  ( -1.409999999999999920, 1.726751986797768143E-16, 0.1900000000000002798 ) ) ;
#163 = DIRECTION ( 'NONE',  ( 1.000000000000000000, 0.000000000000000000, 0.000000000000000000 ) ) ;
#164 = CARTESIAN_POINT ( 'NONE',  ( -3.000000000000000444, 3.673940397442060361E-16, -0.1899999999999997524 ) ) ;
#165 = ORIENTED_EDGE ( 'NONE', *, *, #114, .T. ) ;
#166 = AXIS2_PLACEMENT_3D ( 'NONE', #191, #30, #167 ) ;
#167 = DIRECTION ( 'NONE',  ( 1.000000000000000000, 0.000000000000000000, 0.000000000000000000 ) ) ;
#168 = ADVANCED_FACE ( 'NONE', ( #266 ), #237, .F. ) ;
#169 = DIRECTION ( 'NONE',  ( 0.000000000000000000, 0.000000000000000000, -1.000000000000000000 ) ) ;
#170 = VERTEX_POINT ( 'NONE', #296 ) ;
#171 = APPLICATION_PROTOCOL_DEFINITION ( 'international standard', 'config_control_design', 1994, #207 ) ;
#172 = EDGE_CURVE ( 'NONE', #61, #326, #451, .T. ) ;
#173 = ORIENTED_EDGE ( 'NONE', *, *, #21, .T. ) ;
#174 =( LENGTH_UNIT ( ) NAMED_UNIT ( * ) SI_UNIT ( .MILLI., .METRE. ) );
#175 = AXIS2_PLACEMENT_3D ( 'NONE', #131, #128, #275 ) ;
#176 = CC_DESIGN_PERSON_AND_ORGANIZATION_ASSIGNMENT ( #147, #289, ( #98 ) ) ;
#177 = EDGE_LOOP ( 'NONE', ( #15, #448, #286, #282 ) ) ;
#178 = FACE_OUTER_BOUND ( 'NONE', #315, .T. ) ;
#179 = DIRECTION ( 'NONE',  ( 1.000000000000000000, 0.000000000000000000, 0.000000000000000000 ) ) ;
#180 = ORIENTED_EDGE ( 'NONE', *, *, #334, .F. ) ;
#181 = CARTESIAN_POINT ( 'NONE',  ( -1.350000000000000089, 1.653273178848926867E-16, 0.1900000000000002798 ) ) ;
#182 = DIRECTION ( 'NONE',  ( 1.000000000000000000, 0.000000000000000000, 0.000000000000000000 ) ) ;
#183 = AXIS2_PLACEMENT_3D ( 'NONE', #245, #67, #39 ) ;
#184 = DIRECTION ( 'NONE',  ( 0.000000000000000000, -1.000000000000000000, 0.000000000000000000 ) ) ;
#185 = LOCAL_TIME ( 13, 18, 8.000000000000000000, #291 ) ;
#186 = PERSON_AND_ORGANIZATION_ROLE ( 'creator' ) ;
#187 = FACE_OUTER_BOUND ( 'NONE', #177, .T. ) ;
#188 = VERTEX_POINT ( 'NONE', #430 ) ;
#189 = CARTESIAN_POINT ( 'NONE',  ( 0.000000000000000000, 0.000000000000000000, 0.2500000000000002776 ) ) ;
#190 = DATE_AND_TIME ( #263, #112 ) ;
#191 = CARTESIAN_POINT ( 'NONE',  ( 0.000000000000000000, 0.000000000000000000, 0.2500000000000002776 ) ) ;
#192 = AXIS2_PLACEMENT_3D ( 'NONE', #122, #26, #379 ) ;
#193 = DATE_AND_TIME ( #331, #300 ) ;
#194 = TOROIDAL_SURFACE ( 'NONE', #360, 1.409999999999999920, 0.05999999999999999778 ) ;
#195 = DIRECTION ( 'NONE',  ( 1.000000000000000000, 0.000000000000000000, 0.000000000000000000 ) ) ;
#196 = CARTESIAN_POINT ( 'NONE',  ( 2.940000000000000391, 0.000000000000000000, 0.1900000000000002798 ) ) ;
#197 = EDGE_CURVE ( 'NONE', #219, #260, #433, .T. ) ;
#198 = ORIENTED_EDGE ( 'NONE', *, *, #210, .T. ) ;
#199 = DIRECTION ( 'NONE',  ( 0.000000000000000000, 0.000000000000000000, 1.000000000000000000 ) ) ;
#200 = CARTESIAN_POINT ( 'NONE',  ( -2.940000000000000391, 3.600461589493218838E-16, 0.1900000000000002798 ) ) ;
#201 = ADVANCED_FACE ( 'NONE', ( #187 ), #402, .T. ) ;
#202 = ORIENTED_EDGE ( 'NONE', *, *, #302, .F. ) ;
#203 = AXIS2_PLACEMENT_3D ( 'NONE', #162, #236, #310 ) ;
#204 = CIRCLE ( 'NONE', #69, 2.940000000000000391 ) ;
#205 = DIRECTION ( 'NONE',  ( 0.000000000000000000, -1.000000000000000000, 0.000000000000000000 ) ) ;
#206 = ORIENTED_EDGE ( 'NONE', *, *, #13, .T. ) ;
#207 = APPLICATION_CONTEXT ( 'configuration controlled 3d designs of mechanical parts and assemblies' ) ;
#208 =( NAMED_UNIT ( * ) PLANE_ANGLE_UNIT ( ) SI_UNIT ( $, .RADIAN. ) );
#209 = ORIENTED_EDGE ( 'NONE', *, *, #319, .T. ) ;
#210 = EDGE_CURVE ( 'NONE', #61, #250, #226, .T. ) ;
#211 = CARTESIAN_POINT ( 'NONE',  ( 0.000000000000000000, 0.000000000000000000, 0.000000000000000000 ) ) ;
#212 = DIRECTION ( 'NONE',  ( -0.000000000000000000, -0.000000000000000000, -1.000000000000000000 ) ) ;
#213 = DIRECTION ( 'NONE',  ( -1.000000000000000000, 1.224646799147351482E-16, 0.000000000000000000 ) ) ;
#214 = CIRCLE ( 'NONE', #175, 3.000000000000000444 ) ;
#215 = CARTESIAN_POINT ( 'NONE',  ( 0.000000000000000000, 0.000000000000000000, -0.1899999999999997524 ) ) ;
#216 = ADVANCED_FACE ( 'NONE', ( #14 ), #31, .T. ) ;
#217 = ORIENTED_EDGE ( 'NONE', *, *, #297, .F. ) ;
#218 = DIRECTION ( 'NONE',  ( 1.224646799147353207E-16, 1.000000000000000000, -0.000000000000000000 ) ) ;
#219 = VERTEX_POINT ( 'NONE', #164 ) ;
#220 = AXIS2_PLACEMENT_3D ( 'NONE', #271, #336, #118 ) ;
#221 = VERTEX_POINT ( 'NONE', #305 ) ;
#222 = CALENDAR_DATE ( 2026, 30, 6 ) ;
#223 = ADVANCED_FACE ( 'NONE', ( #161 ), #194, .T. ) ;
#224 = EDGE_LOOP ( 'NONE', ( #134, #312, #288, #328 ) ) ;
#225 = CARTESIAN_POINT ( 'NONE',  ( 1.409999999999999920, 0.000000000000000000, 0.2500000000000002776 ) ) ;
#226 = CIRCLE ( 'NONE', #307, 1.409999999999999920 ) ;
#227 = CARTESIAN_POINT ( 'NONE',  ( 0.000000000000000000, 0.000000000000000000, -0.1899999999999997524 ) ) ;
#228 = ADVANCED_FACE ( 'NONE', ( #388 ), #238, .F. ) ;
#229 = DIRECTION ( 'NONE',  ( 1.000000000000000000, 0.000000000000000000, 0.000000000000000000 ) ) ;
#230 = APPLICATION_CONTEXT ( 'configuration controlled 3d designs of mechanical parts and assemblies' ) ;
#231 = EDGE_CURVE ( 'NONE', #426, #326, #88, .T. ) ;
#232 = ORIENTED_EDGE ( 'NONE', *, *, #84, .F. ) ;
#233 = DIRECTION ( 'NONE',  ( 0.000000000000000000, 0.000000000000000000, 1.000000000000000000 ) ) ;
#234 = APPROVAL_STATUS ( 'not_yet_approved' ) ;
#235 = AXIS2_PLACEMENT_3D ( 'NONE', #413, #89, #241 ) ;
#236 = DIRECTION ( 'NONE',  ( 1.224646799147353207E-16, 1.000000000000000000, -0.000000000000000000 ) ) ;
#237 = CYLINDRICAL_SURFACE ( 'NONE', #235, 1.350000000000000089 ) ;
#238 = CYLINDRICAL_SURFACE ( 'NONE', #424, 1.350000000000000089 ) ;
#239 = DIRECTION ( 'NONE',  ( 0.000000000000000000, 0.000000000000000000, 1.000000000000000000 ) ) ;
#240 = CARTESIAN_POINT ( 'NONE',  ( 2.940000000000000391, 0.000000000000000000, -0.1899999999999997524 ) ) ;
#241 = DIRECTION ( 'NONE',  ( 1.000000000000000000, 0.000000000000000000, 0.000000000000000000 ) ) ;
#242 = AXIS2_PLACEMENT_3D ( 'NONE', #62, #348, #85 ) ;
#243 = AXIS2_PLACEMENT_3D ( 'NONE', #313, #357, #142 ) ;
#244 = ORIENTED_EDGE ( 'NONE', *, *, #231, .T. ) ;
#245 = CARTESIAN_POINT ( 'NONE',  ( 0.000000000000000000, 0.000000000000000000, 0.1900000000000002798 ) ) ;
#246 = VERTEX_POINT ( 'NONE', #59 ) ;
#247 = DIRECTION ( 'NONE',  ( 0.000000000000000000, 0.000000000000000000, 1.000000000000000000 ) ) ;
#248 = ADVANCED_FACE ( 'NONE', ( #446, #267 ), #377, .F. ) ;
#249 = AXIS2_PLACEMENT_3D ( 'NONE', #200, #55, #60 ) ;
#250 = VERTEX_POINT ( 'NONE', #94 ) ;
#251 = CARTESIAN_POINT ( 'NONE',  ( -1.350000000000000089, 1.653273178848926867E-16, -0.2499999999999997224 ) ) ;
#252 = PLANE ( 'NONE',  #373 ) ;
#253 = EDGE_CURVE ( 'NONE', #64, #152, #204, .T. ) ;
#254 = ORIENTED_EDGE ( 'NONE', *, *, #335, .F. ) ;
#255 = DIRECTION ( 'NONE',  ( 0.000000000000000000, 0.000000000000000000, 1.000000000000000000 ) ) ;
#256 = SECURITY_CLASSIFICATION_LEVEL ( 'unclassified' ) ;
#257 = EDGE_CURVE ( 'NONE', #260, #64, #285, .T. ) ;
#258 = AXIS2_PLACEMENT_3D ( 'NONE', #410, #303, #120 ) ;
#259 = AXIS2_PLACEMENT_3D ( 'NONE', #70, #45, #1 ) ;
#260 = VERTEX_POINT ( 'NONE', #450 ) ;
#261 = ADVANCED_FACE ( 'NONE', ( #129 ), #111, .T. ) ;
#262 = CARTESIAN_POINT ( 'NONE',  ( 0.000000000000000000, 0.000000000000000000, -0.1899999999999997524 ) ) ;
#263 = CALENDAR_DATE ( 2026, 30, 6 ) ;
#264 = CARTESIAN_POINT ( 'NONE',  ( 1.409999999999999920, 0.000000000000000000, -0.1899999999999997524 ) ) ;
#265 = VERTEX_POINT ( 'NONE', #346 ) ;
#266 = FACE_OUTER_BOUND ( 'NONE', #356, .T. ) ;
#267 = FACE_BOUND ( 'NONE', #40, .T. ) ;
#268 = AXIS2_PLACEMENT_3D ( 'NONE', #264, #411, #386 ) ;
#269 = SECURITY_CLASSIFICATION ( '', '', #256 ) ;
#270 = CARTESIAN_POINT ( 'NONE',  ( 0.000000000000000000, 0.000000000000000000, -0.2499999999999997224 ) ) ;
#271 = CARTESIAN_POINT ( 'NONE',  ( 0.000000000000000000, 0.000000000000000000, 0.1900000000000002798 ) ) ;
#272 = DIRECTION ( 'NONE',  ( -1.000000000000000000, 1.224646799147355672E-16, 0.000000000000000000 ) ) ;
#273 = DIRECTION ( 'NONE',  ( 0.000000000000000000, 0.000000000000000000, 1.000000000000000000 ) ) ;
#274 = ORIENTED_EDGE ( 'NONE', *, *, #3, .F. ) ;
#275 = DIRECTION ( 'NONE',  ( 1.000000000000000000, 0.000000000000000000, 0.000000000000000000 ) ) ;
#276 = ADVANCED_FACE ( 'NONE', ( #419 ), #58, .T. ) ;
#277 = EDGE_LOOP ( 'NONE', ( #232, #173, #392, #436 ) ) ;
#278 = AXIS2_PLACEMENT_3D ( 'NONE', #349, #406, #195 ) ;
#279 = CARTESIAN_POINT ( 'NONE',  ( -1.350000000000000089, 1.653273178848926867E-16, -0.1899999999999997524 ) ) ;
#280 = APPROVAL_PERSON_ORGANIZATION ( #87, #404, #372 ) ;
#281 = DIRECTION ( 'NONE',  ( 1.000000000000000000, 0.000000000000000000, -0.000000000000000000 ) ) ;
#282 = ORIENTED_EDGE ( 'NONE', *, *, #231, .F. ) ;
#283 = EDGE_CURVE ( 'NONE', #170, #221, #292, .T. ) ;
#284 = APPROVAL_ROLE ( '' ) ;
#285 = CIRCLE ( 'NONE', #249, 0.06000000000000015737 ) ;
#286 = ORIENTED_EDGE ( 'NONE', *, *, #172, .T. ) ;
#287 = COORDINATED_UNIVERSAL_TIME_OFFSET ( 6, 0, .BEHIND. ) ;
#288 = ORIENTED_EDGE ( 'NONE', *, *, #158, .T. ) ;
#289 = PERSON_AND_ORGANIZATION_ROLE ( 'design_supplier' ) ;
#290 = ORIENTED_EDGE ( 'NONE', *, *, #351, .F. ) ;
#291 = COORDINATED_UNIVERSAL_TIME_OFFSET ( 6, 0, .BEHIND. ) ;
#292 = CIRCLE ( 'NONE', #66, 0.05999999999999999778 ) ;
#293 = CC_DESIGN_APPROVAL ( #362, ( #77 ) ) ;
#294 = ORIENTED_EDGE ( 'NONE', *, *, #283, .F. ) ;
#295 = CALENDAR_DATE ( 2026, 30, 6 ) ;
#296 = CARTESIAN_POINT ( 'NONE',  ( 2.940000000000000391, 0.000000000000000000, -0.2499999999999997224 ) ) ;
#297 = EDGE_CURVE ( 'NONE', #53, #188, #54, .T. ) ;
#298 = CLOSED_SHELL ( 'NONE', ( #133, #261, #216, #393, #168, #437, #374, #248, #416, #228, #32, #276, #201, #223 ) ) ;
#299 = AXIS2_PLACEMENT_3D ( 'NONE', #215, #364, #396 ) ;
#300 = LOCAL_TIME ( 13, 18, 8.000000000000000000, #339 ) ;
#301 = DIRECTION ( 'NONE',  ( 1.000000000000000000, 0.000000000000000000, 0.000000000000000000 ) ) ;
#302 = EDGE_CURVE ( 'NONE', #432, #188, #316, .T. ) ;
#303 = DIRECTION ( 'NONE',  ( 0.000000000000000000, 0.000000000000000000, 1.000000000000000000 ) ) ;
#304 = DIRECTION ( 'NONE',  ( 1.000000000000000000, 0.000000000000000000, 0.000000000000000000 ) ) ;
#305 = CARTESIAN_POINT ( 'NONE',  ( 3.000000000000000444, 0.000000000000000000, -0.1899999999999997524 ) ) ;
#306 = AXIS2_PLACEMENT_3D ( 'NONE', #41, #376, #434 ) ;
#307 = AXIS2_PLACEMENT_3D ( 'NONE', #103, #365, #332 ) ;
#308 = LINE ( 'NONE', #414, #136 ) ;
#309 = ORIENTED_EDGE ( 'NONE', *, *, #158, .F. ) ;
#310 = DIRECTION ( 'NONE',  ( -1.000000000000000000, 1.224646799147355672E-16, 0.000000000000000000 ) ) ;
#311 = CARTESIAN_POINT ( 'NONE',  ( 0.000000000000000000, 0.000000000000000000, 0.1900000000000002798 ) ) ;
#312 = ORIENTED_EDGE ( 'NONE', *, *, #107, .T. ) ;
#313 = CARTESIAN_POINT ( 'NONE',  ( 0.000000000000000000, 0.000000000000000000, -0.2499999999999997224 ) ) ;
#314 = PRODUCT_RELATED_PRODUCT_CATEGORY ( 'detail', '', ( #344 ) ) ;
#315 = EDGE_LOOP ( 'NONE', ( #209, #7 ) ) ;
#316 = CIRCLE ( 'NONE', #278, 1.409999999999999920 ) ;
#317 = DIRECTION ( 'NONE',  ( 1.000000000000000000, 0.000000000000000000, 0.000000000000000000 ) ) ;
#318 = ADVANCED_BREP_SHAPE_REPRESENTATION ( '93475A196_18-8 Stainless Steel General Purpose Washer', ( #330, #403 ), #369 ) ;
#319 = EDGE_CURVE ( 'NONE', #152, #64, #82, .T. ) ;
#320 = CARTESIAN_POINT ( 'NONE',  ( -2.940000000000000391, 3.600461589493218838E-16, -0.1899999999999997524 ) ) ;
#321 = ORIENTED_EDGE ( 'NONE', *, *, #197, .T. ) ;
#322 = CC_DESIGN_DATE_AND_TIME_ASSIGNMENT ( #445, #435, ( #269 ) ) ;
#323 = PERSON_AND_ORGANIZATION ( #341, #137 ) ;
#324 = ORIENTED_EDGE ( 'NONE', *, *, #283, .T. ) ;
#325 = AXIS2_PLACEMENT_3D ( 'NONE', #320, #218, #213 ) ;
#326 = VERTEX_POINT ( 'NONE', #25 ) ;
#327 = APPROVAL_DATE_TIME ( #378, #404 ) ;
#328 = ORIENTED_EDGE ( 'NONE', *, *, #453, .T. ) ;
#329 = ORIENTED_EDGE ( 'NONE', *, *, #20, .F. ) ;
#330 = MANIFOLD_SOLID_BREP ( 'Fillet1', #298 ) ;
#331 = CALENDAR_DATE ( 2026, 30, 6 ) ;
#332 = DIRECTION ( 'NONE',  ( 1.000000000000000000, 0.000000000000000000, 0.000000000000000000 ) ) ;
#333 = TOROIDAL_SURFACE ( 'NONE', #258, 1.409999999999999920, 0.05999999999999999778 ) ;
#334 = EDGE_CURVE ( 'NONE', #221, #265, #308, .T. ) ;
#335 = EDGE_CURVE ( 'NONE', #265, #260, #415, .T. ) ;
#336 = DIRECTION ( 'NONE',  ( 0.000000000000000000, 0.000000000000000000, 1.000000000000000000 ) ) ;
#337 = AXIS2_PLACEMENT_3D ( 'NONE', #385, #126, #92 ) ;
#338 = AXIS2_PLACEMENT_3D ( 'NONE', #270, #417, #91 ) ;
#339 = COORDINATED_UNIVERSAL_TIME_OFFSET ( 6, 0, .BEHIND. ) ;
#340 = DIRECTION ( 'NONE',  ( 1.000000000000000000, 0.000000000000000000, 0.000000000000000000 ) ) ;
#341 = PERSON ( 'UNSPECIFIED', 'UNSPECIFIED', 'UNSPECIFIED', ('UNSPECIFIED'), ('UNSPECIFIED'), ('UNSPECIFIED') ) ;
#342 = LINE ( 'NONE', #24, #439 ) ;
#343 = DIRECTION ( 'NONE',  ( 0.000000000000000000, 0.000000000000000000, 1.000000000000000000 ) ) ;
#344 = PRODUCT ( '93475A196_18-8 Stainless Steel General Purpose Washer', '93475A196_18-8 Stainless Steel General Purpose Washer', '', ( #135 ) ) ;
#345 = DIRECTION ( 'NONE',  ( 0.000000000000000000, 0.000000000000000000, 1.000000000000000000 ) ) ;
#346 = CARTESIAN_POINT ( 'NONE',  ( 3.000000000000000444, 0.000000000000000000, 0.1900000000000002798 ) ) ;
#347 = ORIENTED_EDGE ( 'NONE', *, *, #447, .T. ) ;
#348 = DIRECTION ( 'NONE',  ( -0.000000000000000000, -0.000000000000000000, -1.000000000000000000 ) ) ;
#349 = CARTESIAN_POINT ( 'NONE',  ( 0.000000000000000000, 0.000000000000000000, -0.2499999999999997224 ) ) ;
#350 = ORIENTED_EDGE ( 'NONE', *, *, #257, .F. ) ;
#351 = EDGE_CURVE ( 'NONE', #265, #152, #352, .T. ) ;
#352 = CIRCLE ( 'NONE', #124, 0.05999999999999999778 ) ;
#353 = CARTESIAN_POINT ( 'NONE',  ( 0.000000000000000000, 0.000000000000000000, 0.1900000000000002798 ) ) ;
#354 = LOCAL_TIME ( 13, 18, 8.000000000000000000, #408 ) ;
#355 = DIRECTION ( 'NONE',  ( 0.000000000000000000, 0.000000000000000000, 1.000000000000000000 ) ) ;
#356 = EDGE_LOOP ( 'NONE', ( #206, #165, #244, #309 ) ) ;
#357 = DIRECTION ( 'NONE',  ( 0.000000000000000000, 0.000000000000000000, 1.000000000000000000 ) ) ;
#358 = ORIENTED_EDGE ( 'NONE', *, *, #334, .T. ) ;
#359 = FACE_BOUND ( 'NONE', #455, .T. ) ;
#360 = AXIS2_PLACEMENT_3D ( 'NONE', #63, #418, #229 ) ;
#361 = PERSON_AND_ORGANIZATION ( #341, #137 ) ;
#362 = APPROVAL ( #8, 'UNSPECIFIED' ) ;
#363 = EDGE_LOOP ( 'NONE', ( #398, #105, #329, #294 ) ) ;
#364 = DIRECTION ( 'NONE',  ( 0.000000000000000000, 0.000000000000000000, 1.000000000000000000 ) ) ;
#365 = DIRECTION ( 'NONE',  ( -0.000000000000000000, -0.000000000000000000, -1.000000000000000000 ) ) ;
#366 = ORIENTED_EDGE ( 'NONE', *, *, #319, .F. ) ;
#367 = APPROVAL_STATUS ( 'not_yet_approved' ) ;
#368 = VECTOR ( 'NONE', #199, 1000.000000000000000 ) ;
#369 =( GEOMETRIC_REPRESENTATION_CONTEXT ( 3 ) GLOBAL_UNCERTAINTY_ASSIGNED_CONTEXT ( ( #443 ) ) GLOBAL_UNIT_ASSIGNED_CONTEXT ( ( #174, #208, #96 ) ) REPRESENTATION_CONTEXT ( 'NONE', 'WORKASPACE' ) );
#370 = DIRECTION ( 'NONE',  ( 0.000000000000000000, 0.000000000000000000, -1.000000000000000000 ) ) ;
#371 = ORIENTED_EDGE ( 'NONE', *, *, #57, .T. ) ;
#372 = APPROVAL_ROLE ( '' ) ;
#373 = AXIS2_PLACEMENT_3D ( 'NONE', #132, #144, #281 ) ;
#374 = ADVANCED_FACE ( 'NONE', ( #397 ), #391, .T. ) ;
#375 = CC_DESIGN_SECURITY_CLASSIFICATION ( #269, ( #98 ) ) ;
#376 = DIRECTION ( 'NONE',  ( 0.000000000000000000, 0.000000000000000000, 1.000000000000000000 ) ) ;
#377 = PLANE ( 'NONE',  #337 ) ;
#378 = DATE_AND_TIME ( #222, #6 ) ;
#379 = DIRECTION ( 'NONE',  ( 1.000000000000000000, 0.000000000000000000, 0.000000000000000000 ) ) ;
#380 = CC_DESIGN_PERSON_AND_ORGANIZATION_ASSIGNMENT ( #12, #438, ( #98 ) ) ;
#381 = CARTESIAN_POINT ( 'NONE',  ( 0.000000000000000000, 0.000000000000000000, 0.1900000000000002798 ) ) ;
#382 = AXIS2_PLACEMENT_3D ( 'NONE', #27, #449, #272 ) ;
#383 = APPROVAL_PERSON_ORGANIZATION ( #156, #407, #119 ) ;
#384 = FACE_OUTER_BOUND ( 'NONE', #440, .T. ) ;
#385 = CARTESIAN_POINT ( 'NONE',  ( 0.000000000000000000, 0.000000000000000000, -0.2499999999999997224 ) ) ;
#386 = DIRECTION ( 'NONE',  ( 0.000000000000000000, 0.000000000000000000, -1.000000000000000000 ) ) ;
#387 = CARTESIAN_POINT ( 'NONE',  ( 1.350000000000000089, 0.000000000000000000, -0.1899999999999997524 ) ) ;
#388 = FACE_OUTER_BOUND ( 'NONE', #224, .T. ) ;
#389 = ORIENTED_EDGE ( 'NONE', *, *, #107, .F. ) ;
#390 = AXIS2_PLACEMENT_3D ( 'NONE', #311, #444, #301 ) ;
#391 = CYLINDRICAL_SURFACE ( 'NONE', #427, 3.000000000000000444 ) ;
#392 = ORIENTED_EDGE ( 'NONE', *, *, #453, .F. ) ;
#393 = ADVANCED_FACE ( 'NONE', ( #35 ), #11, .T. ) ;
#394 = CYLINDRICAL_SURFACE ( 'NONE', #243, 3.000000000000000444 ) ;
#395 = ORIENTED_EDGE ( 'NONE', *, *, #257, .T. ) ;
#396 = DIRECTION ( 'NONE',  ( 1.000000000000000000, 0.000000000000000000, 0.000000000000000000 ) ) ;
#397 = FACE_OUTER_BOUND ( 'NONE', #108, .T. ) ;
#398 = ORIENTED_EDGE ( 'NONE', *, *, #138, .F. ) ;
#399 = CARTESIAN_POINT ( 'NONE',  ( 0.000000000000000000, 0.000000000000000000, 0.1900000000000002798 ) ) ;
#400 = CALENDAR_DATE ( 2026, 30, 6 ) ;
#401 = CC_DESIGN_PERSON_AND_ORGANIZATION_ASSIGNMENT ( #431, #186, ( #77 ) ) ;
#402 = TOROIDAL_SURFACE ( 'NONE', #405, 1.409999999999999920, 0.05999999999999999778 ) ;
#403 = AXIS2_PLACEMENT_3D ( 'NONE', #211, #36, #317 ) ;
#404 = APPROVAL ( #367, 'UNSPECIFIED' ) ;
#405 = AXIS2_PLACEMENT_3D ( 'NONE', #399, #100, #179 ) ;
#406 = DIRECTION ( 'NONE',  ( 0.000000000000000000, 0.000000000000000000, 1.000000000000000000 ) ) ;
#407 = APPROVAL ( #234, 'UNSPECIFIED' ) ;
#408 = COORDINATED_UNIVERSAL_TIME_OFFSET ( 6, 0, .BEHIND. ) ;
#409 = ORIENTED_EDGE ( 'NONE', *, *, #302, .T. ) ;
#410 = CARTESIAN_POINT ( 'NONE',  ( 0.000000000000000000, 0.000000000000000000, -0.1899999999999997524 ) ) ;
#411 = DIRECTION ( 'NONE',  ( 0.000000000000000000, -1.000000000000000000, 0.000000000000000000 ) ) ;
#412 = DATE_TIME_ROLE ( 'creation_date' ) ;
#413 = CARTESIAN_POINT ( 'NONE',  ( 0.000000000000000000, 0.000000000000000000, -0.2499999999999997224 ) ) ;
#414 = CARTESIAN_POINT ( 'NONE',  ( 3.000000000000000444, 0.000000000000000000, -0.2499999999999997224 ) ) ;
#415 = CIRCLE ( 'NONE', #78, 3.000000000000000444 ) ;
#416 = ADVANCED_FACE ( 'NONE', ( #178, #359 ), #252, .T. ) ;
#417 = DIRECTION ( 'NONE',  ( -0.000000000000000000, -0.000000000000000000, -1.000000000000000000 ) ) ;
#418 = DIRECTION ( 'NONE',  ( 0.000000000000000000, 0.000000000000000000, 1.000000000000000000 ) ) ;
#419 = FACE_OUTER_BOUND ( 'NONE', #143, .T. ) ;
#420 = CC_DESIGN_PERSON_AND_ORGANIZATION_ASSIGNMENT ( #51, #109, ( #269 ) ) ;
#421 = ORIENTED_EDGE ( 'NONE', *, *, #148, .T. ) ;
#422 = EDGE_LOOP ( 'NONE', ( #9, #395, #366, #290 ) ) ;
#423 = VERTEX_POINT ( 'NONE', #279 ) ;
#424 = AXIS2_PLACEMENT_3D ( 'NONE', #454, #86, #304 ) ;
#425 = PERSON_AND_ORGANIZATION_ROLE ( 'design_owner' ) ;
#426 = VERTEX_POINT ( 'NONE', #181 ) ;
#427 = AXIS2_PLACEMENT_3D ( 'NONE', #106, #247, #182 ) ;
#428 = LINE ( 'NONE', #251, #368 ) ;
#429 = ORIENTED_EDGE ( 'NONE', *, *, #351, .T. ) ;
#430 = CARTESIAN_POINT ( 'NONE',  ( 1.409999999999999920, 0.000000000000000000, -0.2499999999999997224 ) ) ;
#431 = PERSON_AND_ORGANIZATION ( #341, #137 ) ;
#432 = VERTEX_POINT ( 'NONE', #72 ) ;
#433 = LINE ( 'NONE', #52, #146 ) ;
#434 = DIRECTION ( 'NONE',  ( 1.000000000000000000, 0.000000000000000000, 0.000000000000000000 ) ) ;
#435 = DATE_TIME_ROLE ( 'classification_date' ) ;
#436 = ORIENTED_EDGE ( 'NONE', *, *, #172, .F. ) ;
#437 = ADVANCED_FACE ( 'NONE', ( #102 ), #394, .T. ) ;
#438 = PERSON_AND_ORGANIZATION_ROLE ( 'creator' ) ;
#439 = VECTOR ( 'NONE', #239, 1000.000000000000000 ) ;
#440 = EDGE_LOOP ( 'NONE', ( #350, #254, #429, #43 ) ) ;
#441 = CARTESIAN_POINT ( 'NONE',  ( 0.000000000000000000, 0.000000000000000000, -0.1899999999999997524 ) ) ;
#442 = EDGE_CURVE ( 'NONE', #246, #219, #76, .T. ) ;
#443 = UNCERTAINTY_MEASURE_WITH_UNIT (LENGTH_MEASURE( 1.000000000000000082E-05 ), #174, 'distance_accuracy_value', 'NONE');
#444 = DIRECTION ( 'NONE',  ( 0.000000000000000000, 0.000000000000000000, 1.000000000000000000 ) ) ;
#445 = DATE_AND_TIME ( #400, #354 ) ;
#446 = FACE_OUTER_BOUND ( 'NONE', #5, .T. ) ;
#447 = EDGE_CURVE ( 'NONE', #219, #221, #49, .T. ) ;
#448 = ORIENTED_EDGE ( 'NONE', *, *, #210, .F. ) ;
#449 = DIRECTION ( 'NONE',  ( 1.224646799147353207E-16, 1.000000000000000000, -0.000000000000000000 ) ) ;
#450 = CARTESIAN_POINT ( 'NONE',  ( -3.000000000000000444, 3.673940397442060361E-16, 0.1900000000000002798 ) ) ;
#451 = CIRCLE ( 'NONE', #19, 0.05999999999999999778 ) ;
#452 = CC_DESIGN_APPROVAL ( #407, ( #269 ) ) ;
#453 = EDGE_CURVE ( 'NONE', #326, #426, #97, .T. ) ;
#454 = CARTESIAN_POINT ( 'NONE',  ( 0.000000000000000000, 0.000000000000000000, -0.2499999999999997224 ) ) ;
#455 = EDGE_LOOP ( 'NONE', ( #198, #73 ) ) ;
#456 = DESIGN_CONTEXT ( 'detailed design', #230, 'design' ) ;
#457 = DIRECTION ( 'NONE',  ( 1.000000000000000000, 0.000000000000000000, 0.000000000000000000 ) ) ;
ENDSEC;
END-ISO-10303-21;
