%
M48
M72
T01C0.1910
T02C0.0787
T03C0.1260
T04C0.0330
T05C0.0315
T06C0.0354
T07C0.0276
%
T01
X241Y283
X241Y4383
X5841Y4383
X5841Y283
T02
X4441Y4033
X4241Y4033
X3841Y4033
X3641Y4033
T03
X3741Y4333
X4341Y4333
T04
X4341Y4133
X4266Y4133
X4416Y4133
T05
X3791Y4133
X3691Y4133
X4641Y3173
X4711Y3173
X4641Y3053
X4641Y2913
X4569Y2805
X4289Y2675
X3239Y1548
X3471Y1388
X3519Y1328
X3241Y1031
X3241Y933
X3049Y1338
X2571Y543
X2471Y543
X2471Y243
X2571Y243
X1841Y835
X1541Y835
X1341Y1033
X1241Y1033
X1541Y1135
X1541Y1335
X1341Y1333
X1241Y1333
X1541Y1535
X1841Y1535
X1841Y1335
X1841Y1135
T06
X1801Y1698
X1596Y1698
X1591Y1938
X1801Y1938
X1591Y2293
X1591Y2393
X1491Y2393
X1491Y2293
X1491Y2493
X1491Y2593
X1491Y2693
X1491Y2793
X1491Y2893
X1491Y2993
X1591Y2993
X1591Y2893
X1591Y2793
X1591Y2693
X1591Y2593
X1591Y2493
X1591Y3093
X1591Y3193
X1491Y3193
X1491Y3093
X2711Y3533
X2711Y3633
X2711Y3733
X2811Y3733
X2811Y3633
X2811Y3533
X3191Y3383
X3191Y3283
X3231Y3853
X3051Y3853
X2811Y3833
X2811Y3933
X2711Y3933
X2711Y3833
X3401Y3953
X4911Y3663
X4911Y3573
X5051Y3723
X5441Y3683
X5441Y3783
X5541Y3783
X5541Y3683
X5541Y3583
X5441Y3583
X5441Y3483
X5541Y3483
X5541Y3383
X5441Y3383
X5441Y3283
X5541Y3283
X5541Y3183
X5441Y3183
X5241Y3073
X5101Y3173
X5441Y2683
X5541Y2683
X5541Y2583
X5441Y2583
X5441Y2483
X5541Y2483
X5541Y2383
X5441Y2383
X5441Y2283
X5541Y2283
X5541Y2183
X5441Y2183
X5441Y2083
X5541Y2083
X5541Y1983
X5441Y1983
X5441Y1733
X5681Y1733
X5541Y1483
X5441Y1483
X5441Y1383
X5541Y1383
X5541Y1283
X5441Y1283
X5441Y1183
X5541Y1183
X5541Y1083
X5441Y1083
X5441Y983
X5541Y983
X5541Y883
X5441Y883
X5441Y783
X5541Y783
X5251Y573
X5251Y393
X5401Y243
X4521Y643
X4241Y793
X4061Y793
X4911Y1173
X4911Y1263
X5051Y1323
X5131Y2013
X5041Y2083
X4951Y2013
X5041Y2303
X5041Y2543
X4861Y2553
X5441Y3883
X5541Y3883
X5761Y3933
X5261Y4093
X5261Y4273
X5401Y4423
X3066Y678
X2931Y473
X2931Y293
X1541Y283
X1176Y448
X1176Y538
X1051Y683
X1041Y213
T07
X521Y733
X421Y733
X311Y873
X261Y1053
X361Y1053
X761Y1053
X861Y1053
X961Y853
X771Y803
X1441Y933
X1241Y1443
X831Y1673
X821Y1903
X921Y1903
X961Y2053
X751Y2053
X741Y2163
X641Y2163
X351Y2013
X161Y2013
X181Y2193
X301Y2463
X401Y2463
X181Y2623
X161Y2753
X341Y2913
X421Y3053
X521Y3053
X311Y3193
X261Y3373
X361Y3373
X761Y3373
X861Y3373
X961Y3173
X771Y3123
X741Y2913
X961Y2913
X961Y2693
X1071Y2693
X901Y2463
X801Y2463
X961Y2263
X1071Y2363
X1121Y2253
X1401Y2003
X1361Y1833
X2111Y1783
X2091Y1643
X2091Y1503
X2091Y1403
X2161Y1273
X2261Y1273
X2211Y1123
X2581Y1023
X2661Y1273
X2761Y1273
X2941Y1138
X2979Y1235
X3049Y1133
X3051Y983
X2941Y933
X2941Y833
X3241Y1233
X3344Y1233
X3441Y1233
X3566Y1083
X3616Y1005
X3616Y930
X3606Y845
X3706Y845
X3809Y878
X3896Y905
X3996Y905
X3856Y1023
X3756Y1023
X3666Y1083
X3669Y1175
X3754Y1233
X3669Y1290
X3716Y1405
X3616Y1405
X3616Y1508
X3716Y1508
X3829Y1598
X3909Y1653
X3829Y1708
X3919Y1763
X3856Y1838
X3856Y1938
X3959Y1893
X4059Y1893
X4109Y1710
X4009Y1653
X3919Y1535
X3906Y1440
X4006Y1440
X4044Y1323
X3956Y1293
X3854Y1233
X4144Y1323
X4189Y1428
X4289Y1428
X4479Y1418
X4591Y1483
X4591Y1583
X4339Y1600
X4239Y1600
X4236Y1710
X4339Y1710
X4354Y1813
X4306Y1923
X4266Y1973
X4349Y2015
X4541Y1960
X4541Y1860
X4944Y2110
X4716Y2490
X4616Y2493
X4271Y2448
X4271Y2545
X4194Y2673
X3959Y2673
X3859Y2673
X3759Y2673
X3674Y2653
X3674Y2553
X3579Y2443
X3581Y2353
X3579Y2215
X3679Y2215
X3761Y2215
X3861Y2215
X3961Y2215
X4079Y2188
X4146Y2188
X4094Y2350
X4271Y2348
X3814Y2353
X3436Y2100
X3336Y2100
X3656Y1848
X3261Y1773
X3261Y1673
X3056Y1645
X3014Y1695
X3056Y1745
X3014Y1798
X3056Y1845
X3014Y1895
X2711Y2223
X2891Y2360
X2991Y2360
X3189Y2540
X3371Y2500
X3371Y2445
X3371Y2385
X3341Y2683
X3281Y2783
X3171Y2833
X3171Y2933
X3281Y2923
X3136Y3133
X3291Y3283
X3391Y3283
X3391Y3383
X3391Y3483
X3491Y3433
X3531Y3313
X3631Y3313
X3636Y3243
X3719Y3210
X3719Y3113
X3818Y3194
X3961Y3238
X4061Y3113
X4061Y3013
X4034Y2860
X3859Y3063
X3611Y3038
X3566Y2993
X3541Y2918
X3496Y3133
X2921Y3373
X2731Y3373
X2901Y3193
X2781Y2923
X2681Y2923
X2901Y2763
X2921Y2633
X3041Y2683
X2741Y2473
X2341Y2473
X2121Y2473
X2121Y2693
X2011Y2693
X2181Y2923
X2281Y2923
X2121Y3123
X2011Y3023
X2341Y3223
X2441Y3223
X2331Y3333
X2121Y3333
X2161Y3593
X2061Y3593
X1921Y3593
X1781Y3613
X1641Y3753
X1501Y3783
X1501Y3883
X1641Y3963
X1821Y3803
X1501Y3613
X1341Y3623
X1171Y3333
X831Y3993
X821Y4223
X921Y4223
X1191Y4403
X1341Y4213
X601Y4403
X371Y4073
X191Y3923
X321Y3763
X2291Y3763
X2291Y3663
X2441Y3713
X2541Y4083
X2291Y4163
X2291Y4263
X2381Y4443
X3571Y4473
X3571Y4233
X4041Y4373
X4041Y4473
X4011Y3633
X4501Y3203
X4389Y3138
X4389Y3038
X4666Y2983
X5001Y2833
X3049Y1488
X3439Y1043
X3439Y973
X3509Y783
X3589Y728
X3564Y648
X3464Y648
X3741Y645
X2301Y1743
X2251Y1923
X2281Y2063
X2381Y2063
X2461Y1923
X2111Y2063
X2121Y2223
X371Y1753
X191Y1603
X321Y1443
M30
