ISO-10303-21;
HEADER;
FILE_DESCRIPTION(('Creo Elements/Direct Modeling STEP Export'),'2;1');
FILE_NAME(
'C:/temp/JobSpoolerServerData/JobServer Files/59b414ee-d08b-4a31-b405-60
fc9af73807/work/output/model.stp','2020-01-16T11:59:22',(''),(''),
'Creo Elements/Direct Modeling STEP processor for AP214 (Solid Model)',
'Creo Elements/Direct Modeling 20.1A  29-Sep-2018 (C) Parametric Technol
ogy GmbH','');
FILE_SCHEMA(('AUTOMOTIVE_DESIGN { 1 0 10303 214 1 1 1 1 }'));
ENDSEC;
DATA;
#10=CARTESIAN_POINT('',(107.53890173317,-45.0251147901442,0.));
#20=DIRECTION('',(-0.,-1.,-0.));
#30=DIRECTION('',(-1.,0.,0.));
#40=AXIS2_PLACEMENT_3D('',#10,#20,#30);
#50=PLANE('',#40);
#60=CARTESIAN_POINT('',(104.338901733169,-45.0251147901442,-200.));
#70=DIRECTION('',(0.,0.,-1.));
#80=VECTOR('',#70,1.);
#90=LINE('',#60,#80);
#100=CARTESIAN_POINT('',(104.338901733169,-45.0251147901442,87.5));
#110=VERTEX_POINT('',#100);
#120=CARTESIAN_POINT('',(104.338901733169,-45.0251147901442,37.5));
#130=VERTEX_POINT('',#120);
#140=EDGE_CURVE('',#110,#130,#90,.T.);
#150=ORIENTED_EDGE('',*,*,#140,.T.);
#160=CARTESIAN_POINT('',(0.,-45.0251147901442,87.5));
#170=DIRECTION('',(-1.,0.,0.));
#180=VECTOR('',#170,1.);
#190=LINE('',#160,#180);
#200=CARTESIAN_POINT('',(107.53890173317,-45.0251147901442,87.5));
#210=VERTEX_POINT('',#200);
#220=EDGE_CURVE('',#210,#110,#190,.T.);
#230=ORIENTED_EDGE('',*,*,#220,.T.);
#240=CARTESIAN_POINT('',(107.53890173317,-45.0251147901442,0.));
#250=DIRECTION('',(0.,0.,-1.));
#260=VECTOR('',#250,1.);
#270=LINE('',#240,#260);
#280=CARTESIAN_POINT('',(107.53890173317,-45.0251147901442,37.5));
#290=VERTEX_POINT('',#280);
#300=EDGE_CURVE('',#210,#290,#270,.T.);
#310=ORIENTED_EDGE('',*,*,#300,.F.);
#320=CARTESIAN_POINT('',(0.,-45.0251147901442,37.5));
#330=DIRECTION('',(1.,0.,0.));
#340=VECTOR('',#330,1.);
#350=LINE('',#320,#340);
#360=EDGE_CURVE('',#130,#290,#350,.T.);
#370=ORIENTED_EDGE('',*,*,#360,.T.);
#380=EDGE_LOOP('',(#370,#310,#230,#150));
#390=FACE_OUTER_BOUND('',#380,.T.);
#400=ADVANCED_FACE('',(#390),#50,.T.);
#410=COLOUR_RGB('',0.823529481887817,0.823529481887817,0.784313797950745
);
#420=FILL_AREA_STYLE_COLOUR('',#410);
#430=FILL_AREA_STYLE('',(#420));
#440=SURFACE_STYLE_FILL_AREA(#430);
#450=SURFACE_SIDE_STYLE('',(#440));
#460=SURFACE_STYLE_USAGE(.BOTH.,#450);
#470=PRESENTATION_STYLE_ASSIGNMENT((#460));
#480=CARTESIAN_POINT('',(108.338901733169,-49.7251147901443,0.));
#490=DIRECTION('',(-1.,0.,0.));
#500=DIRECTION('',(0.,1.,0.));
#510=AXIS2_PLACEMENT_3D('',#480,#490,#500);
#520=PLANE('',#510);
#530=CARTESIAN_POINT('',(108.338901733169,-45.8251147901442,0.));
#540=DIRECTION('',(0.,0.,-1.));
#550=VECTOR('',#540,1.);
#560=LINE('',#530,#550);
#570=CARTESIAN_POINT('',(108.338901733169,-45.8251147901442,87.5));
#580=VERTEX_POINT('',#570);
#590=CARTESIAN_POINT('',(108.338901733169,-45.8251147901442,37.5));
#600=VERTEX_POINT('',#590);
#610=EDGE_CURVE('',#580,#600,#560,.T.);
#620=ORIENTED_EDGE('',*,*,#610,.T.);
#630=CARTESIAN_POINT('',(108.338901733169,0.,87.5));
#640=DIRECTION('',(0.,1.,0.));
#650=VECTOR('',#640,1.);
#660=LINE('',#630,#650);
#670=CARTESIAN_POINT('',(108.338901733169,-51.5251147901442,87.5));
#680=VERTEX_POINT('',#670);
#690=EDGE_CURVE('',#680,#580,#660,.T.);
#700=ORIENTED_EDGE('',*,*,#690,.T.);
#710=CARTESIAN_POINT('',(108.338901733169,-51.5251147901442,0.));
#720=DIRECTION('',(0.,0.,-1.));
#730=VECTOR('',#720,1.);
#740=LINE('',#710,#730);
#750=CARTESIAN_POINT('',(108.338901733169,-51.5251147901442,37.5));
#760=VERTEX_POINT('',#750);
#770=EDGE_CURVE('',#680,#760,#740,.T.);
#780=ORIENTED_EDGE('',*,*,#770,.F.);
#790=CARTESIAN_POINT('',(108.338901733169,0.,37.5));
#800=DIRECTION('',(0.,-1.,0.));
#810=VECTOR('',#800,1.);
#820=LINE('',#790,#810);
#830=EDGE_CURVE('',#600,#760,#820,.T.);
#840=ORIENTED_EDGE('',*,*,#830,.T.);
#850=EDGE_LOOP('',(#840,#780,#700,#620));
#860=FACE_OUTER_BOUND('',#850,.T.);
#870=ADVANCED_FACE('',(#860),#520,.T.);
#880=COLOUR_RGB('',0.823529481887817,0.823529481887817,0.784313797950745
);
#890=FILL_AREA_STYLE_COLOUR('',#880);
#900=FILL_AREA_STYLE('',(#890));
#910=SURFACE_STYLE_FILL_AREA(#900);
#920=SURFACE_SIDE_STYLE('',(#910));
#930=SURFACE_STYLE_USAGE(.BOTH.,#920);
#940=PRESENTATION_STYLE_ASSIGNMENT((#930));
#950=CARTESIAN_POINT('',(109.338901733169,-45.8251147901442,0.));
#960=DIRECTION('',(1.,0.,0.));
#970=DIRECTION('',(0.,-1.,0.));
#980=AXIS2_PLACEMENT_3D('',#950,#960,#970);
#990=PLANE('',#980);
#1000=CARTESIAN_POINT('',(109.338901733169,-50.5251147901442,0.));
#1010=DIRECTION('',(0.,0.,-1.));
#1020=VECTOR('',#1010,1.);
#1030=LINE('',#1000,#1020);
#1040=CARTESIAN_POINT('',(109.338901733169,-50.5251147901442,87.5));
#1050=VERTEX_POINT('',#1040);
#1060=CARTESIAN_POINT('',(109.338901733169,-50.5251147901442,37.5));
#1070=VERTEX_POINT('',#1060);
#1080=EDGE_CURVE('',#1050,#1070,#1030,.T.);
#1090=ORIENTED_EDGE('',*,*,#1080,.T.);
#1100=CARTESIAN_POINT('',(109.338901733169,0.,87.5));
#1110=DIRECTION('',(0.,-1.,0.));
#1120=VECTOR('',#1110,1.);
#1130=LINE('',#1100,#1120);
#1140=CARTESIAN_POINT('',(109.338901733169,-45.8251147901442,87.5));
#1150=VERTEX_POINT('',#1140);
#1160=EDGE_CURVE('',#1150,#1050,#1130,.T.);
#1170=ORIENTED_EDGE('',*,*,#1160,.T.);
#1180=CARTESIAN_POINT('',(109.338901733169,-45.8251147901442,0.));
#1190=DIRECTION('',(0.,0.,-1.));
#1200=VECTOR('',#1190,1.);
#1210=LINE('',#1180,#1200);
#1220=CARTESIAN_POINT('',(109.338901733169,-45.8251147901442,37.5));
#1230=VERTEX_POINT('',#1220);
#1240=EDGE_CURVE('',#1150,#1230,#1210,.T.);
#1250=ORIENTED_EDGE('',*,*,#1240,.F.);
#1260=CARTESIAN_POINT('',(109.338901733169,0.,37.5));
#1270=DIRECTION('',(0.,1.,0.));
#1280=VECTOR('',#1270,1.);
#1290=LINE('',#1260,#1280);
#1300=EDGE_CURVE('',#1070,#1230,#1290,.T.);
#1310=ORIENTED_EDGE('',*,*,#1300,.T.);
#1320=EDGE_LOOP('',(#1310,#1250,#1170,#1090));
#1330=FACE_OUTER_BOUND('',#1320,.T.);
#1340=ADVANCED_FACE('',(#1330),#990,.T.);
#1350=COLOUR_RGB('',0.823529481887817,0.823529481887817,
0.784313797950745);
#1360=FILL_AREA_STYLE_COLOUR('',#1350);
#1370=FILL_AREA_STYLE('',(#1360));
#1380=SURFACE_STYLE_FILL_AREA(#1370);
#1390=SURFACE_SIDE_STYLE('',(#1380));
#1400=SURFACE_STYLE_USAGE(.BOTH.,#1390);
#1410=PRESENTATION_STYLE_ASSIGNMENT((#1400));
#1420=CARTESIAN_POINT('',(136.13890173317,-45.8251147901442,0.));
#1430=DIRECTION('',(0.,0.,1.));
#1440=DIRECTION('',(1.,0.,0.));
#1450=AXIS2_PLACEMENT_3D('',#1420,#1430,#1440);
#1460=CYLINDRICAL_SURFACE('',#1450,0.8);
#1470=CARTESIAN_POINT('',(135.33890173317,-45.8251147901442,0.));
#1480=DIRECTION('',(0.,0.,-1.));
#1490=VECTOR('',#1480,1.);
#1500=LINE('',#1470,#1490);
#1510=CARTESIAN_POINT('',(135.33890173317,-45.8251147901442,87.5));
#1520=VERTEX_POINT('',#1510);
#1530=CARTESIAN_POINT('',(135.33890173317,-45.8251147901442,37.5));
#1540=VERTEX_POINT('',#1530);
#1550=EDGE_CURVE('',#1520,#1540,#1500,.T.);
#1560=ORIENTED_EDGE('',*,*,#1550,.T.);
#1570=CARTESIAN_POINT('',(136.13890173317,-45.8251147901442,87.5));
#1580=DIRECTION('',(0.,0.,1.));
#1590=DIRECTION('',(1.,0.,0.));
#1600=AXIS2_PLACEMENT_3D('',#1570,#1580,#1590);
#1610=CIRCLE('',#1600,0.8);
#1620=CARTESIAN_POINT('',(136.13890173317,-45.0251147901442,87.5));
#1630=VERTEX_POINT('',#1620);
#1640=EDGE_CURVE('',#1630,#1520,#1610,.T.);
#1650=ORIENTED_EDGE('',*,*,#1640,.T.);
#1660=CARTESIAN_POINT('',(136.13890173317,-45.0251147901442,0.));
#1670=DIRECTION('',(0.,0.,-1.));
#1680=VECTOR('',#1670,1.);
#1690=LINE('',#1660,#1680);
#1700=CARTESIAN_POINT('',(136.13890173317,-45.0251147901442,37.5));
#1710=VERTEX_POINT('',#1700);
#1720=EDGE_CURVE('',#1630,#1710,#1690,.T.);
#1730=ORIENTED_EDGE('',*,*,#1720,.F.);
#1740=CARTESIAN_POINT('',(136.13890173317,-45.8251147901442,37.5));
#1750=DIRECTION('',(0.,0.,1.));
#1760=DIRECTION('',(1.,0.,0.));
#1770=AXIS2_PLACEMENT_3D('',#1740,#1750,#1760);
#1780=CIRCLE('',#1770,0.8);
#1790=EDGE_CURVE('',#1710,#1540,#1780,.T.);
#1800=ORIENTED_EDGE('',*,*,#1790,.F.);
#1810=EDGE_LOOP('',(#1800,#1730,#1650,#1560));
#1820=FACE_OUTER_BOUND('',#1810,.T.);
#1830=ADVANCED_FACE('',(#1820),#1460,.F.);
#1840=COLOUR_RGB('',0.823529481887817,0.823529481887817,
0.784313797950745);
#1850=FILL_AREA_STYLE_COLOUR('',#1840);
#1860=FILL_AREA_STYLE('',(#1850));
#1870=SURFACE_STYLE_FILL_AREA(#1860);
#1880=SURFACE_SIDE_STYLE('',(#1870));
#1890=SURFACE_STYLE_USAGE(.BOTH.,#1880);
#1900=PRESENTATION_STYLE_ASSIGNMENT((#1890));
#1910=CARTESIAN_POINT('',(107.53890173317,-45.8251147901442,0.));
#1920=DIRECTION('',(0.,0.,-1.));
#1930=DIRECTION('',(-1.,0.,0.));
#1940=AXIS2_PLACEMENT_3D('',#1910,#1920,#1930);
#1950=CYLINDRICAL_SURFACE('',#1940,1.8);
#1960=ORIENTED_EDGE('',*,*,#1240,.T.);
#1970=CARTESIAN_POINT('',(107.53890173317,-45.8251147901442,87.5));
#1980=DIRECTION('',(0.,0.,-1.));
#1990=DIRECTION('',(-1.,0.,0.));
#2000=AXIS2_PLACEMENT_3D('',#1970,#1980,#1990);
#2010=CIRCLE('',#2000,1.8);
#2020=CARTESIAN_POINT('',(107.53890173317,-44.0251147901442,87.5));
#2030=VERTEX_POINT('',#2020);
#2040=EDGE_CURVE('',#2030,#1150,#2010,.T.);
#2050=ORIENTED_EDGE('',*,*,#2040,.T.);
#2060=CARTESIAN_POINT('',(107.53890173317,-44.0251147901442,0.));
#2070=DIRECTION('',(0.,0.,-1.));
#2080=VECTOR('',#2070,1.);
#2090=LINE('',#2060,#2080);
#2100=CARTESIAN_POINT('',(107.53890173317,-44.0251147901442,37.5));
#2110=VERTEX_POINT('',#2100);
#2120=EDGE_CURVE('',#2030,#2110,#2090,.T.);
#2130=ORIENTED_EDGE('',*,*,#2120,.F.);
#2140=CARTESIAN_POINT('',(107.53890173317,-45.8251147901442,37.5));
#2150=DIRECTION('',(0.,0.,-1.));
#2160=DIRECTION('',(-1.,0.,0.));
#2170=AXIS2_PLACEMENT_3D('',#2140,#2150,#2160);
#2180=CIRCLE('',#2170,1.8);
#2190=EDGE_CURVE('',#2110,#1230,#2180,.T.);
#2200=ORIENTED_EDGE('',*,*,#2190,.F.);
#2210=EDGE_LOOP('',(#2200,#2130,#2050,#1960));
#2220=FACE_OUTER_BOUND('',#2210,.T.);
#2230=ADVANCED_FACE('',(#2220),#1950,.T.);
#2240=COLOUR_RGB('',0.823529481887817,0.823529481887817,
0.784313797950745);
#2250=FILL_AREA_STYLE_COLOUR('',#2240);
#2260=FILL_AREA_STYLE('',(#2250));
#2270=SURFACE_STYLE_FILL_AREA(#2260);
#2280=SURFACE_SIDE_STYLE('',(#2270));
#2290=SURFACE_STYLE_USAGE(.BOTH.,#2280);
#2300=PRESENTATION_STYLE_ASSIGNMENT((#2290));
#2310=CARTESIAN_POINT('',(134.33890173317,-49.7251147901443,0.));
#2320=DIRECTION('',(-1.,0.,0.));
#2330=DIRECTION('',(0.,1.,0.));
#2340=AXIS2_PLACEMENT_3D('',#2310,#2320,#2330);
#2350=PLANE('',#2340);
#2360=CARTESIAN_POINT('',(134.33890173317,-45.8251147901442,0.));
#2370=DIRECTION('',(0.,0.,-1.));
#2380=VECTOR('',#2370,1.);
#2390=LINE('',#2360,#2380);
#2400=CARTESIAN_POINT('',(134.33890173317,-45.8251147901442,87.5));
#2410=VERTEX_POINT('',#2400);
#2420=CARTESIAN_POINT('',(134.33890173317,-45.8251147901442,37.5));
#2430=VERTEX_POINT('',#2420);
#2440=EDGE_CURVE('',#2410,#2430,#2390,.T.);
#2450=ORIENTED_EDGE('',*,*,#2440,.T.);
#2460=CARTESIAN_POINT('',(134.33890173317,0.,87.5));
#2470=DIRECTION('',(0.,1.,0.));
#2480=VECTOR('',#2470,1.);
#2490=LINE('',#2460,#2480);
#2500=CARTESIAN_POINT('',(134.33890173317,-50.5251147901442,87.5));
#2510=VERTEX_POINT('',#2500);
#2520=EDGE_CURVE('',#2510,#2410,#2490,.T.);
#2530=ORIENTED_EDGE('',*,*,#2520,.T.);
#2540=CARTESIAN_POINT('',(134.33890173317,-50.5251147901442,0.));
#2550=DIRECTION('',(0.,0.,-1.));
#2560=VECTOR('',#2550,1.);
#2570=LINE('',#2540,#2560);
#2580=CARTESIAN_POINT('',(134.33890173317,-50.5251147901442,37.5));
#2590=VERTEX_POINT('',#2580);
#2600=EDGE_CURVE('',#2510,#2590,#2570,.T.);
#2610=ORIENTED_EDGE('',*,*,#2600,.F.);
#2620=CARTESIAN_POINT('',(134.33890173317,0.,37.5));
#2630=DIRECTION('',(0.,-1.,0.));
#2640=VECTOR('',#2630,1.);
#2650=LINE('',#2620,#2640);
#2660=EDGE_CURVE('',#2430,#2590,#2650,.T.);
#2670=ORIENTED_EDGE('',*,*,#2660,.T.);
#2680=EDGE_LOOP('',(#2670,#2610,#2530,#2450));
#2690=FACE_OUTER_BOUND('',#2680,.T.);
#2700=ADVANCED_FACE('',(#2690),#2350,.T.);
#2710=COLOUR_RGB('',0.823529481887817,0.823529481887817,
0.784313797950745);
#2720=FILL_AREA_STYLE_COLOUR('',#2710);
#2730=FILL_AREA_STYLE('',(#2720));
#2740=SURFACE_STYLE_FILL_AREA(#2730);
#2750=SURFACE_SIDE_STYLE('',(#2740));
#2760=SURFACE_STYLE_USAGE(.BOTH.,#2750);
#2770=PRESENTATION_STYLE_ASSIGNMENT((#2760));
#2780=CARTESIAN_POINT('',(67.1889017331695,-51.5251147901439,87.5));
#2790=DIRECTION('',(0.,0.,1.));
#2800=DIRECTION('',(-1.,0.,0.));
#2810=AXIS2_PLACEMENT_3D('',#2780,#2790,#2800);
#2820=PLANE('',#2810);
#2830=ORIENTED_EDGE('',*,*,#690,.F.);
#2840=CARTESIAN_POINT('',(107.53890173317,-45.8251147901442,87.5));
#2850=DIRECTION('',(0.,0.,1.));
#2860=DIRECTION('',(1.,0.,0.));
#2870=AXIS2_PLACEMENT_3D('',#2840,#2850,#2860);
#2880=CIRCLE('',#2870,0.8);
#2890=EDGE_CURVE('',#580,#210,#2880,.T.);
#2900=ORIENTED_EDGE('',*,*,#2890,.F.);
#2910=ORIENTED_EDGE('',*,*,#220,.F.);
#2920=CARTESIAN_POINT('',(104.338901733169,0.,87.5));
#2930=DIRECTION('',(0.,1.,0.));
#2940=VECTOR('',#2930,1.);
#2950=LINE('',#2920,#2940);
#2960=CARTESIAN_POINT('',(104.338901733169,-44.0251147901442,87.5));
#2970=VERTEX_POINT('',#2960);
#2980=EDGE_CURVE('',#110,#2970,#2950,.T.);
#2990=ORIENTED_EDGE('',*,*,#2980,.F.);
#3000=CARTESIAN_POINT('',(0.,-44.0251147901442,87.5));
#3010=DIRECTION('',(1.,0.,0.));
#3020=VECTOR('',#3010,1.);
#3030=LINE('',#3000,#3020);
#3040=EDGE_CURVE('',#2970,#2030,#3030,.T.);
#3050=ORIENTED_EDGE('',*,*,#3040,.F.);
#3060=ORIENTED_EDGE('',*,*,#2040,.F.);
#3070=ORIENTED_EDGE('',*,*,#1160,.F.);
#3080=CARTESIAN_POINT('',(0.,-50.5251147901442,87.5));
#3090=DIRECTION('',(1.,0.,0.));
#3100=VECTOR('',#3090,1.);
#3110=LINE('',#3080,#3100);
#3120=EDGE_CURVE('',#1050,#2510,#3110,.T.);
#3130=ORIENTED_EDGE('',*,*,#3120,.F.);
#3140=ORIENTED_EDGE('',*,*,#2520,.F.);
#3150=CARTESIAN_POINT('',(136.13890173317,-45.8251147901442,87.5));
#3160=DIRECTION('',(0.,0.,-1.));
#3170=DIRECTION('',(-1.,0.,0.));
#3180=AXIS2_PLACEMENT_3D('',#3150,#3160,#3170);
#3190=CIRCLE('',#3180,1.8);
#3200=CARTESIAN_POINT('',(136.13890173317,-44.0251147901442,87.5));
#3210=VERTEX_POINT('',#3200);
#3220=EDGE_CURVE('',#2410,#3210,#3190,.T.);
#3230=ORIENTED_EDGE('',*,*,#3220,.F.);
#3240=CARTESIAN_POINT('',(0.,-44.0251147901442,87.5));
#3250=DIRECTION('',(1.,0.,0.));
#3260=VECTOR('',#3250,1.);
#3270=LINE('',#3240,#3260);
#3280=CARTESIAN_POINT('',(139.33890173317,-44.0251147901442,87.5));
#3290=VERTEX_POINT('',#3280);
#3300=EDGE_CURVE('',#3210,#3290,#3270,.T.);
#3310=ORIENTED_EDGE('',*,*,#3300,.F.);
#3320=CARTESIAN_POINT('',(139.33890173317,0.,87.5));
#3330=DIRECTION('',(0.,-1.,0.));
#3340=VECTOR('',#3330,1.);
#3350=LINE('',#3320,#3340);
#3360=CARTESIAN_POINT('',(139.33890173317,-45.0251147901442,87.5));
#3370=VERTEX_POINT('',#3360);
#3380=EDGE_CURVE('',#3290,#3370,#3350,.T.);
#3390=ORIENTED_EDGE('',*,*,#3380,.F.);
#3400=CARTESIAN_POINT('',(0.,-45.0251147901442,87.5));
#3410=DIRECTION('',(-1.,0.,0.));
#3420=VECTOR('',#3410,1.);
#3430=LINE('',#3400,#3420);
#3440=EDGE_CURVE('',#3370,#1630,#3430,.T.);
#3450=ORIENTED_EDGE('',*,*,#3440,.F.);
#3460=ORIENTED_EDGE('',*,*,#1640,.F.);
#3470=CARTESIAN_POINT('',(135.33890173317,0.,87.5));
#3480=DIRECTION('',(0.,-1.,0.));
#3490=VECTOR('',#3480,1.);
#3500=LINE('',#3470,#3490);
#3510=CARTESIAN_POINT('',(135.33890173317,-51.5251147901442,87.5));
#3520=VERTEX_POINT('',#3510);
#3530=EDGE_CURVE('',#1520,#3520,#3500,.T.);
#3540=ORIENTED_EDGE('',*,*,#3530,.F.);
#3550=CARTESIAN_POINT('',(0.,-51.5251147901442,87.5));
#3560=DIRECTION('',(-1.,0.,0.));
#3570=VECTOR('',#3560,1.);
#3580=LINE('',#3550,#3570);
#3590=EDGE_CURVE('',#3520,#680,#3580,.T.);
#3600=ORIENTED_EDGE('',*,*,#3590,.F.);
#3610=EDGE_LOOP('',(#3600,#3540,#3460,#3450,#3390,#3310,#3230,#3140,
#3130,#3070,#3060,#3050,#2990,#2910,#2900,#2830));
#3620=FACE_OUTER_BOUND('',#3610,.T.);
#3630=ADVANCED_FACE('',(#3620),#2820,.T.);
#3640=CARTESIAN_POINT('',(136.13890173317,-45.8251147901442,0.));
#3650=DIRECTION('',(0.,0.,-1.));
#3660=DIRECTION('',(-1.,0.,0.));
#3670=AXIS2_PLACEMENT_3D('',#3640,#3650,#3660);
#3680=CYLINDRICAL_SURFACE('',#3670,1.8);
#3690=CARTESIAN_POINT('',(136.13890173317,-44.0251147901442,0.));
#3700=DIRECTION('',(0.,0.,-1.));
#3710=VECTOR('',#3700,1.);
#3720=LINE('',#3690,#3710);
#3730=CARTESIAN_POINT('',(136.13890173317,-44.0251147901442,37.5));
#3740=VERTEX_POINT('',#3730);
#3750=EDGE_CURVE('',#3210,#3740,#3720,.T.);
#3760=ORIENTED_EDGE('',*,*,#3750,.T.);
#3770=ORIENTED_EDGE('',*,*,#3220,.T.);
#3780=ORIENTED_EDGE('',*,*,#2440,.F.);
#3790=CARTESIAN_POINT('',(136.13890173317,-45.8251147901442,37.5));
#3800=DIRECTION('',(0.,0.,-1.));
#3810=DIRECTION('',(-1.,0.,0.));
#3820=AXIS2_PLACEMENT_3D('',#3790,#3800,#3810);
#3830=CIRCLE('',#3820,1.8);
#3840=EDGE_CURVE('',#2430,#3740,#3830,.T.);
#3850=ORIENTED_EDGE('',*,*,#3840,.F.);
#3860=EDGE_LOOP('',(#3850,#3780,#3770,#3760));
#3870=FACE_OUTER_BOUND('',#3860,.T.);
#3880=ADVANCED_FACE('',(#3870),#3680,.T.);
#3890=COLOUR_RGB('',0.823529481887817,0.823529481887817,
0.784313797950745);
#3900=FILL_AREA_STYLE_COLOUR('',#3890);
#3910=FILL_AREA_STYLE('',(#3900));
#3920=SURFACE_STYLE_FILL_AREA(#3910);
#3930=SURFACE_SIDE_STYLE('',(#3920));
#3940=SURFACE_STYLE_USAGE(.BOTH.,#3930);
#3950=PRESENTATION_STYLE_ASSIGNMENT((#3940));
#3960=CARTESIAN_POINT('',(110.13890173317,-50.5251147901442,0.));
#3970=DIRECTION('',(-0.,1.,0.));
#3980=DIRECTION('',(1.,0.,0.));
#3990=AXIS2_PLACEMENT_3D('',#3960,#3970,#3980);
#4000=PLANE('',#3990);
#4010=ORIENTED_EDGE('',*,*,#2600,.T.);
#4020=ORIENTED_EDGE('',*,*,#3120,.T.);
#4030=ORIENTED_EDGE('',*,*,#1080,.F.);
#4040=CARTESIAN_POINT('',(0.,-50.5251147901442,37.5));
#4050=DIRECTION('',(-1.,0.,0.));
#4060=VECTOR('',#4050,1.);
#4070=LINE('',#4040,#4060);
#4080=EDGE_CURVE('',#2590,#1070,#4070,.T.);
#4090=ORIENTED_EDGE('',*,*,#4080,.T.);
#4100=EDGE_LOOP('',(#4090,#4030,#4020,#4010));
#4110=FACE_OUTER_BOUND('',#4100,.T.);
#4120=CARTESIAN_POINT('',(124.93890173317,-50.5251147901442,0.));
#4130=DIRECTION('',(0.,0.,-1.));
#4140=VECTOR('',#4130,1.);
#4150=LINE('',#4120,#4140);
#4160=CARTESIAN_POINT('',(124.93890173317,-50.5251147901442,79.4));
#4170=VERTEX_POINT('',#4160);
#4180=CARTESIAN_POINT('',(124.93890173317,-50.5251147901442,70.6));
#4190=VERTEX_POINT('',#4180);
#4200=EDGE_CURVE('',#4170,#4190,#4150,.T.);
#4210=ORIENTED_EDGE('',*,*,#4200,.F.);
#4220=CARTESIAN_POINT('',(121.83890173317,-50.5251147901442,70.6));
#4230=DIRECTION('',(0.,1.,0.));
#4240=DIRECTION('',(0.,0.,-1.));
#4250=AXIS2_PLACEMENT_3D('',#4220,#4230,#4240);
#4260=CIRCLE('',#4250,3.1);
#4270=CARTESIAN_POINT('',(118.73890173317,-50.5251147901442,70.6));
#4280=VERTEX_POINT('',#4270);
#4290=EDGE_CURVE('',#4190,#4280,#4260,.T.);
#4300=ORIENTED_EDGE('',*,*,#4290,.F.);
#4310=CARTESIAN_POINT('',(118.73890173317,-50.5251147901442,0.));
#4320=DIRECTION('',(0.,0.,1.));
#4330=VECTOR('',#4320,1.);
#4340=LINE('',#4310,#4330);
#4350=CARTESIAN_POINT('',(118.73890173317,-50.5251147901442,79.4));
#4360=VERTEX_POINT('',#4350);
#4370=EDGE_CURVE('',#4280,#4360,#4340,.T.);
#4380=ORIENTED_EDGE('',*,*,#4370,.F.);
#4390=CARTESIAN_POINT('',(121.83890173317,-50.5251147901442,79.4));
#4400=DIRECTION('',(0.,1.,0.));
#4410=DIRECTION('',(0.,0.,-1.));
#4420=AXIS2_PLACEMENT_3D('',#4390,#4400,#4410);
#4430=CIRCLE('',#4420,3.1);
#4440=EDGE_CURVE('',#4360,#4170,#4430,.T.);
#4450=ORIENTED_EDGE('',*,*,#4440,.F.);
#4460=EDGE_LOOP('',(#4450,#4380,#4300,#4210));
#4470=FACE_BOUND('',#4460,.T.);
#4480=CARTESIAN_POINT('',(124.93890173317,-50.5251147901442,0.));
#4490=DIRECTION('',(0.,0.,-1.));
#4500=VECTOR('',#4490,1.);
#4510=LINE('',#4480,#4500);
#4520=CARTESIAN_POINT('',(124.93890173317,-50.5251147901442,54.4));
#4530=VERTEX_POINT('',#4520);
#4540=CARTESIAN_POINT('',(124.93890173317,-50.5251147901442,45.6));
#4550=VERTEX_POINT('',#4540);
#4560=EDGE_CURVE('',#4530,#4550,#4510,.T.);
#4570=ORIENTED_EDGE('',*,*,#4560,.F.);
#4580=CARTESIAN_POINT('',(121.83890173317,-50.5251147901442,45.6));
#4590=DIRECTION('',(0.,1.,0.));
#4600=DIRECTION('',(0.,0.,-1.));
#4610=AXIS2_PLACEMENT_3D('',#4580,#4590,#4600);
#4620=CIRCLE('',#4610,3.1);
#4630=CARTESIAN_POINT('',(118.73890173317,-50.5251147901442,45.6));
#4640=VERTEX_POINT('',#4630);
#4650=EDGE_CURVE('',#4550,#4640,#4620,.T.);
#4660=ORIENTED_EDGE('',*,*,#4650,.F.);
#4670=CARTESIAN_POINT('',(118.73890173317,-50.5251147901442,0.));
#4680=DIRECTION('',(0.,0.,1.));
#4690=VECTOR('',#4680,1.);
#4700=LINE('',#4670,#4690);
#4710=CARTESIAN_POINT('',(118.73890173317,-50.5251147901442,54.4));
#4720=VERTEX_POINT('',#4710);
#4730=EDGE_CURVE('',#4640,#4720,#4700,.T.);
#4740=ORIENTED_EDGE('',*,*,#4730,.F.);
#4750=CARTESIAN_POINT('',(121.83890173317,-50.5251147901442,54.4));
#4760=DIRECTION('',(0.,1.,0.));
#4770=DIRECTION('',(0.,0.,-1.));
#4780=AXIS2_PLACEMENT_3D('',#4750,#4760,#4770);
#4790=CIRCLE('',#4780,3.1);
#4800=EDGE_CURVE('',#4720,#4530,#4790,.T.);
#4810=ORIENTED_EDGE('',*,*,#4800,.F.);
#4820=EDGE_LOOP('',(#4810,#4740,#4660,#4570));
#4830=FACE_BOUND('',#4820,.T.);
#4840=ADVANCED_FACE('',(#4110,#4470,#4830),#4000,.T.);
#4850=COLOUR_RGB('',0.823529481887817,0.823529481887817,
0.784313797950745);
#4860=FILL_AREA_STYLE_COLOUR('',#4850);
#4870=FILL_AREA_STYLE('',(#4860));
#4880=SURFACE_STYLE_FILL_AREA(#4870);
#4890=SURFACE_SIDE_STYLE('',(#4880));
#4900=SURFACE_STYLE_USAGE(.BOTH.,#4890);
#4910=PRESENTATION_STYLE_ASSIGNMENT((#4900));
#4920=CARTESIAN_POINT('',(139.33890173317,-45.0251147901442,0.));
#4930=DIRECTION('',(-0.,-1.,-0.));
#4940=DIRECTION('',(-1.,0.,0.));
#4950=AXIS2_PLACEMENT_3D('',#4920,#4930,#4940);
#4960=PLANE('',#4950);
#4970=ORIENTED_EDGE('',*,*,#1720,.T.);
#4980=ORIENTED_EDGE('',*,*,#3440,.T.);
#4990=CARTESIAN_POINT('',(139.33890173317,-45.0251147901442,0.));
#5000=DIRECTION('',(0.,0.,-1.));
#5010=VECTOR('',#5000,1.);
#5020=LINE('',#4990,#5010);
#5030=CARTESIAN_POINT('',(139.33890173317,-45.0251147901442,37.5));
#5040=VERTEX_POINT('',#5030);
#5050=EDGE_CURVE('',#3370,#5040,#5020,.T.);
#5060=ORIENTED_EDGE('',*,*,#5050,.F.);
#5070=CARTESIAN_POINT('',(0.,-45.0251147901442,37.5));
#5080=DIRECTION('',(1.,0.,0.));
#5090=VECTOR('',#5080,1.);
#5100=LINE('',#5070,#5090);
#5110=EDGE_CURVE('',#1710,#5040,#5100,.T.);
#5120=ORIENTED_EDGE('',*,*,#5110,.T.);
#5130=EDGE_LOOP('',(#5120,#5060,#4980,#4970));
#5140=FACE_OUTER_BOUND('',#5130,.T.);
#5150=ADVANCED_FACE('',(#5140),#4960,.T.);
#5160=COLOUR_RGB('',0.823529481887817,0.823529481887817,
0.784313797950745);
#5170=FILL_AREA_STYLE_COLOUR('',#5160);
#5180=FILL_AREA_STYLE('',(#5170));
#5190=SURFACE_STYLE_FILL_AREA(#5180);
#5200=SURFACE_SIDE_STYLE('',(#5190));
#5210=SURFACE_STYLE_USAGE(.BOTH.,#5200);
#5220=PRESENTATION_STYLE_ASSIGNMENT((#5210));
#5230=CARTESIAN_POINT('',(139.33890173317,-44.0251147901442,0.));
#5240=DIRECTION('',(1.,0.,0.));
#5250=DIRECTION('',(0.,-1.,0.));
#5260=AXIS2_PLACEMENT_3D('',#5230,#5240,#5250);
#5270=PLANE('',#5260);
#5280=ORIENTED_EDGE('',*,*,#5050,.T.);
#5290=ORIENTED_EDGE('',*,*,#3380,.T.);
#5300=CARTESIAN_POINT('',(139.33890173317,-44.0251147901442,-200.));
#5310=DIRECTION('',(0.,0.,-1.));
#5320=VECTOR('',#5310,1.);
#5330=LINE('',#5300,#5320);
#5340=CARTESIAN_POINT('',(139.33890173317,-44.0251147901442,37.5));
#5350=VERTEX_POINT('',#5340);
#5360=EDGE_CURVE('',#3290,#5350,#5330,.T.);
#5370=ORIENTED_EDGE('',*,*,#5360,.F.);
#5380=CARTESIAN_POINT('',(139.33890173317,0.,37.5));
#5390=DIRECTION('',(0.,1.,0.));
#5400=VECTOR('',#5390,1.);
#5410=LINE('',#5380,#5400);
#5420=EDGE_CURVE('',#5040,#5350,#5410,.T.);
#5430=ORIENTED_EDGE('',*,*,#5420,.T.);
#5440=EDGE_LOOP('',(#5430,#5370,#5290,#5280));
#5450=FACE_OUTER_BOUND('',#5440,.T.);
#5460=ADVANCED_FACE('',(#5450),#5270,.T.);
#5470=COLOUR_RGB('',0.823529481887817,0.823529481887817,
0.784313797950745);
#5480=FILL_AREA_STYLE_COLOUR('',#5470);
#5490=FILL_AREA_STYLE('',(#5480));
#5500=SURFACE_STYLE_FILL_AREA(#5490);
#5510=SURFACE_SIDE_STYLE('',(#5500));
#5520=SURFACE_STYLE_USAGE(.BOTH.,#5510);
#5530=PRESENTATION_STYLE_ASSIGNMENT((#5520));
#5540=CARTESIAN_POINT('',(133.53890173317,-51.5251147901442,0.));
#5550=DIRECTION('',(-0.,-1.,-0.));
#5560=DIRECTION('',(-1.,0.,0.));
#5570=AXIS2_PLACEMENT_3D('',#5540,#5550,#5560);
#5580=PLANE('',#5570);
#5590=ORIENTED_EDGE('',*,*,#770,.T.);
#5600=ORIENTED_EDGE('',*,*,#3590,.T.);
#5610=CARTESIAN_POINT('',(135.33890173317,-51.5251147901442,0.));
#5620=DIRECTION('',(0.,0.,-1.));
#5630=VECTOR('',#5620,1.);
#5640=LINE('',#5610,#5630);
#5650=CARTESIAN_POINT('',(135.33890173317,-51.5251147901442,37.5));
#5660=VERTEX_POINT('',#5650);
#5670=EDGE_CURVE('',#3520,#5660,#5640,.T.);
#5680=ORIENTED_EDGE('',*,*,#5670,.F.);
#5690=CARTESIAN_POINT('',(0.,-51.5251147901442,37.5));
#5700=DIRECTION('',(1.,0.,0.));
#5710=VECTOR('',#5700,1.);
#5720=LINE('',#5690,#5710);
#5730=EDGE_CURVE('',#760,#5660,#5720,.T.);
#5740=ORIENTED_EDGE('',*,*,#5730,.T.);
#5750=EDGE_LOOP('',(#5740,#5680,#5600,#5590));
#5760=FACE_OUTER_BOUND('',#5750,.T.);
#5770=CARTESIAN_POINT('',(121.83890173317,-51.5251147901442,79.4));
#5780=DIRECTION('',(0.,1.,0.));
#5790=DIRECTION('',(0.,0.,-1.));
#5800=AXIS2_PLACEMENT_3D('',#5770,#5780,#5790);
#5810=CIRCLE('',#5800,3.1);
#5820=CARTESIAN_POINT('',(118.73890173317,-51.5251147901442,79.4));
#5830=VERTEX_POINT('',#5820);
#5840=CARTESIAN_POINT('',(124.93890173317,-51.5251147901442,79.4));
#5850=VERTEX_POINT('',#5840);
#5860=EDGE_CURVE('',#5830,#5850,#5810,.T.);
#5870=ORIENTED_EDGE('',*,*,#5860,.T.);
#5880=CARTESIAN_POINT('',(118.73890173317,-51.5251147901442,0.));
#5890=DIRECTION('',(0.,0.,-1.));
#5900=VECTOR('',#5890,1.);
#5910=LINE('',#5880,#5900);
#5920=CARTESIAN_POINT('',(118.73890173317,-51.5251147901442,70.6));
#5930=VERTEX_POINT('',#5920);
#5940=EDGE_CURVE('',#5830,#5930,#5910,.T.);
#5950=ORIENTED_EDGE('',*,*,#5940,.F.);
#5960=CARTESIAN_POINT('',(121.83890173317,-51.5251147901442,70.6));
#5970=DIRECTION('',(0.,1.,0.));
#5980=DIRECTION('',(0.,0.,-1.));
#5990=AXIS2_PLACEMENT_3D('',#5960,#5970,#5980);
#6000=CIRCLE('',#5990,3.1);
#6010=CARTESIAN_POINT('',(124.93890173317,-51.5251147901442,70.6));
#6020=VERTEX_POINT('',#6010);
#6030=EDGE_CURVE('',#6020,#5930,#6000,.T.);
#6040=ORIENTED_EDGE('',*,*,#6030,.T.);
#6050=CARTESIAN_POINT('',(124.93890173317,-51.5251147901442,0.));
#6060=DIRECTION('',(0.,0.,1.));
#6070=VECTOR('',#6060,1.);
#6080=LINE('',#6050,#6070);
#6090=EDGE_CURVE('',#6020,#5850,#6080,.T.);
#6100=ORIENTED_EDGE('',*,*,#6090,.F.);
#6110=EDGE_LOOP('',(#6100,#6040,#5950,#5870));
#6120=FACE_BOUND('',#6110,.T.);
#6130=CARTESIAN_POINT('',(118.73890173317,-51.5251147901442,0.));
#6140=DIRECTION('',(0.,0.,-1.));
#6150=VECTOR('',#6140,1.);
#6160=LINE('',#6130,#6150);
#6170=CARTESIAN_POINT('',(118.73890173317,-51.5251147901442,54.4));
#6180=VERTEX_POINT('',#6170);
#6190=CARTESIAN_POINT('',(118.73890173317,-51.5251147901442,45.6));
#6200=VERTEX_POINT('',#6190);
#6210=EDGE_CURVE('',#6180,#6200,#6160,.T.);
#6220=ORIENTED_EDGE('',*,*,#6210,.F.);
#6230=CARTESIAN_POINT('',(121.83890173317,-51.5251147901442,45.6));
#6240=DIRECTION('',(0.,1.,0.));
#6250=DIRECTION('',(0.,0.,-1.));
#6260=AXIS2_PLACEMENT_3D('',#6230,#6240,#6250);
#6270=CIRCLE('',#6260,3.1);
#6280=CARTESIAN_POINT('',(124.93890173317,-51.5251147901442,45.6));
#6290=VERTEX_POINT('',#6280);
#6300=EDGE_CURVE('',#6290,#6200,#6270,.T.);
#6310=ORIENTED_EDGE('',*,*,#6300,.T.);
#6320=CARTESIAN_POINT('',(124.93890173317,-51.5251147901442,0.));
#6330=DIRECTION('',(0.,0.,1.));
#6340=VECTOR('',#6330,1.);
#6350=LINE('',#6320,#6340);
#6360=CARTESIAN_POINT('',(124.93890173317,-51.5251147901442,54.4));
#6370=VERTEX_POINT('',#6360);
#6380=EDGE_CURVE('',#6290,#6370,#6350,.T.);
#6390=ORIENTED_EDGE('',*,*,#6380,.F.);
#6400=CARTESIAN_POINT('',(121.83890173317,-51.5251147901442,54.4));
#6410=DIRECTION('',(0.,1.,0.));
#6420=DIRECTION('',(0.,0.,-1.));
#6430=AXIS2_PLACEMENT_3D('',#6400,#6410,#6420);
#6440=CIRCLE('',#6430,3.1);
#6450=EDGE_CURVE('',#6180,#6370,#6440,.T.);
#6460=ORIENTED_EDGE('',*,*,#6450,.T.);
#6470=EDGE_LOOP('',(#6460,#6390,#6310,#6220));
#6480=FACE_BOUND('',#6470,.T.);
#6490=ADVANCED_FACE('',(#5760,#6120,#6480),#5580,.T.);
#6500=COLOUR_RGB('',0.823529481887817,0.823529481887817,
0.784313797950745);
#6510=FILL_AREA_STYLE_COLOUR('',#6500);
#6520=FILL_AREA_STYLE('',(#6510));
#6530=SURFACE_STYLE_FILL_AREA(#6520);
#6540=SURFACE_SIDE_STYLE('',(#6530));
#6550=SURFACE_STYLE_USAGE(.BOTH.,#6540);
#6560=PRESENTATION_STYLE_ASSIGNMENT((#6550));
#6570=CARTESIAN_POINT('',(124.93890173317,-52.2751171901442,70.6));
#6580=DIRECTION('',(1.,0.,-0.));
#6590=DIRECTION('',(0.,0.,1.));
#6600=AXIS2_PLACEMENT_3D('',#6570,#6580,#6590);
#6610=PLANE('',#6600);
#6620=CARTESIAN_POINT('',(124.93890173317,-52.2751171901442,79.4));
#6630=DIRECTION('',(0.,1.,0.));
#6640=VECTOR('',#6630,1.);
#6650=LINE('',#6620,#6640);
#6660=EDGE_CURVE('',#5850,#4170,#6650,.T.);
#6670=ORIENTED_EDGE('',*,*,#6660,.T.);
#6680=ORIENTED_EDGE('',*,*,#6090,.T.);
#6690=CARTESIAN_POINT('',(124.93890173317,-52.2751171901442,70.6));
#6700=DIRECTION('',(0.,1.,0.));
#6710=VECTOR('',#6700,1.);
#6720=LINE('',#6690,#6710);
#6730=EDGE_CURVE('',#6020,#4190,#6720,.T.);
#6740=ORIENTED_EDGE('',*,*,#6730,.F.);
#6750=ORIENTED_EDGE('',*,*,#4200,.T.);
#6760=EDGE_LOOP('',(#6750,#6740,#6680,#6670));
#6770=FACE_OUTER_BOUND('',#6760,.T.);
#6780=ADVANCED_FACE('',(#6770),#6610,.F.);
#6790=COLOUR_RGB('',0.823529481887817,0.823529481887817,
0.784313797950745);
#6800=FILL_AREA_STYLE_COLOUR('',#6790);
#6810=FILL_AREA_STYLE('',(#6800));
#6820=SURFACE_STYLE_FILL_AREA(#6810);
#6830=SURFACE_SIDE_STYLE('',(#6820));
#6840=SURFACE_STYLE_USAGE(.BOTH.,#6830);
#6850=PRESENTATION_STYLE_ASSIGNMENT((#6840));
#6860=CARTESIAN_POINT('',(121.83890173317,-52.2751171901442,79.4));
#6870=DIRECTION('',(0.,1.,0.));
#6880=DIRECTION('',(0.,0.,-1.));
#6890=AXIS2_PLACEMENT_3D('',#6860,#6870,#6880);
#6900=CYLINDRICAL_SURFACE('',#6890,3.1);
#6910=CARTESIAN_POINT('',(118.73890173317,-52.2751171901442,79.4));
#6920=DIRECTION('',(0.,1.,0.));
#6930=VECTOR('',#6920,1.);
#6940=LINE('',#6910,#6930);
#6950=EDGE_CURVE('',#5830,#4360,#6940,.T.);
#6960=ORIENTED_EDGE('',*,*,#6950,.T.);
#6970=ORIENTED_EDGE('',*,*,#5860,.F.);
#6980=ORIENTED_EDGE('',*,*,#6660,.F.);
#6990=ORIENTED_EDGE('',*,*,#4440,.T.);
#7000=EDGE_LOOP('',(#6990,#6980,#6970,#6960));
#7010=FACE_OUTER_BOUND('',#7000,.T.);
#7020=ADVANCED_FACE('',(#7010),#6900,.F.);
#7030=COLOUR_RGB('',0.823529481887817,0.823529481887817,
0.784313797950745);
#7040=FILL_AREA_STYLE_COLOUR('',#7030);
#7050=FILL_AREA_STYLE('',(#7040));
#7060=SURFACE_STYLE_FILL_AREA(#7050);
#7070=SURFACE_SIDE_STYLE('',(#7060));
#7080=SURFACE_STYLE_USAGE(.BOTH.,#7070);
#7090=PRESENTATION_STYLE_ASSIGNMENT((#7080));
#7100=CARTESIAN_POINT('',(118.73890173317,-52.2751171901442,79.4));
#7110=DIRECTION('',(-1.,-0.,-0.));
#7120=DIRECTION('',(0.,0.,-1.));
#7130=AXIS2_PLACEMENT_3D('',#7100,#7110,#7120);
#7140=PLANE('',#7130);
#7150=CARTESIAN_POINT('',(118.73890173317,-52.2751171901442,70.6));
#7160=DIRECTION('',(0.,1.,0.));
#7170=VECTOR('',#7160,1.);
#7180=LINE('',#7150,#7170);
#7190=EDGE_CURVE('',#5930,#4280,#7180,.T.);
#7200=ORIENTED_EDGE('',*,*,#7190,.T.);
#7210=ORIENTED_EDGE('',*,*,#5940,.T.);
#7220=ORIENTED_EDGE('',*,*,#6950,.F.);
#7230=ORIENTED_EDGE('',*,*,#4370,.T.);
#7240=EDGE_LOOP('',(#7230,#7220,#7210,#7200));
#7250=FACE_OUTER_BOUND('',#7240,.T.);
#7260=ADVANCED_FACE('',(#7250),#7140,.F.);
#7270=COLOUR_RGB('',0.823529481887817,0.823529481887817,
0.784313797950745);
#7280=FILL_AREA_STYLE_COLOUR('',#7270);
#7290=FILL_AREA_STYLE('',(#7280));
#7300=SURFACE_STYLE_FILL_AREA(#7290);
#7310=SURFACE_SIDE_STYLE('',(#7300));
#7320=SURFACE_STYLE_USAGE(.BOTH.,#7310);
#7330=PRESENTATION_STYLE_ASSIGNMENT((#7320));
#7340=CARTESIAN_POINT('',(121.83890173317,-52.2751171901442,70.6));
#7350=DIRECTION('',(0.,1.,0.));
#7360=DIRECTION('',(0.,0.,-1.));
#7370=AXIS2_PLACEMENT_3D('',#7340,#7350,#7360);
#7380=CYLINDRICAL_SURFACE('',#7370,3.1);
#7390=ORIENTED_EDGE('',*,*,#6730,.T.);
#7400=ORIENTED_EDGE('',*,*,#6030,.F.);
#7410=ORIENTED_EDGE('',*,*,#7190,.F.);
#7420=ORIENTED_EDGE('',*,*,#4290,.T.);
#7430=EDGE_LOOP('',(#7420,#7410,#7400,#7390));
#7440=FACE_OUTER_BOUND('',#7430,.T.);
#7450=ADVANCED_FACE('',(#7440),#7380,.F.);
#7460=COLOUR_RGB('',0.823529481887817,0.823529481887817,
0.784313797950745);
#7470=FILL_AREA_STYLE_COLOUR('',#7460);
#7480=FILL_AREA_STYLE('',(#7470));
#7490=SURFACE_STYLE_FILL_AREA(#7480);
#7500=SURFACE_SIDE_STYLE('',(#7490));
#7510=SURFACE_STYLE_USAGE(.BOTH.,#7500);
#7520=PRESENTATION_STYLE_ASSIGNMENT((#7510));
#7530=CARTESIAN_POINT('',(121.83890173317,-52.2751171901442,54.4));
#7540=DIRECTION('',(0.,1.,0.));
#7550=DIRECTION('',(0.,0.,-1.));
#7560=AXIS2_PLACEMENT_3D('',#7530,#7540,#7550);
#7570=CYLINDRICAL_SURFACE('',#7560,3.1);
#7580=CARTESIAN_POINT('',(118.73890173317,-52.2751171901442,54.4));
#7590=DIRECTION('',(0.,1.,0.));
#7600=VECTOR('',#7590,1.);
#7610=LINE('',#7580,#7600);
#7620=EDGE_CURVE('',#6180,#4720,#7610,.T.);
#7630=ORIENTED_EDGE('',*,*,#7620,.T.);
#7640=ORIENTED_EDGE('',*,*,#6450,.F.);
#7650=CARTESIAN_POINT('',(124.93890173317,-52.2751171901442,54.4));
#7660=DIRECTION('',(0.,1.,0.));
#7670=VECTOR('',#7660,1.);
#7680=LINE('',#7650,#7670);
#7690=EDGE_CURVE('',#6370,#4530,#7680,.T.);
#7700=ORIENTED_EDGE('',*,*,#7690,.F.);
#7710=ORIENTED_EDGE('',*,*,#4800,.T.);
#7720=EDGE_LOOP('',(#7710,#7700,#7640,#7630));
#7730=FACE_OUTER_BOUND('',#7720,.T.);
#7740=ADVANCED_FACE('',(#7730),#7570,.F.);
#7750=COLOUR_RGB('',0.823529481887817,0.823529481887817,
0.784313797950745);
#7760=FILL_AREA_STYLE_COLOUR('',#7750);
#7770=FILL_AREA_STYLE('',(#7760));
#7780=SURFACE_STYLE_FILL_AREA(#7770);
#7790=SURFACE_SIDE_STYLE('',(#7780));
#7800=SURFACE_STYLE_USAGE(.BOTH.,#7790);
#7810=PRESENTATION_STYLE_ASSIGNMENT((#7800));
#7820=CARTESIAN_POINT('',(118.73890173317,-52.2751171901442,54.4));
#7830=DIRECTION('',(-1.,-0.,-0.));
#7840=DIRECTION('',(0.,0.,-1.));
#7850=AXIS2_PLACEMENT_3D('',#7820,#7830,#7840);
#7860=PLANE('',#7850);
#7870=CARTESIAN_POINT('',(118.73890173317,-52.2751171901442,45.6));
#7880=DIRECTION('',(0.,1.,0.));
#7890=VECTOR('',#7880,1.);
#7900=LINE('',#7870,#7890);
#7910=EDGE_CURVE('',#6200,#4640,#7900,.T.);
#7920=ORIENTED_EDGE('',*,*,#7910,.T.);
#7930=ORIENTED_EDGE('',*,*,#6210,.T.);
#7940=ORIENTED_EDGE('',*,*,#7620,.F.);
#7950=ORIENTED_EDGE('',*,*,#4730,.T.);
#7960=EDGE_LOOP('',(#7950,#7940,#7930,#7920));
#7970=FACE_OUTER_BOUND('',#7960,.T.);
#7980=ADVANCED_FACE('',(#7970),#7860,.F.);
#7990=COLOUR_RGB('',0.823529481887817,0.823529481887817,
0.784313797950745);
#8000=FILL_AREA_STYLE_COLOUR('',#7990);
#8010=FILL_AREA_STYLE('',(#8000));
#8020=SURFACE_STYLE_FILL_AREA(#8010);
#8030=SURFACE_SIDE_STYLE('',(#8020));
#8040=SURFACE_STYLE_USAGE(.BOTH.,#8030);
#8050=PRESENTATION_STYLE_ASSIGNMENT((#8040));
#8060=CARTESIAN_POINT('',(121.83890173317,-52.2751171901442,45.6));
#8070=DIRECTION('',(0.,1.,0.));
#8080=DIRECTION('',(0.,0.,-1.));
#8090=AXIS2_PLACEMENT_3D('',#8060,#8070,#8080);
#8100=CYLINDRICAL_SURFACE('',#8090,3.1);
#8110=CARTESIAN_POINT('',(124.93890173317,-52.2751171901442,45.6));
#8120=DIRECTION('',(0.,1.,0.));
#8130=VECTOR('',#8120,1.);
#8140=LINE('',#8110,#8130);
#8150=EDGE_CURVE('',#6290,#4550,#8140,.T.);
#8160=ORIENTED_EDGE('',*,*,#8150,.T.);
#8170=ORIENTED_EDGE('',*,*,#6300,.F.);
#8180=ORIENTED_EDGE('',*,*,#7910,.F.);
#8190=ORIENTED_EDGE('',*,*,#4650,.T.);
#8200=EDGE_LOOP('',(#8190,#8180,#8170,#8160));
#8210=FACE_OUTER_BOUND('',#8200,.T.);
#8220=ADVANCED_FACE('',(#8210),#8100,.F.);
#8230=COLOUR_RGB('',0.823529481887817,0.823529481887817,
0.784313797950745);
#8240=FILL_AREA_STYLE_COLOUR('',#8230);
#8250=FILL_AREA_STYLE('',(#8240));
#8260=SURFACE_STYLE_FILL_AREA(#8250);
#8270=SURFACE_SIDE_STYLE('',(#8260));
#8280=SURFACE_STYLE_USAGE(.BOTH.,#8270);
#8290=PRESENTATION_STYLE_ASSIGNMENT((#8280));
#8300=CARTESIAN_POINT('',(124.93890173317,-52.2751171901442,45.6));
#8310=DIRECTION('',(1.,0.,-0.));
#8320=DIRECTION('',(0.,0.,1.));
#8330=AXIS2_PLACEMENT_3D('',#8300,#8310,#8320);
#8340=PLANE('',#8330);
#8350=ORIENTED_EDGE('',*,*,#7690,.T.);
#8360=ORIENTED_EDGE('',*,*,#6380,.T.);
#8370=ORIENTED_EDGE('',*,*,#8150,.F.);
#8380=ORIENTED_EDGE('',*,*,#4560,.T.);
#8390=EDGE_LOOP('',(#8380,#8370,#8360,#8350));
#8400=FACE_OUTER_BOUND('',#8390,.T.);
#8410=ADVANCED_FACE('',(#8400),#8340,.F.);
#8420=COLOUR_RGB('',0.823529481887817,0.823529481887817,
0.784313797950745);
#8430=FILL_AREA_STYLE_COLOUR('',#8420);
#8440=FILL_AREA_STYLE('',(#8430));
#8450=SURFACE_STYLE_FILL_AREA(#8440);
#8460=SURFACE_SIDE_STYLE('',(#8450));
#8470=SURFACE_STYLE_USAGE(.BOTH.,#8460);
#8480=PRESENTATION_STYLE_ASSIGNMENT((#8470));
#8490=CARTESIAN_POINT('',(104.338901733169,-45.0251147901442,0.));
#8500=DIRECTION('',(-1.,0.,0.));
#8510=DIRECTION('',(0.,1.,0.));
#8520=AXIS2_PLACEMENT_3D('',#8490,#8500,#8510);
#8530=PLANE('',#8520);
#8540=CARTESIAN_POINT('',(104.338901733169,-44.0251147901442,-200.));
#8550=DIRECTION('',(0.,0.,-1.));
#8560=VECTOR('',#8550,1.);
#8570=LINE('',#8540,#8560);
#8580=CARTESIAN_POINT('',(104.338901733169,-44.0251147901442,37.5));
#8590=VERTEX_POINT('',#8580);
#8600=EDGE_CURVE('',#2970,#8590,#8570,.T.);
#8610=ORIENTED_EDGE('',*,*,#8600,.T.);
#8620=ORIENTED_EDGE('',*,*,#2980,.T.);
#8630=ORIENTED_EDGE('',*,*,#140,.F.);
#8640=CARTESIAN_POINT('',(104.338901733169,0.,37.5));
#8650=DIRECTION('',(0.,-1.,0.));
#8660=VECTOR('',#8650,1.);
#8670=LINE('',#8640,#8660);
#8680=EDGE_CURVE('',#8590,#130,#8670,.T.);
#8690=ORIENTED_EDGE('',*,*,#8680,.T.);
#8700=EDGE_LOOP('',(#8690,#8630,#8620,#8610));
#8710=FACE_OUTER_BOUND('',#8700,.T.);
#8720=ADVANCED_FACE('',(#8710),#8530,.T.);
#8730=COLOUR_RGB('',0.823529481887817,0.823529481887817,
0.784313797950745);
#8740=FILL_AREA_STYLE_COLOUR('',#8730);
#8750=FILL_AREA_STYLE('',(#8740));
#8760=SURFACE_STYLE_FILL_AREA(#8750);
#8770=SURFACE_SIDE_STYLE('',(#8760));
#8780=SURFACE_STYLE_USAGE(.BOTH.,#8770);
#8790=PRESENTATION_STYLE_ASSIGNMENT((#8780));
#8800=CARTESIAN_POINT('',(107.53890173317,-45.8251147901442,0.));
#8810=DIRECTION('',(0.,0.,1.));
#8820=DIRECTION('',(1.,0.,0.));
#8830=AXIS2_PLACEMENT_3D('',#8800,#8810,#8820);
#8840=CYLINDRICAL_SURFACE('',#8830,0.8);
#8850=ORIENTED_EDGE('',*,*,#300,.T.);
#8860=ORIENTED_EDGE('',*,*,#2890,.T.);
#8870=ORIENTED_EDGE('',*,*,#610,.F.);
#8880=CARTESIAN_POINT('',(107.53890173317,-45.8251147901442,37.5));
#8890=DIRECTION('',(0.,0.,1.));
#8900=DIRECTION('',(1.,0.,0.));
#8910=AXIS2_PLACEMENT_3D('',#8880,#8890,#8900);
#8920=CIRCLE('',#8910,0.8);
#8930=EDGE_CURVE('',#600,#290,#8920,.T.);
#8940=ORIENTED_EDGE('',*,*,#8930,.F.);
#8950=EDGE_LOOP('',(#8940,#8870,#8860,#8850));
#8960=FACE_OUTER_BOUND('',#8950,.T.);
#8970=ADVANCED_FACE('',(#8960),#8840,.F.);
#8980=COLOUR_RGB('',0.823529481887817,0.823529481887817,
0.784313797950745);
#8990=FILL_AREA_STYLE_COLOUR('',#8980);
#9000=FILL_AREA_STYLE('',(#8990));
#9010=SURFACE_STYLE_FILL_AREA(#9000);
#9020=SURFACE_SIDE_STYLE('',(#9010));
#9030=SURFACE_STYLE_USAGE(.BOTH.,#9020);
#9040=PRESENTATION_STYLE_ASSIGNMENT((#9030));
#9050=CARTESIAN_POINT('',(104.338901733169,-44.0251147901442,0.));
#9060=DIRECTION('',(-0.,1.,0.));
#9070=DIRECTION('',(1.,0.,0.));
#9080=AXIS2_PLACEMENT_3D('',#9050,#9060,#9070);
#9090=PLANE('',#9080);
#9100=ORIENTED_EDGE('',*,*,#2120,.T.);
#9110=ORIENTED_EDGE('',*,*,#3040,.T.);
#9120=ORIENTED_EDGE('',*,*,#8600,.F.);
#9130=CARTESIAN_POINT('',(0.,-44.0251147901442,37.5));
#9140=DIRECTION('',(-1.,0.,0.));
#9150=VECTOR('',#9140,1.);
#9160=LINE('',#9130,#9150);
#9170=EDGE_CURVE('',#2110,#8590,#9160,.T.);
#9180=ORIENTED_EDGE('',*,*,#9170,.T.);
#9190=EDGE_LOOP('',(#9180,#9120,#9110,#9100));
#9200=FACE_OUTER_BOUND('',#9190,.T.);
#9210=ADVANCED_FACE('',(#9200),#9090,.T.);
#9220=COLOUR_RGB('',0.823529481887817,0.823529481887817,
0.784313797950745);
#9230=FILL_AREA_STYLE_COLOUR('',#9220);
#9240=FILL_AREA_STYLE('',(#9230));
#9250=SURFACE_STYLE_FILL_AREA(#9240);
#9260=SURFACE_SIDE_STYLE('',(#9250));
#9270=SURFACE_STYLE_USAGE(.BOTH.,#9260);
#9280=PRESENTATION_STYLE_ASSIGNMENT((#9270));
#9290=CARTESIAN_POINT('',(136.138901733169,-44.0251147901442,0.));
#9300=DIRECTION('',(-0.,1.,0.));
#9310=DIRECTION('',(1.,0.,0.));
#9320=AXIS2_PLACEMENT_3D('',#9290,#9300,#9310);
#9330=PLANE('',#9320);
#9340=ORIENTED_EDGE('',*,*,#5360,.T.);
#9350=ORIENTED_EDGE('',*,*,#3300,.T.);
#9360=ORIENTED_EDGE('',*,*,#3750,.F.);
#9370=CARTESIAN_POINT('',(0.,-44.0251147901442,37.5));
#9380=DIRECTION('',(-1.,0.,0.));
#9390=VECTOR('',#9380,1.);
#9400=LINE('',#9370,#9390);
#9410=EDGE_CURVE('',#5350,#3740,#9400,.T.);
#9420=ORIENTED_EDGE('',*,*,#9410,.T.);
#9430=EDGE_LOOP('',(#9420,#9360,#9350,#9340));
#9440=FACE_OUTER_BOUND('',#9430,.T.);
#9450=ADVANCED_FACE('',(#9440),#9330,.T.);
#9460=COLOUR_RGB('',0.823529481887817,0.823529481887817,
0.784313797950745);
#9470=FILL_AREA_STYLE_COLOUR('',#9460);
#9480=FILL_AREA_STYLE('',(#9470));
#9490=SURFACE_STYLE_FILL_AREA(#9480);
#9500=SURFACE_SIDE_STYLE('',(#9490));
#9510=SURFACE_STYLE_USAGE(.BOTH.,#9500);
#9520=PRESENTATION_STYLE_ASSIGNMENT((#9510));
#9530=CARTESIAN_POINT('',(135.33890173317,-45.8251147901442,0.));
#9540=DIRECTION('',(1.,0.,0.));
#9550=DIRECTION('',(0.,-1.,0.));
#9560=AXIS2_PLACEMENT_3D('',#9530,#9540,#9550);
#9570=PLANE('',#9560);
#9580=ORIENTED_EDGE('',*,*,#5670,.T.);
#9590=ORIENTED_EDGE('',*,*,#3530,.T.);
#9600=ORIENTED_EDGE('',*,*,#1550,.F.);
#9610=CARTESIAN_POINT('',(135.33890173317,0.,37.5));
#9620=DIRECTION('',(0.,1.,0.));
#9630=VECTOR('',#9620,1.);
#9640=LINE('',#9610,#9630);
#9650=EDGE_CURVE('',#5660,#1540,#9640,.T.);
#9660=ORIENTED_EDGE('',*,*,#9650,.T.);
#9670=EDGE_LOOP('',(#9660,#9600,#9590,#9580));
#9680=FACE_OUTER_BOUND('',#9670,.T.);
#9690=ADVANCED_FACE('',(#9680),#9570,.T.);
#9700=COLOUR_RGB('',0.823529481887817,0.823529481887817,
0.784313797950745);
#9710=FILL_AREA_STYLE_COLOUR('',#9700);
#9720=FILL_AREA_STYLE('',(#9710));
#9730=SURFACE_STYLE_FILL_AREA(#9720);
#9740=SURFACE_SIDE_STYLE('',(#9730));
#9750=SURFACE_STYLE_USAGE(.BOTH.,#9740);
#9760=PRESENTATION_STYLE_ASSIGNMENT((#9750));
#9770=CARTESIAN_POINT('',(440.145167436786,-50.5251147901442,37.5));
#9780=DIRECTION('',(0.,0.,-1.));
#9790=DIRECTION('',(1.,0.,0.));
#9800=AXIS2_PLACEMENT_3D('',#9770,#9780,#9790);
#9810=PLANE('',#9800);
#9820=ORIENTED_EDGE('',*,*,#5420,.F.);
#9830=ORIENTED_EDGE('',*,*,#9410,.F.);
#9840=ORIENTED_EDGE('',*,*,#3840,.T.);
#9850=ORIENTED_EDGE('',*,*,#2660,.F.);
#9860=ORIENTED_EDGE('',*,*,#4080,.F.);
#9870=ORIENTED_EDGE('',*,*,#1300,.F.);
#9880=ORIENTED_EDGE('',*,*,#2190,.T.);
#9890=ORIENTED_EDGE('',*,*,#9170,.F.);
#9900=ORIENTED_EDGE('',*,*,#8680,.F.);
#9910=ORIENTED_EDGE('',*,*,#360,.F.);
#9920=ORIENTED_EDGE('',*,*,#8930,.T.);
#9930=ORIENTED_EDGE('',*,*,#830,.F.);
#9940=ORIENTED_EDGE('',*,*,#5730,.F.);
#9950=ORIENTED_EDGE('',*,*,#9650,.F.);
#9960=ORIENTED_EDGE('',*,*,#1790,.T.);
#9970=ORIENTED_EDGE('',*,*,#5110,.F.);
#9980=EDGE_LOOP('',(#9970,#9960,#9950,#9940,#9930,#9920,#9910,#9900,
#9890,#9880,#9870,#9860,#9850,#9840,#9830,#9820));
#9990=FACE_OUTER_BOUND('',#9980,.T.);
#10000=ADVANCED_FACE('',(#9990),#9810,.T.);
#10010=CLOSED_SHELL('',(#400,#870,#1340,#1830,#2230,#2700,#3630,#3880,
#4840,#5150,#5460,#6490,#6780,#7020,#7260,#7450,#7740,#7980,#8220,#8410,
#8720,#8970,#9210,#9450,#9690,#10000));
#10020=MANIFOLD_SOLID_BREP('',#10010);
#10030=CARTESIAN_POINT('',(0.,0.,0.));
#10040=DIRECTION('',(0.,0.,1.));
#10050=DIRECTION('',(1.,0.,0.));
#10060=AXIS2_PLACEMENT_3D('',#10030,#10040,#10050);
#10070=APPLICATION_CONTEXT(' ');
#10080=APPLICATION_PROTOCOL_DEFINITION(' ','automotive_design',1998,
#10070);
#10090=PRODUCT_CONTEXT('',#10070,'mechanical');
#10100=PRODUCT_DEFINITION_CONTEXT('part definition',#10070,'design');
#10110=PRODUCT('NS_35_7.5_PERF_2000MM-select',
'NS_35_7.5_PERF_2000MM-select','',(#10090));
#10120=PRODUCT_RELATED_PRODUCT_CATEGORY('part',' ',(#10110));
#10130=PRODUCT_DEFINITION_FORMATION_WITH_SPECIFIED_SOURCE('','',#10110,
.BOUGHT.);
#10140=PRODUCT_DEFINITION('',' ',#10130,#10100);
#10150=PRODUCT_DEFINITION_SHAPE('','',#10140);
#10160=DIMENSIONAL_EXPONENTS(1.,0.,0.,0.,0.,0.,0.);
#10170=DIMENSIONAL_EXPONENTS(0.,0.,0.,0.,0.,0.,0.);
#10180=DIMENSIONAL_EXPONENTS(0.,0.,0.,0.,0.,0.,0.);
#10190=(LENGTH_UNIT() NAMED_UNIT(*) SI_UNIT(.MILLI.,.METRE.));
#10200=(NAMED_UNIT(*) PLANE_ANGLE_UNIT() SI_UNIT($,.RADIAN.));
#10210=(NAMED_UNIT(*) SI_UNIT($,.STERADIAN.) SOLID_ANGLE_UNIT());
#10220=(GEOMETRIC_REPRESENTATION_CONTEXT(3) 
GLOBAL_UNCERTAINTY_ASSIGNED_CONTEXT((#10230)) 
GLOBAL_UNIT_ASSIGNED_CONTEXT((#10190,#10200,#10210)) 
REPRESENTATION_CONTEXT('',''));
#10230=UNCERTAINTY_MEASURE_WITH_UNIT(LENGTH_MEASURE(1.E-6),#10190,
'distance_accuracy_value','maximum gap value');
#10240=ADVANCED_BREP_SHAPE_REPRESENTATION('',(#10060,#10020),#10220);
#10250=SHAPE_DEFINITION_REPRESENTATION(#10150,#10240);
#10260=COLOUR_RGB('',0.823529481887817,0.823529481887817,
0.784313797950745);
#10270=FILL_AREA_STYLE_COLOUR('',#10260);
#10280=FILL_AREA_STYLE('',(#10270));
#10290=SURFACE_STYLE_FILL_AREA(#10280);
#10300=SURFACE_SIDE_STYLE('',(#10290));
#10310=SURFACE_STYLE_USAGE(.BOTH.,#10300);
#10320=PRESENTATION_STYLE_ASSIGNMENT((#10310));
#10330=STYLED_ITEM('',(#10320),#10020);
#10340=OVER_RIDING_STYLED_ITEM('',(#470),#400,#10330);
#10350=OVER_RIDING_STYLED_ITEM('',(#940),#870,#10330);
#10360=OVER_RIDING_STYLED_ITEM('',(#1410),#1340,#10330);
#10370=OVER_RIDING_STYLED_ITEM('',(#1900),#1830,#10330);
#10380=OVER_RIDING_STYLED_ITEM('',(#2300),#2230,#10330);
#10390=OVER_RIDING_STYLED_ITEM('',(#2770),#2700,#10330);
#10400=OVER_RIDING_STYLED_ITEM('',(#3950),#3880,#10330);
#10410=OVER_RIDING_STYLED_ITEM('',(#4910),#4840,#10330);
#10420=OVER_RIDING_STYLED_ITEM('',(#5220),#5150,#10330);
#10430=OVER_RIDING_STYLED_ITEM('',(#5530),#5460,#10330);
#10440=OVER_RIDING_STYLED_ITEM('',(#6560),#6490,#10330);
#10450=OVER_RIDING_STYLED_ITEM('',(#6850),#6780,#10330);
#10460=OVER_RIDING_STYLED_ITEM('',(#7090),#7020,#10330);
#10470=OVER_RIDING_STYLED_ITEM('',(#7330),#7260,#10330);
#10480=OVER_RIDING_STYLED_ITEM('',(#7520),#7450,#10330);
#10490=OVER_RIDING_STYLED_ITEM('',(#7810),#7740,#10330);
#10500=OVER_RIDING_STYLED_ITEM('',(#8050),#7980,#10330);
#10510=OVER_RIDING_STYLED_ITEM('',(#8290),#8220,#10330);
#10520=OVER_RIDING_STYLED_ITEM('',(#8480),#8410,#10330);
#10530=OVER_RIDING_STYLED_ITEM('',(#8790),#8720,#10330);
#10540=OVER_RIDING_STYLED_ITEM('',(#9040),#8970,#10330);
#10550=OVER_RIDING_STYLED_ITEM('',(#9280),#9210,#10330);
#10560=OVER_RIDING_STYLED_ITEM('',(#9520),#9450,#10330);
#10570=OVER_RIDING_STYLED_ITEM('',(#9760),#9690,#10330);
#10580=DRAUGHTING_MODEL('',(#10330,#10340,#10350,#10360,#10370,#10380,
#10390,#10400,#10410,#10420,#10430,#10440,#10450,#10460,#10470,#10480,
#10490,#10500,#10510,#10520,#10530,#10540,#10550,#10560,#10570),#10220);
#10590=CARTESIAN_POINT('',(100.000000000048,139.33890173317,
51.5251147901439));
#10600=DIRECTION('',(-1.,0.,0.));
#10610=DIRECTION('',(0.,-1.,0.));
#10620=AXIS2_PLACEMENT_3D('',#10590,#10600,#10610);
#10630=ITEM_DEFINED_TRANSFORMATION('NS_35_7.5_PERF_2000MM-select','',
#10060,#10620);
#10640=APPLICATION_CONTEXT(' ');
#10650=APPLICATION_PROTOCOL_DEFINITION(' ','automotive_design',1998,
#10640);
#10660=PRODUCT_CONTEXT('',#10640,'mechanical');
#10670=PRODUCT_DEFINITION_CONTEXT('part definition',#10640,'design');
#10680=PRODUCT('NS_35_7.5_PERF_2000MM-select',
'NS_35_7.5_PERF_2000MM-select','',(#10660));
#10690=PRODUCT_RELATED_PRODUCT_CATEGORY('part',' ',(#10680));
#10700=PRODUCT_DEFINITION_FORMATION_WITH_SPECIFIED_SOURCE('','',#10680,
.BOUGHT.);
#10710=PRODUCT_DEFINITION('',' ',#10700,#10670);
#10720=PRODUCT_DEFINITION_SHAPE('','',#10710);
#10730=DIMENSIONAL_EXPONENTS(1.,0.,0.,0.,0.,0.,0.);
#10740=DIMENSIONAL_EXPONENTS(0.,0.,0.,0.,0.,0.,0.);
#10750=DIMENSIONAL_EXPONENTS(0.,0.,0.,0.,0.,0.,0.);
#10760=(LENGTH_UNIT() NAMED_UNIT(*) SI_UNIT(.MILLI.,.METRE.));
#10770=(NAMED_UNIT(*) PLANE_ANGLE_UNIT() SI_UNIT($,.RADIAN.));
#10780=(NAMED_UNIT(*) SI_UNIT($,.STERADIAN.) SOLID_ANGLE_UNIT());
#10790=(GEOMETRIC_REPRESENTATION_CONTEXT(3) 
GLOBAL_UNCERTAINTY_ASSIGNED_CONTEXT((#10800)) 
GLOBAL_UNIT_ASSIGNED_CONTEXT((#10760,#10770,#10780)) 
REPRESENTATION_CONTEXT('',''));
#10800=UNCERTAINTY_MEASURE_WITH_UNIT(LENGTH_MEASURE(1.E-6),#10760,
'distance_accuracy_value','maximum gap value');
#10810=SHAPE_REPRESENTATION('',(#10060,#10620),#10790);
#10820=SHAPE_DEFINITION_REPRESENTATION(#10720,#10810);
#10830=(REPRESENTATION_RELATIONSHIP('','',#10240,#10810) 
REPRESENTATION_RELATIONSHIP_WITH_TRANSFORMATION(#10630) 
SHAPE_REPRESENTATION_RELATIONSHIP());
#10840=NEXT_ASSEMBLY_USAGE_OCCURRENCE('1','',
'NS_35_7.5_PERF_2000MM-select',#10710,#10140,'');
#10850=PRODUCT_DEFINITION_SHAPE('','',#10840);
#10860=CONTEXT_DEPENDENT_SHAPE_REPRESENTATION(#10830,#10850);
ENDSEC;
END-ISO-10303-21;
