ISO-10303-21;
HEADER;
FILE_DESCRIPTION( ( 'Unknown' ), '1' );
FILE_NAME( 'I:/User_Groups_Only/17_EMC_Product_&_Development/Article_Master/eiCan/Assembly/As_SSTIE/Master_Data/01_CAD_drawing/1_Drawing/971450321/971450321.stp', 'Unknown', ( 'Unknown' ), ( 'Unknown' ), 'PSStep 18.0.17', 'Unknown', '  ' );
FILE_SCHEMA( ( 'AUTOMOTIVE_DESIGN { 1 0 10303 214 1 1 1 1 }' ) );
ENDSEC;
DATA;
#1 = MECHANICAL_DESIGN_GEOMETRIC_PRESENTATION_REPRESENTATION( ' ', ( #10, #11, #12, #13, #14, #15, #16, #17, #18, #19, #20, #21, #22, #23, #24, #25, #26, #27, #28, #29, #30, #31, #32, #33, #34 ), #6 );
#2 = PRODUCT_DEFINITION_CONTEXT( '', #35, 'design' );
#3 = APPLICATION_PROTOCOL_DEFINITION( 'international standard', 'automotive_design', 2001, #35 );
#4 = PRODUCT_CATEGORY_RELATIONSHIP( 'NONE', 'NONE', #36, #37 );
#5 = SHAPE_DEFINITION_REPRESENTATION( #38, #39 );
#6 =  ( GEOMETRIC_REPRESENTATION_CONTEXT( 3 )GLOBAL_UNCERTAINTY_ASSIGNED_CONTEXT( ( #42 ) )GLOBAL_UNIT_ASSIGNED_CONTEXT( ( #44, #45, #46 ) )REPRESENTATION_CONTEXT( 'NONE', 'WORKSPACE' ) );
#10 = STYLED_ITEM( '', ( #48 ), #49 );
#11 = STYLED_ITEM( '', ( #50 ), #51 );
#12 = STYLED_ITEM( '', ( #52 ), #53 );
#13 = STYLED_ITEM( '', ( #54 ), #55 );
#14 = STYLED_ITEM( '', ( #56 ), #57 );
#15 = STYLED_ITEM( '', ( #58 ), #59 );
#16 = STYLED_ITEM( '', ( #60 ), #61 );
#17 = STYLED_ITEM( '', ( #62 ), #63 );
#18 = STYLED_ITEM( '', ( #64 ), #65 );
#19 = STYLED_ITEM( '', ( #66 ), #67 );
#20 = STYLED_ITEM( '', ( #68 ), #69 );
#21 = STYLED_ITEM( '', ( #70 ), #71 );
#22 = STYLED_ITEM( '', ( #72 ), #73 );
#23 = STYLED_ITEM( '', ( #74 ), #75 );
#24 = STYLED_ITEM( '', ( #76 ), #77 );
#25 = STYLED_ITEM( '', ( #78 ), #79 );
#26 = STYLED_ITEM( '', ( #80 ), #81 );
#27 = STYLED_ITEM( '', ( #82 ), #83 );
#28 = STYLED_ITEM( '', ( #84 ), #85 );
#29 = STYLED_ITEM( '', ( #86 ), #87 );
#30 = STYLED_ITEM( '', ( #88 ), #89 );
#31 = STYLED_ITEM( '', ( #90 ), #91 );
#32 = STYLED_ITEM( '', ( #92 ), #93 );
#33 = STYLED_ITEM( '', ( #94 ), #95 );
#34 = STYLED_ITEM( '', ( #96 ), #97 );
#35 = APPLICATION_CONTEXT( 'core data for automotive mechanical design processes' );
#36 = PRODUCT_CATEGORY( 'part', 'NONE' );
#37 = PRODUCT_RELATED_PRODUCT_CATEGORY( 'detail', ' ', ( #98 ) );
#38 = PRODUCT_DEFINITION_SHAPE( 'NONE', 'NONE', #99 );
#39 = ADVANCED_BREP_SHAPE_REPRESENTATION( '1', ( #100, #101 ), #6 );
#42 = UNCERTAINTY_MEASURE_WITH_UNIT( LENGTH_MEASURE( 0.00100000000000000 ), #44, '', '' );
#44 =  ( CONVERSION_BASED_UNIT( 'MILLIMETRE', #104 )LENGTH_UNIT(  )NAMED_UNIT( #107 ) );
#45 =  ( NAMED_UNIT( #109 )PLANE_ANGLE_UNIT(  )SI_UNIT( $, .RADIAN. ) );
#46 =  ( NAMED_UNIT( #109 )SI_UNIT( $, .STERADIAN. )SOLID_ANGLE_UNIT(  ) );
#48 = PRESENTATION_STYLE_ASSIGNMENT( ( #115 ) );
#49 = ADVANCED_FACE( '', ( #116 ), #117, .F. );
#50 = PRESENTATION_STYLE_ASSIGNMENT( ( #118 ) );
#51 = ADVANCED_FACE( '', ( #119, #120 ), #121, .F. );
#52 = PRESENTATION_STYLE_ASSIGNMENT( ( #122 ) );
#53 = ADVANCED_FACE( '', ( #123 ), #124, .T. );
#54 = PRESENTATION_STYLE_ASSIGNMENT( ( #125 ) );
#55 = ADVANCED_FACE( '', ( #126, #127 ), #128, .T. );
#56 = PRESENTATION_STYLE_ASSIGNMENT( ( #129 ) );
#57 = ADVANCED_FACE( '', ( #130, #131 ), #132, .F. );
#58 = PRESENTATION_STYLE_ASSIGNMENT( ( #133 ) );
#59 = ADVANCED_FACE( '', ( #134 ), #135, .T. );
#60 = PRESENTATION_STYLE_ASSIGNMENT( ( #136 ) );
#61 = ADVANCED_FACE( '', ( #137 ), #138, .T. );
#62 = PRESENTATION_STYLE_ASSIGNMENT( ( #139 ) );
#63 = ADVANCED_FACE( '', ( #140 ), #141, .F. );
#64 = PRESENTATION_STYLE_ASSIGNMENT( ( #142 ) );
#65 = ADVANCED_FACE( '', ( #143, #144 ), #145, .F. );
#66 = PRESENTATION_STYLE_ASSIGNMENT( ( #146 ) );
#67 = ADVANCED_FACE( '', ( #147 ), #148, .F. );
#68 = PRESENTATION_STYLE_ASSIGNMENT( ( #149 ) );
#69 = ADVANCED_FACE( '', ( #150 ), #151, .F. );
#70 = PRESENTATION_STYLE_ASSIGNMENT( ( #152 ) );
#71 = ADVANCED_FACE( '', ( #153 ), #154, .T. );
#72 = PRESENTATION_STYLE_ASSIGNMENT( ( #155 ) );
#73 = ADVANCED_FACE( '', ( #156 ), #157, .T. );
#74 = PRESENTATION_STYLE_ASSIGNMENT( ( #158 ) );
#75 = ADVANCED_FACE( '', ( #159, #160 ), #161, .F. );
#76 = PRESENTATION_STYLE_ASSIGNMENT( ( #162 ) );
#77 = ADVANCED_FACE( '', ( #163 ), #164, .F. );
#78 = PRESENTATION_STYLE_ASSIGNMENT( ( #165 ) );
#79 = ADVANCED_FACE( '', ( #166, #167 ), #168, .T. );
#80 = PRESENTATION_STYLE_ASSIGNMENT( ( #169 ) );
#81 = ADVANCED_FACE( '', ( #170, #171 ), #172, .T. );
#82 = PRESENTATION_STYLE_ASSIGNMENT( ( #173 ) );
#83 = ADVANCED_FACE( '', ( #174 ), #175, .T. );
#84 = PRESENTATION_STYLE_ASSIGNMENT( ( #176 ) );
#85 = ADVANCED_FACE( '', ( #177, #178 ), #179, .T. );
#86 = PRESENTATION_STYLE_ASSIGNMENT( ( #180 ) );
#87 = ADVANCED_FACE( '', ( #181 ), #182, .F. );
#88 = PRESENTATION_STYLE_ASSIGNMENT( ( #183 ) );
#89 = ADVANCED_FACE( '', ( #184, #185 ), #186, .F. );
#90 = PRESENTATION_STYLE_ASSIGNMENT( ( #187 ) );
#91 = ADVANCED_FACE( '', ( #188, #189 ), #190, .T. );
#92 = PRESENTATION_STYLE_ASSIGNMENT( ( #191 ) );
#93 = ADVANCED_FACE( '', ( #192 ), #193, .T. );
#94 = PRESENTATION_STYLE_ASSIGNMENT( ( #194 ) );
#95 = ADVANCED_FACE( '', ( #195, #196 ), #197, .F. );
#96 = PRESENTATION_STYLE_ASSIGNMENT( ( #198 ) );
#97 = ADVANCED_FACE( '', ( #199, #200 ), #201, .F. );
#98 = PRODUCT( '1', '1', 'PART-1-DESC', ( #202 ) );
#99 = PRODUCT_DEFINITION( 'NONE', 'NONE', #203, #2 );
#100 = MANIFOLD_SOLID_BREP( '1', #204 );
#101 = AXIS2_PLACEMENT_3D( '', #205, #206, #207 );
#104 = LENGTH_MEASURE_WITH_UNIT( LENGTH_MEASURE( 1.00000000000000 ), #208 );
#107 = DIMENSIONAL_EXPONENTS( 1.00000000000000, 0.000000000000000, 0.000000000000000, 0.000000000000000, 0.000000000000000, 0.000000000000000, 0.000000000000000 );
#109 = DIMENSIONAL_EXPONENTS( 0.000000000000000, 0.000000000000000, 0.000000000000000, 0.000000000000000, 0.000000000000000, 0.000000000000000, 0.000000000000000 );
#115 = SURFACE_STYLE_USAGE( .BOTH., #209 );
#116 = FACE_OUTER_BOUND( '', #210, .T. );
#117 = PLANE( '', #211 );
#118 = SURFACE_STYLE_USAGE( .BOTH., #212 );
#119 = FACE_OUTER_BOUND( '', #213, .T. );
#120 = FACE_OUTER_BOUND( '', #214, .T. );
#121 = TOROIDAL_SURFACE( '', #215, 1.26698729810000, 0.200000000000000 );
#122 = SURFACE_STYLE_USAGE( .BOTH., #216 );
#123 = FACE_OUTER_BOUND( '', #217, .T. );
#124 = CONICAL_SURFACE( '', #218, 2.75000000000000, 0.785398163400000 );
#125 = SURFACE_STYLE_USAGE( .BOTH., #219 );
#126 = FACE_BOUND( '', #220, .T. );
#127 = FACE_OUTER_BOUND( '', #221, .T. );
#128 = CONICAL_SURFACE( '', #222, 1.50000000000000, 0.785398163400000 );
#129 = SURFACE_STYLE_USAGE( .BOTH., #223 );
#130 = FACE_BOUND( '', #224, .T. );
#131 = FACE_OUTER_BOUND( '', #225, .T. );
#132 = PLANE( '', #226 );
#133 = SURFACE_STYLE_USAGE( .BOTH., #227 );
#134 = FACE_OUTER_BOUND( '', #228, .T. );
#135 = CONICAL_SURFACE( '', #229, 2.75000000000000, 0.785398163400000 );
#136 = SURFACE_STYLE_USAGE( .BOTH., #230 );
#137 = FACE_OUTER_BOUND( '', #231, .T. );
#138 = CONICAL_SURFACE( '', #232, 2.75000000000000, 0.785398163400000 );
#139 = SURFACE_STYLE_USAGE( .BOTH., #233 );
#140 = FACE_OUTER_BOUND( '', #234, .T. );
#141 = PLANE( '', #235 );
#142 = SURFACE_STYLE_USAGE( .BOTH., #236 );
#143 = FACE_OUTER_BOUND( '', #237, .T. );
#144 = FACE_OUTER_BOUND( '', #238, .T. );
#145 = CYLINDRICAL_SURFACE( '', #239, 1.22950000000000 );
#146 = SURFACE_STYLE_USAGE( .BOTH., #240 );
#147 = FACE_OUTER_BOUND( '', #241, .T. );
#148 = PLANE( '', #242 );
#149 = SURFACE_STYLE_USAGE( .BOTH., #243 );
#150 = FACE_OUTER_BOUND( '', #244, .T. );
#151 = PLANE( '', #245 );
#152 = SURFACE_STYLE_USAGE( .BOTH., #246 );
#153 = FACE_OUTER_BOUND( '', #247, .T. );
#154 = CONICAL_SURFACE( '', #248, 2.75000000000000, 0.785398163400000 );
#155 = SURFACE_STYLE_USAGE( .BOTH., #249 );
#156 = FACE_OUTER_BOUND( '', #250, .T. );
#157 = CONICAL_SURFACE( '', #251, 2.75000000000000, 0.785398163400000 );
#158 = SURFACE_STYLE_USAGE( .BOTH., #252 );
#159 = FACE_BOUND( '', #253, .T. );
#160 = FACE_OUTER_BOUND( '', #254, .T. );
#161 = CONICAL_SURFACE( '', #255, 1.42950000000000, 0.785398163400000 );
#162 = SURFACE_STYLE_USAGE( .BOTH., #256 );
#163 = FACE_OUTER_BOUND( '', #257, .T. );
#164 = PLANE( '', #258 );
#165 = SURFACE_STYLE_USAGE( .BOTH., #259 );
#166 = FACE_BOUND( '', #260, .T. );
#167 = FACE_OUTER_BOUND( '', #261, .T. );
#168 = PLANE( '', #262 );
#169 = SURFACE_STYLE_USAGE( .BOTH., #263 );
#170 = FACE_OUTER_BOUND( '', #264, .T. );
#171 = FACE_OUTER_BOUND( '', #265, .T. );
#172 = CYLINDRICAL_SURFACE( '', #266, 1.06698729810000 );
#173 = SURFACE_STYLE_USAGE( .BOTH., #267 );
#174 = FACE_OUTER_BOUND( '', #268, .T. );
#175 = PLANE( '', #269 );
#176 = SURFACE_STYLE_USAGE( .BOTH., #270 );
#177 = FACE_BOUND( '', #271, .T. );
#178 = FACE_OUTER_BOUND( '', #272, .T. );
#179 = CONICAL_SURFACE( '', #273, 1.06698729810000, 0.523598775600000 );
#180 = SURFACE_STYLE_USAGE( .BOTH., #274 );
#181 = FACE_OUTER_BOUND( '', #275, .T. );
#182 = PLANE( '', #276 );
#183 = SURFACE_STYLE_USAGE( .BOTH., #277 );
#184 = FACE_OUTER_BOUND( '', #278, .T. );
#185 = FACE_OUTER_BOUND( '', #279, .T. );
#186 = TOROIDAL_SURFACE( '', #280, 1.26698729810000, 0.200000000000000 );
#187 = SURFACE_STYLE_USAGE( .BOTH., #281 );
#188 = FACE_OUTER_BOUND( '', #282, .T. );
#189 = FACE_OUTER_BOUND( '', #283, .T. );
#190 = CYLINDRICAL_SURFACE( '', #284, 1.50000000000000 );
#191 = SURFACE_STYLE_USAGE( .BOTH., #285 );
#192 = FACE_OUTER_BOUND( '', #286, .T. );
#193 = CONICAL_SURFACE( '', #287, 2.75000000000000, 0.785398163400000 );
#194 = SURFACE_STYLE_USAGE( .BOTH., #288 );
#195 = FACE_OUTER_BOUND( '', #289, .T. );
#196 = FACE_OUTER_BOUND( '', #290, .T. );
#197 = CYLINDRICAL_SURFACE( '', #291, 1.22950000000000 );
#198 = SURFACE_STYLE_USAGE( .BOTH., #292 );
#199 = FACE_OUTER_BOUND( '', #293, .T. );
#200 = FACE_BOUND( '', #294, .T. );
#201 = CONICAL_SURFACE( '', #295, 1.22950000000000, 1.02974425870000 );
#202 = PRODUCT_CONTEXT( '', #35, 'mechanical' );
#203 = PRODUCT_DEFINITION_FORMATION_WITH_SPECIFIED_SOURCE( ' ', 'NONE', #98, .NOT_KNOWN. );
#204 = CLOSED_SHELL( '', ( #53, #69, #49, #77, #63, #87, #57, #79, #81, #85, #91, #83, #65, #75, #67, #89, #51, #55, #71, #73, #61, #59, #93, #97, #95 ) );
#205 = CARTESIAN_POINT( '', ( 0.000000000000000, 0.000000000000000, 0.000000000000000 ) );
#206 = DIRECTION( '', ( 0.000000000000000, 0.000000000000000, 1.00000000000000 ) );
#207 = DIRECTION( '', ( 1.00000000000000, 0.000000000000000, 0.000000000000000 ) );
#208 =  ( LENGTH_UNIT(  )NAMED_UNIT( #107 )SI_UNIT( .MILLI., .METRE. ) );
#209 = SURFACE_SIDE_STYLE( '', ( #297 ) );
#210 = EDGE_LOOP( '', ( #298, #299, #300, #301, #302 ) );
#211 = AXIS2_PLACEMENT_3D( '', #303, #304, #305 );
#212 = SURFACE_SIDE_STYLE( '', ( #306 ) );
#213 = EDGE_LOOP( '', ( #307 ) );
#214 = EDGE_LOOP( '', ( #308 ) );
#215 = AXIS2_PLACEMENT_3D( '', #309, #310, #311 );
#216 = SURFACE_SIDE_STYLE( '', ( #312 ) );
#217 = EDGE_LOOP( '', ( #313, #314, #315 ) );
#218 = AXIS2_PLACEMENT_3D( '', #316, #317, #318 );
#219 = SURFACE_SIDE_STYLE( '', ( #319 ) );
#220 = EDGE_LOOP( '', ( #320 ) );
#221 = EDGE_LOOP( '', ( #321 ) );
#222 = AXIS2_PLACEMENT_3D( '', #322, #323, #324 );
#223 = SURFACE_SIDE_STYLE( '', ( #325 ) );
#224 = EDGE_LOOP( '', ( #326 ) );
#225 = EDGE_LOOP( '', ( #327, #328, #329, #330, #331, #332 ) );
#226 = AXIS2_PLACEMENT_3D( '', #333, #334, #335 );
#227 = SURFACE_SIDE_STYLE( '', ( #336 ) );
#228 = EDGE_LOOP( '', ( #337, #338, #339 ) );
#229 = AXIS2_PLACEMENT_3D( '', #340, #341, #342 );
#230 = SURFACE_SIDE_STYLE( '', ( #343 ) );
#231 = EDGE_LOOP( '', ( #344, #345, #346 ) );
#232 = AXIS2_PLACEMENT_3D( '', #347, #348, #349 );
#233 = SURFACE_SIDE_STYLE( '', ( #350 ) );
#234 = EDGE_LOOP( '', ( #351, #352, #353, #354, #355 ) );
#235 = AXIS2_PLACEMENT_3D( '', #356, #357, #358 );
#236 = SURFACE_SIDE_STYLE( '', ( #359 ) );
#237 = EDGE_LOOP( '', ( #360 ) );
#238 = EDGE_LOOP( '', ( #361 ) );
#239 = AXIS2_PLACEMENT_3D( '', #362, #363, #364 );
#240 = SURFACE_SIDE_STYLE( '', ( #365 ) );
#241 = EDGE_LOOP( '', ( #366, #367, #368, #369, #370 ) );
#242 = AXIS2_PLACEMENT_3D( '', #371, #372, #373 );
#243 = SURFACE_SIDE_STYLE( '', ( #374 ) );
#244 = EDGE_LOOP( '', ( #375, #376, #377, #378, #379 ) );
#245 = AXIS2_PLACEMENT_3D( '', #380, #381, #382 );
#246 = SURFACE_SIDE_STYLE( '', ( #383 ) );
#247 = EDGE_LOOP( '', ( #384, #385, #386 ) );
#248 = AXIS2_PLACEMENT_3D( '', #387, #388, #389 );
#249 = SURFACE_SIDE_STYLE( '', ( #390 ) );
#250 = EDGE_LOOP( '', ( #391, #392, #393 ) );
#251 = AXIS2_PLACEMENT_3D( '', #394, #395, #396 );
#252 = SURFACE_SIDE_STYLE( '', ( #397 ) );
#253 = EDGE_LOOP( '', ( #398 ) );
#254 = EDGE_LOOP( '', ( #399 ) );
#255 = AXIS2_PLACEMENT_3D( '', #400, #401, #402 );
#256 = SURFACE_SIDE_STYLE( '', ( #403 ) );
#257 = EDGE_LOOP( '', ( #404, #405, #406, #407, #408 ) );
#258 = AXIS2_PLACEMENT_3D( '', #409, #410, #411 );
#259 = SURFACE_SIDE_STYLE( '', ( #412 ) );
#260 = EDGE_LOOP( '', ( #413 ) );
#261 = EDGE_LOOP( '', ( #414, #415, #416, #417, #418, #419 ) );
#262 = AXIS2_PLACEMENT_3D( '', #420, #421, #422 );
#263 = SURFACE_SIDE_STYLE( '', ( #423 ) );
#264 = EDGE_LOOP( '', ( #424 ) );
#265 = EDGE_LOOP( '', ( #425 ) );
#266 = AXIS2_PLACEMENT_3D( '', #426, #427, #428 );
#267 = SURFACE_SIDE_STYLE( '', ( #429 ) );
#268 = EDGE_LOOP( '', ( #430 ) );
#269 = AXIS2_PLACEMENT_3D( '', #431, #432, #433 );
#270 = SURFACE_SIDE_STYLE( '', ( #434 ) );
#271 = EDGE_LOOP( '', ( #435 ) );
#272 = EDGE_LOOP( '', ( #436 ) );
#273 = AXIS2_PLACEMENT_3D( '', #437, #438, #439 );
#274 = SURFACE_SIDE_STYLE( '', ( #440 ) );
#275 = EDGE_LOOP( '', ( #441, #442, #443, #444, #445 ) );
#276 = AXIS2_PLACEMENT_3D( '', #446, #447, #448 );
#277 = SURFACE_SIDE_STYLE( '', ( #449 ) );
#278 = EDGE_LOOP( '', ( #450 ) );
#279 = EDGE_LOOP( '', ( #451 ) );
#280 = AXIS2_PLACEMENT_3D( '', #452, #453, #454 );
#281 = SURFACE_SIDE_STYLE( '', ( #455 ) );
#282 = EDGE_LOOP( '', ( #456 ) );
#283 = EDGE_LOOP( '', ( #457 ) );
#284 = AXIS2_PLACEMENT_3D( '', #458, #459, #460 );
#285 = SURFACE_SIDE_STYLE( '', ( #461 ) );
#286 = EDGE_LOOP( '', ( #462, #463, #464 ) );
#287 = AXIS2_PLACEMENT_3D( '', #465, #466, #467 );
#288 = SURFACE_SIDE_STYLE( '', ( #468 ) );
#289 = EDGE_LOOP( '', ( #469 ) );
#290 = EDGE_LOOP( '', ( #470 ) );
#291 = AXIS2_PLACEMENT_3D( '', #471, #472, #473 );
#292 = SURFACE_SIDE_STYLE( '', ( #474 ) );
#293 = EDGE_LOOP( '', ( #475 ) );
#294 = VERTEX_LOOP( '', #476 );
#295 = AXIS2_PLACEMENT_3D( '', #477, #478, #479 );
#297 = SURFACE_STYLE_FILL_AREA( #480 );
#298 = ORIENTED_EDGE( '', *, *, #481, .F. );
#299 = ORIENTED_EDGE( '', *, *, #482, .F. );
#300 = ORIENTED_EDGE( '', *, *, #483, .F. );
#301 = ORIENTED_EDGE( '', *, *, #484, .T. );
#302 = ORIENTED_EDGE( '', *, *, #485, .F. );
#303 = CARTESIAN_POINT( '', ( -3.17542648054295, -2.16840434497101E-016, 45.0000000000000 ) );
#304 = DIRECTION( '', ( 0.866025403784438, 0.500000000000000, 0.000000000000000 ) );
#305 = DIRECTION( '', ( -0.500000000000000, 0.866025403784438, 0.000000000000000 ) );
#306 = SURFACE_STYLE_FILL_AREA( #486 );
#307 = ORIENTED_EDGE( '', *, *, #487, .F. );
#308 = ORIENTED_EDGE( '', *, *, #488, .F. );
#309 = CARTESIAN_POINT( '', ( 5.82443086171014E-014, 0.000000000000000, 45.4464101615138 ) );
#310 = DIRECTION( '', ( -1.68665076409873E-015, 0.000000000000000, -1.00000000000000 ) );
#311 = DIRECTION( '', ( -1.00000000000000, 0.000000000000000, 1.68665076409874E-015 ) );
#312 = SURFACE_STYLE_FILL_AREA( #489 );
#313 = ORIENTED_EDGE( '', *, *, #481, .T. );
#314 = ORIENTED_EDGE( '', *, *, #490, .T. );
#315 = ORIENTED_EDGE( '', *, *, #491, .T. );
#316 = CARTESIAN_POINT( '', ( 0.000000000000000, 0.000000000000000, 0.000000000000000 ) );
#317 = DIRECTION( '', ( -0.000000000000000, -0.000000000000000, 1.00000000000000 ) );
#318 = DIRECTION( '', ( 1.00000000000000, 0.000000000000000, 0.000000000000000 ) );
#319 = SURFACE_STYLE_FILL_AREA( #492 );
#320 = ORIENTED_EDGE( '', *, *, #493, .F. );
#321 = ORIENTED_EDGE( '', *, *, #494, .F. );
#322 = CARTESIAN_POINT( '', ( 6.72739450088554E-014, 0.000000000000000, 50.8000000000000 ) );
#323 = DIRECTION( '', ( -1.68665076409874E-015, 0.000000000000000, -1.00000000000000 ) );
#324 = DIRECTION( '', ( -1.00000000000000, 0.000000000000000, 1.68665076409874E-015 ) );
#325 = SURFACE_STYLE_FILL_AREA( #495 );
#326 = ORIENTED_EDGE( '', *, *, #496, .T. );
#327 = ORIENTED_EDGE( '', *, *, #497, .F. );
#328 = ORIENTED_EDGE( '', *, *, #498, .F. );
#329 = ORIENTED_EDGE( '', *, *, #499, .F. );
#330 = ORIENTED_EDGE( '', *, *, #500, .F. );
#331 = ORIENTED_EDGE( '', *, *, #490, .F. );
#332 = ORIENTED_EDGE( '', *, *, #501, .F. );
#333 = CARTESIAN_POINT( '', ( 0.000000000000000, 0.000000000000000, 0.000000000000000 ) );
#334 = DIRECTION( '', ( 0.000000000000000, 0.000000000000000, 1.00000000000000 ) );
#335 = DIRECTION( '', ( 1.00000000000000, 0.000000000000000, 0.000000000000000 ) );
#336 = SURFACE_STYLE_FILL_AREA( #502 );
#337 = ORIENTED_EDGE( '', *, *, #503, .T. );
#338 = ORIENTED_EDGE( '', *, *, #504, .T. );
#339 = ORIENTED_EDGE( '', *, *, #497, .T. );
#340 = CARTESIAN_POINT( '', ( 0.000000000000000, 0.000000000000000, 0.000000000000000 ) );
#341 = DIRECTION( '', ( -0.000000000000000, -0.000000000000000, 1.00000000000000 ) );
#342 = DIRECTION( '', ( 1.00000000000000, 0.000000000000000, 0.000000000000000 ) );
#343 = SURFACE_STYLE_FILL_AREA( #505 );
#344 = ORIENTED_EDGE( '', *, *, #485, .T. );
#345 = ORIENTED_EDGE( '', *, *, #506, .T. );
#346 = ORIENTED_EDGE( '', *, *, #501, .T. );
#347 = CARTESIAN_POINT( '', ( 0.000000000000000, 0.000000000000000, 0.000000000000000 ) );
#348 = DIRECTION( '', ( -0.000000000000000, -0.000000000000000, 1.00000000000000 ) );
#349 = DIRECTION( '', ( 1.00000000000000, 0.000000000000000, 0.000000000000000 ) );
#350 = SURFACE_STYLE_FILL_AREA( #507 );
#351 = ORIENTED_EDGE( '', *, *, #508, .F. );
#352 = ORIENTED_EDGE( '', *, *, #509, .F. );
#353 = ORIENTED_EDGE( '', *, *, #510, .F. );
#354 = ORIENTED_EDGE( '', *, *, #511, .T. );
#355 = ORIENTED_EDGE( '', *, *, #512, .F. );
#356 = CARTESIAN_POINT( '', ( 1.58771324027147, -2.75000000000000, 45.0000000000000 ) );
#357 = DIRECTION( '', ( -0.866025403784439, 0.500000000000000, 0.000000000000000 ) );
#358 = DIRECTION( '', ( -0.500000000000000, -0.866025403784439, 0.000000000000000 ) );
#359 = SURFACE_STYLE_FILL_AREA( #513 );
#360 = ORIENTED_EDGE( '', *, *, #514, .F. );
#361 = ORIENTED_EDGE( '', *, *, #515, .T. );
#362 = CARTESIAN_POINT( '', ( 0.000000000000000, 0.000000000000000, 0.000000000000000 ) );
#363 = DIRECTION( '', ( -0.000000000000000, 0.000000000000000, -1.00000000000000 ) );
#364 = DIRECTION( '', ( 0.000000000000000, 1.00000000000000, 0.000000000000000 ) );
#365 = SURFACE_STYLE_FILL_AREA( #516 );
#366 = ORIENTED_EDGE( '', *, *, #504, .F. );
#367 = ORIENTED_EDGE( '', *, *, #517, .F. );
#368 = ORIENTED_EDGE( '', *, *, #518, .F. );
#369 = ORIENTED_EDGE( '', *, *, #519, .T. );
#370 = ORIENTED_EDGE( '', *, *, #520, .F. );
#371 = CARTESIAN_POINT( '', ( 1.58771324027147, 2.75000000000000, 45.0000000000000 ) );
#372 = DIRECTION( '', ( -2.45833297975171E-015, -1.00000000000000, 0.000000000000000 ) );
#373 = DIRECTION( '', ( 1.00000000000000, -2.45833297975171E-015, 0.000000000000000 ) );
#374 = SURFACE_STYLE_FILL_AREA( #521 );
#375 = ORIENTED_EDGE( '', *, *, #506, .F. );
#376 = ORIENTED_EDGE( '', *, *, #484, .F. );
#377 = ORIENTED_EDGE( '', *, *, #522, .F. );
#378 = ORIENTED_EDGE( '', *, *, #517, .T. );
#379 = ORIENTED_EDGE( '', *, *, #503, .F. );
#380 = CARTESIAN_POINT( '', ( -1.58771324027147, 2.75000000000000, 45.0000000000000 ) );
#381 = DIRECTION( '', ( 0.866025403784439, -0.500000000000000, 0.000000000000000 ) );
#382 = DIRECTION( '', ( 0.500000000000000, 0.866025403784439, 0.000000000000000 ) );
#383 = SURFACE_STYLE_FILL_AREA( #523 );
#384 = ORIENTED_EDGE( '', *, *, #508, .T. );
#385 = ORIENTED_EDGE( '', *, *, #499, .T. );
#386 = ORIENTED_EDGE( '', *, *, #524, .T. );
#387 = CARTESIAN_POINT( '', ( 0.000000000000000, 0.000000000000000, 0.000000000000000 ) );
#388 = DIRECTION( '', ( -0.000000000000000, -0.000000000000000, 1.00000000000000 ) );
#389 = DIRECTION( '', ( 1.00000000000000, 0.000000000000000, 0.000000000000000 ) );
#390 = SURFACE_STYLE_FILL_AREA( #525 );
#391 = ORIENTED_EDGE( '', *, *, #526, .T. );
#392 = ORIENTED_EDGE( '', *, *, #500, .T. );
#393 = ORIENTED_EDGE( '', *, *, #512, .T. );
#394 = CARTESIAN_POINT( '', ( 0.000000000000000, 0.000000000000000, 0.000000000000000 ) );
#395 = DIRECTION( '', ( -0.000000000000000, -0.000000000000000, 1.00000000000000 ) );
#396 = DIRECTION( '', ( 1.00000000000000, 0.000000000000000, 0.000000000000000 ) );
#397 = SURFACE_STYLE_FILL_AREA( #527 );
#398 = ORIENTED_EDGE( '', *, *, #515, .F. );
#399 = ORIENTED_EDGE( '', *, *, #496, .F. );
#400 = CARTESIAN_POINT( '', ( 0.000000000000000, 0.000000000000000, 0.000000000000000 ) );
#401 = DIRECTION( '', ( 0.000000000000000, -0.000000000000000, -1.00000000000000 ) );
#402 = DIRECTION( '', ( 1.00000000000000, 0.000000000000000, 0.000000000000000 ) );
#403 = SURFACE_STYLE_FILL_AREA( #528 );
#404 = ORIENTED_EDGE( '', *, *, #526, .F. );
#405 = ORIENTED_EDGE( '', *, *, #511, .F. );
#406 = ORIENTED_EDGE( '', *, *, #529, .F. );
#407 = ORIENTED_EDGE( '', *, *, #482, .T. );
#408 = ORIENTED_EDGE( '', *, *, #491, .F. );
#409 = CARTESIAN_POINT( '', ( -1.58771324027147, -2.75000000000000, 45.0000000000000 ) );
#410 = DIRECTION( '', ( 0.000000000000000, 1.00000000000000, 0.000000000000000 ) );
#411 = DIRECTION( '', ( 0.000000000000000, 0.000000000000000, 1.00000000000000 ) );
#412 = SURFACE_STYLE_FILL_AREA( #530 );
#413 = ORIENTED_EDGE( '', *, *, #531, .T. );
#414 = ORIENTED_EDGE( '', *, *, #518, .T. );
#415 = ORIENTED_EDGE( '', *, *, #522, .T. );
#416 = ORIENTED_EDGE( '', *, *, #483, .T. );
#417 = ORIENTED_EDGE( '', *, *, #529, .T. );
#418 = ORIENTED_EDGE( '', *, *, #510, .T. );
#419 = ORIENTED_EDGE( '', *, *, #532, .T. );
#420 = CARTESIAN_POINT( '', ( 0.000000000000000, 0.000000000000000, 45.0000000000000 ) );
#421 = DIRECTION( '', ( 0.000000000000000, 0.000000000000000, 1.00000000000000 ) );
#422 = DIRECTION( '', ( 1.00000000000000, 0.000000000000000, 0.000000000000000 ) );
#423 = SURFACE_STYLE_FILL_AREA( #533 );
#424 = ORIENTED_EDGE( '', *, *, #488, .T. );
#425 = ORIENTED_EDGE( '', *, *, #534, .T. );
#426 = CARTESIAN_POINT( '', ( 1.45244597725756E-016, 0.000000000000000, 11.0000000000000 ) );
#427 = DIRECTION( '', ( 1.68665076409873E-015, -0.000000000000000, 1.00000000000000 ) );
#428 = DIRECTION( '', ( -1.00000000000000, 0.000000000000000, 1.68665076409874E-015 ) );
#429 = SURFACE_STYLE_FILL_AREA( #535 );
#430 = ORIENTED_EDGE( '', *, *, #493, .T. );
#431 = CARTESIAN_POINT( '', ( -1.50000000000000, 0.000000000000000, 51.0000000000000 ) );
#432 = DIRECTION( '', ( 1.68665076409874E-015, 0.000000000000000, 1.00000000000000 ) );
#433 = DIRECTION( '', ( 1.00000000000000, 0.000000000000000, -1.68665076409874E-015 ) );
#434 = SURFACE_STYLE_FILL_AREA( #536 );
#435 = ORIENTED_EDGE( '', *, *, #487, .T. );
#436 = ORIENTED_EDGE( '', *, *, #537, .T. );
#437 = CARTESIAN_POINT( '', ( 5.83346959591321E-014, 0.000000000000000, 45.5000000000000 ) );
#438 = DIRECTION( '', ( 1.68665076409873E-015, -0.000000000000000, 1.00000000000000 ) );
#439 = DIRECTION( '', ( 1.00000000000000, 0.000000000000000, -1.68665076409874E-015 ) );
#440 = SURFACE_STYLE_FILL_AREA( #538 );
#441 = ORIENTED_EDGE( '', *, *, #539, .F. );
#442 = ORIENTED_EDGE( '', *, *, #519, .F. );
#443 = ORIENTED_EDGE( '', *, *, #532, .F. );
#444 = ORIENTED_EDGE( '', *, *, #509, .T. );
#445 = ORIENTED_EDGE( '', *, *, #524, .F. );
#446 = CARTESIAN_POINT( '', ( 3.17542648054294, -2.16840434497101E-016, 45.0000000000000 ) );
#447 = DIRECTION( '', ( -0.866025403784439, -0.500000000000000, 0.000000000000000 ) );
#448 = DIRECTION( '', ( 0.500000000000000, -0.866025403784439, 0.000000000000000 ) );
#449 = SURFACE_STYLE_FILL_AREA( #540 );
#450 = ORIENTED_EDGE( '', *, *, #531, .F. );
#451 = ORIENTED_EDGE( '', *, *, #534, .F. );
#452 = CARTESIAN_POINT( '', ( 5.78287007299024E-014, 0.000000000000000, 45.2000000000000 ) );
#453 = DIRECTION( '', ( 0.000000000000000, 0.000000000000000, 1.00000000000000 ) );
#454 = DIRECTION( '', ( 1.00000000000000, 0.000000000000000, 0.000000000000000 ) );
#455 = SURFACE_STYLE_FILL_AREA( #541 );
#456 = ORIENTED_EDGE( '', *, *, #494, .T. );
#457 = ORIENTED_EDGE( '', *, *, #537, .F. );
#458 = CARTESIAN_POINT( '', ( 1.45244597725756E-016, 0.000000000000000, 11.0000000000000 ) );
#459 = DIRECTION( '', ( 1.68665076409874E-015, -0.000000000000000, 1.00000000000000 ) );
#460 = DIRECTION( '', ( -1.00000000000000, 0.000000000000000, 1.68665076409874E-015 ) );
#461 = SURFACE_STYLE_FILL_AREA( #542 );
#462 = ORIENTED_EDGE( '', *, *, #520, .T. );
#463 = ORIENTED_EDGE( '', *, *, #539, .T. );
#464 = ORIENTED_EDGE( '', *, *, #498, .T. );
#465 = CARTESIAN_POINT( '', ( 0.000000000000000, 0.000000000000000, 0.000000000000000 ) );
#466 = DIRECTION( '', ( -0.000000000000000, -0.000000000000000, 1.00000000000000 ) );
#467 = DIRECTION( '', ( 1.00000000000000, 0.000000000000000, 0.000000000000000 ) );
#468 = SURFACE_STYLE_FILL_AREA( #543 );
#469 = ORIENTED_EDGE( '', *, *, #544, .T. );
#470 = ORIENTED_EDGE( '', *, *, #514, .T. );
#471 = CARTESIAN_POINT( '', ( 0.000000000000000, 0.000000000000000, 0.000000000000000 ) );
#472 = DIRECTION( '', ( -0.000000000000000, 0.000000000000000, -1.00000000000000 ) );
#473 = DIRECTION( '', ( 0.000000000000000, 1.00000000000000, 0.000000000000000 ) );
#474 = SURFACE_STYLE_FILL_AREA( #545 );
#475 = ORIENTED_EDGE( '', *, *, #544, .F. );
#476 = VERTEX_POINT( '', #546 );
#477 = CARTESIAN_POINT( '', ( 0.000000000000000, 0.000000000000000, 7.75000000000000 ) );
#478 = DIRECTION( '', ( 0.000000000000000, -0.000000000000000, -1.00000000000000 ) );
#479 = DIRECTION( '', ( 0.000000000000000, -1.00000000000000, 0.000000000000000 ) );
#480 = FILL_AREA_STYLE( '', ( #547 ) );
#481 = EDGE_CURVE( '', #548, #549, #550, .T. );
#482 = EDGE_CURVE( '', #551, #548, #552, .T. );
#483 = EDGE_CURVE( '', #553, #551, #554, .T. );
#484 = EDGE_CURVE( '', #553, #555, #556, .T. );
#485 = EDGE_CURVE( '', #549, #555, #557, .T. );
#486 = FILL_AREA_STYLE( '', ( #558 ) );
#487 = EDGE_CURVE( '', #559, #559, #560, .T. );
#488 = EDGE_CURVE( '', #561, #561, #562, .T. );
#489 = FILL_AREA_STYLE( '', ( #563 ) );
#490 = EDGE_CURVE( '', #549, #564, #565, .T. );
#491 = EDGE_CURVE( '', #564, #548, #566, .F. );
#492 = FILL_AREA_STYLE( '', ( #567 ) );
#493 = EDGE_CURVE( '', #568, #568, #569, .T. );
#494 = EDGE_CURVE( '', #570, #570, #571, .F. );
#495 = FILL_AREA_STYLE( '', ( #572 ) );
#496 = EDGE_CURVE( '', #573, #573, #574, .T. );
#497 = EDGE_CURVE( '', #575, #576, #577, .T. );
#498 = EDGE_CURVE( '', #578, #575, #579, .T. );
#499 = EDGE_CURVE( '', #580, #578, #581, .T. );
#500 = EDGE_CURVE( '', #564, #580, #582, .T. );
#501 = EDGE_CURVE( '', #576, #549, #583, .T. );
#502 = FILL_AREA_STYLE( '', ( #584 ) );
#503 = EDGE_CURVE( '', #576, #585, #586, .T. );
#504 = EDGE_CURVE( '', #585, #575, #587, .T. );
#505 = FILL_AREA_STYLE( '', ( #588 ) );
#506 = EDGE_CURVE( '', #555, #576, #589, .T. );
#507 = FILL_AREA_STYLE( '', ( #590 ) );
#508 = EDGE_CURVE( '', #591, #580, #592, .T. );
#509 = EDGE_CURVE( '', #593, #591, #594, .T. );
#510 = EDGE_CURVE( '', #595, #593, #596, .T. );
#511 = EDGE_CURVE( '', #595, #597, #598, .T. );
#512 = EDGE_CURVE( '', #580, #597, #599, .T. );
#513 = FILL_AREA_STYLE( '', ( #600 ) );
#514 = EDGE_CURVE( '', #601, #601, #602, .T. );
#515 = EDGE_CURVE( '', #603, #603, #604, .T. );
#516 = FILL_AREA_STYLE( '', ( #605 ) );
#517 = EDGE_CURVE( '', #606, #585, #607, .T. );
#518 = EDGE_CURVE( '', #608, #606, #609, .T. );
#519 = EDGE_CURVE( '', #608, #610, #611, .T. );
#520 = EDGE_CURVE( '', #575, #610, #612, .T. );
#521 = FILL_AREA_STYLE( '', ( #613 ) );
#522 = EDGE_CURVE( '', #606, #553, #614, .T. );
#523 = FILL_AREA_STYLE( '', ( #615 ) );
#524 = EDGE_CURVE( '', #578, #591, #616, .T. );
#525 = FILL_AREA_STYLE( '', ( #617 ) );
#526 = EDGE_CURVE( '', #597, #564, #618, .F. );
#527 = FILL_AREA_STYLE( '', ( #619 ) );
#528 = FILL_AREA_STYLE( '', ( #620 ) );
#529 = EDGE_CURVE( '', #551, #595, #621, .T. );
#530 = FILL_AREA_STYLE( '', ( #622 ) );
#531 = EDGE_CURVE( '', #623, #623, #624, .F. );
#532 = EDGE_CURVE( '', #593, #608, #625, .T. );
#533 = FILL_AREA_STYLE( '', ( #626 ) );
#534 = EDGE_CURVE( '', #627, #627, #628, .T. );
#535 = FILL_AREA_STYLE( '', ( #629 ) );
#536 = FILL_AREA_STYLE( '', ( #630 ) );
#537 = EDGE_CURVE( '', #631, #631, #632, .T. );
#538 = FILL_AREA_STYLE( '', ( #633 ) );
#539 = EDGE_CURVE( '', #610, #578, #634, .T. );
#540 = FILL_AREA_STYLE( '', ( #635 ) );
#541 = FILL_AREA_STYLE( '', ( #636 ) );
#542 = FILL_AREA_STYLE( '', ( #637 ) );
#543 = FILL_AREA_STYLE( '', ( #638 ) );
#544 = EDGE_CURVE( '', #639, #639, #640, .T. );
#545 = FILL_AREA_STYLE( '', ( #641 ) );
#546 = CARTESIAN_POINT( '', ( 0.000000000000000, 0.000000000000000, 8.48875813109439 ) );
#547 = FILL_AREA_STYLE_COLOUR( '', #642 );
#548 = VERTEX_POINT( '', #643 );
#549 = VERTEX_POINT( '', #644 );
#550 = B_SPLINE_CURVE_WITH_KNOTS( '', 3, ( #645, #646, #647, #648, #649, #650, #651, #652 ), .UNSPECIFIED., .F., .F., ( 4, 2, 2, 4 ), ( 0.000000000000000, 0.000823158556616039, 0.00123461061807352, 0.00164606267953101 ), .UNSPECIFIED. );
#551 = VERTEX_POINT( '', #653 );
#552 = LINE( '', #654, #655 );
#553 = VERTEX_POINT( '', #656 );
#554 = LINE( '', #657, #658 );
#555 = VERTEX_POINT( '', #659 );
#556 = LINE( '', #660, #661 );
#557 = B_SPLINE_CURVE_WITH_KNOTS( '', 3, ( #662, #663, #664, #665, #666, #667 ), .UNSPECIFIED., .F., .F., ( 4, 2, 4 ), ( 0.00164606267953101, 0.00246320102019253, 0.00328033936085405 ), .UNSPECIFIED. );
#558 = FILL_AREA_STYLE_COLOUR( '', #668 );
#559 = VERTEX_POINT( '', #669 );
#560 = CIRCLE( '', #670, 1.09378221740000 );
#561 = VERTEX_POINT( '', #671 );
#562 = CIRCLE( '', #672, 1.06698729810000 );
#563 = FILL_AREA_STYLE_COLOUR( '', #673 );
#564 = VERTEX_POINT( '', #674 );
#565 = CIRCLE( '', #675, 2.75000000000000 );
#566 = B_SPLINE_CURVE_WITH_KNOTS( '', 3, ( #676, #677, #678, #679, #680, #681, #682, #683 ), .UNSPECIFIED., .F., .F., ( 4, 2, 2, 4 ), ( 0.00302411526438277, 0.00384377470949773, 0.00425360443205521, 0.00466343415461270 ), .UNSPECIFIED. );
#567 = FILL_AREA_STYLE_COLOUR( '', #684 );
#568 = VERTEX_POINT( '', #685 );
#569 = CIRCLE( '', #686, 1.30000000000000 );
#570 = VERTEX_POINT( '', #687 );
#571 = CIRCLE( '', #688, 1.50000000000000 );
#572 = FILL_AREA_STYLE_COLOUR( '', #689 );
#573 = VERTEX_POINT( '', #690 );
#574 = CIRCLE( '', #691, 1.42950000000000 );
#575 = VERTEX_POINT( '', #692 );
#576 = VERTEX_POINT( '', #693 );
#577 = CIRCLE( '', #694, 2.75000000000000 );
#578 = VERTEX_POINT( '', #695 );
#579 = CIRCLE( '', #696, 2.75000000000000 );
#580 = VERTEX_POINT( '', #697 );
#581 = CIRCLE( '', #698, 2.75000000000000 );
#582 = CIRCLE( '', #699, 2.75000000000000 );
#583 = CIRCLE( '', #700, 2.75000000000000 );
#584 = FILL_AREA_STYLE_COLOUR( '', #701 );
#585 = VERTEX_POINT( '', #702 );
#586 = B_SPLINE_CURVE_WITH_KNOTS( '', 3, ( #703, #704, #705, #706, #707, #708 ), .UNSPECIFIED., .F., .F., ( 4, 2, 4 ), ( 0.00164606267953101, 0.00246320102019253, 0.00328033936085405 ), .UNSPECIFIED. );
#587 = B_SPLINE_CURVE_WITH_KNOTS( '', 3, ( #709, #710, #711, #712, #713, #714, #715, #716 ), .UNSPECIFIED., .F., .F., ( 4, 2, 2, 4 ), ( 0.00302411526438279, 0.00384377470949776, 0.00425360443205524, 0.00466343415461272 ), .UNSPECIFIED. );
#588 = FILL_AREA_STYLE_COLOUR( '', #717 );
#589 = B_SPLINE_CURVE_WITH_KNOTS( '', 3, ( #718, #719, #720, #721, #722, #723, #724, #725 ), .UNSPECIFIED., .F., .F., ( 4, 2, 2, 4 ), ( 0.000000000000000, 0.000823158556616039, 0.00123461061807352, 0.00164606267953101 ), .UNSPECIFIED. );
#590 = FILL_AREA_STYLE_COLOUR( '', #726 );
#591 = VERTEX_POINT( '', #727 );
#592 = B_SPLINE_CURVE_WITH_KNOTS( '', 3, ( #728, #729, #730, #731, #732, #733, #734, #735 ), .UNSPECIFIED., .F., .F., ( 4, 2, 2, 4 ), ( 0.000000000000000, 0.000823158556616039, 0.00123461061807352, 0.00164606267953101 ), .UNSPECIFIED. );
#593 = VERTEX_POINT( '', #736 );
#594 = LINE( '', #737, #738 );
#595 = VERTEX_POINT( '', #739 );
#596 = LINE( '', #740, #741 );
#597 = VERTEX_POINT( '', #742 );
#598 = LINE( '', #743, #744 );
#599 = B_SPLINE_CURVE_WITH_KNOTS( '', 3, ( #745, #746, #747, #748, #749, #750 ), .UNSPECIFIED., .F., .F., ( 4, 2, 4 ), ( 0.00164606267953101, 0.00246320102019253, 0.00328033936085405 ), .UNSPECIFIED. );
#600 = FILL_AREA_STYLE_COLOUR( '', #751 );
#601 = VERTEX_POINT( '', #752 );
#602 = CIRCLE( '', #753, 1.22950000000000 );
#603 = VERTEX_POINT( '', #754 );
#604 = CIRCLE( '', #755, 1.22950000000000 );
#605 = FILL_AREA_STYLE_COLOUR( '', #756 );
#606 = VERTEX_POINT( '', #757 );
#607 = LINE( '', #758, #759 );
#608 = VERTEX_POINT( '', #760 );
#609 = LINE( '', #761, #762 );
#610 = VERTEX_POINT( '', #763 );
#611 = LINE( '', #764, #765 );
#612 = B_SPLINE_CURVE_WITH_KNOTS( '', 3, ( #766, #767, #768, #769, #770, #771, #772, #773 ), .UNSPECIFIED., .F., .F., ( 4, 2, 2, 4 ), ( 0.00466343415461272, 0.00548435711758288, 0.00589481859906796, 0.00630528008055304 ), .UNSPECIFIED. );
#613 = FILL_AREA_STYLE_COLOUR( '', #774 );
#614 = LINE( '', #775, #776 );
#615 = FILL_AREA_STYLE_COLOUR( '', #777 );
#616 = B_SPLINE_CURVE_WITH_KNOTS( '', 3, ( #778, #779, #780, #781, #782, #783 ), .UNSPECIFIED., .F., .F., ( 4, 2, 4 ), ( 0.00164606267953101, 0.00246320102019253, 0.00328033936085404 ), .UNSPECIFIED. );
#617 = FILL_AREA_STYLE_COLOUR( '', #784 );
#618 = B_SPLINE_CURVE_WITH_KNOTS( '', 3, ( #785, #786, #787, #788, #789, #790, #791, #792 ), .UNSPECIFIED., .F., .F., ( 4, 2, 2, 4 ), ( 0.00466343415461270, 0.00548435711758286, 0.00589481859906794, 0.00630528008055302 ), .UNSPECIFIED. );
#619 = FILL_AREA_STYLE_COLOUR( '', #793 );
#620 = FILL_AREA_STYLE_COLOUR( '', #794 );
#621 = LINE( '', #795, #796 );
#622 = FILL_AREA_STYLE_COLOUR( '', #797 );
#623 = VERTEX_POINT( '', #798 );
#624 = CIRCLE( '', #799, 1.26698729810000 );
#625 = LINE( '', #800, #801 );
#626 = FILL_AREA_STYLE_COLOUR( '', #802 );
#627 = VERTEX_POINT( '', #803 );
#628 = CIRCLE( '', #804, 1.06698729810000 );
#629 = FILL_AREA_STYLE_COLOUR( '', #805 );
#630 = FILL_AREA_STYLE_COLOUR( '', #806 );
#631 = VERTEX_POINT( '', #807 );
#632 = CIRCLE( '', #808, 1.50000000000000 );
#633 = FILL_AREA_STYLE_COLOUR( '', #809 );
#634 = B_SPLINE_CURVE_WITH_KNOTS( '', 3, ( #810, #811, #812, #813, #814, #815, #816, #817 ), .UNSPECIFIED., .F., .F., ( 4, 2, 2, 4 ), ( 0.000000000000000, 0.000823158556616040, 0.00123461061807352, 0.00164606267953101 ), .UNSPECIFIED. );
#635 = FILL_AREA_STYLE_COLOUR( '', #818 );
#636 = FILL_AREA_STYLE_COLOUR( '', #819 );
#637 = FILL_AREA_STYLE_COLOUR( '', #820 );
#638 = FILL_AREA_STYLE_COLOUR( '', #821 );
#639 = VERTEX_POINT( '', #822 );
#640 = CIRCLE( '', #823, 1.22950000000000 );
#641 = FILL_AREA_STYLE_COLOUR( '', #824 );
#642 = COLOUR_RGB( '', 0.329411774900000, 0.337254911700000, 0.349019616800000 );
#643 = CARTESIAN_POINT( '', ( -1.58771324027147, -2.75000000000000, 0.425426480542944 ) );
#644 = CARTESIAN_POINT( '', ( -2.38156986040721, -1.37500000000000, 0.000000000000000 ) );
#645 = CARTESIAN_POINT( '', ( -1.58771324027148, -2.75000000000000, 0.425426480542946 ) );
#646 = CARTESIAN_POINT( '', ( -1.71220076095465, -2.53438128926847, 0.300938959859774 ) );
#647 = CARTESIAN_POINT( '', ( -1.83950592286787, -2.31388228076899, 0.195156609575101 ) );
#648 = CARTESIAN_POINT( '', ( -2.03732840800636, -1.97124368562959, 0.0820553069377983 ) );
#649 = CARTESIAN_POINT( '', ( -2.10442550436110, -1.85502810570283, 0.0520308640022624 ) );
#650 = CARTESIAN_POINT( '', ( -2.24147164392648, -1.61765722899441, 0.0109148895814824 ) );
#651 = CARTESIAN_POINT( '', ( -2.31204097171544, -1.49542756780796, 7.06594884599537E-015 ) );
#652 = CARTESIAN_POINT( '', ( -2.38156986040721, -1.37500000000000, 7.04731412115574E-015 ) );
#653 = CARTESIAN_POINT( '', ( -1.58771324027147, -2.75000000000000, 45.0000000000000 ) );
#654 = CARTESIAN_POINT( '', ( -1.58771324027147, -2.75000000000000, 45.0000000000000 ) );
#655 = VECTOR( '', #825, 1000.00000000000 );
#656 = CARTESIAN_POINT( '', ( -3.17542648054295, 0.000000000000000, 45.0000000000000 ) );
#657 = CARTESIAN_POINT( '', ( -3.17542648054295, -2.16840434497101E-016, 45.0000000000000 ) );
#658 = VECTOR( '', #826, 1000.00000000000 );
#659 = CARTESIAN_POINT( '', ( -3.17542648054295, 0.000000000000000, 0.425426480542949 ) );
#660 = CARTESIAN_POINT( '', ( -3.17542648054295, 0.000000000000000, 45.0000000000000 ) );
#661 = VECTOR( '', #827, 1000.00000000000 );
#662 = CARTESIAN_POINT( '', ( -2.38156986040721, -1.37500000000000, 7.04731412115574E-015 ) );
#663 = CARTESIAN_POINT( '', ( -2.51965331181193, -1.13583244648257, 7.01724445152825E-015 ) );
#664 = CARTESIAN_POINT( '', ( -2.65538901888925, -0.900731305423364, 0.0422271491654021 ) );
#665 = CARTESIAN_POINT( '', ( -2.92309421098543, -0.437052311262785, 0.194421711542992 ) );
#666 = CARTESIAN_POINT( '', ( -3.05108278530352, -0.215369597755558, 0.301082785303199 ) );
#667 = CARTESIAN_POINT( '', ( -3.17542648054300, 9.01333748031629E-014, 0.425426480542690 ) );
#668 = COLOUR_RGB( '', 0.329411774900000, 0.337254911700000, 0.349019616800000 );
#669 = CARTESIAN_POINT( '', ( 1.09378221735101, 0.000000000000000, 45.5464101615138 ) );
#670 = AXIS2_PLACEMENT_3D( '', #828, #829, #830 );
#671 = CARTESIAN_POINT( '', ( -1.06698729810778, 0.000000000000000, 45.4464101615138 ) );
#672 = AXIS2_PLACEMENT_3D( '', #831, #832, #833 );
#673 = COLOUR_RGB( '', 0.329411774900000, 0.337254911700000, 0.349019616800000 );
#674 = CARTESIAN_POINT( '', ( 0.000000000000000, -2.75000000000000, 0.000000000000000 ) );
#675 = AXIS2_PLACEMENT_3D( '', #834, #835, #836 );
#676 = CARTESIAN_POINT( '', ( -1.58771324027163, -2.75000000000000, 0.425426480542718 ) );
#677 = CARTESIAN_POINT( '', ( -1.34130115347395, -2.75000000000000, 0.302220437143870 ) );
#678 = CARTESIAN_POINT( '', ( -1.08230934259622, -2.75000000000000, 0.194431183015577 ) );
#679 = CARTESIAN_POINT( '', ( -0.685731715024733, -2.75000000000000, 0.0813730511187717 ) );
#680 = CARTESIAN_POINT( '', ( -0.551665108834105, -2.75000000000000, 0.0515468261799953 ) );
#681 = CARTESIAN_POINT( '', ( -0.279017029746885, -2.75000000000000, 0.0108297176506619 ) );
#682 = CARTESIAN_POINT( '', ( -0.139107496024035, -2.75000000000000, -2.69350359766693E-014 ) );
#683 = CARTESIAN_POINT( '', ( 4.67976950753144E-015, -2.75000000000000, -2.67012954610316E-014 ) );
#684 = COLOUR_RGB( '', 0.329411774900000, 0.337254911700000, 0.349019616800000 );
#685 = CARTESIAN_POINT( '', ( 1.30000000000013, 0.000000000000000, 51.0000000000000 ) );
#686 = AXIS2_PLACEMENT_3D( '', #837, #838, #839 );
#687 = CARTESIAN_POINT( '', ( 1.50000000000013, 0.000000000000000, 50.8000000000000 ) );
#688 = AXIS2_PLACEMENT_3D( '', #840, #841, #842 );
#689 = COLOUR_RGB( '', 0.329411774900000, 0.337254911700000, 0.349019616800000 );
#690 = CARTESIAN_POINT( '', ( 1.42950000000000, 0.000000000000000, 0.000000000000000 ) );
#691 = AXIS2_PLACEMENT_3D( '', #843, #844, #845 );
#692 = CARTESIAN_POINT( '', ( 6.76041569431720E-015, 2.75000000000000, 0.000000000000000 ) );
#693 = CARTESIAN_POINT( '', ( -2.38156986040721, 1.37500000000000, 0.000000000000000 ) );
#694 = AXIS2_PLACEMENT_3D( '', #846, #847, #848 );
#695 = CARTESIAN_POINT( '', ( 2.38156986040721, 1.37500000000000, 0.000000000000000 ) );
#696 = AXIS2_PLACEMENT_3D( '', #849, #850, #851 );
#697 = CARTESIAN_POINT( '', ( 2.38156986040721, -1.37500000000000, 0.000000000000000 ) );
#698 = AXIS2_PLACEMENT_3D( '', #852, #853, #854 );
#699 = AXIS2_PLACEMENT_3D( '', #855, #856, #857 );
#700 = AXIS2_PLACEMENT_3D( '', #858, #859, #860 );
#701 = COLOUR_RGB( '', 0.329411774900000, 0.337254911700000, 0.349019616800000 );
#702 = CARTESIAN_POINT( '', ( -1.58771324027147, 2.75000000000000, 0.425426480542948 ) );
#703 = CARTESIAN_POINT( '', ( -2.38156986040721, 1.37500000000000, 3.46944695195359E-015 ) );
#704 = CARTESIAN_POINT( '', ( -2.24348640900249, 1.61416755351744, 3.49146980858223E-015 ) );
#705 = CARTESIAN_POINT( '', ( -2.10775070192517, 1.84926869457664, 0.0422271491653986 ) );
#706 = CARTESIAN_POINT( '', ( -1.84004550982899, 2.31294768873722, 0.194421711542988 ) );
#707 = CARTESIAN_POINT( '', ( -1.71205693551091, 2.53463040224444, 0.301082785303194 ) );
#708 = CARTESIAN_POINT( '', ( -1.58771324027142, 2.75000000000009, 0.425426480542684 ) );
#709 = CARTESIAN_POINT( '', ( -1.58771324027163, 2.75000000000001, 0.425426480542724 ) );
#710 = CARTESIAN_POINT( '', ( -1.34130115347395, 2.75000000000001, 0.302220437143875 ) );
#711 = CARTESIAN_POINT( '', ( -1.08230934259622, 2.75000000000001, 0.194431183015583 ) );
#712 = CARTESIAN_POINT( '', ( -0.685731715024729, 2.75000000000001, 0.0813730511187764 ) );
#713 = CARTESIAN_POINT( '', ( -0.551665108834100, 2.75000000000000, 0.0515468261799995 ) );
#714 = CARTESIAN_POINT( '', ( -0.279017029746879, 2.75000000000000, 0.0108297176506659 ) );
#715 = CARTESIAN_POINT( '', ( -0.139107496024030, 2.75000000000000, -2.29740746283784E-014 ) );
#716 = CARTESIAN_POINT( '', ( 1.02461708559989E-014, 2.75000000000000, -2.27981684672644E-014 ) );
#717 = COLOUR_RGB( '', 0.329411774900000, 0.337254911700000, 0.349019616800000 );
#718 = CARTESIAN_POINT( '', ( -3.17542648054295, -2.76447669815962E-015, 0.425426480542947 ) );
#719 = CARTESIAN_POINT( '', ( -3.05093895985977, 0.215618710731534, 0.300938959859774 ) );
#720 = CARTESIAN_POINT( '', ( -2.92363379794656, 0.436117719231010, 0.195156609575100 ) );
#721 = CARTESIAN_POINT( '', ( -2.72581131280807, 0.778756314370414, 0.0820553069377955 ) );
#722 = CARTESIAN_POINT( '', ( -2.65871421645333, 0.894971894297170, 0.0520308640022597 ) );
#723 = CARTESIAN_POINT( '', ( -2.52166807688794, 1.13234277100559, 0.0109148895814792 ) );
#724 = CARTESIAN_POINT( '', ( -2.45109874909898, 1.25457243219205, 3.45749437592014E-015 ) );
#725 = CARTESIAN_POINT( '', ( -2.38156986040721, 1.37500000000000, 3.46944695195359E-015 ) );
#726 = COLOUR_RGB( '', 0.329411774900000, 0.337254911700000, 0.349019616800000 );
#727 = CARTESIAN_POINT( '', ( 3.17542648054294, 1.04037070506538E-015, 0.425426480542941 ) );
#728 = CARTESIAN_POINT( '', ( 3.17542648054294, -2.28142345230682E-015, 0.425426480542944 ) );
#729 = CARTESIAN_POINT( '', ( 3.05093895985977, -0.215618710731538, 0.300938959859772 ) );
#730 = CARTESIAN_POINT( '', ( 2.92363379794655, -0.436117719231013, 0.195156609575099 ) );
#731 = CARTESIAN_POINT( '', ( 2.72581131280807, -0.778756314370416, 0.0820553069377954 ) );
#732 = CARTESIAN_POINT( '', ( 2.65871421645332, -0.894971894297171, 0.0520308640022595 ) );
#733 = CARTESIAN_POINT( '', ( 2.52166807688794, -1.13234277100559, 0.0109148895814793 ) );
#734 = CARTESIAN_POINT( '', ( 2.45109874909898, -1.25457243219205, 3.58040826804393E-015 ) );
#735 = CARTESIAN_POINT( '', ( 2.38156986040721, -1.37500000000000, 3.46944695195359E-015 ) );
#736 = CARTESIAN_POINT( '', ( 3.17542648054294, 8.67361737988404E-016, 45.0000000000000 ) );
#737 = CARTESIAN_POINT( '', ( 3.17542648054294, 8.67361737988404E-016, 45.0000000000000 ) );
#738 = VECTOR( '', #861, 1000.00000000000 );
#739 = CARTESIAN_POINT( '', ( 1.58771324027147, -2.75000000000000, 45.0000000000000 ) );
#740 = CARTESIAN_POINT( '', ( 1.58771324027147, -2.75000000000000, 45.0000000000000 ) );
#741 = VECTOR( '', #862, 1000.00000000000 );
#742 = CARTESIAN_POINT( '', ( 1.58771324027147, -2.75000000000000, 0.425426480542944 ) );
#743 = CARTESIAN_POINT( '', ( 1.58771324027147, -2.75000000000000, 45.0000000000000 ) );
#744 = VECTOR( '', #863, 1000.00000000000 );
#745 = CARTESIAN_POINT( '', ( 2.38156986040721, -1.37500000000000, 3.46944695195359E-015 ) );
#746 = CARTESIAN_POINT( '', ( 2.24348640900249, -1.61416755351744, 3.27039420934885E-015 ) );
#747 = CARTESIAN_POINT( '', ( 2.10775070192518, -1.84926869457664, 0.0422271491653982 ) );
#748 = CARTESIAN_POINT( '', ( 1.84004550982899, -2.31294768873722, 0.194421711542987 ) );
#749 = CARTESIAN_POINT( '', ( 1.71205693551091, -2.53463040224444, 0.301082785303193 ) );
#750 = CARTESIAN_POINT( '', ( 1.58771324027142, -2.75000000000009, 0.425426480542684 ) );
#751 = COLOUR_RGB( '', 0.184313729400000, 0.749019622800000, 0.580392181900000 );
#752 = CARTESIAN_POINT( '', ( 0.000000000000000, 1.22950000000000, 6.00000000000000 ) );
#753 = AXIS2_PLACEMENT_3D( '', #864, #865, #866 );
#754 = CARTESIAN_POINT( '', ( -1.22950000000000, 0.000000000000000, 0.200000000000000 ) );
#755 = AXIS2_PLACEMENT_3D( '', #867, #868, #869 );
#756 = COLOUR_RGB( '', 0.329411774900000, 0.337254911700000, 0.349019616800000 );
#757 = CARTESIAN_POINT( '', ( -1.58771324027147, 2.75000000000000, 45.0000000000000 ) );
#758 = CARTESIAN_POINT( '', ( -1.58771324027147, 2.75000000000000, 45.0000000000000 ) );
#759 = VECTOR( '', #870, 1000.00000000000 );
#760 = CARTESIAN_POINT( '', ( 1.58771324027147, 2.75000000000000, 45.0000000000000 ) );
#761 = CARTESIAN_POINT( '', ( 1.58771324027147, 2.75000000000000, 45.0000000000000 ) );
#762 = VECTOR( '', #871, 1000.00000000000 );
#763 = CARTESIAN_POINT( '', ( 1.58771324027147, 2.75000000000000, 0.425426480542941 ) );
#764 = CARTESIAN_POINT( '', ( 1.58771324027147, 2.75000000000000, 45.0000000000000 ) );
#765 = VECTOR( '', #872, 1000.00000000000 );
#766 = CARTESIAN_POINT( '', ( 1.02461708559989E-014, 2.75000000000000, -2.27981684672644E-014 ) );
#767 = CARTESIAN_POINT( '', ( 0.278643864809980, 2.75000000000000, -2.24429849704499E-014 ) );
#768 = CARTESIAN_POINT( '', ( 0.550356263743472, 2.75000000000000, 0.0428808025257025 ) );
#769 = CARTESIAN_POINT( '', ( 0.949933055829293, 2.75000000000000, 0.156642496175943 ) );
#770 = CARTESIAN_POINT( '', ( 1.08237217782713, 2.75000000000000, 0.202997454069446 ) );
#771 = CARTESIAN_POINT( '', ( 1.33941767674506, 2.75000000000000, 0.306583737636430 ) );
#772 = CARTESIAN_POINT( '', ( 1.46474771457050, 2.75000000000000, 0.363943717692456 ) );
#773 = CARTESIAN_POINT( '', ( 1.58771324027147, 2.75000000000000, 0.425426480542942 ) );
#774 = COLOUR_RGB( '', 0.329411774900000, 0.337254911700000, 0.349019616800000 );
#775 = CARTESIAN_POINT( '', ( -1.58771324027147, 2.75000000000000, 45.0000000000000 ) );
#776 = VECTOR( '', #873, 1000.00000000000 );
#777 = COLOUR_RGB( '', 0.329411774900000, 0.337254911700000, 0.349019616800000 );
#778 = CARTESIAN_POINT( '', ( 2.38156986040721, 1.37500000000000, -1.30104260698263E-015 ) );
#779 = CARTESIAN_POINT( '', ( 2.51965331181192, 1.13583244648256, -1.12062458921744E-015 ) );
#780 = CARTESIAN_POINT( '', ( 2.65538901888924, 0.900731305423360, 0.0422271491653942 ) );
#781 = CARTESIAN_POINT( '', ( 2.92309421098542, 0.437052311262783, 0.194421711542983 ) );
#782 = CARTESIAN_POINT( '', ( 3.05108278530351, 0.215369597755556, 0.301082785303189 ) );
#783 = CARTESIAN_POINT( '', ( 3.17542648054299, -9.00862637653507E-014, 0.425426480542680 ) );
#784 = COLOUR_RGB( '', 0.329411774900000, 0.337254911700000, 0.349019616800000 );
#785 = CARTESIAN_POINT( '', ( 4.67976950753144E-015, -2.75000000000000, -2.67012954610316E-014 ) );
#786 = CARTESIAN_POINT( '', ( 0.278643864809975, -2.75000000000000, -2.62196225379411E-014 ) );
#787 = CARTESIAN_POINT( '', ( 0.550356263743469, -2.75000000000000, 0.0428808025256994 ) );
#788 = CARTESIAN_POINT( '', ( 0.949933055829290, -2.75000000000000, 0.156642496175941 ) );
#789 = CARTESIAN_POINT( '', ( 1.08237217782713, -2.75000000000000, 0.202997454069445 ) );
#790 = CARTESIAN_POINT( '', ( 1.33941767674506, -2.75000000000000, 0.306583737636429 ) );
#791 = CARTESIAN_POINT( '', ( 1.46474771457050, -2.75000000000000, 0.363943717692456 ) );
#792 = CARTESIAN_POINT( '', ( 1.58771324027148, -2.75000000000000, 0.425426480542943 ) );
#793 = COLOUR_RGB( '', 0.329411774900000, 0.337254911700000, 0.349019616800000 );
#794 = COLOUR_RGB( '', 0.329411774900000, 0.337254911700000, 0.349019616800000 );
#795 = CARTESIAN_POINT( '', ( -1.58771324027147, -2.75000000000000, 45.0000000000000 ) );
#796 = VECTOR( '', #874, 1000.00000000000 );
#797 = COLOUR_RGB( '', 0.329411774900000, 0.337254911700000, 0.349019616800000 );
#798 = CARTESIAN_POINT( '', ( 1.26698729810789, 0.000000000000000, 45.0000000000000 ) );
#799 = AXIS2_PLACEMENT_3D( '', #875, #876, #877 );
#800 = CARTESIAN_POINT( '', ( 3.17542648054294, -2.16840434497101E-016, 45.0000000000000 ) );
#801 = VECTOR( '', #878, 1000.00000000000 );
#802 = COLOUR_RGB( '', 0.329411774900000, 0.337254911700000, 0.349019616800000 );
#803 = CARTESIAN_POINT( '', ( 1.06698729810789, 0.000000000000000, 45.2000000000000 ) );
#804 = AXIS2_PLACEMENT_3D( '', #879, #880, #881 );
#805 = COLOUR_RGB( '', 0.329411774900000, 0.337254911700000, 0.349019616800000 );
#806 = COLOUR_RGB( '', 0.329411774900000, 0.337254911700000, 0.349019616800000 );
#807 = CARTESIAN_POINT( '', ( -1.50000000000000, 0.000000000000000, 46.2500000000000 ) );
#808 = AXIS2_PLACEMENT_3D( '', #882, #883, #884 );
#809 = COLOUR_RGB( '', 0.329411774900000, 0.337254911700000, 0.349019616800000 );
#810 = CARTESIAN_POINT( '', ( 1.58771324027147, 2.75000000000000, 0.425426480542940 ) );
#811 = CARTESIAN_POINT( '', ( 1.71220076095464, 2.53438128926846, 0.300938959859768 ) );
#812 = CARTESIAN_POINT( '', ( 1.83950592286786, 2.31388228076899, 0.195156609575094 ) );
#813 = CARTESIAN_POINT( '', ( 2.03732840800635, 1.97124368562958, 0.0820553069377906 ) );
#814 = CARTESIAN_POINT( '', ( 2.10442550436109, 1.85502810570283, 0.0520308640022548 ) );
#815 = CARTESIAN_POINT( '', ( 2.24147164392647, 1.61765722899441, 0.0109148895814746 ) );
#816 = CARTESIAN_POINT( '', ( 2.31204097171543, 1.49542756780795, -1.39252216528607E-015 ) );
#817 = CARTESIAN_POINT( '', ( 2.38156986040721, 1.37500000000000, -1.30104260698263E-015 ) );
#818 = COLOUR_RGB( '', 0.329411774900000, 0.337254911700000, 0.349019616800000 );
#819 = COLOUR_RGB( '', 0.184313729400000, 0.749019622800000, 0.580392181900000 );
#820 = COLOUR_RGB( '', 0.329411774900000, 0.337254911700000, 0.349019616800000 );
#821 = COLOUR_RGB( '', 0.329411774900000, 0.337254911700000, 0.349019616800000 );
#822 = CARTESIAN_POINT( '', ( 0.000000000000000, -1.22950000000000, 7.75000000000000 ) );
#823 = AXIS2_PLACEMENT_3D( '', #885, #886, #887 );
#824 = COLOUR_RGB( '', 0.329411774900000, 0.337254911700000, 0.349019616800000 );
#825 = DIRECTION( '', ( 0.000000000000000, 0.000000000000000, -1.00000000000000 ) );
#826 = DIRECTION( '', ( 0.500000000000000, -0.866025403784438, 0.000000000000000 ) );
#827 = DIRECTION( '', ( 0.000000000000000, 0.000000000000000, -1.00000000000000 ) );
#828 = CARTESIAN_POINT( '', ( 5.84129736935112E-014, 0.000000000000000, 45.5464101615138 ) );
#829 = DIRECTION( '', ( 1.68665076409873E-015, 0.000000000000000, 1.00000000000000 ) );
#830 = DIRECTION( '', ( 1.00000000000000, 0.000000000000000, -1.68665076409873E-015 ) );
#831 = CARTESIAN_POINT( '', ( 5.82443086171014E-014, 0.000000000000000, 45.4464101615138 ) );
#832 = DIRECTION( '', ( -1.68665076409873E-015, 0.000000000000000, -1.00000000000000 ) );
#833 = DIRECTION( '', ( -1.00000000000000, 0.000000000000000, 1.68665076409874E-015 ) );
#834 = CARTESIAN_POINT( '', ( 0.000000000000000, 0.000000000000000, 0.000000000000000 ) );
#835 = DIRECTION( '', ( 0.000000000000000, 0.000000000000000, 1.00000000000000 ) );
#836 = DIRECTION( '', ( 1.00000000000000, 0.000000000000000, 0.000000000000000 ) );
#837 = CARTESIAN_POINT( '', ( 6.76112751616751E-014, 0.000000000000000, 51.0000000000000 ) );
#838 = DIRECTION( '', ( 1.68665076409874E-015, 0.000000000000000, 1.00000000000000 ) );
#839 = DIRECTION( '', ( 1.00000000000000, 0.000000000000000, -1.68665076409874E-015 ) );
#840 = CARTESIAN_POINT( '', ( 6.72739450088554E-014, 0.000000000000000, 50.8000000000000 ) );
#841 = DIRECTION( '', ( 1.68665076409874E-015, 0.000000000000000, 1.00000000000000 ) );
#842 = DIRECTION( '', ( 1.00000000000000, 0.000000000000000, -1.68665076409874E-015 ) );
#843 = CARTESIAN_POINT( '', ( 0.000000000000000, 0.000000000000000, 0.000000000000000 ) );
#844 = DIRECTION( '', ( 0.000000000000000, 0.000000000000000, 1.00000000000000 ) );
#845 = DIRECTION( '', ( 1.00000000000000, 0.000000000000000, 0.000000000000000 ) );
#846 = CARTESIAN_POINT( '', ( 0.000000000000000, 0.000000000000000, 0.000000000000000 ) );
#847 = DIRECTION( '', ( 0.000000000000000, 0.000000000000000, 1.00000000000000 ) );
#848 = DIRECTION( '', ( 1.00000000000000, 0.000000000000000, 0.000000000000000 ) );
#849 = CARTESIAN_POINT( '', ( 0.000000000000000, 0.000000000000000, 0.000000000000000 ) );
#850 = DIRECTION( '', ( 0.000000000000000, 0.000000000000000, 1.00000000000000 ) );
#851 = DIRECTION( '', ( 1.00000000000000, 0.000000000000000, 0.000000000000000 ) );
#852 = CARTESIAN_POINT( '', ( 0.000000000000000, 0.000000000000000, 0.000000000000000 ) );
#853 = DIRECTION( '', ( 0.000000000000000, 0.000000000000000, 1.00000000000000 ) );
#854 = DIRECTION( '', ( 1.00000000000000, 0.000000000000000, 0.000000000000000 ) );
#855 = CARTESIAN_POINT( '', ( 0.000000000000000, 0.000000000000000, 0.000000000000000 ) );
#856 = DIRECTION( '', ( 0.000000000000000, 0.000000000000000, 1.00000000000000 ) );
#857 = DIRECTION( '', ( 1.00000000000000, 0.000000000000000, 0.000000000000000 ) );
#858 = CARTESIAN_POINT( '', ( 0.000000000000000, 0.000000000000000, 0.000000000000000 ) );
#859 = DIRECTION( '', ( 0.000000000000000, 0.000000000000000, 1.00000000000000 ) );
#860 = DIRECTION( '', ( 1.00000000000000, 0.000000000000000, 0.000000000000000 ) );
#861 = DIRECTION( '', ( 0.000000000000000, 0.000000000000000, -1.00000000000000 ) );
#862 = DIRECTION( '', ( 0.500000000000000, 0.866025403784439, 0.000000000000000 ) );
#863 = DIRECTION( '', ( 0.000000000000000, 0.000000000000000, -1.00000000000000 ) );
#864 = CARTESIAN_POINT( '', ( 0.000000000000000, 0.000000000000000, 6.00000000000000 ) );
#865 = DIRECTION( '', ( 0.000000000000000, 0.000000000000000, -1.00000000000000 ) );
#866 = DIRECTION( '', ( 0.000000000000000, 1.00000000000000, 0.000000000000000 ) );
#867 = CARTESIAN_POINT( '', ( 0.000000000000000, 0.000000000000000, 0.200000000000000 ) );
#868 = DIRECTION( '', ( 0.000000000000000, 0.000000000000000, -1.00000000000000 ) );
#869 = DIRECTION( '', ( -1.00000000000000, 0.000000000000000, 0.000000000000000 ) );
#870 = DIRECTION( '', ( 0.000000000000000, 0.000000000000000, -1.00000000000000 ) );
#871 = DIRECTION( '', ( -1.00000000000000, 2.45833297975171E-015, 0.000000000000000 ) );
#872 = DIRECTION( '', ( 0.000000000000000, 0.000000000000000, -1.00000000000000 ) );
#873 = DIRECTION( '', ( -0.500000000000000, -0.866025403784439, 0.000000000000000 ) );
#874 = DIRECTION( '', ( 1.00000000000000, 0.000000000000000, 0.000000000000000 ) );
#875 = CARTESIAN_POINT( '', ( 5.78287007299024E-014, 0.000000000000000, 45.0000000000000 ) );
#876 = DIRECTION( '', ( 0.000000000000000, 0.000000000000000, 1.00000000000000 ) );
#877 = DIRECTION( '', ( 1.00000000000000, 0.000000000000000, 0.000000000000000 ) );
#878 = DIRECTION( '', ( -0.500000000000000, 0.866025403784439, 0.000000000000000 ) );
#879 = CARTESIAN_POINT( '', ( 5.78287007299024E-014, 0.000000000000000, 45.2000000000000 ) );
#880 = DIRECTION( '', ( 0.000000000000000, 0.000000000000000, 1.00000000000000 ) );
#881 = DIRECTION( '', ( 1.00000000000000, 0.000000000000000, 0.000000000000000 ) );
#882 = CARTESIAN_POINT( '', ( 5.95996840322061E-014, 0.000000000000000, 46.2500000000000 ) );
#883 = DIRECTION( '', ( -1.68665076409873E-015, 0.000000000000000, -1.00000000000000 ) );
#884 = DIRECTION( '', ( -1.00000000000000, 0.000000000000000, 1.68665076409874E-015 ) );
#885 = CARTESIAN_POINT( '', ( 0.000000000000000, 0.000000000000000, 7.75000000000000 ) );
#886 = DIRECTION( '', ( 0.000000000000000, 0.000000000000000, 1.00000000000000 ) );
#887 = DIRECTION( '', ( 0.000000000000000, -1.00000000000000, 0.000000000000000 ) );
ENDSEC;
END-ISO-10303-21;
