G04*
G04 #@! TF.GenerationSoftware,Altium Limited,Altium Designer,24.9.1 (31)*
G04*
G04 Layer_Color=65535*
%FSLAX44Y44*%
%MOMM*%
G71*
G04*
G04 #@! TF.SameCoordinates,F9719FCC-BA83-448A-AD8A-31E963D186DB*
G04*
G04*
G04 #@! TF.FilePolarity,Positive*
G04*
G01*
G75*
%ADD10C,0.2400*%
%ADD11C,0.1000*%
%ADD12C,0.1800*%
D10*
X58397Y87941D02*
G03*
X58397Y87941I-1000J0D01*
G01*
X151410Y87941D02*
G03*
X151410Y87941I-1000J0D01*
G01*
D11*
X175595Y136380D02*
Y151620D01*
X81877Y136380D02*
Y151620D01*
D12*
X2800Y198383D02*
Y206380D01*
X6799D01*
X8132Y205047D01*
Y202381D01*
X6799Y201049D01*
X2800D01*
X10797Y198383D02*
Y203714D01*
X13463Y206380D01*
X16129Y203714D01*
Y198383D01*
Y202381D01*
X10797D01*
X18795Y198383D02*
Y206380D01*
X21461Y203714D01*
X24126Y206380D01*
Y198383D01*
X40121D02*
X34790D01*
X40121Y203714D01*
Y205047D01*
X38788Y206380D01*
X36123D01*
X34790Y205047D01*
X42787D02*
X44120Y206380D01*
X46786D01*
X48119Y205047D01*
Y199716D01*
X46786Y198383D01*
X44120D01*
X42787Y199716D01*
Y205047D01*
X56116Y198383D02*
X50785D01*
X56116Y203714D01*
Y205047D01*
X54783Y206380D01*
X52117D01*
X50785Y205047D01*
X64113Y206380D02*
X58782D01*
Y202381D01*
X61448Y203714D01*
X62781D01*
X64113Y202381D01*
Y199716D01*
X62781Y198383D01*
X60115D01*
X58782Y199716D01*
X2800Y184466D02*
Y189797D01*
X5466Y192463D01*
X8132Y189797D01*
Y184466D01*
Y188465D01*
X2800D01*
X10797Y184466D02*
Y189797D01*
X12130D01*
X13463Y188465D01*
Y184466D01*
Y188465D01*
X14796Y189797D01*
X16129Y188465D01*
Y184466D01*
X18795Y181800D02*
Y189797D01*
X22794D01*
X24126Y188465D01*
Y185799D01*
X22794Y184466D01*
X18795D01*
X26792D02*
X29458D01*
X28125D01*
Y192463D01*
X26792D01*
X33457Y184466D02*
X36123D01*
X34790D01*
Y189797D01*
X33457D01*
X41454Y184466D02*
Y191130D01*
Y188465D01*
X40121D01*
X42787D01*
X41454D01*
Y191130D01*
X42787Y192463D01*
X46786Y184466D02*
X49452D01*
X48119D01*
Y189797D01*
X46786D01*
X57449Y184466D02*
X54783D01*
X53450Y185799D01*
Y188465D01*
X54783Y189797D01*
X57449D01*
X58782Y188465D01*
Y187132D01*
X53450D01*
X61448Y189797D02*
Y184466D01*
Y187132D01*
X62781Y188465D01*
X64114Y189797D01*
X65447D01*
X69445Y183133D02*
X74777D01*
X77443Y189797D02*
X80108Y184466D01*
X82774Y189797D01*
X85440Y191130D02*
X86773Y192463D01*
X89439D01*
X90772Y191130D01*
Y189797D01*
X89439Y188465D01*
X88106D01*
X89439D01*
X90772Y187132D01*
Y185799D01*
X89439Y184466D01*
X86773D01*
X85440Y185799D01*
X184667Y146666D02*
X183334Y147999D01*
X180668D01*
X179335Y146666D01*
Y141334D01*
X180668Y140001D01*
X183334D01*
X184667Y141334D01*
X192665Y147999D02*
X189999Y146666D01*
X187333Y144000D01*
Y141334D01*
X188666Y140001D01*
X191332D01*
X192665Y141334D01*
Y142667D01*
X191332Y144000D01*
X187333D01*
X136667Y123666D02*
X135334Y124999D01*
X132668D01*
X131335Y123666D01*
Y118334D01*
X132668Y117001D01*
X135334D01*
X136667Y118334D01*
X139333Y124999D02*
X144664D01*
Y123666D01*
X139333Y118334D01*
Y117001D01*
X132667Y112666D02*
X131334Y113999D01*
X128668D01*
X127336Y112666D01*
Y107334D01*
X128668Y106001D01*
X131334D01*
X132667Y107334D01*
X135333Y112666D02*
X136666Y113999D01*
X139332D01*
X140665Y112666D01*
Y111333D01*
X139332Y110000D01*
X140665Y108667D01*
Y107334D01*
X139332Y106001D01*
X136666D01*
X135333Y107334D01*
Y108667D01*
X136666Y110000D01*
X135333Y111333D01*
Y112666D01*
X136666Y110000D02*
X139332D01*
X123668Y195999D02*
X129000Y188001D01*
Y195999D02*
X123668Y188001D01*
X131666D02*
X134332D01*
X132999D01*
Y195999D01*
X131666Y194666D01*
X234335Y25999D02*
X239667Y18001D01*
Y25999D02*
X234335Y18001D01*
X242333Y24666D02*
X243666Y25999D01*
X246332D01*
X247665Y24666D01*
Y23333D01*
X246332Y22000D01*
X244999D01*
X246332D01*
X247665Y20667D01*
Y19334D01*
X246332Y18001D01*
X243666D01*
X242333Y19334D01*
X7667Y119666D02*
X6334Y120999D01*
X3668D01*
X2335Y119666D01*
Y114334D01*
X3668Y113001D01*
X6334D01*
X7667Y114334D01*
X14332Y113001D02*
Y120999D01*
X10333Y117000D01*
X15664D01*
X69668Y28999D02*
Y22334D01*
X71001Y21001D01*
X73667D01*
X75000Y22334D01*
Y28999D01*
X77666Y21001D02*
X80332D01*
X78999D01*
Y28999D01*
X77666Y27666D01*
X107000Y178999D02*
X101668D01*
Y171001D01*
X107000D01*
X101668Y175000D02*
X104334D01*
X109666Y171001D02*
X112332D01*
X110999D01*
Y178999D01*
X109666Y177666D01*
X132001Y32999D02*
X126670D01*
Y25001D01*
X132001D01*
X126670Y29000D02*
X129335D01*
X139999Y26334D02*
Y31666D01*
X138666Y32999D01*
X136000D01*
X134667Y31666D01*
Y26334D01*
X136000Y25001D01*
X138666D01*
X137333Y27667D02*
X139999Y25001D01*
X138666D02*
X139999Y26334D01*
X142664Y25001D02*
X145330D01*
X143997D01*
Y32999D01*
X142664Y31666D01*
X2335Y24999D02*
X7667Y17001D01*
Y24999D02*
X2335Y17001D01*
X15664D02*
X10333D01*
X15664Y22333D01*
Y23666D01*
X14332Y24999D01*
X11666D01*
X10333Y23666D01*
X163335Y29999D02*
Y23334D01*
X164668Y22001D01*
X167334D01*
X168667Y23334D01*
Y29999D01*
X176665Y22001D02*
X171333D01*
X176665Y27333D01*
Y28666D01*
X175332Y29999D01*
X172666D01*
X171333Y28666D01*
X232668Y136999D02*
X227337D01*
Y129001D01*
X232668D01*
X227337Y133000D02*
X230003D01*
X240666Y130334D02*
Y135666D01*
X239333Y136999D01*
X236667D01*
X235334Y135666D01*
Y130334D01*
X236667Y129001D01*
X239333D01*
X238000Y131667D02*
X240666Y129001D01*
X239333D02*
X240666Y130334D01*
X248663Y129001D02*
X243332D01*
X248663Y134333D01*
Y135666D01*
X247330Y136999D01*
X244664D01*
X243332Y135666D01*
X213667D02*
X212334Y136999D01*
X209668D01*
X208335Y135666D01*
Y130334D01*
X209668Y129001D01*
X212334D01*
X213667Y130334D01*
X216333D02*
X217666Y129001D01*
X220332D01*
X221665Y130334D01*
Y135666D01*
X220332Y136999D01*
X217666D01*
X216333Y135666D01*
Y134333D01*
X217666Y133000D01*
X221665D01*
X105667Y31666D02*
X104334Y32999D01*
X101668D01*
X100336Y31666D01*
Y26334D01*
X101668Y25001D01*
X104334D01*
X105667Y26334D01*
X113665Y32999D02*
X108333D01*
Y29000D01*
X110999Y30333D01*
X112332D01*
X113665Y29000D01*
Y26334D01*
X112332Y25001D01*
X109666D01*
X108333Y26334D01*
X111667Y112666D02*
X110334Y113999D01*
X107668D01*
X106335Y112666D01*
Y107334D01*
X107668Y106001D01*
X110334D01*
X111667Y107334D01*
X114333Y112666D02*
X115666Y113999D01*
X118332D01*
X119664Y112666D01*
Y111333D01*
X118332Y110000D01*
X116999D01*
X118332D01*
X119664Y108667D01*
Y107334D01*
X118332Y106001D01*
X115666D01*
X114333Y107334D01*
X105667Y123666D02*
X104334Y124999D01*
X101668D01*
X100336Y123666D01*
Y118334D01*
X101668Y117001D01*
X104334D01*
X105667Y118334D01*
X113665Y117001D02*
X108333D01*
X113665Y122333D01*
Y123666D01*
X112332Y124999D01*
X109666D01*
X108333Y123666D01*
X56000Y162666D02*
X54667Y163999D01*
X52001D01*
X50668Y162666D01*
Y157334D01*
X52001Y156001D01*
X54667D01*
X56000Y157334D01*
X58666Y156001D02*
X61332D01*
X59999D01*
Y163999D01*
X58666Y162666D01*
M02*
