G04*
G04 #@! TF.GenerationSoftware,Altium Limited,Altium Designer,26.8.1 (31)*
G04*
G04 Layer_Physical_Order=1*
G04 Layer_Color=255*
G04 Board_Origin=15650000|21550000*
%FSLAX44Y44*%
%MOMM*%
G71*
G04*
G04 #@! TF.SameCoordinates,99302A45-5263-425D-AFF4-97551B679790*
G04*
G04*
G04 #@! TF.FilePolarity,Positive*
G04*
G01*
G75*
%ADD16R,1.1000X1.7500*%
%ADD23C,0.2540*%
%ADD24C,1.2700*%
%ADD25C,1.4080*%
%ADD26R,1.4080X1.4080*%
%ADD27C,0.6000*%
%ADD28C,3.9000*%
G36*
X214639Y226430D02*
X212202Y225777D01*
X210018Y224516D01*
X208234Y222732D01*
X206973Y220548D01*
X206683Y219465D01*
X176973D01*
X169889Y226549D01*
X170861Y228895D01*
X214459D01*
X214639Y226430D01*
D02*
G37*
G36*
X374279Y196120D02*
X373679Y194214D01*
X373280Y193527D01*
X371219Y192974D01*
X369191Y191804D01*
X367536Y190149D01*
X366366Y188121D01*
X365965Y186625D01*
X363335D01*
X362934Y188121D01*
X361764Y190149D01*
X360109Y191804D01*
X358081Y192974D01*
X355920Y193553D01*
Y184690D01*
X354650D01*
Y183420D01*
X345787D01*
X346073Y182353D01*
X343795Y181038D01*
X337895Y186939D01*
Y219570D01*
X338707Y220382D01*
X339550Y222418D01*
Y223557D01*
X339999Y224902D01*
X341735Y225985D01*
X344413D01*
X374279Y196120D01*
D02*
G37*
G36*
X227303Y192580D02*
X228234Y190968D01*
X230018Y189184D01*
X231537Y188307D01*
Y187488D01*
X231833Y186001D01*
X232675Y184741D01*
X242275Y175141D01*
X241303Y172795D01*
X226519D01*
X219845Y179469D01*
Y188065D01*
X221782Y189184D01*
X223566Y190968D01*
X224497Y192580D01*
X225623Y192840D01*
X226176D01*
X227303Y192580D01*
D02*
G37*
G36*
X328681Y227702D02*
X329188Y226355D01*
X328470Y224622D01*
Y222418D01*
X329313Y220382D01*
X330125Y219570D01*
Y185330D01*
X330421Y183843D01*
X331263Y182583D01*
X346230Y167616D01*
X345760Y165860D01*
Y163520D01*
X346366Y161259D01*
X347536Y159231D01*
X349191Y157576D01*
X351219Y156406D01*
X352715Y156005D01*
Y153375D01*
X351219Y152974D01*
X349191Y151804D01*
X347536Y150149D01*
X346366Y148121D01*
X345787Y145960D01*
X354650D01*
Y143420D01*
X345787D01*
X346366Y141259D01*
X347536Y139231D01*
X349191Y137576D01*
X351219Y136406D01*
X352715Y136005D01*
Y133375D01*
X351219Y132974D01*
X349191Y131804D01*
X348491Y131103D01*
X345951Y132097D01*
X345494Y133199D01*
X344650Y134043D01*
X344221Y134221D01*
Y131500D01*
Y128390D01*
X345943Y127173D01*
X346066Y127003D01*
X345760Y125860D01*
Y123520D01*
X346366Y121259D01*
X347536Y119231D01*
X349191Y117576D01*
X351219Y116406D01*
X352715Y116005D01*
Y113375D01*
X351219Y112974D01*
X349191Y111804D01*
X347536Y110149D01*
X346366Y108121D01*
X345787Y105960D01*
X354650D01*
Y103420D01*
X345787D01*
X346366Y101259D01*
X347536Y99231D01*
X349191Y97576D01*
X351219Y96406D01*
X352715Y96005D01*
Y93375D01*
X351219Y92974D01*
X349191Y91804D01*
X347536Y90149D01*
X346628Y88575D01*
X332209D01*
X330660Y90124D01*
Y91272D01*
X329817Y93308D01*
X328258Y94867D01*
X326222Y95710D01*
X324018D01*
X321982Y94867D01*
X320423Y93308D01*
X319580Y91272D01*
Y89477D01*
X318462Y88670D01*
X317233Y88232D01*
X312495Y92971D01*
Y166632D01*
X312199Y168119D01*
X311357Y169379D01*
X297189Y183547D01*
X295929Y184389D01*
X294442Y184685D01*
X272289D01*
X265480Y191494D01*
Y206430D01*
X262092D01*
X261411Y208970D01*
X261782Y209184D01*
X263566Y210968D01*
X264827Y213152D01*
X265480Y215589D01*
Y218111D01*
X264827Y220548D01*
X263566Y222732D01*
X261782Y224516D01*
X259598Y225777D01*
X257161Y226430D01*
X257341Y228895D01*
X327958D01*
X328681Y227702D01*
D02*
G37*
G36*
X520000Y0D02*
X343488D01*
X343238Y2540D01*
X344349Y2761D01*
X345609Y3603D01*
X392637Y50631D01*
X393479Y51891D01*
X393775Y53377D01*
Y65968D01*
X396315Y67021D01*
X396912Y66423D01*
X398948Y65580D01*
X401152D01*
X403188Y66423D01*
X404747Y67982D01*
X405590Y70018D01*
Y72222D01*
X404747Y74258D01*
X403188Y75817D01*
X401152Y76660D01*
X398948D01*
X396912Y75817D01*
X396315Y75219D01*
X393775Y76272D01*
Y89450D01*
X393479Y90937D01*
X392637Y92197D01*
X383070Y101764D01*
X383540Y103520D01*
Y105860D01*
X382934Y108121D01*
X381764Y110149D01*
X380109Y111804D01*
X378081Y112974D01*
X376585Y113375D01*
Y116005D01*
X378081Y116406D01*
X380109Y117576D01*
X381764Y119231D01*
X382934Y121259D01*
X383513Y123420D01*
X374650D01*
Y125960D01*
X383513D01*
X382934Y128121D01*
X381764Y130149D01*
X380109Y131804D01*
X378081Y132974D01*
X376585Y133375D01*
Y136005D01*
X378081Y136406D01*
X380109Y137576D01*
X381764Y139231D01*
X382934Y141259D01*
X383540Y143520D01*
Y145860D01*
X382934Y148121D01*
X381764Y150149D01*
X380109Y151804D01*
X378081Y152974D01*
X376585Y153375D01*
Y156005D01*
X378081Y156406D01*
X380109Y157576D01*
X381764Y159231D01*
X382934Y161259D01*
X383513Y163420D01*
X374650D01*
Y165960D01*
X383513D01*
X382934Y168121D01*
X381764Y170149D01*
X380109Y171804D01*
X378081Y172974D01*
X376585Y173375D01*
Y176005D01*
X378081Y176406D01*
X380109Y177576D01*
X381764Y179231D01*
X382934Y181259D01*
X383487Y183320D01*
X384174Y183719D01*
X386080Y184319D01*
X394895Y175504D01*
Y147460D01*
X394083Y146648D01*
X393240Y144612D01*
Y142408D01*
X394083Y140372D01*
X395642Y138813D01*
X397678Y137970D01*
X399882D01*
X401705Y136752D01*
Y113829D01*
X400096Y112220D01*
X398948D01*
X396912Y111377D01*
X395353Y109818D01*
X394510Y107782D01*
Y105578D01*
X395353Y103542D01*
X396912Y101983D01*
X398948Y101140D01*
X401152D01*
X403188Y101983D01*
X404747Y103542D01*
X405590Y105578D01*
Y106726D01*
X408337Y109473D01*
X409179Y110733D01*
X409420Y111945D01*
X411960Y111695D01*
Y108410D01*
X418730D01*
Y118430D01*
X412015D01*
X411960Y118430D01*
X409475Y118562D01*
Y131438D01*
X411960Y131570D01*
X412015Y131570D01*
X418730D01*
Y142860D01*
Y154150D01*
X412015D01*
X411960Y154150D01*
X409475Y154282D01*
Y167148D01*
X411960Y167280D01*
X412015Y167280D01*
X418730D01*
Y178570D01*
Y189860D01*
X411960D01*
Y178012D01*
X409420Y177761D01*
X409179Y178973D01*
X408337Y180234D01*
X350757Y237814D01*
Y238962D01*
X349913Y240998D01*
X348355Y242557D01*
X346319Y243400D01*
X344115D01*
X342079Y242557D01*
X341267Y241745D01*
X93108D01*
X91621Y241449D01*
X90361Y240607D01*
X80073Y230319D01*
X79231Y229059D01*
X78935Y227572D01*
Y197436D01*
X79231Y195949D01*
X80073Y194689D01*
X91509Y183253D01*
X92769Y182411D01*
X94256Y182115D01*
X107900D01*
X109387Y182411D01*
X110647Y183253D01*
X115261Y187867D01*
X117489Y187270D01*
X120011D01*
X122448Y187923D01*
X124632Y189184D01*
X126416Y190968D01*
X127347Y192580D01*
X128474Y192840D01*
X129026D01*
X130153Y192580D01*
X131084Y190968D01*
X132868Y189184D01*
X135052Y187923D01*
X137480Y187272D01*
Y196850D01*
X140020D01*
Y187272D01*
X142448Y187923D01*
X144632Y189184D01*
X146416Y190968D01*
X147347Y192580D01*
X148473Y192840D01*
X149027D01*
X150153Y192580D01*
X151084Y190968D01*
X152868Y189184D01*
X155052Y187923D01*
X157480Y187272D01*
Y196850D01*
X158750D01*
Y198120D01*
X168328D01*
X167677Y200548D01*
X166416Y202732D01*
X164632Y204516D01*
X163020Y205447D01*
X162760Y206574D01*
Y207127D01*
X163020Y208253D01*
X164632Y209184D01*
X166416Y210968D01*
X167677Y213152D01*
X167895Y213964D01*
X170728Y214723D01*
X172617Y212833D01*
X173878Y211991D01*
X175364Y211695D01*
X207814D01*
X208234Y210968D01*
X210018Y209184D01*
X211630Y208253D01*
X211890Y207127D01*
Y206574D01*
X211630Y205447D01*
X210018Y204516D01*
X208234Y202732D01*
X206973Y200548D01*
X206320Y198111D01*
Y195589D01*
X206973Y193152D01*
X208234Y190968D01*
X210018Y189184D01*
X212075Y187996D01*
Y177860D01*
X212371Y176373D01*
X213213Y175113D01*
X222163Y166163D01*
X223423Y165321D01*
X224910Y165025D01*
X281340D01*
X282612Y163753D01*
X284648Y162910D01*
X286852D01*
X288888Y163753D01*
X290447Y165312D01*
X291290Y167348D01*
Y167682D01*
X293830Y168734D01*
X299365Y163199D01*
Y89537D01*
X299661Y88051D01*
X300503Y86791D01*
X345591Y41703D01*
X346851Y40861D01*
X348337Y40565D01*
X360963D01*
X362449Y40861D01*
X363709Y41703D01*
X367652Y45645D01*
X373345D01*
X374318Y43299D01*
X341254Y10235D01*
X191579D01*
X190850Y11615D01*
X190668Y12775D01*
X199004Y21110D01*
X201170D01*
X203431Y21716D01*
X205459Y22886D01*
X207114Y24541D01*
X208284Y26569D01*
X208890Y28830D01*
Y31170D01*
X208284Y33431D01*
X207114Y35459D01*
X205459Y37114D01*
X203431Y38284D01*
X201935Y38685D01*
Y41315D01*
X203431Y41716D01*
X205459Y42886D01*
X207114Y44541D01*
X208284Y46569D01*
X208863Y48730D01*
X200000D01*
Y50000D01*
X198730D01*
Y58863D01*
X196569Y58284D01*
X194541Y57114D01*
X192886Y55459D01*
X191716Y53431D01*
X191315Y51935D01*
X188685D01*
X188284Y53431D01*
X187114Y55459D01*
X185459Y57114D01*
X183431Y58284D01*
X181170Y58890D01*
X178830D01*
X176569Y58284D01*
X174541Y57114D01*
X172886Y55459D01*
X171716Y53431D01*
X171110Y51170D01*
Y48830D01*
X171716Y46569D01*
X172886Y44541D01*
X174541Y42886D01*
X176569Y41716D01*
X178065Y41315D01*
Y38685D01*
X176569Y38284D01*
X174541Y37114D01*
X172886Y35459D01*
X171716Y33431D01*
X171110Y31170D01*
Y28830D01*
X171716Y26569D01*
X172886Y24541D01*
X174541Y22886D01*
X176569Y21716D01*
X176760Y21665D01*
X176425Y19125D01*
X134959D01*
X128003Y26081D01*
X128284Y26569D01*
X128890Y28830D01*
Y31170D01*
X128284Y33431D01*
X127114Y35459D01*
X125459Y37114D01*
X123431Y38284D01*
X121935Y38685D01*
Y41315D01*
X123431Y41716D01*
X125459Y42886D01*
X127114Y44541D01*
X128284Y46569D01*
X128863Y48730D01*
X120000D01*
Y50000D01*
X118730D01*
Y58863D01*
X116569Y58284D01*
X114541Y57114D01*
X112886Y55459D01*
X111716Y53431D01*
X111315Y51935D01*
X108685D01*
X108284Y53431D01*
X107114Y55459D01*
X105459Y57114D01*
X103431Y58284D01*
X101170Y58890D01*
X98830D01*
X96569Y58284D01*
X94541Y57114D01*
X92886Y55459D01*
X91716Y53431D01*
X91110Y51170D01*
Y48830D01*
X91716Y46569D01*
X92886Y44541D01*
X94541Y42886D01*
X96569Y41716D01*
X98065Y41315D01*
Y38685D01*
X96569Y38284D01*
X94541Y37114D01*
X92886Y35459D01*
X91716Y33431D01*
X91327Y31980D01*
X89290Y31152D01*
X88570Y31145D01*
X49445Y70271D01*
X50194Y71569D01*
X50800Y73830D01*
Y76170D01*
X50194Y78431D01*
X49024Y80459D01*
X47369Y82114D01*
X45341Y83284D01*
X43845Y83685D01*
Y86315D01*
X45341Y86716D01*
X47369Y87886D01*
X49024Y89541D01*
X50194Y91569D01*
X50800Y93830D01*
Y96170D01*
X51110Y96574D01*
X105459D01*
X106945Y96870D01*
X108205Y97712D01*
X117074Y106580D01*
X118830Y106110D01*
X121170D01*
X122926Y106580D01*
X131923Y97583D01*
X133183Y96741D01*
X134670Y96445D01*
X185420D01*
X186907Y96741D01*
X188167Y97583D01*
X197145Y106561D01*
X198830Y106110D01*
X201170D01*
X203431Y106716D01*
X205459Y107886D01*
X207114Y109541D01*
X208284Y111569D01*
X208890Y113830D01*
Y116170D01*
X208284Y118431D01*
X207114Y120459D01*
X205459Y122114D01*
X203431Y123284D01*
X201935Y123685D01*
Y126315D01*
X203431Y126716D01*
X205459Y127886D01*
X207114Y129541D01*
X208284Y131569D01*
X208863Y133730D01*
X200000D01*
Y135000D01*
X198730D01*
Y143863D01*
X196569Y143284D01*
X194541Y142114D01*
X192886Y140459D01*
X191716Y138431D01*
X191315Y136935D01*
X188685D01*
X188284Y138431D01*
X187114Y140459D01*
X185459Y142114D01*
X183431Y143284D01*
X181170Y143890D01*
X178830D01*
X176569Y143284D01*
X174541Y142114D01*
X172886Y140459D01*
X171716Y138431D01*
X171110Y136170D01*
Y133830D01*
X171716Y131569D01*
X172886Y129541D01*
X174541Y127886D01*
X176569Y126716D01*
X178065Y126315D01*
Y123685D01*
X176569Y123284D01*
X174541Y122114D01*
X172886Y120459D01*
X171716Y118431D01*
X171110Y116170D01*
Y113830D01*
X171716Y111569D01*
X172886Y109541D01*
X174541Y107886D01*
X176569Y106716D01*
X176089Y104215D01*
X136279D01*
X128420Y112074D01*
X128890Y113830D01*
Y116170D01*
X128284Y118431D01*
X127114Y120459D01*
X125459Y122114D01*
X123431Y123284D01*
X121935Y123685D01*
Y126315D01*
X123431Y126716D01*
X125459Y127886D01*
X127114Y129541D01*
X128284Y131569D01*
X128863Y133730D01*
X120000D01*
Y135000D01*
X118730D01*
Y143863D01*
X116569Y143284D01*
X114541Y142114D01*
X112886Y140459D01*
X111716Y138431D01*
X111315Y136935D01*
X108685D01*
X108284Y138431D01*
X107114Y140459D01*
X105459Y142114D01*
X103431Y143284D01*
X101170Y143890D01*
X98830D01*
X96569Y143284D01*
X94541Y142114D01*
X92886Y140459D01*
X91716Y138431D01*
X91110Y136170D01*
Y133830D01*
X91716Y131569D01*
X92886Y129541D01*
X94541Y127886D01*
X96569Y126716D01*
X98065Y126315D01*
Y123685D01*
X96569Y123284D01*
X94541Y122114D01*
X92886Y120459D01*
X91716Y118431D01*
X91110Y116170D01*
Y113830D01*
X91716Y111569D01*
X92886Y109541D01*
X94541Y107886D01*
X94953Y104715D01*
X94696Y104343D01*
X48478D01*
X46991Y104047D01*
X45731Y103205D01*
X45638Y103113D01*
X45341Y103284D01*
X43080Y103890D01*
X40740D01*
X38479Y103284D01*
X36451Y102114D01*
X34796Y100459D01*
X33626Y98431D01*
X33225Y96935D01*
X30595D01*
X30194Y98431D01*
X29024Y100459D01*
X27369Y102114D01*
X25341Y103284D01*
X23180Y103863D01*
Y95000D01*
X21910D01*
Y93730D01*
X13047D01*
X13626Y91569D01*
X14796Y89541D01*
X16451Y87886D01*
X18479Y86716D01*
X19975Y86315D01*
Y83685D01*
X18479Y83284D01*
X16451Y82114D01*
X14796Y80459D01*
X13626Y78431D01*
X13020Y76170D01*
Y73830D01*
X13626Y71569D01*
X14796Y69541D01*
X16451Y67886D01*
X18479Y66716D01*
X20740Y66110D01*
X23080D01*
X25341Y66716D01*
X27369Y67886D01*
X29024Y69541D01*
X30194Y71569D01*
X30595Y73065D01*
X33225D01*
X33626Y71569D01*
X34796Y69541D01*
X36451Y67886D01*
X38479Y66716D01*
X40740Y66110D01*
X42618D01*
X105125Y3603D01*
X106385Y2761D01*
X107496Y2540D01*
X107246Y0D01*
X0D01*
Y250190D01*
X520000D01*
Y0D01*
D02*
G37*
G36*
X326518Y83278D02*
X327853Y81943D01*
X329113Y81101D01*
X330600Y80805D01*
X346628D01*
X347536Y79231D01*
X349191Y77576D01*
X351219Y76406D01*
X352715Y76005D01*
Y73375D01*
X351219Y72974D01*
X349191Y71804D01*
X347536Y70149D01*
X346366Y68121D01*
X345760Y65860D01*
Y63520D01*
X345841Y63216D01*
X343564Y61901D01*
X324804Y80661D01*
X324822Y81564D01*
X325715Y83343D01*
X326518Y83278D01*
D02*
G37*
G36*
X111716Y26569D02*
X112886Y24541D01*
X114541Y22886D01*
X116569Y21716D01*
X118830Y21110D01*
X121170D01*
X121814Y21282D01*
X130322Y12775D01*
X130140Y11615D01*
X129411Y10235D01*
X109481D01*
X101145Y18570D01*
X101152Y19290D01*
X101980Y21327D01*
X103431Y21716D01*
X105459Y22886D01*
X107114Y24541D01*
X108284Y26569D01*
X108685Y28065D01*
X111315D01*
X111716Y26569D01*
D02*
G37*
%LPC*%
G36*
X353380Y193553D02*
X351219Y192974D01*
X349191Y191804D01*
X347536Y190149D01*
X346366Y188121D01*
X345787Y185960D01*
X353380D01*
Y193553D01*
D02*
G37*
G36*
X295910Y207191D02*
Y205740D01*
X297361D01*
X297183Y206169D01*
X296339Y207013D01*
X295910Y207191D01*
D02*
G37*
G36*
X293370D02*
X292941Y207013D01*
X292097Y206169D01*
X291919Y205740D01*
X293370D01*
Y207191D01*
D02*
G37*
G36*
X297361Y203200D02*
X295910D01*
Y201749D01*
X296339Y201927D01*
X297183Y202771D01*
X297361Y203200D01*
D02*
G37*
G36*
X293370D02*
X291919D01*
X292097Y202771D01*
X292941Y201927D01*
X293370Y201749D01*
Y203200D01*
D02*
G37*
G36*
X341681Y134221D02*
X341251Y134043D01*
X340407Y133199D01*
X340230Y132770D01*
X341681D01*
Y134221D01*
D02*
G37*
G36*
Y130230D02*
X340230D01*
X340407Y129801D01*
X341251Y128957D01*
X341681Y128779D01*
Y130230D01*
D02*
G37*
G36*
X396270Y232721D02*
Y231270D01*
X397721D01*
X397543Y231699D01*
X396699Y232543D01*
X396270Y232721D01*
D02*
G37*
G36*
X393730D02*
X393301Y232543D01*
X392457Y231699D01*
X392279Y231270D01*
X393730D01*
Y232721D01*
D02*
G37*
G36*
X397721Y228730D02*
X396270D01*
Y227279D01*
X396699Y227457D01*
X397543Y228301D01*
X397721Y228730D01*
D02*
G37*
G36*
X393730D02*
X392279D01*
X392457Y228301D01*
X393301Y227457D01*
X393730Y227279D01*
Y228730D01*
D02*
G37*
G36*
X496921Y244500D02*
X496270D01*
Y226270D01*
X514500D01*
Y226921D01*
X513751Y230688D01*
X512281Y234237D01*
X510147Y237430D01*
X507430Y240147D01*
X504237Y242281D01*
X500688Y243751D01*
X496921Y244500D01*
D02*
G37*
G36*
X493730D02*
X493079D01*
X489312Y243751D01*
X485763Y242281D01*
X482570Y240147D01*
X479853Y237430D01*
X477719Y234237D01*
X476249Y230688D01*
X475500Y226921D01*
Y226270D01*
X493730D01*
Y244500D01*
D02*
G37*
G36*
X26921D02*
X26270D01*
Y226270D01*
X44500D01*
Y226921D01*
X43751Y230688D01*
X42281Y234237D01*
X40147Y237430D01*
X37431Y240147D01*
X34237Y242281D01*
X30688Y243751D01*
X26921Y244500D01*
D02*
G37*
G36*
X23730D02*
X23079D01*
X19312Y243751D01*
X15763Y242281D01*
X12570Y240147D01*
X9853Y237430D01*
X7719Y234237D01*
X6249Y230688D01*
X5500Y226921D01*
Y226270D01*
X23730D01*
Y244500D01*
D02*
G37*
G36*
X514500Y223730D02*
X496270D01*
Y205500D01*
X496921D01*
X500688Y206249D01*
X504237Y207719D01*
X507430Y209853D01*
X510147Y212570D01*
X512281Y215763D01*
X513751Y219312D01*
X514500Y223079D01*
Y223730D01*
D02*
G37*
G36*
X493730D02*
X475500D01*
Y223079D01*
X476249Y219312D01*
X477719Y215763D01*
X479853Y212570D01*
X482570Y209853D01*
X485763Y207719D01*
X489312Y206249D01*
X493079Y205500D01*
X493730D01*
Y223730D01*
D02*
G37*
G36*
X44500D02*
X26270D01*
Y205500D01*
X26921D01*
X30688Y206249D01*
X34237Y207719D01*
X37431Y209853D01*
X40147Y212570D01*
X42281Y215763D01*
X43751Y219312D01*
X44500Y223079D01*
Y223730D01*
D02*
G37*
G36*
X23730D02*
X5500D01*
Y223079D01*
X6249Y219312D01*
X7719Y215763D01*
X9853Y212570D01*
X12570Y209853D01*
X15763Y207719D01*
X19312Y206249D01*
X23079Y205500D01*
X23730D01*
Y223730D01*
D02*
G37*
G36*
X168328Y195580D02*
X160020D01*
Y187272D01*
X162448Y187923D01*
X164632Y189184D01*
X166416Y190968D01*
X167677Y193152D01*
X168328Y195580D01*
D02*
G37*
G36*
X428040Y189860D02*
X421270D01*
Y179840D01*
X428040D01*
Y189860D01*
D02*
G37*
G36*
X41810Y183890D02*
X39470D01*
X37209Y183284D01*
X35181Y182114D01*
X33526Y180459D01*
X32356Y178431D01*
X31955Y176935D01*
X29325D01*
X28924Y178431D01*
X27754Y180459D01*
X26099Y182114D01*
X24071Y183284D01*
X21810Y183890D01*
X19470D01*
X17209Y183284D01*
X15181Y182114D01*
X13526Y180459D01*
X12356Y178431D01*
X11750Y176170D01*
Y173830D01*
X12356Y171569D01*
X13526Y169541D01*
X15181Y167886D01*
X17209Y166716D01*
X18705Y166315D01*
Y163685D01*
X17209Y163284D01*
X15181Y162114D01*
X13526Y160459D01*
X12356Y158431D01*
X11750Y156170D01*
Y153830D01*
X12356Y151569D01*
X13526Y149541D01*
X15181Y147886D01*
X17209Y146716D01*
X19470Y146110D01*
X21810D01*
X24071Y146716D01*
X26099Y147886D01*
X27754Y149541D01*
X28924Y151569D01*
X29325Y153065D01*
X31955D01*
X32356Y151569D01*
X33526Y149541D01*
X35181Y147886D01*
X37209Y146716D01*
X39370Y146137D01*
Y155000D01*
X40640D01*
Y156270D01*
X49503D01*
X48924Y158431D01*
X47754Y160459D01*
X46099Y162114D01*
X44071Y163284D01*
X42575Y163685D01*
Y166315D01*
X44071Y166716D01*
X46099Y167886D01*
X47754Y169541D01*
X48924Y171569D01*
X49530Y173830D01*
Y176170D01*
X48924Y178431D01*
X47754Y180459D01*
X46099Y182114D01*
X44071Y183284D01*
X41810Y183890D01*
D02*
G37*
G36*
X458040Y189860D02*
X441960D01*
Y167280D01*
X458040D01*
Y174685D01*
X466050D01*
X466862Y173873D01*
X468898Y173030D01*
X471102D01*
X473138Y173873D01*
X474697Y175432D01*
X475540Y177468D01*
Y179672D01*
X474697Y181708D01*
X473138Y183267D01*
X471102Y184110D01*
X468898D01*
X466862Y183267D01*
X466050Y182455D01*
X458040D01*
Y189860D01*
D02*
G37*
G36*
X428040Y177300D02*
X421270D01*
Y167280D01*
X428040D01*
Y177300D01*
D02*
G37*
G36*
X49503Y153730D02*
X41910D01*
Y146137D01*
X44071Y146716D01*
X46099Y147886D01*
X47754Y149541D01*
X48924Y151569D01*
X49503Y153730D01*
D02*
G37*
G36*
X421270Y154150D02*
Y144130D01*
X428040D01*
Y154150D01*
X421270D01*
D02*
G37*
G36*
X458040D02*
X441960D01*
Y131570D01*
X458040D01*
Y138975D01*
X466050D01*
X466862Y138163D01*
X468898Y137320D01*
X471102D01*
X473138Y138163D01*
X474697Y139722D01*
X475540Y141758D01*
Y143962D01*
X474697Y145998D01*
X473138Y147557D01*
X471102Y148400D01*
X468898D01*
X466862Y147557D01*
X466050Y146745D01*
X458040D01*
Y154150D01*
D02*
G37*
G36*
X201270Y143863D02*
Y136270D01*
X208863D01*
X208284Y138431D01*
X207114Y140459D01*
X205459Y142114D01*
X203431Y143284D01*
X201270Y143863D01*
D02*
G37*
G36*
X121270D02*
Y136270D01*
X128863D01*
X128284Y138431D01*
X127114Y140459D01*
X125459Y142114D01*
X123431Y143284D01*
X121270Y143863D01*
D02*
G37*
G36*
X428040Y141590D02*
X421270D01*
Y131570D01*
X428040D01*
Y141590D01*
D02*
G37*
G36*
X396270Y127721D02*
Y126270D01*
X397721D01*
X397543Y126699D01*
X396699Y127543D01*
X396270Y127721D01*
D02*
G37*
G36*
X393730D02*
X393301Y127543D01*
X392457Y126699D01*
X392279Y126270D01*
X393730D01*
Y127721D01*
D02*
G37*
G36*
X257810Y127181D02*
Y125730D01*
X259261D01*
X259083Y126159D01*
X258239Y127003D01*
X257810Y127181D01*
D02*
G37*
G36*
X255270D02*
X254841Y127003D01*
X253997Y126159D01*
X253819Y125730D01*
X255270D01*
Y127181D01*
D02*
G37*
G36*
X397721Y123730D02*
X396270D01*
Y122279D01*
X396699Y122457D01*
X397543Y123301D01*
X397721Y123730D01*
D02*
G37*
G36*
X393730D02*
X392279D01*
X392457Y123301D01*
X393301Y122457D01*
X393730Y122279D01*
Y123730D01*
D02*
G37*
G36*
X259261Y123190D02*
X257810D01*
Y121739D01*
X258239Y121917D01*
X259083Y122761D01*
X259261Y123190D01*
D02*
G37*
G36*
X255270D02*
X253819D01*
X253997Y122761D01*
X254841Y121917D01*
X255270Y121739D01*
Y123190D01*
D02*
G37*
G36*
X421270Y118430D02*
Y108410D01*
X428040D01*
Y118430D01*
X421270D01*
D02*
G37*
G36*
X458040D02*
X441960D01*
Y95850D01*
X458040D01*
Y103255D01*
X466050D01*
X466862Y102443D01*
X468898Y101600D01*
X471102D01*
X473138Y102443D01*
X474697Y104002D01*
X475540Y106038D01*
Y108242D01*
X474697Y110278D01*
X473138Y111837D01*
X471102Y112680D01*
X468898D01*
X466862Y111837D01*
X466050Y111025D01*
X458040D01*
Y118430D01*
D02*
G37*
G36*
X20640Y103863D02*
X18479Y103284D01*
X16451Y102114D01*
X14796Y100459D01*
X13626Y98431D01*
X13047Y96270D01*
X20640D01*
Y103863D01*
D02*
G37*
G36*
X428040Y105870D02*
X421270D01*
Y95850D01*
X428040D01*
Y105870D01*
D02*
G37*
G36*
X418730D02*
X411960D01*
Y95850D01*
X418730D01*
Y105870D01*
D02*
G37*
G36*
X428040Y82720D02*
X421270D01*
Y72700D01*
X428040D01*
Y82720D01*
D02*
G37*
G36*
X418730D02*
X411960D01*
Y72700D01*
X418730D01*
Y82720D01*
D02*
G37*
G36*
X458040D02*
X441960D01*
Y60140D01*
X458040D01*
Y67545D01*
X466050D01*
X466862Y66733D01*
X468898Y65890D01*
X471102D01*
X473138Y66733D01*
X474697Y68292D01*
X475540Y70328D01*
Y72532D01*
X474697Y74568D01*
X473138Y76127D01*
X471102Y76970D01*
X468898D01*
X466862Y76127D01*
X466050Y75315D01*
X458040D01*
Y82720D01*
D02*
G37*
G36*
X428040Y70160D02*
X421270D01*
Y60140D01*
X428040D01*
Y70160D01*
D02*
G37*
G36*
X418730D02*
X411960D01*
Y60140D01*
X418730D01*
Y70160D01*
D02*
G37*
G36*
X201270Y58863D02*
Y51270D01*
X208863D01*
X208284Y53431D01*
X207114Y55459D01*
X205459Y57114D01*
X203431Y58284D01*
X201270Y58863D01*
D02*
G37*
G36*
X121270D02*
Y51270D01*
X128863D01*
X128284Y53431D01*
X127114Y55459D01*
X125459Y57114D01*
X123431Y58284D01*
X121270Y58863D01*
D02*
G37*
G36*
X257810Y42091D02*
Y40640D01*
X259261D01*
X259083Y41069D01*
X258239Y41913D01*
X257810Y42091D01*
D02*
G37*
G36*
X255270D02*
X254841Y41913D01*
X253997Y41069D01*
X253819Y40640D01*
X255270D01*
Y42091D01*
D02*
G37*
G36*
X259261Y38100D02*
X257810D01*
Y36649D01*
X258239Y36827D01*
X259083Y37671D01*
X259261Y38100D01*
D02*
G37*
G36*
X255270D02*
X253819D01*
X253997Y37671D01*
X254841Y36827D01*
X255270Y36649D01*
Y38100D01*
D02*
G37*
G36*
X347980Y29391D02*
Y27940D01*
X349431D01*
X349253Y28369D01*
X348409Y29213D01*
X347980Y29391D01*
D02*
G37*
G36*
X345440D02*
X345011Y29213D01*
X344167Y28369D01*
X343989Y27940D01*
X345440D01*
Y29391D01*
D02*
G37*
G36*
X496921Y44500D02*
X496270D01*
Y26270D01*
X514500D01*
Y26921D01*
X513751Y30688D01*
X512281Y34237D01*
X510147Y37431D01*
X507430Y40147D01*
X504237Y42281D01*
X500688Y43751D01*
X496921Y44500D01*
D02*
G37*
G36*
X493730D02*
X493079D01*
X489312Y43751D01*
X485763Y42281D01*
X482570Y40147D01*
X479853Y37431D01*
X477719Y34237D01*
X476249Y30688D01*
X475500Y26921D01*
Y26270D01*
X493730D01*
Y44500D01*
D02*
G37*
G36*
X26921D02*
X26270D01*
Y26270D01*
X44500D01*
Y26921D01*
X43751Y30688D01*
X42281Y34237D01*
X40147Y37431D01*
X37431Y40147D01*
X34237Y42281D01*
X30688Y43751D01*
X26921Y44500D01*
D02*
G37*
G36*
X23730D02*
X23079D01*
X19312Y43751D01*
X15763Y42281D01*
X12570Y40147D01*
X9853Y37431D01*
X7719Y34237D01*
X6249Y30688D01*
X5500Y26921D01*
Y26270D01*
X23730D01*
Y44500D01*
D02*
G37*
G36*
X349431Y25400D02*
X347980D01*
Y23949D01*
X348409Y24127D01*
X349253Y24971D01*
X349431Y25400D01*
D02*
G37*
G36*
X345440D02*
X343989D01*
X344167Y24971D01*
X345011Y24127D01*
X345440Y23949D01*
Y25400D01*
D02*
G37*
G36*
X396270Y22721D02*
Y21270D01*
X397721D01*
X397543Y21699D01*
X396699Y22543D01*
X396270Y22721D01*
D02*
G37*
G36*
X393730D02*
X393301Y22543D01*
X392457Y21699D01*
X392279Y21270D01*
X393730D01*
Y22721D01*
D02*
G37*
G36*
X397721Y18730D02*
X396270D01*
Y17279D01*
X396699Y17457D01*
X397543Y18301D01*
X397721Y18730D01*
D02*
G37*
G36*
X393730D02*
X392279D01*
X392457Y18301D01*
X393301Y17457D01*
X393730Y17279D01*
Y18730D01*
D02*
G37*
G36*
X514500Y23730D02*
X496270D01*
Y5500D01*
X496921D01*
X500688Y6249D01*
X504237Y7719D01*
X507430Y9853D01*
X510147Y12570D01*
X512281Y15763D01*
X513751Y19312D01*
X514500Y23079D01*
Y23730D01*
D02*
G37*
G36*
X493730D02*
X475500D01*
Y23079D01*
X476249Y19312D01*
X477719Y15763D01*
X479853Y12570D01*
X482570Y9853D01*
X485763Y7719D01*
X489312Y6249D01*
X493079Y5500D01*
X493730D01*
Y23730D01*
D02*
G37*
G36*
X44500D02*
X26270D01*
Y5500D01*
X26921D01*
X30688Y6249D01*
X34237Y7719D01*
X37431Y9853D01*
X40147Y12570D01*
X42281Y15763D01*
X43751Y19312D01*
X44500Y23079D01*
Y23730D01*
D02*
G37*
G36*
X23730D02*
X5500D01*
Y23079D01*
X6249Y19312D01*
X7719Y15763D01*
X9853Y12570D01*
X12570Y9853D01*
X15763Y7719D01*
X19312Y6249D01*
X23079Y5500D01*
X23730D01*
Y23730D01*
D02*
G37*
%LPD*%
D16*
X450000Y71430D02*
D03*
X420000D02*
D03*
Y142860D02*
D03*
Y178570D02*
D03*
Y107140D02*
D03*
X450000Y142860D02*
D03*
Y178570D02*
D03*
Y107140D02*
D03*
D23*
X235422Y196372D02*
X235900Y196850D01*
X247650Y175260D02*
X292798D01*
X235422Y187488D02*
Y196372D01*
Y187488D02*
X247650Y175260D01*
X224910Y168910D02*
X285290D01*
X292798Y175260D02*
X303250Y164808D01*
X285290Y168910D02*
X285750Y168450D01*
X215960Y177860D02*
X224910Y168910D01*
X215900Y196850D02*
X215960Y196790D01*
Y177860D02*
Y196790D01*
X105459Y100459D02*
X120000Y115000D01*
X41910Y95000D02*
X43019D01*
X48478Y100459D01*
X105459D01*
X95212Y232780D02*
X337450D01*
X346023Y229870D02*
X398780Y177113D01*
X337450Y232780D02*
X340360Y229870D01*
X346023D01*
X93108Y237860D02*
X345217D01*
X334010Y185330D02*
Y223520D01*
Y185330D02*
X354650Y164690D01*
X303250Y89537D02*
X348337Y44450D01*
X303250Y89537D02*
Y164808D01*
X350442Y49530D02*
X358858D01*
X374018Y64690D01*
X330600Y84690D02*
X354650D01*
X308610Y91362D02*
Y166632D01*
Y91362D02*
X350442Y49530D01*
X325120Y90170D02*
X330600Y84690D01*
X374018Y64690D02*
X374650D01*
X134670Y100330D02*
X185420D01*
X120000Y115000D02*
X134670Y100330D01*
X345217Y237860D02*
X405590Y177487D01*
Y112220D02*
Y177487D01*
X400050Y106680D02*
X405590Y112220D01*
X398780Y143510D02*
Y177113D01*
X450000Y178570D02*
X470000D01*
X450000Y142860D02*
X470000D01*
X450000Y107140D02*
X470000D01*
X450000Y71430D02*
X470000D01*
X374650Y104690D02*
X389890Y89450D01*
Y53377D02*
Y89450D01*
X384810Y55482D02*
Y74530D01*
X374650Y84690D02*
X384810Y74530D01*
X294442Y180800D02*
X308610Y166632D01*
X342863Y6350D02*
X389890Y53377D01*
X107872Y6350D02*
X342863D01*
X366043Y49530D02*
X378858D01*
X384810Y55482D01*
X348337Y44450D02*
X360963D01*
X270680Y180800D02*
X294442D01*
X255900Y195580D02*
X270680Y180800D01*
X360963Y44450D02*
X366043Y49530D01*
X41910Y72312D02*
X107872Y6350D01*
X41910Y72312D02*
Y73980D01*
X87900Y207700D02*
X98750Y196850D01*
X87900Y207700D02*
Y225468D01*
X95212Y232780D01*
X82820Y227572D02*
X93108Y237860D01*
X82820Y197436D02*
Y227572D01*
Y197436D02*
X94256Y186000D01*
X107900D01*
X118750Y196850D01*
X175364Y215580D02*
X215900D01*
X163244Y227700D02*
X175364Y215580D01*
X149600Y227700D02*
X163244D01*
X138750Y216850D02*
X149600Y227700D01*
X185420Y100330D02*
X195580Y110490D01*
X187640Y15240D02*
X197800Y25400D01*
X120650Y27940D02*
X133350Y15240D01*
X187640D01*
D24*
X100000Y115000D02*
D03*
Y135000D02*
D03*
X120000Y115000D02*
D03*
Y135000D02*
D03*
X354650Y84690D02*
D03*
Y104690D02*
D03*
Y124690D02*
D03*
X374650D02*
D03*
X354650Y144690D02*
D03*
X374650D02*
D03*
X354650Y64690D02*
D03*
Y164690D02*
D03*
Y184690D02*
D03*
X374650Y64690D02*
D03*
Y104690D02*
D03*
Y84690D02*
D03*
Y184690D02*
D03*
Y164690D02*
D03*
X41910Y75000D02*
D03*
X120000Y50000D02*
D03*
X21910Y95000D02*
D03*
X200000Y50000D02*
D03*
Y135000D02*
D03*
X40640Y155000D02*
D03*
X200000Y115000D02*
D03*
X120000Y30000D02*
D03*
X200000D02*
D03*
X41910Y95000D02*
D03*
X180000Y135000D02*
D03*
Y115000D02*
D03*
Y50000D02*
D03*
Y30000D02*
D03*
X21910Y75000D02*
D03*
X100000Y50000D02*
D03*
Y30000D02*
D03*
X40640Y175000D02*
D03*
X20640D02*
D03*
Y155000D02*
D03*
D25*
X98750Y196850D02*
D03*
X118750D02*
D03*
X235900Y216850D02*
D03*
X118750D02*
D03*
X158750Y196850D02*
D03*
X138750D02*
D03*
Y216850D02*
D03*
X215900D02*
D03*
X235900Y196850D02*
D03*
X255900Y216850D02*
D03*
X215900Y196850D02*
D03*
X158750Y216850D02*
D03*
D26*
X255900Y196850D02*
D03*
X98750Y216850D02*
D03*
D27*
X395000Y20000D02*
D03*
X285750Y168450D02*
D03*
X342951Y131500D02*
D03*
X345217Y237860D02*
D03*
X334010Y223520D02*
D03*
X325120Y90170D02*
D03*
X398780Y143510D02*
D03*
X400050Y106680D02*
D03*
Y71120D02*
D03*
X395000Y230000D02*
D03*
X256540Y124460D02*
D03*
Y39370D02*
D03*
X294640Y204470D02*
D03*
X395000Y125000D02*
D03*
X346710Y26670D02*
D03*
X470000Y142860D02*
D03*
Y178570D02*
D03*
Y71430D02*
D03*
Y107140D02*
D03*
D28*
X495000Y225000D02*
D03*
Y25000D02*
D03*
X25000Y225000D02*
D03*
Y25000D02*
D03*
M02*
