G04*
G04 #@! TF.GenerationSoftware,Altium Limited,Altium Designer,26.4.1 (12)*
G04*
G04 Layer_Color=32896*
%FSLAX44Y44*%
%MOMM*%
G71*
G04*
G04 #@! TF.SameCoordinates,FFDCDF17-8FD6-4251-8FB5-E1F8CEAA363F*
G04*
G04*
G04 #@! TF.FilePolarity,Positive*
G04*
G01*
G75*
%ADD10C,0.2000*%
%ADD11C,0.5080*%
%ADD13C,0.1524*%
%ADD14C,0.1270*%
%ADD15C,0.1800*%
%ADD45C,0.0762*%
G36*
X397995Y102616D02*
X394185D01*
Y105156D01*
X397995D01*
Y102616D01*
D02*
G37*
G36*
X23965Y81073D02*
X22431D01*
Y81292D01*
X23965D01*
Y81073D01*
D02*
G37*
G36*
X22431Y80854D02*
X21554D01*
Y80635D01*
X20896D01*
Y80415D01*
X20238D01*
Y80635D01*
X20677D01*
Y80854D01*
X21335D01*
Y81073D01*
X22431D01*
Y80854D01*
D02*
G37*
G36*
X20238Y80196D02*
X19800D01*
Y80415D01*
X20238D01*
Y80196D01*
D02*
G37*
G36*
X19800Y79977D02*
X19362D01*
Y79758D01*
X18923D01*
Y79538D01*
X18485D01*
Y79319D01*
X18046D01*
Y79538D01*
X18265D01*
Y79758D01*
X18704D01*
Y79977D01*
X19142D01*
Y80196D01*
X19800D01*
Y79977D01*
D02*
G37*
G36*
X18046Y79100D02*
X17608D01*
Y79319D01*
X18046D01*
Y79100D01*
D02*
G37*
G36*
X50054Y78662D02*
X49396D01*
Y78881D01*
X50054D01*
Y78662D01*
D02*
G37*
G36*
X17608Y78881D02*
X17388D01*
Y78662D01*
X16950D01*
Y78881D01*
X17169D01*
Y79100D01*
X17608D01*
Y78881D01*
D02*
G37*
G36*
X49396Y78442D02*
X48958D01*
Y78662D01*
X49396D01*
Y78442D01*
D02*
G37*
G36*
X16950D02*
X16731D01*
Y78223D01*
X16512D01*
Y78004D01*
X16073D01*
Y78223D01*
X16292D01*
Y78442D01*
X16512D01*
Y78662D01*
X16950D01*
Y78442D01*
D02*
G37*
G36*
X16073Y77785D02*
X15854D01*
Y78004D01*
X16073D01*
Y77785D01*
D02*
G37*
G36*
X27254Y81073D02*
X28131D01*
Y80854D01*
X29008D01*
Y80635D01*
X29665D01*
Y80415D01*
X30104D01*
Y80196D01*
X30762D01*
Y79977D01*
X31200D01*
Y79758D01*
X31639D01*
Y79538D01*
X32296D01*
Y79319D01*
X32735D01*
Y79100D01*
X33173D01*
Y78881D01*
X33612D01*
Y78662D01*
X34050D01*
Y78442D01*
X34488D01*
Y78223D01*
X35146D01*
Y78004D01*
X35585D01*
Y77785D01*
X36023D01*
Y77565D01*
X36681D01*
Y77346D01*
X37339D01*
Y77565D01*
X37777D01*
Y78223D01*
X37996D01*
Y78881D01*
X38215D01*
Y79100D01*
X38435D01*
Y79319D01*
X38654D01*
Y79538D01*
X39969D01*
Y79319D01*
X40408D01*
Y79100D01*
X40846D01*
Y78881D01*
X41065D01*
Y78662D01*
X41285D01*
Y78442D01*
X41504D01*
Y78223D01*
X41723D01*
Y78004D01*
X42162D01*
Y77785D01*
X45450D01*
Y77565D01*
X46765D01*
Y77346D01*
X47204D01*
Y77565D01*
X47423D01*
Y77785D01*
X47862D01*
Y78004D01*
X48081D01*
Y78223D01*
X48519D01*
Y78442D01*
X48958D01*
Y78223D01*
X48738D01*
Y78004D01*
X48300D01*
Y77785D01*
X48081D01*
Y77565D01*
X47862D01*
Y77346D01*
X47642D01*
Y77127D01*
X47423D01*
Y76908D01*
X46985D01*
Y77127D01*
X46327D01*
Y77346D01*
X45450D01*
Y77565D01*
X42381D01*
Y77346D01*
X42600D01*
Y76908D01*
X42819D01*
Y76469D01*
X42600D01*
Y76688D01*
X42381D01*
Y76908D01*
X42162D01*
Y77127D01*
X41942D01*
Y77565D01*
X41723D01*
Y77785D01*
X41504D01*
Y78004D01*
X41285D01*
Y78223D01*
X41065D01*
Y78442D01*
X40846D01*
Y78662D01*
X40408D01*
Y78881D01*
X40188D01*
Y79100D01*
X39531D01*
Y79319D01*
X38873D01*
Y79100D01*
X38654D01*
Y78881D01*
X38435D01*
Y78662D01*
X38215D01*
Y78004D01*
X37996D01*
Y75373D01*
X38215D01*
Y74935D01*
X38435D01*
Y73839D01*
X38215D01*
Y73619D01*
X37996D01*
Y73400D01*
X37777D01*
Y73181D01*
X37558D01*
Y72962D01*
X37339D01*
Y72742D01*
X37119D01*
Y72304D01*
X36900D01*
Y72085D01*
X36681D01*
Y71865D01*
X36462D01*
Y71427D01*
D01*
D01*
X36900D01*
Y70988D01*
X36681D01*
Y70769D01*
X36462D01*
Y70331D01*
X36242D01*
Y70111D01*
X36023D01*
Y69673D01*
X35804D01*
Y69235D01*
X36242D01*
Y69454D01*
X36900D01*
Y69235D01*
X36462D01*
Y68796D01*
X36681D01*
Y68577D01*
X37119D01*
Y68358D01*
X37339D01*
Y68138D01*
X37777D01*
Y67919D01*
X37996D01*
Y67700D01*
X38435D01*
Y67481D01*
X38873D01*
Y67262D01*
X39312D01*
Y67042D01*
X40846D01*
Y66823D01*
X41504D01*
Y66604D01*
X43039D01*
Y67042D01*
X42819D01*
Y67262D01*
X41942D01*
Y67481D01*
X43477D01*
Y67262D01*
X44135D01*
Y67042D01*
X44573D01*
Y66823D01*
X45012D01*
Y66604D01*
X45231D01*
Y66385D01*
X45669D01*
Y66165D01*
X46108D01*
Y65946D01*
X46327D01*
Y65727D01*
X46108D01*
Y65946D01*
X45669D01*
Y66165D01*
X45231D01*
Y66385D01*
X44792D01*
Y66604D01*
X44354D01*
Y66823D01*
X43915D01*
Y67042D01*
X43477D01*
Y66823D01*
X43696D01*
Y66604D01*
X44135D01*
Y66385D01*
X44354D01*
Y66165D01*
X44792D01*
Y65946D01*
X45231D01*
Y65727D01*
X45889D01*
Y65508D01*
X47204D01*
Y65727D01*
X47642D01*
Y66165D01*
X47423D01*
Y66385D01*
X47204D01*
Y67262D01*
X47423D01*
Y67481D01*
X47642D01*
Y67700D01*
X48738D01*
Y67481D01*
X48081D01*
Y67262D01*
X47642D01*
Y66604D01*
X47862D01*
Y66385D01*
X48519D01*
Y66604D01*
X48738D01*
Y66823D01*
X48958D01*
Y67042D01*
X49177D01*
Y67481D01*
X48958D01*
Y67919D01*
X48738D01*
Y68358D01*
X48519D01*
Y68577D01*
X48300D01*
Y68796D01*
X48081D01*
Y69015D01*
X47862D01*
Y69454D01*
X47642D01*
Y69673D01*
X47423D01*
Y69892D01*
Y70111D01*
X47204D01*
Y70331D01*
X47423D01*
Y70111D01*
X47642D01*
Y69673D01*
X47862D01*
Y69454D01*
X48081D01*
Y69235D01*
X48300D01*
Y69015D01*
X48519D01*
Y68796D01*
X48738D01*
Y68577D01*
X48958D01*
Y68358D01*
X49177D01*
Y68138D01*
X49396D01*
Y67919D01*
X49835D01*
Y68138D01*
X50054D01*
Y68358D01*
X50273D01*
Y68577D01*
X50492D01*
Y68796D01*
X50712D01*
Y69015D01*
X50931D01*
Y69235D01*
X51150D01*
Y69454D01*
X51369D01*
Y69673D01*
X51589D01*
Y69892D01*
X51369D01*
Y70111D01*
X51150D01*
Y70331D01*
X50931D01*
Y70550D01*
X50712D01*
Y70769D01*
X50492D01*
Y71208D01*
X50273D01*
Y71427D01*
X50054D01*
Y71646D01*
X49835D01*
Y71865D01*
X49396D01*
Y72085D01*
X49177D01*
Y72304D01*
X48958D01*
Y72523D01*
X48300D01*
Y72742D01*
X47862D01*
Y72523D01*
X47423D01*
Y72742D01*
X47642D01*
Y72962D01*
X48738D01*
Y72742D01*
X49177D01*
Y72523D01*
X49396D01*
Y72304D01*
X49835D01*
Y72085D01*
X50054D01*
Y71865D01*
X50273D01*
Y71646D01*
X50492D01*
Y71427D01*
X50712D01*
Y71208D01*
X50931D01*
Y70988D01*
X51150D01*
Y70769D01*
X51369D01*
Y70550D01*
X51589D01*
Y70769D01*
X51369D01*
Y71208D01*
X51150D01*
Y71646D01*
X50931D01*
Y72085D01*
X50712D01*
Y72523D01*
X50492D01*
Y72962D01*
X50273D01*
Y73400D01*
X50054D01*
Y73839D01*
X49835D01*
Y74277D01*
X49615D01*
Y74715D01*
X49396D01*
Y75154D01*
X49177D01*
Y75373D01*
X48958D01*
Y75812D01*
X48519D01*
Y76031D01*
X48300D01*
Y76469D01*
X48519D01*
Y76688D01*
X48738D01*
Y77127D01*
X48958D01*
Y77346D01*
X49177D01*
Y77565D01*
X49396D01*
Y77785D01*
X49615D01*
Y78004D01*
X50054D01*
Y78223D01*
X50273D01*
Y78442D01*
X50712D01*
Y78223D01*
X50492D01*
Y78004D01*
X50273D01*
Y77785D01*
X50054D01*
Y77565D01*
X49835D01*
Y77346D01*
X49615D01*
Y77127D01*
X49396D01*
Y76908D01*
X49177D01*
Y76688D01*
X48958D01*
Y76031D01*
X49177D01*
Y75812D01*
X49396D01*
Y75373D01*
X49615D01*
Y75154D01*
X49835D01*
Y74935D01*
X50054D01*
Y75154D01*
X50273D01*
Y75592D01*
X50492D01*
Y76031D01*
X50712D01*
Y76469D01*
X50931D01*
Y77346D01*
X51150D01*
Y78662D01*
X50712D01*
Y78881D01*
X50273D01*
Y79100D01*
X50712D01*
Y78881D01*
X51369D01*
Y76908D01*
X51150D01*
Y76250D01*
X50931D01*
Y75592D01*
X50712D01*
Y75154D01*
X50492D01*
Y74715D01*
X50273D01*
Y73619D01*
X50492D01*
Y73181D01*
X50712D01*
Y72742D01*
X50931D01*
Y72304D01*
X51150D01*
Y71865D01*
X51369D01*
Y71427D01*
X51589D01*
Y70988D01*
X51808D01*
Y70550D01*
X52027D01*
Y70331D01*
X52246D01*
Y69892D01*
X52027D01*
Y69673D01*
X51808D01*
Y69454D01*
X51589D01*
Y69235D01*
X51369D01*
Y69015D01*
X51150D01*
Y68796D01*
X50931D01*
Y68358D01*
X50712D01*
Y68138D01*
X50492D01*
Y67919D01*
X52904D01*
Y67700D01*
X50273D01*
Y67481D01*
X49615D01*
Y67042D01*
X51808D01*
Y66823D01*
X49615D01*
Y66604D01*
X49396D01*
Y66385D01*
X50492D01*
Y66165D01*
X49177D01*
Y65946D01*
X48519D01*
Y65727D01*
X48081D01*
Y65508D01*
X47642D01*
Y65289D01*
X45450D01*
Y65508D01*
X45231D01*
Y65289D01*
X45012D01*
Y65069D01*
X44792D01*
Y64850D01*
X44573D01*
Y64412D01*
X44354D01*
Y63973D01*
X44135D01*
Y63315D01*
X43915D01*
Y62658D01*
X43696D01*
Y62000D01*
X43477D01*
Y61781D01*
X43258D01*
Y61561D01*
X43039D01*
Y61342D01*
X42819D01*
Y60904D01*
X42600D01*
Y60246D01*
X42381D01*
Y59588D01*
X42162D01*
Y59150D01*
X41942D01*
Y58492D01*
X41723D01*
Y57615D01*
X41504D01*
Y56739D01*
X41285D01*
Y54327D01*
X41504D01*
Y53450D01*
X41723D01*
Y53012D01*
X42162D01*
Y52792D01*
X42819D01*
Y52573D01*
X43477D01*
Y52354D01*
X44135D01*
Y52135D01*
X44573D01*
Y51915D01*
X44792D01*
Y51696D01*
X45012D01*
Y51477D01*
X45231D01*
Y51258D01*
X45450D01*
Y50819D01*
X45231D01*
Y50600D01*
X45012D01*
Y50381D01*
X42162D01*
Y50600D01*
X41285D01*
Y50819D01*
X40846D01*
Y51038D01*
X40408D01*
Y51258D01*
X40188D01*
Y51477D01*
X39969D01*
Y51696D01*
X39750D01*
Y52135D01*
X39531D01*
Y52354D01*
X39312D01*
Y52573D01*
Y52792D01*
X39092D01*
Y53231D01*
X38873D01*
Y53450D01*
X38654D01*
Y53889D01*
X38435D01*
Y54327D01*
X38215D01*
Y54765D01*
X37996D01*
Y54985D01*
X37777D01*
Y55423D01*
X37558D01*
Y55862D01*
X37339D01*
Y56300D01*
X37119D01*
Y56958D01*
X36900D01*
Y57396D01*
X36681D01*
Y58054D01*
X36462D01*
Y58492D01*
X36242D01*
Y58931D01*
X36023D01*
Y59150D01*
X35585D01*
Y58931D01*
X35365D01*
Y58492D01*
X35146D01*
Y58273D01*
X34927D01*
Y57615D01*
X34708D01*
Y57177D01*
X34488D01*
Y56081D01*
X34269D01*
Y53889D01*
X34050D01*
Y56300D01*
X34269D01*
Y57396D01*
X34488D01*
Y57835D01*
X34708D01*
Y58492D01*
X34927D01*
Y58712D01*
X35146D01*
Y59150D01*
X35365D01*
Y59369D01*
X35585D01*
Y59808D01*
X35804D01*
Y60027D01*
X36023D01*
Y60246D01*
X36242D01*
Y60465D01*
X36462D01*
Y60685D01*
X36681D01*
Y60904D01*
X36900D01*
Y61123D01*
X37119D01*
Y61561D01*
X37339D01*
Y61781D01*
X37558D01*
Y62219D01*
X37777D01*
Y62439D01*
X37996D01*
Y62000D01*
X37777D01*
Y61561D01*
X37558D01*
Y61342D01*
X37339D01*
Y60904D01*
X37119D01*
Y60685D01*
X36900D01*
Y60465D01*
X36681D01*
Y60246D01*
X36462D01*
Y60027D01*
X36242D01*
Y59588D01*
X36681D01*
Y59808D01*
X37339D01*
Y60027D01*
X37777D01*
Y60246D01*
X38215D01*
Y60465D01*
X38654D01*
Y60685D01*
X38873D01*
Y60904D01*
X39312D01*
Y60685D01*
X39092D01*
Y60465D01*
X38873D01*
Y60246D01*
X38435D01*
Y60027D01*
X37996D01*
Y59808D01*
X37558D01*
Y59588D01*
X37119D01*
Y59369D01*
X36681D01*
Y59150D01*
X36462D01*
Y58931D01*
X36681D01*
Y58273D01*
X36900D01*
Y57615D01*
X37119D01*
Y57177D01*
X37339D01*
Y56739D01*
X37558D01*
Y56300D01*
X37777D01*
Y55862D01*
X37996D01*
Y55423D01*
X38215D01*
Y54985D01*
X38435D01*
Y54546D01*
X38654D01*
Y54108D01*
X38873D01*
Y53889D01*
X39092D01*
Y53450D01*
X39312D01*
Y53012D01*
X39531D01*
Y52573D01*
X39750D01*
Y52354D01*
X39969D01*
Y51915D01*
X40188D01*
Y51696D01*
X40408D01*
Y51477D01*
X40627D01*
Y51258D01*
X40846D01*
Y51038D01*
X41504D01*
Y50819D01*
X42162D01*
Y50600D01*
X43696D01*
Y50819D01*
X43477D01*
Y51038D01*
X43258D01*
Y51258D01*
X42819D01*
Y51477D01*
X42600D01*
Y51696D01*
X43039D01*
Y51477D01*
X43477D01*
Y51258D01*
X43696D01*
Y51038D01*
X43915D01*
Y50819D01*
X44135D01*
Y50600D01*
X44573D01*
Y51038D01*
X44354D01*
Y51477D01*
X43915D01*
Y51696D01*
X43696D01*
Y51915D01*
X43915D01*
Y52135D01*
X43258D01*
Y52354D01*
X42600D01*
Y52573D01*
X41942D01*
Y52792D01*
X41504D01*
Y53231D01*
X41285D01*
Y54108D01*
X41065D01*
Y57396D01*
X41285D01*
Y58273D01*
X41504D01*
Y58931D01*
X41723D01*
Y59588D01*
X41942D01*
Y60027D01*
X42162D01*
Y60685D01*
X42381D01*
Y61342D01*
X42600D01*
Y61781D01*
X42819D01*
Y62439D01*
X43039D01*
Y62877D01*
X43258D01*
Y62439D01*
X43477D01*
Y63096D01*
X43696D01*
Y63754D01*
X43915D01*
Y64412D01*
X44135D01*
Y64850D01*
X44354D01*
Y65069D01*
X44573D01*
Y65289D01*
X44792D01*
Y65727D01*
X44354D01*
Y65946D01*
X43915D01*
Y66165D01*
X43696D01*
Y66385D01*
X42381D01*
Y66165D01*
X41723D01*
Y65946D01*
X41504D01*
Y65727D01*
X41065D01*
Y65946D01*
X41285D01*
Y66165D01*
X41504D01*
Y66385D01*
X40846D01*
Y66604D01*
X39312D01*
Y66823D01*
X38873D01*
Y67042D01*
X38435D01*
Y67262D01*
X37996D01*
Y67481D01*
X37777D01*
Y67700D01*
X37339D01*
Y67919D01*
X37119D01*
Y68138D01*
X36681D01*
Y68358D01*
X36462D01*
Y68577D01*
X36242D01*
Y68796D01*
X35585D01*
Y69015D01*
X35365D01*
Y69454D01*
X35585D01*
Y69892D01*
X35804D01*
Y70550D01*
X36023D01*
Y70769D01*
X35804D01*
Y71427D01*
X36023D01*
Y71646D01*
X36242D01*
Y72085D01*
X36462D01*
Y72304D01*
X36681D01*
Y72742D01*
X36900D01*
Y72962D01*
X37119D01*
Y73181D01*
X37339D01*
Y73400D01*
X37558D01*
Y73619D01*
X37777D01*
Y74058D01*
X37996D01*
Y74935D01*
X37777D01*
Y75592D01*
X37558D01*
Y77127D01*
X36681D01*
Y76908D01*
X35804D01*
Y76688D01*
X34927D01*
Y76469D01*
X34269D01*
Y76688D01*
X34708D01*
Y76908D01*
X35365D01*
Y77127D01*
X36023D01*
Y77565D01*
X35365D01*
Y77785D01*
X34927D01*
Y78004D01*
X34269D01*
Y78223D01*
X33831D01*
Y78442D01*
X33392D01*
Y78662D01*
X32954D01*
Y78881D01*
X32515D01*
Y79100D01*
X32077D01*
Y79319D01*
X31639D01*
Y79538D01*
X30981D01*
Y79758D01*
X30542D01*
Y79977D01*
X30104D01*
Y80196D01*
X29446D01*
Y80415D01*
X28788D01*
Y80635D01*
X28131D01*
Y80854D01*
X27254D01*
Y81073D01*
X25719D01*
Y81292D01*
X27254D01*
Y81073D01*
D02*
G37*
G36*
X34269Y76250D02*
X33831D01*
Y76469D01*
X34269D01*
Y76250D01*
D02*
G37*
G36*
X39750Y78004D02*
X40188D01*
Y77785D01*
X40408D01*
Y77565D01*
X40627D01*
Y77346D01*
X40846D01*
Y76908D01*
X41065D01*
Y76688D01*
X41285D01*
Y76469D01*
Y76031D01*
X40846D01*
Y75812D01*
X40408D01*
Y75592D01*
X40188D01*
Y75373D01*
X39969D01*
Y75154D01*
X39531D01*
Y75592D01*
X39312D01*
Y76031D01*
X39092D01*
Y76469D01*
X38873D01*
Y78223D01*
X39750D01*
Y78004D01*
D02*
G37*
G36*
X15854Y77565D02*
X15635D01*
Y77346D01*
X15415D01*
Y77127D01*
X15196D01*
Y76908D01*
X14977D01*
Y76688D01*
X14758D01*
Y76469D01*
X14539D01*
Y76250D01*
X14319D01*
Y76031D01*
X14100D01*
Y75812D01*
X13881D01*
Y75592D01*
X13662D01*
Y75373D01*
X13442D01*
Y75154D01*
X13223D01*
Y75592D01*
X13442D01*
Y75812D01*
X13662D01*
Y76031D01*
X13881D01*
Y76250D01*
X14100D01*
Y76469D01*
X14319D01*
Y76688D01*
X14539D01*
Y76908D01*
X14758D01*
Y77127D01*
X14977D01*
Y77346D01*
X15196D01*
Y77565D01*
X15415D01*
Y77785D01*
X15854D01*
Y77565D01*
D02*
G37*
G36*
X13223Y74715D02*
X13004D01*
Y74496D01*
X12785D01*
Y74277D01*
X12565D01*
Y74715D01*
X12785D01*
Y74935D01*
X13004D01*
Y75154D01*
X13223D01*
Y74715D01*
D02*
G37*
G36*
X12785Y73181D02*
X12565D01*
Y73400D01*
X12785D01*
Y73181D01*
D02*
G37*
G36*
X47423Y71427D02*
X46985D01*
Y71646D01*
Y71865D01*
Y72085D01*
X47204D01*
Y72523D01*
X47423D01*
Y71427D01*
D02*
G37*
G36*
X37119D02*
X36900D01*
Y71646D01*
X37119D01*
Y71427D01*
D02*
G37*
G36*
X44354Y72742D02*
X44792D01*
Y72523D01*
X45231D01*
Y72304D01*
X45450D01*
Y72085D01*
X45669D01*
Y71646D01*
X45889D01*
Y71208D01*
X45669D01*
Y71427D01*
X45450D01*
Y71865D01*
X45231D01*
Y72085D01*
X45012D01*
Y72304D01*
X44573D01*
Y72523D01*
X43258D01*
Y72304D01*
X42819D01*
Y72085D01*
X42381D01*
Y71865D01*
X41942D01*
Y71646D01*
X41504D01*
Y71427D01*
X41065D01*
Y71208D01*
X40627D01*
Y70988D01*
X40188D01*
Y70769D01*
X39969D01*
Y70550D01*
X39531D01*
Y70331D01*
X39312D01*
Y70111D01*
X39092D01*
Y69892D01*
X38873D01*
Y69673D01*
X38654D01*
Y69454D01*
X38435D01*
Y69235D01*
X38215D01*
Y68796D01*
X38435D01*
Y68577D01*
X39312D01*
Y68358D01*
X43039D01*
Y68138D01*
X44354D01*
Y67919D01*
X44573D01*
Y67700D01*
X43915D01*
Y67919D01*
X39312D01*
Y68138D01*
X38435D01*
Y68358D01*
X37996D01*
Y68577D01*
X37777D01*
Y69235D01*
X37996D01*
Y69673D01*
X38215D01*
Y69892D01*
X38435D01*
Y70111D01*
X38654D01*
Y70331D01*
X38873D01*
Y70550D01*
X39092D01*
Y70769D01*
X39531D01*
Y70988D01*
X39750D01*
Y71208D01*
X40188D01*
Y71427D01*
X40627D01*
Y71646D01*
X41065D01*
Y71865D01*
X41723D01*
Y72085D01*
X42162D01*
Y72304D01*
X42600D01*
Y72523D01*
X43039D01*
Y72742D01*
X43477D01*
Y72962D01*
X44354D01*
Y72742D01*
D02*
G37*
G36*
X48958Y71427D02*
X49177D01*
Y70988D01*
X48958D01*
Y70769D01*
X48081D01*
Y70988D01*
X47642D01*
Y71208D01*
X47862D01*
Y71646D01*
X48081D01*
Y71865D01*
X48958D01*
Y71427D01*
D02*
G37*
G36*
X44573Y71208D02*
X44792D01*
Y70988D01*
X45231D01*
Y70769D01*
X45450D01*
Y70331D01*
X45231D01*
Y70550D01*
X44573D01*
Y70331D01*
X44354D01*
Y70111D01*
X43477D01*
Y70331D01*
X43258D01*
Y70550D01*
X43039D01*
Y71208D01*
X43258D01*
Y71427D01*
X44573D01*
Y71208D01*
D02*
G37*
G36*
X45889Y73400D02*
X46108D01*
Y72962D01*
X46327D01*
Y72304D01*
X46546D01*
Y70988D01*
X46765D01*
Y69673D01*
X46985D01*
Y69454D01*
X46765D01*
Y69673D01*
X46546D01*
Y70769D01*
X46327D01*
Y71865D01*
X46108D01*
Y72742D01*
X45889D01*
Y72962D01*
Y73181D01*
X45669D01*
Y73619D01*
X45889D01*
Y73400D01*
D02*
G37*
G36*
X45012Y68577D02*
X44792D01*
Y68796D01*
X45012D01*
Y68577D01*
D02*
G37*
G36*
X44792Y68358D02*
X44573D01*
Y68577D01*
X44792D01*
Y68358D01*
D02*
G37*
G36*
X44573Y68138D02*
X44354D01*
Y68358D01*
X44573D01*
Y68138D01*
D02*
G37*
G36*
X41723Y67042D02*
X41065D01*
Y67262D01*
X41723D01*
Y67042D01*
D02*
G37*
G36*
X29885Y66823D02*
X29665D01*
Y67042D01*
X29885D01*
Y66823D01*
D02*
G37*
G36*
X52465Y66604D02*
X52027D01*
Y66823D01*
X52465D01*
Y66604D01*
D02*
G37*
G36*
X39312Y66385D02*
X39092D01*
Y66604D01*
X39312D01*
Y66385D01*
D02*
G37*
G36*
X39092Y66165D02*
X38654D01*
Y66385D01*
X39092D01*
Y66165D01*
D02*
G37*
G36*
X29665Y66385D02*
X29446D01*
Y66165D01*
X29227D01*
Y66604D01*
X29446D01*
Y66823D01*
X29665D01*
Y66385D01*
D02*
G37*
G36*
X51369Y65946D02*
X50931D01*
Y66165D01*
X51369D01*
Y65946D01*
D02*
G37*
G36*
X38654D02*
X38215D01*
Y66165D01*
X38654D01*
Y65946D01*
D02*
G37*
G36*
X51808Y65727D02*
X51589D01*
Y65946D01*
X51808D01*
Y65727D01*
D02*
G37*
G36*
X43915D02*
X43696D01*
Y65508D01*
X43258D01*
Y65727D01*
X43477D01*
Y65946D01*
X43915D01*
Y65727D01*
D02*
G37*
G36*
X41065Y65508D02*
X40627D01*
Y65727D01*
X41065D01*
Y65508D01*
D02*
G37*
G36*
X43258Y65289D02*
X43039D01*
Y65508D01*
X43258D01*
Y65289D01*
D02*
G37*
G36*
X40627D02*
X40188D01*
Y65508D01*
X40627D01*
Y65289D01*
D02*
G37*
G36*
X43039Y65069D02*
X42819D01*
Y65289D01*
X43039D01*
Y65069D01*
D02*
G37*
G36*
X40188D02*
X39969D01*
Y65289D01*
X40188D01*
Y65069D01*
D02*
G37*
G36*
X42819Y64850D02*
X42600D01*
Y65069D01*
X42819D01*
Y64850D01*
D02*
G37*
G36*
X39969D02*
X39750D01*
Y65069D01*
X39969D01*
Y64850D01*
D02*
G37*
G36*
X38435Y62877D02*
X38215D01*
Y63096D01*
X38435D01*
Y62877D01*
D02*
G37*
G36*
X38215Y62439D02*
X37996D01*
Y62877D01*
X38215D01*
Y62439D01*
D02*
G37*
G36*
X40188Y61342D02*
X39969D01*
Y61123D01*
X39750D01*
Y60904D01*
X39312D01*
Y61123D01*
X39531D01*
Y61342D01*
X39750D01*
Y61561D01*
X40188D01*
Y61342D01*
D02*
G37*
G36*
X25062Y56739D02*
X24842D01*
Y56519D01*
X24623D01*
Y56958D01*
X24842D01*
Y57177D01*
X25062D01*
Y56739D01*
D02*
G37*
G36*
X12565Y73839D02*
X12346D01*
Y73400D01*
X12127D01*
Y73181D01*
X12565D01*
Y72962D01*
X12346D01*
Y72742D01*
X12127D01*
Y72304D01*
X11908D01*
Y71865D01*
X11688D01*
Y71427D01*
X11469D01*
Y70331D01*
X11250D01*
Y68358D01*
X11469D01*
Y68577D01*
X11688D01*
Y68796D01*
X11908D01*
Y66165D01*
X12127D01*
Y65508D01*
X12346D01*
Y65069D01*
X12565D01*
Y64850D01*
X12785D01*
Y65289D01*
X13004D01*
Y64631D01*
X13223D01*
Y63973D01*
X13442D01*
Y63315D01*
X13662D01*
Y62658D01*
X13881D01*
Y62000D01*
X14100D01*
Y61342D01*
X14319D01*
Y60465D01*
X14539D01*
Y60027D01*
X14758D01*
Y60246D01*
X14977D01*
Y56519D01*
X14758D01*
Y55423D01*
X14539D01*
Y54765D01*
X14319D01*
Y54108D01*
X14539D01*
Y53450D01*
X14758D01*
Y53231D01*
X14977D01*
Y52792D01*
X15196D01*
Y52573D01*
X15415D01*
Y52135D01*
X15635D01*
Y51915D01*
X15854D01*
Y51696D01*
X16073D01*
Y51477D01*
X16292D01*
Y51258D01*
X16512D01*
Y51038D01*
X16731D01*
Y50819D01*
X17169D01*
Y50600D01*
X17608D01*
Y50381D01*
X18485D01*
Y50162D01*
X19581D01*
Y50381D01*
X19362D01*
Y50600D01*
X19142D01*
Y50819D01*
X18704D01*
Y51038D01*
X18265D01*
Y51258D01*
X18923D01*
Y51038D01*
X19362D01*
Y50819D01*
X19800D01*
Y50381D01*
X20019D01*
Y50162D01*
X20238D01*
Y49942D01*
X20677D01*
Y50162D01*
X21115D01*
Y50381D01*
X20896D01*
Y50600D01*
X20677D01*
Y50819D01*
X20458D01*
Y51038D01*
X20238D01*
Y51258D01*
X20019D01*
Y51477D01*
X20238D01*
Y51258D01*
X20677D01*
Y51038D01*
X20896D01*
Y50819D01*
X21115D01*
Y50600D01*
X21335D01*
Y50381D01*
X21773D01*
Y50819D01*
X21554D01*
Y51038D01*
X21335D01*
Y51258D01*
X20896D01*
Y51477D01*
X20458D01*
Y51696D01*
X20019D01*
Y51915D01*
X19362D01*
Y52135D01*
X18923D01*
Y52354D01*
X18704D01*
Y52573D01*
X18265D01*
Y52792D01*
X18046D01*
Y53012D01*
X17608D01*
Y53231D01*
X17388D01*
Y53450D01*
X17169D01*
Y54108D01*
X17388D01*
Y54327D01*
X17608D01*
Y54546D01*
X17827D01*
Y54765D01*
X18265D01*
Y54985D01*
X18485D01*
Y55204D01*
X18704D01*
Y55423D01*
X18923D01*
Y55642D01*
X19142D01*
Y55862D01*
X19581D01*
Y56081D01*
X19800D01*
Y56300D01*
X20019D01*
Y56519D01*
X20238D01*
Y56739D01*
X20458D01*
Y56958D01*
X20677D01*
Y57177D01*
X20896D01*
Y57615D01*
X21115D01*
Y57835D01*
X21335D01*
Y58054D01*
X21554D01*
Y58273D01*
X21773D01*
Y58492D01*
X21992D01*
Y58931D01*
X22212D01*
Y59150D01*
X22431D01*
Y59588D01*
X22650D01*
Y59808D01*
X22869D01*
Y60465D01*
X23089D01*
Y60904D01*
X23308D01*
Y61561D01*
X23527D01*
Y62658D01*
X23746D01*
Y65289D01*
X23527D01*
Y66385D01*
X23308D01*
Y67262D01*
X23089D01*
Y67919D01*
X22869D01*
Y68358D01*
X22650D01*
Y68796D01*
X22431D01*
Y69015D01*
X22650D01*
Y68796D01*
X22869D01*
Y68577D01*
X23089D01*
Y68138D01*
X23308D01*
Y67481D01*
X23527D01*
Y67262D01*
Y66823D01*
X23746D01*
Y65946D01*
X23965D01*
Y64850D01*
X24404D01*
Y64412D01*
X24185D01*
Y63315D01*
X23965D01*
Y62000D01*
X23746D01*
Y61123D01*
X26596D01*
Y61342D01*
X26815D01*
Y60904D01*
X27692D01*
Y62000D01*
X27912D01*
Y63315D01*
X28131D01*
Y64192D01*
X28350D01*
Y64850D01*
X28569D01*
Y65289D01*
X28788D01*
Y65946D01*
X29008D01*
Y66165D01*
X29227D01*
Y65727D01*
X29008D01*
Y65069D01*
X28788D01*
Y64412D01*
X28569D01*
Y63754D01*
X28350D01*
Y62658D01*
X28131D01*
Y61123D01*
X28350D01*
Y61561D01*
X28569D01*
Y58712D01*
X28788D01*
Y58931D01*
X29008D01*
Y59150D01*
X29227D01*
Y58054D01*
X29446D01*
Y57396D01*
X29665D01*
Y56739D01*
X29885D01*
Y56300D01*
X30104D01*
Y55862D01*
X30323D01*
Y55423D01*
X30542D01*
Y55204D01*
X30762D01*
Y54765D01*
X30981D01*
Y54327D01*
X31200D01*
Y53889D01*
X31419D01*
Y53450D01*
X31639D01*
Y53012D01*
X31858D01*
Y52792D01*
X32077D01*
Y52354D01*
X32296D01*
Y51915D01*
X32515D01*
Y51477D01*
X32735D01*
Y51038D01*
X32954D01*
Y50600D01*
X33173D01*
Y50381D01*
X33392D01*
Y50162D01*
X33612D01*
Y49942D01*
X34269D01*
Y49723D01*
X35146D01*
Y49504D01*
X35804D01*
Y49942D01*
X35585D01*
Y50162D01*
X35146D01*
Y50381D01*
X34927D01*
Y50600D01*
X35365D01*
Y50381D01*
X35804D01*
Y50162D01*
X36023D01*
Y49942D01*
X36242D01*
Y49723D01*
X36462D01*
Y49504D01*
X37119D01*
Y49942D01*
X36900D01*
Y50162D01*
X36681D01*
Y50381D01*
X36462D01*
Y50600D01*
X36023D01*
Y50819D01*
X36462D01*
Y50600D01*
X36900D01*
Y50381D01*
X37119D01*
Y50162D01*
X37339D01*
Y49723D01*
X37777D01*
Y50162D01*
X37558D01*
Y50600D01*
X37339D01*
Y50819D01*
X36900D01*
Y51038D01*
X36242D01*
Y51258D01*
X35585D01*
Y51477D01*
X35146D01*
Y51696D01*
X34927D01*
Y51915D01*
X34708D01*
Y52354D01*
X34488D01*
Y52792D01*
X34269D01*
Y53669D01*
X34488D01*
Y53012D01*
X34708D01*
Y52573D01*
X34927D01*
Y52135D01*
X35146D01*
Y51915D01*
X35365D01*
Y51696D01*
X36023D01*
Y51477D01*
X36681D01*
Y51258D01*
X37339D01*
Y51038D01*
X37558D01*
Y50819D01*
X37777D01*
Y50600D01*
X37996D01*
Y50162D01*
X38215D01*
Y49723D01*
X37996D01*
Y49504D01*
X37777D01*
Y49285D01*
X34708D01*
Y49504D01*
X33831D01*
Y49723D01*
X33612D01*
Y49942D01*
X33173D01*
Y50162D01*
X32954D01*
Y50381D01*
Y50600D01*
X32735D01*
Y50819D01*
X32515D01*
Y51258D01*
X32296D01*
Y51696D01*
X32077D01*
Y52135D01*
X31858D01*
Y52354D01*
X31639D01*
Y52792D01*
X31419D01*
Y53231D01*
X31200D01*
Y53669D01*
X30981D01*
Y53889D01*
X30762D01*
Y54327D01*
X30542D01*
Y54765D01*
X30323D01*
Y55204D01*
X30104D01*
Y55642D01*
X29885D01*
Y56081D01*
X29665D01*
Y56519D01*
X29446D01*
Y57177D01*
X29227D01*
Y57835D01*
X29008D01*
Y58054D01*
X28569D01*
Y58492D01*
X28350D01*
Y59808D01*
X28131D01*
Y60465D01*
X27692D01*
Y60685D01*
X26596D01*
Y60246D01*
X26377D01*
Y59369D01*
X26158D01*
Y58712D01*
X25938D01*
Y58273D01*
X25719D01*
Y57835D01*
X25500D01*
Y57396D01*
X25281D01*
Y57177D01*
X25062D01*
Y57615D01*
X25281D01*
Y58054D01*
X25500D01*
Y58492D01*
X25719D01*
Y58931D01*
X25938D01*
Y59588D01*
X26158D01*
Y60685D01*
X23527D01*
Y60465D01*
X23308D01*
Y60027D01*
X23089D01*
Y59588D01*
X22869D01*
Y59150D01*
X22650D01*
Y58931D01*
X22431D01*
Y58492D01*
X22212D01*
Y58273D01*
X21992D01*
Y57835D01*
X21773D01*
Y57615D01*
X21554D01*
Y57396D01*
X21335D01*
Y57177D01*
X21115D01*
Y56958D01*
X20896D01*
Y56739D01*
X20677D01*
Y56519D01*
X20458D01*
Y55862D01*
X20238D01*
Y54546D01*
X20458D01*
Y53889D01*
X20896D01*
Y53669D01*
X21335D01*
Y53450D01*
X21554D01*
Y53231D01*
X21992D01*
Y53012D01*
X22431D01*
Y52792D01*
X22869D01*
Y52573D01*
X23527D01*
Y52354D01*
X23965D01*
Y52135D01*
X25062D01*
Y51915D01*
X26377D01*
Y52354D01*
X25938D01*
Y52573D01*
X25500D01*
Y52792D01*
X26158D01*
Y52573D01*
X26596D01*
Y52354D01*
X26815D01*
Y52135D01*
X27035D01*
Y51915D01*
X27254D01*
Y52135D01*
X27473D01*
Y52354D01*
X27035D01*
Y52573D01*
X26815D01*
Y52792D01*
X26596D01*
Y53012D01*
X27035D01*
Y52792D01*
X27254D01*
Y52573D01*
X27473D01*
Y52354D01*
X27692D01*
Y52135D01*
X27912D01*
Y52573D01*
X27692D01*
Y52792D01*
X27473D01*
Y53012D01*
X27035D01*
Y53231D01*
X26377D01*
Y53450D01*
X25500D01*
Y53669D01*
X24842D01*
Y53889D01*
X24185D01*
Y54108D01*
X23746D01*
Y54327D01*
X23527D01*
Y54765D01*
X23308D01*
Y55423D01*
X23527D01*
Y55642D01*
X23746D01*
Y55862D01*
X23965D01*
Y56081D01*
X24185D01*
Y56300D01*
X24404D01*
Y56519D01*
X24623D01*
Y56081D01*
X24404D01*
Y55862D01*
X24185D01*
Y55642D01*
X23965D01*
Y55423D01*
X23746D01*
Y55204D01*
X23527D01*
Y54985D01*
X23746D01*
Y54546D01*
X23965D01*
Y54327D01*
X24404D01*
Y54108D01*
X25062D01*
Y53889D01*
X25719D01*
Y53669D01*
X26377D01*
Y53450D01*
X27254D01*
Y53231D01*
X27692D01*
Y53012D01*
X27912D01*
Y52792D01*
X28131D01*
Y52354D01*
X28350D01*
Y52135D01*
X28131D01*
Y51915D01*
X27692D01*
Y51696D01*
X24842D01*
Y51915D01*
X23746D01*
Y52135D01*
X23308D01*
Y52354D01*
X22869D01*
Y52573D01*
X22212D01*
Y52792D01*
X21773D01*
Y53012D01*
X21554D01*
Y53231D01*
X21115D01*
Y53450D01*
X20677D01*
Y53669D01*
X20458D01*
Y53889D01*
X20238D01*
Y54327D01*
X20019D01*
Y55862D01*
X19800D01*
Y55642D01*
X19362D01*
Y55423D01*
X19142D01*
Y55204D01*
X18923D01*
Y54985D01*
X18704D01*
Y54765D01*
X18485D01*
Y54546D01*
X18046D01*
Y54327D01*
X17827D01*
Y54108D01*
X17608D01*
Y53450D01*
X17827D01*
Y53231D01*
X18046D01*
Y53012D01*
X18485D01*
Y52792D01*
X18704D01*
Y52573D01*
X19142D01*
Y52354D01*
X19581D01*
Y52135D01*
X20238D01*
Y51915D01*
X20677D01*
Y51696D01*
X21115D01*
Y51477D01*
X21554D01*
Y51258D01*
X21773D01*
Y51038D01*
X21992D01*
Y50162D01*
X21773D01*
Y49942D01*
X20896D01*
Y49723D01*
X19800D01*
Y49942D01*
X18485D01*
Y50162D01*
X17608D01*
Y50381D01*
X16950D01*
Y50600D01*
X16731D01*
Y50819D01*
X16292D01*
Y51038D01*
X16073D01*
Y51258D01*
X15854D01*
Y51477D01*
X15635D01*
Y51696D01*
X15415D01*
Y52135D01*
X15196D01*
Y52354D01*
X14977D01*
Y52573D01*
X14758D01*
Y53012D01*
X14539D01*
Y53231D01*
X14319D01*
Y53669D01*
X14100D01*
Y53889D01*
Y54985D01*
X14319D01*
Y55862D01*
X14539D01*
Y57177D01*
X14758D01*
Y58273D01*
X14539D01*
Y59588D01*
X14319D01*
Y60465D01*
X14100D01*
Y61123D01*
X13881D01*
Y61781D01*
X13662D01*
Y62439D01*
X13223D01*
Y61781D01*
X13004D01*
Y61342D01*
X12785D01*
Y60904D01*
X12565D01*
Y60465D01*
X12346D01*
Y60027D01*
X12127D01*
Y59808D01*
X11908D01*
Y59369D01*
X11688D01*
Y59150D01*
X11469D01*
Y58712D01*
X11250D01*
Y58492D01*
X11031D01*
Y58273D01*
X10812D01*
Y57835D01*
X10592D01*
Y57615D01*
X10373D01*
Y57396D01*
X10154D01*
Y57177D01*
X9935D01*
Y56958D01*
X9715D01*
Y56739D01*
X9496D01*
Y56519D01*
X9277D01*
Y56300D01*
X9058D01*
Y56081D01*
X8838D01*
Y55862D01*
X8400D01*
Y55642D01*
X8181D01*
Y55423D01*
X7962D01*
Y55204D01*
X7742D01*
Y54985D01*
X7304D01*
Y54765D01*
X7085D01*
Y54546D01*
X6646D01*
Y54327D01*
X6427D01*
Y54108D01*
X5989D01*
Y53889D01*
X5550D01*
Y53669D01*
X5112D01*
Y53450D01*
X4673D01*
Y53231D01*
X4015D01*
Y53012D01*
X2919D01*
Y52792D01*
X2481D01*
Y53012D01*
X1823D01*
Y53231D01*
X1604D01*
Y53450D01*
X1385D01*
Y56739D01*
X1604D01*
Y57615D01*
X1823D01*
Y58273D01*
X2042D01*
Y58712D01*
X2262D01*
Y59369D01*
X2481D01*
Y59588D01*
X2700D01*
Y59150D01*
X2481D01*
Y58492D01*
X2262D01*
Y58054D01*
X2042D01*
Y56739D01*
X2262D01*
Y56300D01*
X2481D01*
Y55862D01*
X2700D01*
Y55642D01*
X2919D01*
Y55423D01*
X3138D01*
Y55204D01*
X3358D01*
Y54985D01*
X3796D01*
Y54765D01*
X4015D01*
Y54546D01*
X4673D01*
Y54327D01*
X5331D01*
Y54108D01*
X5769D01*
Y54327D01*
X6208D01*
Y54546D01*
X6427D01*
Y54765D01*
X6865D01*
Y54985D01*
X7085D01*
Y55204D01*
X7523D01*
Y55423D01*
X7742D01*
Y55642D01*
X7304D01*
Y55862D01*
X6646D01*
Y56081D01*
X6427D01*
Y56300D01*
X5989D01*
Y56519D01*
X5769D01*
Y56739D01*
X5550D01*
Y56958D01*
X5331D01*
Y57177D01*
X5112D01*
Y57396D01*
X4892D01*
Y57615D01*
X4673D01*
Y57835D01*
X4454D01*
Y58054D01*
X4235D01*
Y58273D01*
X4015D01*
Y58712D01*
X3796D01*
Y58931D01*
X3577D01*
Y59369D01*
X3358D01*
Y60027D01*
X3138D01*
Y59808D01*
X2919D01*
Y59588D01*
X2700D01*
Y60027D01*
X2919D01*
Y60465D01*
X3138D01*
Y60685D01*
X3358D01*
Y61123D01*
X3577D01*
Y61342D01*
X3796D01*
Y61561D01*
X4015D01*
Y62000D01*
X4235D01*
Y62219D01*
X4454D01*
Y62439D01*
X4673D01*
Y62658D01*
X4892D01*
Y62219D01*
X4673D01*
Y62000D01*
X4454D01*
Y61561D01*
X4235D01*
Y61342D01*
X4015D01*
Y61123D01*
X3796D01*
Y60904D01*
X3577D01*
Y59808D01*
X3796D01*
Y59369D01*
X4015D01*
Y58931D01*
X4235D01*
Y58712D01*
X4454D01*
Y58273D01*
X4673D01*
Y58054D01*
X4892D01*
Y57835D01*
X5112D01*
Y57615D01*
X5331D01*
Y57396D01*
X5550D01*
Y57177D01*
X5989D01*
Y56958D01*
X6208D01*
Y56739D01*
X6427D01*
Y56519D01*
X6865D01*
Y56300D01*
X7304D01*
Y56081D01*
X8619D01*
Y56300D01*
X8838D01*
Y56519D01*
X9058D01*
Y56739D01*
X9277D01*
Y56958D01*
X9496D01*
Y57177D01*
X9715D01*
Y57396D01*
X9935D01*
Y57615D01*
X10154D01*
Y58054D01*
X9277D01*
Y58273D01*
X8619D01*
Y58492D01*
X8400D01*
Y58712D01*
X7962D01*
Y58931D01*
X7742D01*
Y59150D01*
X7304D01*
Y59369D01*
X7085D01*
Y59588D01*
X6865D01*
Y59808D01*
X6646D01*
Y60027D01*
X6427D01*
Y60246D01*
X6208D01*
Y60685D01*
X5989D01*
Y60904D01*
X5769D01*
Y61342D01*
X5550D01*
Y61781D01*
X5331D01*
Y62658D01*
X4892D01*
Y62877D01*
X5112D01*
Y63096D01*
X5331D01*
Y63535D01*
X5550D01*
Y63754D01*
X5769D01*
Y63973D01*
X5989D01*
Y64192D01*
X6208D01*
Y64412D01*
X6427D01*
Y64850D01*
X6646D01*
Y65069D01*
X6865D01*
Y65289D01*
X7085D01*
Y65508D01*
X7304D01*
Y65727D01*
X7523D01*
Y66165D01*
X7742D01*
Y66385D01*
X7962D01*
Y66604D01*
X8181D01*
Y67042D01*
X8400D01*
Y67262D01*
X8619D01*
Y67481D01*
X8838D01*
Y67919D01*
X9058D01*
Y68138D01*
X9277D01*
Y68577D01*
X9496D01*
Y68796D01*
X9715D01*
Y69235D01*
X9935D01*
Y69454D01*
X10154D01*
Y69892D01*
X10373D01*
Y70331D01*
X10592D01*
Y70550D01*
X10812D01*
Y70988D01*
X11031D01*
Y71427D01*
X11250D01*
Y71865D01*
X11469D01*
Y72304D01*
X11688D01*
Y72523D01*
X11469D01*
Y72742D01*
X11688D01*
Y73181D01*
X11908D01*
Y73619D01*
X12127D01*
Y74058D01*
X12346D01*
Y74277D01*
X12565D01*
Y73839D01*
D02*
G37*
%LPC*%
G36*
X36462Y71427D02*
X36242D01*
Y71208D01*
X36462D01*
Y71427D01*
D01*
D01*
D02*
G37*
G36*
X44354Y51915D02*
X44135D01*
Y51696D01*
X44354D01*
Y51915D01*
D02*
G37*
G36*
X44792Y51696D02*
X44573D01*
Y51477D01*
X44792D01*
Y51258D01*
X45012D01*
Y51477D01*
X44792D01*
Y51696D01*
D02*
G37*
G36*
X39531Y78004D02*
X39092D01*
Y76908D01*
X39312D01*
Y76250D01*
X39531D01*
Y75812D01*
X40188D01*
Y76031D01*
X40408D01*
Y76250D01*
X40846D01*
Y76688D01*
X40627D01*
Y76908D01*
X40408D01*
Y77127D01*
X40188D01*
Y77565D01*
X39750D01*
Y77785D01*
X39531D01*
Y78004D01*
D02*
G37*
G36*
X11031Y70331D02*
X10812D01*
Y70111D01*
X10592D01*
Y69673D01*
X10373D01*
Y69235D01*
X10154D01*
Y69015D01*
X9935D01*
Y68577D01*
X9715D01*
Y68138D01*
X9496D01*
Y67700D01*
X9715D01*
Y66823D01*
X9935D01*
Y66165D01*
X10154D01*
Y65946D01*
X10373D01*
Y65508D01*
X10592D01*
Y65289D01*
X10812D01*
Y64850D01*
X11031D01*
Y64631D01*
X11250D01*
Y64412D01*
X11469D01*
Y64192D01*
X11908D01*
Y63973D01*
X12127D01*
Y63754D01*
X12565D01*
Y63535D01*
X13004D01*
Y64192D01*
X12346D01*
Y64412D01*
X12127D01*
Y65069D01*
X11908D01*
Y65727D01*
X11688D01*
Y66604D01*
X11469D01*
Y67700D01*
X11031D01*
Y70331D01*
D02*
G37*
G36*
X9277Y67481D02*
X9058D01*
Y67262D01*
X8838D01*
Y67042D01*
X8619D01*
Y66823D01*
X8400D01*
Y66385D01*
X8181D01*
Y66165D01*
X7962D01*
Y65946D01*
X7742D01*
Y64192D01*
X7962D01*
Y63754D01*
X8181D01*
Y63315D01*
X8400D01*
Y63096D01*
X8619D01*
Y62658D01*
X8838D01*
Y62439D01*
X9058D01*
Y62219D01*
X9277D01*
Y62000D01*
X9496D01*
Y61781D01*
X9715D01*
Y61561D01*
X10154D01*
Y61342D01*
X10373D01*
Y61123D01*
X10812D01*
Y60904D01*
X11469D01*
Y60685D01*
X12346D01*
Y61123D01*
X12565D01*
Y61561D01*
X12785D01*
Y62219D01*
X13004D01*
Y62658D01*
X13223D01*
Y62877D01*
X13004D01*
Y63096D01*
X12565D01*
Y63315D01*
X12127D01*
Y63535D01*
X11908D01*
Y63754D01*
X11469D01*
Y63973D01*
X11250D01*
Y64192D01*
X11031D01*
Y64412D01*
X10812D01*
Y64631D01*
X10592D01*
Y64850D01*
X10373D01*
Y65289D01*
X10154D01*
Y65508D01*
X9935D01*
Y65946D01*
X9715D01*
Y66385D01*
X9496D01*
Y66823D01*
X9277D01*
Y67481D01*
D02*
G37*
G36*
X7304Y65069D02*
X7085D01*
Y64850D01*
X6865D01*
Y64631D01*
X6646D01*
Y64192D01*
X6427D01*
Y63973D01*
X6208D01*
Y63754D01*
X5989D01*
Y63535D01*
X5769D01*
Y63096D01*
X5550D01*
Y62439D01*
X5769D01*
Y61781D01*
X5989D01*
Y61342D01*
X6208D01*
Y60904D01*
X6427D01*
Y60685D01*
X6646D01*
Y60465D01*
X6865D01*
Y60027D01*
X7085D01*
Y59808D01*
X7304D01*
Y59588D01*
X7523D01*
Y59369D01*
X7962D01*
Y59150D01*
X8181D01*
Y58931D01*
X8619D01*
Y58712D01*
X9058D01*
Y58492D01*
X9715D01*
Y58273D01*
X10592D01*
Y58492D01*
X10812D01*
Y58712D01*
X11031D01*
Y58931D01*
X11250D01*
Y59369D01*
X11469D01*
Y59588D01*
X11688D01*
Y60027D01*
X11908D01*
Y60246D01*
X11688D01*
Y60465D01*
X11031D01*
Y60685D01*
X10592D01*
Y60904D01*
X10154D01*
Y61123D01*
X9715D01*
Y61342D01*
X9496D01*
Y61561D01*
X9277D01*
Y61781D01*
X9058D01*
Y62000D01*
X8838D01*
Y62219D01*
X8619D01*
Y62439D01*
X8400D01*
Y62658D01*
X8181D01*
Y63096D01*
X7962D01*
Y63315D01*
X7742D01*
Y63754D01*
X7523D01*
Y64412D01*
X7304D01*
Y65069D01*
D02*
G37*
G36*
X2042Y56300D02*
X1604D01*
Y53669D01*
X1823D01*
Y53450D01*
X2042D01*
Y53231D01*
X3796D01*
Y53450D01*
X4235D01*
Y53669D01*
X4892D01*
Y54108D01*
X4235D01*
Y54327D01*
X3796D01*
Y54546D01*
X3358D01*
Y54765D01*
X3138D01*
Y54985D01*
X2919D01*
Y55204D01*
X2700D01*
Y55423D01*
X2481D01*
Y55642D01*
X2262D01*
Y55862D01*
X2042D01*
Y56300D01*
D02*
G37*
%LPD*%
D10*
X232010Y141970D02*
G03*
X232010Y139970I0J-1000D01*
G01*
D02*
G03*
X232010Y141970I0J1000D01*
G01*
X272180Y25670D02*
G03*
X272180Y27670I0J1000D01*
G01*
D02*
G03*
X272180Y25670I0J-1000D01*
G01*
X259880Y50290D02*
X270380D01*
X273880Y51540D02*
Y80540D01*
X282380D01*
Y51540D02*
Y80540D01*
X273880Y51540D02*
X282380D01*
X249720Y117600D02*
X260220D01*
X263720Y118850D02*
Y147850D01*
X272220D01*
Y118850D02*
Y147850D01*
X263720Y118850D02*
X272220D01*
X205010Y147220D02*
X209010D01*
X205010Y134720D02*
X209010D01*
X295180Y20420D02*
X299180D01*
X295180Y32920D02*
X299180D01*
D11*
X187880Y181820D02*
G03*
X187880Y181820I-3810J0D01*
G01*
X341880D02*
G03*
X341880Y181820I-3810J0D01*
G01*
X416240Y181130D02*
G03*
X416240Y181130I-3810J0D01*
G01*
X110880Y181820D02*
G03*
X110880Y181820I-3810J0D01*
G01*
X264880D02*
G03*
X264880Y181820I-3810J0D01*
G01*
X71120Y132080D02*
G03*
X71120Y132080I-3810J0D01*
G01*
X499110Y208270D02*
G03*
X499110Y208270I-3810J0D01*
G01*
D13*
X428117Y66548D02*
G03*
X428117Y60452I0J-3048D01*
G01*
X416560Y138557D02*
Y158623D01*
X396417Y138557D02*
X403683D01*
X383540D02*
Y158623D01*
X377063Y41021D02*
Y85979D01*
X428117Y41021D02*
Y85979D01*
D14*
X561410Y151820D02*
X567010D01*
X561410Y139320D02*
X567010D01*
X561410Y115350D02*
X567010D01*
X561410Y102850D02*
X567010D01*
X561080Y182300D02*
X566680D01*
X561080Y169800D02*
X566680D01*
X561410Y84750D02*
X567010D01*
X561410Y72250D02*
X567010D01*
D15*
X593209Y152234D02*
X585211D01*
Y148236D01*
X586544Y146903D01*
X589210D01*
X590543Y148236D01*
Y152234D01*
Y149569D02*
X593209Y146903D01*
Y140238D02*
X585211D01*
X589210Y144237D01*
Y138905D01*
X311213Y100456D02*
X312546Y101789D01*
X315212D01*
X316544Y100456D01*
Y95124D01*
X315212Y93791D01*
X312546D01*
X311213Y95124D01*
X304548Y93791D02*
Y101789D01*
X308547Y97790D01*
X303216D01*
X297495Y90359D02*
Y82361D01*
X293496D01*
X292163Y83694D01*
Y85027D01*
X293496Y86360D01*
X297495D01*
X293496D01*
X292163Y87693D01*
Y89026D01*
X293496Y90359D01*
X297495D01*
X284165Y82361D02*
X289497D01*
X284165Y87693D01*
Y89026D01*
X285498Y90359D01*
X288164D01*
X289497Y89026D01*
X286002Y158939D02*
Y150941D01*
X282003D01*
X280670Y152274D01*
Y153607D01*
X282003Y154940D01*
X286002D01*
X282003D01*
X280670Y156273D01*
Y157606D01*
X282003Y158939D01*
X286002D01*
X278004Y150941D02*
X275338D01*
X276671D01*
Y158939D01*
X278004Y157606D01*
X223772Y150941D02*
Y158939D01*
X219773D01*
X218440Y157606D01*
Y154940D01*
X219773Y153607D01*
X223772D01*
X221106D02*
X218440Y150941D01*
X215774D02*
X213108D01*
X214441D01*
Y158939D01*
X215774Y157606D01*
X316544Y36641D02*
Y44639D01*
X312546D01*
X311213Y43306D01*
Y40640D01*
X312546Y39307D01*
X316544D01*
X313879D02*
X311213Y36641D01*
X303216D02*
X308547D01*
X303216Y41973D01*
Y43306D01*
X304548Y44639D01*
X307214D01*
X308547Y43306D01*
X306133Y165226D02*
X307466Y166559D01*
X310132D01*
X311465Y165226D01*
Y159894D01*
X310132Y158561D01*
X307466D01*
X306133Y159894D01*
X303467Y165226D02*
X302134Y166559D01*
X299468D01*
X298136Y165226D01*
Y163893D01*
X299468Y162560D01*
X300801D01*
X299468D01*
X298136Y161227D01*
Y159894D01*
X299468Y158561D01*
X302134D01*
X303467Y159894D01*
X398969Y177926D02*
X400302Y179259D01*
X402967D01*
X404300Y177926D01*
Y176593D01*
X402967Y175260D01*
X400302D01*
X398969Y173927D01*
Y172594D01*
X400302Y171261D01*
X402967D01*
X404300Y172594D01*
X396303Y179259D02*
X390971D01*
X393637D01*
Y171261D01*
X388306D02*
X385640D01*
X386973D01*
Y179259D01*
X388306Y177926D01*
X421829Y23049D02*
X427160D01*
Y19050D01*
X424495D01*
X427160D01*
Y15051D01*
X413831Y23049D02*
X419163D01*
Y19050D01*
X416497D01*
X419163D01*
Y15051D01*
X411166D02*
X408500D01*
X409833D01*
Y23049D01*
X411166Y21716D01*
X593209Y85164D02*
X585211D01*
Y81166D01*
X586544Y79833D01*
X589210D01*
X590543Y81166D01*
Y85164D01*
Y82499D02*
X593209Y79833D01*
X591876Y77167D02*
X593209Y75834D01*
Y73168D01*
X591876Y71835D01*
X586544D01*
X585211Y73168D01*
Y75834D01*
X586544Y77167D01*
X587877D01*
X589210Y75834D01*
Y71835D01*
X593209Y115765D02*
X585211D01*
Y111766D01*
X586544Y110433D01*
X589210D01*
X590543Y111766D01*
Y115765D01*
Y113099D02*
X593209Y110433D01*
X586544Y107767D02*
X585211Y106434D01*
Y103768D01*
X586544Y102436D01*
X587877D01*
X589210Y103768D01*
X590543Y102436D01*
X591876D01*
X593209Y103768D01*
Y106434D01*
X591876Y107767D01*
X590543D01*
X589210Y106434D01*
X587877Y107767D01*
X586544D01*
X589210Y106434D02*
Y103768D01*
X593209Y182715D02*
X585211D01*
Y178716D01*
X586544Y177383D01*
X589210D01*
X590543Y178716D01*
Y182715D01*
Y180049D02*
X593209Y177383D01*
X586544Y174717D02*
X585211Y173384D01*
Y170718D01*
X586544Y169386D01*
X587877D01*
X589210Y170718D01*
Y172051D01*
Y170718D01*
X590543Y169386D01*
X591876D01*
X593209Y170718D01*
Y173384D01*
X591876Y174717D01*
X444563Y127126D02*
X445896Y128459D01*
X448562D01*
X449894Y127126D01*
Y121794D01*
X448562Y120461D01*
X445896D01*
X444563Y121794D01*
X436566Y120461D02*
X441897D01*
X436566Y125793D01*
Y127126D01*
X437898Y128459D01*
X440564D01*
X441897Y127126D01*
X370840Y152526D02*
X372173Y153859D01*
X374839D01*
X376172Y152526D01*
Y147194D01*
X374839Y145861D01*
X372173D01*
X370840Y147194D01*
X368174Y145861D02*
X365508D01*
X366841D01*
Y153859D01*
X368174Y152526D01*
D45*
X434956Y29591D02*
X426492Y38055D01*
Y29591D02*
X434956Y38055D01*
X430724Y29591D02*
Y38055D01*
X426492Y33823D02*
X434956D01*
M02*
