G04*
G04 #@! TF.GenerationSoftware,Altium Limited,Altium Designer,26.4.1 (12)*
G04*
G04 Layer_Physical_Order=1*
G04 Layer_Color=255*
%FSLAX44Y44*%
%MOMM*%
G71*
G04*
G04 #@! TF.SameCoordinates,5B7A3CC7-037D-4367-BA15-C8019386444A*
G04*
G04*
G04 #@! TF.FilePolarity,Positive*
G04*
G01*
G75*
%ADD16R,1.1000X1.7500*%
%ADD25C,0.2540*%
%ADD26C,1.2700*%
%ADD27C,1.4080*%
%ADD28C,1.5090*%
%ADD29R,1.4080X1.4080*%
%ADD30R,1.4080X1.4080*%
%ADD31C,0.6000*%
%ADD32C,3.9000*%
G36*
X650240Y0D02*
X0D01*
Y250190D01*
X650240D01*
Y0D01*
D02*
G37*
%LPC*%
G36*
X627171Y247040D02*
X626270D01*
Y226270D01*
X647040D01*
Y227171D01*
X646193Y231429D01*
X644532Y235440D01*
X642120Y239050D01*
X639050Y242120D01*
X635440Y244532D01*
X631429Y246193D01*
X627171Y247040D01*
D02*
G37*
G36*
X623730D02*
X622829D01*
X618571Y246193D01*
X614560Y244532D01*
X610950Y242120D01*
X607880Y239050D01*
X605468Y235440D01*
X603807Y231429D01*
X602960Y227171D01*
Y226270D01*
X623730D01*
Y247040D01*
D02*
G37*
G36*
X27171D02*
X26270D01*
Y226270D01*
X47040D01*
Y227171D01*
X46193Y231429D01*
X44532Y235440D01*
X42120Y239050D01*
X39050Y242120D01*
X35440Y244532D01*
X31429Y246193D01*
X27171Y247040D01*
D02*
G37*
G36*
X23730D02*
X22829D01*
X18571Y246193D01*
X14560Y244532D01*
X10950Y242120D01*
X7880Y239050D01*
X5468Y235440D01*
X3807Y231429D01*
X2960Y227171D01*
Y226270D01*
X23730D01*
Y247040D01*
D02*
G37*
G36*
X339340Y229733D02*
Y222140D01*
X346933D01*
X346354Y224301D01*
X345184Y226329D01*
X343529Y227984D01*
X341501Y229154D01*
X339340Y229733D01*
D02*
G37*
G36*
X262340D02*
Y222140D01*
X269933D01*
X269354Y224301D01*
X268184Y226329D01*
X266528Y227984D01*
X264501Y229154D01*
X262340Y229733D01*
D02*
G37*
G36*
X185340D02*
Y222140D01*
X192933D01*
X192354Y224301D01*
X191184Y226329D01*
X189529Y227984D01*
X187501Y229154D01*
X185340Y229733D01*
D02*
G37*
G36*
X108340D02*
Y222140D01*
X115933D01*
X115354Y224301D01*
X114184Y226329D01*
X112529Y227984D01*
X110501Y229154D01*
X108340Y229733D01*
D02*
G37*
G36*
X413700Y229043D02*
Y221450D01*
X421293D01*
X420714Y223611D01*
X419544Y225639D01*
X417889Y227294D01*
X415861Y228464D01*
X413700Y229043D01*
D02*
G37*
G36*
X647040Y223730D02*
X626270D01*
Y202960D01*
X627171D01*
X631429Y203807D01*
X635440Y205468D01*
X639050Y207880D01*
X642120Y210950D01*
X644532Y214560D01*
X646193Y218571D01*
X647040Y222829D01*
Y223730D01*
D02*
G37*
G36*
X623730D02*
X602960D01*
Y222829D01*
X603807Y218571D01*
X605468Y214560D01*
X607880Y210950D01*
X610950Y207880D01*
X614560Y205468D01*
X618571Y203807D01*
X622829Y202960D01*
X623730D01*
Y223730D01*
D02*
G37*
G36*
X47040D02*
X26270D01*
Y202960D01*
X27171D01*
X31429Y203807D01*
X35440Y205468D01*
X39050Y207880D01*
X42120Y210950D01*
X44532Y214560D01*
X46193Y218571D01*
X47040Y222829D01*
Y223730D01*
D02*
G37*
G36*
X23730D02*
X2960D01*
Y222829D01*
X3807Y218571D01*
X5468Y214560D01*
X7880Y210950D01*
X10950Y207880D01*
X14560Y205468D01*
X18571Y203807D01*
X22829Y202960D01*
X23730D01*
Y223730D01*
D02*
G37*
G36*
X242240Y229760D02*
X239900D01*
X237638Y229154D01*
X235611Y227984D01*
X233956Y226329D01*
X232786Y224301D01*
X232180Y222040D01*
Y219700D01*
X232786Y217439D01*
X233956Y215411D01*
X235611Y213756D01*
X237638Y212586D01*
X239135Y212185D01*
Y209555D01*
X237638Y209154D01*
X235611Y207984D01*
X233956Y206329D01*
X232786Y204301D01*
X232180Y202040D01*
Y199700D01*
X232786Y197439D01*
X233956Y195411D01*
X235611Y193756D01*
X237638Y192586D01*
X239900Y191980D01*
X242240D01*
X244501Y192586D01*
X246528Y193756D01*
X248184Y195411D01*
X249354Y197439D01*
X249755Y198935D01*
X252385D01*
X252786Y197439D01*
X253956Y195411D01*
X255611Y193756D01*
X257638Y192586D01*
X259900Y191980D01*
X262240D01*
X264501Y192586D01*
X266528Y193756D01*
X268184Y195411D01*
X269354Y197439D01*
X269960Y199700D01*
Y202040D01*
X269354Y204301D01*
X268184Y206329D01*
X266528Y207984D01*
X264501Y209154D01*
X263005Y209555D01*
Y212185D01*
X264501Y212586D01*
X266528Y213756D01*
X268184Y215411D01*
X269354Y217439D01*
X269933Y219600D01*
X261070D01*
Y220870D01*
X259800D01*
Y229733D01*
X257638Y229154D01*
X255611Y227984D01*
X253956Y226329D01*
X252786Y224301D01*
X252385Y222805D01*
X249755D01*
X249354Y224301D01*
X248184Y226329D01*
X246528Y227984D01*
X244501Y229154D01*
X242240Y229760D01*
D02*
G37*
G36*
X165240D02*
X162900D01*
X160639Y229154D01*
X158611Y227984D01*
X156956Y226329D01*
X155786Y224301D01*
X155180Y222040D01*
Y219700D01*
X155786Y217439D01*
X156956Y215411D01*
X158611Y213756D01*
X160639Y212586D01*
X162135Y212185D01*
Y209555D01*
X160639Y209154D01*
X158611Y207984D01*
X156956Y206329D01*
X155786Y204301D01*
X155180Y202040D01*
Y199700D01*
X155786Y197439D01*
X156956Y195411D01*
X158611Y193756D01*
X160639Y192586D01*
X162900Y191980D01*
X165240D01*
X167501Y192586D01*
X169529Y193756D01*
X171184Y195411D01*
X172354Y197439D01*
X172755Y198935D01*
X175385D01*
X175786Y197439D01*
X176956Y195411D01*
X178611Y193756D01*
X180639Y192586D01*
X182900Y191980D01*
X185240D01*
X187501Y192586D01*
X189529Y193756D01*
X191184Y195411D01*
X192354Y197439D01*
X192960Y199700D01*
Y202040D01*
X192354Y204301D01*
X191184Y206329D01*
X189529Y207984D01*
X187501Y209154D01*
X186005Y209555D01*
Y212185D01*
X187501Y212586D01*
X189529Y213756D01*
X191184Y215411D01*
X192354Y217439D01*
X192933Y219600D01*
X184070D01*
Y220870D01*
X182800D01*
Y229733D01*
X180639Y229154D01*
X178611Y227984D01*
X176956Y226329D01*
X175786Y224301D01*
X175385Y222805D01*
X172755D01*
X172354Y224301D01*
X171184Y226329D01*
X169529Y227984D01*
X167501Y229154D01*
X165240Y229760D01*
D02*
G37*
G36*
X482432Y231600D02*
X480228D01*
X478192Y230757D01*
X476633Y229198D01*
X475790Y227162D01*
Y224958D01*
X476633Y222922D01*
X477445Y222110D01*
Y210500D01*
X477741Y209013D01*
X478583Y207753D01*
X494256Y192080D01*
X494215Y191253D01*
X493400Y189344D01*
X491869Y188934D01*
X489841Y187764D01*
X488186Y186109D01*
X487016Y184081D01*
X486615Y182585D01*
X483985D01*
X483584Y184081D01*
X482414Y186109D01*
X480759Y187764D01*
X478731Y188934D01*
X476570Y189513D01*
Y180650D01*
X475300D01*
Y179380D01*
X466437D01*
X467016Y177219D01*
X468186Y175191D01*
X469841Y173536D01*
X471869Y172366D01*
X473365Y171965D01*
Y169335D01*
X471869Y168934D01*
X469841Y167764D01*
X468186Y166109D01*
X467016Y164081D01*
X466437Y161920D01*
X475300D01*
Y159380D01*
X466437D01*
X467016Y157219D01*
X468186Y155191D01*
X469841Y153536D01*
X471869Y152366D01*
X473365Y151965D01*
Y149335D01*
X471869Y148934D01*
X469841Y147764D01*
X468186Y146109D01*
X467016Y144081D01*
X466410Y141820D01*
Y139480D01*
X467016Y137219D01*
X468186Y135191D01*
X469841Y133536D01*
X471869Y132366D01*
X473365Y131965D01*
Y129335D01*
X471869Y128934D01*
X469841Y127764D01*
X468186Y126109D01*
X467016Y124081D01*
X466410Y121820D01*
Y119480D01*
X467016Y117219D01*
X468186Y115191D01*
X469841Y113536D01*
X471869Y112366D01*
X473365Y111965D01*
Y109335D01*
X471869Y108934D01*
X469841Y107764D01*
X468186Y106109D01*
X467016Y104081D01*
X466410Y101820D01*
Y99480D01*
X467016Y97219D01*
X468186Y95191D01*
X469841Y93536D01*
X471869Y92366D01*
X473365Y91965D01*
Y89335D01*
X471869Y88934D01*
X469841Y87764D01*
X468186Y86109D01*
X467016Y84081D01*
X466972Y83918D01*
X466628D01*
X465141Y83623D01*
X463881Y82781D01*
X462393Y81293D01*
X461551Y80032D01*
X461255Y78546D01*
Y73652D01*
X457579Y69976D01*
X452381D01*
X448705Y73652D01*
Y172483D01*
X448409Y173970D01*
X447625Y175143D01*
Y176613D01*
X448437Y177425D01*
X449280Y179461D01*
Y181665D01*
X448437Y183701D01*
X446878Y185260D01*
X444842Y186103D01*
X442638D01*
X440602Y185260D01*
X439044Y183701D01*
X438200Y181665D01*
Y179461D01*
X439044Y177425D01*
X439856Y176613D01*
Y173563D01*
X440151Y172076D01*
X440935Y170903D01*
Y72043D01*
X441231Y70556D01*
X442073Y69296D01*
X448025Y63344D01*
X449285Y62502D01*
X450772Y62206D01*
X459188D01*
X460675Y62502D01*
X461935Y63344D01*
X466139Y67548D01*
X466315Y67724D01*
X466321Y67719D01*
X466321Y67719D01*
X468186Y66109D01*
X468022Y65823D01*
X467016Y64081D01*
X466410Y61820D01*
Y59480D01*
X467016Y57219D01*
X468186Y55191D01*
X469841Y53536D01*
X471415Y52628D01*
Y43839D01*
X464481Y36905D01*
X372449D01*
X363494Y45860D01*
Y154800D01*
X365714Y157020D01*
X366862D01*
X368898Y157863D01*
X370457Y159422D01*
X371300Y161458D01*
Y163662D01*
X370457Y165698D01*
X368898Y167257D01*
X366862Y168100D01*
X364658D01*
X362622Y167257D01*
X361063Y165698D01*
X360220Y163662D01*
Y162514D01*
X356862Y159156D01*
X356020Y157896D01*
X355724Y156409D01*
Y44251D01*
X356020Y42764D01*
X356862Y41504D01*
X368093Y30273D01*
X369353Y29431D01*
X370840Y29135D01*
X466090D01*
X467577Y29431D01*
X468837Y30273D01*
X478047Y39483D01*
X478889Y40743D01*
X479185Y42230D01*
Y52628D01*
X480759Y53536D01*
X482414Y55191D01*
X483584Y57219D01*
X483985Y58715D01*
X486615D01*
X487016Y57219D01*
X488186Y55191D01*
X489841Y53536D01*
X491869Y52366D01*
X492207Y52275D01*
X492967Y49442D01*
X460109Y16585D01*
X254339D01*
X208490Y62434D01*
X208490Y62434D01*
X189305Y81619D01*
Y87646D01*
X189659Y87895D01*
X191845Y88533D01*
X193198Y87180D01*
X195497Y85852D01*
X198062Y85165D01*
X200718D01*
X203283Y85852D01*
X205582Y87180D01*
X207460Y89058D01*
X208788Y91357D01*
X209475Y93922D01*
Y96578D01*
X208788Y99143D01*
X207460Y101442D01*
X205582Y103320D01*
X203283Y104648D01*
X200718Y105335D01*
X198062D01*
X195497Y104648D01*
X193198Y103320D01*
X191320Y101442D01*
X190452Y99939D01*
X189871Y99646D01*
X188206Y99392D01*
X187457Y99496D01*
X147850Y139104D01*
Y152770D01*
X128690D01*
Y149382D01*
X126150Y148701D01*
X125936Y149072D01*
X124152Y150856D01*
X121968Y152117D01*
X119531Y152770D01*
X117009D01*
X114572Y152117D01*
X112388Y150856D01*
X110604Y149072D01*
X109700Y147507D01*
X107114Y147300D01*
X97865Y156549D01*
Y186171D01*
X104144Y192450D01*
X105900Y191980D01*
X108240D01*
X110501Y192586D01*
X112529Y193756D01*
X114184Y195411D01*
X115354Y197439D01*
X115960Y199700D01*
Y202040D01*
X115354Y204301D01*
X114184Y206329D01*
X112529Y207984D01*
X110501Y209154D01*
X109005Y209555D01*
Y212185D01*
X110501Y212586D01*
X112529Y213756D01*
X114184Y215411D01*
X115354Y217439D01*
X115933Y219600D01*
X107070D01*
Y220870D01*
X105800D01*
Y229733D01*
X103639Y229154D01*
X101611Y227984D01*
X99956Y226329D01*
X98786Y224301D01*
X98385Y222805D01*
X95755D01*
X95354Y224301D01*
X94184Y226329D01*
X92528Y227984D01*
X90501Y229154D01*
X88240Y229760D01*
X85900D01*
X83638Y229154D01*
X81611Y227984D01*
X79956Y226329D01*
X78786Y224301D01*
X78180Y222040D01*
Y219700D01*
X78786Y217439D01*
X79956Y215411D01*
X81611Y213756D01*
X83638Y212586D01*
X85135Y212185D01*
Y209555D01*
X83638Y209154D01*
X81611Y207984D01*
X79956Y206329D01*
X78786Y204301D01*
X78180Y202040D01*
Y199700D01*
X78786Y197439D01*
X79956Y195411D01*
X81611Y193756D01*
X83638Y192586D01*
X85900Y191980D01*
X88240D01*
X89427Y192298D01*
X90251Y191490D01*
X90928Y190071D01*
X90391Y189267D01*
X90095Y187780D01*
Y154940D01*
X90391Y153453D01*
X91233Y152193D01*
X102983Y140443D01*
X104243Y139601D01*
X105730Y139305D01*
X109451D01*
X110604Y137308D01*
X112388Y135524D01*
X114000Y134593D01*
X114260Y133467D01*
Y132914D01*
X114000Y131787D01*
X112388Y130856D01*
X110604Y129072D01*
X109343Y126888D01*
X108692Y124460D01*
X118270D01*
Y121920D01*
X108692D01*
X109343Y119492D01*
X110604Y117308D01*
X112388Y115524D01*
X114000Y114593D01*
X114260Y113467D01*
Y112914D01*
X114000Y111787D01*
X112388Y110856D01*
X110604Y109072D01*
X109343Y106888D01*
X108690Y104451D01*
Y101929D01*
X109343Y99492D01*
X110604Y97308D01*
X112388Y95524D01*
X114572Y94263D01*
X117009Y93610D01*
X119531D01*
X121968Y94263D01*
X124152Y95524D01*
X125936Y97308D01*
X126867Y98920D01*
X127993Y99180D01*
X128546D01*
X129673Y98920D01*
X130604Y97308D01*
X132388Y95524D01*
X134572Y94263D01*
X137009Y93610D01*
X139531D01*
X141759Y94207D01*
X195505Y40461D01*
Y28450D01*
X195497Y28448D01*
X193198Y27120D01*
X191320Y25242D01*
X189992Y22943D01*
X189305Y20378D01*
Y17722D01*
X189992Y15157D01*
X190635Y14045D01*
X189228Y11505D01*
X149422D01*
X149088Y14045D01*
X149268Y14093D01*
X151452Y15354D01*
X153236Y17138D01*
X154497Y19322D01*
X155148Y21750D01*
X145570D01*
Y24290D01*
X155148D01*
X154497Y26718D01*
X153236Y28902D01*
X151452Y30686D01*
X149840Y31617D01*
X149580Y32743D01*
Y33296D01*
X149840Y34423D01*
X151452Y35354D01*
X153236Y37138D01*
X154497Y39322D01*
X155150Y41759D01*
Y44281D01*
X154497Y46718D01*
X153236Y48902D01*
X151452Y50686D01*
X149268Y51947D01*
X146831Y52600D01*
X144309D01*
X141872Y51947D01*
X139688Y50686D01*
X137904Y48902D01*
X136973Y47290D01*
X135847Y47030D01*
X135293D01*
X134167Y47290D01*
X133236Y48902D01*
X131452Y50686D01*
X129268Y51947D01*
X126831Y52600D01*
X124309D01*
X121872Y51947D01*
X119688Y50686D01*
X117904Y48902D01*
X116973Y47290D01*
X115847Y47030D01*
X115294D01*
X114167Y47290D01*
X113236Y48902D01*
X111452Y50686D01*
X109268Y51947D01*
X106840Y52598D01*
Y43020D01*
X104300D01*
Y52598D01*
X101872Y51947D01*
X99688Y50686D01*
X97904Y48902D01*
X97690Y48531D01*
X95150Y49212D01*
Y52600D01*
X89455D01*
Y54770D01*
X89159Y56257D01*
X88317Y57517D01*
X44608Y101225D01*
X45923Y103503D01*
X46990Y103217D01*
Y112080D01*
X48260D01*
Y113350D01*
X57123D01*
X56544Y115511D01*
X55374Y117539D01*
X53719Y119194D01*
X51691Y120364D01*
X50195Y120765D01*
Y123395D01*
X51691Y123796D01*
X53719Y124966D01*
X55374Y126621D01*
X56544Y128649D01*
X57150Y130910D01*
Y133250D01*
X56544Y135511D01*
X55374Y137539D01*
X53719Y139194D01*
X51691Y140364D01*
X49430Y140970D01*
X47090D01*
X44829Y140364D01*
X42801Y139194D01*
X41146Y137539D01*
X39976Y135511D01*
X39575Y134015D01*
X36945D01*
X36544Y135511D01*
X35374Y137539D01*
X33719Y139194D01*
X31691Y140364D01*
X29430Y140970D01*
X27090D01*
X24829Y140364D01*
X22801Y139194D01*
X21146Y137539D01*
X19976Y135511D01*
X19370Y133250D01*
Y130910D01*
X19976Y128649D01*
X21146Y126621D01*
X22801Y124966D01*
X24829Y123796D01*
X26325Y123395D01*
Y120765D01*
X24829Y120364D01*
X22801Y119194D01*
X21146Y117539D01*
X19976Y115511D01*
X19370Y113250D01*
Y110910D01*
X19976Y108649D01*
X21146Y106621D01*
X22801Y104966D01*
X24829Y103796D01*
X27090Y103190D01*
X29430D01*
X31186Y103660D01*
X79706Y55140D01*
X78654Y52600D01*
X75990D01*
Y33440D01*
X79378D01*
X80059Y30900D01*
X79688Y30686D01*
X77904Y28902D01*
X76643Y26718D01*
X75990Y24281D01*
Y21759D01*
X76643Y19322D01*
X77904Y17138D01*
X79688Y15354D01*
X81872Y14093D01*
X84309Y13440D01*
X86831D01*
X89268Y14093D01*
X91452Y15354D01*
X93236Y17138D01*
X94167Y18750D01*
X95293Y19010D01*
X95847D01*
X96973Y18750D01*
X97904Y17138D01*
X99688Y15354D01*
X101872Y14093D01*
X104309Y13440D01*
X106831D01*
X109059Y14037D01*
X118223Y4873D01*
X119483Y4031D01*
X120970Y3735D01*
X495300D01*
X496787Y4031D01*
X498047Y4873D01*
X519384Y26210D01*
X520532D01*
X522568Y27053D01*
X524127Y28612D01*
X524970Y30648D01*
Y32852D01*
X524127Y34888D01*
X523315Y35700D01*
Y70980D01*
X524127Y71792D01*
X524970Y73828D01*
Y76032D01*
X524127Y78068D01*
X522568Y79627D01*
X520532Y80470D01*
X518328D01*
X516292Y79627D01*
X514733Y78068D01*
X513890Y76032D01*
Y73828D01*
X514733Y71792D01*
X515545Y70980D01*
Y35700D01*
X514733Y34888D01*
X513890Y32852D01*
Y31704D01*
X493691Y11505D01*
X469335D01*
X468363Y13851D01*
X508207Y53695D01*
X509049Y54955D01*
X509344Y56442D01*
Y110490D01*
X509049Y111977D01*
X508207Y113237D01*
X503720Y117724D01*
X504190Y119480D01*
Y121820D01*
X503584Y124081D01*
X502414Y126109D01*
X500759Y127764D01*
X498731Y128934D01*
X497235Y129335D01*
Y131965D01*
X498731Y132366D01*
X500759Y133536D01*
X502414Y135191D01*
X503584Y137219D01*
X504190Y139480D01*
Y141820D01*
X503584Y144081D01*
X502414Y146109D01*
X500759Y147764D01*
X498731Y148934D01*
X497235Y149335D01*
Y151965D01*
X498731Y152366D01*
X500759Y153536D01*
X502414Y155191D01*
X503584Y157219D01*
X504190Y159480D01*
Y161820D01*
X503720Y163576D01*
X508207Y168063D01*
X509049Y169323D01*
X509345Y170810D01*
Y186370D01*
X509049Y187857D01*
X508207Y189117D01*
X485215Y212109D01*
Y222110D01*
X486027Y222922D01*
X486870Y224958D01*
Y227162D01*
X486027Y229198D01*
X484468Y230757D01*
X482432Y231600D01*
D02*
G37*
G36*
X474030Y189513D02*
X471869Y188934D01*
X469841Y187764D01*
X468186Y186109D01*
X467016Y184081D01*
X466437Y181920D01*
X474030D01*
Y189513D01*
D02*
G37*
G36*
X557250Y187030D02*
X550480D01*
Y177010D01*
X557250D01*
Y187030D01*
D02*
G37*
G36*
X547940D02*
X541170D01*
Y177010D01*
X547940D01*
Y187030D01*
D02*
G37*
G36*
X587250D02*
X571170D01*
Y164450D01*
X587250D01*
Y171855D01*
X596760D01*
X597572Y171043D01*
X599608Y170200D01*
X601812D01*
X603848Y171043D01*
X605407Y172602D01*
X606250Y174638D01*
Y176842D01*
X605407Y178878D01*
X603848Y180437D01*
X601812Y181280D01*
X599608D01*
X597572Y180437D01*
X596760Y179625D01*
X587250D01*
Y187030D01*
D02*
G37*
G36*
X557250Y174470D02*
X550480D01*
Y164450D01*
X557250D01*
Y174470D01*
D02*
G37*
G36*
X547940D02*
X541170D01*
Y164450D01*
X547940D01*
Y174470D01*
D02*
G37*
G36*
X557250Y156430D02*
X550480D01*
Y146410D01*
X557250D01*
Y156430D01*
D02*
G37*
G36*
X547940D02*
X541170D01*
Y146410D01*
X547940D01*
Y156430D01*
D02*
G37*
G36*
X587250D02*
X571170D01*
Y133850D01*
X587250D01*
Y141255D01*
X596760D01*
X597572Y140443D01*
X599608Y139600D01*
X601812D01*
X603848Y140443D01*
X605407Y142002D01*
X606250Y144038D01*
Y146242D01*
X605407Y148278D01*
X603848Y149837D01*
X601812Y150680D01*
X599608D01*
X597572Y149837D01*
X596760Y149025D01*
X587250D01*
Y156430D01*
D02*
G37*
G36*
X511642Y221440D02*
X509438D01*
X507402Y220597D01*
X505843Y219038D01*
X505000Y217002D01*
Y214798D01*
X505843Y212762D01*
X506655Y211950D01*
Y196925D01*
X506951Y195438D01*
X507793Y194178D01*
X518085Y183886D01*
Y150199D01*
X514396Y146510D01*
X513248D01*
X511212Y145667D01*
X509653Y144108D01*
X508810Y142072D01*
Y139868D01*
X509653Y137832D01*
X511212Y136273D01*
X513248Y135430D01*
X515452D01*
X517488Y136273D01*
X519047Y137832D01*
X519890Y139868D01*
Y141016D01*
X524867Y145993D01*
X525709Y147253D01*
X526005Y148740D01*
X525855Y149494D01*
Y184591D01*
X526005Y185345D01*
X525709Y186832D01*
X524867Y188092D01*
X514425Y198534D01*
Y211950D01*
X515237Y212762D01*
X516080Y214798D01*
Y217002D01*
X515237Y219038D01*
X513678Y220597D01*
X511642Y221440D01*
D02*
G37*
G36*
X557250Y143870D02*
X550480D01*
Y133850D01*
X557250D01*
Y143870D01*
D02*
G37*
G36*
X547940D02*
X541170D01*
Y133850D01*
X547940D01*
Y143870D01*
D02*
G37*
G36*
X393600Y229070D02*
X391260D01*
X388999Y228464D01*
X386971Y227294D01*
X385316Y225639D01*
X384146Y223611D01*
X383540Y221350D01*
Y219010D01*
X384146Y216749D01*
X385316Y214721D01*
X386971Y213066D01*
X388999Y211896D01*
X390495Y211495D01*
Y208865D01*
X388999Y208464D01*
X386971Y207294D01*
X385316Y205639D01*
X384146Y203611D01*
X383540Y201350D01*
Y199010D01*
X384146Y196749D01*
X385316Y194721D01*
X386971Y193066D01*
X388999Y191896D01*
X391260Y191290D01*
X393600D01*
X395861Y191896D01*
X397889Y193066D01*
X399544Y194721D01*
X400714Y196749D01*
X401115Y198245D01*
X403745D01*
X404146Y196749D01*
X405316Y194721D01*
X406971Y193066D01*
X408545Y192157D01*
Y163849D01*
X394167Y149471D01*
X390696D01*
X389209Y149175D01*
X387949Y148333D01*
X373426Y133810D01*
X372278D01*
X370242Y132967D01*
X368683Y131408D01*
X367840Y129372D01*
Y127168D01*
X368683Y125132D01*
X370242Y123573D01*
X372278Y122730D01*
X374482D01*
X376518Y123573D01*
X378077Y125132D01*
X378920Y127168D01*
Y128316D01*
X392305Y141701D01*
X395776D01*
X397263Y141997D01*
X398523Y142839D01*
X412430Y156746D01*
X422835Y146341D01*
Y130950D01*
X422023Y130138D01*
X421180Y128102D01*
Y125898D01*
X422023Y123862D01*
X423582Y122303D01*
X425618Y121460D01*
X427822D01*
X429858Y122303D01*
X431417Y123862D01*
X432260Y125898D01*
Y128102D01*
X431417Y130138D01*
X430605Y130950D01*
Y147950D01*
X430309Y149437D01*
X429467Y150697D01*
X416315Y163849D01*
Y192157D01*
X417889Y193066D01*
X419544Y194721D01*
X420714Y196749D01*
X421320Y199010D01*
Y201350D01*
X420714Y203611D01*
X419544Y205639D01*
X417889Y207294D01*
X415861Y208464D01*
X414365Y208865D01*
Y211495D01*
X415861Y211896D01*
X417889Y213066D01*
X419544Y214721D01*
X420714Y216749D01*
X421293Y218910D01*
X412430D01*
Y220180D01*
X411160D01*
Y229043D01*
X408999Y228464D01*
X406971Y227294D01*
X405316Y225639D01*
X404146Y223611D01*
X403745Y222115D01*
X401115D01*
X400714Y223611D01*
X399544Y225639D01*
X397889Y227294D01*
X395861Y228464D01*
X393600Y229070D01*
D02*
G37*
G36*
X557250Y120390D02*
X550480D01*
Y110370D01*
X557250D01*
Y120390D01*
D02*
G37*
G36*
X547940D02*
X541170D01*
Y110370D01*
X547940D01*
Y120390D01*
D02*
G37*
G36*
X587250D02*
X571170D01*
Y97810D01*
X587250D01*
Y105215D01*
X596760D01*
X597572Y104403D01*
X599608Y103560D01*
X601812D01*
X603848Y104403D01*
X605407Y105962D01*
X606250Y107998D01*
Y110202D01*
X605407Y112238D01*
X603848Y113797D01*
X601812Y114640D01*
X599608D01*
X597572Y113797D01*
X596760Y112985D01*
X587250D01*
Y120390D01*
D02*
G37*
G36*
X57123Y110810D02*
X49530D01*
Y103217D01*
X51691Y103796D01*
X53719Y104966D01*
X55374Y106621D01*
X56544Y108649D01*
X57123Y110810D01*
D02*
G37*
G36*
X557250Y107830D02*
X550480D01*
Y97810D01*
X557250D01*
Y107830D01*
D02*
G37*
G36*
X547940D02*
X541170D01*
Y97810D01*
X547940D01*
Y107830D01*
D02*
G37*
G36*
X226118Y105335D02*
X223462D01*
X220897Y104648D01*
X218598Y103320D01*
X216720Y101442D01*
X215392Y99143D01*
X214705Y96578D01*
Y93922D01*
X215392Y91357D01*
X216720Y89058D01*
X218598Y87180D01*
X220897Y85852D01*
X223462Y85165D01*
X226118D01*
X228683Y85852D01*
X230982Y87180D01*
X232860Y89058D01*
X234188Y91357D01*
X234875Y93922D01*
Y96578D01*
X234188Y99143D01*
X232860Y101442D01*
X230982Y103320D01*
X228683Y104648D01*
X226118Y105335D01*
D02*
G37*
G36*
X557250Y89790D02*
X550480D01*
Y79770D01*
X557250D01*
Y89790D01*
D02*
G37*
G36*
X547940D02*
X541170D01*
Y79770D01*
X547940D01*
Y89790D01*
D02*
G37*
G36*
X587250D02*
X571170D01*
Y67210D01*
X587250D01*
Y74615D01*
X596760D01*
X597572Y73803D01*
X599608Y72960D01*
X601812D01*
X603848Y73803D01*
X605407Y75362D01*
X606250Y77398D01*
Y79602D01*
X605407Y81638D01*
X603848Y83197D01*
X601812Y84040D01*
X599608D01*
X597572Y83197D01*
X596760Y82385D01*
X587250D01*
Y89790D01*
D02*
G37*
G36*
X557250Y77230D02*
X550480D01*
Y67210D01*
X557250D01*
Y77230D01*
D02*
G37*
G36*
X547940D02*
X541170D01*
Y67210D01*
X547940D01*
Y77230D01*
D02*
G37*
G36*
X319240Y229760D02*
X316900D01*
X314639Y229154D01*
X312611Y227984D01*
X310956Y226329D01*
X309786Y224301D01*
X309180Y222040D01*
Y219700D01*
X309786Y217439D01*
X310956Y215411D01*
X312611Y213756D01*
X314639Y212586D01*
X316135Y212185D01*
Y209555D01*
X314639Y209154D01*
X312611Y207984D01*
X310956Y206329D01*
X309786Y204301D01*
X309180Y202040D01*
Y199700D01*
X309786Y197439D01*
X310956Y195411D01*
X312611Y193756D01*
X314639Y192586D01*
X316900Y191980D01*
X319240D01*
X321501Y192586D01*
X323529Y193756D01*
X325184Y195411D01*
X326354Y197439D01*
X326755Y198935D01*
X329385D01*
X329786Y197439D01*
X330956Y195411D01*
X332611Y193756D01*
X334185Y192847D01*
Y146639D01*
X325166Y137620D01*
X324018D01*
X321982Y136777D01*
X320423Y135218D01*
X319580Y133182D01*
Y130978D01*
X320423Y128942D01*
X321235Y128130D01*
Y69990D01*
X320423Y69178D01*
X319580Y67142D01*
Y64938D01*
X320423Y62902D01*
X321982Y61343D01*
X324018Y60500D01*
X326222D01*
X328258Y61343D01*
X329817Y62902D01*
X330660Y64938D01*
Y67142D01*
X329817Y69178D01*
X329005Y69990D01*
Y128130D01*
X329817Y128942D01*
X330660Y130978D01*
Y132126D01*
X340817Y142283D01*
X341659Y143543D01*
X341955Y145030D01*
Y192847D01*
X343529Y193756D01*
X345184Y195411D01*
X346354Y197439D01*
X346960Y199700D01*
Y202040D01*
X346354Y204301D01*
X345184Y206329D01*
X343529Y207984D01*
X341501Y209154D01*
X340005Y209555D01*
Y212185D01*
X341501Y212586D01*
X343529Y213756D01*
X345184Y215411D01*
X346354Y217439D01*
X346933Y219600D01*
X338070D01*
Y220870D01*
X336800D01*
Y229733D01*
X334638Y229154D01*
X332611Y227984D01*
X330956Y226329D01*
X329786Y224301D01*
X329385Y222805D01*
X326755D01*
X326354Y224301D01*
X325184Y226329D01*
X323529Y227984D01*
X321501Y229154D01*
X319240Y229760D01*
D02*
G37*
G36*
X384642Y79200D02*
X382438D01*
X380402Y78357D01*
X378843Y76798D01*
X378000Y74762D01*
Y72558D01*
X378843Y70522D01*
X380402Y68963D01*
X382438Y68120D01*
X384642D01*
X386678Y68963D01*
X387490Y69775D01*
X403521D01*
X416100Y57196D01*
Y56048D01*
X416943Y54012D01*
X418502Y52453D01*
X420538Y51610D01*
X422742D01*
X424778Y52453D01*
X426337Y54012D01*
X427180Y56048D01*
Y58252D01*
X426337Y60288D01*
X424778Y61847D01*
X422742Y62690D01*
X421594D01*
X407877Y76407D01*
X406617Y77249D01*
X405130Y77545D01*
X387490D01*
X386678Y78357D01*
X384642Y79200D01*
D02*
G37*
G36*
X627171Y47040D02*
X626270D01*
Y26270D01*
X647040D01*
Y27171D01*
X646193Y31429D01*
X644532Y35440D01*
X642120Y39050D01*
X639050Y42120D01*
X635440Y44532D01*
X631429Y46193D01*
X627171Y47040D01*
D02*
G37*
G36*
X623730D02*
X622829D01*
X618571Y46193D01*
X614560Y44532D01*
X610950Y42120D01*
X607880Y39050D01*
X605468Y35440D01*
X603807Y31429D01*
X602960Y27171D01*
Y26270D01*
X623730D01*
Y47040D01*
D02*
G37*
G36*
X27171D02*
X26270D01*
Y26270D01*
X47040D01*
Y27171D01*
X46193Y31429D01*
X44532Y35440D01*
X42120Y39050D01*
X39050Y42120D01*
X35440Y44532D01*
X31429Y46193D01*
X27171Y47040D01*
D02*
G37*
G36*
X23730D02*
X22829D01*
X18571Y46193D01*
X14560Y44532D01*
X10950Y42120D01*
X7880Y39050D01*
X5468Y35440D01*
X3807Y31429D01*
X2960Y27171D01*
Y26270D01*
X23730D01*
Y47040D01*
D02*
G37*
G36*
X647040Y23730D02*
X626270D01*
Y2960D01*
X627171D01*
X631429Y3807D01*
X635440Y5468D01*
X639050Y7880D01*
X642120Y10950D01*
X644532Y14560D01*
X646193Y18571D01*
X647040Y22829D01*
Y23730D01*
D02*
G37*
G36*
X623730D02*
X602960D01*
Y22829D01*
X603807Y18571D01*
X605468Y14560D01*
X607880Y10950D01*
X610950Y7880D01*
X614560Y5468D01*
X618571Y3807D01*
X622829Y2960D01*
X623730D01*
Y23730D01*
D02*
G37*
G36*
X47040D02*
X26270D01*
Y2960D01*
X27171D01*
X31429Y3807D01*
X35440Y5468D01*
X39050Y7880D01*
X42120Y10950D01*
X44532Y14560D01*
X46193Y18571D01*
X47040Y22829D01*
Y23730D01*
D02*
G37*
G36*
X23730D02*
X2960D01*
Y22829D01*
X3807Y18571D01*
X5468Y14560D01*
X7880Y10950D01*
X10950Y7880D01*
X14560Y5468D01*
X18571Y3807D01*
X22829Y2960D01*
X23730D01*
Y23730D01*
D02*
G37*
%LPD*%
G36*
X181535Y94431D02*
Y80010D01*
X181831Y78523D01*
X182673Y77263D01*
X202996Y56940D01*
X202997Y56940D01*
X228924Y31013D01*
X227609Y28735D01*
X226118Y29135D01*
X223462D01*
X220897Y28448D01*
X218598Y27120D01*
X216720Y25242D01*
X215392Y22943D01*
X215390Y22935D01*
X208790D01*
X208788Y22943D01*
X207460Y25242D01*
X205582Y27120D01*
X203283Y28448D01*
X203275Y28450D01*
Y42070D01*
X202979Y43557D01*
X202137Y44817D01*
X147253Y99701D01*
X147850Y101929D01*
Y104451D01*
X147197Y106888D01*
X145936Y109072D01*
X144152Y110856D01*
X142540Y111787D01*
X142280Y112914D01*
Y113467D01*
X142540Y114593D01*
X144152Y115524D01*
X145936Y117308D01*
X147197Y119492D01*
X147850Y121929D01*
Y124451D01*
X147823Y124551D01*
X150101Y125866D01*
X181535Y94431D01*
D02*
G37*
D16*
X579210Y145140D02*
D03*
X549210Y78500D02*
D03*
Y109100D02*
D03*
Y175740D02*
D03*
Y145140D02*
D03*
X579210Y175740D02*
D03*
Y78500D02*
D03*
Y109100D02*
D03*
D25*
X481330Y210500D02*
Y226060D01*
X495300Y160650D02*
X505460Y170810D01*
X481330Y210500D02*
X505460Y186370D01*
Y170810D02*
Y186370D01*
X579210Y145140D02*
X600710D01*
X514350Y140970D02*
X522120Y148740D01*
X521970Y148815D02*
Y185420D01*
X510540Y196925D02*
X522120Y185345D01*
X466090Y33020D02*
X475300Y42230D01*
X370840Y33020D02*
X466090D01*
X475300Y42230D02*
Y60650D01*
X412430Y162240D02*
Y200180D01*
Y162240D02*
X426720Y147950D01*
X395776Y145586D02*
X412430Y162240D01*
X390696Y145586D02*
X395776D01*
X426720Y127000D02*
Y147950D01*
X338070Y145030D02*
Y200870D01*
X93980Y187780D02*
X107070Y200870D01*
X93980Y154940D02*
Y187780D01*
Y154940D02*
X105730Y143190D01*
X373380Y128270D02*
X390696Y145586D01*
X325120Y132080D02*
X338070Y145030D01*
X105730Y143190D02*
X118270D01*
X325120Y66040D02*
Y132080D01*
X405130Y73660D02*
X421640Y57150D01*
X383540Y73660D02*
X405130D01*
X443740Y173563D02*
X444820Y172483D01*
X443740Y173563D02*
Y180563D01*
X444820Y72043D02*
Y172483D01*
X359609Y156409D02*
X365760Y162560D01*
X199390Y19050D02*
X224790D01*
X199390D02*
Y42070D01*
X138270Y103190D02*
X199390Y42070D01*
X461718Y12700D02*
X505460Y56442D01*
X105570Y23020D02*
X120970Y7620D01*
X205743Y59687D02*
X252730Y12700D01*
X120970Y7620D02*
X495300D01*
X252730Y12700D02*
X461718D01*
X495300Y7620D02*
X519430Y31750D01*
X185420Y80010D02*
Y96040D01*
Y80010D02*
X205743Y59687D01*
X144040Y137420D02*
X185420Y96040D01*
X205743Y59687D02*
X205743D01*
X138270Y143190D02*
X144040Y137420D01*
X505460Y56442D02*
Y110490D01*
X359609Y44251D02*
Y156409D01*
Y44251D02*
X370840Y33020D01*
X519430Y31750D02*
Y74930D01*
X466628Y80034D02*
X474684D01*
X465140Y78546D02*
X466628Y80034D01*
X474684D02*
X475300Y80650D01*
X85570Y43020D02*
Y54770D01*
X28260Y112080D02*
X85570Y54770D01*
X444820Y72043D02*
X450772Y66091D01*
X459188D01*
X465140Y72043D02*
Y78546D01*
X459188Y66091D02*
X465140Y72043D01*
X510540Y196925D02*
Y215900D01*
X495300Y120650D02*
X505460Y110490D01*
X579210Y175740D02*
X600710D01*
X579210Y78500D02*
X600710D01*
X579210Y109100D02*
X600710D01*
D26*
X495300Y160650D02*
D03*
Y180650D02*
D03*
X412430Y200180D02*
D03*
X338070Y200870D02*
D03*
X261070D02*
D03*
X184070D02*
D03*
X107070D02*
D03*
X48260Y112080D02*
D03*
X107070Y220870D02*
D03*
X184070D02*
D03*
X338070D02*
D03*
X495300Y80650D02*
D03*
Y100650D02*
D03*
Y60650D02*
D03*
X412430Y220180D02*
D03*
X475300Y180650D02*
D03*
Y160650D02*
D03*
X261070Y220870D02*
D03*
X164070D02*
D03*
Y200870D02*
D03*
X318070Y220870D02*
D03*
Y200870D02*
D03*
X392430Y200180D02*
D03*
Y220180D02*
D03*
X87070Y220870D02*
D03*
Y200870D02*
D03*
X241070Y220870D02*
D03*
Y200870D02*
D03*
X475300Y60650D02*
D03*
X48260Y132080D02*
D03*
X28260D02*
D03*
Y112080D02*
D03*
X495300Y140650D02*
D03*
X475300D02*
D03*
X495300Y120650D02*
D03*
X475300D02*
D03*
Y100650D02*
D03*
Y80650D02*
D03*
D27*
X85570Y23020D02*
D03*
X118270Y143190D02*
D03*
X125570Y23020D02*
D03*
X145570D02*
D03*
X105570Y43020D02*
D03*
X118270Y123190D02*
D03*
X138270Y103190D02*
D03*
X118270D02*
D03*
X138270Y123190D02*
D03*
X145570Y43020D02*
D03*
X105570Y23020D02*
D03*
X125570Y43020D02*
D03*
D28*
X199390Y19050D02*
D03*
X224790D02*
D03*
Y95250D02*
D03*
X199390D02*
D03*
D29*
X138270Y143190D02*
D03*
D30*
X85570Y43020D02*
D03*
D31*
X481330Y226060D02*
D03*
X600710Y145140D02*
D03*
X514350Y140970D02*
D03*
X251460Y66040D02*
D03*
X426720Y127000D02*
D03*
X373380Y128270D02*
D03*
X325120Y66040D02*
D03*
Y132080D02*
D03*
X440690Y191770D02*
D03*
X351790Y97790D02*
D03*
X335280Y29210D02*
D03*
X204470Y162560D02*
D03*
X325120Y153670D02*
D03*
X421640Y57150D02*
D03*
X383540Y73660D02*
D03*
X443740Y180563D02*
D03*
X365760Y162560D02*
D03*
X519430Y74930D02*
D03*
X510540Y215900D02*
D03*
X519430Y31750D02*
D03*
X600710Y175740D02*
D03*
Y78500D02*
D03*
Y109100D02*
D03*
D32*
X25000Y25000D02*
D03*
Y225000D02*
D03*
X625000Y25000D02*
D03*
Y225000D02*
D03*
M02*
