M48
;Layer_Color=9474304
;FILE_FORMAT=4:4
METRIC,LZ
;TYPE=PLATED
T01F00S00C0.3000
T02F00S00C0.7620
T03F00S00C0.9000
T04F00S00C0.9700
T05F00S00C2.9000
%
T01
X0042164Y0005715
X0042672Y00127
X0044374Y00180563
X0044069Y0019177
X0048133Y0022606
X0051054Y002159
X0051435Y0014097
X0051943Y0007493
Y0003175
X0060071Y000785
Y001091
Y0014514
Y0017574
X0036576Y0016256
X0037338Y0012827
X0032512Y0013208
Y0015367
X0035179Y0009779
X0038354Y0007366
X0032512Y0006604
X0033528Y0002921
X0025146Y0006604
X0020447Y0016256
T02
X004753Y0006065
X004953
Y0008065
Y0010065
Y0012065
Y0014065
Y0016065
Y0018065
X004753
Y0016065
Y0014065
Y0012065
Y0010065
Y0008065
X0041243Y0020018
Y0022018
X0039243
Y0020018
X0033807Y0020087
Y0022087
X0031807
Y0020087
X0026107
Y0022087
X0024107
Y0020087
X0018407
Y0022087
X0016407
Y0020087
X0010707
Y0022087
X0008707
Y0020087
X0004826Y0013208
Y0011208
X0002826
Y0013208
T03
X0008557Y0002302
X0010557
X0012557
X0014557
Y0004302
X0012557
X0010557
X0008557
X0011827Y0010319
Y0012319
Y0014319
X0013827
Y0012319
Y0010319
T04
X0019939Y0001905
X0022479
Y0009525
X0019939
T05
X00625Y00025
Y00225
X00025
Y00025
M30
