M48
;FILE_FORMAT=5:5
METRIC,TZ
T1C0.300000
T2C0.400000
T3C0.500000
T4C2.000000
%
T1
X-2198387Y444234
T2
X-9200000Y150000
X-9000000Y150000
X-8800000Y150000
X-9200000Y-150000
X-9000000Y-150000
X-8800000Y-150000
X-8550000Y150000
X-8550000Y-150000
X-8300000Y150000
X-8300000Y-150000
X-8100000Y-150000
X-7900000Y-150000
X-7700000Y-150000
X-7550000Y-150000
X-7850000Y150000
X-7650000Y150000
X-7500000Y100000
X-7400000Y250000
X-7261107Y-29020
X-7200000Y250000
X-7100000Y200000
X-7025832Y100000
X-6875000Y150000
X-6175000Y150000
X-5950000Y150000
X-5950000Y375000
X-6975000Y-125000
X-6850000Y-150000
X-6650000Y-150000
X-6450000Y-150000
X-6175000Y-150000
X-5875000Y-150000
X-5700000Y-150000
X-5500000Y-150000
X-5300000Y-150000
X-5100000Y-150000
X-4875000Y-150000
X-4675000Y-150000
X-4500000Y-150000
X-4325000Y-150000
X-4150000Y-150000
X-3975000Y-150000
X-3825000Y-150000
X-3650000Y-150000
X-4575000Y150000
X-4425000Y150000
X-3975000Y150000
X-3825000Y150000
X-3650000Y150000
X-4750000Y150000
X-4925000Y150000
X-5100000Y150000
X-5250000Y150000
X-5400000Y150000
X-3500000Y150000
X-3350000Y150000
X-3175000Y150000
X-3000000Y150000
X-2850000Y150000
X-2675000Y150000
X-2500000Y150000
X-2350000Y150000
X-3500000Y-150000
X-3350000Y-150000
X-3175000Y-150000
X-3000000Y-150000
X-2850000Y-150000
X-2675000Y-150000
X-2500000Y-150000
X-2350000Y-150000
X-2225000Y-125000
X-2175000Y100000
X-2075000Y175000
X-2075000Y275000
X-1700000Y100000
X-1550000Y150000
X-1375000Y150000
X-1200000Y150000
X-900000Y150000
X-650000Y150000
X-1650000Y-100000
X-1550000Y-150000
X-1375000Y-150000
X-1200000Y-150000
X-1000000Y-150000
X-800000Y-150000
X-600000Y-150000
X-425000Y-150000
X-250000Y-150000
X-75000Y-150000
X100000Y-150000
X275000Y-150000
X-250000Y213649
X0Y150000
X150000Y150000
X325000Y150000
X550000Y150000
X800000Y150000
X450000Y-150000
X625000Y-150000
X800000Y-150000
X975000Y-150000
X1325000Y-150000
X1150000Y-150000
X1500000Y-150000
X1675000Y-150000
X1175000Y150000
X1350000Y150000
X1525000Y150000
X1700000Y150000
X-7532284Y444234
X-6675000Y150000
X-6475000Y150000
X-8550000Y0
X-6175000Y0
X-5525000Y214836
X-7900000Y212635
X-4661717Y0
X-4018150Y216441
X-1926922Y-30283
X-1850000Y175000
X-1850000Y275000
X-900000Y0
X550000Y0
X1200000Y214645
X1875000Y150000
X1850000Y-150000
X2025000Y-150000
X2050000Y150000
X2250000Y150000
X2400000Y150000
X2475000Y275000
X2600000Y350000
X2750000Y375000
X2900000Y350000
X3000000Y275000
X2200000Y-150000
X2375000Y-150000
X2450000Y-250000
X2550000Y-350000
X2700000Y-375000
X2850000Y-350000
X2975000Y-300000
X3100000Y350000
X3100000Y-350000
X3250000Y-375000
X3400000Y-350000
X3500000Y-275000
X3600000Y-350000
X3250000Y375000
X3400000Y350000
X3500000Y275000
X3600000Y350000
X3800000Y-375000
X3975000Y-350000
X4050000Y-275000
X3775000Y375000
X3950000Y350000
X4050000Y300000
X4150000Y350000
X4325000Y375000
X4475000Y350000
X4600000Y300000
X4700000Y375000
X4850000Y400000
X4125000Y-350000
X4250000Y-400000
X4425000Y-400000
X4525000Y-350000
X4600000Y-275000
X4675000Y-350000
X4800000Y-400000
X4975000Y-400000
X5075000Y-350000
X5150000Y-300000
X5225000Y-350000
X5325000Y-400000
X5475000Y-400000
X5600000Y-375000
X5700000Y-300000
X5800000Y-375000
X5950000Y-425000
X6125000Y-425000
X6250000Y-350000
X6350000Y-250000
X5025000Y375000
X5150000Y300000
X5275000Y375000
X5450000Y400000
X5600000Y375000
X5700000Y300000
X5775000Y375000
X5900000Y400000
X6100000Y400000
X6225000Y350000
X6475000Y-300000
X6550000Y-400000
X6500000Y0
X6650000Y25000
X6775000Y-25000
X6900000Y-100000
X7025000Y-150000
X6625000Y-50000
X6725000Y-125000
X6800000Y-225000
X6850000Y-325000
X6875000Y-450000
X6600000Y-525000
X6650000Y-650000
X6950000Y-550000
X7050000Y-575000
X7200000Y-150000
X7375000Y-150000
X7200000Y-575000
X6725000Y-775000
X6850000Y-850000
X7000000Y-850000
X7150000Y-850000
X7325000Y-625000
X7450000Y-625000
X7600000Y-575000
X7400000Y-725000
X7425000Y-1025000
X7850000Y-575000
X8100000Y-575000
X8350000Y-575000
X6600000Y-975000
X8637376Y-1212871
X8638496Y-1422087
X7973661Y-1516254
X7435947Y-2006008
X6988584Y-1280738
X4019478Y-1693680
X2425000Y-1651477
X1250000Y-1288294
X642966Y-1004583
X-6466Y-1608734
X-828680Y-1725000
X-2309694Y-1392177
X-4400000Y-1700000
X-4220369Y-1185215
X-5326904Y-1092929
X-5549114Y-1946003
X-5418503Y-2325000
X-6309617Y-2325163
X-6566845Y-1655533
X-6763525Y-1605607
X-7579944Y-1448681
X-8175000Y-1650000
X-7875000Y-700000
X2750000Y125000
X2600000Y0
X2750000Y-125000
X2875000Y0
X3250000Y125000
X3125000Y0
X3250000Y-125000
X3375000Y0
X3775000Y125000
X3650000Y0
X3775000Y-100000
X3900000Y0
X4325000Y125000
X4225000Y0
X4350000Y-100000
X4450000Y0
X4875000Y100000
X4775000Y0
X4875000Y-100000
X4975000Y0
X5425000Y75000
X5350000Y0
X5425000Y-75000
X5525000Y0
X6000000Y100000
X5900000Y0
X6000000Y-75000
X6075000Y0
X6325000Y275000
X6450000Y300000
X6800000Y300000
X6925000Y225000
X6625000Y300000
X7075000Y150000
X7250000Y150000
X7300000Y214371
X7575000Y-150000
X7750000Y-150000
X7925000Y-150000
X8100000Y-150000
X8300000Y-150000
X7700000Y150000
X7875000Y150000
X8050000Y150000
X8225000Y150000
X8425000Y150000
X8500000Y-150000
X7325000Y375000
X8625000Y150000
X8700000Y-150000
X8900000Y-150000
X9100000Y-150000
X9275000Y-150000
X8825000Y150000
X9025000Y150000
X9200000Y150000
X2422811Y1086630
X238582Y1082110
X-2675000Y1075000
X-5003308Y1084741
X-6700000Y1100000
X-6956201Y1900000
X-8300000Y325000
X-8300000Y500000
X-8300000Y675000
X-8300000Y875000
X-7900000Y325000
X-7900000Y500000
X-7900000Y675000
X-7900000Y875000
X-7375000Y600000
X-7375000Y750000
X-7375000Y925000
X-9250000Y650000
X-9250000Y825000
X-9250000Y975000
X-7200000Y925000
X-7200000Y750000
X-7200000Y600000
X-7200000Y425000
X-5950000Y575000
X-5950000Y750000
X-5950000Y925000
X-5525000Y350000
X-5525000Y500000
X-5525000Y650000
X-5525000Y800000
X-5525000Y975000
X-4425000Y575000
X-4425000Y975000
X-4425000Y775000
X-4025000Y975000
X-4025000Y775000
X-4025000Y575000
X-4025000Y375000
X-4425000Y375000
X-2075000Y600000
X-2075000Y950000
X-2075000Y775000
X-1850000Y950000
X-1850000Y775000
X-1850000Y575000
X-1850000Y400000
X-650000Y300000
X-650000Y450000
X-650000Y600000
X-650000Y750000
X-650000Y900000
X-250000Y900000
X-250000Y750000
X-250000Y600000
X-250000Y450000
X-250000Y300000
X800000Y325000
X800000Y504261
X800000Y700000
X800000Y900000
X1200000Y900000
X1200000Y700000
X1200000Y500000
X1200000Y325000
X7325000Y550000
X7325000Y725000
X7325000Y900000
X7700000Y900000
X7700000Y725000
X7700000Y550000
X7700000Y350000
X9275000Y625000
X9275000Y775000
X9275000Y975000
X8600000Y-575000
X8825000Y-575000
X9050000Y-575000
X-9200000Y-634592
X-9200000Y-750000
X-9200000Y-900000
X-7550000Y-242257
X-6975000Y-243514
X-175000Y150000
X7400000Y-850000
X6850000Y-1000000
X7000000Y-1000000
X5200000Y-1000000
X6175000Y-1000000
X6400000Y-1000000
X5450000Y-1000000
X5700000Y-1000000
X5950000Y-1000000
X3725000Y-1000000
X4700000Y-1000000
X4925000Y-1000000
X3975000Y-1000000
X4225000Y-1000000
X4475000Y-1000000
X2275000Y-1000000
X3250000Y-1000000
X3475000Y-1000000
X2525000Y-1000000
X2775000Y-1000000
X3025000Y-1000000
X125000Y-800000
X1100000Y-800000
X1325000Y-800000
X375000Y-800000
X625000Y-800000
X875000Y-800000
X1425000Y-925000
X2025000Y-1000000
X1775000Y-1000000
X1525000Y-1000000
X-1825000Y-925000
X-1350000Y-925000
X-2325000Y-925000
X-1575000Y-925000
X-2075000Y-925000
X-1125000Y-925000
X-3250000Y-925000
X-2775000Y-925000
X-3750000Y-825000
X-3000000Y-925000
X-3500000Y-825000
X-2550000Y-925000
X-4675000Y-825000
X-4200000Y-825000
X-5175000Y-825000
X-4425000Y-825000
X-4925000Y-825000
X-3975000Y-825000
X-6100000Y-825000
X-5625000Y-825000
X-6600000Y-825000
X-5850000Y-825000
X-6350000Y-825000
X-5400000Y-825000
X-8825000Y-1000000
X-8350000Y-1000000
X-8575000Y-1000000
X-9075000Y-1000000
X-8125000Y-1000000
X-8500000Y975000
X-9000000Y975000
X-8750000Y975000
X-7900000Y1000000
X-7700000Y1000000
X-7500000Y1000000
X-7050000Y1000000
X-6825000Y1000000
X-6600000Y1000000
X-6375000Y1000000
X-6150000Y1000000
X-5300000Y975000
X-5075000Y975000
X-4825000Y975000
X-4600000Y975000
X-3825000Y975000
X-3625000Y975000
X-3425000Y975000
X-3200000Y975000
X-2975000Y975000
X-2750000Y975000
X-2525000Y975000
X-2325000Y975000
X-1675000Y975000
X-1450000Y975000
X-1225000Y975000
X-975000Y975000
X-775000Y975000
X-175000Y975000
X25000Y975000
X225000Y975000
X450000Y975000
X675000Y975000
X1350000Y975000
X1550000Y975000
X1775000Y975000
X2000000Y975000
X2200000Y975000
X2400000Y975000
X2600000Y975000
X2825000Y975000
X3050000Y975000
X3275000Y975000
X3492624Y975000
X3717624Y975000
X3942624Y975000
X4167624Y975000
X4625000Y975000
X4400000Y975000
X4850000Y975000
X5075000Y975000
X5500000Y975000
X5275000Y975000
X5725000Y975000
X5950000Y975000
X6425000Y975000
X6200000Y975000
X6650000Y975000
X6875000Y975000
X7100000Y975000
X7825000Y975000
X8025000Y975000
X8250000Y975000
X8475000Y975000
X8700000Y975000
X8950000Y975000
T3
X-3388786Y-2388507
X-2982845Y-2387951
X-3388786Y2386482
X-2982845Y2387039
X1686214Y2387720
X2092155Y2388277
X1691608Y-2388676
X2097550Y-2388119
T4
X-6727000Y2290069
X-4187000Y2290069
X-9267000Y2290069
X-9267000Y1350269
X-9267000Y385069
X-9266999Y-377077
X-9267000Y-1342131
X-9267000Y-2281931
X-6727000Y-2281931
X-4187000Y-2281931
X-1647000Y-2281931
X385000Y-2281931
X2925000Y-2281931
X6227000Y-2281931
X9275000Y-2281931
X9275000Y-1342131
X9274359Y-381405
X9275000Y375000
X9275000Y1350000
X9275000Y2285915
X6227000Y2290069
X2925000Y2290069
X1909000Y639069
X385000Y2290069
X-1647000Y2290069
X-3171000Y639069
X-4187000Y2290069
X-3180923Y-634116
X1905366Y-633471
M30
