  0
SECTION
  2
ENTITIES
  0
LINE
  8
0
 10
      0.000000000000
 20
      0.000000000000
 30
      0.000000000000
 11
     12.500000000000
 21
      0.000000000000
 31
      0.000000000000
  0
LINE
  8
0
 10
      0.000000000000
 20
    -10.750000000000
 30
      0.000000000000
 11
      0.000000000000
 21
      0.000000000000
 31
      0.000000000000
  0
LINE
  8
0
 10
     12.500000000000
 20
    -10.750000000000
 30
      0.000000000000
 11
     12.500000000000
 21
      0.000000000000
 31
      0.000000000000
  0
LINE
  8
0
 10
      0.000000000000
 20
    -10.750000000000
 30
      0.000000000000
 11
     12.500000000000
 21
    -10.750000000000
 31
      0.000000000000
  0
LINE
  8
0
 10
      3.750000000000
 20
     -5.595000000000
 30
      0.000000000000
 11
      3.750000000000
 21
     -0.635000000000
 31
      0.000000000000
  0
LINE
  8
0
 10
      3.780000000000
 20
     -5.625000000000
 30
      0.000000000000
 11
      8.720000000000
 21
     -5.625000000000
 31
      0.000000000000
  0
LINE
  8
0
 10
     12.187500000000
 20
    -10.312500000000
 30
      0.000000000000
 11
     12.187500000000
 21
     -0.437500000000
 31
      0.000000000000
  0
LINE
  8
0
 10
      0.437500000000
 20
    -10.437500000000
 30
      0.000000000000
 11
     12.062500000000
 21
    -10.437500000000
 31
      0.000000000000
  0
LINE
  8
0
 10
      0.312500000000
 20
    -10.312500000000
 30
      0.000000000000
 11
      0.312500000000
 21
     -0.437500000000
 31
      0.000000000000
  0
LINE
  8
0
 10
      0.437500000000
 20
     -0.218500000000
 30
      0.000000000000
 11
     12.062500000000
 21
     -0.218500000000
 31
      0.000000000000
  0
LINE
  8
0
 10
      0.437500000000
 20
    -10.531500000000
 30
      0.000000000000
 11
     12.062500000000
 21
    -10.531500000000
 31
      0.000000000000
  0
LINE
  8
0
 10
      0.218500000000
 20
    -10.312500000000
 30
      0.000000000000
 11
      0.218500000000
 21
     -0.437500000000
 31
      0.000000000000
  0
LINE
  8
0
 10
      0.635000000000
 20
    -10.375000000000
 30
      0.000000000000
 11
     11.865000000000
 21
    -10.375000000000
 31
      0.000000000000
  0
LINE
  8
0
 10
     12.125000000000
 20
    -10.115000000000
 30
      0.000000000000
 11
     12.125000000000
 21
     -0.635000000000
 31
      0.000000000000
  0
LINE
  8
0
 10
      0.375000000000
 20
    -10.115000000000
 30
      0.000000000000
 11
      0.375000000000
 21
     -0.635000000000
 31
      0.000000000000
  0
LINE
  8
0
 10
     12.281500000000
 20
    -10.312500000000
 30
      0.000000000000
 11
     12.281500000000
 21
     -0.437500000000
 31
      0.000000000000
  0
LINE
  8
0
 10
      0.000000000000
 20
      2.187500000000
 30
      0.000000000000
 11
     12.500000000000
 21
      2.187500000000
 31
      0.000000000000
  0
LINE
  8
0
 10
      8.500000000000
 20
     -5.115000000000
 30
      0.000000000000
 11
      8.500000000000
 21
     -0.635000000000
 31
      0.000000000000
  0
LINE
  8
0
 10
      4.260000000000
 20
     -5.375000000000
 30
      0.000000000000
 11
      8.240000000000
 21
     -5.375000000000
 31
      0.000000000000
  0
LINE
  8
0
 10
      4.000000000000
 20
     -5.115000000000
 30
      0.000000000000
 11
      4.000000000000
 21
     -0.635000000000
 31
      0.000000000000
  0
LINE
  8
0
 10
      0.437500000000
 20
     -0.312500000000
 30
      0.000000000000
 11
     12.062500000000
 21
     -0.312500000000
 31
      0.000000000000
  0
LINE
  8
0
 10
      0.635000000000
 20
     -0.375000000000
 30
      0.000000000000
 11
      3.490000000000
 21
     -0.375000000000
 31
      0.000000000000
  0
LINE
  8
0
 10
      4.260000000000
 20
     -0.375000000000
 30
      0.000000000000
 11
      8.240000000000
 21
     -0.375000000000
 31
      0.000000000000
  0
LINE
  8
0
 10
      9.010000000000
 20
     -0.375000000000
 30
      0.000000000000
 11
     11.865000000000
 21
     -0.375000000000
 31
      0.000000000000
  0
LINE
  8
0
 10
      8.750000000000
 20
     -5.595000000000
 30
      0.000000000000
 11
      8.750000000000
 21
     -0.635000000000
 31
      0.000000000000
  0
LINE
  8
0
 10
      6.522112692972
 20
     -6.937500000000
 30
      0.000000000000
 11
      7.233857780324
 21
     -6.937500000000
 31
      0.000000000000
  0
LINE
  8
0
 10
      6.443029905489
 20
     -9.718500000000
 30
      0.000000000000
 11
      7.233857780324
 21
     -9.718500000000
 31
      0.000000000000
  0
LINE
  8
0
 10
      6.862000000000
 20
    -10.121672933546
 30
      0.000000000000
 11
      6.862000000000
 21
     -5.495329865763
 31
      0.000000000000
  0
LINE
  8
0
 10
      8.638000000000
 20
     -9.390157149324
 30
      0.000000000000
 11
      8.638000000000
 21
     -7.966666974621
 31
      0.000000000000
  0
LINE
  8
0
 10
      3.937000000000
 20
     -9.508781330549
 30
      0.000000000000
 11
      3.937000000000
 21
     -5.356934987666
 31
      0.000000000000
  0
LINE
  8
0
 10
      3.556508162341
 20
     -6.125000000000
 30
      0.000000000000
 11
      4.248482552822
 21
     -6.125000000000
 31
      0.000000000000
  0
LINE
  8
0
 10
      3.576278859212
 20
     -8.906000000000
 30
      0.000000000000
 11
      4.288023946564
 21
     -8.906000000000
 31
      0.000000000000
  0
LINE
  8
0
 10
      5.713000000000
 20
     -8.797036243198
 30
      0.000000000000
 11
      5.713000000000
 21
     -7.452628855979
 31
      0.000000000000
  0
LINE
  8
0
 10
      5.948762483717
 20
     -8.203915337072
 30
      0.000000000000
 11
      9.744736282924
 21
     -9.370386452453
 31
      0.000000000000
  0
LINE
  8
0
 10
      8.973679104960
 20
     -8.717953455715
 30
      0.000000000000
 11
      9.744736282924
 21
     -9.350615755582
 31
      0.000000000000
  0
LINE
  8
0
 10
     11.761347363753
 20
     -0.730591919882
 30
      0.000000000000
 11
      6.047615968071
 21
     -2.569266728874
 31
      0.000000000000
  0
CIRCLE
  8
0
 10
      0.125000000000
 20
    -10.625000000000
 40
      0.053250000000
  0
CIRCLE
  8
0
 10
      2.575000000000
 20
    -10.625000000000
 40
      0.053250000000
  0
CIRCLE
  8
0
 10
      5.025000000000
 20
    -10.625000000000
 40
      0.053250000000
  0
CIRCLE
  8
0
 10
      7.475000000000
 20
    -10.625000000000
 40
      0.053250000000
  0
CIRCLE
  8
0
 10
      9.925000000000
 20
    -10.625000000000
 40
      0.053250000000
  0
CIRCLE
  8
0
 10
     12.375000000000
 20
    -10.625000000000
 40
      0.053250000000
  0
CIRCLE
  8
0
 10
     12.375000000000
 20
     -8.000000000000
 40
      0.053250000000
  0
CIRCLE
  8
0
 10
     12.375000000000
 20
     -5.375000000000
 40
      0.053250000000
  0
CIRCLE
  8
0
 10
     12.375000000000
 20
     -2.750000000000
 40
      0.053250000000
  0
CIRCLE
  8
0
 10
     12.375000000000
 20
     -0.125000000000
 40
      0.053250000000
  0
CIRCLE
  8
0
 10
      9.925000000000
 20
     -0.125000000000
 40
      0.053250000000
  0
CIRCLE
  8
0
 10
      7.475000000000
 20
     -0.125000000000
 40
      0.053250000000
  0
CIRCLE
  8
0
 10
      5.025000000000
 20
     -0.125000000000
 40
      0.053250000000
  0
CIRCLE
  8
0
 10
      2.575000000000
 20
     -0.125000000000
 40
      0.053250000000
  0
CIRCLE
  8
0
 10
      0.125000000000
 20
     -0.125000000000
 40
      0.053250000000
  0
CIRCLE
  8
0
 10
      0.125000000000
 20
     -2.750000000000
 40
      0.053250000000
  0
CIRCLE
  8
0
 10
      0.125000000000
 20
     -8.000000000000
 40
      0.053250000000
  0
CIRCLE
  8
0
 10
      0.125000000000
 20
     -5.375000000000
 40
      0.053250000000
  0
CIRCLE
  8
0
 10
      8.625000000000
 20
     -5.500000000000
 40
      0.053250000000
  0
CIRCLE
  8
0
 10
      7.000000000000
 20
     -5.500000000000
 40
      0.053250000000
  0
CIRCLE
  8
0
 10
      5.500000000000
 20
     -5.500000000000
 40
      0.053250000000
  0
CIRCLE
  8
0
 10
      3.875000000000
 20
     -5.500000000000
 40
      0.053250000000
  0
CIRCLE
  8
0
 10
      8.625000000000
 20
     -0.500000000000
 40
      0.053250000000
  0
CIRCLE
  8
0
 10
      3.875000000000
 20
     -0.500000000000
 40
      0.053250000000
  0
CIRCLE
  8
0
 10
      8.625000000000
 20
     -2.187500000000
 40
      0.053250000000
  0
CIRCLE
  8
0
 10
      8.625000000000
 20
     -3.812500000000
 40
      0.053250000000
  0
CIRCLE
  8
0
 10
      3.875000000000
 20
     -3.812500000000
 40
      0.053250000000
  0
CIRCLE
  8
0
 10
      3.875000000000
 20
     -2.187500000000
 40
      0.053250000000
  0
CIRCLE
  8
0
 10
      1.044000000000
 20
     -2.915000000000
 40
      0.053250000000
  0
CIRCLE
  8
0
 10
      1.044000000000
 20
     -5.315000000000
 40
      0.053250000000
  0
CIRCLE
  8
0
 10
      1.044000000000
 20
     -7.715000000000
 40
      0.053250000000
  0
CIRCLE
  8
0
 10
      3.350000000000
 20
     -2.915000000000
 40
      0.053250000000
  0
CIRCLE
  8
0
 10
      3.350000000000
 20
     -5.315000000000
 40
      0.053250000000
  0
CIRCLE
  8
0
 10
      3.350000000000
 20
     -7.715000000000
 40
      0.053250000000
  0
CIRCLE
  8
0
 10
      9.419000000000
 20
     -2.915000000000
 40
      0.053250000000
  0
CIRCLE
  8
0
 10
     11.725000000000
 20
     -2.915000000000
 40
      0.053250000000
  0
CIRCLE
  8
0
 10
     11.725000000000
 20
     -5.315000000000
 40
      0.053250000000
  0
CIRCLE
  8
0
 10
      9.419000000000
 20
     -5.315000000000
 40
      0.053250000000
  0
CIRCLE
  8
0
 10
      9.419000000000
 20
     -7.715000000000
 40
      0.053250000000
  0
CIRCLE
  8
0
 10
     11.725000000000
 20
     -7.715000000000
 40
      0.053250000000
  0
CIRCLE
  8
0
 10
      6.862000000000
 20
     -6.937500000000
 40
      0.044500000000
  0
CIRCLE
  8
0
 10
      6.862000000000
 20
     -9.718500000000
 40
      0.044500000000
  0
CIRCLE
  8
0
 10
      3.937000000000
 20
     -6.125000000000
 40
      0.044500000000
  0
CIRCLE
  8
0
 10
      3.937000000000
 20
     -8.906000000000
 40
      0.044500000000
  0
CIRCLE
  8
0
 10
      8.657347955026
 20
     -8.698182758844
 40
      0.300000000000
  0
CIRCLE
  8
0
 10
      5.671972727525
 20
     -8.184144640201
 40
      0.300000000000
  0
CIRCLE
  8
0
 10
     12.136990604300
 20
     -0.394490073078
 40
      0.500000000000
  0
ARC
  8
0
 10
     12.062500000000
 20
     -0.437500000000
 40
      0.125000000000
 50
      0.000000000000
 51
     90.000000000000
  0
ARC
  8
0
 10
      0.437500000000
 20
     -0.437500000000
 40
      0.125000000000
 50
     90.000000000000
 51
    180.000000000000
  0
ARC
  8
0
 10
      0.437500000000
 20
    -10.312500000000
 40
      0.125000000000
 50
    180.000000000000
 51
    270.000000000000
  0
ARC
  8
0
 10
     12.062500000000
 20
    -10.312500000000
 40
      0.125000000000
 50
    270.000000000000
 51
      0.000000000000
  0
ARC
  8
0
 10
     12.062500000000
 20
    -10.312500000000
 40
      0.219000000000
 50
    270.000000000000
 51
      0.000000000000
  0
ARC
  8
0
 10
     12.062500000000
 20
     -0.437500000000
 40
      0.219000000000
 50
      0.000000000000
 51
     90.000000000000
  0
ARC
  8
0
 10
      0.437500000000
 20
     -0.437500000000
 40
      0.219000000000
 50
     90.000000000000
 51
    180.000000000000
  0
ARC
  8
0
 10
      0.437500000000
 20
    -10.312500000000
 40
      0.219000000000
 50
    180.000000000000
 51
    270.000000000000
  0
ARC
  8
0
 10
      8.240000000000
 20
     -0.635000000000
 40
      0.260000000000
 50
      0.000000000000
 51
     90.000000000000
  0
ARC
  8
0
 10
      8.240000000000
 20
     -5.115000000000
 40
      0.260000000000
 50
    270.000000000000
 51
      0.000000000000
  0
ARC
  8
0
 10
      4.260000000000
 20
     -5.115000000000
 40
      0.260000000000
 50
    180.000000000000
 51
    270.000000000000
  0
ARC
  8
0
 10
      4.260000000000
 20
     -0.635000000000
 40
      0.260000000000
 50
     90.000000000000
 51
    180.000000000000
  0
ARC
  8
0
 10
      3.490000000000
 20
     -0.635000000000
 40
      0.260000000000
 50
      0.000000000000
 51
     90.000000000000
  0
ARC
  8
0
 10
      9.010000000000
 20
     -0.635000000000
 40
      0.260000000000
 50
     90.000000000000
 51
    180.000000000000
  0
ARC
  8
0
 10
      8.720000000000
 20
     -5.595000000000
 40
      0.030000000000
 50
    270.000000000000
 51
      0.000000000000
  0
ARC
  8
0
 10
      3.780000000000
 20
     -5.595000000000
 40
      0.030000000000
 50
    180.000000000000
 51
    270.000000000000
  0
ARC
  8
0
 10
     11.865000000000
 20
     -0.635000000000
 40
      0.260000000000
 50
      0.000000000000
 51
     90.000000000000
  0
ARC
  8
0
 10
     11.865000000000
 20
    -10.115000000000
 40
      0.260000000000
 50
    270.000000000000
 51
      0.000000000000
  0
ARC
  8
0
 10
      0.635000000000
 20
    -10.115000000000
 40
      0.260000000000
 50
    180.000000000000
 51
    270.000000000000
  0
ARC
  8
0
 10
      0.635000000000
 20
     -0.635000000000
 40
      0.260000000000
 50
     90.000000000000
 51
    180.000000000000
  0
ENDSEC
  0
EOF
