G75*
G70*
%OFA0B0*%
%FSLAX24Y24*%
%IPPOS*%
%LPD*%
%AMOC8*
5,1,8,0,0,1.08239X$1,22.5*
%
%ADD10O,0.0674X0.1267*%
%ADD11C,0.0595*%
%ADD12O,0.1280X0.0680*%
%ADD13C,0.1340*%
%ADD14R,0.0540X0.0710*%
%ADD15R,0.0060X0.0720*%
%ADD16O,0.1120X0.0600*%
%ADD17OC8,0.0640*%
%ADD18C,0.1180*%
%ADD19C,0.0060*%
%ADD20O,0.0680X0.1280*%
%ADD21C,0.0480*%
%ADD22C,0.0476*%
D10*
X010551Y011524D03*
X011551Y011524D03*
X012551Y011524D03*
X058151Y006824D03*
X059151Y006824D03*
X060151Y006824D03*
D11*
X046951Y006324D03*
X046951Y007324D03*
X046951Y008324D03*
X046951Y010524D03*
X046951Y011524D03*
X046951Y012524D03*
X047651Y016624D03*
X047651Y017624D03*
X047651Y018624D03*
X047451Y020924D03*
X047451Y021924D03*
X047451Y022924D03*
X047351Y026124D03*
X047351Y027124D03*
X047351Y028124D03*
X047251Y030324D03*
X047251Y031324D03*
X047251Y032324D03*
X047151Y035424D03*
X047151Y036424D03*
X047151Y037424D03*
X047151Y039424D03*
X047151Y040424D03*
X047151Y041424D03*
D12*
X048751Y038924D03*
X048751Y037924D03*
X048751Y036924D03*
X048751Y034424D03*
X048751Y033424D03*
X048751Y032424D03*
X053351Y032324D03*
X053351Y033324D03*
X053351Y034324D03*
X053151Y037224D03*
X053151Y038224D03*
X053151Y039224D03*
X025151Y038924D03*
X025151Y037924D03*
X025151Y036924D03*
X025151Y035924D03*
X025151Y034924D03*
X025151Y033924D03*
X025151Y031924D03*
X025151Y030924D03*
X025151Y029924D03*
X025151Y028924D03*
X025151Y027924D03*
X025151Y026924D03*
X006151Y027324D03*
X006151Y026324D03*
X006151Y025324D03*
X006151Y024324D03*
X006151Y023324D03*
X006151Y028324D03*
X006151Y029324D03*
X006151Y030324D03*
X006151Y031924D03*
X006151Y032924D03*
X006151Y033924D03*
X006151Y034924D03*
X006151Y035924D03*
X006151Y036924D03*
X006151Y037924D03*
X006151Y038924D03*
D13*
X012051Y039924D03*
X023051Y039824D03*
X006151Y019924D03*
D14*
X022351Y016124D03*
X022951Y016124D03*
X022116Y029908D03*
X021516Y029908D03*
D15*
X021816Y029908D03*
X022651Y016124D03*
D16*
X027751Y015224D03*
X027751Y014224D03*
X030751Y014224D03*
X030751Y015224D03*
X030851Y006024D03*
X030851Y005024D03*
X027851Y005024D03*
X027851Y006024D03*
X027451Y032824D03*
X027451Y033824D03*
X030451Y033824D03*
X030451Y032824D03*
X030451Y040924D03*
X030451Y041924D03*
X027451Y041924D03*
X027451Y040924D03*
D17*
X064851Y038824D03*
X065851Y038824D03*
X065851Y037824D03*
X064851Y037824D03*
X064851Y036824D03*
X065851Y036824D03*
X065851Y035824D03*
X064851Y035824D03*
X064851Y034824D03*
X065851Y034824D03*
X065851Y033824D03*
X064851Y033824D03*
X064851Y032824D03*
X065851Y032824D03*
X065851Y031824D03*
X064851Y031824D03*
X064851Y030824D03*
X065851Y030824D03*
X065851Y029824D03*
X064851Y029824D03*
X064851Y028824D03*
X065851Y028824D03*
X065851Y027824D03*
X064851Y027824D03*
X064851Y026824D03*
X065851Y026824D03*
X065851Y025824D03*
X064851Y025824D03*
X064851Y024824D03*
X065851Y024824D03*
X065851Y023824D03*
X064851Y023824D03*
X064851Y022824D03*
X065851Y022824D03*
X065851Y021824D03*
X064851Y021824D03*
X064851Y020824D03*
X065851Y020824D03*
X065851Y019824D03*
X064851Y019824D03*
X064851Y018824D03*
X065851Y018824D03*
X065851Y017824D03*
X064851Y017824D03*
X064851Y016824D03*
X065851Y016824D03*
X065851Y015824D03*
X064851Y015824D03*
X064851Y014824D03*
X065851Y014824D03*
X065851Y013824D03*
X064851Y013824D03*
X064851Y012824D03*
X065851Y012824D03*
X065851Y011824D03*
X064851Y011824D03*
X064851Y010824D03*
X065851Y010824D03*
X065851Y009824D03*
X064851Y009824D03*
X064851Y008824D03*
X065851Y008824D03*
X065851Y007824D03*
X064851Y007824D03*
D18*
X066851Y005824D03*
X066851Y040824D03*
X006351Y040824D03*
X006351Y005824D03*
D19*
X004951Y006634D02*
X004951Y003634D01*
X007951Y003634D01*
X064951Y003634D02*
X067951Y003634D01*
X067951Y006634D01*
X067951Y040014D02*
X067951Y043014D01*
X064951Y043014D01*
X007951Y043014D02*
X004951Y043014D01*
X004951Y040014D01*
D20*
X056351Y032124D03*
X057351Y032124D03*
X058351Y032124D03*
X058551Y029724D03*
X057551Y029724D03*
X056551Y029724D03*
D21*
X059756Y028911D03*
X061222Y029537D03*
X061827Y031533D03*
X063028Y033871D03*
X060506Y034757D03*
X060745Y035265D03*
X059321Y036420D03*
X060068Y037891D03*
X059244Y039320D03*
X057544Y039522D03*
X056442Y039535D03*
X052751Y040656D03*
X049779Y040819D03*
X048551Y040816D03*
X046508Y039393D03*
X045855Y040425D03*
X043401Y039498D03*
X041596Y038288D03*
X040731Y037911D03*
X040629Y038535D03*
X042221Y037317D03*
X043665Y037664D03*
X045848Y037314D03*
X041890Y036118D03*
X040732Y036844D03*
X039699Y037089D03*
X038560Y037712D03*
X037985Y038443D03*
X037162Y037687D03*
X036371Y038372D03*
X037066Y039996D03*
X039527Y040684D03*
X040849Y041519D03*
X043350Y041527D03*
X038111Y036233D03*
X038900Y035602D03*
X037543Y035230D03*
X036907Y036119D03*
X032389Y037166D03*
X030825Y037375D03*
X029505Y037250D03*
X030231Y036158D03*
X030246Y035317D03*
X028777Y033665D03*
X026419Y034622D03*
X026064Y035424D03*
X027075Y036258D03*
X026530Y038092D03*
X029176Y038744D03*
X030623Y039570D03*
X023849Y034490D03*
X021597Y034790D03*
X020097Y034016D03*
X019592Y034021D03*
X019072Y034030D03*
X015651Y035824D03*
X016551Y036624D03*
X014232Y037414D03*
X019491Y038434D03*
X022071Y040045D03*
X014072Y033976D03*
X017917Y030713D03*
X014260Y029890D03*
X016118Y026810D03*
X015002Y025524D03*
X014245Y024629D03*
X015153Y024284D03*
X017152Y022756D03*
X018451Y022224D03*
X019324Y020874D03*
X018113Y019735D03*
X017151Y020824D03*
X020336Y021976D03*
X020154Y023453D03*
X021984Y025542D03*
X021157Y025981D03*
X020251Y026524D03*
X019748Y027263D03*
X022539Y028667D03*
X023412Y028331D03*
X023872Y027081D03*
X023631Y026196D03*
X024251Y025824D03*
X026435Y024670D03*
X027541Y025618D03*
X028875Y026748D03*
X026717Y027176D03*
X025851Y028424D03*
X027851Y030624D03*
X028951Y030524D03*
X030365Y030744D03*
X030187Y031444D03*
X029656Y031889D03*
X028114Y031766D03*
X026298Y031988D03*
X023972Y032480D03*
X030448Y029226D03*
X030630Y028635D03*
X032586Y028037D03*
X032057Y027188D03*
X031554Y027094D03*
X035052Y026443D03*
X035446Y025857D03*
X037344Y027289D03*
X038441Y028120D03*
X039064Y028686D03*
X040626Y028346D03*
X041075Y028702D03*
X041050Y029585D03*
X042154Y027993D03*
X042658Y027996D03*
X043416Y027937D03*
X044613Y026318D03*
X041214Y025923D03*
X040751Y026436D03*
X040481Y025923D03*
X039648Y025868D03*
X038654Y026443D03*
X035981Y028419D03*
X033494Y030024D03*
X032251Y033524D03*
X039554Y032567D03*
X041753Y032305D03*
X042916Y031795D03*
X047990Y029231D03*
X054019Y025882D03*
X053201Y024104D03*
X054528Y023218D03*
X055900Y023604D03*
X057767Y023616D03*
X058532Y022446D03*
X057879Y022293D03*
X054800Y020695D03*
X052702Y020782D03*
X049717Y021988D03*
X049290Y022676D03*
X048986Y021786D03*
X049792Y023827D03*
X048788Y024557D03*
X040900Y019621D03*
X040366Y018760D03*
X040823Y018415D03*
X040226Y017752D03*
X042412Y017986D03*
X043351Y016724D03*
X044841Y018738D03*
X051451Y015545D03*
X052341Y017007D03*
X050951Y013149D03*
X047843Y010048D03*
X045050Y009900D03*
X040459Y012286D03*
X038851Y010402D03*
X036648Y010259D03*
X034260Y010282D03*
X033759Y010250D03*
X033409Y010615D03*
X031622Y009709D03*
X030114Y010356D03*
X029411Y008600D03*
X026495Y009392D03*
X022424Y008779D03*
X020244Y008138D03*
X020751Y007024D03*
X018417Y007758D03*
X016059Y007493D03*
X019730Y011901D03*
X019754Y012591D03*
X017860Y013790D03*
X016851Y014660D03*
X017767Y015935D03*
X018798Y016325D03*
X016051Y016691D03*
X019251Y018524D03*
X022929Y017726D03*
X025655Y017551D03*
X026316Y017552D03*
X026054Y016606D03*
X028921Y016804D03*
X029885Y016211D03*
X032751Y017524D03*
X032449Y018077D03*
X031495Y019237D03*
X029912Y019047D03*
X025780Y018873D03*
X022857Y019868D03*
X024187Y021877D03*
X026900Y022238D03*
X029541Y022500D03*
X034951Y022500D03*
X037669Y020708D03*
X036542Y019076D03*
X037489Y018638D03*
X035381Y019288D03*
X036951Y016424D03*
X037785Y014508D03*
X031971Y014003D03*
X031421Y012921D03*
X030238Y012601D03*
X026863Y013715D03*
X024457Y012310D03*
X014151Y019524D03*
X012251Y022024D03*
X008497Y023774D03*
X007251Y024024D03*
X009266Y025756D03*
X036274Y008649D03*
X038918Y006641D03*
X037962Y006321D03*
X040101Y005744D03*
X040481Y006389D03*
X044618Y006223D03*
X060251Y015024D03*
X063451Y015141D03*
X063077Y010617D03*
X062665Y008307D03*
X061730Y019650D03*
X061361Y020018D03*
X061443Y020846D03*
X063877Y020380D03*
X061601Y024079D03*
X061952Y026440D03*
X062551Y027481D03*
X064350Y026324D03*
X056869Y033333D03*
X056427Y035307D03*
D22*
X043551Y024524D03*
X040151Y024524D03*
X035251Y024524D03*
X055051Y015224D03*
X044051Y007924D03*
X041751Y008724D03*
X056951Y007624D03*
X010751Y025324D03*
X010751Y028424D03*
X008851Y034524D03*
X010951Y035824D03*
X008051Y022224D03*
M02*
