G75*
G70*
%OFA0B0*%
%FSLAX24Y24*%
%IPPOS*%
%LPD*%
%AMOC8*
5,1,8,0,0,1.08239X$1,22.5*
%
%ADD10O,0.0594X0.1187*%
%ADD11C,0.0515*%
%ADD12O,0.1200X0.0600*%
%ADD13R,0.0460X0.0630*%
%ADD14O,0.1040X0.0520*%
%ADD15OC8,0.0560*%
%ADD16C,0.0500*%
%ADD17O,0.0600X0.1200*%
%ADD18C,0.0100*%
%ADD19C,0.0400*%
%ADD20C,0.0090*%
%ADD21C,0.0160*%
%ADD22C,0.0396*%
D10*
X010551Y011524D03*
X011551Y011524D03*
X012551Y011524D03*
X058151Y006824D03*
X059151Y006824D03*
X060151Y006824D03*
D11*
X046951Y006324D03*
X046951Y007324D03*
X046951Y008324D03*
X046951Y010524D03*
X046951Y011524D03*
X046951Y012524D03*
X047651Y016624D03*
X047651Y017624D03*
X047651Y018624D03*
X047451Y020924D03*
X047451Y021924D03*
X047451Y022924D03*
X047351Y026124D03*
X047351Y027124D03*
X047351Y028124D03*
X047251Y030324D03*
X047251Y031324D03*
X047251Y032324D03*
X047151Y035424D03*
X047151Y036424D03*
X047151Y037424D03*
X047151Y039424D03*
X047151Y040424D03*
X047151Y041424D03*
D12*
X048751Y038924D03*
X048751Y037924D03*
X048751Y036924D03*
X048751Y034424D03*
X048751Y033424D03*
X048751Y032424D03*
X053351Y032324D03*
X053351Y033324D03*
X053351Y034324D03*
X053151Y037224D03*
X053151Y038224D03*
X053151Y039224D03*
X025151Y038924D03*
X025151Y037924D03*
X025151Y036924D03*
X025151Y035924D03*
X025151Y034924D03*
X025151Y033924D03*
X025151Y031924D03*
X025151Y030924D03*
X025151Y029924D03*
X025151Y028924D03*
X025151Y027924D03*
X025151Y026924D03*
X006151Y027324D03*
X006151Y026324D03*
X006151Y025324D03*
X006151Y024324D03*
X006151Y023324D03*
X006151Y028324D03*
X006151Y029324D03*
X006151Y030324D03*
X006151Y031924D03*
X006151Y032924D03*
X006151Y033924D03*
X006151Y034924D03*
X006151Y035924D03*
X006151Y036924D03*
X006151Y037924D03*
X006151Y038924D03*
D13*
X021516Y029908D03*
X022116Y029908D03*
X022351Y016124D03*
X022951Y016124D03*
D14*
X027751Y015224D03*
X027751Y014224D03*
X030751Y014224D03*
X030751Y015224D03*
X030851Y006024D03*
X030851Y005024D03*
X027851Y005024D03*
X027851Y006024D03*
X027451Y032824D03*
X027451Y033824D03*
X030451Y033824D03*
X030451Y032824D03*
X030451Y040924D03*
X030451Y041924D03*
X027451Y041924D03*
X027451Y040924D03*
D15*
X064851Y038824D03*
X065851Y038824D03*
X065851Y037824D03*
X064851Y037824D03*
X064851Y036824D03*
X065851Y036824D03*
X065851Y035824D03*
X064851Y035824D03*
X064851Y034824D03*
X065851Y034824D03*
X065851Y033824D03*
X064851Y033824D03*
X064851Y032824D03*
X065851Y032824D03*
X065851Y031824D03*
X064851Y031824D03*
X064851Y030824D03*
X065851Y030824D03*
X065851Y029824D03*
X064851Y029824D03*
X064851Y028824D03*
X065851Y028824D03*
X065851Y027824D03*
X064851Y027824D03*
X064851Y026824D03*
X065851Y026824D03*
X065851Y025824D03*
X064851Y025824D03*
X064851Y024824D03*
X065851Y024824D03*
X065851Y023824D03*
X064851Y023824D03*
X064851Y022824D03*
X065851Y022824D03*
X065851Y021824D03*
X064851Y021824D03*
X064851Y020824D03*
X065851Y020824D03*
X065851Y019824D03*
X064851Y019824D03*
X064851Y018824D03*
X065851Y018824D03*
X065851Y017824D03*
X064851Y017824D03*
X064851Y016824D03*
X065851Y016824D03*
X065851Y015824D03*
X064851Y015824D03*
X064851Y014824D03*
X065851Y014824D03*
X065851Y013824D03*
X064851Y013824D03*
X064851Y012824D03*
X065851Y012824D03*
X065851Y011824D03*
X064851Y011824D03*
X064851Y010824D03*
X065851Y010824D03*
X065851Y009824D03*
X064851Y009824D03*
X064851Y008824D03*
X065851Y008824D03*
X065851Y007824D03*
X064851Y007824D03*
D16*
X007701Y003384D02*
X004701Y003384D01*
X004701Y006384D01*
X004701Y040264D02*
X004701Y043264D01*
X007701Y043264D01*
X065201Y043264D02*
X068201Y043264D01*
X068201Y040264D01*
X068201Y006384D02*
X068201Y003384D01*
X065201Y003384D01*
D17*
X058551Y029724D03*
X057551Y029724D03*
X056551Y029724D03*
X056351Y032124D03*
X057351Y032124D03*
X058351Y032124D03*
D18*
X057581Y032894D01*
X053920Y032894D01*
X053801Y032774D01*
X053351Y032774D01*
X049601Y032774D01*
X049451Y032924D01*
X048309Y032924D01*
X045465Y035768D01*
X039229Y035768D01*
X039045Y035952D01*
X038755Y035952D01*
X038573Y035770D01*
X037320Y035770D01*
X037216Y035667D01*
X029977Y035667D01*
X029781Y035470D01*
X029781Y033824D01*
X030451Y033824D01*
X029781Y033157D02*
X027963Y034974D01*
X026137Y034974D01*
X025593Y034430D01*
X023909Y034430D01*
X023849Y034490D01*
X023909Y034430D02*
X023617Y034138D01*
X023617Y029392D01*
X023762Y029248D01*
X023762Y028186D01*
X023557Y027981D01*
X023157Y027981D01*
X021157Y025981D01*
X020751Y026024D02*
X020557Y026002D01*
X020751Y026024D02*
X020751Y026524D01*
X020851Y026504D01*
X020751Y027024D02*
X020251Y027024D01*
X020251Y026524D01*
X020751Y027024D02*
X020751Y028024D01*
X023872Y027081D02*
X024499Y026454D01*
X025620Y026454D01*
X025946Y026780D01*
X025946Y026899D01*
X027681Y028635D01*
X030630Y028635D01*
X032586Y028037D02*
X032876Y027746D01*
X038050Y027746D01*
X038217Y027580D01*
X060317Y027580D01*
X064072Y023824D01*
X064851Y023824D01*
X065851Y023824D01*
X065985Y024349D02*
X064101Y024349D01*
X064096Y024824D02*
X060359Y028561D01*
X047896Y028561D01*
X047721Y028736D01*
X044251Y028736D01*
X041002Y031984D01*
X029751Y031984D01*
X029656Y031889D01*
X030187Y031444D02*
X030187Y030922D01*
X030365Y030744D01*
X028951Y030524D02*
X027951Y030524D01*
X027851Y030624D01*
X025651Y029724D02*
X025151Y029924D01*
X025251Y030024D01*
X025251Y031024D01*
X025151Y030924D01*
X025651Y029724D02*
X025651Y029424D01*
X025951Y029124D01*
X025951Y028424D01*
X025851Y028424D01*
X026717Y027176D02*
X030378Y027176D01*
X032247Y025307D01*
X056574Y025307D01*
X061093Y020787D01*
X061093Y020701D01*
X061298Y020496D01*
X061384Y020496D01*
X064421Y017460D01*
X064421Y015640D01*
X064806Y015254D01*
X064851Y015254D01*
X064851Y014824D01*
X065851Y014824D01*
X065851Y013824D02*
X064851Y013824D01*
X032150Y013824D01*
X031971Y014003D01*
X031649Y013149D02*
X050951Y013149D01*
X050062Y010944D02*
X050755Y010252D01*
X063493Y010252D01*
X064066Y010824D01*
X064851Y010824D01*
X065851Y010824D01*
X065851Y009824D02*
X064851Y009824D01*
X065851Y009824D02*
X065851Y009394D01*
X065904Y009394D01*
X066285Y009014D01*
X066285Y008644D01*
X065895Y008254D01*
X065851Y008254D01*
X065851Y008039D01*
X065851Y007824D01*
X065851Y008039D02*
X065496Y008039D01*
X065281Y007824D01*
X064851Y007824D01*
X064001Y007824D01*
X062693Y007190D02*
X062307Y007577D01*
X058959Y007577D01*
X058597Y007216D01*
X058597Y006824D01*
X058151Y006824D01*
X058939Y007036D02*
X058939Y007274D01*
X058939Y007036D02*
X059151Y006824D01*
X062693Y007190D02*
X066126Y007190D01*
X066857Y007921D01*
X066857Y036818D01*
X065851Y037824D01*
X064851Y037824D01*
X064421Y037824D01*
X061589Y040656D01*
X052751Y040656D01*
X053589Y039747D02*
X053917Y039419D01*
X053917Y038047D01*
X053544Y037674D01*
X053151Y037674D01*
X053151Y037224D01*
X053151Y038224D02*
X053151Y038674D01*
X049226Y038674D01*
X048751Y039149D01*
X048751Y039374D01*
X048701Y039424D01*
X047151Y039424D01*
X048751Y039149D02*
X048751Y038924D01*
X049620Y039747D02*
X053589Y039747D01*
X049969Y041009D02*
X049779Y040819D01*
X049969Y041009D02*
X062236Y041009D01*
X064421Y038824D01*
X064851Y038824D01*
X065851Y038824D01*
X065851Y036824D02*
X064851Y036824D01*
X064101Y033374D02*
X064101Y032574D01*
X064851Y031824D01*
X064851Y030824D02*
X065851Y030824D01*
X061952Y026440D02*
X060031Y028361D01*
X047813Y028361D01*
X047639Y028536D01*
X044168Y028536D01*
X042680Y030024D01*
X033494Y030024D01*
X031121Y032824D02*
X030451Y032824D01*
X029781Y032824D01*
X029781Y033157D01*
X028777Y033665D02*
X028193Y034249D01*
X026878Y034249D01*
X025108Y032480D01*
X023972Y032480D01*
X026064Y035424D02*
X027679Y035424D01*
X029505Y037250D01*
X029876Y037549D02*
X026550Y040874D01*
X027190Y041514D01*
X029370Y041514D01*
X029781Y041924D01*
X030451Y041924D01*
X030451Y040924D02*
X031121Y040924D01*
X031121Y037671D01*
X030825Y037375D01*
X029876Y037549D02*
X029876Y035768D01*
X029977Y035667D01*
X031213Y032917D02*
X048033Y032917D01*
X048751Y032199D01*
X049707Y031243D01*
X055975Y031243D01*
X057101Y030118D01*
X057101Y029724D01*
X057551Y029724D01*
X058106Y031369D02*
X058545Y031369D01*
X059486Y032310D01*
X059486Y034145D01*
X056869Y033333D02*
X056428Y033774D01*
X048751Y033774D01*
X048457Y033774D01*
X047986Y034245D01*
X047986Y035710D01*
X048751Y036474D01*
X048751Y036924D01*
X047151Y035424D02*
X047051Y035224D01*
X047051Y035124D01*
X048751Y033774D02*
X048751Y033424D01*
X048751Y032424D02*
X048751Y032199D01*
X053351Y032324D02*
X053351Y032774D01*
X057351Y032124D02*
X058106Y031369D01*
X060174Y025507D02*
X033141Y025507D01*
X031554Y027094D01*
X028875Y026748D02*
X028323Y026196D01*
X023631Y026196D01*
X024251Y025824D02*
X023351Y024924D01*
X022351Y024924D01*
X017051Y019624D01*
X017051Y017124D01*
X015951Y017124D01*
X012951Y014124D01*
X012551Y014124D01*
X012351Y013924D01*
X012351Y012024D01*
X012551Y011524D01*
X018417Y007758D02*
X019380Y007758D01*
X019380Y012217D01*
X019754Y012591D01*
X021751Y010524D02*
X021974Y010524D01*
X021751Y010524D02*
X021751Y008024D01*
X026251Y008024D01*
X028751Y010524D01*
X030114Y010356D02*
X027516Y007758D01*
X027166Y007758D01*
X027166Y004842D01*
X027393Y004614D01*
X029770Y004614D01*
X030181Y005024D01*
X030851Y005024D01*
X027166Y007758D02*
X019380Y007758D01*
X022424Y008779D02*
X022424Y010994D01*
X024381Y012951D01*
X024381Y016274D01*
X022929Y017726D01*
X026054Y016606D02*
X026449Y016211D01*
X029885Y016211D01*
X030081Y015407D02*
X030953Y016279D01*
X032159Y016279D01*
X032312Y016431D01*
X032312Y016648D01*
X032089Y016871D01*
X032089Y018212D01*
X032324Y018446D01*
X035412Y018446D01*
X035574Y018284D01*
X040692Y018284D01*
X040823Y018415D01*
X040624Y019267D02*
X041177Y019267D01*
X041221Y019311D01*
X061391Y019311D01*
X061730Y019650D01*
X061909Y020380D02*
X061443Y020846D01*
X061909Y020380D02*
X063877Y020380D01*
X064416Y020005D02*
X064416Y019259D01*
X064851Y018824D01*
X065851Y018824D01*
X065851Y019824D02*
X064851Y019824D01*
X064416Y020005D02*
X064851Y020439D01*
X064851Y020824D01*
X065851Y020824D01*
X065851Y022824D02*
X064851Y022824D01*
X065985Y024349D02*
X066291Y024656D01*
X066291Y025219D01*
X065851Y025659D01*
X065851Y025824D01*
X065421Y025824D01*
X065206Y025609D01*
X064851Y025609D01*
X064851Y025824D01*
X064851Y024824D02*
X064096Y024824D01*
X064851Y024824D02*
X065851Y024824D01*
X061601Y024079D02*
X060174Y025507D01*
X053251Y023124D02*
X053251Y023024D01*
X053054Y023174D01*
X050804Y020924D01*
X047451Y020924D01*
X049717Y021988D02*
X050142Y022413D01*
X050142Y023985D01*
X049570Y024557D01*
X048788Y024557D01*
X043416Y027937D02*
X042651Y028702D01*
X041075Y028702D01*
X031213Y032917D02*
X031121Y032824D01*
X036907Y036119D02*
X037021Y036233D01*
X038111Y036233D01*
X037543Y035230D02*
X037543Y035074D01*
X043665Y037664D02*
X044015Y037314D01*
X045848Y037314D01*
X048551Y040816D02*
X049620Y039747D01*
X030623Y039570D02*
X029797Y038744D01*
X029176Y038744D01*
X026550Y040874D02*
X022900Y040874D01*
X022071Y040045D01*
X016551Y036624D02*
X016451Y036624D01*
X015651Y035824D01*
X017152Y022756D02*
X017251Y022524D01*
X016751Y022024D01*
X012251Y022024D01*
X014151Y019524D02*
X015451Y020824D01*
X017151Y020824D01*
X017151Y020924D01*
X018451Y022224D01*
X017593Y022315D02*
X017152Y022756D01*
X026316Y017552D02*
X027812Y019047D01*
X029912Y019047D01*
X030751Y018524D02*
X030751Y018434D01*
X030801Y018484D02*
X030963Y018646D01*
X030751Y018524D01*
X030963Y018646D02*
X037480Y018646D01*
X037489Y018638D01*
X037003Y019446D02*
X036790Y019658D01*
X031916Y019658D01*
X031495Y019237D01*
X031356Y017232D02*
X030817Y017232D01*
X031356Y017232D02*
X032089Y016499D01*
X032751Y016524D02*
X032751Y017524D01*
X030081Y015407D02*
X030081Y014224D01*
X030751Y014224D01*
X031649Y013149D02*
X031421Y012921D01*
X031390Y012951D01*
X024381Y012951D01*
X026863Y013715D02*
X027060Y013518D01*
X062727Y013518D01*
X064421Y011824D01*
X064851Y011824D01*
X065851Y011824D01*
X065851Y012824D02*
X064851Y012824D01*
X064851Y015824D02*
X065851Y015824D01*
X065851Y016824D02*
X064851Y016824D01*
X063886Y009359D02*
X064421Y008824D01*
X064851Y008824D01*
X065851Y008824D01*
X063886Y009359D02*
X030170Y009359D01*
X029411Y008600D01*
X030976Y010421D02*
X030819Y010577D01*
X033409Y010615D02*
X033739Y010944D01*
X050062Y010944D01*
X052143Y007274D02*
X051193Y006324D01*
X046951Y006324D01*
X052150Y016674D02*
X052150Y016815D01*
X052341Y017007D01*
X040624Y019267D02*
X040445Y019446D01*
X037003Y019446D01*
D19*
X036542Y019076D03*
X037489Y018638D03*
X035381Y019288D03*
X037669Y020708D03*
X034951Y022500D03*
X035446Y025857D03*
X035052Y026443D03*
X037344Y027289D03*
X038441Y028120D03*
X039064Y028686D03*
X040626Y028346D03*
X041075Y028702D03*
X041050Y029585D03*
X042154Y027993D03*
X042658Y027996D03*
X043416Y027937D03*
X044613Y026318D03*
X041214Y025923D03*
X040751Y026436D03*
X040481Y025923D03*
X039648Y025868D03*
X038654Y026443D03*
X035981Y028419D03*
X033494Y030024D03*
X030630Y028635D03*
X030448Y029226D03*
X028951Y030524D03*
X027851Y030624D03*
X028114Y031766D03*
X029656Y031889D03*
X030187Y031444D03*
X030365Y030744D03*
X026298Y031988D03*
X023972Y032480D03*
X023849Y034490D03*
X021597Y034790D03*
X020097Y034016D03*
X019592Y034021D03*
X019072Y034030D03*
X015651Y035824D03*
X016551Y036624D03*
X014232Y037414D03*
X019491Y038434D03*
X022071Y040045D03*
X026530Y038092D03*
X027075Y036258D03*
X026064Y035424D03*
X026419Y034622D03*
X028777Y033665D03*
X030246Y035317D03*
X030231Y036158D03*
X029505Y037250D03*
X030825Y037375D03*
X032389Y037166D03*
X029176Y038744D03*
X030623Y039570D03*
X036371Y038372D03*
X037162Y037687D03*
X037985Y038443D03*
X038560Y037712D03*
X039699Y037089D03*
X040732Y036844D03*
X040731Y037911D03*
X040629Y038535D03*
X041596Y038288D03*
X042221Y037317D03*
X043665Y037664D03*
X045848Y037314D03*
X046508Y039393D03*
X045855Y040425D03*
X043401Y039498D03*
X043350Y041527D03*
X040849Y041519D03*
X039527Y040684D03*
X037066Y039996D03*
X036907Y036119D03*
X037543Y035230D03*
X038111Y036233D03*
X038900Y035602D03*
X041890Y036118D03*
X039554Y032567D03*
X041753Y032305D03*
X042916Y031795D03*
X047990Y029231D03*
X054019Y025882D03*
X053201Y024104D03*
X054528Y023218D03*
X055900Y023604D03*
X057767Y023616D03*
X058532Y022446D03*
X057879Y022293D03*
X054800Y020695D03*
X052702Y020782D03*
X049717Y021988D03*
X049290Y022676D03*
X048986Y021786D03*
X049792Y023827D03*
X048788Y024557D03*
X040900Y019621D03*
X040366Y018760D03*
X040823Y018415D03*
X040226Y017752D03*
X042412Y017986D03*
X043351Y016724D03*
X044841Y018738D03*
X051451Y015545D03*
X052341Y017007D03*
X050951Y013149D03*
X047843Y010048D03*
X045050Y009900D03*
X040459Y012286D03*
X038851Y010402D03*
X036648Y010259D03*
X034260Y010282D03*
X033759Y010250D03*
X033409Y010615D03*
X031622Y009709D03*
X030114Y010356D03*
X029411Y008600D03*
X026495Y009392D03*
X022424Y008779D03*
X020244Y008138D03*
X020751Y007024D03*
X018417Y007758D03*
X016059Y007493D03*
X019730Y011901D03*
X019754Y012591D03*
X017860Y013790D03*
X016851Y014660D03*
X017767Y015935D03*
X018798Y016325D03*
X016051Y016691D03*
X019251Y018524D03*
X018113Y019735D03*
X017151Y020824D03*
X018451Y022224D03*
X017152Y022756D03*
X015153Y024284D03*
X014245Y024629D03*
X015002Y025524D03*
X016118Y026810D03*
X019748Y027263D03*
X020251Y026524D03*
X021157Y025981D03*
X021984Y025542D03*
X023631Y026196D03*
X024251Y025824D03*
X023872Y027081D03*
X023412Y028331D03*
X022539Y028667D03*
X025851Y028424D03*
X026717Y027176D03*
X027541Y025618D03*
X026435Y024670D03*
X028875Y026748D03*
X031554Y027094D03*
X032057Y027188D03*
X032586Y028037D03*
X029541Y022500D03*
X026900Y022238D03*
X024187Y021877D03*
X022857Y019868D03*
X025780Y018873D03*
X025655Y017551D03*
X026316Y017552D03*
X026054Y016606D03*
X028921Y016804D03*
X029885Y016211D03*
X032751Y017524D03*
X032449Y018077D03*
X031495Y019237D03*
X029912Y019047D03*
X022929Y017726D03*
X019324Y020874D03*
X020336Y021976D03*
X020154Y023453D03*
X014151Y019524D03*
X012251Y022024D03*
X008497Y023774D03*
X007251Y024024D03*
X009266Y025756D03*
X014260Y029890D03*
X017917Y030713D03*
X014072Y033976D03*
X032251Y033524D03*
X048551Y040816D03*
X049779Y040819D03*
X052751Y040656D03*
X056442Y039535D03*
X057544Y039522D03*
X059244Y039320D03*
X060068Y037891D03*
X059321Y036420D03*
X060745Y035265D03*
X060506Y034757D03*
X063028Y033871D03*
X061827Y031533D03*
X061222Y029537D03*
X059756Y028911D03*
X062551Y027481D03*
X061952Y026440D03*
X064350Y026324D03*
X061601Y024079D03*
X061443Y020846D03*
X061361Y020018D03*
X061730Y019650D03*
X063877Y020380D03*
X063451Y015141D03*
X060251Y015024D03*
X063077Y010617D03*
X062665Y008307D03*
X044618Y006223D03*
X040481Y006389D03*
X040101Y005744D03*
X038918Y006641D03*
X037962Y006321D03*
X036274Y008649D03*
X030238Y012601D03*
X031421Y012921D03*
X031971Y014003D03*
X036951Y016424D03*
X037785Y014508D03*
X026863Y013715D03*
X024457Y012310D03*
X056869Y033333D03*
X056427Y035307D03*
D20*
X056978Y034757D01*
X060506Y034757D01*
X060745Y035265D02*
X066008Y035265D01*
X066283Y034991D01*
X066283Y030626D01*
X065897Y030239D01*
X065851Y030239D01*
X065851Y029824D01*
X064851Y029824D01*
X065851Y029239D02*
X065851Y028824D01*
X064851Y028824D01*
X065851Y029239D02*
X065894Y029239D01*
X066463Y029809D01*
X066463Y035828D01*
X065903Y036388D01*
X059839Y036388D01*
X059807Y036420D01*
X056692Y039535D01*
X056442Y039535D01*
X057544Y039522D02*
X059175Y037891D01*
X060068Y037891D01*
X061236Y037328D02*
X059244Y039320D01*
X061236Y037328D02*
X065981Y037328D01*
X066656Y036653D01*
X066656Y028993D01*
X065902Y028239D01*
X065851Y028239D01*
X065851Y027824D01*
X064851Y027824D01*
X064851Y026824D02*
X065851Y026824D01*
X065851Y026409D01*
X065894Y026409D01*
X066486Y025817D01*
X066486Y007848D01*
X066035Y007397D01*
X063575Y007397D01*
X062665Y008307D01*
X052900Y008307D01*
X051397Y006804D01*
X039082Y006804D01*
X038918Y006641D01*
X037962Y006321D02*
X037848Y006436D01*
X028927Y006436D01*
X028516Y006024D01*
X027851Y006024D01*
X028516Y005024D02*
X028921Y005429D01*
X039299Y005429D01*
X040258Y006389D01*
X040481Y006389D01*
X040101Y005744D02*
X044139Y005744D01*
X044618Y006223D01*
X045018Y009868D02*
X045050Y009900D01*
X045018Y009868D02*
X034675Y009868D01*
X034260Y010282D01*
X034118Y010627D02*
X033759Y010269D01*
X033759Y010250D01*
X034118Y010627D02*
X038625Y010627D01*
X038851Y010402D01*
X036859Y010048D02*
X036648Y010259D01*
X036859Y010048D02*
X044710Y010048D01*
X044907Y010245D01*
X045193Y010245D01*
X045390Y010048D01*
X047843Y010048D01*
X040725Y012019D02*
X061674Y012019D01*
X063077Y010617D01*
X063929Y010324D02*
X065962Y010324D01*
X066303Y010665D01*
X066303Y022984D01*
X066036Y023251D01*
X064671Y023251D01*
X064420Y023000D01*
X064420Y022636D01*
X064807Y022249D01*
X064851Y022249D01*
X064851Y021824D01*
X065851Y021824D01*
X064222Y021965D02*
X059469Y026719D01*
X040957Y026719D01*
X040880Y026795D01*
X033324Y026795D01*
X031328Y028791D01*
X031328Y028852D01*
X028414Y031766D01*
X028114Y031766D01*
X028116Y032214D02*
X028116Y032824D01*
X027451Y032824D01*
X027036Y033249D02*
X026298Y032511D01*
X026298Y031988D01*
X026916Y031068D02*
X028061Y032214D01*
X028116Y032214D01*
X028726Y032214D01*
X029401Y031539D01*
X029794Y031539D01*
X030044Y031789D01*
X030329Y031789D01*
X034141Y027977D01*
X038096Y027977D01*
X038298Y027775D01*
X041936Y027775D01*
X042154Y027993D01*
X042307Y028346D02*
X042658Y027996D01*
X042307Y028346D02*
X040626Y028346D01*
X039585Y028120D02*
X038441Y028120D01*
X039064Y028686D02*
X036248Y028686D01*
X035981Y028419D01*
X037344Y027289D02*
X047186Y027289D01*
X047351Y027124D01*
X044834Y026539D02*
X044613Y026318D01*
X044834Y026539D02*
X053362Y026539D01*
X054019Y025882D01*
X053201Y024104D02*
X050739Y021643D01*
X049129Y021643D01*
X048986Y021786D01*
X049421Y022317D02*
X049792Y022688D01*
X049792Y023827D01*
X049290Y022676D02*
X049114Y022500D01*
X034951Y022500D01*
X029541Y022500D01*
X028918Y021877D01*
X024187Y021877D01*
X020434Y021877D01*
X020336Y021976D01*
X019809Y022906D02*
X019809Y023869D01*
X023546Y027606D01*
X024087Y027606D01*
X024406Y027924D01*
X025151Y027924D01*
X025589Y027426D02*
X026916Y028753D01*
X026916Y031068D01*
X028101Y033249D02*
X029116Y032234D01*
X029799Y032234D01*
X029822Y032211D01*
X041753Y032211D01*
X041753Y032305D01*
X041753Y032211D02*
X045006Y028958D01*
X047775Y028958D01*
X047847Y028886D01*
X059191Y028886D01*
X060201Y029896D01*
X061624Y029896D01*
X062466Y029053D01*
X064812Y031399D01*
X065027Y031399D01*
X065276Y031648D01*
X065276Y032000D01*
X065027Y032249D01*
X064831Y032249D01*
X064424Y032657D01*
X064424Y034034D01*
X064799Y034409D01*
X064851Y034409D01*
X064851Y034824D01*
X065851Y034824D01*
X065851Y033824D02*
X064851Y033824D01*
X064851Y032824D02*
X065851Y032824D01*
X063028Y033871D02*
X061827Y032670D01*
X061827Y031533D01*
X061222Y029537D02*
X061222Y028306D01*
X062704Y026824D01*
X064851Y026824D01*
X064350Y026324D02*
X062938Y026324D01*
X060351Y028911D01*
X059756Y028911D01*
X062466Y029053D02*
X062466Y027566D01*
X062551Y027481D01*
X057767Y023616D02*
X057424Y023960D01*
X053564Y023960D01*
X051035Y021431D01*
X038392Y021431D01*
X037669Y020708D01*
X037522Y020361D02*
X037314Y020569D01*
X037314Y020854D01*
X038777Y022317D01*
X049421Y022317D01*
X052280Y020361D02*
X037522Y020361D01*
X037176Y020171D02*
X036474Y020874D01*
X019324Y020874D01*
X018113Y019735D02*
X021575Y019735D01*
X027086Y014224D01*
X027751Y014224D01*
X027751Y015224D02*
X026948Y015224D01*
X025559Y016614D01*
X025835Y016890D01*
X022857Y019868D01*
X025780Y018873D02*
X026941Y020033D01*
X036946Y020033D01*
X037009Y019970D01*
X056056Y019970D01*
X058532Y022446D01*
X057879Y022293D02*
X055757Y020171D01*
X037176Y020171D01*
X036871Y019853D02*
X037084Y019641D01*
X040900Y019641D01*
X060983Y019641D01*
X061361Y020018D01*
X064201Y020216D02*
X064201Y018855D01*
X064807Y018249D01*
X064851Y018249D01*
X064851Y017824D01*
X065851Y017824D01*
X064201Y020216D02*
X064222Y020237D01*
X064222Y021965D01*
X054800Y020695D02*
X054528Y020967D01*
X054528Y023218D01*
X052702Y020782D02*
X052280Y020361D01*
X047651Y017624D02*
X046180Y019095D01*
X041280Y019095D01*
X041242Y019056D01*
X040559Y019056D01*
X040483Y019132D01*
X036598Y019132D01*
X036542Y019076D01*
X036871Y019853D02*
X027957Y019853D01*
X025655Y017551D01*
X025914Y016969D02*
X028322Y016969D01*
X030232Y018879D01*
X034972Y018879D01*
X035381Y019288D01*
X032449Y018077D02*
X039901Y018077D01*
X040226Y017752D01*
X040337Y017641D01*
X043743Y017641D01*
X044841Y018738D01*
X042412Y017986D02*
X041637Y018760D01*
X040366Y018760D01*
X040900Y019621D02*
X040900Y019641D01*
X037785Y014508D02*
X031868Y014508D01*
X031180Y013819D01*
X029821Y013819D01*
X028416Y015224D01*
X027751Y015224D01*
X025914Y016969D02*
X025835Y016890D01*
X024747Y012601D02*
X030238Y012601D01*
X029358Y012256D02*
X040429Y012256D01*
X040459Y012286D01*
X040725Y012019D01*
X031777Y009555D02*
X063160Y009555D01*
X063929Y010324D01*
X041214Y025923D02*
X040751Y026386D01*
X040751Y026436D01*
X040481Y025923D02*
X040178Y026225D01*
X039462Y026225D01*
X039334Y026098D01*
X035693Y026098D01*
X035589Y026202D01*
X035303Y026202D01*
X035199Y026098D01*
X033742Y026098D01*
X030614Y029226D01*
X030448Y029226D01*
X032057Y027188D02*
X033376Y025868D01*
X035446Y025868D01*
X039648Y025868D01*
X038654Y026443D02*
X035052Y026443D01*
X035446Y025868D02*
X035446Y025857D01*
X039585Y028120D02*
X041050Y029585D01*
X042916Y031795D02*
X045481Y029231D01*
X047990Y029231D01*
X039554Y032567D02*
X039407Y032419D01*
X029521Y032419D01*
X028116Y033824D01*
X027451Y033824D01*
X027036Y033249D02*
X028101Y033249D01*
X030246Y035317D02*
X037142Y035317D01*
X037400Y035575D01*
X038873Y035575D01*
X038900Y035602D01*
X040154Y036118D02*
X038560Y037712D01*
X038013Y037166D01*
X032389Y037166D01*
X031760Y037687D02*
X030231Y036158D01*
X031760Y037687D02*
X037162Y037687D01*
X036686Y038057D02*
X036371Y038372D01*
X036686Y038057D02*
X038731Y038057D01*
X039699Y037089D01*
X040209Y036901D02*
X040209Y036511D01*
X040389Y036331D01*
X041235Y036331D01*
X042221Y037317D01*
X041246Y036844D02*
X040732Y036844D01*
X041246Y036844D02*
X043746Y039344D01*
X043746Y039641D01*
X043544Y039844D01*
X042057Y039844D01*
X041839Y039626D01*
X034209Y039626D01*
X032485Y041351D01*
X029673Y041351D01*
X029247Y040924D01*
X027451Y040924D01*
X023882Y042345D02*
X021717Y040181D01*
X021717Y039879D01*
X023218Y038378D01*
X026243Y038378D01*
X026530Y038092D01*
X025964Y037369D02*
X024666Y037369D01*
X023412Y036115D01*
X023412Y028331D01*
X023472Y027786D02*
X023637Y027786D01*
X024406Y028554D01*
X024406Y028924D01*
X025151Y028924D01*
X023472Y027786D02*
X017306Y021621D01*
X013830Y021621D01*
X010551Y018341D01*
X010551Y011524D01*
X010092Y011035D02*
X010361Y010766D01*
X014836Y010766D01*
X017860Y013790D01*
X017416Y014234D01*
X017416Y019548D01*
X022538Y024670D01*
X026435Y024670D01*
X026900Y024978D02*
X027541Y025618D01*
X026900Y024978D02*
X026900Y022238D01*
X021984Y025542D02*
X021984Y025704D01*
X023706Y027426D01*
X025589Y027426D01*
X020295Y027811D02*
X019748Y027263D01*
X016571Y027263D01*
X016118Y026810D01*
X015347Y027005D02*
X020097Y031754D01*
X020097Y034016D01*
X019592Y034021D02*
X019592Y031630D01*
X015002Y027040D01*
X015002Y025524D01*
X014245Y024629D02*
X014245Y026553D01*
X019072Y031381D01*
X019072Y034030D01*
X020295Y033488D02*
X020295Y027811D01*
X017917Y030713D02*
X010092Y022888D01*
X010092Y011035D01*
X011551Y011524D02*
X011551Y014648D01*
X019809Y022906D01*
X015347Y024479D02*
X015347Y027005D01*
X015347Y024479D02*
X015153Y024284D01*
X009266Y025756D02*
X006896Y028126D01*
X006896Y028324D01*
X006151Y028324D01*
X006151Y025324D02*
X006896Y025324D01*
X008446Y023774D01*
X008497Y023774D01*
X018408Y015935D02*
X018798Y016325D01*
X018408Y015935D02*
X017767Y015935D01*
X024457Y012310D02*
X024747Y012601D01*
X026495Y009392D02*
X029358Y012256D01*
X031622Y009709D02*
X031777Y009555D01*
X028516Y005024D02*
X027851Y005024D01*
X020295Y033488D02*
X021597Y034790D01*
X025964Y037369D02*
X027075Y036258D01*
X032047Y042345D02*
X034043Y040349D01*
X043316Y040349D01*
X043350Y040383D01*
X043350Y041527D01*
X043931Y041874D02*
X046413Y039393D01*
X046508Y039393D01*
X045855Y040425D02*
X046447Y041016D01*
X047363Y041016D01*
X047526Y041179D01*
X048676Y041179D01*
X049913Y039942D01*
X054262Y039942D01*
X058120Y036085D01*
X059472Y036085D01*
X059807Y036420D01*
X059321Y036420D02*
X058039Y036420D01*
X054241Y040219D01*
X049891Y040219D01*
X048054Y042055D01*
X040866Y042055D01*
X039527Y040715D01*
X039527Y040684D01*
X040849Y041519D02*
X041204Y041874D01*
X043931Y041874D01*
X043350Y040383D02*
X045029Y040383D01*
X047987Y037424D01*
X049191Y037424D01*
X050791Y035824D01*
X064851Y035824D01*
X065851Y035824D01*
X047151Y036424D02*
X047151Y036505D01*
X043631Y040024D01*
X037093Y040024D01*
X037066Y039996D01*
X037985Y038443D02*
X040537Y038443D01*
X040629Y038535D01*
X040731Y037911D02*
X042318Y039498D01*
X043401Y039498D01*
X041596Y038288D02*
X040209Y036901D01*
X040154Y036118D02*
X041890Y036118D01*
X032047Y042345D02*
X023882Y042345D01*
D21*
X022714Y041524D02*
X021472Y040282D01*
X021472Y040079D01*
X021472Y039980D01*
X021472Y039777D01*
X022973Y038277D01*
X023116Y038133D01*
X023951Y038133D01*
X023951Y037000D01*
X023310Y036360D01*
X023167Y036216D01*
X023167Y033124D01*
X021351Y033124D01*
X021351Y027924D01*
X020540Y027924D01*
X020540Y033386D01*
X021544Y034390D01*
X021677Y034390D01*
X021824Y034451D01*
X021936Y034563D01*
X021997Y034710D01*
X021997Y034869D01*
X021936Y035016D01*
X021824Y035129D01*
X021677Y035190D01*
X021518Y035190D01*
X021371Y035129D01*
X021258Y035016D01*
X021197Y034869D01*
X021197Y034736D01*
X020497Y034036D01*
X020497Y034095D01*
X020436Y034242D01*
X020324Y034355D01*
X020177Y034416D01*
X020017Y034416D01*
X019870Y034355D01*
X019847Y034332D01*
X019819Y034360D01*
X019672Y034421D01*
X019513Y034421D01*
X019366Y034360D01*
X019337Y034331D01*
X019299Y034369D01*
X019152Y034430D01*
X018993Y034430D01*
X018846Y034369D01*
X018733Y034257D01*
X018672Y034110D01*
X018672Y033951D01*
X018733Y033804D01*
X018827Y033710D01*
X018827Y031482D01*
X018264Y030919D01*
X018256Y030940D01*
X018143Y031052D01*
X018017Y031104D01*
X018017Y033210D01*
X017736Y033491D01*
X015905Y033491D01*
X015624Y033210D01*
X015624Y029863D01*
X015905Y029582D01*
X016439Y029582D01*
X012751Y025893D01*
X012751Y039055D01*
X012992Y039296D01*
X013161Y039704D01*
X013161Y040145D01*
X012992Y040553D01*
X012751Y040794D01*
X012751Y041524D01*
X022714Y041524D01*
X022637Y041447D02*
X012751Y041447D01*
X012751Y041289D02*
X022479Y041289D01*
X022320Y041130D02*
X012751Y041130D01*
X012751Y040972D02*
X022162Y040972D01*
X022003Y040813D02*
X012751Y040813D01*
X012890Y040654D02*
X021844Y040654D01*
X021686Y040496D02*
X013015Y040496D01*
X013081Y040337D02*
X021527Y040337D01*
X021472Y040179D02*
X013147Y040179D01*
X013161Y040020D02*
X021472Y040020D01*
X021472Y039862D02*
X013161Y039862D01*
X013160Y039703D02*
X021546Y039703D01*
X021705Y039545D02*
X013095Y039545D01*
X013029Y039386D02*
X021864Y039386D01*
X022022Y039228D02*
X012923Y039228D01*
X012765Y039069D02*
X022181Y039069D01*
X022339Y038910D02*
X012751Y038910D01*
X012751Y038752D02*
X022498Y038752D01*
X022656Y038593D02*
X012751Y038593D01*
X012751Y038435D02*
X022815Y038435D01*
X022973Y038277D02*
X022973Y038277D01*
X022973Y038276D02*
X012751Y038276D01*
X012751Y038118D02*
X023951Y038118D01*
X023951Y037959D02*
X012751Y037959D01*
X012751Y037801D02*
X023951Y037801D01*
X023951Y037642D02*
X012751Y037642D01*
X012751Y037484D02*
X023951Y037484D01*
X023951Y037325D02*
X012751Y037325D01*
X012751Y037166D02*
X023951Y037166D01*
X023951Y037008D02*
X016670Y037008D01*
X016630Y037024D02*
X016471Y037024D01*
X016324Y036963D01*
X016211Y036851D01*
X016151Y036704D01*
X016151Y036678D01*
X015697Y036224D01*
X015571Y036224D01*
X015424Y036163D01*
X015311Y036051D01*
X015251Y035904D01*
X015251Y035745D01*
X015311Y035598D01*
X015424Y035485D01*
X015571Y035424D01*
X015730Y035424D01*
X015877Y035485D01*
X015990Y035598D01*
X016051Y035745D01*
X016051Y035871D01*
X016424Y036244D01*
X016471Y036224D01*
X016630Y036224D01*
X016777Y036285D01*
X016890Y036398D01*
X016951Y036545D01*
X016951Y036704D01*
X016890Y036851D01*
X016777Y036963D01*
X016630Y037024D01*
X016431Y037008D02*
X012751Y037008D01*
X012751Y036849D02*
X016211Y036849D01*
X016151Y036691D02*
X012751Y036691D01*
X012751Y036532D02*
X016005Y036532D01*
X015846Y036374D02*
X012751Y036374D01*
X012751Y036215D02*
X015549Y036215D01*
X015317Y036057D02*
X012751Y036057D01*
X012751Y035898D02*
X015251Y035898D01*
X015253Y035740D02*
X012751Y035740D01*
X012751Y035581D02*
X015328Y035581D01*
X015973Y035581D02*
X023167Y035581D01*
X023167Y035423D02*
X012751Y035423D01*
X012751Y035264D02*
X023167Y035264D01*
X023167Y035105D02*
X021847Y035105D01*
X021965Y034947D02*
X023167Y034947D01*
X023167Y034788D02*
X021997Y034788D01*
X021964Y034630D02*
X023167Y034630D01*
X023167Y034471D02*
X021844Y034471D01*
X021467Y034313D02*
X023167Y034313D01*
X023167Y034154D02*
X021308Y034154D01*
X021149Y033996D02*
X023167Y033996D01*
X023167Y033837D02*
X020991Y033837D01*
X020832Y033679D02*
X023167Y033679D01*
X023167Y033520D02*
X020674Y033520D01*
X020540Y033361D02*
X023167Y033361D01*
X023167Y033203D02*
X020540Y033203D01*
X020540Y033044D02*
X021351Y033044D01*
X021351Y032886D02*
X020540Y032886D01*
X020540Y032727D02*
X021351Y032727D01*
X021351Y032569D02*
X020540Y032569D01*
X020540Y032410D02*
X021351Y032410D01*
X021351Y032252D02*
X020540Y032252D01*
X020540Y032093D02*
X021351Y032093D01*
X021351Y031935D02*
X020540Y031935D01*
X020540Y031776D02*
X021351Y031776D01*
X021351Y031617D02*
X020540Y031617D01*
X020540Y031459D02*
X021351Y031459D01*
X021351Y031300D02*
X020540Y031300D01*
X020540Y031142D02*
X021351Y031142D01*
X021351Y030983D02*
X020540Y030983D01*
X020540Y030825D02*
X021351Y030825D01*
X021351Y030666D02*
X020540Y030666D01*
X020540Y030508D02*
X021351Y030508D01*
X021351Y030349D02*
X020540Y030349D01*
X020540Y030191D02*
X021351Y030191D01*
X021351Y030032D02*
X020540Y030032D01*
X020540Y029874D02*
X021351Y029874D01*
X021351Y029715D02*
X020540Y029715D01*
X020540Y029556D02*
X021351Y029556D01*
X021351Y029398D02*
X020540Y029398D01*
X020540Y029239D02*
X021351Y029239D01*
X021351Y029081D02*
X020540Y029081D01*
X020540Y028922D02*
X021351Y028922D01*
X021351Y028764D02*
X020540Y028764D01*
X020540Y028605D02*
X021351Y028605D01*
X021351Y028447D02*
X020540Y028447D01*
X020540Y028288D02*
X021351Y028288D01*
X021351Y028130D02*
X020540Y028130D01*
X020540Y027971D02*
X021351Y027971D01*
X021851Y027971D02*
X022510Y027971D01*
X022351Y027812D02*
X021851Y027812D01*
X021851Y027654D02*
X022193Y027654D01*
X022034Y027495D02*
X021851Y027495D01*
X021851Y027424D02*
X021201Y027424D01*
X021201Y026838D01*
X020937Y026574D01*
X020851Y026574D01*
X020851Y026504D01*
X021037Y026581D01*
X021120Y026581D01*
X022707Y028168D01*
X022812Y028272D01*
X022812Y028451D01*
X022903Y028671D01*
X022967Y028735D01*
X022967Y032824D01*
X021851Y032824D01*
X021851Y030623D01*
X021912Y030623D01*
X022146Y030389D01*
X022146Y029427D01*
X021912Y029193D01*
X021851Y029193D01*
X021851Y027424D01*
X021876Y027337D02*
X021201Y027337D01*
X021201Y027178D02*
X021717Y027178D01*
X021559Y027020D02*
X021201Y027020D01*
X021201Y026861D02*
X021400Y026861D01*
X021242Y026703D02*
X021065Y026703D01*
X020947Y026544D02*
X020851Y026544D01*
X020557Y026002D02*
X020557Y025862D01*
X020648Y025642D01*
X020673Y025617D01*
X017251Y022194D01*
X017251Y026818D01*
X019344Y026818D01*
X019408Y026755D01*
X019629Y026663D01*
X019659Y026663D01*
X019651Y026644D01*
X019651Y026405D01*
X019742Y026185D01*
X019911Y026016D01*
X020131Y025924D01*
X020370Y025924D01*
X020557Y026002D01*
X020557Y025910D02*
X017251Y025910D01*
X017251Y026068D02*
X019858Y026068D01*
X019724Y026227D02*
X017251Y026227D01*
X017251Y026386D02*
X019659Y026386D01*
X019651Y026544D02*
X017251Y026544D01*
X017251Y026703D02*
X019534Y026703D01*
X020603Y025751D02*
X017251Y025751D01*
X017251Y025593D02*
X020649Y025593D01*
X020490Y025434D02*
X017251Y025434D01*
X017251Y025276D02*
X020332Y025276D01*
X020173Y025117D02*
X017251Y025117D01*
X017251Y024959D02*
X020015Y024959D01*
X019856Y024800D02*
X017251Y024800D01*
X017251Y024642D02*
X019698Y024642D01*
X019539Y024483D02*
X017251Y024483D01*
X017251Y024324D02*
X019381Y024324D01*
X019222Y024166D02*
X017251Y024166D01*
X017251Y024007D02*
X019064Y024007D01*
X018905Y023849D02*
X017251Y023849D01*
X017251Y023690D02*
X018746Y023690D01*
X018588Y023532D02*
X017251Y023532D01*
X017251Y023373D02*
X018429Y023373D01*
X018271Y023215D02*
X017251Y023215D01*
X017251Y023056D02*
X018112Y023056D01*
X017954Y022898D02*
X017251Y022898D01*
X017251Y022739D02*
X017795Y022739D01*
X017637Y022581D02*
X017251Y022581D01*
X017251Y022422D02*
X017478Y022422D01*
X017320Y022263D02*
X017251Y022263D01*
X017661Y018924D02*
X022039Y018924D01*
X022151Y018813D01*
X022151Y015424D01*
X019251Y015424D01*
X019251Y012441D01*
X019130Y012320D01*
X019130Y012113D01*
X019130Y008008D01*
X018732Y008008D01*
X018643Y008097D01*
X018496Y008158D01*
X018337Y008158D01*
X018190Y008097D01*
X018077Y007984D01*
X018017Y007837D01*
X018017Y007678D01*
X018077Y007531D01*
X018190Y007419D01*
X018337Y007358D01*
X018496Y007358D01*
X018643Y007419D01*
X018732Y007508D01*
X019276Y007508D01*
X019483Y007508D01*
X023351Y007508D01*
X023351Y005924D01*
X012751Y005924D01*
X012751Y010521D01*
X014734Y010521D01*
X014937Y010521D01*
X017806Y013390D01*
X017940Y013390D01*
X018087Y013450D01*
X018199Y013563D01*
X018260Y013710D01*
X018260Y013869D01*
X018199Y014016D01*
X018087Y014129D01*
X017940Y014190D01*
X017806Y014190D01*
X017661Y014335D01*
X017661Y015546D01*
X017687Y015535D01*
X017846Y015535D01*
X017994Y015596D01*
X018088Y015690D01*
X018306Y015690D01*
X018509Y015690D01*
X018745Y015925D01*
X018878Y015925D01*
X019025Y015986D01*
X019137Y016099D01*
X019198Y016246D01*
X019198Y016405D01*
X019137Y016552D01*
X019025Y016664D01*
X018878Y016725D01*
X018719Y016725D01*
X018572Y016664D01*
X018459Y016552D01*
X018398Y016405D01*
X018398Y016272D01*
X018306Y016180D01*
X018088Y016180D01*
X017994Y016274D01*
X017846Y016335D01*
X017687Y016335D01*
X017661Y016324D01*
X017661Y018924D01*
X017661Y018775D02*
X022151Y018775D01*
X022151Y018617D02*
X017661Y018617D01*
X017661Y018458D02*
X022151Y018458D01*
X022151Y018300D02*
X017661Y018300D01*
X017661Y018141D02*
X022151Y018141D01*
X022151Y017983D02*
X017661Y017983D01*
X017661Y017824D02*
X022151Y017824D01*
X022151Y017666D02*
X017661Y017666D01*
X017661Y017507D02*
X022151Y017507D01*
X022151Y017349D02*
X017661Y017349D01*
X017661Y017190D02*
X022151Y017190D01*
X022151Y017031D02*
X017661Y017031D01*
X017661Y016873D02*
X022151Y016873D01*
X022151Y016714D02*
X018904Y016714D01*
X018692Y016714D02*
X017661Y016714D01*
X017661Y016556D02*
X018463Y016556D01*
X018398Y016397D02*
X017661Y016397D01*
X018029Y016239D02*
X018365Y016239D01*
X018741Y015922D02*
X022151Y015922D01*
X022151Y016080D02*
X019119Y016080D01*
X019195Y016239D02*
X022151Y016239D01*
X022151Y016397D02*
X019198Y016397D01*
X019133Y016556D02*
X022151Y016556D01*
X022751Y016835D02*
X022751Y017151D01*
X022809Y017126D01*
X022892Y017126D01*
X023931Y016088D01*
X023931Y013137D01*
X022237Y011444D01*
X021974Y011180D01*
X021974Y010524D01*
X019830Y010524D01*
X019830Y011991D01*
X019873Y011991D01*
X020094Y012082D01*
X020262Y012251D01*
X020354Y012472D01*
X020354Y012710D01*
X020262Y012931D01*
X020094Y013100D01*
X019873Y013191D01*
X019751Y013191D01*
X019751Y014924D01*
X021951Y014924D01*
X021951Y015024D01*
X022751Y015024D01*
X022751Y015414D01*
X022981Y015644D01*
X022981Y016605D01*
X022751Y016835D01*
X022751Y016873D02*
X023145Y016873D01*
X022987Y017031D02*
X022751Y017031D01*
X022871Y016714D02*
X023304Y016714D01*
X023462Y016556D02*
X022981Y016556D01*
X022981Y016397D02*
X023621Y016397D01*
X023780Y016239D02*
X022981Y016239D01*
X022981Y016080D02*
X023931Y016080D01*
X023931Y015922D02*
X022981Y015922D01*
X022981Y015763D02*
X023931Y015763D01*
X023931Y015605D02*
X022941Y015605D01*
X022783Y015446D02*
X023931Y015446D01*
X023931Y015288D02*
X022751Y015288D01*
X022751Y015129D02*
X023931Y015129D01*
X023931Y014970D02*
X021951Y014970D01*
X022151Y015446D02*
X017661Y015446D01*
X017661Y015288D02*
X019251Y015288D01*
X019251Y015129D02*
X017661Y015129D01*
X017661Y014970D02*
X019251Y014970D01*
X019251Y014812D02*
X017661Y014812D01*
X017661Y014653D02*
X019251Y014653D01*
X019251Y014495D02*
X017661Y014495D01*
X017661Y014336D02*
X019251Y014336D01*
X019251Y014178D02*
X017968Y014178D01*
X018196Y014019D02*
X019251Y014019D01*
X019251Y013861D02*
X018260Y013861D01*
X018257Y013702D02*
X019251Y013702D01*
X019251Y013544D02*
X018180Y013544D01*
X017802Y013385D02*
X019251Y013385D01*
X019251Y013226D02*
X017643Y013226D01*
X017485Y013068D02*
X019251Y013068D01*
X019251Y012909D02*
X017326Y012909D01*
X017168Y012751D02*
X019251Y012751D01*
X019251Y012592D02*
X017009Y012592D01*
X016851Y012434D02*
X019243Y012434D01*
X019130Y012275D02*
X016692Y012275D01*
X016534Y012117D02*
X019130Y012117D01*
X019130Y011958D02*
X016375Y011958D01*
X016216Y011800D02*
X019130Y011800D01*
X019130Y011641D02*
X016058Y011641D01*
X015899Y011482D02*
X019130Y011482D01*
X019130Y011324D02*
X015741Y011324D01*
X015582Y011165D02*
X019130Y011165D01*
X019130Y011007D02*
X015424Y011007D01*
X015265Y010848D02*
X019130Y010848D01*
X019130Y010690D02*
X015107Y010690D01*
X014948Y010531D02*
X019130Y010531D01*
X019130Y010373D02*
X012751Y010373D01*
X012751Y010214D02*
X019130Y010214D01*
X019130Y010056D02*
X012751Y010056D01*
X012751Y009897D02*
X019130Y009897D01*
X019130Y009739D02*
X012751Y009739D01*
X012751Y009580D02*
X019130Y009580D01*
X019130Y009421D02*
X012751Y009421D01*
X012751Y009263D02*
X019130Y009263D01*
X019130Y009104D02*
X012751Y009104D01*
X012751Y008946D02*
X019130Y008946D01*
X019130Y008787D02*
X012751Y008787D01*
X012751Y008629D02*
X019130Y008629D01*
X019130Y008470D02*
X012751Y008470D01*
X012751Y008312D02*
X019130Y008312D01*
X019130Y008153D02*
X018507Y008153D01*
X018326Y008153D02*
X012751Y008153D01*
X012751Y007995D02*
X018088Y007995D01*
X018017Y007836D02*
X012751Y007836D01*
X012751Y007677D02*
X018017Y007677D01*
X018090Y007519D02*
X012751Y007519D01*
X012751Y007360D02*
X018330Y007360D01*
X018503Y007360D02*
X023351Y007360D01*
X023351Y007202D02*
X012751Y007202D01*
X012751Y007043D02*
X023351Y007043D01*
X023351Y006885D02*
X012751Y006885D01*
X012751Y006726D02*
X023351Y006726D01*
X023351Y006568D02*
X012751Y006568D01*
X012751Y006409D02*
X023351Y006409D01*
X023351Y006251D02*
X012751Y006251D01*
X012751Y006092D02*
X023351Y006092D01*
X023351Y005933D02*
X012751Y005933D01*
X019630Y008008D02*
X021501Y008008D01*
X021501Y008128D01*
X021501Y010024D01*
X019630Y010024D01*
X019630Y008008D01*
X019630Y008153D02*
X021501Y008153D01*
X021501Y008312D02*
X019630Y008312D01*
X019630Y008470D02*
X021501Y008470D01*
X021501Y008629D02*
X019630Y008629D01*
X019630Y008787D02*
X021501Y008787D01*
X021501Y008946D02*
X019630Y008946D01*
X019630Y009104D02*
X021501Y009104D01*
X021501Y009263D02*
X019630Y009263D01*
X019630Y009421D02*
X021501Y009421D01*
X021501Y009580D02*
X019630Y009580D01*
X019630Y009739D02*
X021501Y009739D01*
X021501Y009897D02*
X019630Y009897D01*
X019830Y010531D02*
X021974Y010531D01*
X021974Y010690D02*
X019830Y010690D01*
X019830Y010848D02*
X021974Y010848D01*
X021974Y011007D02*
X019830Y011007D01*
X019830Y011165D02*
X021974Y011165D01*
X022117Y011324D02*
X019830Y011324D01*
X019830Y011482D02*
X022276Y011482D01*
X022435Y011641D02*
X019830Y011641D01*
X019830Y011800D02*
X022593Y011800D01*
X022752Y011958D02*
X019830Y011958D01*
X020128Y012117D02*
X022910Y012117D01*
X023069Y012275D02*
X020272Y012275D01*
X020338Y012434D02*
X023227Y012434D01*
X023386Y012592D02*
X020354Y012592D01*
X020337Y012751D02*
X023544Y012751D01*
X023703Y012909D02*
X020271Y012909D01*
X020125Y013068D02*
X023861Y013068D01*
X023931Y013226D02*
X019751Y013226D01*
X019751Y013385D02*
X023931Y013385D01*
X023931Y013544D02*
X019751Y013544D01*
X019751Y013702D02*
X023931Y013702D01*
X023931Y013861D02*
X019751Y013861D01*
X019751Y014019D02*
X023931Y014019D01*
X023931Y014178D02*
X019751Y014178D01*
X019751Y014336D02*
X023931Y014336D01*
X023931Y014495D02*
X019751Y014495D01*
X019751Y014653D02*
X023931Y014653D01*
X023931Y014812D02*
X019751Y014812D01*
X018582Y015763D02*
X022151Y015763D01*
X022151Y015605D02*
X018002Y015605D01*
X017171Y015605D02*
X014784Y015605D01*
X014943Y015763D02*
X017171Y015763D01*
X017171Y015922D02*
X015101Y015922D01*
X015260Y016080D02*
X017171Y016080D01*
X017171Y016239D02*
X015418Y016239D01*
X015577Y016397D02*
X017171Y016397D01*
X017171Y016556D02*
X015736Y016556D01*
X015894Y016714D02*
X017171Y016714D01*
X017171Y016873D02*
X016053Y016873D01*
X016054Y016874D02*
X017154Y016874D01*
X017171Y016891D01*
X017171Y014132D01*
X017314Y013989D01*
X017460Y013843D01*
X017460Y013736D01*
X014734Y011010D01*
X013036Y011010D01*
X013047Y011022D01*
X013047Y012027D01*
X012756Y012318D01*
X012751Y012318D01*
X012751Y013874D01*
X013054Y013874D01*
X013201Y014021D01*
X016054Y016874D01*
X017171Y015446D02*
X014626Y015446D01*
X014467Y015288D02*
X017171Y015288D01*
X017171Y015129D02*
X014309Y015129D01*
X014150Y014970D02*
X017171Y014970D01*
X017171Y014812D02*
X013992Y014812D01*
X013833Y014653D02*
X017171Y014653D01*
X017171Y014495D02*
X013674Y014495D01*
X013516Y014336D02*
X017171Y014336D01*
X017171Y014178D02*
X013357Y014178D01*
X013199Y014019D02*
X017284Y014019D01*
X017442Y013861D02*
X012751Y013861D01*
X012751Y013702D02*
X017426Y013702D01*
X017268Y013544D02*
X012751Y013544D01*
X012751Y013385D02*
X017109Y013385D01*
X016950Y013226D02*
X012751Y013226D01*
X012751Y013068D02*
X016792Y013068D01*
X016633Y012909D02*
X012751Y012909D01*
X012751Y012751D02*
X016475Y012751D01*
X016316Y012592D02*
X012751Y012592D01*
X012751Y012434D02*
X016158Y012434D01*
X015999Y012275D02*
X012799Y012275D01*
X012958Y012117D02*
X015841Y012117D01*
X015682Y011958D02*
X013047Y011958D01*
X013047Y011800D02*
X015524Y011800D01*
X015365Y011641D02*
X013047Y011641D01*
X013047Y011482D02*
X015206Y011482D01*
X015048Y011324D02*
X013047Y011324D01*
X013047Y011165D02*
X014889Y011165D01*
X027151Y010424D02*
X027151Y010366D01*
X027208Y010424D01*
X027151Y010424D01*
X027151Y010373D02*
X027157Y010373D01*
X027476Y010056D02*
X029489Y010056D01*
X029647Y010214D02*
X027634Y010214D01*
X027793Y010373D02*
X029734Y010373D01*
X029734Y010424D02*
X027845Y010424D01*
X027151Y009730D01*
X027151Y007988D01*
X027261Y007988D01*
X027421Y007988D01*
X029734Y010301D01*
X029734Y010424D01*
X029535Y010524D02*
X028256Y010524D01*
X029542Y011811D01*
X030851Y011811D01*
X030851Y010524D01*
X030694Y010524D01*
X030623Y010696D01*
X030454Y010865D01*
X030234Y010956D01*
X029995Y010956D01*
X029775Y010865D01*
X029606Y010696D01*
X029535Y010524D01*
X029538Y010531D02*
X028263Y010531D01*
X028421Y010690D02*
X029603Y010690D01*
X029758Y010848D02*
X028580Y010848D01*
X028738Y011007D02*
X030851Y011007D01*
X030851Y011165D02*
X028897Y011165D01*
X029055Y011324D02*
X030851Y011324D01*
X030851Y011482D02*
X029214Y011482D01*
X029372Y011641D02*
X030851Y011641D01*
X030851Y011800D02*
X029531Y011800D01*
X030471Y010848D02*
X030851Y010848D01*
X030851Y010690D02*
X030626Y010690D01*
X030691Y010531D02*
X030851Y010531D01*
X031051Y010424D02*
X030494Y010424D01*
X030494Y010281D01*
X030437Y010141D01*
X030330Y010034D01*
X030190Y009976D01*
X030060Y009976D01*
X027746Y007662D01*
X027611Y007528D01*
X027396Y007528D01*
X027396Y006452D01*
X027408Y006464D01*
X028293Y006464D01*
X028465Y006292D01*
X028834Y006661D01*
X029020Y006661D01*
X031051Y006661D01*
X031051Y009129D01*
X030266Y009129D01*
X029791Y008655D01*
X029791Y008524D01*
X029734Y008385D01*
X029627Y008278D01*
X029487Y008220D01*
X029336Y008220D01*
X029196Y008278D01*
X029089Y008385D01*
X029031Y008524D01*
X029031Y008676D01*
X029089Y008815D01*
X029196Y008922D01*
X029336Y008980D01*
X029466Y008980D01*
X029940Y009454D01*
X030075Y009589D01*
X031051Y009589D01*
X031051Y010424D01*
X031051Y010373D02*
X030494Y010373D01*
X030467Y010214D02*
X031051Y010214D01*
X031051Y010056D02*
X030351Y010056D01*
X029981Y009897D02*
X031051Y009897D01*
X031051Y009739D02*
X029822Y009739D01*
X029663Y009580D02*
X030066Y009580D01*
X029908Y009421D02*
X029505Y009421D01*
X029346Y009263D02*
X029749Y009263D01*
X029591Y009104D02*
X029188Y009104D01*
X029254Y008946D02*
X029029Y008946D01*
X029078Y008787D02*
X028871Y008787D01*
X028712Y008629D02*
X029031Y008629D01*
X029054Y008470D02*
X028554Y008470D01*
X028395Y008312D02*
X029162Y008312D01*
X029661Y008312D02*
X031051Y008312D01*
X031051Y008470D02*
X029769Y008470D01*
X029791Y008629D02*
X031051Y008629D01*
X031051Y008787D02*
X029924Y008787D01*
X030083Y008946D02*
X031051Y008946D01*
X031051Y009104D02*
X030241Y009104D01*
X030751Y009024D02*
X041431Y009024D01*
X041379Y008973D01*
X041312Y008812D01*
X041312Y008637D01*
X041379Y008476D01*
X041502Y008353D01*
X041663Y008286D01*
X041838Y008286D01*
X041999Y008353D01*
X042122Y008476D01*
X042189Y008637D01*
X042189Y008812D01*
X042122Y008973D01*
X042070Y009024D01*
X063810Y009024D01*
X064051Y008784D01*
X064051Y007682D01*
X063693Y007682D01*
X063105Y008270D01*
X063105Y008394D01*
X063038Y008556D01*
X062914Y008680D01*
X062753Y008747D01*
X062578Y008747D01*
X062416Y008680D01*
X062328Y008592D01*
X052782Y008592D01*
X052615Y008425D01*
X051414Y007224D01*
X047448Y007224D01*
X047448Y007225D01*
X047448Y007423D01*
X047372Y007606D01*
X047232Y007746D01*
X047049Y007822D01*
X046852Y007822D01*
X046669Y007746D01*
X046529Y007606D01*
X046453Y007423D01*
X046453Y007225D01*
X046454Y007224D01*
X030751Y007224D01*
X030751Y009024D01*
X030751Y008946D02*
X041368Y008946D01*
X041312Y008787D02*
X030751Y008787D01*
X030751Y008629D02*
X041316Y008629D01*
X041385Y008470D02*
X030751Y008470D01*
X030751Y008312D02*
X041602Y008312D01*
X041899Y008312D02*
X043841Y008312D01*
X043802Y008296D02*
X043679Y008173D01*
X043612Y008012D01*
X043612Y007837D01*
X043679Y007676D01*
X043802Y007553D01*
X043963Y007486D01*
X044138Y007486D01*
X044299Y007553D01*
X044422Y007676D01*
X044489Y007837D01*
X044489Y008012D01*
X044422Y008173D01*
X044299Y008296D01*
X044138Y008362D01*
X043963Y008362D01*
X043802Y008296D01*
X043671Y008153D02*
X030751Y008153D01*
X030751Y007995D02*
X043612Y007995D01*
X043613Y007836D02*
X030751Y007836D01*
X030751Y007677D02*
X043679Y007677D01*
X043885Y007519D02*
X030751Y007519D01*
X030751Y007360D02*
X046453Y007360D01*
X046493Y007519D02*
X044216Y007519D01*
X044422Y007677D02*
X046600Y007677D01*
X046669Y007903D02*
X046852Y007827D01*
X047049Y007827D01*
X047232Y007903D01*
X047372Y008043D01*
X047448Y008225D01*
X047448Y008423D01*
X047372Y008606D01*
X047232Y008746D01*
X047049Y008822D01*
X046852Y008822D01*
X046669Y008746D01*
X046529Y008606D01*
X046453Y008423D01*
X046453Y008225D01*
X046529Y008043D01*
X046669Y007903D01*
X046577Y007995D02*
X044489Y007995D01*
X044488Y007836D02*
X046830Y007836D01*
X047071Y007836D02*
X052026Y007836D01*
X052184Y007995D02*
X047324Y007995D01*
X047418Y008153D02*
X052343Y008153D01*
X052502Y008312D02*
X047448Y008312D01*
X047429Y008470D02*
X052660Y008470D01*
X053018Y008022D02*
X062328Y008022D01*
X062416Y007934D01*
X062578Y007867D01*
X062702Y007867D01*
X063088Y007480D01*
X062813Y007480D01*
X062596Y007697D01*
X062427Y007867D01*
X059079Y007867D01*
X058839Y007867D01*
X058501Y007530D01*
X058373Y007658D01*
X057928Y007658D01*
X057614Y007344D01*
X057614Y007224D01*
X052220Y007224D01*
X053018Y008022D01*
X052991Y007995D02*
X062355Y007995D01*
X062457Y007836D02*
X062733Y007836D01*
X062616Y007677D02*
X062891Y007677D01*
X062774Y007519D02*
X063050Y007519D01*
X063380Y007995D02*
X064051Y007995D01*
X064051Y008153D02*
X063222Y008153D01*
X063105Y008312D02*
X064051Y008312D01*
X064051Y008470D02*
X063074Y008470D01*
X062965Y008629D02*
X064051Y008629D01*
X064048Y008787D02*
X047133Y008787D01*
X047350Y008629D02*
X062365Y008629D01*
X063539Y007836D02*
X064051Y007836D01*
X063889Y008946D02*
X042133Y008946D01*
X042189Y008787D02*
X046768Y008787D01*
X046551Y008629D02*
X042185Y008629D01*
X042116Y008470D02*
X046472Y008470D01*
X046453Y008312D02*
X044261Y008312D01*
X044430Y008153D02*
X046483Y008153D01*
X047301Y007677D02*
X051867Y007677D01*
X051709Y007519D02*
X047408Y007519D01*
X047448Y007360D02*
X051550Y007360D01*
X052356Y007360D02*
X057630Y007360D01*
X057789Y007519D02*
X052515Y007519D01*
X052673Y007677D02*
X058649Y007677D01*
X058808Y007836D02*
X052832Y007836D01*
X059016Y007224D02*
X059079Y007287D01*
X059614Y007287D01*
X059614Y007224D01*
X059016Y007224D01*
X060687Y007224D02*
X060687Y007287D01*
X062186Y007287D01*
X062249Y007224D01*
X060687Y007224D01*
X064051Y014924D02*
X037929Y014924D01*
X037873Y014948D01*
X037698Y014948D01*
X037641Y014924D01*
X031418Y014924D01*
X031511Y015017D01*
X031511Y015431D01*
X031218Y015724D01*
X030808Y015724D01*
X031073Y015989D01*
X032039Y015989D01*
X032280Y015989D01*
X032432Y016141D01*
X032602Y016311D01*
X032602Y016528D01*
X032602Y016724D01*
X064131Y016724D01*
X064131Y016624D01*
X064051Y016624D01*
X064051Y014924D01*
X064051Y014970D02*
X031464Y014970D01*
X031511Y015129D02*
X064051Y015129D01*
X064051Y015288D02*
X031511Y015288D01*
X031496Y015446D02*
X064051Y015446D01*
X064051Y015605D02*
X031337Y015605D01*
X031006Y015922D02*
X064051Y015922D01*
X064051Y016080D02*
X032371Y016080D01*
X032530Y016239D02*
X064051Y016239D01*
X064051Y016397D02*
X032602Y016397D01*
X032602Y016556D02*
X064051Y016556D01*
X064131Y016714D02*
X032602Y016714D01*
X031982Y016569D02*
X030832Y016569D01*
X030751Y016487D01*
X030751Y016724D01*
X031826Y016724D01*
X031969Y016581D01*
X031982Y016569D01*
X031836Y016714D02*
X030751Y016714D01*
X030752Y016714D02*
X030230Y016714D01*
X030224Y016720D02*
X030004Y016811D01*
X029765Y016811D01*
X029545Y016720D01*
X029486Y016661D01*
X028643Y016661D01*
X030416Y018434D01*
X030851Y018434D01*
X030851Y016729D01*
X030766Y016729D01*
X030503Y016465D01*
X030450Y016413D01*
X030393Y016551D01*
X030224Y016720D01*
X030388Y016556D02*
X030593Y016556D01*
X030751Y016556D02*
X030820Y016556D01*
X030851Y016873D02*
X028855Y016873D01*
X028697Y016714D02*
X029539Y016714D01*
X029172Y017190D02*
X030851Y017190D01*
X030851Y017031D02*
X029014Y017031D01*
X029331Y017349D02*
X030851Y017349D01*
X030851Y017507D02*
X029489Y017507D01*
X029648Y017666D02*
X030851Y017666D01*
X030851Y017824D02*
X029806Y017824D01*
X029965Y017983D02*
X030851Y017983D01*
X030851Y018141D02*
X030123Y018141D01*
X030282Y018300D02*
X030851Y018300D01*
X030847Y015763D02*
X064051Y015763D01*
X064141Y023124D02*
X063466Y023124D01*
X061666Y024924D01*
X062562Y024924D01*
X063952Y023534D01*
X064151Y023534D01*
X064151Y023134D01*
X064141Y023124D01*
X064151Y023215D02*
X063376Y023215D01*
X063217Y023373D02*
X064151Y023373D01*
X064151Y023532D02*
X063059Y023532D01*
X062900Y023690D02*
X063796Y023690D01*
X063638Y023849D02*
X062741Y023849D01*
X062583Y024007D02*
X063479Y024007D01*
X063321Y024166D02*
X062424Y024166D01*
X062266Y024324D02*
X063162Y024324D01*
X063004Y024483D02*
X062107Y024483D01*
X061949Y024642D02*
X062845Y024642D01*
X062687Y024800D02*
X061790Y024800D01*
X061104Y024166D02*
X058124Y024166D01*
X057966Y024324D02*
X060946Y024324D01*
X060787Y024483D02*
X057807Y024483D01*
X057649Y024642D02*
X060629Y024642D01*
X060470Y024800D02*
X057490Y024800D01*
X057366Y024924D02*
X060346Y024924D01*
X061161Y024109D01*
X061161Y023991D01*
X061228Y023830D01*
X061352Y023706D01*
X061514Y023639D01*
X061689Y023639D01*
X061851Y023706D01*
X061964Y023820D01*
X062660Y023124D01*
X059166Y023124D01*
X057366Y024924D01*
X056987Y024483D02*
X053435Y024483D01*
X053450Y024477D02*
X053288Y024544D01*
X053113Y024544D01*
X052951Y024477D01*
X052828Y024353D01*
X052761Y024191D01*
X052761Y024067D01*
X051818Y023124D01*
X050432Y023124D01*
X050432Y023865D01*
X050432Y024105D01*
X049860Y024678D01*
X049690Y024847D01*
X049120Y024847D01*
X049043Y024924D01*
X056546Y024924D01*
X057225Y024245D01*
X053682Y024245D01*
X053618Y024245D01*
X053574Y024353D01*
X053450Y024477D01*
X053585Y024324D02*
X057146Y024324D01*
X056829Y024642D02*
X049896Y024642D01*
X049737Y024800D02*
X056670Y024800D01*
X057306Y023675D02*
X057327Y023653D01*
X057327Y023529D01*
X057394Y023367D01*
X057518Y023243D01*
X057680Y023176D01*
X057855Y023176D01*
X058017Y023243D01*
X058122Y023349D01*
X058346Y023124D01*
X054965Y023124D01*
X054968Y023130D01*
X054968Y023305D01*
X054901Y023467D01*
X054777Y023591D01*
X054615Y023658D01*
X054440Y023658D01*
X054278Y023591D01*
X054155Y023467D01*
X054088Y023305D01*
X054088Y023130D01*
X054090Y023124D01*
X053131Y023124D01*
X053682Y023675D01*
X057306Y023675D01*
X057327Y023532D02*
X054836Y023532D01*
X054939Y023373D02*
X057392Y023373D01*
X057587Y023215D02*
X054968Y023215D01*
X054219Y023532D02*
X053538Y023532D01*
X053380Y023373D02*
X054116Y023373D01*
X054088Y023215D02*
X053221Y023215D01*
X052225Y023532D02*
X050432Y023532D01*
X050432Y023690D02*
X052384Y023690D01*
X052542Y023849D02*
X050432Y023849D01*
X050432Y024007D02*
X052701Y024007D01*
X052761Y024166D02*
X050371Y024166D01*
X050213Y024324D02*
X052816Y024324D01*
X052966Y024483D02*
X050054Y024483D01*
X049530Y024187D02*
X049419Y024077D01*
X049352Y023915D01*
X049352Y023740D01*
X049419Y023578D01*
X049507Y023490D01*
X049507Y023124D01*
X047906Y023124D01*
X047872Y023206D01*
X047732Y023346D01*
X047549Y023422D01*
X047352Y023422D01*
X047169Y023346D01*
X047029Y023206D01*
X046995Y023124D01*
X030851Y023124D01*
X030851Y024924D01*
X035071Y024924D01*
X035002Y024896D01*
X034879Y024773D01*
X034812Y024612D01*
X034812Y024437D01*
X034879Y024276D01*
X035002Y024153D01*
X035163Y024086D01*
X035338Y024086D01*
X035499Y024153D01*
X035622Y024276D01*
X035689Y024437D01*
X035689Y024612D01*
X035622Y024773D01*
X035499Y024896D01*
X035430Y024924D01*
X048532Y024924D01*
X048415Y024807D01*
X048348Y024645D01*
X048348Y024470D01*
X048415Y024308D01*
X048539Y024184D01*
X048700Y024117D01*
X048875Y024117D01*
X049037Y024184D01*
X049120Y024267D01*
X049449Y024267D01*
X049530Y024187D01*
X049508Y024166D02*
X048992Y024166D01*
X048583Y024166D02*
X035512Y024166D01*
X035642Y024324D02*
X048408Y024324D01*
X048348Y024483D02*
X035689Y024483D01*
X035676Y024642D02*
X048348Y024642D01*
X048412Y024800D02*
X035594Y024800D01*
X034907Y024800D02*
X030851Y024800D01*
X030851Y024642D02*
X034825Y024642D01*
X034812Y024483D02*
X030851Y024483D01*
X030851Y024324D02*
X034859Y024324D01*
X034989Y024166D02*
X030851Y024166D01*
X030851Y024007D02*
X049390Y024007D01*
X049352Y023849D02*
X030851Y023849D01*
X030851Y023690D02*
X049373Y023690D01*
X049465Y023532D02*
X030851Y023532D01*
X030851Y023373D02*
X047234Y023373D01*
X047037Y023215D02*
X030851Y023215D01*
X022812Y028288D02*
X021851Y028288D01*
X021851Y028130D02*
X022669Y028130D01*
X022812Y028447D02*
X021851Y028447D01*
X021851Y028605D02*
X022876Y028605D01*
X022967Y028764D02*
X021851Y028764D01*
X021851Y028922D02*
X022967Y028922D01*
X022967Y029081D02*
X021851Y029081D01*
X021958Y029239D02*
X022967Y029239D01*
X022967Y029398D02*
X022116Y029398D01*
X022146Y029556D02*
X022967Y029556D01*
X022967Y029715D02*
X022146Y029715D01*
X022146Y029874D02*
X022967Y029874D01*
X022967Y030032D02*
X022146Y030032D01*
X022146Y030191D02*
X022967Y030191D01*
X022967Y030349D02*
X022146Y030349D01*
X022027Y030508D02*
X022967Y030508D01*
X022967Y030666D02*
X021851Y030666D01*
X021851Y030825D02*
X022967Y030825D01*
X022967Y030983D02*
X021851Y030983D01*
X021851Y031142D02*
X022967Y031142D01*
X022967Y031300D02*
X021851Y031300D01*
X021851Y031459D02*
X022967Y031459D01*
X022967Y031617D02*
X021851Y031617D01*
X021851Y031776D02*
X022967Y031776D01*
X022967Y031935D02*
X021851Y031935D01*
X021851Y032093D02*
X022967Y032093D01*
X022967Y032252D02*
X021851Y032252D01*
X021851Y032410D02*
X022967Y032410D01*
X022967Y032569D02*
X021851Y032569D01*
X021851Y032727D02*
X022967Y032727D01*
X020615Y034154D02*
X020473Y034154D01*
X020366Y034313D02*
X020774Y034313D01*
X020932Y034471D02*
X012751Y034471D01*
X012751Y034313D02*
X018789Y034313D01*
X018691Y034154D02*
X012751Y034154D01*
X012751Y033996D02*
X018672Y033996D01*
X018719Y033837D02*
X012751Y033837D01*
X012751Y033679D02*
X018827Y033679D01*
X018827Y033520D02*
X012751Y033520D01*
X012751Y033361D02*
X015776Y033361D01*
X015624Y033203D02*
X012751Y033203D01*
X012751Y033044D02*
X015624Y033044D01*
X015624Y032886D02*
X012751Y032886D01*
X012751Y032727D02*
X015624Y032727D01*
X015624Y032569D02*
X012751Y032569D01*
X012751Y032410D02*
X015624Y032410D01*
X015624Y032252D02*
X012751Y032252D01*
X012751Y032093D02*
X015624Y032093D01*
X015624Y031935D02*
X012751Y031935D01*
X012751Y031776D02*
X015624Y031776D01*
X015624Y031617D02*
X012751Y031617D01*
X012751Y031459D02*
X015624Y031459D01*
X015624Y031300D02*
X012751Y031300D01*
X012751Y031142D02*
X015624Y031142D01*
X015624Y030983D02*
X012751Y030983D01*
X012751Y030825D02*
X015624Y030825D01*
X015624Y030666D02*
X012751Y030666D01*
X012751Y030508D02*
X015624Y030508D01*
X015624Y030349D02*
X012751Y030349D01*
X012751Y030191D02*
X015624Y030191D01*
X015624Y030032D02*
X012751Y030032D01*
X012751Y029874D02*
X015624Y029874D01*
X015772Y029715D02*
X012751Y029715D01*
X012751Y029556D02*
X016414Y029556D01*
X016255Y029398D02*
X012751Y029398D01*
X012751Y029239D02*
X016097Y029239D01*
X015938Y029081D02*
X012751Y029081D01*
X012751Y028922D02*
X015779Y028922D01*
X015621Y028764D02*
X012751Y028764D01*
X012751Y028605D02*
X015462Y028605D01*
X015304Y028447D02*
X012751Y028447D01*
X012751Y028288D02*
X015145Y028288D01*
X014987Y028130D02*
X012751Y028130D01*
X012751Y027971D02*
X014828Y027971D01*
X014670Y027812D02*
X012751Y027812D01*
X012751Y027654D02*
X014511Y027654D01*
X014353Y027495D02*
X012751Y027495D01*
X012751Y027337D02*
X014194Y027337D01*
X014035Y027178D02*
X012751Y027178D01*
X012751Y027020D02*
X013877Y027020D01*
X013718Y026861D02*
X012751Y026861D01*
X012751Y026703D02*
X013560Y026703D01*
X013401Y026544D02*
X012751Y026544D01*
X012751Y026386D02*
X013243Y026386D01*
X013084Y026227D02*
X012751Y026227D01*
X012751Y026068D02*
X012926Y026068D01*
X012767Y025910D02*
X012751Y025910D01*
X012151Y025910D02*
X009851Y025910D01*
X009866Y025875D02*
X009774Y026095D01*
X009605Y026264D01*
X009385Y026356D01*
X009295Y026356D01*
X007341Y028310D01*
X007341Y028509D01*
X007080Y028769D01*
X006995Y028769D01*
X006940Y028824D01*
X007151Y029034D01*
X007151Y029614D01*
X006940Y029824D01*
X007151Y030034D01*
X007151Y030614D01*
X006740Y031024D01*
X005561Y031024D01*
X005511Y030974D01*
X005511Y031275D01*
X005561Y031224D01*
X006740Y031224D01*
X007151Y031634D01*
X007151Y032214D01*
X006940Y032424D01*
X007151Y032634D01*
X007151Y033214D01*
X006940Y033424D01*
X007151Y033634D01*
X007151Y034214D01*
X006940Y034424D01*
X007151Y034634D01*
X007151Y035214D01*
X006940Y035424D01*
X007151Y035634D01*
X007151Y036214D01*
X006940Y036424D01*
X007151Y036634D01*
X007151Y037214D01*
X006940Y037424D01*
X007151Y037634D01*
X007151Y038214D01*
X006940Y038424D01*
X007151Y038634D01*
X007151Y039214D01*
X006770Y039595D01*
X006786Y039599D01*
X006895Y039644D01*
X007001Y039699D01*
X007100Y039762D01*
X007194Y039835D01*
X007280Y039916D01*
X007288Y039924D01*
X010941Y039924D01*
X010941Y039704D01*
X011110Y039296D01*
X011422Y038983D01*
X011830Y038814D01*
X012151Y038814D01*
X012151Y025576D01*
X009908Y023333D01*
X009647Y023073D01*
X009647Y021224D01*
X005511Y021224D01*
X005511Y022675D01*
X005561Y022624D01*
X006740Y022624D01*
X007151Y023034D01*
X007151Y023614D01*
X006740Y024024D01*
X005561Y024024D01*
X005511Y023974D01*
X005511Y024675D01*
X005561Y024624D01*
X006740Y024624D01*
X006853Y024737D01*
X007897Y023694D01*
X007897Y023655D01*
X007988Y023435D01*
X008157Y023266D01*
X008377Y023174D01*
X008616Y023174D01*
X008836Y023266D01*
X009005Y023435D01*
X009097Y023655D01*
X009097Y023894D01*
X009005Y024114D01*
X008836Y024283D01*
X008616Y024374D01*
X008475Y024374D01*
X007080Y025769D01*
X006995Y025769D01*
X006940Y025824D01*
X007151Y026034D01*
X007151Y026614D01*
X006940Y026824D01*
X007151Y027034D01*
X007151Y027241D01*
X008666Y025726D01*
X008666Y025636D01*
X008757Y025416D01*
X008926Y025247D01*
X009146Y025156D01*
X009385Y025156D01*
X009605Y025247D01*
X009774Y025416D01*
X009866Y025636D01*
X009866Y025875D01*
X009866Y025751D02*
X012151Y025751D01*
X012151Y025593D02*
X009848Y025593D01*
X009782Y025434D02*
X012009Y025434D01*
X011850Y025276D02*
X009634Y025276D01*
X008897Y025276D02*
X007574Y025276D01*
X007732Y025117D02*
X011692Y025117D01*
X011533Y024959D02*
X007891Y024959D01*
X008049Y024800D02*
X011374Y024800D01*
X011216Y024642D02*
X008208Y024642D01*
X008366Y024483D02*
X011057Y024483D01*
X010899Y024324D02*
X008736Y024324D01*
X008954Y024166D02*
X010740Y024166D01*
X010582Y024007D02*
X009050Y024007D01*
X009097Y023849D02*
X010423Y023849D01*
X010265Y023690D02*
X009097Y023690D01*
X009046Y023532D02*
X010106Y023532D01*
X009948Y023373D02*
X008944Y023373D01*
X008713Y023215D02*
X009789Y023215D01*
X009647Y023056D02*
X007151Y023056D01*
X007151Y023215D02*
X008280Y023215D01*
X008049Y023373D02*
X007151Y023373D01*
X007151Y023532D02*
X007948Y023532D01*
X007897Y023690D02*
X007075Y023690D01*
X006916Y023849D02*
X007742Y023849D01*
X007583Y024007D02*
X006757Y024007D01*
X007108Y024483D02*
X005511Y024483D01*
X005511Y024324D02*
X007266Y024324D01*
X007425Y024166D02*
X005511Y024166D01*
X005511Y024007D02*
X005544Y024007D01*
X005511Y024642D02*
X005543Y024642D01*
X006758Y024642D02*
X006949Y024642D01*
X007415Y025434D02*
X008749Y025434D01*
X008684Y025593D02*
X007256Y025593D01*
X007098Y025751D02*
X008641Y025751D01*
X008482Y025910D02*
X007026Y025910D01*
X007151Y026068D02*
X008323Y026068D01*
X008165Y026227D02*
X007151Y026227D01*
X007151Y026386D02*
X008006Y026386D01*
X007848Y026544D02*
X007151Y026544D01*
X007062Y026703D02*
X007689Y026703D01*
X007531Y026861D02*
X006977Y026861D01*
X007136Y027020D02*
X007372Y027020D01*
X007214Y027178D02*
X007151Y027178D01*
X008155Y027495D02*
X012151Y027495D01*
X012151Y027337D02*
X008314Y027337D01*
X008472Y027178D02*
X012151Y027178D01*
X012151Y027020D02*
X008631Y027020D01*
X008789Y026861D02*
X012151Y026861D01*
X012151Y026703D02*
X008948Y026703D01*
X009106Y026544D02*
X012151Y026544D01*
X012151Y026386D02*
X009265Y026386D01*
X009643Y026227D02*
X012151Y026227D01*
X012151Y026068D02*
X009785Y026068D01*
X007997Y027654D02*
X012151Y027654D01*
X012151Y027812D02*
X007838Y027812D01*
X007679Y027971D02*
X012151Y027971D01*
X012151Y028130D02*
X007521Y028130D01*
X007362Y028288D02*
X012151Y028288D01*
X012151Y028447D02*
X007341Y028447D01*
X007244Y028605D02*
X012151Y028605D01*
X012151Y028764D02*
X007086Y028764D01*
X007038Y028922D02*
X012151Y028922D01*
X012151Y029081D02*
X007151Y029081D01*
X007151Y029239D02*
X012151Y029239D01*
X012151Y029398D02*
X007151Y029398D01*
X007151Y029556D02*
X012151Y029556D01*
X012151Y029715D02*
X007050Y029715D01*
X006990Y029874D02*
X012151Y029874D01*
X012151Y030032D02*
X007148Y030032D01*
X007151Y030191D02*
X012151Y030191D01*
X012151Y030349D02*
X007151Y030349D01*
X007151Y030508D02*
X012151Y030508D01*
X012151Y030666D02*
X007099Y030666D01*
X006940Y030825D02*
X012151Y030825D01*
X012151Y030983D02*
X006782Y030983D01*
X006816Y031300D02*
X012151Y031300D01*
X012151Y031142D02*
X005511Y031142D01*
X005511Y030983D02*
X005520Y030983D01*
X006975Y031459D02*
X012151Y031459D01*
X012151Y031617D02*
X007134Y031617D01*
X007151Y031776D02*
X012151Y031776D01*
X012151Y031935D02*
X007151Y031935D01*
X007151Y032093D02*
X012151Y032093D01*
X012151Y032252D02*
X007113Y032252D01*
X006955Y032410D02*
X012151Y032410D01*
X012151Y032569D02*
X007085Y032569D01*
X007151Y032727D02*
X012151Y032727D01*
X012151Y032886D02*
X007151Y032886D01*
X007151Y033044D02*
X012151Y033044D01*
X012151Y033203D02*
X007151Y033203D01*
X007003Y033361D02*
X012151Y033361D01*
X012151Y033520D02*
X007036Y033520D01*
X007151Y033679D02*
X012151Y033679D01*
X012151Y033837D02*
X007151Y033837D01*
X007151Y033996D02*
X012151Y033996D01*
X012151Y034154D02*
X007151Y034154D01*
X007052Y034313D02*
X012151Y034313D01*
X012151Y034471D02*
X006987Y034471D01*
X007146Y034630D02*
X012151Y034630D01*
X012151Y034788D02*
X007151Y034788D01*
X007151Y034947D02*
X012151Y034947D01*
X012151Y035105D02*
X007151Y035105D01*
X007101Y035264D02*
X012151Y035264D01*
X012151Y035423D02*
X006942Y035423D01*
X007097Y035581D02*
X012151Y035581D01*
X012151Y035740D02*
X007151Y035740D01*
X007151Y035898D02*
X012151Y035898D01*
X012151Y036057D02*
X007151Y036057D01*
X007150Y036215D02*
X012151Y036215D01*
X012151Y036374D02*
X006991Y036374D01*
X007048Y036532D02*
X012151Y036532D01*
X012151Y036691D02*
X007151Y036691D01*
X007151Y036849D02*
X012151Y036849D01*
X012151Y037008D02*
X007151Y037008D01*
X007151Y037166D02*
X012151Y037166D01*
X012151Y037325D02*
X007040Y037325D01*
X007000Y037484D02*
X012151Y037484D01*
X012151Y037642D02*
X007151Y037642D01*
X007151Y037801D02*
X012151Y037801D01*
X012151Y037959D02*
X007151Y037959D01*
X007151Y038118D02*
X012151Y038118D01*
X012151Y038276D02*
X007089Y038276D01*
X006951Y038435D02*
X012151Y038435D01*
X012151Y038593D02*
X007109Y038593D01*
X007151Y038752D02*
X012151Y038752D01*
X011598Y038910D02*
X007151Y038910D01*
X007151Y039069D02*
X011336Y039069D01*
X011178Y039228D02*
X007137Y039228D01*
X006979Y039386D02*
X011072Y039386D01*
X011006Y039545D02*
X006820Y039545D01*
X007008Y039703D02*
X010941Y039703D01*
X010941Y039862D02*
X007222Y039862D01*
X005852Y039624D02*
X005561Y039624D01*
X005511Y039574D01*
X005511Y039834D01*
X005553Y039798D01*
X005650Y039729D01*
X005752Y039670D01*
X005852Y039624D01*
X005695Y039703D02*
X005511Y039703D01*
X012751Y035105D02*
X021347Y035105D01*
X021229Y034947D02*
X012751Y034947D01*
X012751Y034788D02*
X021197Y034788D01*
X021091Y034630D02*
X012751Y034630D01*
X016048Y035740D02*
X023167Y035740D01*
X023167Y035898D02*
X016078Y035898D01*
X016236Y036057D02*
X023167Y036057D01*
X023167Y036215D02*
X016395Y036215D01*
X016866Y036374D02*
X023324Y036374D01*
X023483Y036532D02*
X016945Y036532D01*
X016951Y036691D02*
X023641Y036691D01*
X023800Y036849D02*
X016890Y036849D01*
X017866Y033361D02*
X018827Y033361D01*
X018827Y033203D02*
X018017Y033203D01*
X018017Y033044D02*
X018827Y033044D01*
X018827Y032886D02*
X018017Y032886D01*
X018017Y032727D02*
X018827Y032727D01*
X018827Y032569D02*
X018017Y032569D01*
X018017Y032410D02*
X018827Y032410D01*
X018827Y032252D02*
X018017Y032252D01*
X018017Y032093D02*
X018827Y032093D01*
X018827Y031935D02*
X018017Y031935D01*
X018017Y031776D02*
X018827Y031776D01*
X018827Y031617D02*
X018017Y031617D01*
X018017Y031459D02*
X018804Y031459D01*
X018646Y031300D02*
X018017Y031300D01*
X018017Y031142D02*
X018487Y031142D01*
X018329Y030983D02*
X018212Y030983D01*
X027361Y030884D02*
X027361Y028951D01*
X027494Y029084D01*
X027867Y029084D01*
X029857Y029084D01*
X029848Y029106D01*
X029848Y029345D01*
X029939Y029566D01*
X029962Y029589D01*
X028341Y031210D01*
X028233Y031166D01*
X027995Y031166D01*
X027774Y031257D01*
X027754Y031277D01*
X027361Y030884D01*
X027361Y030825D02*
X028726Y030825D01*
X028567Y030983D02*
X027460Y030983D01*
X027619Y031142D02*
X028409Y031142D01*
X028884Y030666D02*
X027361Y030666D01*
X027361Y030508D02*
X029043Y030508D01*
X029201Y030349D02*
X027361Y030349D01*
X027361Y030191D02*
X029360Y030191D01*
X029519Y030032D02*
X027361Y030032D01*
X027361Y029874D02*
X029677Y029874D01*
X029836Y029715D02*
X027361Y029715D01*
X027361Y029556D02*
X029935Y029556D01*
X029869Y029398D02*
X027361Y029398D01*
X027361Y029239D02*
X029848Y029239D01*
X027490Y029081D02*
X027361Y029081D01*
X030851Y033324D02*
X047498Y033324D01*
X045698Y035124D01*
X037352Y035124D01*
X037260Y035032D01*
X037024Y035032D01*
X030851Y035032D01*
X030851Y034324D01*
X030918Y034324D01*
X031211Y034031D01*
X031211Y033617D01*
X030918Y033324D01*
X030851Y033324D01*
X030955Y033361D02*
X047461Y033361D01*
X047303Y033520D02*
X031113Y033520D01*
X031211Y033679D02*
X047144Y033679D01*
X046986Y033837D02*
X031211Y033837D01*
X031211Y033996D02*
X046827Y033996D01*
X046669Y034154D02*
X031088Y034154D01*
X030929Y034313D02*
X046510Y034313D01*
X046352Y034471D02*
X030851Y034471D01*
X030851Y034630D02*
X046193Y034630D01*
X046034Y034788D02*
X030851Y034788D01*
X030851Y034947D02*
X045876Y034947D01*
X045717Y035105D02*
X037333Y035105D01*
X046519Y035124D02*
X047696Y035124D01*
X047696Y034365D01*
X047696Y034125D01*
X048042Y033779D01*
X047953Y033690D01*
X046519Y035124D01*
X046538Y035105D02*
X047696Y035105D01*
X047696Y034947D02*
X046696Y034947D01*
X046855Y034788D02*
X047696Y034788D01*
X047696Y034630D02*
X047013Y034630D01*
X047172Y034471D02*
X047696Y034471D01*
X047696Y034313D02*
X047330Y034313D01*
X047489Y034154D02*
X047696Y034154D01*
X047647Y033996D02*
X047825Y033996D01*
X047806Y033837D02*
X047984Y033837D01*
X048329Y034313D02*
X052511Y034313D01*
X052511Y034471D02*
X048276Y034471D01*
X048276Y034365D02*
X048276Y035124D01*
X056027Y035124D01*
X056054Y035058D01*
X056178Y034934D01*
X056340Y034867D01*
X056464Y034867D01*
X056860Y034472D01*
X057096Y034472D01*
X060169Y034472D01*
X060257Y034384D01*
X060419Y034317D01*
X060594Y034317D01*
X060756Y034384D01*
X060879Y034508D01*
X060946Y034669D01*
X060946Y034844D01*
X060936Y034868D01*
X060994Y034892D01*
X061082Y034980D01*
X064151Y034980D01*
X064151Y034164D01*
X064139Y034152D01*
X064139Y033324D01*
X062885Y033324D01*
X062991Y033431D01*
X063116Y033431D01*
X063277Y033498D01*
X063401Y033622D01*
X063468Y033783D01*
X063468Y033958D01*
X063401Y034120D01*
X063277Y034244D01*
X063116Y034311D01*
X062941Y034311D01*
X062779Y034244D01*
X062655Y034120D01*
X062588Y033958D01*
X062588Y033834D01*
X062079Y033324D01*
X057309Y033324D01*
X057309Y033421D01*
X057242Y033583D01*
X057119Y033706D01*
X056957Y033773D01*
X056840Y033773D01*
X056548Y034064D01*
X056308Y034064D01*
X054154Y034064D01*
X054191Y034101D01*
X054191Y034548D01*
X053874Y034864D01*
X052827Y034864D01*
X052511Y034548D01*
X052511Y034101D01*
X052547Y034064D01*
X048630Y034064D01*
X048577Y034064D01*
X048276Y034365D01*
X048276Y034630D02*
X052592Y034630D01*
X052751Y034788D02*
X048276Y034788D01*
X048276Y034947D02*
X056165Y034947D01*
X056035Y035105D02*
X048276Y035105D01*
X048487Y034154D02*
X052511Y034154D01*
X053950Y034788D02*
X056543Y034788D01*
X056702Y034630D02*
X054109Y034630D01*
X054191Y034471D02*
X060170Y034471D01*
X060169Y035042D02*
X057096Y035042D01*
X057013Y035124D01*
X060252Y035124D01*
X060169Y035042D01*
X060233Y035105D02*
X057032Y035105D01*
X056617Y033996D02*
X062604Y033996D01*
X062588Y033837D02*
X056776Y033837D01*
X057147Y033679D02*
X062433Y033679D01*
X062274Y033520D02*
X057268Y033520D01*
X057309Y033361D02*
X062116Y033361D01*
X062922Y033361D02*
X064139Y033361D01*
X064139Y033520D02*
X063300Y033520D01*
X063425Y033679D02*
X064139Y033679D01*
X064139Y033837D02*
X063468Y033837D01*
X063453Y033996D02*
X064139Y033996D01*
X064140Y034154D02*
X063367Y034154D01*
X062689Y034154D02*
X054191Y034154D01*
X054191Y034313D02*
X064151Y034313D01*
X064151Y034471D02*
X060843Y034471D01*
X060930Y034630D02*
X064151Y034630D01*
X064151Y034788D02*
X060946Y034788D01*
X061049Y034947D02*
X064151Y034947D01*
X056429Y033363D02*
X056429Y033324D01*
X049591Y033324D01*
X049591Y033484D01*
X056308Y033484D01*
X056429Y033363D01*
X056429Y033361D02*
X049591Y033361D01*
X063382Y024924D02*
X063586Y024924D01*
X063976Y024534D01*
X064151Y024534D01*
X064151Y024156D01*
X063382Y024924D01*
X063507Y024800D02*
X063710Y024800D01*
X063665Y024642D02*
X063869Y024642D01*
X063824Y024483D02*
X064151Y024483D01*
X064151Y024324D02*
X063982Y024324D01*
X064141Y024166D02*
X064151Y024166D01*
X062570Y023215D02*
X059076Y023215D01*
X058917Y023373D02*
X062411Y023373D01*
X062252Y023532D02*
X058759Y023532D01*
X058600Y023690D02*
X061390Y023690D01*
X061221Y023849D02*
X058441Y023849D01*
X058283Y024007D02*
X061161Y024007D01*
X061813Y023690D02*
X062094Y023690D01*
X058255Y023215D02*
X057947Y023215D01*
X052067Y023373D02*
X050432Y023373D01*
X050432Y023215D02*
X051908Y023215D01*
X049507Y023215D02*
X047864Y023215D01*
X047667Y023373D02*
X049507Y023373D01*
X029330Y009897D02*
X027317Y009897D01*
X027159Y009739D02*
X029171Y009739D01*
X029013Y009580D02*
X027151Y009580D01*
X027151Y009421D02*
X028854Y009421D01*
X028696Y009263D02*
X027151Y009263D01*
X027151Y009104D02*
X028537Y009104D01*
X028379Y008946D02*
X027151Y008946D01*
X027151Y008787D02*
X028220Y008787D01*
X028062Y008629D02*
X027151Y008629D01*
X027151Y008470D02*
X027903Y008470D01*
X027745Y008312D02*
X027151Y008312D01*
X027151Y008153D02*
X027586Y008153D01*
X027428Y007995D02*
X027151Y007995D01*
X027396Y007519D02*
X031051Y007519D01*
X031051Y007677D02*
X027761Y007677D01*
X027919Y007836D02*
X031051Y007836D01*
X031051Y007995D02*
X028078Y007995D01*
X028237Y008153D02*
X031051Y008153D01*
X031051Y007360D02*
X027396Y007360D01*
X027396Y007202D02*
X031051Y007202D01*
X031051Y007043D02*
X027396Y007043D01*
X027396Y006885D02*
X031051Y006885D01*
X031051Y006726D02*
X027396Y006726D01*
X027396Y006568D02*
X028741Y006568D01*
X028582Y006409D02*
X028348Y006409D01*
X028743Y005933D02*
X030151Y005933D01*
X030151Y005842D02*
X030338Y005654D01*
X029014Y005654D01*
X028827Y005654D01*
X028697Y005524D01*
X027396Y005524D01*
X027396Y005597D01*
X027408Y005584D01*
X028293Y005584D01*
X028508Y005799D01*
X028609Y005799D01*
X028741Y005931D01*
X029020Y006211D01*
X030155Y006211D01*
X030151Y006207D01*
X030151Y005842D01*
X030218Y005775D02*
X028483Y005775D01*
X028325Y005616D02*
X028789Y005616D01*
X028901Y006092D02*
X030151Y006092D01*
X012151Y021224D02*
X010537Y021224D01*
X010537Y022704D01*
X012151Y024318D01*
X012151Y022624D01*
X012131Y022624D01*
X011911Y022533D01*
X011742Y022364D01*
X011651Y022144D01*
X011651Y021905D01*
X011742Y021685D01*
X011911Y021516D01*
X012131Y021424D01*
X012151Y021424D01*
X012151Y021224D01*
X012151Y021312D02*
X010537Y021312D01*
X010537Y021471D02*
X012019Y021471D01*
X011797Y021629D02*
X010537Y021629D01*
X010537Y021788D02*
X011699Y021788D01*
X011651Y021946D02*
X010537Y021946D01*
X010537Y022105D02*
X011651Y022105D01*
X011700Y022263D02*
X010537Y022263D01*
X010537Y022422D02*
X011800Y022422D01*
X012025Y022581D02*
X010537Y022581D01*
X010572Y022739D02*
X012151Y022739D01*
X012151Y022898D02*
X010731Y022898D01*
X010889Y023056D02*
X012151Y023056D01*
X012151Y023215D02*
X011048Y023215D01*
X011206Y023373D02*
X012151Y023373D01*
X012151Y023532D02*
X011365Y023532D01*
X011523Y023690D02*
X012151Y023690D01*
X012151Y023849D02*
X011682Y023849D01*
X011840Y024007D02*
X012151Y024007D01*
X012151Y024166D02*
X011999Y024166D01*
X009647Y022898D02*
X007014Y022898D01*
X006855Y022739D02*
X009647Y022739D01*
X009647Y022581D02*
X005511Y022581D01*
X005511Y022422D02*
X009647Y022422D01*
X009647Y022263D02*
X005511Y022263D01*
X005511Y022105D02*
X009647Y022105D01*
X009647Y021946D02*
X005511Y021946D01*
X005511Y021788D02*
X009647Y021788D01*
X009647Y021629D02*
X005511Y021629D01*
X005511Y021471D02*
X009647Y021471D01*
X009647Y021312D02*
X005511Y021312D01*
D22*
X008051Y022224D03*
X010751Y025324D03*
X010751Y028424D03*
X008851Y034524D03*
X010951Y035824D03*
X035251Y024524D03*
X040151Y024524D03*
X043551Y024524D03*
X055051Y015224D03*
X044051Y007924D03*
X041751Y008724D03*
X056951Y007624D03*
M02*
