%
M48
M72
T01C0.0236
T02C0.0240
T03C0.0315
T04C0.0320
T05C0.0360
T06C0.0394
T07C0.0400
T08C0.1100
T09C0.1260
%
T01
X8051Y22224
X10751Y25324
X10751Y28424
X8851Y34524
X10951Y35824
X35251Y24524
X40151Y24524
X43551Y24524
X55051Y15224
X44051Y7924
X41751Y8724
X56951Y7624
T02
X62665Y8307
X63077Y10617
X63451Y15141
X60251Y15024
X61730Y19650
X61361Y20018
X61443Y20846
X63877Y20380
X58532Y22446
X57879Y22293
X57767Y23616
X55900Y23604
X54528Y23218
X53201Y24104
X49792Y23827
X48788Y24557
X49290Y22676
X49717Y21988
X48986Y21786
X52702Y20782
X54800Y20695
X52341Y17007
X51451Y15545
X50951Y13149
X47843Y10048
X45050Y9900
X40459Y12286
X38851Y10402
X36648Y10259
X34260Y10282
X33759Y10250
X33409Y10615
X31622Y9709
X30114Y10356
X29411Y8600
X26495Y9392
X22424Y8779
X20244Y8138
X20751Y7024
X18417Y7758
X16059Y7493
X19730Y11901
X19754Y12591
X17860Y13790
X16851Y14660
X17767Y15935
X18798Y16325
X16051Y16691
X19251Y18524
X18113Y19735
X17151Y20824
X18451Y22224
X17152Y22756
X15153Y24284
X14245Y24629
X15002Y25524
X16118Y26810
X19748Y27263
X20251Y26524
X21157Y25981
X21984Y25542
X23631Y26196
X24251Y25824
X23872Y27081
X23412Y28331
X22539Y28667
X25851Y28424
X26717Y27176
X27541Y25618
X26435Y24670
X28875Y26748
X30630Y28635
X30448Y29226
X28951Y30524
X27851Y30624
X28114Y31766
X29656Y31889
X30187Y31444
X30365Y30744
X33494Y30024
X35981Y28419
X37344Y27289
X38441Y28120
X39064Y28686
X40626Y28346
X41075Y28702
X41050Y29585
X42154Y27993
X42658Y27996
X43416Y27937
X44613Y26318
X41214Y25923
X40751Y26436
X40481Y25923
X39648Y25868
X38654Y26443
X35446Y25857
X35052Y26443
X32586Y28037
X32057Y27188
X31554Y27094
X29541Y22500
X26900Y22238
X24187Y21877
X22857Y19868
X25780Y18873
X25655Y17551
X26316Y17552
X26054Y16606
X28921Y16804
X29885Y16211
X32751Y17524
X32449Y18077
X31495Y19237
X29912Y19047
X35381Y19288
X36542Y19076
X37489Y18638
X40226Y17752
X40823Y18415
X40366Y18760
X40900Y19621
X42412Y17986
X43351Y16724
X44841Y18738
X37669Y20708
X34951Y22500
X36951Y16424
X37785Y14508
X31971Y14003
X31421Y12921
X30238Y12601
X26863Y13715
X24457Y12310
X22929Y17726
X19324Y20874
X20336Y21976
X20154Y23453
X14151Y19524
X12251Y22024
X8497Y23774
X7251Y24024
X9266Y25756
X14260Y29890
X17917Y30713
X19072Y34030
X19592Y34021
X20097Y34016
X21597Y34790
X23849Y34490
X26064Y35424
X26419Y34622
X28777Y33665
X30246Y35317
X30231Y36158
X29505Y37250
X30825Y37375
X32389Y37166
X29176Y38744
X30623Y39570
X26530Y38092
X27075Y36258
X32251Y33524
X36907Y36119
X37543Y35230
X38111Y36233
X38900Y35602
X39699Y37089
X40732Y36844
X40731Y37911
X40629Y38535
X41596Y38288
X42221Y37317
X43665Y37664
X45848Y37314
X46508Y39393
X45855Y40425
X43401Y39498
X43350Y41527
X40849Y41519
X39527Y40684
X37066Y39996
X36371Y38372
X37162Y37687
X37985Y38443
X38560Y37712
X41890Y36118
X39554Y32567
X41753Y32305
X42916Y31795
X47990Y29231
X54019Y25882
X59756Y28911
X61222Y29537
X61827Y31533
X63028Y33871
X60506Y34757
X60745Y35265
X59321Y36420
X60068Y37891
X59244Y39320
X57544Y39522
X56442Y39535
X52751Y40656
X49779Y40819
X48551Y40816
X56427Y35307
X56869Y33333
X62551Y27481
X61952Y26440
X64350Y26324
X61601Y24079
X36274Y8649
X38918Y6641
X37962Y6321
X40101Y5744
X40481Y6389
X44618Y6223
X26298Y31988
X23972Y32480
X16551Y36624
X15651Y35824
X14232Y37414
X19491Y38434
X22071Y40045
X14072Y33976
T03
X47151Y35424
X47151Y36424
X47151Y37424
X47151Y39424
X47151Y40424
X47151Y41424
X47251Y32324
X47251Y31324
X47251Y30324
X47351Y28124
X47351Y27124
X47351Y26124
X47451Y22924
X47451Y21924
X47451Y20924
X47651Y18624
X47651Y17624
X47651Y16624
X46951Y12524
X46951Y11524
X46951Y10524
X46951Y8324
X46951Y7324
X46951Y6324
T04
X30851Y6024
X30851Y5024
X27851Y5024
X27851Y6024
X27751Y14224
X27751Y15224
X30751Y15224
X30751Y14224
X30451Y32824
X30451Y33824
X27451Y33824
X27451Y32824
X27451Y40924
X27451Y41924
X30451Y41924
X30451Y40924
T05
X64851Y38824
X65851Y38824
X65851Y37824
X64851Y37824
X64851Y36824
X65851Y36824
X65851Y35824
X64851Y35824
X64851Y34824
X65851Y34824
X65851Y33824
X64851Y33824
X64851Y32824
X65851Y32824
X65851Y31824
X64851Y31824
X64851Y30824
X65851Y30824
X65851Y29824
X64851Y29824
X64851Y28824
X65851Y28824
X65851Y27824
X64851Y27824
X64851Y26824
X65851Y26824
X65851Y25824
X64851Y25824
X64851Y24824
X65851Y24824
X65851Y23824
X64851Y23824
X64851Y22824
X65851Y22824
X65851Y21824
X64851Y21824
X64851Y20824
X65851Y20824
X65851Y19824
X64851Y19824
X64851Y18824
X65851Y18824
X65851Y17824
X64851Y17824
X64851Y16824
X65851Y16824
X65851Y15824
X64851Y15824
X64851Y14824
X65851Y14824
X65851Y13824
X64851Y13824
X64851Y12824
X65851Y12824
X65851Y11824
X64851Y11824
X64851Y10824
X65851Y10824
X65851Y9824
X64851Y9824
X64851Y8824
X65851Y8824
X65851Y7824
X64851Y7824
T06
X60151Y6824
X59151Y6824
X58151Y6824
X12551Y11524
X11551Y11524
X10551Y11524
T07
X6151Y23324
X6151Y24324
X6151Y25324
X6151Y26324
X6151Y27324
X6151Y28324
X6151Y29324
X6151Y30324
X6151Y31924
X6151Y32924
X6151Y33924
X6151Y34924
X6151Y35924
X6151Y36924
X6151Y37924
X6151Y38924
X25151Y38924
X25151Y37924
X25151Y36924
X25151Y35924
X25151Y34924
X25151Y33924
X25151Y31924
X25151Y30924
X25151Y29924
X25151Y28924
X25151Y27924
X25151Y26924
X48751Y32424
X48751Y33424
X48751Y34424
X48751Y36924
X48751Y37924
X48751Y38924
X53151Y39224
X53151Y38224
X53151Y37224
X53351Y34324
X53351Y33324
X53351Y32324
X56351Y32124
X57351Y32124
X58351Y32124
X58551Y29724
X57551Y29724
X56551Y29724
T08
X6351Y5824
X6351Y40824
X66851Y40824
X66851Y5824
T09
X23051Y39824
X12051Y39924
X6151Y19924
M30
